<?xml version="1.0" encoding="UTF-8" standalone="no"?>
<!DOCTYPE svg PUBLIC "-//W3C//DTD SVG 1.1//EN"
 "http://www.w3.org/Graphics/SVG/1.1/DTD/svg11.dtd">
<!-- Generated by graphviz version 2.32.0 (20130916.1925)
 -->
<!-- Title: rcPositionTrackImpl::writeValue Pages: 1 -->
<svg width="1186pt" height="324pt"
 viewBox="0.00 0.00 1186.00 324.00" xmlns="http://www.w3.org/2000/svg" xmlns:xlink="http://www.w3.org/1999/xlink">
<g id="graph0" class="graph" transform="scale(1 1) rotate(0) translate(4 320)">
<title>rcPositionTrackImpl::writeValue</title>
<polygon fill="white" stroke="white" points="-4,5 -4,-320 1183,-320 1183,5 -4,5"/>
<!-- Node1 -->
<g id="node1" class="node"><title>Node1</title>
<polygon fill="#bfbfbf" stroke="black" points="0.28418,-90 0.28418,-122 103.716,-122 103.716,-90 0.28418,-90"/>
<text text-anchor="start" x="8.28418" y="-108" font-family="Helvetica,sans-Serif" font-size="10.00">rcPositionTrackImpl</text>
<text text-anchor="middle" x="52" y="-96" font-family="Helvetica,sans-Serif" font-size="10.00">::writeValue</text>
</g>
<!-- Node2 -->
<g id="node2" class="node"><title>Node2</title>
<g id="a_node2"><a xlink:href="classrc_position_track_impl.html#affd0c7f1ed9e7c94baf75cd215969013" target="_top" xlink:title="rcPositionTrackImpl\l::addSegment">
<polygon fill="white" stroke="black" points="161.284,-192 161.284,-224 264.716,-224 264.716,-192 161.284,-192"/>
<text text-anchor="start" x="169.284" y="-210" font-family="Helvetica,sans-Serif" font-size="10.00">rcPositionTrackImpl</text>
<text text-anchor="middle" x="213" y="-198" font-family="Helvetica,sans-Serif" font-size="10.00">::addSegment</text>
</a>
</g>
</g>
<!-- Node1&#45;&gt;Node2 -->
<g id="edge1" class="edge"><title>Node1&#45;&gt;Node2</title>
<path fill="none" stroke="midnightblue" d="M67.9506,-122.234C84.2634,-139.135 111.832,-165.41 140,-182 143.672,-184.163 147.553,-186.191 151.534,-188.086"/>
<polygon fill="midnightblue" stroke="midnightblue" points="150.391,-191.408 160.951,-192.262 153.229,-185.009 150.391,-191.408"/>
</g>
<!-- Node16 -->
<g id="node16" class="node"><title>Node16</title>
<g id="a_node16"><a xlink:href="classrc_track_impl.html#aa62c0a61102cc20eadcd03e7c1c99234" target="_top" xlink:title="rcTrackImpl::nextSegment\lLength">
<polygon fill="white" stroke="black" points="146.831,-141 146.831,-173 279.169,-173 279.169,-141 146.831,-141"/>
<text text-anchor="start" x="154.831" y="-159" font-family="Helvetica,sans-Serif" font-size="10.00">rcTrackImpl::nextSegment</text>
<text text-anchor="middle" x="213" y="-147" font-family="Helvetica,sans-Serif" font-size="10.00">Length</text>
</a>
</g>
</g>
<!-- Node1&#45;&gt;Node16 -->
<g id="edge15" class="edge"><title>Node1&#45;&gt;Node16</title>
<path fill="none" stroke="midnightblue" d="M103.309,-122.137C118.829,-127.115 136.074,-132.646 152.17,-137.809"/>
<polygon fill="midnightblue" stroke="midnightblue" points="151.428,-141.247 162.019,-140.968 153.566,-134.581 151.428,-141.247"/>
</g>
<!-- Node17 -->
<g id="node17" class="node"><title>Node17</title>
<g id="a_node17"><a xlink:href="classrc_position_track_impl.html#a23dddc7f44488739b9c2221eac5da0f1" target="_top" xlink:title="rcPositionTrackImpl\l::setMinMaxValues">
<polygon fill="white" stroke="black" points="161.284,-90 161.284,-122 264.716,-122 264.716,-90 161.284,-90"/>
<text text-anchor="start" x="169.284" y="-108" font-family="Helvetica,sans-Serif" font-size="10.00">rcPositionTrackImpl</text>
<text text-anchor="middle" x="213" y="-96" font-family="Helvetica,sans-Serif" font-size="10.00">::setMinMaxValues</text>
</a>
</g>
</g>
<!-- Node1&#45;&gt;Node17 -->
<g id="edge16" class="edge"><title>Node1&#45;&gt;Node17</title>
<path fill="none" stroke="midnightblue" d="M103.746,-106C118.805,-106 135.456,-106 151.091,-106"/>
<polygon fill="midnightblue" stroke="midnightblue" points="151.191,-109.5 161.191,-106 151.191,-102.5 151.191,-109.5"/>
</g>
<!-- Node20 -->
<g id="node20" class="node"><title>Node20</title>
<g id="a_node20"><a xlink:href="classrc_position_track_impl.html#a59f2db5baf081b265da538f8aba48b99" target="_top" xlink:title="rcPositionTrackImpl\l::setWriterState">
<polygon fill="white" stroke="black" points="161.284,-39 161.284,-71 264.716,-71 264.716,-39 161.284,-39"/>
<text text-anchor="start" x="169.284" y="-57" font-family="Helvetica,sans-Serif" font-size="10.00">rcPositionTrackImpl</text>
<text text-anchor="middle" x="213" y="-45" font-family="Helvetica,sans-Serif" font-size="10.00">::setWriterState</text>
</a>
</g>
</g>
<!-- Node1&#45;&gt;Node20 -->
<g id="edge19" class="edge"><title>Node1&#45;&gt;Node20</title>
<path fill="none" stroke="midnightblue" d="M103.309,-89.8633C118.829,-84.8849 136.074,-79.3537 152.17,-74.1906"/>
<polygon fill="midnightblue" stroke="midnightblue" points="153.566,-77.4188 162.019,-71.0317 151.428,-70.7533 153.566,-77.4188"/>
</g>
<!-- Node22 -->
<g id="node22" class="node"><title>Node22</title>
<g id="a_node22"><a xlink:href="classrc_track_impl.html#aeff311b9b61ed579c55ffc367fde187d" target="_top" xlink:title="rcTrackImpl::updateFirstTime">
<polygon fill="white" stroke="black" points="140.354,-0 140.354,-20 285.646,-20 285.646,-0 140.354,-0"/>
<text text-anchor="middle" x="213" y="-6" font-family="Helvetica,sans-Serif" font-size="10.00">rcTrackImpl::updateFirstTime</text>
</a>
</g>
</g>
<!-- Node1&#45;&gt;Node22 -->
<g id="edge21" class="edge"><title>Node1&#45;&gt;Node22</title>
<path fill="none" stroke="midnightblue" d="M66.7512,-89.9974C82.6606,-72.482 110.477,-44.7948 140,-29 143.783,-26.9761 147.795,-25.1576 151.914,-23.5253"/>
<polygon fill="midnightblue" stroke="midnightblue" points="153.418,-26.7047 161.658,-20.0454 151.064,-20.1124 153.418,-26.7047"/>
</g>
<!-- Node3 -->
<g id="node3" class="node"><title>Node3</title>
<g id="a_node3"><a xlink:href="classrc_track_impl.html#a41aefd56f083b3f242113a9e0ebb1792" target="_top" xlink:title="rcTrackImpl::nextSegment\lStart">
<polygon fill="white" stroke="black" points="324.831,-192 324.831,-224 457.169,-224 457.169,-192 324.831,-192"/>
<text text-anchor="start" x="332.831" y="-210" font-family="Helvetica,sans-Serif" font-size="10.00">rcTrackImpl::nextSegment</text>
<text text-anchor="middle" x="391" y="-198" font-family="Helvetica,sans-Serif" font-size="10.00">Start</text>
</a>
</g>
</g>
<!-- Node2&#45;&gt;Node3 -->
<g id="edge2" class="edge"><title>Node2&#45;&gt;Node3</title>
<path fill="none" stroke="midnightblue" d="M264.906,-208C280.376,-208 297.717,-208 314.446,-208"/>
<polygon fill="midnightblue" stroke="midnightblue" points="314.761,-211.5 324.761,-208 314.761,-204.5 314.761,-211.5"/>
</g>
<!-- Node4 -->
<g id="node4" class="node"><title>Node4</title>
<g id="a_node4"><a xlink:href="textio_8cpp.html#a905a4c61e365d406069f00eb68db1ca5" target="_top" xlink:title="endl">
<polygon fill="white" stroke="black" points="496.547,-198 496.547,-218 531.453,-218 531.453,-198 496.547,-198"/>
<text text-anchor="middle" x="514" y="-204" font-family="Helvetica,sans-Serif" font-size="10.00">endl</text>
</a>
</g>
</g>
<!-- Node3&#45;&gt;Node4 -->
<g id="edge3" class="edge"><title>Node3&#45;&gt;Node4</title>
<path fill="none" stroke="midnightblue" d="M457.458,-208C467.638,-208 477.629,-208 486.268,-208"/>
<polygon fill="midnightblue" stroke="midnightblue" points="486.402,-211.5 496.401,-208 486.401,-204.5 486.402,-211.5"/>
</g>
<!-- Node5 -->
<g id="node5" class="node"><title>Node5</title>
<g id="a_node5"><a xlink:href="classotext.html#a5086c0fd5e3f551eae3027e5d23d3c30" target="_top" xlink:title="otext::put">
<polygon fill="white" stroke="black" points="568.431,-198 568.431,-218 625.569,-218 625.569,-198 568.431,-198"/>
<text text-anchor="middle" x="597" y="-204" font-family="Helvetica,sans-Serif" font-size="10.00">otext::put</text>
</a>
</g>
</g>
<!-- Node4&#45;&gt;Node5 -->
<g id="edge4" class="edge"><title>Node4&#45;&gt;Node5</title>
<path fill="none" stroke="midnightblue" d="M531.783,-208C539.46,-208 548.891,-208 558.138,-208"/>
<polygon fill="midnightblue" stroke="midnightblue" points="558.397,-211.5 568.397,-208 558.397,-204.5 558.397,-211.5"/>
</g>
<!-- Node6 -->
<g id="node6" class="node"><title>Node6</title>
<g id="a_node6"><a xlink:href="classotext.html#ab52b059090ba70eeeac469f9051d3a22" target="_top" xlink:title="otext::flush">
<polygon fill="white" stroke="black" points="683.82,-296 683.82,-316 748.18,-316 748.18,-296 683.82,-296"/>
<text text-anchor="middle" x="716" y="-302" font-family="Helvetica,sans-Serif" font-size="10.00">otext::flush</text>
</a>
</g>
</g>
<!-- Node5&#45;&gt;Node6 -->
<g id="edge5" class="edge"><title>Node5&#45;&gt;Node6</title>
<path fill="none" stroke="midnightblue" d="M603.8,-218.047C613.737,-234.439 635.526,-267.01 662,-286 665.742,-288.684 669.889,-291.056 674.167,-293.139"/>
<polygon fill="midnightblue" stroke="midnightblue" points="673.068,-296.478 683.635,-297.249 675.855,-290.057 673.068,-296.478"/>
</g>
<!-- Node8 -->
<g id="node8" class="node"><title>Node8</title>
<g id="a_node8"><a xlink:href="classobuff.html#a069bcd2767c0d7c8e2bc8cd26d91e267" target="_top" xlink:title="obuff::increment">
<polygon fill="white" stroke="black" points="672.236,-257 672.236,-277 759.764,-277 759.764,-257 672.236,-257"/>
<text text-anchor="middle" x="716" y="-263" font-family="Helvetica,sans-Serif" font-size="10.00">obuff::increment</text>
</a>
</g>
</g>
<!-- Node5&#45;&gt;Node8 -->
<g id="edge7" class="edge"><title>Node5&#45;&gt;Node8</title>
<path fill="none" stroke="midnightblue" d="M612.81,-218.119C625.502,-226.521 644.46,-238.439 662,-247 666.408,-249.151 671.11,-251.224 675.825,-253.166"/>
<polygon fill="midnightblue" stroke="midnightblue" points="674.841,-256.541 685.428,-256.954 677.41,-250.029 674.841,-256.541"/>
</g>
<!-- Node9 -->
<g id="node9" class="node"><title>Node9</title>
<g id="a_node9"><a xlink:href="classobuff.html#a51efd4e8e00303842fa762940aad86ec" target="_top" xlink:title="obuff::line_buffer">
<polygon fill="white" stroke="black" points="670.927,-218 670.927,-238 761.073,-238 761.073,-218 670.927,-218"/>
<text text-anchor="middle" x="716" y="-224" font-family="Helvetica,sans-Serif" font-size="10.00">obuff::line_buffer</text>
</a>
</g>
</g>
<!-- Node5&#45;&gt;Node9 -->
<g id="edge8" class="edge"><title>Node5&#45;&gt;Node9</title>
<path fill="none" stroke="midnightblue" d="M625.727,-212.74C636.18,-214.527 648.466,-216.627 660.523,-218.688"/>
<polygon fill="midnightblue" stroke="midnightblue" points="660.104,-222.167 670.551,-220.402 661.284,-215.267 660.104,-222.167"/>
</g>
<!-- Node10 -->
<g id="node10" class="node"><title>Node10</title>
<g id="a_node10"><a xlink:href="classobuff.html#a0711113beee11f9793f5ba9e8e64c641" target="_top" xlink:title="obuff::newline_mode">
<polygon fill="white" stroke="black" points="661.945,-179 661.945,-199 770.055,-199 770.055,-179 661.945,-179"/>
<text text-anchor="middle" x="716" y="-185" font-family="Helvetica,sans-Serif" font-size="10.00">obuff::newline_mode</text>
</a>
</g>
</g>
<!-- Node5&#45;&gt;Node10 -->
<g id="edge9" class="edge"><title>Node5&#45;&gt;Node10</title>
<path fill="none" stroke="midnightblue" d="M625.727,-203.497C633.667,-202.208 642.665,-200.747 651.816,-199.261"/>
<polygon fill="midnightblue" stroke="midnightblue" points="652.454,-202.703 661.764,-197.645 651.332,-195.793 652.454,-202.703"/>
</g>
<!-- Node11 -->
<g id="node11" class="node"><title>Node11</title>
<g id="a_node11"><a xlink:href="classobuff.html#a5bbb61ac15c672da7f7b2002bef6b128" target="_top" xlink:title="obuff::put">
<polygon fill="white" stroke="black" points="687.238,-140 687.238,-160 744.762,-160 744.762,-140 687.238,-140"/>
<text text-anchor="middle" x="716" y="-146" font-family="Helvetica,sans-Serif" font-size="10.00">obuff::put</text>
</a>
</g>
</g>
<!-- Node5&#45;&gt;Node11 -->
<g id="edge10" class="edge"><title>Node5&#45;&gt;Node11</title>
<path fill="none" stroke="midnightblue" d="M612.521,-197.974C625.191,-189.517 644.272,-177.471 662,-169 666.961,-166.629 672.301,-164.383 677.613,-162.321"/>
<polygon fill="midnightblue" stroke="midnightblue" points="678.898,-165.578 687.059,-158.822 676.466,-159.014 678.898,-165.578"/>
</g>
<!-- Node12 -->
<g id="node12" class="node"><title>Node12</title>
<g id="a_node12"><a xlink:href="classotext.html#a2a2435d80cce60cb88360c7bfe3f8445" target="_top" xlink:title="otext::set_error">
<polygon fill="white" stroke="black" points="674.375,-101 674.375,-121 757.625,-121 757.625,-101 674.375,-101"/>
<text text-anchor="middle" x="716" y="-107" font-family="Helvetica,sans-Serif" font-size="10.00">otext::set_error</text>
</a>
</g>
</g>
<!-- Node5&#45;&gt;Node12 -->
<g id="edge11" class="edge"><title>Node5&#45;&gt;Node12</title>
<path fill="none" stroke="midnightblue" d="M603.765,-197.904C613.651,-181.44 635.369,-148.77 662,-130 664.359,-128.337 666.88,-126.805 669.493,-125.396"/>
<polygon fill="midnightblue" stroke="midnightblue" points="671.094,-128.51 678.632,-121.065 668.097,-122.184 671.094,-128.51"/>
</g>
<!-- Node7 -->
<g id="node7" class="node"><title>Node7</title>
<g id="a_node7"><a xlink:href="classobuff.html#a8fb8969c450f4fdc037f8c51d35c87c7" target="_top" xlink:title="obuff::flush">
<polygon fill="white" stroke="black" points="815.627,-296 815.627,-316 880.373,-316 880.373,-296 815.627,-296"/>
<text text-anchor="middle" x="848" y="-302" font-family="Helvetica,sans-Serif" font-size="10.00">obuff::flush</text>
</a>
</g>
</g>
<!-- Node6&#45;&gt;Node7 -->
<g id="edge6" class="edge"><title>Node6&#45;&gt;Node7</title>
<path fill="none" stroke="midnightblue" d="M748.469,-306C765.509,-306 786.782,-306 805.196,-306"/>
<polygon fill="midnightblue" stroke="midnightblue" points="805.37,-309.5 815.37,-306 805.37,-302.5 805.37,-309.5"/>
</g>
<!-- Node13 -->
<g id="node13" class="node"><title>Node13</title>
<g id="a_node13"><a xlink:href="classobuff.html#ae388e9608d1c873d1feaf621f4044c25" target="_top" xlink:title="obuff::set_error">
<polygon fill="white" stroke="black" points="806.182,-101 806.182,-121 889.818,-121 889.818,-101 806.182,-101"/>
<text text-anchor="middle" x="848" y="-107" font-family="Helvetica,sans-Serif" font-size="10.00">obuff::set_error</text>
</a>
</g>
</g>
<!-- Node12&#45;&gt;Node13 -->
<g id="edge12" class="edge"><title>Node12&#45;&gt;Node13</title>
<path fill="none" stroke="midnightblue" d="M757.776,-111C769.76,-111 783.026,-111 795.583,-111"/>
<polygon fill="midnightblue" stroke="midnightblue" points="795.922,-114.5 805.922,-111 795.922,-107.5 795.922,-114.5"/>
</g>
<!-- Node14 -->
<g id="node14" class="node"><title>Node14</title>
<g id="a_node14"><a xlink:href="class_t_c_p__client__data.html#a970f6bf6bb6e6166615813c5f7768381" target="_top" xlink:title="TCP_client_data::error">
<polygon fill="white" stroke="black" points="926.7,-101 926.7,-121 1043.3,-121 1043.3,-101 926.7,-101"/>
<text text-anchor="middle" x="985" y="-107" font-family="Helvetica,sans-Serif" font-size="10.00">TCP_client_data::error</text>
</a>
</g>
</g>
<!-- Node13&#45;&gt;Node14 -->
<g id="edge13" class="edge"><title>Node13&#45;&gt;Node14</title>
<path fill="none" stroke="midnightblue" d="M889.871,-111C898.216,-111 907.208,-111 916.206,-111"/>
<polygon fill="midnightblue" stroke="midnightblue" points="916.335,-114.5 926.335,-111 916.335,-107.5 916.335,-114.5"/>
</g>
<!-- Node15 -->
<g id="node15" class="node"><title>Node15</title>
<g id="a_node15"><a xlink:href="class_t_c_p__socket.html#adb70059ca46476efe0ced51ed377a975" target="_top" xlink:title="TCP_socket::error">
<polygon fill="white" stroke="black" points="1080.43,-101 1080.43,-121 1177.57,-121 1177.57,-101 1080.43,-101"/>
<text text-anchor="middle" x="1129" y="-107" font-family="Helvetica,sans-Serif" font-size="10.00">TCP_socket::error</text>
</a>
</g>
</g>
<!-- Node14&#45;&gt;Node15 -->
<g id="edge14" class="edge"><title>Node14&#45;&gt;Node15</title>
<path fill="none" stroke="midnightblue" d="M1043.35,-111C1052.09,-111 1061.12,-111 1069.87,-111"/>
<polygon fill="midnightblue" stroke="midnightblue" points="1070,-114.5 1080,-111 1070,-107.5 1070,-114.5"/>
</g>
<!-- Node18 -->
<g id="node18" class="node"><title>Node18</title>
<g id="a_node18"><a xlink:href="classrc_pair.html#ad1a3cb1e7fdbe119ce1295514b1bb49d" target="_top" xlink:title="rcPair::x">
<polygon fill="white" stroke="black" points="364.665,-129 364.665,-149 417.335,-149 417.335,-129 364.665,-129"/>
<text text-anchor="middle" x="391" y="-135" font-family="Helvetica,sans-Serif" font-size="10.00">rcPair::x</text>
</a>
</g>
</g>
<!-- Node17&#45;&gt;Node18 -->
<g id="edge17" class="edge"><title>Node17&#45;&gt;Node18</title>
<path fill="none" stroke="midnightblue" d="M264.906,-115.545C293.638,-120.932 328.827,-127.53 354.556,-132.354"/>
<polygon fill="midnightblue" stroke="midnightblue" points="354.137,-135.837 364.611,-134.24 355.427,-128.956 354.137,-135.837"/>
</g>
<!-- Node19 -->
<g id="node19" class="node"><title>Node19</title>
<g id="a_node19"><a xlink:href="classrc_pair.html#a87400f83938e920c405c40aa449d3607" target="_top" xlink:title="rcPair::y">
<polygon fill="white" stroke="black" points="364.665,-90 364.665,-110 417.335,-110 417.335,-90 364.665,-90"/>
<text text-anchor="middle" x="391" y="-96" font-family="Helvetica,sans-Serif" font-size="10.00">rcPair::y</text>
</a>
</g>
</g>
<!-- Node17&#45;&gt;Node19 -->
<g id="edge18" class="edge"><title>Node17&#45;&gt;Node19</title>
<path fill="none" stroke="midnightblue" d="M264.906,-104.265C293.638,-103.285 328.827,-102.085 354.556,-101.208"/>
<polygon fill="midnightblue" stroke="midnightblue" points="354.736,-104.704 364.611,-100.866 354.497,-97.7084 354.736,-104.704"/>
</g>
<!-- Node21 -->
<g id="node21" class="node"><title>Node21</title>
<g id="a_node21"><a xlink:href="classrc_track_impl.html#a22ab234f62ffb656bbc134ef3c5bd220" target="_top" xlink:title="rcTrackImpl::setWriterState">
<polygon fill="white" stroke="black" points="322.707,-45 322.707,-65 459.293,-65 459.293,-45 322.707,-45"/>
<text text-anchor="middle" x="391" y="-51" font-family="Helvetica,sans-Serif" font-size="10.00">rcTrackImpl::setWriterState</text>
</a>
</g>
</g>
<!-- Node20&#45;&gt;Node21 -->
<g id="edge20" class="edge"><title>Node20&#45;&gt;Node21</title>
<path fill="none" stroke="midnightblue" d="M264.906,-55C279.647,-55 296.087,-55 312.078,-55"/>
<polygon fill="midnightblue" stroke="midnightblue" points="312.498,-58.5001 322.498,-55 312.498,-51.5001 312.498,-58.5001"/>
</g>
</g>
</svg>
