<?xml version="1.0" encoding="UTF-8" standalone="no"?>
<!DOCTYPE svg PUBLIC "-//W3C//DTD SVG 1.1//EN"
 "http://www.w3.org/Graphics/SVG/1.1/DTD/svg11.dtd">
<!-- Generated by graphviz version 2.32.0 (20130916.1925)
 -->
<!-- Title: rcPolygon::triArea2 Pages: 1 -->
<svg width="1720pt" height="489pt"
 viewBox="0.00 0.00 1720.00 489.00" xmlns="http://www.w3.org/2000/svg" xmlns:xlink="http://www.w3.org/1999/xlink">
<g id="graph0" class="graph" transform="scale(1 1) rotate(0) translate(4 485)">
<title>rcPolygon::triArea2</title>
<polygon fill="white" stroke="white" points="-4,5 -4,-485 1717,-485 1717,5 -4,5"/>
<!-- Node1 -->
<g id="node1" class="node"><title>Node1</title>
<polygon fill="#bfbfbf" stroke="black" points="0.480469,-344 0.480469,-364 101.52,-364 101.52,-344 0.480469,-344"/>
<text text-anchor="middle" x="51" y="-350" font-family="Helvetica,sans-Serif" font-size="10.00">rcPolygon::triArea2</text>
</g>
<!-- Node2 -->
<g id="node2" class="node"><title>Node2</title>
<g id="a_node2"><a xlink:href="classrc_polygon.html#a0f74eb16a3284a2dd2a6f6a742dbb8f9" target="_top" xlink:title="rcPolygon::collinear">
<polygon fill="white" stroke="black" points="148.367,-403 148.367,-423 251.633,-423 251.633,-403 148.367,-403"/>
<text text-anchor="middle" x="200" y="-409" font-family="Helvetica,sans-Serif" font-size="10.00">rcPolygon::collinear</text>
</a>
</g>
</g>
<!-- Node1&#45;&gt;Node2 -->
<g id="edge1" class="edge"><title>Node1&#45;&gt;Node2</title>
<path fill="none" stroke="midnightblue" d="M81.6859,-368.428C98.1014,-376.16 118.972,-385.591 138,-393 147.035,-396.518 156.975,-399.955 166.16,-402.959"/>
<polygon fill="midnightblue" stroke="midnightblue" points="83.1172,-365.233 72.5831,-364.099 80.1113,-371.554 83.1172,-365.233"/>
</g>
<!-- Node3 -->
<g id="node3" class="node"><title>Node3</title>
<g id="a_node3"><a xlink:href="classrc_polygon.html#a2e1b9b5155874abbb40388a67c79e6c1" target="_top" xlink:title="rcPolygon::leftTurn">
<polygon fill="white" stroke="black" points="150.22,-364 150.22,-384 249.78,-384 249.78,-364 150.22,-364"/>
<text text-anchor="middle" x="200" y="-370" font-family="Helvetica,sans-Serif" font-size="10.00">rcPolygon::leftTurn</text>
</a>
</g>
</g>
<!-- Node1&#45;&gt;Node3 -->
<g id="edge2" class="edge"><title>Node1&#45;&gt;Node3</title>
<path fill="none" stroke="midnightblue" d="M111.752,-362.129C124.389,-363.849 137.588,-365.645 149.783,-367.304"/>
<polygon fill="midnightblue" stroke="midnightblue" points="112.148,-358.651 101.767,-360.771 111.204,-365.587 112.148,-358.651"/>
</g>
<!-- Node33 -->
<g id="node33" class="node"><title>Node33</title>
<g id="a_node33"><a xlink:href="classrc_polygon.html#af328a95336d440553d8514c24a12b5a1" target="_top" xlink:title="rcPolygon::leftTurnOrOn">
<polygon fill="white" stroke="black" points="137.996,-286 137.996,-306 262.004,-306 262.004,-286 137.996,-286"/>
<text text-anchor="middle" x="200" y="-292" font-family="Helvetica,sans-Serif" font-size="10.00">rcPolygon::leftTurnOrOn</text>
</a>
</g>
</g>
<!-- Node1&#45;&gt;Node33 -->
<g id="edge47" class="edge"><title>Node1&#45;&gt;Node33</title>
<path fill="none" stroke="midnightblue" d="M82.8456,-339.481C99.0937,-332.061 119.448,-323.12 138,-316 147.052,-312.526 156.997,-309.103 166.182,-306.098"/>
<polygon fill="midnightblue" stroke="midnightblue" points="80.9291,-336.511 73.3124,-343.875 83.8592,-342.868 80.9291,-336.511"/>
</g>
<!-- Node34 -->
<g id="node34" class="node"><title>Node34</title>
<g id="a_node34"><a xlink:href="classrc_polygon.html#ada37b3f1a8807caadafb01269bf736ea" target="_top" xlink:title="rcPolygon::polyArea2">
<polygon fill="white" stroke="black" points="144.473,-325 144.473,-345 255.527,-345 255.527,-325 144.473,-325"/>
<text text-anchor="middle" x="200" y="-331" font-family="Helvetica,sans-Serif" font-size="10.00">rcPolygon::polyArea2</text>
</a>
</g>
</g>
<!-- Node1&#45;&gt;Node34 -->
<g id="edge48" class="edge"><title>Node1&#45;&gt;Node34</title>
<path fill="none" stroke="midnightblue" d="M111.877,-346.261C122.581,-344.877 133.685,-343.442 144.237,-342.078"/>
<polygon fill="midnightblue" stroke="midnightblue" points="111.236,-342.814 101.767,-347.567 112.134,-349.757 111.236,-342.814"/>
</g>
<!-- Node4 -->
<g id="node4" class="node"><title>Node4</title>
<g id="a_node4"><a xlink:href="classrc_polygon.html#a3fd238c5f728095b4325cc356e6bba55" target="_top" xlink:title="rcPolygon::createConvexHull">
<polygon fill="white" stroke="black" points="298.525,-461 298.525,-481 443.475,-481 443.475,-461 298.525,-461"/>
<text text-anchor="middle" x="371" y="-467" font-family="Helvetica,sans-Serif" font-size="10.00">rcPolygon::createConvexHull</text>
</a>
</g>
</g>
<!-- Node3&#45;&gt;Node4 -->
<g id="edge3" class="edge"><title>Node3&#45;&gt;Node4</title>
<path fill="none" stroke="midnightblue" d="M250.682,-387.924C254.626,-389.733 258.452,-391.752 262,-394 281.654,-406.449 279.542,-417.839 298,-432 313.227,-443.682 332.416,-453.889 347.155,-460.927"/>
<polygon fill="midnightblue" stroke="midnightblue" points="251.917,-384.647 241.337,-384.074 249.25,-391.119 251.917,-384.647"/>
</g>
<!-- Node10 -->
<g id="node10" class="node"><title>Node10</title>
<g id="a_node10"><a xlink:href="classrc_polygon.html#a3f76c821a42981abf52a1cf49f39e6dd" target="_top" xlink:title="rcPolygon::findPeak">
<polygon fill="white" stroke="black" points="318.53,-403 318.53,-423 423.47,-423 423.47,-403 318.53,-403"/>
<text text-anchor="middle" x="371" y="-409" font-family="Helvetica,sans-Serif" font-size="10.00">rcPolygon::findPeak</text>
</a>
</g>
</g>
<!-- Node3&#45;&gt;Node10 -->
<g id="edge9" class="edge"><title>Node3&#45;&gt;Node10</title>
<path fill="none" stroke="midnightblue" d="M254.573,-386.363C277.81,-391.725 304.668,-397.923 326.626,-402.991"/>
<polygon fill="midnightblue" stroke="midnightblue" points="255.053,-382.882 244.522,-384.043 253.479,-389.703 255.053,-382.882"/>
</g>
<!-- Node12 -->
<g id="node12" class="node"><title>Node12</title>
<g id="a_node12"><a xlink:href="classrc_polygon.html#a5bfd6f3c435fb3f8ea825bc89da5e0d4" target="_top" xlink:title="rcPolygon::isConvex">
<polygon fill="white" stroke="black" points="317.424,-325 317.424,-345 424.576,-345 424.576,-325 317.424,-325"/>
<text text-anchor="middle" x="371" y="-331" font-family="Helvetica,sans-Serif" font-size="10.00">rcPolygon::isConvex</text>
</a>
</g>
</g>
<!-- Node3&#45;&gt;Node12 -->
<g id="edge11" class="edge"><title>Node3&#45;&gt;Node12</title>
<path fill="none" stroke="midnightblue" d="M254.573,-361.637C277.81,-356.275 304.668,-350.077 326.626,-345.009"/>
<polygon fill="midnightblue" stroke="midnightblue" points="253.479,-358.297 244.522,-363.957 255.053,-365.118 253.479,-358.297"/>
</g>
<!-- Node5 -->
<g id="node5" class="node"><title>Node5</title>
<g id="a_node5"><a xlink:href="classrc_polygon.html#a21a2848e4600d69f1eab1d05143f000c" target="_top" xlink:title="rcPolygon::discBuffer">
<polygon fill="white" stroke="black" points="699.844,-447 699.844,-467 810.156,-467 810.156,-447 699.844,-447"/>
<text text-anchor="middle" x="755" y="-453" font-family="Helvetica,sans-Serif" font-size="10.00">rcPolygon::discBuffer</text>
</a>
</g>
</g>
<!-- Node4&#45;&gt;Node5 -->
<g id="edge4" class="edge"><title>Node4&#45;&gt;Node5</title>
<path fill="none" stroke="midnightblue" d="M453.877,-473.696C507.915,-474.811 580.245,-475.041 644,-471 662.156,-469.849 681.897,-467.64 699.579,-465.311"/>
<polygon fill="midnightblue" stroke="midnightblue" points="453.739,-470.192 443.664,-473.47 453.584,-477.19 453.739,-470.192"/>
</g>
<!-- Node6 -->
<g id="node6" class="node"><title>Node6</title>
<g id="a_node6"><a xlink:href="rc__polygongroup_8h.html#aef640fc26e2a3c85a5ae68abb68fc251" target="_top" xlink:title="rfPolygonGroupMutualMerge">
<polygon fill="white" stroke="black" points="870.801,-324 870.801,-344 1015.2,-344 1015.2,-324 870.801,-324"/>
<text text-anchor="middle" x="943" y="-330" font-family="Helvetica,sans-Serif" font-size="10.00">rfPolygonGroupMutualMerge</text>
</a>
</g>
</g>
<!-- Node5&#45;&gt;Node6 -->
<g id="edge5" class="edge"><title>Node5&#45;&gt;Node6</title>
<path fill="none" stroke="midnightblue" d="M817.694,-442.51C822.12,-440.097 826.292,-437.283 830,-434 859.193,-408.155 836.245,-379.196 866,-354 870.79,-349.944 876.312,-346.7 882.149,-344.107"/>
<polygon fill="midnightblue" stroke="midnightblue" points="815.88,-439.495 808.321,-446.919 818.86,-445.829 815.88,-439.495"/>
</g>
<!-- Node7 -->
<g id="node7" class="node"><title>Node7</title>
<g id="a_node7"><a xlink:href="classrc_kinetoscope.html#a3cabc9a20a2426314710f1f3d8908f75" target="_top" xlink:title="rcKinetoscope::visualDebug\lGraphics">
<polygon fill="white" stroke="black" points="873.02,-441 873.02,-473 1012.98,-473 1012.98,-441 873.02,-441"/>
<text text-anchor="start" x="881.02" y="-459" font-family="Helvetica,sans-Serif" font-size="10.00">rcKinetoscope::visualDebug</text>
<text text-anchor="middle" x="943" y="-447" font-family="Helvetica,sans-Serif" font-size="10.00">Graphics</text>
</a>
</g>
</g>
<!-- Node5&#45;&gt;Node7 -->
<g id="edge6" class="edge"><title>Node5&#45;&gt;Node7</title>
<path fill="none" stroke="midnightblue" d="M820.584,-457C837.425,-457 855.64,-457 872.714,-457"/>
<polygon fill="midnightblue" stroke="midnightblue" points="820.299,-453.5 810.299,-457 820.299,-460.5 820.299,-453.5"/>
</g>
<!-- Node8 -->
<g id="node8" class="node"><title>Node8</title>
<g id="a_node8"><a xlink:href="classrc_engine_impl.html#a00ca0d227e480ddb5bd6be293b55d2c9" target="_top" xlink:title="rcEngineImpl::muscleTracker">
<polygon fill="white" stroke="black" points="1566.44,-318 1566.44,-338 1711.56,-338 1711.56,-318 1566.44,-318"/>
<text text-anchor="middle" x="1639" y="-324" font-family="Helvetica,sans-Serif" font-size="10.00">rcEngineImpl::muscleTracker</text>
</a>
</g>
</g>
<!-- Node7&#45;&gt;Node8 -->
<g id="edge7" class="edge"><title>Node7&#45;&gt;Node8</title>
<path fill="none" stroke="midnightblue" d="M1023.15,-454.022C1072.99,-451.332 1138.55,-446.301 1196,-437 1351.26,-411.866 1532.22,-359.943 1605.11,-338.067"/>
<polygon fill="midnightblue" stroke="midnightblue" points="1022.89,-450.531 1013.08,-454.545 1023.25,-457.522 1022.89,-450.531"/>
</g>
<!-- Node9 -->
<g id="node9" class="node"><title>Node9</title>
<g id="a_node9"><a xlink:href="classrc_kinetoscope.html#a7eb12d336c7e47b947f4a3ddf480b710" target="_top" xlink:title="rcKinetoscope::visualDebug\lGraphics">
<polygon fill="white" stroke="black" points="1056.02,-396 1056.02,-428 1195.98,-428 1195.98,-396 1056.02,-396"/>
<text text-anchor="start" x="1064.02" y="-414" font-family="Helvetica,sans-Serif" font-size="10.00">rcKinetoscope::visualDebug</text>
<text text-anchor="middle" x="1126" y="-402" font-family="Helvetica,sans-Serif" font-size="10.00">Graphics</text>
</a>
</g>
</g>
<!-- Node7&#45;&gt;Node9 -->
<g id="edge8" class="edge"><title>Node7&#45;&gt;Node9</title>
<path fill="none" stroke="midnightblue" d="M1018.58,-438.457C1032.48,-435.003 1046.89,-431.421 1060.45,-428.049"/>
<polygon fill="midnightblue" stroke="midnightblue" points="1017.44,-435.135 1008.58,-440.945 1019.13,-441.928 1017.44,-435.135"/>
</g>
<!-- Node11 -->
<g id="node11" class="node"><title>Node11</title>
<g id="a_node11"><a xlink:href="classrc_polygon.html#a392686f03ee969c7f83bdc366b03af96" target="_top" xlink:title="rcPolygon::genMinEnclosingRect">
<polygon fill="white" stroke="black" points="480.628,-442 480.628,-462 643.372,-462 643.372,-442 480.628,-442"/>
<text text-anchor="middle" x="562" y="-448" font-family="Helvetica,sans-Serif" font-size="10.00">rcPolygon::genMinEnclosingRect</text>
</a>
</g>
</g>
<!-- Node10&#45;&gt;Node11 -->
<g id="edge10" class="edge"><title>Node10&#45;&gt;Node11</title>
<path fill="none" stroke="midnightblue" d="M430.518,-425.075C456.821,-430.503 487.496,-436.832 512.493,-441.991"/>
<polygon fill="midnightblue" stroke="midnightblue" points="431.173,-421.637 420.672,-423.043 429.759,-428.492 431.173,-421.637"/>
</g>
<!-- Node12&#45;&gt;Node11 -->
<g id="edge41" class="edge"><title>Node12&#45;&gt;Node11</title>
<path fill="none" stroke="midnightblue" d="M393.406,-351.384C408.047,-362.866 427.682,-378.815 444,-394 461.031,-409.849 459.895,-420.294 480,-432 487.01,-436.081 494.829,-439.334 502.768,-441.926"/>
<polygon fill="midnightblue" stroke="midnightblue" points="395.469,-348.554 385.426,-345.179 391.172,-354.08 395.469,-348.554"/>
</g>
<!-- Node13 -->
<g id="node13" class="node"><title>Node13</title>
<g id="a_node13"><a xlink:href="classrc_polygon.html#a24a3347f6c64febad2b5d6d07c61b63c" target="_top" xlink:title="rcPolygon::contains">
<polygon fill="white" stroke="black" points="703.365,-263 703.365,-283 806.635,-283 806.635,-263 703.365,-263"/>
<text text-anchor="middle" x="755" y="-269" font-family="Helvetica,sans-Serif" font-size="10.00">rcPolygon::contains</text>
</a>
</g>
</g>
<!-- Node12&#45;&gt;Node13 -->
<g id="edge12" class="edge"><title>Node12&#45;&gt;Node13</title>
<path fill="none" stroke="midnightblue" d="M390.669,-318.008C410.945,-300.805 445.128,-275.313 480,-265 557.125,-242.192 651.832,-252.984 707.295,-262.954"/>
<polygon fill="midnightblue" stroke="midnightblue" points="388.109,-315.596 382.87,-324.805 392.708,-320.873 388.109,-315.596"/>
</g>
<!-- Node14 -->
<g id="node14" class="node"><title>Node14</title>
<g id="a_node14"><a xlink:href="classrc_polygon.html#a589db645c2f757064903220d41721d2e" target="_top" xlink:title="rcPolygon::convexCompared\lToConvex">
<polygon fill="white" stroke="black" points="489.801,-274 489.801,-306 634.199,-306 634.199,-274 489.801,-274"/>
<text text-anchor="start" x="497.801" y="-292" font-family="Helvetica,sans-Serif" font-size="10.00">rcPolygon::convexCompared</text>
<text text-anchor="middle" x="562" y="-280" font-family="Helvetica,sans-Serif" font-size="10.00">ToConvex</text>
</a>
</g>
</g>
<!-- Node12&#45;&gt;Node14 -->
<g id="edge13" class="edge"><title>Node12&#45;&gt;Node14</title>
<path fill="none" stroke="midnightblue" d="M424.289,-322.55C445.696,-317.453 470.74,-311.49 493.503,-306.071"/>
<polygon fill="midnightblue" stroke="midnightblue" points="423.333,-319.18 414.415,-324.901 424.954,-325.99 423.333,-319.18"/>
</g>
<!-- Node15 -->
<g id="node15" class="node"><title>Node15</title>
<g id="a_node15"><a xlink:href="classrc_polygon.html#a879031bf9eea3cd7a0834408a8019acb" target="_top" xlink:title="rcPolygon::intersects">
<polygon fill="white" stroke="black" points="700.591,-324 700.591,-344 809.409,-344 809.409,-324 700.591,-324"/>
<text text-anchor="middle" x="755" y="-330" font-family="Helvetica,sans-Serif" font-size="10.00">rcPolygon::intersects</text>
</a>
</g>
</g>
<!-- Node12&#45;&gt;Node15 -->
<g id="edge42" class="edge"><title>Node12&#45;&gt;Node15</title>
<path fill="none" stroke="midnightblue" d="M434.83,-334.836C508.831,-334.642 630.494,-334.323 700.289,-334.141"/>
<polygon fill="midnightblue" stroke="midnightblue" points="434.705,-331.336 424.714,-334.862 434.724,-338.336 434.705,-331.336"/>
</g>
<!-- Node24 -->
<g id="node24" class="node"><title>Node24</title>
<g id="a_node24"><a xlink:href="classrc_polygon.html#a41ee396a9453685f11c2cc8d15af5738" target="_top" xlink:title="rcPolygon::convexIntersection">
<polygon fill="white" stroke="black" points="680.298,-163 680.298,-183 829.702,-183 829.702,-163 680.298,-163"/>
<text text-anchor="middle" x="755" y="-169" font-family="Helvetica,sans-Serif" font-size="10.00">rcPolygon::convexIntersection</text>
</a>
</g>
</g>
<!-- Node12&#45;&gt;Node24 -->
<g id="edge30" class="edge"><title>Node12&#45;&gt;Node24</title>
<path fill="none" stroke="midnightblue" d="M382.167,-315.99C398.571,-287.405 433.77,-234.04 480,-209 541.699,-175.581 622.328,-168.597 680.121,-168.75"/>
<polygon fill="midnightblue" stroke="midnightblue" points="378.968,-314.541 377.161,-324.981 385.084,-317.946 378.968,-314.541"/>
</g>
<!-- Node28 -->
<g id="node28" class="node"><title>Node28</title>
<g id="a_node28"><a xlink:href="classrc_polygon.html#ae9419a418956102a7c5a48c72049be58" target="_top" xlink:title="rcPolygon::convexUnion">
<polygon fill="white" stroke="black" points="693.082,-204 693.082,-224 816.918,-224 816.918,-204 693.082,-204"/>
<text text-anchor="middle" x="755" y="-210" font-family="Helvetica,sans-Serif" font-size="10.00">rcPolygon::convexUnion</text>
</a>
</g>
</g>
<!-- Node12&#45;&gt;Node28 -->
<g id="edge37" class="edge"><title>Node12&#45;&gt;Node28</title>
<path fill="none" stroke="midnightblue" d="M387.433,-317.463C406.79,-296.76 442.073,-263.115 480,-247 548.903,-217.723 635.768,-211.891 693.002,-211.791"/>
<polygon fill="midnightblue" stroke="midnightblue" points="384.754,-315.206 380.597,-324.951 389.924,-319.925 384.754,-315.206"/>
</g>
<!-- Node29 -->
<g id="node29" class="node"><title>Node29</title>
<g id="a_node29"><a xlink:href="rc__polygon_8cpp.html#a39308e4aa4de6addecf18fd62d7ded31" target="_top" xlink:title="operator==">
<polygon fill="white" stroke="black" points="529.537,-403 529.537,-423 594.463,-423 594.463,-403 529.537,-403"/>
<text text-anchor="middle" x="562" y="-409" font-family="Helvetica,sans-Serif" font-size="10.00">operator==</text>
</a>
</g>
</g>
<!-- Node12&#45;&gt;Node29 -->
<g id="edge43" class="edge"><title>Node12&#45;&gt;Node29</title>
<path fill="none" stroke="midnightblue" d="M396.593,-350.518C417.951,-363.423 450.068,-381.478 480,-393 495.816,-399.088 514.094,-403.789 529.28,-407.099"/>
<polygon fill="midnightblue" stroke="midnightblue" points="398.216,-347.408 387.861,-345.166 394.558,-353.376 398.216,-347.408"/>
</g>
<!-- Node32 -->
<g id="node32" class="node"><title>Node32</title>
<g id="a_node32"><a xlink:href="classrc_polygon.html#a0af0f7e800cc32f5dde741caeb230f9d" target="_top" xlink:title="rcPolygon::rcPolygon">
<polygon fill="white" stroke="black" points="506.754,-364 506.754,-384 617.246,-384 617.246,-364 506.754,-364"/>
<text text-anchor="middle" x="562" y="-370" font-family="Helvetica,sans-Serif" font-size="10.00">rcPolygon::rcPolygon</text>
</a>
</g>
</g>
<!-- Node12&#45;&gt;Node32 -->
<g id="edge46" class="edge"><title>Node12&#45;&gt;Node32</title>
<path fill="none" stroke="midnightblue" d="M430.518,-347.075C456.821,-352.503 487.496,-358.832 512.493,-363.991"/>
<polygon fill="midnightblue" stroke="midnightblue" points="431.173,-343.637 420.672,-345.043 429.759,-350.492 431.173,-343.637"/>
</g>
<!-- Node14&#45;&gt;Node13 -->
<g id="edge14" class="edge"><title>Node14&#45;&gt;Node13</title>
<path fill="none" stroke="midnightblue" d="M644.423,-282.753C664.389,-280.976 685.193,-279.124 703.243,-277.518"/>
<polygon fill="midnightblue" stroke="midnightblue" points="644.043,-279.273 634.393,-283.646 644.664,-286.245 644.043,-279.273"/>
</g>
<!-- Node14&#45;&gt;Node15 -->
<g id="edge15" class="edge"><title>Node14&#45;&gt;Node15</title>
<path fill="none" stroke="midnightblue" d="M642.369,-308.284C665.635,-313.644 690.216,-319.306 710.372,-323.949"/>
<polygon fill="midnightblue" stroke="midnightblue" points="643.026,-304.844 632.496,-306.009 641.455,-311.665 643.026,-304.844"/>
</g>
<!-- Node15&#45;&gt;Node6 -->
<g id="edge29" class="edge"><title>Node15&#45;&gt;Node6</title>
<path fill="none" stroke="midnightblue" d="M819.807,-334C836.192,-334 853.923,-334 870.663,-334"/>
<polygon fill="midnightblue" stroke="midnightblue" points="819.799,-330.5 809.799,-334 819.799,-337.5 819.799,-330.5"/>
</g>
<!-- Node16 -->
<g id="node16" class="node"><title>Node16</title>
<g id="a_node16"><a xlink:href="classrc_kinetoscope.html#aeb4e292dbf28c00e8aa73b18debdc6d6" target="_top" xlink:title="rcKinetoscope::associate">
<polygon fill="white" stroke="black" points="879.414,-402 879.414,-422 1006.59,-422 1006.59,-402 879.414,-402"/>
<text text-anchor="middle" x="943" y="-408" font-family="Helvetica,sans-Serif" font-size="10.00">rcKinetoscope::associate</text>
</a>
</g>
</g>
<!-- Node15&#45;&gt;Node16 -->
<g id="edge16" class="edge"><title>Node15&#45;&gt;Node16</title>
<path fill="none" stroke="midnightblue" d="M809.993,-347.484C816.948,-350.162 823.799,-353.314 830,-357 849.182,-368.403 846.572,-381.022 866,-392 873.246,-396.094 881.354,-399.373 889.502,-401.992"/>
<polygon fill="midnightblue" stroke="midnightblue" points="811.089,-344.159 800.494,-344.118 808.751,-350.757 811.089,-344.159"/>
</g>
<!-- Node21 -->
<g id="node21" class="node"><title>Node21</title>
<g id="a_node21"><a xlink:href="classrc_polygon.html#ad22adb537d52958897ec5b6c1b5b86e0" target="_top" xlink:title="rcPolygon::intersects">
<polygon fill="white" stroke="black" points="888.591,-246 888.591,-266 997.409,-266 997.409,-246 888.591,-246"/>
<text text-anchor="middle" x="943" y="-252" font-family="Helvetica,sans-Serif" font-size="10.00">rcPolygon::intersects</text>
</a>
</g>
</g>
<!-- Node15&#45;&gt;Node21 -->
<g id="edge24" class="edge"><title>Node15&#45;&gt;Node21</title>
<path fill="none" stroke="midnightblue" d="M780.841,-318.797C802.646,-305.971 835.546,-287.857 866,-276 875.79,-272.189 886.566,-268.86 896.85,-266.07"/>
<polygon fill="midnightblue" stroke="midnightblue" points="779.015,-315.811 772.215,-323.936 782.598,-321.825 779.015,-315.811"/>
</g>
<!-- Node22 -->
<g id="node22" class="node"><title>Node22</title>
<g id="a_node22"><a xlink:href="classrc_kinetoscope.html#a417073176a71ba125e6eeab0a2c3a8f0" target="_top" xlink:title="rcKinetoscope::newGeneration">
<polygon fill="white" stroke="black" points="866.626,-363 866.626,-383 1019.37,-383 1019.37,-363 866.626,-363"/>
<text text-anchor="middle" x="943" y="-369" font-family="Helvetica,sans-Serif" font-size="10.00">rcKinetoscope::newGeneration</text>
</a>
</g>
</g>
<!-- Node15&#45;&gt;Node22 -->
<g id="edge25" class="edge"><title>Node15&#45;&gt;Node22</title>
<path fill="none" stroke="midnightblue" d="M813.932,-346.147C839.74,-351.558 869.771,-357.855 894.263,-362.991"/>
<polygon fill="midnightblue" stroke="midnightblue" points="814.405,-342.67 803.9,-344.043 812.969,-349.521 814.405,-342.67"/>
</g>
<!-- Node23 -->
<g id="node23" class="node"><title>Node23</title>
<g id="a_node23"><a xlink:href="rc__kinetrack_8cpp.html#a29f6a59de6b3dbbed8672ad7da9016ae" target="_top" xlink:title="rfOfCellsAndPolys">
<polygon fill="white" stroke="black" points="894.431,-285 894.431,-305 991.569,-305 991.569,-285 894.431,-285"/>
<text text-anchor="middle" x="943" y="-291" font-family="Helvetica,sans-Serif" font-size="10.00">rfOfCellsAndPolys</text>
</a>
</g>
</g>
<!-- Node15&#45;&gt;Node23 -->
<g id="edge27" class="edge"><title>Node15&#45;&gt;Node23</title>
<path fill="none" stroke="midnightblue" d="M813.932,-321.853C839.74,-316.442 869.771,-310.145 894.263,-305.009"/>
<polygon fill="midnightblue" stroke="midnightblue" points="812.969,-318.479 803.9,-323.957 814.405,-325.33 812.969,-318.479"/>
</g>
<!-- Node17 -->
<g id="node17" class="node"><title>Node17</title>
<g id="a_node17"><a xlink:href="classrc_kinetoscope.html#a9e34ed1b237aa970f30995cb75245233" target="_top" xlink:title="rcKinetoscope::connected\lFunctions">
<polygon fill="white" stroke="black" points="1060.46,-312 1060.46,-344 1191.54,-344 1191.54,-312 1060.46,-312"/>
<text text-anchor="start" x="1068.46" y="-330" font-family="Helvetica,sans-Serif" font-size="10.00">rcKinetoscope::connected</text>
<text text-anchor="middle" x="1126" y="-318" font-family="Helvetica,sans-Serif" font-size="10.00">Functions</text>
</a>
</g>
</g>
<!-- Node16&#45;&gt;Node17 -->
<g id="edge17" class="edge"><title>Node16&#45;&gt;Node17</title>
<path fill="none" stroke="midnightblue" d="M1000.63,-399.059C1007.25,-396.971 1013.84,-394.62 1020,-392 1050.25,-379.126 1082.1,-358.581 1102.68,-344.253"/>
<polygon fill="midnightblue" stroke="midnightblue" points="999.529,-395.734 990.936,-401.93 1001.52,-402.445 999.529,-395.734"/>
</g>
<!-- Node18 -->
<g id="node18" class="node"><title>Node18</title>
<g id="a_node18"><a xlink:href="classrc_kinetoscope.html#a30274b84c57f86e667b614556f6c569b" target="_top" xlink:title="rcKinetoscope::step">
<polygon fill="white" stroke="black" points="1423.09,-318 1423.09,-338 1526.91,-338 1526.91,-318 1423.09,-318"/>
<text text-anchor="middle" x="1475" y="-324" font-family="Helvetica,sans-Serif" font-size="10.00">rcKinetoscope::step</text>
</a>
</g>
</g>
<!-- Node17&#45;&gt;Node18 -->
<g id="edge18" class="edge"><title>Node17&#45;&gt;Node18</title>
<path fill="none" stroke="midnightblue" d="M1201.77,-312.784C1211.89,-311.219 1222.17,-309.882 1232,-309 1299.29,-302.961 1316.81,-301.985 1384,-309 1400.99,-310.774 1419.51,-314.385 1435.3,-317.986"/>
<polygon fill="midnightblue" stroke="midnightblue" points="1201.04,-309.357 1191.73,-314.416 1202.16,-316.267 1201.04,-309.357"/>
</g>
<!-- Node19 -->
<g id="node19" class="node"><title>Node19</title>
<g id="a_node19"><a xlink:href="classrc_kinetoscope.html#ae0addfc3a10c4c69ba027d9bfc351217" target="_top" xlink:title="rcKinetoscope::stepContractile">
<polygon fill="white" stroke="black" points="1232.19,-357 1232.19,-377 1383.81,-377 1383.81,-357 1232.19,-357"/>
<text text-anchor="middle" x="1308" y="-363" font-family="Helvetica,sans-Serif" font-size="10.00">rcKinetoscope::stepContractile</text>
</a>
</g>
</g>
<!-- Node17&#45;&gt;Node19 -->
<g id="edge20" class="edge"><title>Node17&#45;&gt;Node19</title>
<path fill="none" stroke="midnightblue" d="M1201.73,-344.192C1221.69,-348.515 1242.67,-353.061 1260.6,-356.947"/>
<polygon fill="midnightblue" stroke="midnightblue" points="1202.24,-340.722 1191.73,-342.025 1200.76,-347.563 1202.24,-340.722"/>
</g>
<!-- Node20 -->
<g id="node20" class="node"><title>Node20</title>
<g id="a_node20"><a xlink:href="classrc_kinetoscope.html#a431144623d201c5aeb857893d8460ca2" target="_top" xlink:title="rcKinetoscope::stepEpi">
<polygon fill="white" stroke="black" points="1248.86,-318 1248.86,-338 1367.14,-338 1367.14,-318 1248.86,-318"/>
<text text-anchor="middle" x="1308" y="-324" font-family="Helvetica,sans-Serif" font-size="10.00">rcKinetoscope::stepEpi</text>
</a>
</g>
</g>
<!-- Node17&#45;&gt;Node20 -->
<g id="edge22" class="edge"><title>Node17&#45;&gt;Node20</title>
<path fill="none" stroke="midnightblue" d="M1201.91,-328C1217.58,-328 1233.87,-328 1248.82,-328"/>
<polygon fill="midnightblue" stroke="midnightblue" points="1201.73,-324.5 1191.73,-328 1201.73,-331.5 1201.73,-324.5"/>
</g>
<!-- Node18&#45;&gt;Node8 -->
<g id="edge19" class="edge"><title>Node18&#45;&gt;Node8</title>
<path fill="none" stroke="midnightblue" d="M1537.36,-328C1546.83,-328 1556.68,-328 1566.35,-328"/>
<polygon fill="midnightblue" stroke="midnightblue" points="1537.26,-324.5 1527.26,-328 1537.26,-331.5 1537.26,-324.5"/>
</g>
<!-- Node19&#45;&gt;Node18 -->
<g id="edge21" class="edge"><title>Node19&#45;&gt;Node18</title>
<path fill="none" stroke="midnightblue" d="M1361.3,-354.637C1383.99,-349.275 1410.21,-343.077 1431.65,-338.009"/>
<polygon fill="midnightblue" stroke="midnightblue" points="1360.42,-351.25 1351.49,-356.957 1362.03,-358.062 1360.42,-351.25"/>
</g>
<!-- Node20&#45;&gt;Node18 -->
<g id="edge23" class="edge"><title>Node20&#45;&gt;Node18</title>
<path fill="none" stroke="midnightblue" d="M1377.56,-328C1392.75,-328 1408.59,-328 1422.93,-328"/>
<polygon fill="midnightblue" stroke="midnightblue" points="1377.17,-324.5 1367.17,-328 1377.17,-331.5 1377.17,-324.5"/>
</g>
<!-- Node22&#45;&gt;Node17 -->
<g id="edge26" class="edge"><title>Node22&#45;&gt;Node17</title>
<path fill="none" stroke="midnightblue" d="M994.354,-360.481C1014.79,-355.399 1038.66,-349.466 1060.36,-344.071"/>
<polygon fill="midnightblue" stroke="midnightblue" points="993.48,-357.092 984.62,-362.901 995.169,-363.885 993.48,-357.092"/>
</g>
<!-- Node23&#45;&gt;Node17 -->
<g id="edge28" class="edge"><title>Node23&#45;&gt;Node17</title>
<path fill="none" stroke="midnightblue" d="M1002.11,-305.595C1020.69,-308.982 1041.37,-312.752 1060.38,-316.219"/>
<polygon fill="midnightblue" stroke="midnightblue" points="1002.5,-302.107 992.029,-303.757 1001.24,-308.994 1002.5,-302.107"/>
</g>
<!-- Node24&#45;&gt;Node21 -->
<g id="edge31" class="edge"><title>Node24&#45;&gt;Node21</title>
<path fill="none" stroke="midnightblue" d="M813.898,-186.698C819.538,-189.057 825.011,-191.805 830,-195 850.421,-208.078 845.375,-223.247 866,-236 872.847,-240.233 880.574,-243.578 888.413,-246.218"/>
<polygon fill="midnightblue" stroke="midnightblue" points="814.896,-183.333 804.304,-183.083 812.428,-189.884 814.896,-183.333"/>
</g>
<!-- Node25 -->
<g id="node25" class="node"><title>Node25</title>
<g id="a_node25"><a xlink:href="classrc_muscle_segmenter.html#a7a53df71095b135bc1b256d1544fc0f4" target="_top" xlink:title="rcMuscleSegmenter::\lmergePolygons">
<polygon fill="white" stroke="black" points="887.761,-156 887.761,-188 998.239,-188 998.239,-156 887.761,-156"/>
<text text-anchor="start" x="895.761" y="-174" font-family="Helvetica,sans-Serif" font-size="10.00">rcMuscleSegmenter::</text>
<text text-anchor="middle" x="943" y="-162" font-family="Helvetica,sans-Serif" font-size="10.00">mergePolygons</text>
</a>
</g>
</g>
<!-- Node24&#45;&gt;Node25 -->
<g id="edge32" class="edge"><title>Node24&#45;&gt;Node25</title>
<path fill="none" stroke="midnightblue" d="M839.8,-172.549C856.001,-172.462 872.577,-172.373 887.538,-172.293"/>
<polygon fill="midnightblue" stroke="midnightblue" points="839.76,-169.05 829.779,-172.603 839.798,-176.049 839.76,-169.05"/>
</g>
<!-- Node27 -->
<g id="node27" class="node"><title>Node27</title>
<g id="a_node27"><a xlink:href="rc__analysis_8h.html#ad0865a28963f4fccfcf3f05e42b15769" target="_top" xlink:title="rfComponentPolygons">
<polygon fill="white" stroke="black" points="885.527,-207 885.527,-227 1000.47,-227 1000.47,-207 885.527,-207"/>
<text text-anchor="middle" x="943" y="-213" font-family="Helvetica,sans-Serif" font-size="10.00">rfComponentPolygons</text>
</a>
</g>
</g>
<!-- Node24&#45;&gt;Node27 -->
<g id="edge35" class="edge"><title>Node24&#45;&gt;Node27</title>
<path fill="none" stroke="midnightblue" d="M808.557,-185.433C837.328,-192.239 872.511,-200.562 899.526,-206.952"/>
<polygon fill="midnightblue" stroke="midnightblue" points="809.209,-181.991 798.672,-183.094 807.598,-188.803 809.209,-181.991"/>
</g>
<!-- Node26 -->
<g id="node26" class="node"><title>Node26</title>
<g id="a_node26"><a xlink:href="classrc_muscle_segmenter.html#a86d108c38d0bcb7a7eb47021b7ab0308" target="_top" xlink:title="rcMuscleSegmenter::\lsegment">
<polygon fill="white" stroke="black" points="1419.76,-212 1419.76,-244 1530.24,-244 1530.24,-212 1419.76,-212"/>
<text text-anchor="start" x="1427.76" y="-230" font-family="Helvetica,sans-Serif" font-size="10.00">rcMuscleSegmenter::</text>
<text text-anchor="middle" x="1475" y="-218" font-family="Helvetica,sans-Serif" font-size="10.00">segment</text>
</a>
</g>
</g>
<!-- Node25&#45;&gt;Node26 -->
<g id="edge33" class="edge"><title>Node25&#45;&gt;Node26</title>
<path fill="none" stroke="midnightblue" d="M1008.92,-178.859C1114.44,-190.009 1321.25,-211.86 1419.57,-222.249"/>
<polygon fill="midnightblue" stroke="midnightblue" points="1009.04,-175.352 998.723,-177.782 1008.3,-182.314 1009.04,-175.352"/>
</g>
<!-- Node26&#45;&gt;Node8 -->
<g id="edge34" class="edge"><title>Node26&#45;&gt;Node8</title>
<path fill="none" stroke="midnightblue" d="M1510.76,-249.456C1544.9,-270.534 1595.54,-301.789 1621.43,-317.774"/>
<polygon fill="midnightblue" stroke="midnightblue" points="1512.38,-246.341 1502.03,-244.067 1508.7,-252.298 1512.38,-246.341"/>
</g>
<!-- Node27&#45;&gt;Node17 -->
<g id="edge36" class="edge"><title>Node27&#45;&gt;Node17</title>
<path fill="none" stroke="midnightblue" d="M1005.34,-230.485C1010.42,-232.393 1015.37,-234.555 1020,-237 1056.91,-256.482 1091.88,-291.191 1110.68,-311.649"/>
<polygon fill="midnightblue" stroke="midnightblue" points="1006.09,-227.041 995.496,-227.12 1003.83,-233.666 1006.09,-227.041"/>
</g>
<!-- Node28&#45;&gt;Node6 -->
<g id="edge40" class="edge"><title>Node28&#45;&gt;Node6</title>
<path fill="none" stroke="midnightblue" d="M791.748,-228.495C804.805,-234.967 819.043,-243.524 830,-254 852.478,-275.491 841.128,-295.332 866,-314 871.456,-318.095 877.68,-321.353 884.164,-323.946"/>
<polygon fill="midnightblue" stroke="midnightblue" points="793.052,-225.24 782.513,-224.153 790.073,-231.575 793.052,-225.24"/>
</g>
<!-- Node28&#45;&gt;Node25 -->
<g id="edge38" class="edge"><title>Node28&#45;&gt;Node25</title>
<path fill="none" stroke="midnightblue" d="M810.328,-201.732C834.624,-196.246 863.206,-189.792 887.52,-184.302"/>
<polygon fill="midnightblue" stroke="midnightblue" points="809.535,-198.323 800.552,-203.94 811.077,-205.151 809.535,-198.323"/>
</g>
<!-- Node28&#45;&gt;Node27 -->
<g id="edge39" class="edge"><title>Node28&#45;&gt;Node27</title>
<path fill="none" stroke="midnightblue" d="M827.394,-215.152C846.648,-215.462 867.209,-215.794 885.523,-216.089"/>
<polygon fill="midnightblue" stroke="midnightblue" points="827.216,-211.648 817.161,-214.986 827.103,-218.647 827.216,-211.648"/>
</g>
<!-- Node30 -->
<g id="node30" class="node"><title>Node30</title>
<g id="a_node30"><a xlink:href="classrc_corr.html#ac30b4b71108137b986312f6561b0268c" target="_top" xlink:title="rcCorr::operator!=">
<polygon fill="white" stroke="black" points="707.403,-405 707.403,-425 802.597,-425 802.597,-405 707.403,-405"/>
<text text-anchor="middle" x="755" y="-411" font-family="Helvetica,sans-Serif" font-size="10.00">rcCorr::operator!=</text>
</a>
</g>
</g>
<!-- Node29&#45;&gt;Node30 -->
<g id="edge44" class="edge"><title>Node29&#45;&gt;Node30</title>
<path fill="none" stroke="midnightblue" d="M604.774,-413.437C635.063,-413.755 676.04,-414.184 707.391,-414.512"/>
<polygon fill="midnightblue" stroke="midnightblue" points="604.576,-409.935 594.54,-413.33 604.503,-416.935 604.576,-409.935"/>
</g>
<!-- Node31 -->
<g id="node31" class="node"><title>Node31</title>
<g id="a_node31"><a xlink:href="rc__polygon_8h.html#abb8ce3208e91562a9838c33637e947ea" target="_top" xlink:title="operator!=">
<polygon fill="white" stroke="black" points="724.068,-366 724.068,-386 785.932,-386 785.932,-366 724.068,-366"/>
<text text-anchor="middle" x="755" y="-372" font-family="Helvetica,sans-Serif" font-size="10.00">operator!=</text>
</a>
</g>
</g>
<!-- Node29&#45;&gt;Node31 -->
<g id="edge45" class="edge"><title>Node29&#45;&gt;Node31</title>
<path fill="none" stroke="midnightblue" d="M604.729,-404.916C640.742,-397.94 691.888,-388.032 723.989,-381.814"/>
<polygon fill="midnightblue" stroke="midnightblue" points="603.692,-401.552 594.54,-406.89 605.023,-408.424 603.692,-401.552"/>
</g>
<!-- Node35 -->
<g id="node35" class="node"><title>Node35</title>
<g id="a_node35"><a xlink:href="classrc_polygon.html#a6b6c1acacfefff26d9780641716bd8cc" target="_top" xlink:title="rcPolygon::area">
<polygon fill="white" stroke="black" points="711.98,-118 711.98,-138 798.02,-138 798.02,-118 711.98,-118"/>
<text text-anchor="middle" x="755" y="-124" font-family="Helvetica,sans-Serif" font-size="10.00">rcPolygon::area</text>
</a>
</g>
</g>
<!-- Node34&#45;&gt;Node35 -->
<g id="edge49" class="edge"><title>Node34&#45;&gt;Node35</title>
<path fill="none" stroke="midnightblue" d="M247.218,-321.398C252.29,-319.45 257.31,-317.313 262,-315 367.253,-263.09 370.528,-208.294 480,-166 557.948,-135.885 656.517,-129.153 711.665,-127.929"/>
<polygon fill="midnightblue" stroke="midnightblue" points="245.698,-318.226 237.475,-324.907 248.07,-324.811 245.698,-318.226"/>
</g>
<!-- Node35&#45;&gt;Node21 -->
<g id="edge58" class="edge"><title>Node35&#45;&gt;Node21</title>
<path fill="none" stroke="midnightblue" d="M807.398,-139.83C815.625,-143.393 823.542,-148.014 830,-154 859.191,-181.057 835.744,-210.14 866,-236 872.43,-241.496 880.204,-245.503 888.293,-248.42"/>
<polygon fill="midnightblue" stroke="midnightblue" points="808.63,-136.554 798.04,-136.24 806.123,-143.089 808.63,-136.554"/>
</g>
<!-- Node35&#45;&gt;Node25 -->
<g id="edge59" class="edge"><title>Node35&#45;&gt;Node25</title>
<path fill="none" stroke="midnightblue" d="M808.148,-140.336C832.925,-146.197 862.529,-153.2 887.59,-159.129"/>
<polygon fill="midnightblue" stroke="midnightblue" points="808.743,-136.88 798.206,-137.984 807.132,-143.692 808.743,-136.88"/>
</g>
<!-- Node35&#45;&gt;Node27 -->
<g id="edge62" class="edge"><title>Node35&#45;&gt;Node27</title>
<path fill="none" stroke="midnightblue" d="M806.639,-141.682C814.821,-145.027 822.92,-149.095 830,-154 850.489,-168.193 844.956,-183.643 866,-197 872.451,-201.094 879.716,-204.354 887.131,-206.949"/>
<polygon fill="midnightblue" stroke="midnightblue" points="807.645,-138.321 797.052,-138.079 805.182,-144.873 807.645,-138.321"/>
</g>
<!-- Node36 -->
<g id="node36" class="node"><title>Node36</title>
<g id="a_node36"><a xlink:href="classrc_polygon.html#a431db120e3a0da5b3c5521f0f2be07fc" target="_top" xlink:title="rcPolygon::circularity">
<polygon fill="white" stroke="black" points="888.875,-117 888.875,-137 997.125,-137 997.125,-117 888.875,-117"/>
<text text-anchor="middle" x="943" y="-123" font-family="Helvetica,sans-Serif" font-size="10.00">rcPolygon::circularity</text>
</a>
</g>
</g>
<!-- Node35&#45;&gt;Node36 -->
<g id="edge50" class="edge"><title>Node35&#45;&gt;Node36</title>
<path fill="none" stroke="midnightblue" d="M808.272,-127.719C833.366,-127.584 863.39,-127.423 888.626,-127.287"/>
<polygon fill="midnightblue" stroke="midnightblue" points="808.187,-124.219 798.206,-127.773 808.225,-131.219 808.187,-124.219"/>
</g>
<!-- Node39 -->
<g id="node39" class="node"><title>Node39</title>
<g id="a_node39"><a xlink:href="classrc_visual_function.html#a60c456dafac1e2842e1356274b928a08" target="_top" xlink:title="rcVisualFunction::update">
<polygon fill="white" stroke="black" points="1063.06,-78 1063.06,-98 1188.94,-98 1188.94,-78 1063.06,-78"/>
<text text-anchor="middle" x="1126" y="-84" font-family="Helvetica,sans-Serif" font-size="10.00">rcVisualFunction::update</text>
</a>
</g>
</g>
<!-- Node35&#45;&gt;Node39 -->
<g id="edge63" class="edge"><title>Node35&#45;&gt;Node39</title>
<path fill="none" stroke="midnightblue" d="M807.996,-116.797C826.261,-113.202 846.971,-109.506 866,-107 933.05,-98.1704 1010.45,-93.1648 1063.04,-90.5334"/>
<polygon fill="midnightblue" stroke="midnightblue" points="807.243,-113.379 798.126,-118.777 808.619,-120.242 807.243,-113.379"/>
</g>
<!-- Node40 -->
<g id="node40" class="node"><title>Node40</title>
<g id="a_node40"><a xlink:href="classrc_polygon.html#a57c6415d5f35d5516fe75b2c623ac340" target="_top" xlink:title="rcPolygon::ellipseRatio">
<polygon fill="white" stroke="black" points="884.141,-39 884.141,-59 1001.86,-59 1001.86,-39 884.141,-39"/>
<text text-anchor="middle" x="943" y="-45" font-family="Helvetica,sans-Serif" font-size="10.00">rcPolygon::ellipseRatio</text>
</a>
</g>
</g>
<!-- Node35&#45;&gt;Node40 -->
<g id="edge54" class="edge"><title>Node35&#45;&gt;Node40</title>
<path fill="none" stroke="midnightblue" d="M783.782,-113.027C805.733,-101.525 837.341,-85.6823 866,-74 879.505,-68.4947 894.718,-63.2997 907.964,-59.0867"/>
<polygon fill="midnightblue" stroke="midnightblue" points="781.918,-110.054 774.712,-117.821 785.189,-116.242 781.918,-110.054"/>
</g>
<!-- Node43 -->
<g id="node43" class="node"><title>Node43</title>
<g id="a_node43"><a xlink:href="classrc_shape.html#a1a6aa8191bd8471afc357798620faa13" target="_top" xlink:title="rcShape::needArea">
<polygon fill="white" stroke="black" points="891.914,-0 891.914,-20 994.086,-20 994.086,-0 891.914,-0"/>
<text text-anchor="middle" x="943" y="-6" font-family="Helvetica,sans-Serif" font-size="10.00">rcShape::needArea</text>
</a>
</g>
</g>
<!-- Node35&#45;&gt;Node43 -->
<g id="edge60" class="edge"><title>Node35&#45;&gt;Node43</title>
<path fill="none" stroke="midnightblue" d="M770.847,-110.076C790.357,-87.7083 826.779,-49.8644 866,-29 873.925,-24.7842 882.815,-21.4794 891.646,-18.8959"/>
<polygon fill="midnightblue" stroke="midnightblue" points="768.062,-107.947 764.226,-117.824 773.384,-112.495 768.062,-107.947"/>
</g>
<!-- Node37 -->
<g id="node37" class="node"><title>Node37</title>
<g id="a_node37"><a xlink:href="classrc_shape.html#ab5b1c04b05f84241d5ec01ecb0eb01e8" target="_top" xlink:title="rcShape::needCircularity">
<polygon fill="white" stroke="black" points="1063.25,-117 1063.25,-137 1188.75,-137 1188.75,-117 1063.25,-117"/>
<text text-anchor="middle" x="1126" y="-123" font-family="Helvetica,sans-Serif" font-size="10.00">rcShape::needCircularity</text>
</a>
</g>
</g>
<!-- Node36&#45;&gt;Node37 -->
<g id="edge51" class="edge"><title>Node36&#45;&gt;Node37</title>
<path fill="none" stroke="midnightblue" d="M1007.47,-127C1025.53,-127 1045.17,-127 1063.14,-127"/>
<polygon fill="midnightblue" stroke="midnightblue" points="1007.33,-123.5 997.327,-127 1007.33,-130.5 1007.33,-123.5"/>
</g>
<!-- Node36&#45;&gt;Node39 -->
<g id="edge53" class="edge"><title>Node36&#45;&gt;Node39</title>
<path fill="none" stroke="midnightblue" d="M1000.71,-114.781C1025.75,-109.386 1054.82,-103.122 1078.55,-98.0094"/>
<polygon fill="midnightblue" stroke="midnightblue" points="999.65,-111.429 990.612,-116.957 1001.12,-118.272 999.65,-111.429"/>
</g>
<!-- Node38 -->
<g id="node38" class="node"><title>Node38</title>
<g id="a_node38"><a xlink:href="classrc_shape.html#aaafce55ccd515ba96813d0f18830bd1c" target="_top" xlink:title="rcShape::circularity">
<polygon fill="white" stroke="black" points="1257.49,-117 1257.49,-137 1358.51,-137 1358.51,-117 1257.49,-117"/>
<text text-anchor="middle" x="1308" y="-123" font-family="Helvetica,sans-Serif" font-size="10.00">rcShape::circularity</text>
</a>
</g>
</g>
<!-- Node37&#45;&gt;Node38 -->
<g id="edge52" class="edge"><title>Node37&#45;&gt;Node38</title>
<path fill="none" stroke="midnightblue" d="M1199.06,-127C1218.64,-127 1239.4,-127 1257.43,-127"/>
<polygon fill="midnightblue" stroke="midnightblue" points="1198.95,-123.5 1188.95,-127 1198.95,-130.5 1198.95,-123.5"/>
</g>
<!-- Node40&#45;&gt;Node39 -->
<g id="edge57" class="edge"><title>Node40&#45;&gt;Node39</title>
<path fill="none" stroke="midnightblue" d="M1000.71,-61.2188C1025.75,-66.6142 1054.82,-72.8779 1078.55,-77.9906"/>
<polygon fill="midnightblue" stroke="midnightblue" points="1001.12,-57.7284 990.612,-59.0435 999.65,-64.5714 1001.12,-57.7284"/>
</g>
<!-- Node41 -->
<g id="node41" class="node"><title>Node41</title>
<g id="a_node41"><a xlink:href="classrc_shape.html#a06e0b3d01387e2b8512a3386d5e5645b" target="_top" xlink:title="rcShape::needEllipseRatio">
<polygon fill="white" stroke="black" points="1059.07,-39 1059.07,-59 1192.93,-59 1192.93,-39 1059.07,-39"/>
<text text-anchor="middle" x="1126" y="-45" font-family="Helvetica,sans-Serif" font-size="10.00">rcShape::needEllipseRatio</text>
</a>
</g>
</g>
<!-- Node40&#45;&gt;Node41 -->
<g id="edge55" class="edge"><title>Node40&#45;&gt;Node41</title>
<path fill="none" stroke="midnightblue" d="M1012.62,-49C1027.82,-49 1043.89,-49 1058.98,-49"/>
<polygon fill="midnightblue" stroke="midnightblue" points="1012.27,-45.5001 1002.27,-49 1012.27,-52.5001 1012.27,-45.5001"/>
</g>
<!-- Node42 -->
<g id="node42" class="node"><title>Node42</title>
<g id="a_node42"><a xlink:href="classrc_shape.html#abaf9aff51b6ab713ce8e6f98bc4495cf" target="_top" xlink:title="rcShape::ellipseRatio">
<polygon fill="white" stroke="black" points="1252.75,-39 1252.75,-59 1363.25,-59 1363.25,-39 1252.75,-39"/>
<text text-anchor="middle" x="1308" y="-45" font-family="Helvetica,sans-Serif" font-size="10.00">rcShape::ellipseRatio</text>
</a>
</g>
</g>
<!-- Node41&#45;&gt;Node42 -->
<g id="edge56" class="edge"><title>Node41&#45;&gt;Node42</title>
<path fill="none" stroke="midnightblue" d="M1203.22,-49C1219.78,-49 1236.99,-49 1252.52,-49"/>
<polygon fill="midnightblue" stroke="midnightblue" points="1203,-45.5001 1193,-49 1203,-52.5001 1203,-45.5001"/>
</g>
<!-- Node44 -->
<g id="node44" class="node"><title>Node44</title>
<g id="a_node44"><a xlink:href="classrc_shape.html#ab7a2cce75ac75fc3e18b62e3e0c3db34" target="_top" xlink:title="rcShape::area">
<polygon fill="white" stroke="black" points="1086.59,-0 1086.59,-20 1165.41,-20 1165.41,-0 1086.59,-0"/>
<text text-anchor="middle" x="1126" y="-6" font-family="Helvetica,sans-Serif" font-size="10.00">rcShape::area</text>
</a>
</g>
</g>
<!-- Node43&#45;&gt;Node44 -->
<g id="edge61" class="edge"><title>Node43&#45;&gt;Node44</title>
<path fill="none" stroke="midnightblue" d="M1004.54,-10C1031.54,-10 1062.54,-10 1086.33,-10"/>
<polygon fill="midnightblue" stroke="midnightblue" points="1004.42,-6.5001 994.419,-10 1004.42,-13.5001 1004.42,-6.5001"/>
</g>
</g>
</svg>
