<?xml version="1.0" encoding="UTF-8" standalone="no"?>
<!DOCTYPE svg PUBLIC "-//W3C//DTD SVG 1.1//EN"
 "http://www.w3.org/Graphics/SVG/1.1/DTD/svg11.dtd">
<!-- Generated by graphviz version 2.32.0 (20130916.1925)
 -->
<!-- Title: env_vector::operator= Pages: 1 -->
<svg width="468pt" height="145pt"
 viewBox="0.00 0.00 468.00 145.00" xmlns="http://www.w3.org/2000/svg" xmlns:xlink="http://www.w3.org/1999/xlink">
<g id="graph0" class="graph" transform="scale(1 1) rotate(0) translate(4 141)">
<title>env_vector::operator=</title>
<polygon fill="white" stroke="white" points="-4,5 -4,-141 465,-141 465,5 -4,5"/>
<!-- Node1 -->
<g id="node1" class="node"><title>Node1</title>
<polygon fill="#bfbfbf" stroke="black" points="0.220703,-78 0.220703,-98 113.779,-98 113.779,-78 0.220703,-78"/>
<text text-anchor="middle" x="57" y="-84" font-family="Helvetica,sans-Serif" font-size="10.00">env_vector::operator=</text>
</g>
<!-- Node2 -->
<g id="node2" class="node"><title>Node2</title>
<g id="a_node2"><a xlink:href="classenv__vector.html#aac42ce2126933335c3c43a810a7f8f58" target="_top" xlink:title="env_vector::clear">
<polygon fill="white" stroke="black" points="149.926,-107 149.926,-127 242.074,-127 242.074,-107 149.926,-107"/>
<text text-anchor="middle" x="196" y="-113" font-family="Helvetica,sans-Serif" font-size="10.00">env_vector::clear</text>
</a>
</g>
</g>
<!-- Node1&#45;&gt;Node2 -->
<g id="edge1" class="edge"><title>Node1&#45;&gt;Node2</title>
<path fill="none" stroke="midnightblue" d="M105.531,-98.0614C116.649,-100.415 128.583,-102.941 139.996,-105.357"/>
<polygon fill="midnightblue" stroke="midnightblue" points="139.35,-108.798 149.858,-107.444 140.799,-101.949 139.35,-108.798"/>
</g>
<!-- Node4 -->
<g id="node4" class="node"><title>Node4</title>
<g id="a_node4"><a xlink:href="subprocesses_8cpp.html#a472f35001de232490ad8a28c0833a1d4" target="_top" xlink:title="envp_copy">
<polygon fill="white" stroke="black" points="163.815,-49 163.815,-69 228.185,-69 228.185,-49 163.815,-49"/>
<text text-anchor="middle" x="196" y="-55" font-family="Helvetica,sans-Serif" font-size="10.00">envp_copy</text>
</a>
</g>
</g>
<!-- Node1&#45;&gt;Node4 -->
<g id="edge3" class="edge"><title>Node1&#45;&gt;Node4</title>
<path fill="none" stroke="midnightblue" d="M105.531,-77.9386C121.104,-74.6422 138.277,-71.0071 153.378,-67.8105"/>
<polygon fill="midnightblue" stroke="midnightblue" points="154.398,-71.1722 163.457,-65.6771 152.949,-64.3239 154.398,-71.1722"/>
</g>
<!-- Node3 -->
<g id="node3" class="node"><title>Node3</title>
<g id="a_node3"><a xlink:href="subprocesses_8cpp.html#a9c121f5942879302b219b45465fda457" target="_top" xlink:title="envp_clear">
<polygon fill="white" stroke="black" points="284.54,-117 284.54,-137 349.46,-137 349.46,-117 284.54,-117"/>
<text text-anchor="middle" x="317" y="-123" font-family="Helvetica,sans-Serif" font-size="10.00">envp_clear</text>
</a>
</g>
</g>
<!-- Node2&#45;&gt;Node3 -->
<g id="edge2" class="edge"><title>Node2&#45;&gt;Node3</title>
<path fill="none" stroke="midnightblue" d="M242.328,-120.809C252.87,-121.695 264.042,-122.634 274.414,-123.505"/>
<polygon fill="midnightblue" stroke="midnightblue" points="274.207,-127 284.465,-124.35 274.793,-120.025 274.207,-127"/>
</g>
<!-- Node5 -->
<g id="node5" class="node"><title>Node5</title>
<g id="a_node5"><a xlink:href="subprocesses_8cpp.html#a6e9cf45406bcb5b50e4a7c6a44743853" target="_top" xlink:title="envp_append">
<polygon fill="white" stroke="black" points="278.692,-78 278.692,-98 355.308,-98 355.308,-78 278.692,-78"/>
<text text-anchor="middle" x="317" y="-84" font-family="Helvetica,sans-Serif" font-size="10.00">envp_append</text>
</a>
</g>
</g>
<!-- Node4&#45;&gt;Node5 -->
<g id="edge4" class="edge"><title>Node4&#45;&gt;Node5</title>
<path fill="none" stroke="midnightblue" d="M228.266,-66.6194C240.678,-69.6443 255.225,-73.1893 268.865,-76.5132"/>
<polygon fill="midnightblue" stroke="midnightblue" points="268.048,-79.9166 278.593,-78.8839 269.706,-73.1157 268.048,-79.9166"/>
</g>
<!-- Node7 -->
<g id="node7" class="node"><title>Node7</title>
<g id="a_node7"><a xlink:href="subprocesses_8cpp.html#a6e062180232ca20bac58ac9f4a065830" target="_top" xlink:title="envp_extract">
<polygon fill="white" stroke="black" points="280.372,-39 280.372,-59 353.628,-59 353.628,-39 280.372,-39"/>
<text text-anchor="middle" x="317" y="-45" font-family="Helvetica,sans-Serif" font-size="10.00">envp_extract</text>
</a>
</g>
</g>
<!-- Node4&#45;&gt;Node7 -->
<g id="edge6" class="edge"><title>Node4&#45;&gt;Node7</title>
<path fill="none" stroke="midnightblue" d="M228.266,-56.3726C241.122,-55.2923 256.267,-54.0196 270.322,-52.8385"/>
<polygon fill="midnightblue" stroke="midnightblue" points="270.644,-56.3238 280.316,-51.9986 270.058,-49.3484 270.644,-56.3238"/>
</g>
<!-- Node8 -->
<g id="node8" class="node"><title>Node8</title>
<g id="a_node8"><a xlink:href="subprocesses_8cpp.html#a9d5e0180793640161b1232345eb8238e" target="_top" xlink:title="envp_size">
<polygon fill="white" stroke="black" points="286.485,-0 286.485,-20 347.515,-20 347.515,-0 286.485,-0"/>
<text text-anchor="middle" x="317" y="-6" font-family="Helvetica,sans-Serif" font-size="10.00">envp_size</text>
</a>
</g>
</g>
<!-- Node4&#45;&gt;Node8 -->
<g id="edge7" class="edge"><title>Node4&#45;&gt;Node8</title>
<path fill="none" stroke="midnightblue" d="M221.369,-48.9659C238.936,-41.7322 262.869,-31.8774 282.271,-23.8885"/>
<polygon fill="midnightblue" stroke="midnightblue" points="283.75,-27.0646 291.664,-20.0207 281.085,-20.5919 283.75,-27.0646"/>
</g>
<!-- Node6 -->
<g id="node6" class="node"><title>Node6</title>
<g id="a_node6"><a xlink:href="subprocesses_8cpp.html#a926651a6370abeed0ad2d73468d1af99" target="_top" xlink:title="copy_string">
<polygon fill="white" stroke="black" points="392.431,-78 392.431,-98 459.569,-98 459.569,-78 392.431,-78"/>
<text text-anchor="middle" x="426" y="-84" font-family="Helvetica,sans-Serif" font-size="10.00">copy_string</text>
</a>
</g>
</g>
<!-- Node5&#45;&gt;Node6 -->
<g id="edge5" class="edge"><title>Node5&#45;&gt;Node6</title>
<path fill="none" stroke="midnightblue" d="M355.423,-88C364.087,-88 373.37,-88 382.242,-88"/>
<polygon fill="midnightblue" stroke="midnightblue" points="382.406,-91.5001 392.406,-88 382.406,-84.5001 382.406,-91.5001"/>
</g>
</g>
</svg>
