<?xml version="1.0" encoding="UTF-8" standalone="no"?>
<!DOCTYPE svg PUBLIC "-//W3C//DTD SVG 1.1//EN"
 "http://www.w3.org/Graphics/SVG/1.1/DTD/svg11.dtd">
<!-- Generated by graphviz version 2.32.0 (20130916.1925)
 -->
<!-- Title: rcPolygon::crossing Pages: 1 -->
<svg width="1514pt" height="279pt"
 viewBox="0.00 0.00 1514.00 278.57" xmlns="http://www.w3.org/2000/svg" xmlns:xlink="http://www.w3.org/1999/xlink">
<g id="graph0" class="graph" transform="scale(1 1) rotate(0) translate(4 274.573)">
<title>rcPolygon::crossing</title>
<polygon fill="white" stroke="white" points="-4,5 -4,-274.573 1511,-274.573 1511,5 -4,5"/>
<!-- Node1 -->
<g id="node1" class="node"><title>Node1</title>
<polygon fill="#bfbfbf" stroke="black" points="0.369629,-57.9441 0.369629,-77.9441 103.63,-77.9441 103.63,-57.9441 0.369629,-57.9441"/>
<text text-anchor="middle" x="52" y="-63.9441" font-family="Helvetica,sans-Serif" font-size="10.00">rcPolygon::crossing</text>
</g>
<!-- Node2 -->
<g id="node2" class="node"><title>Node2</title>
<g id="a_node2"><a xlink:href="classrc_polygon.html#a8218cb6277bad7525299b231f54455aa" target="_top" xlink:title="rcPolygon::contains">
<polygon fill="white" stroke="black" points="141.365,-118.944 141.365,-138.944 244.635,-138.944 244.635,-118.944 141.365,-118.944"/>
<text text-anchor="middle" x="193" y="-124.944" font-family="Helvetica,sans-Serif" font-size="10.00">rcPolygon::contains</text>
</a>
</g>
</g>
<!-- Node1&#45;&gt;Node2 -->
<g id="edge1" class="edge"><title>Node1&#45;&gt;Node2</title>
<path fill="none" stroke="midnightblue" d="M85.2672,-82.1045C110.916,-93.3604 146.164,-108.829 169.013,-118.856"/>
<polygon fill="midnightblue" stroke="midnightblue" points="86.5166,-78.8306 75.953,-78.017 83.7035,-85.2406 86.5166,-78.8306"/>
</g>
<!-- Node21 -->
<g id="node21" class="node"><title>Node21</title>
<g id="a_node21"><a xlink:href="classrc_polygon.html#a3f76c821a42981abf52a1cf49f39e6dd" target="_top" xlink:title="rcPolygon::findPeak">
<polygon fill="white" stroke="black" points="140.53,-57.9441 140.53,-77.9441 245.47,-77.9441 245.47,-57.9441 140.53,-57.9441"/>
<text text-anchor="middle" x="193" y="-63.9441" font-family="Helvetica,sans-Serif" font-size="10.00">rcPolygon::findPeak</text>
</a>
</g>
</g>
<!-- Node1&#45;&gt;Node21 -->
<g id="edge30" class="edge"><title>Node1&#45;&gt;Node21</title>
<path fill="none" stroke="midnightblue" d="M114.055,-67.9441C122.744,-67.9441 131.613,-67.9441 140.106,-67.9441"/>
<polygon fill="midnightblue" stroke="midnightblue" points="113.969,-64.4442 103.969,-67.9441 113.969,-71.4442 113.969,-64.4442"/>
</g>
<!-- Node22 -->
<g id="node22" class="node"><title>Node22</title>
<g id="a_node22"><a xlink:href="classrc_polygon.html#a392686f03ee969c7f83bdc366b03af96" target="_top" xlink:title="rcPolygon::genMinEnclosingRect">
<polygon fill="white" stroke="black" points="282.628,-18.9441 282.628,-38.9441 445.372,-38.9441 445.372,-18.9441 282.628,-18.9441"/>
<text text-anchor="middle" x="364" y="-24.9441" font-family="Helvetica,sans-Serif" font-size="10.00">rcPolygon::genMinEnclosingRect</text>
</a>
</g>
</g>
<!-- Node1&#45;&gt;Node22 -->
<g id="edge32" class="edge"><title>Node1&#45;&gt;Node22</title>
<path fill="none" stroke="midnightblue" d="M101.151,-55.6015C113.727,-52.7286 127.314,-49.9325 140,-47.9441 186.928,-40.5885 239.89,-35.9252 282.421,-33.0603"/>
<polygon fill="midnightblue" stroke="midnightblue" points="100.255,-52.2167 91.3184,-57.9079 101.853,-59.0317 100.255,-52.2167"/>
</g>
<!-- Node3 -->
<g id="node3" class="node"><title>Node3</title>
<g id="a_node3"><a xlink:href="classrc_kinetoscope.html#a31824c9e1067da6136c4bc2b7d4bddcf" target="_top" xlink:title="rcKinetoscope::connectFunction">
<polygon fill="white" stroke="black" points="284.848,-233.944 284.848,-253.944 443.152,-253.944 443.152,-233.944 284.848,-233.944"/>
<text text-anchor="middle" x="364" y="-239.944" font-family="Helvetica,sans-Serif" font-size="10.00">rcKinetoscope::connectFunction</text>
</a>
</g>
</g>
<!-- Node2&#45;&gt;Node3 -->
<g id="edge2" class="edge"><title>Node2&#45;&gt;Node3</title>
<path fill="none" stroke="midnightblue" d="M209.647,-146.569C226.213,-164.402 253.815,-191.85 282,-209.944 297.529,-219.913 316.474,-228.054 332.137,-233.868"/>
<polygon fill="midnightblue" stroke="midnightblue" points="212.176,-144.148 202.85,-139.121 207.006,-148.867 212.176,-144.148"/>
</g>
<!-- Node9 -->
<g id="node9" class="node"><title>Node9</title>
<g id="a_node9"><a xlink:href="classrc_polygon.html#a24a3347f6c64febad2b5d6d07c61b63c" target="_top" xlink:title="rcPolygon::contains">
<polygon fill="white" stroke="black" points="505.365,-182.944 505.365,-202.944 608.635,-202.944 608.635,-182.944 505.365,-182.944"/>
<text text-anchor="middle" x="557" y="-188.944" font-family="Helvetica,sans-Serif" font-size="10.00">rcPolygon::contains</text>
</a>
</g>
</g>
<!-- Node2&#45;&gt;Node9 -->
<g id="edge10" class="edge"><title>Node2&#45;&gt;Node9</title>
<path fill="none" stroke="midnightblue" d="M216.824,-144.671C233.936,-155.557 258.379,-169.248 282,-175.944 357.544,-197.361 449.335,-198.253 505.174,-196.167"/>
<polygon fill="midnightblue" stroke="midnightblue" points="218.406,-141.523 208.122,-138.974 214.571,-147.38 218.406,-141.523"/>
</g>
<!-- Node10 -->
<g id="node10" class="node"><title>Node10</title>
<g id="a_node10"><a xlink:href="classrc_polygon.html#a589db645c2f757064903220d41721d2e" target="_top" xlink:title="rcPolygon::convexCompared\lToConvex">
<polygon fill="white" stroke="black" points="291.801,-134.944 291.801,-166.944 436.199,-166.944 436.199,-134.944 291.801,-134.944"/>
<text text-anchor="start" x="299.801" y="-152.944" font-family="Helvetica,sans-Serif" font-size="10.00">rcPolygon::convexCompared</text>
<text text-anchor="middle" x="364" y="-140.944" font-family="Helvetica,sans-Serif" font-size="10.00">ToConvex</text>
</a>
</g>
</g>
<!-- Node2&#45;&gt;Node10 -->
<g id="edge11" class="edge"><title>Node2&#45;&gt;Node10</title>
<path fill="none" stroke="midnightblue" d="M254.978,-136.882C266.896,-138.434 279.493,-140.073 291.711,-141.664"/>
<polygon fill="midnightblue" stroke="midnightblue" points="255.074,-133.365 244.706,-135.545 254.17,-140.306 255.074,-133.365"/>
</g>
<!-- Node11 -->
<g id="node11" class="node"><title>Node11</title>
<g id="a_node11"><a xlink:href="classrc_polygon.html#a879031bf9eea3cd7a0834408a8019acb" target="_top" xlink:title="rcPolygon::intersects">
<polygon fill="white" stroke="black" points="502.591,-132.944 502.591,-152.944 611.409,-152.944 611.409,-132.944 502.591,-132.944"/>
<text text-anchor="middle" x="557" y="-138.944" font-family="Helvetica,sans-Serif" font-size="10.00">rcPolygon::intersects</text>
</a>
</g>
</g>
<!-- Node2&#45;&gt;Node11 -->
<g id="edge29" class="edge"><title>Node2&#45;&gt;Node11</title>
<path fill="none" stroke="midnightblue" d="M254.867,-125.817C263.96,-125.454 273.224,-125.143 282,-124.944 354.87,-123.289 373.351,-119.039 446,-124.944 465.577,-126.535 486.922,-129.694 505.556,-132.928"/>
<polygon fill="midnightblue" stroke="midnightblue" points="254.553,-122.327 244.709,-126.245 254.847,-129.321 254.553,-122.327"/>
</g>
<!-- Node17 -->
<g id="node17" class="node"><title>Node17</title>
<g id="a_node17"><a xlink:href="classrc_polygon.html#a41ee396a9453685f11c2cc8d15af5738" target="_top" xlink:title="rcPolygon::convexIntersection">
<polygon fill="white" stroke="black" points="482.298,-34.9441 482.298,-54.9441 631.702,-54.9441 631.702,-34.9441 482.298,-34.9441"/>
<text text-anchor="middle" x="557" y="-40.9441" font-family="Helvetica,sans-Serif" font-size="10.00">rcPolygon::convexIntersection</text>
</a>
</g>
</g>
<!-- Node2&#45;&gt;Node17 -->
<g id="edge22" class="edge"><title>Node2&#45;&gt;Node17</title>
<path fill="none" stroke="midnightblue" d="M247.079,-116.627C319.021,-99.9337 446.116,-70.4419 512.644,-55.0046"/>
<polygon fill="midnightblue" stroke="midnightblue" points="246.256,-113.225 237.306,-118.895 247.838,-120.044 246.256,-113.225"/>
</g>
<!-- Node4 -->
<g id="node4" class="node"><title>Node4</title>
<g id="a_node4"><a xlink:href="classrc_kinetoscope.html#a9e34ed1b237aa970f30995cb75245233" target="_top" xlink:title="rcKinetoscope::connected\lFunctions">
<polygon fill="white" stroke="black" points="858.463,-145.944 858.463,-177.944 989.537,-177.944 989.537,-145.944 858.463,-145.944"/>
<text text-anchor="start" x="866.463" y="-163.944" font-family="Helvetica,sans-Serif" font-size="10.00">rcKinetoscope::connected</text>
<text text-anchor="middle" x="924" y="-151.944" font-family="Helvetica,sans-Serif" font-size="10.00">Functions</text>
</a>
</g>
</g>
<!-- Node3&#45;&gt;Node4 -->
<g id="edge3" class="edge"><title>Node3&#45;&gt;Node4</title>
<path fill="none" stroke="midnightblue" d="M427.225,-255.603C517.189,-269.779 687.532,-286.481 822,-239.944 857.592,-227.626 890.452,-197.272 908.514,-178.267"/>
<polygon fill="midnightblue" stroke="midnightblue" points="427.619,-252.121 417.189,-253.978 426.501,-259.031 427.619,-252.121"/>
</g>
<!-- Node5 -->
<g id="node5" class="node"><title>Node5</title>
<g id="a_node5"><a xlink:href="classrc_kinetoscope.html#a30274b84c57f86e667b614556f6c569b" target="_top" xlink:title="rcKinetoscope::step">
<polygon fill="white" stroke="black" points="1217.09,-123.944 1217.09,-143.944 1320.91,-143.944 1320.91,-123.944 1217.09,-123.944"/>
<text text-anchor="middle" x="1269" y="-129.944" font-family="Helvetica,sans-Serif" font-size="10.00">rcKinetoscope::step</text>
</a>
</g>
</g>
<!-- Node4&#45;&gt;Node5 -->
<g id="edge4" class="edge"><title>Node4&#45;&gt;Node5</title>
<path fill="none" stroke="midnightblue" d="M999.81,-167.814C1050.41,-170.351 1118.58,-170.973 1178,-161.944 1200.49,-158.527 1225.09,-150.566 1242.88,-144.002"/>
<polygon fill="midnightblue" stroke="midnightblue" points="999.785,-164.308 989.611,-167.265 999.409,-171.298 999.785,-164.308"/>
</g>
<!-- Node7 -->
<g id="node7" class="node"><title>Node7</title>
<g id="a_node7"><a xlink:href="classrc_kinetoscope.html#ae0addfc3a10c4c69ba027d9bfc351217" target="_top" xlink:title="rcKinetoscope::stepContractile">
<polygon fill="white" stroke="black" points="1026.19,-132.944 1026.19,-152.944 1177.81,-152.944 1177.81,-132.944 1026.19,-132.944"/>
<text text-anchor="middle" x="1102" y="-138.944" font-family="Helvetica,sans-Serif" font-size="10.00">rcKinetoscope::stepContractile</text>
</a>
</g>
</g>
<!-- Node4&#45;&gt;Node7 -->
<g id="edge6" class="edge"><title>Node4&#45;&gt;Node7</title>
<path fill="none" stroke="midnightblue" d="M1000.07,-153.84C1008.7,-152.908 1017.5,-151.958 1026.13,-151.027"/>
<polygon fill="midnightblue" stroke="midnightblue" points="999.602,-150.37 990.036,-154.923 1000.35,-157.33 999.602,-150.37"/>
</g>
<!-- Node8 -->
<g id="node8" class="node"><title>Node8</title>
<g id="a_node8"><a xlink:href="classrc_kinetoscope.html#a431144623d201c5aeb857893d8460ca2" target="_top" xlink:title="rcKinetoscope::stepEpi">
<polygon fill="white" stroke="black" points="1042.86,-93.9441 1042.86,-113.944 1161.14,-113.944 1161.14,-93.9441 1042.86,-93.9441"/>
<text text-anchor="middle" x="1102" y="-99.9441" font-family="Helvetica,sans-Serif" font-size="10.00">rcKinetoscope::stepEpi</text>
</a>
</g>
</g>
<!-- Node4&#45;&gt;Node8 -->
<g id="edge8" class="edge"><title>Node4&#45;&gt;Node8</title>
<path fill="none" stroke="midnightblue" d="M972.971,-142.063C989.608,-135.531 1008.48,-128.523 1026,-122.944 1036.11,-119.724 1047.12,-116.682 1057.52,-114.015"/>
<polygon fill="midnightblue" stroke="midnightblue" points="971.463,-138.896 963.46,-145.839 974.046,-145.401 971.463,-138.896"/>
</g>
<!-- Node6 -->
<g id="node6" class="node"><title>Node6</title>
<g id="a_node6"><a xlink:href="classrc_engine_impl.html#a00ca0d227e480ddb5bd6be293b55d2c9" target="_top" xlink:title="rcEngineImpl::muscleTracker">
<polygon fill="white" stroke="black" points="1360.44,-96.9441 1360.44,-116.944 1505.56,-116.944 1505.56,-96.9441 1360.44,-96.9441"/>
<text text-anchor="middle" x="1433" y="-102.944" font-family="Helvetica,sans-Serif" font-size="10.00">rcEngineImpl::muscleTracker</text>
</a>
</g>
</g>
<!-- Node5&#45;&gt;Node6 -->
<g id="edge5" class="edge"><title>Node5&#45;&gt;Node6</title>
<path fill="none" stroke="midnightblue" d="M1331.23,-123.739C1344.49,-121.529 1358.51,-119.193 1371.73,-116.988"/>
<polygon fill="midnightblue" stroke="midnightblue" points="1330.55,-120.305 1321.26,-125.401 1331.7,-127.209 1330.55,-120.305"/>
</g>
<!-- Node7&#45;&gt;Node5 -->
<g id="edge7" class="edge"><title>Node7&#45;&gt;Node5</title>
<path fill="none" stroke="midnightblue" d="M1188.41,-138.286C1198.15,-137.754 1207.84,-137.226 1216.93,-136.73"/>
<polygon fill="midnightblue" stroke="midnightblue" points="1188.05,-134.8 1178.26,-138.839 1188.43,-141.789 1188.05,-134.8"/>
</g>
<!-- Node8&#45;&gt;Node5 -->
<g id="edge9" class="edge"><title>Node8&#45;&gt;Node5</title>
<path fill="none" stroke="midnightblue" d="M1168.32,-115.82C1184.48,-118.758 1201.55,-121.862 1216.92,-124.656"/>
<polygon fill="midnightblue" stroke="midnightblue" points="1168.87,-112.362 1158.4,-114.017 1167.61,-119.25 1168.87,-112.362"/>
</g>
<!-- Node10&#45;&gt;Node9 -->
<g id="edge12" class="edge"><title>Node10&#45;&gt;Node9</title>
<path fill="none" stroke="midnightblue" d="M446.378,-168.839C468.302,-173.66 491.241,-178.704 510.436,-182.925"/>
<polygon fill="midnightblue" stroke="midnightblue" points="446.911,-165.372 436.393,-166.643 445.408,-172.209 446.911,-165.372"/>
</g>
<!-- Node10&#45;&gt;Node11 -->
<g id="edge13" class="edge"><title>Node10&#45;&gt;Node11</title>
<path fill="none" stroke="midnightblue" d="M446.526,-147.529C465.487,-146.735 485.2,-145.91 502.586,-145.181"/>
<polygon fill="midnightblue" stroke="midnightblue" points="446.238,-144.038 436.393,-147.954 446.531,-151.032 446.238,-144.038"/>
</g>
<!-- Node12 -->
<g id="node12" class="node"><title>Node12</title>
<g id="a_node12"><a xlink:href="classrc_kinetoscope.html#a417073176a71ba125e6eeab0a2c3a8f0" target="_top" xlink:title="rcKinetoscope::newGeneration">
<polygon fill="white" stroke="black" points="668.626,-210.944 668.626,-230.944 821.374,-230.944 821.374,-210.944 668.626,-210.944"/>
<text text-anchor="middle" x="745" y="-216.944" font-family="Helvetica,sans-Serif" font-size="10.00">rcKinetoscope::newGeneration</text>
</a>
</g>
</g>
<!-- Node11&#45;&gt;Node12 -->
<g id="edge14" class="edge"><title>Node11&#45;&gt;Node12</title>
<path fill="none" stroke="midnightblue" d="M597.419,-156.589C608.88,-161.172 621.211,-166.722 632,-172.944 649.559,-183.07 649.83,-191.96 668,-200.944 676.072,-204.935 685.033,-208.198 693.889,-210.842"/>
<polygon fill="midnightblue" stroke="midnightblue" points="598.638,-153.308 588.049,-152.973 596.118,-159.839 598.638,-153.308"/>
</g>
<!-- Node13 -->
<g id="node13" class="node"><title>Node13</title>
<g id="a_node13"><a xlink:href="rc__kinetrack_8cpp.html#a29f6a59de6b3dbbed8672ad7da9016ae" target="_top" xlink:title="rfOfCellsAndPolys">
<polygon fill="white" stroke="black" points="696.431,-171.944 696.431,-191.944 793.569,-191.944 793.569,-171.944 696.431,-171.944"/>
<text text-anchor="middle" x="745" y="-177.944" font-family="Helvetica,sans-Serif" font-size="10.00">rfOfCellsAndPolys</text>
</a>
</g>
</g>
<!-- Node11&#45;&gt;Node13 -->
<g id="edge16" class="edge"><title>Node11&#45;&gt;Node13</title>
<path fill="none" stroke="midnightblue" d="M615.932,-155.091C641.74,-160.503 671.771,-166.799 696.263,-171.935"/>
<polygon fill="midnightblue" stroke="midnightblue" points="616.405,-151.614 605.9,-152.988 614.969,-158.465 616.405,-151.614"/>
</g>
<!-- Node14 -->
<g id="node14" class="node"><title>Node14</title>
<g id="a_node14"><a xlink:href="classrc_kinetoscope.html#aeb4e292dbf28c00e8aa73b18debdc6d6" target="_top" xlink:title="rcKinetoscope::associate">
<polygon fill="white" stroke="black" points="681.414,-132.944 681.414,-152.944 808.586,-152.944 808.586,-132.944 681.414,-132.944"/>
<text text-anchor="middle" x="745" y="-138.944" font-family="Helvetica,sans-Serif" font-size="10.00">rcKinetoscope::associate</text>
</a>
</g>
</g>
<!-- Node11&#45;&gt;Node14 -->
<g id="edge18" class="edge"><title>Node11&#45;&gt;Node14</title>
<path fill="none" stroke="midnightblue" d="M621.924,-142.944C641.073,-142.944 662.05,-142.944 681.13,-142.944"/>
<polygon fill="midnightblue" stroke="midnightblue" points="621.799,-139.444 611.799,-142.944 621.799,-146.444 621.799,-139.444"/>
</g>
<!-- Node15 -->
<g id="node15" class="node"><title>Node15</title>
<g id="a_node15"><a xlink:href="classrc_polygon.html#ad22adb537d52958897ec5b6c1b5b86e0" target="_top" xlink:title="rcPolygon::intersects">
<polygon fill="white" stroke="black" points="690.591,-54.9441 690.591,-74.9441 799.409,-74.9441 799.409,-54.9441 690.591,-54.9441"/>
<text text-anchor="middle" x="745" y="-60.9441" font-family="Helvetica,sans-Serif" font-size="10.00">rcPolygon::intersects</text>
</a>
</g>
</g>
<!-- Node11&#45;&gt;Node15 -->
<g id="edge20" class="edge"><title>Node11&#45;&gt;Node15</title>
<path fill="none" stroke="midnightblue" d="M582.392,-127.585C604.147,-114.449 637.223,-95.8335 668,-83.9441 676.881,-80.5134 686.587,-77.5383 696.004,-75.0261"/>
<polygon fill="midnightblue" stroke="midnightblue" points="580.503,-124.638 573.801,-132.844 584.158,-130.608 580.503,-124.638"/>
</g>
<!-- Node16 -->
<g id="node16" class="node"><title>Node16</title>
<g id="a_node16"><a xlink:href="rc__polygongroup_8h.html#aef640fc26e2a3c85a5ae68abb68fc251" target="_top" xlink:title="rfPolygonGroupMutualMerge">
<polygon fill="white" stroke="black" points="672.801,-93.9441 672.801,-113.944 817.199,-113.944 817.199,-93.9441 672.801,-93.9441"/>
<text text-anchor="middle" x="745" y="-99.9441" font-family="Helvetica,sans-Serif" font-size="10.00">rfPolygonGroupMutualMerge</text>
</a>
</g>
</g>
<!-- Node11&#45;&gt;Node16 -->
<g id="edge21" class="edge"><title>Node11&#45;&gt;Node16</title>
<path fill="none" stroke="midnightblue" d="M615.932,-130.797C641.74,-125.386 671.771,-119.089 696.263,-113.954"/>
<polygon fill="midnightblue" stroke="midnightblue" points="614.969,-127.423 605.9,-132.901 616.405,-134.274 614.969,-127.423"/>
</g>
<!-- Node12&#45;&gt;Node4 -->
<g id="edge15" class="edge"><title>Node12&#45;&gt;Node4</title>
<path fill="none" stroke="midnightblue" d="M797.56,-208.205C805.78,-205.936 814.156,-203.482 822,-200.944 842.924,-194.174 865.819,-185.446 884.512,-177.964"/>
<polygon fill="midnightblue" stroke="midnightblue" points="796.404,-204.892 787.659,-210.873 798.225,-211.651 796.404,-204.892"/>
</g>
<!-- Node13&#45;&gt;Node4 -->
<g id="edge17" class="edge"><title>Node13&#45;&gt;Node4</title>
<path fill="none" stroke="midnightblue" d="M803.932,-175.398C821.367,-173.428 840.607,-171.254 858.444,-169.239"/>
<polygon fill="midnightblue" stroke="midnightblue" points="803.443,-171.931 793.899,-176.532 804.229,-178.887 803.443,-171.931"/>
</g>
<!-- Node14&#45;&gt;Node4 -->
<g id="edge19" class="edge"><title>Node14&#45;&gt;Node4</title>
<path fill="none" stroke="midnightblue" d="M819.166,-150.798C832.114,-152.188 845.512,-153.626 858.209,-154.989"/>
<polygon fill="midnightblue" stroke="midnightblue" points="819.218,-147.284 808.902,-149.696 818.471,-154.244 819.218,-147.284"/>
</g>
<!-- Node17&#45;&gt;Node15 -->
<g id="edge23" class="edge"><title>Node17&#45;&gt;Node15</title>
<path fill="none" stroke="midnightblue" d="M641.959,-53.972C658.418,-55.7418 675.259,-57.5525 690.392,-59.1798"/>
<polygon fill="midnightblue" stroke="midnightblue" points="642.096,-50.4666 631.779,-52.8773 641.348,-57.4265 642.096,-50.4666"/>
</g>
<!-- Node18 -->
<g id="node18" class="node"><title>Node18</title>
<g id="a_node18"><a xlink:href="classrc_muscle_segmenter.html#a7a53df71095b135bc1b256d1544fc0f4" target="_top" xlink:title="rcMuscleSegmenter::\lmergePolygons">
<polygon fill="white" stroke="black" points="868.761,-6.94409 868.761,-38.9441 979.239,-38.9441 979.239,-6.94409 868.761,-6.94409"/>
<text text-anchor="start" x="876.761" y="-24.9441" font-family="Helvetica,sans-Serif" font-size="10.00">rcMuscleSegmenter::</text>
<text text-anchor="middle" x="924" y="-12.9441" font-family="Helvetica,sans-Serif" font-size="10.00">mergePolygons</text>
</a>
</g>
</g>
<!-- Node17&#45;&gt;Node18 -->
<g id="edge24" class="edge"><title>Node17&#45;&gt;Node18</title>
<path fill="none" stroke="midnightblue" d="M588.651,-30.8943C610.307,-21.7665 640.293,-10.7103 668,-5.94409 736.432,5.82812 816.495,-3.14631 868.393,-11.9009"/>
<polygon fill="midnightblue" stroke="midnightblue" points="587.118,-27.7442 579.326,-34.923 589.894,-34.1702 587.118,-27.7442"/>
</g>
<!-- Node20 -->
<g id="node20" class="node"><title>Node20</title>
<g id="a_node20"><a xlink:href="rc__analysis_8h.html#ad0865a28963f4fccfcf3f05e42b15769" target="_top" xlink:title="rfComponentPolygons">
<polygon fill="white" stroke="black" points="687.527,-15.9441 687.527,-35.9441 802.473,-35.9441 802.473,-15.9441 687.527,-15.9441"/>
<text text-anchor="middle" x="745" y="-21.9441" font-family="Helvetica,sans-Serif" font-size="10.00">rfComponentPolygons</text>
</a>
</g>
</g>
<!-- Node17&#45;&gt;Node20 -->
<g id="edge27" class="edge"><title>Node17&#45;&gt;Node20</title>
<path fill="none" stroke="midnightblue" d="M641.815,-36.3824C657.187,-34.8121 672.897,-33.2073 687.244,-31.7418"/>
<polygon fill="midnightblue" stroke="midnightblue" points="641.372,-32.9093 631.779,-37.4075 642.083,-39.8731 641.372,-32.9093"/>
</g>
<!-- Node19 -->
<g id="node19" class="node"><title>Node19</title>
<g id="a_node19"><a xlink:href="classrc_muscle_segmenter.html#a86d108c38d0bcb7a7eb47021b7ab0308" target="_top" xlink:title="rcMuscleSegmenter::\lsegment">
<polygon fill="white" stroke="black" points="1213.76,-63.9441 1213.76,-95.9441 1324.24,-95.9441 1324.24,-63.9441 1213.76,-63.9441"/>
<text text-anchor="start" x="1221.76" y="-81.9441" font-family="Helvetica,sans-Serif" font-size="10.00">rcMuscleSegmenter::</text>
<text text-anchor="middle" x="1269" y="-69.9441" font-family="Helvetica,sans-Serif" font-size="10.00">segment</text>
</a>
</g>
</g>
<!-- Node18&#45;&gt;Node19 -->
<g id="edge25" class="edge"><title>Node18&#45;&gt;Node19</title>
<path fill="none" stroke="midnightblue" d="M989.432,-33.6515C1054.14,-44.4044 1152.74,-60.7893 1213.62,-70.9075"/>
<polygon fill="midnightblue" stroke="midnightblue" points="989.788,-30.1627 979.349,-31.9759 988.64,-37.068 989.788,-30.1627"/>
</g>
<!-- Node19&#45;&gt;Node6 -->
<g id="edge26" class="edge"><title>Node19&#45;&gt;Node6</title>
<path fill="none" stroke="midnightblue" d="M1334.58,-90.7082C1346.9,-92.76 1359.73,-94.8998 1371.9,-96.9272"/>
<polygon fill="midnightblue" stroke="midnightblue" points="1334.83,-87.2015 1324.39,-89.0098 1333.68,-94.1063 1334.83,-87.2015"/>
</g>
<!-- Node20&#45;&gt;Node4 -->
<g id="edge28" class="edge"><title>Node20&#45;&gt;Node4</title>
<path fill="none" stroke="midnightblue" d="M812.1,-39.7172C815.537,-41.2766 818.862,-43.0123 822,-44.9441 864.275,-70.9688 898.195,-120.481 913.758,-145.943"/>
<polygon fill="midnightblue" stroke="midnightblue" points="813.374,-36.4574 802.79,-35.9871 810.771,-42.9553 813.374,-36.4574"/>
</g>
<!-- Node21&#45;&gt;Node22 -->
<g id="edge31" class="edge"><title>Node21&#45;&gt;Node22</title>
<path fill="none" stroke="midnightblue" d="M247.573,-55.5812C270.81,-50.2186 297.668,-44.0207 319.626,-38.9535"/>
<polygon fill="midnightblue" stroke="midnightblue" points="246.479,-52.2416 237.522,-57.9006 248.053,-59.0623 246.479,-52.2416"/>
</g>
</g>
</svg>
