<?xml version="1.0" encoding="UTF-8" standalone="no"?>
<!DOCTYPE svg PUBLIC "-//W3C//DTD SVG 1.1//EN"
 "http://www.w3.org/Graphics/SVG/1.1/DTD/svg11.dtd">
<!-- Generated by graphviz version 2.32.0 (20130916.1925)
 -->
<!-- Title: rcThumbWheelSettingWidget::valueChanged Pages: 1 -->
<!--zoomable 113 -->
<svg id="main" version="1.1" xmlns="http://www.w3.org/2000/svg" xmlns:xlink="http://www.w3.org/1999/xlink" xml:space="preserve" onload="init(evt)">
        <defs>
                <circle id="rim" cx="0" cy="0" r="7"/>
                <circle id="rim2" cx="0" cy="0" r="3.5"/>
                <g id="zoomPlus">
                        <use xlink:href="#rim" fill="#404040">
                                <set attributeName="fill" to="#808080" begin="zoomplus.mouseover" end="zoomplus.mouseout"/>
                        </use>
                        <path d="M-4,0h8M0,-4v8" fill="none" stroke="white" stroke-width="1.5" pointer-events="none"/>
                </g>
                <g id="zoomMin">
                        <use xlink:href="#rim" fill="#404040">
                                <set attributeName="fill" to="#808080" begin="zoomminus.mouseover" end="zoomminus.mouseout"/>
                        </use>
                        <path d="M-4,0h8" fill="none" stroke="white" stroke-width="1.5" pointer-events="none"/>
                </g>
                <g id="dirArrow">
                        <path fill="none" stroke="white" stroke-width="1.5" d="M0,-3.0v7 M-2.5,-0.5L0,-3.0L2.5,-0.5"/>
                </g>
               <g id="resetDef">
                       <use xlink:href="#rim2" fill="#404040">
                               <set attributeName="fill" to="#808080" begin="reset.mouseover" end="reset.mouseout"/>
                       </use>
               </g>
        </defs>

<script type="text/javascript">
var viewWidth = 524;
var viewHeight = 113;
var sectionId = 'dynsection-8';
</script>
<script xlink:href="svgpan.js"/>
<svg id="graph" class="graph">
<g id="viewport">
<title>rcThumbWheelSettingWidget::valueChanged</title>
<polygon fill="white" stroke="white" points="-4,5 -4,-109 521,-109 521,5 -4,5"/>
<!-- Node1 -->
<g id="node1" class="node"><title>Node1</title>
<polygon fill="#bfbfbf" stroke="black" points="-0.0268555,-51 -0.0268555,-83 146.027,-83 146.027,-51 -0.0268555,-51"/>
<text text-anchor="start" x="7.97314" y="-69" font-family="Helvetica,sans-Serif" font-size="10.00">rcThumbWheelSettingWidget</text>
<text text-anchor="middle" x="73" y="-57" font-family="Helvetica,sans-Serif" font-size="10.00">::valueChanged</text>
</g>
<!-- Node2 -->
<g id="node2" class="node"><title>Node2</title>
<g id="a_node2"><a xlink:href="classrc_thumb_wheel_setting_widget.html#ab55d0507f3da4afe900e0f72ef5b5745" target="_top" xlink:title="rcThumbWheelSettingWidget\l::rcThumbWheelSettingWidget">
<polygon fill="white" stroke="black" points="364.195,-73 364.195,-105 515.805,-105 515.805,-73 364.195,-73"/>
<text text-anchor="start" x="372.195" y="-91" font-family="Helvetica,sans-Serif" font-size="10.00">rcThumbWheelSettingWidget</text>
<text text-anchor="middle" x="440" y="-79" font-family="Helvetica,sans-Serif" font-size="10.00">::rcThumbWheelSettingWidget</text>
</a>
</g>
</g>
<!-- Node1&#45;&gt;Node2 -->
<g id="edge1" class="edge"><title>Node1&#45;&gt;Node2</title>
<path fill="none" stroke="midnightblue" d="M142.074,-85.2258C155.229,-88.0449 168.972,-90.5118 182,-92 242.958,-98.9632 312.574,-97.581 363.963,-94.8093"/>
<polygon fill="midnightblue" stroke="midnightblue" points="142.673,-81.7734 132.15,-83.0116 141.148,-88.6054 142.673,-81.7734"/>
</g>
<!-- Node3 -->
<g id="node3" class="node"><title>Node3</title>
<g id="a_node3"><a xlink:href="classrc_thumb_wheel_setting_widget.html#a84dd253c191de3668a2f5a93c8c1f6c7" target="_top" xlink:title="Setting has changed, update widget.">
<polygon fill="white" stroke="black" points="181.973,-51 181.973,-83 328.027,-83 328.027,-51 181.973,-51"/>
<text text-anchor="start" x="189.973" y="-69" font-family="Helvetica,sans-Serif" font-size="10.00">rcThumbWheelSettingWidget</text>
<text text-anchor="middle" x="255" y="-57" font-family="Helvetica,sans-Serif" font-size="10.00">::settingChanged</text>
</a>
</g>
</g>
<!-- Node1&#45;&gt;Node3 -->
<g id="edge2" class="edge"><title>Node1&#45;&gt;Node3</title>
<path fill="none" stroke="midnightblue" d="M156.439,-67C164.906,-67 173.464,-67 181.808,-67"/>
<polygon fill="midnightblue" stroke="midnightblue" points="156.176,-63.5001 146.176,-67 156.176,-70.5001 156.176,-63.5001"/>
</g>
<!-- Node4 -->
<g id="node4" class="node"><title>Node4</title>
<g id="a_node4"><a xlink:href="classrc_thumb_wheel_setting_widget.html#a8dba8d347cfaae172731acd412bb27e3" target="_top" xlink:title="Setting has been changed, update widget.">
<polygon fill="white" stroke="black" points="181.973,-0 181.973,-32 328.027,-32 328.027,-0 181.973,-0"/>
<text text-anchor="start" x="189.973" y="-18" font-family="Helvetica,sans-Serif" font-size="10.00">rcThumbWheelSettingWidget</text>
<text text-anchor="middle" x="255" y="-6" font-family="Helvetica,sans-Serif" font-size="10.00">::updateRotation</text>
</a>
</g>
</g>
<!-- Node1&#45;&gt;Node4 -->
<g id="edge4" class="edge"><title>Node1&#45;&gt;Node4</title>
<path fill="none" stroke="midnightblue" d="M140.828,-48.0654C159.435,-42.7933 179.461,-37.1195 197.417,-32.0317"/>
<polygon fill="midnightblue" stroke="midnightblue" points="139.62,-44.7697 130.953,-50.8633 141.529,-51.5046 139.62,-44.7697"/>
</g>
<!-- Node3&#45;&gt;Node2 -->
<g id="edge3" class="edge"><title>Node3&#45;&gt;Node2</title>
<path fill="none" stroke="midnightblue" d="M338.111,-76.8712C346.729,-77.9073 355.46,-78.9569 363.992,-79.9827"/>
<polygon fill="midnightblue" stroke="midnightblue" points="338.41,-73.3821 328.064,-75.6634 337.574,-80.3321 338.41,-73.3821"/>
</g>
</g>
</svg>
        <g id="navigator" transform="translate(0 0)" fill="#404254">
                <rect fill="#f2f5e9" fill-opacity="0.5" stroke="#606060" stroke-width=".5" x="0" y="0" width="60" height="60"/>
                <use id="zoomplus" xlink:href="#zoomPlus" x="17" y="9" onmousedown="handleZoom(evt,'in')"/>
                <use id="zoomminus" xlink:href="#zoomMin" x="42" y="9" onmousedown="handleZoom(evt,'out')"/>
                <use id="reset" xlink:href="#resetDef" x="30" y="36" onmousedown="handleReset()"/>
                <g id="arrowUp" xlink:href="#dirArrow" transform="translate(30 24)" onmousedown="handlePan(0,-1)">
                  <use xlink:href="#rim" fill="#404040">
                        <set attributeName="fill" to="#808080" begin="arrowUp.mouseover" end="arrowUp.mouseout"/>
                  </use>
                  <path fill="none" stroke="white" stroke-width="1.5" d="M0,-3.0v7 M-2.5,-0.5L0,-3.0L2.5,-0.5"/>
                </g>
                <g id="arrowRight" xlink:href="#dirArrow" transform="rotate(90) translate(36 -43)" onmousedown="handlePan(1,0)">
                  <use xlink:href="#rim" fill="#404040">
                        <set attributeName="fill" to="#808080" begin="arrowRight.mouseover" end="arrowRight.mouseout"/>
                  </use>
                  <path fill="none" stroke="white" stroke-width="1.5" d="M0,-3.0v7 M-2.5,-0.5L0,-3.0L2.5,-0.5"/>
                </g>
                <g id="arrowDown" xlink:href="#dirArrow" transform="rotate(180) translate(-30 -48)" onmousedown="handlePan(0,1)">
                  <use xlink:href="#rim" fill="#404040">
                        <set attributeName="fill" to="#808080" begin="arrowDown.mouseover" end="arrowDown.mouseout"/>
                  </use>
                  <path fill="none" stroke="white" stroke-width="1.5" d="M0,-3.0v7 M-2.5,-0.5L0,-3.0L2.5,-0.5"/>
                </g>
                <g id="arrowLeft" xlink:href="#dirArrow" transform="rotate(270) translate(-36 17)" onmousedown="handlePan(-1,0)">
                  <use xlink:href="#rim" fill="#404040">
                        <set attributeName="fill" to="#808080" begin="arrowLeft.mouseover" end="arrowLeft.mouseout"/>
                  </use>
                  <path fill="none" stroke="white" stroke-width="1.5" d="M0,-3.0v7 M-2.5,-0.5L0,-3.0L2.5,-0.5"/>
                </g>
        </g>
        <svg viewBox="0 0 15 15" width="100%" height="30px" preserveAspectRatio="xMaxYMin meet">
         <g id="arrow_out" transform="scale(0.3 0.3)">
          <a xlink:href="classrc_thumb_wheel_setting_widget_aaceeba6182b1d12aa9e4b5d7c99bb694_icgraph_org.svg" target="_base">
           <rect id="button" ry="5" rx="5" y="6" x="6" height="38" width="38"
                fill="#f2f5e9" fill-opacity="0.5" stroke="#606060" stroke-width="1.0"/>
           <path id="arrow"
             d="M 11.500037,31.436501 C 11.940474,20.09759 22.043105,11.32322 32.158766,21.979434 L 37.068811,17.246167 C 37.068811,17.246167 37.088388,32 37.088388,32 L 22.160133,31.978069 C 22.160133,31.978069 26.997745,27.140456 26.997745,27.140456 C 18.528582,18.264221 13.291696,25.230495 11.500037,31.436501 z"
             style="fill:#404040;"/>
          </a>
         </g>
        </svg>
</svg>
