<?xml version="1.0" encoding="UTF-8" standalone="no"?>
<!DOCTYPE svg PUBLIC "-//W3C//DTD SVG 1.1//EN"
 "http://www.w3.org/Graphics/SVG/1.1/DTD/svg11.dtd">
<!-- Generated by graphviz version 2.32.0 (20130916.1925)
 -->
<!-- Title: omtext::omtext Pages: 1 -->
<svg width="300pt" height="28pt"
 viewBox="0.00 0.00 300.00 28.00" xmlns="http://www.w3.org/2000/svg" xmlns:xlink="http://www.w3.org/1999/xlink">
<g id="graph0" class="graph" transform="scale(1 1) rotate(0) translate(4 24)">
<title>omtext::omtext</title>
<polygon fill="white" stroke="white" points="-4,5 -4,-24 297,-24 297,5 -4,5"/>
<!-- Node1 -->
<g id="node1" class="node"><title>Node1</title>
<polygon fill="#bfbfbf" stroke="black" points="0.211914,-0 0.211914,-20 81.7881,-20 81.7881,-0 0.211914,-0"/>
<text text-anchor="middle" x="41" y="-6" font-family="Helvetica,sans-Serif" font-size="10.00">omtext::omtext</text>
</g>
<!-- Node2 -->
<g id="node2" class="node"><title>Node2</title>
<g id="a_node2"><a xlink:href="classomtext.html#a7a9aaf73c674598e1d98fb93d31d8f56" target="_top" xlink:title="omtext::add">
<polygon fill="white" stroke="black" points="117.875,-0 117.875,-20 186.125,-20 186.125,-0 117.875,-0"/>
<text text-anchor="middle" x="152" y="-6" font-family="Helvetica,sans-Serif" font-size="10.00">omtext::add</text>
</a>
</g>
</g>
<!-- Node1&#45;&gt;Node2 -->
<g id="edge1" class="edge"><title>Node1&#45;&gt;Node2</title>
<path fill="none" stroke="midnightblue" d="M81.9686,-10C90.3486,-10 99.2231,-10 107.718,-10"/>
<polygon fill="midnightblue" stroke="midnightblue" points="107.832,-13.5001 117.832,-10 107.832,-6.5001 107.832,-13.5001"/>
</g>
<!-- Node3 -->
<g id="node3" class="node"><title>Node3</title>
<g id="a_node3"><a xlink:href="classombuff.html#af02a3e61a3ea98ea032394e9dcda7771" target="_top" xlink:title="ombuff::add">
<polygon fill="white" stroke="black" points="222.682,-0 222.682,-20 291.318,-20 291.318,-0 222.682,-0"/>
<text text-anchor="middle" x="257" y="-6" font-family="Helvetica,sans-Serif" font-size="10.00">ombuff::add</text>
</a>
</g>
</g>
<!-- Node2&#45;&gt;Node3 -->
<g id="edge2" class="edge"><title>Node2&#45;&gt;Node3</title>
<path fill="none" stroke="midnightblue" d="M186.157,-10C194.526,-10 203.639,-10 212.435,-10"/>
<polygon fill="midnightblue" stroke="midnightblue" points="212.552,-13.5001 222.552,-10 212.552,-6.5001 212.552,-13.5001"/>
</g>
</g>
</svg>
