<?xml version="1.0" encoding="UTF-8" standalone="no"?>
<!DOCTYPE svg PUBLIC "-//W3C//DTD SVG 1.1//EN"
 "http://www.w3.org/Graphics/SVG/1.1/DTD/svg11.dtd">
<!-- Generated by graphviz version 2.32.0 (20130916.1925)
 -->
<!-- Title: TCP_connection_data::initialise Pages: 1 -->
<svg width="468pt" height="79pt"
 viewBox="0.00 0.00 468.00 79.00" xmlns="http://www.w3.org/2000/svg" xmlns:xlink="http://www.w3.org/1999/xlink">
<g id="graph0" class="graph" transform="scale(1 1) rotate(0) translate(4 75)">
<title>TCP_connection_data::initialise</title>
<polygon fill="white" stroke="white" points="-4,5 -4,-75 465,-75 465,5 -4,5"/>
<!-- Node1 -->
<g id="node1" class="node"><title>Node1</title>
<polygon fill="#bfbfbf" stroke="black" points="0.522461,-16 0.522461,-48 115.478,-48 115.478,-16 0.522461,-16"/>
<text text-anchor="start" x="8.52246" y="-34" font-family="Helvetica,sans-Serif" font-size="10.00">TCP_connection_data</text>
<text text-anchor="middle" x="58" y="-22" font-family="Helvetica,sans-Serif" font-size="10.00">::initialise</text>
</g>
<!-- Node2 -->
<g id="node2" class="node"><title>Node2</title>
<g id="a_node2"><a xlink:href="class_t_c_p__server__data.html#a004eca7522f8ebfe804d8e7988225304" target="_top" xlink:title="TCP_server_data::connection">
<polygon fill="white" stroke="black" points="151.853,-22 151.853,-42 300.147,-42 300.147,-22 151.853,-22"/>
<text text-anchor="middle" x="226" y="-28" font-family="Helvetica,sans-Serif" font-size="10.00">TCP_server_data::connection</text>
</a>
</g>
</g>
<!-- Node1&#45;&gt;Node2 -->
<g id="edge1" class="edge"><title>Node1&#45;&gt;Node2</title>
<path fill="none" stroke="midnightblue" d="M125.847,-32C134.311,-32 143.008,-32 151.568,-32"/>
<polygon fill="midnightblue" stroke="midnightblue" points="125.664,-28.5001 115.663,-32 125.663,-35.5001 125.664,-28.5001"/>
</g>
<!-- Node3 -->
<g id="node3" class="node"><title>Node3</title>
<g id="a_node3"><a xlink:href="class_t_c_p__connection.html#a1f72968182ca65cc67ee4c9c94f6ac5f" target="_top" xlink:title="TCP_connection::TCP\l_connection">
<polygon fill="white" stroke="black" points="340.256,-39 340.256,-71 455.744,-71 455.744,-39 340.256,-39"/>
<text text-anchor="start" x="348.256" y="-57" font-family="Helvetica,sans-Serif" font-size="10.00">TCP_connection::TCP</text>
<text text-anchor="middle" x="398" y="-45" font-family="Helvetica,sans-Serif" font-size="10.00">_connection</text>
</a>
</g>
</g>
<!-- Node2&#45;&gt;Node3 -->
<g id="edge2" class="edge"><title>Node2&#45;&gt;Node3</title>
<path fill="none" stroke="midnightblue" d="M310.587,-43.3088C320.627,-44.6672 330.694,-46.0292 340.226,-47.3189"/>
<polygon fill="midnightblue" stroke="midnightblue" points="310.955,-39.8268 300.576,-41.9544 310.016,-46.7636 310.955,-39.8268"/>
</g>
<!-- Node4 -->
<g id="node4" class="node"><title>Node4</title>
<g id="a_node4"><a xlink:href="class_t_c_p__server.html#a59603f23a2ba9dd321dbeea0e46bd557" target="_top" xlink:title="TCP_server::connection">
<polygon fill="white" stroke="black" points="336.365,-0 336.365,-20 459.635,-20 459.635,-0 336.365,-0"/>
<text text-anchor="middle" x="398" y="-6" font-family="Helvetica,sans-Serif" font-size="10.00">TCP_server::connection</text>
</a>
</g>
</g>
<!-- Node2&#45;&gt;Node4 -->
<g id="edge3" class="edge"><title>Node2&#45;&gt;Node4</title>
<path fill="none" stroke="midnightblue" d="M310.697,-21.1686C319.344,-20.0496 328.009,-18.9283 336.334,-17.8509"/>
<polygon fill="midnightblue" stroke="midnightblue" points="310.044,-17.7239 300.576,-22.4784 310.942,-24.666 310.044,-17.7239"/>
</g>
</g>
</svg>
