<?xml version="1.0" encoding="UTF-8" standalone="no"?>
<!DOCTYPE svg PUBLIC "-//W3C//DTD SVG 1.1//EN"
 "http://www.w3.org/Graphics/SVG/1.1/DTD/svg11.dtd">
<!-- Generated by graphviz version 2.32.0 (20130916.1925)
 -->
<!-- Title: rcSettingWidget Pages: 1 -->
<!--zoomable 586 -->
<svg id="main" version="1.1" xmlns="http://www.w3.org/2000/svg" xmlns:xlink="http://www.w3.org/1999/xlink" xml:space="preserve" onload="init(evt)">
        <defs>
                <circle id="rim" cx="0" cy="0" r="7"/>
                <circle id="rim2" cx="0" cy="0" r="3.5"/>
                <g id="zoomPlus">
                        <use xlink:href="#rim" fill="#404040">
                                <set attributeName="fill" to="#808080" begin="zoomplus.mouseover" end="zoomplus.mouseout"/>
                        </use>
                        <path d="M-4,0h8M0,-4v8" fill="none" stroke="white" stroke-width="1.5" pointer-events="none"/>
                </g>
                <g id="zoomMin">
                        <use xlink:href="#rim" fill="#404040">
                                <set attributeName="fill" to="#808080" begin="zoomminus.mouseover" end="zoomminus.mouseout"/>
                        </use>
                        <path d="M-4,0h8" fill="none" stroke="white" stroke-width="1.5" pointer-events="none"/>
                </g>
                <g id="dirArrow">
                        <path fill="none" stroke="white" stroke-width="1.5" d="M0,-3.0v7 M-2.5,-0.5L0,-3.0L2.5,-0.5"/>
                </g>
               <g id="resetDef">
                       <use xlink:href="#rim2" fill="#404040">
                               <set attributeName="fill" to="#808080" begin="reset.mouseover" end="reset.mouseout"/>
                       </use>
               </g>
        </defs>

<script type="text/javascript">
var viewWidth = 380;
var viewHeight = 586;
var sectionId = 'dynsection-0';
</script>
<script xlink:href="svgpan.js"/>
<svg id="graph" class="graph">
<g id="viewport">
<title>rcSettingWidget</title>
<polygon fill="white" stroke="white" points="-4,5 -4,-582 377,-582 377,5 -4,5"/>
<!-- Node1 -->
<g id="node1" class="node"><title>Node1</title>
<polygon fill="#bfbfbf" stroke="black" points="92.707,-273 92.707,-293 179.293,-293 179.293,-273 92.707,-273"/>
<text text-anchor="middle" x="136" y="-279" font-family="Helvetica,sans-Serif" font-size="10.00">rcSettingWidget</text>
</g>
<!-- Node3 -->
<g id="node3" class="node"><title>Node3</title>
<g id="a_node3"><a xlink:href="classrc_checkbox_setting_widget.html" target="_top" xlink:title="rcCheckboxSettingWidget">
<polygon fill="white" stroke="black" points="228.473,-558 228.473,-578 359.527,-578 359.527,-558 228.473,-558"/>
<text text-anchor="middle" x="294" y="-564" font-family="Helvetica,sans-Serif" font-size="10.00">rcCheckboxSettingWidget</text>
</a>
</g>
</g>
<!-- Node1&#45;&gt;Node3 -->
<g id="edge2" class="edge"><title>Node1&#45;&gt;Node3</title>
<path fill="none" stroke="midnightblue" d="M136.734,-303.204C137.234,-352.548 145.652,-480.113 216,-548 220.174,-552.028 225.051,-555.273 230.288,-557.883"/>
<polygon fill="midnightblue" stroke="midnightblue" points="140.234,-303.163 136.736,-293.162 133.234,-303.162 140.234,-303.163"/>
</g>
<!-- Node4 -->
<g id="node4" class="node"><title>Node4</title>
<g id="a_node4"><a xlink:href="classrc_file_choice_setting_widget.html" target="_top" xlink:title="rcFileChoiceSettingWidget">
<polygon fill="white" stroke="black" points="227.086,-519 227.086,-539 360.914,-539 360.914,-519 227.086,-519"/>
<text text-anchor="middle" x="294" y="-525" font-family="Helvetica,sans-Serif" font-size="10.00">rcFileChoiceSettingWidget</text>
</a>
</g>
</g>
<!-- Node1&#45;&gt;Node4 -->
<g id="edge3" class="edge"><title>Node1&#45;&gt;Node4</title>
<path fill="none" stroke="midnightblue" d="M137.971,-303.487C141.213,-347.798 155.252,-453.048 216,-509 220.368,-513.024 225.442,-516.26 230.86,-518.859"/>
<polygon fill="midnightblue" stroke="midnightblue" points="141.457,-303.139 137.347,-293.374 134.47,-303.57 141.457,-303.139"/>
</g>
<!-- Node5 -->
<g id="node5" class="node"><title>Node5</title>
<g id="a_node5"><a xlink:href="classrc_file_save_setting_widget.html" target="_top" xlink:title="rcFileSaveSettingWidget">
<polygon fill="white" stroke="black" points="231.254,-480 231.254,-500 356.746,-500 356.746,-480 231.254,-480"/>
<text text-anchor="middle" x="294" y="-486" font-family="Helvetica,sans-Serif" font-size="10.00">rcFileSaveSettingWidget</text>
</a>
</g>
</g>
<!-- Node1&#45;&gt;Node5 -->
<g id="edge4" class="edge"><title>Node1&#45;&gt;Node5</title>
<path fill="none" stroke="midnightblue" d="M139.652,-303.349C145.776,-341.866 164.544,-425.539 216,-470 220.703,-474.064 226.132,-477.316 231.886,-479.918"/>
<polygon fill="midnightblue" stroke="midnightblue" points="143.099,-302.733 138.189,-293.344 136.173,-303.746 143.099,-302.733"/>
</g>
<!-- Node6 -->
<g id="node6" class="node"><title>Node6</title>
<g id="a_node6"><a xlink:href="classrc_framerate_choice_setting_widget.html" target="_top" xlink:title="rcFramerateChoiceSetting\lWidget">
<polygon fill="white" stroke="black" points="227.643,-429 227.643,-461 360.357,-461 360.357,-429 227.643,-429"/>
<text text-anchor="start" x="235.643" y="-447" font-family="Helvetica,sans-Serif" font-size="10.00">rcFramerateChoiceSetting</text>
<text text-anchor="middle" x="294" y="-435" font-family="Helvetica,sans-Serif" font-size="10.00">Widget</text>
</a>
</g>
</g>
<!-- Node1&#45;&gt;Node6 -->
<g id="edge5" class="edge"><title>Node1&#45;&gt;Node6</title>
<path fill="none" stroke="midnightblue" d="M143.394,-302.791C153.905,-332.272 177.584,-387.609 216,-419 220.698,-422.839 225.99,-426.122 231.545,-428.927"/>
<polygon fill="midnightblue" stroke="midnightblue" points="146.66,-301.523 140.115,-293.192 140.036,-303.786 146.66,-301.523"/>
</g>
<!-- Node7 -->
<g id="node7" class="node"><title>Node7</title>
<g id="a_node7"><a xlink:href="classrc_menu_choice_setting_widget.html" target="_top" xlink:title="rcMenuChoiceSettingWidget">
<polygon fill="white" stroke="black" points="222.636,-390 222.636,-410 365.364,-410 365.364,-390 222.636,-390"/>
<text text-anchor="middle" x="294" y="-396" font-family="Helvetica,sans-Serif" font-size="10.00">rcMenuChoiceSettingWidget</text>
</a>
</g>
</g>
<!-- Node1&#45;&gt;Node7 -->
<g id="edge6" class="edge"><title>Node1&#45;&gt;Node7</title>
<path fill="none" stroke="midnightblue" d="M147.269,-301.786C160.327,-323.882 184.955,-360.069 216,-380 222.392,-384.104 229.592,-387.368 236.958,-389.963"/>
<polygon fill="midnightblue" stroke="midnightblue" points="150.249,-299.946 142.248,-293.001 144.171,-303.419 150.249,-299.946"/>
</g>
<!-- Node8 -->
<g id="node8" class="node"><title>Node8</title>
<g id="a_node8"><a xlink:href="classrc_numeric_choice_setting_widget.html" target="_top" xlink:title="rcNumericChoiceSettingWidget">
<polygon fill="white" stroke="black" points="216.53,-351 216.53,-371 371.47,-371 371.47,-351 216.53,-351"/>
<text text-anchor="middle" x="294" y="-357" font-family="Helvetica,sans-Serif" font-size="10.00">rcNumericChoiceSettingWidget</text>
</a>
</g>
</g>
<!-- Node1&#45;&gt;Node8 -->
<g id="edge7" class="edge"><title>Node1&#45;&gt;Node8</title>
<path fill="none" stroke="midnightblue" d="M155.542,-299.8C170.773,-312.777 193.439,-330.276 216,-341 224.358,-344.973 233.615,-348.236 242.728,-350.889"/>
<polygon fill="midnightblue" stroke="midnightblue" points="157.73,-297.064 147.893,-293.128 153.128,-302.339 157.73,-297.064"/>
</g>
<!-- Node9 -->
<g id="node9" class="node"><title>Node9</title>
<g id="a_node9"><a xlink:href="classrc_playback_setting_widget.html" target="_top" xlink:title="rcPlaybackSettingWidget">
<polygon fill="white" stroke="black" points="230.419,-312 230.419,-332 357.581,-332 357.581,-312 230.419,-312"/>
<text text-anchor="middle" x="294" y="-318" font-family="Helvetica,sans-Serif" font-size="10.00">rcPlaybackSettingWidget</text>
</a>
</g>
</g>
<!-- Node1&#45;&gt;Node9 -->
<g id="edge8" class="edge"><title>Node1&#45;&gt;Node9</title>
<path fill="none" stroke="midnightblue" d="M187.03,-295.507C208.346,-300.837 232.875,-306.969 252.962,-311.991"/>
<polygon fill="midnightblue" stroke="midnightblue" points="187.724,-292.073 177.174,-293.043 186.026,-298.864 187.724,-292.073"/>
</g>
<!-- Node10 -->
<g id="node10" class="node"><title>Node10</title>
<g id="a_node10"><a xlink:href="classrc_radio_choice_setting_widget.html" target="_top" xlink:title="rcRadioChoiceSettingWidget">
<polygon fill="white" stroke="black" points="222.079,-273 222.079,-293 365.921,-293 365.921,-273 222.079,-273"/>
<text text-anchor="middle" x="294" y="-279" font-family="Helvetica,sans-Serif" font-size="10.00">rcRadioChoiceSettingWidget</text>
</a>
</g>
</g>
<!-- Node1&#45;&gt;Node10 -->
<g id="edge9" class="edge"><title>Node1&#45;&gt;Node10</title>
<path fill="none" stroke="midnightblue" d="M189.723,-283C200.071,-283 211.085,-283 221.919,-283"/>
<polygon fill="midnightblue" stroke="midnightblue" points="189.628,-279.5 179.628,-283 189.628,-286.5 189.628,-279.5"/>
</g>
<!-- Node11 -->
<g id="node11" class="node"><title>Node11</title>
<g id="a_node11"><a xlink:href="classrc_rate_choice_setting_widget.html" target="_top" xlink:title="rcRateChoiceSettingWidget">
<polygon fill="white" stroke="black" points="224.582,-234 224.582,-254 363.418,-254 363.418,-234 224.582,-234"/>
<text text-anchor="middle" x="294" y="-240" font-family="Helvetica,sans-Serif" font-size="10.00">rcRateChoiceSettingWidget</text>
</a>
</g>
</g>
<!-- Node1&#45;&gt;Node11 -->
<g id="edge10" class="edge"><title>Node1&#45;&gt;Node11</title>
<path fill="none" stroke="midnightblue" d="M186.083,-270.525C195.985,-268.022 206.323,-265.419 216,-263 227.755,-260.062 240.527,-256.898 252.228,-254.012"/>
<polygon fill="midnightblue" stroke="midnightblue" points="185.204,-267.137 176.368,-272.984 186.921,-273.923 185.204,-267.137"/>
</g>
<!-- Node12 -->
<g id="node12" class="node"><title>Node12</title>
<g id="a_node12"><a xlink:href="classrc_rect_setting_widget.html" target="_top" xlink:title="rcRectSettingWidget">
<polygon fill="white" stroke="black" points="240.426,-195 240.426,-215 347.574,-215 347.574,-195 240.426,-195"/>
<text text-anchor="middle" x="294" y="-201" font-family="Helvetica,sans-Serif" font-size="10.00">rcRectSettingWidget</text>
</a>
</g>
</g>
<!-- Node1&#45;&gt;Node12 -->
<g id="edge11" class="edge"><title>Node1&#45;&gt;Node12</title>
<path fill="none" stroke="midnightblue" d="M155.195,-266.048C170.377,-252.774 193.15,-234.805 216,-224 223.593,-220.41 231.939,-217.451 240.249,-215.028"/>
<polygon fill="midnightblue" stroke="midnightblue" points="152.7,-263.584 147.588,-272.864 157.371,-268.797 152.7,-263.584"/>
</g>
<!-- Node13 -->
<g id="node13" class="node"><title>Node13</title>
<g id="a_node13"><a xlink:href="classrc_spinbox_setting_widget.html" target="_top" xlink:title="rcSpinboxSettingWidget">
<polygon fill="white" stroke="black" points="232.638,-156 232.638,-176 355.362,-176 355.362,-156 232.638,-156"/>
<text text-anchor="middle" x="294" y="-162" font-family="Helvetica,sans-Serif" font-size="10.00">rcSpinboxSettingWidget</text>
</a>
</g>
</g>
<!-- Node1&#45;&gt;Node13 -->
<g id="edge12" class="edge"><title>Node1&#45;&gt;Node13</title>
<path fill="none" stroke="midnightblue" d="M147.179,-263.955C160.149,-241.566 184.69,-204.942 216,-185 221.691,-181.376 228.024,-178.442 234.545,-176.069"/>
<polygon fill="midnightblue" stroke="midnightblue" points="144.025,-262.423 142.196,-272.858 150.134,-265.841 144.025,-262.423"/>
</g>
<!-- Node14 -->
<g id="node14" class="node"><title>Node14</title>
<g id="a_node14"><a xlink:href="classrc_text_area_setting_widget.html" target="_top" xlink:title="rcTextAreaSettingWidget">
<polygon fill="white" stroke="black" points="230.976,-117 230.976,-137 357.024,-137 357.024,-117 230.976,-117"/>
<text text-anchor="middle" x="294" y="-123" font-family="Helvetica,sans-Serif" font-size="10.00">rcTextAreaSettingWidget</text>
</a>
</g>
</g>
<!-- Node1&#45;&gt;Node14 -->
<g id="edge13" class="edge"><title>Node1&#45;&gt;Node14</title>
<path fill="none" stroke="midnightblue" d="M142.881,-263.092C152.836,-232.968 175.937,-176.13 216,-146 220.842,-142.359 226.294,-139.408 232.004,-137.017"/>
<polygon fill="midnightblue" stroke="midnightblue" points="139.463,-262.293 139.801,-272.883 146.141,-264.394 139.463,-262.293"/>
</g>
<!-- Node15 -->
<g id="node15" class="node"><title>Node15</title>
<g id="a_node15"><a xlink:href="classrc_text_choice_setting_widget.html" target="_top" xlink:title="rcTextChoiceSettingWidget">
<polygon fill="white" stroke="black" points="225.973,-78 225.973,-98 362.027,-98 362.027,-78 225.973,-78"/>
<text text-anchor="middle" x="294" y="-84" font-family="Helvetica,sans-Serif" font-size="10.00">rcTextChoiceSettingWidget</text>
</a>
</g>
</g>
<!-- Node1&#45;&gt;Node15 -->
<g id="edge14" class="edge"><title>Node1&#45;&gt;Node15</title>
<path fill="none" stroke="midnightblue" d="M140.17,-262.776C147.037,-225.963 166.827,-148.033 216,-107 220.334,-103.383 225.256,-100.437 230.464,-98.0406"/>
<polygon fill="midnightblue" stroke="midnightblue" points="136.693,-262.344 138.435,-272.794 143.59,-263.538 136.693,-262.344"/>
</g>
<!-- Node16 -->
<g id="node16" class="node"><title>Node16</title>
<g id="a_node16"><a xlink:href="classrc_text_line_setting_widget.html" target="_top" xlink:title="rcTextLineSettingWidget">
<polygon fill="white" stroke="black" points="232.084,-39 232.084,-59 355.916,-59 355.916,-39 232.084,-39"/>
<text text-anchor="middle" x="294" y="-45" font-family="Helvetica,sans-Serif" font-size="10.00">rcTextLineSettingWidget</text>
</a>
</g>
</g>
<!-- Node1&#45;&gt;Node16 -->
<g id="edge15" class="edge"><title>Node1&#45;&gt;Node16</title>
<path fill="none" stroke="midnightblue" d="M138.333,-262.568C142.261,-219.773 157.531,-120.356 216,-68 220.616,-63.8667 225.988,-60.5994 231.709,-58.0214"/>
<polygon fill="midnightblue" stroke="midnightblue" points="134.838,-262.364 137.529,-272.611 141.816,-262.922 134.838,-262.364"/>
</g>
<!-- Node17 -->
<g id="node17" class="node"><title>Node17</title>
<g id="a_node17"><a xlink:href="classrc_thumb_wheel_setting_widget.html" target="_top" xlink:title="rcThumbWheelSettingWidget">
<polygon fill="white" stroke="black" points="220.973,-0 220.973,-20 367.027,-20 367.027,-0 220.973,-0"/>
<text text-anchor="middle" x="294" y="-6" font-family="Helvetica,sans-Serif" font-size="10.00">rcThumbWheelSettingWidget</text>
</a>
</g>
</g>
<!-- Node1&#45;&gt;Node17 -->
<g id="edge16" class="edge"><title>Node1&#45;&gt;Node17</title>
<path fill="none" stroke="midnightblue" d="M136.986,-262.933C138.095,-215.027 147.85,-93.2037 216,-29 219.808,-25.4122 224.183,-22.4708 228.871,-20.0631"/>
<polygon fill="midnightblue" stroke="midnightblue" points="133.486,-262.919 136.861,-272.962 140.486,-263.007 133.486,-262.919"/>
</g>
<!-- Node2 -->
<g id="node2" class="node"><title>Node2</title>
<polygon fill="white" stroke="#bfbfbf" points="0.549316,-273 0.549316,-293 55.4507,-293 55.4507,-273 0.549316,-273"/>
<text text-anchor="middle" x="28" y="-279" font-family="Helvetica,sans-Serif" font-size="10.00">QWidget</text>
</g>
<!-- Node2&#45;&gt;Node1 -->
<g id="edge1" class="edge"><title>Node2&#45;&gt;Node1</title>
<path fill="none" stroke="midnightblue" d="M65.6127,-283C74.243,-283 83.5163,-283 92.3857,-283"/>
<polygon fill="midnightblue" stroke="midnightblue" points="65.4749,-279.5 55.4748,-283 65.4748,-286.5 65.4749,-279.5"/>
</g>
</g>
</svg>
        <g id="navigator" transform="translate(0 0)" fill="#404254">
                <rect fill="#f2f5e9" fill-opacity="0.5" stroke="#606060" stroke-width=".5" x="0" y="0" width="60" height="60"/>
                <use id="zoomplus" xlink:href="#zoomPlus" x="17" y="9" onmousedown="handleZoom(evt,'in')"/>
                <use id="zoomminus" xlink:href="#zoomMin" x="42" y="9" onmousedown="handleZoom(evt,'out')"/>
                <use id="reset" xlink:href="#resetDef" x="30" y="36" onmousedown="handleReset()"/>
                <g id="arrowUp" xlink:href="#dirArrow" transform="translate(30 24)" onmousedown="handlePan(0,-1)">
                  <use xlink:href="#rim" fill="#404040">
                        <set attributeName="fill" to="#808080" begin="arrowUp.mouseover" end="arrowUp.mouseout"/>
                  </use>
                  <path fill="none" stroke="white" stroke-width="1.5" d="M0,-3.0v7 M-2.5,-0.5L0,-3.0L2.5,-0.5"/>
                </g>
                <g id="arrowRight" xlink:href="#dirArrow" transform="rotate(90) translate(36 -43)" onmousedown="handlePan(1,0)">
                  <use xlink:href="#rim" fill="#404040">
                        <set attributeName="fill" to="#808080" begin="arrowRight.mouseover" end="arrowRight.mouseout"/>
                  </use>
                  <path fill="none" stroke="white" stroke-width="1.5" d="M0,-3.0v7 M-2.5,-0.5L0,-3.0L2.5,-0.5"/>
                </g>
                <g id="arrowDown" xlink:href="#dirArrow" transform="rotate(180) translate(-30 -48)" onmousedown="handlePan(0,1)">
                  <use xlink:href="#rim" fill="#404040">
                        <set attributeName="fill" to="#808080" begin="arrowDown.mouseover" end="arrowDown.mouseout"/>
                  </use>
                  <path fill="none" stroke="white" stroke-width="1.5" d="M0,-3.0v7 M-2.5,-0.5L0,-3.0L2.5,-0.5"/>
                </g>
                <g id="arrowLeft" xlink:href="#dirArrow" transform="rotate(270) translate(-36 17)" onmousedown="handlePan(-1,0)">
                  <use xlink:href="#rim" fill="#404040">
                        <set attributeName="fill" to="#808080" begin="arrowLeft.mouseover" end="arrowLeft.mouseout"/>
                  </use>
                  <path fill="none" stroke="white" stroke-width="1.5" d="M0,-3.0v7 M-2.5,-0.5L0,-3.0L2.5,-0.5"/>
                </g>
        </g>
        <svg viewBox="0 0 15 15" width="100%" height="30px" preserveAspectRatio="xMaxYMin meet">
         <g id="arrow_out" transform="scale(0.3 0.3)">
          <a xlink:href="classrc_setting_widget__inherit__graph_org.svg" target="_base">
           <rect id="button" ry="5" rx="5" y="6" x="6" height="38" width="38"
                fill="#f2f5e9" fill-opacity="0.5" stroke="#606060" stroke-width="1.0"/>
           <path id="arrow"
             d="M 11.500037,31.436501 C 11.940474,20.09759 22.043105,11.32322 32.158766,21.979434 L 37.068811,17.246167 C 37.068811,17.246167 37.088388,32 37.088388,32 L 22.160133,31.978069 C 22.160133,31.978069 26.997745,27.140456 26.997745,27.140456 C 18.528582,18.264221 13.291696,25.230495 11.500037,31.436501 z"
             style="fill:#404040;"/>
          </a>
         </g>
        </svg>
</svg>
