<?xml version="1.0" encoding="UTF-8" standalone="no"?>
<!DOCTYPE svg PUBLIC "-//W3C//DTD SVG 1.1//EN"
 "http://www.w3.org/Graphics/SVG/1.1/DTD/svg11.dtd">
<!-- Generated by graphviz version 2.32.0 (20130916.1925)
 -->
<!-- Title: rcEngineImpl::engineAbort Pages: 1 -->
<svg width="496pt" height="28pt"
 viewBox="0.00 0.00 496.00 28.00" xmlns="http://www.w3.org/2000/svg" xmlns:xlink="http://www.w3.org/1999/xlink">
<g id="graph0" class="graph" transform="scale(1 1) rotate(0) translate(4 24)">
<title>rcEngineImpl::engineAbort</title>
<polygon fill="white" stroke="white" points="-4,5 -4,-24 493,-24 493,5 -4,5"/>
<!-- Node1 -->
<g id="node1" class="node"><title>Node1</title>
<polygon fill="#bfbfbf" stroke="black" points="0.0766602,-0 0.0766602,-20 133.923,-20 133.923,-0 0.0766602,-0"/>
<text text-anchor="middle" x="67" y="-6" font-family="Helvetica,sans-Serif" font-size="10.00">rcEngineImpl::engineAbort</text>
</g>
<!-- Node2 -->
<g id="node2" class="node"><title>Node2</title>
<g id="a_node2"><a xlink:href="classrc_engine_impl.html#a08582f48ac2811b56b0fbbe48c1afaf5" target="_top" xlink:title="rcEngineImpl::frameInterrupt">
<polygon fill="white" stroke="black" points="170.641,-0 170.641,-20 313.359,-20 313.359,-0 170.641,-0"/>
<text text-anchor="middle" x="242" y="-6" font-family="Helvetica,sans-Serif" font-size="10.00">rcEngineImpl::frameInterrupt</text>
</a>
</g>
</g>
<!-- Node1&#45;&gt;Node2 -->
<g id="edge1" class="edge"><title>Node1&#45;&gt;Node2</title>
<path fill="none" stroke="midnightblue" d="M144.466,-10C153.118,-10 161.907,-10 170.478,-10"/>
<polygon fill="midnightblue" stroke="midnightblue" points="144.392,-6.5001 134.392,-10 144.392,-13.5001 144.392,-6.5001"/>
</g>
<!-- Node3 -->
<g id="node3" class="node"><title>Node3</title>
<g id="a_node3"><a xlink:href="classrc_engine_movie_capture.html#a0d8bfe4fd32e11bdbdb2c0ad113425ff" target="_top" xlink:title="rcEngineMovieCapture::run">
<polygon fill="white" stroke="black" points="350.136,-0 350.136,-20 487.864,-20 487.864,-0 350.136,-0"/>
<text text-anchor="middle" x="419" y="-6" font-family="Helvetica,sans-Serif" font-size="10.00">rcEngineMovieCapture::run</text>
</a>
</g>
</g>
<!-- Node2&#45;&gt;Node3 -->
<g id="edge2" class="edge"><title>Node2&#45;&gt;Node3</title>
<path fill="none" stroke="midnightblue" d="M323.685,-10C332.482,-10 341.371,-10 349.995,-10"/>
<polygon fill="midnightblue" stroke="midnightblue" points="323.423,-6.5001 313.423,-10 323.423,-13.5001 323.423,-6.5001"/>
</g>
</g>
</svg>
