<?xml version="1.0" encoding="UTF-8" standalone="no"?>
<!DOCTYPE svg PUBLIC "-//W3C//DTD SVG 1.1//EN"
 "http://www.w3.org/Graphics/SVG/1.1/DTD/svg11.dtd">
<!-- Generated by graphviz version 2.32.0 (20130916.1925)
 -->
<!-- Title: rcLsFit::rms Pages: 1 -->
<svg width="256pt" height="67pt"
 viewBox="0.00 0.00 256.00 67.00" xmlns="http://www.w3.org/2000/svg" xmlns:xlink="http://www.w3.org/1999/xlink">
<g id="graph0" class="graph" transform="scale(1 1) rotate(0) translate(4 63)">
<title>rcLsFit::rms</title>
<polygon fill="white" stroke="white" points="-4,5 -4,-63 253,-63 253,5 -4,5"/>
<!-- Node1 -->
<g id="node1" class="node"><title>Node1</title>
<polygon fill="#bfbfbf" stroke="black" points="-0.108398,-19 -0.108398,-39 68.1084,-39 68.1084,-19 -0.108398,-19"/>
<text text-anchor="middle" x="34" y="-25" font-family="Helvetica,sans-Serif" font-size="10.00">rcLsFit::rms</text>
</g>
<!-- Node2 -->
<g id="node2" class="node"><title>Node2</title>
<g id="a_node2"><a xlink:href="classrc2d_vector.html#a63342b71909f7c9eff569f59682e51f3" target="_top" xlink:title="rc2dVector::distanceSquared">
<polygon fill="white" stroke="black" points="103.791,-39 103.791,-59 248.209,-59 248.209,-39 103.791,-39"/>
<text text-anchor="middle" x="176" y="-45" font-family="Helvetica,sans-Serif" font-size="10.00">rc2dVector::distanceSquared</text>
</a>
</g>
</g>
<!-- Node1&#45;&gt;Node2 -->
<g id="edge1" class="edge"><title>Node1&#45;&gt;Node2</title>
<path fill="none" stroke="midnightblue" d="M68.178,-33.7397C76.3132,-34.9019 85.376,-36.1966 94.6877,-37.5268"/>
<polygon fill="midnightblue" stroke="midnightblue" points="94.4629,-41.0302 104.857,-38.9796 95.4529,-34.1005 94.4629,-41.0302"/>
</g>
<!-- Node3 -->
<g id="node3" class="node"><title>Node3</title>
<g id="a_node3"><a xlink:href="classrc_matrix__2d.html#adcebad9f37bbe700ab70b5fb5b29c8c6" target="_top" xlink:title="rcMatrix_2d::inverse">
<polygon fill="white" stroke="black" points="122.985,-0 122.985,-20 229.015,-20 229.015,-0 122.985,-0"/>
<text text-anchor="middle" x="176" y="-6" font-family="Helvetica,sans-Serif" font-size="10.00">rcMatrix_2d::inverse</text>
</a>
</g>
</g>
<!-- Node1&#45;&gt;Node3 -->
<g id="edge2" class="edge"><title>Node1&#45;&gt;Node3</title>
<path fill="none" stroke="midnightblue" d="M68.178,-24.4973C81.5767,-22.6789 97.4914,-20.519 112.89,-18.4292"/>
<polygon fill="midnightblue" stroke="midnightblue" points="113.465,-21.8834 122.903,-17.0703 112.523,-14.947 113.465,-21.8834"/>
</g>
</g>
</svg>
