<?xml version="1.0" encoding="UTF-8" standalone="no"?>
<!DOCTYPE svg PUBLIC "-//W3C//DTD SVG 1.1//EN"
 "http://www.w3.org/Graphics/SVG/1.1/DTD/svg11.dtd">
<!-- Generated by graphviz version 2.32.0 (20130916.1925)
 -->
<!-- Title: restore_context::is_interface Pages: 1 -->
<svg width="254pt" height="40pt"
 viewBox="0.00 0.00 254.00 40.00" xmlns="http://www.w3.org/2000/svg" xmlns:xlink="http://www.w3.org/1999/xlink">
<g id="graph0" class="graph" transform="scale(1 1) rotate(0) translate(4 36)">
<title>restore_context::is_interface</title>
<polygon fill="white" stroke="white" points="-4,5 -4,-36 251,-36 251,5 -4,5"/>
<!-- Node1 -->
<g id="node1" class="node"><title>Node1</title>
<polygon fill="#bfbfbf" stroke="black" points="0.147949,-0 0.147949,-32 97.8521,-32 97.8521,-0 0.147949,-0"/>
<text text-anchor="start" x="8.14795" y="-18" font-family="Helvetica,sans-Serif" font-size="10.00">restore_context::is</text>
<text text-anchor="middle" x="49" y="-6" font-family="Helvetica,sans-Serif" font-size="10.00">_interface</text>
</g>
<!-- Node2 -->
<g id="node2" class="node"><title>Node2</title>
<g id="a_node2"><a xlink:href="classrestore__context__body.html#ade2f1af5b7813e846324271b5c72c754" target="_top" xlink:title="restore_context_body\l::is_interface">
<polygon fill="white" stroke="black" points="133.914,-0 133.914,-32 246.086,-32 246.086,-0 133.914,-0"/>
<text text-anchor="start" x="141.914" y="-18" font-family="Helvetica,sans-Serif" font-size="10.00">restore_context_body</text>
<text text-anchor="middle" x="190" y="-6" font-family="Helvetica,sans-Serif" font-size="10.00">::is_interface</text>
</a>
</g>
</g>
<!-- Node1&#45;&gt;Node2 -->
<g id="edge1" class="edge"><title>Node1&#45;&gt;Node2</title>
<path fill="none" stroke="midnightblue" d="M98.2254,-16C106.454,-16 115.122,-16 123.705,-16"/>
<polygon fill="midnightblue" stroke="midnightblue" points="123.709,-19.5001 133.709,-16 123.709,-12.5001 123.709,-19.5001"/>
</g>
</g>
</svg>
