<?xml version="1.0" encoding="UTF-8" standalone="no"?>
<!DOCTYPE svg PUBLIC "-//W3C//DTD SVG 1.1//EN"
 "http://www.w3.org/Graphics/SVG/1.1/DTD/svg11.dtd">
<!-- Generated by graphviz version 2.32.0 (20130916.1925)
 -->
<!-- Title: rcPositionTrackImpl::setMinMaxValues Pages: 1 -->
<svg width="202pt" height="67pt"
 viewBox="0.00 0.00 202.00 67.00" xmlns="http://www.w3.org/2000/svg" xmlns:xlink="http://www.w3.org/1999/xlink">
<g id="graph0" class="graph" transform="scale(1 1) rotate(0) translate(4 63)">
<title>rcPositionTrackImpl::setMinMaxValues</title>
<polygon fill="white" stroke="white" points="-4,5 -4,-63 199,-63 199,5 -4,5"/>
<!-- Node1 -->
<g id="node1" class="node"><title>Node1</title>
<polygon fill="#bfbfbf" stroke="black" points="0.28418,-13 0.28418,-45 103.716,-45 103.716,-13 0.28418,-13"/>
<text text-anchor="start" x="8.28418" y="-31" font-family="Helvetica,sans-Serif" font-size="10.00">rcPositionTrackImpl</text>
<text text-anchor="middle" x="52" y="-19" font-family="Helvetica,sans-Serif" font-size="10.00">::setMinMaxValues</text>
</g>
<!-- Node2 -->
<g id="node2" class="node"><title>Node2</title>
<g id="a_node2"><a xlink:href="classrc_pair.html#ad1a3cb1e7fdbe119ce1295514b1bb49d" target="_top" xlink:title="rcPair::x">
<polygon fill="white" stroke="black" points="140.665,-39 140.665,-59 193.335,-59 193.335,-39 140.665,-39"/>
<text text-anchor="middle" x="167" y="-45" font-family="Helvetica,sans-Serif" font-size="10.00">rcPair::x</text>
</a>
</g>
</g>
<!-- Node1&#45;&gt;Node2 -->
<g id="edge1" class="edge"><title>Node1&#45;&gt;Node2</title>
<path fill="none" stroke="midnightblue" d="M103.88,-38.0054C112.876,-39.5975 122.064,-41.2237 130.519,-42.7202"/>
<polygon fill="midnightblue" stroke="midnightblue" points="129.95,-46.1738 140.407,-44.4703 131.17,-39.2809 129.95,-46.1738"/>
</g>
<!-- Node3 -->
<g id="node3" class="node"><title>Node3</title>
<g id="a_node3"><a xlink:href="classrc_pair.html#a87400f83938e920c405c40aa449d3607" target="_top" xlink:title="rcPair::y">
<polygon fill="white" stroke="black" points="140.665,-0 140.665,-20 193.335,-20 193.335,-0 140.665,-0"/>
<text text-anchor="middle" x="167" y="-6" font-family="Helvetica,sans-Serif" font-size="10.00">rcPair::y</text>
</a>
</g>
</g>
<!-- Node1&#45;&gt;Node3 -->
<g id="edge2" class="edge"><title>Node1&#45;&gt;Node3</title>
<path fill="none" stroke="midnightblue" d="M103.88,-20.4449C112.876,-18.9323 122.064,-17.3875 130.519,-15.9658"/>
<polygon fill="midnightblue" stroke="midnightblue" points="131.126,-19.413 140.407,-14.3032 129.965,-12.5099 131.126,-19.413"/>
</g>
</g>
</svg>
