<?xml version="1.0" encoding="UTF-8" standalone="no"?>
<!DOCTYPE svg PUBLIC "-//W3C//DTD SVG 1.1//EN"
 "http://www.w3.org/Graphics/SVG/1.1/DTD/svg11.dtd">
<!-- Generated by graphviz version 2.32.0 (20130916.1925)
 -->
<!-- Title: rcFrame::width Pages: 1 -->
<svg width="866pt" height="520pt"
 viewBox="0.00 0.00 866.00 520.00" xmlns="http://www.w3.org/2000/svg" xmlns:xlink="http://www.w3.org/1999/xlink">
<g id="graph0" class="graph" transform="scale(1 1) rotate(0) translate(4 516)">
<title>rcFrame::width</title>
<polygon fill="white" stroke="white" points="-4,5 -4,-516 863,-516 863,5 -4,5"/>
<!-- Node1 -->
<g id="node1" class="node"><title>Node1</title>
<polygon fill="#bfbfbf" stroke="black" points="-0.0615234,-226 -0.0615234,-246 82.0615,-246 82.0615,-226 -0.0615234,-226"/>
<text text-anchor="middle" x="41" y="-232" font-family="Helvetica,sans-Serif" font-size="10.00">rcFrame::width</text>
</g>
<!-- Node2 -->
<g id="node2" class="node"><title>Node2</title>
<g id="a_node2"><a xlink:href="classrc_window.html#ab0e725d98ea894f2c79a279345830e04" target="_top" xlink:title="canTrim / can takes a desired trim tba to all sides">
<polygon fill="white" stroke="black" points="134.4,-433 134.4,-453 235.6,-453 235.6,-433 134.4,-433"/>
<text text-anchor="middle" x="185" y="-439" font-family="Helvetica,sans-Serif" font-size="10.00">rcWindow::canTrim</text>
</a>
</g>
</g>
<!-- Node1&#45;&gt;Node2 -->
<g id="edge1" class="edge"><title>Node1&#45;&gt;Node2</title>
<path fill="none" stroke="midnightblue" d="M44.4683,-256.148C50.218,-294.32 68.0431,-377.43 118,-423 122.688,-427.276 128.264,-430.639 134.159,-433.284"/>
<polygon fill="midnightblue" stroke="midnightblue" points="47.9347,-255.663 43.0992,-246.236 41.0005,-256.621 47.9347,-255.663"/>
</g>
<!-- Node3 -->
<g id="node3" class="node"><title>Node3</title>
<g id="a_node3"><a xlink:href="classrc_movie_converter_to_q_t.html#a72a9071b93f8ba008f583661afea08f3" target="_top" xlink:title="rcMovieConverterToQT\l::copyFrame">
<polygon fill="white" stroke="black" points="125.32,-382 125.32,-414 244.68,-414 244.68,-382 125.32,-382"/>
<text text-anchor="start" x="133.32" y="-400" font-family="Helvetica,sans-Serif" font-size="10.00">rcMovieConverterToQT</text>
<text text-anchor="middle" x="185" y="-388" font-family="Helvetica,sans-Serif" font-size="10.00">::copyFrame</text>
</a>
</g>
</g>
<!-- Node1&#45;&gt;Node3 -->
<g id="edge2" class="edge"><title>Node1&#45;&gt;Node3</title>
<path fill="none" stroke="midnightblue" d="M48.1403,-255.552C58.2365,-284.722 80.9975,-339.661 118,-372 122.358,-375.809 127.341,-379.096 132.572,-381.924"/>
<polygon fill="midnightblue" stroke="midnightblue" points="51.4621,-254.449 44.9907,-246.06 44.8183,-256.653 51.4621,-254.449"/>
</g>
<!-- Node6 -->
<g id="node6" class="node"><title>Node6</title>
<g id="a_node6"><a xlink:href="classrc_window.html#ad4393afef5784f5a5608049eca67afcc" target="_top" xlink:title="rcWindow::entire">
<polygon fill="white" stroke="black" points="139.766,-343 139.766,-363 230.234,-363 230.234,-343 139.766,-343"/>
<text text-anchor="middle" x="185" y="-349" font-family="Helvetica,sans-Serif" font-size="10.00">rcWindow::entire</text>
</a>
</g>
</g>
<!-- Node1&#45;&gt;Node6 -->
<g id="edge5" class="edge"><title>Node1&#45;&gt;Node6</title>
<path fill="none" stroke="midnightblue" d="M52.2006,-255.218C64.8133,-277.17 88.2993,-312.671 118,-333 124.521,-337.463 132.066,-340.954 139.675,-343.678"/>
<polygon fill="midnightblue" stroke="midnightblue" points="55.1014,-253.232 47.1874,-246.188 48.9813,-256.63 55.1014,-253.232"/>
</g>
<!-- Node7 -->
<g id="node7" class="node"><title>Node7</title>
<g id="a_node7"><a xlink:href="classrc_kinetoscope.html#a673ae7a94c5b1b67c804fcb9fca3fc43" target="_top" xlink:title="rcKinetoscope::frame">
<polygon fill="white" stroke="black" points="129.756,-304 129.756,-324 240.244,-324 240.244,-304 129.756,-304"/>
<text text-anchor="middle" x="185" y="-310" font-family="Helvetica,sans-Serif" font-size="10.00">rcKinetoscope::frame</text>
</a>
</g>
</g>
<!-- Node1&#45;&gt;Node7 -->
<g id="edge6" class="edge"><title>Node1&#45;&gt;Node7</title>
<path fill="none" stroke="midnightblue" d="M69.2136,-250.948C97.4318,-266.448 140.788,-290.264 165.346,-303.753"/>
<polygon fill="midnightblue" stroke="midnightblue" points="70.7232,-247.784 60.2733,-246.037 67.353,-253.92 70.7232,-247.784"/>
</g>
<!-- Node16 -->
<g id="node16" class="node"><title>Node16</title>
<g id="a_node16"><a xlink:href="classrc_window.html#a4934dbd8377f49aaeff2227e75f5d5ee" target="_top" xlink:title="rcWindow::init">
<polygon fill="white" stroke="black" points="145.882,-246 145.882,-266 224.118,-266 224.118,-246 145.882,-246"/>
<text text-anchor="middle" x="185" y="-252" font-family="Helvetica,sans-Serif" font-size="10.00">rcWindow::init</text>
</a>
</g>
</g>
<!-- Node1&#45;&gt;Node16 -->
<g id="edge18" class="edge"><title>Node1&#45;&gt;Node16</title>
<path fill="none" stroke="midnightblue" d="M92.3617,-243.093C109.851,-245.557 129.171,-248.278 145.544,-250.584"/>
<polygon fill="midnightblue" stroke="midnightblue" points="92.7021,-239.607 82.3117,-241.678 91.7258,-246.538 92.7021,-239.607"/>
</g>
<!-- Node18 -->
<g id="node18" class="node"><title>Node18</title>
<g id="a_node18"><a xlink:href="classrc_engine_impl.html#a3f1d54d99e195efe0eec45f9263e6342" target="_top" xlink:title="rcEngineImpl::loadFrames">
<polygon fill="white" stroke="black" points="118.643,-207 118.643,-227 251.357,-227 251.357,-207 118.643,-207"/>
<text text-anchor="middle" x="185" y="-213" font-family="Helvetica,sans-Serif" font-size="10.00">rcEngineImpl::loadFrames</text>
</a>
</g>
</g>
<!-- Node1&#45;&gt;Node18 -->
<g id="edge20" class="edge"><title>Node1&#45;&gt;Node18</title>
<path fill="none" stroke="midnightblue" d="M92.4103,-229.255C100.894,-228.12 109.807,-226.927 118.605,-225.75"/>
<polygon fill="midnightblue" stroke="midnightblue" points="91.7591,-225.811 82.3117,-230.606 92.6875,-232.749 91.7591,-225.811"/>
</g>
<!-- Node22 -->
<g id="node22" class="node"><title>Node22</title>
<g id="a_node22"><a xlink:href="bcnvrt__main_8cpp.html#a3c04138a5bfe5d72780bb7e82a18e627" target="_top" xlink:title="main">
<polygon fill="white" stroke="black" points="551.163,-90 551.163,-110 588.837,-110 588.837,-90 551.163,-90"/>
<text text-anchor="middle" x="570" y="-96" font-family="Helvetica,sans-Serif" font-size="10.00">main</text>
</a>
</g>
</g>
<!-- Node1&#45;&gt;Node22 -->
<g id="edge24" class="edge"><title>Node1&#45;&gt;Node22</title>
<path fill="none" stroke="midnightblue" d="M67.4796,-220.903C81.9063,-212.877 100.514,-203.379 118,-197 201.139,-166.67 476.843,-116.417 550.677,-103.243"/>
<polygon fill="midnightblue" stroke="midnightblue" points="65.6217,-217.933 58.6567,-225.917 69.0802,-224.019 65.6217,-217.933"/>
</g>
<!-- Node23 -->
<g id="node23" class="node"><title>Node23</title>
<g id="a_node23"><a xlink:href="bcnvrt__main_8cpp.html#ab4778b8a2f574f4a41b29fab53732492" target="_top" xlink:title="rfCompareFrames">
<polygon fill="white" stroke="black" points="136.436,-90 136.436,-110 233.564,-110 233.564,-90 136.436,-90"/>
<text text-anchor="middle" x="185" y="-96" font-family="Helvetica,sans-Serif" font-size="10.00">rfCompareFrames</text>
</a>
</g>
</g>
<!-- Node1&#45;&gt;Node23 -->
<g id="edge25" class="edge"><title>Node1&#45;&gt;Node23</title>
<path fill="none" stroke="midnightblue" d="M50.7182,-216.543C62.6277,-192.005 86.1906,-150.008 118,-125 126.091,-118.639 135.979,-113.761 145.612,-110.077"/>
<polygon fill="midnightblue" stroke="midnightblue" points="47.4122,-215.35 46.3375,-225.89 53.7506,-218.32 47.4122,-215.35"/>
</g>
<!-- Node26 -->
<g id="node26" class="node"><title>Node26</title>
<g id="a_node26"><a xlink:href="classrc_window.html#a4866f37013c14dd8cec2a2847d70157b" target="_top" xlink:title="rcWindow::translate">
<polygon fill="white" stroke="black" points="133.096,-51 133.096,-71 236.904,-71 236.904,-51 133.096,-51"/>
<text text-anchor="middle" x="185" y="-57" font-family="Helvetica,sans-Serif" font-size="10.00">rcWindow::translate</text>
</a>
</g>
</g>
<!-- Node1&#45;&gt;Node26 -->
<g id="edge30" class="edge"><title>Node1&#45;&gt;Node26</title>
<path fill="none" stroke="midnightblue" d="M46.2037,-215.943C54.2259,-182.688 74.8997,-116.22 118,-80 122.382,-76.3178 127.44,-73.3485 132.768,-70.9541"/>
<polygon fill="midnightblue" stroke="midnightblue" points="42.7542,-215.329 43.9541,-225.855 49.5806,-216.878 42.7542,-215.329"/>
</g>
<!-- Node28 -->
<g id="node28" class="node"><title>Node28</title>
<g id="a_node28"><a xlink:href="classrc_window.html#a78d86af59d13a4061f8b256b5c19b513" target="_top" xlink:title="rcWindow::trim">
<polygon fill="white" stroke="black" points="143.943,-12 143.943,-32 226.057,-32 226.057,-12 143.943,-12"/>
<text text-anchor="middle" x="185" y="-18" font-family="Helvetica,sans-Serif" font-size="10.00">rcWindow::trim</text>
</a>
</g>
</g>
<!-- Node1&#45;&gt;Node28 -->
<g id="edge32" class="edge"><title>Node1&#45;&gt;Node28</title>
<path fill="none" stroke="midnightblue" d="M44.0303,-215.759C49.0866,-176.252 65.8584,-88.5843 118,-41 125.134,-34.4895 134.361,-30.1968 143.642,-27.3702"/>
<polygon fill="midnightblue" stroke="midnightblue" points="40.5459,-215.423 42.8738,-225.759 47.4995,-216.227 40.5459,-215.423"/>
</g>
<!-- Node4 -->
<g id="node4" class="node"><title>Node4</title>
<g id="a_node4"><a xlink:href="classrc_movie_converter_to_q_t.html#ad76ebb33252df1ff7af4984a729c9dba" target="_top" xlink:title="rcMovieConverterToQT\l::addVideoSamplesToMedia">
<polygon fill="white" stroke="black" points="298.827,-480 298.827,-512 439.173,-512 439.173,-480 298.827,-480"/>
<text text-anchor="start" x="306.827" y="-498" font-family="Helvetica,sans-Serif" font-size="10.00">rcMovieConverterToQT</text>
<text text-anchor="middle" x="369" y="-486" font-family="Helvetica,sans-Serif" font-size="10.00">::addVideoSamplesToMedia</text>
</a>
</g>
</g>
<!-- Node3&#45;&gt;Node4 -->
<g id="edge3" class="edge"><title>Node3&#45;&gt;Node4</title>
<path fill="none" stroke="midnightblue" d="M243.588,-418.696C246.506,-420.356 249.33,-422.123 252,-424 271.838,-437.947 268.123,-451.109 288,-465 296.424,-470.887 306.119,-475.853 315.788,-479.967"/>
<polygon fill="midnightblue" stroke="midnightblue" points="245.1,-415.538 234.612,-414.037 241.875,-421.751 245.1,-415.538"/>
</g>
<!-- Node5 -->
<g id="node5" class="node"><title>Node5</title>
<g id="a_node5"><a xlink:href="classrc_movie_converter_to_q_t.html#a166b19241ef0b0b93ba0210903f53969" target="_top" xlink:title="rcMovieConverterToQT\l::createQTMovie">
<polygon fill="white" stroke="black" points="510.32,-480 510.32,-512 629.68,-512 629.68,-480 510.32,-480"/>
<text text-anchor="start" x="518.32" y="-498" font-family="Helvetica,sans-Serif" font-size="10.00">rcMovieConverterToQT</text>
<text text-anchor="middle" x="570" y="-486" font-family="Helvetica,sans-Serif" font-size="10.00">::createQTMovie</text>
</a>
</g>
</g>
<!-- Node4&#45;&gt;Node5 -->
<g id="edge4" class="edge"><title>Node4&#45;&gt;Node5</title>
<path fill="none" stroke="midnightblue" d="M449.473,-496C469.733,-496 491.147,-496 510.167,-496"/>
<polygon fill="midnightblue" stroke="midnightblue" points="449.321,-492.5 439.321,-496 449.321,-499.5 449.321,-492.5"/>
</g>
<!-- Node8 -->
<g id="node8" class="node"><title>Node8</title>
<g id="a_node8"><a xlink:href="classrc_kinetoscope.html#a30274b84c57f86e667b614556f6c569b" target="_top" xlink:title="rcKinetoscope::step">
<polygon fill="white" stroke="black" points="518.086,-382 518.086,-402 621.914,-402 621.914,-382 518.086,-382"/>
<text text-anchor="middle" x="570" y="-388" font-family="Helvetica,sans-Serif" font-size="10.00">rcKinetoscope::step</text>
</a>
</g>
</g>
<!-- Node7&#45;&gt;Node8 -->
<g id="edge7" class="edge"><title>Node7&#45;&gt;Node8</title>
<path fill="none" stroke="midnightblue" d="M245.85,-329.084C248.029,-330.572 250.092,-332.206 252,-334 285.495,-365.507 250.249,-404.743 288,-431 371.699,-489.214 503.765,-427.786 551.256,-402.138"/>
<polygon fill="midnightblue" stroke="midnightblue" points="247.385,-325.931 236.96,-324.041 243.931,-332.02 247.385,-325.931"/>
</g>
<!-- Node10 -->
<g id="node10" class="node"><title>Node10</title>
<g id="a_node10"><a xlink:href="classrc_kinetoscope.html#ae0addfc3a10c4c69ba027d9bfc351217" target="_top" xlink:title="rcKinetoscope::stepContractile">
<polygon fill="white" stroke="black" points="293.188,-402 293.188,-422 444.812,-422 444.812,-402 293.188,-402"/>
<text text-anchor="middle" x="369" y="-408" font-family="Helvetica,sans-Serif" font-size="10.00">rcKinetoscope::stepContractile</text>
</a>
</g>
</g>
<!-- Node7&#45;&gt;Node10 -->
<g id="edge9" class="edge"><title>Node7&#45;&gt;Node10</title>
<path fill="none" stroke="midnightblue" d="M243.476,-328.476C246.474,-330.124 249.341,-331.958 252,-334 276.065,-352.476 263.487,-374.122 288,-392 293.552,-396.049 299.835,-399.283 306.379,-401.865"/>
<polygon fill="midnightblue" stroke="midnightblue" points="244.705,-325.186 234.169,-324.071 241.711,-331.513 244.705,-325.186"/>
</g>
<!-- Node11 -->
<g id="node11" class="node"><title>Node11</title>
<g id="a_node11"><a xlink:href="classrc_kinetoscope.html#a431144623d201c5aeb857893d8460ca2" target="_top" xlink:title="rcKinetoscope::stepEpi">
<polygon fill="white" stroke="black" points="309.86,-363 309.86,-383 428.14,-383 428.14,-363 309.86,-363"/>
<text text-anchor="middle" x="369" y="-369" font-family="Helvetica,sans-Serif" font-size="10.00">rcKinetoscope::stepEpi</text>
</a>
</g>
</g>
<!-- Node7&#45;&gt;Node11 -->
<g id="edge11" class="edge"><title>Node7&#45;&gt;Node11</title>
<path fill="none" stroke="midnightblue" d="M233.558,-327.215C239.826,-329.304 246.113,-331.581 252,-334 268.734,-340.877 271.102,-346.537 288,-353 298.029,-356.836 309.048,-360.14 319.616,-362.896"/>
<polygon fill="midnightblue" stroke="midnightblue" points="234.375,-323.801 223.784,-324.092 232.244,-330.469 234.375,-323.801"/>
</g>
<!-- Node12 -->
<g id="node12" class="node"><title>Node12</title>
<g id="a_node12"><a xlink:href="classrc_kinetoscope.html#ade990e6e3582a1e363aad1549d0117b2" target="_top" xlink:title="rcKinetoscope::stepDirectedFlow">
<polygon fill="white" stroke="black" points="287.912,-324 287.912,-344 450.088,-344 450.088,-324 287.912,-324"/>
<text text-anchor="middle" x="369" y="-330" font-family="Helvetica,sans-Serif" font-size="10.00">rcKinetoscope::stepDirectedFlow</text>
</a>
</g>
</g>
<!-- Node7&#45;&gt;Node12 -->
<g id="edge13" class="edge"><title>Node7&#45;&gt;Node12</title>
<path fill="none" stroke="midnightblue" d="M250.565,-321.095C262.636,-322.422 275.387,-323.823 287.862,-325.194"/>
<polygon fill="midnightblue" stroke="midnightblue" points="250.929,-317.614 240.606,-320.001 250.164,-324.572 250.929,-317.614"/>
</g>
<!-- Node13 -->
<g id="node13" class="node"><title>Node13</title>
<g id="a_node13"><a xlink:href="classrc_kinetoscope.html#a773e884a84eb4f6d97ef71eb1c95aeda" target="_top" xlink:title="rcKinetoscope::start">
<polygon fill="white" stroke="black" points="316.813,-285 316.813,-305 421.187,-305 421.187,-285 316.813,-285"/>
<text text-anchor="middle" x="369" y="-291" font-family="Helvetica,sans-Serif" font-size="10.00">rcKinetoscope::start</text>
</a>
</g>
</g>
<!-- Node7&#45;&gt;Node13 -->
<g id="edge15" class="edge"><title>Node7&#45;&gt;Node13</title>
<path fill="none" stroke="midnightblue" d="M250.69,-307.247C272.303,-304.99 296.083,-302.508 316.549,-300.371"/>
<polygon fill="midnightblue" stroke="midnightblue" points="250.189,-303.78 240.606,-308.299 250.915,-310.742 250.189,-303.78"/>
</g>
<!-- Node9 -->
<g id="node9" class="node"><title>Node9</title>
<g id="a_node9"><a xlink:href="classrc_engine_impl.html#a00ca0d227e480ddb5bd6be293b55d2c9" target="_top" xlink:title="rcEngineImpl::muscleTracker">
<polygon fill="white" stroke="black" points="701.442,-382 701.442,-402 846.558,-402 846.558,-382 701.442,-382"/>
<text text-anchor="middle" x="774" y="-388" font-family="Helvetica,sans-Serif" font-size="10.00">rcEngineImpl::muscleTracker</text>
</a>
</g>
</g>
<!-- Node8&#45;&gt;Node9 -->
<g id="edge8" class="edge"><title>Node8&#45;&gt;Node9</title>
<path fill="none" stroke="midnightblue" d="M632.062,-392C653.805,-392 678.492,-392 701.062,-392"/>
<polygon fill="midnightblue" stroke="midnightblue" points="631.973,-388.5 621.973,-392 631.973,-395.5 631.973,-388.5"/>
</g>
<!-- Node10&#45;&gt;Node8 -->
<g id="edge10" class="edge"><title>Node10&#45;&gt;Node8</title>
<path fill="none" stroke="midnightblue" d="M455.038,-403.453C476.449,-401.302 498.774,-399.058 517.931,-397.133"/>
<polygon fill="midnightblue" stroke="midnightblue" points="454.55,-399.985 444.95,-404.467 455.25,-406.95 454.55,-399.985"/>
</g>
<!-- Node11&#45;&gt;Node8 -->
<g id="edge12" class="edge"><title>Node11&#45;&gt;Node8</title>
<path fill="none" stroke="midnightblue" d="M438.566,-379.547C464.657,-382.038 493.898,-384.829 518.071,-387.137"/>
<polygon fill="midnightblue" stroke="midnightblue" points="438.649,-376.039 428.362,-378.572 437.984,-383.007 438.649,-376.039"/>
</g>
<!-- Node12&#45;&gt;Node8 -->
<g id="edge14" class="edge"><title>Node12&#45;&gt;Node8</title>
<path fill="none" stroke="midnightblue" d="M422.36,-346.577C431.597,-348.942 441.101,-351.47 450,-354 480.665,-362.72 515.351,-373.955 539.329,-381.942"/>
<polygon fill="midnightblue" stroke="midnightblue" points="423.036,-343.138 412.483,-344.083 421.322,-349.925 423.036,-343.138"/>
</g>
<!-- Node14 -->
<g id="node14" class="node"><title>Node14</title>
<g id="a_node14"><a xlink:href="classrc_kinetoscope.html#aff1e9fdbb27b84b86d7f9a9f5a3d6229" target="_top" xlink:title="rcKinetoscope::visualFunctionMap">
<polygon fill="white" stroke="black" points="485.85,-285 485.85,-305 654.15,-305 654.15,-285 485.85,-285"/>
<text text-anchor="middle" x="570" y="-291" font-family="Helvetica,sans-Serif" font-size="10.00">rcKinetoscope::visualFunctionMap</text>
</a>
</g>
</g>
<!-- Node13&#45;&gt;Node14 -->
<g id="edge16" class="edge"><title>Node13&#45;&gt;Node14</title>
<path fill="none" stroke="midnightblue" d="M431.611,-295C448.654,-295 467.439,-295 485.503,-295"/>
<polygon fill="midnightblue" stroke="midnightblue" points="431.247,-291.5 421.247,-295 431.247,-298.5 431.247,-291.5"/>
</g>
<!-- Node15 -->
<g id="node15" class="node"><title>Node15</title>
<g id="a_node15"><a xlink:href="classrc_kinetoscope.html#abf1996c0d39c655ec7b58d9795fed1c8" target="_top" xlink:title="rcKinetoscope::visualFunctionMap">
<polygon fill="white" stroke="black" points="689.85,-285 689.85,-305 858.15,-305 858.15,-285 689.85,-285"/>
<text text-anchor="middle" x="774" y="-291" font-family="Helvetica,sans-Serif" font-size="10.00">rcKinetoscope::visualFunctionMap</text>
</a>
</g>
</g>
<!-- Node14&#45;&gt;Node15 -->
<g id="edge17" class="edge"><title>Node14&#45;&gt;Node15</title>
<path fill="none" stroke="midnightblue" d="M664.477,-295C672.838,-295 681.269,-295 689.538,-295"/>
<polygon fill="midnightblue" stroke="midnightblue" points="664.327,-291.5 654.327,-295 664.327,-298.5 664.327,-291.5"/>
</g>
<!-- Node17 -->
<g id="node17" class="node"><title>Node17</title>
<g id="a_node17"><a xlink:href="classrc_window.html#a48e4439c1021bf57d81c73c60d8a91f8" target="_top" xlink:title="rcWindow::rcWindow">
<polygon fill="white" stroke="black" points="314.325,-246 314.325,-266 423.675,-266 423.675,-246 314.325,-246"/>
<text text-anchor="middle" x="369" y="-252" font-family="Helvetica,sans-Serif" font-size="10.00">rcWindow::rcWindow</text>
</a>
</g>
</g>
<!-- Node16&#45;&gt;Node17 -->
<g id="edge19" class="edge"><title>Node16&#45;&gt;Node17</title>
<path fill="none" stroke="midnightblue" d="M234.311,-256C258.845,-256 288.731,-256 314.019,-256"/>
<polygon fill="midnightblue" stroke="midnightblue" points="234.153,-252.5 224.153,-256 234.153,-259.5 234.153,-252.5"/>
</g>
<!-- Node19 -->
<g id="node19" class="node"><title>Node19</title>
<g id="a_node19"><a xlink:href="classrc_engine_impl.html#ac6c444948228b9a6c9c013efefd7452c" target="_top" xlink:title="rcEngineImpl::loadImages">
<polygon fill="white" stroke="black" points="303.192,-207 303.192,-227 434.808,-227 434.808,-207 303.192,-207"/>
<text text-anchor="middle" x="369" y="-213" font-family="Helvetica,sans-Serif" font-size="10.00">rcEngineImpl::loadImages</text>
</a>
</g>
</g>
<!-- Node18&#45;&gt;Node19 -->
<g id="edge21" class="edge"><title>Node18&#45;&gt;Node19</title>
<path fill="none" stroke="midnightblue" d="M261.831,-217C275.556,-217 289.755,-217 303.131,-217"/>
<polygon fill="midnightblue" stroke="midnightblue" points="261.449,-213.5 251.449,-217 261.449,-220.5 261.449,-213.5"/>
</g>
<!-- Node21 -->
<g id="node21" class="node"><title>Node21</title>
<g id="a_node21"><a xlink:href="classrc_engine_impl.html#ac0162da8fe4f677ad6f3d04a465d50f0" target="_top" xlink:title="rcEngineImpl::loadMovie">
<polygon fill="white" stroke="black" points="306.251,-168 306.251,-188 431.749,-188 431.749,-168 306.251,-168"/>
<text text-anchor="middle" x="369" y="-174" font-family="Helvetica,sans-Serif" font-size="10.00">rcEngineImpl::loadMovie</text>
</a>
</g>
</g>
<!-- Node18&#45;&gt;Node21 -->
<g id="edge23" class="edge"><title>Node18&#45;&gt;Node21</title>
<path fill="none" stroke="midnightblue" d="M242.686,-204.853C267.94,-199.442 297.324,-193.145 321.289,-188.009"/>
<polygon fill="midnightblue" stroke="midnightblue" points="241.914,-201.439 232.87,-206.957 243.381,-208.283 241.914,-201.439"/>
</g>
<!-- Node20 -->
<g id="node20" class="node"><title>Node20</title>
<g id="a_node20"><a xlink:href="classrc_engine_importer.html#a2e45417f1c29adf01483b2b8fca6b27b" target="_top" xlink:title="rcEngineImporter::run">
<polygon fill="white" stroke="black" points="513.646,-207 513.646,-227 626.354,-227 626.354,-207 513.646,-207"/>
<text text-anchor="middle" x="570" y="-213" font-family="Helvetica,sans-Serif" font-size="10.00">rcEngineImporter::run</text>
</a>
</g>
</g>
<!-- Node19&#45;&gt;Node20 -->
<g id="edge22" class="edge"><title>Node19&#45;&gt;Node20</title>
<path fill="none" stroke="midnightblue" d="M445.171,-217C467.875,-217 492.38,-217 513.551,-217"/>
<polygon fill="midnightblue" stroke="midnightblue" points="444.885,-213.5 434.885,-217 444.885,-220.5 444.885,-213.5"/>
</g>
<!-- Node24 -->
<g id="node24" class="node"><title>Node24</title>
<g id="a_node24"><a xlink:href="bcnvrt__main_8cpp.html#a6e8fab40e4cd89f05d7bafbc7c22dedc" target="_top" xlink:title="rfCompareMovies">
<polygon fill="white" stroke="black" points="321.544,-90 321.544,-110 416.456,-110 416.456,-90 321.544,-90"/>
<text text-anchor="middle" x="369" y="-96" font-family="Helvetica,sans-Serif" font-size="10.00">rfCompareMovies</text>
</a>
</g>
</g>
<!-- Node23&#45;&gt;Node24 -->
<g id="edge26" class="edge"><title>Node23&#45;&gt;Node24</title>
<path fill="none" stroke="midnightblue" d="M243.919,-100C268.947,-100 297.84,-100 321.444,-100"/>
<polygon fill="midnightblue" stroke="midnightblue" points="243.818,-96.5001 233.818,-100 243.818,-103.5 243.818,-96.5001"/>
</g>
<!-- Node25 -->
<g id="node25" class="node"><title>Node25</title>
<g id="a_node25"><a xlink:href="bcnvrt__main_8cpp.html#a00a4dac924291e9ba2f484741e4abc19" target="_top" xlink:title="rfCompareReifyMovies">
<polygon fill="white" stroke="black" points="310.153,-51 310.153,-71 427.847,-71 427.847,-51 310.153,-51"/>
<text text-anchor="middle" x="369" y="-57" font-family="Helvetica,sans-Serif" font-size="10.00">rfCompareReifyMovies</text>
</a>
</g>
</g>
<!-- Node23&#45;&gt;Node25 -->
<g id="edge28" class="edge"><title>Node23&#45;&gt;Node25</title>
<path fill="none" stroke="midnightblue" d="M242.686,-87.8531C267.94,-82.4415 297.324,-76.1448 321.289,-71.0094"/>
<polygon fill="midnightblue" stroke="midnightblue" points="241.914,-84.4389 232.87,-89.9565 243.381,-91.2835 241.914,-84.4389"/>
</g>
<!-- Node24&#45;&gt;Node22 -->
<g id="edge27" class="edge"><title>Node24&#45;&gt;Node22</title>
<path fill="none" stroke="midnightblue" d="M426.775,-100C468.806,-100 523.392,-100 551.128,-100"/>
<polygon fill="midnightblue" stroke="midnightblue" points="426.657,-96.5001 416.657,-100 426.657,-103.5 426.657,-96.5001"/>
</g>
<!-- Node25&#45;&gt;Node22 -->
<g id="edge29" class="edge"><title>Node25&#45;&gt;Node22</title>
<path fill="none" stroke="midnightblue" d="M431.236,-73.001C472.552,-81.0981 524.252,-91.2304 551.041,-96.4805"/>
<polygon fill="midnightblue" stroke="midnightblue" points="431.734,-69.5321 421.247,-71.0435 430.388,-76.4014 431.734,-69.5321"/>
</g>
<!-- Node27 -->
<g id="node27" class="node"><title>Node27</title>
<g id="a_node27"><a xlink:href="classrc_correlation_window.html#a5ab67adfecb3afe6af20e21837e23bbe" target="_top" xlink:title="rcCorrelationWindow\l\&lt; uint8 \&gt;::translate">
<polygon fill="white" stroke="black" points="314.596,-0 314.596,-32 423.404,-32 423.404,-0 314.596,-0"/>
<text text-anchor="start" x="322.596" y="-18" font-family="Helvetica,sans-Serif" font-size="10.00">rcCorrelationWindow</text>
<text text-anchor="middle" x="369" y="-6" font-family="Helvetica,sans-Serif" font-size="10.00">&lt; uint8 &gt;::translate</text>
</a>
</g>
</g>
<!-- Node26&#45;&gt;Node27 -->
<g id="edge31" class="edge"><title>Node26&#45;&gt;Node27</title>
<path fill="none" stroke="midnightblue" d="M236.571,-48.4963C260.823,-42.4997 289.885,-35.3143 314.506,-29.2266"/>
<polygon fill="midnightblue" stroke="midnightblue" points="235.712,-45.1031 226.844,-50.9011 237.392,-51.8985 235.712,-45.1031"/>
</g>
</g>
</svg>
