<?xml version="1.0" encoding="UTF-8" standalone="no"?>
<!DOCTYPE svg PUBLIC "-//W3C//DTD SVG 1.1//EN"
 "http://www.w3.org/Graphics/SVG/1.1/DTD/svg11.dtd">
<!-- Generated by graphviz version 2.32.0 (20130916.1925)
 -->
<!-- Title: rcImageCanvasGL::addDefaultText Pages: 1 -->
<svg width="376pt" height="79pt"
 viewBox="0.00 0.00 376.00 79.00" xmlns="http://www.w3.org/2000/svg" xmlns:xlink="http://www.w3.org/1999/xlink">
<g id="graph0" class="graph" transform="scale(1 1) rotate(0) translate(4 75)">
<title>rcImageCanvasGL::addDefaultText</title>
<polygon fill="white" stroke="white" points="-4,5 -4,-75 373,-75 373,5 -4,5"/>
<!-- Node1 -->
<g id="node1" class="node"><title>Node1</title>
<polygon fill="#bfbfbf" stroke="black" points="0.182617,-22 0.182617,-42 171.817,-42 171.817,-22 0.182617,-22"/>
<text text-anchor="middle" x="86" y="-28" font-family="Helvetica,sans-Serif" font-size="10.00">rcImageCanvasGL::addDefaultText</text>
</g>
<!-- Node2 -->
<g id="node2" class="node"><title>Node2</title>
<g id="a_node2"><a xlink:href="classrc_image_canvas_g_l.html#a2a74a915352aaa918370da5a73c9e194" target="_top" xlink:title="rcImageCanvasGL::rcImage\lCanvasGL">
<polygon fill="white" stroke="black" points="217.476,-39 217.476,-71 358.524,-71 358.524,-39 217.476,-39"/>
<text text-anchor="start" x="225.476" y="-57" font-family="Helvetica,sans-Serif" font-size="10.00">rcImageCanvasGL::rcImage</text>
<text text-anchor="middle" x="288" y="-45" font-family="Helvetica,sans-Serif" font-size="10.00">CanvasGL</text>
</a>
</g>
</g>
<!-- Node1&#45;&gt;Node2 -->
<g id="edge1" class="edge"><title>Node1&#45;&gt;Node2</title>
<path fill="none" stroke="midnightblue" d="M181.792,-42.9011C193.712,-44.2719 205.731,-45.654 217.168,-46.9693"/>
<polygon fill="midnightblue" stroke="midnightblue" points="182.152,-39.4195 171.818,-41.7541 181.353,-46.3737 182.152,-39.4195"/>
</g>
<!-- Node3 -->
<g id="node3" class="node"><title>Node3</title>
<g id="a_node3"><a xlink:href="classrc_image_canvas_g_l.html#ae50f47b8c54e1707332ad166402c701c" target="_top" xlink:title="rcImageCanvasGL::updateState">
<polygon fill="white" stroke="black" points="208.569,-0 208.569,-20 367.431,-20 367.431,-0 208.569,-0"/>
<text text-anchor="middle" x="288" y="-6" font-family="Helvetica,sans-Serif" font-size="10.00">rcImageCanvasGL::updateState</text>
</a>
</g>
</g>
<!-- Node1&#45;&gt;Node3 -->
<g id="edge2" class="edge"><title>Node1&#45;&gt;Node3</title>
<path fill="none" stroke="midnightblue" d="M181.828,-21.569C190.727,-20.59 199.682,-19.605 208.408,-18.6452"/>
<polygon fill="midnightblue" stroke="midnightblue" points="181.375,-18.0975 171.818,-22.67 182.141,-25.0555 181.375,-18.0975"/>
</g>
</g>
</svg>
