<?xml version="1.0" encoding="UTF-8" standalone="no"?>
<!DOCTYPE svg PUBLIC "-//W3C//DTD SVG 1.1//EN"
 "http://www.w3.org/Graphics/SVG/1.1/DTD/svg11.dtd">
<!-- Generated by graphviz version 2.32.0 (20130916.1925)
 -->
<!-- Title: rcTrackInfo::isEnabled Pages: 1 -->
<!--zoomable 434 -->
<svg id="main" version="1.1" xmlns="http://www.w3.org/2000/svg" xmlns:xlink="http://www.w3.org/1999/xlink" xml:space="preserve" onload="init(evt)">
        <defs>
                <circle id="rim" cx="0" cy="0" r="7"/>
                <circle id="rim2" cx="0" cy="0" r="3.5"/>
                <g id="zoomPlus">
                        <use xlink:href="#rim" fill="#404040">
                                <set attributeName="fill" to="#808080" begin="zoomplus.mouseover" end="zoomplus.mouseout"/>
                        </use>
                        <path d="M-4,0h8M0,-4v8" fill="none" stroke="white" stroke-width="1.5" pointer-events="none"/>
                </g>
                <g id="zoomMin">
                        <use xlink:href="#rim" fill="#404040">
                                <set attributeName="fill" to="#808080" begin="zoomminus.mouseover" end="zoomminus.mouseout"/>
                        </use>
                        <path d="M-4,0h8" fill="none" stroke="white" stroke-width="1.5" pointer-events="none"/>
                </g>
                <g id="dirArrow">
                        <path fill="none" stroke="white" stroke-width="1.5" d="M0,-3.0v7 M-2.5,-0.5L0,-3.0L2.5,-0.5"/>
                </g>
               <g id="resetDef">
                       <use xlink:href="#rim2" fill="#404040">
                               <set attributeName="fill" to="#808080" begin="reset.mouseover" end="reset.mouseout"/>
                       </use>
               </g>
        </defs>

<script type="text/javascript">
var viewWidth = 1460;
var viewHeight = 434;
var sectionId = 'dynsection-2';
</script>
<script xlink:href="svgpan.js"/>
<svg id="graph" class="graph">
<g id="viewport">
<title>rcTrackInfo::isEnabled</title>
<polygon fill="white" stroke="white" points="-4,5 -4,-430 1457,-430 1457,5 -4,5"/>
<!-- Node1 -->
<g id="node1" class="node"><title>Node1</title>
<polygon fill="#bfbfbf" stroke="black" points="0.439453,-221 0.439453,-241 115.561,-241 115.561,-221 0.439453,-221"/>
<text text-anchor="middle" x="58" y="-227" font-family="Helvetica,sans-Serif" font-size="10.00">rcTrackInfo::isEnabled</text>
</g>
<!-- Node2 -->
<g id="node2" class="node"><title>Node2</title>
<g id="a_node2"><a xlink:href="classrc_monitor.html#ace4a868b4792dd9865f2cbd13fac9199" target="_top" xlink:title="rcMonitor::displayTrackFocus">
<polygon fill="white" stroke="black" points="732.888,-285 732.888,-305 879.112,-305 879.112,-285 732.888,-285"/>
<text text-anchor="middle" x="806" y="-291" font-family="Helvetica,sans-Serif" font-size="10.00">rcMonitor::displayTrackFocus</text>
</a>
</g>
</g>
<!-- Node1&#45;&gt;Node2 -->
<g id="edge1" class="edge"><title>Node1&#45;&gt;Node2</title>
<path fill="none" stroke="midnightblue" d="M75.4803,-248.316C92.7504,-265.174 121.562,-289.837 152,-301 374.175,-382.484 448.882,-349.849 684,-323 713.778,-319.6 746.891,-311.637 770.939,-305.069"/>
<polygon fill="midnightblue" stroke="midnightblue" points="77.9284,-245.814 68.3931,-241.196 72.9672,-250.753 77.9284,-245.814"/>
</g>
<!-- Node12 -->
<g id="node12" class="node"><title>Node12</title>
<g id="a_node12"><a xlink:href="classrc_monitor.html#a0a6461095c1b44d7828d6d65b80f6713" target="_top" xlink:title="rcMonitor::gatherDevelopment\lTrackData">
<polygon fill="white" stroke="black" points="152.747,-260 152.747,-292 303.253,-292 303.253,-260 152.747,-260"/>
<text text-anchor="start" x="160.747" y="-278" font-family="Helvetica,sans-Serif" font-size="10.00">rcMonitor::gatherDevelopment</text>
<text text-anchor="middle" x="228" y="-266" font-family="Helvetica,sans-Serif" font-size="10.00">TrackData</text>
</a>
</g>
</g>
<!-- Node1&#45;&gt;Node12 -->
<g id="edge16" class="edge"><title>Node1&#45;&gt;Node12</title>
<path fill="none" stroke="midnightblue" d="M106.515,-243.727C125.313,-248.762 147.135,-254.608 167.002,-259.929"/>
<polygon fill="midnightblue" stroke="midnightblue" points="107.268,-240.305 96.7025,-241.099 105.456,-247.067 107.268,-240.305"/>
</g>
<!-- Node16 -->
<g id="node16" class="node"><title>Node16</title>
<g id="a_node16"><a xlink:href="classrc_monitor.html#ab46f69006978606f59ce3740d45a0fe5" target="_top" xlink:title="rcMonitor::gatherTrackData">
<polygon fill="white" stroke="black" points="159.329,-221 159.329,-241 296.671,-241 296.671,-221 159.329,-221"/>
<text text-anchor="middle" x="228" y="-227" font-family="Helvetica,sans-Serif" font-size="10.00">rcMonitor::gatherTrackData</text>
</a>
</g>
</g>
<!-- Node1&#45;&gt;Node16 -->
<g id="edge22" class="edge"><title>Node1&#45;&gt;Node16</title>
<path fill="none" stroke="midnightblue" d="M126.145,-231C137.006,-231 148.259,-231 159.137,-231"/>
<polygon fill="midnightblue" stroke="midnightblue" points="125.877,-227.5 115.877,-231 125.877,-234.5 125.877,-227.5"/>
</g>
<!-- Node17 -->
<g id="node17" class="node"><title>Node17</title>
<g id="a_node17"><a xlink:href="classrc_track_manager.html#aa92231c2665b519e866898cf221548b9" target="_top" xlink:title="rcTrackManager::hiliteTracks">
<polygon fill="white" stroke="black" points="155.906,-182 155.906,-202 300.094,-202 300.094,-182 155.906,-182"/>
<text text-anchor="middle" x="228" y="-188" font-family="Helvetica,sans-Serif" font-size="10.00">rcTrackManager::hiliteTracks</text>
</a>
</g>
</g>
<!-- Node1&#45;&gt;Node17 -->
<g id="edge24" class="edge"><title>Node1&#45;&gt;Node17</title>
<path fill="none" stroke="midnightblue" d="M112.256,-218.637C135.356,-213.275 162.055,-207.077 183.882,-202.009"/>
<polygon fill="midnightblue" stroke="midnightblue" points="111.214,-215.286 102.264,-220.957 112.797,-222.104 111.214,-215.286"/>
</g>
<!-- Node28 -->
<g id="node28" class="node"><title>Node28</title>
<g id="a_node28"><a xlink:href="classrc_track_render_info.html#aa700c7e14f7b0216faa44df27c3c4b03" target="_top" xlink:title="rcTrackRenderInfo::\lrcTrackRenderInfo">
<polygon fill="white" stroke="black" points="176.001,-131 176.001,-163 279.999,-163 279.999,-131 176.001,-131"/>
<text text-anchor="start" x="184.001" y="-149" font-family="Helvetica,sans-Serif" font-size="10.00">rcTrackRenderInfo::</text>
<text text-anchor="middle" x="228" y="-137" font-family="Helvetica,sans-Serif" font-size="10.00">rcTrackRenderInfo</text>
</a>
</g>
</g>
<!-- Node1&#45;&gt;Node28 -->
<g id="edge37" class="edge"><title>Node1&#45;&gt;Node28</title>
<path fill="none" stroke="midnightblue" d="M81.192,-215.175C99.5446,-202.584 126.621,-185.124 152,-173 159.585,-169.376 167.814,-166.003 175.949,-162.967"/>
<polygon fill="midnightblue" stroke="midnightblue" points="79.1411,-212.338 72.929,-220.921 83.1374,-218.086 79.1411,-212.338"/>
</g>
<!-- Node3 -->
<g id="node3" class="node"><title>Node3</title>
<g id="a_node3"><a xlink:href="classrc_monitor.html#a191fd1af79d5f43582d88755419429ac" target="_top" xlink:title="rcMonitor::internalUpdate\lDisplay">
<polygon fill="white" stroke="black" points="960.862,-278 960.862,-310 1089.14,-310 1089.14,-278 960.862,-278"/>
<text text-anchor="start" x="968.862" y="-296" font-family="Helvetica,sans-Serif" font-size="10.00">rcMonitor::internalUpdate</text>
<text text-anchor="middle" x="1025" y="-284" font-family="Helvetica,sans-Serif" font-size="10.00">Display</text>
</a>
</g>
</g>
<!-- Node2&#45;&gt;Node3 -->
<g id="edge2" class="edge"><title>Node2&#45;&gt;Node3</title>
<path fill="none" stroke="midnightblue" d="M889.289,-294.621C912.982,-294.512 938.449,-294.394 960.793,-294.291"/>
<polygon fill="midnightblue" stroke="midnightblue" points="889.242,-291.121 879.258,-294.667 889.274,-298.121 889.242,-291.121"/>
</g>
<!-- Node4 -->
<g id="node4" class="node"><title>Node4</title>
<g id="a_node4"><a xlink:href="classrc_monitor.html#a365544a05e4cd905f6b9025ccb483117" target="_top" xlink:title="rcMonitor::paintEvent">
<polygon fill="white" stroke="black" points="1178.76,-367 1178.76,-387 1289.24,-387 1289.24,-367 1178.76,-367"/>
<text text-anchor="middle" x="1234" y="-373" font-family="Helvetica,sans-Serif" font-size="10.00">rcMonitor::paintEvent</text>
</a>
</g>
</g>
<!-- Node3&#45;&gt;Node4 -->
<g id="edge3" class="edge"><title>Node3&#45;&gt;Node4</title>
<path fill="none" stroke="midnightblue" d="M1064.56,-314.735C1090.46,-328.073 1125.64,-345.078 1158,-357 1168.12,-360.727 1179.23,-364.077 1189.74,-366.923"/>
<polygon fill="midnightblue" stroke="midnightblue" points="1065.95,-311.512 1055.46,-310.003 1062.72,-317.722 1065.95,-311.512"/>
</g>
<!-- Node5 -->
<g id="node5" class="node"><title>Node5</title>
<g id="a_node5"><a xlink:href="classrc_monitor.html#ad85bf9190c2c9332d24d2ee2dd4c1acf" target="_top" xlink:title="rcMonitor::settingChanged">
<polygon fill="white" stroke="black" points="1167.36,-328 1167.36,-348 1300.64,-348 1300.64,-328 1167.36,-328"/>
<text text-anchor="middle" x="1234" y="-334" font-family="Helvetica,sans-Serif" font-size="10.00">rcMonitor::settingChanged</text>
</a>
</g>
</g>
<!-- Node3&#45;&gt;Node5 -->
<g id="edge4" class="edge"><title>Node3&#45;&gt;Node5</title>
<path fill="none" stroke="midnightblue" d="M1099.26,-309.573C1128.08,-315.698 1160.32,-322.551 1185.92,-327.993"/>
<polygon fill="midnightblue" stroke="midnightblue" points="1099.74,-306.096 1089.23,-307.441 1098.29,-312.943 1099.74,-306.096"/>
</g>
<!-- Node7 -->
<g id="node7" class="node"><title>Node7</title>
<g id="a_node7"><a xlink:href="classrc_monitor.html#ae24f91aee12ee35053a43b405b0fd35c" target="_top" xlink:title="rcMonitor::updateAnalysisRect">
<polygon fill="white" stroke="black" points="1158.19,-160 1158.19,-180 1309.81,-180 1309.81,-160 1158.19,-160"/>
<text text-anchor="middle" x="1234" y="-166" font-family="Helvetica,sans-Serif" font-size="10.00">rcMonitor::updateAnalysisRect</text>
</a>
</g>
</g>
<!-- Node3&#45;&gt;Node7 -->
<g id="edge6" class="edge"><title>Node3&#45;&gt;Node7</title>
<path fill="none" stroke="midnightblue" d="M1049.45,-270.576C1074.35,-246.965 1115.86,-211.087 1158,-190 1166.07,-185.96 1175.06,-182.664 1183.93,-180.001"/>
<polygon fill="midnightblue" stroke="midnightblue" points="1046.74,-268.32 1041.97,-277.776 1051.6,-273.363 1046.74,-268.32"/>
</g>
<!-- Node8 -->
<g id="node8" class="node"><title>Node8</title>
<g id="a_node8"><a xlink:href="classrc_monitor.html#a6d7baed800c04560ee01809b016de702" target="_top" xlink:title="rcMonitor::updateAnalysis\lRectRotation">
<polygon fill="white" stroke="black" points="1168.47,-277 1168.47,-309 1299.53,-309 1299.53,-277 1168.47,-277"/>
<text text-anchor="start" x="1176.47" y="-295" font-family="Helvetica,sans-Serif" font-size="10.00">rcMonitor::updateAnalysis</text>
<text text-anchor="middle" x="1234" y="-283" font-family="Helvetica,sans-Serif" font-size="10.00">RectRotation</text>
</a>
</g>
</g>
<!-- Node3&#45;&gt;Node8 -->
<g id="edge8" class="edge"><title>Node3&#45;&gt;Node8</title>
<path fill="none" stroke="midnightblue" d="M1099.41,-293.645C1121.91,-293.537 1146.5,-293.418 1168.37,-293.312"/>
<polygon fill="midnightblue" stroke="midnightblue" points="1099.21,-290.146 1089.23,-293.695 1099.25,-297.146 1099.21,-290.146"/>
</g>
<!-- Node9 -->
<g id="node9" class="node"><title>Node9</title>
<g id="a_node9"><a xlink:href="classrc_monitor.html#ad8a4152cd70dd9aae4ad045378e26f06" target="_top" xlink:title="rcMonitor::updateCursorTime">
<polygon fill="white" stroke="black" points="1161.16,-238 1161.16,-258 1306.84,-258 1306.84,-238 1161.16,-238"/>
<text text-anchor="middle" x="1234" y="-244" font-family="Helvetica,sans-Serif" font-size="10.00">rcMonitor::updateCursorTime</text>
</a>
</g>
</g>
<!-- Node3&#45;&gt;Node9 -->
<g id="edge10" class="edge"><title>Node3&#45;&gt;Node9</title>
<path fill="none" stroke="midnightblue" d="M1099.11,-277.753C1128.7,-271.178 1161.93,-263.794 1187.88,-258.027"/>
<polygon fill="midnightblue" stroke="midnightblue" points="1098.23,-274.362 1089.23,-279.949 1099.75,-281.196 1098.23,-274.362"/>
</g>
<!-- Node10 -->
<g id="node10" class="node"><title>Node10</title>
<g id="a_node10"><a xlink:href="classrc_monitor.html#ac9231e871ef28821ed1b762eaeca7cfb" target="_top" xlink:title="rcMonitor::updateDisplay">
<polygon fill="white" stroke="black" points="1170.7,-199 1170.7,-219 1297.3,-219 1297.3,-199 1170.7,-199"/>
<text text-anchor="middle" x="1234" y="-205" font-family="Helvetica,sans-Serif" font-size="10.00">rcMonitor::updateDisplay</text>
</a>
</g>
</g>
<!-- Node3&#45;&gt;Node10 -->
<g id="edge12" class="edge"><title>Node3&#45;&gt;Node10</title>
<path fill="none" stroke="midnightblue" d="M1063.47,-273.076C1089.42,-259.205 1125.09,-241.352 1158,-229 1167.97,-225.259 1178.92,-221.922 1189.31,-219.096"/>
<polygon fill="midnightblue" stroke="midnightblue" points="1061.51,-270.158 1054.37,-277.989 1064.83,-276.318 1061.51,-270.158"/>
</g>
<!-- Node11 -->
<g id="node11" class="node"><title>Node11</title>
<g id="a_node11"><a xlink:href="classrc_monitor.html#a86955f05aa2947844ad5d2c924f0558f" target="_top" xlink:title="rcMonitor::updateScale">
<polygon fill="white" stroke="black" points="1174.58,-406 1174.58,-426 1293.42,-426 1293.42,-406 1174.58,-406"/>
<text text-anchor="middle" x="1234" y="-412" font-family="Helvetica,sans-Serif" font-size="10.00">rcMonitor::updateScale</text>
</a>
</g>
</g>
<!-- Node3&#45;&gt;Node11 -->
<g id="edge14" class="edge"><title>Node3&#45;&gt;Node11</title>
<path fill="none" stroke="midnightblue" d="M1049.95,-317.341C1074.97,-340.483 1116.3,-375.38 1158,-396 1166.09,-400.002 1175.09,-403.279 1183.96,-405.937"/>
<polygon fill="midnightblue" stroke="midnightblue" points="1052.11,-314.566 1042.43,-310.273 1047.32,-319.669 1052.11,-314.566"/>
</g>
<!-- Node6 -->
<g id="node6" class="node"><title>Node6</title>
<g id="a_node6"><a xlink:href="classrc_monitor.html#ac08d61628243cd2d0bf2f6388f42995b" target="_top" xlink:title="rcMonitor::rcMonitor">
<polygon fill="white" stroke="black" points="1346.55,-260 1346.55,-280 1451.45,-280 1451.45,-260 1346.55,-260"/>
<text text-anchor="middle" x="1399" y="-266" font-family="Helvetica,sans-Serif" font-size="10.00">rcMonitor::rcMonitor</text>
</a>
</g>
</g>
<!-- Node5&#45;&gt;Node6 -->
<g id="edge5" class="edge"><title>Node5&#45;&gt;Node6</title>
<path fill="none" stroke="midnightblue" d="M1289.2,-325.206C1296.28,-323.053 1303.38,-320.646 1310,-318 1336.5,-307.414 1365.17,-290.692 1382.34,-280.041"/>
<polygon fill="midnightblue" stroke="midnightblue" points="1288.23,-321.844 1279.59,-327.984 1290.17,-328.569 1288.23,-321.844"/>
</g>
<!-- Node7&#45;&gt;Node6 -->
<g id="edge7" class="edge"><title>Node7&#45;&gt;Node6</title>
<path fill="none" stroke="midnightblue" d="M1295.6,-183.417C1300.59,-185.34 1305.46,-187.523 1310,-190 1344.08,-208.583 1375.56,-243.017 1389.89,-259.999"/>
<polygon fill="midnightblue" stroke="midnightblue" points="1296.49,-180.022 1285.9,-180.032 1294.19,-186.631 1296.49,-180.022"/>
</g>
<!-- Node8&#45;&gt;Node6 -->
<g id="edge9" class="edge"><title>Node8&#45;&gt;Node6</title>
<path fill="none" stroke="midnightblue" d="M1310.12,-282.4C1322.39,-280.669 1334.85,-278.911 1346.38,-277.284"/>
<polygon fill="midnightblue" stroke="midnightblue" points="1309.3,-278.981 1299.89,-283.844 1310.28,-285.912 1309.3,-278.981"/>
</g>
<!-- Node9&#45;&gt;Node6 -->
<g id="edge11" class="edge"><title>Node9&#45;&gt;Node6</title>
<path fill="none" stroke="midnightblue" d="M1316.99,-259.066C1327.03,-260.421 1337.06,-261.775 1346.47,-263.045"/>
<polygon fill="midnightblue" stroke="midnightblue" points="1317.35,-255.583 1306.97,-257.714 1316.41,-262.52 1317.35,-255.583"/>
</g>
<!-- Node10&#45;&gt;Node6 -->
<g id="edge13" class="edge"><title>Node10&#45;&gt;Node6</title>
<path fill="none" stroke="midnightblue" d="M1287.69,-221.794C1295.24,-223.991 1302.87,-226.41 1310,-229 1334.4,-237.859 1361.29,-250.896 1378.84,-259.879"/>
<polygon fill="midnightblue" stroke="midnightblue" points="1288.42,-218.364 1277.84,-219.038 1286.53,-225.104 1288.42,-218.364"/>
</g>
<!-- Node11&#45;&gt;Node6 -->
<g id="edge15" class="edge"><title>Node11&#45;&gt;Node6</title>
<path fill="none" stroke="midnightblue" d="M1300.09,-401.844C1303.56,-400.116 1306.89,-398.176 1310,-396 1354.15,-365.085 1383.42,-304.508 1393.8,-280.327"/>
<polygon fill="midnightblue" stroke="midnightblue" points="1298.43,-398.751 1290.65,-405.945 1301.22,-405.171 1298.43,-398.751"/>
</g>
<!-- Node13 -->
<g id="node13" class="node"><title>Node13</title>
<g id="a_node13"><a xlink:href="classrc_monitor.html#a1a030f1c963f968121298bea1fa60321" target="_top" xlink:title="rcMonitor::updateCachedImage">
<polygon fill="white" stroke="black" points="339.961,-243 339.961,-263 496.039,-263 496.039,-243 339.961,-243"/>
<text text-anchor="middle" x="418" y="-249" font-family="Helvetica,sans-Serif" font-size="10.00">rcMonitor::updateCachedImage</text>
</a>
</g>
</g>
<!-- Node12&#45;&gt;Node13 -->
<g id="edge17" class="edge"><title>Node12&#45;&gt;Node13</title>
<path fill="none" stroke="midnightblue" d="M313.237,-265.694C322.095,-264.611 331.07,-263.513 339.842,-262.44"/>
<polygon fill="midnightblue" stroke="midnightblue" points="312.804,-262.221 303.303,-266.91 313.654,-269.169 312.804,-262.221"/>
</g>
<!-- Node13&#45;&gt;Node2 -->
<g id="edge18" class="edge"><title>Node13&#45;&gt;Node2</title>
<path fill="none" stroke="midnightblue" d="M467.705,-240.803C521.41,-229.355 610.015,-216.406 684,-234 725.426,-243.851 768.76,-270.266 790.596,-284.897"/>
<polygon fill="midnightblue" stroke="midnightblue" points="466.783,-237.422 457.769,-242.99 468.288,-244.259 466.783,-237.422"/>
</g>
<!-- Node14 -->
<g id="node14" class="node"><title>Node14</title>
<g id="a_node14"><a xlink:href="classrc_monitor.html#af50b9bec8be3cb25d58629ea722088dc" target="_top" xlink:title="rcMonitor::paintVideoTrack\lFocus">
<polygon fill="white" stroke="black" points="540.525,-282 540.525,-314 675.475,-314 675.475,-282 540.525,-282"/>
<text text-anchor="start" x="548.525" y="-300" font-family="Helvetica,sans-Serif" font-size="10.00">rcMonitor::paintVideoTrack</text>
<text text-anchor="middle" x="608" y="-288" font-family="Helvetica,sans-Serif" font-size="10.00">Focus</text>
</a>
</g>
</g>
<!-- Node13&#45;&gt;Node14 -->
<g id="edge19" class="edge"><title>Node13&#45;&gt;Node14</title>
<path fill="none" stroke="midnightblue" d="M471.059,-265.461C492.458,-270.583 517.504,-276.578 540.227,-282.017"/>
<polygon fill="midnightblue" stroke="midnightblue" points="471.731,-262.023 461.191,-263.099 470.101,-268.831 471.731,-262.023"/>
</g>
<!-- Node15 -->
<g id="node15" class="node"><title>Node15</title>
<g id="a_node15"><a xlink:href="classrc_monitor.html#a127ffb18fd0cc155f5b9d73d76be92b8" target="_top" xlink:title="rcMonitor::updateDisplay">
<polygon fill="white" stroke="black" points="544.697,-243 544.697,-263 671.303,-263 671.303,-243 544.697,-243"/>
<text text-anchor="middle" x="608" y="-249" font-family="Helvetica,sans-Serif" font-size="10.00">rcMonitor::updateDisplay</text>
</a>
</g>
</g>
<!-- Node13&#45;&gt;Node15 -->
<g id="edge21" class="edge"><title>Node13&#45;&gt;Node15</title>
<path fill="none" stroke="midnightblue" d="M506.542,-253C519.404,-253 532.428,-253 544.645,-253"/>
<polygon fill="midnightblue" stroke="midnightblue" points="506.281,-249.5 496.281,-253 506.281,-256.5 506.281,-249.5"/>
</g>
<!-- Node14&#45;&gt;Node2 -->
<g id="edge20" class="edge"><title>Node14&#45;&gt;Node2</title>
<path fill="none" stroke="midnightblue" d="M685.704,-296.826C701.223,-296.588 717.492,-296.339 732.849,-296.104"/>
<polygon fill="midnightblue" stroke="midnightblue" points="685.575,-293.327 675.63,-296.98 685.683,-300.327 685.575,-293.327"/>
</g>
<!-- Node16&#45;&gt;Node13 -->
<g id="edge23" class="edge"><title>Node16&#45;&gt;Node13</title>
<path fill="none" stroke="midnightblue" d="M307.086,-240.138C317.85,-241.397 328.901,-242.691 339.651,-243.949"/>
<polygon fill="midnightblue" stroke="midnightblue" points="307.211,-236.629 296.872,-238.943 306.398,-243.581 307.211,-236.629"/>
</g>
<!-- Node18 -->
<g id="node18" class="node"><title>Node18</title>
<g id="a_node18"><a xlink:href="classrc_track_manager.html#a745168e90647a62f4bb0a1c085079c50" target="_top" xlink:title="rcTrackManager::setTrack\lEnabled">
<polygon fill="white" stroke="black" points="352.019,-102 352.019,-134 483.981,-134 483.981,-102 352.019,-102"/>
<text text-anchor="start" x="360.019" y="-120" font-family="Helvetica,sans-Serif" font-size="10.00">rcTrackManager::setTrack</text>
<text text-anchor="middle" x="418" y="-108" font-family="Helvetica,sans-Serif" font-size="10.00">Enabled</text>
</a>
</g>
</g>
<!-- Node17&#45;&gt;Node18 -->
<g id="edge25" class="edge"><title>Node17&#45;&gt;Node18</title>
<path fill="none" stroke="midnightblue" d="M281.989,-179.188C289.449,-177.003 296.967,-174.593 304,-172 332.969,-161.32 364.568,-145.874 386.967,-134.235"/>
<polygon fill="midnightblue" stroke="midnightblue" points="280.939,-175.847 272.262,-181.926 282.836,-182.585 280.939,-175.847"/>
</g>
<!-- Node19 -->
<g id="node19" class="node"><title>Node19</title>
<g id="a_node19"><a xlink:href="classrc_image_canvas_g_l.html#a85e0b816bc87a7c933361451e7768810" target="_top" xlink:title="rcImageCanvasGL::enableCell\lGroup">
<polygon fill="white" stroke="black" points="531.909,-153 531.909,-185 684.091,-185 684.091,-153 531.909,-153"/>
<text text-anchor="start" x="539.909" y="-171" font-family="Helvetica,sans-Serif" font-size="10.00">rcImageCanvasGL::enableCell</text>
<text text-anchor="middle" x="608" y="-159" font-family="Helvetica,sans-Serif" font-size="10.00">Group</text>
</a>
</g>
</g>
<!-- Node18&#45;&gt;Node19 -->
<g id="edge26" class="edge"><title>Node18&#45;&gt;Node19</title>
<path fill="none" stroke="midnightblue" d="M488.01,-136.721C507.613,-142.039 528.779,-147.781 547.748,-152.926"/>
<polygon fill="midnightblue" stroke="midnightblue" points="488.794,-133.307 478.226,-134.067 486.961,-140.063 488.794,-133.307"/>
</g>
<!-- Node22 -->
<g id="node22" class="node"><title>Node22</title>
<g id="a_node22"><a xlink:href="classrc_scalar_track_widget.html#aec406498f8a4809dbdcf36d8deba3c7a" target="_top" xlink:title="rcScalarTrackWidget\l::setEnabled">
<polygon fill="white" stroke="black" points="553.784,-102 553.784,-134 662.216,-134 662.216,-102 553.784,-102"/>
<text text-anchor="start" x="561.784" y="-120" font-family="Helvetica,sans-Serif" font-size="10.00">rcScalarTrackWidget</text>
<text text-anchor="middle" x="608" y="-108" font-family="Helvetica,sans-Serif" font-size="10.00">::setEnabled</text>
</a>
</g>
</g>
<!-- Node18&#45;&gt;Node22 -->
<g id="edge30" class="edge"><title>Node18&#45;&gt;Node22</title>
<path fill="none" stroke="midnightblue" d="M494.476,-118C514.315,-118 535.301,-118 553.706,-118"/>
<polygon fill="midnightblue" stroke="midnightblue" points="494.226,-114.5 484.226,-118 494.226,-121.5 494.226,-114.5"/>
</g>
<!-- Node24 -->
<g id="node24" class="node"><title>Node24</title>
<g id="a_node24"><a xlink:href="classrc_track_group_widget.html#acd0f4f43430b7dc7130b6ef6dc3e2b6c" target="_top" xlink:title="rcTrackGroupWidget\l::setEnabled">
<polygon fill="white" stroke="black" points="554.06,-51 554.06,-83 661.94,-83 661.94,-51 554.06,-51"/>
<text text-anchor="start" x="562.06" y="-69" font-family="Helvetica,sans-Serif" font-size="10.00">rcTrackGroupWidget</text>
<text text-anchor="middle" x="608" y="-57" font-family="Helvetica,sans-Serif" font-size="10.00">::setEnabled</text>
</a>
</g>
</g>
<!-- Node18&#45;&gt;Node24 -->
<g id="edge32" class="edge"><title>Node18&#45;&gt;Node24</title>
<path fill="none" stroke="midnightblue" d="M488.047,-99.2693C509.753,-93.3809 533.373,-86.9733 553.803,-81.4312"/>
<polygon fill="midnightblue" stroke="midnightblue" points="486.961,-95.9372 478.226,-101.933 488.794,-102.693 486.961,-95.9372"/>
</g>
<!-- Node27 -->
<g id="node27" class="node"><title>Node27</title>
<g id="a_node27"><a xlink:href="classrc_track_manager.html#ae1a5729f27c156a3905d302bce2c475c" target="_top" xlink:title="rcTrackManager::setTrack\lEnabled">
<polygon fill="white" stroke="black" points="542.019,-0 542.019,-32 673.981,-32 673.981,-0 542.019,-0"/>
<text text-anchor="start" x="550.019" y="-18" font-family="Helvetica,sans-Serif" font-size="10.00">rcTrackManager::setTrack</text>
<text text-anchor="middle" x="608" y="-6" font-family="Helvetica,sans-Serif" font-size="10.00">Enabled</text>
</a>
</g>
</g>
<!-- Node18&#45;&gt;Node27 -->
<g id="edge36" class="edge"><title>Node18&#45;&gt;Node27</title>
<path fill="none" stroke="midnightblue" d="M447.126,-95.5814C469.205,-78.8083 501.254,-56.2312 532,-41 538.518,-37.7709 545.552,-34.8073 552.609,-32.1377"/>
<polygon fill="midnightblue" stroke="midnightblue" points="444.967,-92.8264 439.175,-101.698 449.235,-98.3744 444.967,-92.8264"/>
</g>
<!-- Node20 -->
<g id="node20" class="node"><title>Node20</title>
<g id="a_node20"><a xlink:href="classrc_image_canvas_g_l.html#acb25a27713e20842e6bb0a741570480b" target="_top" xlink:title="rcImageCanvasGL::mouseRelease\lEvent">
<polygon fill="white" stroke="black" points="720.185,-198 720.185,-230 891.815,-230 891.815,-198 720.185,-198"/>
<text text-anchor="start" x="728.185" y="-216" font-family="Helvetica,sans-Serif" font-size="10.00">rcImageCanvasGL::mouseRelease</text>
<text text-anchor="middle" x="806" y="-204" font-family="Helvetica,sans-Serif" font-size="10.00">Event</text>
</a>
</g>
</g>
<!-- Node19&#45;&gt;Node20 -->
<g id="edge27" class="edge"><title>Node19&#45;&gt;Node20</title>
<path fill="none" stroke="midnightblue" d="M688.889,-187.342C704.203,-190.858 720.127,-194.514 735.097,-197.951"/>
<polygon fill="midnightblue" stroke="midnightblue" points="689.46,-183.882 678.93,-185.055 687.894,-190.704 689.46,-183.882"/>
</g>
<!-- Node21 -->
<g id="node21" class="node"><title>Node21</title>
<g id="a_node21"><a xlink:href="classrc_image_canvas_g_l.html#a99a6568df0e15227de9062331e1f2e0b" target="_top" xlink:title="rcImageCanvasGL::updateAnalysisRect">
<polygon fill="white" stroke="black" points="928.345,-159 928.345,-179 1121.65,-179 1121.65,-159 928.345,-159"/>
<text text-anchor="middle" x="1025" y="-165" font-family="Helvetica,sans-Serif" font-size="10.00">rcImageCanvasGL::updateAnalysisRect</text>
</a>
</g>
</g>
<!-- Node19&#45;&gt;Node21 -->
<g id="edge28" class="edge"><title>Node19&#45;&gt;Node21</title>
<path fill="none" stroke="midnightblue" d="M694.407,-169C762.429,-169 857.62,-169 928.223,-169"/>
<polygon fill="midnightblue" stroke="midnightblue" points="694.153,-165.5 684.153,-169 694.153,-172.5 694.153,-165.5"/>
</g>
<!-- Node21&#45;&gt;Node7 -->
<g id="edge29" class="edge"><title>Node21&#45;&gt;Node7</title>
<path fill="none" stroke="midnightblue" d="M1132.21,-169.513C1140.97,-169.555 1149.7,-169.598 1158.16,-169.638"/>
<polygon fill="midnightblue" stroke="midnightblue" points="1131.94,-166.012 1121.93,-169.463 1131.91,-173.012 1131.94,-166.012"/>
</g>
<!-- Node23 -->
<g id="node23" class="node"><title>Node23</title>
<g id="a_node23"><a xlink:href="classrc_scalar_track_widget.html#afc60cc8a08bd8f16560757beef569858" target="_top" xlink:title="rcScalarTrackWidget\l::rcScalarTrackWidget">
<polygon fill="white" stroke="black" points="749.006,-102 749.006,-134 862.994,-134 862.994,-102 749.006,-102"/>
<text text-anchor="start" x="757.006" y="-120" font-family="Helvetica,sans-Serif" font-size="10.00">rcScalarTrackWidget</text>
<text text-anchor="middle" x="806" y="-108" font-family="Helvetica,sans-Serif" font-size="10.00">::rcScalarTrackWidget</text>
</a>
</g>
</g>
<!-- Node22&#45;&gt;Node23 -->
<g id="edge31" class="edge"><title>Node22&#45;&gt;Node23</title>
<path fill="none" stroke="midnightblue" d="M672.62,-118C697.224,-118 725.14,-118 748.972,-118"/>
<polygon fill="midnightblue" stroke="midnightblue" points="672.299,-114.5 662.299,-118 672.299,-121.5 672.299,-114.5"/>
</g>
<!-- Node25 -->
<g id="node25" class="node"><title>Node25</title>
<g id="a_node25"><a xlink:href="classrc_track_group_widget.html#ad61eb6b64b90a1f10be6562ae339923b" target="_top" xlink:title="rcTrackGroupWidget\l::rcTrackGroupWidget">
<polygon fill="white" stroke="black" points="968.282,-32 968.282,-64 1081.72,-64 1081.72,-32 968.282,-32"/>
<text text-anchor="start" x="976.282" y="-50" font-family="Helvetica,sans-Serif" font-size="10.00">rcTrackGroupWidget</text>
<text text-anchor="middle" x="1025" y="-38" font-family="Helvetica,sans-Serif" font-size="10.00">::rcTrackGroupWidget</text>
</a>
</g>
</g>
<!-- Node24&#45;&gt;Node25 -->
<g id="edge33" class="edge"><title>Node24&#45;&gt;Node25</title>
<path fill="none" stroke="midnightblue" d="M671.997,-64.1158C752.594,-60.4258 890.961,-54.0909 968.025,-50.5627"/>
<polygon fill="midnightblue" stroke="midnightblue" points="671.811,-60.6206 661.982,-64.5743 672.131,-67.6132 671.811,-60.6206"/>
</g>
<!-- Node26 -->
<g id="node26" class="node"><title>Node26</title>
<g id="a_node26"><a xlink:href="classrc_track_group_widget.html#a921fe29cf7f76be8059df16a50f4f318" target="_top" xlink:title="rcTrackGroupWidget\l::updateSettings">
<polygon fill="white" stroke="black" points="752.06,-9 752.06,-41 859.94,-41 859.94,-9 752.06,-9"/>
<text text-anchor="start" x="760.06" y="-27" font-family="Helvetica,sans-Serif" font-size="10.00">rcTrackGroupWidget</text>
<text text-anchor="middle" x="806" y="-15" font-family="Helvetica,sans-Serif" font-size="10.00">::updateSettings</text>
</a>
</g>
</g>
<!-- Node24&#45;&gt;Node26 -->
<g id="edge34" class="edge"><title>Node24&#45;&gt;Node26</title>
<path fill="none" stroke="midnightblue" d="M672.081,-53.4827C697.835,-47.9639 727.291,-41.652 751.917,-36.3749"/>
<polygon fill="midnightblue" stroke="midnightblue" points="671.085,-50.1165 662.04,-55.6342 672.552,-56.9611 671.085,-50.1165"/>
</g>
<!-- Node26&#45;&gt;Node25 -->
<g id="edge35" class="edge"><title>Node26&#45;&gt;Node25</title>
<path fill="none" stroke="midnightblue" d="M870.328,-31.7122C901.265,-34.9913 938.167,-38.9025 968.054,-42.0703"/>
<polygon fill="midnightblue" stroke="midnightblue" points="870.397,-28.2 860.084,-30.6264 869.66,-35.161 870.397,-28.2"/>
</g>
</g>
</svg>
        <g id="navigator" transform="translate(0 0)" fill="#404254">
                <rect fill="#f2f5e9" fill-opacity="0.5" stroke="#606060" stroke-width=".5" x="0" y="0" width="60" height="60"/>
                <use id="zoomplus" xlink:href="#zoomPlus" x="17" y="9" onmousedown="handleZoom(evt,'in')"/>
                <use id="zoomminus" xlink:href="#zoomMin" x="42" y="9" onmousedown="handleZoom(evt,'out')"/>
                <use id="reset" xlink:href="#resetDef" x="30" y="36" onmousedown="handleReset()"/>
                <g id="arrowUp" xlink:href="#dirArrow" transform="translate(30 24)" onmousedown="handlePan(0,-1)">
                  <use xlink:href="#rim" fill="#404040">
                        <set attributeName="fill" to="#808080" begin="arrowUp.mouseover" end="arrowUp.mouseout"/>
                  </use>
                  <path fill="none" stroke="white" stroke-width="1.5" d="M0,-3.0v7 M-2.5,-0.5L0,-3.0L2.5,-0.5"/>
                </g>
                <g id="arrowRight" xlink:href="#dirArrow" transform="rotate(90) translate(36 -43)" onmousedown="handlePan(1,0)">
                  <use xlink:href="#rim" fill="#404040">
                        <set attributeName="fill" to="#808080" begin="arrowRight.mouseover" end="arrowRight.mouseout"/>
                  </use>
                  <path fill="none" stroke="white" stroke-width="1.5" d="M0,-3.0v7 M-2.5,-0.5L0,-3.0L2.5,-0.5"/>
                </g>
                <g id="arrowDown" xlink:href="#dirArrow" transform="rotate(180) translate(-30 -48)" onmousedown="handlePan(0,1)">
                  <use xlink:href="#rim" fill="#404040">
                        <set attributeName="fill" to="#808080" begin="arrowDown.mouseover" end="arrowDown.mouseout"/>
                  </use>
                  <path fill="none" stroke="white" stroke-width="1.5" d="M0,-3.0v7 M-2.5,-0.5L0,-3.0L2.5,-0.5"/>
                </g>
                <g id="arrowLeft" xlink:href="#dirArrow" transform="rotate(270) translate(-36 17)" onmousedown="handlePan(-1,0)">
                  <use xlink:href="#rim" fill="#404040">
                        <set attributeName="fill" to="#808080" begin="arrowLeft.mouseover" end="arrowLeft.mouseout"/>
                  </use>
                  <path fill="none" stroke="white" stroke-width="1.5" d="M0,-3.0v7 M-2.5,-0.5L0,-3.0L2.5,-0.5"/>
                </g>
        </g>
        <svg viewBox="0 0 15 15" width="100%" height="30px" preserveAspectRatio="xMaxYMin meet">
         <g id="arrow_out" transform="scale(0.3 0.3)">
          <a xlink:href="classrc_track_info_a6550793c7aced6ed00bc9c0ab6a453b6_icgraph_org.svg" target="_base">
           <rect id="button" ry="5" rx="5" y="6" x="6" height="38" width="38"
                fill="#f2f5e9" fill-opacity="0.5" stroke="#606060" stroke-width="1.0"/>
           <path id="arrow"
             d="M 11.500037,31.436501 C 11.940474,20.09759 22.043105,11.32322 32.158766,21.979434 L 37.068811,17.246167 C 37.068811,17.246167 37.088388,32 37.088388,32 L 22.160133,31.978069 C 22.160133,31.978069 26.997745,27.140456 26.997745,27.140456 C 18.528582,18.264221 13.291696,25.230495 11.500037,31.436501 z"
             style="fill:#404040;"/>
          </a>
         </g>
        </svg>
</svg>
