<?xml version="1.0" encoding="UTF-8" standalone="no"?>
<!DOCTYPE svg PUBLIC "-//W3C//DTD SVG 1.1//EN"
 "http://www.w3.org/Graphics/SVG/1.1/DTD/svg11.dtd">
<!-- Generated by graphviz version 2.32.0 (20130916.1925)
 -->
<!-- Title: rcMutualInfoGrouping::rcMutualInfoGrouping Pages: 1 -->
<!--zoomable 534 -->
<svg id="main" version="1.1" xmlns="http://www.w3.org/2000/svg" xmlns:xlink="http://www.w3.org/1999/xlink" xml:space="preserve" onload="init(evt)">
        <defs>
                <circle id="rim" cx="0" cy="0" r="7"/>
                <circle id="rim2" cx="0" cy="0" r="3.5"/>
                <g id="zoomPlus">
                        <use xlink:href="#rim" fill="#404040">
                                <set attributeName="fill" to="#808080" begin="zoomplus.mouseover" end="zoomplus.mouseout"/>
                        </use>
                        <path d="M-4,0h8M0,-4v8" fill="none" stroke="white" stroke-width="1.5" pointer-events="none"/>
                </g>
                <g id="zoomMin">
                        <use xlink:href="#rim" fill="#404040">
                                <set attributeName="fill" to="#808080" begin="zoomminus.mouseover" end="zoomminus.mouseout"/>
                        </use>
                        <path d="M-4,0h8" fill="none" stroke="white" stroke-width="1.5" pointer-events="none"/>
                </g>
                <g id="dirArrow">
                        <path fill="none" stroke="white" stroke-width="1.5" d="M0,-3.0v7 M-2.5,-0.5L0,-3.0L2.5,-0.5"/>
                </g>
               <g id="resetDef">
                       <use xlink:href="#rim2" fill="#404040">
                               <set attributeName="fill" to="#808080" begin="reset.mouseover" end="reset.mouseout"/>
                       </use>
               </g>
        </defs>

<script type="text/javascript">
var viewWidth = 1016;
var viewHeight = 534;
var sectionId = 'dynsection-2';
</script>
<script xlink:href="svgpan.js"/>
<svg id="graph" class="graph">
<g id="viewport">
<title>rcMutualInfoGrouping::rcMutualInfoGrouping</title>
<polygon fill="white" stroke="white" points="-4,5 -4,-530 1013,-530 1013,5 -4,5"/>
<!-- Node1 -->
<g id="node1" class="node"><title>Node1</title>
<polygon fill="#bfbfbf" stroke="black" points="0.140625,-213 0.140625,-245 117.859,-245 117.859,-213 0.140625,-213"/>
<text text-anchor="start" x="8.14062" y="-231" font-family="Helvetica,sans-Serif" font-size="10.00">rcMutualInfoGrouping</text>
<text text-anchor="middle" x="59" y="-219" font-family="Helvetica,sans-Serif" font-size="10.00">::rcMutualInfoGrouping</text>
</g>
<!-- Node2 -->
<g id="node2" class="node"><title>Node2</title>
<g id="a_node2"><a xlink:href="classrc_segmentation_level.html#ae864325a48b7a67fed071e39e017ed7a" target="_top" xlink:title="rcSegmentationLevel\l::binaryImage">
<polygon fill="white" stroke="black" points="159.027,-342 159.027,-374 268.973,-374 268.973,-342 159.027,-342"/>
<text text-anchor="start" x="167.027" y="-360" font-family="Helvetica,sans-Serif" font-size="10.00">rcSegmentationLevel</text>
<text text-anchor="middle" x="214" y="-348" font-family="Helvetica,sans-Serif" font-size="10.00">::binaryImage</text>
</a>
</g>
</g>
<!-- Node1&#45;&gt;Node2 -->
<g id="edge1" class="edge"><title>Node1&#45;&gt;Node2</title>
<path fill="none" stroke="midnightblue" d="M71.3884,-245.229C87.5867,-267.329 119.201,-306.996 154,-332 156.466,-333.772 159.071,-335.46 161.759,-337.062"/>
<polygon fill="midnightblue" stroke="midnightblue" points="160.104,-340.146 170.556,-341.886 163.47,-334.009 160.104,-340.146"/>
</g>
<!-- Node3 -->
<g id="node3" class="node"><title>Node3</title>
<g id="a_node3"><a xlink:href="textio_8cpp.html#a905a4c61e365d406069f00eb68db1ca5" target="_top" xlink:title="endl">
<polygon fill="white" stroke="black" points="196.547,-303 196.547,-323 231.453,-323 231.453,-303 196.547,-303"/>
<text text-anchor="middle" x="214" y="-309" font-family="Helvetica,sans-Serif" font-size="10.00">endl</text>
</a>
</g>
</g>
<!-- Node1&#45;&gt;Node3 -->
<g id="edge2" class="edge"><title>Node1&#45;&gt;Node3</title>
<path fill="none" stroke="midnightblue" d="M80.2758,-245.202C98.6684,-259.299 126.964,-279.528 154,-293 164.31,-298.137 176.252,-302.462 186.685,-305.76"/>
<polygon fill="midnightblue" stroke="midnightblue" points="185.914,-309.183 196.498,-308.709 187.929,-302.479 185.914,-309.183"/>
</g>
<!-- Node15 -->
<g id="node15" class="node"><title>Node15</title>
<g id="a_node15"><a xlink:href="classrc_histo_stats.html#abb41ef48d63f9e4fe676ac072c20737a" target="_top" xlink:title="rcHistoStats::histogram">
<polygon fill="white" stroke="black" points="154.318,-264 154.318,-284 273.682,-284 273.682,-264 154.318,-264"/>
<text text-anchor="middle" x="214" y="-270" font-family="Helvetica,sans-Serif" font-size="10.00">rcHistoStats::histogram</text>
</a>
</g>
</g>
<!-- Node1&#45;&gt;Node15 -->
<g id="edge14" class="edge"><title>Node1&#45;&gt;Node15</title>
<path fill="none" stroke="midnightblue" d="M114.804,-245.119C132.58,-250.347 152.06,-256.077 168.95,-261.044"/>
<polygon fill="midnightblue" stroke="midnightblue" points="167.981,-264.407 178.563,-263.871 169.956,-257.692 167.981,-264.407"/>
</g>
<!-- Node16 -->
<g id="node16" class="node"><title>Node16</title>
<g id="a_node16"><a xlink:href="classrc_segmentation_level.html#aaaad8b63b26002e905f659f99450e609" target="_top" xlink:title="rcSegmentationLevel\l::results">
<polygon fill="white" stroke="black" points="159.027,-213 159.027,-245 268.973,-245 268.973,-213 159.027,-213"/>
<text text-anchor="start" x="167.027" y="-231" font-family="Helvetica,sans-Serif" font-size="10.00">rcSegmentationLevel</text>
<text text-anchor="middle" x="214" y="-219" font-family="Helvetica,sans-Serif" font-size="10.00">::results</text>
</a>
</g>
</g>
<!-- Node1&#45;&gt;Node16 -->
<g id="edge15" class="edge"><title>Node1&#45;&gt;Node16</title>
<path fill="none" stroke="midnightblue" d="M118.279,-229C128.286,-229 138.735,-229 148.885,-229"/>
<polygon fill="midnightblue" stroke="midnightblue" points="148.908,-232.5 158.908,-229 148.908,-225.5 148.908,-232.5"/>
</g>
<!-- Node17 -->
<g id="node17" class="node"><title>Node17</title>
<g id="a_node17"><a xlink:href="rc__median_8cpp.html#a495e59a07b11b417a00198c9900654fe" target="_top" xlink:title="rfMedian">
<polygon fill="white" stroke="black" points="186.547,-174 186.547,-194 241.453,-194 241.453,-174 186.547,-174"/>
<text text-anchor="middle" x="214" y="-180" font-family="Helvetica,sans-Serif" font-size="10.00">rfMedian</text>
</a>
</g>
</g>
<!-- Node1&#45;&gt;Node17 -->
<g id="edge16" class="edge"><title>Node1&#45;&gt;Node17</title>
<path fill="none" stroke="midnightblue" d="M114.804,-212.881C135.351,-206.838 158.174,-200.125 176.642,-194.693"/>
<polygon fill="midnightblue" stroke="midnightblue" points="177.806,-197.999 186.412,-191.82 175.831,-191.284 177.806,-197.999"/>
</g>
<!-- Node31 -->
<g id="node31" class="node"><title>Node31</title>
<g id="a_node31"><a xlink:href="classrc_level_sets.html#a708906a433a4888f26888ba11760aa5c" target="_top" xlink:title="rcLevelSets::threshold">
<polygon fill="white" stroke="black" points="310.53,-78 310.53,-98 425.47,-98 425.47,-78 310.53,-78"/>
<text text-anchor="middle" x="368" y="-84" font-family="Helvetica,sans-Serif" font-size="10.00">rcLevelSets::threshold</text>
</a>
</g>
</g>
<!-- Node1&#45;&gt;Node31 -->
<g id="edge33" class="edge"><title>Node1&#45;&gt;Node31</title>
<path fill="none" stroke="midnightblue" d="M79.9279,-212.907C98.3177,-198.633 126.811,-177.943 154,-164 208.566,-136.017 275.835,-113.89 319.996,-100.889"/>
<polygon fill="midnightblue" stroke="midnightblue" points="320.977,-104.249 329.603,-98.0973 319.024,-97.5266 320.977,-104.249"/>
</g>
<!-- Node32 -->
<g id="node32" class="node"><title>Node32</title>
<g id="a_node32"><a xlink:href="classrc_level_sets.html#a60d23979e3807f0f6ccf81d8eeb003d0" target="_top" xlink:title="rcLevelSets::update">
<polygon fill="white" stroke="black" points="161.806,-58 161.806,-78 266.194,-78 266.194,-58 161.806,-58"/>
<text text-anchor="middle" x="214" y="-64" font-family="Helvetica,sans-Serif" font-size="10.00">rcLevelSets::update</text>
</a>
</g>
</g>
<!-- Node1&#45;&gt;Node32 -->
<g id="edge34" class="edge"><title>Node1&#45;&gt;Node32</title>
<path fill="none" stroke="midnightblue" d="M67.302,-212.968C80.7463,-185.058 111.935,-127.254 154,-93 159.038,-88.8972 164.849,-85.3653 170.817,-82.3572"/>
<polygon fill="midnightblue" stroke="midnightblue" points="172.594,-85.3931 180.236,-78.0547 169.686,-79.0258 172.594,-85.3931"/>
</g>
<!-- Node4 -->
<g id="node4" class="node"><title>Node4</title>
<g id="a_node4"><a xlink:href="classotext.html#a5086c0fd5e3f551eae3027e5d23d3c30" target="_top" xlink:title="otext::put">
<polygon fill="white" stroke="black" points="339.431,-389 339.431,-409 396.569,-409 396.569,-389 339.431,-389"/>
<text text-anchor="middle" x="368" y="-395" font-family="Helvetica,sans-Serif" font-size="10.00">otext::put</text>
</a>
</g>
</g>
<!-- Node3&#45;&gt;Node4 -->
<g id="edge3" class="edge"><title>Node3&#45;&gt;Node4</title>
<path fill="none" stroke="midnightblue" d="M231.566,-316.847C243.701,-320.016 260.362,-325.108 274,-332 301.321,-345.807 329.387,-367.212 347.439,-382.1"/>
<polygon fill="midnightblue" stroke="midnightblue" points="345.539,-385.075 355.449,-388.822 350.039,-379.713 345.539,-385.075"/>
</g>
<!-- Node5 -->
<g id="node5" class="node"><title>Node5</title>
<g id="a_node5"><a xlink:href="classotext.html#ab52b059090ba70eeeac469f9051d3a22" target="_top" xlink:title="otext::flush">
<polygon fill="white" stroke="black" points="486.82,-389 486.82,-409 551.18,-409 551.18,-389 486.82,-389"/>
<text text-anchor="middle" x="519" y="-395" font-family="Helvetica,sans-Serif" font-size="10.00">otext::flush</text>
</a>
</g>
</g>
<!-- Node4&#45;&gt;Node5 -->
<g id="edge4" class="edge"><title>Node4&#45;&gt;Node5</title>
<path fill="none" stroke="midnightblue" d="M396.677,-399C419.089,-399 451.009,-399 476.483,-399"/>
<polygon fill="midnightblue" stroke="midnightblue" points="476.604,-402.5 486.604,-399 476.604,-395.5 476.604,-402.5"/>
</g>
<!-- Node7 -->
<g id="node7" class="node"><title>Node7</title>
<g id="a_node7"><a xlink:href="classobuff.html#a069bcd2767c0d7c8e2bc8cd26d91e267" target="_top" xlink:title="obuff::increment">
<polygon fill="white" stroke="black" points="475.236,-350 475.236,-370 562.764,-370 562.764,-350 475.236,-350"/>
<text text-anchor="middle" x="519" y="-356" font-family="Helvetica,sans-Serif" font-size="10.00">obuff::increment</text>
</a>
</g>
</g>
<!-- Node4&#45;&gt;Node7 -->
<g id="edge6" class="edge"><title>Node4&#45;&gt;Node7</title>
<path fill="none" stroke="midnightblue" d="M396.677,-391.756C417.166,-386.393 445.601,-378.95 469.793,-372.618"/>
<polygon fill="midnightblue" stroke="midnightblue" points="470.731,-375.99 479.519,-370.072 468.959,-369.218 470.731,-375.99"/>
</g>
<!-- Node8 -->
<g id="node8" class="node"><title>Node8</title>
<g id="a_node8"><a xlink:href="classobuff.html#a51efd4e8e00303842fa762940aad86ec" target="_top" xlink:title="obuff::line_buffer">
<polygon fill="white" stroke="black" points="473.927,-311 473.927,-331 564.073,-331 564.073,-311 473.927,-311"/>
<text text-anchor="middle" x="519" y="-317" font-family="Helvetica,sans-Serif" font-size="10.00">obuff::line_buffer</text>
</a>
</g>
</g>
<!-- Node4&#45;&gt;Node8 -->
<g id="edge7" class="edge"><title>Node4&#45;&gt;Node8</title>
<path fill="none" stroke="midnightblue" d="M382.579,-388.918C400.179,-376.201 432.16,-354.276 462,-340 466.016,-338.079 470.278,-336.264 474.587,-334.573"/>
<polygon fill="midnightblue" stroke="midnightblue" points="475.858,-337.835 484.02,-331.08 473.427,-331.271 475.858,-337.835"/>
</g>
<!-- Node9 -->
<g id="node9" class="node"><title>Node9</title>
<g id="a_node9"><a xlink:href="classobuff.html#a0711113beee11f9793f5ba9e8e64c641" target="_top" xlink:title="obuff::newline_mode">
<polygon fill="white" stroke="black" points="464.945,-506 464.945,-526 573.055,-526 573.055,-506 464.945,-506"/>
<text text-anchor="middle" x="519" y="-512" font-family="Helvetica,sans-Serif" font-size="10.00">obuff::newline_mode</text>
</a>
</g>
</g>
<!-- Node4&#45;&gt;Node9 -->
<g id="edge8" class="edge"><title>Node4&#45;&gt;Node9</title>
<path fill="none" stroke="midnightblue" d="M376.258,-409.285C390.54,-428.82 424.208,-471.523 462,-496 465.317,-498.148 468.894,-500.101 472.58,-501.87"/>
<polygon fill="midnightblue" stroke="midnightblue" points="471.309,-505.133 481.877,-505.89 474.087,-498.708 471.309,-505.133"/>
</g>
<!-- Node10 -->
<g id="node10" class="node"><title>Node10</title>
<g id="a_node10"><a xlink:href="classobuff.html#a5bbb61ac15c672da7f7b2002bef6b128" target="_top" xlink:title="obuff::put">
<polygon fill="white" stroke="black" points="490.238,-467 490.238,-487 547.762,-487 547.762,-467 490.238,-467"/>
<text text-anchor="middle" x="519" y="-473" font-family="Helvetica,sans-Serif" font-size="10.00">obuff::put</text>
</a>
</g>
</g>
<!-- Node4&#45;&gt;Node10 -->
<g id="edge9" class="edge"><title>Node4&#45;&gt;Node10</title>
<path fill="none" stroke="midnightblue" d="M382.95,-409.035C400.681,-421.469 432.534,-442.754 462,-457 467.855,-459.831 474.22,-462.48 480.49,-464.865"/>
<polygon fill="midnightblue" stroke="midnightblue" points="479.581,-468.258 490.175,-468.383 481.971,-461.679 479.581,-468.258"/>
</g>
<!-- Node11 -->
<g id="node11" class="node"><title>Node11</title>
<g id="a_node11"><a xlink:href="classotext.html#a2a2435d80cce60cb88360c7bfe3f8445" target="_top" xlink:title="otext::set_error">
<polygon fill="white" stroke="black" points="477.375,-428 477.375,-448 560.625,-448 560.625,-428 477.375,-428"/>
<text text-anchor="middle" x="519" y="-434" font-family="Helvetica,sans-Serif" font-size="10.00">otext::set_error</text>
</a>
</g>
</g>
<!-- Node4&#45;&gt;Node11 -->
<g id="edge10" class="edge"><title>Node4&#45;&gt;Node11</title>
<path fill="none" stroke="midnightblue" d="M396.677,-406.244C417.166,-411.607 445.601,-419.05 469.793,-425.382"/>
<polygon fill="midnightblue" stroke="midnightblue" points="468.959,-428.782 479.519,-427.928 470.731,-422.01 468.959,-428.782"/>
</g>
<!-- Node6 -->
<g id="node6" class="node"><title>Node6</title>
<g id="a_node6"><a xlink:href="classobuff.html#a8fb8969c450f4fdc037f8c51d35c87c7" target="_top" xlink:title="obuff::flush">
<polygon fill="white" stroke="black" points="633.627,-389 633.627,-409 698.373,-409 698.373,-389 633.627,-389"/>
<text text-anchor="middle" x="666" y="-395" font-family="Helvetica,sans-Serif" font-size="10.00">obuff::flush</text>
</a>
</g>
</g>
<!-- Node5&#45;&gt;Node6 -->
<g id="edge5" class="edge"><title>Node5&#45;&gt;Node6</title>
<path fill="none" stroke="midnightblue" d="M551.463,-399C572.554,-399 600.554,-399 623.47,-399"/>
<polygon fill="midnightblue" stroke="midnightblue" points="623.599,-402.5 633.599,-399 623.599,-395.5 623.599,-402.5"/>
</g>
<!-- Node12 -->
<g id="node12" class="node"><title>Node12</title>
<g id="a_node12"><a xlink:href="classobuff.html#ae388e9608d1c873d1feaf621f4044c25" target="_top" xlink:title="obuff::set_error">
<polygon fill="white" stroke="black" points="624.182,-428 624.182,-448 707.818,-448 707.818,-428 624.182,-428"/>
<text text-anchor="middle" x="666" y="-434" font-family="Helvetica,sans-Serif" font-size="10.00">obuff::set_error</text>
</a>
</g>
</g>
<!-- Node11&#45;&gt;Node12 -->
<g id="edge11" class="edge"><title>Node11&#45;&gt;Node12</title>
<path fill="none" stroke="midnightblue" d="M560.776,-438C577.302,-438 596.566,-438 614.005,-438"/>
<polygon fill="midnightblue" stroke="midnightblue" points="614.027,-441.5 624.027,-438 614.027,-434.5 614.027,-441.5"/>
</g>
<!-- Node13 -->
<g id="node13" class="node"><title>Node13</title>
<g id="a_node13"><a xlink:href="class_t_c_p__client__data.html#a970f6bf6bb6e6166615813c5f7768381" target="_top" xlink:title="TCP_client_data::error">
<polygon fill="white" stroke="black" points="756.7,-428 756.7,-448 873.3,-448 873.3,-428 756.7,-428"/>
<text text-anchor="middle" x="815" y="-434" font-family="Helvetica,sans-Serif" font-size="10.00">TCP_client_data::error</text>
</a>
</g>
</g>
<!-- Node12&#45;&gt;Node13 -->
<g id="edge12" class="edge"><title>Node12&#45;&gt;Node13</title>
<path fill="none" stroke="midnightblue" d="M707.948,-438C719.813,-438 733.096,-438 746.141,-438"/>
<polygon fill="midnightblue" stroke="midnightblue" points="746.52,-441.5 756.52,-438 746.52,-434.5 746.52,-441.5"/>
</g>
<!-- Node14 -->
<g id="node14" class="node"><title>Node14</title>
<g id="a_node14"><a xlink:href="class_t_c_p__socket.html#adb70059ca46476efe0ced51ed377a975" target="_top" xlink:title="TCP_socket::error">
<polygon fill="white" stroke="black" points="910.434,-428 910.434,-448 1007.57,-448 1007.57,-428 910.434,-428"/>
<text text-anchor="middle" x="959" y="-434" font-family="Helvetica,sans-Serif" font-size="10.00">TCP_socket::error</text>
</a>
</g>
</g>
<!-- Node13&#45;&gt;Node14 -->
<g id="edge13" class="edge"><title>Node13&#45;&gt;Node14</title>
<path fill="none" stroke="midnightblue" d="M873.348,-438C882.089,-438 891.117,-438 899.875,-438"/>
<polygon fill="midnightblue" stroke="midnightblue" points="899.998,-441.5 909.998,-438 899.998,-434.5 899.998,-441.5"/>
</g>
<!-- Node18 -->
<g id="node18" class="node"><title>Node18</title>
<g id="a_node18"><a xlink:href="classrc_window.html#a958e7e0bd74b12cbcb44e73a2692400a" target="_top" xlink:title="rcWindow::height">
<polygon fill="white" stroke="black" points="472.65,-272 472.65,-292 565.35,-292 565.35,-272 472.65,-272"/>
<text text-anchor="middle" x="519" y="-278" font-family="Helvetica,sans-Serif" font-size="10.00">rcWindow::height</text>
</a>
</g>
</g>
<!-- Node17&#45;&gt;Node18 -->
<g id="edge17" class="edge"><title>Node17&#45;&gt;Node18</title>
<path fill="none" stroke="midnightblue" d="M241.608,-188.343C252.501,-191.137 264.701,-195.675 274,-203 298.13,-222.009 283.964,-245.699 310,-262 355.499,-290.487 417.894,-292.724 462.451,-289.539"/>
<polygon fill="midnightblue" stroke="midnightblue" points="462.844,-293.019 472.522,-288.706 462.267,-286.043 462.844,-293.019"/>
</g>
<!-- Node19 -->
<g id="node19" class="node"><title>Node19</title>
<g id="a_node19"><a xlink:href="classrc_window.html#a3286f93b0d223617111f3ac62b854b2f" target="_top" xlink:title="rcWindow::isBound">
<polygon fill="white" stroke="black" points="468.205,-155 468.205,-175 569.795,-175 569.795,-155 468.205,-155"/>
<text text-anchor="middle" x="519" y="-161" font-family="Helvetica,sans-Serif" font-size="10.00">rcWindow::isBound</text>
</a>
</g>
</g>
<!-- Node17&#45;&gt;Node19 -->
<g id="edge18" class="edge"><title>Node17&#45;&gt;Node19</title>
<path fill="none" stroke="midnightblue" d="M241.624,-182.331C289.669,-179.318 391.973,-172.903 457.734,-168.779"/>
<polygon fill="midnightblue" stroke="midnightblue" points="458.199,-172.257 467.961,-168.138 457.761,-165.271 458.199,-172.257"/>
</g>
<!-- Node20 -->
<g id="node20" class="node"><title>Node20</title>
<g id="a_node20"><a xlink:href="rc__median_8cpp.html#ad19fea55fa1170effa7a6408e1959483" target="_top" xlink:title="rfCopyWindowBorder">
<polygon fill="white" stroke="black" points="312.483,-233 312.483,-253 423.517,-253 423.517,-233 312.483,-233"/>
<text text-anchor="middle" x="368" y="-239" font-family="Helvetica,sans-Serif" font-size="10.00">rfCopyWindowBorder</text>
</a>
</g>
</g>
<!-- Node17&#45;&gt;Node20 -->
<g id="edge19" class="edge"><title>Node17&#45;&gt;Node20</title>
<path fill="none" stroke="midnightblue" d="M241.546,-191.339C251.846,-194.499 263.634,-198.503 274,-203 290.791,-210.285 293.304,-215.499 310,-223 315.022,-225.257 320.382,-227.429 325.729,-229.456"/>
<polygon fill="midnightblue" stroke="midnightblue" points="324.672,-232.796 335.266,-232.936 327.071,-226.22 324.672,-232.796"/>
</g>
<!-- Node21 -->
<g id="node21" class="node"><title>Node21</title>
<g id="a_node21"><a xlink:href="rc__median_8cpp.html#a44d9553ce9d251a1fd2c7632cbc41b0e" target="_top" xlink:title="rfMedian3By3Depth8">
<polygon fill="white" stroke="black" points="313.027,-194 313.027,-214 422.973,-214 422.973,-194 313.027,-194"/>
<text text-anchor="middle" x="368" y="-200" font-family="Helvetica,sans-Serif" font-size="10.00">rfMedian3By3Depth8</text>
</a>
</g>
</g>
<!-- Node17&#45;&gt;Node21 -->
<g id="edge20" class="edge"><title>Node17&#45;&gt;Node21</title>
<path fill="none" stroke="midnightblue" d="M241.476,-187.484C258.438,-189.716 281.229,-192.714 302.736,-195.544"/>
<polygon fill="midnightblue" stroke="midnightblue" points="302.457,-199.038 312.829,-196.872 303.371,-192.097 302.457,-199.038"/>
</g>
<!-- Node30 -->
<g id="node30" class="node"><title>Node30</title>
<g id="a_node30"><a xlink:href="classrc_window.html#a0ae0c2adbe34085eb07c93edd60b342a" target="_top" xlink:title="rcWindow::width">
<polygon fill="white" stroke="black" points="474.601,-116 474.601,-136 563.399,-136 563.399,-116 474.601,-116"/>
<text text-anchor="middle" x="519" y="-122" font-family="Helvetica,sans-Serif" font-size="10.00">rcWindow::width</text>
</a>
</g>
</g>
<!-- Node17&#45;&gt;Node30 -->
<g id="edge32" class="edge"><title>Node17&#45;&gt;Node30</title>
<path fill="none" stroke="midnightblue" d="M241.624,-178.904C291.314,-169.392 399.042,-148.771 464.356,-136.268"/>
<polygon fill="midnightblue" stroke="midnightblue" points="465.296,-139.652 474.459,-134.335 463.98,-132.777 465.296,-139.652"/>
</g>
<!-- Node21&#45;&gt;Node18 -->
<g id="edge21" class="edge"><title>Node21&#45;&gt;Node18</title>
<path fill="none" stroke="midnightblue" d="M407.931,-214.034C414.225,-216.473 420.48,-219.434 426,-223 445.814,-235.8 442.323,-248.99 462,-262 465.297,-264.18 468.859,-266.155 472.535,-267.938"/>
<polygon fill="midnightblue" stroke="midnightblue" points="471.252,-271.196 481.818,-271.98 474.047,-264.778 471.252,-271.196"/>
</g>
<!-- Node21&#45;&gt;Node19 -->
<g id="edge22" class="edge"><title>Node21&#45;&gt;Node19</title>
<path fill="none" stroke="midnightblue" d="M407.371,-193.957C426.489,-188.953 449.795,-182.852 470.077,-177.544"/>
<polygon fill="midnightblue" stroke="midnightblue" points="470.971,-180.928 479.759,-175.009 469.198,-174.156 470.971,-180.928"/>
</g>
<!-- Node22 -->
<g id="node22" class="node"><title>Node22</title>
<g id="a_node22"><a xlink:href="classrc_window.html#a232627a15bd75725861721177a38df82" target="_top" xlink:title="rcWindow::rowPointer">
<polygon fill="white" stroke="black" points="462.375,-194 462.375,-214 575.625,-214 575.625,-194 462.375,-194"/>
<text text-anchor="middle" x="519" y="-200" font-family="Helvetica,sans-Serif" font-size="10.00">rcWindow::rowPointer</text>
</a>
</g>
</g>
<!-- Node21&#45;&gt;Node22 -->
<g id="edge23" class="edge"><title>Node21&#45;&gt;Node22</title>
<path fill="none" stroke="midnightblue" d="M423.214,-204C432.663,-204 442.583,-204 452.3,-204"/>
<polygon fill="midnightblue" stroke="midnightblue" points="452.325,-207.5 462.325,-204 452.325,-200.5 452.325,-207.5"/>
</g>
<!-- Node29 -->
<g id="node29" class="node"><title>Node29</title>
<g id="a_node29"><a xlink:href="classrc_window.html#a5cddcde6594113f6d8bb2dfb1f498c0a" target="_top" xlink:title="rcWindow::rowUpdate">
<polygon fill="white" stroke="black" points="462.094,-233 462.094,-253 575.906,-253 575.906,-233 462.094,-233"/>
<text text-anchor="middle" x="519" y="-239" font-family="Helvetica,sans-Serif" font-size="10.00">rcWindow::rowUpdate</text>
</a>
</g>
</g>
<!-- Node21&#45;&gt;Node29 -->
<g id="edge30" class="edge"><title>Node21&#45;&gt;Node29</title>
<path fill="none" stroke="midnightblue" d="M407.371,-214.043C426.489,-219.047 449.795,-225.148 470.077,-230.456"/>
<polygon fill="midnightblue" stroke="midnightblue" points="469.198,-233.844 479.759,-232.991 470.971,-227.072 469.198,-233.844"/>
</g>
<!-- Node21&#45;&gt;Node30 -->
<g id="edge31" class="edge"><title>Node21&#45;&gt;Node30</title>
<path fill="none" stroke="midnightblue" d="M382.579,-193.918C400.179,-181.201 432.16,-159.276 462,-145 466.016,-143.079 470.278,-141.264 474.587,-139.573"/>
<polygon fill="midnightblue" stroke="midnightblue" points="475.858,-142.835 484.02,-136.08 473.427,-136.271 475.858,-142.835"/>
</g>
<!-- Node23 -->
<g id="node23" class="node"><title>Node23</title>
<g id="a_node23"><a xlink:href="classrc_frame.html#a401a851fcb8a4328949d38cb34b572f6" target="_top" xlink:title="rcFrame::rowPointer">
<polygon fill="white" stroke="black" points="612.712,-175 612.712,-195 719.288,-195 719.288,-175 612.712,-175"/>
<text text-anchor="middle" x="666" y="-181" font-family="Helvetica,sans-Serif" font-size="10.00">rcFrame::rowPointer</text>
</a>
</g>
</g>
<!-- Node22&#45;&gt;Node23 -->
<g id="edge24" class="edge"><title>Node22&#45;&gt;Node23</title>
<path fill="none" stroke="midnightblue" d="M575.646,-196.708C584.466,-195.553 593.639,-194.351 602.601,-193.176"/>
<polygon fill="midnightblue" stroke="midnightblue" points="603.14,-196.636 612.6,-191.866 602.23,-189.695 603.14,-196.636"/>
</g>
<!-- Node24 -->
<g id="node24" class="node"><title>Node24</title>
<g id="a_node24"><a xlink:href="classrc_rect.html#a50236160751c949d8718f8d4d17f7923" target="_top" xlink:title="rcRect::y">
<polygon fill="white" stroke="black" points="638.276,-136 638.276,-156 693.724,-156 693.724,-136 638.276,-136"/>
<text text-anchor="middle" x="666" y="-142" font-family="Helvetica,sans-Serif" font-size="10.00">rcRect::y</text>
</a>
</g>
</g>
<!-- Node22&#45;&gt;Node24 -->
<g id="edge25" class="edge"><title>Node22&#45;&gt;Node24</title>
<path fill="none" stroke="midnightblue" d="M550.535,-193.983C558.886,-191.004 567.873,-187.574 576,-184 592.561,-176.717 595.443,-172.293 612,-165 617.2,-162.71 622.77,-160.48 628.275,-158.401"/>
<polygon fill="midnightblue" stroke="midnightblue" points="629.827,-161.561 638.02,-154.842 627.426,-154.985 629.827,-161.561"/>
</g>
<!-- Node26 -->
<g id="node26" class="node"><title>Node26</title>
<g id="a_node26"><a xlink:href="classrc_rect.html#ac0f95519a41dcf7e33bec85ccb8e7aff" target="_top" xlink:title="rcRect::x">
<polygon fill="white" stroke="black" points="638.276,-253 638.276,-273 693.724,-273 693.724,-253 638.276,-253"/>
<text text-anchor="middle" x="666" y="-259" font-family="Helvetica,sans-Serif" font-size="10.00">rcRect::x</text>
</a>
</g>
</g>
<!-- Node22&#45;&gt;Node26 -->
<g id="edge27" class="edge"><title>Node22&#45;&gt;Node26</title>
<path fill="none" stroke="midnightblue" d="M552.953,-214.078C560.62,-216.725 568.679,-219.756 576,-223 592.734,-230.415 595.393,-235.304 612,-243 617.373,-245.49 623.151,-247.916 628.846,-250.169"/>
<polygon fill="midnightblue" stroke="midnightblue" points="627.676,-253.468 638.266,-253.779 630.181,-246.932 627.676,-253.468"/>
</g>
<!-- Node28 -->
<g id="node28" class="node"><title>Node28</title>
<g id="a_node28"><a xlink:href="classrc_frame.html#aaef8303c840834284eb9c60d33bf40c1" target="_top" xlink:title="rcFrame::depth">
<polygon fill="white" stroke="black" points="624.099,-214 624.099,-234 707.901,-234 707.901,-214 624.099,-214"/>
<text text-anchor="middle" x="666" y="-220" font-family="Helvetica,sans-Serif" font-size="10.00">rcFrame::depth</text>
</a>
</g>
</g>
<!-- Node22&#45;&gt;Node28 -->
<g id="edge29" class="edge"><title>Node22&#45;&gt;Node28</title>
<path fill="none" stroke="midnightblue" d="M575.646,-211.675C588.125,-213.397 601.309,-215.215 613.606,-216.911"/>
<polygon fill="midnightblue" stroke="midnightblue" points="613.307,-220.403 623.691,-218.302 614.263,-213.469 613.307,-220.403"/>
</g>
<!-- Node25 -->
<g id="node25" class="node"><title>Node25</title>
<g id="a_node25"><a xlink:href="classrc_pair.html#a87400f83938e920c405c40aa449d3607" target="_top" xlink:title="rcPair::y">
<polygon fill="white" stroke="black" points="788.665,-136 788.665,-156 841.335,-156 841.335,-136 788.665,-136"/>
<text text-anchor="middle" x="815" y="-142" font-family="Helvetica,sans-Serif" font-size="10.00">rcPair::y</text>
</a>
</g>
</g>
<!-- Node24&#45;&gt;Node25 -->
<g id="edge26" class="edge"><title>Node24&#45;&gt;Node25</title>
<path fill="none" stroke="midnightblue" d="M693.962,-146C717.565,-146 752.045,-146 778.002,-146"/>
<polygon fill="midnightblue" stroke="midnightblue" points="778.195,-149.5 788.195,-146 778.195,-142.5 778.195,-149.5"/>
</g>
<!-- Node27 -->
<g id="node27" class="node"><title>Node27</title>
<g id="a_node27"><a xlink:href="classrc_pair.html#ad1a3cb1e7fdbe119ce1295514b1bb49d" target="_top" xlink:title="rcPair::x">
<polygon fill="white" stroke="black" points="788.665,-253 788.665,-273 841.335,-273 841.335,-253 788.665,-253"/>
<text text-anchor="middle" x="815" y="-259" font-family="Helvetica,sans-Serif" font-size="10.00">rcPair::x</text>
</a>
</g>
</g>
<!-- Node26&#45;&gt;Node27 -->
<g id="edge28" class="edge"><title>Node26&#45;&gt;Node27</title>
<path fill="none" stroke="midnightblue" d="M693.962,-263C717.565,-263 752.045,-263 778.002,-263"/>
<polygon fill="midnightblue" stroke="midnightblue" points="778.195,-266.5 788.195,-263 778.195,-259.5 778.195,-266.5"/>
</g>
<!-- Node32&#45;&gt;Node31 -->
<g id="edge37" class="edge"><title>Node32&#45;&gt;Node31</title>
<path fill="none" stroke="midnightblue" d="M266.46,-74.7711C277.274,-76.194 288.831,-77.7146 300.116,-79.1995"/>
<polygon fill="midnightblue" stroke="midnightblue" points="300.003,-82.7146 310.374,-80.5492 300.916,-75.7745 300.003,-82.7146"/>
</g>
<!-- Node33 -->
<g id="node33" class="node"><title>Node33</title>
<g id="a_node33"><a xlink:href="classrc_level_sets.html#ab31b28ce4f3e36c83b14db38a8cbe398" target="_top" xlink:title="rcLevelSets::darkArea">
<polygon fill="white" stroke="black" points="310.811,-0 310.811,-20 425.189,-20 425.189,-0 310.811,-0"/>
<text text-anchor="middle" x="368" y="-6" font-family="Helvetica,sans-Serif" font-size="10.00">rcLevelSets::darkArea</text>
</a>
</g>
</g>
<!-- Node32&#45;&gt;Node33 -->
<g id="edge35" class="edge"><title>Node32&#45;&gt;Node33</title>
<path fill="none" stroke="midnightblue" d="M238.251,-57.9388C257.378,-49.7871 285.265,-38.1878 310,-29 315.134,-27.0931 320.559,-25.1693 325.94,-23.3157"/>
<polygon fill="midnightblue" stroke="midnightblue" points="327.159,-26.5981 335.507,-20.0737 324.913,-19.9685 327.159,-26.5981"/>
</g>
<!-- Node34 -->
<g id="node34" class="node"><title>Node34</title>
<g id="a_node34"><a xlink:href="classrc_level_sets.html#aff8104ab97d937695d2662a0fa654797" target="_top" xlink:title="rcLevelSets::score">
<polygon fill="white" stroke="black" points="318.872,-39 318.872,-59 417.128,-59 417.128,-39 318.872,-39"/>
<text text-anchor="middle" x="368" y="-45" font-family="Helvetica,sans-Serif" font-size="10.00">rcLevelSets::score</text>
</a>
</g>
</g>
<!-- Node32&#45;&gt;Node34 -->
<g id="edge36" class="edge"><title>Node32&#45;&gt;Node34</title>
<path fill="none" stroke="midnightblue" d="M266.46,-61.5675C280.044,-59.8695 294.799,-58.0251 308.715,-56.2856"/>
<polygon fill="midnightblue" stroke="midnightblue" points="309.183,-59.7545 318.671,-55.0411 308.314,-52.8086 309.183,-59.7545"/>
</g>
</g>
</svg>
        <g id="navigator" transform="translate(0 0)" fill="#404254">
                <rect fill="#f2f5e9" fill-opacity="0.5" stroke="#606060" stroke-width=".5" x="0" y="0" width="60" height="60"/>
                <use id="zoomplus" xlink:href="#zoomPlus" x="17" y="9" onmousedown="handleZoom(evt,'in')"/>
                <use id="zoomminus" xlink:href="#zoomMin" x="42" y="9" onmousedown="handleZoom(evt,'out')"/>
                <use id="reset" xlink:href="#resetDef" x="30" y="36" onmousedown="handleReset()"/>
                <g id="arrowUp" xlink:href="#dirArrow" transform="translate(30 24)" onmousedown="handlePan(0,-1)">
                  <use xlink:href="#rim" fill="#404040">
                        <set attributeName="fill" to="#808080" begin="arrowUp.mouseover" end="arrowUp.mouseout"/>
                  </use>
                  <path fill="none" stroke="white" stroke-width="1.5" d="M0,-3.0v7 M-2.5,-0.5L0,-3.0L2.5,-0.5"/>
                </g>
                <g id="arrowRight" xlink:href="#dirArrow" transform="rotate(90) translate(36 -43)" onmousedown="handlePan(1,0)">
                  <use xlink:href="#rim" fill="#404040">
                        <set attributeName="fill" to="#808080" begin="arrowRight.mouseover" end="arrowRight.mouseout"/>
                  </use>
                  <path fill="none" stroke="white" stroke-width="1.5" d="M0,-3.0v7 M-2.5,-0.5L0,-3.0L2.5,-0.5"/>
                </g>
                <g id="arrowDown" xlink:href="#dirArrow" transform="rotate(180) translate(-30 -48)" onmousedown="handlePan(0,1)">
                  <use xlink:href="#rim" fill="#404040">
                        <set attributeName="fill" to="#808080" begin="arrowDown.mouseover" end="arrowDown.mouseout"/>
                  </use>
                  <path fill="none" stroke="white" stroke-width="1.5" d="M0,-3.0v7 M-2.5,-0.5L0,-3.0L2.5,-0.5"/>
                </g>
                <g id="arrowLeft" xlink:href="#dirArrow" transform="rotate(270) translate(-36 17)" onmousedown="handlePan(-1,0)">
                  <use xlink:href="#rim" fill="#404040">
                        <set attributeName="fill" to="#808080" begin="arrowLeft.mouseover" end="arrowLeft.mouseout"/>
                  </use>
                  <path fill="none" stroke="white" stroke-width="1.5" d="M0,-3.0v7 M-2.5,-0.5L0,-3.0L2.5,-0.5"/>
                </g>
        </g>
        <svg viewBox="0 0 15 15" width="100%" height="30px" preserveAspectRatio="xMaxYMin meet">
         <g id="arrow_out" transform="scale(0.3 0.3)">
          <a xlink:href="classrc_mutual_info_grouping_a1ea47fe6c2b9ef46c1fb92d239b85d23_cgraph_org.svg" target="_base">
           <rect id="button" ry="5" rx="5" y="6" x="6" height="38" width="38"
                fill="#f2f5e9" fill-opacity="0.5" stroke="#606060" stroke-width="1.0"/>
           <path id="arrow"
             d="M 11.500037,31.436501 C 11.940474,20.09759 22.043105,11.32322 32.158766,21.979434 L 37.068811,17.246167 C 37.068811,17.246167 37.088388,32 37.088388,32 L 22.160133,31.978069 C 22.160133,31.978069 26.997745,27.140456 26.997745,27.140456 C 18.528582,18.264221 13.291696,25.230495 11.500037,31.436501 z"
             style="fill:#404040;"/>
          </a>
         </g>
        </svg>
</svg>
