<?xml version="1.0" encoding="UTF-8" standalone="no"?>
<!DOCTYPE svg PUBLIC "-//W3C//DTD SVG 1.1//EN"
 "http://www.w3.org/Graphics/SVG/1.1/DTD/svg11.dtd">
<!-- Generated by graphviz version 2.32.0 (20130916.1925)
 -->
<!-- Title: rcKinetoscope::reichardt Pages: 1 -->
<svg width="652pt" height="28pt"
 viewBox="0.00 0.00 652.00 28.00" xmlns="http://www.w3.org/2000/svg" xmlns:xlink="http://www.w3.org/1999/xlink">
<g id="graph0" class="graph" transform="scale(1 1) rotate(0) translate(4 24)">
<title>rcKinetoscope::reichardt</title>
<polygon fill="white" stroke="white" points="-4,5 -4,-24 649,-24 649,5 -4,5"/>
<!-- Node1 -->
<g id="node1" class="node"><title>Node1</title>
<polygon fill="#bfbfbf" stroke="black" points="0.0839844,-0 0.0839844,-20 123.916,-20 123.916,-0 0.0839844,-0"/>
<text text-anchor="middle" x="62" y="-6" font-family="Helvetica,sans-Serif" font-size="10.00">rcKinetoscope::reichardt</text>
</g>
<!-- Node2 -->
<g id="node2" class="node"><title>Node2</title>
<g id="a_node2"><a xlink:href="classrc_kinetoscope.html#ade990e6e3582a1e363aad1549d0117b2" target="_top" xlink:title="rcKinetoscope::stepDirectedFlow">
<polygon fill="white" stroke="black" points="159.912,-0 159.912,-20 322.088,-20 322.088,-0 159.912,-0"/>
<text text-anchor="middle" x="241" y="-6" font-family="Helvetica,sans-Serif" font-size="10.00">rcKinetoscope::stepDirectedFlow</text>
</a>
</g>
</g>
<!-- Node1&#45;&gt;Node2 -->
<g id="edge1" class="edge"><title>Node1&#45;&gt;Node2</title>
<path fill="none" stroke="midnightblue" d="M134.425,-10C142.738,-10 151.261,-10 159.683,-10"/>
<polygon fill="midnightblue" stroke="midnightblue" points="134.409,-6.5001 124.409,-10 134.409,-13.5001 134.409,-6.5001"/>
</g>
<!-- Node3 -->
<g id="node3" class="node"><title>Node3</title>
<g id="a_node3"><a xlink:href="classrc_kinetoscope.html#a30274b84c57f86e667b614556f6c569b" target="_top" xlink:title="rcKinetoscope::step">
<polygon fill="white" stroke="black" points="358.086,-0 358.086,-20 461.914,-20 461.914,-0 358.086,-0"/>
<text text-anchor="middle" x="410" y="-6" font-family="Helvetica,sans-Serif" font-size="10.00">rcKinetoscope::step</text>
</a>
</g>
</g>
<!-- Node2&#45;&gt;Node3 -->
<g id="edge2" class="edge"><title>Node2&#45;&gt;Node3</title>
<path fill="none" stroke="midnightblue" d="M332.696,-10C341.305,-10 349.811,-10 357.845,-10"/>
<polygon fill="midnightblue" stroke="midnightblue" points="332.565,-6.5001 322.565,-10 332.565,-13.5001 332.565,-6.5001"/>
</g>
<!-- Node4 -->
<g id="node4" class="node"><title>Node4</title>
<g id="a_node4"><a xlink:href="classrc_engine_impl.html#a00ca0d227e480ddb5bd6be293b55d2c9" target="_top" xlink:title="rcEngineImpl::muscleTracker">
<polygon fill="white" stroke="black" points="498.442,-0 498.442,-20 643.558,-20 643.558,-0 498.442,-0"/>
<text text-anchor="middle" x="571" y="-6" font-family="Helvetica,sans-Serif" font-size="10.00">rcEngineImpl::muscleTracker</text>
</a>
</g>
</g>
<!-- Node3&#45;&gt;Node4 -->
<g id="edge3" class="edge"><title>Node3&#45;&gt;Node4</title>
<path fill="none" stroke="midnightblue" d="M472.383,-10C480.886,-10 489.682,-10 498.351,-10"/>
<polygon fill="midnightblue" stroke="midnightblue" points="472.184,-6.5001 462.184,-10 472.184,-13.5001 472.184,-6.5001"/>
</g>
</g>
</svg>
