<?xml version="1.0" encoding="UTF-8" standalone="no"?>
<!DOCTYPE svg PUBLIC "-//W3C//DTD SVG 1.1//EN"
 "http://www.w3.org/Graphics/SVG/1.1/DTD/svg11.dtd">
<!-- Generated by graphviz version 2.32.0 (20130916.1925)
 -->
<!-- Title: TCP_server_data::connection Pages: 1 -->
<!--zoomable 567 -->
<svg id="main" version="1.1" xmlns="http://www.w3.org/2000/svg" xmlns:xlink="http://www.w3.org/1999/xlink" xml:space="preserve" onload="init(evt)">
        <defs>
                <circle id="rim" cx="0" cy="0" r="7"/>
                <circle id="rim2" cx="0" cy="0" r="3.5"/>
                <g id="zoomPlus">
                        <use xlink:href="#rim" fill="#404040">
                                <set attributeName="fill" to="#808080" begin="zoomplus.mouseover" end="zoomplus.mouseout"/>
                        </use>
                        <path d="M-4,0h8M0,-4v8" fill="none" stroke="white" stroke-width="1.5" pointer-events="none"/>
                </g>
                <g id="zoomMin">
                        <use xlink:href="#rim" fill="#404040">
                                <set attributeName="fill" to="#808080" begin="zoomminus.mouseover" end="zoomminus.mouseout"/>
                        </use>
                        <path d="M-4,0h8" fill="none" stroke="white" stroke-width="1.5" pointer-events="none"/>
                </g>
                <g id="dirArrow">
                        <path fill="none" stroke="white" stroke-width="1.5" d="M0,-3.0v7 M-2.5,-0.5L0,-3.0L2.5,-0.5"/>
                </g>
               <g id="resetDef">
                       <use xlink:href="#rim2" fill="#404040">
                               <set attributeName="fill" to="#808080" begin="reset.mouseover" end="reset.mouseout"/>
                       </use>
               </g>
        </defs>

<script type="text/javascript">
var viewWidth = 1796;
var viewHeight = 567;
var sectionId = 'dynsection-3';
</script>
<script xlink:href="svgpan.js"/>
<svg id="graph" class="graph">
<g id="viewport">
<title>TCP_server_data::connection</title>
<polygon fill="white" stroke="white" points="-4,5 -4,-562.811 1793,-562.811 1793,5 -4,5"/>
<!-- Node1 -->
<g id="node1" class="node"><title>Node1</title>
<polygon fill="#bfbfbf" stroke="black" points="-0.147461,-345.811 -0.147461,-365.811 148.147,-365.811 148.147,-345.811 -0.147461,-345.811"/>
<text text-anchor="middle" x="74" y="-351.811" font-family="Helvetica,sans-Serif" font-size="10.00">TCP_server_data::connection</text>
</g>
<!-- Node2 -->
<g id="node2" class="node"><title>Node2</title>
<g id="a_node2"><a xlink:href="class_t_c_p__connection__data.html#a622196c7d9a49cf4da1ca2113c8284f2" target="_top" xlink:title="TCP_connection_data\l::initialise">
<polygon fill="white" stroke="black" points="184.522,-423.811 184.522,-455.811 299.478,-455.811 299.478,-423.811 184.522,-423.811"/>
<text text-anchor="start" x="192.522" y="-441.811" font-family="Helvetica,sans-Serif" font-size="10.00">TCP_connection_data</text>
<text text-anchor="middle" x="242" y="-429.811" font-family="Helvetica,sans-Serif" font-size="10.00">::initialise</text>
</a>
</g>
</g>
<!-- Node1&#45;&gt;Node2 -->
<g id="edge1" class="edge"><title>Node1&#45;&gt;Node2</title>
<path fill="none" stroke="midnightblue" d="M95.0235,-365.943C120.956,-379.065 166.785,-402.256 200.192,-419.161"/>
<polygon fill="midnightblue" stroke="midnightblue" points="198.755,-422.356 209.258,-423.748 201.916,-416.11 198.755,-422.356"/>
</g>
<!-- Node32 -->
<g id="node32" class="node"><title>Node32</title>
<g id="a_node32"><a xlink:href="class_t_c_p__socket.html#af144705e325c972bf6c420436ecc9dba" target="_top" xlink:title="TCP_socket::socket">
<polygon fill="white" stroke="black" points="488.54,-345.811 488.54,-365.811 593.46,-365.811 593.46,-345.811 488.54,-345.811"/>
<text text-anchor="middle" x="541" y="-351.811" font-family="Helvetica,sans-Serif" font-size="10.00">TCP_socket::socket</text>
</a>
</g>
</g>
<!-- Node1&#45;&gt;Node32 -->
<g id="edge46" class="edge"><title>Node1&#45;&gt;Node32</title>
<path fill="none" stroke="midnightblue" d="M148.168,-355.811C239.226,-355.811 393.111,-355.811 478.418,-355.811"/>
<polygon fill="midnightblue" stroke="midnightblue" points="478.472,-359.311 488.472,-355.811 478.472,-352.311 478.472,-359.311"/>
</g>
<!-- Node33 -->
<g id="node33" class="node"><title>Node33</title>
<g id="a_node33"><a xlink:href="class_t_c_p__server__data.html#a50b754077634bdb430927f18cb891e07" target="_top" xlink:title="TCP_server_data::set\l_error">
<polygon fill="white" stroke="black" points="185.367,-294.811 185.367,-326.811 298.633,-326.811 298.633,-294.811 185.367,-294.811"/>
<text text-anchor="start" x="193.367" y="-312.811" font-family="Helvetica,sans-Serif" font-size="10.00">TCP_server_data::set</text>
<text text-anchor="middle" x="242" y="-300.811" font-family="Helvetica,sans-Serif" font-size="10.00">_error</text>
</a>
</g>
</g>
<!-- Node1&#45;&gt;Node33 -->
<g id="edge44" class="edge"><title>Node1&#45;&gt;Node33</title>
<path fill="none" stroke="midnightblue" d="M112.254,-345.712C130.905,-340.656 154.038,-334.385 175.529,-328.559"/>
<polygon fill="midnightblue" stroke="midnightblue" points="176.529,-331.914 185.265,-325.919 174.698,-325.158 176.529,-331.914"/>
</g>
<!-- Node3 -->
<g id="node3" class="node"><title>Node3</title>
<g id="a_node3"><a xlink:href="class_t_c_p__connection__data.html#a898cc4fd4c465e352c5a546690b825fb" target="_top" xlink:title="TCP_connection_data\l::address">
<polygon fill="white" stroke="black" points="336.522,-423.811 336.522,-455.811 451.478,-455.811 451.478,-423.811 336.522,-423.811"/>
<text text-anchor="start" x="344.522" y="-441.811" font-family="Helvetica,sans-Serif" font-size="10.00">TCP_connection_data</text>
<text text-anchor="middle" x="394" y="-429.811" font-family="Helvetica,sans-Serif" font-size="10.00">::address</text>
</a>
</g>
</g>
<!-- Node2&#45;&gt;Node3 -->
<g id="edge2" class="edge"><title>Node2&#45;&gt;Node3</title>
<path fill="none" stroke="midnightblue" d="M299.709,-439.811C308.295,-439.811 317.223,-439.811 326.002,-439.811"/>
<polygon fill="midnightblue" stroke="midnightblue" points="326.211,-443.311 336.211,-439.811 326.211,-436.311 326.211,-443.311"/>
</g>
<!-- Node4 -->
<g id="node4" class="node"><title>Node4</title>
<g id="a_node4"><a xlink:href="class_t_c_p__connection__data.html#aa55187d3ad30e032d2a2c2ce2a6ba2aa" target="_top" xlink:title="TCP_connection_data\l::close">
<polygon fill="white" stroke="black" points="336.522,-525.811 336.522,-557.811 451.478,-557.811 451.478,-525.811 336.522,-525.811"/>
<text text-anchor="start" x="344.522" y="-543.811" font-family="Helvetica,sans-Serif" font-size="10.00">TCP_connection_data</text>
<text text-anchor="middle" x="394" y="-531.811" font-family="Helvetica,sans-Serif" font-size="10.00">::close</text>
</a>
</g>
</g>
<!-- Node2&#45;&gt;Node4 -->
<g id="edge3" class="edge"><title>Node2&#45;&gt;Node4</title>
<path fill="none" stroke="midnightblue" d="M260.14,-456.114C278.061,-472.589 307.496,-498.077 336,-515.811 338.952,-517.647 342.056,-519.431 345.228,-521.146"/>
<polygon fill="midnightblue" stroke="midnightblue" points="343.78,-524.337 354.275,-525.784 346.973,-518.107 343.78,-524.337"/>
</g>
<!-- Node30 -->
<g id="node30" class="node"><title>Node30</title>
<g id="a_node30"><a xlink:href="class_t_c_p__connection__data.html#a745b45080629830583b179cc431475b2" target="_top" xlink:title="TCP_connection_data\l::port">
<polygon fill="white" stroke="black" points="336.522,-474.811 336.522,-506.811 451.478,-506.811 451.478,-474.811 336.522,-474.811"/>
<text text-anchor="start" x="344.522" y="-492.811" font-family="Helvetica,sans-Serif" font-size="10.00">TCP_connection_data</text>
<text text-anchor="middle" x="394" y="-480.811" font-family="Helvetica,sans-Serif" font-size="10.00">::port</text>
</a>
</g>
</g>
<!-- Node2&#45;&gt;Node30 -->
<g id="edge40" class="edge"><title>Node2&#45;&gt;Node30</title>
<path fill="none" stroke="midnightblue" d="M290.461,-455.947C304.965,-460.879 321.065,-466.353 336.127,-471.474"/>
<polygon fill="midnightblue" stroke="midnightblue" points="335.253,-474.873 345.848,-474.779 337.507,-468.246 335.253,-474.873"/>
</g>
<!-- Node31 -->
<g id="node31" class="node"><title>Node31</title>
<g id="a_node31"><a xlink:href="class_t_c_p__socket.html#a8c7a3e5004f50fc8edc485385a94082d" target="_top" xlink:title="TCP_socket::set">
<polygon fill="white" stroke="black" points="349.32,-384.811 349.32,-404.811 438.68,-404.811 438.68,-384.811 349.32,-384.811"/>
<text text-anchor="middle" x="394" y="-390.811" font-family="Helvetica,sans-Serif" font-size="10.00">TCP_socket::set</text>
</a>
</g>
</g>
<!-- Node2&#45;&gt;Node31 -->
<g id="edge41" class="edge"><title>Node2&#45;&gt;Node31</title>
<path fill="none" stroke="midnightblue" d="M296.73,-423.692C313.994,-418.512 332.898,-412.841 349.349,-407.906"/>
<polygon fill="midnightblue" stroke="midnightblue" points="350.665,-411.165 359.238,-404.939 348.654,-404.46 350.665,-411.165"/>
</g>
<!-- Node5 -->
<g id="node5" class="node"><title>Node5</title>
<g id="a_node5"><a xlink:href="class_t_c_p__socket.html#a784ca7a3cb43891c3f8068030d5457e8" target="_top" xlink:title="TCP_socket::close">
<polygon fill="white" stroke="black" points="491.318,-384.811 491.318,-404.811 590.682,-404.811 590.682,-384.811 491.318,-384.811"/>
<text text-anchor="middle" x="541" y="-390.811" font-family="Helvetica,sans-Serif" font-size="10.00">TCP_socket::close</text>
</a>
</g>
</g>
<!-- Node4&#45;&gt;Node5 -->
<g id="edge4" class="edge"><title>Node4&#45;&gt;Node5</title>
<path fill="none" stroke="midnightblue" d="M436.965,-525.734C442.286,-522.831 447.451,-519.526 452,-515.811 487.674,-486.667 516.153,-439.834 530.286,-413.806"/>
<polygon fill="midnightblue" stroke="midnightblue" points="533.4,-415.405 534.985,-404.929 527.213,-412.13 533.4,-415.405"/>
</g>
<!-- Node6 -->
<g id="node6" class="node"><title>Node6</title>
<g id="a_node6"><a xlink:href="class_t_c_p__socket.html#ab3548a9a992a647f4260b0343f26f090" target="_top" xlink:title="TCP_socket::initialised">
<polygon fill="white" stroke="black" points="630.424,-384.811 630.424,-404.811 747.576,-404.811 747.576,-384.811 630.424,-384.811"/>
<text text-anchor="middle" x="689" y="-390.811" font-family="Helvetica,sans-Serif" font-size="10.00">TCP_socket::initialised</text>
</a>
</g>
</g>
<!-- Node5&#45;&gt;Node6 -->
<g id="edge5" class="edge"><title>Node5&#45;&gt;Node6</title>
<path fill="none" stroke="midnightblue" d="M591.022,-394.811C600.368,-394.811 610.303,-394.811 620.114,-394.811"/>
<polygon fill="midnightblue" stroke="midnightblue" points="620.264,-398.311 630.264,-394.811 620.264,-391.311 620.264,-398.311"/>
</g>
<!-- Node7 -->
<g id="node7" class="node"><title>Node7</title>
<g id="a_node7"><a xlink:href="class_t_c_p__socket.html#a6aa627297e2a1b6c82d89f875b8cbf2b" target="_top" xlink:title="TCP_socket::set_error">
<polygon fill="white" stroke="black" points="630.983,-323.811 630.983,-343.811 747.017,-343.811 747.017,-323.811 630.983,-323.811"/>
<text text-anchor="middle" x="689" y="-329.811" font-family="Helvetica,sans-Serif" font-size="10.00">TCP_socket::set_error</text>
</a>
</g>
</g>
<!-- Node5&#45;&gt;Node7 -->
<g id="edge6" class="edge"><title>Node5&#45;&gt;Node7</title>
<path fill="none" stroke="midnightblue" d="M568.81,-384.758C576.932,-381.643 585.856,-378.151 594,-374.811 614.848,-366.26 638.057,-356.142 656.197,-348.098"/>
<polygon fill="midnightblue" stroke="midnightblue" points="657.994,-351.129 665.707,-343.865 655.148,-344.734 657.994,-351.129"/>
</g>
<!-- Node8 -->
<g id="node8" class="node"><title>Node8</title>
<g id="a_node8"><a xlink:href="class_t_c_p__socket.html#adb70059ca46476efe0ced51ed377a975" target="_top" xlink:title="TCP_socket::error">
<polygon fill="white" stroke="black" points="784.434,-343.811 784.434,-363.811 881.566,-363.811 881.566,-343.811 784.434,-343.811"/>
<text text-anchor="middle" x="833" y="-349.811" font-family="Helvetica,sans-Serif" font-size="10.00">TCP_socket::error</text>
</a>
</g>
</g>
<!-- Node7&#45;&gt;Node8 -->
<g id="edge7" class="edge"><title>Node7&#45;&gt;Node8</title>
<path fill="none" stroke="midnightblue" d="M747.348,-341.888C756.089,-343.119 765.117,-344.39 773.875,-345.624"/>
<polygon fill="midnightblue" stroke="midnightblue" points="773.608,-349.121 783.998,-347.05 774.584,-342.189 773.608,-349.121"/>
</g>
<!-- Node9 -->
<g id="node9" class="node"><title>Node9</title>
<g id="a_node9"><a xlink:href="tcp_8cpp.html#ab932f3e7890ed088ca90870c290fb2da" target="_top" xlink:title="error_string">
<polygon fill="white" stroke="black" points="799.436,-304.811 799.436,-324.811 866.564,-324.811 866.564,-304.811 799.436,-304.811"/>
<text text-anchor="middle" x="833" y="-310.811" font-family="Helvetica,sans-Serif" font-size="10.00">error_string</text>
</a>
</g>
</g>
<!-- Node7&#45;&gt;Node9 -->
<g id="edge8" class="edge"><title>Node7&#45;&gt;Node9</title>
<path fill="none" stroke="midnightblue" d="M747.348,-326.137C761.317,-324.268 776.019,-322.301 789.179,-320.54"/>
<polygon fill="midnightblue" stroke="midnightblue" points="789.912,-323.973 799.36,-319.178 788.984,-317.035 789.912,-323.973"/>
</g>
<!-- Node10 -->
<g id="node10" class="node"><title>Node10</title>
<g id="a_node10"><a xlink:href="error__handler_8cpp.html#aac3be3c13a6d90b39f966b6e897c0744" target="_top" xlink:title="to_string">
<polygon fill="white" stroke="black" points="917.823,-324.811 917.823,-344.811 972.177,-344.811 972.177,-324.811 917.823,-324.811"/>
<text text-anchor="middle" x="945" y="-330.811" font-family="Helvetica,sans-Serif" font-size="10.00">to_string</text>
</a>
</g>
</g>
<!-- Node9&#45;&gt;Node10 -->
<g id="edge9" class="edge"><title>Node9&#45;&gt;Node10</title>
<path fill="none" stroke="midnightblue" d="M866.706,-320.757C879.498,-323.083 894.228,-325.761 907.375,-328.151"/>
<polygon fill="midnightblue" stroke="midnightblue" points="907.047,-331.649 917.512,-329.995 908.3,-324.762 907.047,-331.649"/>
</g>
<!-- Node29 -->
<g id="node29" class="node"><title>Node29</title>
<g id="a_node29"><a xlink:href="string__utilities_8cpp.html#a92b477f13171d3fd668249c0f9b45a1a" target="_top" xlink:title="trim">
<polygon fill="white" stroke="black" points="928.67,-285.811 928.67,-305.811 961.33,-305.811 961.33,-285.811 928.67,-285.811"/>
<text text-anchor="middle" x="945" y="-291.811" font-family="Helvetica,sans-Serif" font-size="10.00">trim</text>
</a>
</g>
</g>
<!-- Node9&#45;&gt;Node29 -->
<g id="edge39" class="edge"><title>Node9&#45;&gt;Node29</title>
<path fill="none" stroke="midnightblue" d="M866.706,-309.161C883.275,-306.3 903.093,-302.876 918.513,-300.213"/>
<polygon fill="midnightblue" stroke="midnightblue" points="919.134,-303.658 928.392,-298.506 917.942,-296.76 919.134,-303.658"/>
</g>
<!-- Node10&#45;&gt;Node10 -->
<g id="edge38" class="edge"><title>Node10&#45;&gt;Node10</title>
<path fill="none" stroke="midnightblue" d="M927.466,-344.858C919.468,-353.582 925.312,-362.811 945,-362.811 957.305,-362.811 964.202,-359.206 965.692,-354.372"/>
<polygon fill="midnightblue" stroke="midnightblue" points="969.006,-353.246 962.534,-344.858 962.363,-355.452 969.006,-353.246"/>
</g>
<!-- Node11 -->
<g id="node11" class="node"><title>Node11</title>
<g id="a_node11"><a xlink:href="classerror__position.html#a3f7ed498a2a6aa5343334b17bbdf4bbf" target="_top" xlink:title="error_position::column">
<polygon fill="white" stroke="black" points="1014.53,-383.811 1014.53,-403.811 1129.47,-403.811 1129.47,-383.811 1014.53,-383.811"/>
<text text-anchor="middle" x="1072" y="-389.811" font-family="Helvetica,sans-Serif" font-size="10.00">error_position::column</text>
</a>
</g>
</g>
<!-- Node10&#45;&gt;Node11 -->
<g id="edge10" class="edge"><title>Node10&#45;&gt;Node11</title>
<path fill="none" stroke="midnightblue" d="M959.702,-344.862C971.897,-353.451 990.467,-365.675 1008,-373.811 1013.07,-376.165 1018.5,-378.348 1023.96,-380.34"/>
<polygon fill="midnightblue" stroke="midnightblue" points="1023.16,-383.767 1033.76,-383.713 1025.44,-377.148 1023.16,-383.767"/>
</g>
<!-- Node12 -->
<g id="node12" class="node"><title>Node12</title>
<g id="a_node12"><a xlink:href="classerror__position.html#ac4739e90b92106a85b0f8c76e9198daf" target="_top" xlink:title="error_position::filename">
<polygon fill="white" stroke="black" points="1011.75,-344.811 1011.75,-364.811 1132.25,-364.811 1132.25,-344.811 1011.75,-344.811"/>
<text text-anchor="middle" x="1072" y="-350.811" font-family="Helvetica,sans-Serif" font-size="10.00">error_position::filename</text>
</a>
</g>
</g>
<!-- Node10&#45;&gt;Node12 -->
<g id="edge11" class="edge"><title>Node10&#45;&gt;Node12</title>
<path fill="none" stroke="midnightblue" d="M972.204,-339.003C980.939,-340.401 991.12,-342.03 1001.56,-343.701"/>
<polygon fill="midnightblue" stroke="midnightblue" points="1001.19,-347.186 1011.62,-345.309 1002.3,-340.273 1001.19,-347.186"/>
</g>
<!-- Node13 -->
<g id="node13" class="node"><title>Node13</title>
<g id="a_node13"><a xlink:href="file__system_8cpp.html#a6982b54d454c07cc3f770f67c5d0b5ef" target="_top" xlink:title="filespec_to_relative_path">
<polygon fill="white" stroke="black" points="1008.69,-305.811 1008.69,-325.811 1135.31,-325.811 1135.31,-305.811 1008.69,-305.811"/>
<text text-anchor="middle" x="1072" y="-311.811" font-family="Helvetica,sans-Serif" font-size="10.00">filespec_to_relative_path</text>
</a>
</g>
</g>
<!-- Node10&#45;&gt;Node13 -->
<g id="edge12" class="edge"><title>Node10&#45;&gt;Node13</title>
<path fill="none" stroke="midnightblue" d="M972.204,-330.828C980.038,-329.637 989.035,-328.269 998.342,-326.855"/>
<polygon fill="midnightblue" stroke="midnightblue" points="999.16,-330.27 1008.52,-325.307 998.108,-323.35 999.16,-330.27"/>
</g>
<!-- Node28 -->
<g id="node28" class="node"><title>Node28</title>
<g id="a_node28"><a xlink:href="classerror__position.html#af47fc5beec407412df713d56814af6fe" target="_top" xlink:title="error_position::line">
<polygon fill="white" stroke="black" points="1022.87,-266.811 1022.87,-286.811 1121.13,-286.811 1121.13,-266.811 1022.87,-266.811"/>
<text text-anchor="middle" x="1072" y="-272.811" font-family="Helvetica,sans-Serif" font-size="10.00">error_position::line</text>
</a>
</g>
</g>
<!-- Node10&#45;&gt;Node28 -->
<g id="edge37" class="edge"><title>Node10&#45;&gt;Node28</title>
<path fill="none" stroke="midnightblue" d="M959.673,-324.696C971.849,-316.066 990.408,-303.819 1008,-295.811 1012.44,-293.787 1017.16,-291.91 1021.94,-290.186"/>
<polygon fill="midnightblue" stroke="midnightblue" points="1023.4,-293.386 1031.75,-286.865 1021.15,-286.755 1023.4,-293.386"/>
</g>
<!-- Node14 -->
<g id="node14" class="node"><title>Node14</title>
<g id="a_node14"><a xlink:href="file__system_8cpp.html#a62475ca973dfe0094c00d60286c7c286" target="_top" xlink:title="create_filespec">
<polygon fill="white" stroke="black" points="1326.37,-364.811 1326.37,-384.811 1409.63,-384.811 1409.63,-364.811 1326.37,-364.811"/>
<text text-anchor="middle" x="1368" y="-370.811" font-family="Helvetica,sans-Serif" font-size="10.00">create_filespec</text>
</a>
</g>
</g>
<!-- Node13&#45;&gt;Node14 -->
<g id="edge13" class="edge"><title>Node13&#45;&gt;Node14</title>
<path fill="none" stroke="midnightblue" d="M1109.99,-325.849C1128.53,-330.702 1151.37,-336.413 1172,-340.811 1220.7,-351.189 1276.73,-360.711 1316.2,-367.021"/>
<polygon fill="midnightblue" stroke="midnightblue" points="1315.69,-370.484 1326.12,-368.594 1316.79,-363.57 1315.69,-370.484"/>
</g>
<!-- Node16 -->
<g id="node16" class="node"><title>Node16</title>
<g id="a_node16"><a xlink:href="file__system_8cpp.html#acf89fa1738d4f789e4cc5b9c3c3bec72" target="_top" xlink:title="filename_part">
<polygon fill="white" stroke="black" points="1329.7,-325.811 1329.7,-345.811 1406.3,-345.811 1406.3,-325.811 1329.7,-325.811"/>
<text text-anchor="middle" x="1368" y="-331.811" font-family="Helvetica,sans-Serif" font-size="10.00">filename_part</text>
</a>
</g>
</g>
<!-- Node13&#45;&gt;Node16 -->
<g id="edge15" class="edge"><title>Node13&#45;&gt;Node16</title>
<path fill="none" stroke="midnightblue" d="M1135.35,-320.052C1190.27,-323.788 1269.1,-329.151 1319.17,-332.557"/>
<polygon fill="midnightblue" stroke="midnightblue" points="1319.19,-336.066 1329.4,-333.253 1319.66,-329.082 1319.19,-336.066"/>
</g>
<!-- Node17 -->
<g id="node17" class="node"><title>Node17</title>
<g id="a_node17"><a xlink:href="file__system_8cpp.html#acb48f4675dcd897962719fcc704fa980" target="_top" xlink:title="folder_part">
<polygon fill="white" stroke="black" points="1199.1,-286.811 1199.1,-306.811 1262.9,-306.811 1262.9,-286.811 1199.1,-286.811"/>
<text text-anchor="middle" x="1231" y="-292.811" font-family="Helvetica,sans-Serif" font-size="10.00">folder_part</text>
</a>
</g>
</g>
<!-- Node13&#45;&gt;Node17 -->
<g id="edge17" class="edge"><title>Node13&#45;&gt;Node17</title>
<path fill="none" stroke="midnightblue" d="M1135.5,-308.247C1153.32,-306.09 1172.28,-303.795 1188.51,-301.831"/>
<polygon fill="midnightblue" stroke="midnightblue" points="1189.24,-305.269 1198.74,-300.593 1188.39,-298.32 1189.24,-305.269"/>
</g>
<!-- Node18 -->
<g id="node18" class="node"><title>Node18</title>
<g id="a_node18"><a xlink:href="file__system_8cpp.html#a154091f28159afef5c72b12cee64a9a0" target="_top" xlink:title="folder_to_relative_path">
<polygon fill="white" stroke="black" points="1172.13,-164.811 1172.13,-184.811 1289.87,-184.811 1289.87,-164.811 1172.13,-164.811"/>
<text text-anchor="middle" x="1231" y="-170.811" font-family="Helvetica,sans-Serif" font-size="10.00">folder_to_relative_path</text>
</a>
</g>
</g>
<!-- Node13&#45;&gt;Node18 -->
<g id="edge19" class="edge"><title>Node13&#45;&gt;Node18</title>
<path fill="none" stroke="midnightblue" d="M1116.65,-305.772C1123.46,-303.151 1130.16,-299.88 1136,-295.811 1174.89,-268.694 1205.19,-220.685 1220.01,-194.019"/>
<polygon fill="midnightblue" stroke="midnightblue" points="1223.25,-195.393 1224.92,-184.931 1217.09,-192.067 1223.25,-195.393"/>
</g>
<!-- Node15 -->
<g id="node15" class="node"><title>Node15</title>
<g id="a_node15"><a xlink:href="file__system_8cpp.html#a99e06c76afffe1f1d77f01c905b1a5fd" target="_top" xlink:title="is_separator">
<polygon fill="white" stroke="black" points="1707.49,-286.811 1707.49,-306.811 1778.51,-306.811 1778.51,-286.811 1707.49,-286.811"/>
<text text-anchor="middle" x="1743" y="-292.811" font-family="Helvetica,sans-Serif" font-size="10.00">is_separator</text>
</a>
</g>
</g>
<!-- Node14&#45;&gt;Node15 -->
<g id="edge14" class="edge"><title>Node14&#45;&gt;Node15</title>
<path fill="none" stroke="midnightblue" d="M1409.93,-371.63C1467.18,-366.485 1574,-354.336 1662,-329.811 1679.1,-325.046 1697.45,-317.652 1712.26,-311.07"/>
<polygon fill="midnightblue" stroke="midnightblue" points="1713.77,-314.224 1721.43,-306.898 1710.88,-307.853 1713.77,-314.224"/>
</g>
<!-- Node16&#45;&gt;Node15 -->
<g id="edge16" class="edge"><title>Node16&#45;&gt;Node15</title>
<path fill="none" stroke="midnightblue" d="M1406.58,-333.667C1462.44,-330.241 1570.62,-322.682 1662,-310.811 1673.57,-309.307 1686.02,-307.313 1697.57,-305.302"/>
<polygon fill="midnightblue" stroke="midnightblue" points="1698.22,-308.742 1707.45,-303.543 1696.99,-301.851 1698.22,-308.742"/>
</g>
<!-- Node17&#45;&gt;Node15 -->
<g id="edge18" class="edge"><title>Node17&#45;&gt;Node15</title>
<path fill="none" stroke="midnightblue" d="M1263.14,-296.811C1350.03,-296.811 1595.43,-296.811 1697.06,-296.811"/>
<polygon fill="midnightblue" stroke="midnightblue" points="1697.3,-300.311 1707.3,-296.811 1697.3,-293.311 1697.3,-300.311"/>
</g>
<!-- Node19 -->
<g id="node19" class="node"><title>Node19</title>
<g id="a_node19"><a xlink:href="file__system_8cpp.html#a0a5c33c34c3c47d4e15e955b7ac25681" target="_top" xlink:title="relative_path">
<polygon fill="white" stroke="black" points="1331.37,-103.811 1331.37,-123.811 1404.63,-123.811 1404.63,-103.811 1331.37,-103.811"/>
<text text-anchor="middle" x="1368" y="-109.811" font-family="Helvetica,sans-Serif" font-size="10.00">relative_path</text>
</a>
</g>
</g>
<!-- Node18&#45;&gt;Node19 -->
<g id="edge20" class="edge"><title>Node18&#45;&gt;Node19</title>
<path fill="none" stroke="midnightblue" d="M1254.29,-164.738C1276.37,-154.76 1310.4,-139.384 1335.29,-128.137"/>
<polygon fill="midnightblue" stroke="midnightblue" points="1337,-131.206 1344.67,-123.898 1334.12,-124.827 1337,-131.206"/>
</g>
<!-- Node20 -->
<g id="node20" class="node"><title>Node20</title>
<g id="a_node20"><a xlink:href="classfile__specification.html#a518bc2d13c74b0e00131c87fdd294f2b" target="_top" xlink:title="file_specification\l::image">
<polygon fill="white" stroke="black" points="1446.31,-171.811 1446.31,-203.811 1535.69,-203.811 1535.69,-171.811 1446.31,-171.811"/>
<text text-anchor="start" x="1454.31" y="-189.811" font-family="Helvetica,sans-Serif" font-size="10.00">file_specification</text>
<text text-anchor="middle" x="1491" y="-177.811" font-family="Helvetica,sans-Serif" font-size="10.00">::image</text>
</a>
</g>
</g>
<!-- Node19&#45;&gt;Node20 -->
<g id="edge21" class="edge"><title>Node19&#45;&gt;Node20</title>
<path fill="none" stroke="midnightblue" d="M1384.86,-123.85C1400.38,-133.638 1424.72,-148.895 1446,-161.811 1448.49,-163.321 1451.06,-164.872 1453.66,-166.427"/>
<polygon fill="midnightblue" stroke="midnightblue" points="1452.1,-169.571 1462.48,-171.683 1455.68,-163.558 1452.1,-169.571"/>
</g>
<!-- Node22 -->
<g id="node22" class="node"><title>Node22</title>
<g id="a_node22"><a xlink:href="classfile__specification.html#a18e9d7a9b9dd1214d09ab5e843ea7806" target="_top" xlink:title="file_specification\l::relative">
<polygon fill="white" stroke="black" points="1698.31,-24.8106 1698.31,-56.8106 1787.69,-56.8106 1787.69,-24.8106 1698.31,-24.8106"/>
<text text-anchor="start" x="1706.31" y="-42.8106" font-family="Helvetica,sans-Serif" font-size="10.00">file_specification</text>
<text text-anchor="middle" x="1743" y="-30.8106" font-family="Helvetica,sans-Serif" font-size="10.00">::relative</text>
</a>
</g>
</g>
<!-- Node19&#45;&gt;Node22 -->
<g id="edge36" class="edge"><title>Node19&#45;&gt;Node22</title>
<path fill="none" stroke="midnightblue" d="M1373.58,-103.761C1383.44,-83.5218 1408.82,-38.2961 1446,-20.8106 1524.04,15.8912 1626.61,-3.96931 1688.25,-22.1052"/>
<polygon fill="midnightblue" stroke="midnightblue" points="1687.56,-25.5553 1698.15,-25.108 1689.59,-18.8565 1687.56,-25.5553"/>
</g>
<!-- Node24 -->
<g id="node24" class="node"><title>Node24</title>
<g id="a_node24"><a xlink:href="classfile__specification.html#aefefc9da1b64f7ed66a436750a88ffa2" target="_top" xlink:title="file_specification\l::initialise_folder">
<polygon fill="white" stroke="black" points="1572.31,-69.8106 1572.31,-101.811 1661.69,-101.811 1661.69,-69.8106 1572.31,-69.8106"/>
<text text-anchor="start" x="1580.31" y="-87.8106" font-family="Helvetica,sans-Serif" font-size="10.00">file_specification</text>
<text text-anchor="middle" x="1617" y="-75.8106" font-family="Helvetica,sans-Serif" font-size="10.00">::initialise_folder</text>
</a>
</g>
</g>
<!-- Node19&#45;&gt;Node24 -->
<g id="edge27" class="edge"><title>Node19&#45;&gt;Node24</title>
<path fill="none" stroke="midnightblue" d="M1404.65,-109.769C1445.85,-105.099 1514.09,-97.3632 1561.85,-91.9489"/>
<polygon fill="midnightblue" stroke="midnightblue" points="1562.47,-95.4009 1572.02,-90.7967 1561.68,-88.4454 1562.47,-95.4009"/>
</g>
<!-- Node26 -->
<g id="node26" class="node"><title>Node26</title>
<g id="a_node26"><a xlink:href="classfile__specification.html#a1c51930e39fad4d827a81b5b12a72752" target="_top" xlink:title="file_specification\l::make_absolute">
<polygon fill="white" stroke="black" points="1446.31,-120.811 1446.31,-152.811 1535.69,-152.811 1535.69,-120.811 1446.31,-120.811"/>
<text text-anchor="start" x="1454.31" y="-138.811" font-family="Helvetica,sans-Serif" font-size="10.00">file_specification</text>
<text text-anchor="middle" x="1491" y="-126.811" font-family="Helvetica,sans-Serif" font-size="10.00">::make_absolute</text>
</a>
</g>
</g>
<!-- Node19&#45;&gt;Node26 -->
<g id="edge30" class="edge"><title>Node19&#45;&gt;Node26</title>
<path fill="none" stroke="midnightblue" d="M1404.65,-120.587C1414.48,-122.455 1425.36,-124.524 1435.98,-126.541"/>
<polygon fill="midnightblue" stroke="midnightblue" points="1435.55,-130.023 1446.03,-128.452 1436.86,-123.146 1435.55,-130.023"/>
</g>
<!-- Node27 -->
<g id="node27" class="node"><title>Node27</title>
<g id="a_node27"><a xlink:href="classfile__specification.html#a37f966146802536ffdb2f154e3df928f" target="_top" xlink:title="file_specification\l::make_relative">
<polygon fill="white" stroke="black" points="1446.31,-30.8106 1446.31,-62.8106 1535.69,-62.8106 1535.69,-30.8106 1446.31,-30.8106"/>
<text text-anchor="start" x="1454.31" y="-48.8106" font-family="Helvetica,sans-Serif" font-size="10.00">file_specification</text>
<text text-anchor="middle" x="1491" y="-36.8106" font-family="Helvetica,sans-Serif" font-size="10.00">::make_relative</text>
</a>
</g>
</g>
<!-- Node19&#45;&gt;Node27 -->
<g id="edge33" class="edge"><title>Node19&#45;&gt;Node27</title>
<path fill="none" stroke="midnightblue" d="M1387.11,-103.78C1404.19,-94.3251 1430.32,-79.8578 1451.97,-67.8686"/>
<polygon fill="midnightblue" stroke="midnightblue" points="1453.88,-70.8101 1460.94,-62.904 1450.49,-64.6863 1453.88,-70.8101"/>
</g>
<!-- Node20&#45;&gt;Node15 -->
<g id="edge24" class="edge"><title>Node20&#45;&gt;Node15</title>
<path fill="none" stroke="midnightblue" d="M1516.59,-203.829C1532.1,-213.533 1552.77,-225.745 1572,-234.811 1614.03,-254.62 1664.24,-272.234 1699.15,-283.578"/>
<polygon fill="midnightblue" stroke="midnightblue" points="1698.42,-287.022 1709.01,-286.75 1700.56,-280.358 1698.42,-287.022"/>
</g>
<!-- Node21 -->
<g id="node21" class="node"><title>Node21</title>
<g id="a_node21"><a xlink:href="classfile__specification.html#a5b8f1026354ff32bfc183da3f38f5ce7" target="_top" xlink:title="file_specification\l::absolute">
<polygon fill="white" stroke="black" points="1572.31,-120.811 1572.31,-152.811 1661.69,-152.811 1661.69,-120.811 1572.31,-120.811"/>
<text text-anchor="start" x="1580.31" y="-138.811" font-family="Helvetica,sans-Serif" font-size="10.00">file_specification</text>
<text text-anchor="middle" x="1617" y="-126.811" font-family="Helvetica,sans-Serif" font-size="10.00">::absolute</text>
</a>
</g>
</g>
<!-- Node20&#45;&gt;Node21 -->
<g id="edge22" class="edge"><title>Node20&#45;&gt;Node21</title>
<path fill="none" stroke="midnightblue" d="M1531.23,-171.674C1542.77,-166.93 1555.52,-161.685 1567.56,-156.734"/>
<polygon fill="midnightblue" stroke="midnightblue" points="1569.1,-159.883 1577.02,-152.842 1566.44,-153.409 1569.1,-159.883"/>
</g>
<!-- Node20&#45;&gt;Node22 -->
<g id="edge25" class="edge"><title>Node20&#45;&gt;Node22</title>
<path fill="none" stroke="midnightblue" d="M1529.24,-203.847C1566.71,-217.217 1624.21,-229.844 1662,-200.811 1711.24,-162.979 1660.06,-114.967 1698,-65.8106 1698.56,-65.0803 1699.16,-64.3679 1699.77,-63.673"/>
<polygon fill="midnightblue" stroke="midnightblue" points="1702.16,-66.2309 1707.16,-56.8919 1697.43,-61.0724 1702.16,-66.2309"/>
</g>
<!-- Node23 -->
<g id="node23" class="node"><title>Node23</title>
<g id="a_node23"><a xlink:href="string__utilities_8hpp.html#a657118c43fe44a8454311075655ac9d4" target="_top" xlink:title="vector_to_string">
<polygon fill="white" stroke="black" points="1573.43,-171.811 1573.43,-191.811 1660.57,-191.811 1660.57,-171.811 1573.43,-171.811"/>
<text text-anchor="middle" x="1617" y="-177.811" font-family="Helvetica,sans-Serif" font-size="10.00">vector_to_string</text>
</a>
</g>
</g>
<!-- Node20&#45;&gt;Node23 -->
<g id="edge26" class="edge"><title>Node20&#45;&gt;Node23</title>
<path fill="none" stroke="midnightblue" d="M1535.72,-185.695C1544.53,-185.269 1553.89,-184.816 1562.98,-184.376"/>
<polygon fill="midnightblue" stroke="midnightblue" points="1563.28,-187.866 1573.09,-183.887 1562.94,-180.874 1563.28,-187.866"/>
</g>
<!-- Node21&#45;&gt;Node22 -->
<g id="edge23" class="edge"><title>Node21&#45;&gt;Node22</title>
<path fill="none" stroke="midnightblue" d="M1648.81,-120.563C1653.43,-117.583 1657.98,-114.3 1662,-110.811 1681.34,-94.0208 1678.52,-82.4351 1698,-65.8106 1699.29,-64.7128 1700.63,-63.6388 1702.01,-62.5911"/>
<polygon fill="midnightblue" stroke="midnightblue" points="1704.01,-65.4623 1710.25,-56.8976 1700.03,-59.7036 1704.01,-65.4623"/>
</g>
<!-- Node24&#45;&gt;Node15 -->
<g id="edge28" class="edge"><title>Node24&#45;&gt;Node15</title>
<path fill="none" stroke="midnightblue" d="M1651.93,-101.964C1655.61,-104.589 1659.07,-107.537 1662,-110.811 1706.83,-160.892 1729.32,-239.932 1737.84,-276.728"/>
<polygon fill="midnightblue" stroke="midnightblue" points="1734.47,-277.701 1740.04,-286.712 1741.3,-276.193 1734.47,-277.701"/>
</g>
<!-- Node25 -->
<g id="node25" class="node"><title>Node25</title>
<g id="a_node25"><a xlink:href="classfile__specification.html#ab6e2c3cc492528550d2c4021d3a1c225" target="_top" xlink:title="file_specification\l::path">
<polygon fill="white" stroke="black" points="1698.31,-75.8106 1698.31,-107.811 1787.69,-107.811 1787.69,-75.8106 1698.31,-75.8106"/>
<text text-anchor="start" x="1706.31" y="-93.8106" font-family="Helvetica,sans-Serif" font-size="10.00">file_specification</text>
<text text-anchor="middle" x="1743" y="-81.8106" font-family="Helvetica,sans-Serif" font-size="10.00">::path</text>
</a>
</g>
</g>
<!-- Node24&#45;&gt;Node25 -->
<g id="edge29" class="edge"><title>Node24&#45;&gt;Node25</title>
<path fill="none" stroke="midnightblue" d="M1661.72,-87.9259C1670.24,-88.3382 1679.26,-88.7749 1688.07,-89.2009"/>
<polygon fill="midnightblue" stroke="midnightblue" points="1688.1,-92.7066 1698.26,-89.6941 1688.44,-85.7148 1688.1,-92.7066"/>
</g>
<!-- Node26&#45;&gt;Node21 -->
<g id="edge31" class="edge"><title>Node26&#45;&gt;Node21</title>
<path fill="none" stroke="midnightblue" d="M1535.72,-136.811C1544.24,-136.811 1553.26,-136.811 1562.07,-136.811"/>
<polygon fill="midnightblue" stroke="midnightblue" points="1562.26,-140.311 1572.26,-136.811 1562.26,-133.311 1562.26,-140.311"/>
</g>
<!-- Node26&#45;&gt;Node24 -->
<g id="edge32" class="edge"><title>Node26&#45;&gt;Node24</title>
<path fill="none" stroke="midnightblue" d="M1531.23,-120.674C1542.77,-115.93 1555.52,-110.685 1567.56,-105.734"/>
<polygon fill="midnightblue" stroke="midnightblue" points="1569.1,-108.883 1577.02,-101.842 1566.44,-102.409 1569.1,-108.883"/>
</g>
<!-- Node27&#45;&gt;Node22 -->
<g id="edge35" class="edge"><title>Node27&#45;&gt;Node22</title>
<path fill="none" stroke="midnightblue" d="M1535.83,-45.7586C1578.19,-44.7421 1642.44,-43.2 1687.94,-42.1079"/>
<polygon fill="midnightblue" stroke="midnightblue" points="1688.3,-45.6004 1698.22,-41.8613 1688.14,-38.6024 1688.3,-45.6004"/>
</g>
<!-- Node27&#45;&gt;Node24 -->
<g id="edge34" class="edge"><title>Node27&#45;&gt;Node24</title>
<path fill="none" stroke="midnightblue" d="M1535.72,-60.5605C1544.42,-63.2984 1553.66,-66.2023 1562.64,-69.0286"/>
<polygon fill="midnightblue" stroke="midnightblue" points="1561.67,-72.3918 1572.26,-72.0533 1563.77,-65.7142 1561.67,-72.3918"/>
</g>
<!-- Node31&#45;&gt;Node5 -->
<g id="edge42" class="edge"><title>Node31&#45;&gt;Node5</title>
<path fill="none" stroke="midnightblue" d="M438.898,-394.811C452.179,-394.811 466.984,-394.811 481.08,-394.811"/>
<polygon fill="midnightblue" stroke="midnightblue" points="481.186,-398.311 491.186,-394.811 481.186,-391.311 481.186,-398.311"/>
</g>
<!-- Node31&#45;&gt;Node32 -->
<g id="edge43" class="edge"><title>Node31&#45;&gt;Node32</title>
<path fill="none" stroke="midnightblue" d="M432.341,-384.767C450.861,-379.786 473.42,-373.718 493.094,-368.427"/>
<polygon fill="midnightblue" stroke="midnightblue" points="494.038,-371.797 502.785,-365.82 492.22,-365.038 494.038,-371.797"/>
</g>
<!-- Node33&#45;&gt;Node7 -->
<g id="edge45" class="edge"><title>Node33&#45;&gt;Node7</title>
<path fill="none" stroke="midnightblue" d="M298.909,-313.7C380.755,-317.93 532.969,-325.798 620.794,-330.337"/>
<polygon fill="midnightblue" stroke="midnightblue" points="620.747,-333.839 630.915,-330.86 621.109,-326.848 620.747,-333.839"/>
</g>
</g>
</svg>
        <g id="navigator" transform="translate(0 0)" fill="#404254">
                <rect fill="#f2f5e9" fill-opacity="0.5" stroke="#606060" stroke-width=".5" x="0" y="0" width="60" height="60"/>
                <use id="zoomplus" xlink:href="#zoomPlus" x="17" y="9" onmousedown="handleZoom(evt,'in')"/>
                <use id="zoomminus" xlink:href="#zoomMin" x="42" y="9" onmousedown="handleZoom(evt,'out')"/>
                <use id="reset" xlink:href="#resetDef" x="30" y="36" onmousedown="handleReset()"/>
                <g id="arrowUp" xlink:href="#dirArrow" transform="translate(30 24)" onmousedown="handlePan(0,-1)">
                  <use xlink:href="#rim" fill="#404040">
                        <set attributeName="fill" to="#808080" begin="arrowUp.mouseover" end="arrowUp.mouseout"/>
                  </use>
                  <path fill="none" stroke="white" stroke-width="1.5" d="M0,-3.0v7 M-2.5,-0.5L0,-3.0L2.5,-0.5"/>
                </g>
                <g id="arrowRight" xlink:href="#dirArrow" transform="rotate(90) translate(36 -43)" onmousedown="handlePan(1,0)">
                  <use xlink:href="#rim" fill="#404040">
                        <set attributeName="fill" to="#808080" begin="arrowRight.mouseover" end="arrowRight.mouseout"/>
                  </use>
                  <path fill="none" stroke="white" stroke-width="1.5" d="M0,-3.0v7 M-2.5,-0.5L0,-3.0L2.5,-0.5"/>
                </g>
                <g id="arrowDown" xlink:href="#dirArrow" transform="rotate(180) translate(-30 -48)" onmousedown="handlePan(0,1)">
                  <use xlink:href="#rim" fill="#404040">
                        <set attributeName="fill" to="#808080" begin="arrowDown.mouseover" end="arrowDown.mouseout"/>
                  </use>
                  <path fill="none" stroke="white" stroke-width="1.5" d="M0,-3.0v7 M-2.5,-0.5L0,-3.0L2.5,-0.5"/>
                </g>
                <g id="arrowLeft" xlink:href="#dirArrow" transform="rotate(270) translate(-36 17)" onmousedown="handlePan(-1,0)">
                  <use xlink:href="#rim" fill="#404040">
                        <set attributeName="fill" to="#808080" begin="arrowLeft.mouseover" end="arrowLeft.mouseout"/>
                  </use>
                  <path fill="none" stroke="white" stroke-width="1.5" d="M0,-3.0v7 M-2.5,-0.5L0,-3.0L2.5,-0.5"/>
                </g>
        </g>
        <svg viewBox="0 0 15 15" width="100%" height="30px" preserveAspectRatio="xMaxYMin meet">
         <g id="arrow_out" transform="scale(0.3 0.3)">
          <a xlink:href="class_t_c_p__server__data_a004eca7522f8ebfe804d8e7988225304_cgraph_org.svg" target="_base">
           <rect id="button" ry="5" rx="5" y="6" x="6" height="38" width="38"
                fill="#f2f5e9" fill-opacity="0.5" stroke="#606060" stroke-width="1.0"/>
           <path id="arrow"
             d="M 11.500037,31.436501 C 11.940474,20.09759 22.043105,11.32322 32.158766,21.979434 L 37.068811,17.246167 C 37.068811,17.246167 37.088388,32 37.088388,32 L 22.160133,31.978069 C 22.160133,31.978069 26.997745,27.140456 26.997745,27.140456 C 18.528582,18.264221 13.291696,25.230495 11.500037,31.436501 z"
             style="fill:#404040;"/>
          </a>
         </g>
        </svg>
</svg>
