<?xml version="1.0" encoding="UTF-8" standalone="no"?>
<!DOCTYPE svg PUBLIC "-//W3C//DTD SVG 1.1//EN"
 "http://www.w3.org/Graphics/SVG/1.1/DTD/svg11.dtd">
<!-- Generated by graphviz version 2.32.0 (20130916.1925)
 -->
<!-- Title: rcImageCanvasGL::findClosestCellGroup Pages: 1 -->
<svg width="532pt" height="40pt"
 viewBox="0.00 0.00 532.00 40.00" xmlns="http://www.w3.org/2000/svg" xmlns:xlink="http://www.w3.org/1999/xlink">
<g id="graph0" class="graph" transform="scale(1 1) rotate(0) translate(4 36)">
<title>rcImageCanvasGL::findClosestCellGroup</title>
<polygon fill="white" stroke="white" points="-4,5 -4,-36 529,-36 529,5 -4,5"/>
<!-- Node1 -->
<g id="node1" class="node"><title>Node1</title>
<polygon fill="#bfbfbf" stroke="black" points="-0.196777,-0 -0.196777,-32 154.197,-32 154.197,-0 -0.196777,-0"/>
<text text-anchor="start" x="7.80322" y="-18" font-family="Helvetica,sans-Serif" font-size="10.00">rcImageCanvasGL::findClosest</text>
<text text-anchor="middle" x="77" y="-6" font-family="Helvetica,sans-Serif" font-size="10.00">CellGroup</text>
</g>
<!-- Node2 -->
<g id="node2" class="node"><title>Node2</title>
<g id="a_node2"><a xlink:href="classrc_image_canvas_g_l.html#a81111b0e59530e373e19cc01144c0347" target="_top" xlink:title="rcImageCanvasGL::getTool\lTipText">
<polygon fill="white" stroke="black" points="190.414,-0 190.414,-32 327.586,-32 327.586,-0 190.414,-0"/>
<text text-anchor="start" x="198.414" y="-18" font-family="Helvetica,sans-Serif" font-size="10.00">rcImageCanvasGL::getTool</text>
<text text-anchor="middle" x="259" y="-6" font-family="Helvetica,sans-Serif" font-size="10.00">TipText</text>
</a>
</g>
</g>
<!-- Node1&#45;&gt;Node2 -->
<g id="edge1" class="edge"><title>Node1&#45;&gt;Node2</title>
<path fill="none" stroke="midnightblue" d="M164.501,-16C173.194,-16 181.93,-16 190.384,-16"/>
<polygon fill="midnightblue" stroke="midnightblue" points="164.336,-12.5001 154.336,-16 164.336,-19.5001 164.336,-12.5001"/>
</g>
<!-- Node3 -->
<g id="node3" class="node"><title>Node3</title>
<g id="a_node3"><a xlink:href="classrc_image_canvas_g_l.html#ab57b93a733a4e2b8703a4ee083d46737" target="_top" xlink:title="rcImageCanvasGL::mouseMove\lEvent">
<polygon fill="white" stroke="black" points="364.303,-0 364.303,-32 523.697,-32 523.697,-0 364.303,-0"/>
<text text-anchor="start" x="372.303" y="-18" font-family="Helvetica,sans-Serif" font-size="10.00">rcImageCanvasGL::mouseMove</text>
<text text-anchor="middle" x="444" y="-6" font-family="Helvetica,sans-Serif" font-size="10.00">Event</text>
</a>
</g>
</g>
<!-- Node2&#45;&gt;Node3 -->
<g id="edge2" class="edge"><title>Node2&#45;&gt;Node3</title>
<path fill="none" stroke="midnightblue" d="M337.792,-16C346.538,-16 355.455,-16 364.214,-16"/>
<polygon fill="midnightblue" stroke="midnightblue" points="337.623,-12.5001 327.623,-16 337.622,-19.5001 337.623,-12.5001"/>
</g>
</g>
</svg>
