<?xml version="1.0" encoding="UTF-8" standalone="no"?>
<!DOCTYPE svg PUBLIC "-//W3C//DTD SVG 1.1//EN"
 "http://www.w3.org/Graphics/SVG/1.1/DTD/svg11.dtd">
<!-- Generated by graphviz version 2.32.0 (20130916.1925)
 -->
<!-- Title: rcCameraProperty::canOnOff Pages: 1 -->
<svg width="1024pt" height="146pt"
 viewBox="0.00 0.00 1024.00 146.00" xmlns="http://www.w3.org/2000/svg" xmlns:xlink="http://www.w3.org/1999/xlink">
<g id="graph0" class="graph" transform="scale(1 1) rotate(0) translate(4 142)">
<title>rcCameraProperty::canOnOff</title>
<polygon fill="white" stroke="white" points="-4,5 -4,-142 1021,-142 1021,5 -4,5"/>
<!-- Node1 -->
<g id="node1" class="node"><title>Node1</title>
<polygon fill="#bfbfbf" stroke="black" points="0.065918,-45 0.065918,-65 145.934,-65 145.934,-45 0.065918,-45"/>
<text text-anchor="middle" x="73" y="-51" font-family="Helvetica,sans-Serif" font-size="10.00">rcCameraProperty::canOnOff</text>
</g>
<!-- Node2 -->
<g id="node2" class="node"><title>Node2</title>
<g id="a_node2"><a xlink:href="rc__dcam_8cpp.html#ac94c927dbd4df168f8aa9e6780a735cf" target="_top" xlink:title="GetCameraProperty">
<polygon fill="white" stroke="black" points="205.261,-90 205.261,-110 310.739,-110 310.739,-90 205.261,-90"/>
<text text-anchor="middle" x="258" y="-96" font-family="Helvetica,sans-Serif" font-size="10.00">GetCameraProperty</text>
</a>
</g>
</g>
<!-- Node1&#45;&gt;Node2 -->
<g id="edge1" class="edge"><title>Node1&#45;&gt;Node2</title>
<path fill="none" stroke="midnightblue" d="M124.934,-67.5248C153.686,-74.5948 189.137,-83.3124 216.068,-89.9348"/>
<polygon fill="midnightblue" stroke="midnightblue" points="125.615,-64.0881 115.069,-65.0989 123.944,-70.8856 125.615,-64.0881"/>
</g>
<!-- Node12 -->
<g id="node12" class="node"><title>Node12</title>
<g id="a_node12"><a xlink:href="classrc_camera_mapper.html#a7e1ab092429a23e5c2e0115e0a72899e" target="_top" xlink:title="rcCameraMapper::GetCamera\lProperty">
<polygon fill="white" stroke="black" points="182.478,-39 182.478,-71 333.522,-71 333.522,-39 182.478,-39"/>
<text text-anchor="start" x="190.478" y="-57" font-family="Helvetica,sans-Serif" font-size="10.00">rcCameraMapper::GetCamera</text>
<text text-anchor="middle" x="258" y="-45" font-family="Helvetica,sans-Serif" font-size="10.00">Property</text>
</a>
</g>
</g>
<!-- Node1&#45;&gt;Node12 -->
<g id="edge12" class="edge"><title>Node1&#45;&gt;Node12</title>
<path fill="none" stroke="midnightblue" d="M156.197,-55C164.889,-55 173.694,-55 182.294,-55"/>
<polygon fill="midnightblue" stroke="midnightblue" points="156.064,-51.5001 146.064,-55 156.064,-58.5001 156.064,-51.5001"/>
</g>
<!-- Node13 -->
<g id="node13" class="node"><title>Node13</title>
<g id="a_node13"><a xlink:href="rc__dcam_8cpp.html#a90efefb88ce3a8a7e679a62fb101502f" target="_top" xlink:title="operator\&lt;\&lt;">
<polygon fill="white" stroke="black" points="225.537,-0 225.537,-20 290.463,-20 290.463,-0 225.537,-0"/>
<text text-anchor="middle" x="258" y="-6" font-family="Helvetica,sans-Serif" font-size="10.00">operator&lt;&lt;</text>
</a>
</g>
</g>
<!-- Node1&#45;&gt;Node13 -->
<g id="edge13" class="edge"><title>Node1&#45;&gt;Node13</title>
<path fill="none" stroke="midnightblue" d="M124.784,-42.5121C157.043,-34.5795 197.784,-24.5613 225.456,-17.7568"/>
<polygon fill="midnightblue" stroke="midnightblue" points="123.944,-39.1144 115.069,-44.9011 125.615,-45.9119 123.944,-39.1144"/>
</g>
<!-- Node3 -->
<g id="node3" class="node"><title>Node3</title>
<g id="a_node3"><a xlink:href="classrc_camera_mapper.html#a2124becc0391d389b0437c82e6d5b913" target="_top" xlink:title="rcCameraMapper::Fill\l_dcam_info">
<polygon fill="white" stroke="black" points="373.934,-106 373.934,-138 486.066,-138 486.066,-106 373.934,-106"/>
<text text-anchor="start" x="381.934" y="-124" font-family="Helvetica,sans-Serif" font-size="10.00">rcCameraMapper::Fill</text>
<text text-anchor="middle" x="430" y="-112" font-family="Helvetica,sans-Serif" font-size="10.00">_dcam_info</text>
</a>
</g>
</g>
<!-- Node2&#45;&gt;Node3 -->
<g id="edge2" class="edge"><title>Node2&#45;&gt;Node3</title>
<path fill="none" stroke="midnightblue" d="M320.941,-108.016C338.257,-110.257 356.955,-112.677 373.85,-114.863"/>
<polygon fill="midnightblue" stroke="midnightblue" points="321.296,-104.533 310.929,-106.72 320.397,-111.475 321.296,-104.533"/>
</g>
<!-- Node4 -->
<g id="node4" class="node"><title>Node4</title>
<g id="a_node4"><a xlink:href="rc__dcam_8h.html#aa36bd157651ad33c1b8bb4105423d8b4" target="_top" xlink:title="rfGetCameraProperties">
<polygon fill="white" stroke="black" points="370.315,-67 370.315,-87 489.685,-87 489.685,-67 370.315,-67"/>
<text text-anchor="middle" x="430" y="-73" font-family="Helvetica,sans-Serif" font-size="10.00">rfGetCameraProperties</text>
</a>
</g>
</g>
<!-- Node2&#45;&gt;Node4 -->
<g id="edge3" class="edge"><title>Node2&#45;&gt;Node4</title>
<path fill="none" stroke="midnightblue" d="M321.255,-91.5772C337.264,-89.4114 354.434,-87.0884 370.258,-84.9475"/>
<polygon fill="midnightblue" stroke="midnightblue" points="320.37,-88.1651 310.929,-92.9743 321.308,-95.1019 320.37,-88.1651"/>
</g>
<!-- Node5 -->
<g id="node5" class="node"><title>Node5</title>
<g id="a_node5"><a xlink:href="rc__dcam_8h.html#a471b8dac84c06d5437ad0e873b84da77" target="_top" xlink:title="rfGetCameraCapabilities">
<polygon fill="white" stroke="black" points="526.256,-87 526.256,-107 651.744,-107 651.744,-87 526.256,-87"/>
<text text-anchor="middle" x="589" y="-93" font-family="Helvetica,sans-Serif" font-size="10.00">rfGetCameraCapabilities</text>
</a>
</g>
</g>
<!-- Node4&#45;&gt;Node5 -->
<g id="edge4" class="edge"><title>Node4&#45;&gt;Node5</title>
<path fill="none" stroke="midnightblue" d="M500.017,-85.7919C508.712,-86.8996 517.565,-88.0273 526.14,-89.1197"/>
<polygon fill="midnightblue" stroke="midnightblue" points="500.27,-82.296 489.908,-84.5042 499.385,-89.2399 500.27,-82.296"/>
</g>
<!-- Node11 -->
<g id="node11" class="node"><title>Node11</title>
<g id="a_node11"><a xlink:href="rc__dcam_8h.html#abdaac796c588bd54040222228f90bd0f" target="_top" xlink:title="rfGetCameraInformation">
<polygon fill="white" stroke="black" points="527.091,-48 527.091,-68 650.909,-68 650.909,-48 527.091,-48"/>
<text text-anchor="middle" x="589" y="-54" font-family="Helvetica,sans-Serif" font-size="10.00">rfGetCameraInformation</text>
</a>
</g>
</g>
<!-- Node4&#45;&gt;Node11 -->
<g id="edge10" class="edge"><title>Node4&#45;&gt;Node11</title>
<path fill="none" stroke="midnightblue" d="M499.952,-68.6555C508.935,-67.5684 518.087,-66.4608 526.928,-65.3908"/>
<polygon fill="midnightblue" stroke="midnightblue" points="499.415,-65.1949 489.908,-69.871 500.256,-72.1442 499.415,-65.1949"/>
</g>
<!-- Node6 -->
<g id="node6" class="node"><title>Node6</title>
<g id="a_node6"><a xlink:href="rc__dcam__capture_8cpp.html#a8fcb91e1b2e6adaad571752a59ac3dad" target="_top" xlink:title="InitializeMungData2">
<polygon fill="white" stroke="black" points="688.086,-67 688.086,-87 791.914,-87 791.914,-67 688.086,-67"/>
<text text-anchor="middle" x="740" y="-73" font-family="Helvetica,sans-Serif" font-size="10.00">InitializeMungData2</text>
</a>
</g>
</g>
<!-- Node5&#45;&gt;Node6 -->
<g id="edge5" class="edge"><title>Node5&#45;&gt;Node6</title>
<path fill="none" stroke="midnightblue" d="M661.808,-87.3614C670.63,-86.1772 679.502,-84.9863 687.929,-83.8551"/>
<polygon fill="midnightblue" stroke="midnightblue" points="661.34,-83.8926 651.895,-88.692 662.272,-90.8304 661.34,-83.8926"/>
</g>
<!-- Node7 -->
<g id="node7" class="node"><title>Node7</title>
<g id="a_node7"><a xlink:href="rc__dcam__capture_8h.html#aa3528bb0b33aa9119084d4b082f8c0aa" target="_top" xlink:title="rfDCAMVideoCapture">
<polygon fill="white" stroke="black" points="828.736,-87 828.736,-107 941.264,-107 941.264,-87 828.736,-87"/>
<text text-anchor="middle" x="885" y="-93" font-family="Helvetica,sans-Serif" font-size="10.00">rfDCAMVideoCapture</text>
</a>
</g>
</g>
<!-- Node6&#45;&gt;Node7 -->
<g id="edge6" class="edge"><title>Node6&#45;&gt;Node7</title>
<path fill="none" stroke="midnightblue" d="M802.251,-85.5666C810.9,-86.7763 819.754,-88.0146 828.292,-89.2086"/>
<polygon fill="midnightblue" stroke="midnightblue" points="802.611,-82.0829 792.222,-84.164 801.641,-89.0154 802.611,-82.0829"/>
</g>
<!-- Node9 -->
<g id="node9" class="node"><title>Node9</title>
<g id="a_node9"><a xlink:href="rc__qtime__capture_8h.html#adf4b66b022a2bc6ba21cddbc179756cb" target="_top" xlink:title="rfQTVideoCapture">
<polygon fill="white" stroke="black" points="836.514,-48 836.514,-68 933.486,-68 933.486,-48 836.514,-48"/>
<text text-anchor="middle" x="885" y="-54" font-family="Helvetica,sans-Serif" font-size="10.00">rfQTVideoCapture</text>
</a>
</g>
</g>
<!-- Node6&#45;&gt;Node9 -->
<g id="edge8" class="edge"><title>Node6&#45;&gt;Node9</title>
<path fill="none" stroke="midnightblue" d="M802.181,-68.871C813.655,-67.3465 825.491,-65.774 836.473,-64.3148"/>
<polygon fill="midnightblue" stroke="midnightblue" points="801.674,-65.4075 792.222,-70.1942 802.596,-72.3466 801.674,-65.4075"/>
</g>
<!-- Node8 -->
<g id="node8" class="node"><title>Node8</title>
<g id="a_node8"><a xlink:href="rc__dcam__main_8cpp.html#a3c04138a5bfe5d72780bb7e82a18e627" target="_top" xlink:title="main">
<polygon fill="white" stroke="black" points="978.163,-87 978.163,-107 1015.84,-107 1015.84,-87 978.163,-87"/>
<text text-anchor="middle" x="997" y="-93" font-family="Helvetica,sans-Serif" font-size="10.00">main</text>
</a>
</g>
</g>
<!-- Node7&#45;&gt;Node8 -->
<g id="edge7" class="edge"><title>Node7&#45;&gt;Node8</title>
<path fill="none" stroke="midnightblue" d="M951.526,-97C961.212,-97 970.445,-97 977.963,-97"/>
<polygon fill="midnightblue" stroke="midnightblue" points="951.322,-93.5001 941.322,-97 951.322,-100.5 951.322,-93.5001"/>
</g>
<!-- Node10 -->
<g id="node10" class="node"><title>Node10</title>
<g id="a_node10"><a xlink:href="rc__qtime__main_8cpp.html#a3c04138a5bfe5d72780bb7e82a18e627" target="_top" xlink:title="main">
<polygon fill="white" stroke="black" points="978.163,-48 978.163,-68 1015.84,-68 1015.84,-48 978.163,-48"/>
<text text-anchor="middle" x="997" y="-54" font-family="Helvetica,sans-Serif" font-size="10.00">main</text>
</a>
</g>
</g>
<!-- Node9&#45;&gt;Node10 -->
<g id="edge9" class="edge"><title>Node9&#45;&gt;Node10</title>
<path fill="none" stroke="midnightblue" d="M943.663,-58C956.213,-58 968.578,-58 978.135,-58"/>
<polygon fill="midnightblue" stroke="midnightblue" points="943.608,-54.5001 933.608,-58 943.608,-61.5001 943.608,-54.5001"/>
</g>
<!-- Node11&#45;&gt;Node6 -->
<g id="edge11" class="edge"><title>Node11&#45;&gt;Node6</title>
<path fill="none" stroke="midnightblue" d="M661.139,-67.0714C670.138,-68.219 679.203,-69.3749 687.807,-70.4721"/>
<polygon fill="midnightblue" stroke="midnightblue" points="661.396,-63.576 651.034,-65.7828 660.511,-70.5197 661.396,-63.576"/>
</g>
</g>
</svg>
