<?xml version="1.0" encoding="UTF-8" standalone="no"?>
<!DOCTYPE svg PUBLIC "-//W3C//DTD SVG 1.1//EN"
 "http://www.w3.org/Graphics/SVG/1.1/DTD/svg11.dtd">
<!-- Generated by graphviz version 2.32.0 (20130916.1925)
 -->
<!-- Title: otext::operator&lt;&lt; Pages: 1 -->
<svg width="746pt" height="379pt"
 viewBox="0.00 0.00 746.00 379.00" xmlns="http://www.w3.org/2000/svg" xmlns:xlink="http://www.w3.org/1999/xlink">
<g id="graph0" class="graph" transform="scale(1 1) rotate(0) translate(4 375)">
<title>otext::operator&lt;&lt;</title>
<polygon fill="white" stroke="white" points="-4,5 -4,-375 743,-375 743,5 -4,5"/>
<!-- Node1 -->
<g id="node1" class="node"><title>Node1</title>
<polygon fill="#bfbfbf" stroke="black" points="-0.0810547,-195 -0.0810547,-215 92.0811,-215 92.0811,-195 -0.0810547,-195"/>
<text text-anchor="middle" x="46" y="-201" font-family="Helvetica,sans-Serif" font-size="10.00">otext::operator&lt;&lt;</text>
</g>
<!-- Node2 -->
<g id="node2" class="node"><title>Node2</title>
<g id="a_node2"><a xlink:href="classitext.html#aaee598f762de2ee4100c1a4c89f7ea44" target="_top" xlink:title="itext::get">
<polygon fill="white" stroke="black" points="130.101,-273 130.101,-293 183.899,-293 183.899,-273 130.101,-273"/>
<text text-anchor="middle" x="157" y="-279" font-family="Helvetica,sans-Serif" font-size="10.00">itext::get</text>
</a>
</g>
</g>
<!-- Node1&#45;&gt;Node2 -->
<g id="edge1" class="edge"><title>Node1&#45;&gt;Node2</title>
<path fill="none" stroke="midnightblue" d="M61.2498,-215.197C79.61,-228.336 111.74,-251.328 133.436,-266.853"/>
<polygon fill="midnightblue" stroke="midnightblue" points="131.578,-269.827 141.747,-272.8 135.651,-264.135 131.578,-269.827"/>
</g>
<!-- Node7 -->
<g id="node7" class="node"><title>Node7</title>
<g id="a_node7"><a xlink:href="classotext.html#a5086c0fd5e3f551eae3027e5d23d3c30" target="_top" xlink:title="otext::put">
<polygon fill="white" stroke="black" points="128.431,-117 128.431,-137 185.569,-137 185.569,-117 128.431,-117"/>
<text text-anchor="middle" x="157" y="-123" font-family="Helvetica,sans-Serif" font-size="10.00">otext::put</text>
</a>
</g>
</g>
<!-- Node1&#45;&gt;Node7 -->
<g id="edge6" class="edge"><title>Node1&#45;&gt;Node7</title>
<path fill="none" stroke="midnightblue" d="M61.2498,-194.803C79.61,-181.664 111.74,-158.672 133.436,-143.147"/>
<polygon fill="midnightblue" stroke="midnightblue" points="135.651,-145.865 141.747,-137.2 131.578,-140.173 135.651,-145.865"/>
</g>
<!-- Node3 -->
<g id="node3" class="node"><title>Node3</title>
<g id="a_node3"><a xlink:href="classibuff.html#afddfd5bdd2219ccd01dd176e5cd57369" target="_top" xlink:title="ibuff::get">
<polygon fill="white" stroke="black" points="248.908,-351 248.908,-371 303.092,-371 303.092,-351 248.908,-351"/>
<text text-anchor="middle" x="276" y="-357" font-family="Helvetica,sans-Serif" font-size="10.00">ibuff::get</text>
</a>
</g>
</g>
<!-- Node2&#45;&gt;Node3 -->
<g id="edge2" class="edge"><title>Node2&#45;&gt;Node3</title>
<path fill="none" stroke="midnightblue" d="M167.042,-293.292C178.667,-305.992 199.993,-327.551 222,-341 227.268,-344.22 233.14,-347.063 239.003,-349.521"/>
<polygon fill="midnightblue" stroke="midnightblue" points="238.163,-352.949 248.752,-353.292 240.688,-346.42 238.163,-352.949"/>
</g>
<!-- Node4 -->
<g id="node4" class="node"><title>Node4</title>
<g id="a_node4"><a xlink:href="classibuff.html#aecdbe63ee9b456ffac55153b8aaeec79" target="_top" xlink:title="ibuff::increment">
<polygon fill="white" stroke="black" points="233.906,-312 233.906,-332 318.094,-332 318.094,-312 233.906,-312"/>
<text text-anchor="middle" x="276" y="-318" font-family="Helvetica,sans-Serif" font-size="10.00">ibuff::increment</text>
</a>
</g>
</g>
<!-- Node2&#45;&gt;Node4 -->
<g id="edge3" class="edge"><title>Node2&#45;&gt;Node4</title>
<path fill="none" stroke="midnightblue" d="M183.966,-291.655C199.048,-296.683 218.361,-303.12 235.315,-308.772"/>
<polygon fill="midnightblue" stroke="midnightblue" points="234.38,-312.149 244.974,-311.991 236.594,-305.509 234.38,-312.149"/>
</g>
<!-- Node5 -->
<g id="node5" class="node"><title>Node5</title>
<g id="a_node5"><a xlink:href="classibuff.html#a34316b72de5ddac433ef6d29d7c00eb4" target="_top" xlink:title="ibuff::newline_mode">
<polygon fill="white" stroke="black" points="223.615,-273 223.615,-293 328.385,-293 328.385,-273 223.615,-273"/>
<text text-anchor="middle" x="276" y="-279" font-family="Helvetica,sans-Serif" font-size="10.00">ibuff::newline_mode</text>
</a>
</g>
</g>
<!-- Node2&#45;&gt;Node5 -->
<g id="edge4" class="edge"><title>Node2&#45;&gt;Node5</title>
<path fill="none" stroke="midnightblue" d="M183.966,-283C192.651,-283 202.738,-283 212.97,-283"/>
<polygon fill="midnightblue" stroke="midnightblue" points="213.203,-286.5 223.203,-283 213.203,-279.5 213.203,-286.5"/>
</g>
<!-- Node6 -->
<g id="node6" class="node"><title>Node6</title>
<g id="a_node6"><a xlink:href="classibuff.html#af83bd07bbed7b837d08c8bafdfbd3e87" target="_top" xlink:title="ibuff::peek">
<polygon fill="white" stroke="black" points="245.017,-234 245.017,-254 306.983,-254 306.983,-234 245.017,-234"/>
<text text-anchor="middle" x="276" y="-240" font-family="Helvetica,sans-Serif" font-size="10.00">ibuff::peek</text>
</a>
</g>
</g>
<!-- Node2&#45;&gt;Node6 -->
<g id="edge5" class="edge"><title>Node2&#45;&gt;Node6</title>
<path fill="none" stroke="midnightblue" d="M183.966,-274.345C199.048,-269.317 218.361,-262.88 235.315,-257.228"/>
<polygon fill="midnightblue" stroke="midnightblue" points="236.594,-260.491 244.974,-254.009 234.38,-253.851 236.594,-260.491"/>
</g>
<!-- Node8 -->
<g id="node8" class="node"><title>Node8</title>
<g id="a_node8"><a xlink:href="classotext.html#a2a2435d80cce60cb88360c7bfe3f8445" target="_top" xlink:title="otext::set_error">
<polygon fill="white" stroke="black" points="234.375,-195 234.375,-215 317.625,-215 317.625,-195 234.375,-195"/>
<text text-anchor="middle" x="276" y="-201" font-family="Helvetica,sans-Serif" font-size="10.00">otext::set_error</text>
</a>
</g>
</g>
<!-- Node7&#45;&gt;Node8 -->
<g id="edge7" class="edge"><title>Node7&#45;&gt;Node8</title>
<path fill="none" stroke="midnightblue" d="M167.042,-137.292C178.667,-149.992 199.993,-171.551 222,-185 225.442,-187.103 229.141,-189.046 232.928,-190.826"/>
<polygon fill="midnightblue" stroke="midnightblue" points="231.851,-194.173 242.42,-194.912 234.619,-187.743 231.851,-194.173"/>
</g>
<!-- Node12 -->
<g id="node12" class="node"><title>Node12</title>
<g id="a_node12"><a xlink:href="classobuff.html#a5bbb61ac15c672da7f7b2002bef6b128" target="_top" xlink:title="obuff::put">
<polygon fill="white" stroke="black" points="247.238,-156 247.238,-176 304.762,-176 304.762,-156 247.238,-156"/>
<text text-anchor="middle" x="276" y="-162" font-family="Helvetica,sans-Serif" font-size="10.00">obuff::put</text>
</a>
</g>
</g>
<!-- Node7&#45;&gt;Node12 -->
<g id="edge11" class="edge"><title>Node7&#45;&gt;Node12</title>
<path fill="none" stroke="midnightblue" d="M185.727,-136.242C201.205,-141.402 220.701,-147.9 237.522,-153.507"/>
<polygon fill="midnightblue" stroke="midnightblue" points="236.473,-156.847 247.066,-156.689 238.686,-150.206 236.473,-156.847"/>
</g>
<!-- Node13 -->
<g id="node13" class="node"><title>Node13</title>
<g id="a_node13"><a xlink:href="classobuff.html#a069bcd2767c0d7c8e2bc8cd26d91e267" target="_top" xlink:title="obuff::increment">
<polygon fill="white" stroke="black" points="232.236,-117 232.236,-137 319.764,-137 319.764,-117 232.236,-117"/>
<text text-anchor="middle" x="276" y="-123" font-family="Helvetica,sans-Serif" font-size="10.00">obuff::increment</text>
</a>
</g>
</g>
<!-- Node7&#45;&gt;Node13 -->
<g id="edge12" class="edge"><title>Node7&#45;&gt;Node13</title>
<path fill="none" stroke="midnightblue" d="M185.727,-127C196.497,-127 209.212,-127 221.618,-127"/>
<polygon fill="midnightblue" stroke="midnightblue" points="221.916,-130.5 231.916,-127 221.916,-123.5 221.916,-130.5"/>
</g>
<!-- Node14 -->
<g id="node14" class="node"><title>Node14</title>
<g id="a_node14"><a xlink:href="classobuff.html#a0711113beee11f9793f5ba9e8e64c641" target="_top" xlink:title="obuff::newline_mode">
<polygon fill="white" stroke="black" points="221.945,-78 221.945,-98 330.055,-98 330.055,-78 221.945,-78"/>
<text text-anchor="middle" x="276" y="-84" font-family="Helvetica,sans-Serif" font-size="10.00">obuff::newline_mode</text>
</a>
</g>
</g>
<!-- Node7&#45;&gt;Node14 -->
<g id="edge13" class="edge"><title>Node7&#45;&gt;Node14</title>
<path fill="none" stroke="midnightblue" d="M185.727,-117.758C200.389,-112.87 218.656,-106.781 234.84,-101.387"/>
<polygon fill="midnightblue" stroke="midnightblue" points="236.216,-104.617 244.596,-98.1347 234.002,-97.9766 236.216,-104.617"/>
</g>
<!-- Node15 -->
<g id="node15" class="node"><title>Node15</title>
<g id="a_node15"><a xlink:href="classobuff.html#a51efd4e8e00303842fa762940aad86ec" target="_top" xlink:title="obuff::line_buffer">
<polygon fill="white" stroke="black" points="230.927,-39 230.927,-59 321.073,-59 321.073,-39 230.927,-39"/>
<text text-anchor="middle" x="276" y="-45" font-family="Helvetica,sans-Serif" font-size="10.00">obuff::line_buffer</text>
</a>
</g>
</g>
<!-- Node7&#45;&gt;Node15 -->
<g id="edge14" class="edge"><title>Node7&#45;&gt;Node15</title>
<path fill="none" stroke="midnightblue" d="M167.042,-116.708C178.667,-104.008 199.993,-82.4489 222,-69 225.442,-66.8966 229.141,-64.9538 232.928,-63.1742"/>
<polygon fill="midnightblue" stroke="midnightblue" points="234.619,-66.2566 242.42,-59.0879 231.851,-59.827 234.619,-66.2566"/>
</g>
<!-- Node16 -->
<g id="node16" class="node"><title>Node16</title>
<g id="a_node16"><a xlink:href="classotext.html#ab52b059090ba70eeeac469f9051d3a22" target="_top" xlink:title="otext::flush">
<polygon fill="white" stroke="black" points="243.82,-0 243.82,-20 308.18,-20 308.18,-0 243.82,-0"/>
<text text-anchor="middle" x="276" y="-6" font-family="Helvetica,sans-Serif" font-size="10.00">otext::flush</text>
</a>
</g>
</g>
<!-- Node7&#45;&gt;Node16 -->
<g id="edge15" class="edge"><title>Node7&#45;&gt;Node16</title>
<path fill="none" stroke="midnightblue" d="M161.999,-116.838C170.258,-97.1109 191.057,-53.4263 222,-29 225.637,-26.1288 229.745,-23.6695 234.024,-21.5679"/>
<polygon fill="midnightblue" stroke="midnightblue" points="235.716,-24.6516 243.549,-17.5176 232.977,-18.2098 235.716,-24.6516"/>
</g>
<!-- Node9 -->
<g id="node9" class="node"><title>Node9</title>
<g id="a_node9"><a xlink:href="classobuff.html#ae388e9608d1c873d1feaf621f4044c25" target="_top" xlink:title="obuff::set_error">
<polygon fill="white" stroke="black" points="366.182,-195 366.182,-215 449.818,-215 449.818,-195 366.182,-195"/>
<text text-anchor="middle" x="408" y="-201" font-family="Helvetica,sans-Serif" font-size="10.00">obuff::set_error</text>
</a>
</g>
</g>
<!-- Node8&#45;&gt;Node9 -->
<g id="edge8" class="edge"><title>Node8&#45;&gt;Node9</title>
<path fill="none" stroke="midnightblue" d="M317.776,-205C329.76,-205 343.026,-205 355.583,-205"/>
<polygon fill="midnightblue" stroke="midnightblue" points="355.922,-208.5 365.922,-205 355.922,-201.5 355.922,-208.5"/>
</g>
<!-- Node10 -->
<g id="node10" class="node"><title>Node10</title>
<g id="a_node10"><a xlink:href="class_t_c_p__client__data.html#a970f6bf6bb6e6166615813c5f7768381" target="_top" xlink:title="TCP_client_data::error">
<polygon fill="white" stroke="black" points="486.7,-195 486.7,-215 603.3,-215 603.3,-195 486.7,-195"/>
<text text-anchor="middle" x="545" y="-201" font-family="Helvetica,sans-Serif" font-size="10.00">TCP_client_data::error</text>
</a>
</g>
</g>
<!-- Node9&#45;&gt;Node10 -->
<g id="edge9" class="edge"><title>Node9&#45;&gt;Node10</title>
<path fill="none" stroke="midnightblue" d="M449.871,-205C458.216,-205 467.208,-205 476.206,-205"/>
<polygon fill="midnightblue" stroke="midnightblue" points="476.335,-208.5 486.335,-205 476.335,-201.5 476.335,-208.5"/>
</g>
<!-- Node11 -->
<g id="node11" class="node"><title>Node11</title>
<g id="a_node11"><a xlink:href="class_t_c_p__socket.html#adb70059ca46476efe0ced51ed377a975" target="_top" xlink:title="TCP_socket::error">
<polygon fill="white" stroke="black" points="640.434,-195 640.434,-215 737.566,-215 737.566,-195 640.434,-195"/>
<text text-anchor="middle" x="689" y="-201" font-family="Helvetica,sans-Serif" font-size="10.00">TCP_socket::error</text>
</a>
</g>
</g>
<!-- Node10&#45;&gt;Node11 -->
<g id="edge10" class="edge"><title>Node10&#45;&gt;Node11</title>
<path fill="none" stroke="midnightblue" d="M603.348,-205C612.089,-205 621.117,-205 629.875,-205"/>
<polygon fill="midnightblue" stroke="midnightblue" points="629.998,-208.5 639.998,-205 629.998,-201.5 629.998,-208.5"/>
</g>
<!-- Node17 -->
<g id="node17" class="node"><title>Node17</title>
<g id="a_node17"><a xlink:href="classobuff.html#a8fb8969c450f4fdc037f8c51d35c87c7" target="_top" xlink:title="obuff::flush">
<polygon fill="white" stroke="black" points="375.627,-0 375.627,-20 440.373,-20 440.373,-0 375.627,-0"/>
<text text-anchor="middle" x="408" y="-6" font-family="Helvetica,sans-Serif" font-size="10.00">obuff::flush</text>
</a>
</g>
</g>
<!-- Node16&#45;&gt;Node17 -->
<g id="edge16" class="edge"><title>Node16&#45;&gt;Node17</title>
<path fill="none" stroke="midnightblue" d="M308.469,-10C325.509,-10 346.782,-10 365.196,-10"/>
<polygon fill="midnightblue" stroke="midnightblue" points="365.37,-13.5001 375.37,-10 365.37,-6.5001 365.37,-13.5001"/>
</g>
</g>
</svg>
