<?xml version="1.0" encoding="UTF-8" standalone="no"?>
<!DOCTYPE svg PUBLIC "-//W3C//DTD SVG 1.1//EN"
 "http://www.w3.org/Graphics/SVG/1.1/DTD/svg11.dtd">
<!-- Generated by graphviz version 2.32.0 (20130916.1925)
 -->
<!-- Title: rcSpinboxSettingWidget::valueChanged Pages: 1 -->
<svg width="530pt" height="118pt"
 viewBox="0.00 0.00 530.00 118.00" xmlns="http://www.w3.org/2000/svg" xmlns:xlink="http://www.w3.org/1999/xlink">
<g id="graph0" class="graph" transform="scale(1 1) rotate(0) translate(4 114)">
<title>rcSpinboxSettingWidget::valueChanged</title>
<polygon fill="white" stroke="white" points="-4,5 -4,-114 527,-114 527,5 -4,5"/>
<!-- Node1 -->
<g id="node1" class="node"><title>Node1</title>
<polygon fill="#bfbfbf" stroke="black" points="0.638184,-39 0.638184,-71 123.362,-71 123.362,-39 0.638184,-39"/>
<text text-anchor="start" x="8.63818" y="-57" font-family="Helvetica,sans-Serif" font-size="10.00">rcSpinboxSettingWidget</text>
<text text-anchor="middle" x="62" y="-45" font-family="Helvetica,sans-Serif" font-size="10.00">::valueChanged</text>
</g>
<!-- Node2 -->
<g id="node2" class="node"><title>Node2</title>
<g id="a_node2"><a xlink:href="classrc_model_domain.html#a8fafb31fce65382de4c9d4c35b72eb3d" target="_top" xlink:title="rcModelDomain::getModelDomain">
<polygon fill="white" stroke="black" points="160.412,-90 160.412,-110 327.588,-110 327.588,-90 160.412,-90"/>
<text text-anchor="middle" x="244" y="-96" font-family="Helvetica,sans-Serif" font-size="10.00">rcModelDomain::getModelDomain</text>
</a>
</g>
</g>
<!-- Node1&#45;&gt;Node2 -->
<g id="edge1" class="edge"><title>Node1&#45;&gt;Node2</title>
<path fill="none" stroke="midnightblue" d="M123.503,-70.7506C135.583,-73.8513 148.188,-77.0549 160,-80 169.923,-82.4742 180.527,-85.0676 190.724,-87.5362"/>
<polygon fill="midnightblue" stroke="midnightblue" points="190.202,-91.0108 200.744,-89.9542 191.844,-84.2061 190.202,-91.0108"/>
</g>
<!-- Node3 -->
<g id="node3" class="node"><title>Node3</title>
<g id="a_node3"><a xlink:href="classrc_model_domain.html#a964f8cb50c816a0826dbbbc60bb78006" target="_top" xlink:title="rcModelDomain::notifySetting\lChange">
<polygon fill="white" stroke="black" points="170.692,-39 170.692,-71 317.308,-71 317.308,-39 170.692,-39"/>
<text text-anchor="start" x="178.692" y="-57" font-family="Helvetica,sans-Serif" font-size="10.00">rcModelDomain::notifySetting</text>
<text text-anchor="middle" x="244" y="-45" font-family="Helvetica,sans-Serif" font-size="10.00">Change</text>
</a>
</g>
</g>
<!-- Node1&#45;&gt;Node3 -->
<g id="edge2" class="edge"><title>Node1&#45;&gt;Node3</title>
<path fill="none" stroke="midnightblue" d="M123.438,-55C135.247,-55 147.82,-55 160.21,-55"/>
<polygon fill="midnightblue" stroke="midnightblue" points="160.553,-58.5001 170.553,-55 160.553,-51.5001 160.553,-58.5001"/>
</g>
<!-- Node5 -->
<g id="node5" class="node"><title>Node5</title>
<g id="a_node5"><a xlink:href="classrc_setting_info.html#a56e4a99afd7b35b9ac8bfcb853dcdc4d" target="_top" xlink:title="rcSettingInfo::setValue">
<polygon fill="white" stroke="black" points="186.061,-0 186.061,-20 301.939,-20 301.939,-0 186.061,-0"/>
<text text-anchor="middle" x="244" y="-6" font-family="Helvetica,sans-Serif" font-size="10.00">rcSettingInfo::setValue</text>
</a>
</g>
</g>
<!-- Node1&#45;&gt;Node5 -->
<g id="edge4" class="edge"><title>Node1&#45;&gt;Node5</title>
<path fill="none" stroke="midnightblue" d="M123.503,-39.2494C135.583,-36.1487 148.188,-32.9451 160,-30 169.923,-27.5258 180.527,-24.9324 190.724,-22.4638"/>
<polygon fill="midnightblue" stroke="midnightblue" points="191.844,-25.7939 200.744,-20.0458 190.202,-18.9892 191.844,-25.7939"/>
</g>
<!-- Node4 -->
<g id="node4" class="node"><title>Node4</title>
<g id="a_node4"><a xlink:href="classrc_model_domain.html#af20f3010314a2ddf0ec3b3aa82f466b5" target="_top" xlink:title="rcModelDomain::updateSettings">
<polygon fill="white" stroke="black" points="363.85,-45 363.85,-65 522.15,-65 522.15,-45 363.85,-45"/>
<text text-anchor="middle" x="443" y="-51" font-family="Helvetica,sans-Serif" font-size="10.00">rcModelDomain::updateSettings</text>
</a>
</g>
</g>
<!-- Node3&#45;&gt;Node4 -->
<g id="edge3" class="edge"><title>Node3&#45;&gt;Node4</title>
<path fill="none" stroke="midnightblue" d="M317.516,-55C329.259,-55 341.531,-55 353.6,-55"/>
<polygon fill="midnightblue" stroke="midnightblue" points="353.673,-58.5001 363.673,-55 353.673,-51.5001 353.673,-58.5001"/>
</g>
</g>
</svg>
