<?xml version="1.0" encoding="UTF-8" standalone="no"?>
<!DOCTYPE svg PUBLIC "-//W3C//DTD SVG 1.1//EN"
 "http://www.w3.org/Graphics/SVG/1.1/DTD/svg11.dtd">
<!-- Generated by graphviz version 2.32.0 (20130916.1925)
 -->
<!-- Title: rcVisualFunction::isIsoMorphic Pages: 1 -->
<svg width="520pt" height="106pt"
 viewBox="0.00 0.00 520.00 106.00" xmlns="http://www.w3.org/2000/svg" xmlns:xlink="http://www.w3.org/1999/xlink">
<g id="graph0" class="graph" transform="scale(1 1) rotate(0) translate(4 102)">
<title>rcVisualFunction::isIsoMorphic</title>
<polygon fill="white" stroke="white" points="-4,5 -4,-102 517,-102 517,5 -4,5"/>
<!-- Node1 -->
<g id="node1" class="node"><title>Node1</title>
<polygon fill="#bfbfbf" stroke="black" points="0.285156,-39 0.285156,-59 151.715,-59 151.715,-39 0.285156,-39"/>
<text text-anchor="middle" x="76" y="-45" font-family="Helvetica,sans-Serif" font-size="10.00">rcVisualFunction::isIsoMorphic</text>
</g>
<!-- Node2 -->
<g id="node2" class="node"><title>Node2</title>
<g id="a_node2"><a xlink:href="classrc_visual_function.html#aedea1b941c74fadd1712dd5e61c3a1aa" target="_top" xlink:title="rcVisualFunction::id">
<polygon fill="white" stroke="black" points="210.458,-78 210.458,-98 313.542,-98 313.542,-78 210.458,-78"/>
<text text-anchor="middle" x="262" y="-84" font-family="Helvetica,sans-Serif" font-size="10.00">rcVisualFunction::id</text>
</a>
</g>
</g>
<!-- Node1&#45;&gt;Node2 -->
<g id="edge1" class="edge"><title>Node1&#45;&gt;Node2</title>
<path fill="none" stroke="midnightblue" d="M124.385,-59.0435C148.637,-64.184 178.348,-70.4813 203.86,-75.8889"/>
<polygon fill="midnightblue" stroke="midnightblue" points="203.268,-79.3409 213.776,-77.9906 204.719,-72.4931 203.268,-79.3409"/>
</g>
<!-- Node3 -->
<g id="node3" class="node"><title>Node3</title>
<g id="a_node3"><a xlink:href="classrc_visual_function.html#a9be9ce0b86ad686874a94bd5e300396d" target="_top" xlink:title="rcVisualFunction::intersectSet">
<polygon fill="white" stroke="black" points="187.948,-39 187.948,-59 336.052,-59 336.052,-39 187.948,-39"/>
<text text-anchor="middle" x="262" y="-45" font-family="Helvetica,sans-Serif" font-size="10.00">rcVisualFunction::intersectSet</text>
</a>
</g>
</g>
<!-- Node1&#45;&gt;Node3 -->
<g id="edge2" class="edge"><title>Node1&#45;&gt;Node3</title>
<path fill="none" stroke="midnightblue" d="M151.84,-49C160.35,-49 169.063,-49 177.674,-49"/>
<polygon fill="midnightblue" stroke="midnightblue" points="177.717,-52.5001 187.717,-49 177.717,-45.5001 177.717,-52.5001"/>
</g>
<!-- Node5 -->
<g id="node5" class="node"><title>Node5</title>
<g id="a_node5"><a xlink:href="classrc_visual_function.html#ad3f6f3313fd0dbfaa1d72ef7c08bb272" target="_top" xlink:title="rcVisualFunction::sharedKin">
<polygon fill="white" stroke="black" points="371.834,-0 371.834,-20 512.166,-20 512.166,-0 371.834,-0"/>
<text text-anchor="middle" x="442" y="-6" font-family="Helvetica,sans-Serif" font-size="10.00">rcVisualFunction::sharedKin</text>
</a>
</g>
</g>
<!-- Node1&#45;&gt;Node5 -->
<g id="edge5" class="edge"><title>Node1&#45;&gt;Node5</title>
<path fill="none" stroke="midnightblue" d="M126.285,-38.9918C145.479,-35.3909 167.701,-31.5839 188,-29 245.945,-21.6239 311.748,-16.7912 361.719,-13.8462"/>
<polygon fill="midnightblue" stroke="midnightblue" points="362.032,-17.334 371.814,-13.2641 361.629,-10.3456 362.032,-17.334"/>
</g>
<!-- Node4 -->
<g id="node4" class="node"><title>Node4</title>
<g id="a_node4"><a xlink:href="classrc_visual_function.html#a0f43617587ee0966c9706204c2c150d9" target="_top" xlink:title="rcVisualFunction::polygons">
<polygon fill="white" stroke="black" points="374.334,-39 374.334,-59 509.666,-59 509.666,-39 374.334,-39"/>
<text text-anchor="middle" x="442" y="-45" font-family="Helvetica,sans-Serif" font-size="10.00">rcVisualFunction::polygons</text>
</a>
</g>
</g>
<!-- Node3&#45;&gt;Node4 -->
<g id="edge3" class="edge"><title>Node3&#45;&gt;Node4</title>
<path fill="none" stroke="midnightblue" d="M336.17,-49C345.297,-49 354.653,-49 363.838,-49"/>
<polygon fill="midnightblue" stroke="midnightblue" points="364.113,-52.5001 374.113,-49 364.113,-45.5001 364.113,-52.5001"/>
</g>
<!-- Node3&#45;&gt;Node5 -->
<g id="edge4" class="edge"><title>Node3&#45;&gt;Node5</title>
<path fill="none" stroke="midnightblue" d="M308.839,-38.9565C332.197,-33.8388 360.788,-27.5744 385.396,-22.1829"/>
<polygon fill="midnightblue" stroke="midnightblue" points="386.297,-25.5687 395.316,-20.0094 384.799,-18.7309 386.297,-25.5687"/>
</g>
</g>
</svg>
