<?xml version="1.0" encoding="UTF-8" standalone="no"?>
<!DOCTYPE svg PUBLIC "-//W3C//DTD SVG 1.1//EN"
 "http://www.w3.org/Graphics/SVG/1.1/DTD/svg11.dtd">
<!-- Generated by graphviz version 2.32.0 (20130916.1925)
 -->
<!-- Title: rcTimeline::getEnabledVideoTrack Pages: 1 -->
<!--zoomable 67 -->
<svg id="main" version="1.1" xmlns="http://www.w3.org/2000/svg" xmlns:xlink="http://www.w3.org/1999/xlink" xml:space="preserve" onload="init(evt)">
        <defs>
                <circle id="rim" cx="0" cy="0" r="7"/>
                <circle id="rim2" cx="0" cy="0" r="3.5"/>
                <g id="zoomPlus">
                        <use xlink:href="#rim" fill="#404040">
                                <set attributeName="fill" to="#808080" begin="zoomplus.mouseover" end="zoomplus.mouseout"/>
                        </use>
                        <path d="M-4,0h8M0,-4v8" fill="none" stroke="white" stroke-width="1.5" pointer-events="none"/>
                </g>
                <g id="zoomMin">
                        <use xlink:href="#rim" fill="#404040">
                                <set attributeName="fill" to="#808080" begin="zoomminus.mouseover" end="zoomminus.mouseout"/>
                        </use>
                        <path d="M-4,0h8" fill="none" stroke="white" stroke-width="1.5" pointer-events="none"/>
                </g>
                <g id="dirArrow">
                        <path fill="none" stroke="white" stroke-width="1.5" d="M0,-3.0v7 M-2.5,-0.5L0,-3.0L2.5,-0.5"/>
                </g>
               <g id="resetDef">
                       <use xlink:href="#rim2" fill="#404040">
                               <set attributeName="fill" to="#808080" begin="reset.mouseover" end="reset.mouseout"/>
                       </use>
               </g>
        </defs>

<script type="text/javascript">
var viewWidth = 694;
var viewHeight = 67;
var sectionId = 'dynsection-8';
</script>
<script xlink:href="svgpan.js"/>
<svg id="graph" class="graph">
<g id="viewport">
<title>rcTimeline::getEnabledVideoTrack</title>
<polygon fill="white" stroke="white" points="-4,5 -4,-63 691,-63 691,5 -4,5"/>
<!-- Node1 -->
<g id="node1" class="node"><title>Node1</title>
<polygon fill="#bfbfbf" stroke="black" points="0.345215,-13 0.345215,-45 143.655,-45 143.655,-13 0.345215,-13"/>
<text text-anchor="start" x="8.34521" y="-31" font-family="Helvetica,sans-Serif" font-size="10.00">rcTimeline::getEnabledVideo</text>
<text text-anchor="middle" x="72" y="-19" font-family="Helvetica,sans-Serif" font-size="10.00">Track</text>
</g>
<!-- Node2 -->
<g id="node2" class="node"><title>Node2</title>
<g id="a_node2"><a xlink:href="classrc_timeline.html#a8348ce7479a333e369ac8a27bc5170e9" target="_top" xlink:title="rcTimeline::getFrameTime">
<polygon fill="white" stroke="black" points="190.021,-39 190.021,-59 321.979,-59 321.979,-39 190.021,-39"/>
<text text-anchor="middle" x="256" y="-45" font-family="Helvetica,sans-Serif" font-size="10.00">rcTimeline::getFrameTime</text>
</a>
</g>
</g>
<!-- Node1&#45;&gt;Node2 -->
<g id="edge1" class="edge"><title>Node1&#45;&gt;Node2</title>
<path fill="none" stroke="midnightblue" d="M153.937,-37.8942C165.99,-39.2187 178.282,-40.5695 189.952,-41.8519"/>
<polygon fill="midnightblue" stroke="midnightblue" points="154.21,-34.4031 143.887,-36.7898 153.445,-41.3613 154.21,-34.4031"/>
</g>
<!-- Node5 -->
<g id="node5" class="node"><title>Node5</title>
<g id="a_node5"><a xlink:href="classrc_timeline.html#a2f96be772f5fb7f24d9724b97105c2d8" target="_top" xlink:title="rcTimeline::getSegmentLength">
<polygon fill="white" stroke="black" points="180.09,-0 180.09,-20 331.91,-20 331.91,-0 180.09,-0"/>
<text text-anchor="middle" x="256" y="-6" font-family="Helvetica,sans-Serif" font-size="10.00">rcTimeline::getSegmentLength</text>
</a>
</g>
</g>
<!-- Node1&#45;&gt;Node5 -->
<g id="edge4" class="edge"><title>Node1&#45;&gt;Node5</title>
<path fill="none" stroke="midnightblue" d="M153.918,-20.5525C162.526,-19.6538 171.257,-18.7424 179.795,-17.851"/>
<polygon fill="midnightblue" stroke="midnightblue" points="153.47,-17.0802 143.887,-21.5997 154.196,-24.0424 153.47,-17.0802"/>
</g>
<!-- Node3 -->
<g id="node3" class="node"><title>Node3</title>
<g id="a_node3"><a xlink:href="classrc_timeline.html#aeaaccfa10a612c29679497245a78cf87" target="_top" xlink:title="rcTimeline::keyNavigateEvent">
<polygon fill="white" stroke="black" points="368.045,-39 368.045,-59 515.955,-59 515.955,-39 368.045,-39"/>
<text text-anchor="middle" x="442" y="-45" font-family="Helvetica,sans-Serif" font-size="10.00">rcTimeline::keyNavigateEvent</text>
</a>
</g>
</g>
<!-- Node2&#45;&gt;Node3 -->
<g id="edge2" class="edge"><title>Node2&#45;&gt;Node3</title>
<path fill="none" stroke="midnightblue" d="M332.315,-49C344.036,-49 356.132,-49 367.805,-49"/>
<polygon fill="midnightblue" stroke="midnightblue" points="332.13,-45.5001 322.13,-49 332.13,-52.5001 332.13,-45.5001"/>
</g>
<!-- Node4 -->
<g id="node4" class="node"><title>Node4</title>
<g id="a_node4"><a xlink:href="classrc_timeline.html#a54f33ca884fce920f42c3643c305d341" target="_top" xlink:title="rcTimeline::keyPressEvent">
<polygon fill="white" stroke="black" points="551.999,-19 551.999,-39 686.001,-39 686.001,-19 551.999,-19"/>
<text text-anchor="middle" x="619" y="-25" font-family="Helvetica,sans-Serif" font-size="10.00">rcTimeline::keyPressEvent</text>
</a>
</g>
</g>
<!-- Node3&#45;&gt;Node4 -->
<g id="edge3" class="edge"><title>Node3&#45;&gt;Node4</title>
<path fill="none" stroke="midnightblue" d="M526.224,-39.4887C534.8,-38.5086 543.43,-37.5222 551.785,-36.5674"/>
<polygon fill="midnightblue" stroke="midnightblue" points="525.74,-36.0212 516.202,-40.6341 526.535,-42.9759 525.74,-36.0212"/>
</g>
<!-- Node6 -->
<g id="node6" class="node"><title>Node6</title>
<g id="a_node6"><a xlink:href="classrc_timeline.html#af887d004d83598a1565bc4ad000500e8" target="_top" xlink:title="rcTimeline::keyScrollEvent">
<polygon fill="white" stroke="black" points="375.277,-0 375.277,-20 508.723,-20 508.723,-0 375.277,-0"/>
<text text-anchor="middle" x="442" y="-6" font-family="Helvetica,sans-Serif" font-size="10.00">rcTimeline::keyScrollEvent</text>
</a>
</g>
</g>
<!-- Node5&#45;&gt;Node6 -->
<g id="edge5" class="edge"><title>Node5&#45;&gt;Node6</title>
<path fill="none" stroke="midnightblue" d="M342.17,-10C353.19,-10 364.341,-10 374.986,-10"/>
<polygon fill="midnightblue" stroke="midnightblue" points="342.105,-6.5001 332.105,-10 342.105,-13.5001 342.105,-6.5001"/>
</g>
<!-- Node6&#45;&gt;Node4 -->
<g id="edge6" class="edge"><title>Node6&#45;&gt;Node4</title>
<path fill="none" stroke="midnightblue" d="M519.4,-18.2949C530.177,-19.4649 541.182,-20.6597 551.746,-21.8068"/>
<polygon fill="midnightblue" stroke="midnightblue" points="519.479,-14.783 509.16,-17.1831 518.724,-21.7421 519.479,-14.783"/>
</g>
</g>
</svg>
        <g id="navigator" transform="translate(0 0)" fill="#404254">
                <rect fill="#f2f5e9" fill-opacity="0.5" stroke="#606060" stroke-width=".5" x="0" y="0" width="60" height="60"/>
                <use id="zoomplus" xlink:href="#zoomPlus" x="17" y="9" onmousedown="handleZoom(evt,'in')"/>
                <use id="zoomminus" xlink:href="#zoomMin" x="42" y="9" onmousedown="handleZoom(evt,'out')"/>
                <use id="reset" xlink:href="#resetDef" x="30" y="36" onmousedown="handleReset()"/>
                <g id="arrowUp" xlink:href="#dirArrow" transform="translate(30 24)" onmousedown="handlePan(0,-1)">
                  <use xlink:href="#rim" fill="#404040">
                        <set attributeName="fill" to="#808080" begin="arrowUp.mouseover" end="arrowUp.mouseout"/>
                  </use>
                  <path fill="none" stroke="white" stroke-width="1.5" d="M0,-3.0v7 M-2.5,-0.5L0,-3.0L2.5,-0.5"/>
                </g>
                <g id="arrowRight" xlink:href="#dirArrow" transform="rotate(90) translate(36 -43)" onmousedown="handlePan(1,0)">
                  <use xlink:href="#rim" fill="#404040">
                        <set attributeName="fill" to="#808080" begin="arrowRight.mouseover" end="arrowRight.mouseout"/>
                  </use>
                  <path fill="none" stroke="white" stroke-width="1.5" d="M0,-3.0v7 M-2.5,-0.5L0,-3.0L2.5,-0.5"/>
                </g>
                <g id="arrowDown" xlink:href="#dirArrow" transform="rotate(180) translate(-30 -48)" onmousedown="handlePan(0,1)">
                  <use xlink:href="#rim" fill="#404040">
                        <set attributeName="fill" to="#808080" begin="arrowDown.mouseover" end="arrowDown.mouseout"/>
                  </use>
                  <path fill="none" stroke="white" stroke-width="1.5" d="M0,-3.0v7 M-2.5,-0.5L0,-3.0L2.5,-0.5"/>
                </g>
                <g id="arrowLeft" xlink:href="#dirArrow" transform="rotate(270) translate(-36 17)" onmousedown="handlePan(-1,0)">
                  <use xlink:href="#rim" fill="#404040">
                        <set attributeName="fill" to="#808080" begin="arrowLeft.mouseover" end="arrowLeft.mouseout"/>
                  </use>
                  <path fill="none" stroke="white" stroke-width="1.5" d="M0,-3.0v7 M-2.5,-0.5L0,-3.0L2.5,-0.5"/>
                </g>
        </g>
        <svg viewBox="0 0 15 15" width="100%" height="30px" preserveAspectRatio="xMaxYMin meet">
         <g id="arrow_out" transform="scale(0.3 0.3)">
          <a xlink:href="classrc_timeline_a80781fde1427f7cc531b902e2b619dd4_icgraph_org.svg" target="_base">
           <rect id="button" ry="5" rx="5" y="6" x="6" height="38" width="38"
                fill="#f2f5e9" fill-opacity="0.5" stroke="#606060" stroke-width="1.0"/>
           <path id="arrow"
             d="M 11.500037,31.436501 C 11.940474,20.09759 22.043105,11.32322 32.158766,21.979434 L 37.068811,17.246167 C 37.068811,17.246167 37.088388,32 37.088388,32 L 22.160133,31.978069 C 22.160133,31.978069 26.997745,27.140456 26.997745,27.140456 C 18.528582,18.264221 13.291696,25.230495 11.500037,31.436501 z"
             style="fill:#404040;"/>
          </a>
         </g>
        </svg>
</svg>
