<?xml version="1.0" encoding="UTF-8" standalone="no"?>
<!DOCTYPE svg PUBLIC "-//W3C//DTD SVG 1.1//EN"
 "http://www.w3.org/Graphics/SVG/1.1/DTD/svg11.dtd">
<!-- Generated by graphviz version 2.32.0 (20130916.1925)
 -->
<!-- Title: rcVisualFunction::isLabelProtein Pages: 1 -->
<svg width="306pt" height="157pt"
 viewBox="0.00 0.00 306.00 157.00" xmlns="http://www.w3.org/2000/svg" xmlns:xlink="http://www.w3.org/1999/xlink">
<g id="graph0" class="graph" transform="scale(1 1) rotate(0) translate(4 153)">
<title>rcVisualFunction::isLabelProtein</title>
<polygon fill="white" stroke="white" points="-4,5 -4,-153 303,-153 303,5 -4,5"/>
<!-- Node1 -->
<g id="node1" class="node"><title>Node1</title>
<polygon fill="#bfbfbf" stroke="black" points="0.504395,-61 0.504395,-93 127.496,-93 127.496,-61 0.504395,-61"/>
<text text-anchor="start" x="8.50439" y="-79" font-family="Helvetica,sans-Serif" font-size="10.00">rcVisualFunction::isLabel</text>
<text text-anchor="middle" x="64" y="-67" font-family="Helvetica,sans-Serif" font-size="10.00">Protein</text>
</g>
<!-- Node2 -->
<g id="node2" class="node"><title>Node2</title>
<g id="a_node2"><a xlink:href="classrc_visual_function.html#ac3135ba614a9ba5080e78c3f2f426312" target="_top" xlink:title="rcVisualFunction::measure">
<polygon fill="white" stroke="black" points="163.896,-129 163.896,-149 298.104,-149 298.104,-129 163.896,-129"/>
<text text-anchor="middle" x="231" y="-135" font-family="Helvetica,sans-Serif" font-size="10.00">rcVisualFunction::measure</text>
</a>
</g>
</g>
<!-- Node1&#45;&gt;Node2 -->
<g id="edge1" class="edge"><title>Node1&#45;&gt;Node2</title>
<path fill="none" stroke="midnightblue" d="M109.945,-97.2686C126.749,-104.527 146.099,-112.512 164,-119 173.68,-122.509 184.305,-125.917 194.147,-128.897"/>
<polygon fill="midnightblue" stroke="midnightblue" points="110.942,-93.8848 100.376,-93.0955 108.143,-100.301 110.942,-93.8848"/>
</g>
<!-- Node3 -->
<g id="node3" class="node"><title>Node3</title>
<g id="a_node3"><a xlink:href="rc__visualfunction_8cpp.html#ae06819e25787b9e65f7f1a28bd0e36ab" target="_top" xlink:title="operator\&lt;\&lt;">
<polygon fill="white" stroke="black" points="198.537,-90 198.537,-110 263.463,-110 263.463,-90 198.537,-90"/>
<text text-anchor="middle" x="231" y="-96" font-family="Helvetica,sans-Serif" font-size="10.00">operator&lt;&lt;</text>
</a>
</g>
</g>
<!-- Node1&#45;&gt;Node3 -->
<g id="edge2" class="edge"><title>Node1&#45;&gt;Node3</title>
<path fill="none" stroke="midnightblue" d="M137.822,-87.1509C158.993,-90.1021 181.027,-93.1734 198.241,-95.573"/>
<polygon fill="midnightblue" stroke="midnightblue" points="138.238,-83.6751 127.85,-85.7609 137.271,-90.6081 138.238,-83.6751"/>
</g>
<!-- Node4 -->
<g id="node4" class="node"><title>Node4</title>
<g id="a_node4"><a xlink:href="classrc_visual_function.html#ab5e34886e06cd4b26e1aa8a1f185f1bf" target="_top" xlink:title="rcVisualFunction::rcVisual\lFunction">
<polygon fill="white" stroke="black" points="165.654,-39 165.654,-71 296.346,-71 296.346,-39 165.654,-39"/>
<text text-anchor="start" x="173.654" y="-57" font-family="Helvetica,sans-Serif" font-size="10.00">rcVisualFunction::rcVisual</text>
<text text-anchor="middle" x="231" y="-45" font-family="Helvetica,sans-Serif" font-size="10.00">Function</text>
</a>
</g>
</g>
<!-- Node1&#45;&gt;Node4 -->
<g id="edge3" class="edge"><title>Node1&#45;&gt;Node4</title>
<path fill="none" stroke="midnightblue" d="M138.05,-67.26C147.165,-66.0447 156.435,-64.8087 165.408,-63.6122"/>
<polygon fill="midnightblue" stroke="midnightblue" points="137.3,-63.829 127.85,-68.62 138.225,-70.7676 137.3,-63.829"/>
</g>
<!-- Node5 -->
<g id="node5" class="node"><title>Node5</title>
<g id="a_node5"><a xlink:href="classrc_visual_function.html#a60c456dafac1e2842e1356274b928a08" target="_top" xlink:title="rcVisualFunction::update">
<polygon fill="white" stroke="black" points="168.056,-0 168.056,-20 293.944,-20 293.944,-0 168.056,-0"/>
<text text-anchor="middle" x="231" y="-6" font-family="Helvetica,sans-Serif" font-size="10.00">rcVisualFunction::update</text>
</a>
</g>
</g>
<!-- Node1&#45;&gt;Node5 -->
<g id="edge4" class="edge"><title>Node1&#45;&gt;Node5</title>
<path fill="none" stroke="midnightblue" d="M104.672,-56.5027C122.534,-47.7091 144.051,-37.7085 164,-30 173.381,-26.375 183.712,-22.9756 193.359,-20.044"/>
<polygon fill="midnightblue" stroke="midnightblue" points="103.084,-53.3832 95.6917,-60.9727 106.204,-59.6497 103.084,-53.3832"/>
</g>
</g>
</svg>
