<?xml version="1.0" encoding="UTF-8" standalone="no"?>
<!DOCTYPE svg PUBLIC "-//W3C//DTD SVG 1.1//EN"
 "http://www.w3.org/Graphics/SVG/1.1/DTD/svg11.dtd">
<!-- Generated by graphviz version 2.32.0 (20130916.1925)
 -->
<!-- Title: rcImageCanvasGL::modelToWorldCoord Pages: 1 -->
<!--zoomable 202 -->
<svg id="main" version="1.1" xmlns="http://www.w3.org/2000/svg" xmlns:xlink="http://www.w3.org/1999/xlink" xml:space="preserve" onload="init(evt)">
        <defs>
                <circle id="rim" cx="0" cy="0" r="7"/>
                <circle id="rim2" cx="0" cy="0" r="3.5"/>
                <g id="zoomPlus">
                        <use xlink:href="#rim" fill="#404040">
                                <set attributeName="fill" to="#808080" begin="zoomplus.mouseover" end="zoomplus.mouseout"/>
                        </use>
                        <path d="M-4,0h8M0,-4v8" fill="none" stroke="white" stroke-width="1.5" pointer-events="none"/>
                </g>
                <g id="zoomMin">
                        <use xlink:href="#rim" fill="#404040">
                                <set attributeName="fill" to="#808080" begin="zoomminus.mouseover" end="zoomminus.mouseout"/>
                        </use>
                        <path d="M-4,0h8" fill="none" stroke="white" stroke-width="1.5" pointer-events="none"/>
                </g>
                <g id="dirArrow">
                        <path fill="none" stroke="white" stroke-width="1.5" d="M0,-3.0v7 M-2.5,-0.5L0,-3.0L2.5,-0.5"/>
                </g>
               <g id="resetDef">
                       <use xlink:href="#rim2" fill="#404040">
                               <set attributeName="fill" to="#808080" begin="reset.mouseover" end="reset.mouseout"/>
                       </use>
               </g>
        </defs>

<script type="text/javascript">
var viewWidth = 978;
var viewHeight = 202;
var sectionId = 'dynsection-68';
</script>
<script xlink:href="svgpan.js"/>
<svg id="graph" class="graph">
<g id="viewport">
<title>rcImageCanvasGL::modelToWorldCoord</title>
<polygon fill="white" stroke="white" points="-4,5 -4,-198 975,-198 975,5 -4,5"/>
<!-- Node1 -->
<g id="node1" class="node"><title>Node1</title>
<polygon fill="#bfbfbf" stroke="black" points="0.638184,-90 0.638184,-122 143.362,-122 143.362,-90 0.638184,-90"/>
<text text-anchor="start" x="8.63818" y="-108" font-family="Helvetica,sans-Serif" font-size="10.00">rcImageCanvasGL::modelTo</text>
<text text-anchor="middle" x="72" y="-96" font-family="Helvetica,sans-Serif" font-size="10.00">WorldCoord</text>
</g>
<!-- Node2 -->
<g id="node2" class="node"><title>Node2</title>
<g id="a_node2"><a xlink:href="classrc_image_canvas_g_l.html#ae182b135a9cabd5bc949fb6e670b3a93" target="_top" xlink:title="rcImageCanvasGL::draw">
<polygon fill="white" stroke="black" points="203.7,-174 203.7,-194 330.3,-194 330.3,-174 203.7,-174"/>
<text text-anchor="middle" x="267" y="-180" font-family="Helvetica,sans-Serif" font-size="10.00">rcImageCanvasGL::draw</text>
</a>
</g>
</g>
<!-- Node1&#45;&gt;Node2 -->
<g id="edge1" class="edge"><title>Node1&#45;&gt;Node2</title>
<path fill="none" stroke="midnightblue" d="M110.753,-126.747C130.914,-137.298 156.38,-149.801 180,-159 194.778,-164.756 211.433,-169.894 226.122,-173.992"/>
<polygon fill="midnightblue" stroke="midnightblue" points="112.364,-123.64 101.889,-122.055 109.089,-129.826 112.364,-123.64"/>
</g>
<!-- Node3 -->
<g id="node3" class="node"><title>Node3</title>
<g id="a_node3"><a xlink:href="classrc_image_canvas_g_l.html#afd18bd81e36227d1ce68a9bf64f1c080" target="_top" xlink:title="rcImageCanvasGL::drawAffineRect">
<polygon fill="white" stroke="black" points="390.633,-153 390.633,-173 563.367,-173 563.367,-153 390.633,-153"/>
<text text-anchor="middle" x="477" y="-159" font-family="Helvetica,sans-Serif" font-size="10.00">rcImageCanvasGL::drawAffineRect</text>
</a>
</g>
</g>
<!-- Node1&#45;&gt;Node3 -->
<g id="edge2" class="edge"><title>Node1&#45;&gt;Node3</title>
<path fill="none" stroke="midnightblue" d="M153.479,-120.719C162.417,-122.226 171.395,-123.684 180,-125 250.677,-135.805 331.17,-146.004 390.358,-153.109"/>
<polygon fill="midnightblue" stroke="midnightblue" points="153.873,-117.236 143.427,-119.002 152.694,-124.136 153.873,-117.236"/>
</g>
<!-- Node5 -->
<g id="node5" class="node"><title>Node5</title>
<g id="a_node5"><a xlink:href="classrc_image_canvas_g_l.html#afb8bd2211dd5052de546442c93422583" target="_top" xlink:title="rcImageCanvasGL::drawModelRect">
<polygon fill="white" stroke="black" points="179.801,-96 179.801,-116 354.199,-116 354.199,-96 179.801,-96"/>
<text text-anchor="middle" x="267" y="-102" font-family="Helvetica,sans-Serif" font-size="10.00">rcImageCanvasGL::drawModelRect</text>
</a>
</g>
</g>
<!-- Node1&#45;&gt;Node5 -->
<g id="edge4" class="edge"><title>Node1&#45;&gt;Node5</title>
<path fill="none" stroke="midnightblue" d="M153.515,-106C162.131,-106 170.923,-106 179.604,-106"/>
<polygon fill="midnightblue" stroke="midnightblue" points="153.497,-102.5 143.497,-106 153.497,-109.5 153.497,-102.5"/>
</g>
<!-- Node8 -->
<g id="node8" class="node"><title>Node8</title>
<g id="a_node8"><a xlink:href="classrc_image_canvas_g_l.html#af15875c8c53e2424f3e7f3f1453d10eb" target="_top" xlink:title="rcImageCanvasGL::drawRubber\lBandRect">
<polygon fill="white" stroke="black" points="397.301,-51 397.301,-83 556.699,-83 556.699,-51 397.301,-51"/>
<text text-anchor="start" x="405.301" y="-69" font-family="Helvetica,sans-Serif" font-size="10.00">rcImageCanvasGL::drawRubber</text>
<text text-anchor="middle" x="477" y="-57" font-family="Helvetica,sans-Serif" font-size="10.00">BandRect</text>
</a>
</g>
</g>
<!-- Node1&#45;&gt;Node8 -->
<g id="edge12" class="edge"><title>Node1&#45;&gt;Node8</title>
<path fill="none" stroke="midnightblue" d="M153.596,-89.8617C162.482,-88.4028 171.417,-87.0737 180,-86 253.323,-76.8281 337.451,-71.9687 397.232,-69.469"/>
<polygon fill="midnightblue" stroke="midnightblue" points="152.878,-86.4333 143.605,-91.5573 154.05,-93.3347 152.878,-86.4333"/>
</g>
<!-- Node11 -->
<g id="node11" class="node"><title>Node11</title>
<g id="a_node11"><a xlink:href="classrc_image_canvas_g_l.html#a23e3b40a48abecb3af6d9a36753db5cd" target="_top" xlink:title="rcImageCanvasGL::modelTo\lDevCoord">
<polygon fill="white" stroke="black" points="195.638,-3 195.638,-35 338.362,-35 338.362,-3 195.638,-3"/>
<text text-anchor="start" x="203.638" y="-21" font-family="Helvetica,sans-Serif" font-size="10.00">rcImageCanvasGL::modelTo</text>
<text text-anchor="middle" x="267" y="-9" font-family="Helvetica,sans-Serif" font-size="10.00">DevCoord</text>
</a>
</g>
</g>
<!-- Node1&#45;&gt;Node11 -->
<g id="edge13" class="edge"><title>Node1&#45;&gt;Node11</title>
<path fill="none" stroke="midnightblue" d="M113.133,-85.1303C133.054,-75.0259 157.595,-62.957 180,-53 193.938,-46.8058 209.374,-40.5268 223.278,-35.0788"/>
<polygon fill="midnightblue" stroke="midnightblue" points="111.361,-82.1054 104.043,-89.767 114.541,-88.3411 111.361,-82.1054"/>
</g>
<!-- Node4 -->
<g id="node4" class="node"><title>Node4</title>
<g id="a_node4"><a xlink:href="classrc_image_canvas_g_l.html#ab57b93a733a4e2b8703a4ee083d46737" target="_top" xlink:title="rcImageCanvasGL::mouseMove\lEvent">
<polygon fill="white" stroke="black" points="810.303,-65 810.303,-97 969.697,-97 969.697,-65 810.303,-65"/>
<text text-anchor="start" x="818.303" y="-83" font-family="Helvetica,sans-Serif" font-size="10.00">rcImageCanvasGL::mouseMove</text>
<text text-anchor="middle" x="890" y="-71" font-family="Helvetica,sans-Serif" font-size="10.00">Event</text>
</a>
</g>
</g>
<!-- Node3&#45;&gt;Node4 -->
<g id="edge3" class="edge"><title>Node3&#45;&gt;Node4</title>
<path fill="none" stroke="midnightblue" d="M573.439,-164.513C632.257,-163.189 708.664,-157.365 774,-139 806.936,-129.742 841.58,-110.833 864.126,-97.116"/>
<polygon fill="midnightblue" stroke="midnightblue" points="573.347,-161.014 563.413,-164.7 573.477,-168.013 573.347,-161.014"/>
</g>
<!-- Node6 -->
<g id="node6" class="node"><title>Node6</title>
<g id="a_node6"><a xlink:href="classrc_image_canvas_g_l.html#a20eeb995b882e553bd5c16e19a22b03e" target="_top" xlink:title="rcImageCanvasGL::drawCurrent\lFocus">
<polygon fill="white" stroke="black" points="397.027,-102 397.027,-134 556.973,-134 556.973,-102 397.027,-102"/>
<text text-anchor="start" x="405.027" y="-120" font-family="Helvetica,sans-Serif" font-size="10.00">rcImageCanvasGL::drawCurrent</text>
<text text-anchor="middle" x="477" y="-108" font-family="Helvetica,sans-Serif" font-size="10.00">Focus</text>
</a>
</g>
</g>
<!-- Node5&#45;&gt;Node6 -->
<g id="edge5" class="edge"><title>Node5&#45;&gt;Node6</title>
<path fill="none" stroke="midnightblue" d="M364.684,-111.578C375.457,-112.199 386.335,-112.827 396.852,-113.434"/>
<polygon fill="midnightblue" stroke="midnightblue" points="364.589,-108.067 354.404,-110.985 364.185,-115.055 364.589,-108.067"/>
</g>
<!-- Node5&#45;&gt;Node8 -->
<g id="edge7" class="edge"><title>Node5&#45;&gt;Node8</title>
<path fill="none" stroke="midnightblue" d="M331.504,-94.093C352.2,-90.2124 375.433,-85.8563 397.116,-81.7907"/>
<polygon fill="midnightblue" stroke="midnightblue" points="330.749,-90.6735 321.565,-95.9565 332.039,-97.5536 330.749,-90.6735"/>
</g>
<!-- Node7 -->
<g id="node7" class="node"><title>Node7</title>
<g id="a_node7"><a xlink:href="classrc_image_canvas_g_l.html#a13613e3b67ed570184de3526df233e23" target="_top" xlink:title="Render display lists.">
<polygon fill="white" stroke="black" points="617.025,-110 617.025,-130 756.975,-130 756.975,-110 617.025,-110"/>
<text text-anchor="middle" x="687" y="-116" font-family="Helvetica,sans-Serif" font-size="10.00">rcImageCanvasGL::paintGL</text>
</a>
</g>
</g>
<!-- Node6&#45;&gt;Node7 -->
<g id="edge6" class="edge"><title>Node6&#45;&gt;Node7</title>
<path fill="none" stroke="midnightblue" d="M567.447,-118.86C583.987,-119.019 601.027,-119.183 616.851,-119.335"/>
<polygon fill="midnightblue" stroke="midnightblue" points="567.262,-115.358 557.229,-118.762 567.195,-122.358 567.262,-115.358"/>
</g>
<!-- Node9 -->
<g id="node9" class="node"><title>Node9</title>
<g id="a_node9"><a xlink:href="classrc_image_canvas_g_l.html#a8bccf12c0ecdc02e4830f0b80fb8e8dc" target="_top" xlink:title="rcImageCanvasGL::drawFocusRect">
<polygon fill="white" stroke="black" points="599.803,-71 599.803,-91 774.197,-91 774.197,-71 599.803,-71"/>
<text text-anchor="middle" x="687" y="-77" font-family="Helvetica,sans-Serif" font-size="10.00">rcImageCanvasGL::drawFocusRect</text>
</a>
</g>
</g>
<!-- Node8&#45;&gt;Node9 -->
<g id="edge8" class="edge"><title>Node8&#45;&gt;Node9</title>
<path fill="none" stroke="midnightblue" d="M567.133,-72.9993C577.856,-73.7211 588.795,-74.4574 599.481,-75.1766"/>
<polygon fill="midnightblue" stroke="midnightblue" points="567.145,-69.4923 556.932,-72.3128 566.675,-76.4765 567.145,-69.4923"/>
</g>
<!-- Node10 -->
<g id="node10" class="node"><title>Node10</title>
<g id="a_node10"><a xlink:href="classrc_image_canvas_g_l.html#aef9949c8e7bacf03aa2c62673e2bb708" target="_top" xlink:title="rcImageCanvasGL::drawZoomRect">
<polygon fill="white" stroke="black" points="600.638,-32 600.638,-52 773.362,-52 773.362,-32 600.638,-32"/>
<text text-anchor="middle" x="687" y="-38" font-family="Helvetica,sans-Serif" font-size="10.00">rcImageCanvasGL::drawZoomRect</text>
</a>
</g>
</g>
<!-- Node8&#45;&gt;Node10 -->
<g id="edge10" class="edge"><title>Node8&#45;&gt;Node10</title>
<path fill="none" stroke="midnightblue" d="M567.185,-56.2807C578.944,-54.8673 590.962,-53.4229 602.619,-52.0217"/>
<polygon fill="midnightblue" stroke="midnightblue" points="566.443,-52.8445 556.932,-57.5129 567.279,-59.7945 566.443,-52.8445"/>
</g>
<!-- Node9&#45;&gt;Node4 -->
<g id="edge9" class="edge"><title>Node9&#45;&gt;Node4</title>
<path fill="none" stroke="midnightblue" d="M784.512,-81C793.148,-81 801.822,-81 810.28,-81"/>
<polygon fill="midnightblue" stroke="midnightblue" points="784.409,-77.5001 774.409,-81 784.409,-84.5001 784.409,-77.5001"/>
</g>
<!-- Node10&#45;&gt;Node4 -->
<g id="edge11" class="edge"><title>Node10&#45;&gt;Node4</title>
<path fill="none" stroke="midnightblue" d="M749.795,-53.9901C768.833,-57.684 790.058,-61.8022 810.082,-65.6876"/>
<polygon fill="midnightblue" stroke="midnightblue" points="750.246,-50.5124 739.762,-52.0435 748.913,-57.3842 750.246,-50.5124"/>
</g>
<!-- Node12 -->
<g id="node12" class="node"><title>Node12</title>
<g id="a_node12"><a xlink:href="classrc_image_canvas_g_l.html#afd5e75f95cc8f23cf8601e6e4b49788c" target="_top" xlink:title="rcImageCanvasGL::keyPress\lEvent">
<polygon fill="white" stroke="black" points="403.976,-0 403.976,-32 550.024,-32 550.024,-0 403.976,-0"/>
<text text-anchor="start" x="411.976" y="-18" font-family="Helvetica,sans-Serif" font-size="10.00">rcImageCanvasGL::keyPress</text>
<text text-anchor="middle" x="477" y="-6" font-family="Helvetica,sans-Serif" font-size="10.00">Event</text>
</a>
</g>
</g>
<!-- Node11&#45;&gt;Node12 -->
<g id="edge14" class="edge"><title>Node11&#45;&gt;Node12</title>
<path fill="none" stroke="midnightblue" d="M348.444,-17.8397C366.706,-17.5764 385.99,-17.2982 403.881,-17.0402"/>
<polygon fill="midnightblue" stroke="midnightblue" points="348.368,-14.3404 338.419,-17.9843 348.469,-21.3397 348.368,-14.3404"/>
</g>
</g>
</svg>
        <g id="navigator" transform="translate(0 0)" fill="#404254">
                <rect fill="#f2f5e9" fill-opacity="0.5" stroke="#606060" stroke-width=".5" x="0" y="0" width="60" height="60"/>
                <use id="zoomplus" xlink:href="#zoomPlus" x="17" y="9" onmousedown="handleZoom(evt,'in')"/>
                <use id="zoomminus" xlink:href="#zoomMin" x="42" y="9" onmousedown="handleZoom(evt,'out')"/>
                <use id="reset" xlink:href="#resetDef" x="30" y="36" onmousedown="handleReset()"/>
                <g id="arrowUp" xlink:href="#dirArrow" transform="translate(30 24)" onmousedown="handlePan(0,-1)">
                  <use xlink:href="#rim" fill="#404040">
                        <set attributeName="fill" to="#808080" begin="arrowUp.mouseover" end="arrowUp.mouseout"/>
                  </use>
                  <path fill="none" stroke="white" stroke-width="1.5" d="M0,-3.0v7 M-2.5,-0.5L0,-3.0L2.5,-0.5"/>
                </g>
                <g id="arrowRight" xlink:href="#dirArrow" transform="rotate(90) translate(36 -43)" onmousedown="handlePan(1,0)">
                  <use xlink:href="#rim" fill="#404040">
                        <set attributeName="fill" to="#808080" begin="arrowRight.mouseover" end="arrowRight.mouseout"/>
                  </use>
                  <path fill="none" stroke="white" stroke-width="1.5" d="M0,-3.0v7 M-2.5,-0.5L0,-3.0L2.5,-0.5"/>
                </g>
                <g id="arrowDown" xlink:href="#dirArrow" transform="rotate(180) translate(-30 -48)" onmousedown="handlePan(0,1)">
                  <use xlink:href="#rim" fill="#404040">
                        <set attributeName="fill" to="#808080" begin="arrowDown.mouseover" end="arrowDown.mouseout"/>
                  </use>
                  <path fill="none" stroke="white" stroke-width="1.5" d="M0,-3.0v7 M-2.5,-0.5L0,-3.0L2.5,-0.5"/>
                </g>
                <g id="arrowLeft" xlink:href="#dirArrow" transform="rotate(270) translate(-36 17)" onmousedown="handlePan(-1,0)">
                  <use xlink:href="#rim" fill="#404040">
                        <set attributeName="fill" to="#808080" begin="arrowLeft.mouseover" end="arrowLeft.mouseout"/>
                  </use>
                  <path fill="none" stroke="white" stroke-width="1.5" d="M0,-3.0v7 M-2.5,-0.5L0,-3.0L2.5,-0.5"/>
                </g>
        </g>
        <svg viewBox="0 0 15 15" width="100%" height="30px" preserveAspectRatio="xMaxYMin meet">
         <g id="arrow_out" transform="scale(0.3 0.3)">
          <a xlink:href="classrc_image_canvas_g_l_a66fa650171152fa4e33c5303ff34c037_icgraph_org.svg" target="_base">
           <rect id="button" ry="5" rx="5" y="6" x="6" height="38" width="38"
                fill="#f2f5e9" fill-opacity="0.5" stroke="#606060" stroke-width="1.0"/>
           <path id="arrow"
             d="M 11.500037,31.436501 C 11.940474,20.09759 22.043105,11.32322 32.158766,21.979434 L 37.068811,17.246167 C 37.068811,17.246167 37.088388,32 37.088388,32 L 22.160133,31.978069 C 22.160133,31.978069 26.997745,27.140456 26.997745,27.140456 C 18.528582,18.264221 13.291696,25.230495 11.500037,31.436501 z"
             style="fill:#404040;"/>
          </a>
         </g>
        </svg>
</svg>
