<?xml version="1.0" encoding="UTF-8" standalone="no"?>
<!DOCTYPE svg PUBLIC "-//W3C//DTD SVG 1.1//EN"
 "http://www.w3.org/Graphics/SVG/1.1/DTD/svg11.dtd">
<!-- Generated by graphviz version 2.32.0 (20130916.1925)
 -->
<!-- Title: rcSimilarator::matrixSz Pages: 1 -->
<!--zoomable 241 -->
<svg id="main" version="1.1" xmlns="http://www.w3.org/2000/svg" xmlns:xlink="http://www.w3.org/1999/xlink" xml:space="preserve" onload="init(evt)">
        <defs>
                <circle id="rim" cx="0" cy="0" r="7"/>
                <circle id="rim2" cx="0" cy="0" r="3.5"/>
                <g id="zoomPlus">
                        <use xlink:href="#rim" fill="#404040">
                                <set attributeName="fill" to="#808080" begin="zoomplus.mouseover" end="zoomplus.mouseout"/>
                        </use>
                        <path d="M-4,0h8M0,-4v8" fill="none" stroke="white" stroke-width="1.5" pointer-events="none"/>
                </g>
                <g id="zoomMin">
                        <use xlink:href="#rim" fill="#404040">
                                <set attributeName="fill" to="#808080" begin="zoomminus.mouseover" end="zoomminus.mouseout"/>
                        </use>
                        <path d="M-4,0h8" fill="none" stroke="white" stroke-width="1.5" pointer-events="none"/>
                </g>
                <g id="dirArrow">
                        <path fill="none" stroke="white" stroke-width="1.5" d="M0,-3.0v7 M-2.5,-0.5L0,-3.0L2.5,-0.5"/>
                </g>
               <g id="resetDef">
                       <use xlink:href="#rim2" fill="#404040">
                               <set attributeName="fill" to="#808080" begin="reset.mouseover" end="reset.mouseout"/>
                       </use>
               </g>
        </defs>

<script type="text/javascript">
var viewWidth = 1126;
var viewHeight = 241;
var sectionId = 'dynsection-22';
</script>
<script xlink:href="svgpan.js"/>
<svg id="graph" class="graph">
<g id="viewport">
<title>rcSimilarator::matrixSz</title>
<polygon fill="white" stroke="white" points="-4,5 -4,-237 1123,-237 1123,5 -4,5"/>
<!-- Node1 -->
<g id="node1" class="node"><title>Node1</title>
<polygon fill="#bfbfbf" stroke="black" points="0.716797,-97 0.716797,-117 117.283,-117 117.283,-97 0.716797,-97"/>
<text text-anchor="middle" x="59" y="-103" font-family="Helvetica,sans-Serif" font-size="10.00">rcSimilarator::matrixSz</text>
</g>
<!-- Node2 -->
<g id="node2" class="node"><title>Node2</title>
<g id="a_node2"><a xlink:href="classrc_similarator.html#a16a57206645f9d03bbf6cc8ca1a878a2" target="_top" xlink:title="rcSimilarator::internalFill">
<polygon fill="white" stroke="black" points="154.377,-97 154.377,-117 277.623,-117 277.623,-97 154.377,-97"/>
<text text-anchor="middle" x="216" y="-103" font-family="Helvetica,sans-Serif" font-size="10.00">rcSimilarator::internalFill</text>
</a>
</g>
</g>
<!-- Node1&#45;&gt;Node2 -->
<g id="edge1" class="edge"><title>Node1&#45;&gt;Node2</title>
<path fill="none" stroke="midnightblue" d="M127.869,-107C136.605,-107 145.507,-107 154.122,-107"/>
<polygon fill="midnightblue" stroke="midnightblue" points="127.716,-103.5 117.716,-107 127.716,-110.5 127.716,-103.5"/>
</g>
<!-- Node3 -->
<g id="node3" class="node"><title>Node3</title>
<g id="a_node3"><a xlink:href="classrc_similarator.html#a4d6823b49a2320b53a3b91d67a0395b9" target="_top" xlink:title="rcSimilarator::fill">
<polygon fill="white" stroke="black" points="314.441,-97 314.441,-117 401.559,-117 401.559,-97 314.441,-97"/>
<text text-anchor="middle" x="358" y="-103" font-family="Helvetica,sans-Serif" font-size="10.00">rcSimilarator::fill</text>
</a>
</g>
</g>
<!-- Node2&#45;&gt;Node3 -->
<g id="edge2" class="edge"><title>Node2&#45;&gt;Node3</title>
<path fill="none" stroke="midnightblue" d="M288.085,-107C297.037,-107 305.966,-107 314.285,-107"/>
<polygon fill="midnightblue" stroke="midnightblue" points="287.999,-103.5 277.999,-107 287.999,-110.5 287.999,-103.5"/>
</g>
<!-- Node4 -->
<g id="node4" class="node"><title>Node4</title>
<g id="a_node4"><a xlink:href="rc__kineticimage_8h.html#a37fdff5165799a39ff0e7807bf05a1a3" target="_top" xlink:title="calcMusclePeriod">
<polygon fill="white" stroke="black" points="464.818,-156 464.818,-176 559.182,-176 559.182,-156 464.818,-156"/>
<text text-anchor="middle" x="512" y="-162" font-family="Helvetica,sans-Serif" font-size="10.00">calcMusclePeriod</text>
</a>
</g>
</g>
<!-- Node3&#45;&gt;Node4 -->
<g id="edge3" class="edge"><title>Node3&#45;&gt;Node4</title>
<path fill="none" stroke="midnightblue" d="M386.257,-122.068C401.221,-129.925 420.288,-139.273 438,-146 447.828,-149.733 458.642,-153.086 468.866,-155.932"/>
<polygon fill="midnightblue" stroke="midnightblue" points="387.541,-118.785 377.071,-117.162 384.243,-124.96 387.541,-118.785"/>
</g>
<!-- Node8 -->
<g id="node8" class="node"><title>Node8</title>
<g id="a_node8"><a xlink:href="classrc_engine_impl.html#afeacc2314f49f0c2ebda1adc29845367" target="_top" xlink:title="rcEngineImpl::entropyTracker">
<polygon fill="white" stroke="black" points="438.602,-117 438.602,-137 585.398,-137 585.398,-117 438.602,-117"/>
<text text-anchor="middle" x="512" y="-123" font-family="Helvetica,sans-Serif" font-size="10.00">rcEngineImpl::entropyTracker</text>
</a>
</g>
</g>
<!-- Node3&#45;&gt;Node8 -->
<g id="edge7" class="edge"><title>Node3&#45;&gt;Node8</title>
<path fill="none" stroke="midnightblue" d="M411.923,-113.964C420.47,-115.088 429.447,-116.269 438.361,-117.442"/>
<polygon fill="midnightblue" stroke="midnightblue" points="412.116,-110.459 401.745,-112.624 411.203,-117.399 412.116,-110.459"/>
</g>
<!-- Node13 -->
<g id="node13" class="node"><title>Node13</title>
<g id="a_node13"><a xlink:href="classrc_muscle_segmenter.html#ab797a355a4e18e94b3e482fbbff932ea" target="_top" xlink:title="rcMuscleSegmenter::\lgetEMI">
<polygon fill="white" stroke="black" points="456.761,-198 456.761,-230 567.239,-230 567.239,-198 456.761,-198"/>
<text text-anchor="start" x="464.761" y="-216" font-family="Helvetica,sans-Serif" font-size="10.00">rcMuscleSegmenter::</text>
<text text-anchor="middle" x="512" y="-204" font-family="Helvetica,sans-Serif" font-size="10.00">getEMI</text>
</a>
</g>
</g>
<!-- Node3&#45;&gt;Node13 -->
<g id="edge12" class="edge"><title>Node3&#45;&gt;Node13</title>
<path fill="none" stroke="midnightblue" d="M373.384,-124.896C388.086,-142.216 412.345,-168.243 438,-185 445.536,-189.922 454.038,-194.233 462.507,-197.922"/>
<polygon fill="midnightblue" stroke="midnightblue" points="376.051,-122.629 366.97,-117.172 370.666,-127.101 376.051,-122.629"/>
</g>
<!-- Node16 -->
<g id="node16" class="node"><title>Node16</title>
<g id="a_node16"><a xlink:href="batch__main_8cpp.html#a3c04138a5bfe5d72780bb7e82a18e627" target="_top" xlink:title="main">
<polygon fill="white" stroke="black" points="493.163,-78 493.163,-98 530.837,-98 530.837,-78 493.163,-78"/>
<text text-anchor="middle" x="512" y="-84" font-family="Helvetica,sans-Serif" font-size="10.00">main</text>
</a>
</g>
</g>
<!-- Node3&#45;&gt;Node16 -->
<g id="edge16" class="edge"><title>Node3&#45;&gt;Node16</title>
<path fill="none" stroke="midnightblue" d="M411.876,-100.391C440.037,-96.8704 472.88,-92.7649 492.796,-90.2755"/>
<polygon fill="midnightblue" stroke="midnightblue" points="411.234,-96.9435 401.745,-101.657 412.102,-103.889 411.234,-96.9435"/>
</g>
<!-- Node17 -->
<g id="node17" class="node"><title>Node17</title>
<g id="a_node17"><a xlink:href="classrc_shape.html#a0c28cf660f43f60ce630345077ec6e7d" target="_top" xlink:title="rcShape::projectMI">
<polygon fill="white" stroke="black" points="462.037,-39 462.037,-59 561.963,-59 561.963,-39 462.037,-39"/>
<text text-anchor="middle" x="512" y="-45" font-family="Helvetica,sans-Serif" font-size="10.00">rcShape::projectMI</text>
</a>
</g>
</g>
<!-- Node3&#45;&gt;Node17 -->
<g id="edge17" class="edge"><title>Node3&#45;&gt;Node17</title>
<path fill="none" stroke="midnightblue" d="M386.598,-92.2057C401.53,-84.5927 420.459,-75.5598 438,-69 447.97,-65.2716 458.938,-61.9003 469.276,-59.0334"/>
<polygon fill="midnightblue" stroke="midnightblue" points="384.687,-89.2544 377.419,-96.9633 387.908,-95.4693 384.687,-89.2544"/>
</g>
<!-- Node18 -->
<g id="node18" class="node"><title>Node18</title>
<g id="a_node18"><a xlink:href="rc__kineticimage_8h.html#a74f16cb8db93e0991685b7e04ac2d18d" target="_top" xlink:title="segPointByEnergy">
<polygon fill="white" stroke="black" points="462.865,-0 462.865,-20 561.135,-20 561.135,-0 462.865,-0"/>
<text text-anchor="middle" x="512" y="-6" font-family="Helvetica,sans-Serif" font-size="10.00">segPointByEnergy</text>
</a>
</g>
</g>
<!-- Node3&#45;&gt;Node18 -->
<g id="edge18" class="edge"><title>Node3&#45;&gt;Node18</title>
<path fill="none" stroke="midnightblue" d="M372.819,-89.0088C387.243,-71.4464 411.433,-45.2113 438,-30 445.526,-25.6907 454.024,-22.274 462.492,-19.5761"/>
<polygon fill="midnightblue" stroke="midnightblue" points="370.064,-86.8502 366.555,-96.8473 375.532,-91.2201 370.064,-86.8502"/>
</g>
<!-- Node5 -->
<g id="node5" class="node"><title>Node5</title>
<g id="a_node5"><a xlink:href="classrc_muscle_segmenter.html#a61c65559f55fd9fa632b96e09ef50b2e" target="_top" xlink:title="rcMuscleSegmenter::\lgenFrequencySegmentation">
<polygon fill="white" stroke="black" points="633.18,-150 633.18,-182 774.82,-182 774.82,-150 633.18,-150"/>
<text text-anchor="start" x="641.18" y="-168" font-family="Helvetica,sans-Serif" font-size="10.00">rcMuscleSegmenter::</text>
<text text-anchor="middle" x="704" y="-156" font-family="Helvetica,sans-Serif" font-size="10.00">genFrequencySegmentation</text>
</a>
</g>
</g>
<!-- Node4&#45;&gt;Node5 -->
<g id="edge4" class="edge"><title>Node4&#45;&gt;Node5</title>
<path fill="none" stroke="midnightblue" d="M569.605,-166C589.484,-166 612.06,-166 632.912,-166"/>
<polygon fill="midnightblue" stroke="midnightblue" points="569.479,-162.5 559.479,-166 569.479,-169.5 569.479,-162.5"/>
</g>
<!-- Node6 -->
<g id="node6" class="node"><title>Node6</title>
<g id="a_node6"><a xlink:href="classrc_muscle_segmenter.html#a660d7b3d1c240efa0b725e0db65154e3" target="_top" xlink:title="rcMuscleSegmenter::\lfilterByActivity">
<polygon fill="white" stroke="black" points="823.761,-150 823.761,-182 934.239,-182 934.239,-150 823.761,-150"/>
<text text-anchor="start" x="831.761" y="-168" font-family="Helvetica,sans-Serif" font-size="10.00">rcMuscleSegmenter::</text>
<text text-anchor="middle" x="879" y="-156" font-family="Helvetica,sans-Serif" font-size="10.00">filterByActivity</text>
</a>
</g>
</g>
<!-- Node5&#45;&gt;Node6 -->
<g id="edge5" class="edge"><title>Node5&#45;&gt;Node6</title>
<path fill="none" stroke="midnightblue" d="M785.219,-166C798.206,-166 811.383,-166 823.571,-166"/>
<polygon fill="midnightblue" stroke="midnightblue" points="784.867,-162.5 774.867,-166 784.867,-169.5 784.867,-162.5"/>
</g>
<!-- Node7 -->
<g id="node7" class="node"><title>Node7</title>
<g id="a_node7"><a xlink:href="classrc_engine_impl.html#a00ca0d227e480ddb5bd6be293b55d2c9" target="_top" xlink:title="rcEngineImpl::muscleTracker">
<polygon fill="white" stroke="black" points="972.442,-190 972.442,-210 1117.56,-210 1117.56,-190 972.442,-190"/>
<text text-anchor="middle" x="1045" y="-196" font-family="Helvetica,sans-Serif" font-size="10.00">rcEngineImpl::muscleTracker</text>
</a>
</g>
</g>
<!-- Node6&#45;&gt;Node7 -->
<g id="edge6" class="edge"><title>Node6&#45;&gt;Node7</title>
<path fill="none" stroke="midnightblue" d="M944.502,-179.372C961.551,-182.907 979.659,-186.661 995.689,-189.984"/>
<polygon fill="midnightblue" stroke="midnightblue" points="945.112,-175.924 934.61,-177.322 943.691,-182.779 945.112,-175.924"/>
</g>
<!-- Node9 -->
<g id="node9" class="node"><title>Node9</title>
<g id="a_node9"><a xlink:href="classrc_engine_impl.html#a3ad6dbc54b2a53acae4d345ff14974ae" target="_top" xlink:title="rcEngineImpl::analyzeFocusArea">
<polygon fill="white" stroke="black" points="622.631,-111 622.631,-131 785.369,-131 785.369,-111 622.631,-111"/>
<text text-anchor="middle" x="704" y="-117" font-family="Helvetica,sans-Serif" font-size="10.00">rcEngineImpl::analyzeFocusArea</text>
</a>
</g>
</g>
<!-- Node8&#45;&gt;Node9 -->
<g id="edge8" class="edge"><title>Node8&#45;&gt;Node9</title>
<path fill="none" stroke="midnightblue" d="M595.911,-124.382C604.729,-124.103 613.687,-123.82 622.476,-123.543"/>
<polygon fill="midnightblue" stroke="midnightblue" points="595.529,-120.892 585.644,-124.706 595.75,-127.889 595.529,-120.892"/>
</g>
<!-- Node10 -->
<g id="node10" class="node"><title>Node10</title>
<g id="a_node10"><a xlink:href="classrc_engine_impl.html#ae320706cbcafd64f219018b9842c8290" target="_top" xlink:title="rcEngineImpl::analyze">
<polygon fill="white" stroke="black" points="821.808,-111 821.808,-131 936.192,-131 936.192,-111 821.808,-111"/>
<text text-anchor="middle" x="879" y="-117" font-family="Helvetica,sans-Serif" font-size="10.00">rcEngineImpl::analyze</text>
</a>
</g>
</g>
<!-- Node9&#45;&gt;Node10 -->
<g id="edge9" class="edge"><title>Node9&#45;&gt;Node10</title>
<path fill="none" stroke="midnightblue" d="M795.5,-121C804.423,-121 813.288,-121 821.716,-121"/>
<polygon fill="midnightblue" stroke="midnightblue" points="795.422,-117.5 785.422,-121 795.422,-124.5 795.422,-117.5"/>
</g>
<!-- Node11 -->
<g id="node11" class="node"><title>Node11</title>
<g id="a_node11"><a xlink:href="classrc_engine_impl.html#a507e034c1e43ae1dd6ec95a11ec0bb02" target="_top" xlink:title="rcEngineImpl::process">
<polygon fill="white" stroke="black" points="987.535,-134 987.535,-154 1102.47,-154 1102.47,-134 987.535,-134"/>
<text text-anchor="middle" x="1045" y="-140" font-family="Helvetica,sans-Serif" font-size="10.00">rcEngineImpl::process</text>
</a>
</g>
</g>
<!-- Node10&#45;&gt;Node11 -->
<g id="edge10" class="edge"><title>Node10&#45;&gt;Node11</title>
<path fill="none" stroke="midnightblue" d="M946.654,-130.348C960.192,-132.246 974.309,-134.226 987.456,-136.07"/>
<polygon fill="midnightblue" stroke="midnightblue" points="946.829,-126.838 936.439,-128.915 945.856,-133.77 946.829,-126.838"/>
</g>
<!-- Node12 -->
<g id="node12" class="node"><title>Node12</title>
<g id="a_node12"><a xlink:href="classrc_engine_analyzer.html#a064037f0ec3e68fcb11dabbcba790cdd" target="_top" xlink:title="rcEngineAnalyzer::run">
<polygon fill="white" stroke="black" points="987.808,-95 987.808,-115 1102.19,-115 1102.19,-95 987.808,-95"/>
<text text-anchor="middle" x="1045" y="-101" font-family="Helvetica,sans-Serif" font-size="10.00">rcEngineAnalyzer::run</text>
</a>
</g>
</g>
<!-- Node10&#45;&gt;Node12 -->
<g id="edge11" class="edge"><title>Node10&#45;&gt;Node12</title>
<path fill="none" stroke="midnightblue" d="M946.712,-114.492C960.328,-113.163 974.527,-111.778 987.734,-110.489"/>
<polygon fill="midnightblue" stroke="midnightblue" points="946.052,-111.039 936.439,-115.494 946.732,-118.006 946.052,-111.039"/>
</g>
<!-- Node14 -->
<g id="node14" class="node"><title>Node14</title>
<g id="a_node14"><a xlink:href="classrc_muscle_segmenter.html#a248fccb8fc46afa10c1a0a0cb240e72a" target="_top" xlink:title="rcMuscleSegmenter::\lgenSpatialSegmentation">
<polygon fill="white" stroke="black" points="641.515,-201 641.515,-233 766.485,-233 766.485,-201 641.515,-201"/>
<text text-anchor="start" x="649.515" y="-219" font-family="Helvetica,sans-Serif" font-size="10.00">rcMuscleSegmenter::</text>
<text text-anchor="middle" x="704" y="-207" font-family="Helvetica,sans-Serif" font-size="10.00">genSpatialSegmentation</text>
</a>
</g>
</g>
<!-- Node13&#45;&gt;Node14 -->
<g id="edge13" class="edge"><title>Node13&#45;&gt;Node14</title>
<path fill="none" stroke="midnightblue" d="M577.655,-215.021C598.196,-215.345 620.852,-215.703 641.187,-216.024"/>
<polygon fill="midnightblue" stroke="midnightblue" points="577.5,-211.518 567.446,-214.86 577.39,-218.517 577.5,-211.518"/>
</g>
<!-- Node15 -->
<g id="node15" class="node"><title>Node15</title>
<g id="a_node15"><a xlink:href="classrc_muscle_segmenter.html#a86d108c38d0bcb7a7eb47021b7ab0308" target="_top" xlink:title="rcMuscleSegmenter::\lsegment">
<polygon fill="white" stroke="black" points="823.761,-201 823.761,-233 934.239,-233 934.239,-201 823.761,-201"/>
<text text-anchor="start" x="831.761" y="-219" font-family="Helvetica,sans-Serif" font-size="10.00">rcMuscleSegmenter::</text>
<text text-anchor="middle" x="879" y="-207" font-family="Helvetica,sans-Serif" font-size="10.00">segment</text>
</a>
</g>
</g>
<!-- Node14&#45;&gt;Node15 -->
<g id="edge14" class="edge"><title>Node14&#45;&gt;Node15</title>
<path fill="none" stroke="midnightblue" d="M777.087,-217C792.659,-217 808.873,-217 823.632,-217"/>
<polygon fill="midnightblue" stroke="midnightblue" points="776.968,-213.5 766.968,-217 776.968,-220.5 776.968,-213.5"/>
</g>
<!-- Node15&#45;&gt;Node7 -->
<g id="edge15" class="edge"><title>Node15&#45;&gt;Node7</title>
<path fill="none" stroke="midnightblue" d="M944.723,-210.291C953.815,-209.348 963.203,-208.375 972.414,-207.421"/>
<polygon fill="midnightblue" stroke="midnightblue" points="944.195,-206.827 934.61,-211.339 944.917,-213.789 944.195,-206.827"/>
</g>
</g>
</svg>
        <g id="navigator" transform="translate(0 0)" fill="#404254">
                <rect fill="#f2f5e9" fill-opacity="0.5" stroke="#606060" stroke-width=".5" x="0" y="0" width="60" height="60"/>
                <use id="zoomplus" xlink:href="#zoomPlus" x="17" y="9" onmousedown="handleZoom(evt,'in')"/>
                <use id="zoomminus" xlink:href="#zoomMin" x="42" y="9" onmousedown="handleZoom(evt,'out')"/>
                <use id="reset" xlink:href="#resetDef" x="30" y="36" onmousedown="handleReset()"/>
                <g id="arrowUp" xlink:href="#dirArrow" transform="translate(30 24)" onmousedown="handlePan(0,-1)">
                  <use xlink:href="#rim" fill="#404040">
                        <set attributeName="fill" to="#808080" begin="arrowUp.mouseover" end="arrowUp.mouseout"/>
                  </use>
                  <path fill="none" stroke="white" stroke-width="1.5" d="M0,-3.0v7 M-2.5,-0.5L0,-3.0L2.5,-0.5"/>
                </g>
                <g id="arrowRight" xlink:href="#dirArrow" transform="rotate(90) translate(36 -43)" onmousedown="handlePan(1,0)">
                  <use xlink:href="#rim" fill="#404040">
                        <set attributeName="fill" to="#808080" begin="arrowRight.mouseover" end="arrowRight.mouseout"/>
                  </use>
                  <path fill="none" stroke="white" stroke-width="1.5" d="M0,-3.0v7 M-2.5,-0.5L0,-3.0L2.5,-0.5"/>
                </g>
                <g id="arrowDown" xlink:href="#dirArrow" transform="rotate(180) translate(-30 -48)" onmousedown="handlePan(0,1)">
                  <use xlink:href="#rim" fill="#404040">
                        <set attributeName="fill" to="#808080" begin="arrowDown.mouseover" end="arrowDown.mouseout"/>
                  </use>
                  <path fill="none" stroke="white" stroke-width="1.5" d="M0,-3.0v7 M-2.5,-0.5L0,-3.0L2.5,-0.5"/>
                </g>
                <g id="arrowLeft" xlink:href="#dirArrow" transform="rotate(270) translate(-36 17)" onmousedown="handlePan(-1,0)">
                  <use xlink:href="#rim" fill="#404040">
                        <set attributeName="fill" to="#808080" begin="arrowLeft.mouseover" end="arrowLeft.mouseout"/>
                  </use>
                  <path fill="none" stroke="white" stroke-width="1.5" d="M0,-3.0v7 M-2.5,-0.5L0,-3.0L2.5,-0.5"/>
                </g>
        </g>
        <svg viewBox="0 0 15 15" width="100%" height="30px" preserveAspectRatio="xMaxYMin meet">
         <g id="arrow_out" transform="scale(0.3 0.3)">
          <a xlink:href="classrc_similarator_a05de7c5ed1aed0f0c222e749b9c17d5b_icgraph_org.svg" target="_base">
           <rect id="button" ry="5" rx="5" y="6" x="6" height="38" width="38"
                fill="#f2f5e9" fill-opacity="0.5" stroke="#606060" stroke-width="1.0"/>
           <path id="arrow"
             d="M 11.500037,31.436501 C 11.940474,20.09759 22.043105,11.32322 32.158766,21.979434 L 37.068811,17.246167 C 37.068811,17.246167 37.088388,32 37.088388,32 L 22.160133,31.978069 C 22.160133,31.978069 26.997745,27.140456 26.997745,27.140456 C 18.528582,18.264221 13.291696,25.230495 11.500037,31.436501 z"
             style="fill:#404040;"/>
          </a>
         </g>
        </svg>
</svg>
