<?xml version="1.0" encoding="UTF-8" standalone="no"?>
<!DOCTYPE svg PUBLIC "-//W3C//DTD SVG 1.1//EN"
 "http://www.w3.org/Graphics/SVG/1.1/DTD/svg11.dtd">
<!-- Generated by graphviz version 2.32.0 (20130916.1925)
 -->
<!-- Title: rcModelDomain::updateMonitorDisplay Pages: 1 -->
<!--zoomable 133 -->
<svg id="main" version="1.1" xmlns="http://www.w3.org/2000/svg" xmlns:xlink="http://www.w3.org/1999/xlink" xml:space="preserve" onload="init(evt)">
        <defs>
                <circle id="rim" cx="0" cy="0" r="7"/>
                <circle id="rim2" cx="0" cy="0" r="3.5"/>
                <g id="zoomPlus">
                        <use xlink:href="#rim" fill="#404040">
                                <set attributeName="fill" to="#808080" begin="zoomplus.mouseover" end="zoomplus.mouseout"/>
                        </use>
                        <path d="M-4,0h8M0,-4v8" fill="none" stroke="white" stroke-width="1.5" pointer-events="none"/>
                </g>
                <g id="zoomMin">
                        <use xlink:href="#rim" fill="#404040">
                                <set attributeName="fill" to="#808080" begin="zoomminus.mouseover" end="zoomminus.mouseout"/>
                        </use>
                        <path d="M-4,0h8" fill="none" stroke="white" stroke-width="1.5" pointer-events="none"/>
                </g>
                <g id="dirArrow">
                        <path fill="none" stroke="white" stroke-width="1.5" d="M0,-3.0v7 M-2.5,-0.5L0,-3.0L2.5,-0.5"/>
                </g>
               <g id="resetDef">
                       <use xlink:href="#rim2" fill="#404040">
                               <set attributeName="fill" to="#808080" begin="reset.mouseover" end="reset.mouseout"/>
                       </use>
               </g>
        </defs>

<script type="text/javascript">
var viewWidth = 792;
var viewHeight = 133;
var sectionId = 'dynsection-102';
</script>
<script xlink:href="svgpan.js"/>
<svg id="graph" class="graph">
<g id="viewport">
<title>rcModelDomain::updateMonitorDisplay</title>
<polygon fill="white" stroke="white" points="-4,5 -4,-129 789,-129 789,5 -4,5"/>
<!-- Node1 -->
<g id="node1" class="node"><title>Node1</title>
<polygon fill="#bfbfbf" stroke="black" points="0.244141,-67 0.244141,-99 155.756,-99 155.756,-67 0.244141,-67"/>
<text text-anchor="start" x="8.24414" y="-85" font-family="Helvetica,sans-Serif" font-size="10.00">rcModelDomain::updateMonitor</text>
<text text-anchor="middle" x="78" y="-73" font-family="Helvetica,sans-Serif" font-size="10.00">Display</text>
</g>
<!-- Node2 -->
<g id="node2" class="node"><title>Node2</title>
<g id="a_node2"><a xlink:href="classrc_model_domain.html#a51cc7ebdbee803914a0483ac67a55b2d" target="_top" xlink:title="rcModelDomain::notifyUpdate\lMonitor">
<polygon fill="white" stroke="black" points="192.136,-67 192.136,-99 339.864,-99 339.864,-67 192.136,-67"/>
<text text-anchor="start" x="200.136" y="-85" font-family="Helvetica,sans-Serif" font-size="10.00">rcModelDomain::notifyUpdate</text>
<text text-anchor="middle" x="266" y="-73" font-family="Helvetica,sans-Serif" font-size="10.00">Monitor</text>
</a>
</g>
</g>
<!-- Node1&#45;&gt;Node2 -->
<g id="edge1" class="edge"><title>Node1&#45;&gt;Node2</title>
<path fill="none" stroke="midnightblue" d="M166.098,-83C174.746,-83 183.462,-83 191.945,-83"/>
<polygon fill="midnightblue" stroke="midnightblue" points="165.996,-79.5001 155.996,-83 165.996,-86.5001 165.996,-79.5001"/>
</g>
<!-- Node3 -->
<g id="node3" class="node"><title>Node3</title>
<g id="a_node3"><a xlink:href="classrc_scalar_track_widget.html#aec406498f8a4809dbdcf36d8deba3c7a" target="_top" xlink:title="rcScalarTrackWidget\l::setEnabled">
<polygon fill="white" stroke="black" points="375.784,-93 375.784,-125 484.216,-125 484.216,-93 375.784,-93"/>
<text text-anchor="start" x="383.784" y="-111" font-family="Helvetica,sans-Serif" font-size="10.00">rcScalarTrackWidget</text>
<text text-anchor="middle" x="430" y="-99" font-family="Helvetica,sans-Serif" font-size="10.00">::setEnabled</text>
</a>
</g>
</g>
<!-- Node2&#45;&gt;Node3 -->
<g id="edge2" class="edge"><title>Node2&#45;&gt;Node3</title>
<path fill="none" stroke="midnightblue" d="M350.038,-96.3271C358.645,-97.7085 367.221,-99.0849 375.378,-100.394"/>
<polygon fill="midnightblue" stroke="midnightblue" points="350.372,-92.8359 339.944,-94.707 349.262,-99.7475 350.372,-92.8359"/>
</g>
<!-- Node5 -->
<g id="node5" class="node"><title>Node5</title>
<g id="a_node5"><a xlink:href="classrc_track_group_widget.html#acd0f4f43430b7dc7130b6ef6dc3e2b6c" target="_top" xlink:title="rcTrackGroupWidget\l::setEnabled">
<polygon fill="white" stroke="black" points="376.06,-42 376.06,-74 483.94,-74 483.94,-42 376.06,-42"/>
<text text-anchor="start" x="384.06" y="-60" font-family="Helvetica,sans-Serif" font-size="10.00">rcTrackGroupWidget</text>
<text text-anchor="middle" x="430" y="-48" font-family="Helvetica,sans-Serif" font-size="10.00">::setEnabled</text>
</a>
</g>
</g>
<!-- Node2&#45;&gt;Node5 -->
<g id="edge4" class="edge"><title>Node2&#45;&gt;Node5</title>
<path fill="none" stroke="midnightblue" d="M349.896,-70.2074C358.719,-68.8458 367.513,-67.4888 375.857,-66.2011"/>
<polygon fill="midnightblue" stroke="midnightblue" points="349.293,-66.759 339.944,-71.7433 350.36,-73.6771 349.293,-66.759"/>
</g>
<!-- Node4 -->
<g id="node4" class="node"><title>Node4</title>
<g id="a_node4"><a xlink:href="classrc_scalar_track_widget.html#afc60cc8a08bd8f16560757beef569858" target="_top" xlink:title="rcScalarTrackWidget\l::rcScalarTrackWidget">
<polygon fill="white" stroke="black" points="520.006,-93 520.006,-125 633.994,-125 633.994,-93 520.006,-93"/>
<text text-anchor="start" x="528.006" y="-111" font-family="Helvetica,sans-Serif" font-size="10.00">rcScalarTrackWidget</text>
<text text-anchor="middle" x="577" y="-99" font-family="Helvetica,sans-Serif" font-size="10.00">::rcScalarTrackWidget</text>
</a>
</g>
</g>
<!-- Node3&#45;&gt;Node4 -->
<g id="edge3" class="edge"><title>Node3&#45;&gt;Node4</title>
<path fill="none" stroke="midnightblue" d="M494.654,-109C503.003,-109 511.509,-109 519.724,-109"/>
<polygon fill="midnightblue" stroke="midnightblue" points="494.581,-105.5 484.581,-109 494.581,-112.5 494.581,-105.5"/>
</g>
<!-- Node6 -->
<g id="node6" class="node"><title>Node6</title>
<g id="a_node6"><a xlink:href="classrc_track_group_widget.html#ad61eb6b64b90a1f10be6562ae339923b" target="_top" xlink:title="rcTrackGroupWidget\l::rcTrackGroupWidget">
<polygon fill="white" stroke="black" points="670.282,-22 670.282,-54 783.718,-54 783.718,-22 670.282,-22"/>
<text text-anchor="start" x="678.282" y="-40" font-family="Helvetica,sans-Serif" font-size="10.00">rcTrackGroupWidget</text>
<text text-anchor="middle" x="727" y="-28" font-family="Helvetica,sans-Serif" font-size="10.00">::rcTrackGroupWidget</text>
</a>
</g>
</g>
<!-- Node5&#45;&gt;Node6 -->
<g id="edge5" class="edge"><title>Node5&#45;&gt;Node6</title>
<path fill="none" stroke="midnightblue" d="M494.234,-53.7129C546.484,-50.1706 619.961,-45.1891 670.086,-41.7908"/>
<polygon fill="midnightblue" stroke="midnightblue" points="493.821,-50.2328 484.081,-54.4013 494.295,-57.2168 493.821,-50.2328"/>
</g>
<!-- Node7 -->
<g id="node7" class="node"><title>Node7</title>
<g id="a_node7"><a xlink:href="classrc_track_group_widget.html#a921fe29cf7f76be8059df16a50f4f318" target="_top" xlink:title="rcTrackGroupWidget\l::updateSettings">
<polygon fill="white" stroke="black" points="523.06,-0 523.06,-32 630.94,-32 630.94,-0 523.06,-0"/>
<text text-anchor="start" x="531.06" y="-18" font-family="Helvetica,sans-Serif" font-size="10.00">rcTrackGroupWidget</text>
<text text-anchor="middle" x="577" y="-6" font-family="Helvetica,sans-Serif" font-size="10.00">::updateSettings</text>
</a>
</g>
</g>
<!-- Node5&#45;&gt;Node7 -->
<g id="edge6" class="edge"><title>Node5&#45;&gt;Node7</title>
<path fill="none" stroke="midnightblue" d="M494.06,-39.7342C503.658,-36.9544 513.479,-34.1095 522.837,-31.3989"/>
<polygon fill="midnightblue" stroke="midnightblue" points="492.801,-36.4552 484.169,-42.5992 494.748,-43.1788 492.801,-36.4552"/>
</g>
<!-- Node7&#45;&gt;Node6 -->
<g id="edge7" class="edge"><title>Node7&#45;&gt;Node6</title>
<path fill="none" stroke="midnightblue" d="M640.979,-25.3617C650.659,-26.8006 660.596,-28.2778 670.108,-29.6917"/>
<polygon fill="midnightblue" stroke="midnightblue" points="641.419,-21.8888 631.013,-23.8804 640.39,-28.8127 641.419,-21.8888"/>
</g>
</g>
</svg>
        <g id="navigator" transform="translate(0 0)" fill="#404254">
                <rect fill="#f2f5e9" fill-opacity="0.5" stroke="#606060" stroke-width=".5" x="0" y="0" width="60" height="60"/>
                <use id="zoomplus" xlink:href="#zoomPlus" x="17" y="9" onmousedown="handleZoom(evt,'in')"/>
                <use id="zoomminus" xlink:href="#zoomMin" x="42" y="9" onmousedown="handleZoom(evt,'out')"/>
                <use id="reset" xlink:href="#resetDef" x="30" y="36" onmousedown="handleReset()"/>
                <g id="arrowUp" xlink:href="#dirArrow" transform="translate(30 24)" onmousedown="handlePan(0,-1)">
                  <use xlink:href="#rim" fill="#404040">
                        <set attributeName="fill" to="#808080" begin="arrowUp.mouseover" end="arrowUp.mouseout"/>
                  </use>
                  <path fill="none" stroke="white" stroke-width="1.5" d="M0,-3.0v7 M-2.5,-0.5L0,-3.0L2.5,-0.5"/>
                </g>
                <g id="arrowRight" xlink:href="#dirArrow" transform="rotate(90) translate(36 -43)" onmousedown="handlePan(1,0)">
                  <use xlink:href="#rim" fill="#404040">
                        <set attributeName="fill" to="#808080" begin="arrowRight.mouseover" end="arrowRight.mouseout"/>
                  </use>
                  <path fill="none" stroke="white" stroke-width="1.5" d="M0,-3.0v7 M-2.5,-0.5L0,-3.0L2.5,-0.5"/>
                </g>
                <g id="arrowDown" xlink:href="#dirArrow" transform="rotate(180) translate(-30 -48)" onmousedown="handlePan(0,1)">
                  <use xlink:href="#rim" fill="#404040">
                        <set attributeName="fill" to="#808080" begin="arrowDown.mouseover" end="arrowDown.mouseout"/>
                  </use>
                  <path fill="none" stroke="white" stroke-width="1.5" d="M0,-3.0v7 M-2.5,-0.5L0,-3.0L2.5,-0.5"/>
                </g>
                <g id="arrowLeft" xlink:href="#dirArrow" transform="rotate(270) translate(-36 17)" onmousedown="handlePan(-1,0)">
                  <use xlink:href="#rim" fill="#404040">
                        <set attributeName="fill" to="#808080" begin="arrowLeft.mouseover" end="arrowLeft.mouseout"/>
                  </use>
                  <path fill="none" stroke="white" stroke-width="1.5" d="M0,-3.0v7 M-2.5,-0.5L0,-3.0L2.5,-0.5"/>
                </g>
        </g>
        <svg viewBox="0 0 15 15" width="100%" height="30px" preserveAspectRatio="xMaxYMin meet">
         <g id="arrow_out" transform="scale(0.3 0.3)">
          <a xlink:href="classrc_model_domain_a2bd1bd1bd72279ba12d846adc2bcc884_icgraph_org.svg" target="_base">
           <rect id="button" ry="5" rx="5" y="6" x="6" height="38" width="38"
                fill="#f2f5e9" fill-opacity="0.5" stroke="#606060" stroke-width="1.0"/>
           <path id="arrow"
             d="M 11.500037,31.436501 C 11.940474,20.09759 22.043105,11.32322 32.158766,21.979434 L 37.068811,17.246167 C 37.068811,17.246167 37.088388,32 37.088388,32 L 22.160133,31.978069 C 22.160133,31.978069 26.997745,27.140456 26.997745,27.140456 C 18.528582,18.264221 13.291696,25.230495 11.500037,31.436501 z"
             style="fill:#404040;"/>
          </a>
         </g>
        </svg>
</svg>
