<?xml version="1.0" encoding="UTF-8" standalone="no"?>
<!DOCTYPE svg PUBLIC "-//W3C//DTD SVG 1.1//EN"
 "http://www.w3.org/Graphics/SVG/1.1/DTD/svg11.dtd">
<!-- Generated by graphviz version 2.32.0 (20130916.1925)
 -->
<!-- Title: rcGraphicsSegmentIteratorImpl::getCount Pages: 1 -->
<svg width="316pt" height="40pt"
 viewBox="0.00 0.00 316.00 40.00" xmlns="http://www.w3.org/2000/svg" xmlns:xlink="http://www.w3.org/1999/xlink">
<g id="graph0" class="graph" transform="scale(1 1) rotate(0) translate(4 36)">
<title>rcGraphicsSegmentIteratorImpl::getCount</title>
<polygon fill="white" stroke="white" points="-4,5 -4,-36 313,-36 313,5 -4,5"/>
<!-- Node1 -->
<g id="node1" class="node"><title>Node1</title>
<polygon fill="#bfbfbf" stroke="black" points="-0.0244141,-0 -0.0244141,-32 136.024,-32 136.024,-0 -0.0244141,-0"/>
<text text-anchor="start" x="7.97559" y="-18" font-family="Helvetica,sans-Serif" font-size="10.00">rcGraphicsSegmentIterator</text>
<text text-anchor="middle" x="68" y="-6" font-family="Helvetica,sans-Serif" font-size="10.00">Impl::getCount</text>
</g>
<!-- Node2 -->
<g id="node2" class="node"><title>Node2</title>
<g id="a_node2"><a xlink:href="classrc_visual_graphics_collection.html#a1cf214932377c559358669fe9de22937" target="_top" xlink:title="rcVisualGraphicsCollection\l::size">
<polygon fill="white" stroke="black" points="172.342,-0 172.342,-32 307.658,-32 307.658,-0 172.342,-0"/>
<text text-anchor="start" x="180.342" y="-18" font-family="Helvetica,sans-Serif" font-size="10.00">rcVisualGraphicsCollection</text>
<text text-anchor="middle" x="240" y="-6" font-family="Helvetica,sans-Serif" font-size="10.00">::size</text>
</a>
</g>
</g>
<!-- Node1&#45;&gt;Node2 -->
<g id="edge1" class="edge"><title>Node1&#45;&gt;Node2</title>
<path fill="none" stroke="midnightblue" d="M136.189,-16C144.727,-16 153.516,-16 162.191,-16"/>
<polygon fill="midnightblue" stroke="midnightblue" points="162.299,-19.5001 172.299,-16 162.299,-12.5001 162.299,-19.5001"/>
</g>
</g>
</svg>
