<?xml version="1.0" encoding="UTF-8" standalone="no"?>
<!DOCTYPE svg PUBLIC "-//W3C//DTD SVG 1.1//EN"
 "http://www.w3.org/Graphics/SVG/1.1/DTD/svg11.dtd">
<!-- Generated by graphviz version 2.32.0 (20130916.1925)
 -->
<!-- Title: rcVisualFunction::perimeter Pages: 1 -->
<svg width="456pt" height="106pt"
 viewBox="0.00 0.00 456.00 106.00" xmlns="http://www.w3.org/2000/svg" xmlns:xlink="http://www.w3.org/1999/xlink">
<g id="graph0" class="graph" transform="scale(1 1) rotate(0) translate(4 102)">
<title>rcVisualFunction::perimeter</title>
<polygon fill="white" stroke="white" points="-4,5 -4,-102 453,-102 453,5 -4,5"/>
<!-- Node1 -->
<g id="node1" class="node"><title>Node1</title>
<polygon fill="#bfbfbf" stroke="black" points="0.230957,-39 0.230957,-59 137.769,-59 137.769,-39 0.230957,-39"/>
<text text-anchor="middle" x="69" y="-45" font-family="Helvetica,sans-Serif" font-size="10.00">rcVisualFunction::perimeter</text>
</g>
<!-- Node2 -->
<g id="node2" class="node"><title>Node2</title>
<g id="a_node2"><a xlink:href="classrc2_xform.html#a07808604dd841770d2cf267abba4030f" target="_top" xlink:title="rc2Xform::scale">
<polygon fill="white" stroke="black" points="201.269,-78 201.269,-98 286.731,-98 286.731,-78 201.269,-78"/>
<text text-anchor="middle" x="244" y="-84" font-family="Helvetica,sans-Serif" font-size="10.00">rc2Xform::scale</text>
</a>
</g>
</g>
<!-- Node1&#45;&gt;Node2 -->
<g id="edge1" class="edge"><title>Node1&#45;&gt;Node2</title>
<path fill="none" stroke="midnightblue" d="M114.552,-59.0435C137.957,-64.3199 166.77,-70.8152 191.171,-76.316"/>
<polygon fill="midnightblue" stroke="midnightblue" points="190.455,-79.7424 200.98,-78.5273 191.995,-72.9138 190.455,-79.7424"/>
</g>
<!-- Node4 -->
<g id="node4" class="node"><title>Node4</title>
<g id="a_node4"><a xlink:href="classrc_visual_function.html#ad3f6f3313fd0dbfaa1d72ef7c08bb272" target="_top" xlink:title="rcVisualFunction::sharedKin">
<polygon fill="white" stroke="black" points="173.834,-39 173.834,-59 314.166,-59 314.166,-39 173.834,-39"/>
<text text-anchor="middle" x="244" y="-45" font-family="Helvetica,sans-Serif" font-size="10.00">rcVisualFunction::sharedKin</text>
</a>
</g>
</g>
<!-- Node1&#45;&gt;Node4 -->
<g id="edge3" class="edge"><title>Node1&#45;&gt;Node4</title>
<path fill="none" stroke="midnightblue" d="M137.878,-49C146.314,-49 154.999,-49 163.59,-49"/>
<polygon fill="midnightblue" stroke="midnightblue" points="163.612,-52.5001 173.612,-49 163.612,-45.5001 163.612,-52.5001"/>
</g>
<!-- Node5 -->
<g id="node5" class="node"><title>Node5</title>
<g id="a_node5"><a xlink:href="classrc_kinetoscope.html#ae4fedcb09519a8ef73b6c9c5752c8482" target="_top" xlink:title="rcKinetoscope::xform">
<polygon fill="white" stroke="black" points="189.037,-0 189.037,-20 298.963,-20 298.963,-0 189.037,-0"/>
<text text-anchor="middle" x="244" y="-6" font-family="Helvetica,sans-Serif" font-size="10.00">rcKinetoscope::xform</text>
</a>
</g>
</g>
<!-- Node1&#45;&gt;Node5 -->
<g id="edge4" class="edge"><title>Node1&#45;&gt;Node5</title>
<path fill="none" stroke="midnightblue" d="M114.552,-38.9565C137.153,-33.8615 164.795,-27.6301 188.639,-22.2549"/>
<polygon fill="midnightblue" stroke="midnightblue" points="189.614,-25.623 198.599,-20.0094 188.074,-18.7943 189.614,-25.623"/>
</g>
<!-- Node3 -->
<g id="node3" class="node"><title>Node3</title>
<g id="a_node3"><a xlink:href="classrc_matrix__2d.html#ad150aa461d45414b8365e4cd7103a12e" target="_top" xlink:title="rcMatrix_2d::scale">
<polygon fill="white" stroke="black" points="350.431,-78 350.431,-98 447.569,-98 447.569,-78 350.431,-78"/>
<text text-anchor="middle" x="399" y="-84" font-family="Helvetica,sans-Serif" font-size="10.00">rcMatrix_2d::scale</text>
</a>
</g>
</g>
<!-- Node2&#45;&gt;Node3 -->
<g id="edge2" class="edge"><title>Node2&#45;&gt;Node3</title>
<path fill="none" stroke="midnightblue" d="M286.808,-88C303.227,-88 322.352,-88 340.064,-88"/>
<polygon fill="midnightblue" stroke="midnightblue" points="340.298,-91.5001 350.298,-88 340.298,-84.5001 340.298,-91.5001"/>
</g>
</g>
</svg>
