<?xml version="1.0" encoding="UTF-8" standalone="no"?>
<!DOCTYPE svg PUBLIC "-//W3C//DTD SVG 1.1//EN"
 "http://www.w3.org/Graphics/SVG/1.1/DTD/svg11.dtd">
<!-- Generated by graphviz version 2.32.0 (20130916.1925)
 -->
<!-- Title: itext::error_string Pages: 1 -->
<svg width="408pt" height="67pt"
 viewBox="0.00 0.00 408.00 67.00" xmlns="http://www.w3.org/2000/svg" xmlns:xlink="http://www.w3.org/1999/xlink">
<g id="graph0" class="graph" transform="scale(1 1) rotate(0) translate(4 63)">
<title>itext::error_string</title>
<polygon fill="white" stroke="white" points="-4,5 -4,-63 405,-63 405,5 -4,5"/>
<!-- Node1 -->
<g id="node1" class="node"><title>Node1</title>
<polygon fill="#bfbfbf" stroke="black" points="0.487793,-19 0.487793,-39 91.5122,-39 91.5122,-19 0.487793,-19"/>
<text text-anchor="middle" x="46" y="-25" font-family="Helvetica,sans-Serif" font-size="10.00">itext::error_string</text>
</g>
<!-- Node2 -->
<g id="node2" class="node"><title>Node2</title>
<g id="a_node2"><a xlink:href="classrestore__context__body.html#acdcc751c5066513b19961cce1a02b3ca" target="_top" xlink:title="restore_context_body::get">
<polygon fill="white" stroke="black" points="128.185,-39 128.185,-59 259.815,-59 259.815,-39 128.185,-39"/>
<text text-anchor="middle" x="194" y="-45" font-family="Helvetica,sans-Serif" font-size="10.00">restore_context_body::get</text>
</a>
</g>
</g>
<!-- Node1&#45;&gt;Node2 -->
<g id="edge1" class="edge"><title>Node1&#45;&gt;Node2</title>
<path fill="none" stroke="midnightblue" d="M101.524,-36.469C110.151,-37.6508 119.145,-38.8829 127.982,-40.0935"/>
<polygon fill="midnightblue" stroke="midnightblue" points="101.981,-32.999 91.5981,-35.1093 101.031,-39.9342 101.981,-32.999"/>
</g>
<!-- Node4 -->
<g id="node4" class="node"><title>Node4</title>
<g id="a_node4"><a xlink:href="classlm__unit.html#af80fd74c3f44000e569536ab7ccf8e3d" target="_top" xlink:title="lm_unit::read">
<polygon fill="white" stroke="black" points="157.096,-0 157.096,-20 230.904,-20 230.904,-0 157.096,-0"/>
<text text-anchor="middle" x="194" y="-6" font-family="Helvetica,sans-Serif" font-size="10.00">lm_unit::read</text>
</a>
</g>
</g>
<!-- Node1&#45;&gt;Node4 -->
<g id="edge3" class="edge"><title>Node1&#45;&gt;Node4</title>
<path fill="none" stroke="midnightblue" d="M101.664,-21.8862C120.152,-19.4803 140.317,-16.856 156.986,-14.6867"/>
<polygon fill="midnightblue" stroke="midnightblue" points="101.063,-18.4348 91.5981,-23.1961 101.966,-25.3763 101.063,-18.4348"/>
</g>
<!-- Node3 -->
<g id="node3" class="node"><title>Node3</title>
<g id="a_node3"><a xlink:href="classrestore__context.html#a483b31369171dac9534d562ad22b4af3" target="_top" xlink:title="restore_context::get">
<polygon fill="white" stroke="black" points="295.808,-39 295.808,-59 400.192,-59 400.192,-39 295.808,-39"/>
<text text-anchor="middle" x="348" y="-45" font-family="Helvetica,sans-Serif" font-size="10.00">restore_context::get</text>
</a>
</g>
</g>
<!-- Node2&#45;&gt;Node3 -->
<g id="edge2" class="edge"><title>Node2&#45;&gt;Node3</title>
<path fill="none" stroke="midnightblue" d="M270.04,-49C278.706,-49 287.388,-49 295.636,-49"/>
<polygon fill="midnightblue" stroke="midnightblue" points="269.903,-45.5001 259.903,-49 269.903,-52.5001 269.903,-45.5001"/>
</g>
<!-- Node5 -->
<g id="node5" class="node"><title>Node5</title>
<g id="a_node5"><a xlink:href="classlm__unit.html#aaf906aef678a910a3d4aef087efb6d7b" target="_top" xlink:title="lm_unit::load">
<polygon fill="white" stroke="black" points="311.65,-0 311.65,-20 384.35,-20 384.35,-0 311.65,-0"/>
<text text-anchor="middle" x="348" y="-6" font-family="Helvetica,sans-Serif" font-size="10.00">lm_unit::load</text>
</a>
</g>
</g>
<!-- Node4&#45;&gt;Node5 -->
<g id="edge4" class="edge"><title>Node4&#45;&gt;Node5</title>
<path fill="none" stroke="midnightblue" d="M241.079,-10C263.69,-10 290.507,-10 311.499,-10"/>
<polygon fill="midnightblue" stroke="midnightblue" points="241.022,-6.5001 231.022,-10 241.022,-13.5001 241.022,-6.5001"/>
</g>
</g>
</svg>
