<?xml version="1.0" encoding="UTF-8" standalone="no"?>
<!DOCTYPE svg PUBLIC "-//W3C//DTD SVG 1.1//EN"
 "http://www.w3.org/Graphics/SVG/1.1/DTD/svg11.dtd">
<!-- Generated by graphviz version 2.32.0 (20130916.1925)
 -->
<!-- Title: rcFrameGrabber::isValid Pages: 1 -->
<svg width="626pt" height="169pt"
 viewBox="0.00 0.00 626.00 169.00" xmlns="http://www.w3.org/2000/svg" xmlns:xlink="http://www.w3.org/1999/xlink">
<g id="graph0" class="graph" transform="scale(1 1) rotate(0) translate(4 165)">
<title>rcFrameGrabber::isValid</title>
<polygon fill="white" stroke="white" points="-4,5 -4,-165 623,-165 623,5 -4,5"/>
<!-- Node1 -->
<g id="node1" class="node"><title>Node1</title>
<polygon fill="#bfbfbf" stroke="black" points="-0.0917969,-61 -0.0917969,-81 124.092,-81 124.092,-61 -0.0917969,-61"/>
<text text-anchor="middle" x="62" y="-67" font-family="Helvetica,sans-Serif" font-size="10.00">rcFrameGrabber::isValid</text>
</g>
<!-- Node2 -->
<g id="node2" class="node"><title>Node2</title>
<g id="a_node2"><a xlink:href="classrc_engine_movie_capture.html#aec401468bcc6ad756986a6c2c4c7dd14" target="_top" xlink:title="rcEngineMovieCapture\l::createGrabber">
<polygon fill="white" stroke="black" points="168.141,-129 168.141,-161 285.859,-161 285.859,-129 168.141,-129"/>
<text text-anchor="start" x="176.141" y="-147" font-family="Helvetica,sans-Serif" font-size="10.00">rcEngineMovieCapture</text>
<text text-anchor="middle" x="227" y="-135" font-family="Helvetica,sans-Serif" font-size="10.00">::createGrabber</text>
</a>
</g>
</g>
<!-- Node1&#45;&gt;Node2 -->
<g id="edge1" class="edge"><title>Node1&#45;&gt;Node2</title>
<path fill="none" stroke="midnightblue" d="M91.1918,-85.7355C110.391,-95.5756 136.49,-108.575 160,-119 167.543,-122.345 175.658,-125.72 183.53,-128.88"/>
<polygon fill="midnightblue" stroke="midnightblue" points="92.5895,-82.5183 82.0974,-81.0462 89.3814,-88.74 92.5895,-82.5183"/>
</g>
<!-- Node4 -->
<g id="node4" class="node"><title>Node4</title>
<g id="a_node4"><a xlink:href="classrc_movie_converter_to_rfy.html#a1f6585e73ba83d9905188dc3d8e2b69e" target="_top" xlink:title="rcMovieConverterToRfy\l::createRfyMovie">
<polygon fill="white" stroke="black" points="166.764,-78 166.764,-110 287.236,-110 287.236,-78 166.764,-78"/>
<text text-anchor="start" x="174.764" y="-96" font-family="Helvetica,sans-Serif" font-size="10.00">rcMovieConverterToRfy</text>
<text text-anchor="middle" x="227" y="-84" font-family="Helvetica,sans-Serif" font-size="10.00">::createRfyMovie</text>
</a>
</g>
</g>
<!-- Node1&#45;&gt;Node4 -->
<g id="edge3" class="edge"><title>Node1&#45;&gt;Node4</title>
<path fill="none" stroke="midnightblue" d="M134.39,-81.0735C145.164,-82.5937 156.178,-84.1478 166.662,-85.6271"/>
<polygon fill="midnightblue" stroke="midnightblue" points="134.55,-77.5614 124.159,-79.6298 133.572,-84.4927 134.55,-77.5614"/>
</g>
<!-- Node5 -->
<g id="node5" class="node"><title>Node5</title>
<g id="a_node5"><a xlink:href="classrc_engine_impl.html#a3f1d54d99e195efe0eec45f9263e6342" target="_top" xlink:title="rcEngineImpl::loadFrames">
<polygon fill="white" stroke="black" points="160.643,-39 160.643,-59 293.357,-59 293.357,-39 160.643,-39"/>
<text text-anchor="middle" x="227" y="-45" font-family="Helvetica,sans-Serif" font-size="10.00">rcEngineImpl::loadFrames</text>
</a>
</g>
</g>
<!-- Node1&#45;&gt;Node5 -->
<g id="edge4" class="edge"><title>Node1&#45;&gt;Node5</title>
<path fill="none" stroke="midnightblue" d="M134.265,-61.3814C142.956,-60.2084 151.804,-59.0141 160.407,-57.853"/>
<polygon fill="midnightblue" stroke="midnightblue" points="133.601,-57.9392 124.159,-62.7454 134.537,-64.8763 133.601,-57.9392"/>
</g>
<!-- Node9 -->
<g id="node9" class="node"><title>Node9</title>
<g id="a_node9"><a xlink:href="classrc_analyzer.html#a5287580f64226d54d57ce78faf91d96c" target="_top" xlink:title="rcAnalyzer::rcAnalyzer">
<polygon fill="white" stroke="black" points="168.985,-0 168.985,-20 285.015,-20 285.015,-0 168.985,-0"/>
<text text-anchor="middle" x="227" y="-6" font-family="Helvetica,sans-Serif" font-size="10.00">rcAnalyzer::rcAnalyzer</text>
</a>
</g>
</g>
<!-- Node1&#45;&gt;Node9 -->
<g id="edge8" class="edge"><title>Node1&#45;&gt;Node9</title>
<path fill="none" stroke="midnightblue" d="M94.3655,-56.7476C113.198,-48.4406 137.746,-38.0494 160,-30 169.795,-26.4569 180.555,-23.0122 190.493,-20.0081"/>
<polygon fill="midnightblue" stroke="midnightblue" points="92.7944,-53.6157 85.0804,-60.8782 95.6397,-60.0114 92.7944,-53.6157"/>
</g>
<!-- Node3 -->
<g id="node3" class="node"><title>Node3</title>
<g id="a_node3"><a xlink:href="classrc_engine_movie_capture.html#a0d8bfe4fd32e11bdbdb2c0ad113425ff" target="_top" xlink:title="rcEngineMovieCapture::run">
<polygon fill="white" stroke="black" points="330.136,-135 330.136,-155 467.864,-155 467.864,-135 330.136,-135"/>
<text text-anchor="middle" x="399" y="-141" font-family="Helvetica,sans-Serif" font-size="10.00">rcEngineMovieCapture::run</text>
</a>
</g>
</g>
<!-- Node2&#45;&gt;Node3 -->
<g id="edge2" class="edge"><title>Node2&#45;&gt;Node3</title>
<path fill="none" stroke="midnightblue" d="M296.131,-145C307.279,-145 318.831,-145 329.976,-145"/>
<polygon fill="midnightblue" stroke="midnightblue" points="296.029,-141.5 286.029,-145 296.029,-148.5 296.029,-141.5"/>
</g>
<!-- Node6 -->
<g id="node6" class="node"><title>Node6</title>
<g id="a_node6"><a xlink:href="classrc_engine_impl.html#ac6c444948228b9a6c9c013efefd7452c" target="_top" xlink:title="rcEngineImpl::loadImages">
<polygon fill="white" stroke="black" points="333.192,-58 333.192,-78 464.808,-78 464.808,-58 333.192,-58"/>
<text text-anchor="middle" x="399" y="-64" font-family="Helvetica,sans-Serif" font-size="10.00">rcEngineImpl::loadImages</text>
</a>
</g>
</g>
<!-- Node5&#45;&gt;Node6 -->
<g id="edge5" class="edge"><title>Node5&#45;&gt;Node6</title>
<path fill="none" stroke="midnightblue" d="M303.802,-57.472C313.548,-58.5612 323.457,-59.6687 333.008,-60.7362"/>
<polygon fill="midnightblue" stroke="midnightblue" points="304.053,-53.9784 293.726,-56.3459 303.276,-60.9351 304.053,-53.9784"/>
</g>
<!-- Node8 -->
<g id="node8" class="node"><title>Node8</title>
<g id="a_node8"><a xlink:href="classrc_engine_impl.html#ac0162da8fe4f677ad6f3d04a465d50f0" target="_top" xlink:title="rcEngineImpl::loadMovie">
<polygon fill="white" stroke="black" points="336.251,-19 336.251,-39 461.749,-39 461.749,-19 336.251,-19"/>
<text text-anchor="middle" x="399" y="-25" font-family="Helvetica,sans-Serif" font-size="10.00">rcEngineImpl::loadMovie</text>
</a>
</g>
</g>
<!-- Node5&#45;&gt;Node8 -->
<g id="edge7" class="edge"><title>Node5&#45;&gt;Node8</title>
<path fill="none" stroke="midnightblue" d="M303.947,-40.0651C314.693,-38.8009 325.634,-37.5137 336.073,-36.2856"/>
<polygon fill="midnightblue" stroke="midnightblue" points="303.249,-36.623 293.726,-41.2675 304.067,-43.575 303.249,-36.623"/>
</g>
<!-- Node7 -->
<g id="node7" class="node"><title>Node7</title>
<g id="a_node7"><a xlink:href="classrc_engine_importer.html#a2e45417f1c29adf01483b2b8fca6b27b" target="_top" xlink:title="rcEngineImporter::run">
<polygon fill="white" stroke="black" points="504.646,-58 504.646,-78 617.354,-78 617.354,-58 504.646,-58"/>
<text text-anchor="middle" x="561" y="-64" font-family="Helvetica,sans-Serif" font-size="10.00">rcEngineImporter::run</text>
</a>
</g>
</g>
<!-- Node6&#45;&gt;Node7 -->
<g id="edge6" class="edge"><title>Node6&#45;&gt;Node7</title>
<path fill="none" stroke="midnightblue" d="M475.267,-68C485.102,-68 495.032,-68 504.461,-68"/>
<polygon fill="midnightblue" stroke="midnightblue" points="475.078,-64.5001 465.078,-68 475.078,-71.5001 475.078,-64.5001"/>
</g>
</g>
</svg>
