<?xml version="1.0" encoding="UTF-8" standalone="no"?>
<!DOCTYPE svg PUBLIC "-//W3C//DTD SVG 1.1//EN"
 "http://www.w3.org/Graphics/SVG/1.1/DTD/svg11.dtd">
<!-- Generated by graphviz version 2.32.0 (20130916.1925)
 -->
<!-- Title: rcShape::needAffineRect Pages: 1 -->
<!--zoomable 593 -->
<svg id="main" version="1.1" xmlns="http://www.w3.org/2000/svg" xmlns:xlink="http://www.w3.org/1999/xlink" xml:space="preserve" onload="init(evt)">
        <defs>
                <circle id="rim" cx="0" cy="0" r="7"/>
                <circle id="rim2" cx="0" cy="0" r="3.5"/>
                <g id="zoomPlus">
                        <use xlink:href="#rim" fill="#404040">
                                <set attributeName="fill" to="#808080" begin="zoomplus.mouseover" end="zoomplus.mouseout"/>
                        </use>
                        <path d="M-4,0h8M0,-4v8" fill="none" stroke="white" stroke-width="1.5" pointer-events="none"/>
                </g>
                <g id="zoomMin">
                        <use xlink:href="#rim" fill="#404040">
                                <set attributeName="fill" to="#808080" begin="zoomminus.mouseover" end="zoomminus.mouseout"/>
                        </use>
                        <path d="M-4,0h8" fill="none" stroke="white" stroke-width="1.5" pointer-events="none"/>
                </g>
                <g id="dirArrow">
                        <path fill="none" stroke="white" stroke-width="1.5" d="M0,-3.0v7 M-2.5,-0.5L0,-3.0L2.5,-0.5"/>
                </g>
               <g id="resetDef">
                       <use xlink:href="#rim2" fill="#404040">
                               <set attributeName="fill" to="#808080" begin="reset.mouseover" end="reset.mouseout"/>
                       </use>
               </g>
        </defs>

<script type="text/javascript">
var viewWidth = 862;
var viewHeight = 593;
var sectionId = 'dynsection-26';
</script>
<script xlink:href="svgpan.js"/>
<svg id="graph" class="graph">
<g id="viewport">
<title>rcShape::needAffineRect</title>
<polygon fill="white" stroke="white" points="-4,5 -4,-588.959 859,-588.959 859,5 -4,5"/>
<!-- Node1 -->
<g id="node1" class="node"><title>Node1</title>
<polygon fill="#bfbfbf" stroke="black" points="0.40918,-174 0.40918,-194 127.591,-194 127.591,-174 0.40918,-174"/>
<text text-anchor="middle" x="64" y="-180" font-family="Helvetica,sans-Serif" font-size="10.00">rcShape::needAffineRect</text>
</g>
<!-- Node2 -->
<g id="node2" class="node"><title>Node2</title>
<g id="a_node2"><a xlink:href="classrc_affine_rectangle.html#af422709ef0e54ca1c30b6ddf0f7bfeaf" target="_top" xlink:title="rcAffineRectangle::\lcannonicalSize">
<polygon fill="white" stroke="black" points="393.756,-529 393.756,-561 494.244,-561 494.244,-529 393.756,-529"/>
<text text-anchor="start" x="401.756" y="-547" font-family="Helvetica,sans-Serif" font-size="10.00">rcAffineRectangle::</text>
<text text-anchor="middle" x="444" y="-535" font-family="Helvetica,sans-Serif" font-size="10.00">cannonicalSize</text>
</a>
</g>
</g>
<!-- Node1&#45;&gt;Node2 -->
<g id="edge1" class="edge"><title>Node1&#45;&gt;Node2</title>
<path fill="none" stroke="midnightblue" d="M69.0376,-194.341C80.5161,-222.795 115.657,-303.672 164,-357 233.446,-433.607 340.263,-494.165 399.557,-524.237"/>
<polygon fill="midnightblue" stroke="midnightblue" points="398.144,-527.444 408.652,-528.8 401.283,-521.187 398.144,-527.444"/>
</g>
<!-- Node3 -->
<g id="node3" class="node"><title>Node3</title>
<g id="a_node3"><a xlink:href="classrc_affine_rectangle.html#adb7ab0d66c9bb5f8041c9109350d13ce" target="_top" xlink:title="rcAffineRectangle::\lexpand">
<polygon fill="white" stroke="black" points="209.756,-316 209.756,-348 310.244,-348 310.244,-316 209.756,-316"/>
<text text-anchor="start" x="217.756" y="-334" font-family="Helvetica,sans-Serif" font-size="10.00">rcAffineRectangle::</text>
<text text-anchor="middle" x="260" y="-322" font-family="Helvetica,sans-Serif" font-size="10.00">expand</text>
</a>
</g>
</g>
<!-- Node1&#45;&gt;Node3 -->
<g id="edge2" class="edge"><title>Node1&#45;&gt;Node3</title>
<path fill="none" stroke="midnightblue" d="M78.3344,-194.173C109.393,-217.867 187.154,-277.189 229.833,-309.749"/>
<polygon fill="midnightblue" stroke="midnightblue" points="227.803,-312.602 237.877,-315.885 232.049,-307.037 227.803,-312.602"/>
</g>
<!-- Node10 -->
<g id="node10" class="node"><title>Node10</title>
<g id="a_node10"><a xlink:href="classrc_pair.html#ad1a3cb1e7fdbe119ce1295514b1bb49d" target="_top" xlink:title="rcPair::x">
<polygon fill="white" stroke="black" points="554.665,-451 554.665,-471 607.335,-471 607.335,-451 554.665,-451"/>
<text text-anchor="middle" x="581" y="-457" font-family="Helvetica,sans-Serif" font-size="10.00">rcPair::x</text>
</a>
</g>
</g>
<!-- Node1&#45;&gt;Node10 -->
<g id="edge26" class="edge"><title>Node1&#45;&gt;Node10</title>
<path fill="none" stroke="midnightblue" d="M66.3753,-194.136C71.9039,-231.419 95.6029,-362.877 164,-442 239.998,-529.916 279.571,-540.599 392,-570 436.718,-581.694 457.675,-595.839 496,-570 531.379,-546.147 501.986,-511.328 532,-481 535.715,-477.246 540.239,-474.164 545.007,-471.641"/>
<polygon fill="midnightblue" stroke="midnightblue" points="546.644,-474.743 554.332,-467.453 543.775,-468.358 546.644,-474.743"/>
</g>
<!-- Node11 -->
<g id="node11" class="node"><title>Node11</title>
<g id="a_node11"><a xlink:href="classrc_pair.html#a87400f83938e920c405c40aa449d3607" target="_top" xlink:title="rcPair::y">
<polygon fill="white" stroke="black" points="554.665,-322 554.665,-342 607.335,-342 607.335,-322 554.665,-322"/>
<text text-anchor="middle" x="581" y="-328" font-family="Helvetica,sans-Serif" font-size="10.00">rcPair::y</text>
</a>
</g>
</g>
<!-- Node1&#45;&gt;Node11 -->
<g id="edge29" class="edge"><title>Node1&#45;&gt;Node11</title>
<path fill="none" stroke="midnightblue" d="M127.739,-174.953C233.107,-161.188 439.636,-140.768 496,-183 541.584,-217.155 496.204,-261.693 532,-306 535.739,-310.628 540.531,-314.55 545.635,-317.834"/>
<polygon fill="midnightblue" stroke="midnightblue" points="543.957,-320.906 554.387,-322.769 547.396,-314.809 543.957,-320.906"/>
</g>
<!-- Node14 -->
<g id="node14" class="node"><title>Node14</title>
<g id="a_node14"><a xlink:href="classrc2d_vector.html#a510fd549126da1dfe80d60ee866ff628" target="_top" xlink:title="rc2dVector::x">
<polygon fill="white" stroke="black" points="406.818,-232 406.818,-252 481.182,-252 481.182,-232 406.818,-232"/>
<text text-anchor="middle" x="444" y="-238" font-family="Helvetica,sans-Serif" font-size="10.00">rc2dVector::x</text>
</a>
</g>
</g>
<!-- Node1&#45;&gt;Node14 -->
<g id="edge27" class="edge"><title>Node1&#45;&gt;Node14</title>
<path fill="none" stroke="midnightblue" d="M101.921,-194.034C120.445,-198.791 143.293,-204.242 164,-208 245.188,-222.736 340.854,-232.839 396.447,-238.001"/>
<polygon fill="midnightblue" stroke="midnightblue" points="396.404,-241.511 406.681,-238.937 397.042,-234.54 396.404,-241.511"/>
</g>
<!-- Node15 -->
<g id="node15" class="node"><title>Node15</title>
<g id="a_node15"><a xlink:href="classrc_affine_rectangle.html#a669ac385bee96382251a349f599e7b13" target="_top" xlink:title="rcAffineRectangle::\lxyScale">
<polygon fill="white" stroke="black" points="393.756,-103 393.756,-135 494.244,-135 494.244,-103 393.756,-103"/>
<text text-anchor="start" x="401.756" y="-121" font-family="Helvetica,sans-Serif" font-size="10.00">rcAffineRectangle::</text>
<text text-anchor="middle" x="444" y="-109" font-family="Helvetica,sans-Serif" font-size="10.00">xyScale</text>
</a>
</g>
</g>
<!-- Node1&#45;&gt;Node15 -->
<g id="edge28" class="edge"><title>Node1&#45;&gt;Node15</title>
<path fill="none" stroke="midnightblue" d="M90.2307,-173.972C109.997,-166.513 138.352,-156.681 164,-151 238.612,-134.474 326.451,-126.189 383.348,-122.248"/>
<polygon fill="midnightblue" stroke="midnightblue" points="383.858,-125.722 393.602,-121.562 383.391,-118.738 383.858,-125.722"/>
</g>
<!-- Node20 -->
<g id="node20" class="node"><title>Node20</title>
<g id="a_node20"><a xlink:href="classrc2d_vector.html#a07f5517208bbd1d2a3ef6fb8eb3fddf8" target="_top" xlink:title="rc2dVector::y">
<polygon fill="white" stroke="black" points="406.818,-193 406.818,-213 481.182,-213 481.182,-193 406.818,-193"/>
<text text-anchor="middle" x="444" y="-199" font-family="Helvetica,sans-Serif" font-size="10.00">rc2dVector::y</text>
</a>
</g>
</g>
<!-- Node1&#45;&gt;Node20 -->
<g id="edge30" class="edge"><title>Node1&#45;&gt;Node20</title>
<path fill="none" stroke="midnightblue" d="M127.843,-187.159C203.467,-190.96 328.684,-197.254 396.275,-200.651"/>
<polygon fill="midnightblue" stroke="midnightblue" points="396.448,-204.164 406.611,-201.171 396.8,-197.173 396.448,-204.164"/>
</g>
<!-- Node21 -->
<g id="node21" class="node"><title>Node21</title>
<g id="a_node21"><a xlink:href="classrc_shape.html#acc0e95b282384746658f087098f02e3d" target="_top" xlink:title="rcShape::isValid">
<polygon fill="white" stroke="black" points="216.238,-78 216.238,-98 303.762,-98 303.762,-78 216.238,-78"/>
<text text-anchor="middle" x="260" y="-84" font-family="Helvetica,sans-Serif" font-size="10.00">rcShape::isValid</text>
</a>
</g>
</g>
<!-- Node1&#45;&gt;Node21 -->
<g id="edge23" class="edge"><title>Node1&#45;&gt;Node21</title>
<path fill="none" stroke="midnightblue" d="M76.0155,-173.992C93.4366,-158.678 128.977,-129.477 164,-113 177.163,-106.807 192.101,-101.966 206.17,-98.2627"/>
<polygon fill="midnightblue" stroke="midnightblue" points="207.362,-101.573 216.223,-95.7645 205.674,-94.7796 207.362,-101.573"/>
</g>
<!-- Node22 -->
<g id="node22" class="node"><title>Node22</title>
<g id="a_node22"><a xlink:href="classrc_polygon.html#a9c0fbc52bbb31b4092e5da3b64cdae19" target="_top" xlink:title="rcPolygon::minimumAreaEnclosingRect">
<polygon fill="white" stroke="black" points="164.188,-39 164.188,-59 355.812,-59 355.812,-39 164.188,-39"/>
<text text-anchor="middle" x="260" y="-45" font-family="Helvetica,sans-Serif" font-size="10.00">rcPolygon::minimumAreaEnclosingRect</text>
</a>
</g>
</g>
<!-- Node1&#45;&gt;Node22 -->
<g id="edge24" class="edge"><title>Node1&#45;&gt;Node22</title>
<path fill="none" stroke="midnightblue" d="M70.3904,-173.969C83.2497,-151.087 118.107,-94.942 164,-68 167.236,-66.1 170.63,-64.3869 174.13,-62.8426"/>
<polygon fill="midnightblue" stroke="midnightblue" points="175.566,-66.039 183.603,-59.1361 173.016,-59.5202 175.566,-66.039"/>
</g>
<!-- Node23 -->
<g id="node23" class="node"><title>Node23</title>
<g id="a_node23"><a xlink:href="classrc_shape.html#a4e81fb442d9c9d695e84257fe361f6e8" target="_top" xlink:title="rcShape::validate">
<polygon fill="white" stroke="black" points="213.365,-0 213.365,-20 306.635,-20 306.635,-0 213.365,-0"/>
<text text-anchor="middle" x="260" y="-6" font-family="Helvetica,sans-Serif" font-size="10.00">rcShape::validate</text>
</a>
</g>
</g>
<!-- Node1&#45;&gt;Node23 -->
<g id="edge25" class="edge"><title>Node1&#45;&gt;Node23</title>
<path fill="none" stroke="midnightblue" d="M68.3546,-173.65C78.0876,-145.385 109.181,-66.4951 164,-29 175.507,-21.1297 189.52,-16.364 203.212,-13.5176"/>
<polygon fill="midnightblue" stroke="midnightblue" points="203.848,-16.9594 213.084,-11.7672 202.626,-10.0669 203.848,-16.9594"/>
</g>
<!-- Node3&#45;&gt;Node2 -->
<g id="edge7" class="edge"><title>Node3&#45;&gt;Node2</title>
<path fill="none" stroke="midnightblue" d="M276.43,-348.215C296.364,-369.68 331.417,-409.236 356,-447 375.518,-476.984 366.801,-493.603 392,-519 393.391,-520.402 394.874,-521.743 396.425,-523.024"/>
<polygon fill="midnightblue" stroke="midnightblue" points="394.488,-525.942 404.651,-528.935 398.573,-520.258 394.488,-525.942"/>
</g>
<!-- Node4 -->
<g id="node4" class="node"><title>Node4</title>
<g id="a_node4"><a xlink:href="classrc_affine_rectangle.html#a5861891b41e1d0f4f9bf936d0c044a04" target="_top" xlink:title="rcAffineRectangle::\langle">
<polygon fill="white" stroke="black" points="393.756,-271 393.756,-303 494.244,-303 494.244,-271 393.756,-271"/>
<text text-anchor="start" x="401.756" y="-289" font-family="Helvetica,sans-Serif" font-size="10.00">rcAffineRectangle::</text>
<text text-anchor="middle" x="444" y="-277" font-family="Helvetica,sans-Serif" font-size="10.00">angle</text>
</a>
</g>
</g>
<!-- Node3&#45;&gt;Node4 -->
<g id="edge3" class="edge"><title>Node3&#45;&gt;Node4</title>
<path fill="none" stroke="midnightblue" d="M310.252,-319.822C332.912,-314.22 359.982,-307.527 383.748,-301.65"/>
<polygon fill="midnightblue" stroke="midnightblue" points="384.841,-304.985 393.709,-299.187 383.161,-298.19 384.841,-304.985"/>
</g>
<!-- Node8 -->
<g id="node8" class="node"><title>Node8</title>
<g id="a_node8"><a xlink:href="classrc2_xform.html#a44d8bfc2fca67ec4126f15be742281fd" target="_top" xlink:title="rc2Xform::mapPoint">
<polygon fill="white" stroke="black" points="391.818,-412 391.818,-432 496.182,-432 496.182,-412 391.818,-412"/>
<text text-anchor="middle" x="444" y="-418" font-family="Helvetica,sans-Serif" font-size="10.00">rc2Xform::mapPoint</text>
</a>
</g>
</g>
<!-- Node3&#45;&gt;Node8 -->
<g id="edge8" class="edge"><title>Node3&#45;&gt;Node8</title>
<path fill="none" stroke="midnightblue" d="M288.882,-348.128C315.079,-362.984 355.59,-385.203 392,-402 396.631,-404.136 401.56,-406.255 406.458,-408.27"/>
<polygon fill="midnightblue" stroke="midnightblue" points="405.17,-411.525 415.755,-411.995 407.773,-405.027 405.17,-411.525"/>
</g>
<!-- Node9 -->
<g id="node9" class="node"><title>Node9</title>
<g id="a_node9"><a xlink:href="classrc_affine_rectangle.html#a5337edf2a9b2c9a32b73d5aaeffcfe89" target="_top" xlink:title="default constructor takes no arguments">
<polygon fill="white" stroke="black" points="393.756,-361 393.756,-393 494.244,-393 494.244,-361 393.756,-361"/>
<text text-anchor="start" x="401.756" y="-379" font-family="Helvetica,sans-Serif" font-size="10.00">rcAffineRectangle::</text>
<text text-anchor="middle" x="444" y="-367" font-family="Helvetica,sans-Serif" font-size="10.00">rcAffineRectangle</text>
</a>
</g>
</g>
<!-- Node3&#45;&gt;Node9 -->
<g id="edge9" class="edge"><title>Node3&#45;&gt;Node9</title>
<path fill="none" stroke="midnightblue" d="M310.252,-344.178C332.912,-349.78 359.982,-356.473 383.748,-362.35"/>
<polygon fill="midnightblue" stroke="midnightblue" points="383.161,-365.81 393.709,-364.813 384.841,-359.015 383.161,-365.81"/>
</g>
<!-- Node3&#45;&gt;Node10 -->
<g id="edge14" class="edge"><title>Node3&#45;&gt;Node10</title>
<path fill="none" stroke="midnightblue" d="M274.716,-348.392C296.618,-373.277 342.131,-419.916 392,-441 441.741,-462.03 505.201,-464.289 544.199,-463.219"/>
<polygon fill="midnightblue" stroke="midnightblue" points="544.653,-466.705 554.518,-462.842 544.397,-459.709 544.653,-466.705"/>
</g>
<!-- Node3&#45;&gt;Node11 -->
<g id="edge21" class="edge"><title>Node3&#45;&gt;Node11</title>
<path fill="none" stroke="midnightblue" d="M310.494,-332C375.27,-332 487.242,-332 544.317,-332"/>
<polygon fill="midnightblue" stroke="midnightblue" points="544.64,-335.5 554.64,-332 544.64,-328.5 544.64,-335.5"/>
</g>
<!-- Node12 -->
<g id="node12" class="node"><title>Node12</title>
<g id="a_node12"><a xlink:href="classrc2_xform.html#a07808604dd841770d2cf267abba4030f" target="_top" xlink:title="rc2Xform::scale">
<polygon fill="white" stroke="black" points="401.269,-490 401.269,-510 486.731,-510 486.731,-490 401.269,-490"/>
<text text-anchor="middle" x="444" y="-496" font-family="Helvetica,sans-Serif" font-size="10.00">rc2Xform::scale</text>
</a>
</g>
</g>
<!-- Node3&#45;&gt;Node12 -->
<g id="edge12" class="edge"><title>Node3&#45;&gt;Node12</title>
<path fill="none" stroke="midnightblue" d="M272.753,-348.423C293.93,-377.099 341.053,-436.872 392,-475 397.129,-478.839 402.94,-482.339 408.755,-485.426"/>
<polygon fill="midnightblue" stroke="midnightblue" points="407.289,-488.605 417.801,-489.925 410.406,-482.338 407.289,-488.605"/>
</g>
<!-- Node3&#45;&gt;Node14 -->
<g id="edge15" class="edge"><title>Node3&#45;&gt;Node14</title>
<path fill="none" stroke="midnightblue" d="M288.033,-315.898C314.133,-300.703 355.027,-277.807 392,-261 395.919,-259.218 400.059,-257.469 404.216,-255.797"/>
<polygon fill="midnightblue" stroke="midnightblue" points="405.797,-258.938 413.854,-252.057 403.265,-252.412 405.797,-258.938"/>
</g>
<!-- Node3&#45;&gt;Node15 -->
<g id="edge16" class="edge"><title>Node3&#45;&gt;Node15</title>
<path fill="none" stroke="midnightblue" d="M274.68,-315.99C306.366,-278.907 384.944,-186.945 422.446,-143.055"/>
<polygon fill="midnightblue" stroke="midnightblue" points="425.326,-145.072 429.162,-135.195 420.005,-140.524 425.326,-145.072"/>
</g>
<!-- Node3&#45;&gt;Node20 -->
<g id="edge22" class="edge"><title>Node3&#45;&gt;Node20</title>
<path fill="none" stroke="midnightblue" d="M276.569,-315.787C299.811,-292.361 345.812,-248.911 392,-222 395.031,-220.234 398.255,-218.581 401.553,-217.045"/>
<polygon fill="midnightblue" stroke="midnightblue" points="403.125,-220.179 410.943,-213.029 400.372,-213.743 403.125,-220.179"/>
</g>
<!-- Node5 -->
<g id="node5" class="node"><title>Node5</title>
<g id="a_node5"><a xlink:href="classrc2_xform.html#ab6ce57e99e7d44cc9d66d4dd6e459b79" target="_top" xlink:title="rc2Xform::rotation">
<polygon fill="white" stroke="black" points="533.264,-277 533.264,-297 628.736,-297 628.736,-277 533.264,-277"/>
<text text-anchor="middle" x="581" y="-283" font-family="Helvetica,sans-Serif" font-size="10.00">rc2Xform::rotation</text>
</a>
</g>
</g>
<!-- Node4&#45;&gt;Node5 -->
<g id="edge4" class="edge"><title>Node4&#45;&gt;Node5</title>
<path fill="none" stroke="midnightblue" d="M494.502,-287C503.787,-287 513.561,-287 523.05,-287"/>
<polygon fill="midnightblue" stroke="midnightblue" points="523.198,-290.5 533.198,-287 523.198,-283.5 523.198,-290.5"/>
</g>
<!-- Node6 -->
<g id="node6" class="node"><title>Node6</title>
<g id="a_node6"><a xlink:href="classrc_matrix__2d.html#a69832383948cf959222f9cab77ea8e3a" target="_top" xlink:title="rcMatrix_2d::rotation">
<polygon fill="white" stroke="black" points="666.426,-277 666.426,-297 773.574,-297 773.574,-277 666.426,-277"/>
<text text-anchor="middle" x="720" y="-283" font-family="Helvetica,sans-Serif" font-size="10.00">rcMatrix_2d::rotation</text>
</a>
</g>
</g>
<!-- Node5&#45;&gt;Node6 -->
<g id="edge5" class="edge"><title>Node5&#45;&gt;Node6</title>
<path fill="none" stroke="midnightblue" d="M628.764,-287C637.55,-287 646.868,-287 656.053,-287"/>
<polygon fill="midnightblue" stroke="midnightblue" points="656.329,-290.5 666.329,-287 656.329,-283.5 656.329,-290.5"/>
</g>
<!-- Node7 -->
<g id="node7" class="node"><title>Node7</title>
<g id="a_node7"><a xlink:href="rc__math_8h.html#a7e5004e092115336302e39a1774060ca" target="_top" xlink:title="arctan">
<polygon fill="white" stroke="black" points="810.104,-277 810.104,-297 853.896,-297 853.896,-277 810.104,-277"/>
<text text-anchor="middle" x="832" y="-283" font-family="Helvetica,sans-Serif" font-size="10.00">arctan</text>
</a>
</g>
</g>
<!-- Node6&#45;&gt;Node7 -->
<g id="edge6" class="edge"><title>Node6&#45;&gt;Node7</title>
<path fill="none" stroke="midnightblue" d="M773.745,-287C782.716,-287 791.767,-287 799.942,-287"/>
<polygon fill="midnightblue" stroke="midnightblue" points="800.103,-290.5 810.103,-287 800.103,-283.5 800.103,-290.5"/>
</g>
<!-- Node9&#45;&gt;Node10 -->
<g id="edge10" class="edge"><title>Node9&#45;&gt;Node10</title>
<path fill="none" stroke="midnightblue" d="M477.998,-393.011C484.063,-396.182 490.282,-399.589 496,-403 517.831,-416.023 541.569,-432.661 558.223,-444.774"/>
<polygon fill="midnightblue" stroke="midnightblue" points="556.557,-447.893 566.69,-450.987 560.698,-442.249 556.557,-447.893"/>
</g>
<!-- Node9&#45;&gt;Node11 -->
<g id="edge11" class="edge"><title>Node9&#45;&gt;Node11</title>
<path fill="none" stroke="midnightblue" d="M493.357,-360.881C510.238,-355.254 528.861,-349.046 544.501,-343.833"/>
<polygon fill="midnightblue" stroke="midnightblue" points="545.92,-347.049 554.3,-340.567 543.706,-340.409 545.92,-347.049"/>
</g>
<!-- Node13 -->
<g id="node13" class="node"><title>Node13</title>
<g id="a_node13"><a xlink:href="classrc_matrix__2d.html#ad150aa461d45414b8365e4cd7103a12e" target="_top" xlink:title="rcMatrix_2d::scale">
<polygon fill="white" stroke="black" points="532.431,-490 532.431,-510 629.569,-510 629.569,-490 532.431,-490"/>
<text text-anchor="middle" x="581" y="-496" font-family="Helvetica,sans-Serif" font-size="10.00">rcMatrix_2d::scale</text>
</a>
</g>
</g>
<!-- Node12&#45;&gt;Node13 -->
<g id="edge13" class="edge"><title>Node12&#45;&gt;Node13</title>
<path fill="none" stroke="midnightblue" d="M486.975,-500C498.11,-500 510.331,-500 522.15,-500"/>
<polygon fill="midnightblue" stroke="midnightblue" points="522.395,-503.5 532.395,-500 522.395,-496.5 522.395,-503.5"/>
</g>
<!-- Node16 -->
<g id="node16" class="node"><title>Node16</title>
<g id="a_node16"><a xlink:href="classrc2_xform.html#a4c46e7895d5600a706ea2c80e0ebe70e" target="_top" xlink:title="rc2Xform::xScale">
<polygon fill="white" stroke="black" points="534.934,-129 534.934,-149 627.066,-149 627.066,-129 534.934,-129"/>
<text text-anchor="middle" x="581" y="-135" font-family="Helvetica,sans-Serif" font-size="10.00">rc2Xform::xScale</text>
</a>
</g>
</g>
<!-- Node15&#45;&gt;Node16 -->
<g id="edge17" class="edge"><title>Node15&#45;&gt;Node16</title>
<path fill="none" stroke="midnightblue" d="M494.502,-126.334C504.221,-127.773 514.476,-129.293 524.378,-130.76"/>
<polygon fill="midnightblue" stroke="midnightblue" points="524.128,-134.261 534.533,-132.264 525.154,-127.336 524.128,-134.261"/>
</g>
<!-- Node18 -->
<g id="node18" class="node"><title>Node18</title>
<g id="a_node18"><a xlink:href="classrc2_xform.html#ab502f0541b483424b2793b03d051cb55" target="_top" xlink:title="rc2Xform::yScale">
<polygon fill="white" stroke="black" points="534.934,-90 534.934,-110 627.066,-110 627.066,-90 534.934,-90"/>
<text text-anchor="middle" x="581" y="-96" font-family="Helvetica,sans-Serif" font-size="10.00">rc2Xform::yScale</text>
</a>
</g>
</g>
<!-- Node15&#45;&gt;Node18 -->
<g id="edge19" class="edge"><title>Node15&#45;&gt;Node18</title>
<path fill="none" stroke="midnightblue" d="M494.502,-112.033C504.221,-110.665 514.476,-109.222 524.378,-107.828"/>
<polygon fill="midnightblue" stroke="midnightblue" points="525.119,-111.259 534.533,-106.399 524.143,-104.327 525.119,-111.259"/>
</g>
<!-- Node17 -->
<g id="node17" class="node"><title>Node17</title>
<g id="a_node17"><a xlink:href="classrc_matrix__2d.html#afda2638e1ec9c5323a54baec1dda771c" target="_top" xlink:title="rcMatrix_2d::xScale">
<polygon fill="white" stroke="black" points="668.096,-129 668.096,-149 771.904,-149 771.904,-129 668.096,-129"/>
<text text-anchor="middle" x="720" y="-135" font-family="Helvetica,sans-Serif" font-size="10.00">rcMatrix_2d::xScale</text>
</a>
</g>
</g>
<!-- Node16&#45;&gt;Node17 -->
<g id="edge18" class="edge"><title>Node16&#45;&gt;Node17</title>
<path fill="none" stroke="midnightblue" d="M627.239,-139C636.942,-139 647.352,-139 657.552,-139"/>
<polygon fill="midnightblue" stroke="midnightblue" points="657.647,-142.5 667.647,-139 657.647,-135.5 657.647,-142.5"/>
</g>
<!-- Node19 -->
<g id="node19" class="node"><title>Node19</title>
<g id="a_node19"><a xlink:href="classrc_matrix__2d.html#a0cd75d45f23e08383eb21b991065b911" target="_top" xlink:title="rcMatrix_2d::yScale">
<polygon fill="white" stroke="black" points="668.096,-90 668.096,-110 771.904,-110 771.904,-90 668.096,-90"/>
<text text-anchor="middle" x="720" y="-96" font-family="Helvetica,sans-Serif" font-size="10.00">rcMatrix_2d::yScale</text>
</a>
</g>
</g>
<!-- Node18&#45;&gt;Node19 -->
<g id="edge20" class="edge"><title>Node18&#45;&gt;Node19</title>
<path fill="none" stroke="midnightblue" d="M627.239,-100C636.942,-100 647.352,-100 657.552,-100"/>
<polygon fill="midnightblue" stroke="midnightblue" points="657.647,-103.5 667.647,-100 657.647,-96.5001 657.647,-103.5"/>
</g>
</g>
</svg>
        <g id="navigator" transform="translate(0 0)" fill="#404254">
                <rect fill="#f2f5e9" fill-opacity="0.5" stroke="#606060" stroke-width=".5" x="0" y="0" width="60" height="60"/>
                <use id="zoomplus" xlink:href="#zoomPlus" x="17" y="9" onmousedown="handleZoom(evt,'in')"/>
                <use id="zoomminus" xlink:href="#zoomMin" x="42" y="9" onmousedown="handleZoom(evt,'out')"/>
                <use id="reset" xlink:href="#resetDef" x="30" y="36" onmousedown="handleReset()"/>
                <g id="arrowUp" xlink:href="#dirArrow" transform="translate(30 24)" onmousedown="handlePan(0,-1)">
                  <use xlink:href="#rim" fill="#404040">
                        <set attributeName="fill" to="#808080" begin="arrowUp.mouseover" end="arrowUp.mouseout"/>
                  </use>
                  <path fill="none" stroke="white" stroke-width="1.5" d="M0,-3.0v7 M-2.5,-0.5L0,-3.0L2.5,-0.5"/>
                </g>
                <g id="arrowRight" xlink:href="#dirArrow" transform="rotate(90) translate(36 -43)" onmousedown="handlePan(1,0)">
                  <use xlink:href="#rim" fill="#404040">
                        <set attributeName="fill" to="#808080" begin="arrowRight.mouseover" end="arrowRight.mouseout"/>
                  </use>
                  <path fill="none" stroke="white" stroke-width="1.5" d="M0,-3.0v7 M-2.5,-0.5L0,-3.0L2.5,-0.5"/>
                </g>
                <g id="arrowDown" xlink:href="#dirArrow" transform="rotate(180) translate(-30 -48)" onmousedown="handlePan(0,1)">
                  <use xlink:href="#rim" fill="#404040">
                        <set attributeName="fill" to="#808080" begin="arrowDown.mouseover" end="arrowDown.mouseout"/>
                  </use>
                  <path fill="none" stroke="white" stroke-width="1.5" d="M0,-3.0v7 M-2.5,-0.5L0,-3.0L2.5,-0.5"/>
                </g>
                <g id="arrowLeft" xlink:href="#dirArrow" transform="rotate(270) translate(-36 17)" onmousedown="handlePan(-1,0)">
                  <use xlink:href="#rim" fill="#404040">
                        <set attributeName="fill" to="#808080" begin="arrowLeft.mouseover" end="arrowLeft.mouseout"/>
                  </use>
                  <path fill="none" stroke="white" stroke-width="1.5" d="M0,-3.0v7 M-2.5,-0.5L0,-3.0L2.5,-0.5"/>
                </g>
        </g>
        <svg viewBox="0 0 15 15" width="100%" height="30px" preserveAspectRatio="xMaxYMin meet">
         <g id="arrow_out" transform="scale(0.3 0.3)">
          <a xlink:href="classrc_shape_a578ea66eb32383e5059e9b2d72295c96_cgraph_org.svg" target="_base">
           <rect id="button" ry="5" rx="5" y="6" x="6" height="38" width="38"
                fill="#f2f5e9" fill-opacity="0.5" stroke="#606060" stroke-width="1.0"/>
           <path id="arrow"
             d="M 11.500037,31.436501 C 11.940474,20.09759 22.043105,11.32322 32.158766,21.979434 L 37.068811,17.246167 C 37.068811,17.246167 37.088388,32 37.088388,32 L 22.160133,31.978069 C 22.160133,31.978069 26.997745,27.140456 26.997745,27.140456 C 18.528582,18.264221 13.291696,25.230495 11.500037,31.436501 z"
             style="fill:#404040;"/>
          </a>
         </g>
        </svg>
</svg>
