<?xml version="1.0" encoding="UTF-8" standalone="no"?>
<!DOCTYPE svg PUBLIC "-//W3C//DTD SVG 1.1//EN"
 "http://www.w3.org/Graphics/SVG/1.1/DTD/svg11.dtd">
<!-- Generated by graphviz version 2.32.0 (20130916.1925)
 -->
<!-- Title: rcSettingInfo::getDisplayName Pages: 1 -->
<!--zoomable 386 -->
<svg id="main" version="1.1" xmlns="http://www.w3.org/2000/svg" xmlns:xlink="http://www.w3.org/1999/xlink" xml:space="preserve" onload="init(evt)">
        <defs>
                <circle id="rim" cx="0" cy="0" r="7"/>
                <circle id="rim2" cx="0" cy="0" r="3.5"/>
                <g id="zoomPlus">
                        <use xlink:href="#rim" fill="#404040">
                                <set attributeName="fill" to="#808080" begin="zoomplus.mouseover" end="zoomplus.mouseout"/>
                        </use>
                        <path d="M-4,0h8M0,-4v8" fill="none" stroke="white" stroke-width="1.5" pointer-events="none"/>
                </g>
                <g id="zoomMin">
                        <use xlink:href="#rim" fill="#404040">
                                <set attributeName="fill" to="#808080" begin="zoomminus.mouseover" end="zoomminus.mouseout"/>
                        </use>
                        <path d="M-4,0h8" fill="none" stroke="white" stroke-width="1.5" pointer-events="none"/>
                </g>
                <g id="dirArrow">
                        <path fill="none" stroke="white" stroke-width="1.5" d="M0,-3.0v7 M-2.5,-0.5L0,-3.0L2.5,-0.5"/>
                </g>
               <g id="resetDef">
                       <use xlink:href="#rim2" fill="#404040">
                               <set attributeName="fill" to="#808080" begin="reset.mouseover" end="reset.mouseout"/>
                       </use>
               </g>
        </defs>

<script type="text/javascript">
var viewWidth = 862;
var viewHeight = 386;
var sectionId = 'dynsection-3';
</script>
<script xlink:href="svgpan.js"/>
<svg id="graph" class="graph">
<g id="viewport">
<title>rcSettingInfo::getDisplayName</title>
<polygon fill="white" stroke="white" points="-4,5 -4,-382 859,-382 859,5 -4,5"/>
<!-- Node1 -->
<g id="node1" class="node"><title>Node1</title>
<polygon fill="#bfbfbf" stroke="black" points="0.468262,-188 0.468262,-208 151.532,-208 151.532,-188 0.468262,-188"/>
<text text-anchor="middle" x="76" y="-194" font-family="Helvetica,sans-Serif" font-size="10.00">rcSettingInfo::getDisplayName</text>
</g>
<!-- Node2 -->
<g id="node2" class="node"><title>Node2</title>
<g id="a_node2"><a xlink:href="classrc_file_choice_setting_widget.html#a698bb56806325c7b416a5d220d58d8c4" target="_top" xlink:title="rcFileChoiceSettingWidget\l::directoryBrowse">
<polygon fill="white" stroke="black" points="206.086,-346 206.086,-378 339.914,-378 339.914,-346 206.086,-346"/>
<text text-anchor="start" x="214.086" y="-364" font-family="Helvetica,sans-Serif" font-size="10.00">rcFileChoiceSettingWidget</text>
<text text-anchor="middle" x="273" y="-352" font-family="Helvetica,sans-Serif" font-size="10.00">::directoryBrowse</text>
</a>
</g>
</g>
<!-- Node1&#45;&gt;Node2 -->
<g id="edge1" class="edge"><title>Node1&#45;&gt;Node2</title>
<path fill="none" stroke="midnightblue" d="M87.2474,-216.976C104.263,-246.713 141.159,-304.175 188,-336 193.682,-339.861 199.962,-343.167 206.454,-345.996"/>
<polygon fill="midnightblue" stroke="midnightblue" points="90.1843,-215.056 82.2534,-208.031 84.0723,-218.469 90.1843,-215.056"/>
</g>
<!-- Node3 -->
<g id="node3" class="node"><title>Node3</title>
<g id="a_node3"><a xlink:href="classrc_setting_category.html#a342705f9fa418458f8189a6cb99d4333" target="_top" xlink:title="rcSettingCategory::dump">
<polygon fill="white" stroke="black" points="209.695,-307 209.695,-327 336.305,-327 336.305,-307 209.695,-307"/>
<text text-anchor="middle" x="273" y="-313" font-family="Helvetica,sans-Serif" font-size="10.00">rcSettingCategory::dump</text>
</a>
</g>
</g>
<!-- Node1&#45;&gt;Node3 -->
<g id="edge2" class="edge"><title>Node1&#45;&gt;Node3</title>
<path fill="none" stroke="midnightblue" d="M91.9801,-215.989C111.667,-238.425 148.418,-276.341 188,-297 195.841,-301.092 204.529,-304.361 213.258,-306.968"/>
<polygon fill="midnightblue" stroke="midnightblue" points="94.4723,-213.519 85.3001,-208.216 89.1635,-218.081 94.4723,-213.519"/>
</g>
<!-- Node4 -->
<g id="node4" class="node"><title>Node4</title>
<g id="a_node4"><a xlink:href="classrc_c_s_v_exporter.html#a17104d6206faff99633d785ed9fb00f9" target="_top" xlink:title="rcCSVExporter::exportExperiment">
<polygon fill="white" stroke="black" points="189.695,-268 189.695,-288 356.305,-288 356.305,-268 189.695,-268"/>
<text text-anchor="middle" x="273" y="-274" font-family="Helvetica,sans-Serif" font-size="10.00">rcCSVExporter::exportExperiment</text>
</a>
</g>
</g>
<!-- Node1&#45;&gt;Node4 -->
<g id="edge3" class="edge"><title>Node1&#45;&gt;Node4</title>
<path fill="none" stroke="midnightblue" d="M101.187,-213.485C123.1,-226.919 156.662,-246.038 188,-258 198.224,-261.903 209.447,-265.206 220.269,-267.934"/>
<polygon fill="midnightblue" stroke="midnightblue" points="102.889,-210.422 92.5489,-208.113 99.1922,-216.366 102.889,-210.422"/>
</g>
<!-- Node9 -->
<g id="node9" class="node"><title>Node9</title>
<g id="a_node9"><a xlink:href="classrc_framerate_choice_setting_widget.html#a99a79e85dbd9945428ac587eea3a8784" target="_top" xlink:title="rcFramerateChoiceSetting\lWidget::rcFramerateChoiceSetting\lWidget">
<polygon fill="white" stroke="black" points="188.303,-205 188.303,-249 357.697,-249 357.697,-205 188.303,-205"/>
<text text-anchor="start" x="196.303" y="-235" font-family="Helvetica,sans-Serif" font-size="10.00">rcFramerateChoiceSetting</text>
<text text-anchor="start" x="196.303" y="-223" font-family="Helvetica,sans-Serif" font-size="10.00">Widget::rcFramerateChoiceSetting</text>
<text text-anchor="middle" x="273" y="-211" font-family="Helvetica,sans-Serif" font-size="10.00">Widget</text>
</a>
</g>
</g>
<!-- Node1&#45;&gt;Node9 -->
<g id="edge8" class="edge"><title>Node1&#45;&gt;Node9</title>
<path fill="none" stroke="midnightblue" d="M154.425,-209.514C165.491,-211.16 176.917,-212.859 188.1,-214.523"/>
<polygon fill="midnightblue" stroke="midnightblue" points="154.787,-206.03 144.381,-208.021 153.757,-212.954 154.787,-206.03"/>
</g>
<!-- Node10 -->
<g id="node10" class="node"><title>Node10</title>
<g id="a_node10"><a xlink:href="classrc_numeric_choice_setting_widget.html#a89aed61bd392ad54d5f427f277a64e01" target="_top" xlink:title="rcNumericChoiceSettingWidget\l::rcNumericChoiceSettingWidget">
<polygon fill="white" stroke="black" points="192.751,-154 192.751,-186 353.249,-186 353.249,-154 192.751,-154"/>
<text text-anchor="start" x="200.751" y="-172" font-family="Helvetica,sans-Serif" font-size="10.00">rcNumericChoiceSettingWidget</text>
<text text-anchor="middle" x="273" y="-160" font-family="Helvetica,sans-Serif" font-size="10.00">::rcNumericChoiceSettingWidget</text>
</a>
</g>
</g>
<!-- Node1&#45;&gt;Node10 -->
<g id="edge9" class="edge"><title>Node1&#45;&gt;Node10</title>
<path fill="none" stroke="midnightblue" d="M157.077,-186.502C168.838,-184.813 180.949,-183.074 192.695,-181.387"/>
<polygon fill="midnightblue" stroke="midnightblue" points="156.25,-183.085 146.849,-187.97 157.245,-190.014 156.25,-183.085"/>
</g>
<!-- Node11 -->
<g id="node11" class="node"><title>Node11</title>
<g id="a_node11"><a xlink:href="classrc_rate_choice_setting_widget.html#a320c346bff7f1b10afd3ed0a217c06e8" target="_top" xlink:title="rcRateChoiceSettingWidget\l::rcRateChoiceSettingWidget">
<polygon fill="white" stroke="black" points="200.803,-103 200.803,-135 345.197,-135 345.197,-103 200.803,-103"/>
<text text-anchor="start" x="208.803" y="-121" font-family="Helvetica,sans-Serif" font-size="10.00">rcRateChoiceSettingWidget</text>
<text text-anchor="middle" x="273" y="-109" font-family="Helvetica,sans-Serif" font-size="10.00">::rcRateChoiceSettingWidget</text>
</a>
</g>
</g>
<!-- Node1&#45;&gt;Node11 -->
<g id="edge10" class="edge"><title>Node1&#45;&gt;Node11</title>
<path fill="none" stroke="midnightblue" d="M105.028,-183.22C127.175,-171.885 159.069,-156.315 188,-145 196.957,-141.497 206.592,-138.143 216.03,-135.078"/>
<polygon fill="midnightblue" stroke="midnightblue" points="103.156,-180.248 95.8769,-187.947 106.368,-186.467 103.156,-180.248"/>
</g>
<!-- Node12 -->
<g id="node12" class="node"><title>Node12</title>
<g id="a_node12"><a xlink:href="classrc_setting_widget.html#a70ce397659c25f3bb9e1e442aa44d4e8" target="_top" xlink:title="rcSettingWidget::rcSetting\lWidget">
<polygon fill="white" stroke="black" points="207.197,-52 207.197,-84 338.803,-84 338.803,-52 207.197,-52"/>
<text text-anchor="start" x="215.197" y="-70" font-family="Helvetica,sans-Serif" font-size="10.00">rcSettingWidget::rcSetting</text>
<text text-anchor="middle" x="273" y="-58" font-family="Helvetica,sans-Serif" font-size="10.00">Widget</text>
</a>
</g>
</g>
<!-- Node1&#45;&gt;Node12 -->
<g id="edge11" class="edge"><title>Node1&#45;&gt;Node12</title>
<path fill="none" stroke="midnightblue" d="M91.711,-179.851C111.357,-156.745 148.32,-117.064 188,-94 194.467,-90.241 201.536,-86.9684 208.74,-84.1338"/>
<polygon fill="midnightblue" stroke="midnightblue" points="88.777,-177.904 85.0596,-187.826 94.1526,-182.388 88.777,-177.904"/>
</g>
<!-- Node13 -->
<g id="node13" class="node"><title>Node13</title>
<g id="a_node13"><a xlink:href="classrc_text_choice_setting_widget.html#a1fb738595b5a80ccd2608a0e9cd66984" target="_top" xlink:title="rcTextChoiceSettingWidget\l::rcTextChoiceSettingWidget">
<polygon fill="white" stroke="black" points="202.195,-1 202.195,-33 343.805,-33 343.805,-1 202.195,-1"/>
<text text-anchor="start" x="210.195" y="-19" font-family="Helvetica,sans-Serif" font-size="10.00">rcTextChoiceSettingWidget</text>
<text text-anchor="middle" x="273" y="-7" font-family="Helvetica,sans-Serif" font-size="10.00">::rcTextChoiceSettingWidget</text>
</a>
</g>
</g>
<!-- Node1&#45;&gt;Node13 -->
<g id="edge12" class="edge"><title>Node1&#45;&gt;Node13</title>
<path fill="none" stroke="midnightblue" d="M85.7298,-178.541C101.445,-145.706 137.613,-79.3344 188,-43 193.324,-39.1606 199.23,-35.8774 205.372,-33.0719"/>
<polygon fill="midnightblue" stroke="midnightblue" points="82.4006,-177.4 81.3542,-187.943 88.7469,-180.353 82.4006,-177.4"/>
</g>
<!-- Node5 -->
<g id="node5" class="node"><title>Node5</title>
<g id="a_node5"><a xlink:href="classrc_experiment_impl.html#a375595b76e0c9f303a7135e096391b9a" target="_top" xlink:title="rcExperimentImpl::saveTo">
<polygon fill="white" stroke="black" points="394.48,-268 394.48,-288 525.52,-288 525.52,-268 394.48,-268"/>
<text text-anchor="middle" x="460" y="-274" font-family="Helvetica,sans-Serif" font-size="10.00">rcExperimentImpl::saveTo</text>
</a>
</g>
</g>
<!-- Node4&#45;&gt;Node5 -->
<g id="edge4" class="edge"><title>Node4&#45;&gt;Node5</title>
<path fill="none" stroke="midnightblue" d="M366.662,-278C376.051,-278 385.438,-278 394.436,-278"/>
<polygon fill="midnightblue" stroke="midnightblue" points="366.491,-274.5 356.491,-278 366.491,-281.5 366.491,-274.5"/>
</g>
<!-- Node6 -->
<g id="node6" class="node"><title>Node6</title>
<g id="a_node6"><a xlink:href="classrc_experiment_domain_impl.html#a8db39db2ae092474f985b4c2997d5b72" target="_top" xlink:title="rcExperimentDomainImpl\l::saveExperiment">
<polygon fill="white" stroke="black" points="561.872,-262 561.872,-294 690.128,-294 690.128,-262 561.872,-262"/>
<text text-anchor="start" x="569.872" y="-280" font-family="Helvetica,sans-Serif" font-size="10.00">rcExperimentDomainImpl</text>
<text text-anchor="middle" x="626" y="-268" font-family="Helvetica,sans-Serif" font-size="10.00">::saveExperiment</text>
</a>
</g>
</g>
<!-- Node5&#45;&gt;Node6 -->
<g id="edge5" class="edge"><title>Node5&#45;&gt;Node6</title>
<path fill="none" stroke="midnightblue" d="M535.884,-278C544.521,-278 553.264,-278 561.725,-278"/>
<polygon fill="midnightblue" stroke="midnightblue" points="535.817,-274.5 525.817,-278 535.817,-281.5 535.817,-274.5"/>
</g>
<!-- Node7 -->
<g id="node7" class="node"><title>Node7</title>
<g id="a_node7"><a xlink:href="rc__main_8cpp.html#a3c04138a5bfe5d72780bb7e82a18e627" target="_top" xlink:title="main">
<polygon fill="white" stroke="black" points="771.163,-291 771.163,-311 808.837,-311 808.837,-291 771.163,-291"/>
<text text-anchor="middle" x="790" y="-297" font-family="Helvetica,sans-Serif" font-size="10.00">main</text>
</a>
</g>
</g>
<!-- Node6&#45;&gt;Node7 -->
<g id="edge6" class="edge"><title>Node6&#45;&gt;Node7</title>
<path fill="none" stroke="midnightblue" d="M700.479,-288.432C726.55,-292.134 753.668,-295.984 770.906,-298.431"/>
<polygon fill="midnightblue" stroke="midnightblue" points="700.954,-284.965 690.562,-287.024 699.97,-291.895 700.954,-284.965"/>
</g>
<!-- Node8 -->
<g id="node8" class="node"><title>Node8</title>
<g id="a_node8"><a xlink:href="classrc_experiment_domain_impl.html#a29b2a73f82318c9faec49f9a1178f90b" target="_top" xlink:title="rcExperimentDomainImpl\l::notifyRequestSave">
<polygon fill="white" stroke="black" points="725.872,-240 725.872,-272 854.128,-272 854.128,-240 725.872,-240"/>
<text text-anchor="start" x="733.872" y="-258" font-family="Helvetica,sans-Serif" font-size="10.00">rcExperimentDomainImpl</text>
<text text-anchor="middle" x="790" y="-246" font-family="Helvetica,sans-Serif" font-size="10.00">::notifyRequestSave</text>
</a>
</g>
</g>
<!-- Node6&#45;&gt;Node8 -->
<g id="edge7" class="edge"><title>Node6&#45;&gt;Node8</title>
<path fill="none" stroke="midnightblue" d="M700.655,-267.998C708.991,-266.865 717.433,-265.719 725.622,-264.607"/>
<polygon fill="midnightblue" stroke="midnightblue" points="700,-264.554 690.562,-269.368 700.942,-271.491 700,-264.554"/>
</g>
</g>
</svg>
        <g id="navigator" transform="translate(0 0)" fill="#404254">
                <rect fill="#f2f5e9" fill-opacity="0.5" stroke="#606060" stroke-width=".5" x="0" y="0" width="60" height="60"/>
                <use id="zoomplus" xlink:href="#zoomPlus" x="17" y="9" onmousedown="handleZoom(evt,'in')"/>
                <use id="zoomminus" xlink:href="#zoomMin" x="42" y="9" onmousedown="handleZoom(evt,'out')"/>
                <use id="reset" xlink:href="#resetDef" x="30" y="36" onmousedown="handleReset()"/>
                <g id="arrowUp" xlink:href="#dirArrow" transform="translate(30 24)" onmousedown="handlePan(0,-1)">
                  <use xlink:href="#rim" fill="#404040">
                        <set attributeName="fill" to="#808080" begin="arrowUp.mouseover" end="arrowUp.mouseout"/>
                  </use>
                  <path fill="none" stroke="white" stroke-width="1.5" d="M0,-3.0v7 M-2.5,-0.5L0,-3.0L2.5,-0.5"/>
                </g>
                <g id="arrowRight" xlink:href="#dirArrow" transform="rotate(90) translate(36 -43)" onmousedown="handlePan(1,0)">
                  <use xlink:href="#rim" fill="#404040">
                        <set attributeName="fill" to="#808080" begin="arrowRight.mouseover" end="arrowRight.mouseout"/>
                  </use>
                  <path fill="none" stroke="white" stroke-width="1.5" d="M0,-3.0v7 M-2.5,-0.5L0,-3.0L2.5,-0.5"/>
                </g>
                <g id="arrowDown" xlink:href="#dirArrow" transform="rotate(180) translate(-30 -48)" onmousedown="handlePan(0,1)">
                  <use xlink:href="#rim" fill="#404040">
                        <set attributeName="fill" to="#808080" begin="arrowDown.mouseover" end="arrowDown.mouseout"/>
                  </use>
                  <path fill="none" stroke="white" stroke-width="1.5" d="M0,-3.0v7 M-2.5,-0.5L0,-3.0L2.5,-0.5"/>
                </g>
                <g id="arrowLeft" xlink:href="#dirArrow" transform="rotate(270) translate(-36 17)" onmousedown="handlePan(-1,0)">
                  <use xlink:href="#rim" fill="#404040">
                        <set attributeName="fill" to="#808080" begin="arrowLeft.mouseover" end="arrowLeft.mouseout"/>
                  </use>
                  <path fill="none" stroke="white" stroke-width="1.5" d="M0,-3.0v7 M-2.5,-0.5L0,-3.0L2.5,-0.5"/>
                </g>
        </g>
        <svg viewBox="0 0 15 15" width="100%" height="30px" preserveAspectRatio="xMaxYMin meet">
         <g id="arrow_out" transform="scale(0.3 0.3)">
          <a xlink:href="classrc_setting_info_aefe2cf659ca951ac9078b4fb7eef812f_icgraph_org.svg" target="_base">
           <rect id="button" ry="5" rx="5" y="6" x="6" height="38" width="38"
                fill="#f2f5e9" fill-opacity="0.5" stroke="#606060" stroke-width="1.0"/>
           <path id="arrow"
             d="M 11.500037,31.436501 C 11.940474,20.09759 22.043105,11.32322 32.158766,21.979434 L 37.068811,17.246167 C 37.068811,17.246167 37.088388,32 37.088388,32 L 22.160133,31.978069 C 22.160133,31.978069 26.997745,27.140456 26.997745,27.140456 C 18.528582,18.264221 13.291696,25.230495 11.500037,31.436501 z"
             style="fill:#404040;"/>
          </a>
         </g>
        </svg>
</svg>
