<?xml version="1.0" encoding="UTF-8" standalone="no"?>
<!DOCTYPE svg PUBLIC "-//W3C//DTD SVG 1.1//EN"
 "http://www.w3.org/Graphics/SVG/1.1/DTD/svg11.dtd">
<!-- Generated by graphviz version 2.32.0 (20130916.1925)
 -->
<!-- Title: rcAnalyzerOptions::setOrigin Pages: 1 -->
<svg width="798pt" height="67pt"
 viewBox="0.00 0.00 798.00 67.00" xmlns="http://www.w3.org/2000/svg" xmlns:xlink="http://www.w3.org/1999/xlink">
<g id="graph0" class="graph" transform="scale(1 1) rotate(0) translate(4 63)">
<title>rcAnalyzerOptions::setOrigin</title>
<polygon fill="white" stroke="white" points="-4,5 -4,-63 795,-63 795,5 -4,5"/>
<!-- Node1 -->
<g id="node1" class="node"><title>Node1</title>
<polygon fill="#bfbfbf" stroke="black" points="0.37207,-13 0.37207,-45 103.628,-45 103.628,-13 0.37207,-13"/>
<text text-anchor="start" x="8.37207" y="-31" font-family="Helvetica,sans-Serif" font-size="10.00">rcAnalyzerOptions::</text>
<text text-anchor="middle" x="52" y="-19" font-family="Helvetica,sans-Serif" font-size="10.00">setOrigin</text>
</g>
<!-- Node2 -->
<g id="node2" class="node"><title>Node2</title>
<g id="a_node2"><a xlink:href="classrc_engine_impl.html#a1ec71befab88914b35b700cd5fe03ba2" target="_top" xlink:title="rcEngineImpl::entropyTracker\lWindow">
<polygon fill="white" stroke="black" points="140.602,-13 140.602,-45 287.398,-45 287.398,-13 140.602,-13"/>
<text text-anchor="start" x="148.602" y="-31" font-family="Helvetica,sans-Serif" font-size="10.00">rcEngineImpl::entropyTracker</text>
<text text-anchor="middle" x="214" y="-19" font-family="Helvetica,sans-Serif" font-size="10.00">Window</text>
</a>
</g>
</g>
<!-- Node1&#45;&gt;Node2 -->
<g id="edge1" class="edge"><title>Node1&#45;&gt;Node2</title>
<path fill="none" stroke="midnightblue" d="M114.344,-29C122.918,-29 131.795,-29 140.55,-29"/>
<polygon fill="midnightblue" stroke="midnightblue" points="114.065,-25.5001 104.065,-29 114.065,-32.5001 114.065,-25.5001"/>
</g>
<!-- Node3 -->
<g id="node3" class="node"><title>Node3</title>
<g id="a_node3"><a xlink:href="classrc_engine_impl.html#a3ad6dbc54b2a53acae4d345ff14974ae" target="_top" xlink:title="rcEngineImpl::analyzeFocusArea">
<polygon fill="white" stroke="black" points="324.631,-19 324.631,-39 487.369,-39 487.369,-19 324.631,-19"/>
<text text-anchor="middle" x="406" y="-25" font-family="Helvetica,sans-Serif" font-size="10.00">rcEngineImpl::analyzeFocusArea</text>
</a>
</g>
</g>
<!-- Node2&#45;&gt;Node3 -->
<g id="edge2" class="edge"><title>Node2&#45;&gt;Node3</title>
<path fill="none" stroke="midnightblue" d="M297.911,-29C306.729,-29 315.687,-29 324.476,-29"/>
<polygon fill="midnightblue" stroke="midnightblue" points="297.644,-25.5001 287.644,-29 297.644,-32.5001 297.644,-25.5001"/>
</g>
<!-- Node4 -->
<g id="node4" class="node"><title>Node4</title>
<g id="a_node4"><a xlink:href="classrc_engine_impl.html#ae320706cbcafd64f219018b9842c8290" target="_top" xlink:title="rcEngineImpl::analyze">
<polygon fill="white" stroke="black" points="523.808,-19 523.808,-39 638.192,-39 638.192,-19 523.808,-19"/>
<text text-anchor="middle" x="581" y="-25" font-family="Helvetica,sans-Serif" font-size="10.00">rcEngineImpl::analyze</text>
</a>
</g>
</g>
<!-- Node3&#45;&gt;Node4 -->
<g id="edge3" class="edge"><title>Node3&#45;&gt;Node4</title>
<path fill="none" stroke="midnightblue" d="M497.5,-29C506.423,-29 515.288,-29 523.716,-29"/>
<polygon fill="midnightblue" stroke="midnightblue" points="497.422,-25.5001 487.422,-29 497.422,-32.5001 497.422,-25.5001"/>
</g>
<!-- Node5 -->
<g id="node5" class="node"><title>Node5</title>
<g id="a_node5"><a xlink:href="classrc_engine_impl.html#a507e034c1e43ae1dd6ec95a11ec0bb02" target="_top" xlink:title="rcEngineImpl::process">
<polygon fill="white" stroke="black" points="674.535,-39 674.535,-59 789.465,-59 789.465,-39 674.535,-39"/>
<text text-anchor="middle" x="732" y="-45" font-family="Helvetica,sans-Serif" font-size="10.00">rcEngineImpl::process</text>
</a>
</g>
</g>
<!-- Node4&#45;&gt;Node5 -->
<g id="edge4" class="edge"><title>Node4&#45;&gt;Node5</title>
<path fill="none" stroke="midnightblue" d="M648.328,-37.903C656.925,-39.057 665.669,-40.2308 674.095,-41.3617"/>
<polygon fill="midnightblue" stroke="midnightblue" points="648.707,-34.4227 638.331,-36.5611 647.776,-41.3605 648.707,-34.4227"/>
</g>
<!-- Node6 -->
<g id="node6" class="node"><title>Node6</title>
<g id="a_node6"><a xlink:href="classrc_engine_analyzer.html#a064037f0ec3e68fcb11dabbcba790cdd" target="_top" xlink:title="rcEngineAnalyzer::run">
<polygon fill="white" stroke="black" points="674.808,-0 674.808,-20 789.192,-20 789.192,-0 674.808,-0"/>
<text text-anchor="middle" x="732" y="-6" font-family="Helvetica,sans-Serif" font-size="10.00">rcEngineAnalyzer::run</text>
</a>
</g>
</g>
<!-- Node4&#45;&gt;Node6 -->
<g id="edge5" class="edge"><title>Node4&#45;&gt;Node6</title>
<path fill="none" stroke="midnightblue" d="M648.47,-20.524C657.19,-19.412 666.058,-18.2812 674.59,-17.1932"/>
<polygon fill="midnightblue" stroke="midnightblue" points="647.807,-17.08 638.331,-21.8169 648.693,-24.0238 647.807,-17.08"/>
</g>
</g>
</svg>
