<?xml version="1.0" encoding="UTF-8" standalone="no"?>
<!DOCTYPE svg PUBLIC "-//W3C//DTD SVG 1.1//EN"
 "http://www.w3.org/Graphics/SVG/1.1/DTD/svg11.dtd">
<!-- Generated by graphviz version 2.32.0 (20130916.1925)
 -->
<!-- Title: rcMotionCenter::center Pages: 1 -->
<!--zoomable 87 -->
<svg id="main" version="1.1" xmlns="http://www.w3.org/2000/svg" xmlns:xlink="http://www.w3.org/1999/xlink" xml:space="preserve" onload="init(evt)">
        <defs>
                <circle id="rim" cx="0" cy="0" r="7"/>
                <circle id="rim2" cx="0" cy="0" r="3.5"/>
                <g id="zoomPlus">
                        <use xlink:href="#rim" fill="#404040">
                                <set attributeName="fill" to="#808080" begin="zoomplus.mouseover" end="zoomplus.mouseout"/>
                        </use>
                        <path d="M-4,0h8M0,-4v8" fill="none" stroke="white" stroke-width="1.5" pointer-events="none"/>
                </g>
                <g id="zoomMin">
                        <use xlink:href="#rim" fill="#404040">
                                <set attributeName="fill" to="#808080" begin="zoomminus.mouseover" end="zoomminus.mouseout"/>
                        </use>
                        <path d="M-4,0h8" fill="none" stroke="white" stroke-width="1.5" pointer-events="none"/>
                </g>
                <g id="dirArrow">
                        <path fill="none" stroke="white" stroke-width="1.5" d="M0,-3.0v7 M-2.5,-0.5L0,-3.0L2.5,-0.5"/>
                </g>
               <g id="resetDef">
                       <use xlink:href="#rim2" fill="#404040">
                               <set attributeName="fill" to="#808080" begin="reset.mouseover" end="reset.mouseout"/>
                       </use>
               </g>
        </defs>

<script type="text/javascript">
var viewWidth = 1000;
var viewHeight = 87;
var sectionId = 'dynsection-3';
</script>
<script xlink:href="svgpan.js"/>
<svg id="graph" class="graph">
<g id="viewport">
<title>rcMotionCenter::center</title>
<polygon fill="white" stroke="white" points="-4,5 -4,-83.1773 997,-83.1773 997,5 -4,5"/>
<!-- Node1 -->
<g id="node1" class="node"><title>Node1</title>
<polygon fill="#bfbfbf" stroke="black" points="0.145508,-23 0.145508,-43 117.854,-43 117.854,-23 0.145508,-23"/>
<text text-anchor="middle" x="59" y="-29" font-family="Helvetica,sans-Serif" font-size="10.00">rcMotionCenter::center</text>
</g>
<!-- Node2 -->
<g id="node2" class="node"><title>Node2</title>
<g id="a_node2"><a xlink:href="classrc_kinetoscope.html#a31824c9e1067da6136c4bc2b7d4bddcf" target="_top" xlink:title="rcKinetoscope::connectFunction">
<polygon fill="white" stroke="black" points="153.848,-43 153.848,-63 312.152,-63 312.152,-43 153.848,-43"/>
<text text-anchor="middle" x="233" y="-49" font-family="Helvetica,sans-Serif" font-size="10.00">rcKinetoscope::connectFunction</text>
</a>
</g>
</g>
<!-- Node1&#45;&gt;Node2 -->
<g id="edge1" class="edge"><title>Node1&#45;&gt;Node2</title>
<path fill="none" stroke="midnightblue" d="M128.28,-40.9395C136.631,-41.9106 145.215,-42.9088 153.699,-43.8952"/>
<polygon fill="midnightblue" stroke="midnightblue" points="128.569,-37.4496 118.231,-39.7711 127.76,-44.4028 128.569,-37.4496"/>
</g>
<!-- Node8 -->
<g id="node8" class="node"><title>Node8</title>
<g id="a_node8"><a xlink:href="classrc_visual_function.html#a39b0eae4df10a782d7b9f8fede2b4f63" target="_top" xlink:title="rcVisualFunction::vXform">
<polygon fill="white" stroke="black" points="169.514,-3 169.514,-23 296.486,-23 296.486,-3 169.514,-3"/>
<text text-anchor="middle" x="233" y="-9" font-family="Helvetica,sans-Serif" font-size="10.00">rcVisualFunction::vXform</text>
</a>
</g>
</g>
<!-- Node1&#45;&gt;Node8 -->
<g id="edge9" class="edge"><title>Node1&#45;&gt;Node8</title>
<path fill="none" stroke="midnightblue" d="M128.433,-25.0427C141.959,-23.4699 156.09,-21.8268 169.41,-20.2779"/>
<polygon fill="midnightblue" stroke="midnightblue" points="127.76,-21.5972 118.231,-26.2289 128.569,-28.5504 127.76,-21.5972"/>
</g>
<!-- Node3 -->
<g id="node3" class="node"><title>Node3</title>
<g id="a_node3"><a xlink:href="classrc_kinetoscope.html#a9e34ed1b237aa970f30995cb75245233" target="_top" xlink:title="rcKinetoscope::connected\lFunctions">
<polygon fill="white" stroke="black" points="349.463,-39 349.463,-71 480.537,-71 480.537,-39 349.463,-39"/>
<text text-anchor="start" x="357.463" y="-57" font-family="Helvetica,sans-Serif" font-size="10.00">rcKinetoscope::connected</text>
<text text-anchor="middle" x="415" y="-45" font-family="Helvetica,sans-Serif" font-size="10.00">Functions</text>
</a>
</g>
</g>
<!-- Node2&#45;&gt;Node3 -->
<g id="edge2" class="edge"><title>Node2&#45;&gt;Node3</title>
<path fill="none" stroke="midnightblue" d="M322.41,-53.9823C331.509,-54.0834 340.63,-54.1848 349.401,-54.2822"/>
<polygon fill="midnightblue" stroke="midnightblue" points="322.204,-50.4799 312.165,-53.8685 322.126,-57.4795 322.204,-50.4799"/>
</g>
<!-- Node4 -->
<g id="node4" class="node"><title>Node4</title>
<g id="a_node4"><a xlink:href="classrc_kinetoscope.html#a30274b84c57f86e667b614556f6c569b" target="_top" xlink:title="rcKinetoscope::step">
<polygon fill="white" stroke="black" points="706.086,-45 706.086,-65 809.914,-65 809.914,-45 706.086,-45"/>
<text text-anchor="middle" x="758" y="-51" font-family="Helvetica,sans-Serif" font-size="10.00">rcKinetoscope::step</text>
</a>
</g>
</g>
<!-- Node3&#45;&gt;Node4 -->
<g id="edge3" class="edge"><title>Node3&#45;&gt;Node4</title>
<path fill="none" stroke="midnightblue" d="M490.664,-70.5371C499.836,-71.9635 509.109,-73.179 518,-74 585.269,-80.2119 602.834,-81.2487 670,-74 686.447,-72.225 704.344,-68.6145 719.606,-65.013"/>
<polygon fill="midnightblue" stroke="midnightblue" points="491.207,-67.0796 480.773,-68.9153 490.075,-73.9873 491.207,-67.0796"/>
</g>
<!-- Node6 -->
<g id="node6" class="node"><title>Node6</title>
<g id="a_node6"><a xlink:href="classrc_kinetoscope.html#ae0addfc3a10c4c69ba027d9bfc351217" target="_top" xlink:title="rcKinetoscope::stepContractile">
<polygon fill="white" stroke="black" points="518.188,-45 518.188,-65 669.812,-65 669.812,-45 518.188,-45"/>
<text text-anchor="middle" x="594" y="-51" font-family="Helvetica,sans-Serif" font-size="10.00">rcKinetoscope::stepContractile</text>
</a>
</g>
</g>
<!-- Node3&#45;&gt;Node6 -->
<g id="edge5" class="edge"><title>Node3&#45;&gt;Node6</title>
<path fill="none" stroke="midnightblue" d="M490.741,-55C499.769,-55 508.993,-55 518.024,-55"/>
<polygon fill="midnightblue" stroke="midnightblue" points="490.652,-51.5001 480.652,-55 490.652,-58.5001 490.652,-51.5001"/>
</g>
<!-- Node7 -->
<g id="node7" class="node"><title>Node7</title>
<g id="a_node7"><a xlink:href="classrc_kinetoscope.html#a431144623d201c5aeb857893d8460ca2" target="_top" xlink:title="rcKinetoscope::stepEpi">
<polygon fill="white" stroke="black" points="534.86,-6 534.86,-26 653.14,-26 653.14,-6 534.86,-6"/>
<text text-anchor="middle" x="594" y="-12" font-family="Helvetica,sans-Serif" font-size="10.00">rcKinetoscope::stepEpi</text>
</a>
</g>
</g>
<!-- Node3&#45;&gt;Node7 -->
<g id="edge7" class="edge"><title>Node3&#45;&gt;Node7</title>
<path fill="none" stroke="midnightblue" d="M490.625,-38.5572C509.891,-34.3122 530.056,-29.8689 547.346,-26.0593"/>
<polygon fill="midnightblue" stroke="midnightblue" points="489.665,-35.1847 480.652,-40.7546 491.171,-42.0207 489.665,-35.1847"/>
</g>
<!-- Node5 -->
<g id="node5" class="node"><title>Node5</title>
<g id="a_node5"><a xlink:href="classrc_engine_impl.html#a00ca0d227e480ddb5bd6be293b55d2c9" target="_top" xlink:title="rcEngineImpl::muscleTracker">
<polygon fill="white" stroke="black" points="846.442,-45 846.442,-65 991.558,-65 991.558,-45 846.442,-45"/>
<text text-anchor="middle" x="919" y="-51" font-family="Helvetica,sans-Serif" font-size="10.00">rcEngineImpl::muscleTracker</text>
</a>
</g>
</g>
<!-- Node4&#45;&gt;Node5 -->
<g id="edge4" class="edge"><title>Node4&#45;&gt;Node5</title>
<path fill="none" stroke="midnightblue" d="M820.383,-55C828.886,-55 837.682,-55 846.351,-55"/>
<polygon fill="midnightblue" stroke="midnightblue" points="820.184,-51.5001 810.184,-55 820.184,-58.5001 820.184,-51.5001"/>
</g>
<!-- Node6&#45;&gt;Node4 -->
<g id="edge6" class="edge"><title>Node6&#45;&gt;Node4</title>
<path fill="none" stroke="midnightblue" d="M679.92,-55C688.848,-55 697.713,-55 706.079,-55"/>
<polygon fill="midnightblue" stroke="midnightblue" points="679.835,-51.5001 669.835,-55 679.835,-58.5001 679.835,-51.5001"/>
</g>
<!-- Node7&#45;&gt;Node4 -->
<g id="edge8" class="edge"><title>Node7&#45;&gt;Node4</title>
<path fill="none" stroke="midnightblue" d="M646.653,-28.4351C668.86,-33.781 694.468,-39.9461 715.422,-44.9906"/>
<polygon fill="midnightblue" stroke="midnightblue" points="647.26,-24.9813 636.719,-26.0435 645.622,-31.7869 647.26,-24.9813"/>
</g>
<!-- Node9 -->
<g id="node9" class="node"><title>Node9</title>
<g id="a_node9"><a xlink:href="classrc_visual_function.html#ac3135ba614a9ba5080e78c3f2f426312" target="_top" xlink:title="rcVisualFunction::measure">
<polygon fill="white" stroke="black" points="347.896,-0 347.896,-20 482.104,-20 482.104,-0 347.896,-0"/>
<text text-anchor="middle" x="415" y="-6" font-family="Helvetica,sans-Serif" font-size="10.00">rcVisualFunction::measure</text>
</a>
</g>
</g>
<!-- Node8&#45;&gt;Node9 -->
<g id="edge10" class="edge"><title>Node8&#45;&gt;Node9</title>
<path fill="none" stroke="midnightblue" d="M306.927,-11.7845C320.462,-11.559 334.532,-11.3245 347.851,-11.1025"/>
<polygon fill="midnightblue" stroke="midnightblue" points="306.643,-8.2887 296.703,-11.955 306.76,-15.2877 306.643,-8.2887"/>
</g>
</g>
</svg>
        <g id="navigator" transform="translate(0 0)" fill="#404254">
                <rect fill="#f2f5e9" fill-opacity="0.5" stroke="#606060" stroke-width=".5" x="0" y="0" width="60" height="60"/>
                <use id="zoomplus" xlink:href="#zoomPlus" x="17" y="9" onmousedown="handleZoom(evt,'in')"/>
                <use id="zoomminus" xlink:href="#zoomMin" x="42" y="9" onmousedown="handleZoom(evt,'out')"/>
                <use id="reset" xlink:href="#resetDef" x="30" y="36" onmousedown="handleReset()"/>
                <g id="arrowUp" xlink:href="#dirArrow" transform="translate(30 24)" onmousedown="handlePan(0,-1)">
                  <use xlink:href="#rim" fill="#404040">
                        <set attributeName="fill" to="#808080" begin="arrowUp.mouseover" end="arrowUp.mouseout"/>
                  </use>
                  <path fill="none" stroke="white" stroke-width="1.5" d="M0,-3.0v7 M-2.5,-0.5L0,-3.0L2.5,-0.5"/>
                </g>
                <g id="arrowRight" xlink:href="#dirArrow" transform="rotate(90) translate(36 -43)" onmousedown="handlePan(1,0)">
                  <use xlink:href="#rim" fill="#404040">
                        <set attributeName="fill" to="#808080" begin="arrowRight.mouseover" end="arrowRight.mouseout"/>
                  </use>
                  <path fill="none" stroke="white" stroke-width="1.5" d="M0,-3.0v7 M-2.5,-0.5L0,-3.0L2.5,-0.5"/>
                </g>
                <g id="arrowDown" xlink:href="#dirArrow" transform="rotate(180) translate(-30 -48)" onmousedown="handlePan(0,1)">
                  <use xlink:href="#rim" fill="#404040">
                        <set attributeName="fill" to="#808080" begin="arrowDown.mouseover" end="arrowDown.mouseout"/>
                  </use>
                  <path fill="none" stroke="white" stroke-width="1.5" d="M0,-3.0v7 M-2.5,-0.5L0,-3.0L2.5,-0.5"/>
                </g>
                <g id="arrowLeft" xlink:href="#dirArrow" transform="rotate(270) translate(-36 17)" onmousedown="handlePan(-1,0)">
                  <use xlink:href="#rim" fill="#404040">
                        <set attributeName="fill" to="#808080" begin="arrowLeft.mouseover" end="arrowLeft.mouseout"/>
                  </use>
                  <path fill="none" stroke="white" stroke-width="1.5" d="M0,-3.0v7 M-2.5,-0.5L0,-3.0L2.5,-0.5"/>
                </g>
        </g>
        <svg viewBox="0 0 15 15" width="100%" height="30px" preserveAspectRatio="xMaxYMin meet">
         <g id="arrow_out" transform="scale(0.3 0.3)">
          <a xlink:href="classrc_motion_center_a273af52e033f2463b909179e5343fafb_icgraph_org.svg" target="_base">
           <rect id="button" ry="5" rx="5" y="6" x="6" height="38" width="38"
                fill="#f2f5e9" fill-opacity="0.5" stroke="#606060" stroke-width="1.0"/>
           <path id="arrow"
             d="M 11.500037,31.436501 C 11.940474,20.09759 22.043105,11.32322 32.158766,21.979434 L 37.068811,17.246167 C 37.068811,17.246167 37.088388,32 37.088388,32 L 22.160133,31.978069 C 22.160133,31.978069 26.997745,27.140456 26.997745,27.140456 C 18.528582,18.264221 13.291696,25.230495 11.500037,31.436501 z"
             style="fill:#404040;"/>
          </a>
         </g>
        </svg>
</svg>
