<?xml version="1.0" encoding="UTF-8" standalone="no"?>
<!DOCTYPE svg PUBLIC "-//W3C//DTD SVG 1.1//EN"
 "http://www.w3.org/Graphics/SVG/1.1/DTD/svg11.dtd">
<!-- Generated by graphviz version 2.32.0 (20130916.1925)
 -->
<!-- Title: itext::bytes Pages: 1 -->
<svg width="380pt" height="259pt"
 viewBox="0.00 0.00 380.00 259.00" xmlns="http://www.w3.org/2000/svg" xmlns:xlink="http://www.w3.org/1999/xlink">
<g id="graph0" class="graph" transform="scale(1 1) rotate(0) translate(4 255)">
<title>itext::bytes</title>
<polygon fill="white" stroke="white" points="-4,5 -4,-255 377,-255 377,5 -4,5"/>
<!-- Node1 -->
<g id="node1" class="node"><title>Node1</title>
<polygon fill="#bfbfbf" stroke="black" points="0.101074,-118 0.101074,-138 63.8989,-138 63.8989,-118 0.101074,-118"/>
<text text-anchor="middle" x="32" y="-124" font-family="Helvetica,sans-Serif" font-size="10.00">itext::bytes</text>
</g>
<!-- Node2 -->
<g id="node2" class="node"><title>Node2</title>
<g id="a_node2"><a xlink:href="classsubprocess.html#a573b4926e612d0e50018ef0efcb315e6" target="_top" xlink:title="subprocess::read_stderr">
<polygon fill="white" stroke="black" points="101.084,-231 101.084,-251 224.916,-251 224.916,-231 101.084,-231"/>
<text text-anchor="middle" x="163" y="-237" font-family="Helvetica,sans-Serif" font-size="10.00">subprocess::read_stderr</text>
</a>
</g>
</g>
<!-- Node1&#45;&gt;Node2 -->
<g id="edge1" class="edge"><title>Node1&#45;&gt;Node2</title>
<path fill="none" stroke="midnightblue" d="M42.1458,-147.246C53.0851,-168.283 73.3166,-201.575 100,-221 105.578,-225.061 112.017,-228.321 118.592,-230.933"/>
<polygon fill="midnightblue" stroke="midnightblue" points="45.1354,-145.399 37.5345,-138.018 38.8737,-148.528 45.1354,-145.399"/>
</g>
<!-- Node3 -->
<g id="node3" class="node"><title>Node3</title>
<g id="a_node3"><a xlink:href="classasync__subprocess.html#a1926346152045010c836850c42aa16f5" target="_top" xlink:title="async_subprocess::read\l_stderr">
<polygon fill="white" stroke="black" points="100.803,-180 100.803,-212 225.197,-212 225.197,-180 100.803,-180"/>
<text text-anchor="start" x="108.803" y="-198" font-family="Helvetica,sans-Serif" font-size="10.00">async_subprocess::read</text>
<text text-anchor="middle" x="163" y="-186" font-family="Helvetica,sans-Serif" font-size="10.00">_stderr</text>
</a>
</g>
</g>
<!-- Node1&#45;&gt;Node3 -->
<g id="edge2" class="edge"><title>Node1&#45;&gt;Node3</title>
<path fill="none" stroke="midnightblue" d="M56.0409,-143.748C68.7174,-152.075 84.8983,-162.166 100,-170 106.631,-173.44 113.822,-176.784 120.877,-179.867"/>
<polygon fill="midnightblue" stroke="midnightblue" points="57.7578,-140.686 47.4953,-138.053 53.8761,-146.511 57.7578,-140.686"/>
</g>
<!-- Node4 -->
<g id="node4" class="node"><title>Node4</title>
<g id="a_node4"><a xlink:href="classsubprocess.html#ac0092c704d9c53ee07b57ac649e863d4" target="_top" xlink:title="subprocess::read_stdout">
<polygon fill="white" stroke="black" points="100.244,-141 100.244,-161 225.756,-161 225.756,-141 100.244,-141"/>
<text text-anchor="middle" x="163" y="-147" font-family="Helvetica,sans-Serif" font-size="10.00">subprocess::read_stdout</text>
</a>
</g>
</g>
<!-- Node1&#45;&gt;Node4 -->
<g id="edge3" class="edge"><title>Node1&#45;&gt;Node4</title>
<path fill="none" stroke="midnightblue" d="M74.327,-135.368C84.3657,-137.158 95.2682,-139.102 105.864,-140.991"/>
<polygon fill="midnightblue" stroke="midnightblue" points="74.6864,-131.877 64.2273,-133.568 73.4577,-138.769 74.6864,-131.877"/>
</g>
<!-- Node6 -->
<g id="node6" class="node"><title>Node6</title>
<g id="a_node6"><a xlink:href="classasync__subprocess.html#a7c9c0428798e6c27e5dc32e8946ae451" target="_top" xlink:title="async_subprocess::read\l_stdout">
<polygon fill="white" stroke="black" points="100.803,-90 100.803,-122 225.197,-122 225.197,-90 100.803,-90"/>
<text text-anchor="start" x="108.803" y="-108" font-family="Helvetica,sans-Serif" font-size="10.00">async_subprocess::read</text>
<text text-anchor="middle" x="163" y="-96" font-family="Helvetica,sans-Serif" font-size="10.00">_stdout</text>
</a>
</g>
</g>
<!-- Node1&#45;&gt;Node6 -->
<g id="edge5" class="edge"><title>Node1&#45;&gt;Node6</title>
<path fill="none" stroke="midnightblue" d="M74.1987,-120.974C82.6638,-119.53 91.7474,-117.981 100.747,-116.446"/>
<polygon fill="midnightblue" stroke="midnightblue" points="73.4965,-117.543 64.2273,-122.674 74.6734,-124.443 73.4965,-117.543"/>
</g>
<!-- Node7 -->
<g id="node7" class="node"><title>Node7</title>
<g id="a_node7"><a xlink:href="classsubprocess.html#a892354c73b6356645e9227d1201fc524" target="_top" xlink:title="subprocess::write_stdin">
<polygon fill="white" stroke="black" points="102.754,-51 102.754,-71 223.246,-71 223.246,-51 102.754,-51"/>
<text text-anchor="middle" x="163" y="-57" font-family="Helvetica,sans-Serif" font-size="10.00">subprocess::write_stdin</text>
</a>
</g>
</g>
<!-- Node1&#45;&gt;Node7 -->
<g id="edge6" class="edge"><title>Node1&#45;&gt;Node7</title>
<path fill="none" stroke="midnightblue" d="M53.2217,-111.4C66.0197,-101.523 83.2577,-89.3343 100,-81 107.695,-77.1695 116.285,-73.8506 124.561,-71.0772"/>
<polygon fill="midnightblue" stroke="midnightblue" points="50.808,-108.846 45.1316,-117.792 55.1478,-114.339 50.808,-108.846"/>
</g>
<!-- Node8 -->
<g id="node8" class="node"><title>Node8</title>
<g id="a_node8"><a xlink:href="classasync__subprocess.html#a94f56d9658526c745756918b4da9d68e" target="_top" xlink:title="async_subprocess::write\l_stdin">
<polygon fill="white" stroke="black" points="100.254,-0 100.254,-32 225.746,-32 225.746,-0 100.254,-0"/>
<text text-anchor="start" x="108.254" y="-18" font-family="Helvetica,sans-Serif" font-size="10.00">async_subprocess::write</text>
<text text-anchor="middle" x="163" y="-6" font-family="Helvetica,sans-Serif" font-size="10.00">_stdin</text>
</a>
</g>
</g>
<!-- Node1&#45;&gt;Node8 -->
<g id="edge7" class="edge"><title>Node1&#45;&gt;Node8</title>
<path fill="none" stroke="midnightblue" d="M43.6844,-109.153C55.365,-90.0046 75.6946,-60.593 100,-42 104.913,-38.2414 110.45,-34.9247 116.141,-32.028"/>
<polygon fill="midnightblue" stroke="midnightblue" points="40.6028,-107.488 38.5273,-117.877 46.6288,-111.05 40.6028,-107.488"/>
</g>
<!-- Node5 -->
<g id="node5" class="node"><title>Node5</title>
<g id="a_node5"><a xlink:href="classbacktick__subprocess.html#a52cf56592ab0f1cb20e0cb9e88c4b0f3" target="_top" xlink:title="backtick_subprocess\l::callback">
<polygon fill="white" stroke="black" points="262.589,-135 262.589,-167 371.411,-167 371.411,-135 262.589,-135"/>
<text text-anchor="start" x="270.589" y="-153" font-family="Helvetica,sans-Serif" font-size="10.00">backtick_subprocess</text>
<text text-anchor="middle" x="317" y="-141" font-family="Helvetica,sans-Serif" font-size="10.00">::callback</text>
</a>
</g>
</g>
<!-- Node4&#45;&gt;Node5 -->
<g id="edge4" class="edge"><title>Node4&#45;&gt;Node5</title>
<path fill="none" stroke="midnightblue" d="M235.889,-151C244.855,-151 253.899,-151 262.517,-151"/>
<polygon fill="midnightblue" stroke="midnightblue" points="235.824,-147.5 225.824,-151 235.824,-154.5 235.824,-147.5"/>
</g>
</g>
</svg>
