<?xml version="1.0" encoding="UTF-8" standalone="no"?>
<!DOCTYPE svg PUBLIC "-//W3C//DTD SVG 1.1//EN"
 "http://www.w3.org/Graphics/SVG/1.1/DTD/svg11.dtd">
<!-- Generated by graphviz version 2.32.0 (20130916.1925)
 -->
<!-- Title: rcKinetoscope::pframe Pages: 1 -->
<svg width="798pt" height="40pt"
 viewBox="0.00 0.00 798.00 40.00" xmlns="http://www.w3.org/2000/svg" xmlns:xlink="http://www.w3.org/1999/xlink">
<g id="graph0" class="graph" transform="scale(1 1) rotate(0) translate(4 36)">
<title>rcKinetoscope::pframe</title>
<polygon fill="white" stroke="white" points="-4,5 -4,-36 795,-36 795,5 -4,5"/>
<!-- Node1 -->
<g id="node1" class="node"><title>Node1</title>
<polygon fill="#bfbfbf" stroke="black" points="-0.0244141,-6 -0.0244141,-26 116.024,-26 116.024,-6 -0.0244141,-6"/>
<text text-anchor="middle" x="58" y="-12" font-family="Helvetica,sans-Serif" font-size="10.00">rcKinetoscope::pframe</text>
</g>
<!-- Node2 -->
<g id="node2" class="node"><title>Node2</title>
<g id="a_node2"><a xlink:href="classrc_kinetoscope.html#afe805a453ae10008a433841fa9c8ad1e" target="_top" xlink:title="rcKinetoscope::selfSimilar\lMotionField_AttentiveCapture">
<polygon fill="white" stroke="black" points="152.131,-0 152.131,-32 299.869,-32 299.869,-0 152.131,-0"/>
<text text-anchor="start" x="160.131" y="-18" font-family="Helvetica,sans-Serif" font-size="10.00">rcKinetoscope::selfSimilar</text>
<text text-anchor="middle" x="226" y="-6" font-family="Helvetica,sans-Serif" font-size="10.00">MotionField_AttentiveCapture</text>
</a>
</g>
</g>
<!-- Node1&#45;&gt;Node2 -->
<g id="edge1" class="edge"><title>Node1&#45;&gt;Node2</title>
<path fill="none" stroke="midnightblue" d="M126.292,-16C134.737,-16 143.407,-16 151.935,-16"/>
<polygon fill="midnightblue" stroke="midnightblue" points="126.128,-12.5001 116.128,-16 126.128,-19.5001 126.128,-12.5001"/>
</g>
<!-- Node3 -->
<g id="node3" class="node"><title>Node3</title>
<g id="a_node3"><a xlink:href="classrc_kinetoscope.html#a0b18f2bfdf0f15e136add61040f57f62" target="_top" xlink:title="rcKinetoscope::selfSimilar\lMotionField">
<polygon fill="white" stroke="black" points="336.478,-0 336.478,-32 467.522,-32 467.522,-0 336.478,-0"/>
<text text-anchor="start" x="344.478" y="-18" font-family="Helvetica,sans-Serif" font-size="10.00">rcKinetoscope::selfSimilar</text>
<text text-anchor="middle" x="402" y="-6" font-family="Helvetica,sans-Serif" font-size="10.00">MotionField</text>
</a>
</g>
</g>
<!-- Node2&#45;&gt;Node3 -->
<g id="edge2" class="edge"><title>Node2&#45;&gt;Node3</title>
<path fill="none" stroke="midnightblue" d="M310.303,-16C319.087,-16 327.922,-16 336.447,-16"/>
<polygon fill="midnightblue" stroke="midnightblue" points="310.035,-12.5001 300.035,-16 310.035,-19.5001 310.035,-12.5001"/>
</g>
<!-- Node4 -->
<g id="node4" class="node"><title>Node4</title>
<g id="a_node4"><a xlink:href="classrc_kinetoscope.html#a30274b84c57f86e667b614556f6c569b" target="_top" xlink:title="rcKinetoscope::step">
<polygon fill="white" stroke="black" points="504.086,-6 504.086,-26 607.914,-26 607.914,-6 504.086,-6"/>
<text text-anchor="middle" x="556" y="-12" font-family="Helvetica,sans-Serif" font-size="10.00">rcKinetoscope::step</text>
</a>
</g>
</g>
<!-- Node3&#45;&gt;Node4 -->
<g id="edge3" class="edge"><title>Node3&#45;&gt;Node4</title>
<path fill="none" stroke="midnightblue" d="M478.04,-16C486.706,-16 495.388,-16 503.636,-16"/>
<polygon fill="midnightblue" stroke="midnightblue" points="477.903,-12.5001 467.903,-16 477.903,-19.5001 477.903,-12.5001"/>
</g>
<!-- Node5 -->
<g id="node5" class="node"><title>Node5</title>
<g id="a_node5"><a xlink:href="classrc_engine_impl.html#a00ca0d227e480ddb5bd6be293b55d2c9" target="_top" xlink:title="rcEngineImpl::muscleTracker">
<polygon fill="white" stroke="black" points="644.442,-6 644.442,-26 789.558,-26 789.558,-6 644.442,-6"/>
<text text-anchor="middle" x="717" y="-12" font-family="Helvetica,sans-Serif" font-size="10.00">rcEngineImpl::muscleTracker</text>
</a>
</g>
</g>
<!-- Node4&#45;&gt;Node5 -->
<g id="edge4" class="edge"><title>Node4&#45;&gt;Node5</title>
<path fill="none" stroke="midnightblue" d="M618.383,-16C626.886,-16 635.682,-16 644.351,-16"/>
<polygon fill="midnightblue" stroke="midnightblue" points="618.184,-12.5001 608.184,-16 618.184,-19.5001 618.184,-12.5001"/>
</g>
</g>
</svg>
