<?xml version="1.0" encoding="UTF-8" standalone="no"?>
<!DOCTYPE svg PUBLIC "-//W3C//DTD SVG 1.1//EN"
 "http://www.w3.org/Graphics/SVG/1.1/DTD/svg11.dtd">
<!-- Generated by graphviz version 2.32.0 (20130916.1925)
 -->
<!-- Title: otext::open Pages: 1 -->
<svg width="312pt" height="184pt"
 viewBox="0.00 0.00 312.00 184.00" xmlns="http://www.w3.org/2000/svg" xmlns:xlink="http://www.w3.org/1999/xlink">
<g id="graph0" class="graph" transform="scale(1 1) rotate(0) translate(4 180)">
<title>otext::open</title>
<polygon fill="white" stroke="white" points="-4,5 -4,-180 309,-180 309,5 -4,5"/>
<!-- Node1 -->
<g id="node1" class="node"><title>Node1</title>
<polygon fill="#bfbfbf" stroke="black" points="0.258789,-78 0.258789,-98 65.7412,-98 65.7412,-78 0.258789,-78"/>
<text text-anchor="middle" x="33" y="-84" font-family="Helvetica,sans-Serif" font-size="10.00">otext::open</text>
</g>
<!-- Node2 -->
<g id="node2" class="node"><title>Node2</title>
<g id="a_node2"><a xlink:href="classoiotext.html#af5edbefbe8c9723269fc30be6d6a86eb" target="_top" xlink:title="oiotext::open">
<polygon fill="white" stroke="black" points="108.367,-156 108.367,-176 181.633,-176 181.633,-156 108.367,-156"/>
<text text-anchor="middle" x="145" y="-162" font-family="Helvetica,sans-Serif" font-size="10.00">oiotext::open</text>
</a>
</g>
</g>
<!-- Node1&#45;&gt;Node2 -->
<g id="edge1" class="edge"><title>Node1&#45;&gt;Node2</title>
<path fill="none" stroke="midnightblue" d="M51.7865,-105.448C64.9376,-117.761 83.672,-134.115 102,-146 107.556,-149.603 113.862,-152.95 119.868,-155.835"/>
<polygon fill="midnightblue" stroke="midnightblue" points="54.0259,-102.747 44.3732,-98.3797 49.1954,-107.814 54.0259,-102.747"/>
</g>
<!-- Node4 -->
<g id="node4" class="node"><title>Node4</title>
<g id="a_node4"><a xlink:href="classomtext.html#ac8a7eb8745dd3667a8766b4e7a1e5290" target="_top" xlink:title="omtext::open">
<polygon fill="white" stroke="black" points="108.094,-117 108.094,-137 181.906,-137 181.906,-117 108.094,-117"/>
<text text-anchor="middle" x="145" y="-123" font-family="Helvetica,sans-Serif" font-size="10.00">omtext::open</text>
</a>
</g>
</g>
<!-- Node1&#45;&gt;Node4 -->
<g id="edge3" class="edge"><title>Node1&#45;&gt;Node4</title>
<path fill="none" stroke="midnightblue" d="M71.9522,-101.456C86.3322,-106.554 102.438,-112.264 115.768,-116.991"/>
<polygon fill="midnightblue" stroke="midnightblue" points="72.9225,-98.0864 62.3277,-98.0435 70.5833,-104.684 72.9225,-98.0864"/>
</g>
<!-- Node5 -->
<g id="node5" class="node"><title>Node5</title>
<g id="a_node5"><a xlink:href="classoftext.html#ae34447891357b7aa8ad6cd624e0932ba" target="_top" xlink:title="oftext::open">
<polygon fill="white" stroke="black" points="110.87,-78 110.87,-98 179.13,-98 179.13,-78 110.87,-78"/>
<text text-anchor="middle" x="145" y="-84" font-family="Helvetica,sans-Serif" font-size="10.00">oftext::open</text>
</a>
</g>
</g>
<!-- Node1&#45;&gt;Node5 -->
<g id="edge4" class="edge"><title>Node1&#45;&gt;Node5</title>
<path fill="none" stroke="midnightblue" d="M76.0684,-88C87.5424,-88 99.8125,-88 110.724,-88"/>
<polygon fill="midnightblue" stroke="midnightblue" points="75.8166,-84.5001 65.8166,-88 75.8165,-91.5001 75.8166,-84.5001"/>
</g>
<!-- Node6 -->
<g id="node6" class="node"><title>Node6</title>
<g id="a_node6"><a xlink:href="classotext.html#af5633471508cf25975f744cc9092307f" target="_top" xlink:title="otext::operator=">
<polygon fill="white" stroke="black" points="101.839,-39 101.839,-59 188.161,-59 188.161,-39 101.839,-39"/>
<text text-anchor="middle" x="145" y="-45" font-family="Helvetica,sans-Serif" font-size="10.00">otext::operator=</text>
</a>
</g>
</g>
<!-- Node1&#45;&gt;Node6 -->
<g id="edge5" class="edge"><title>Node1&#45;&gt;Node6</title>
<path fill="none" stroke="midnightblue" d="M71.9522,-74.5442C86.3322,-69.4459 102.438,-63.7358 115.768,-59.0094"/>
<polygon fill="midnightblue" stroke="midnightblue" points="70.5833,-71.316 62.3277,-77.9565 72.9225,-77.9136 70.5833,-71.316"/>
</g>
<!-- Node7 -->
<g id="node7" class="node"><title>Node7</title>
<g id="a_node7"><a xlink:href="classotext.html#a5fa722052c88d7acf575749d6ff457de" target="_top" xlink:title="otext::otext">
<polygon fill="white" stroke="black" points="112.542,-0 112.542,-20 177.458,-20 177.458,-0 112.542,-0"/>
<text text-anchor="middle" x="145" y="-6" font-family="Helvetica,sans-Serif" font-size="10.00">otext::otext</text>
</a>
</g>
</g>
<!-- Node1&#45;&gt;Node7 -->
<g id="edge6" class="edge"><title>Node1&#45;&gt;Node7</title>
<path fill="none" stroke="midnightblue" d="M51.7865,-70.552C64.9376,-58.239 83.672,-41.8854 102,-30 107.556,-26.3968 113.862,-23.0498 119.868,-20.1647"/>
<polygon fill="midnightblue" stroke="midnightblue" points="49.1954,-68.1865 44.3732,-77.6203 54.0259,-73.2527 49.1954,-68.1865"/>
</g>
<!-- Node3 -->
<g id="node3" class="node"><title>Node3</title>
<g id="a_node3"><a xlink:href="classoiotext.html#ab5dc8e26bd358f6b60652891dac068aa" target="_top" xlink:title="oiotext::oiotext">
<polygon fill="white" stroke="black" points="223.759,-156 223.759,-176 304.241,-176 304.241,-156 223.759,-156"/>
<text text-anchor="middle" x="264" y="-162" font-family="Helvetica,sans-Serif" font-size="10.00">oiotext::oiotext</text>
</a>
</g>
</g>
<!-- Node2&#45;&gt;Node3 -->
<g id="edge2" class="edge"><title>Node2&#45;&gt;Node3</title>
<path fill="none" stroke="midnightblue" d="M191.908,-166C202.315,-166 213.28,-166 223.399,-166"/>
<polygon fill="midnightblue" stroke="midnightblue" points="191.74,-162.5 181.74,-166 191.74,-169.5 191.74,-162.5"/>
</g>
</g>
</svg>
