<?xml version="1.0" encoding="UTF-8" standalone="no"?>
<!DOCTYPE svg PUBLIC "-//W3C//DTD SVG 1.1//EN"
 "http://www.w3.org/Graphics/SVG/1.1/DTD/svg11.dtd">
<!-- Generated by graphviz version 2.32.0 (20130916.1925)
 -->
<!-- Title: rcLevelSets::threshold Pages: 1 -->
<svg width="610pt" height="85pt"
 viewBox="0.00 0.00 610.00 85.00" xmlns="http://www.w3.org/2000/svg" xmlns:xlink="http://www.w3.org/1999/xlink">
<g id="graph0" class="graph" transform="scale(1 1) rotate(0) translate(4 81)">
<title>rcLevelSets::threshold</title>
<polygon fill="white" stroke="white" points="-4,5 -4,-81 607,-81 607,5 -4,5"/>
<!-- Node1 -->
<g id="node1" class="node"><title>Node1</title>
<polygon fill="#bfbfbf" stroke="black" points="0.529785,-31 0.529785,-51 115.47,-51 115.47,-31 0.529785,-31"/>
<text text-anchor="middle" x="58" y="-37" font-family="Helvetica,sans-Serif" font-size="10.00">rcLevelSets::threshold</text>
</g>
<!-- Node2 -->
<g id="node2" class="node"><title>Node2</title>
<g id="a_node2"><a xlink:href="classrc_mutual_info_grouping.html#a1ea47fe6c2b9ef46c1fb92d239b85d23" target="_top" xlink:title="rcMutualInfoGrouping\l::rcMutualInfoGrouping">
<polygon fill="white" stroke="black" points="302.141,-45 302.141,-77 419.859,-77 419.859,-45 302.141,-45"/>
<text text-anchor="start" x="310.141" y="-63" font-family="Helvetica,sans-Serif" font-size="10.00">rcMutualInfoGrouping</text>
<text text-anchor="middle" x="361" y="-51" font-family="Helvetica,sans-Serif" font-size="10.00">::rcMutualInfoGrouping</text>
</a>
</g>
</g>
<!-- Node1&#45;&gt;Node2 -->
<g id="edge1" class="edge"><title>Node1&#45;&gt;Node2</title>
<path fill="none" stroke="midnightblue" d="M125.904,-45.4455C178.751,-48.9569 251.74,-53.8066 302.101,-57.1529"/>
<polygon fill="midnightblue" stroke="midnightblue" points="125.826,-41.9326 115.616,-44.7618 125.362,-48.9172 125.826,-41.9326"/>
</g>
<!-- Node3 -->
<g id="node3" class="node"><title>Node3</title>
<g id="a_node3"><a xlink:href="classrc_level_sets.html#a60d23979e3807f0f6ccf81d8eeb003d0" target="_top" xlink:title="rcLevelSets::update">
<polygon fill="white" stroke="black" points="151.806,-12 151.806,-32 256.194,-32 256.194,-12 151.806,-12"/>
<text text-anchor="middle" x="204" y="-18" font-family="Helvetica,sans-Serif" font-size="10.00">rcLevelSets::update</text>
</a>
</g>
</g>
<!-- Node1&#45;&gt;Node3 -->
<g id="edge2" class="edge"><title>Node1&#45;&gt;Node3</title>
<path fill="none" stroke="midnightblue" d="M125.58,-32.2151C134.235,-31.0732 142.994,-29.9175 151.354,-28.8144"/>
<polygon fill="midnightblue" stroke="midnightblue" points="124.956,-28.7671 115.499,-33.5452 125.871,-35.707 124.956,-28.7671"/>
</g>
<!-- Node3&#45;&gt;Node2 -->
<g id="edge5" class="edge"><title>Node3&#45;&gt;Node2</title>
<path fill="none" stroke="midnightblue" d="M255.023,-34.5865C270.035,-38.3636 286.626,-42.5381 302.101,-46.4319"/>
<polygon fill="midnightblue" stroke="midnightblue" points="255.468,-31.0894 244.916,-32.0435 253.76,-37.8778 255.468,-31.0894"/>
</g>
<!-- Node4 -->
<g id="node4" class="node"><title>Node4</title>
<g id="a_node4"><a xlink:href="classrc_within_group_inv.html#aaf4bbbd26f42a7667fda3fb65e4bb00e" target="_top" xlink:title="rcWithinGroupInv::compute">
<polygon fill="white" stroke="black" points="292.421,-6 292.421,-26 429.579,-26 429.579,-6 292.421,-6"/>
<text text-anchor="middle" x="361" y="-12" font-family="Helvetica,sans-Serif" font-size="10.00">rcWithinGroupInv::compute</text>
</a>
</g>
</g>
<!-- Node3&#45;&gt;Node4 -->
<g id="edge3" class="edge"><title>Node3&#45;&gt;Node4</title>
<path fill="none" stroke="midnightblue" d="M266.726,-19.6106C275.146,-19.2847 283.825,-18.9487 292.342,-18.619"/>
<polygon fill="midnightblue" stroke="midnightblue" points="266.47,-16.1178 256.613,-20.0021 266.741,-23.1126 266.47,-16.1178"/>
</g>
<!-- Node5 -->
<g id="node5" class="node"><title>Node5</title>
<g id="a_node5"><a xlink:href="classrc_within_group_inv.html#a8ea1d28080182301cf16039b6c7a0a1d" target="_top" xlink:title="rcWithinGroupInv::rcWithin\lGroupInv">
<polygon fill="white" stroke="black" points="466.542,-0 466.542,-32 601.458,-32 601.458,-0 466.542,-0"/>
<text text-anchor="start" x="474.542" y="-18" font-family="Helvetica,sans-Serif" font-size="10.00">rcWithinGroupInv::rcWithin</text>
<text text-anchor="middle" x="534" y="-6" font-family="Helvetica,sans-Serif" font-size="10.00">GroupInv</text>
</a>
</g>
</g>
<!-- Node4&#45;&gt;Node5 -->
<g id="edge4" class="edge"><title>Node4&#45;&gt;Node5</title>
<path fill="none" stroke="midnightblue" d="M439.631,-16C448.593,-16 457.67,-16 466.466,-16"/>
<polygon fill="midnightblue" stroke="midnightblue" points="439.584,-12.5001 429.584,-16 439.584,-19.5001 439.584,-12.5001"/>
</g>
</g>
</svg>
