<?xml version="1.0" encoding="UTF-8" standalone="no"?>
<!DOCTYPE svg PUBLIC "-//W3C//DTD SVG 1.1//EN"
 "http://www.w3.org/Graphics/SVG/1.1/DTD/svg11.dtd">
<!-- Generated by graphviz version 2.32.0 (20130916.1925)
 -->
<!-- Title: rcMPEG2Grabber Pages: 1 -->
<svg width="623pt" height="206pt"
 viewBox="0.00 0.00 623.00 206.00" xmlns="http://www.w3.org/2000/svg" xmlns:xlink="http://www.w3.org/1999/xlink">
<g id="graph0" class="graph" transform="scale(1 1) rotate(0) translate(4 202)">
<title>rcMPEG2Grabber</title>
<polygon fill="white" stroke="white" points="-4,5 -4,-202 620,-202 620,5 -4,5"/>
<!-- Node1 -->
<g id="node1" class="node"><title>Node1</title>
<polygon fill="#bfbfbf" stroke="black" points="291.988,-1 291.988,-21 388.012,-21 388.012,-1 291.988,-1"/>
<text text-anchor="middle" x="340" y="-7" font-family="Helvetica,sans-Serif" font-size="10.00">rcMPEG2Grabber</text>
</g>
<!-- Node2 -->
<g id="node2" class="node"><title>Node2</title>
<g id="a_node2"><a xlink:href="classrc_file_grabber.html" target="_top" xlink:title="rcFileGrabber">
<polygon fill="white" stroke="black" points="107.436,-71 107.436,-91 184.564,-91 184.564,-71 107.436,-71"/>
<text text-anchor="middle" x="146" y="-77" font-family="Helvetica,sans-Serif" font-size="10.00">rcFileGrabber</text>
</a>
</g>
</g>
<!-- Node2&#45;&gt;Node1 -->
<g id="edge1" class="edge"><title>Node2&#45;&gt;Node1</title>
<path fill="none" stroke="midnightblue" d="M181.485,-67.5621C219.831,-54.1209 280.016,-33.0253 314.132,-21.0672"/>
<polygon fill="midnightblue" stroke="midnightblue" points="180.041,-64.3592 171.762,-70.9701 182.357,-70.9652 180.041,-64.3592"/>
</g>
<!-- Node3 -->
<g id="node3" class="node"><title>Node3</title>
<g id="a_node3"><a xlink:href="classrc_frame_grabber.html" target="_top" xlink:title="rcFrameGrabber">
<polygon fill="white" stroke="black" points="-0.953125,-177 -0.953125,-197 88.9531,-197 88.9531,-177 -0.953125,-177"/>
<text text-anchor="middle" x="44" y="-183" font-family="Helvetica,sans-Serif" font-size="10.00">rcFrameGrabber</text>
</a>
</g>
</g>
<!-- Node3&#45;&gt;Node2 -->
<g id="edge2" class="edge"><title>Node3&#45;&gt;Node2</title>
<path fill="none" stroke="midnightblue" d="M60.2838,-169.397C82.0756,-147.178 119.964,-108.546 137.114,-91.0601"/>
<polygon fill="midnightblue" stroke="midnightblue" points="57.5551,-167.181 53.0518,-176.771 62.5527,-172.082 57.5551,-167.181"/>
</g>
<!-- Node4 -->
<g id="node4" class="node"><title>Node4</title>
<g id="a_node4"><a xlink:href="classrc_carbon_lock.html" target="_top" xlink:title="rcCarbonLock">
<polygon fill="white" stroke="black" points="106.875,-177 106.875,-197 185.125,-197 185.125,-177 106.875,-177"/>
<text text-anchor="middle" x="146" y="-183" font-family="Helvetica,sans-Serif" font-size="10.00">rcCarbonLock</text>
</a>
</g>
</g>
<!-- Node4&#45;&gt;Node2 -->
<g id="edge3" class="edge"><title>Node4&#45;&gt;Node2</title>
<path fill="none" stroke="#9a32cd" stroke-dasharray="5,2" d="M146,-166.691C146,-144.161 146,-107.856 146,-91.0601"/>
<polygon fill="#9a32cd" stroke="#9a32cd" points="142.5,-166.771 146,-176.771 149.5,-166.771 142.5,-166.771"/>
<text text-anchor="middle" x="178.515" y="-130" font-family="Helvetica,sans-Serif" font-size="10.00"> mCarbonLock</text>
</g>
<!-- Node5 -->
<g id="node5" class="node"><title>Node5</title>
<g id="a_node5"><a xlink:href="structmpeg2__info__s.html" target="_top" xlink:title="mpeg2_info_s">
<polygon fill="white" stroke="black" points="300.589,-71 300.589,-91 379.411,-91 379.411,-71 300.589,-71"/>
<text text-anchor="middle" x="340" y="-77" font-family="Helvetica,sans-Serif" font-size="10.00">mpeg2_info_s</text>
</a>
</g>
</g>
<!-- Node5&#45;&gt;Node1 -->
<g id="edge4" class="edge"><title>Node5&#45;&gt;Node1</title>
<path fill="none" stroke="#9a32cd" stroke-dasharray="5,2" d="M340,-60.5567C340,-47.557 340,-31.0574 340,-21.0255"/>
<polygon fill="#9a32cd" stroke="#9a32cd" points="336.5,-60.8292 340,-70.8292 343.5,-60.8293 336.5,-60.8292"/>
<text text-anchor="middle" x="353.894" y="-42" font-family="Helvetica,sans-Serif" font-size="10.00"> mInfo</text>
</g>
<!-- Node6 -->
<g id="node6" class="node"><title>Node6</title>
<g id="a_node6"><a xlink:href="structmpeg2__fbuf__s.html" target="_top" xlink:title="mpeg2_fbuf_s">
<polygon fill="white" stroke="black" points="203.311,-177 203.311,-197 282.689,-197 282.689,-177 203.311,-177"/>
<text text-anchor="middle" x="243" y="-183" font-family="Helvetica,sans-Serif" font-size="10.00">mpeg2_fbuf_s</text>
</a>
</g>
</g>
<!-- Node6&#45;&gt;Node5 -->
<g id="edge5" class="edge"><title>Node6&#45;&gt;Node5</title>
<path fill="none" stroke="#9a32cd" stroke-dasharray="5,2" d="M248.201,-167.035C253.663,-150.195 263.736,-125.864 279.853,-110 288.39,-101.597 299.917,-95.4001 310.596,-91.0039"/>
<polygon fill="#9a32cd" stroke="#9a32cd" points="244.776,-166.271 245.261,-176.855 251.482,-168.28 244.776,-166.271"/>
<text text-anchor="middle" x="308.074" y="-142" font-family="Helvetica,sans-Serif" font-size="10.00"> display_fbuf</text>
<text text-anchor="middle" x="308.074" y="-130" font-family="Helvetica,sans-Serif" font-size="10.00">current_fbuf</text>
<text text-anchor="middle" x="308.074" y="-118" font-family="Helvetica,sans-Serif" font-size="10.00">discard_fbuf</text>
</g>
<!-- Node7 -->
<g id="node7" class="node"><title>Node7</title>
<g id="a_node7"><a xlink:href="structmpeg2__gop__s.html" target="_top" xlink:title="mpeg2_gop_s">
<polygon fill="white" stroke="black" points="300.308,-177 300.308,-197 379.692,-197 379.692,-177 300.308,-177"/>
<text text-anchor="middle" x="340" y="-183" font-family="Helvetica,sans-Serif" font-size="10.00">mpeg2_gop_s</text>
</a>
</g>
</g>
<!-- Node7&#45;&gt;Node5 -->
<g id="edge6" class="edge"><title>Node7&#45;&gt;Node5</title>
<path fill="none" stroke="#9a32cd" stroke-dasharray="5,2" d="M340,-166.691C340,-144.161 340,-107.856 340,-91.0601"/>
<polygon fill="#9a32cd" stroke="#9a32cd" points="336.5,-166.771 340,-176.771 343.5,-166.771 336.5,-166.771"/>
<text text-anchor="middle" x="349.731" y="-130" font-family="Helvetica,sans-Serif" font-size="10.00"> gop</text>
</g>
<!-- Node8 -->
<g id="node8" class="node"><title>Node8</title>
<g id="a_node8"><a xlink:href="structmpeg2__picture__s.html" target="_top" xlink:title="mpeg2_picture_s">
<polygon fill="white" stroke="black" points="397.643,-177 397.643,-197 490.357,-197 490.357,-177 397.643,-177"/>
<text text-anchor="middle" x="444" y="-183" font-family="Helvetica,sans-Serif" font-size="10.00">mpeg2_picture_s</text>
</a>
</g>
</g>
<!-- Node8&#45;&gt;Node5 -->
<g id="edge7" class="edge"><title>Node8&#45;&gt;Node5</title>
<path fill="none" stroke="#9a32cd" stroke-dasharray="5,2" d="M427.688,-169.688C405.517,-147.517 366.623,-108.623 349.06,-91.0601"/>
<polygon fill="#9a32cd" stroke="#9a32cd" points="425.225,-172.174 434.771,-176.771 430.174,-167.225 425.225,-172.174"/>
<text text-anchor="middle" x="458.475" y="-148" font-family="Helvetica,sans-Serif" font-size="10.00"> current_picture</text>
<text text-anchor="middle" x="458.475" y="-136" font-family="Helvetica,sans-Serif" font-size="10.00">display_picture</text>
<text text-anchor="middle" x="458.475" y="-124" font-family="Helvetica,sans-Serif" font-size="10.00">display_picture_2nd</text>
<text text-anchor="middle" x="458.475" y="-112" font-family="Helvetica,sans-Serif" font-size="10.00">current_picture_2nd</text>
</g>
<!-- Node9 -->
<g id="node9" class="node"><title>Node9</title>
<g id="a_node9"><a xlink:href="structmpeg2__sequence__s.html" target="_top" xlink:title="mpeg2_sequence_s">
<polygon fill="white" stroke="black" points="507.966,-177 507.966,-197 614.034,-197 614.034,-177 507.966,-177"/>
<text text-anchor="middle" x="561" y="-183" font-family="Helvetica,sans-Serif" font-size="10.00">mpeg2_sequence_s</text>
</a>
</g>
</g>
<!-- Node9&#45;&gt;Node5 -->
<g id="edge8" class="edge"><title>Node9&#45;&gt;Node5</title>
<path fill="none" stroke="#9a32cd" stroke-dasharray="5,2" d="M553.046,-167.822C544.243,-150.013 528.294,-123.622 506,-110 461.106,-82.5678 440.79,-101.263 389,-92 385.923,-91.4497 382.743,-90.8564 379.549,-90.2431"/>
<polygon fill="#9a32cd" stroke="#9a32cd" points="549.895,-169.346 557.297,-176.926 556.238,-166.385 549.895,-169.346"/>
<text text-anchor="middle" x="570.074" y="-130" font-family="Helvetica,sans-Serif" font-size="10.00"> sequence</text>
</g>
<!-- Node10 -->
<g id="node10" class="node"><title>Node10</title>
<g id="a_node10"><a xlink:href="structrc_m_p_e_g2_grabber_1_1fbuf__s.html" target="_top" xlink:title="rcMPEG2Grabber::fbuf_s">
<polygon fill="white" stroke="black" points="397.589,-71 397.589,-91 526.411,-91 526.411,-71 397.589,-71"/>
<text text-anchor="middle" x="462" y="-77" font-family="Helvetica,sans-Serif" font-size="10.00">rcMPEG2Grabber::fbuf_s</text>
</a>
</g>
</g>
<!-- Node10&#45;&gt;Node1 -->
<g id="edge9" class="edge"><title>Node10&#45;&gt;Node1</title>
<path fill="none" stroke="#9a32cd" stroke-dasharray="5,2" d="M436.856,-65.9851C412.695,-52.5185 376.9,-32.5674 356.268,-21.0672"/>
<polygon fill="#9a32cd" stroke="#9a32cd" points="435.36,-69.1587 445.799,-70.9701 438.769,-63.0443 435.36,-69.1587"/>
<text text-anchor="middle" x="418.729" y="-42" font-family="Helvetica,sans-Serif" font-size="10.00"> fbuf</text>
</g>
</g>
</svg>
