<?xml version="1.0" encoding="UTF-8" standalone="no"?>
<!DOCTYPE svg PUBLIC "-//W3C//DTD SVG 1.1//EN"
 "http://www.w3.org/Graphics/SVG/1.1/DTD/svg11.dtd">
<!-- Generated by graphviz version 2.32.0 (20130916.1925)
 -->
<!-- Title: inf::positive Pages: 1 -->
<!--zoomable 413 -->
<svg id="main" version="1.1" xmlns="http://www.w3.org/2000/svg" xmlns:xlink="http://www.w3.org/1999/xlink" xml:space="preserve" onload="init(evt)">
        <defs>
                <circle id="rim" cx="0" cy="0" r="7"/>
                <circle id="rim2" cx="0" cy="0" r="3.5"/>
                <g id="zoomPlus">
                        <use xlink:href="#rim" fill="#404040">
                                <set attributeName="fill" to="#808080" begin="zoomplus.mouseover" end="zoomplus.mouseout"/>
                        </use>
                        <path d="M-4,0h8M0,-4v8" fill="none" stroke="white" stroke-width="1.5" pointer-events="none"/>
                </g>
                <g id="zoomMin">
                        <use xlink:href="#rim" fill="#404040">
                                <set attributeName="fill" to="#808080" begin="zoomminus.mouseover" end="zoomminus.mouseout"/>
                        </use>
                        <path d="M-4,0h8" fill="none" stroke="white" stroke-width="1.5" pointer-events="none"/>
                </g>
                <g id="dirArrow">
                        <path fill="none" stroke="white" stroke-width="1.5" d="M0,-3.0v7 M-2.5,-0.5L0,-3.0L2.5,-0.5"/>
                </g>
               <g id="resetDef">
                       <use xlink:href="#rim2" fill="#404040">
                               <set attributeName="fill" to="#808080" begin="reset.mouseover" end="reset.mouseout"/>
                       </use>
               </g>
        </defs>

<script type="text/javascript">
var viewWidth = 1318;
var viewHeight = 413;
var sectionId = 'dynsection-52';
</script>
<script xlink:href="svgpan.js"/>
<svg id="graph" class="graph">
<g id="viewport">
<title>inf::positive</title>
<polygon fill="white" stroke="white" points="-4,5 -4,-408.811 1315,-408.811 1315,5 -4,5"/>
<!-- Node1 -->
<g id="node1" class="node"><title>Node1</title>
<polygon fill="#bfbfbf" stroke="black" points="-0.012207,-285.811 -0.012207,-305.811 66.0122,-305.811 66.0122,-285.811 -0.012207,-285.811"/>
<text text-anchor="middle" x="33" y="-291.811" font-family="Helvetica,sans-Serif" font-size="10.00">inf::positive</text>
</g>
<!-- Node2 -->
<g id="node2" class="node"><title>Node2</title>
<g id="a_node2"><a xlink:href="classinf.html#a7947c5b1c06619822bb15d4d2b70f64b" target="_top" xlink:title="inf::natural">
<polygon fill="white" stroke="black" points="102.653,-305.811 102.653,-325.811 165.347,-325.811 165.347,-305.811 102.653,-305.811"/>
<text text-anchor="middle" x="134" y="-311.811" font-family="Helvetica,sans-Serif" font-size="10.00">inf::natural</text>
</a>
</g>
</g>
<!-- Node1&#45;&gt;Node2 -->
<g id="edge1" class="edge"><title>Node1&#45;&gt;Node2</title>
<path fill="none" stroke="midnightblue" d="M66.1425,-302.304C74.502,-303.993 83.6178,-305.834 92.3534,-307.599"/>
<polygon fill="midnightblue" stroke="midnightblue" points="91.8703,-311.072 102.365,-309.622 93.2565,-304.211 91.8703,-311.072"/>
</g>
<!-- Node25 -->
<g id="node25" class="node"><title>Node25</title>
<g id="a_node25"><a xlink:href="classinf.html#add701530de8480512a2008dfa6d8704c" target="_top" xlink:title="inf::zero">
<polygon fill="white" stroke="black" points="108.214,-266.811 108.214,-286.811 159.786,-286.811 159.786,-266.811 108.214,-266.811"/>
<text text-anchor="middle" x="134" y="-272.811" font-family="Helvetica,sans-Serif" font-size="10.00">inf::zero</text>
</a>
</g>
</g>
<!-- Node1&#45;&gt;Node25 -->
<g id="edge35" class="edge"><title>Node1&#45;&gt;Node25</title>
<path fill="none" stroke="midnightblue" d="M66.1425,-289.642C76.3052,-287.691 87.5856,-285.526 97.9417,-283.539"/>
<polygon fill="midnightblue" stroke="midnightblue" points="98.7531,-286.947 107.914,-281.625 97.4337,-280.073 98.7531,-286.947"/>
</g>
<!-- Node3 -->
<g id="node3" class="node"><title>Node3</title>
<g id="a_node3"><a xlink:href="classinf.html#a384aa051f74e75c1c2cc5968e55fba23" target="_top" xlink:title="inf::negative">
<polygon fill="white" stroke="black" points="202.037,-305.811 202.037,-325.811 271.963,-325.811 271.963,-305.811 202.037,-305.811"/>
<text text-anchor="middle" x="237" y="-311.811" font-family="Helvetica,sans-Serif" font-size="10.00">inf::negative</text>
</a>
</g>
</g>
<!-- Node2&#45;&gt;Node3 -->
<g id="edge2" class="edge"><title>Node2&#45;&gt;Node3</title>
<path fill="none" stroke="midnightblue" d="M165.577,-315.811C173.84,-315.811 182.95,-315.811 191.798,-315.811"/>
<polygon fill="midnightblue" stroke="midnightblue" points="191.999,-319.311 201.998,-315.811 191.998,-312.311 191.999,-319.311"/>
</g>
<!-- Node4 -->
<g id="node4" class="node"><title>Node4</title>
<g id="a_node4"><a xlink:href="classinf.html#ac5de125801f26784c0e5dd76e15873d4" target="_top" xlink:title="inf::bit">
<polygon fill="white" stroke="black" points="334.66,-325.811 334.66,-345.811 377.34,-345.811 377.34,-325.811 334.66,-325.811"/>
<text text-anchor="middle" x="356" y="-331.811" font-family="Helvetica,sans-Serif" font-size="10.00">inf::bit</text>
</a>
</g>
</g>
<!-- Node3&#45;&gt;Node4 -->
<g id="edge3" class="edge"><title>Node3&#45;&gt;Node4</title>
<path fill="none" stroke="midnightblue" d="M272.156,-321.649C288.755,-324.487 308.536,-327.868 324.606,-330.615"/>
<polygon fill="midnightblue" stroke="midnightblue" points="324.113,-334.081 334.56,-332.316 325.292,-327.181 324.113,-334.081"/>
</g>
<!-- Node24 -->
<g id="node24" class="node"><title>Node24</title>
<g id="a_node24"><a xlink:href="classinf.html#aa310951ab90f77e2807976a26390edf5" target="_top" xlink:title="inf::indexable_bits">
<polygon fill="white" stroke="black" points="307.973,-286.811 307.973,-306.811 404.027,-306.811 404.027,-286.811 307.973,-286.811"/>
<text text-anchor="middle" x="356" y="-292.811" font-family="Helvetica,sans-Serif" font-size="10.00">inf::indexable_bits</text>
</a>
</g>
</g>
<!-- Node3&#45;&gt;Node24 -->
<g id="edge34" class="edge"><title>Node3&#45;&gt;Node24</title>
<path fill="none" stroke="midnightblue" d="M272.156,-310.264C280.106,-308.973 288.787,-307.563 297.44,-306.158"/>
<polygon fill="midnightblue" stroke="midnightblue" points="298.231,-309.575 307.541,-304.518 297.109,-302.666 298.231,-309.575"/>
</g>
<!-- Node5 -->
<g id="node5" class="node"><title>Node5</title>
<g id="a_node5"><a xlink:href="error__handler_8cpp.html#aac3be3c13a6d90b39f966b6e897c0744" target="_top" xlink:title="to_string">
<polygon fill="white" stroke="black" points="439.823,-325.811 439.823,-345.811 494.177,-345.811 494.177,-325.811 439.823,-325.811"/>
<text text-anchor="middle" x="467" y="-331.811" font-family="Helvetica,sans-Serif" font-size="10.00">to_string</text>
</a>
</g>
</g>
<!-- Node4&#45;&gt;Node5 -->
<g id="edge4" class="edge"><title>Node4&#45;&gt;Node5</title>
<path fill="none" stroke="midnightblue" d="M377.502,-335.811C392.108,-335.811 412.138,-335.811 429.449,-335.811"/>
<polygon fill="midnightblue" stroke="midnightblue" points="429.803,-339.311 439.803,-335.811 429.803,-332.311 429.803,-339.311"/>
</g>
<!-- Node5&#45;&gt;Node5 -->
<g id="edge33" class="edge"><title>Node5&#45;&gt;Node5</title>
<path fill="none" stroke="midnightblue" d="M449.779,-345.858C441.924,-354.582 447.664,-363.811 467,-363.811 479.085,-363.811 485.859,-360.206 487.323,-355.372"/>
<polygon fill="midnightblue" stroke="midnightblue" points="490.648,-354.281 484.221,-345.858 483.993,-356.451 490.648,-354.281"/>
</g>
<!-- Node6 -->
<g id="node6" class="node"><title>Node6</title>
<g id="a_node6"><a xlink:href="classerror__position.html#a3f7ed498a2a6aa5343334b17bbdf4bbf" target="_top" xlink:title="error_position::column">
<polygon fill="white" stroke="black" points="536.532,-384.811 536.532,-404.811 651.468,-404.811 651.468,-384.811 536.532,-384.811"/>
<text text-anchor="middle" x="594" y="-390.811" font-family="Helvetica,sans-Serif" font-size="10.00">error_position::column</text>
</a>
</g>
</g>
<!-- Node5&#45;&gt;Node6 -->
<g id="edge5" class="edge"><title>Node5&#45;&gt;Node6</title>
<path fill="none" stroke="midnightblue" d="M481.702,-345.862C493.897,-354.451 512.467,-366.675 530,-374.811 535.075,-377.165 540.501,-379.348 545.961,-381.34"/>
<polygon fill="midnightblue" stroke="midnightblue" points="545.163,-384.767 555.758,-384.713 547.442,-378.148 545.163,-384.767"/>
</g>
<!-- Node7 -->
<g id="node7" class="node"><title>Node7</title>
<g id="a_node7"><a xlink:href="classerror__position.html#ac4739e90b92106a85b0f8c76e9198daf" target="_top" xlink:title="error_position::filename">
<polygon fill="white" stroke="black" points="533.751,-345.811 533.751,-365.811 654.249,-365.811 654.249,-345.811 533.751,-345.811"/>
<text text-anchor="middle" x="594" y="-351.811" font-family="Helvetica,sans-Serif" font-size="10.00">error_position::filename</text>
</a>
</g>
</g>
<!-- Node5&#45;&gt;Node7 -->
<g id="edge6" class="edge"><title>Node5&#45;&gt;Node7</title>
<path fill="none" stroke="midnightblue" d="M494.204,-340.003C502.939,-341.401 513.12,-343.03 523.564,-344.701"/>
<polygon fill="midnightblue" stroke="midnightblue" points="523.191,-348.186 533.618,-346.309 524.297,-341.273 523.191,-348.186"/>
</g>
<!-- Node8 -->
<g id="node8" class="node"><title>Node8</title>
<g id="a_node8"><a xlink:href="file__system_8cpp.html#a6982b54d454c07cc3f770f67c5d0b5ef" target="_top" xlink:title="filespec_to_relative_path">
<polygon fill="white" stroke="black" points="530.685,-306.811 530.685,-326.811 657.315,-326.811 657.315,-306.811 530.685,-306.811"/>
<text text-anchor="middle" x="594" y="-312.811" font-family="Helvetica,sans-Serif" font-size="10.00">filespec_to_relative_path</text>
</a>
</g>
</g>
<!-- Node5&#45;&gt;Node8 -->
<g id="edge7" class="edge"><title>Node5&#45;&gt;Node8</title>
<path fill="none" stroke="midnightblue" d="M494.204,-331.828C502.038,-330.637 511.035,-329.269 520.342,-327.855"/>
<polygon fill="midnightblue" stroke="midnightblue" points="521.16,-331.27 530.521,-326.307 520.108,-324.35 521.16,-331.27"/>
</g>
<!-- Node23 -->
<g id="node23" class="node"><title>Node23</title>
<g id="a_node23"><a xlink:href="classerror__position.html#af47fc5beec407412df713d56814af6fe" target="_top" xlink:title="error_position::line">
<polygon fill="white" stroke="black" points="544.867,-267.811 544.867,-287.811 643.133,-287.811 643.133,-267.811 544.867,-267.811"/>
<text text-anchor="middle" x="594" y="-273.811" font-family="Helvetica,sans-Serif" font-size="10.00">error_position::line</text>
</a>
</g>
</g>
<!-- Node5&#45;&gt;Node23 -->
<g id="edge32" class="edge"><title>Node5&#45;&gt;Node23</title>
<path fill="none" stroke="midnightblue" d="M482.227,-325.709C494.45,-317.375 512.776,-305.681 530,-297.811 535.282,-295.397 540.938,-293.156 546.614,-291.113"/>
<polygon fill="midnightblue" stroke="midnightblue" points="547.787,-294.411 556.121,-287.869 545.526,-287.786 547.787,-294.411"/>
</g>
<!-- Node9 -->
<g id="node9" class="node"><title>Node9</title>
<g id="a_node9"><a xlink:href="file__system_8cpp.html#a62475ca973dfe0094c00d60286c7c286" target="_top" xlink:title="create_filespec">
<polygon fill="white" stroke="black" points="848.37,-364.811 848.37,-384.811 931.63,-384.811 931.63,-364.811 848.37,-364.811"/>
<text text-anchor="middle" x="890" y="-370.811" font-family="Helvetica,sans-Serif" font-size="10.00">create_filespec</text>
</a>
</g>
</g>
<!-- Node8&#45;&gt;Node9 -->
<g id="edge8" class="edge"><title>Node8&#45;&gt;Node9</title>
<path fill="none" stroke="midnightblue" d="M633.894,-326.86C652.088,-331.402 674.089,-336.666 694,-340.811 742.746,-350.957 798.777,-360.51 838.232,-366.89"/>
<polygon fill="midnightblue" stroke="midnightblue" points="837.715,-370.352 848.143,-368.482 838.825,-363.44 837.715,-370.352"/>
</g>
<!-- Node11 -->
<g id="node11" class="node"><title>Node11</title>
<g id="a_node11"><a xlink:href="file__system_8cpp.html#acf89fa1738d4f789e4cc5b9c3c3bec72" target="_top" xlink:title="filename_part">
<polygon fill="white" stroke="black" points="851.705,-325.811 851.705,-345.811 928.295,-345.811 928.295,-325.811 851.705,-325.811"/>
<text text-anchor="middle" x="890" y="-331.811" font-family="Helvetica,sans-Serif" font-size="10.00">filename_part</text>
</a>
</g>
</g>
<!-- Node8&#45;&gt;Node11 -->
<g id="edge10" class="edge"><title>Node8&#45;&gt;Node11</title>
<path fill="none" stroke="midnightblue" d="M657.35,-320.84C712.27,-324.389 791.102,-329.484 841.172,-332.72"/>
<polygon fill="midnightblue" stroke="midnightblue" points="841.196,-336.228 851.401,-333.381 841.647,-329.243 841.196,-336.228"/>
</g>
<!-- Node12 -->
<g id="node12" class="node"><title>Node12</title>
<g id="a_node12"><a xlink:href="file__system_8cpp.html#acb48f4675dcd897962719fcc704fa980" target="_top" xlink:title="folder_part">
<polygon fill="white" stroke="black" points="721.096,-286.811 721.096,-306.811 784.904,-306.811 784.904,-286.811 721.096,-286.811"/>
<text text-anchor="middle" x="753" y="-292.811" font-family="Helvetica,sans-Serif" font-size="10.00">folder_part</text>
</a>
</g>
</g>
<!-- Node8&#45;&gt;Node12 -->
<g id="edge12" class="edge"><title>Node8&#45;&gt;Node12</title>
<path fill="none" stroke="midnightblue" d="M657.502,-308.849C675.319,-306.579 694.285,-304.163 710.513,-302.096"/>
<polygon fill="midnightblue" stroke="midnightblue" points="711.265,-305.528 720.743,-300.792 710.381,-298.584 711.265,-305.528"/>
</g>
<!-- Node13 -->
<g id="node13" class="node"><title>Node13</title>
<g id="a_node13"><a xlink:href="file__system_8cpp.html#a154091f28159afef5c72b12cee64a9a0" target="_top" xlink:title="folder_to_relative_path">
<polygon fill="white" stroke="black" points="694.131,-186.811 694.131,-206.811 811.869,-206.811 811.869,-186.811 694.131,-186.811"/>
<text text-anchor="middle" x="753" y="-192.811" font-family="Helvetica,sans-Serif" font-size="10.00">folder_to_relative_path</text>
</a>
</g>
</g>
<!-- Node8&#45;&gt;Node13 -->
<g id="edge14" class="edge"><title>Node8&#45;&gt;Node13</title>
<path fill="none" stroke="midnightblue" d="M637.005,-306.781C644.299,-304.129 651.591,-300.846 658,-296.811 692.559,-275.055 722.976,-237.609 739.307,-215.232"/>
<polygon fill="midnightblue" stroke="midnightblue" points="742.276,-217.097 745.23,-206.922 736.576,-213.034 742.276,-217.097"/>
</g>
<!-- Node10 -->
<g id="node10" class="node"><title>Node10</title>
<g id="a_node10"><a xlink:href="file__system_8cpp.html#a99e06c76afffe1f1d77f01c905b1a5fd" target="_top" xlink:title="is_separator">
<polygon fill="white" stroke="black" points="1229.49,-286.811 1229.49,-306.811 1300.51,-306.811 1300.51,-286.811 1229.49,-286.811"/>
<text text-anchor="middle" x="1265" y="-292.811" font-family="Helvetica,sans-Serif" font-size="10.00">is_separator</text>
</a>
</g>
</g>
<!-- Node9&#45;&gt;Node10 -->
<g id="edge9" class="edge"><title>Node9&#45;&gt;Node10</title>
<path fill="none" stroke="midnightblue" d="M931.894,-371.317C989.092,-365.774 1095.87,-353.023 1184,-328.811 1200.64,-324.238 1218.53,-317.288 1233.17,-311.031"/>
<polygon fill="midnightblue" stroke="midnightblue" points="1234.96,-314.065 1242.72,-306.848 1232.16,-307.652 1234.96,-314.065"/>
</g>
<!-- Node11&#45;&gt;Node10 -->
<g id="edge11" class="edge"><title>Node11&#45;&gt;Node10</title>
<path fill="none" stroke="midnightblue" d="M928.577,-333.667C984.438,-330.241 1092.62,-322.682 1184,-310.811 1195.57,-309.307 1208.02,-307.313 1219.57,-305.302"/>
<polygon fill="midnightblue" stroke="midnightblue" points="1220.22,-308.742 1229.45,-303.543 1218.99,-301.851 1220.22,-308.742"/>
</g>
<!-- Node12&#45;&gt;Node10 -->
<g id="edge13" class="edge"><title>Node12&#45;&gt;Node10</title>
<path fill="none" stroke="midnightblue" d="M785.135,-296.811C872.027,-296.811 1117.43,-296.811 1219.06,-296.811"/>
<polygon fill="midnightblue" stroke="midnightblue" points="1219.3,-300.311 1229.3,-296.811 1219.3,-293.311 1219.3,-300.311"/>
</g>
<!-- Node14 -->
<g id="node14" class="node"><title>Node14</title>
<g id="a_node14"><a xlink:href="file__system_8cpp.html#a0a5c33c34c3c47d4e15e955b7ac25681" target="_top" xlink:title="relative_path">
<polygon fill="white" stroke="black" points="853.37,-103.811 853.37,-123.811 926.63,-123.811 926.63,-103.811 853.37,-103.811"/>
<text text-anchor="middle" x="890" y="-109.811" font-family="Helvetica,sans-Serif" font-size="10.00">relative_path</text>
</a>
</g>
</g>
<!-- Node13&#45;&gt;Node14 -->
<g id="edge15" class="edge"><title>Node13&#45;&gt;Node14</title>
<path fill="none" stroke="midnightblue" d="M770.284,-186.799C793.596,-172.466 836.681,-145.977 864.036,-129.159"/>
<polygon fill="midnightblue" stroke="midnightblue" points="865.972,-132.077 872.658,-123.858 862.306,-126.114 865.972,-132.077"/>
</g>
<!-- Node15 -->
<g id="node15" class="node"><title>Node15</title>
<g id="a_node15"><a xlink:href="classfile__specification.html#a518bc2d13c74b0e00131c87fdd294f2b" target="_top" xlink:title="file_specification\l::image">
<polygon fill="white" stroke="black" points="968.313,-171.811 968.313,-203.811 1057.69,-203.811 1057.69,-171.811 968.313,-171.811"/>
<text text-anchor="start" x="976.313" y="-189.811" font-family="Helvetica,sans-Serif" font-size="10.00">file_specification</text>
<text text-anchor="middle" x="1013" y="-177.811" font-family="Helvetica,sans-Serif" font-size="10.00">::image</text>
</a>
</g>
</g>
<!-- Node14&#45;&gt;Node15 -->
<g id="edge16" class="edge"><title>Node14&#45;&gt;Node15</title>
<path fill="none" stroke="midnightblue" d="M906.859,-123.85C922.38,-133.638 946.724,-148.895 968,-161.811 970.489,-163.321 973.062,-164.872 975.658,-166.427"/>
<polygon fill="midnightblue" stroke="midnightblue" points="974.096,-169.571 984.479,-171.683 977.68,-163.558 974.096,-169.571"/>
</g>
<!-- Node17 -->
<g id="node17" class="node"><title>Node17</title>
<g id="a_node17"><a xlink:href="classfile__specification.html#a18e9d7a9b9dd1214d09ab5e843ea7806" target="_top" xlink:title="file_specification\l::relative">
<polygon fill="white" stroke="black" points="1220.31,-24.8106 1220.31,-56.8106 1309.69,-56.8106 1309.69,-24.8106 1220.31,-24.8106"/>
<text text-anchor="start" x="1228.31" y="-42.8106" font-family="Helvetica,sans-Serif" font-size="10.00">file_specification</text>
<text text-anchor="middle" x="1265" y="-30.8106" font-family="Helvetica,sans-Serif" font-size="10.00">::relative</text>
</a>
</g>
</g>
<!-- Node14&#45;&gt;Node17 -->
<g id="edge31" class="edge"><title>Node14&#45;&gt;Node17</title>
<path fill="none" stroke="midnightblue" d="M895.58,-103.761C905.437,-83.5218 930.822,-38.2961 968,-20.8106 1046.04,15.8912 1148.61,-3.96931 1210.25,-22.1052"/>
<polygon fill="midnightblue" stroke="midnightblue" points="1209.56,-25.5553 1220.15,-25.108 1211.59,-18.8565 1209.56,-25.5553"/>
</g>
<!-- Node19 -->
<g id="node19" class="node"><title>Node19</title>
<g id="a_node19"><a xlink:href="classfile__specification.html#aefefc9da1b64f7ed66a436750a88ffa2" target="_top" xlink:title="file_specification\l::initialise_folder">
<polygon fill="white" stroke="black" points="1094.31,-69.8106 1094.31,-101.811 1183.69,-101.811 1183.69,-69.8106 1094.31,-69.8106"/>
<text text-anchor="start" x="1102.31" y="-87.8106" font-family="Helvetica,sans-Serif" font-size="10.00">file_specification</text>
<text text-anchor="middle" x="1139" y="-75.8106" font-family="Helvetica,sans-Serif" font-size="10.00">::initialise_folder</text>
</a>
</g>
</g>
<!-- Node14&#45;&gt;Node19 -->
<g id="edge22" class="edge"><title>Node14&#45;&gt;Node19</title>
<path fill="none" stroke="midnightblue" d="M926.652,-109.769C967.85,-105.099 1036.09,-97.3632 1083.85,-91.9489"/>
<polygon fill="midnightblue" stroke="midnightblue" points="1084.47,-95.4009 1094.02,-90.7967 1083.68,-88.4454 1084.47,-95.4009"/>
</g>
<!-- Node21 -->
<g id="node21" class="node"><title>Node21</title>
<g id="a_node21"><a xlink:href="classfile__specification.html#a1c51930e39fad4d827a81b5b12a72752" target="_top" xlink:title="file_specification\l::make_absolute">
<polygon fill="white" stroke="black" points="968.311,-120.811 968.311,-152.811 1057.69,-152.811 1057.69,-120.811 968.311,-120.811"/>
<text text-anchor="start" x="976.311" y="-138.811" font-family="Helvetica,sans-Serif" font-size="10.00">file_specification</text>
<text text-anchor="middle" x="1013" y="-126.811" font-family="Helvetica,sans-Serif" font-size="10.00">::make_absolute</text>
</a>
</g>
</g>
<!-- Node14&#45;&gt;Node21 -->
<g id="edge25" class="edge"><title>Node14&#45;&gt;Node21</title>
<path fill="none" stroke="midnightblue" d="M926.65,-120.587C936.476,-122.455 947.36,-124.524 957.975,-126.541"/>
<polygon fill="midnightblue" stroke="midnightblue" points="957.55,-130.023 968.027,-128.452 958.857,-123.146 957.55,-130.023"/>
</g>
<!-- Node22 -->
<g id="node22" class="node"><title>Node22</title>
<g id="a_node22"><a xlink:href="classfile__specification.html#a37f966146802536ffdb2f154e3df928f" target="_top" xlink:title="file_specification\l::make_relative">
<polygon fill="white" stroke="black" points="968.313,-30.8106 968.313,-62.8106 1057.69,-62.8106 1057.69,-30.8106 968.313,-30.8106"/>
<text text-anchor="start" x="976.313" y="-48.8106" font-family="Helvetica,sans-Serif" font-size="10.00">file_specification</text>
<text text-anchor="middle" x="1013" y="-36.8106" font-family="Helvetica,sans-Serif" font-size="10.00">::make_relative</text>
</a>
</g>
</g>
<!-- Node14&#45;&gt;Node22 -->
<g id="edge28" class="edge"><title>Node14&#45;&gt;Node22</title>
<path fill="none" stroke="midnightblue" d="M909.115,-103.78C926.19,-94.3251 952.318,-79.8578 973.97,-67.8686"/>
<polygon fill="midnightblue" stroke="midnightblue" points="975.883,-70.8101 982.936,-62.904 972.492,-64.6863 975.883,-70.8101"/>
</g>
<!-- Node15&#45;&gt;Node10 -->
<g id="edge19" class="edge"><title>Node15&#45;&gt;Node10</title>
<path fill="none" stroke="midnightblue" d="M1038.59,-203.829C1054.1,-213.533 1074.77,-225.745 1094,-234.811 1136.03,-254.62 1186.24,-272.234 1221.15,-283.578"/>
<polygon fill="midnightblue" stroke="midnightblue" points="1220.42,-287.022 1231.01,-286.75 1222.56,-280.358 1220.42,-287.022"/>
</g>
<!-- Node16 -->
<g id="node16" class="node"><title>Node16</title>
<g id="a_node16"><a xlink:href="classfile__specification.html#a5b8f1026354ff32bfc183da3f38f5ce7" target="_top" xlink:title="file_specification\l::absolute">
<polygon fill="white" stroke="black" points="1094.31,-120.811 1094.31,-152.811 1183.69,-152.811 1183.69,-120.811 1094.31,-120.811"/>
<text text-anchor="start" x="1102.31" y="-138.811" font-family="Helvetica,sans-Serif" font-size="10.00">file_specification</text>
<text text-anchor="middle" x="1139" y="-126.811" font-family="Helvetica,sans-Serif" font-size="10.00">::absolute</text>
</a>
</g>
</g>
<!-- Node15&#45;&gt;Node16 -->
<g id="edge17" class="edge"><title>Node15&#45;&gt;Node16</title>
<path fill="none" stroke="midnightblue" d="M1053.23,-171.674C1064.77,-166.93 1077.52,-161.685 1089.56,-156.734"/>
<polygon fill="midnightblue" stroke="midnightblue" points="1091.1,-159.883 1099.02,-152.842 1088.44,-153.409 1091.1,-159.883"/>
</g>
<!-- Node15&#45;&gt;Node17 -->
<g id="edge20" class="edge"><title>Node15&#45;&gt;Node17</title>
<path fill="none" stroke="midnightblue" d="M1051.23,-203.833C1088.69,-217.191 1146.18,-229.809 1184,-200.811 1232.94,-163.286 1182.69,-115.911 1220,-66.8106 1220.79,-65.7773 1221.62,-64.7773 1222.51,-63.8101"/>
<polygon fill="midnightblue" stroke="midnightblue" points="1224.94,-66.3261 1230.03,-57.0296 1220.26,-61.1278 1224.94,-66.3261"/>
</g>
<!-- Node18 -->
<g id="node18" class="node"><title>Node18</title>
<g id="a_node18"><a xlink:href="string__utilities_8hpp.html#a657118c43fe44a8454311075655ac9d4" target="_top" xlink:title="vector_to_string">
<polygon fill="white" stroke="black" points="1095.43,-171.811 1095.43,-191.811 1182.57,-191.811 1182.57,-171.811 1095.43,-171.811"/>
<text text-anchor="middle" x="1139" y="-177.811" font-family="Helvetica,sans-Serif" font-size="10.00">vector_to_string</text>
</a>
</g>
</g>
<!-- Node15&#45;&gt;Node18 -->
<g id="edge21" class="edge"><title>Node15&#45;&gt;Node18</title>
<path fill="none" stroke="midnightblue" d="M1057.72,-185.695C1066.53,-185.269 1075.89,-184.816 1084.98,-184.376"/>
<polygon fill="midnightblue" stroke="midnightblue" points="1085.28,-187.866 1095.09,-183.887 1084.94,-180.874 1085.28,-187.866"/>
</g>
<!-- Node16&#45;&gt;Node17 -->
<g id="edge18" class="edge"><title>Node16&#45;&gt;Node17</title>
<path fill="none" stroke="midnightblue" d="M1170.78,-120.524C1175.4,-117.549 1179.96,-114.278 1184,-110.811 1203.17,-94.3524 1200.83,-83.2687 1220,-66.8106 1221.51,-65.5102 1223.1,-64.2375 1224.74,-62.9978"/>
<polygon fill="midnightblue" stroke="midnightblue" points="1227.01,-65.6815 1233.22,-57.0972 1223.01,-59.9354 1227.01,-65.6815"/>
</g>
<!-- Node19&#45;&gt;Node10 -->
<g id="edge23" class="edge"><title>Node19&#45;&gt;Node10</title>
<path fill="none" stroke="midnightblue" d="M1173.03,-102.115C1177.04,-104.982 1180.83,-108.217 1184,-111.811 1228.25,-162 1251.03,-240.429 1259.73,-276.908"/>
<polygon fill="midnightblue" stroke="midnightblue" points="1256.35,-277.832 1261.98,-286.805 1263.17,-276.277 1256.35,-277.832"/>
</g>
<!-- Node20 -->
<g id="node20" class="node"><title>Node20</title>
<g id="a_node20"><a xlink:href="classfile__specification.html#ab6e2c3cc492528550d2c4021d3a1c225" target="_top" xlink:title="file_specification\l::path">
<polygon fill="white" stroke="black" points="1220.31,-75.8106 1220.31,-107.811 1309.69,-107.811 1309.69,-75.8106 1220.31,-75.8106"/>
<text text-anchor="start" x="1228.31" y="-93.8106" font-family="Helvetica,sans-Serif" font-size="10.00">file_specification</text>
<text text-anchor="middle" x="1265" y="-81.8106" font-family="Helvetica,sans-Serif" font-size="10.00">::path</text>
</a>
</g>
</g>
<!-- Node19&#45;&gt;Node20 -->
<g id="edge24" class="edge"><title>Node19&#45;&gt;Node20</title>
<path fill="none" stroke="midnightblue" d="M1183.72,-87.9259C1192.24,-88.3382 1201.26,-88.7749 1210.07,-89.2009"/>
<polygon fill="midnightblue" stroke="midnightblue" points="1210.1,-92.7066 1220.26,-89.6941 1210.44,-85.7148 1210.1,-92.7066"/>
</g>
<!-- Node21&#45;&gt;Node16 -->
<g id="edge26" class="edge"><title>Node21&#45;&gt;Node16</title>
<path fill="none" stroke="midnightblue" d="M1057.72,-136.811C1066.24,-136.811 1075.26,-136.811 1084.07,-136.811"/>
<polygon fill="midnightblue" stroke="midnightblue" points="1084.26,-140.311 1094.26,-136.811 1084.26,-133.311 1084.26,-140.311"/>
</g>
<!-- Node21&#45;&gt;Node19 -->
<g id="edge27" class="edge"><title>Node21&#45;&gt;Node19</title>
<path fill="none" stroke="midnightblue" d="M1053.23,-120.674C1064.77,-115.93 1077.52,-110.685 1089.56,-105.734"/>
<polygon fill="midnightblue" stroke="midnightblue" points="1091.1,-108.883 1099.02,-101.842 1088.44,-102.409 1091.1,-108.883"/>
</g>
<!-- Node22&#45;&gt;Node17 -->
<g id="edge30" class="edge"><title>Node22&#45;&gt;Node17</title>
<path fill="none" stroke="midnightblue" d="M1057.83,-45.7586C1100.19,-44.7421 1164.44,-43.2 1209.94,-42.1079"/>
<polygon fill="midnightblue" stroke="midnightblue" points="1210.3,-45.6004 1220.22,-41.8613 1210.14,-38.6024 1210.3,-45.6004"/>
</g>
<!-- Node22&#45;&gt;Node19 -->
<g id="edge29" class="edge"><title>Node22&#45;&gt;Node19</title>
<path fill="none" stroke="midnightblue" d="M1057.72,-60.5605C1066.42,-63.2984 1075.66,-66.2023 1084.64,-69.0286"/>
<polygon fill="midnightblue" stroke="midnightblue" points="1083.67,-72.3918 1094.26,-72.0533 1085.77,-65.7142 1083.67,-72.3918"/>
</g>
</g>
</svg>
        <g id="navigator" transform="translate(0 0)" fill="#404254">
                <rect fill="#f2f5e9" fill-opacity="0.5" stroke="#606060" stroke-width=".5" x="0" y="0" width="60" height="60"/>
                <use id="zoomplus" xlink:href="#zoomPlus" x="17" y="9" onmousedown="handleZoom(evt,'in')"/>
                <use id="zoomminus" xlink:href="#zoomMin" x="42" y="9" onmousedown="handleZoom(evt,'out')"/>
                <use id="reset" xlink:href="#resetDef" x="30" y="36" onmousedown="handleReset()"/>
                <g id="arrowUp" xlink:href="#dirArrow" transform="translate(30 24)" onmousedown="handlePan(0,-1)">
                  <use xlink:href="#rim" fill="#404040">
                        <set attributeName="fill" to="#808080" begin="arrowUp.mouseover" end="arrowUp.mouseout"/>
                  </use>
                  <path fill="none" stroke="white" stroke-width="1.5" d="M0,-3.0v7 M-2.5,-0.5L0,-3.0L2.5,-0.5"/>
                </g>
                <g id="arrowRight" xlink:href="#dirArrow" transform="rotate(90) translate(36 -43)" onmousedown="handlePan(1,0)">
                  <use xlink:href="#rim" fill="#404040">
                        <set attributeName="fill" to="#808080" begin="arrowRight.mouseover" end="arrowRight.mouseout"/>
                  </use>
                  <path fill="none" stroke="white" stroke-width="1.5" d="M0,-3.0v7 M-2.5,-0.5L0,-3.0L2.5,-0.5"/>
                </g>
                <g id="arrowDown" xlink:href="#dirArrow" transform="rotate(180) translate(-30 -48)" onmousedown="handlePan(0,1)">
                  <use xlink:href="#rim" fill="#404040">
                        <set attributeName="fill" to="#808080" begin="arrowDown.mouseover" end="arrowDown.mouseout"/>
                  </use>
                  <path fill="none" stroke="white" stroke-width="1.5" d="M0,-3.0v7 M-2.5,-0.5L0,-3.0L2.5,-0.5"/>
                </g>
                <g id="arrowLeft" xlink:href="#dirArrow" transform="rotate(270) translate(-36 17)" onmousedown="handlePan(-1,0)">
                  <use xlink:href="#rim" fill="#404040">
                        <set attributeName="fill" to="#808080" begin="arrowLeft.mouseover" end="arrowLeft.mouseout"/>
                  </use>
                  <path fill="none" stroke="white" stroke-width="1.5" d="M0,-3.0v7 M-2.5,-0.5L0,-3.0L2.5,-0.5"/>
                </g>
        </g>
        <svg viewBox="0 0 15 15" width="100%" height="30px" preserveAspectRatio="xMaxYMin meet">
         <g id="arrow_out" transform="scale(0.3 0.3)">
          <a xlink:href="classinf_a6b82dcb8c62ffb575c074ef2c4d826e7_cgraph_org.svg" target="_base">
           <rect id="button" ry="5" rx="5" y="6" x="6" height="38" width="38"
                fill="#f2f5e9" fill-opacity="0.5" stroke="#606060" stroke-width="1.0"/>
           <path id="arrow"
             d="M 11.500037,31.436501 C 11.940474,20.09759 22.043105,11.32322 32.158766,21.979434 L 37.068811,17.246167 C 37.068811,17.246167 37.088388,32 37.088388,32 L 22.160133,31.978069 C 22.160133,31.978069 26.997745,27.140456 26.997745,27.140456 C 18.528582,18.264221 13.291696,25.230495 11.500037,31.436501 z"
             style="fill:#404040;"/>
          </a>
         </g>
        </svg>
</svg>
