<?xml version="1.0" encoding="UTF-8" standalone="no"?>
<!DOCTYPE svg PUBLIC "-//W3C//DTD SVG 1.1//EN"
 "http://www.w3.org/Graphics/SVG/1.1/DTD/svg11.dtd">
<!-- Generated by graphviz version 2.32.0 (20130916.1925)
 -->
<!-- Title: rcLinGeneratePixel::genPixel Pages: 1 -->
<!--zoomable 203 -->
<svg id="main" version="1.1" xmlns="http://www.w3.org/2000/svg" xmlns:xlink="http://www.w3.org/1999/xlink" xml:space="preserve" onload="init(evt)">
        <defs>
                <circle id="rim" cx="0" cy="0" r="7"/>
                <circle id="rim2" cx="0" cy="0" r="3.5"/>
                <g id="zoomPlus">
                        <use xlink:href="#rim" fill="#404040">
                                <set attributeName="fill" to="#808080" begin="zoomplus.mouseover" end="zoomplus.mouseout"/>
                        </use>
                        <path d="M-4,0h8M0,-4v8" fill="none" stroke="white" stroke-width="1.5" pointer-events="none"/>
                </g>
                <g id="zoomMin">
                        <use xlink:href="#rim" fill="#404040">
                                <set attributeName="fill" to="#808080" begin="zoomminus.mouseover" end="zoomminus.mouseout"/>
                        </use>
                        <path d="M-4,0h8" fill="none" stroke="white" stroke-width="1.5" pointer-events="none"/>
                </g>
                <g id="dirArrow">
                        <path fill="none" stroke="white" stroke-width="1.5" d="M0,-3.0v7 M-2.5,-0.5L0,-3.0L2.5,-0.5"/>
                </g>
               <g id="resetDef">
                       <use xlink:href="#rim2" fill="#404040">
                               <set attributeName="fill" to="#808080" begin="reset.mouseover" end="reset.mouseout"/>
                       </use>
               </g>
        </defs>

<script type="text/javascript">
var viewWidth = 532;
var viewHeight = 203;
var sectionId = 'dynsection-2';
</script>
<script xlink:href="svgpan.js"/>
<svg id="graph" class="graph">
<g id="viewport">
<title>rcLinGeneratePixel::genPixel</title>
<polygon fill="white" stroke="white" points="-4,5 -4,-199 529,-199 529,5 -4,5"/>
<!-- Node1 -->
<g id="node1" class="node"><title>Node1</title>
<polygon fill="#bfbfbf" stroke="black" points="0.478027,-72 0.478027,-104 101.522,-104 101.522,-72 0.478027,-72"/>
<text text-anchor="start" x="8.47803" y="-90" font-family="Helvetica,sans-Serif" font-size="10.00">rcLinGeneratePixel</text>
<text text-anchor="middle" x="51" y="-78" font-family="Helvetica,sans-Serif" font-size="10.00">::genPixel</text>
</g>
<!-- Node2 -->
<g id="node2" class="node"><title>Node2</title>
<g id="a_node2"><a xlink:href="classrc_window.html#a9ab724dc45a3c3c2beee6c8ed558de1e" target="_top" xlink:title="rcWindow::depth">
<polygon fill="white" stroke="black" points="159.761,-156 159.761,-176 250.239,-176 250.239,-156 159.761,-156"/>
<text text-anchor="middle" x="205" y="-162" font-family="Helvetica,sans-Serif" font-size="10.00">rcWindow::depth</text>
</a>
</g>
</g>
<!-- Node1&#45;&gt;Node2 -->
<g id="edge1" class="edge"><title>Node1&#45;&gt;Node2</title>
<path fill="none" stroke="midnightblue" d="M72.1515,-104.148C88.9464,-116.959 113.929,-134.556 138,-146 143.069,-148.41 148.494,-150.608 153.975,-152.59"/>
<polygon fill="midnightblue" stroke="midnightblue" points="153.243,-156.037 163.837,-155.926 155.486,-149.406 153.243,-156.037"/>
</g>
<!-- Node3 -->
<g id="node3" class="node"><title>Node3</title>
<g id="a_node3"><a xlink:href="classrc_window.html#a131e7135ebeee1c0b1ccecf68e451cc6" target="_top" xlink:title="rcWindow::getDoublePixel">
<polygon fill="white" stroke="black" points="138.641,-78 138.641,-98 271.359,-98 271.359,-78 138.641,-78"/>
<text text-anchor="middle" x="205" y="-84" font-family="Helvetica,sans-Serif" font-size="10.00">rcWindow::getDoublePixel</text>
</a>
</g>
</g>
<!-- Node1&#45;&gt;Node3 -->
<g id="edge2" class="edge"><title>Node1&#45;&gt;Node3</title>
<path fill="none" stroke="midnightblue" d="M101.77,-88C110.326,-88 119.387,-88 128.439,-88"/>
<polygon fill="midnightblue" stroke="midnightblue" points="128.629,-91.5001 138.629,-88 128.629,-84.5001 128.629,-91.5001"/>
</g>
<!-- Node10 -->
<g id="node10" class="node"><title>Node10</title>
<g id="a_node10"><a xlink:href="classrc_window.html#aefce9967e3b610e442ec2392b06e147f" target="_top" xlink:title="rcWindow::getPixel">
<polygon fill="white" stroke="black" points="154.485,-117 154.485,-137 255.515,-137 255.515,-117 154.485,-117"/>
<text text-anchor="middle" x="205" y="-123" font-family="Helvetica,sans-Serif" font-size="10.00">rcWindow::getPixel</text>
</a>
</g>
</g>
<!-- Node1&#45;&gt;Node10 -->
<g id="edge9" class="edge"><title>Node1&#45;&gt;Node10</title>
<path fill="none" stroke="midnightblue" d="M101.77,-100.77C118.851,-105.153 137.947,-110.052 154.969,-114.42"/>
<polygon fill="midnightblue" stroke="midnightblue" points="154.164,-117.826 164.72,-116.922 155.904,-111.046 154.164,-117.826"/>
</g>
<!-- Node12 -->
<g id="node12" class="node"><title>Node12</title>
<g id="a_node12"><a xlink:href="classrc_window.html#a958e7e0bd74b12cbcb44e73a2692400a" target="_top" xlink:title="rcWindow::height">
<polygon fill="white" stroke="black" points="158.65,-39 158.65,-59 251.35,-59 251.35,-39 158.65,-39"/>
<text text-anchor="middle" x="205" y="-45" font-family="Helvetica,sans-Serif" font-size="10.00">rcWindow::height</text>
</a>
</g>
</g>
<!-- Node1&#45;&gt;Node12 -->
<g id="edge14" class="edge"><title>Node1&#45;&gt;Node12</title>
<path fill="none" stroke="midnightblue" d="M101.77,-75.2299C118.851,-70.8474 137.947,-65.9478 154.969,-61.5804"/>
<polygon fill="midnightblue" stroke="midnightblue" points="155.904,-64.9539 164.72,-59.0783 154.164,-58.1735 155.904,-64.9539"/>
</g>
<!-- Node13 -->
<g id="node13" class="node"><title>Node13</title>
<g id="a_node13"><a xlink:href="classrc_window.html#a0ae0c2adbe34085eb07c93edd60b342a" target="_top" xlink:title="rcWindow::width">
<polygon fill="white" stroke="black" points="160.601,-0 160.601,-20 249.399,-20 249.399,-0 160.601,-0"/>
<text text-anchor="middle" x="205" y="-6" font-family="Helvetica,sans-Serif" font-size="10.00">rcWindow::width</text>
</a>
</g>
</g>
<!-- Node1&#45;&gt;Node13 -->
<g id="edge15" class="edge"><title>Node1&#45;&gt;Node13</title>
<path fill="none" stroke="midnightblue" d="M72.1515,-71.8519C88.9464,-59.0411 113.929,-41.4439 138,-30 143.069,-27.5903 148.494,-25.3925 153.975,-23.4097"/>
<polygon fill="midnightblue" stroke="midnightblue" points="155.486,-26.5936 163.837,-20.0739 153.243,-19.9626 155.486,-26.5936"/>
</g>
<!-- Node4 -->
<g id="node4" class="node"><title>Node4</title>
<g id="a_node4"><a xlink:href="classrc_window.html#a3286f93b0d223617111f3ac62b854b2f" target="_top" xlink:title="rcWindow::isBound">
<polygon fill="white" stroke="black" points="320.205,-136 320.205,-156 421.795,-156 421.795,-136 320.205,-136"/>
<text text-anchor="middle" x="371" y="-142" font-family="Helvetica,sans-Serif" font-size="10.00">rcWindow::isBound</text>
</a>
</g>
</g>
<!-- Node3&#45;&gt;Node4 -->
<g id="edge3" class="edge"><title>Node3&#45;&gt;Node4</title>
<path fill="none" stroke="midnightblue" d="M243.037,-98.0196C252.584,-100.929 262.768,-104.324 272,-108 288.619,-114.618 291.44,-119.235 308,-126 313.772,-128.358 319.932,-130.628 326.047,-132.738"/>
<polygon fill="midnightblue" stroke="midnightblue" points="324.962,-136.066 335.556,-135.913 327.179,-129.426 324.962,-136.066"/>
</g>
<!-- Node5 -->
<g id="node5" class="node"><title>Node5</title>
<g id="a_node5"><a xlink:href="classrc_frame.html#a6c9c6593266e6e6602270f314c108e49" target="_top" xlink:title="rcFrame::getDoublePixel">
<polygon fill="white" stroke="black" points="307.978,-19 307.978,-39 434.022,-39 434.022,-19 307.978,-19"/>
<text text-anchor="middle" x="371" y="-25" font-family="Helvetica,sans-Serif" font-size="10.00">rcFrame::getDoublePixel</text>
</a>
</g>
</g>
<!-- Node3&#45;&gt;Node5 -->
<g id="edge4" class="edge"><title>Node3&#45;&gt;Node5</title>
<path fill="none" stroke="midnightblue" d="M243.784,-77.9077C253.129,-75.0423 263.03,-71.6864 272,-68 288.734,-61.123 291.328,-56.0258 308,-49 313.542,-46.6646 319.456,-44.4365 325.349,-42.3719"/>
<polygon fill="midnightblue" stroke="midnightblue" points="326.818,-45.5706 335.178,-39.0617 324.583,-38.9368 326.818,-45.5706"/>
</g>
<!-- Node6 -->
<g id="node6" class="node"><title>Node6</title>
<g id="a_node6"><a xlink:href="classrc_rect.html#ac0f95519a41dcf7e33bec85ccb8e7aff" target="_top" xlink:title="rcRect::x">
<polygon fill="white" stroke="black" points="343.276,-97 343.276,-117 398.724,-117 398.724,-97 343.276,-97"/>
<text text-anchor="middle" x="371" y="-103" font-family="Helvetica,sans-Serif" font-size="10.00">rcRect::x</text>
</a>
</g>
</g>
<!-- Node3&#45;&gt;Node6 -->
<g id="edge5" class="edge"><title>Node3&#45;&gt;Node6</title>
<path fill="none" stroke="midnightblue" d="M271.76,-95.6185C292.618,-98.035 314.937,-100.621 333.021,-102.716"/>
<polygon fill="midnightblue" stroke="midnightblue" points="332.8,-106.214 343.137,-103.888 333.606,-99.2601 332.8,-106.214"/>
</g>
<!-- Node8 -->
<g id="node8" class="node"><title>Node8</title>
<g id="a_node8"><a xlink:href="classrc_rect.html#a50236160751c949d8718f8d4d17f7923" target="_top" xlink:title="rcRect::y">
<polygon fill="white" stroke="black" points="343.276,-58 343.276,-78 398.724,-78 398.724,-58 343.276,-58"/>
<text text-anchor="middle" x="371" y="-64" font-family="Helvetica,sans-Serif" font-size="10.00">rcRect::y</text>
</a>
</g>
</g>
<!-- Node3&#45;&gt;Node8 -->
<g id="edge7" class="edge"><title>Node3&#45;&gt;Node8</title>
<path fill="none" stroke="midnightblue" d="M271.76,-79.9805C292.618,-77.4368 314.937,-74.715 333.021,-72.5096"/>
<polygon fill="midnightblue" stroke="midnightblue" points="333.634,-75.9609 343.137,-71.276 332.787,-69.0124 333.634,-75.9609"/>
</g>
<!-- Node7 -->
<g id="node7" class="node"><title>Node7</title>
<g id="a_node7"><a xlink:href="classrc_pair.html#ad1a3cb1e7fdbe119ce1295514b1bb49d" target="_top" xlink:title="rcPair::x">
<polygon fill="white" stroke="black" points="470.665,-97 470.665,-117 523.335,-117 523.335,-97 470.665,-97"/>
<text text-anchor="middle" x="497" y="-103" font-family="Helvetica,sans-Serif" font-size="10.00">rcPair::x</text>
</a>
</g>
</g>
<!-- Node6&#45;&gt;Node7 -->
<g id="edge6" class="edge"><title>Node6&#45;&gt;Node7</title>
<path fill="none" stroke="midnightblue" d="M398.906,-107C416.899,-107 440.771,-107 460.342,-107"/>
<polygon fill="midnightblue" stroke="midnightblue" points="460.418,-110.5 470.418,-107 460.418,-103.5 460.418,-110.5"/>
</g>
<!-- Node9 -->
<g id="node9" class="node"><title>Node9</title>
<g id="a_node9"><a xlink:href="classrc_pair.html#a87400f83938e920c405c40aa449d3607" target="_top" xlink:title="rcPair::y">
<polygon fill="white" stroke="black" points="470.665,-58 470.665,-78 523.335,-78 523.335,-58 470.665,-58"/>
<text text-anchor="middle" x="497" y="-64" font-family="Helvetica,sans-Serif" font-size="10.00">rcPair::y</text>
</a>
</g>
</g>
<!-- Node8&#45;&gt;Node9 -->
<g id="edge8" class="edge"><title>Node8&#45;&gt;Node9</title>
<path fill="none" stroke="midnightblue" d="M398.906,-68C416.899,-68 440.771,-68 460.342,-68"/>
<polygon fill="midnightblue" stroke="midnightblue" points="460.418,-71.5001 470.418,-68 460.418,-64.5001 460.418,-71.5001"/>
</g>
<!-- Node10&#45;&gt;Node4 -->
<g id="edge10" class="edge"><title>Node10&#45;&gt;Node4</title>
<path fill="none" stroke="midnightblue" d="M255.65,-132.752C272.673,-134.724 291.911,-136.953 309.685,-139.012"/>
<polygon fill="midnightblue" stroke="midnightblue" points="309.616,-142.528 319.952,-140.202 310.422,-135.574 309.616,-142.528"/>
</g>
<!-- Node10&#45;&gt;Node6 -->
<g id="edge12" class="edge"><title>Node10&#45;&gt;Node6</title>
<path fill="none" stroke="midnightblue" d="M255.65,-120.945C280.504,-117.914 310.079,-114.307 332.925,-111.521"/>
<polygon fill="midnightblue" stroke="midnightblue" points="333.405,-114.989 342.907,-110.304 332.557,-108.04 333.405,-114.989"/>
</g>
<!-- Node10&#45;&gt;Node8 -->
<g id="edge13" class="edge"><title>Node10&#45;&gt;Node8</title>
<path fill="none" stroke="midnightblue" d="M243.784,-116.908C253.129,-114.042 263.03,-110.686 272,-107 288.734,-100.123 291.328,-95.0258 308,-88 316.09,-84.5906 324.975,-81.4099 333.428,-78.6327"/>
<polygon fill="midnightblue" stroke="midnightblue" points="334.608,-81.9304 343.08,-75.5684 332.49,-75.2586 334.608,-81.9304"/>
</g>
<!-- Node11 -->
<g id="node11" class="node"><title>Node11</title>
<g id="a_node11"><a xlink:href="classrc_frame.html#afe29820f04ff401b75e23226cbec4c03" target="_top" xlink:title="rcFrame::getPixel">
<polygon fill="white" stroke="black" points="323.823,-175 323.823,-195 418.177,-195 418.177,-175 323.823,-175"/>
<text text-anchor="middle" x="371" y="-181" font-family="Helvetica,sans-Serif" font-size="10.00">rcFrame::getPixel</text>
</a>
</g>
</g>
<!-- Node10&#45;&gt;Node11 -->
<g id="edge11" class="edge"><title>Node10&#45;&gt;Node11</title>
<path fill="none" stroke="midnightblue" d="M243.037,-137.02C252.584,-139.929 262.768,-143.324 272,-147 288.619,-153.618 291.44,-158.235 308,-165 313.772,-167.358 319.932,-169.628 326.047,-171.738"/>
<polygon fill="midnightblue" stroke="midnightblue" points="324.962,-175.066 335.556,-174.913 327.179,-168.426 324.962,-175.066"/>
</g>
</g>
</svg>
        <g id="navigator" transform="translate(0 0)" fill="#404254">
                <rect fill="#f2f5e9" fill-opacity="0.5" stroke="#606060" stroke-width=".5" x="0" y="0" width="60" height="60"/>
                <use id="zoomplus" xlink:href="#zoomPlus" x="17" y="9" onmousedown="handleZoom(evt,'in')"/>
                <use id="zoomminus" xlink:href="#zoomMin" x="42" y="9" onmousedown="handleZoom(evt,'out')"/>
                <use id="reset" xlink:href="#resetDef" x="30" y="36" onmousedown="handleReset()"/>
                <g id="arrowUp" xlink:href="#dirArrow" transform="translate(30 24)" onmousedown="handlePan(0,-1)">
                  <use xlink:href="#rim" fill="#404040">
                        <set attributeName="fill" to="#808080" begin="arrowUp.mouseover" end="arrowUp.mouseout"/>
                  </use>
                  <path fill="none" stroke="white" stroke-width="1.5" d="M0,-3.0v7 M-2.5,-0.5L0,-3.0L2.5,-0.5"/>
                </g>
                <g id="arrowRight" xlink:href="#dirArrow" transform="rotate(90) translate(36 -43)" onmousedown="handlePan(1,0)">
                  <use xlink:href="#rim" fill="#404040">
                        <set attributeName="fill" to="#808080" begin="arrowRight.mouseover" end="arrowRight.mouseout"/>
                  </use>
                  <path fill="none" stroke="white" stroke-width="1.5" d="M0,-3.0v7 M-2.5,-0.5L0,-3.0L2.5,-0.5"/>
                </g>
                <g id="arrowDown" xlink:href="#dirArrow" transform="rotate(180) translate(-30 -48)" onmousedown="handlePan(0,1)">
                  <use xlink:href="#rim" fill="#404040">
                        <set attributeName="fill" to="#808080" begin="arrowDown.mouseover" end="arrowDown.mouseout"/>
                  </use>
                  <path fill="none" stroke="white" stroke-width="1.5" d="M0,-3.0v7 M-2.5,-0.5L0,-3.0L2.5,-0.5"/>
                </g>
                <g id="arrowLeft" xlink:href="#dirArrow" transform="rotate(270) translate(-36 17)" onmousedown="handlePan(-1,0)">
                  <use xlink:href="#rim" fill="#404040">
                        <set attributeName="fill" to="#808080" begin="arrowLeft.mouseover" end="arrowLeft.mouseout"/>
                  </use>
                  <path fill="none" stroke="white" stroke-width="1.5" d="M0,-3.0v7 M-2.5,-0.5L0,-3.0L2.5,-0.5"/>
                </g>
        </g>
        <svg viewBox="0 0 15 15" width="100%" height="30px" preserveAspectRatio="xMaxYMin meet">
         <g id="arrow_out" transform="scale(0.3 0.3)">
          <a xlink:href="classrc_lin_generate_pixel_a61588ccdfebc07076aa99182f577e93e_cgraph_org.svg" target="_base">
           <rect id="button" ry="5" rx="5" y="6" x="6" height="38" width="38"
                fill="#f2f5e9" fill-opacity="0.5" stroke="#606060" stroke-width="1.0"/>
           <path id="arrow"
             d="M 11.500037,31.436501 C 11.940474,20.09759 22.043105,11.32322 32.158766,21.979434 L 37.068811,17.246167 C 37.068811,17.246167 37.088388,32 37.088388,32 L 22.160133,31.978069 C 22.160133,31.978069 26.997745,27.140456 26.997745,27.140456 C 18.528582,18.264221 13.291696,25.230495 11.500037,31.436501 z"
             style="fill:#404040;"/>
          </a>
         </g>
        </svg>
</svg>
