<?xml version="1.0" encoding="UTF-8" standalone="no"?>
<!DOCTYPE svg PUBLIC "-//W3C//DTD SVG 1.1//EN"
 "http://www.w3.org/Graphics/SVG/1.1/DTD/svg11.dtd">
<!-- Generated by graphviz version 2.32.0 (20130916.1925)
 -->
<!-- Title: rcPersistenceManager::generatorComment Pages: 1 -->
<svg width="620pt" height="126pt"
 viewBox="0.00 0.00 620.00 126.00" xmlns="http://www.w3.org/2000/svg" xmlns:xlink="http://www.w3.org/1999/xlink">
<g id="graph0" class="graph" transform="scale(1 1) rotate(0) translate(4 122)">
<title>rcPersistenceManager::generatorComment</title>
<polygon fill="white" stroke="white" points="-4,5 -4,-122 617,-122 617,5 -4,5"/>
<!-- Node1 -->
<g id="node1" class="node"><title>Node1</title>
<polygon fill="#bfbfbf" stroke="black" points="-0.0219727,-41 -0.0219727,-73 116.022,-73 116.022,-41 -0.0219727,-41"/>
<text text-anchor="start" x="7.97803" y="-59" font-family="Helvetica,sans-Serif" font-size="10.00">rcPersistenceManager</text>
<text text-anchor="middle" x="58" y="-47" font-family="Helvetica,sans-Serif" font-size="10.00">::generatorComment</text>
</g>
<!-- Node2 -->
<g id="node2" class="node"><title>Node2</title>
<g id="a_node2"><a xlink:href="classrc_engine_movie_saver.html#a32276bec2dea00cc5439e6f7cd3d586c" target="_top" xlink:title="rcEngineMovieSaver\l::closeHdlr">
<polygon fill="white" stroke="black" points="163.867,-86 163.867,-118 272.133,-118 272.133,-86 163.867,-86"/>
<text text-anchor="start" x="171.867" y="-104" font-family="Helvetica,sans-Serif" font-size="10.00">rcEngineMovieSaver</text>
<text text-anchor="middle" x="218" y="-92" font-family="Helvetica,sans-Serif" font-size="10.00">::closeHdlr</text>
</a>
</g>
</g>
<!-- Node1&#45;&gt;Node2 -->
<g id="edge1" class="edge"><title>Node1&#45;&gt;Node2</title>
<path fill="none" stroke="midnightblue" d="M125.282,-75.8777C138.096,-79.5272 151.368,-83.3073 163.702,-86.8202"/>
<polygon fill="midnightblue" stroke="midnightblue" points="126.172,-72.492 115.595,-73.1189 124.254,-79.2243 126.172,-72.492"/>
</g>
<!-- Node4 -->
<g id="node4" class="node"><title>Node4</title>
<g id="a_node4"><a xlink:href="classrc_experiment_domain_impl.html#a8db39db2ae092474f985b4c2997d5b72" target="_top" xlink:title="rcExperimentDomainImpl\l::saveExperiment">
<polygon fill="white" stroke="black" points="319.872,-22 319.872,-54 448.128,-54 448.128,-22 319.872,-22"/>
<text text-anchor="start" x="327.872" y="-40" font-family="Helvetica,sans-Serif" font-size="10.00">rcExperimentDomainImpl</text>
<text text-anchor="middle" x="384" y="-28" font-family="Helvetica,sans-Serif" font-size="10.00">::saveExperiment</text>
</a>
</g>
</g>
<!-- Node1&#45;&gt;Node4 -->
<g id="edge3" class="edge"><title>Node1&#45;&gt;Node4</title>
<path fill="none" stroke="midnightblue" d="M126.507,-53.0412C183.371,-49.7066 264.116,-44.9716 319.745,-41.7094"/>
<polygon fill="midnightblue" stroke="midnightblue" points="125.957,-49.5674 116.179,-53.6469 126.367,-56.5554 125.957,-49.5674"/>
</g>
<!-- Node7 -->
<g id="node7" class="node"><title>Node7</title>
<g id="a_node7"><a xlink:href="classrc_experiment_impl.html#a375595b76e0c9f303a7135e096391b9a" target="_top" xlink:title="rcExperimentImpl::saveTo">
<polygon fill="white" stroke="black" points="152.48,-8 152.48,-28 283.52,-28 283.52,-8 152.48,-8"/>
<text text-anchor="middle" x="218" y="-14" font-family="Helvetica,sans-Serif" font-size="10.00">rcExperimentImpl::saveTo</text>
</a>
</g>
</g>
<!-- Node1&#45;&gt;Node7 -->
<g id="edge6" class="edge"><title>Node1&#45;&gt;Node7</title>
<path fill="none" stroke="midnightblue" d="M126.013,-40.4588C143.143,-36.2306 161.042,-31.8124 176.388,-28.0245"/>
<polygon fill="midnightblue" stroke="midnightblue" points="124.911,-37.1256 116.042,-42.9201 126.589,-43.9216 124.911,-37.1256"/>
</g>
<!-- Node3 -->
<g id="node3" class="node"><title>Node3</title>
<g id="a_node3"><a xlink:href="classrc_engine_movie_saver.html#a216e88884a3dd557507ea93dc3609a91" target="_top" xlink:title="rcEngineMovieSaver::run">
<polygon fill="white" stroke="black" points="319.862,-92 319.862,-112 448.138,-112 448.138,-92 319.862,-92"/>
<text text-anchor="middle" x="384" y="-98" font-family="Helvetica,sans-Serif" font-size="10.00">rcEngineMovieSaver::run</text>
</a>
</g>
</g>
<!-- Node2&#45;&gt;Node3 -->
<g id="edge2" class="edge"><title>Node2&#45;&gt;Node3</title>
<path fill="none" stroke="midnightblue" d="M282.379,-102C294.637,-102 307.48,-102 319.734,-102"/>
<polygon fill="midnightblue" stroke="midnightblue" points="282.246,-98.5001 272.246,-102 282.246,-105.5 282.246,-98.5001"/>
</g>
<!-- Node5 -->
<g id="node5" class="node"><title>Node5</title>
<g id="a_node5"><a xlink:href="rc__main_8cpp.html#a3c04138a5bfe5d72780bb7e82a18e627" target="_top" xlink:title="main">
<polygon fill="white" stroke="black" points="529.163,-51 529.163,-71 566.837,-71 566.837,-51 529.163,-51"/>
<text text-anchor="middle" x="548" y="-57" font-family="Helvetica,sans-Serif" font-size="10.00">main</text>
</a>
</g>
</g>
<!-- Node4&#45;&gt;Node5 -->
<g id="edge4" class="edge"><title>Node4&#45;&gt;Node5</title>
<path fill="none" stroke="midnightblue" d="M458.479,-48.4322C484.55,-52.1336 511.668,-55.9837 528.906,-58.4312"/>
<polygon fill="midnightblue" stroke="midnightblue" points="458.954,-44.9647 448.562,-47.0242 457.97,-51.8952 458.954,-44.9647"/>
</g>
<!-- Node6 -->
<g id="node6" class="node"><title>Node6</title>
<g id="a_node6"><a xlink:href="classrc_experiment_domain_impl.html#a29b2a73f82318c9faec49f9a1178f90b" target="_top" xlink:title="rcExperimentDomainImpl\l::notifyRequestSave">
<polygon fill="white" stroke="black" points="483.872,-0 483.872,-32 612.128,-32 612.128,-0 483.872,-0"/>
<text text-anchor="start" x="491.872" y="-18" font-family="Helvetica,sans-Serif" font-size="10.00">rcExperimentDomainImpl</text>
<text text-anchor="middle" x="548" y="-6" font-family="Helvetica,sans-Serif" font-size="10.00">::notifyRequestSave</text>
</a>
</g>
</g>
<!-- Node4&#45;&gt;Node6 -->
<g id="edge5" class="edge"><title>Node4&#45;&gt;Node6</title>
<path fill="none" stroke="midnightblue" d="M458.655,-27.9975C466.991,-26.8654 475.433,-25.719 483.622,-24.6069"/>
<polygon fill="midnightblue" stroke="midnightblue" points="458,-24.5542 448.562,-29.3682 458.942,-31.4906 458,-24.5542"/>
</g>
<!-- Node7&#45;&gt;Node4 -->
<g id="edge7" class="edge"><title>Node7&#45;&gt;Node4</title>
<path fill="none" stroke="midnightblue" d="M293.884,-27.1322C302.521,-28.1855 311.264,-29.2516 319.725,-30.2836"/>
<polygon fill="midnightblue" stroke="midnightblue" points="294.167,-23.6409 283.817,-25.9045 293.32,-30.5894 294.167,-23.6409"/>
</g>
</g>
</svg>
