<?xml version="1.0" encoding="UTF-8" standalone="no"?>
<!DOCTYPE svg PUBLIC "-//W3C//DTD SVG 1.1//EN"
 "http://www.w3.org/Graphics/SVG/1.1/DTD/svg11.dtd">
<!-- Generated by graphviz version 2.32.0 (20130916.1925)
 -->
<!-- Title: rcFileSaveSettingWidget::updateState Pages: 1 -->
<svg width="302pt" height="40pt"
 viewBox="0.00 0.00 302.00 40.00" xmlns="http://www.w3.org/2000/svg" xmlns:xlink="http://www.w3.org/1999/xlink">
<g id="graph0" class="graph" transform="scale(1 1) rotate(0) translate(4 36)">
<title>rcFileSaveSettingWidget::updateState</title>
<polygon fill="white" stroke="white" points="-4,5 -4,-36 299,-36 299,5 -4,5"/>
<!-- Node1 -->
<g id="node1" class="node"><title>Node1</title>
<polygon fill="#bfbfbf" stroke="black" points="0.253906,-0 0.253906,-32 125.746,-32 125.746,-0 0.253906,-0"/>
<text text-anchor="start" x="8.25391" y="-18" font-family="Helvetica,sans-Serif" font-size="10.00">rcFileSaveSettingWidget</text>
<text text-anchor="middle" x="63" y="-6" font-family="Helvetica,sans-Serif" font-size="10.00">::updateState</text>
</g>
<!-- Node2 -->
<g id="node2" class="node"><title>Node2</title>
<g id="a_node2"><a xlink:href="classrc_file_save_setting_widget.html#abc3c59ae75e58cd5ef97afc43f1403a5" target="_top" xlink:title="rcFileSaveSettingWidget\l::rcFileSaveSettingWidget">
<polygon fill="white" stroke="black" points="162.476,-0 162.476,-32 293.524,-32 293.524,-0 162.476,-0"/>
<text text-anchor="start" x="170.476" y="-18" font-family="Helvetica,sans-Serif" font-size="10.00">rcFileSaveSettingWidget</text>
<text text-anchor="middle" x="228" y="-6" font-family="Helvetica,sans-Serif" font-size="10.00">::rcFileSaveSettingWidget</text>
</a>
</g>
</g>
<!-- Node1&#45;&gt;Node2 -->
<g id="edge1" class="edge"><title>Node1&#45;&gt;Node2</title>
<path fill="none" stroke="midnightblue" d="M136.223,-16C144.933,-16 153.786,-16 162.377,-16"/>
<polygon fill="midnightblue" stroke="midnightblue" points="136.088,-12.5001 126.088,-16 136.088,-19.5001 136.088,-12.5001"/>
</g>
</g>
</svg>
