<?xml version="1.0" encoding="UTF-8" standalone="no"?>
<!DOCTYPE svg PUBLIC "-//W3C//DTD SVG 1.1//EN"
 "http://www.w3.org/Graphics/SVG/1.1/DTD/svg11.dtd">
<!-- Generated by graphviz version 2.32.0 (20130916.1925)
 -->
<!-- Title: rcMuscleTracker::calculateCellLocation Pages: 1 -->
<!--zoomable 579 -->
<svg id="main" version="1.1" xmlns="http://www.w3.org/2000/svg" xmlns:xlink="http://www.w3.org/1999/xlink" xml:space="preserve" onload="init(evt)">
        <defs>
                <circle id="rim" cx="0" cy="0" r="7"/>
                <circle id="rim2" cx="0" cy="0" r="3.5"/>
                <g id="zoomPlus">
                        <use xlink:href="#rim" fill="#404040">
                                <set attributeName="fill" to="#808080" begin="zoomplus.mouseover" end="zoomplus.mouseout"/>
                        </use>
                        <path d="M-4,0h8M0,-4v8" fill="none" stroke="white" stroke-width="1.5" pointer-events="none"/>
                </g>
                <g id="zoomMin">
                        <use xlink:href="#rim" fill="#404040">
                                <set attributeName="fill" to="#808080" begin="zoomminus.mouseover" end="zoomminus.mouseout"/>
                        </use>
                        <path d="M-4,0h8" fill="none" stroke="white" stroke-width="1.5" pointer-events="none"/>
                </g>
                <g id="dirArrow">
                        <path fill="none" stroke="white" stroke-width="1.5" d="M0,-3.0v7 M-2.5,-0.5L0,-3.0L2.5,-0.5"/>
                </g>
               <g id="resetDef">
                       <use xlink:href="#rim2" fill="#404040">
                               <set attributeName="fill" to="#808080" begin="reset.mouseover" end="reset.mouseout"/>
                       </use>
               </g>
        </defs>

<script type="text/javascript">
var viewWidth = 860;
var viewHeight = 579;
var sectionId = 'dynsection-2';
</script>
<script xlink:href="svgpan.js"/>
<svg id="graph" class="graph">
<g id="viewport">
<title>rcMuscleTracker::calculateCellLocation</title>
<polygon fill="white" stroke="white" points="-4,5 -4,-575 857,-575 857,5 -4,5"/>
<!-- Node1 -->
<g id="node1" class="node"><title>Node1</title>
<polygon fill="#bfbfbf" stroke="black" points="0.722656,-295 0.722656,-327 135.277,-327 135.277,-295 0.722656,-295"/>
<text text-anchor="start" x="8.72266" y="-313" font-family="Helvetica,sans-Serif" font-size="10.00">rcMuscleTracker::calculate</text>
<text text-anchor="middle" x="68" y="-301" font-family="Helvetica,sans-Serif" font-size="10.00">CellLocation</text>
</g>
<!-- Node2 -->
<g id="node2" class="node"><title>Node2</title>
<g id="a_node2"><a xlink:href="classrc_edge_filter1_d.html#a1294d6acdcb3247245b9dd791ef9c4e2" target="_top" xlink:title="rcEdgeFilter1D::filter">
<polygon fill="white" stroke="black" points="174.431,-551 174.431,-571 281.569,-571 281.569,-551 174.431,-551"/>
<text text-anchor="middle" x="228" y="-557" font-family="Helvetica,sans-Serif" font-size="10.00">rcEdgeFilter1D::filter</text>
</a>
</g>
</g>
<!-- Node1&#45;&gt;Node2 -->
<g id="edge1" class="edge"><title>Node1&#45;&gt;Node2</title>
<path fill="none" stroke="midnightblue" d="M72.2757,-327.121C81.2448,-367.46 109.794,-473.96 172,-536 175.992,-539.981 180.732,-543.393 185.73,-546.298"/>
<polygon fill="midnightblue" stroke="midnightblue" points="184.404,-549.551 194.9,-550.995 187.595,-543.321 184.404,-549.551"/>
</g>
<!-- Node3 -->
<g id="node3" class="node"><title>Node3</title>
<g id="a_node3"><a xlink:href="classrc_edge_filter1_d.html#a134d78572b059d2dfad72df371e61feb" target="_top" xlink:title="rcEdgeFilter1D::genPeaks">
<polygon fill="white" stroke="black" points="327.638,-397 327.638,-417 460.362,-417 460.362,-397 327.638,-397"/>
<text text-anchor="middle" x="394" y="-403" font-family="Helvetica,sans-Serif" font-size="10.00">rcEdgeFilter1D::genPeaks</text>
</a>
</g>
</g>
<!-- Node1&#45;&gt;Node3 -->
<g id="edge2" class="edge"><title>Node1&#45;&gt;Node3</title>
<path fill="none" stroke="midnightblue" d="M86.016,-327.029C105.251,-344.095 138.297,-370.348 172,-383 218.161,-400.329 273.289,-406.339 316.938,-408.012"/>
<polygon fill="midnightblue" stroke="midnightblue" points="317.099,-411.519 327.204,-408.334 317.319,-404.522 317.099,-411.519"/>
</g>
<!-- Node4 -->
<g id="node4" class="node"><title>Node4</title>
<g id="a_node4"><a xlink:href="classrc_window.html#aefce9967e3b610e442ec2392b06e147f" target="_top" xlink:title="rcWindow::getPixel">
<polygon fill="white" stroke="black" points="510.485,-416 510.485,-436 611.515,-436 611.515,-416 510.485,-416"/>
<text text-anchor="middle" x="561" y="-422" font-family="Helvetica,sans-Serif" font-size="10.00">rcWindow::getPixel</text>
</a>
</g>
</g>
<!-- Node1&#45;&gt;Node4 -->
<g id="edge11" class="edge"><title>Node1&#45;&gt;Node4</title>
<path fill="none" stroke="midnightblue" d="M80.8327,-327.36C98.0777,-349.799 132.409,-389.447 172,-408 278.795,-458.045 420.767,-448.111 500.004,-436.793"/>
<polygon fill="midnightblue" stroke="midnightblue" points="500.911,-440.197 510.288,-435.266 499.882,-433.273 500.911,-440.197"/>
</g>
<!-- Node7 -->
<g id="node7" class="node"><title>Node7</title>
<g id="a_node7"><a xlink:href="classrc_rect.html#ac0f95519a41dcf7e33bec85ccb8e7aff" target="_top" xlink:title="rcRect::x">
<polygon fill="white" stroke="black" points="680.276,-450 680.276,-470 735.724,-470 735.724,-450 680.276,-450"/>
<text text-anchor="middle" x="708" y="-456" font-family="Helvetica,sans-Serif" font-size="10.00">rcRect::x</text>
</a>
</g>
</g>
<!-- Node1&#45;&gt;Node7 -->
<g id="edge51" class="edge"><title>Node1&#45;&gt;Node7</title>
<path fill="none" stroke="midnightblue" d="M76.8953,-327.018C91.4632,-354.679 125.393,-410.936 172,-437 337.636,-529.63 579.29,-489.159 670.413,-468.957"/>
<polygon fill="midnightblue" stroke="midnightblue" points="671.287,-472.348 680.264,-466.721 669.738,-465.522 671.287,-472.348"/>
</g>
<!-- Node9 -->
<g id="node9" class="node"><title>Node9</title>
<g id="a_node9"><a xlink:href="classrc_rect.html#a50236160751c949d8718f8d4d17f7923" target="_top" xlink:title="rcRect::y">
<polygon fill="white" stroke="black" points="680.276,-363 680.276,-383 735.724,-383 735.724,-363 680.276,-363"/>
<text text-anchor="middle" x="708" y="-369" font-family="Helvetica,sans-Serif" font-size="10.00">rcRect::y</text>
</a>
</g>
</g>
<!-- Node1&#45;&gt;Node9 -->
<g id="edge52" class="edge"><title>Node1&#45;&gt;Node9</title>
<path fill="none" stroke="midnightblue" d="M135.376,-322.753C147.534,-324.678 160.13,-326.524 172,-328 358.467,-351.193 583.017,-365.763 670.042,-370.909"/>
<polygon fill="midnightblue" stroke="midnightblue" points="670.014,-374.413 680.201,-371.504 670.423,-367.425 670.014,-374.413"/>
</g>
<!-- Node11 -->
<g id="node11" class="node"><title>Node11</title>
<g id="a_node11"><a xlink:href="classrc_window.html#a0ae0c2adbe34085eb07c93edd60b342a" target="_top" xlink:title="rcWindow::width">
<polygon fill="white" stroke="black" points="516.601,-212 516.601,-232 605.399,-232 605.399,-212 516.601,-212"/>
<text text-anchor="middle" x="561" y="-218" font-family="Helvetica,sans-Serif" font-size="10.00">rcWindow::width</text>
</a>
</g>
</g>
<!-- Node1&#45;&gt;Node11 -->
<g id="edge49" class="edge"><title>Node1&#45;&gt;Node11</title>
<path fill="none" stroke="midnightblue" d="M135.593,-315.226C216.763,-318.059 356.842,-315.39 468,-274 492.744,-264.786 518.742,-249.498 536.765,-237.877"/>
<polygon fill="midnightblue" stroke="midnightblue" points="538.984,-240.607 545.414,-232.186 535.136,-234.76 538.984,-240.607"/>
</g>
<!-- Node12 -->
<g id="node12" class="node"><title>Node12</title>
<g id="a_node12"><a xlink:href="classrc_window.html#a958e7e0bd74b12cbcb44e73a2692400a" target="_top" xlink:title="rcWindow::height">
<polygon fill="white" stroke="black" points="514.65,-173 514.65,-193 607.35,-193 607.35,-173 514.65,-173"/>
<text text-anchor="middle" x="561" y="-179" font-family="Helvetica,sans-Serif" font-size="10.00">rcWindow::height</text>
</a>
</g>
</g>
<!-- Node1&#45;&gt;Node12 -->
<g id="edge12" class="edge"><title>Node1&#45;&gt;Node12</title>
<path fill="none" stroke="midnightblue" d="M75.006,-294.992C87.5464,-264.196 119.762,-197.42 172,-171 216.42,-148.534 235.554,-159.563 284,-171 301.41,-175.11 302.59,-184.89 320,-189 384.018,-204.113 402.257,-191.142 468,-189 479.755,-188.617 492.34,-187.96 504.312,-187.217"/>
<polygon fill="midnightblue" stroke="midnightblue" points="504.886,-190.687 514.638,-186.547 504.433,-183.702 504.886,-190.687"/>
</g>
<!-- Node13 -->
<g id="node13" class="node"><title>Node13</title>
<g id="a_node13"><a xlink:href="classrc_rectangle.html#abe44205fccdffe80fbfdd4de79b406dc" target="_top" xlink:title="rcRectangle::height">
<polygon fill="white" stroke="black" points="176.919,-282 176.919,-302 279.081,-302 279.081,-282 176.919,-282"/>
<text text-anchor="middle" x="228" y="-288" font-family="Helvetica,sans-Serif" font-size="10.00">rcRectangle::height</text>
</a>
</g>
</g>
<!-- Node1&#45;&gt;Node13 -->
<g id="edge13" class="edge"><title>Node1&#45;&gt;Node13</title>
<path fill="none" stroke="midnightblue" d="M135.548,-302.997C145.922,-301.75 156.589,-300.467 166.81,-299.238"/>
<polygon fill="midnightblue" stroke="midnightblue" points="167.345,-302.699 176.855,-298.03 166.509,-295.749 167.345,-302.699"/>
</g>
<!-- Node14 -->
<g id="node14" class="node"><title>Node14</title>
<g id="a_node14"><a xlink:href="classrc_moment_generator.html#a01e27a1b09602459c89c34abe816332e" target="_top" xlink:title="rcMomentGenerator::\lhProject">
<polygon fill="white" stroke="black" points="172.483,-231 172.483,-263 283.517,-263 283.517,-231 172.483,-231"/>
<text text-anchor="start" x="180.483" y="-249" font-family="Helvetica,sans-Serif" font-size="10.00">rcMomentGenerator::</text>
<text text-anchor="middle" x="228" y="-237" font-family="Helvetica,sans-Serif" font-size="10.00">hProject</text>
</a>
</g>
</g>
<!-- Node1&#45;&gt;Node14 -->
<g id="edge14" class="edge"><title>Node1&#45;&gt;Node14</title>
<path fill="none" stroke="midnightblue" d="M108.87,-294.85C129.908,-286.329 155.898,-275.801 178.14,-266.792"/>
<polygon fill="midnightblue" stroke="midnightblue" points="179.462,-270.032 187.417,-263.034 176.834,-263.544 179.462,-270.032"/>
</g>
<!-- Node15 -->
<g id="node15" class="node"><title>Node15</title>
<g id="a_node15"><a xlink:href="classrc_progress_indicator.html#ae01451b2ec83eef63852f3ce8c238bf5" target="_top" xlink:title="rcProgressIndicator\l::progress">
<polygon fill="white" stroke="black" points="176.65,-180 176.65,-212 279.35,-212 279.35,-180 176.65,-180"/>
<text text-anchor="start" x="184.65" y="-198" font-family="Helvetica,sans-Serif" font-size="10.00">rcProgressIndicator</text>
<text text-anchor="middle" x="228" y="-186" font-family="Helvetica,sans-Serif" font-size="10.00">::progress</text>
</a>
</g>
</g>
<!-- Node1&#45;&gt;Node15 -->
<g id="edge15" class="edge"><title>Node1&#45;&gt;Node15</title>
<path fill="none" stroke="midnightblue" d="M85.005,-294.7C104.362,-275.598 138.529,-243.791 172,-222 174.744,-220.214 177.63,-218.479 180.583,-216.809"/>
<polygon fill="midnightblue" stroke="midnightblue" points="182.399,-219.807 189.57,-212.008 179.1,-213.633 182.399,-219.807"/>
</g>
<!-- Node16 -->
<g id="node16" class="node"><title>Node16</title>
<g id="a_node16"><a xlink:href="classrc_window.html#a36bd7fdef6e5edc028aceb8656944034" target="_top" xlink:title="rcWindow::setPixel">
<polygon fill="white" stroke="black" points="510.766,-513 510.766,-533 611.234,-533 611.234,-513 510.766,-513"/>
<text text-anchor="middle" x="561" y="-519" font-family="Helvetica,sans-Serif" font-size="10.00">rcWindow::setPixel</text>
</a>
</g>
</g>
<!-- Node1&#45;&gt;Node16 -->
<g id="edge16" class="edge"><title>Node1&#45;&gt;Node16</title>
<path fill="none" stroke="midnightblue" d="M72.3792,-327.093C81.2075,-364.636 108.8,-457.86 172,-498 274.729,-563.245 425.201,-548.991 505.219,-534.853"/>
<polygon fill="midnightblue" stroke="midnightblue" points="505.884,-538.29 515.09,-533.046 504.623,-531.404 505.884,-538.29"/>
</g>
<!-- Node18 -->
<g id="node18" class="node"><title>Node18</title>
<g id="a_node18"><a xlink:href="classrc_moment_generator.html#a7b8dba1194147838b9ddadd80fb12c47" target="_top" xlink:title="rcMomentGenerator::\lupdate">
<polygon fill="white" stroke="black" points="172.483,-90 172.483,-122 283.517,-122 283.517,-90 172.483,-90"/>
<text text-anchor="start" x="180.483" y="-108" font-family="Helvetica,sans-Serif" font-size="10.00">rcMomentGenerator::</text>
<text text-anchor="middle" x="228" y="-96" font-family="Helvetica,sans-Serif" font-size="10.00">update</text>
</a>
</g>
</g>
<!-- Node1&#45;&gt;Node18 -->
<g id="edge21" class="edge"><title>Node1&#45;&gt;Node18</title>
<path fill="none" stroke="midnightblue" d="M75.2195,-294.738C88.5769,-261.558 122.834,-185.133 172,-137 175.441,-133.631 179.322,-130.505 183.389,-127.638"/>
<polygon fill="midnightblue" stroke="midnightblue" points="185.422,-130.492 191.918,-122.123 181.621,-124.614 185.422,-130.492"/>
</g>
<!-- Node27 -->
<g id="node27" class="node"><title>Node27</title>
<g id="a_node27"><a xlink:href="classrc_moment_generator.html#ad53ba67c8a7eba733ee4010f586b7f8b" target="_top" xlink:title="rcMomentGenerator::\lvProject">
<polygon fill="white" stroke="black" points="172.483,-39 172.483,-71 283.517,-71 283.517,-39 172.483,-39"/>
<text text-anchor="start" x="180.483" y="-57" font-family="Helvetica,sans-Serif" font-size="10.00">rcMomentGenerator::</text>
<text text-anchor="middle" x="228" y="-45" font-family="Helvetica,sans-Serif" font-size="10.00">vProject</text>
</a>
</g>
</g>
<!-- Node1&#45;&gt;Node27 -->
<g id="edge48" class="edge"><title>Node1&#45;&gt;Node27</title>
<path fill="none" stroke="midnightblue" d="M72.0836,-294.755C80.6817,-253.581 108.579,-143.88 172,-80 172.935,-79.058 173.913,-78.148 174.925,-77.2691"/>
<polygon fill="midnightblue" stroke="midnightblue" points="177.295,-79.8713 183.278,-71.1278 173.148,-74.2315 177.295,-79.8713"/>
</g>
<!-- Node28 -->
<g id="node28" class="node"><title>Node28</title>
<g id="a_node28"><a xlink:href="classrc_rectangle.html#a37c8043dcda3dc1076e57c4a1c219263" target="_top" xlink:title="rcRectangle::width">
<polygon fill="white" stroke="black" points="178.87,-0 178.87,-20 277.13,-20 277.13,-0 178.87,-0"/>
<text text-anchor="middle" x="228" y="-6" font-family="Helvetica,sans-Serif" font-size="10.00">rcRectangle::width</text>
</a>
</g>
</g>
<!-- Node1&#45;&gt;Node28 -->
<g id="edge50" class="edge"><title>Node1&#45;&gt;Node28</title>
<path fill="none" stroke="midnightblue" d="M70.188,-294.729C74.5406,-247 93.7401,-105.897 172,-29 173.263,-27.7587 174.611,-26.5983 176.027,-25.5136"/>
<polygon fill="midnightblue" stroke="midnightblue" points="178.104,-28.3438 184.749,-20.0916 174.408,-22.3989 178.104,-28.3438"/>
</g>
<!-- Node3&#45;&gt;Node4 -->
<g id="edge3" class="edge"><title>Node3&#45;&gt;Node4</title>
<path fill="none" stroke="midnightblue" d="M460.686,-414.564C473.734,-416.066 487.368,-417.636 500.207,-419.115"/>
<polygon fill="midnightblue" stroke="midnightblue" points="499.971,-422.611 510.306,-420.278 500.772,-415.657 499.971,-422.611"/>
</g>
<!-- Node3&#45;&gt;Node11 -->
<g id="edge10" class="edge"><title>Node3&#45;&gt;Node11</title>
<path fill="none" stroke="midnightblue" d="M408.407,-396.851C423.65,-385 448.893,-364.409 468,-344 499.831,-310 531.274,-265.253 547.889,-240.492"/>
<polygon fill="midnightblue" stroke="midnightblue" points="550.882,-242.311 553.501,-232.045 545.052,-238.437 550.882,-242.311"/>
</g>
<!-- Node5 -->
<g id="node5" class="node"><title>Node5</title>
<g id="a_node5"><a xlink:href="classrc_window.html#a3286f93b0d223617111f3ac62b854b2f" target="_top" xlink:title="rcWindow::isBound">
<polygon fill="white" stroke="black" points="657.205,-489 657.205,-509 758.795,-509 758.795,-489 657.205,-489"/>
<text text-anchor="middle" x="708" y="-495" font-family="Helvetica,sans-Serif" font-size="10.00">rcWindow::isBound</text>
</a>
</g>
</g>
<!-- Node4&#45;&gt;Node5 -->
<g id="edge4" class="edge"><title>Node4&#45;&gt;Node5</title>
<path fill="none" stroke="midnightblue" d="M577.861,-436.195C595.867,-447.517 626.338,-465.918 654,-479 658.605,-481.178 663.516,-483.293 668.421,-485.282"/>
<polygon fill="midnightblue" stroke="midnightblue" points="667.176,-488.553 677.764,-488.934 669.725,-482.034 667.176,-488.553"/>
</g>
<!-- Node6 -->
<g id="node6" class="node"><title>Node6</title>
<g id="a_node6"><a xlink:href="classrc_frame.html#afe29820f04ff401b75e23226cbec4c03" target="_top" xlink:title="rcFrame::getPixel">
<polygon fill="white" stroke="black" points="660.823,-411 660.823,-431 755.177,-431 755.177,-411 660.823,-411"/>
<text text-anchor="middle" x="708" y="-417" font-family="Helvetica,sans-Serif" font-size="10.00">rcFrame::getPixel</text>
</a>
</g>
</g>
<!-- Node4&#45;&gt;Node6 -->
<g id="edge5" class="edge"><title>Node4&#45;&gt;Node6</title>
<path fill="none" stroke="midnightblue" d="M611.901,-424.279C624.312,-423.851 637.704,-423.39 650.411,-422.951"/>
<polygon fill="midnightblue" stroke="midnightblue" points="650.549,-426.449 660.423,-422.606 650.308,-419.453 650.549,-426.449"/>
</g>
<!-- Node4&#45;&gt;Node7 -->
<g id="edge6" class="edge"><title>Node4&#45;&gt;Node7</title>
<path fill="none" stroke="midnightblue" d="M604.721,-436.017C625.493,-440.888 650.213,-446.684 670.146,-451.358"/>
<polygon fill="midnightblue" stroke="midnightblue" points="669.553,-454.814 680.088,-453.69 671.151,-447.999 669.553,-454.814"/>
</g>
<!-- Node4&#45;&gt;Node9 -->
<g id="edge8" class="edge"><title>Node4&#45;&gt;Node9</title>
<path fill="none" stroke="midnightblue" d="M589.615,-415.906C612.537,-407.528 645.329,-395.542 670.43,-386.367"/>
<polygon fill="midnightblue" stroke="midnightblue" points="671.788,-389.597 679.979,-382.877 669.385,-383.022 671.788,-389.597"/>
</g>
<!-- Node8 -->
<g id="node8" class="node"><title>Node8</title>
<g id="a_node8"><a xlink:href="classrc_pair.html#ad1a3cb1e7fdbe119ce1295514b1bb49d" target="_top" xlink:title="rcPair::x">
<polygon fill="white" stroke="black" points="798.665,-450 798.665,-470 851.335,-470 851.335,-450 798.665,-450"/>
<text text-anchor="middle" x="825" y="-456" font-family="Helvetica,sans-Serif" font-size="10.00">rcPair::x</text>
</a>
</g>
</g>
<!-- Node7&#45;&gt;Node8 -->
<g id="edge7" class="edge"><title>Node7&#45;&gt;Node8</title>
<path fill="none" stroke="midnightblue" d="M735.962,-460C751.576,-460 771.422,-460 788.317,-460"/>
<polygon fill="midnightblue" stroke="midnightblue" points="788.391,-463.5 798.391,-460 788.391,-456.5 788.391,-463.5"/>
</g>
<!-- Node10 -->
<g id="node10" class="node"><title>Node10</title>
<g id="a_node10"><a xlink:href="classrc_pair.html#a87400f83938e920c405c40aa449d3607" target="_top" xlink:title="rcPair::y">
<polygon fill="white" stroke="black" points="798.665,-363 798.665,-383 851.335,-383 851.335,-363 798.665,-363"/>
<text text-anchor="middle" x="825" y="-369" font-family="Helvetica,sans-Serif" font-size="10.00">rcPair::y</text>
</a>
</g>
</g>
<!-- Node9&#45;&gt;Node10 -->
<g id="edge9" class="edge"><title>Node9&#45;&gt;Node10</title>
<path fill="none" stroke="midnightblue" d="M735.962,-373C751.576,-373 771.422,-373 788.317,-373"/>
<polygon fill="midnightblue" stroke="midnightblue" points="788.391,-376.5 798.391,-373 788.391,-369.5 788.391,-376.5"/>
</g>
<!-- Node16&#45;&gt;Node5 -->
<g id="edge17" class="edge"><title>Node16&#45;&gt;Node5</title>
<path fill="none" stroke="midnightblue" d="M611.495,-514.808C622.79,-512.938 634.916,-510.931 646.609,-508.996"/>
<polygon fill="midnightblue" stroke="midnightblue" points="647.448,-512.405 656.742,-507.319 646.305,-505.499 647.448,-512.405"/>
</g>
<!-- Node16&#45;&gt;Node7 -->
<g id="edge19" class="edge"><title>Node16&#45;&gt;Node7</title>
<path fill="none" stroke="midnightblue" d="M585.263,-512.887C595.369,-508.424 607.316,-503.053 618,-498 634.171,-490.352 637.61,-487.167 654,-480 659.238,-477.71 664.829,-475.428 670.344,-473.27"/>
<polygon fill="midnightblue" stroke="midnightblue" points="672.003,-476.383 680.094,-469.542 669.503,-469.844 672.003,-476.383"/>
</g>
<!-- Node16&#45;&gt;Node9 -->
<g id="edge20" class="edge"><title>Node16&#45;&gt;Node9</title>
<path fill="none" stroke="midnightblue" d="M569.393,-512.778C589.365,-485.236 643.6,-410.952 654,-402 660.204,-396.66 667.552,-391.88 674.769,-387.816"/>
<polygon fill="midnightblue" stroke="midnightblue" points="676.546,-390.835 683.744,-383.062 673.269,-384.649 676.546,-390.835"/>
</g>
<!-- Node17 -->
<g id="node17" class="node"><title>Node17</title>
<g id="a_node17"><a xlink:href="classrc_frame.html#a28af1b24a02c5946d1e8cd173ba177b3" target="_top" xlink:title="rcFrame::setPixel">
<polygon fill="white" stroke="black" points="661.104,-528 661.104,-548 754.896,-548 754.896,-528 661.104,-528"/>
<text text-anchor="middle" x="708" y="-534" font-family="Helvetica,sans-Serif" font-size="10.00">rcFrame::setPixel</text>
</a>
</g>
</g>
<!-- Node16&#45;&gt;Node17 -->
<g id="edge18" class="edge"><title>Node16&#45;&gt;Node17</title>
<path fill="none" stroke="midnightblue" d="M611.495,-528.12C624.054,-529.419 637.64,-530.825 650.517,-532.157"/>
<polygon fill="midnightblue" stroke="midnightblue" points="650.351,-535.658 660.659,-533.206 651.072,-528.696 650.351,-535.658"/>
</g>
<!-- Node18&#45;&gt;Node11 -->
<g id="edge47" class="edge"><title>Node18&#45;&gt;Node11</title>
<path fill="none" stroke="midnightblue" d="M241.483,-122.245C257.409,-141.667 286.887,-173.49 320,-189 379.507,-216.873 455.771,-223.015 506.175,-223.57"/>
<polygon fill="midnightblue" stroke="midnightblue" points="506.196,-227.07 516.21,-223.61 506.224,-220.07 506.196,-227.07"/>
</g>
<!-- Node18&#45;&gt;Node12 -->
<g id="edge22" class="edge"><title>Node18&#45;&gt;Node12</title>
<path fill="none" stroke="midnightblue" d="M259.107,-122.038C267.31,-126.658 276.107,-131.847 284,-137 300.747,-147.933 301.291,-156.931 320,-164 380.047,-186.688 454.422,-188.992 504.324,-187.205"/>
<polygon fill="midnightblue" stroke="midnightblue" points="504.745,-190.69 514.587,-186.767 504.447,-183.696 504.745,-190.69"/>
</g>
<!-- Node19 -->
<g id="node19" class="node"><title>Node19</title>
<g id="a_node19"><a xlink:href="rc__moments_8cpp.html#a4fe8630130174ae886fae39d9477e769" target="_top" xlink:title="rfGen1DMomentIntegrals">
<polygon fill="white" stroke="black" points="329.865,-96 329.865,-116 458.135,-116 458.135,-96 329.865,-96"/>
<text text-anchor="middle" x="394" y="-102" font-family="Helvetica,sans-Serif" font-size="10.00">rfGen1DMomentIntegrals</text>
</a>
</g>
</g>
<!-- Node18&#45;&gt;Node19 -->
<g id="edge23" class="edge"><title>Node18&#45;&gt;Node19</title>
<path fill="none" stroke="midnightblue" d="M283.61,-106C295.184,-106 307.581,-106 319.721,-106"/>
<polygon fill="midnightblue" stroke="midnightblue" points="319.833,-109.5 329.833,-106 319.833,-102.5 319.833,-109.5"/>
</g>
<!-- Node21 -->
<g id="node21" class="node"><title>Node21</title>
<g id="a_node21"><a xlink:href="classrc_window.html#a232627a15bd75725861721177a38df82" target="_top" xlink:title="rcWindow::rowPointer">
<polygon fill="white" stroke="black" points="504.375,-95 504.375,-115 617.625,-115 617.625,-95 504.375,-95"/>
<text text-anchor="middle" x="561" y="-101" font-family="Helvetica,sans-Serif" font-size="10.00">rcWindow::rowPointer</text>
</a>
</g>
</g>
<!-- Node18&#45;&gt;Node21 -->
<g id="edge45" class="edge"><title>Node18&#45;&gt;Node21</title>
<path fill="none" stroke="midnightblue" d="M266.812,-89.9809C272.731,-86.9514 278.653,-83.5939 284,-80 302.014,-67.8922 299.771,-54.8686 320,-47 381.303,-23.154 407.575,-21.0092 468,-47 489.371,-56.1925 484.511,-72.2949 504,-85 507.311,-87.1583 510.883,-89.1183 514.566,-90.8911"/>
<polygon fill="midnightblue" stroke="midnightblue" points="513.291,-94.1532 523.858,-94.9184 516.075,-87.7304 513.291,-94.1532"/>
</g>
<!-- Node24 -->
<g id="node24" class="node"><title>Node24</title>
<g id="a_node24"><a xlink:href="classrc_window.html#a5cddcde6594113f6d8bb2dfb1f498c0a" target="_top" xlink:title="rcWindow::rowUpdate">
<polygon fill="white" stroke="black" points="504.094,-56 504.094,-76 617.906,-76 617.906,-56 504.094,-56"/>
<text text-anchor="middle" x="561" y="-62" font-family="Helvetica,sans-Serif" font-size="10.00">rcWindow::rowUpdate</text>
</a>
</g>
</g>
<!-- Node18&#45;&gt;Node24 -->
<g id="edge46" class="edge"><title>Node18&#45;&gt;Node24</title>
<path fill="none" stroke="midnightblue" d="M269.657,-89.9782C274.765,-87.0674 279.699,-83.7453 284,-80 306.033,-60.8148 294.3,-38.894 320,-25 390.124,12.9108 487.174,-27.2831 533.425,-51.081"/>
<polygon fill="midnightblue" stroke="midnightblue" points="532.019,-54.2967 542.495,-55.8764 535.29,-48.1083 532.019,-54.2967"/>
</g>
<!-- Node25 -->
<g id="node25" class="node"><title>Node25</title>
<g id="a_node25"><a xlink:href="rc__moments_8cpp.html#a736675f43b010edda050a94d93a3bb91" target="_top" xlink:title="rfGen2DMomentIntegrals">
<polygon fill="white" stroke="black" points="329.865,-57 329.865,-77 458.135,-77 458.135,-57 329.865,-57"/>
<text text-anchor="middle" x="394" y="-63" font-family="Helvetica,sans-Serif" font-size="10.00">rfGen2DMomentIntegrals</text>
</a>
</g>
</g>
<!-- Node18&#45;&gt;Node25 -->
<g id="edge33" class="edge"><title>Node18&#45;&gt;Node25</title>
<path fill="none" stroke="midnightblue" d="M283.61,-93.0136C302.085,-88.62 322.657,-83.7279 340.93,-79.3825"/>
<polygon fill="midnightblue" stroke="midnightblue" points="341.899,-82.7498 350.818,-77.0312 340.279,-75.9398 341.899,-82.7498"/>
</g>
<!-- Node26 -->
<g id="node26" class="node"><title>Node26</title>
<g id="a_node26"><a xlink:href="rc__moments_8cpp.html#a0511827967c9dd723498545eed039f36" target="_top" xlink:title="rfGen2DMomentIntegralsFast">
<polygon fill="white" stroke="black" points="320.141,-135 320.141,-155 467.859,-155 467.859,-135 320.141,-135"/>
<text text-anchor="middle" x="394" y="-141" font-family="Helvetica,sans-Serif" font-size="10.00">rfGen2DMomentIntegralsFast</text>
</a>
</g>
</g>
<!-- Node18&#45;&gt;Node26 -->
<g id="edge39" class="edge"><title>Node18&#45;&gt;Node26</title>
<path fill="none" stroke="midnightblue" d="M283.61,-118.986C302.085,-123.38 322.657,-128.272 340.93,-132.618"/>
<polygon fill="midnightblue" stroke="midnightblue" points="340.279,-136.06 350.818,-134.969 341.899,-129.25 340.279,-136.06"/>
</g>
<!-- Node19&#45;&gt;Node11 -->
<g id="edge32" class="edge"><title>Node19&#45;&gt;Node11</title>
<path fill="none" stroke="midnightblue" d="M453.524,-116.091C458.737,-118.47 463.671,-121.398 468,-125 497.039,-149.165 476.058,-176.576 504,-202 505.971,-203.793 508.114,-205.428 510.374,-206.919"/>
<polygon fill="midnightblue" stroke="midnightblue" points="509.109,-210.218 519.556,-211.98 512.488,-204.087 509.109,-210.218"/>
</g>
<!-- Node19&#45;&gt;Node12 -->
<g id="edge25" class="edge"><title>Node19&#45;&gt;Node12</title>
<path fill="none" stroke="midnightblue" d="M448.253,-116.103C455.143,-118.479 461.911,-121.404 468,-125 488.031,-136.832 484.511,-150.295 504,-163 507.311,-165.158 510.883,-167.118 514.566,-168.891"/>
<polygon fill="midnightblue" stroke="midnightblue" points="513.291,-172.153 523.858,-172.918 516.075,-165.73 513.291,-172.153"/>
</g>
<!-- Node20 -->
<g id="node20" class="node"><title>Node20</title>
<g id="a_node20"><a xlink:href="classrc_window.html#a9ab724dc45a3c3c2beee6c8ed558de1e" target="_top" xlink:title="rcWindow::depth">
<polygon fill="white" stroke="black" points="515.761,-134 515.761,-154 606.239,-154 606.239,-134 515.761,-134"/>
<text text-anchor="middle" x="561" y="-140" font-family="Helvetica,sans-Serif" font-size="10.00">rcWindow::depth</text>
</a>
</g>
</g>
<!-- Node19&#45;&gt;Node20 -->
<g id="edge24" class="edge"><title>Node19&#45;&gt;Node20</title>
<path fill="none" stroke="midnightblue" d="M438.784,-116.084C459.565,-120.869 484.584,-126.632 506.483,-131.675"/>
<polygon fill="midnightblue" stroke="midnightblue" points="505.768,-135.102 516.298,-133.935 507.339,-128.28 505.768,-135.102"/>
</g>
<!-- Node19&#45;&gt;Node21 -->
<g id="edge26" class="edge"><title>Node19&#45;&gt;Node21</title>
<path fill="none" stroke="midnightblue" d="M458.321,-105.616C469.99,-105.546 482.2,-105.472 493.946,-105.4"/>
<polygon fill="midnightblue" stroke="midnightblue" points="494.146,-108.899 504.124,-105.339 494.103,-101.899 494.146,-108.899"/>
</g>
<!-- Node19&#45;&gt;Node24 -->
<g id="edge31" class="edge"><title>Node19&#45;&gt;Node24</title>
<path fill="none" stroke="midnightblue" d="M436.636,-95.9063C458.508,-90.6041 485.506,-84.0591 508.664,-78.4452"/>
<polygon fill="midnightblue" stroke="midnightblue" points="509.769,-81.7787 518.663,-76.0211 508.12,-74.9757 509.769,-81.7787"/>
</g>
<!-- Node21&#45;&gt;Node7 -->
<g id="edge29" class="edge"><title>Node21&#45;&gt;Node7</title>
<path fill="none" stroke="midnightblue" d="M607.507,-115.115C611.489,-117.484 615.1,-120.403 618,-124 706.724,-234.039 567.145,-328.48 654,-440 658.263,-445.474 664.202,-449.45 670.568,-452.337"/>
<polygon fill="midnightblue" stroke="midnightblue" points="669.464,-455.66 680.057,-455.837 671.886,-449.093 669.464,-455.66"/>
</g>
<!-- Node21&#45;&gt;Node9 -->
<g id="edge28" class="edge"><title>Node21&#45;&gt;Node9</title>
<path fill="none" stroke="midnightblue" d="M605.318,-115.115C609.975,-117.481 614.341,-120.4 618,-124 683.903,-188.845 701.196,-305.767 705.575,-352.697"/>
<polygon fill="midnightblue" stroke="midnightblue" points="702.099,-353.133 706.415,-362.809 709.075,-352.554 702.099,-353.133"/>
</g>
<!-- Node22 -->
<g id="node22" class="node"><title>Node22</title>
<g id="a_node22"><a xlink:href="classrc_frame.html#a401a851fcb8a4328949d38cb34b572f6" target="_top" xlink:title="rcFrame::rowPointer">
<polygon fill="white" stroke="black" points="654.712,-76 654.712,-96 761.288,-96 761.288,-76 654.712,-76"/>
<text text-anchor="middle" x="708" y="-82" font-family="Helvetica,sans-Serif" font-size="10.00">rcFrame::rowPointer</text>
</a>
</g>
</g>
<!-- Node21&#45;&gt;Node22 -->
<g id="edge27" class="edge"><title>Node21&#45;&gt;Node22</title>
<path fill="none" stroke="midnightblue" d="M617.646,-97.7084C626.466,-96.5527 635.639,-95.3508 644.601,-94.1764"/>
<polygon fill="midnightblue" stroke="midnightblue" points="645.14,-97.6358 654.6,-92.8662 644.23,-90.6951 645.14,-97.6358"/>
</g>
<!-- Node23 -->
<g id="node23" class="node"><title>Node23</title>
<g id="a_node23"><a xlink:href="classrc_frame.html#aaef8303c840834284eb9c60d33bf40c1" target="_top" xlink:title="rcFrame::depth">
<polygon fill="white" stroke="black" points="666.099,-115 666.099,-135 749.901,-135 749.901,-115 666.099,-115"/>
<text text-anchor="middle" x="708" y="-121" font-family="Helvetica,sans-Serif" font-size="10.00">rcFrame::depth</text>
</a>
</g>
</g>
<!-- Node21&#45;&gt;Node23 -->
<g id="edge30" class="edge"><title>Node21&#45;&gt;Node23</title>
<path fill="none" stroke="midnightblue" d="M617.646,-112.675C630.125,-114.397 643.309,-116.215 655.606,-117.911"/>
<polygon fill="midnightblue" stroke="midnightblue" points="655.307,-121.403 665.691,-119.302 656.263,-114.469 655.307,-121.403"/>
</g>
<!-- Node25&#45;&gt;Node11 -->
<g id="edge38" class="edge"><title>Node25&#45;&gt;Node11</title>
<path fill="none" stroke="midnightblue" d="M455.118,-77.0277C459.824,-79.4319 464.211,-82.3827 468,-86 507.044,-123.277 466.641,-163.034 504,-202 505.596,-203.665 507.341,-205.192 509.195,-206.592"/>
<polygon fill="midnightblue" stroke="midnightblue" points="507.56,-209.695 517.911,-211.953 511.227,-203.732 507.56,-209.695"/>
</g>
<!-- Node25&#45;&gt;Node12 -->
<g id="edge35" class="edge"><title>Node25&#45;&gt;Node12</title>
<path fill="none" stroke="midnightblue" d="M453.524,-77.0912C458.737,-79.47 463.671,-82.398 468,-86 497.039,-110.165 476.058,-137.576 504,-163 505.971,-164.793 508.114,-166.428 510.374,-167.919"/>
<polygon fill="midnightblue" stroke="midnightblue" points="509.109,-171.218 519.556,-172.98 512.488,-165.087 509.109,-171.218"/>
</g>
<!-- Node25&#45;&gt;Node20 -->
<g id="edge34" class="edge"><title>Node25&#45;&gt;Node20</title>
<path fill="none" stroke="midnightblue" d="M448.253,-77.1028C455.143,-79.4789 461.911,-82.4035 468,-86 488.031,-97.8316 484.511,-111.295 504,-124 507.311,-126.158 510.883,-128.118 514.566,-129.891"/>
<polygon fill="midnightblue" stroke="midnightblue" points="513.291,-133.153 523.858,-133.918 516.075,-126.73 513.291,-133.153"/>
</g>
<!-- Node25&#45;&gt;Node21 -->
<g id="edge36" class="edge"><title>Node25&#45;&gt;Node21</title>
<path fill="none" stroke="midnightblue" d="M438.784,-77.0835C459.565,-81.8695 484.584,-87.6315 506.483,-92.6748"/>
<polygon fill="midnightblue" stroke="midnightblue" points="505.768,-96.1017 516.298,-94.9353 507.339,-89.2803 505.768,-96.1017"/>
</g>
<!-- Node25&#45;&gt;Node24 -->
<g id="edge37" class="edge"><title>Node25&#45;&gt;Node24</title>
<path fill="none" stroke="midnightblue" d="M458.321,-66.6162C469.919,-66.5459 482.053,-66.4724 493.734,-66.4016"/>
<polygon fill="midnightblue" stroke="midnightblue" points="493.879,-69.9009 503.858,-66.3403 493.837,-62.901 493.879,-69.9009"/>
</g>
<!-- Node26&#45;&gt;Node11 -->
<g id="edge44" class="edge"><title>Node26&#45;&gt;Node11</title>
<path fill="none" stroke="midnightblue" d="M412.378,-155.049C433.587,-167.087 470.741,-187.448 504,-202 509.084,-204.224 514.501,-206.396 519.889,-208.44"/>
<polygon fill="midnightblue" stroke="midnightblue" points="518.88,-211.798 529.474,-211.963 521.295,-205.228 518.88,-211.798"/>
</g>
<!-- Node26&#45;&gt;Node12 -->
<g id="edge41" class="edge"><title>Node26&#45;&gt;Node12</title>
<path fill="none" stroke="midnightblue" d="M438.784,-155.084C459.565,-159.869 484.584,-165.632 506.483,-170.675"/>
<polygon fill="midnightblue" stroke="midnightblue" points="505.768,-174.102 516.298,-172.935 507.339,-167.28 505.768,-174.102"/>
</g>
<!-- Node26&#45;&gt;Node20 -->
<g id="edge40" class="edge"><title>Node26&#45;&gt;Node20</title>
<path fill="none" stroke="midnightblue" d="M468.332,-144.556C480.714,-144.481 493.375,-144.404 505.18,-144.332"/>
<polygon fill="midnightblue" stroke="midnightblue" points="505.328,-147.832 515.306,-144.271 505.285,-140.832 505.328,-147.832"/>
</g>
<!-- Node26&#45;&gt;Node21 -->
<g id="edge42" class="edge"><title>Node26&#45;&gt;Node21</title>
<path fill="none" stroke="midnightblue" d="M436.636,-134.906C458.508,-129.604 485.506,-123.059 508.664,-117.445"/>
<polygon fill="midnightblue" stroke="midnightblue" points="509.769,-120.779 518.663,-115.021 508.12,-113.976 509.769,-120.779"/>
</g>
<!-- Node26&#45;&gt;Node24 -->
<g id="edge43" class="edge"><title>Node26&#45;&gt;Node24</title>
<path fill="none" stroke="midnightblue" d="M446.432,-134.928C453.967,-132.327 461.401,-129.07 468,-125 488.357,-112.444 484.027,-98.1582 504,-85 506.701,-83.2208 509.584,-81.5919 512.566,-80.103"/>
<polygon fill="midnightblue" stroke="midnightblue" points="513.991,-83.2995 521.715,-76.0469 511.154,-76.9001 513.991,-83.2995"/>
</g>
</g>
</svg>
        <g id="navigator" transform="translate(0 0)" fill="#404254">
                <rect fill="#f2f5e9" fill-opacity="0.5" stroke="#606060" stroke-width=".5" x="0" y="0" width="60" height="60"/>
                <use id="zoomplus" xlink:href="#zoomPlus" x="17" y="9" onmousedown="handleZoom(evt,'in')"/>
                <use id="zoomminus" xlink:href="#zoomMin" x="42" y="9" onmousedown="handleZoom(evt,'out')"/>
                <use id="reset" xlink:href="#resetDef" x="30" y="36" onmousedown="handleReset()"/>
                <g id="arrowUp" xlink:href="#dirArrow" transform="translate(30 24)" onmousedown="handlePan(0,-1)">
                  <use xlink:href="#rim" fill="#404040">
                        <set attributeName="fill" to="#808080" begin="arrowUp.mouseover" end="arrowUp.mouseout"/>
                  </use>
                  <path fill="none" stroke="white" stroke-width="1.5" d="M0,-3.0v7 M-2.5,-0.5L0,-3.0L2.5,-0.5"/>
                </g>
                <g id="arrowRight" xlink:href="#dirArrow" transform="rotate(90) translate(36 -43)" onmousedown="handlePan(1,0)">
                  <use xlink:href="#rim" fill="#404040">
                        <set attributeName="fill" to="#808080" begin="arrowRight.mouseover" end="arrowRight.mouseout"/>
                  </use>
                  <path fill="none" stroke="white" stroke-width="1.5" d="M0,-3.0v7 M-2.5,-0.5L0,-3.0L2.5,-0.5"/>
                </g>
                <g id="arrowDown" xlink:href="#dirArrow" transform="rotate(180) translate(-30 -48)" onmousedown="handlePan(0,1)">
                  <use xlink:href="#rim" fill="#404040">
                        <set attributeName="fill" to="#808080" begin="arrowDown.mouseover" end="arrowDown.mouseout"/>
                  </use>
                  <path fill="none" stroke="white" stroke-width="1.5" d="M0,-3.0v7 M-2.5,-0.5L0,-3.0L2.5,-0.5"/>
                </g>
                <g id="arrowLeft" xlink:href="#dirArrow" transform="rotate(270) translate(-36 17)" onmousedown="handlePan(-1,0)">
                  <use xlink:href="#rim" fill="#404040">
                        <set attributeName="fill" to="#808080" begin="arrowLeft.mouseover" end="arrowLeft.mouseout"/>
                  </use>
                  <path fill="none" stroke="white" stroke-width="1.5" d="M0,-3.0v7 M-2.5,-0.5L0,-3.0L2.5,-0.5"/>
                </g>
        </g>
        <svg viewBox="0 0 15 15" width="100%" height="30px" preserveAspectRatio="xMaxYMin meet">
         <g id="arrow_out" transform="scale(0.3 0.3)">
          <a xlink:href="classrc_muscle_tracker_af68283ba521c980b2b89393a91c8d39c_cgraph_org.svg" target="_base">
           <rect id="button" ry="5" rx="5" y="6" x="6" height="38" width="38"
                fill="#f2f5e9" fill-opacity="0.5" stroke="#606060" stroke-width="1.0"/>
           <path id="arrow"
             d="M 11.500037,31.436501 C 11.940474,20.09759 22.043105,11.32322 32.158766,21.979434 L 37.068811,17.246167 C 37.068811,17.246167 37.088388,32 37.088388,32 L 22.160133,31.978069 C 22.160133,31.978069 26.997745,27.140456 26.997745,27.140456 C 18.528582,18.264221 13.291696,25.230495 11.500037,31.436501 z"
             style="fill:#404040;"/>
          </a>
         </g>
        </svg>
</svg>
