<?xml version="1.0" encoding="UTF-8" standalone="no"?>
<!DOCTYPE svg PUBLIC "-//W3C//DTD SVG 1.1//EN"
 "http://www.w3.org/Graphics/SVG/1.1/DTD/svg11.dtd">
<!-- Generated by graphviz version 2.32.0 (20130916.1925)
 -->
<!-- Title: rcScalarSegmentIteratorImpl::setCurrentValue Pages: 1 -->
<svg width="338pt" height="142pt"
 viewBox="0.00 0.00 338.00 142.00" xmlns="http://www.w3.org/2000/svg" xmlns:xlink="http://www.w3.org/1999/xlink">
<g id="graph0" class="graph" transform="scale(1 1) rotate(0) translate(4 138)">
<title>rcScalarSegmentIteratorImpl::setCurrentValue</title>
<polygon fill="white" stroke="white" points="-4,5 -4,-138 335,-138 335,5 -4,5"/>
<!-- Node1 -->
<g id="node1" class="node"><title>Node1</title>
<polygon fill="#bfbfbf" stroke="black" points="0.364746,-51 0.364746,-83 143.635,-83 143.635,-51 0.364746,-51"/>
<text text-anchor="start" x="8.36475" y="-69" font-family="Helvetica,sans-Serif" font-size="10.00">rcScalarSegmentIteratorImpl</text>
<text text-anchor="middle" x="72" y="-57" font-family="Helvetica,sans-Serif" font-size="10.00">::setCurrentValue</text>
</g>
<!-- Node2 -->
<g id="node2" class="node"><title>Node2</title>
<g id="a_node2"><a xlink:href="classrc_scalar_segment_iterator_impl.html#a35f97af32d998150fdad760991ca16b1" target="_top" xlink:title="rcScalarSegmentIteratorImpl\l::advance">
<polygon fill="white" stroke="black" points="183.365,-102 183.365,-134 326.635,-134 326.635,-102 183.365,-102"/>
<text text-anchor="start" x="191.365" y="-120" font-family="Helvetica,sans-Serif" font-size="10.00">rcScalarSegmentIteratorImpl</text>
<text text-anchor="middle" x="255" y="-108" font-family="Helvetica,sans-Serif" font-size="10.00">::advance</text>
</a>
</g>
</g>
<!-- Node1&#45;&gt;Node2 -->
<g id="edge1" class="edge"><title>Node1&#45;&gt;Node2</title>
<path fill="none" stroke="midnightblue" d="M139.941,-85.8617C158.724,-91.1544 178.963,-96.8571 197.103,-101.968"/>
<polygon fill="midnightblue" stroke="midnightblue" points="140.844,-82.48 130.27,-83.1367 138.945,-89.2177 140.844,-82.48"/>
</g>
<!-- Node3 -->
<g id="node3" class="node"><title>Node3</title>
<g id="a_node3"><a xlink:href="classrc_scalar_segment_iterator_impl.html#abf93ea1e24bdea6159718ded2c98667f" target="_top" xlink:title="rcScalarSegmentIteratorImpl\l::rcScalarSegmentIteratorImpl">
<polygon fill="white" stroke="black" points="180.586,-51 180.586,-83 329.414,-83 329.414,-51 180.586,-51"/>
<text text-anchor="start" x="188.586" y="-69" font-family="Helvetica,sans-Serif" font-size="10.00">rcScalarSegmentIteratorImpl</text>
<text text-anchor="middle" x="255" y="-57" font-family="Helvetica,sans-Serif" font-size="10.00">::rcScalarSegmentIteratorImpl</text>
</a>
</g>
</g>
<!-- Node1&#45;&gt;Node3 -->
<g id="edge2" class="edge"><title>Node1&#45;&gt;Node3</title>
<path fill="none" stroke="midnightblue" d="M153.975,-67C162.744,-67 171.633,-67 180.308,-67"/>
<polygon fill="midnightblue" stroke="midnightblue" points="153.757,-63.5001 143.757,-67 153.757,-70.5001 153.757,-63.5001"/>
</g>
<!-- Node4 -->
<g id="node4" class="node"><title>Node4</title>
<g id="a_node4"><a xlink:href="classrc_scalar_segment_iterator_impl.html#a8bbab694749f90d95bcf9a0d8318f1d9" target="_top" xlink:title="rcScalarSegmentIteratorImpl\l::reset">
<polygon fill="white" stroke="black" points="183.365,-0 183.365,-32 326.635,-32 326.635,-0 183.365,-0"/>
<text text-anchor="start" x="191.365" y="-18" font-family="Helvetica,sans-Serif" font-size="10.00">rcScalarSegmentIteratorImpl</text>
<text text-anchor="middle" x="255" y="-6" font-family="Helvetica,sans-Serif" font-size="10.00">::reset</text>
</a>
</g>
</g>
<!-- Node1&#45;&gt;Node4 -->
<g id="edge3" class="edge"><title>Node1&#45;&gt;Node4</title>
<path fill="none" stroke="midnightblue" d="M139.941,-48.1383C158.724,-42.8456 178.963,-37.1429 197.103,-32.0317"/>
<polygon fill="midnightblue" stroke="midnightblue" points="138.945,-44.7823 130.27,-50.8633 140.844,-51.52 138.945,-44.7823"/>
</g>
</g>
</svg>
