<?xml version="1.0" encoding="UTF-8" standalone="no"?>
<!DOCTYPE svg PUBLIC "-//W3C//DTD SVG 1.1//EN"
 "http://www.w3.org/Graphics/SVG/1.1/DTD/svg11.dtd">
<!-- Generated by graphviz version 2.32.0 (20130916.1925)
 -->
<!-- Title: rcModelDomain::vl Pages: 1 -->
<svg width="652pt" height="439pt"
 viewBox="0.00 0.00 652.00 439.00" xmlns="http://www.w3.org/2000/svg" xmlns:xlink="http://www.w3.org/1999/xlink">
<g id="graph0" class="graph" transform="scale(1 1) rotate(0) translate(4 435)">
<title>rcModelDomain::vl</title>
<polygon fill="white" stroke="white" points="-4,5 -4,-435 649,-435 649,5 -4,5"/>
<!-- Node1 -->
<g id="node1" class="node"><title>Node1</title>
<polygon fill="#bfbfbf" stroke="black" points="0.598633,-211 0.598633,-231 99.4014,-231 99.4014,-211 0.598633,-211"/>
<text text-anchor="middle" x="50" y="-217" font-family="Helvetica,sans-Serif" font-size="10.00">rcModelDomain::vl</text>
</g>
<!-- Node2 -->
<g id="node2" class="node"><title>Node2</title>
<g id="a_node2"><a xlink:href="classrc_model_domain.html#a3cd29a42f9a6ecee727339585064fb94" target="_top" xlink:title="rcModelDomain::requestImage\lImport">
<polygon fill="white" stroke="black" points="146.636,-399 146.636,-431 299.364,-431 299.364,-399 146.636,-399"/>
<text text-anchor="start" x="154.636" y="-417" font-family="Helvetica,sans-Serif" font-size="10.00">rcModelDomain::requestImage</text>
<text text-anchor="middle" x="223" y="-405" font-family="Helvetica,sans-Serif" font-size="10.00">Import</text>
</a>
</g>
</g>
<!-- Node1&#45;&gt;Node2 -->
<g id="edge1" class="edge"><title>Node1&#45;&gt;Node2</title>
<path fill="none" stroke="midnightblue" d="M55.6214,-241.065C64.7715,-276.269 88.5457,-349.192 136,-389 140.541,-392.809 145.629,-396.061 151.001,-398.836"/>
<polygon fill="midnightblue" stroke="midnightblue" points="58.9446,-239.922 53.153,-231.05 52.148,-241.597 58.9446,-239.922"/>
</g>
<!-- Node3 -->
<g id="node3" class="node"><title>Node3</title>
<g id="a_node3"><a xlink:href="classrc_model_domain.html#a1514fd1ccd23c50f4cce7d6ebf5a923d" target="_top" xlink:title="rcModelDomain::requestMovie\lImport">
<polygon fill="white" stroke="black" points="147.195,-348 147.195,-380 298.805,-380 298.805,-348 147.195,-348"/>
<text text-anchor="start" x="155.195" y="-366" font-family="Helvetica,sans-Serif" font-size="10.00">rcModelDomain::requestMovie</text>
<text text-anchor="middle" x="223" y="-354" font-family="Helvetica,sans-Serif" font-size="10.00">Import</text>
</a>
</g>
</g>
<!-- Node1&#45;&gt;Node3 -->
<g id="edge2" class="edge"><title>Node1&#45;&gt;Node3</title>
<path fill="none" stroke="midnightblue" d="M60.0377,-240.386C73.1451,-266.404 99.8708,-312.313 136,-338 141.339,-341.796 147.241,-345.046 153.378,-347.828"/>
<polygon fill="midnightblue" stroke="midnightblue" points="63.074,-238.626 55.5477,-231.17 56.7811,-241.692 63.074,-238.626"/>
</g>
<!-- Node4 -->
<g id="node4" class="node"><title>Node4</title>
<g id="a_node4"><a xlink:href="classrc_model_domain.html#ab41cf756969a580e0cc71991178adaa0" target="_top" xlink:title="rcModelDomain::requestMovieSave">
<polygon fill="white" stroke="black" points="135.798,-309 135.798,-329 310.202,-329 310.202,-309 135.798,-309"/>
<text text-anchor="middle" x="223" y="-315" font-family="Helvetica,sans-Serif" font-size="10.00">rcModelDomain::requestMovieSave</text>
</a>
</g>
</g>
<!-- Node1&#45;&gt;Node4 -->
<g id="edge3" class="edge"><title>Node1&#45;&gt;Node4</title>
<path fill="none" stroke="midnightblue" d="M65.7323,-239.135C81.3103,-257.081 107.533,-283.98 136,-299 143.728,-303.077 152.278,-306.33 160.901,-308.924"/>
<polygon fill="midnightblue" stroke="midnightblue" points="68.1031,-236.518 58.9769,-231.136 62.7551,-241.034 68.1031,-236.518"/>
</g>
<!-- Node5 -->
<g id="node5" class="node"><title>Node5</title>
<g id="a_node5"><a xlink:href="classrc_model_domain.html#a13bae0fdfe648f4b69bfbba62de82ea4" target="_top" xlink:title="rcModelDomain::requestOpen">
<polygon fill="white" stroke="black" points="148.301,-270 148.301,-290 297.699,-290 297.699,-270 148.301,-270"/>
<text text-anchor="middle" x="223" y="-276" font-family="Helvetica,sans-Serif" font-size="10.00">rcModelDomain::requestOpen</text>
</a>
</g>
</g>
<!-- Node1&#45;&gt;Node5 -->
<g id="edge4" class="edge"><title>Node1&#45;&gt;Node5</title>
<path fill="none" stroke="midnightblue" d="M79.1107,-235.637C95.3958,-243.671 116.479,-253.328 136,-260 147.169,-263.817 159.4,-267.148 171.043,-269.939"/>
<polygon fill="midnightblue" stroke="midnightblue" points="80.6324,-232.484 70.1247,-231.128 77.4932,-238.741 80.6324,-232.484"/>
</g>
<!-- Node9 -->
<g id="node9" class="node"><title>Node9</title>
<g id="a_node9"><a xlink:href="classrc_model_domain.html#ab4bf2c2c8ad4d84a29c99a63ab41b930" target="_top" xlink:title="rcModelDomain::requestProcess">
<polygon fill="white" stroke="black" points="142.471,-231 142.471,-251 303.529,-251 303.529,-231 142.471,-231"/>
<text text-anchor="middle" x="223" y="-237" font-family="Helvetica,sans-Serif" font-size="10.00">rcModelDomain::requestProcess</text>
</a>
</g>
</g>
<!-- Node1&#45;&gt;Node9 -->
<g id="edge9" class="edge"><title>Node1&#45;&gt;Node9</title>
<path fill="none" stroke="midnightblue" d="M109.793,-227.876C120.267,-229.101 131.335,-230.396 142.277,-231.676"/>
<polygon fill="midnightblue" stroke="midnightblue" points="109.883,-224.363 99.5443,-226.678 109.07,-231.316 109.883,-224.363"/>
</g>
<!-- Node10 -->
<g id="node10" class="node"><title>Node10</title>
<g id="a_node10"><a xlink:href="classrc_model_domain.html#afb470cea2cec9467ef2b23b7ca1c71b4" target="_top" xlink:title="rcModelDomain::requestStart">
<polygon fill="white" stroke="black" points="149.973,-192 149.973,-212 296.027,-212 296.027,-192 149.973,-192"/>
<text text-anchor="middle" x="223" y="-198" font-family="Helvetica,sans-Serif" font-size="10.00">rcModelDomain::requestStart</text>
</a>
</g>
</g>
<!-- Node1&#45;&gt;Node10 -->
<g id="edge10" class="edge"><title>Node1&#45;&gt;Node10</title>
<path fill="none" stroke="midnightblue" d="M109.662,-214.482C122.553,-213.05 136.349,-211.517 149.705,-210.033"/>
<polygon fill="midnightblue" stroke="midnightblue" points="109.097,-211.023 99.5443,-215.606 109.87,-217.98 109.097,-211.023"/>
</g>
<!-- Node11 -->
<g id="node11" class="node"><title>Node11</title>
<g id="a_node11"><a xlink:href="classrc_model_domain.html#a96030af9e5c0e469a57555fa2e89bd4c" target="_top" xlink:title="rcModelDomain::requestSTKImport">
<polygon fill="white" stroke="black" points="136.638,-153 136.638,-173 309.362,-173 309.362,-153 136.638,-153"/>
<text text-anchor="middle" x="223" y="-159" font-family="Helvetica,sans-Serif" font-size="10.00">rcModelDomain::requestSTKImport</text>
</a>
</g>
</g>
<!-- Node1&#45;&gt;Node11 -->
<g id="edge11" class="edge"><title>Node1&#45;&gt;Node11</title>
<path fill="none" stroke="midnightblue" d="M79.9309,-206.401C96.1186,-198.659 116.841,-189.444 136,-183 147.333,-179.188 159.743,-175.843 171.523,-173.033"/>
<polygon fill="midnightblue" stroke="midnightblue" points="77.9534,-203.471 70.4924,-210.993 81.0159,-209.765 77.9534,-203.471"/>
</g>
<!-- Node12 -->
<g id="node12" class="node"><title>Node12</title>
<g id="a_node12"><a xlink:href="classrc_model_domain.html#ab03e17b637966431091a8bcbd097a1de" target="_top" xlink:title="rcModelDomain::requestTif\lDirImport">
<polygon fill="white" stroke="black" points="155.161,-102 155.161,-134 290.839,-134 290.839,-102 155.161,-102"/>
<text text-anchor="start" x="163.161" y="-120" font-family="Helvetica,sans-Serif" font-size="10.00">rcModelDomain::requestTif</text>
<text text-anchor="middle" x="223" y="-108" font-family="Helvetica,sans-Serif" font-size="10.00">DirImport</text>
</a>
</g>
</g>
<!-- Node1&#45;&gt;Node12 -->
<g id="edge12" class="edge"><title>Node1&#45;&gt;Node12</title>
<path fill="none" stroke="midnightblue" d="M66.2427,-203.203C82.0514,-185.792 108.298,-159.671 136,-144 142.652,-140.237 149.909,-136.962 157.294,-134.125"/>
<polygon fill="midnightblue" stroke="midnightblue" points="63.3746,-201.163 59.3599,-210.967 68.6126,-205.806 63.3746,-201.163"/>
</g>
<!-- Node13 -->
<g id="node13" class="node"><title>Node13</title>
<g id="a_node13"><a xlink:href="classrc_model_domain.html#aa5bff6b4d973fc9aa44516d9ecaf8876" target="_top" xlink:title="rcModelDomain::requestTracking\lPause">
<polygon fill="white" stroke="black" points="141.543,-51 141.543,-83 304.457,-83 304.457,-51 141.543,-51"/>
<text text-anchor="start" x="149.543" y="-69" font-family="Helvetica,sans-Serif" font-size="10.00">rcModelDomain::requestTracking</text>
<text text-anchor="middle" x="223" y="-57" font-family="Helvetica,sans-Serif" font-size="10.00">Pause</text>
</a>
</g>
</g>
<!-- Node1&#45;&gt;Node13 -->
<g id="edge13" class="edge"><title>Node1&#45;&gt;Node13</title>
<path fill="none" stroke="midnightblue" d="M58.8355,-201.429C71.0932,-173.289 97.4595,-121.641 136,-93 141.133,-89.1855 146.828,-85.9259 152.773,-83.1414"/>
<polygon fill="midnightblue" stroke="midnightblue" points="55.4755,-200.391 54.8324,-210.966 61.93,-203.1 55.4755,-200.391"/>
</g>
<!-- Node14 -->
<g id="node14" class="node"><title>Node14</title>
<g id="a_node14"><a xlink:href="classrc_model_domain.html#a5d280d4d96c00d1d6e14f64a3f4874ed" target="_top" xlink:title="rcModelDomain::stopTracking\lPause">
<polygon fill="white" stroke="black" points="148.77,-0 148.77,-32 297.23,-32 297.23,-0 148.77,-0"/>
<text text-anchor="start" x="156.77" y="-18" font-family="Helvetica,sans-Serif" font-size="10.00">rcModelDomain::stopTracking</text>
<text text-anchor="middle" x="223" y="-6" font-family="Helvetica,sans-Serif" font-size="10.00">Pause</text>
</a>
</g>
</g>
<!-- Node1&#45;&gt;Node14 -->
<g id="edge14" class="edge"><title>Node1&#45;&gt;Node14</title>
<path fill="none" stroke="midnightblue" d="M54.9949,-200.657C63.3389,-163.585 86.1349,-84.9061 136,-42 140.493,-38.1341 145.547,-34.843 150.896,-32.0412"/>
<polygon fill="midnightblue" stroke="midnightblue" points="51.5072,-200.232 52.8554,-210.74 58.3548,-201.685 51.5072,-200.232"/>
</g>
<!-- Node6 -->
<g id="node6" class="node"><title>Node6</title>
<g id="a_node6"><a xlink:href="classrc_menu_bar.html#a6c16d367445a29969c123644d9d92ede" target="_top" xlink:title="rcMenuBar::doOpen">
<polygon fill="white" stroke="black" points="363.976,-289 363.976,-309 470.024,-309 470.024,-289 363.976,-289"/>
<text text-anchor="middle" x="417" y="-295" font-family="Helvetica,sans-Serif" font-size="10.00">rcMenuBar::doOpen</text>
</a>
</g>
</g>
<!-- Node5&#45;&gt;Node6 -->
<g id="edge5" class="edge"><title>Node5&#45;&gt;Node6</title>
<path fill="none" stroke="midnightblue" d="M308.096,-288.322C327.045,-290.197 346.622,-292.134 363.813,-293.836"/>
<polygon fill="midnightblue" stroke="midnightblue" points="308.254,-284.821 297.958,-287.319 307.564,-291.787 308.254,-284.821"/>
</g>
<!-- Node8 -->
<g id="node8" class="node"><title>Node8</title>
<g id="a_node8"><a xlink:href="classrc_menu_bar.html#a1c0076a5a7b2cff029d0db7976a8fdc8" target="_top" xlink:title="rcMenuBar::doOpenSettings">
<polygon fill="white" stroke="black" points="345.909,-250 345.909,-270 488.091,-270 488.091,-250 345.909,-250"/>
<text text-anchor="middle" x="417" y="-256" font-family="Helvetica,sans-Serif" font-size="10.00">rcMenuBar::doOpenSettings</text>
</a>
</g>
</g>
<!-- Node5&#45;&gt;Node8 -->
<g id="edge7" class="edge"><title>Node5&#45;&gt;Node8</title>
<path fill="none" stroke="midnightblue" d="M308.013,-271.249C320.647,-269.933 333.563,-268.587 345.866,-267.306"/>
<polygon fill="midnightblue" stroke="midnightblue" points="307.541,-267.779 297.958,-272.296 308.266,-274.741 307.541,-267.779"/>
</g>
<!-- Node7 -->
<g id="node7" class="node"><title>Node7</title>
<g id="a_node7"><a xlink:href="classrc_menu_bar.html#ac519f881b1d9d23fbc907d1c50ea9651" target="_top" xlink:title="rcMenuBar::rcMenuBar">
<polygon fill="white" stroke="black" points="524.315,-269 524.315,-289 643.685,-289 643.685,-269 524.315,-269"/>
<text text-anchor="middle" x="584" y="-275" font-family="Helvetica,sans-Serif" font-size="10.00">rcMenuBar::rcMenuBar</text>
</a>
</g>
</g>
<!-- Node6&#45;&gt;Node7 -->
<g id="edge6" class="edge"><title>Node6&#45;&gt;Node7</title>
<path fill="none" stroke="midnightblue" d="M480.481,-291.426C494.838,-289.686 510.054,-287.842 524.246,-286.122"/>
<polygon fill="midnightblue" stroke="midnightblue" points="479.713,-287.994 470.207,-292.672 480.556,-294.943 479.713,-287.994"/>
</g>
<!-- Node8&#45;&gt;Node7 -->
<g id="edge8" class="edge"><title>Node8&#45;&gt;Node7</title>
<path fill="none" stroke="midnightblue" d="M498.563,-269.277C507.205,-270.272 515.876,-271.271 524.195,-272.229"/>
<polygon fill="midnightblue" stroke="midnightblue" points="498.788,-265.78 488.453,-268.113 497.987,-272.734 498.788,-265.78"/>
</g>
</g>
</svg>
