<?xml version="1.0" encoding="UTF-8" standalone="no"?>
<!DOCTYPE svg PUBLIC "-//W3C//DTD SVG 1.1//EN"
 "http://www.w3.org/Graphics/SVG/1.1/DTD/svg11.dtd">
<!-- Generated by graphviz version 2.32.0 (20130916.1925)
 -->
<!-- Title: rcPositionWriter::setExpectedMaxValue Pages: 1 -->
<svg width="1110pt" height="85pt"
 viewBox="0.00 0.00 1110.00 85.00" xmlns="http://www.w3.org/2000/svg" xmlns:xlink="http://www.w3.org/1999/xlink">
<g id="graph0" class="graph" transform="scale(1 1) rotate(0) translate(4 81)">
<title>rcPositionWriter::setExpectedMaxValue</title>
<polygon fill="white" stroke="white" points="-4,5 -4,-81 1107,-81 1107,5 -4,5"/>
<!-- Node1 -->
<g id="node1" class="node"><title>Node1</title>
<polygon fill="#bfbfbf" stroke="black" points="0.509277,-22 0.509277,-54 147.491,-54 147.491,-22 0.509277,-22"/>
<text text-anchor="start" x="8.50928" y="-40" font-family="Helvetica,sans-Serif" font-size="10.00">rcPositionWriter::setExpected</text>
<text text-anchor="middle" x="74" y="-28" font-family="Helvetica,sans-Serif" font-size="10.00">MaxValue</text>
</g>
<!-- Node2 -->
<g id="node2" class="node"><title>Node2</title>
<g id="a_node2"><a xlink:href="classrc_writer_manager.html#ab7c8b74f6a8c39437410e661a09c18eb" target="_top" xlink:title="rcWriterManager::createPosition\lWriter">
<polygon fill="white" stroke="black" points="184.396,-45 184.396,-77 343.604,-77 343.604,-45 184.396,-45"/>
<text text-anchor="start" x="192.396" y="-63" font-family="Helvetica,sans-Serif" font-size="10.00">rcWriterManager::createPosition</text>
<text text-anchor="middle" x="264" y="-51" font-family="Helvetica,sans-Serif" font-size="10.00">Writer</text>
</a>
</g>
</g>
<!-- Node1&#45;&gt;Node2 -->
<g id="edge1" class="edge"><title>Node1&#45;&gt;Node2</title>
<path fill="none" stroke="midnightblue" d="M157.896,-48.1415C166.661,-49.2138 175.556,-50.302 184.271,-51.3683"/>
<polygon fill="midnightblue" stroke="midnightblue" points="158.037,-44.6327 147.686,-46.8924 157.187,-51.5809 158.037,-44.6327"/>
</g>
<!-- Node4 -->
<g id="node4" class="node"><title>Node4</title>
<g id="a_node4"><a xlink:href="classrc_native_importer.html#a71c3426c535c6f694642c060226490b0" target="_top" xlink:title="rcNativeImporter::parseTrack">
<polygon fill="white" stroke="black" points="191.444,-6 191.444,-26 336.556,-26 336.556,-6 191.444,-6"/>
<text text-anchor="middle" x="264" y="-12" font-family="Helvetica,sans-Serif" font-size="10.00">rcNativeImporter::parseTrack</text>
</a>
</g>
</g>
<!-- Node1&#45;&gt;Node4 -->
<g id="edge3" class="edge"><title>Node1&#45;&gt;Node4</title>
<path fill="none" stroke="midnightblue" d="M157.881,-28.3011C169.068,-26.992 180.469,-25.6579 191.436,-24.3745"/>
<polygon fill="midnightblue" stroke="midnightblue" points="157.211,-24.8556 147.686,-29.4942 158.025,-31.8081 157.211,-24.8556"/>
</g>
<!-- Node3 -->
<g id="node3" class="node"><title>Node3</title>
<g id="a_node3"><a xlink:href="classrc_cell_writer_group.html#adf8ddd2672d2b59fe5d9014d94f8173e" target="_top" xlink:title="rcCellWriterGroup::\lrcCellWriterGroup">
<polygon fill="white" stroke="black" points="425.305,-45 425.305,-77 526.695,-77 526.695,-45 425.305,-45"/>
<text text-anchor="start" x="433.305" y="-63" font-family="Helvetica,sans-Serif" font-size="10.00">rcCellWriterGroup::</text>
<text text-anchor="middle" x="476" y="-51" font-family="Helvetica,sans-Serif" font-size="10.00">rcCellWriterGroup</text>
</a>
</g>
</g>
<!-- Node2&#45;&gt;Node3 -->
<g id="edge2" class="edge"><title>Node2&#45;&gt;Node3</title>
<path fill="none" stroke="midnightblue" d="M354.109,-61C378.379,-61 403.808,-61 425.048,-61"/>
<polygon fill="midnightblue" stroke="midnightblue" points="353.794,-57.5001 343.794,-61 353.794,-64.5001 353.794,-57.5001"/>
</g>
<!-- Node5 -->
<g id="node5" class="node"><title>Node5</title>
<g id="a_node5"><a xlink:href="classrc_native_importer.html#af5adf061fe00108fe51b90bfb8747527" target="_top" xlink:title="rcNativeImporter::parseExperimentData">
<polygon fill="white" stroke="black" points="379.912,-6 379.912,-26 572.088,-26 572.088,-6 379.912,-6"/>
<text text-anchor="middle" x="476" y="-12" font-family="Helvetica,sans-Serif" font-size="10.00">rcNativeImporter::parseExperimentData</text>
</a>
</g>
</g>
<!-- Node4&#45;&gt;Node5 -->
<g id="edge4" class="edge"><title>Node4&#45;&gt;Node5</title>
<path fill="none" stroke="midnightblue" d="M346.92,-16C357.724,-16 368.872,-16 379.873,-16"/>
<polygon fill="midnightblue" stroke="midnightblue" points="346.683,-12.5001 336.683,-16 346.683,-19.5001 346.683,-12.5001"/>
</g>
<!-- Node6 -->
<g id="node6" class="node"><title>Node6</title>
<g id="a_node6"><a xlink:href="classrc_native_importer.html#aec2b9d0745ceb8c0f75ae5d7b2d28076" target="_top" xlink:title="rcNativeImporter::import\lExperiment">
<polygon fill="white" stroke="black" points="608.377,-0 608.377,-32 731.623,-32 731.623,-0 608.377,-0"/>
<text text-anchor="start" x="616.377" y="-18" font-family="Helvetica,sans-Serif" font-size="10.00">rcNativeImporter::import</text>
<text text-anchor="middle" x="670" y="-6" font-family="Helvetica,sans-Serif" font-size="10.00">Experiment</text>
</a>
</g>
</g>
<!-- Node5&#45;&gt;Node6 -->
<g id="edge5" class="edge"><title>Node5&#45;&gt;Node6</title>
<path fill="none" stroke="midnightblue" d="M582.2,-16C591.07,-16 599.835,-16 608.187,-16"/>
<polygon fill="midnightblue" stroke="midnightblue" points="582.156,-12.5001 572.156,-16 582.156,-19.5001 582.156,-12.5001"/>
</g>
<!-- Node7 -->
<g id="node7" class="node"><title>Node7</title>
<g id="a_node7"><a xlink:href="classrc_experiment_impl.html#a23195f3ff1ec159207ba1784d919434c" target="_top" xlink:title="rcExperimentImpl::loadExperiment">
<polygon fill="white" stroke="black" points="768.582,-6 768.582,-26 937.418,-26 937.418,-6 768.582,-6"/>
<text text-anchor="middle" x="853" y="-12" font-family="Helvetica,sans-Serif" font-size="10.00">rcExperimentImpl::loadExperiment</text>
</a>
</g>
</g>
<!-- Node6&#45;&gt;Node7 -->
<g id="edge6" class="edge"><title>Node6&#45;&gt;Node7</title>
<path fill="none" stroke="midnightblue" d="M741.898,-16C750.641,-16 759.64,-16 768.548,-16"/>
<polygon fill="midnightblue" stroke="midnightblue" points="741.774,-12.5001 731.774,-16 741.774,-19.5001 741.774,-12.5001"/>
</g>
<!-- Node8 -->
<g id="node8" class="node"><title>Node8</title>
<g id="a_node8"><a xlink:href="classrc_experiment_domain_impl.html#a5c45f8064944cafb71471e3a576f1ad3" target="_top" xlink:title="rcExperimentDomainImpl\l::loadExperiment">
<polygon fill="white" stroke="black" points="973.872,-0 973.872,-32 1102.13,-32 1102.13,-0 973.872,-0"/>
<text text-anchor="start" x="981.872" y="-18" font-family="Helvetica,sans-Serif" font-size="10.00">rcExperimentDomainImpl</text>
<text text-anchor="middle" x="1038" y="-6" font-family="Helvetica,sans-Serif" font-size="10.00">::loadExperiment</text>
</a>
</g>
</g>
<!-- Node7&#45;&gt;Node8 -->
<g id="edge7" class="edge"><title>Node7&#45;&gt;Node8</title>
<path fill="none" stroke="midnightblue" d="M947.468,-16C956.331,-16 965.171,-16 973.652,-16"/>
<polygon fill="midnightblue" stroke="midnightblue" points="947.467,-12.5001 937.467,-16 947.467,-19.5001 947.467,-12.5001"/>
</g>
</g>
</svg>
