<?xml version="1.0" encoding="UTF-8" standalone="no"?>
<!DOCTYPE svg PUBLIC "-//W3C//DTD SVG 1.1//EN"
 "http://www.w3.org/Graphics/SVG/1.1/DTD/svg11.dtd">
<!-- Generated by graphviz version 2.32.0 (20130916.1925)
 -->
<!-- Title: async_subprocess::close_stdin Pages: 1 -->
<svg width="454pt" height="124pt"
 viewBox="0.00 0.00 454.00 124.00" xmlns="http://www.w3.org/2000/svg" xmlns:xlink="http://www.w3.org/1999/xlink">
<g id="graph0" class="graph" transform="scale(1 1) rotate(0) translate(4 120)">
<title>async_subprocess::close_stdin</title>
<polygon fill="white" stroke="white" points="-4,5 -4,-120 451,-120 451,5 -4,5"/>
<!-- Node1 -->
<g id="node1" class="node"><title>Node1</title>
<polygon fill="#bfbfbf" stroke="black" points="0.138184,-45 0.138184,-77 127.862,-77 127.862,-45 0.138184,-45"/>
<text text-anchor="start" x="8.13818" y="-63" font-family="Helvetica,sans-Serif" font-size="10.00">async_subprocess::close</text>
<text text-anchor="middle" x="64" y="-51" font-family="Helvetica,sans-Serif" font-size="10.00">_stdin</text>
</g>
<!-- Node2 -->
<g id="node2" class="node"><title>Node2</title>
<g id="a_node2"><a xlink:href="classasync__subprocess.html#afabbb79ed1383cd1f6acc7f41ffd55da" target="_top" xlink:title="async_subprocess::kill">
<polygon fill="white" stroke="black" points="168.978,-51 168.978,-71 285.022,-71 285.022,-51 168.978,-51"/>
<text text-anchor="middle" x="227" y="-57" font-family="Helvetica,sans-Serif" font-size="10.00">async_subprocess::kill</text>
</a>
</g>
</g>
<!-- Node1&#45;&gt;Node2 -->
<g id="edge1" class="edge"><title>Node1&#45;&gt;Node2</title>
<path fill="none" stroke="midnightblue" d="M138.314,-61C148.534,-61 158.911,-61 168.777,-61"/>
<polygon fill="midnightblue" stroke="midnightblue" points="138.169,-57.5001 128.169,-61 138.169,-64.5001 138.169,-57.5001"/>
</g>
<!-- Node3 -->
<g id="node3" class="node"><title>Node3</title>
<g id="a_node3"><a xlink:href="classasync__subprocess.html#ac92988d321f578bc1bcad5f3890df470" target="_top" xlink:title="async_subprocess::\l~async_subprocess">
<polygon fill="white" stroke="black" points="333.669,-84 333.669,-116 438.331,-116 438.331,-84 333.669,-84"/>
<text text-anchor="start" x="341.669" y="-102" font-family="Helvetica,sans-Serif" font-size="10.00">async_subprocess::</text>
<text text-anchor="middle" x="386" y="-90" font-family="Helvetica,sans-Serif" font-size="10.00">~async_subprocess</text>
</a>
</g>
</g>
<!-- Node1&#45;&gt;Node3 -->
<g id="edge5" class="edge"><title>Node1&#45;&gt;Node3</title>
<path fill="none" stroke="midnightblue" d="M137.828,-75.8281C146.625,-77.3671 155.501,-78.8029 164,-80 221.795,-88.1406 288.583,-93.6505 333.48,-96.7923"/>
<polygon fill="midnightblue" stroke="midnightblue" points="138.416,-72.3777 127.954,-74.0538 137.178,-79.2673 138.416,-72.3777"/>
</g>
<!-- Node5 -->
<g id="node5" class="node"><title>Node5</title>
<g id="a_node5"><a xlink:href="classasync__subprocess.html#a94f56d9658526c745756918b4da9d68e" target="_top" xlink:title="async_subprocess::write\l_stdin">
<polygon fill="white" stroke="black" points="164.254,-0 164.254,-32 289.746,-32 289.746,-0 164.254,-0"/>
<text text-anchor="start" x="172.254" y="-18" font-family="Helvetica,sans-Serif" font-size="10.00">async_subprocess::write</text>
<text text-anchor="middle" x="227" y="-6" font-family="Helvetica,sans-Serif" font-size="10.00">_stdin</text>
</a>
</g>
</g>
<!-- Node1&#45;&gt;Node5 -->
<g id="edge4" class="edge"><title>Node1&#45;&gt;Node5</title>
<path fill="none" stroke="midnightblue" d="M132.64,-42.0944C144.648,-38.7382 157.047,-35.2725 168.733,-32.0064"/>
<polygon fill="midnightblue" stroke="midnightblue" points="131.359,-38.8183 122.67,-44.8811 133.243,-45.5599 131.359,-38.8183"/>
</g>
<!-- Node2&#45;&gt;Node3 -->
<g id="edge2" class="edge"><title>Node2&#45;&gt;Node3</title>
<path fill="none" stroke="midnightblue" d="M278.493,-73.5427C296.057,-77.9059 315.775,-82.8039 333.426,-87.1886"/>
<polygon fill="midnightblue" stroke="midnightblue" points="278.98,-70.0576 268.431,-71.0435 277.293,-76.8511 278.98,-70.0576"/>
</g>
<!-- Node4 -->
<g id="node4" class="node"><title>Node4</title>
<g id="a_node4"><a xlink:href="classasync__subprocess.html#acde5e2400ba28b985db83a164faa78fa" target="_top" xlink:title="async_subprocess::tick">
<polygon fill="white" stroke="black" points="326.311,-45 326.311,-65 445.689,-65 445.689,-45 326.311,-45"/>
<text text-anchor="middle" x="386" y="-51" font-family="Helvetica,sans-Serif" font-size="10.00">async_subprocess::tick</text>
</a>
</g>
</g>
<!-- Node2&#45;&gt;Node4 -->
<g id="edge3" class="edge"><title>Node2&#45;&gt;Node4</title>
<path fill="none" stroke="midnightblue" d="M295.26,-58.4296C305.509,-58.0379 316.019,-57.6362 326.071,-57.252"/>
<polygon fill="midnightblue" stroke="midnightblue" points="294.984,-54.9375 285.125,-58.8169 295.251,-61.9324 294.984,-54.9375"/>
</g>
</g>
</svg>
