<?xml version="1.0" encoding="UTF-8" standalone="no"?>
<!DOCTYPE svg PUBLIC "-//W3C//DTD SVG 1.1//EN"
 "http://www.w3.org/Graphics/SVG/1.1/DTD/svg11.dtd">
<!-- Generated by graphviz version 2.32.0 (20130916.1925)
 -->
<!-- Title: rcMoviePlaybackCtrl Pages: 1 -->
<svg width="146pt" height="220pt"
 viewBox="0.00 0.00 146.00 220.00" xmlns="http://www.w3.org/2000/svg" xmlns:xlink="http://www.w3.org/1999/xlink">
<g id="graph0" class="graph" transform="scale(1 1) rotate(0) translate(4 216)">
<title>rcMoviePlaybackCtrl</title>
<polygon fill="white" stroke="white" points="-4,5 -4,-216 143,-216 143,5 -4,5"/>
<!-- Node1 -->
<g id="node1" class="node"><title>Node1</title>
<polygon fill="#bfbfbf" stroke="black" points="15.4336,-1 15.4336,-21 122.566,-21 122.566,-1 15.4336,-1"/>
<text text-anchor="middle" x="69" y="-7" font-family="Helvetica,sans-Serif" font-size="10.00">rcMoviePlaybackCtrl</text>
</g>
<!-- Node2 -->
<g id="node2" class="node"><title>Node2</title>
<g id="a_node2"><a xlink:href="classrc_movie_playback_ctrl_reader.html" target="_top" xlink:title="rcMoviePlaybackCtrlReader">
<polygon fill="white" stroke="black" points="-0.965332,-61 -0.965332,-81 138.965,-81 138.965,-61 -0.965332,-61"/>
<text text-anchor="middle" x="69" y="-67" font-family="Helvetica,sans-Serif" font-size="10.00">rcMoviePlaybackCtrlReader</text>
</a>
</g>
</g>
<!-- Node2&#45;&gt;Node1 -->
<g id="edge1" class="edge"><title>Node2&#45;&gt;Node1</title>
<path fill="none" stroke="midnightblue" d="M69,-50.7309C69,-40.7807 69,-29.1016 69,-21.1903"/>
<polygon fill="midnightblue" stroke="midnightblue" points="65.5001,-50.9375 69,-60.9375 72.5001,-50.9375 65.5001,-50.9375"/>
</g>
<!-- Node3 -->
<g id="node3" class="node"><title>Node3</title>
<g id="a_node3"><a xlink:href="classrc_atomic_value.html" target="_top" xlink:title="rcAtomicValue\&lt; int \&gt;">
<polygon fill="white" stroke="black" points="15.2358,-131 15.2358,-151 122.764,-151 122.764,-131 15.2358,-131"/>
<text text-anchor="middle" x="69" y="-137" font-family="Helvetica,sans-Serif" font-size="10.00">rcAtomicValue&lt; int &gt;</text>
</a>
</g>
</g>
<!-- Node3&#45;&gt;Node2 -->
<g id="edge2" class="edge"><title>Node3&#45;&gt;Node2</title>
<path fill="none" stroke="#9a32cd" stroke-dasharray="5,2" d="M69,-120.557C69,-107.557 69,-91.0574 69,-81.0255"/>
<polygon fill="#9a32cd" stroke="#9a32cd" points="65.5001,-120.829 69,-130.829 72.5001,-120.829 65.5001,-120.829"/>
<text text-anchor="middle" x="88.1748" y="-102" font-family="Helvetica,sans-Serif" font-size="10.00"> _ctrlInfo</text>
</g>
<!-- Node4 -->
<g id="node4" class="node"><title>Node4</title>
<polygon fill="white" stroke="#bfbfbf" points="17.3647,-191 17.3647,-211 120.635,-211 120.635,-191 17.3647,-191"/>
<text text-anchor="middle" x="69" y="-197" font-family="Helvetica,sans-Serif" font-size="10.00">boost::atomic&lt; int &gt;</text>
</g>
<!-- Node4&#45;&gt;Node3 -->
<g id="edge3" class="edge"><title>Node4&#45;&gt;Node3</title>
<path fill="none" stroke="midnightblue" d="M69,-180.731C69,-170.781 69,-159.102 69,-151.19"/>
<polygon fill="midnightblue" stroke="midnightblue" points="65.5001,-180.937 69,-190.938 72.5001,-180.938 65.5001,-180.937"/>
</g>
</g>
</svg>
