<?xml version="1.0" encoding="UTF-8" standalone="no"?>
<!DOCTYPE svg PUBLIC "-//W3C//DTD SVG 1.1//EN"
 "http://www.w3.org/Graphics/SVG/1.1/DTD/svg11.dtd">
<!-- Generated by graphviz version 2.32.0 (20130916.1925)
 -->
<!-- Title: rcMenuChoiceSettingWidget::settingChanged Pages: 1 -->
<!--zoomable 359 -->
<svg id="main" version="1.1" xmlns="http://www.w3.org/2000/svg" xmlns:xlink="http://www.w3.org/1999/xlink" xml:space="preserve" onload="init(evt)">
        <defs>
                <circle id="rim" cx="0" cy="0" r="7"/>
                <circle id="rim2" cx="0" cy="0" r="3.5"/>
                <g id="zoomPlus">
                        <use xlink:href="#rim" fill="#404040">
                                <set attributeName="fill" to="#808080" begin="zoomplus.mouseover" end="zoomplus.mouseout"/>
                        </use>
                        <path d="M-4,0h8M0,-4v8" fill="none" stroke="white" stroke-width="1.5" pointer-events="none"/>
                </g>
                <g id="zoomMin">
                        <use xlink:href="#rim" fill="#404040">
                                <set attributeName="fill" to="#808080" begin="zoomminus.mouseover" end="zoomminus.mouseout"/>
                        </use>
                        <path d="M-4,0h8" fill="none" stroke="white" stroke-width="1.5" pointer-events="none"/>
                </g>
                <g id="dirArrow">
                        <path fill="none" stroke="white" stroke-width="1.5" d="M0,-3.0v7 M-2.5,-0.5L0,-3.0L2.5,-0.5"/>
                </g>
               <g id="resetDef">
                       <use xlink:href="#rim2" fill="#404040">
                               <set attributeName="fill" to="#808080" begin="reset.mouseover" end="reset.mouseout"/>
                       </use>
               </g>
        </defs>

<script type="text/javascript">
var viewWidth = 536;
var viewHeight = 359;
var sectionId = 'dynsection-7';
</script>
<script xlink:href="svgpan.js"/>
<svg id="graph" class="graph">
<g id="viewport">
<title>rcMenuChoiceSettingWidget::settingChanged</title>
<polygon fill="white" stroke="white" points="-4,5 -4,-355 533,-355 533,5 -4,5"/>
<!-- Node1 -->
<g id="node1" class="node"><title>Node1</title>
<polygon fill="#bfbfbf" stroke="black" points="0.635742,-165 0.635742,-197 143.364,-197 143.364,-165 0.635742,-165"/>
<text text-anchor="start" x="8.63574" y="-183" font-family="Helvetica,sans-Serif" font-size="10.00">rcMenuChoiceSettingWidget</text>
<text text-anchor="middle" x="72" y="-171" font-family="Helvetica,sans-Serif" font-size="10.00">::settingChanged</text>
</g>
<!-- Node2 -->
<g id="node2" class="node"><title>Node2</title>
<g id="a_node2"><a xlink:href="classrc_menu_choice_setting_widget.html#af2ff3bc8043711ee4116956907e5d282" target="_top" xlink:title="rcMenuChoiceSettingWidget\l::findChoice">
<polygon fill="white" stroke="black" points="192.636,-288 192.636,-320 335.364,-320 335.364,-288 192.636,-288"/>
<text text-anchor="start" x="200.636" y="-306" font-family="Helvetica,sans-Serif" font-size="10.00">rcMenuChoiceSettingWidget</text>
<text text-anchor="middle" x="264" y="-294" font-family="Helvetica,sans-Serif" font-size="10.00">::findChoice</text>
</a>
</g>
</g>
<!-- Node1&#45;&gt;Node2 -->
<g id="edge1" class="edge"><title>Node1&#45;&gt;Node2</title>
<path fill="none" stroke="midnightblue" d="M88.2837,-197.29C107.893,-217.399 143.724,-251.56 180,-273 186.872,-277.062 194.37,-280.751 201.956,-284.051"/>
<polygon fill="midnightblue" stroke="midnightblue" points="200.639,-287.294 211.217,-287.883 203.315,-280.826 200.639,-287.294"/>
</g>
<!-- Node4 -->
<g id="node4" class="node"><title>Node4</title>
<g id="a_node4"><a xlink:href="classrc_setting_info.html#a1b99595ec48ea7982c8a8c7f3afd0534" target="_top" xlink:title="rcSettingInfo::getNChoices">
<polygon fill="white" stroke="black" points="388.525,-250 388.525,-270 523.475,-270 523.475,-250 388.525,-250"/>
<text text-anchor="middle" x="456" y="-256" font-family="Helvetica,sans-Serif" font-size="10.00">rcSettingInfo::getNChoices</text>
</a>
</g>
</g>
<!-- Node1&#45;&gt;Node4 -->
<g id="edge6" class="edge"><title>Node1&#45;&gt;Node4</title>
<path fill="none" stroke="midnightblue" d="M95.9651,-197.176C116.826,-210.932 148.989,-229.865 180,-239 244.967,-258.138 322.095,-262.538 378.113,-262.644"/>
<polygon fill="midnightblue" stroke="midnightblue" points="378.329,-266.144 388.319,-262.617 378.31,-259.144 378.329,-266.144"/>
</g>
<!-- Node6 -->
<g id="node6" class="node"><title>Node6</title>
<g id="a_node6"><a xlink:href="classrc_model_domain.html#a8fafb31fce65382de4c9d4c35b72eb3d" target="_top" xlink:title="rcModelDomain::getModelDomain">
<polygon fill="white" stroke="black" points="180.412,-210 180.412,-230 347.588,-230 347.588,-210 180.412,-210"/>
<text text-anchor="middle" x="264" y="-216" font-family="Helvetica,sans-Serif" font-size="10.00">rcModelDomain::getModelDomain</text>
</a>
</g>
</g>
<!-- Node1&#45;&gt;Node6 -->
<g id="edge5" class="edge"><title>Node1&#45;&gt;Node6</title>
<path fill="none" stroke="midnightblue" d="M143.479,-195.467C163.534,-199.583 185.154,-204.021 204.42,-207.976"/>
<polygon fill="midnightblue" stroke="midnightblue" points="203.759,-211.413 214.259,-209.995 205.167,-204.556 203.759,-211.413"/>
</g>
<!-- Node7 -->
<g id="node7" class="node"><title>Node7</title>
<g id="a_node7"><a xlink:href="classrc_setting_info.html#a4dc154cd3e34eeb58d3e08b72d1f1c34" target="_top" xlink:title="rcSettingInfo::getTag">
<polygon fill="white" stroke="black" points="210.138,-171 210.138,-191 317.862,-191 317.862,-171 210.138,-171"/>
<text text-anchor="middle" x="264" y="-177" font-family="Helvetica,sans-Serif" font-size="10.00">rcSettingInfo::getTag</text>
</a>
</g>
</g>
<!-- Node1&#45;&gt;Node7 -->
<g id="edge7" class="edge"><title>Node1&#45;&gt;Node7</title>
<path fill="none" stroke="midnightblue" d="M143.479,-181C161.928,-181 181.701,-181 199.747,-181"/>
<polygon fill="midnightblue" stroke="midnightblue" points="199.861,-184.5 209.861,-181 199.861,-177.5 199.861,-184.5"/>
</g>
<!-- Node8 -->
<g id="node8" class="node"><title>Node8</title>
<g id="a_node8"><a xlink:href="classrc_setting_info.html#a97d3386417e33e46df6f361ccfb430a5" target="_top" xlink:title="rcSettingInfo::getValue">
<polygon fill="white" stroke="black" points="205.78,-132 205.78,-152 322.22,-152 322.22,-132 205.78,-132"/>
<text text-anchor="middle" x="264" y="-138" font-family="Helvetica,sans-Serif" font-size="10.00">rcSettingInfo::getValue</text>
</a>
</g>
</g>
<!-- Node1&#45;&gt;Node8 -->
<g id="edge8" class="edge"><title>Node1&#45;&gt;Node8</title>
<path fill="none" stroke="midnightblue" d="M143.479,-166.533C163.534,-162.417 185.154,-157.979 204.42,-154.024"/>
<polygon fill="midnightblue" stroke="midnightblue" points="205.167,-157.444 214.259,-152.005 203.759,-150.587 205.167,-157.444"/>
</g>
<!-- Node9 -->
<g id="node9" class="node"><title>Node9</title>
<g id="a_node9"><a xlink:href="classrc_model_domain.html#ababf529c281a7ef2121e3d03ce877225" target="_top" xlink:title="rcModelDomain::requestInput\lSource">
<polygon fill="white" stroke="black" points="190.412,-81 190.412,-113 337.588,-113 337.588,-81 190.412,-81"/>
<text text-anchor="start" x="198.412" y="-99" font-family="Helvetica,sans-Serif" font-size="10.00">rcModelDomain::requestInput</text>
<text text-anchor="middle" x="264" y="-87" font-family="Helvetica,sans-Serif" font-size="10.00">Source</text>
</a>
</g>
</g>
<!-- Node1&#45;&gt;Node9 -->
<g id="edge9" class="edge"><title>Node1&#45;&gt;Node9</title>
<path fill="none" stroke="midnightblue" d="M98.6116,-164.859C119.82,-151.992 151.061,-134.175 180,-122 184.649,-120.044 189.504,-118.172 194.43,-116.395"/>
<polygon fill="midnightblue" stroke="midnightblue" points="195.651,-119.676 203.957,-113.098 193.362,-113.061 195.651,-119.676"/>
</g>
<!-- Node11 -->
<g id="node11" class="node"><title>Node11</title>
<g id="a_node11"><a xlink:href="classrc_setting_widget.html#aca95d3b856ab397c63567ae71dba446b" target="_top" xlink:title="Update widget visibility/editability state based on setting state.">
<polygon fill="white" stroke="black" points="187.074,-30 187.074,-62 340.926,-62 340.926,-30 187.074,-30"/>
<text text-anchor="start" x="195.074" y="-48" font-family="Helvetica,sans-Serif" font-size="10.00">rcSettingWidget::updateWidget</text>
<text text-anchor="middle" x="264" y="-36" font-family="Helvetica,sans-Serif" font-size="10.00">State</text>
</a>
</g>
</g>
<!-- Node1&#45;&gt;Node11 -->
<g id="edge11" class="edge"><title>Node1&#45;&gt;Node11</title>
<path fill="none" stroke="midnightblue" d="M84.5584,-164.654C102.363,-140.658 138.787,-96.0358 180,-71 182.679,-69.3726 185.471,-67.8446 188.341,-66.4105"/>
<polygon fill="midnightblue" stroke="midnightblue" points="190.071,-69.469 197.725,-62.1434 187.173,-63.0969 190.071,-69.469"/>
</g>
<!-- Node3 -->
<g id="node3" class="node"><title>Node3</title>
<g id="a_node3"><a xlink:href="classrc_setting_info.html#a6d3cda0e1b71a0f7c2061015fb02d3d8" target="_top" xlink:title="rcSettingInfo::getChoice">
<polygon fill="white" stroke="black" points="394.636,-331 394.636,-351 517.364,-351 517.364,-331 394.636,-331"/>
<text text-anchor="middle" x="456" y="-337" font-family="Helvetica,sans-Serif" font-size="10.00">rcSettingInfo::getChoice</text>
</a>
</g>
</g>
<!-- Node2&#45;&gt;Node3 -->
<g id="edge2" class="edge"><title>Node2&#45;&gt;Node3</title>
<path fill="none" stroke="midnightblue" d="M335.479,-317.725C354.548,-321.438 375.032,-325.427 393.562,-329.036"/>
<polygon fill="midnightblue" stroke="midnightblue" points="393.148,-332.521 403.633,-330.997 394.487,-325.65 393.148,-332.521"/>
</g>
<!-- Node2&#45;&gt;Node4 -->
<g id="edge3" class="edge"><title>Node2&#45;&gt;Node4</title>
<path fill="none" stroke="midnightblue" d="M334.132,-287.991C356.381,-282.838 380.679,-277.211 401.616,-272.363"/>
<polygon fill="midnightblue" stroke="midnightblue" points="402.647,-275.716 411.6,-270.051 401.068,-268.897 402.647,-275.716"/>
</g>
<!-- Node5 -->
<g id="node5" class="node"><title>Node5</title>
<g id="a_node5"><a xlink:href="structrc_setting_choice.html#a1171657e8b731eaf1ce4acddc732f9c3" target="_top" xlink:title="rcSettingChoice::getValue">
<polygon fill="white" stroke="black" points="390.556,-292 390.556,-312 521.444,-312 521.444,-292 390.556,-292"/>
<text text-anchor="middle" x="456" y="-298" font-family="Helvetica,sans-Serif" font-size="10.00">rcSettingChoice::getValue</text>
</a>
</g>
</g>
<!-- Node2&#45;&gt;Node5 -->
<g id="edge4" class="edge"><title>Node2&#45;&gt;Node5</title>
<path fill="none" stroke="midnightblue" d="M335.479,-303.258C350.066,-303.105 365.482,-302.942 380.217,-302.787"/>
<polygon fill="midnightblue" stroke="midnightblue" points="380.328,-306.286 390.29,-302.681 380.254,-299.287 380.328,-306.286"/>
</g>
<!-- Node10 -->
<g id="node10" class="node"><title>Node10</title>
<g id="a_node10"><a xlink:href="classrc_model_domain.html#acb939c1b1fc6335f34dc6a3fe7cdb5f3" target="_top" xlink:title="rcModelDomain::updateInput\lSource">
<polygon fill="white" stroke="black" points="383.796,-81 383.796,-113 528.204,-113 528.204,-81 383.796,-81"/>
<text text-anchor="start" x="391.796" y="-99" font-family="Helvetica,sans-Serif" font-size="10.00">rcModelDomain::updateInput</text>
<text text-anchor="middle" x="456" y="-87" font-family="Helvetica,sans-Serif" font-size="10.00">Source</text>
</a>
</g>
</g>
<!-- Node9&#45;&gt;Node10 -->
<g id="edge10" class="edge"><title>Node9&#45;&gt;Node10</title>
<path fill="none" stroke="midnightblue" d="M337.644,-97C349.312,-97 361.457,-97 373.319,-97"/>
<polygon fill="midnightblue" stroke="midnightblue" points="373.651,-100.5 383.651,-97 373.651,-93.5001 373.651,-100.5"/>
</g>
<!-- Node12 -->
<g id="node12" class="node"><title>Node12</title>
<g id="a_node12"><a xlink:href="classrc_setting_info.html#a776ac0e50f5e8d632e6cb2c4099d6c59" target="_top" xlink:title="rcSettingInfo::isEditable">
<polygon fill="white" stroke="black" points="395.471,-39 395.471,-59 516.529,-59 516.529,-39 395.471,-39"/>
<text text-anchor="middle" x="456" y="-45" font-family="Helvetica,sans-Serif" font-size="10.00">rcSettingInfo::isEditable</text>
</a>
</g>
</g>
<!-- Node11&#45;&gt;Node12 -->
<g id="edge12" class="edge"><title>Node11&#45;&gt;Node12</title>
<path fill="none" stroke="midnightblue" d="M341.185,-47.2029C355.724,-47.4325 370.875,-47.6717 385.201,-47.8979"/>
<polygon fill="midnightblue" stroke="midnightblue" points="385.413,-51.4016 395.467,-48.06 385.524,-44.4025 385.413,-51.4016"/>
</g>
<!-- Node13 -->
<g id="node13" class="node"><title>Node13</title>
<g id="a_node13"><a xlink:href="classrc_setting_info.html#a2663e0e877560ec8a958fb92184c1c63" target="_top" xlink:title="rcSettingInfo::isEnabled">
<polygon fill="white" stroke="black" points="395.19,-0 395.19,-20 516.81,-20 516.81,-0 395.19,-0"/>
<text text-anchor="middle" x="456" y="-6" font-family="Helvetica,sans-Serif" font-size="10.00">rcSettingInfo::isEnabled</text>
</a>
</g>
</g>
<!-- Node11&#45;&gt;Node13 -->
<g id="edge13" class="edge"><title>Node11&#45;&gt;Node13</title>
<path fill="none" stroke="midnightblue" d="M341.185,-31.5649C358.114,-28.3574 375.872,-24.9926 392.193,-21.9002"/>
<polygon fill="midnightblue" stroke="midnightblue" points="392.976,-25.3143 402.149,-20.0138 391.673,-18.4367 392.976,-25.3143"/>
</g>
</g>
</svg>
        <g id="navigator" transform="translate(0 0)" fill="#404254">
                <rect fill="#f2f5e9" fill-opacity="0.5" stroke="#606060" stroke-width=".5" x="0" y="0" width="60" height="60"/>
                <use id="zoomplus" xlink:href="#zoomPlus" x="17" y="9" onmousedown="handleZoom(evt,'in')"/>
                <use id="zoomminus" xlink:href="#zoomMin" x="42" y="9" onmousedown="handleZoom(evt,'out')"/>
                <use id="reset" xlink:href="#resetDef" x="30" y="36" onmousedown="handleReset()"/>
                <g id="arrowUp" xlink:href="#dirArrow" transform="translate(30 24)" onmousedown="handlePan(0,-1)">
                  <use xlink:href="#rim" fill="#404040">
                        <set attributeName="fill" to="#808080" begin="arrowUp.mouseover" end="arrowUp.mouseout"/>
                  </use>
                  <path fill="none" stroke="white" stroke-width="1.5" d="M0,-3.0v7 M-2.5,-0.5L0,-3.0L2.5,-0.5"/>
                </g>
                <g id="arrowRight" xlink:href="#dirArrow" transform="rotate(90) translate(36 -43)" onmousedown="handlePan(1,0)">
                  <use xlink:href="#rim" fill="#404040">
                        <set attributeName="fill" to="#808080" begin="arrowRight.mouseover" end="arrowRight.mouseout"/>
                  </use>
                  <path fill="none" stroke="white" stroke-width="1.5" d="M0,-3.0v7 M-2.5,-0.5L0,-3.0L2.5,-0.5"/>
                </g>
                <g id="arrowDown" xlink:href="#dirArrow" transform="rotate(180) translate(-30 -48)" onmousedown="handlePan(0,1)">
                  <use xlink:href="#rim" fill="#404040">
                        <set attributeName="fill" to="#808080" begin="arrowDown.mouseover" end="arrowDown.mouseout"/>
                  </use>
                  <path fill="none" stroke="white" stroke-width="1.5" d="M0,-3.0v7 M-2.5,-0.5L0,-3.0L2.5,-0.5"/>
                </g>
                <g id="arrowLeft" xlink:href="#dirArrow" transform="rotate(270) translate(-36 17)" onmousedown="handlePan(-1,0)">
                  <use xlink:href="#rim" fill="#404040">
                        <set attributeName="fill" to="#808080" begin="arrowLeft.mouseover" end="arrowLeft.mouseout"/>
                  </use>
                  <path fill="none" stroke="white" stroke-width="1.5" d="M0,-3.0v7 M-2.5,-0.5L0,-3.0L2.5,-0.5"/>
                </g>
        </g>
        <svg viewBox="0 0 15 15" width="100%" height="30px" preserveAspectRatio="xMaxYMin meet">
         <g id="arrow_out" transform="scale(0.3 0.3)">
          <a xlink:href="classrc_menu_choice_setting_widget_adc0bde10bdaaf545cfe3e660064cbb5a_cgraph_org.svg" target="_base">
           <rect id="button" ry="5" rx="5" y="6" x="6" height="38" width="38"
                fill="#f2f5e9" fill-opacity="0.5" stroke="#606060" stroke-width="1.0"/>
           <path id="arrow"
             d="M 11.500037,31.436501 C 11.940474,20.09759 22.043105,11.32322 32.158766,21.979434 L 37.068811,17.246167 C 37.068811,17.246167 37.088388,32 37.088388,32 L 22.160133,31.978069 C 22.160133,31.978069 26.997745,27.140456 26.997745,27.140456 C 18.528582,18.264221 13.291696,25.230495 11.500037,31.436501 z"
             style="fill:#404040;"/>
          </a>
         </g>
        </svg>
</svg>
