<?xml version="1.0" encoding="UTF-8" standalone="no"?>
<!DOCTYPE svg PUBLIC "-//W3C//DTD SVG 1.1//EN"
 "http://www.w3.org/Graphics/SVG/1.1/DTD/svg11.dtd">
<!-- Generated by graphviz version 2.32.0 (20130916.1925)
 -->
<!-- Title: rcBasicPixelMap&lt; T &gt; Pages: 1 -->
<svg width="331pt" height="160pt"
 viewBox="0.00 0.00 331.00 160.00" xmlns="http://www.w3.org/2000/svg" xmlns:xlink="http://www.w3.org/1999/xlink">
<g id="graph0" class="graph" transform="scale(1 1) rotate(0) translate(4 156)">
<title>rcBasicPixelMap&lt; T &gt;</title>
<polygon fill="white" stroke="white" points="-4,5 -4,-156 328,-156 328,5 -4,5"/>
<!-- Node1 -->
<g id="node1" class="node"><title>Node1</title>
<polygon fill="#bfbfbf" stroke="black" points="96.5479,-1 96.5479,-21 209.452,-21 209.452,-1 96.5479,-1"/>
<text text-anchor="middle" x="153" y="-7" font-family="Helvetica,sans-Serif" font-size="10.00">rcBasicPixelMap&lt; T &gt;</text>
</g>
<!-- Node2 -->
<g id="node2" class="node"><title>Node2</title>
<g id="a_node2"><a xlink:href="classrc_row_func_one_source_one_destination.html" target="_top" xlink:title="rcRowFuncOneSourceOneDestination\&lt; T \&gt;">
<polygon fill="white" stroke="black" points="-0.538086,-71 -0.538086,-91 208.538,-91 208.538,-71 -0.538086,-71"/>
<text text-anchor="middle" x="104" y="-77" font-family="Helvetica,sans-Serif" font-size="10.00">rcRowFuncOneSourceOneDestination&lt; T &gt;</text>
</a>
</g>
</g>
<!-- Node2&#45;&gt;Node1 -->
<g id="edge1" class="edge"><title>Node2&#45;&gt;Node1</title>
<path fill="none" stroke="midnightblue" d="M116.612,-62.4983C126.165,-49.2402 138.902,-31.5641 146.496,-21.0255"/>
<polygon fill="midnightblue" stroke="midnightblue" points="113.615,-60.6699 110.608,-70.8292 119.294,-64.7623 113.615,-60.6699"/>
</g>
<!-- Node3 -->
<g id="node3" class="node"><title>Node3</title>
<g id="a_node3"><a xlink:href="classrc_pair.html" target="_top" xlink:title="rcPair\&lt; uint32 \&gt;">
<polygon fill="white" stroke="black" points="226.702,-71 226.702,-91 313.298,-91 313.298,-71 226.702,-71"/>
<text text-anchor="middle" x="270" y="-77" font-family="Helvetica,sans-Serif" font-size="10.00">rcPair&lt; uint32 &gt;</text>
</a>
</g>
</g>
<!-- Node3&#45;&gt;Node1 -->
<g id="edge2" class="edge"><title>Node3&#45;&gt;Node1</title>
<path fill="none" stroke="#9a32cd" stroke-dasharray="5,2" d="M245.317,-65.6543C222.128,-52.1772 188.144,-32.4254 168.529,-21.0255"/>
<polygon fill="#9a32cd" stroke="#9a32cd" points="243.816,-68.8303 254.221,-70.8292 247.334,-62.7782 243.816,-68.8303"/>
<text text-anchor="middle" x="234.111" y="-42" font-family="Helvetica,sans-Serif" font-size="10.00"> mRUP</text>
</g>
<!-- Node4 -->
<g id="node4" class="node"><title>Node4</title>
<polygon fill="white" stroke="#bfbfbf" points="216.409,-131 216.409,-151 323.591,-151 323.591,-131 216.409,-131"/>
<text text-anchor="middle" x="270" y="-137" font-family="Helvetica,sans-Serif" font-size="10.00">pair&lt; uint32,uint32 &gt;</text>
</g>
<!-- Node4&#45;&gt;Node3 -->
<g id="edge3" class="edge"><title>Node4&#45;&gt;Node3</title>
<path fill="none" stroke="midnightblue" d="M270,-120.731C270,-110.781 270,-99.1016 270,-91.1903"/>
<polygon fill="midnightblue" stroke="midnightblue" points="266.5,-120.937 270,-130.938 273.5,-120.938 266.5,-120.937"/>
</g>
</g>
</svg>
