<?xml version="1.0" encoding="UTF-8" standalone="no"?>
<!DOCTYPE svg PUBLIC "-//W3C//DTD SVG 1.1//EN"
 "http://www.w3.org/Graphics/SVG/1.1/DTD/svg11.dtd">
<!-- Generated by graphviz version 2.32.0 (20130916.1925)
 -->
<!-- Title: rcImageCanvasGL::zoomKeyPressed Pages: 1 -->
<svg width="348pt" height="91pt"
 viewBox="0.00 0.00 348.00 91.00" xmlns="http://www.w3.org/2000/svg" xmlns:xlink="http://www.w3.org/1999/xlink">
<g id="graph0" class="graph" transform="scale(1 1) rotate(0) translate(4 87)">
<title>rcImageCanvasGL::zoomKeyPressed</title>
<polygon fill="white" stroke="white" points="-4,5 -4,-87 345,-87 345,5 -4,5"/>
<!-- Node1 -->
<g id="node1" class="node"><title>Node1</title>
<polygon fill="#bfbfbf" stroke="black" points="0.694824,-25 0.694824,-57 147.305,-57 147.305,-25 0.694824,-25"/>
<text text-anchor="start" x="8.69482" y="-43" font-family="Helvetica,sans-Serif" font-size="10.00">rcImageCanvasGL::zoomKey</text>
<text text-anchor="middle" x="74" y="-31" font-family="Helvetica,sans-Serif" font-size="10.00">Pressed</text>
</g>
<!-- Node2 -->
<g id="node2" class="node"><title>Node2</title>
<g id="a_node2"><a xlink:href="classrc_image_canvas_g_l.html#ae96874511b9117fac80c756ab2194d27" target="_top" xlink:title="rcImageCanvasGL::zoomInKey\lPressed">
<polygon fill="white" stroke="black" points="184.525,-51 184.525,-83 339.475,-83 339.475,-51 184.525,-51"/>
<text text-anchor="start" x="192.525" y="-69" font-family="Helvetica,sans-Serif" font-size="10.00">rcImageCanvasGL::zoomInKey</text>
<text text-anchor="middle" x="262" y="-57" font-family="Helvetica,sans-Serif" font-size="10.00">Pressed</text>
</a>
</g>
</g>
<!-- Node1&#45;&gt;Node2 -->
<g id="edge1" class="edge"><title>Node1&#45;&gt;Node2</title>
<path fill="none" stroke="midnightblue" d="M147.445,-51.1267C156.264,-52.3595 165.343,-53.6286 174.343,-54.8866"/>
<polygon fill="midnightblue" stroke="midnightblue" points="174.063,-58.3815 184.451,-56.2996 175.032,-51.4489 174.063,-58.3815"/>
</g>
<!-- Node3 -->
<g id="node3" class="node"><title>Node3</title>
<g id="a_node3"><a xlink:href="classrc_image_canvas_g_l.html#a03ba1ceea03de8b80b1fc252c72d930d" target="_top" xlink:title="rcImageCanvasGL::zoomOut\lKeyPressed">
<polygon fill="white" stroke="black" points="189.251,-0 189.251,-32 334.749,-32 334.749,-0 189.251,-0"/>
<text text-anchor="start" x="197.251" y="-18" font-family="Helvetica,sans-Serif" font-size="10.00">rcImageCanvasGL::zoomOut</text>
<text text-anchor="middle" x="262" y="-6" font-family="Helvetica,sans-Serif" font-size="10.00">KeyPressed</text>
</a>
</g>
</g>
<!-- Node1&#45;&gt;Node3 -->
<g id="edge2" class="edge"><title>Node1&#45;&gt;Node3</title>
<path fill="none" stroke="midnightblue" d="M147.445,-31.2628C157.803,-29.8705 168.519,-28.4302 179.044,-27.0156"/>
<polygon fill="midnightblue" stroke="midnightblue" points="179.614,-30.4706 189.058,-25.6696 178.681,-23.533 179.614,-30.4706"/>
</g>
</g>
</svg>
