<?xml version="1.0" encoding="UTF-8" standalone="no"?>
<!DOCTYPE svg PUBLIC "-//W3C//DTD SVG 1.1//EN"
 "http://www.w3.org/Graphics/SVG/1.1/DTD/svg11.dtd">
<!-- Generated by graphviz version 2.32.0 (20130916.1925)
 -->
<!-- Title: itext::operator! Pages: 1 -->
<!--zoomable 106 -->
<svg id="main" version="1.1" xmlns="http://www.w3.org/2000/svg" xmlns:xlink="http://www.w3.org/1999/xlink" xml:space="preserve" onload="init(evt)">
        <defs>
                <circle id="rim" cx="0" cy="0" r="7"/>
                <circle id="rim2" cx="0" cy="0" r="3.5"/>
                <g id="zoomPlus">
                        <use xlink:href="#rim" fill="#404040">
                                <set attributeName="fill" to="#808080" begin="zoomplus.mouseover" end="zoomplus.mouseout"/>
                        </use>
                        <path d="M-4,0h8M0,-4v8" fill="none" stroke="white" stroke-width="1.5" pointer-events="none"/>
                </g>
                <g id="zoomMin">
                        <use xlink:href="#rim" fill="#404040">
                                <set attributeName="fill" to="#808080" begin="zoomminus.mouseover" end="zoomminus.mouseout"/>
                        </use>
                        <path d="M-4,0h8" fill="none" stroke="white" stroke-width="1.5" pointer-events="none"/>
                </g>
                <g id="dirArrow">
                        <path fill="none" stroke="white" stroke-width="1.5" d="M0,-3.0v7 M-2.5,-0.5L0,-3.0L2.5,-0.5"/>
                </g>
               <g id="resetDef">
                       <use xlink:href="#rim2" fill="#404040">
                               <set attributeName="fill" to="#808080" begin="reset.mouseover" end="reset.mouseout"/>
                       </use>
               </g>
        </defs>

<script type="text/javascript">
var viewWidth = 562;
var viewHeight = 106;
var sectionId = 'dynsection-33';
</script>
<script xlink:href="svgpan.js"/>
<svg id="graph" class="graph">
<g id="viewport">
<title>itext::operator!</title>
<polygon fill="white" stroke="white" points="-4,5 -4,-102 559,-102 559,5 -4,5"/>
<!-- Node1 -->
<g id="node1" class="node"><title>Node1</title>
<polygon fill="#bfbfbf" stroke="black" points="0.0395508,-19 0.0395508,-39 79.9604,-39 79.9604,-19 0.0395508,-19"/>
<text text-anchor="middle" x="40" y="-25" font-family="Helvetica,sans-Serif" font-size="10.00">itext::operator!</text>
</g>
<!-- Node2 -->
<g id="node2" class="node"><title>Node2</title>
<g id="a_node2"><a xlink:href="classitext.html#aa8c9f7d2395b32e16207a2022ff2b743" target="_top" xlink:title="itext::good">
<polygon fill="white" stroke="black" points="115.929,-19 115.929,-39 178.071,-39 178.071,-19 115.929,-19"/>
<text text-anchor="middle" x="147" y="-25" font-family="Helvetica,sans-Serif" font-size="10.00">itext::good</text>
</a>
</g>
</g>
<!-- Node1&#45;&gt;Node2 -->
<g id="edge1" class="edge"><title>Node1&#45;&gt;Node2</title>
<path fill="none" stroke="midnightblue" d="M80.0981,-29C88.3795,-29 97.1376,-29 105.471,-29"/>
<polygon fill="midnightblue" stroke="midnightblue" points="105.731,-32.5001 115.731,-29 105.731,-25.5001 105.731,-32.5001"/>
</g>
<!-- Node3 -->
<g id="node3" class="node"><title>Node3</title>
<g id="a_node3"><a xlink:href="classitext.html#a0ee8b28beefefede4d6a567cb9325f34" target="_top" xlink:title="itext::eof">
<polygon fill="white" stroke="black" points="218.101,-39 218.101,-59 271.899,-59 271.899,-39 218.101,-39"/>
<text text-anchor="middle" x="245" y="-45" font-family="Helvetica,sans-Serif" font-size="10.00">itext::eof</text>
</a>
</g>
</g>
<!-- Node2&#45;&gt;Node3 -->
<g id="edge2" class="edge"><title>Node2&#45;&gt;Node3</title>
<path fill="none" stroke="midnightblue" d="M178.112,-35.2733C187.58,-37.2458 198.132,-39.4441 207.967,-41.4932"/>
<polygon fill="midnightblue" stroke="midnightblue" points="207.379,-44.9457 217.883,-43.5589 208.807,-38.0928 207.379,-44.9457"/>
</g>
<!-- Node7 -->
<g id="node7" class="node"><title>Node7</title>
<g id="a_node7"><a xlink:href="classitext.html#aee164877ef63f52cd3e3953f4f46b30d" target="_top" xlink:title="itext::error">
<polygon fill="white" stroke="black" points="214.495,-0 214.495,-20 275.505,-20 275.505,-0 214.495,-0"/>
<text text-anchor="middle" x="245" y="-6" font-family="Helvetica,sans-Serif" font-size="10.00">itext::error</text>
</a>
</g>
</g>
<!-- Node2&#45;&gt;Node7 -->
<g id="edge6" class="edge"><title>Node2&#45;&gt;Node7</title>
<path fill="none" stroke="midnightblue" d="M178.112,-23.0404C186.411,-21.3978 195.544,-19.5903 204.296,-17.858"/>
<polygon fill="midnightblue" stroke="midnightblue" points="205.194,-21.2483 214.324,-15.8733 203.835,-14.3815 205.194,-21.2483"/>
</g>
<!-- Node4 -->
<g id="node4" class="node"><title>Node4</title>
<g id="a_node4"><a xlink:href="classitext.html#a38bd74dce665f9902b0be3ebc89fa236" target="_top" xlink:title="itext::peek">
<polygon fill="white" stroke="black" points="331.209,-39 331.209,-59 392.791,-59 392.791,-39 331.209,-39"/>
<text text-anchor="middle" x="362" y="-45" font-family="Helvetica,sans-Serif" font-size="10.00">itext::peek</text>
</a>
</g>
</g>
<!-- Node3&#45;&gt;Node4 -->
<g id="edge3" class="edge"><title>Node3&#45;&gt;Node4</title>
<path fill="none" stroke="midnightblue" d="M272.095,-49C286.447,-49 304.563,-49 320.692,-49"/>
<polygon fill="midnightblue" stroke="midnightblue" points="320.945,-52.5001 330.945,-49 320.945,-45.5001 320.945,-52.5001"/>
</g>
<!-- Node5 -->
<g id="node5" class="node"><title>Node5</title>
<g id="a_node5"><a xlink:href="classibuff.html#af83bd07bbed7b837d08c8bafdfbd3e87" target="_top" xlink:title="ibuff::peek">
<polygon fill="white" stroke="black" points="470.017,-78 470.017,-98 531.983,-98 531.983,-78 470.017,-78"/>
<text text-anchor="middle" x="501" y="-84" font-family="Helvetica,sans-Serif" font-size="10.00">ibuff::peek</text>
</a>
</g>
</g>
<!-- Node4&#45;&gt;Node5 -->
<g id="edge4" class="edge"><title>Node4&#45;&gt;Node5</title>
<path fill="none" stroke="midnightblue" d="M393.065,-57.5587C412.784,-63.1722 438.787,-70.5743 460.213,-76.6736"/>
<polygon fill="midnightblue" stroke="midnightblue" points="459.429,-80.0895 470.005,-79.4612 461.345,-73.357 459.429,-80.0895"/>
</g>
<!-- Node6 -->
<g id="node6" class="node"><title>Node6</title>
<g id="a_node6"><a xlink:href="classibuff.html#a34316b72de5ddac433ef6d29d7c00eb4" target="_top" xlink:title="ibuff::newline_mode">
<polygon fill="white" stroke="black" points="448.615,-39 448.615,-59 553.385,-59 553.385,-39 448.615,-39"/>
<text text-anchor="middle" x="501" y="-45" font-family="Helvetica,sans-Serif" font-size="10.00">ibuff::newline_mode</text>
</a>
</g>
</g>
<!-- Node4&#45;&gt;Node6 -->
<g id="edge5" class="edge"><title>Node4&#45;&gt;Node6</title>
<path fill="none" stroke="midnightblue" d="M393.065,-49C406.375,-49 422.548,-49 438.244,-49"/>
<polygon fill="midnightblue" stroke="midnightblue" points="438.455,-52.5001 448.455,-49 438.455,-45.5001 438.455,-52.5001"/>
</g>
<!-- Node8 -->
<g id="node8" class="node"><title>Node8</title>
<g id="a_node8"><a xlink:href="classitext.html#aab78eb8e393603e937837202c4c2512f" target="_top" xlink:title="itext::error_number">
<polygon fill="white" stroke="black" points="311.761,-0 311.761,-20 412.239,-20 412.239,-0 311.761,-0"/>
<text text-anchor="middle" x="362" y="-6" font-family="Helvetica,sans-Serif" font-size="10.00">itext::error_number</text>
</a>
</g>
</g>
<!-- Node7&#45;&gt;Node8 -->
<g id="edge7" class="edge"><title>Node7&#45;&gt;Node8</title>
<path fill="none" stroke="midnightblue" d="M275.615,-10C283.545,-10 292.409,-10 301.342,-10"/>
<polygon fill="midnightblue" stroke="midnightblue" points="301.411,-13.5001 311.411,-10 301.411,-6.5001 301.411,-13.5001"/>
</g>
<!-- Node9 -->
<g id="node9" class="node"><title>Node9</title>
<g id="a_node9"><a xlink:href="classibuff.html#a05db40e2f442d8b7d4b0ee6b7450a054" target="_top" xlink:title="ibuff::error_number">
<polygon fill="white" stroke="black" points="450.568,-0 450.568,-20 551.432,-20 551.432,-0 450.568,-0"/>
<text text-anchor="middle" x="501" y="-6" font-family="Helvetica,sans-Serif" font-size="10.00">ibuff::error_number</text>
</a>
</g>
</g>
<!-- Node8&#45;&gt;Node9 -->
<g id="edge8" class="edge"><title>Node8&#45;&gt;Node9</title>
<path fill="none" stroke="midnightblue" d="M412.46,-10C421.37,-10 430.747,-10 439.919,-10"/>
<polygon fill="midnightblue" stroke="midnightblue" points="440.152,-13.5001 450.152,-10 440.152,-6.5001 440.152,-13.5001"/>
</g>
</g>
</svg>
        <g id="navigator" transform="translate(0 0)" fill="#404254">
                <rect fill="#f2f5e9" fill-opacity="0.5" stroke="#606060" stroke-width=".5" x="0" y="0" width="60" height="60"/>
                <use id="zoomplus" xlink:href="#zoomPlus" x="17" y="9" onmousedown="handleZoom(evt,'in')"/>
                <use id="zoomminus" xlink:href="#zoomMin" x="42" y="9" onmousedown="handleZoom(evt,'out')"/>
                <use id="reset" xlink:href="#resetDef" x="30" y="36" onmousedown="handleReset()"/>
                <g id="arrowUp" xlink:href="#dirArrow" transform="translate(30 24)" onmousedown="handlePan(0,-1)">
                  <use xlink:href="#rim" fill="#404040">
                        <set attributeName="fill" to="#808080" begin="arrowUp.mouseover" end="arrowUp.mouseout"/>
                  </use>
                  <path fill="none" stroke="white" stroke-width="1.5" d="M0,-3.0v7 M-2.5,-0.5L0,-3.0L2.5,-0.5"/>
                </g>
                <g id="arrowRight" xlink:href="#dirArrow" transform="rotate(90) translate(36 -43)" onmousedown="handlePan(1,0)">
                  <use xlink:href="#rim" fill="#404040">
                        <set attributeName="fill" to="#808080" begin="arrowRight.mouseover" end="arrowRight.mouseout"/>
                  </use>
                  <path fill="none" stroke="white" stroke-width="1.5" d="M0,-3.0v7 M-2.5,-0.5L0,-3.0L2.5,-0.5"/>
                </g>
                <g id="arrowDown" xlink:href="#dirArrow" transform="rotate(180) translate(-30 -48)" onmousedown="handlePan(0,1)">
                  <use xlink:href="#rim" fill="#404040">
                        <set attributeName="fill" to="#808080" begin="arrowDown.mouseover" end="arrowDown.mouseout"/>
                  </use>
                  <path fill="none" stroke="white" stroke-width="1.5" d="M0,-3.0v7 M-2.5,-0.5L0,-3.0L2.5,-0.5"/>
                </g>
                <g id="arrowLeft" xlink:href="#dirArrow" transform="rotate(270) translate(-36 17)" onmousedown="handlePan(-1,0)">
                  <use xlink:href="#rim" fill="#404040">
                        <set attributeName="fill" to="#808080" begin="arrowLeft.mouseover" end="arrowLeft.mouseout"/>
                  </use>
                  <path fill="none" stroke="white" stroke-width="1.5" d="M0,-3.0v7 M-2.5,-0.5L0,-3.0L2.5,-0.5"/>
                </g>
        </g>
        <svg viewBox="0 0 15 15" width="100%" height="30px" preserveAspectRatio="xMaxYMin meet">
         <g id="arrow_out" transform="scale(0.3 0.3)">
          <a xlink:href="classitext_ad37d126c87d8064854ae481da69e2c7f_cgraph_org.svg" target="_base">
           <rect id="button" ry="5" rx="5" y="6" x="6" height="38" width="38"
                fill="#f2f5e9" fill-opacity="0.5" stroke="#606060" stroke-width="1.0"/>
           <path id="arrow"
             d="M 11.500037,31.436501 C 11.940474,20.09759 22.043105,11.32322 32.158766,21.979434 L 37.068811,17.246167 C 37.068811,17.246167 37.088388,32 37.088388,32 L 22.160133,31.978069 C 22.160133,31.978069 26.997745,27.140456 26.997745,27.140456 C 18.528582,18.264221 13.291696,25.230495 11.500037,31.436501 z"
             style="fill:#404040;"/>
          </a>
         </g>
        </svg>
</svg>
