<?xml version="1.0" encoding="UTF-8" standalone="no"?>
<!DOCTYPE svg PUBLIC "-//W3C//DTD SVG 1.1//EN"
 "http://www.w3.org/Graphics/SVG/1.1/DTD/svg11.dtd">
<!-- Generated by graphviz version 2.32.0 (20130916.1925)
 -->
<!-- Title: PeakSpotter::transform Pages: 1 -->
<svg width="1236pt" height="412pt"
 viewBox="0.00 0.00 1236.00 411.81" xmlns="http://www.w3.org/2000/svg" xmlns:xlink="http://www.w3.org/1999/xlink">
<g id="graph0" class="graph" transform="scale(1 1) rotate(0) translate(4 407.811)">
<title>PeakSpotter::transform</title>
<polygon fill="white" stroke="white" points="-4,5 -4,-407.811 1233,-407.811 1233,5 -4,5"/>
<!-- Node1 -->
<g id="node1" class="node"><title>Node1</title>
<polygon fill="#bfbfbf" stroke="black" points="0.588867,-279.811 0.588867,-299.811 119.411,-299.811 119.411,-279.811 0.588867,-279.811"/>
<text text-anchor="middle" x="60" y="-285.811" font-family="Helvetica,sans-Serif" font-size="10.00">PeakSpotter::transform</text>
</g>
<!-- Node2 -->
<g id="node2" class="node"><title>Node2</title>
<g id="a_node2"><a xlink:href="visimatch_8cpp.html#a4ce292257fdb2688b442274eb3854aa9" target="_top" xlink:title="count">
<polygon fill="white" stroke="black" points="155.769,-279.811 155.769,-299.811 196.231,-299.811 196.231,-279.811 155.769,-279.811"/>
<text text-anchor="middle" x="176" y="-285.811" font-family="Helvetica,sans-Serif" font-size="10.00">count</text>
</a>
</g>
</g>
<!-- Node1&#45;&gt;Node2 -->
<g id="edge1" class="edge"><title>Node1&#45;&gt;Node2</title>
<path fill="none" stroke="midnightblue" d="M119.67,-289.811C128.596,-289.811 137.469,-289.811 145.409,-289.811"/>
<polygon fill="midnightblue" stroke="midnightblue" points="145.578,-293.311 155.578,-289.811 145.578,-286.311 145.578,-293.311"/>
</g>
<!-- Node3 -->
<g id="node3" class="node"><title>Node3</title>
<g id="a_node3"><a xlink:href="classcli__parser.html#a183aac4f38a81619dc8c0a2b3e857557" target="_top" xlink:title="cli_parser::name">
<polygon fill="white" stroke="black" points="232.04,-347.811 232.04,-367.811 321.96,-367.811 321.96,-347.811 232.04,-347.811"/>
<text text-anchor="middle" x="277" y="-353.811" font-family="Helvetica,sans-Serif" font-size="10.00">cli_parser::name</text>
</a>
</g>
</g>
<!-- Node2&#45;&gt;Node3 -->
<g id="edge2" class="edge"><title>Node2&#45;&gt;Node3</title>
<path fill="none" stroke="midnightblue" d="M186.818,-299.977C197.298,-310.426 214.738,-326.695 232,-337.811 234.91,-339.684 238.025,-341.474 241.203,-343.157"/>
<polygon fill="midnightblue" stroke="midnightblue" points="239.692,-346.314 250.208,-347.602 242.79,-340.037 239.692,-346.314"/>
</g>
<!-- Node23 -->
<g id="node23" class="node"><title>Node23</title>
<g id="a_node23"><a xlink:href="classcli__parser.html#a733b08825a9e869f56b5e8b1c85ba5c5" target="_top" xlink:title="cli_parser::size">
<polygon fill="white" stroke="black" points="235.655,-257.811 235.655,-277.811 318.345,-277.811 318.345,-257.811 235.655,-257.811"/>
<text text-anchor="middle" x="277" y="-263.811" font-family="Helvetica,sans-Serif" font-size="10.00">cli_parser::size</text>
</a>
</g>
</g>
<!-- Node2&#45;&gt;Node23 -->
<g id="edge33" class="edge"><title>Node2&#45;&gt;Node23</title>
<path fill="none" stroke="midnightblue" d="M196.559,-285.464C205.014,-283.585 215.337,-281.291 225.705,-278.987"/>
<polygon fill="midnightblue" stroke="midnightblue" points="226.599,-282.374 235.601,-276.788 225.08,-275.541 226.599,-282.374"/>
</g>
<!-- Node24 -->
<g id="node24" class="node"><title>Node24</title>
<g id="a_node24"><a xlink:href="classcli__parser.html#ac672b628f0b9db3d1c899303db23496a" target="_top" xlink:title="cli_parser::string\l_value">
<polygon fill="white" stroke="black" points="232.32,-296.811 232.32,-328.811 321.68,-328.811 321.68,-296.811 232.32,-296.811"/>
<text text-anchor="start" x="240.32" y="-314.811" font-family="Helvetica,sans-Serif" font-size="10.00">cli_parser::string</text>
<text text-anchor="middle" x="277" y="-302.811" font-family="Helvetica,sans-Serif" font-size="10.00">_value</text>
</a>
</g>
</g>
<!-- Node2&#45;&gt;Node24 -->
<g id="edge34" class="edge"><title>Node2&#45;&gt;Node24</title>
<path fill="none" stroke="midnightblue" d="M196.559,-294.355C204.091,-296.104 213.104,-298.198 222.311,-300.337"/>
<polygon fill="midnightblue" stroke="midnightblue" points="221.786,-303.808 232.318,-302.662 223.37,-296.99 221.786,-303.808"/>
</g>
<!-- Node25 -->
<g id="node25" class="node"><title>Node25</title>
<g id="a_node25"><a xlink:href="string__utilities_8cpp.html#a1183605425445594730974b0c4ea8aa0" target="_top" xlink:title="to_int">
<polygon fill="white" stroke="black" points="256.769,-218.811 256.769,-238.811 297.231,-238.811 297.231,-218.811 256.769,-218.811"/>
<text text-anchor="middle" x="277" y="-224.811" font-family="Helvetica,sans-Serif" font-size="10.00">to_int</text>
</a>
</g>
</g>
<!-- Node2&#45;&gt;Node25 -->
<g id="edge36" class="edge"><title>Node2&#45;&gt;Node25</title>
<path fill="none" stroke="midnightblue" d="M189.139,-279.568C199.947,-270.746 216.414,-258.018 232,-248.811 236.877,-245.93 242.24,-243.178 247.496,-240.687"/>
<polygon fill="midnightblue" stroke="midnightblue" points="249.044,-243.828 256.709,-236.513 246.156,-237.451 249.044,-243.828"/>
</g>
<!-- Node4 -->
<g id="node4" class="node"><title>Node4</title>
<g id="a_node4"><a xlink:href="error__handler_8cpp.html#aac3be3c13a6d90b39f966b6e897c0744" target="_top" xlink:title="to_string">
<polygon fill="white" stroke="black" points="357.823,-324.811 357.823,-344.811 412.177,-344.811 412.177,-324.811 357.823,-324.811"/>
<text text-anchor="middle" x="385" y="-330.811" font-family="Helvetica,sans-Serif" font-size="10.00">to_string</text>
</a>
</g>
</g>
<!-- Node3&#45;&gt;Node4 -->
<g id="edge3" class="edge"><title>Node3&#45;&gt;Node4</title>
<path fill="none" stroke="midnightblue" d="M322.033,-348.256C330.512,-346.417 339.306,-344.508 347.513,-342.728"/>
<polygon fill="midnightblue" stroke="midnightblue" points="348.497,-346.096 357.527,-340.555 347.013,-339.255 348.497,-346.096"/>
</g>
<!-- Node4&#45;&gt;Node4 -->
<g id="edge32" class="edge"><title>Node4&#45;&gt;Node4</title>
<path fill="none" stroke="midnightblue" d="M368.092,-344.858C360.38,-353.582 366.016,-362.811 385,-362.811 396.569,-362.811 403.18,-359.384 404.836,-354.732"/>
<polygon fill="midnightblue" stroke="midnightblue" points="408.106,-353.451 401.908,-344.858 401.395,-355.441 408.106,-353.451"/>
</g>
<!-- Node5 -->
<g id="node5" class="node"><title>Node5</title>
<g id="a_node5"><a xlink:href="classerror__position.html#a3f7ed498a2a6aa5343334b17bbdf4bbf" target="_top" xlink:title="error_position::column">
<polygon fill="white" stroke="black" points="454.532,-383.811 454.532,-403.811 569.468,-403.811 569.468,-383.811 454.532,-383.811"/>
<text text-anchor="middle" x="512" y="-389.811" font-family="Helvetica,sans-Serif" font-size="10.00">error_position::column</text>
</a>
</g>
</g>
<!-- Node4&#45;&gt;Node5 -->
<g id="edge4" class="edge"><title>Node4&#45;&gt;Node5</title>
<path fill="none" stroke="midnightblue" d="M399.702,-344.862C411.897,-353.451 430.467,-365.675 448,-373.811 453.075,-376.165 458.501,-378.348 463.961,-380.34"/>
<polygon fill="midnightblue" stroke="midnightblue" points="463.163,-383.767 473.758,-383.713 465.442,-377.148 463.163,-383.767"/>
</g>
<!-- Node6 -->
<g id="node6" class="node"><title>Node6</title>
<g id="a_node6"><a xlink:href="classerror__position.html#ac4739e90b92106a85b0f8c76e9198daf" target="_top" xlink:title="error_position::filename">
<polygon fill="white" stroke="black" points="451.751,-344.811 451.751,-364.811 572.249,-364.811 572.249,-344.811 451.751,-344.811"/>
<text text-anchor="middle" x="512" y="-350.811" font-family="Helvetica,sans-Serif" font-size="10.00">error_position::filename</text>
</a>
</g>
</g>
<!-- Node4&#45;&gt;Node6 -->
<g id="edge5" class="edge"><title>Node4&#45;&gt;Node6</title>
<path fill="none" stroke="midnightblue" d="M412.204,-339.003C420.939,-340.401 431.12,-342.03 441.564,-343.701"/>
<polygon fill="midnightblue" stroke="midnightblue" points="441.191,-347.186 451.618,-345.309 442.297,-340.273 441.191,-347.186"/>
</g>
<!-- Node7 -->
<g id="node7" class="node"><title>Node7</title>
<g id="a_node7"><a xlink:href="file__system_8cpp.html#a6982b54d454c07cc3f770f67c5d0b5ef" target="_top" xlink:title="filespec_to_relative_path">
<polygon fill="white" stroke="black" points="448.685,-305.811 448.685,-325.811 575.315,-325.811 575.315,-305.811 448.685,-305.811"/>
<text text-anchor="middle" x="512" y="-311.811" font-family="Helvetica,sans-Serif" font-size="10.00">filespec_to_relative_path</text>
</a>
</g>
</g>
<!-- Node4&#45;&gt;Node7 -->
<g id="edge6" class="edge"><title>Node4&#45;&gt;Node7</title>
<path fill="none" stroke="midnightblue" d="M412.204,-330.828C420.038,-329.637 429.035,-328.269 438.342,-326.855"/>
<polygon fill="midnightblue" stroke="midnightblue" points="439.16,-330.27 448.521,-325.307 438.108,-323.35 439.16,-330.27"/>
</g>
<!-- Node22 -->
<g id="node22" class="node"><title>Node22</title>
<g id="a_node22"><a xlink:href="classerror__position.html#af47fc5beec407412df713d56814af6fe" target="_top" xlink:title="error_position::line">
<polygon fill="white" stroke="black" points="462.867,-266.811 462.867,-286.811 561.133,-286.811 561.133,-266.811 462.867,-266.811"/>
<text text-anchor="middle" x="512" y="-272.811" font-family="Helvetica,sans-Serif" font-size="10.00">error_position::line</text>
</a>
</g>
</g>
<!-- Node4&#45;&gt;Node22 -->
<g id="edge31" class="edge"><title>Node4&#45;&gt;Node22</title>
<path fill="none" stroke="midnightblue" d="M400.227,-324.709C412.45,-316.375 430.776,-304.681 448,-296.811 453.282,-294.397 458.938,-292.156 464.614,-290.113"/>
<polygon fill="midnightblue" stroke="midnightblue" points="465.787,-293.411 474.121,-286.869 463.526,-286.786 465.787,-293.411"/>
</g>
<!-- Node8 -->
<g id="node8" class="node"><title>Node8</title>
<g id="a_node8"><a xlink:href="file__system_8cpp.html#a62475ca973dfe0094c00d60286c7c286" target="_top" xlink:title="create_filespec">
<polygon fill="white" stroke="black" points="766.37,-364.811 766.37,-384.811 849.63,-384.811 849.63,-364.811 766.37,-364.811"/>
<text text-anchor="middle" x="808" y="-370.811" font-family="Helvetica,sans-Serif" font-size="10.00">create_filespec</text>
</a>
</g>
</g>
<!-- Node7&#45;&gt;Node8 -->
<g id="edge7" class="edge"><title>Node7&#45;&gt;Node8</title>
<path fill="none" stroke="midnightblue" d="M551.904,-325.815C570.1,-330.347 592.099,-335.616 612,-339.811 660.763,-350.088 716.792,-359.943 756.242,-366.562"/>
<polygon fill="midnightblue" stroke="midnightblue" points="755.712,-370.022 766.152,-368.215 756.864,-363.117 755.712,-370.022"/>
</g>
<!-- Node10 -->
<g id="node10" class="node"><title>Node10</title>
<g id="a_node10"><a xlink:href="file__system_8cpp.html#acf89fa1738d4f789e4cc5b9c3c3bec72" target="_top" xlink:title="filename_part">
<polygon fill="white" stroke="black" points="769.705,-325.811 769.705,-345.811 846.295,-345.811 846.295,-325.811 769.705,-325.811"/>
<text text-anchor="middle" x="808" y="-331.811" font-family="Helvetica,sans-Serif" font-size="10.00">filename_part</text>
</a>
</g>
</g>
<!-- Node7&#45;&gt;Node10 -->
<g id="edge9" class="edge"><title>Node7&#45;&gt;Node10</title>
<path fill="none" stroke="midnightblue" d="M575.35,-320.052C630.27,-323.788 709.102,-329.151 759.172,-332.557"/>
<polygon fill="midnightblue" stroke="midnightblue" points="759.186,-336.066 769.401,-333.253 759.661,-329.082 759.186,-336.066"/>
</g>
<!-- Node11 -->
<g id="node11" class="node"><title>Node11</title>
<g id="a_node11"><a xlink:href="file__system_8cpp.html#acb48f4675dcd897962719fcc704fa980" target="_top" xlink:title="folder_part">
<polygon fill="white" stroke="black" points="639.096,-286.811 639.096,-306.811 702.904,-306.811 702.904,-286.811 639.096,-286.811"/>
<text text-anchor="middle" x="671" y="-292.811" font-family="Helvetica,sans-Serif" font-size="10.00">folder_part</text>
</a>
</g>
</g>
<!-- Node7&#45;&gt;Node11 -->
<g id="edge11" class="edge"><title>Node7&#45;&gt;Node11</title>
<path fill="none" stroke="midnightblue" d="M575.502,-308.247C593.319,-306.09 612.285,-303.795 628.513,-301.831"/>
<polygon fill="midnightblue" stroke="midnightblue" points="629.236,-305.269 638.743,-300.593 628.395,-298.32 629.236,-305.269"/>
</g>
<!-- Node12 -->
<g id="node12" class="node"><title>Node12</title>
<g id="a_node12"><a xlink:href="file__system_8cpp.html#a154091f28159afef5c72b12cee64a9a0" target="_top" xlink:title="folder_to_relative_path">
<polygon fill="white" stroke="black" points="612.131,-164.811 612.131,-184.811 729.869,-184.811 729.869,-164.811 612.131,-164.811"/>
<text text-anchor="middle" x="671" y="-170.811" font-family="Helvetica,sans-Serif" font-size="10.00">folder_to_relative_path</text>
</a>
</g>
</g>
<!-- Node7&#45;&gt;Node12 -->
<g id="edge13" class="edge"><title>Node7&#45;&gt;Node12</title>
<path fill="none" stroke="midnightblue" d="M556.649,-305.772C563.459,-303.151 570.164,-299.88 576,-295.811 614.891,-268.694 645.192,-220.685 660.013,-194.019"/>
<polygon fill="midnightblue" stroke="midnightblue" points="663.249,-195.393 664.921,-184.931 657.09,-192.067 663.249,-195.393"/>
</g>
<!-- Node9 -->
<g id="node9" class="node"><title>Node9</title>
<g id="a_node9"><a xlink:href="file__system_8cpp.html#a99e06c76afffe1f1d77f01c905b1a5fd" target="_top" xlink:title="is_separator">
<polygon fill="white" stroke="black" points="1147.49,-286.811 1147.49,-306.811 1218.51,-306.811 1218.51,-286.811 1147.49,-286.811"/>
<text text-anchor="middle" x="1183" y="-292.811" font-family="Helvetica,sans-Serif" font-size="10.00">is_separator</text>
</a>
</g>
</g>
<!-- Node8&#45;&gt;Node9 -->
<g id="edge8" class="edge"><title>Node8&#45;&gt;Node9</title>
<path fill="none" stroke="midnightblue" d="M849.894,-371.317C907.092,-365.774 1013.87,-353.023 1102,-328.811 1118.64,-324.238 1136.53,-317.288 1151.17,-311.031"/>
<polygon fill="midnightblue" stroke="midnightblue" points="1152.96,-314.065 1160.72,-306.848 1150.16,-307.652 1152.96,-314.065"/>
</g>
<!-- Node10&#45;&gt;Node9 -->
<g id="edge10" class="edge"><title>Node10&#45;&gt;Node9</title>
<path fill="none" stroke="midnightblue" d="M846.577,-333.667C902.438,-330.241 1010.62,-322.682 1102,-310.811 1113.57,-309.307 1126.02,-307.313 1137.57,-305.302"/>
<polygon fill="midnightblue" stroke="midnightblue" points="1138.22,-308.742 1147.45,-303.543 1136.99,-301.851 1138.22,-308.742"/>
</g>
<!-- Node11&#45;&gt;Node9 -->
<g id="edge12" class="edge"><title>Node11&#45;&gt;Node9</title>
<path fill="none" stroke="midnightblue" d="M703.135,-296.811C790.027,-296.811 1035.43,-296.811 1137.06,-296.811"/>
<polygon fill="midnightblue" stroke="midnightblue" points="1137.3,-300.311 1147.3,-296.811 1137.3,-293.311 1137.3,-300.311"/>
</g>
<!-- Node13 -->
<g id="node13" class="node"><title>Node13</title>
<g id="a_node13"><a xlink:href="file__system_8cpp.html#a0a5c33c34c3c47d4e15e955b7ac25681" target="_top" xlink:title="relative_path">
<polygon fill="white" stroke="black" points="771.37,-103.811 771.37,-123.811 844.63,-123.811 844.63,-103.811 771.37,-103.811"/>
<text text-anchor="middle" x="808" y="-109.811" font-family="Helvetica,sans-Serif" font-size="10.00">relative_path</text>
</a>
</g>
</g>
<!-- Node12&#45;&gt;Node13 -->
<g id="edge14" class="edge"><title>Node12&#45;&gt;Node13</title>
<path fill="none" stroke="midnightblue" d="M694.293,-164.738C716.375,-154.76 750.403,-139.384 775.294,-128.137"/>
<polygon fill="midnightblue" stroke="midnightblue" points="777.003,-131.206 784.674,-123.898 774.12,-124.827 777.003,-131.206"/>
</g>
<!-- Node14 -->
<g id="node14" class="node"><title>Node14</title>
<g id="a_node14"><a xlink:href="classfile__specification.html#a518bc2d13c74b0e00131c87fdd294f2b" target="_top" xlink:title="file_specification\l::image">
<polygon fill="white" stroke="black" points="886.313,-171.811 886.313,-203.811 975.687,-203.811 975.687,-171.811 886.313,-171.811"/>
<text text-anchor="start" x="894.313" y="-189.811" font-family="Helvetica,sans-Serif" font-size="10.00">file_specification</text>
<text text-anchor="middle" x="931" y="-177.811" font-family="Helvetica,sans-Serif" font-size="10.00">::image</text>
</a>
</g>
</g>
<!-- Node13&#45;&gt;Node14 -->
<g id="edge15" class="edge"><title>Node13&#45;&gt;Node14</title>
<path fill="none" stroke="midnightblue" d="M824.859,-123.85C840.38,-133.638 864.724,-148.895 886,-161.811 888.489,-163.321 891.062,-164.872 893.658,-166.427"/>
<polygon fill="midnightblue" stroke="midnightblue" points="892.096,-169.571 902.479,-171.683 895.68,-163.558 892.096,-169.571"/>
</g>
<!-- Node16 -->
<g id="node16" class="node"><title>Node16</title>
<g id="a_node16"><a xlink:href="classfile__specification.html#a18e9d7a9b9dd1214d09ab5e843ea7806" target="_top" xlink:title="file_specification\l::relative">
<polygon fill="white" stroke="black" points="1138.31,-24.8106 1138.31,-56.8106 1227.69,-56.8106 1227.69,-24.8106 1138.31,-24.8106"/>
<text text-anchor="start" x="1146.31" y="-42.8106" font-family="Helvetica,sans-Serif" font-size="10.00">file_specification</text>
<text text-anchor="middle" x="1183" y="-30.8106" font-family="Helvetica,sans-Serif" font-size="10.00">::relative</text>
</a>
</g>
</g>
<!-- Node13&#45;&gt;Node16 -->
<g id="edge30" class="edge"><title>Node13&#45;&gt;Node16</title>
<path fill="none" stroke="midnightblue" d="M813.58,-103.761C823.437,-83.5218 848.822,-38.2961 886,-20.8106 964.036,15.8912 1066.61,-3.96931 1128.25,-22.1052"/>
<polygon fill="midnightblue" stroke="midnightblue" points="1127.56,-25.5553 1138.15,-25.108 1129.59,-18.8565 1127.56,-25.5553"/>
</g>
<!-- Node18 -->
<g id="node18" class="node"><title>Node18</title>
<g id="a_node18"><a xlink:href="classfile__specification.html#aefefc9da1b64f7ed66a436750a88ffa2" target="_top" xlink:title="file_specification\l::initialise_folder">
<polygon fill="white" stroke="black" points="1012.31,-69.8106 1012.31,-101.811 1101.69,-101.811 1101.69,-69.8106 1012.31,-69.8106"/>
<text text-anchor="start" x="1020.31" y="-87.8106" font-family="Helvetica,sans-Serif" font-size="10.00">file_specification</text>
<text text-anchor="middle" x="1057" y="-75.8106" font-family="Helvetica,sans-Serif" font-size="10.00">::initialise_folder</text>
</a>
</g>
</g>
<!-- Node13&#45;&gt;Node18 -->
<g id="edge21" class="edge"><title>Node13&#45;&gt;Node18</title>
<path fill="none" stroke="midnightblue" d="M844.652,-109.769C885.85,-105.099 954.089,-97.3632 1001.85,-91.9489"/>
<polygon fill="midnightblue" stroke="midnightblue" points="1002.47,-95.4009 1012.02,-90.7967 1001.68,-88.4454 1002.47,-95.4009"/>
</g>
<!-- Node20 -->
<g id="node20" class="node"><title>Node20</title>
<g id="a_node20"><a xlink:href="classfile__specification.html#a1c51930e39fad4d827a81b5b12a72752" target="_top" xlink:title="file_specification\l::make_absolute">
<polygon fill="white" stroke="black" points="886.311,-120.811 886.311,-152.811 975.689,-152.811 975.689,-120.811 886.311,-120.811"/>
<text text-anchor="start" x="894.311" y="-138.811" font-family="Helvetica,sans-Serif" font-size="10.00">file_specification</text>
<text text-anchor="middle" x="931" y="-126.811" font-family="Helvetica,sans-Serif" font-size="10.00">::make_absolute</text>
</a>
</g>
</g>
<!-- Node13&#45;&gt;Node20 -->
<g id="edge24" class="edge"><title>Node13&#45;&gt;Node20</title>
<path fill="none" stroke="midnightblue" d="M844.65,-120.587C854.476,-122.455 865.36,-124.524 875.975,-126.541"/>
<polygon fill="midnightblue" stroke="midnightblue" points="875.55,-130.023 886.027,-128.452 876.857,-123.146 875.55,-130.023"/>
</g>
<!-- Node21 -->
<g id="node21" class="node"><title>Node21</title>
<g id="a_node21"><a xlink:href="classfile__specification.html#a37f966146802536ffdb2f154e3df928f" target="_top" xlink:title="file_specification\l::make_relative">
<polygon fill="white" stroke="black" points="886.313,-30.8106 886.313,-62.8106 975.687,-62.8106 975.687,-30.8106 886.313,-30.8106"/>
<text text-anchor="start" x="894.313" y="-48.8106" font-family="Helvetica,sans-Serif" font-size="10.00">file_specification</text>
<text text-anchor="middle" x="931" y="-36.8106" font-family="Helvetica,sans-Serif" font-size="10.00">::make_relative</text>
</a>
</g>
</g>
<!-- Node13&#45;&gt;Node21 -->
<g id="edge27" class="edge"><title>Node13&#45;&gt;Node21</title>
<path fill="none" stroke="midnightblue" d="M827.115,-103.78C844.19,-94.3251 870.318,-79.8578 891.97,-67.8686"/>
<polygon fill="midnightblue" stroke="midnightblue" points="893.883,-70.8101 900.936,-62.904 890.492,-64.6863 893.883,-70.8101"/>
</g>
<!-- Node14&#45;&gt;Node9 -->
<g id="edge18" class="edge"><title>Node14&#45;&gt;Node9</title>
<path fill="none" stroke="midnightblue" d="M956.588,-203.829C972.098,-213.533 992.766,-225.745 1012,-234.811 1054.03,-254.62 1104.24,-272.234 1139.15,-283.578"/>
<polygon fill="midnightblue" stroke="midnightblue" points="1138.42,-287.022 1149.01,-286.75 1140.56,-280.358 1138.42,-287.022"/>
</g>
<!-- Node15 -->
<g id="node15" class="node"><title>Node15</title>
<g id="a_node15"><a xlink:href="classfile__specification.html#a5b8f1026354ff32bfc183da3f38f5ce7" target="_top" xlink:title="file_specification\l::absolute">
<polygon fill="white" stroke="black" points="1012.31,-120.811 1012.31,-152.811 1101.69,-152.811 1101.69,-120.811 1012.31,-120.811"/>
<text text-anchor="start" x="1020.31" y="-138.811" font-family="Helvetica,sans-Serif" font-size="10.00">file_specification</text>
<text text-anchor="middle" x="1057" y="-126.811" font-family="Helvetica,sans-Serif" font-size="10.00">::absolute</text>
</a>
</g>
</g>
<!-- Node14&#45;&gt;Node15 -->
<g id="edge16" class="edge"><title>Node14&#45;&gt;Node15</title>
<path fill="none" stroke="midnightblue" d="M971.234,-171.674C982.768,-166.93 995.521,-161.685 1007.56,-156.734"/>
<polygon fill="midnightblue" stroke="midnightblue" points="1009.1,-159.883 1017.02,-152.842 1006.44,-153.409 1009.1,-159.883"/>
</g>
<!-- Node14&#45;&gt;Node16 -->
<g id="edge19" class="edge"><title>Node14&#45;&gt;Node16</title>
<path fill="none" stroke="midnightblue" d="M969.245,-203.847C1006.71,-217.217 1064.21,-229.844 1102,-200.811 1151.24,-162.979 1100.06,-114.967 1138,-65.8106 1138.56,-65.0803 1139.16,-64.3679 1139.77,-63.673"/>
<polygon fill="midnightblue" stroke="midnightblue" points="1142.16,-66.2309 1147.16,-56.8919 1137.43,-61.0724 1142.16,-66.2309"/>
</g>
<!-- Node17 -->
<g id="node17" class="node"><title>Node17</title>
<g id="a_node17"><a xlink:href="string__utilities_8hpp.html#a657118c43fe44a8454311075655ac9d4" target="_top" xlink:title="vector_to_string">
<polygon fill="white" stroke="black" points="1013.43,-171.811 1013.43,-191.811 1100.57,-191.811 1100.57,-171.811 1013.43,-171.811"/>
<text text-anchor="middle" x="1057" y="-177.811" font-family="Helvetica,sans-Serif" font-size="10.00">vector_to_string</text>
</a>
</g>
</g>
<!-- Node14&#45;&gt;Node17 -->
<g id="edge20" class="edge"><title>Node14&#45;&gt;Node17</title>
<path fill="none" stroke="midnightblue" d="M975.718,-185.695C984.533,-185.269 993.889,-184.816 1002.98,-184.376"/>
<polygon fill="midnightblue" stroke="midnightblue" points="1003.28,-187.866 1013.09,-183.887 1002.94,-180.874 1003.28,-187.866"/>
</g>
<!-- Node15&#45;&gt;Node16 -->
<g id="edge17" class="edge"><title>Node15&#45;&gt;Node16</title>
<path fill="none" stroke="midnightblue" d="M1088.81,-120.563C1093.43,-117.583 1097.98,-114.3 1102,-110.811 1121.34,-94.0208 1118.52,-82.4351 1138,-65.8106 1139.29,-64.7128 1140.63,-63.6388 1142.01,-62.5911"/>
<polygon fill="midnightblue" stroke="midnightblue" points="1144.01,-65.4623 1150.25,-56.8976 1140.03,-59.7036 1144.01,-65.4623"/>
</g>
<!-- Node18&#45;&gt;Node9 -->
<g id="edge22" class="edge"><title>Node18&#45;&gt;Node9</title>
<path fill="none" stroke="midnightblue" d="M1091.93,-101.964C1095.61,-104.589 1099.07,-107.537 1102,-110.811 1146.83,-160.892 1169.32,-239.932 1177.84,-276.728"/>
<polygon fill="midnightblue" stroke="midnightblue" points="1174.47,-277.701 1180.04,-286.712 1181.3,-276.193 1174.47,-277.701"/>
</g>
<!-- Node19 -->
<g id="node19" class="node"><title>Node19</title>
<g id="a_node19"><a xlink:href="classfile__specification.html#ab6e2c3cc492528550d2c4021d3a1c225" target="_top" xlink:title="file_specification\l::path">
<polygon fill="white" stroke="black" points="1138.31,-75.8106 1138.31,-107.811 1227.69,-107.811 1227.69,-75.8106 1138.31,-75.8106"/>
<text text-anchor="start" x="1146.31" y="-93.8106" font-family="Helvetica,sans-Serif" font-size="10.00">file_specification</text>
<text text-anchor="middle" x="1183" y="-81.8106" font-family="Helvetica,sans-Serif" font-size="10.00">::path</text>
</a>
</g>
</g>
<!-- Node18&#45;&gt;Node19 -->
<g id="edge23" class="edge"><title>Node18&#45;&gt;Node19</title>
<path fill="none" stroke="midnightblue" d="M1101.72,-87.9259C1110.24,-88.3382 1119.26,-88.7749 1128.07,-89.2009"/>
<polygon fill="midnightblue" stroke="midnightblue" points="1128.1,-92.7066 1138.26,-89.6941 1128.44,-85.7148 1128.1,-92.7066"/>
</g>
<!-- Node20&#45;&gt;Node15 -->
<g id="edge25" class="edge"><title>Node20&#45;&gt;Node15</title>
<path fill="none" stroke="midnightblue" d="M975.718,-136.811C984.238,-136.811 993.263,-136.811 1002.07,-136.811"/>
<polygon fill="midnightblue" stroke="midnightblue" points="1002.26,-140.311 1012.26,-136.811 1002.26,-133.311 1002.26,-140.311"/>
</g>
<!-- Node20&#45;&gt;Node18 -->
<g id="edge26" class="edge"><title>Node20&#45;&gt;Node18</title>
<path fill="none" stroke="midnightblue" d="M971.234,-120.674C982.768,-115.93 995.521,-110.685 1007.56,-105.734"/>
<polygon fill="midnightblue" stroke="midnightblue" points="1009.1,-108.883 1017.02,-101.842 1006.44,-102.409 1009.1,-108.883"/>
</g>
<!-- Node21&#45;&gt;Node16 -->
<g id="edge29" class="edge"><title>Node21&#45;&gt;Node16</title>
<path fill="none" stroke="midnightblue" d="M975.833,-45.7586C1018.19,-44.7421 1082.44,-43.2 1127.94,-42.1079"/>
<polygon fill="midnightblue" stroke="midnightblue" points="1128.3,-45.6004 1138.22,-41.8613 1128.14,-38.6024 1128.3,-45.6004"/>
</g>
<!-- Node21&#45;&gt;Node18 -->
<g id="edge28" class="edge"><title>Node21&#45;&gt;Node18</title>
<path fill="none" stroke="midnightblue" d="M975.718,-60.5605C984.423,-63.2984 993.656,-66.2023 1002.64,-69.0286"/>
<polygon fill="midnightblue" stroke="midnightblue" points="1001.67,-72.3918 1012.26,-72.0533 1003.77,-65.7142 1001.67,-72.3918"/>
</g>
<!-- Node24&#45;&gt;Node4 -->
<g id="edge35" class="edge"><title>Node24&#45;&gt;Node4</title>
<path fill="none" stroke="midnightblue" d="M321.726,-321.886C330.403,-323.687 339.421,-325.558 347.813,-327.3"/>
<polygon fill="midnightblue" stroke="midnightblue" points="347.17,-330.741 357.672,-329.346 348.592,-323.887 347.17,-330.741"/>
</g>
</g>
</svg>
