<?xml version="1.0" encoding="UTF-8" standalone="no"?>
<!DOCTYPE svg PUBLIC "-//W3C//DTD SVG 1.1//EN"
 "http://www.w3.org/Graphics/SVG/1.1/DTD/svg11.dtd">
<!-- Generated by graphviz version 2.32.0 (20130916.1925)
 -->
<!-- Title: rcMovieSaveStatusReader Pages: 1 -->
<svg width="556pt" height="130pt"
 viewBox="0.00 0.00 556.00 130.00" xmlns="http://www.w3.org/2000/svg" xmlns:xlink="http://www.w3.org/1999/xlink">
<g id="graph0" class="graph" transform="scale(1 1) rotate(0) translate(4 126)">
<title>rcMovieSaveStatusReader</title>
<polygon fill="white" stroke="white" points="-4,5 -4,-126 553,-126 553,5 -4,5"/>
<!-- Node1 -->
<g id="node1" class="node"><title>Node1</title>
<polygon fill="#bfbfbf" stroke="black" points="412.527,-57 412.527,-77 547.473,-77 547.473,-57 412.527,-57"/>
<text text-anchor="middle" x="480" y="-63" font-family="Helvetica,sans-Serif" font-size="10.00">rcMovieSaveStatusReader</text>
</g>
<!-- Node2 -->
<g id="node2" class="node"><title>Node2</title>
<g id="a_node2"><a xlink:href="classrc_atomic_value.html" target="_top" xlink:title="rcAtomicValue\&lt; uint32 \&gt;">
<polygon fill="white" stroke="black" points="181.894,-102 181.894,-122 306.106,-122 306.106,-102 181.894,-102"/>
<text text-anchor="middle" x="244" y="-108" font-family="Helvetica,sans-Serif" font-size="10.00">rcAtomicValue&lt; uint32 &gt;</text>
</a>
</g>
</g>
<!-- Node2&#45;&gt;Node1 -->
<g id="edge1" class="edge"><title>Node2&#45;&gt;Node1</title>
<path fill="none" stroke="#9a32cd" stroke-dasharray="5,2" d="M307.477,-99.9852C344.791,-92.8093 391.635,-83.8009 426.937,-77.0122"/>
<polygon fill="#9a32cd" stroke="#9a32cd" points="306.382,-96.6316 297.223,-101.957 307.704,-103.506 306.382,-96.6316"/>
<text text-anchor="middle" x="363" y="-108" font-family="Helvetica,sans-Serif" font-size="10.00"> _delayLeft</text>
<text text-anchor="middle" x="363" y="-96" font-family="Helvetica,sans-Serif" font-size="10.00">_captureTime</text>
</g>
<!-- Node3 -->
<g id="node3" class="node"><title>Node3</title>
<polygon fill="white" stroke="#bfbfbf" points="8.02246,-102 8.02246,-122 127.978,-122 127.978,-102 8.02246,-102"/>
<text text-anchor="middle" x="68" y="-108" font-family="Helvetica,sans-Serif" font-size="10.00">boost::atomic&lt; uint32 &gt;</text>
</g>
<!-- Node3&#45;&gt;Node2 -->
<g id="edge2" class="edge"><title>Node3&#45;&gt;Node2</title>
<path fill="none" stroke="midnightblue" d="M138.65,-112C152.925,-112 167.849,-112 181.8,-112"/>
<polygon fill="midnightblue" stroke="midnightblue" points="138.394,-108.5 128.394,-112 138.394,-115.5 138.394,-108.5"/>
</g>
<!-- Node4 -->
<g id="node4" class="node"><title>Node4</title>
<g id="a_node4"><a xlink:href="classrc_atomic_value.html" target="_top" xlink:title="rcAtomicValue\&lt; rcMovieFile\lState \&gt;">
<polygon fill="white" stroke="black" points="174.267,-51 174.267,-83 313.733,-83 313.733,-51 174.267,-51"/>
<text text-anchor="start" x="182.267" y="-69" font-family="Helvetica,sans-Serif" font-size="10.00">rcAtomicValue&lt; rcMovieFile</text>
<text text-anchor="middle" x="244" y="-57" font-family="Helvetica,sans-Serif" font-size="10.00">State &gt;</text>
</a>
</g>
</g>
<!-- Node4&#45;&gt;Node1 -->
<g id="edge3" class="edge"><title>Node4&#45;&gt;Node1</title>
<path fill="none" stroke="#9a32cd" stroke-dasharray="5,2" d="M324.297,-67C352.856,-67 384.77,-67 412.16,-67"/>
<polygon fill="#9a32cd" stroke="#9a32cd" points="323.942,-63.5001 313.942,-67 323.942,-70.5001 323.942,-63.5001"/>
<text text-anchor="middle" x="363" y="-69" font-family="Helvetica,sans-Serif" font-size="10.00"> _saveState</text>
</g>
<!-- Node5 -->
<g id="node5" class="node"><title>Node5</title>
<polygon fill="white" stroke="#bfbfbf" points="1.78467,-51 1.78467,-83 134.215,-83 134.215,-51 1.78467,-51"/>
<text text-anchor="start" x="9.78467" y="-69" font-family="Helvetica,sans-Serif" font-size="10.00">boost::atomic&lt;rcMovieFile</text>
<text text-anchor="middle" x="68" y="-57" font-family="Helvetica,sans-Serif" font-size="10.00">State &gt;</text>
</g>
<!-- Node5&#45;&gt;Node4 -->
<g id="edge4" class="edge"><title>Node5&#45;&gt;Node4</title>
<path fill="none" stroke="midnightblue" d="M144.471,-67C154.336,-67 164.402,-67 174.15,-67"/>
<polygon fill="midnightblue" stroke="midnightblue" points="144.286,-63.5001 134.286,-67 144.286,-70.5001 144.286,-63.5001"/>
</g>
<!-- Node6 -->
<g id="node6" class="node"><title>Node6</title>
<g id="a_node6"><a xlink:href="classrc_atomic_value.html" target="_top" xlink:title="rcAtomicValue\&lt; rcMovieFile\lErr \&gt;">
<polygon fill="white" stroke="black" points="174.267,-0 174.267,-32 313.733,-32 313.733,-0 174.267,-0"/>
<text text-anchor="start" x="182.267" y="-18" font-family="Helvetica,sans-Serif" font-size="10.00">rcAtomicValue&lt; rcMovieFile</text>
<text text-anchor="middle" x="244" y="-6" font-family="Helvetica,sans-Serif" font-size="10.00">Err &gt;</text>
</a>
</g>
</g>
<!-- Node6&#45;&gt;Node1 -->
<g id="edge5" class="edge"><title>Node6&#45;&gt;Node1</title>
<path fill="none" stroke="#9a32cd" stroke-dasharray="5,2" d="M324.02,-33.2222C360.311,-41.1319 402.071,-50.2334 433.092,-56.9944"/>
<polygon fill="#9a32cd" stroke="#9a32cd" points="324.458,-29.7357 313.942,-31.0258 322.967,-36.5751 324.458,-29.7357"/>
<text text-anchor="middle" x="363" y="-49" font-family="Helvetica,sans-Serif" font-size="10.00"> _saveStatus</text>
</g>
<!-- Node7 -->
<g id="node7" class="node"><title>Node7</title>
<polygon fill="white" stroke="#bfbfbf" points="0.395508,-0 0.395508,-32 135.604,-32 135.604,-0 0.395508,-0"/>
<text text-anchor="start" x="8.39551" y="-18" font-family="Helvetica,sans-Serif" font-size="10.00">boost::atomic&lt; rcMovieFile</text>
<text text-anchor="middle" x="68" y="-6" font-family="Helvetica,sans-Serif" font-size="10.00">Err &gt;</text>
</g>
<!-- Node7&#45;&gt;Node6 -->
<g id="edge6" class="edge"><title>Node7&#45;&gt;Node6</title>
<path fill="none" stroke="midnightblue" d="M145.885,-16C155.278,-16 164.831,-16 174.098,-16"/>
<polygon fill="midnightblue" stroke="midnightblue" points="145.775,-12.5001 135.775,-16 145.775,-19.5001 145.775,-12.5001"/>
</g>
</g>
</svg>
