<?xml version="1.0" encoding="UTF-8" standalone="no"?>
<!DOCTYPE svg PUBLIC "-//W3C//DTD SVG 1.1//EN"
 "http://www.w3.org/Graphics/SVG/1.1/DTD/svg11.dtd">
<!-- Generated by graphviz version 2.32.0 (20130916.1925)
 -->
<!-- Title: rcDefGeneratePixel::genPixel Pages: 1 -->
<!--zoomable 184 -->
<svg id="main" version="1.1" xmlns="http://www.w3.org/2000/svg" xmlns:xlink="http://www.w3.org/1999/xlink" xml:space="preserve" onload="init(evt)">
        <defs>
                <circle id="rim" cx="0" cy="0" r="7"/>
                <circle id="rim2" cx="0" cy="0" r="3.5"/>
                <g id="zoomPlus">
                        <use xlink:href="#rim" fill="#404040">
                                <set attributeName="fill" to="#808080" begin="zoomplus.mouseover" end="zoomplus.mouseout"/>
                        </use>
                        <path d="M-4,0h8M0,-4v8" fill="none" stroke="white" stroke-width="1.5" pointer-events="none"/>
                </g>
                <g id="zoomMin">
                        <use xlink:href="#rim" fill="#404040">
                                <set attributeName="fill" to="#808080" begin="zoomminus.mouseover" end="zoomminus.mouseout"/>
                        </use>
                        <path d="M-4,0h8" fill="none" stroke="white" stroke-width="1.5" pointer-events="none"/>
                </g>
                <g id="dirArrow">
                        <path fill="none" stroke="white" stroke-width="1.5" d="M0,-3.0v7 M-2.5,-0.5L0,-3.0L2.5,-0.5"/>
                </g>
               <g id="resetDef">
                       <use xlink:href="#rim2" fill="#404040">
                               <set attributeName="fill" to="#808080" begin="reset.mouseover" end="reset.mouseout"/>
                       </use>
               </g>
        </defs>

<script type="text/javascript">
var viewWidth = 534;
var viewHeight = 184;
var sectionId = 'dynsection-2';
</script>
<script xlink:href="svgpan.js"/>
<svg id="graph" class="graph">
<g id="viewport">
<title>rcDefGeneratePixel::genPixel</title>
<polygon fill="white" stroke="white" points="-4,5 -4,-180 531,-180 531,5 -4,5"/>
<!-- Node1 -->
<g id="node1" class="node"><title>Node1</title>
<polygon fill="#bfbfbf" stroke="black" points="0.369629,-91 0.369629,-123 103.63,-123 103.63,-91 0.369629,-91"/>
<text text-anchor="start" x="8.36963" y="-109" font-family="Helvetica,sans-Serif" font-size="10.00">rcDefGeneratePixel</text>
<text text-anchor="middle" x="52" y="-97" font-family="Helvetica,sans-Serif" font-size="10.00">::genPixel</text>
</g>
<!-- Node2 -->
<g id="node2" class="node"><title>Node2</title>
<g id="a_node2"><a xlink:href="classrc_window.html#a9ab724dc45a3c3c2beee6c8ed558de1e" target="_top" xlink:title="rcWindow::depth">
<polygon fill="white" stroke="black" points="161.761,-136 161.761,-156 252.239,-156 252.239,-136 161.761,-136"/>
<text text-anchor="middle" x="207" y="-142" font-family="Helvetica,sans-Serif" font-size="10.00">rcWindow::depth</text>
</a>
</g>
</g>
<!-- Node1&#45;&gt;Node2 -->
<g id="edge1" class="edge"><title>Node1&#45;&gt;Node2</title>
<path fill="none" stroke="midnightblue" d="M103.947,-119.986C120.792,-124.28 139.505,-129.05 156.259,-133.321"/>
<polygon fill="midnightblue" stroke="midnightblue" points="155.848,-136.828 166.403,-135.907 157.577,-130.045 155.848,-136.828"/>
</g>
<!-- Node3 -->
<g id="node3" class="node"><title>Node3</title>
<g id="a_node3"><a xlink:href="classrc_window.html#a131e7135ebeee1c0b1ccecf68e451cc6" target="_top" xlink:title="rcWindow::getDoublePixel">
<polygon fill="white" stroke="black" points="140.641,-58 140.641,-78 273.359,-78 273.359,-58 140.641,-58"/>
<text text-anchor="middle" x="207" y="-64" font-family="Helvetica,sans-Serif" font-size="10.00">rcWindow::getDoublePixel</text>
</a>
</g>
</g>
<!-- Node1&#45;&gt;Node3 -->
<g id="edge2" class="edge"><title>Node1&#45;&gt;Node3</title>
<path fill="none" stroke="midnightblue" d="M103.947,-94.0136C120.792,-89.7197 139.505,-84.9497 156.259,-80.6792"/>
<polygon fill="midnightblue" stroke="midnightblue" points="157.577,-83.9551 166.403,-78.0934 155.848,-77.172 157.577,-83.9551"/>
</g>
<!-- Node10 -->
<g id="node10" class="node"><title>Node10</title>
<g id="a_node10"><a xlink:href="classrc_window.html#aefce9967e3b610e442ec2392b06e147f" target="_top" xlink:title="rcWindow::getPixel">
<polygon fill="white" stroke="black" points="156.485,-97 156.485,-117 257.515,-117 257.515,-97 156.485,-97"/>
<text text-anchor="middle" x="207" y="-103" font-family="Helvetica,sans-Serif" font-size="10.00">rcWindow::getPixel</text>
</a>
</g>
</g>
<!-- Node1&#45;&gt;Node10 -->
<g id="edge9" class="edge"><title>Node1&#45;&gt;Node10</title>
<path fill="none" stroke="midnightblue" d="M103.947,-107C117.517,-107 132.3,-107 146.294,-107"/>
<polygon fill="midnightblue" stroke="midnightblue" points="146.315,-110.5 156.315,-107 146.315,-103.5 146.315,-110.5"/>
</g>
<!-- Node4 -->
<g id="node4" class="node"><title>Node4</title>
<g id="a_node4"><a xlink:href="classrc_window.html#a3286f93b0d223617111f3ac62b854b2f" target="_top" xlink:title="rcWindow::isBound">
<polygon fill="white" stroke="black" points="322.205,-117 322.205,-137 423.795,-137 423.795,-117 322.205,-117"/>
<text text-anchor="middle" x="373" y="-123" font-family="Helvetica,sans-Serif" font-size="10.00">rcWindow::isBound</text>
</a>
</g>
</g>
<!-- Node3&#45;&gt;Node4 -->
<g id="edge3" class="edge"><title>Node3&#45;&gt;Node4</title>
<path fill="none" stroke="midnightblue" d="M245.784,-78.0923C255.129,-80.9577 265.03,-84.3136 274,-88 290.734,-94.877 293.328,-99.9742 310,-107 315.542,-109.335 321.456,-111.563 327.349,-113.628"/>
<polygon fill="midnightblue" stroke="midnightblue" points="326.583,-117.063 337.178,-116.938 328.818,-110.429 326.583,-117.063"/>
</g>
<!-- Node5 -->
<g id="node5" class="node"><title>Node5</title>
<g id="a_node5"><a xlink:href="classrc_frame.html#a6c9c6593266e6e6602270f314c108e49" target="_top" xlink:title="rcFrame::getDoublePixel">
<polygon fill="white" stroke="black" points="309.978,-0 309.978,-20 436.022,-20 436.022,-0 309.978,-0"/>
<text text-anchor="middle" x="373" y="-6" font-family="Helvetica,sans-Serif" font-size="10.00">rcFrame::getDoublePixel</text>
</a>
</g>
</g>
<!-- Node3&#45;&gt;Node5 -->
<g id="edge4" class="edge"><title>Node3&#45;&gt;Node5</title>
<path fill="none" stroke="midnightblue" d="M233.877,-57.996C254.426,-50.14 283.938,-39.0533 310,-30 316.532,-27.7309 323.481,-25.4049 330.274,-23.1785"/>
<polygon fill="midnightblue" stroke="midnightblue" points="331.618,-26.4221 340.049,-20.0062 329.457,-19.7639 331.618,-26.4221"/>
</g>
<!-- Node6 -->
<g id="node6" class="node"><title>Node6</title>
<g id="a_node6"><a xlink:href="classrc_rect.html#ac0f95519a41dcf7e33bec85ccb8e7aff" target="_top" xlink:title="rcRect::x">
<polygon fill="white" stroke="black" points="345.276,-78 345.276,-98 400.724,-98 400.724,-78 345.276,-78"/>
<text text-anchor="middle" x="373" y="-84" font-family="Helvetica,sans-Serif" font-size="10.00">rcRect::x</text>
</a>
</g>
</g>
<!-- Node3&#45;&gt;Node6 -->
<g id="edge5" class="edge"><title>Node3&#45;&gt;Node6</title>
<path fill="none" stroke="midnightblue" d="M273.76,-76.0195C294.618,-78.5632 316.937,-81.285 335.021,-83.4904"/>
<polygon fill="midnightblue" stroke="midnightblue" points="334.787,-86.9876 345.137,-84.724 335.634,-80.0391 334.787,-86.9876"/>
</g>
<!-- Node8 -->
<g id="node8" class="node"><title>Node8</title>
<g id="a_node8"><a xlink:href="classrc_rect.html#a50236160751c949d8718f8d4d17f7923" target="_top" xlink:title="rcRect::y">
<polygon fill="white" stroke="black" points="345.276,-39 345.276,-59 400.724,-59 400.724,-39 345.276,-39"/>
<text text-anchor="middle" x="373" y="-45" font-family="Helvetica,sans-Serif" font-size="10.00">rcRect::y</text>
</a>
</g>
</g>
<!-- Node3&#45;&gt;Node8 -->
<g id="edge7" class="edge"><title>Node3&#45;&gt;Node8</title>
<path fill="none" stroke="midnightblue" d="M273.76,-60.3815C294.618,-57.965 316.937,-55.3793 335.021,-53.2841"/>
<polygon fill="midnightblue" stroke="midnightblue" points="335.606,-56.7399 345.137,-52.1122 334.8,-49.7864 335.606,-56.7399"/>
</g>
<!-- Node7 -->
<g id="node7" class="node"><title>Node7</title>
<g id="a_node7"><a xlink:href="classrc_pair.html#ad1a3cb1e7fdbe119ce1295514b1bb49d" target="_top" xlink:title="rcPair::x">
<polygon fill="white" stroke="black" points="472.665,-78 472.665,-98 525.335,-98 525.335,-78 472.665,-78"/>
<text text-anchor="middle" x="499" y="-84" font-family="Helvetica,sans-Serif" font-size="10.00">rcPair::x</text>
</a>
</g>
</g>
<!-- Node6&#45;&gt;Node7 -->
<g id="edge6" class="edge"><title>Node6&#45;&gt;Node7</title>
<path fill="none" stroke="midnightblue" d="M400.906,-88C418.899,-88 442.771,-88 462.342,-88"/>
<polygon fill="midnightblue" stroke="midnightblue" points="462.418,-91.5001 472.418,-88 462.418,-84.5001 462.418,-91.5001"/>
</g>
<!-- Node9 -->
<g id="node9" class="node"><title>Node9</title>
<g id="a_node9"><a xlink:href="classrc_pair.html#a87400f83938e920c405c40aa449d3607" target="_top" xlink:title="rcPair::y">
<polygon fill="white" stroke="black" points="472.665,-39 472.665,-59 525.335,-59 525.335,-39 472.665,-39"/>
<text text-anchor="middle" x="499" y="-45" font-family="Helvetica,sans-Serif" font-size="10.00">rcPair::y</text>
</a>
</g>
</g>
<!-- Node8&#45;&gt;Node9 -->
<g id="edge8" class="edge"><title>Node8&#45;&gt;Node9</title>
<path fill="none" stroke="midnightblue" d="M400.906,-49C418.899,-49 442.771,-49 462.342,-49"/>
<polygon fill="midnightblue" stroke="midnightblue" points="462.418,-52.5001 472.418,-49 462.418,-45.5001 462.418,-52.5001"/>
</g>
<!-- Node10&#45;&gt;Node4 -->
<g id="edge10" class="edge"><title>Node10&#45;&gt;Node4</title>
<path fill="none" stroke="midnightblue" d="M257.65,-113.055C274.673,-115.131 293.911,-117.477 311.685,-119.644"/>
<polygon fill="midnightblue" stroke="midnightblue" points="311.602,-123.16 321.952,-120.897 312.45,-116.212 311.602,-123.16"/>
</g>
<!-- Node10&#45;&gt;Node6 -->
<g id="edge12" class="edge"><title>Node10&#45;&gt;Node6</title>
<path fill="none" stroke="midnightblue" d="M257.65,-101.248C282.504,-98.3684 312.079,-94.942 334.925,-92.2952"/>
<polygon fill="midnightblue" stroke="midnightblue" points="335.377,-95.7665 344.907,-91.1388 334.571,-88.813 335.377,-95.7665"/>
</g>
<!-- Node10&#45;&gt;Node8 -->
<g id="edge13" class="edge"><title>Node10&#45;&gt;Node8</title>
<path fill="none" stroke="midnightblue" d="M245.037,-96.9804C254.584,-94.071 264.768,-90.6762 274,-87 290.619,-80.3824 293.44,-75.7653 310,-69 318.127,-65.6797 327.026,-62.5341 335.482,-59.7625"/>
<polygon fill="midnightblue" stroke="midnightblue" points="336.663,-63.0596 345.131,-56.6927 334.541,-56.3891 336.663,-63.0596"/>
</g>
<!-- Node11 -->
<g id="node11" class="node"><title>Node11</title>
<g id="a_node11"><a xlink:href="classrc_frame.html#afe29820f04ff401b75e23226cbec4c03" target="_top" xlink:title="rcFrame::getPixel">
<polygon fill="white" stroke="black" points="325.823,-156 325.823,-176 420.177,-176 420.177,-156 325.823,-156"/>
<text text-anchor="middle" x="373" y="-162" font-family="Helvetica,sans-Serif" font-size="10.00">rcFrame::getPixel</text>
</a>
</g>
</g>
<!-- Node10&#45;&gt;Node11 -->
<g id="edge11" class="edge"><title>Node10&#45;&gt;Node11</title>
<path fill="none" stroke="midnightblue" d="M245.784,-117.092C255.129,-119.958 265.03,-123.314 274,-127 290.734,-133.877 293.328,-138.974 310,-146 315.542,-148.335 321.456,-150.563 327.349,-152.628"/>
<polygon fill="midnightblue" stroke="midnightblue" points="326.583,-156.063 337.178,-155.938 328.818,-149.429 326.583,-156.063"/>
</g>
</g>
</svg>
        <g id="navigator" transform="translate(0 0)" fill="#404254">
                <rect fill="#f2f5e9" fill-opacity="0.5" stroke="#606060" stroke-width=".5" x="0" y="0" width="60" height="60"/>
                <use id="zoomplus" xlink:href="#zoomPlus" x="17" y="9" onmousedown="handleZoom(evt,'in')"/>
                <use id="zoomminus" xlink:href="#zoomMin" x="42" y="9" onmousedown="handleZoom(evt,'out')"/>
                <use id="reset" xlink:href="#resetDef" x="30" y="36" onmousedown="handleReset()"/>
                <g id="arrowUp" xlink:href="#dirArrow" transform="translate(30 24)" onmousedown="handlePan(0,-1)">
                  <use xlink:href="#rim" fill="#404040">
                        <set attributeName="fill" to="#808080" begin="arrowUp.mouseover" end="arrowUp.mouseout"/>
                  </use>
                  <path fill="none" stroke="white" stroke-width="1.5" d="M0,-3.0v7 M-2.5,-0.5L0,-3.0L2.5,-0.5"/>
                </g>
                <g id="arrowRight" xlink:href="#dirArrow" transform="rotate(90) translate(36 -43)" onmousedown="handlePan(1,0)">
                  <use xlink:href="#rim" fill="#404040">
                        <set attributeName="fill" to="#808080" begin="arrowRight.mouseover" end="arrowRight.mouseout"/>
                  </use>
                  <path fill="none" stroke="white" stroke-width="1.5" d="M0,-3.0v7 M-2.5,-0.5L0,-3.0L2.5,-0.5"/>
                </g>
                <g id="arrowDown" xlink:href="#dirArrow" transform="rotate(180) translate(-30 -48)" onmousedown="handlePan(0,1)">
                  <use xlink:href="#rim" fill="#404040">
                        <set attributeName="fill" to="#808080" begin="arrowDown.mouseover" end="arrowDown.mouseout"/>
                  </use>
                  <path fill="none" stroke="white" stroke-width="1.5" d="M0,-3.0v7 M-2.5,-0.5L0,-3.0L2.5,-0.5"/>
                </g>
                <g id="arrowLeft" xlink:href="#dirArrow" transform="rotate(270) translate(-36 17)" onmousedown="handlePan(-1,0)">
                  <use xlink:href="#rim" fill="#404040">
                        <set attributeName="fill" to="#808080" begin="arrowLeft.mouseover" end="arrowLeft.mouseout"/>
                  </use>
                  <path fill="none" stroke="white" stroke-width="1.5" d="M0,-3.0v7 M-2.5,-0.5L0,-3.0L2.5,-0.5"/>
                </g>
        </g>
        <svg viewBox="0 0 15 15" width="100%" height="30px" preserveAspectRatio="xMaxYMin meet">
         <g id="arrow_out" transform="scale(0.3 0.3)">
          <a xlink:href="classrc_def_generate_pixel_a9c942fc2a80714e3d574e329c7e8929a_cgraph_org.svg" target="_base">
           <rect id="button" ry="5" rx="5" y="6" x="6" height="38" width="38"
                fill="#f2f5e9" fill-opacity="0.5" stroke="#606060" stroke-width="1.0"/>
           <path id="arrow"
             d="M 11.500037,31.436501 C 11.940474,20.09759 22.043105,11.32322 32.158766,21.979434 L 37.068811,17.246167 C 37.068811,17.246167 37.088388,32 37.088388,32 L 22.160133,31.978069 C 22.160133,31.978069 26.997745,27.140456 26.997745,27.140456 C 18.528582,18.264221 13.291696,25.230495 11.500037,31.436501 z"
             style="fill:#404040;"/>
          </a>
         </g>
        </svg>
</svg>
