<?xml version="1.0" encoding="UTF-8" standalone="no"?>
<!DOCTYPE svg PUBLIC "-//W3C//DTD SVG 1.1//EN"
 "http://www.w3.org/Graphics/SVG/1.1/DTD/svg11.dtd">
<!-- Generated by graphviz version 2.32.0 (20130916.1925)
 -->
<!-- Title: rc1Xform::invMapPoint Pages: 1 -->
<svg width="398pt" height="67pt"
 viewBox="0.00 0.00 398.00 67.00" xmlns="http://www.w3.org/2000/svg" xmlns:xlink="http://www.w3.org/1999/xlink">
<g id="graph0" class="graph" transform="scale(1 1) rotate(0) translate(4 63)">
<title>rc1Xform::invMapPoint</title>
<polygon fill="white" stroke="white" points="-4,5 -4,-63 395,-63 395,5 -4,5"/>
<!-- Node1 -->
<g id="node1" class="node"><title>Node1</title>
<polygon fill="#bfbfbf" stroke="black" points="0.42627,-19 0.42627,-39 117.574,-39 117.574,-19 0.42627,-19"/>
<text text-anchor="middle" x="59" y="-25" font-family="Helvetica,sans-Serif" font-size="10.00">rc1Xform::invMapPoint</text>
</g>
<!-- Node2 -->
<g id="node2" class="node"><title>Node2</title>
<g id="a_node2"><a xlink:href="classrc1_xform.html#ae9d96d5f402b59fb4236265896391be8" target="_top" xlink:title="rc1Xform::inverse">
<polygon fill="white" stroke="black" points="153.823,-19 153.823,-39 248.177,-39 248.177,-19 153.823,-19"/>
<text text-anchor="middle" x="201" y="-25" font-family="Helvetica,sans-Serif" font-size="10.00">rc1Xform::inverse</text>
</a>
</g>
</g>
<!-- Node1&#45;&gt;Node2 -->
<g id="edge1" class="edge"><title>Node1&#45;&gt;Node2</title>
<path fill="none" stroke="midnightblue" d="M117.752,-29C126.212,-29 134.919,-29 143.358,-29"/>
<polygon fill="midnightblue" stroke="midnightblue" points="143.482,-32.5001 153.482,-29 143.482,-25.5001 143.482,-32.5001"/>
</g>
<!-- Node3 -->
<g id="node3" class="node"><title>Node3</title>
<g id="a_node3"><a xlink:href="classrc1_xform.html#a4ce70d4f0ca9bf615b3f0dc2d4156821" target="_top" xlink:title="rc1Xform::isSingular">
<polygon fill="white" stroke="black" points="283.985,-39 283.985,-59 390.015,-59 390.015,-39 283.985,-39"/>
<text text-anchor="middle" x="337" y="-45" font-family="Helvetica,sans-Serif" font-size="10.00">rc1Xform::isSingular</text>
</a>
</g>
</g>
<!-- Node2&#45;&gt;Node3 -->
<g id="edge2" class="edge"><title>Node2&#45;&gt;Node3</title>
<path fill="none" stroke="midnightblue" d="M248.491,-35.9389C256.64,-37.1553 265.238,-38.4385 273.734,-39.7065"/>
<polygon fill="midnightblue" stroke="midnightblue" points="273.22,-43.1685 283.627,-41.1831 274.253,-36.2452 273.22,-43.1685"/>
</g>
<!-- Node4 -->
<g id="node4" class="node"><title>Node4</title>
<g id="a_node4"><a xlink:href="classrc1_xform.html#aa5af0a295fb8f9184f5278c5947bf5cb" target="_top" xlink:title="rc1Xform::rc1Xform">
<polygon fill="white" stroke="black" points="285.66,-0 285.66,-20 388.34,-20 388.34,-0 285.66,-0"/>
<text text-anchor="middle" x="337" y="-6" font-family="Helvetica,sans-Serif" font-size="10.00">rc1Xform::rc1Xform</text>
</a>
</g>
</g>
<!-- Node2&#45;&gt;Node4 -->
<g id="edge3" class="edge"><title>Node2&#45;&gt;Node4</title>
<path fill="none" stroke="midnightblue" d="M248.491,-22.408C257.168,-21.1776 266.354,-19.8752 275.383,-18.5949"/>
<polygon fill="midnightblue" stroke="midnightblue" points="276.067,-22.0331 285.476,-17.1638 275.084,-15.1024 276.067,-22.0331"/>
</g>
</g>
</svg>
