<?xml version="1.0" encoding="UTF-8" standalone="no"?>
<!DOCTYPE svg PUBLIC "-//W3C//DTD SVG 1.1//EN"
 "http://www.w3.org/Graphics/SVG/1.1/DTD/svg11.dtd">
<!-- Generated by graphviz version 2.32.0 (20130916.1925)
 -->
<!-- Title: rcWindow::y Pages: 1 -->
<!--zoomable 157 -->
<svg id="main" version="1.1" xmlns="http://www.w3.org/2000/svg" xmlns:xlink="http://www.w3.org/1999/xlink" xml:space="preserve" onload="init(evt)">
        <defs>
                <circle id="rim" cx="0" cy="0" r="7"/>
                <circle id="rim2" cx="0" cy="0" r="3.5"/>
                <g id="zoomPlus">
                        <use xlink:href="#rim" fill="#404040">
                                <set attributeName="fill" to="#808080" begin="zoomplus.mouseover" end="zoomplus.mouseout"/>
                        </use>
                        <path d="M-4,0h8M0,-4v8" fill="none" stroke="white" stroke-width="1.5" pointer-events="none"/>
                </g>
                <g id="zoomMin">
                        <use xlink:href="#rim" fill="#404040">
                                <set attributeName="fill" to="#808080" begin="zoomminus.mouseover" end="zoomminus.mouseout"/>
                        </use>
                        <path d="M-4,0h8" fill="none" stroke="white" stroke-width="1.5" pointer-events="none"/>
                </g>
                <g id="dirArrow">
                        <path fill="none" stroke="white" stroke-width="1.5" d="M0,-3.0v7 M-2.5,-0.5L0,-3.0L2.5,-0.5"/>
                </g>
               <g id="resetDef">
                       <use xlink:href="#rim2" fill="#404040">
                               <set attributeName="fill" to="#808080" begin="reset.mouseover" end="reset.mouseout"/>
                       </use>
               </g>
        </defs>

<script type="text/javascript">
var viewWidth = 858;
var viewHeight = 157;
var sectionId = 'dynsection-90';
</script>
<script xlink:href="svgpan.js"/>
<svg id="graph" class="graph">
<g id="viewport">
<title>rcWindow::y</title>
<polygon fill="white" stroke="white" points="-4,5 -4,-153 855,-153 855,5 -4,5"/>
<!-- Node1 -->
<g id="node1" class="node"><title>Node1</title>
<polygon fill="#bfbfbf" stroke="black" points="-0.226562,-70 -0.226562,-90 70.2266,-90 70.2266,-70 -0.226562,-70"/>
<text text-anchor="middle" x="35" y="-76" font-family="Helvetica,sans-Serif" font-size="10.00">rcWindow::y</text>
</g>
<!-- Node2 -->
<g id="node2" class="node"><title>Node2</title>
<g id="a_node2"><a xlink:href="classrc_window.html#ab0e725d98ea894f2c79a279345830e04" target="_top" xlink:title="canTrim / can takes a desired trim tba to all sides">
<polygon fill="white" stroke="black" points="110.4,-129 110.4,-149 211.6,-149 211.6,-129 110.4,-129"/>
<text text-anchor="middle" x="161" y="-135" font-family="Helvetica,sans-Serif" font-size="10.00">rcWindow::canTrim</text>
</a>
</g>
</g>
<!-- Node1&#45;&gt;Node2 -->
<g id="edge1" class="edge"><title>Node1&#45;&gt;Node2</title>
<path fill="none" stroke="midnightblue" d="M61.2087,-95.2807C74.3163,-102.907 90.7474,-111.977 106,-119 113.719,-122.554 122.265,-125.953 130.238,-128.908"/>
<polygon fill="midnightblue" stroke="midnightblue" points="62.7073,-92.1011 52.3162,-90.0332 59.1497,-98.1297 62.7073,-92.1011"/>
</g>
<!-- Node3 -->
<g id="node3" class="node"><title>Node3</title>
<g id="a_node3"><a xlink:href="classrc_window.html#a78d86af59d13a4061f8b256b5c19b513" target="_top" xlink:title="rcWindow::trim">
<polygon fill="white" stroke="black" points="119.943,-90 119.943,-110 202.057,-110 202.057,-90 119.943,-90"/>
<text text-anchor="middle" x="161" y="-96" font-family="Helvetica,sans-Serif" font-size="10.00">rcWindow::trim</text>
</a>
</g>
</g>
<!-- Node1&#45;&gt;Node3 -->
<g id="edge2" class="edge"><title>Node1&#45;&gt;Node3</title>
<path fill="none" stroke="midnightblue" d="M80.4768,-87.1737C93.2104,-89.2275 107.018,-91.4546 119.5,-93.4677"/>
<polygon fill="midnightblue" stroke="midnightblue" points="80.9707,-83.7082 70.5409,-85.5711 79.856,-90.6189 80.9707,-83.7082"/>
</g>
<!-- Node4 -->
<g id="node4" class="node"><title>Node4</title>
<g id="a_node4"><a xlink:href="classrc_window.html#ac1a73a3d34b3b7527c82ea9376ac2088" target="_top" xlink:title="rcWindow::window">
<polygon fill="white" stroke="black" points="111.599,-51 111.599,-71 210.401,-71 210.401,-51 111.599,-51"/>
<text text-anchor="middle" x="161" y="-57" font-family="Helvetica,sans-Serif" font-size="10.00">rcWindow::window</text>
</a>
</g>
</g>
<!-- Node1&#45;&gt;Node4 -->
<g id="edge3" class="edge"><title>Node1&#45;&gt;Node4</title>
<path fill="none" stroke="midnightblue" d="M80.6267,-73.162C90.5766,-71.6375 101.176,-70.0134 111.281,-68.465"/>
<polygon fill="midnightblue" stroke="midnightblue" points="79.8954,-69.7332 70.5409,-74.7074 80.9557,-76.6524 79.8954,-69.7332"/>
</g>
<!-- Node11 -->
<g id="node11" class="node"><title>Node11</title>
<g id="a_node11"><a xlink:href="classrc_correlation_window.html#af3f9c6ec3ac2ebe1f342f325960b609c" target="_top" xlink:title="rcCorrelationWindow\l\&lt; uint8 \&gt;::y">
<polygon fill="white" stroke="black" points="106.596,-0 106.596,-32 215.404,-32 215.404,-0 106.596,-0"/>
<text text-anchor="start" x="114.596" y="-18" font-family="Helvetica,sans-Serif" font-size="10.00">rcCorrelationWindow</text>
<text text-anchor="middle" x="161" y="-6" font-family="Helvetica,sans-Serif" font-size="10.00">&lt; uint8 &gt;::y</text>
</a>
</g>
</g>
<!-- Node1&#45;&gt;Node11 -->
<g id="edge10" class="edge"><title>Node1&#45;&gt;Node11</title>
<path fill="none" stroke="midnightblue" d="M62.8693,-65.0173C75.8255,-57.8947 91.6373,-49.3507 106,-42 112.391,-38.7291 119.26,-35.3326 125.885,-32.1158"/>
<polygon fill="midnightblue" stroke="midnightblue" points="61.0629,-62.0166 54.0014,-69.915 64.4472,-68.1441 61.0629,-62.0166"/>
</g>
<!-- Node5 -->
<g id="node5" class="node"><title>Node5</title>
<g id="a_node5"><a xlink:href="classrc_window.html#a45a086a7505c7e5658b12f1cab628817" target="_top" xlink:title="rcWindow::rcWindow">
<polygon fill="white" stroke="black" points="270.325,-70 270.325,-90 379.675,-90 379.675,-70 270.325,-70"/>
<text text-anchor="middle" x="325" y="-76" font-family="Helvetica,sans-Serif" font-size="10.00">rcWindow::rcWindow</text>
</a>
</g>
</g>
<!-- Node4&#45;&gt;Node5 -->
<g id="edge4" class="edge"><title>Node4&#45;&gt;Node5</title>
<path fill="none" stroke="midnightblue" d="M220.942,-67.913C236.991,-69.7953 254.291,-71.8242 270.048,-73.6722"/>
<polygon fill="midnightblue" stroke="midnightblue" points="220.945,-64.3894 210.605,-66.7006 220.13,-71.3417 220.945,-64.3894"/>
</g>
<!-- Node6 -->
<g id="node6" class="node"><title>Node6</title>
<g id="a_node6"><a xlink:href="classrc_window.html#af79e8a68ca0991d5faa037a827a12b82" target="_top" xlink:title="rcWindow::windowRelativeTo">
<polygon fill="white" stroke="black" points="252.254,-31 252.254,-51 397.746,-51 397.746,-31 252.254,-31"/>
<text text-anchor="middle" x="325" y="-37" font-family="Helvetica,sans-Serif" font-size="10.00">rcWindow::windowRelativeTo</text>
</a>
</g>
</g>
<!-- Node4&#45;&gt;Node6 -->
<g id="edge5" class="edge"><title>Node4&#45;&gt;Node6</title>
<path fill="none" stroke="midnightblue" d="M220.616,-53.7634C230.826,-52.503 241.55,-51.179 252.067,-49.8806"/>
<polygon fill="midnightblue" stroke="midnightblue" points="220.101,-50.3004 210.605,-54.9993 220.959,-57.2476 220.101,-50.3004"/>
</g>
<!-- Node7 -->
<g id="node7" class="node"><title>Node7</title>
<g id="a_node7"><a xlink:href="classrc_window.html#aa9111e4b4c81e424ac96f83c3bca4d29" target="_top" xlink:title="rcWindow::trim">
<polygon fill="white" stroke="black" points="433.943,-31 433.943,-51 516.057,-51 516.057,-31 433.943,-31"/>
<text text-anchor="middle" x="475" y="-37" font-family="Helvetica,sans-Serif" font-size="10.00">rcWindow::trim</text>
</a>
</g>
</g>
<!-- Node6&#45;&gt;Node7 -->
<g id="edge6" class="edge"><title>Node6&#45;&gt;Node7</title>
<path fill="none" stroke="midnightblue" d="M407.972,-41C416.919,-41 425.708,-41 433.809,-41"/>
<polygon fill="midnightblue" stroke="midnightblue" points="407.832,-37.5001 397.832,-41 407.832,-44.5001 407.832,-37.5001"/>
</g>
<!-- Node8 -->
<g id="node8" class="node"><title>Node8</title>
<g id="a_node8"><a xlink:href="classrc_visual_function.html#a1df64c3605f3a0a4670118911ac783b1" target="_top" xlink:title="rcVisualFunction::cardiac\lMeasure">
<polygon fill="white" stroke="black" points="552.231,-48 552.231,-80 679.769,-80 679.769,-48 552.231,-48"/>
<text text-anchor="start" x="560.231" y="-66" font-family="Helvetica,sans-Serif" font-size="10.00">rcVisualFunction::cardiac</text>
<text text-anchor="middle" x="616" y="-54" font-family="Helvetica,sans-Serif" font-size="10.00">Measure</text>
</a>
</g>
</g>
<!-- Node7&#45;&gt;Node8 -->
<g id="edge7" class="edge"><title>Node7&#45;&gt;Node8</title>
<path fill="none" stroke="midnightblue" d="M526.215,-49.3089C534.618,-50.6994 543.429,-52.1574 552.102,-53.5925"/>
<polygon fill="midnightblue" stroke="midnightblue" points="526.642,-45.8321 516.205,-47.6526 525.499,-52.7382 526.642,-45.8321"/>
</g>
<!-- Node10 -->
<g id="node10" class="node"><title>Node10</title>
<g id="a_node10"><a xlink:href="classrc_window.html#abeb4a3169759deff56a58a07c16e5a50" target="_top" xlink:title="rcWindow::trim">
<polygon fill="white" stroke="black" points="574.943,-9 574.943,-29 657.057,-29 657.057,-9 574.943,-9"/>
<text text-anchor="middle" x="616" y="-15" font-family="Helvetica,sans-Serif" font-size="10.00">rcWindow::trim</text>
</a>
</g>
</g>
<!-- Node7&#45;&gt;Node10 -->
<g id="edge9" class="edge"><title>Node7&#45;&gt;Node10</title>
<path fill="none" stroke="midnightblue" d="M526.433,-33.0178C542.375,-30.4947 559.767,-27.7419 574.886,-25.349"/>
<polygon fill="midnightblue" stroke="midnightblue" points="525.534,-29.6164 516.205,-34.6367 526.629,-36.5303 525.534,-29.6164"/>
</g>
<!-- Node9 -->
<g id="node9" class="node"><title>Node9</title>
<g id="a_node9"><a xlink:href="classrc_visual_function.html#ac3135ba614a9ba5080e78c3f2f426312" target="_top" xlink:title="rcVisualFunction::measure">
<polygon fill="white" stroke="black" points="715.896,-54 715.896,-74 850.104,-74 850.104,-54 715.896,-54"/>
<text text-anchor="middle" x="783" y="-60" font-family="Helvetica,sans-Serif" font-size="10.00">rcVisualFunction::measure</text>
</a>
</g>
</g>
<!-- Node8&#45;&gt;Node9 -->
<g id="edge8" class="edge"><title>Node8&#45;&gt;Node9</title>
<path fill="none" stroke="midnightblue" d="M689.874,-64C698.488,-64 707.243,-64 715.758,-64"/>
<polygon fill="midnightblue" stroke="midnightblue" points="689.85,-60.5001 679.85,-64 689.85,-67.5001 689.85,-60.5001"/>
</g>
</g>
</svg>
        <g id="navigator" transform="translate(0 0)" fill="#404254">
                <rect fill="#f2f5e9" fill-opacity="0.5" stroke="#606060" stroke-width=".5" x="0" y="0" width="60" height="60"/>
                <use id="zoomplus" xlink:href="#zoomPlus" x="17" y="9" onmousedown="handleZoom(evt,'in')"/>
                <use id="zoomminus" xlink:href="#zoomMin" x="42" y="9" onmousedown="handleZoom(evt,'out')"/>
                <use id="reset" xlink:href="#resetDef" x="30" y="36" onmousedown="handleReset()"/>
                <g id="arrowUp" xlink:href="#dirArrow" transform="translate(30 24)" onmousedown="handlePan(0,-1)">
                  <use xlink:href="#rim" fill="#404040">
                        <set attributeName="fill" to="#808080" begin="arrowUp.mouseover" end="arrowUp.mouseout"/>
                  </use>
                  <path fill="none" stroke="white" stroke-width="1.5" d="M0,-3.0v7 M-2.5,-0.5L0,-3.0L2.5,-0.5"/>
                </g>
                <g id="arrowRight" xlink:href="#dirArrow" transform="rotate(90) translate(36 -43)" onmousedown="handlePan(1,0)">
                  <use xlink:href="#rim" fill="#404040">
                        <set attributeName="fill" to="#808080" begin="arrowRight.mouseover" end="arrowRight.mouseout"/>
                  </use>
                  <path fill="none" stroke="white" stroke-width="1.5" d="M0,-3.0v7 M-2.5,-0.5L0,-3.0L2.5,-0.5"/>
                </g>
                <g id="arrowDown" xlink:href="#dirArrow" transform="rotate(180) translate(-30 -48)" onmousedown="handlePan(0,1)">
                  <use xlink:href="#rim" fill="#404040">
                        <set attributeName="fill" to="#808080" begin="arrowDown.mouseover" end="arrowDown.mouseout"/>
                  </use>
                  <path fill="none" stroke="white" stroke-width="1.5" d="M0,-3.0v7 M-2.5,-0.5L0,-3.0L2.5,-0.5"/>
                </g>
                <g id="arrowLeft" xlink:href="#dirArrow" transform="rotate(270) translate(-36 17)" onmousedown="handlePan(-1,0)">
                  <use xlink:href="#rim" fill="#404040">
                        <set attributeName="fill" to="#808080" begin="arrowLeft.mouseover" end="arrowLeft.mouseout"/>
                  </use>
                  <path fill="none" stroke="white" stroke-width="1.5" d="M0,-3.0v7 M-2.5,-0.5L0,-3.0L2.5,-0.5"/>
                </g>
        </g>
        <svg viewBox="0 0 15 15" width="100%" height="30px" preserveAspectRatio="xMaxYMin meet">
         <g id="arrow_out" transform="scale(0.3 0.3)">
          <a xlink:href="classrc_window_af6e384a7f4f830b0ba48e5acc8ba6828_icgraph_org.svg" target="_base">
           <rect id="button" ry="5" rx="5" y="6" x="6" height="38" width="38"
                fill="#f2f5e9" fill-opacity="0.5" stroke="#606060" stroke-width="1.0"/>
           <path id="arrow"
             d="M 11.500037,31.436501 C 11.940474,20.09759 22.043105,11.32322 32.158766,21.979434 L 37.068811,17.246167 C 37.068811,17.246167 37.088388,32 37.088388,32 L 22.160133,31.978069 C 22.160133,31.978069 26.997745,27.140456 26.997745,27.140456 C 18.528582,18.264221 13.291696,25.230495 11.500037,31.436501 z"
             style="fill:#404040;"/>
          </a>
         </g>
        </svg>
</svg>
