<?xml version="1.0" encoding="UTF-8" standalone="no"?>
<!DOCTYPE svg PUBLIC "-//W3C//DTD SVG 1.1//EN"
 "http://www.w3.org/Graphics/SVG/1.1/DTD/svg11.dtd">
<!-- Generated by graphviz version 2.32.0 (20130916.1925)
 -->
<!-- Title: rcScalarTrack::getExpectedMinimumValue Pages: 1 -->
<!--zoomable 149 -->
<svg id="main" version="1.1" xmlns="http://www.w3.org/2000/svg" xmlns:xlink="http://www.w3.org/1999/xlink" xml:space="preserve" onload="init(evt)">
        <defs>
                <circle id="rim" cx="0" cy="0" r="7"/>
                <circle id="rim2" cx="0" cy="0" r="3.5"/>
                <g id="zoomPlus">
                        <use xlink:href="#rim" fill="#404040">
                                <set attributeName="fill" to="#808080" begin="zoomplus.mouseover" end="zoomplus.mouseout"/>
                        </use>
                        <path d="M-4,0h8M0,-4v8" fill="none" stroke="white" stroke-width="1.5" pointer-events="none"/>
                </g>
                <g id="zoomMin">
                        <use xlink:href="#rim" fill="#404040">
                                <set attributeName="fill" to="#808080" begin="zoomminus.mouseover" end="zoomminus.mouseout"/>
                        </use>
                        <path d="M-4,0h8" fill="none" stroke="white" stroke-width="1.5" pointer-events="none"/>
                </g>
                <g id="dirArrow">
                        <path fill="none" stroke="white" stroke-width="1.5" d="M0,-3.0v7 M-2.5,-0.5L0,-3.0L2.5,-0.5"/>
                </g>
               <g id="resetDef">
                       <use xlink:href="#rim2" fill="#404040">
                               <set attributeName="fill" to="#808080" begin="reset.mouseover" end="reset.mouseout"/>
                       </use>
               </g>
        </defs>

<script type="text/javascript">
var viewWidth = 1030;
var viewHeight = 149;
var sectionId = 'dynsection-5';
</script>
<script xlink:href="svgpan.js"/>
<svg id="graph" class="graph">
<g id="viewport">
<title>rcScalarTrack::getExpectedMinimumValue</title>
<polygon fill="white" stroke="white" points="-4,5 -4,-145 1027,-145 1027,5 -4,5"/>
<!-- Node1 -->
<g id="node1" class="node"><title>Node1</title>
<polygon fill="#bfbfbf" stroke="black" points="-0.230469,-47 -0.230469,-79 138.23,-79 138.23,-47 -0.230469,-47"/>
<text text-anchor="start" x="7.76953" y="-65" font-family="Helvetica,sans-Serif" font-size="10.00">rcScalarTrack::getExpected</text>
<text text-anchor="middle" x="69" y="-53" font-family="Helvetica,sans-Serif" font-size="10.00">MinimumValue</text>
</g>
<!-- Node2 -->
<g id="node2" class="node"><title>Node2</title>
<g id="a_node2"><a xlink:href="classrc_timeline.html#ae9dce5082b90e0412b25ad23c299fa29" target="_top" xlink:title="rcTimeline::getScalarTrack\lMinMax">
<polygon fill="white" stroke="black" points="173.906,-73 173.906,-105 308.094,-105 308.094,-73 173.906,-73"/>
<text text-anchor="start" x="181.906" y="-91" font-family="Helvetica,sans-Serif" font-size="10.00">rcTimeline::getScalarTrack</text>
<text text-anchor="middle" x="241" y="-79" font-family="Helvetica,sans-Serif" font-size="10.00">MinMax</text>
</a>
</g>
</g>
<!-- Node1&#45;&gt;Node2 -->
<g id="edge1" class="edge"><title>Node1&#45;&gt;Node2</title>
<path fill="none" stroke="midnightblue" d="M148.808,-75.053C157.183,-76.3338 165.638,-77.6269 173.846,-78.8823"/>
<polygon fill="midnightblue" stroke="midnightblue" points="149.07,-71.5524 138.655,-73.5003 148.011,-78.4719 149.07,-71.5524"/>
</g>
<!-- Node8 -->
<g id="node8" class="node"><title>Node8</title>
<g id="a_node8"><a xlink:href="classrc_native_exporter.html#ac6198892969d2146be5d422876ff1b9f" target="_top" xlink:title="rcNativeExporter::produce\lTracks">
<polygon fill="white" stroke="black" points="174.919,-22 174.919,-54 307.081,-54 307.081,-22 174.919,-22"/>
<text text-anchor="start" x="182.919" y="-40" font-family="Helvetica,sans-Serif" font-size="10.00">rcNativeExporter::produce</text>
<text text-anchor="middle" x="241" y="-28" font-family="Helvetica,sans-Serif" font-size="10.00">Tracks</text>
</a>
</g>
</g>
<!-- Node1&#45;&gt;Node8 -->
<g id="edge8" class="edge"><title>Node1&#45;&gt;Node8</title>
<path fill="none" stroke="midnightblue" d="M148.769,-51.4163C157.437,-50.1417 166.191,-48.8542 174.67,-47.6074"/>
<polygon fill="midnightblue" stroke="midnightblue" points="148.04,-47.9858 138.655,-52.9036 149.058,-54.9113 148.04,-47.9858"/>
</g>
<!-- Node3 -->
<g id="node3" class="node"><title>Node3</title>
<g id="a_node3"><a xlink:href="classrc_timeline.html#a1ccc2d8b2395a4d1620ddc4fd97a0490" target="_top" xlink:title="rcTimeline::paintTimeline">
<polygon fill="white" stroke="black" points="536.792,-121 536.792,-141 663.208,-141 663.208,-121 536.792,-121"/>
<text text-anchor="middle" x="600" y="-127" font-family="Helvetica,sans-Serif" font-size="10.00">rcTimeline::paintTimeline</text>
</a>
</g>
</g>
<!-- Node2&#45;&gt;Node3 -->
<g id="edge2" class="edge"><title>Node2&#45;&gt;Node3</title>
<path fill="none" stroke="midnightblue" d="M309.772,-107.35C321.133,-109.924 332.851,-112.276 344,-114 409.223,-124.089 484.744,-128.193 536.575,-129.861"/>
<polygon fill="midnightblue" stroke="midnightblue" points="310.438,-103.911 299.903,-105.04 308.843,-110.727 310.438,-103.911"/>
</g>
<!-- Node5 -->
<g id="node5" class="node"><title>Node5</title>
<g id="a_node5"><a xlink:href="classrc_timeline.html#a6e27d4d8d4f63ba985e72b7f00dc0ef9" target="_top" xlink:title="rcTimeline::checkScalarTrack\lScales">
<polygon fill="white" stroke="black" points="343.795,-73 343.795,-105 490.205,-105 490.205,-73 343.795,-73"/>
<text text-anchor="start" x="351.795" y="-91" font-family="Helvetica,sans-Serif" font-size="10.00">rcTimeline::checkScalarTrack</text>
<text text-anchor="middle" x="417" y="-79" font-family="Helvetica,sans-Serif" font-size="10.00">Scales</text>
</a>
</g>
</g>
<!-- Node2&#45;&gt;Node5 -->
<g id="edge4" class="edge"><title>Node2&#45;&gt;Node5</title>
<path fill="none" stroke="midnightblue" d="M318.38,-89C326.734,-89 335.219,-89 343.523,-89"/>
<polygon fill="midnightblue" stroke="midnightblue" points="318.278,-85.5001 308.278,-89 318.278,-92.5001 318.278,-85.5001"/>
</g>
<!-- Node4 -->
<g id="node4" class="node"><title>Node4</title>
<g id="a_node4"><a xlink:href="classrc_timeline.html#a7eee350d60e6b09f19e2701c109c7f56" target="_top" xlink:title="rcTimeline::paintEvent">
<polygon fill="white" stroke="black" points="726.718,-121 726.718,-141 841.282,-141 841.282,-121 726.718,-121"/>
<text text-anchor="middle" x="784" y="-127" font-family="Helvetica,sans-Serif" font-size="10.00">rcTimeline::paintEvent</text>
</a>
</g>
</g>
<!-- Node3&#45;&gt;Node4 -->
<g id="edge3" class="edge"><title>Node3&#45;&gt;Node4</title>
<path fill="none" stroke="midnightblue" d="M673.611,-131C691.212,-131 709.771,-131 726.503,-131"/>
<polygon fill="midnightblue" stroke="midnightblue" points="673.379,-127.5 663.379,-131 673.379,-134.5 673.379,-127.5"/>
</g>
<!-- Node5&#45;&gt;Node3 -->
<g id="edge7" class="edge"><title>Node5&#45;&gt;Node3</title>
<path fill="none" stroke="midnightblue" d="M497.027,-107.338C517.201,-112.019 538.149,-116.88 555.771,-120.969"/>
<polygon fill="midnightblue" stroke="midnightblue" points="497.735,-103.909 487.203,-105.058 496.153,-110.728 497.735,-103.909"/>
</g>
<!-- Node6 -->
<g id="node6" class="node"><title>Node6</title>
<g id="a_node6"><a xlink:href="classrc_timeline.html#a82ab1ac96dab1bfd044d01d83b333e24" target="_top" xlink:title="rcTimeline::mouseMoveEvent">
<polygon fill="white" stroke="black" points="526.326,-79 526.326,-99 673.674,-99 673.674,-79 526.326,-79"/>
<text text-anchor="middle" x="600" y="-85" font-family="Helvetica,sans-Serif" font-size="10.00">rcTimeline::mouseMoveEvent</text>
</a>
</g>
</g>
<!-- Node5&#45;&gt;Node6 -->
<g id="edge5" class="edge"><title>Node5&#45;&gt;Node6</title>
<path fill="none" stroke="midnightblue" d="M500.37,-89C508.988,-89 517.706,-89 526.208,-89"/>
<polygon fill="midnightblue" stroke="midnightblue" points="500.316,-85.5001 490.316,-89 500.316,-92.5001 500.316,-85.5001"/>
</g>
<!-- Node7 -->
<g id="node7" class="node"><title>Node7</title>
<g id="a_node7"><a xlink:href="classrc_timeline.html#a8a5755070cda22ee7307093bb95f5824" target="_top" xlink:title="rcTimeline::mousePressEvent">
<polygon fill="white" stroke="black" points="709.772,-79 709.772,-99 858.228,-99 858.228,-79 709.772,-79"/>
<text text-anchor="middle" x="784" y="-85" font-family="Helvetica,sans-Serif" font-size="10.00">rcTimeline::mousePressEvent</text>
</a>
</g>
</g>
<!-- Node6&#45;&gt;Node7 -->
<g id="edge6" class="edge"><title>Node6&#45;&gt;Node7</title>
<path fill="none" stroke="midnightblue" d="M683.74,-89C692.334,-89 701.026,-89 709.508,-89"/>
<polygon fill="midnightblue" stroke="midnightblue" points="683.716,-85.5001 673.716,-89 683.716,-92.5001 683.716,-85.5001"/>
</g>
<!-- Node9 -->
<g id="node9" class="node"><title>Node9</title>
<g id="a_node9"><a xlink:href="classrc_native_exporter.html#a75a5374634d85e7bc85f7ae501563e0d" target="_top" xlink:title="rcNativeExporter::export\lExperiment">
<polygon fill="white" stroke="black" points="355.091,-22 355.091,-54 478.909,-54 478.909,-22 355.091,-22"/>
<text text-anchor="start" x="363.091" y="-40" font-family="Helvetica,sans-Serif" font-size="10.00">rcNativeExporter::export</text>
<text text-anchor="middle" x="417" y="-28" font-family="Helvetica,sans-Serif" font-size="10.00">Experiment</text>
</a>
</g>
</g>
<!-- Node8&#45;&gt;Node9 -->
<g id="edge9" class="edge"><title>Node8&#45;&gt;Node9</title>
<path fill="none" stroke="midnightblue" d="M317.658,-38C330.122,-38 342.902,-38 354.95,-38"/>
<polygon fill="midnightblue" stroke="midnightblue" points="317.286,-34.5001 307.286,-38 317.286,-41.5001 317.286,-34.5001"/>
</g>
<!-- Node10 -->
<g id="node10" class="node"><title>Node10</title>
<g id="a_node10"><a xlink:href="classrc_experiment_impl.html#a375595b76e0c9f303a7135e096391b9a" target="_top" xlink:title="rcExperimentImpl::saveTo">
<polygon fill="white" stroke="black" points="534.48,-28 534.48,-48 665.52,-48 665.52,-28 534.48,-28"/>
<text text-anchor="middle" x="600" y="-34" font-family="Helvetica,sans-Serif" font-size="10.00">rcExperimentImpl::saveTo</text>
</a>
</g>
</g>
<!-- Node9&#45;&gt;Node10 -->
<g id="edge10" class="edge"><title>Node9&#45;&gt;Node10</title>
<path fill="none" stroke="midnightblue" d="M489.171,-38C504.024,-38 519.606,-38 534.212,-38"/>
<polygon fill="midnightblue" stroke="midnightblue" points="489.026,-34.5001 479.026,-38 489.026,-41.5001 489.026,-34.5001"/>
</g>
<!-- Node11 -->
<g id="node11" class="node"><title>Node11</title>
<g id="a_node11"><a xlink:href="classrc_experiment_domain_impl.html#a8db39db2ae092474f985b4c2997d5b72" target="_top" xlink:title="rcExperimentDomainImpl\l::saveExperiment">
<polygon fill="white" stroke="black" points="719.872,-22 719.872,-54 848.128,-54 848.128,-22 719.872,-22"/>
<text text-anchor="start" x="727.872" y="-40" font-family="Helvetica,sans-Serif" font-size="10.00">rcExperimentDomainImpl</text>
<text text-anchor="middle" x="784" y="-28" font-family="Helvetica,sans-Serif" font-size="10.00">::saveExperiment</text>
</a>
</g>
</g>
<!-- Node10&#45;&gt;Node11 -->
<g id="edge11" class="edge"><title>Node10&#45;&gt;Node11</title>
<path fill="none" stroke="midnightblue" d="M675.696,-38C690.327,-38 705.539,-38 719.752,-38"/>
<polygon fill="midnightblue" stroke="midnightblue" points="675.679,-34.5001 665.679,-38 675.679,-41.5001 675.679,-34.5001"/>
</g>
<!-- Node12 -->
<g id="node12" class="node"><title>Node12</title>
<g id="a_node12"><a xlink:href="rc__main_8cpp.html#a3c04138a5bfe5d72780bb7e82a18e627" target="_top" xlink:title="main">
<polygon fill="white" stroke="black" points="939.163,-51 939.163,-71 976.837,-71 976.837,-51 939.163,-51"/>
<text text-anchor="middle" x="958" y="-57" font-family="Helvetica,sans-Serif" font-size="10.00">main</text>
</a>
</g>
</g>
<!-- Node11&#45;&gt;Node12 -->
<g id="edge12" class="edge"><title>Node11&#45;&gt;Node12</title>
<path fill="none" stroke="midnightblue" d="M858.533,-47.8329C888.238,-51.805 919.97,-56.0483 939.147,-58.6126"/>
<polygon fill="midnightblue" stroke="midnightblue" points="858.933,-44.3554 848.558,-46.499 858.006,-51.2936 858.933,-44.3554"/>
</g>
<!-- Node13 -->
<g id="node13" class="node"><title>Node13</title>
<g id="a_node13"><a xlink:href="classrc_experiment_domain_impl.html#a29b2a73f82318c9faec49f9a1178f90b" target="_top" xlink:title="rcExperimentDomainImpl\l::notifyRequestSave">
<polygon fill="white" stroke="black" points="893.872,-0 893.872,-32 1022.13,-32 1022.13,-0 893.872,-0"/>
<text text-anchor="start" x="901.872" y="-18" font-family="Helvetica,sans-Serif" font-size="10.00">rcExperimentDomainImpl</text>
<text text-anchor="middle" x="958" y="-6" font-family="Helvetica,sans-Serif" font-size="10.00">::notifyRequestSave</text>
</a>
</g>
</g>
<!-- Node11&#45;&gt;Node13 -->
<g id="edge13" class="edge"><title>Node11&#45;&gt;Node13</title>
<path fill="none" stroke="midnightblue" d="M858.698,-28.5735C870.352,-27.0829 882.314,-25.5529 893.703,-24.0961"/>
<polygon fill="midnightblue" stroke="midnightblue" points="858.033,-25.13 848.558,-29.8705 858.921,-32.0734 858.033,-25.13"/>
</g>
</g>
</svg>
        <g id="navigator" transform="translate(0 0)" fill="#404254">
                <rect fill="#f2f5e9" fill-opacity="0.5" stroke="#606060" stroke-width=".5" x="0" y="0" width="60" height="60"/>
                <use id="zoomplus" xlink:href="#zoomPlus" x="17" y="9" onmousedown="handleZoom(evt,'in')"/>
                <use id="zoomminus" xlink:href="#zoomMin" x="42" y="9" onmousedown="handleZoom(evt,'out')"/>
                <use id="reset" xlink:href="#resetDef" x="30" y="36" onmousedown="handleReset()"/>
                <g id="arrowUp" xlink:href="#dirArrow" transform="translate(30 24)" onmousedown="handlePan(0,-1)">
                  <use xlink:href="#rim" fill="#404040">
                        <set attributeName="fill" to="#808080" begin="arrowUp.mouseover" end="arrowUp.mouseout"/>
                  </use>
                  <path fill="none" stroke="white" stroke-width="1.5" d="M0,-3.0v7 M-2.5,-0.5L0,-3.0L2.5,-0.5"/>
                </g>
                <g id="arrowRight" xlink:href="#dirArrow" transform="rotate(90) translate(36 -43)" onmousedown="handlePan(1,0)">
                  <use xlink:href="#rim" fill="#404040">
                        <set attributeName="fill" to="#808080" begin="arrowRight.mouseover" end="arrowRight.mouseout"/>
                  </use>
                  <path fill="none" stroke="white" stroke-width="1.5" d="M0,-3.0v7 M-2.5,-0.5L0,-3.0L2.5,-0.5"/>
                </g>
                <g id="arrowDown" xlink:href="#dirArrow" transform="rotate(180) translate(-30 -48)" onmousedown="handlePan(0,1)">
                  <use xlink:href="#rim" fill="#404040">
                        <set attributeName="fill" to="#808080" begin="arrowDown.mouseover" end="arrowDown.mouseout"/>
                  </use>
                  <path fill="none" stroke="white" stroke-width="1.5" d="M0,-3.0v7 M-2.5,-0.5L0,-3.0L2.5,-0.5"/>
                </g>
                <g id="arrowLeft" xlink:href="#dirArrow" transform="rotate(270) translate(-36 17)" onmousedown="handlePan(-1,0)">
                  <use xlink:href="#rim" fill="#404040">
                        <set attributeName="fill" to="#808080" begin="arrowLeft.mouseover" end="arrowLeft.mouseout"/>
                  </use>
                  <path fill="none" stroke="white" stroke-width="1.5" d="M0,-3.0v7 M-2.5,-0.5L0,-3.0L2.5,-0.5"/>
                </g>
        </g>
        <svg viewBox="0 0 15 15" width="100%" height="30px" preserveAspectRatio="xMaxYMin meet">
         <g id="arrow_out" transform="scale(0.3 0.3)">
          <a xlink:href="classrc_scalar_track_a09b777dc0a45460104b25eed920123bc_icgraph_org.svg" target="_base">
           <rect id="button" ry="5" rx="5" y="6" x="6" height="38" width="38"
                fill="#f2f5e9" fill-opacity="0.5" stroke="#606060" stroke-width="1.0"/>
           <path id="arrow"
             d="M 11.500037,31.436501 C 11.940474,20.09759 22.043105,11.32322 32.158766,21.979434 L 37.068811,17.246167 C 37.068811,17.246167 37.088388,32 37.088388,32 L 22.160133,31.978069 C 22.160133,31.978069 26.997745,27.140456 26.997745,27.140456 C 18.528582,18.264221 13.291696,25.230495 11.500037,31.436501 z"
             style="fill:#404040;"/>
          </a>
         </g>
        </svg>
</svg>
