<?xml version="1.0" encoding="UTF-8" standalone="no"?>
<!DOCTYPE svg PUBLIC "-//W3C//DTD SVG 1.1//EN"
 "http://www.w3.org/Graphics/SVG/1.1/DTD/svg11.dtd">
<!-- Generated by graphviz version 2.32.0 (20130916.1925)
 -->
<!-- Title: rcFrameGrabber::getNextFrame Pages: 1 -->
<svg width="1024pt" height="160pt"
 viewBox="0.00 0.00 1024.00 160.00" xmlns="http://www.w3.org/2000/svg" xmlns:xlink="http://www.w3.org/1999/xlink">
<g id="graph0" class="graph" transform="scale(1 1) rotate(0) translate(4 156)">
<title>rcFrameGrabber::getNextFrame</title>
<polygon fill="white" stroke="white" points="-4,5 -4,-156 1021,-156 1021,5 -4,5"/>
<!-- Node1 -->
<g id="node1" class="node"><title>Node1</title>
<polygon fill="#bfbfbf" stroke="black" points="0.591309,-81 0.591309,-101 159.409,-101 159.409,-81 0.591309,-81"/>
<text text-anchor="middle" x="80" y="-87" font-family="Helvetica,sans-Serif" font-size="10.00">rcFrameGrabber::getNextFrame</text>
</g>
<!-- Node2 -->
<g id="node2" class="node"><title>Node2</title>
<g id="a_node2"><a xlink:href="classrc_movie_converter_to_rfy.html#a1f6585e73ba83d9905188dc3d8e2b69e" target="_top" xlink:title="rcMovieConverterToRfy\l::createRfyMovie">
<polygon fill="white" stroke="black" points="202.764,-120 202.764,-152 323.236,-152 323.236,-120 202.764,-120"/>
<text text-anchor="start" x="210.764" y="-138" font-family="Helvetica,sans-Serif" font-size="10.00">rcMovieConverterToRfy</text>
<text text-anchor="middle" x="263" y="-126" font-family="Helvetica,sans-Serif" font-size="10.00">::createRfyMovie</text>
</a>
</g>
</g>
<!-- Node1&#45;&gt;Node2 -->
<g id="edge1" class="edge"><title>Node1&#45;&gt;Node2</title>
<path fill="none" stroke="midnightblue" d="M131.461,-103.546C153.545,-109.036 179.612,-115.517 202.623,-121.238"/>
<polygon fill="midnightblue" stroke="midnightblue" points="132.169,-100.115 121.62,-101.099 130.48,-106.908 132.169,-100.115"/>
</g>
<!-- Node3 -->
<g id="node3" class="node"><title>Node3</title>
<g id="a_node3"><a xlink:href="classrc_analyzer.html#a8a3d5b38714ea9edc5cc5b5ee98b38a0" target="_top" xlink:title="rcAnalyzer::getNextResult">
<polygon fill="white" stroke="black" points="197.2,-81 197.2,-101 328.8,-101 328.8,-81 197.2,-81"/>
<text text-anchor="middle" x="263" y="-87" font-family="Helvetica,sans-Serif" font-size="10.00">rcAnalyzer::getNextResult</text>
</a>
</g>
</g>
<!-- Node1&#45;&gt;Node3 -->
<g id="edge2" class="edge"><title>Node1&#45;&gt;Node3</title>
<path fill="none" stroke="midnightblue" d="M169.606,-91C178.854,-91 188.128,-91 197.042,-91"/>
<polygon fill="midnightblue" stroke="midnightblue" points="169.6,-87.5001 159.6,-91 169.6,-94.5001 169.6,-87.5001"/>
</g>
<!-- Node9 -->
<g id="node9" class="node"><title>Node9</title>
<g id="a_node9"><a xlink:href="classrc_engine_impl.html#a3f1d54d99e195efe0eec45f9263e6342" target="_top" xlink:title="rcEngineImpl::loadFrames">
<polygon fill="white" stroke="black" points="196.643,-39 196.643,-59 329.357,-59 329.357,-39 196.643,-39"/>
<text text-anchor="middle" x="263" y="-45" font-family="Helvetica,sans-Serif" font-size="10.00">rcEngineImpl::loadFrames</text>
</a>
</g>
</g>
<!-- Node1&#45;&gt;Node9 -->
<g id="edge8" class="edge"><title>Node1&#45;&gt;Node9</title>
<path fill="none" stroke="midnightblue" d="M134.366,-78.6167C161.231,-72.3829 193.377,-64.9237 218.686,-59.0507"/>
<polygon fill="midnightblue" stroke="midnightblue" points="133.304,-75.2701 124.354,-80.94 134.886,-82.0889 133.304,-75.2701"/>
</g>
<!-- Node4 -->
<g id="node4" class="node"><title>Node4</title>
<g id="a_node4"><a xlink:href="classrc_engine_impl.html#a1ec71befab88914b35b700cd5fe03ba2" target="_top" xlink:title="rcEngineImpl::entropyTracker\lWindow">
<polygon fill="white" stroke="black" points="366.602,-78 366.602,-110 513.398,-110 513.398,-78 366.602,-78"/>
<text text-anchor="start" x="374.602" y="-96" font-family="Helvetica,sans-Serif" font-size="10.00">rcEngineImpl::entropyTracker</text>
<text text-anchor="middle" x="440" y="-84" font-family="Helvetica,sans-Serif" font-size="10.00">Window</text>
</a>
</g>
</g>
<!-- Node3&#45;&gt;Node4 -->
<g id="edge3" class="edge"><title>Node3&#45;&gt;Node4</title>
<path fill="none" stroke="midnightblue" d="M339.245,-92.2899C348.26,-92.4445 357.451,-92.602 366.427,-92.7559"/>
<polygon fill="midnightblue" stroke="midnightblue" points="339.222,-88.7891 329.164,-92.1171 339.102,-95.7881 339.222,-88.7891"/>
</g>
<!-- Node5 -->
<g id="node5" class="node"><title>Node5</title>
<g id="a_node5"><a xlink:href="classrc_engine_impl.html#a3ad6dbc54b2a53acae4d345ff14974ae" target="_top" xlink:title="rcEngineImpl::analyzeFocusArea">
<polygon fill="white" stroke="black" points="550.631,-84 550.631,-104 713.369,-104 713.369,-84 550.631,-84"/>
<text text-anchor="middle" x="632" y="-90" font-family="Helvetica,sans-Serif" font-size="10.00">rcEngineImpl::analyzeFocusArea</text>
</a>
</g>
</g>
<!-- Node4&#45;&gt;Node5 -->
<g id="edge4" class="edge"><title>Node4&#45;&gt;Node5</title>
<path fill="none" stroke="midnightblue" d="M523.911,-94C532.729,-94 541.687,-94 550.476,-94"/>
<polygon fill="midnightblue" stroke="midnightblue" points="523.644,-90.5001 513.644,-94 523.644,-97.5001 523.644,-90.5001"/>
</g>
<!-- Node6 -->
<g id="node6" class="node"><title>Node6</title>
<g id="a_node6"><a xlink:href="classrc_engine_impl.html#ae320706cbcafd64f219018b9842c8290" target="_top" xlink:title="rcEngineImpl::analyze">
<polygon fill="white" stroke="black" points="749.808,-84 749.808,-104 864.192,-104 864.192,-84 749.808,-84"/>
<text text-anchor="middle" x="807" y="-90" font-family="Helvetica,sans-Serif" font-size="10.00">rcEngineImpl::analyze</text>
</a>
</g>
</g>
<!-- Node5&#45;&gt;Node6 -->
<g id="edge5" class="edge"><title>Node5&#45;&gt;Node6</title>
<path fill="none" stroke="midnightblue" d="M723.5,-94C732.423,-94 741.288,-94 749.716,-94"/>
<polygon fill="midnightblue" stroke="midnightblue" points="723.422,-90.5001 713.422,-94 723.422,-97.5001 723.422,-90.5001"/>
</g>
<!-- Node7 -->
<g id="node7" class="node"><title>Node7</title>
<g id="a_node7"><a xlink:href="classrc_engine_impl.html#a507e034c1e43ae1dd6ec95a11ec0bb02" target="_top" xlink:title="rcEngineImpl::process">
<polygon fill="white" stroke="black" points="900.535,-104 900.535,-124 1015.47,-124 1015.47,-104 900.535,-104"/>
<text text-anchor="middle" x="958" y="-110" font-family="Helvetica,sans-Serif" font-size="10.00">rcEngineImpl::process</text>
</a>
</g>
</g>
<!-- Node6&#45;&gt;Node7 -->
<g id="edge6" class="edge"><title>Node6&#45;&gt;Node7</title>
<path fill="none" stroke="midnightblue" d="M874.328,-102.903C882.925,-104.057 891.669,-105.231 900.095,-106.362"/>
<polygon fill="midnightblue" stroke="midnightblue" points="874.707,-99.4227 864.331,-101.561 873.776,-106.36 874.707,-99.4227"/>
</g>
<!-- Node8 -->
<g id="node8" class="node"><title>Node8</title>
<g id="a_node8"><a xlink:href="classrc_engine_analyzer.html#a064037f0ec3e68fcb11dabbcba790cdd" target="_top" xlink:title="rcEngineAnalyzer::run">
<polygon fill="white" stroke="black" points="900.808,-65 900.808,-85 1015.19,-85 1015.19,-65 900.808,-65"/>
<text text-anchor="middle" x="958" y="-71" font-family="Helvetica,sans-Serif" font-size="10.00">rcEngineAnalyzer::run</text>
</a>
</g>
</g>
<!-- Node6&#45;&gt;Node8 -->
<g id="edge7" class="edge"><title>Node6&#45;&gt;Node8</title>
<path fill="none" stroke="midnightblue" d="M874.47,-85.524C883.19,-84.412 892.058,-83.2812 900.59,-82.1932"/>
<polygon fill="midnightblue" stroke="midnightblue" points="873.807,-82.08 864.331,-86.8169 874.693,-89.0238 873.807,-82.08"/>
</g>
<!-- Node10 -->
<g id="node10" class="node"><title>Node10</title>
<g id="a_node10"><a xlink:href="classrc_engine_impl.html#ac6c444948228b9a6c9c013efefd7452c" target="_top" xlink:title="rcEngineImpl::loadImages">
<polygon fill="white" stroke="black" points="374.192,-39 374.192,-59 505.808,-59 505.808,-39 374.192,-39"/>
<text text-anchor="middle" x="440" y="-45" font-family="Helvetica,sans-Serif" font-size="10.00">rcEngineImpl::loadImages</text>
</a>
</g>
</g>
<!-- Node9&#45;&gt;Node10 -->
<g id="edge9" class="edge"><title>Node9&#45;&gt;Node10</title>
<path fill="none" stroke="midnightblue" d="M339.662,-49C351.145,-49 362.907,-49 374.134,-49"/>
<polygon fill="midnightblue" stroke="midnightblue" points="339.661,-45.5001 329.661,-49 339.661,-52.5001 339.661,-45.5001"/>
</g>
<!-- Node12 -->
<g id="node12" class="node"><title>Node12</title>
<g id="a_node12"><a xlink:href="classrc_engine_impl.html#ac0162da8fe4f677ad6f3d04a465d50f0" target="_top" xlink:title="rcEngineImpl::loadMovie">
<polygon fill="white" stroke="black" points="377.251,-0 377.251,-20 502.749,-20 502.749,-0 377.251,-0"/>
<text text-anchor="middle" x="440" y="-6" font-family="Helvetica,sans-Serif" font-size="10.00">rcEngineImpl::loadMovie</text>
</a>
</g>
</g>
<!-- Node9&#45;&gt;Node12 -->
<g id="edge11" class="edge"><title>Node9&#45;&gt;Node12</title>
<path fill="none" stroke="midnightblue" d="M318.828,-36.7812C343.038,-31.3858 371.145,-25.1221 394.086,-20.0094"/>
<polygon fill="midnightblue" stroke="midnightblue" points="318.066,-33.365 309.067,-38.9565 319.589,-40.1974 318.066,-33.365"/>
</g>
<!-- Node11 -->
<g id="node11" class="node"><title>Node11</title>
<g id="a_node11"><a xlink:href="classrc_engine_importer.html#a2e45417f1c29adf01483b2b8fca6b27b" target="_top" xlink:title="rcEngineImporter::run">
<polygon fill="white" stroke="black" points="575.646,-39 575.646,-59 688.354,-59 688.354,-39 575.646,-39"/>
<text text-anchor="middle" x="632" y="-45" font-family="Helvetica,sans-Serif" font-size="10.00">rcEngineImporter::run</text>
</a>
</g>
</g>
<!-- Node10&#45;&gt;Node11 -->
<g id="edge10" class="edge"><title>Node10&#45;&gt;Node11</title>
<path fill="none" stroke="midnightblue" d="M516.106,-49C535.957,-49 557.022,-49 575.618,-49"/>
<polygon fill="midnightblue" stroke="midnightblue" points="515.856,-45.5001 505.856,-49 515.856,-52.5001 515.856,-45.5001"/>
</g>
</g>
</svg>
