<?xml version="1.0" encoding="UTF-8" standalone="no"?>
<!DOCTYPE svg PUBLIC "-//W3C//DTD SVG 1.1//EN"
 "http://www.w3.org/Graphics/SVG/1.1/DTD/svg11.dtd">
<!-- Generated by graphviz version 2.32.0 (20130916.1925)
 -->
<!-- Title: rcTrackManager::rcTrackManager Pages: 1 -->
<svg width="890pt" height="313pt"
 viewBox="0.00 0.00 890.00 313.00" xmlns="http://www.w3.org/2000/svg" xmlns:xlink="http://www.w3.org/1999/xlink">
<g id="graph0" class="graph" transform="scale(1 1) rotate(0) translate(4 309)">
<title>rcTrackManager::rcTrackManager</title>
<polygon fill="white" stroke="white" points="-4,5 -4,-309 887,-309 887,5 -4,5"/>
<!-- Node1 -->
<g id="node1" class="node"><title>Node1</title>
<polygon fill="#bfbfbf" stroke="black" points="-0.209961,-167 -0.209961,-187 166.21,-187 166.21,-167 -0.209961,-167"/>
<text text-anchor="middle" x="83" y="-173" font-family="Helvetica,sans-Serif" font-size="10.00">rcTrackManager::rcTrackManager</text>
</g>
<!-- Node2 -->
<g id="node2" class="node"><title>Node2</title>
<g id="a_node2"><a xlink:href="classrc_track_manager.html#ab9cc09f62f0e5d3696ba71b211a8a9bb" target="_top" xlink:title="rcTrackManager::addTracks">
<polygon fill="white" stroke="black" points="391.847,-148 391.847,-168 532.153,-168 532.153,-148 391.847,-148"/>
<text text-anchor="middle" x="462" y="-154" font-family="Helvetica,sans-Serif" font-size="10.00">rcTrackManager::addTracks</text>
</a>
</g>
</g>
<!-- Node1&#45;&gt;Node2 -->
<g id="edge1" class="edge"><title>Node1&#45;&gt;Node2</title>
<path fill="none" stroke="midnightblue" d="M166.3,-180.819C220.337,-182.387 292.505,-182.698 356,-177 372.195,-175.547 389.628,-172.856 405.546,-169.948"/>
<polygon fill="midnightblue" stroke="midnightblue" points="406.585,-173.314 415.76,-168.016 405.284,-166.436 406.585,-173.314"/>
</g>
<!-- Node3 -->
<g id="node3" class="node"><title>Node3</title>
<g id="a_node3"><a xlink:href="classrc_model_domain.html#a8fafb31fce65382de4c9d4c35b72eb3d" target="_top" xlink:title="rcModelDomain::getModelDomain">
<polygon fill="white" stroke="black" points="568.412,-285 568.412,-305 735.588,-305 735.588,-285 568.412,-285"/>
<text text-anchor="middle" x="652" y="-291" font-family="Helvetica,sans-Serif" font-size="10.00">rcModelDomain::getModelDomain</text>
</a>
</g>
</g>
<!-- Node1&#45;&gt;Node3 -->
<g id="edge12" class="edge"><title>Node1&#45;&gt;Node3</title>
<path fill="none" stroke="midnightblue" d="M132.342,-187.061C236.221,-208.679 480.39,-259.494 592.66,-282.859"/>
<polygon fill="midnightblue" stroke="midnightblue" points="592.277,-286.354 602.78,-284.965 593.703,-279.501 592.277,-286.354"/>
</g>
<!-- Node13 -->
<g id="node13" class="node"><title>Node13</title>
<g id="a_node13"><a xlink:href="classrc_track_manager.html#af45056899c236216768d0b4f49d3ec78" target="_top" xlink:title="rcTrackManager::rebuildTracks">
<polygon fill="white" stroke="black" points="202.179,-148 202.179,-168 355.821,-168 355.821,-148 202.179,-148"/>
<text text-anchor="middle" x="279" y="-154" font-family="Helvetica,sans-Serif" font-size="10.00">rcTrackManager::rebuildTracks</text>
</a>
</g>
</g>
<!-- Node1&#45;&gt;Node13 -->
<g id="edge13" class="edge"><title>Node1&#45;&gt;Node13</title>
<path fill="none" stroke="midnightblue" d="M166.273,-168.942C174.809,-168.106 183.501,-167.255 192.076,-166.415"/>
<polygon fill="midnightblue" stroke="midnightblue" points="192.461,-169.894 202.072,-165.436 191.778,-162.928 192.461,-169.894"/>
</g>
<!-- Node15 -->
<g id="node15" class="node"><title>Node15</title>
<g id="a_node15"><a xlink:href="classrc_track_manager.html#a0a261c9ca8130bf39df34463f2893af3" target="_top" xlink:title="rcTrackManager::updateState">
<polygon fill="white" stroke="black" points="205.038,-109 205.038,-129 352.962,-129 352.962,-109 205.038,-109"/>
<text text-anchor="middle" x="279" y="-115" font-family="Helvetica,sans-Serif" font-size="10.00">rcTrackManager::updateState</text>
</a>
</g>
</g>
<!-- Node1&#45;&gt;Node15 -->
<g id="edge17" class="edge"><title>Node1&#45;&gt;Node15</title>
<path fill="none" stroke="midnightblue" d="M112.428,-166.946C136.215,-158.692 171.122,-146.949 202,-138 209.532,-135.817 217.526,-133.654 225.392,-131.612"/>
<polygon fill="midnightblue" stroke="midnightblue" points="226.419,-134.962 235.243,-129.098 224.688,-128.179 226.419,-134.962"/>
</g>
<!-- Node2&#45;&gt;Node3 -->
<g id="edge2" class="edge"><title>Node2&#45;&gt;Node3</title>
<path fill="none" stroke="midnightblue" d="M469.146,-168.332C483.405,-191.353 521.123,-247.033 568,-275 572.081,-277.435 576.442,-279.574 580.948,-281.452"/>
<polygon fill="midnightblue" stroke="midnightblue" points="579.767,-284.747 590.36,-284.954 582.208,-278.186 579.767,-284.747"/>
</g>
<!-- Node4 -->
<g id="node4" class="node"><title>Node4</title>
<g id="a_node4"><a xlink:href="classrc_model_domain.html#a37b48b12a046a3849e0aa2c2e0eb121f" target="_top" xlink:title="rcModelDomain::getExperiment">
<polygon fill="white" stroke="black" points="573.971,-246 573.971,-266 730.029,-266 730.029,-246 573.971,-246"/>
<text text-anchor="middle" x="652" y="-252" font-family="Helvetica,sans-Serif" font-size="10.00">rcModelDomain::getExperiment</text>
</a>
</g>
</g>
<!-- Node2&#45;&gt;Node4 -->
<g id="edge3" class="edge"><title>Node2&#45;&gt;Node4</title>
<path fill="none" stroke="midnightblue" d="M473.389,-168.022C491.24,-184.678 529.538,-218.001 568,-236 573.638,-238.639 579.661,-240.95 585.79,-242.97"/>
<polygon fill="midnightblue" stroke="midnightblue" points="584.882,-246.352 595.468,-245.91 586.917,-239.654 584.882,-246.352"/>
</g>
<!-- Node6 -->
<g id="node6" class="node"><title>Node6</title>
<g id="a_node6"><a xlink:href="classrc_experiment.html#a27452fbb8c0c37cce05d39052d3f0f5b" target="_top" xlink:title="rcExperiment::getNTrackGroups">
<polygon fill="white" stroke="black" points="572.494,-207 572.494,-227 731.506,-227 731.506,-207 572.494,-207"/>
<text text-anchor="middle" x="652" y="-213" font-family="Helvetica,sans-Serif" font-size="10.00">rcExperiment::getNTrackGroups</text>
</a>
</g>
</g>
<!-- Node2&#45;&gt;Node6 -->
<g id="edge5" class="edge"><title>Node2&#45;&gt;Node6</title>
<path fill="none" stroke="midnightblue" d="M487.748,-168.145C508.846,-176.563 540.1,-188.49 568,-197 576.746,-199.668 586.096,-202.211 595.252,-204.535"/>
<polygon fill="midnightblue" stroke="midnightblue" points="594.524,-207.96 605.072,-206.966 596.206,-201.165 594.524,-207.96"/>
</g>
<!-- Node7 -->
<g id="node7" class="node"><title>Node7</title>
<g id="a_node7"><a xlink:href="classrc_experiment.html#af8f42371548d6281b00f7fd3e753fbd6" target="_top" xlink:title="rcExperiment::getTrackGroup">
<polygon fill="white" stroke="black" points="578.604,-168 578.604,-188 725.396,-188 725.396,-168 578.604,-168"/>
<text text-anchor="middle" x="652" y="-174" font-family="Helvetica,sans-Serif" font-size="10.00">rcExperiment::getTrackGroup</text>
</a>
</g>
</g>
<!-- Node2&#45;&gt;Node7 -->
<g id="edge6" class="edge"><title>Node2&#45;&gt;Node7</title>
<path fill="none" stroke="midnightblue" d="M532.203,-165.362C543.982,-166.615 556.32,-167.928 568.402,-169.213"/>
<polygon fill="midnightblue" stroke="midnightblue" points="568.16,-172.707 578.474,-170.284 568.9,-165.746 568.16,-172.707"/>
</g>
<!-- Node8 -->
<g id="node8" class="node"><title>Node8</title>
<g id="a_node8"><a xlink:href="classrc_track_group.html#aeaac0b69fb2dd8810c1b5a5d5179319d" target="_top" xlink:title="rcTrackGroup::getNTracks">
<polygon fill="white" stroke="black" points="585.465,-129 585.465,-149 718.535,-149 718.535,-129 585.465,-129"/>
<text text-anchor="middle" x="652" y="-135" font-family="Helvetica,sans-Serif" font-size="10.00">rcTrackGroup::getNTracks</text>
</a>
</g>
</g>
<!-- Node2&#45;&gt;Node8 -->
<g id="edge7" class="edge"><title>Node2&#45;&gt;Node8</title>
<path fill="none" stroke="midnightblue" d="M532.203,-151.006C546.189,-149.593 560.962,-148.1 575.162,-146.665"/>
<polygon fill="midnightblue" stroke="midnightblue" points="575.782,-150.12 585.38,-145.632 575.078,-143.155 575.782,-150.12"/>
</g>
<!-- Node9 -->
<g id="node9" class="node"><title>Node9</title>
<g id="a_node9"><a xlink:href="classrc_track_group.html#af6717118313f9c7a40d241addf84e434" target="_top" xlink:title="rcTrackGroup::getTrack">
<polygon fill="white" stroke="black" points="591.576,-90 591.576,-110 712.424,-110 712.424,-90 591.576,-90"/>
<text text-anchor="middle" x="652" y="-96" font-family="Helvetica,sans-Serif" font-size="10.00">rcTrackGroup::getTrack</text>
</a>
</g>
</g>
<!-- Node2&#45;&gt;Node9 -->
<g id="edge8" class="edge"><title>Node2&#45;&gt;Node9</title>
<path fill="none" stroke="midnightblue" d="M502.878,-147.937C512.541,-145.091 522.748,-141.737 532,-138 548.775,-131.224 551.038,-125.294 568,-119 574.332,-116.65 581.047,-114.534 587.808,-112.643"/>
<polygon fill="midnightblue" stroke="midnightblue" points="588.928,-115.967 597.705,-110.032 587.143,-109.199 588.928,-115.967"/>
</g>
<!-- Node10 -->
<g id="node10" class="node"><title>Node10</title>
<g id="a_node10"><a xlink:href="classrc_track.html#aa92c4dfed7e9cdfe07f52769061086be" target="_top" xlink:title="rcTrack::getTrackType">
<polygon fill="white" stroke="black" points="594.63,-51 594.63,-71 709.37,-71 709.37,-51 594.63,-51"/>
<text text-anchor="middle" x="652" y="-57" font-family="Helvetica,sans-Serif" font-size="10.00">rcTrack::getTrackType</text>
</a>
</g>
</g>
<!-- Node2&#45;&gt;Node10 -->
<g id="edge9" class="edge"><title>Node2&#45;&gt;Node10</title>
<path fill="none" stroke="midnightblue" d="M514.06,-147.895C520.46,-145.311 526.633,-142.069 532,-138 556.177,-119.67 543.31,-97.6326 568,-80 573.131,-76.3353 578.857,-73.3644 584.837,-70.9578"/>
<polygon fill="midnightblue" stroke="midnightblue" points="586.106,-74.2221 594.393,-67.6218 583.798,-67.6131 586.106,-74.2221"/>
</g>
<!-- Node11 -->
<g id="node11" class="node"><title>Node11</title>
<g id="a_node11"><a xlink:href="classrc_track_manager.html#aa0c1e63cee83d32f29d07597b5d624ce" target="_top" xlink:title="rcTrackManager::setTrack\lColor">
<polygon fill="white" stroke="black" points="586.019,-0 586.019,-32 717.981,-32 717.981,-0 586.019,-0"/>
<text text-anchor="start" x="594.019" y="-18" font-family="Helvetica,sans-Serif" font-size="10.00">rcTrackManager::setTrack</text>
<text text-anchor="middle" x="652" y="-6" font-family="Helvetica,sans-Serif" font-size="10.00">Color</text>
</a>
</g>
</g>
<!-- Node2&#45;&gt;Node11 -->
<g id="edge10" class="edge"><title>Node2&#45;&gt;Node11</title>
<path fill="none" stroke="midnightblue" d="M516.947,-147.917C522.448,-145.326 527.615,-142.075 532,-138 565.685,-106.697 534.479,-72.4788 568,-41 570.739,-38.4277 573.734,-36.1194 576.907,-34.048"/>
<polygon fill="midnightblue" stroke="midnightblue" points="578.687,-37.0627 585.675,-29.0997 575.246,-30.9665 578.687,-37.0627"/>
</g>
<!-- Node5 -->
<g id="node5" class="node"><title>Node5</title>
<g id="a_node5"><a xlink:href="classrc_experiment_domain.html#a07b0276398b8c4d8748702565156f287" target="_top" xlink:title="rcExperimentDomain\l::getExperiment">
<polygon fill="white" stroke="black" points="772.318,-240 772.318,-272 881.682,-272 881.682,-240 772.318,-240"/>
<text text-anchor="start" x="780.318" y="-258" font-family="Helvetica,sans-Serif" font-size="10.00">rcExperimentDomain</text>
<text text-anchor="middle" x="827" y="-246" font-family="Helvetica,sans-Serif" font-size="10.00">::getExperiment</text>
</a>
</g>
</g>
<!-- Node4&#45;&gt;Node5 -->
<g id="edge4" class="edge"><title>Node4&#45;&gt;Node5</title>
<path fill="none" stroke="midnightblue" d="M730.14,-256C740.817,-256 751.687,-256 762.088,-256"/>
<polygon fill="midnightblue" stroke="midnightblue" points="762.309,-259.5 772.309,-256 762.309,-252.5 762.309,-259.5"/>
</g>
<!-- Node12 -->
<g id="node12" class="node"><title>Node12</title>
<g id="a_node12"><a xlink:href="classrc_track.html#aae992301108c97ad554fcdce2bdf034d" target="_top" xlink:title="rcTrack::getName">
<polygon fill="white" stroke="black" points="779.452,-6 779.452,-26 874.548,-26 874.548,-6 779.452,-6"/>
<text text-anchor="middle" x="827" y="-12" font-family="Helvetica,sans-Serif" font-size="10.00">rcTrack::getName</text>
</a>
</g>
</g>
<!-- Node11&#45;&gt;Node12 -->
<g id="edge11" class="edge"><title>Node11&#45;&gt;Node12</title>
<path fill="none" stroke="midnightblue" d="M718.404,-16C735.044,-16 752.793,-16 768.979,-16"/>
<polygon fill="midnightblue" stroke="midnightblue" points="769.362,-19.5001 779.362,-16 769.362,-12.5001 769.362,-19.5001"/>
</g>
<!-- Node13&#45;&gt;Node2 -->
<g id="edge14" class="edge"><title>Node13&#45;&gt;Node2</title>
<path fill="none" stroke="midnightblue" d="M355.974,-158C364.365,-158 372.927,-158 381.361,-158"/>
<polygon fill="midnightblue" stroke="midnightblue" points="381.566,-161.5 391.566,-158 381.566,-154.5 381.566,-161.5"/>
</g>
<!-- Node14 -->
<g id="node14" class="node"><title>Node14</title>
<g id="a_node14"><a xlink:href="classrc_track_manager.html#ad779d330e1435ca507aef134c83c282e" target="_top" xlink:title="rcTrackManager::setColors">
<polygon fill="white" stroke="black" points="393.888,-109 393.888,-129 530.112,-129 530.112,-109 393.888,-109"/>
<text text-anchor="middle" x="462" y="-115" font-family="Helvetica,sans-Serif" font-size="10.00">rcTrackManager::setColors</text>
</a>
</g>
</g>
<!-- Node13&#45;&gt;Node14 -->
<g id="edge15" class="edge"><title>Node13&#45;&gt;Node14</title>
<path fill="none" stroke="midnightblue" d="M326.612,-147.957C350.364,-142.839 379.437,-136.574 404.459,-131.183"/>
<polygon fill="midnightblue" stroke="midnightblue" points="405.508,-134.537 414.546,-129.009 404.033,-127.694 405.508,-134.537"/>
</g>
<!-- Node14&#45;&gt;Node11 -->
<g id="edge16" class="edge"><title>Node14&#45;&gt;Node11</title>
<path fill="none" stroke="midnightblue" d="M473.794,-108.948C491.933,-92.549 530.261,-59.9683 568,-41 571.706,-39.1372 575.576,-37.3858 579.532,-35.7433"/>
<polygon fill="midnightblue" stroke="midnightblue" points="580.83,-38.9939 588.882,-32.1073 578.293,-32.4698 580.83,-38.9939"/>
</g>
<!-- Node15&#45;&gt;Node2 -->
<g id="edge18" class="edge"><title>Node15&#45;&gt;Node2</title>
<path fill="none" stroke="midnightblue" d="M326.612,-129.043C350.364,-134.161 379.437,-140.426 404.459,-145.817"/>
<polygon fill="midnightblue" stroke="midnightblue" points="404.033,-149.306 414.546,-147.991 405.508,-142.463 404.033,-149.306"/>
</g>
<!-- Node15&#45;&gt;Node14 -->
<g id="edge19" class="edge"><title>Node15&#45;&gt;Node14</title>
<path fill="none" stroke="midnightblue" d="M353.098,-119C363.179,-119 373.56,-119 383.713,-119"/>
<polygon fill="midnightblue" stroke="midnightblue" points="383.772,-122.5 393.772,-119 383.772,-115.5 383.772,-122.5"/>
</g>
</g>
</svg>
