<?xml version="1.0" encoding="UTF-8" standalone="no"?>
<!DOCTYPE svg PUBLIC "-//W3C//DTD SVG 1.1//EN"
 "http://www.w3.org/Graphics/SVG/1.1/DTD/svg11.dtd">
<!-- Generated by graphviz version 2.32.0 (20130916.1925)
 -->
<!-- Title: error_handler_base::pop_context Pages: 1 -->
<svg width="422pt" height="40pt"
 viewBox="0.00 0.00 422.00 40.00" xmlns="http://www.w3.org/2000/svg" xmlns:xlink="http://www.w3.org/1999/xlink">
<g id="graph0" class="graph" transform="scale(1 1) rotate(0) translate(4 36)">
<title>error_handler_base::pop_context</title>
<polygon fill="white" stroke="white" points="-4,5 -4,-36 419,-36 419,5 -4,5"/>
<!-- Node1 -->
<g id="node1" class="node"><title>Node1</title>
<polygon fill="#bfbfbf" stroke="black" points="0.359863,-0 0.359863,-32 103.64,-32 103.64,-0 0.359863,-0"/>
<text text-anchor="start" x="8.35986" y="-18" font-family="Helvetica,sans-Serif" font-size="10.00">error_handler_base</text>
<text text-anchor="middle" x="52" y="-6" font-family="Helvetica,sans-Serif" font-size="10.00">::pop_context</text>
</g>
<!-- Node2 -->
<g id="node2" class="node"><title>Node2</title>
<g id="a_node2"><a xlink:href="classerror__context__body.html#a9183a12bc929597bbeb075790b73475d" target="_top" xlink:title="error_context_body::pop">
<polygon fill="white" stroke="black" points="139.798,-6 139.798,-26 264.202,-26 264.202,-6 139.798,-6"/>
<text text-anchor="middle" x="202" y="-12" font-family="Helvetica,sans-Serif" font-size="10.00">error_context_body::pop</text>
</a>
</g>
</g>
<!-- Node1&#45;&gt;Node2 -->
<g id="edge1" class="edge"><title>Node1&#45;&gt;Node2</title>
<path fill="none" stroke="midnightblue" d="M114.117,-16C122.586,-16 131.287,-16 139.758,-16"/>
<polygon fill="midnightblue" stroke="midnightblue" points="113.933,-12.5001 103.933,-16 113.933,-19.5001 113.933,-12.5001"/>
</g>
<!-- Node3 -->
<g id="node3" class="node"><title>Node3</title>
<g id="a_node3"><a xlink:href="classerror__context__body.html#af942cf79f5c5e92c191b4897d4f56fdc" target="_top" xlink:title="error_context_body\l::~error_context_body">
<polygon fill="white" stroke="black" points="300.221,-0 300.221,-32 413.779,-32 413.779,-0 300.221,-0"/>
<text text-anchor="start" x="308.221" y="-18" font-family="Helvetica,sans-Serif" font-size="10.00">error_context_body</text>
<text text-anchor="middle" x="357" y="-6" font-family="Helvetica,sans-Serif" font-size="10.00">::~error_context_body</text>
</a>
</g>
</g>
<!-- Node2&#45;&gt;Node3 -->
<g id="edge2" class="edge"><title>Node2&#45;&gt;Node3</title>
<path fill="none" stroke="midnightblue" d="M274.403,-16C283.023,-16 291.73,-16 300.084,-16"/>
<polygon fill="midnightblue" stroke="midnightblue" points="274.349,-12.5001 264.349,-16 274.349,-19.5001 274.349,-12.5001"/>
</g>
</g>
</svg>
