<?xml version="1.0" encoding="UTF-8" standalone="no"?>
<!DOCTYPE svg PUBLIC "-//W3C//DTD SVG 1.1//EN"
 "http://www.w3.org/Graphics/SVG/1.1/DTD/svg11.dtd">
<!-- Generated by graphviz version 2.32.0 (20130916.1925)
 -->
<!-- Title: rcRectSettingWidget::settingChanged Pages: 1 -->
<!--zoomable 286 -->
<svg id="main" version="1.1" xmlns="http://www.w3.org/2000/svg" xmlns:xlink="http://www.w3.org/1999/xlink" xml:space="preserve" onload="init(evt)">
        <defs>
                <circle id="rim" cx="0" cy="0" r="7"/>
                <circle id="rim2" cx="0" cy="0" r="3.5"/>
                <g id="zoomPlus">
                        <use xlink:href="#rim" fill="#404040">
                                <set attributeName="fill" to="#808080" begin="zoomplus.mouseover" end="zoomplus.mouseout"/>
                        </use>
                        <path d="M-4,0h8M0,-4v8" fill="none" stroke="white" stroke-width="1.5" pointer-events="none"/>
                </g>
                <g id="zoomMin">
                        <use xlink:href="#rim" fill="#404040">
                                <set attributeName="fill" to="#808080" begin="zoomminus.mouseover" end="zoomminus.mouseout"/>
                        </use>
                        <path d="M-4,0h8" fill="none" stroke="white" stroke-width="1.5" pointer-events="none"/>
                </g>
                <g id="dirArrow">
                        <path fill="none" stroke="white" stroke-width="1.5" d="M0,-3.0v7 M-2.5,-0.5L0,-3.0L2.5,-0.5"/>
                </g>
               <g id="resetDef">
                       <use xlink:href="#rim2" fill="#404040">
                               <set attributeName="fill" to="#808080" begin="reset.mouseover" end="reset.mouseout"/>
                       </use>
               </g>
        </defs>

<script type="text/javascript">
var viewWidth = 674;
var viewHeight = 286;
var sectionId = 'dynsection-7';
</script>
<script xlink:href="svgpan.js"/>
<svg id="graph" class="graph">
<g id="viewport">
<title>rcRectSettingWidget::settingChanged</title>
<polygon fill="white" stroke="white" points="-4,5 -4,-282 671,-282 671,5 -4,5"/>
<!-- Node1 -->
<g id="node1" class="node"><title>Node1</title>
<polygon fill="#bfbfbf" stroke="black" points="0.42627,-117 0.42627,-149 107.574,-149 107.574,-117 0.42627,-117"/>
<text text-anchor="start" x="8.42627" y="-135" font-family="Helvetica,sans-Serif" font-size="10.00">rcRectSettingWidget</text>
<text text-anchor="middle" x="54" y="-123" font-family="Helvetica,sans-Serif" font-size="10.00">::settingChanged</text>
</g>
<!-- Node2 -->
<g id="node2" class="node"><title>Node2</title>
<g id="a_node2"><a xlink:href="classrc_setting_info.html#a97d3386417e33e46df6f361ccfb430a5" target="_top" xlink:title="rcSettingInfo::getValue">
<polygon fill="white" stroke="black" points="162.78,-258 162.78,-278 279.22,-278 279.22,-258 162.78,-258"/>
<text text-anchor="middle" x="221" y="-264" font-family="Helvetica,sans-Serif" font-size="10.00">rcSettingInfo::getValue</text>
</a>
</g>
</g>
<!-- Node1&#45;&gt;Node2 -->
<g id="edge1" class="edge"><title>Node1&#45;&gt;Node2</title>
<path fill="none" stroke="midnightblue" d="M62.9682,-149.088C76.2343,-174.168 105.265,-222.359 144,-248 147.36,-250.224 150.956,-252.201 154.689,-253.959"/>
<polygon fill="midnightblue" stroke="midnightblue" points="153.615,-257.302 164.193,-257.89 156.291,-250.834 153.615,-257.302"/>
</g>
<!-- Node3 -->
<g id="node3" class="node"><title>Node3</title>
<g id="a_node3"><a xlink:href="classrc_rectangle.html#abe44205fccdffe80fbfdd4de79b406dc" target="_top" xlink:title="rcRectangle::height">
<polygon fill="white" stroke="black" points="169.919,-219 169.919,-239 272.081,-239 272.081,-219 169.919,-219"/>
<text text-anchor="middle" x="221" y="-225" font-family="Helvetica,sans-Serif" font-size="10.00">rcRectangle::height</text>
</a>
</g>
</g>
<!-- Node1&#45;&gt;Node3 -->
<g id="edge2" class="edge"><title>Node1&#45;&gt;Node3</title>
<path fill="none" stroke="midnightblue" d="M69.4821,-149.091C85.9091,-166.378 114.295,-193.458 144,-209 149.111,-211.674 154.607,-214.011 160.222,-216.048"/>
<polygon fill="midnightblue" stroke="midnightblue" points="159.141,-219.377 169.735,-219.201 161.344,-212.733 159.141,-219.377"/>
</g>
<!-- Node4 -->
<g id="node4" class="node"><title>Node4</title>
<g id="a_node4"><a xlink:href="classrc_rect_setting_widget.html#a7134fb58e1d8da291090ef4dab349a30" target="_top" xlink:title="rcRectSettingWidget\l::setMaxValues">
<polygon fill="white" stroke="black" points="167.426,-168 167.426,-200 274.574,-200 274.574,-168 167.426,-168"/>
<text text-anchor="start" x="175.426" y="-186" font-family="Helvetica,sans-Serif" font-size="10.00">rcRectSettingWidget</text>
<text text-anchor="middle" x="221" y="-174" font-family="Helvetica,sans-Serif" font-size="10.00">::setMaxValues</text>
</a>
</g>
</g>
<!-- Node1&#45;&gt;Node4 -->
<g id="edge3" class="edge"><title>Node1&#45;&gt;Node4</title>
<path fill="none" stroke="midnightblue" d="M107.207,-149.137C123.465,-154.162 141.546,-159.751 158.385,-164.955"/>
<polygon fill="midnightblue" stroke="midnightblue" points="157.545,-168.359 168.133,-167.968 159.612,-161.671 157.545,-168.359"/>
</g>
<!-- Node8 -->
<g id="node8" class="node"><title>Node8</title>
<g id="a_node8"><a xlink:href="classrc_setting_widget.html#aca95d3b856ab397c63567ae71dba446b" target="_top" xlink:title="Update widget visibility/editability state based on setting state.">
<polygon fill="white" stroke="black" points="144.074,-117 144.074,-149 297.926,-149 297.926,-117 144.074,-117"/>
<text text-anchor="start" x="152.074" y="-135" font-family="Helvetica,sans-Serif" font-size="10.00">rcSettingWidget::updateWidget</text>
<text text-anchor="middle" x="221" y="-123" font-family="Helvetica,sans-Serif" font-size="10.00">State</text>
</a>
</g>
</g>
<!-- Node1&#45;&gt;Node8 -->
<g id="edge7" class="edge"><title>Node1&#45;&gt;Node8</title>
<path fill="none" stroke="midnightblue" d="M107.661,-133C116.021,-133 124.853,-133 133.744,-133"/>
<polygon fill="midnightblue" stroke="midnightblue" points="133.784,-136.5 143.784,-133 133.784,-129.5 133.784,-136.5"/>
</g>
<!-- Node11 -->
<g id="node11" class="node"><title>Node11</title>
<g id="a_node11"><a xlink:href="classrc_rectangle.html#a37c8043dcda3dc1076e57c4a1c219263" target="_top" xlink:title="rcRectangle::width">
<polygon fill="white" stroke="black" points="171.87,-78 171.87,-98 270.13,-98 270.13,-78 171.87,-78"/>
<text text-anchor="middle" x="221" y="-84" font-family="Helvetica,sans-Serif" font-size="10.00">rcRectangle::width</text>
</a>
</g>
</g>
<!-- Node1&#45;&gt;Node11 -->
<g id="edge10" class="edge"><title>Node1&#45;&gt;Node11</title>
<path fill="none" stroke="midnightblue" d="M107.612,-117.259C119.551,-113.791 132.192,-110.199 144,-107 151.933,-104.851 160.355,-102.657 168.594,-100.56"/>
<polygon fill="midnightblue" stroke="midnightblue" points="169.667,-103.899 178.508,-98.0601 167.955,-97.112 169.667,-103.899"/>
</g>
<!-- Node12 -->
<g id="node12" class="node"><title>Node12</title>
<g id="a_node12"><a xlink:href="classrc_rect.html#ac0f95519a41dcf7e33bec85ccb8e7aff" target="_top" xlink:title="rcRect::x">
<polygon fill="white" stroke="black" points="193.276,-39 193.276,-59 248.724,-59 248.724,-39 193.276,-39"/>
<text text-anchor="middle" x="221" y="-45" font-family="Helvetica,sans-Serif" font-size="10.00">rcRect::x</text>
</a>
</g>
</g>
<!-- Node1&#45;&gt;Node12 -->
<g id="edge11" class="edge"><title>Node1&#45;&gt;Node12</title>
<path fill="none" stroke="midnightblue" d="M72.7571,-116.788C89.8322,-102.025 116.968,-80.6565 144,-68 156.246,-62.2663 170.443,-58.1205 183.229,-55.1939"/>
<polygon fill="midnightblue" stroke="midnightblue" points="184.057,-58.5961 193.116,-53.1012 182.608,-51.7479 184.057,-58.5961"/>
</g>
<!-- Node14 -->
<g id="node14" class="node"><title>Node14</title>
<g id="a_node14"><a xlink:href="classrc_rect.html#a50236160751c949d8718f8d4d17f7923" target="_top" xlink:title="rcRect::y">
<polygon fill="white" stroke="black" points="193.276,-0 193.276,-20 248.724,-20 248.724,-0 193.276,-0"/>
<text text-anchor="middle" x="221" y="-6" font-family="Helvetica,sans-Serif" font-size="10.00">rcRect::y</text>
</a>
</g>
</g>
<!-- Node1&#45;&gt;Node14 -->
<g id="edge13" class="edge"><title>Node1&#45;&gt;Node14</title>
<path fill="none" stroke="midnightblue" d="M64.256,-116.894C78.4,-93.7772 107.621,-51.5031 144,-29 155.682,-21.7737 169.976,-17.2919 183.003,-14.5139"/>
<polygon fill="midnightblue" stroke="midnightblue" points="183.914,-17.9043 193.104,-12.6314 182.632,-11.0228 183.914,-17.9043"/>
</g>
<!-- Node5 -->
<g id="node5" class="node"><title>Node5</title>
<g id="a_node5"><a xlink:href="classrc_model_domain.html#aa43d293533bcf88d4fff6846aa52d1d3" target="_top" xlink:title="rcModelDomain::getExperiment\lAttributes">
<polygon fill="white" stroke="black" points="339.971,-210 339.971,-242 496.029,-242 496.029,-210 339.971,-210"/>
<text text-anchor="start" x="347.971" y="-228" font-family="Helvetica,sans-Serif" font-size="10.00">rcModelDomain::getExperiment</text>
<text text-anchor="middle" x="418" y="-216" font-family="Helvetica,sans-Serif" font-size="10.00">Attributes</text>
</a>
</g>
</g>
<!-- Node4&#45;&gt;Node5 -->
<g id="edge4" class="edge"><title>Node4&#45;&gt;Node5</title>
<path fill="none" stroke="midnightblue" d="M274.77,-195.366C292.621,-199.211 313.025,-203.605 332.7,-207.843"/>
<polygon fill="midnightblue" stroke="midnightblue" points="332.08,-211.29 342.593,-209.974 333.554,-204.447 332.08,-211.29"/>
</g>
<!-- Node7 -->
<g id="node7" class="node"><title>Node7</title>
<g id="a_node7"><a xlink:href="classrc_model_domain.html#a8fafb31fce65382de4c9d4c35b72eb3d" target="_top" xlink:title="rcModelDomain::getModelDomain">
<polygon fill="white" stroke="black" points="334.412,-171 334.412,-191 501.588,-191 501.588,-171 334.412,-171"/>
<text text-anchor="middle" x="418" y="-177" font-family="Helvetica,sans-Serif" font-size="10.00">rcModelDomain::getModelDomain</text>
</a>
</g>
</g>
<!-- Node4&#45;&gt;Node7 -->
<g id="edge6" class="edge"><title>Node4&#45;&gt;Node7</title>
<path fill="none" stroke="midnightblue" d="M274.77,-183.188C289.902,-182.955 306.869,-182.694 323.67,-182.436"/>
<polygon fill="midnightblue" stroke="midnightblue" points="324.148,-185.929 334.093,-182.275 324.04,-178.93 324.148,-185.929"/>
</g>
<!-- Node6 -->
<g id="node6" class="node"><title>Node6</title>
<g id="a_node6"><a xlink:href="classrc_experiment_domain.html#a6abeb9bb031e7bf26116f5cb914e2a56" target="_top" xlink:title="rcExperimentDomain\l::getExperimentAttributes">
<polygon fill="white" stroke="black" points="537.862,-210 537.862,-242 666.138,-242 666.138,-210 537.862,-210"/>
<text text-anchor="start" x="545.862" y="-228" font-family="Helvetica,sans-Serif" font-size="10.00">rcExperimentDomain</text>
<text text-anchor="middle" x="602" y="-216" font-family="Helvetica,sans-Serif" font-size="10.00">::getExperimentAttributes</text>
</a>
</g>
</g>
<!-- Node5&#45;&gt;Node6 -->
<g id="edge5" class="edge"><title>Node5&#45;&gt;Node6</title>
<path fill="none" stroke="midnightblue" d="M496.184,-226C506.575,-226 517.212,-226 527.536,-226"/>
<polygon fill="midnightblue" stroke="midnightblue" points="527.734,-229.5 537.734,-226 527.734,-222.5 527.734,-229.5"/>
</g>
<!-- Node9 -->
<g id="node9" class="node"><title>Node9</title>
<g id="a_node9"><a xlink:href="classrc_setting_info.html#a776ac0e50f5e8d632e6cb2c4099d6c59" target="_top" xlink:title="rcSettingInfo::isEditable">
<polygon fill="white" stroke="black" points="357.471,-126 357.471,-146 478.529,-146 478.529,-126 357.471,-126"/>
<text text-anchor="middle" x="418" y="-132" font-family="Helvetica,sans-Serif" font-size="10.00">rcSettingInfo::isEditable</text>
</a>
</g>
</g>
<!-- Node8&#45;&gt;Node9 -->
<g id="edge8" class="edge"><title>Node8&#45;&gt;Node9</title>
<path fill="none" stroke="midnightblue" d="M297.95,-134.168C314.092,-134.417 331.062,-134.678 346.97,-134.923"/>
<polygon fill="midnightblue" stroke="midnightblue" points="347.199,-138.426 357.251,-135.081 347.306,-131.427 347.199,-138.426"/>
</g>
<!-- Node10 -->
<g id="node10" class="node"><title>Node10</title>
<g id="a_node10"><a xlink:href="classrc_setting_info.html#a2663e0e877560ec8a958fb92184c1c63" target="_top" xlink:title="rcSettingInfo::isEnabled">
<polygon fill="white" stroke="black" points="357.19,-87 357.19,-107 478.81,-107 478.81,-87 357.19,-87"/>
<text text-anchor="middle" x="418" y="-93" font-family="Helvetica,sans-Serif" font-size="10.00">rcSettingInfo::isEnabled</text>
</a>
</g>
</g>
<!-- Node8&#45;&gt;Node10 -->
<g id="edge9" class="edge"><title>Node8&#45;&gt;Node10</title>
<path fill="none" stroke="midnightblue" d="M297.95,-118.978C316.008,-115.645 335.104,-112.119 352.589,-108.891"/>
<polygon fill="midnightblue" stroke="midnightblue" points="353.479,-112.286 362.678,-107.029 352.208,-105.402 353.479,-112.286"/>
</g>
<!-- Node13 -->
<g id="node13" class="node"><title>Node13</title>
<g id="a_node13"><a xlink:href="classrc_pair.html#ad1a3cb1e7fdbe119ce1295514b1bb49d" target="_top" xlink:title="rcPair::x">
<polygon fill="white" stroke="black" points="391.665,-39 391.665,-59 444.335,-59 444.335,-39 391.665,-39"/>
<text text-anchor="middle" x="418" y="-45" font-family="Helvetica,sans-Serif" font-size="10.00">rcPair::x</text>
</a>
</g>
</g>
<!-- Node12&#45;&gt;Node13 -->
<g id="edge12" class="edge"><title>Node12&#45;&gt;Node13</title>
<path fill="none" stroke="midnightblue" d="M249.114,-49C283.646,-49 343.401,-49 381.523,-49"/>
<polygon fill="midnightblue" stroke="midnightblue" points="381.663,-52.5001 391.663,-49 381.663,-45.5001 381.663,-52.5001"/>
</g>
<!-- Node15 -->
<g id="node15" class="node"><title>Node15</title>
<g id="a_node15"><a xlink:href="classrc_pair.html#a87400f83938e920c405c40aa449d3607" target="_top" xlink:title="rcPair::y">
<polygon fill="white" stroke="black" points="391.665,-0 391.665,-20 444.335,-20 444.335,-0 391.665,-0"/>
<text text-anchor="middle" x="418" y="-6" font-family="Helvetica,sans-Serif" font-size="10.00">rcPair::y</text>
</a>
</g>
</g>
<!-- Node14&#45;&gt;Node15 -->
<g id="edge14" class="edge"><title>Node14&#45;&gt;Node15</title>
<path fill="none" stroke="midnightblue" d="M249.114,-10C283.646,-10 343.401,-10 381.523,-10"/>
<polygon fill="midnightblue" stroke="midnightblue" points="381.663,-13.5001 391.663,-10 381.663,-6.5001 381.663,-13.5001"/>
</g>
</g>
</svg>
        <g id="navigator" transform="translate(0 0)" fill="#404254">
                <rect fill="#f2f5e9" fill-opacity="0.5" stroke="#606060" stroke-width=".5" x="0" y="0" width="60" height="60"/>
                <use id="zoomplus" xlink:href="#zoomPlus" x="17" y="9" onmousedown="handleZoom(evt,'in')"/>
                <use id="zoomminus" xlink:href="#zoomMin" x="42" y="9" onmousedown="handleZoom(evt,'out')"/>
                <use id="reset" xlink:href="#resetDef" x="30" y="36" onmousedown="handleReset()"/>
                <g id="arrowUp" xlink:href="#dirArrow" transform="translate(30 24)" onmousedown="handlePan(0,-1)">
                  <use xlink:href="#rim" fill="#404040">
                        <set attributeName="fill" to="#808080" begin="arrowUp.mouseover" end="arrowUp.mouseout"/>
                  </use>
                  <path fill="none" stroke="white" stroke-width="1.5" d="M0,-3.0v7 M-2.5,-0.5L0,-3.0L2.5,-0.5"/>
                </g>
                <g id="arrowRight" xlink:href="#dirArrow" transform="rotate(90) translate(36 -43)" onmousedown="handlePan(1,0)">
                  <use xlink:href="#rim" fill="#404040">
                        <set attributeName="fill" to="#808080" begin="arrowRight.mouseover" end="arrowRight.mouseout"/>
                  </use>
                  <path fill="none" stroke="white" stroke-width="1.5" d="M0,-3.0v7 M-2.5,-0.5L0,-3.0L2.5,-0.5"/>
                </g>
                <g id="arrowDown" xlink:href="#dirArrow" transform="rotate(180) translate(-30 -48)" onmousedown="handlePan(0,1)">
                  <use xlink:href="#rim" fill="#404040">
                        <set attributeName="fill" to="#808080" begin="arrowDown.mouseover" end="arrowDown.mouseout"/>
                  </use>
                  <path fill="none" stroke="white" stroke-width="1.5" d="M0,-3.0v7 M-2.5,-0.5L0,-3.0L2.5,-0.5"/>
                </g>
                <g id="arrowLeft" xlink:href="#dirArrow" transform="rotate(270) translate(-36 17)" onmousedown="handlePan(-1,0)">
                  <use xlink:href="#rim" fill="#404040">
                        <set attributeName="fill" to="#808080" begin="arrowLeft.mouseover" end="arrowLeft.mouseout"/>
                  </use>
                  <path fill="none" stroke="white" stroke-width="1.5" d="M0,-3.0v7 M-2.5,-0.5L0,-3.0L2.5,-0.5"/>
                </g>
        </g>
        <svg viewBox="0 0 15 15" width="100%" height="30px" preserveAspectRatio="xMaxYMin meet">
         <g id="arrow_out" transform="scale(0.3 0.3)">
          <a xlink:href="classrc_rect_setting_widget_ac907368cef37ec028ea700b7690d9c91_cgraph_org.svg" target="_base">
           <rect id="button" ry="5" rx="5" y="6" x="6" height="38" width="38"
                fill="#f2f5e9" fill-opacity="0.5" stroke="#606060" stroke-width="1.0"/>
           <path id="arrow"
             d="M 11.500037,31.436501 C 11.940474,20.09759 22.043105,11.32322 32.158766,21.979434 L 37.068811,17.246167 C 37.068811,17.246167 37.088388,32 37.088388,32 L 22.160133,31.978069 C 22.160133,31.978069 26.997745,27.140456 26.997745,27.140456 C 18.528582,18.264221 13.291696,25.230495 11.500037,31.436501 z"
             style="fill:#404040;"/>
          </a>
         </g>
        </svg>
</svg>
