<?xml version="1.0" encoding="UTF-8" standalone="no"?>
<!DOCTYPE svg PUBLIC "-//W3C//DTD SVG 1.1//EN"
 "http://www.w3.org/Graphics/SVG/1.1/DTD/svg11.dtd">
<!-- Generated by graphviz version 2.32.0 (20130916.1925)
 -->
<!-- Title: rcThread::start Pages: 1 -->
<svg width="894pt" height="571pt"
 viewBox="0.00 0.00 894.00 571.00" xmlns="http://www.w3.org/2000/svg" xmlns:xlink="http://www.w3.org/1999/xlink">
<g id="graph0" class="graph" transform="scale(1 1) rotate(0) translate(4 567)">
<title>rcThread::start</title>
<polygon fill="white" stroke="white" points="-4,5 -4,-567 891,-567 891,5 -4,5"/>
<!-- Node1 -->
<g id="node1" class="node"><title>Node1</title>
<polygon fill="#bfbfbf" stroke="black" points="0.490234,-169 0.490234,-189 81.5098,-189 81.5098,-169 0.490234,-169"/>
<text text-anchor="middle" x="41" y="-175" font-family="Helvetica,sans-Serif" font-size="10.00">rcThread::start</text>
</g>
<!-- Node2 -->
<g id="node2" class="node"><title>Node2</title>
<g id="a_node2"><a xlink:href="classrc_engine_impl.html#a507e034c1e43ae1dd6ec95a11ec0bb02" target="_top" xlink:title="rcEngineImpl::process">
<polygon fill="white" stroke="black" points="518.535,-207 518.535,-227 633.465,-227 633.465,-207 518.535,-207"/>
<text text-anchor="middle" x="576" y="-213" font-family="Helvetica,sans-Serif" font-size="10.00">rcEngineImpl::process</text>
</a>
</g>
</g>
<!-- Node1&#45;&gt;Node2 -->
<g id="edge1" class="edge"><title>Node1&#45;&gt;Node2</title>
<path fill="none" stroke="midnightblue" d="M85.5786,-191.507C96.1109,-194.081 107.391,-196.47 118,-198 261.043,-218.634 431.679,-219.533 518.376,-218.328"/>
<polygon fill="midnightblue" stroke="midnightblue" points="86.3106,-188.082 75.756,-189.005 84.5825,-194.865 86.3106,-188.082"/>
</g>
<!-- Node3 -->
<g id="node3" class="node"><title>Node3</title>
<g id="a_node3"><a xlink:href="classrc_video_cache.html#a6bda52136b3558bb73ddb4c9ff3c302d" target="_top" xlink:title="rcVideoCache::rcVideoCache">
<polygon fill="white" stroke="black" points="118.585,-305 118.585,-325 265.415,-325 265.415,-305 118.585,-305"/>
<text text-anchor="middle" x="192" y="-311" font-family="Helvetica,sans-Serif" font-size="10.00">rcVideoCache::rcVideoCache</text>
</a>
</g>
</g>
<!-- Node1&#45;&gt;Node3 -->
<g id="edge2" class="edge"><title>Node1&#45;&gt;Node3</title>
<path fill="none" stroke="midnightblue" d="M60.8248,-196.182C92.1869,-224.808 154.198,-281.409 179.671,-304.659"/>
<polygon fill="midnightblue" stroke="midnightblue" points="62.9447,-193.379 53.1992,-189.222 58.2256,-198.549 62.9447,-193.379"/>
</g>
<!-- Node18 -->
<g id="node18" class="node"><title>Node18</title>
<g id="a_node18"><a xlink:href="classrc_engine_impl.html#afe1f4a208e8b56aae9527dab0cd888e0" target="_top" xlink:title="rcEngineImpl::reset">
<polygon fill="white" stroke="black" points="140.926,-169 140.926,-189 243.074,-189 243.074,-169 140.926,-169"/>
<text text-anchor="middle" x="192" y="-175" font-family="Helvetica,sans-Serif" font-size="10.00">rcEngineImpl::reset</text>
</a>
</g>
</g>
<!-- Node1&#45;&gt;Node18 -->
<g id="edge22" class="edge"><title>Node1&#45;&gt;Node18</title>
<path fill="none" stroke="midnightblue" d="M91.6576,-179C107.48,-179 124.991,-179 140.848,-179"/>
<polygon fill="midnightblue" stroke="midnightblue" points="91.5381,-175.5 81.5381,-179 91.538,-182.5 91.5381,-175.5"/>
</g>
<!-- Node19 -->
<g id="node19" class="node"><title>Node19</title>
<g id="a_node19"><a xlink:href="classrc_engine_impl.html#af86b1890184a272b1b0eeb055c251e39" target="_top" xlink:title="rcEngineImpl::setSetting\lValue">
<polygon fill="white" stroke="black" points="129.806,-118 129.806,-150 254.194,-150 254.194,-118 129.806,-118"/>
<text text-anchor="start" x="137.806" y="-136" font-family="Helvetica,sans-Serif" font-size="10.00">rcEngineImpl::setSetting</text>
<text text-anchor="middle" x="192" y="-124" font-family="Helvetica,sans-Serif" font-size="10.00">Value</text>
</a>
</g>
</g>
<!-- Node1&#45;&gt;Node19 -->
<g id="edge23" class="edge"><title>Node1&#45;&gt;Node19</title>
<path fill="none" stroke="midnightblue" d="M85.2982,-165.923C101.704,-160.969 120.573,-155.27 137.788,-150.071"/>
<polygon fill="midnightblue" stroke="midnightblue" points="83.9995,-162.659 75.4385,-168.901 86.0234,-169.36 83.9995,-162.659"/>
</g>
<!-- Node32 -->
<g id="node32" class="node"><title>Node32</title>
<g id="a_node32"><a xlink:href="classrc_engine_movie_capture.html#a10672d7a2c7b923890dbbad9d464bfa0" target="_top" xlink:title="rcEngineMovieCapture\l::startSaveThread">
<polygon fill="white" stroke="black" points="133.141,-43 133.141,-75 250.859,-75 250.859,-43 133.141,-43"/>
<text text-anchor="start" x="141.141" y="-61" font-family="Helvetica,sans-Serif" font-size="10.00">rcEngineMovieCapture</text>
<text text-anchor="middle" x="192" y="-49" font-family="Helvetica,sans-Serif" font-size="10.00">::startSaveThread</text>
</a>
</g>
</g>
<!-- Node1&#45;&gt;Node32 -->
<g id="edge38" class="edge"><title>Node1&#45;&gt;Node32</title>
<path fill="none" stroke="midnightblue" d="M58.922,-161.695C73.8721,-146.779 96.5689,-125.023 118,-108 132.94,-96.1325 150.695,-84.1719 164.954,-75.0385"/>
<polygon fill="midnightblue" stroke="midnightblue" points="56.4196,-159.248 51.8578,-168.81 61.3872,-164.18 56.4196,-159.248"/>
</g>
<!-- Node4 -->
<g id="node4" class="node"><title>Node4</title>
<g id="a_node4"><a xlink:href="classrc_video_cache.html#acd275c05db2e1ab17a378817d410d058" target="_top" xlink:title="rcVideoCache::rcVideoCacheCtor">
<polygon fill="white" stroke="black" points="302.139,-385 302.139,-405 467.861,-405 467.861,-385 302.139,-385"/>
<text text-anchor="middle" x="385" y="-391" font-family="Helvetica,sans-Serif" font-size="10.00">rcVideoCache::rcVideoCacheCtor</text>
</a>
</g>
</g>
<!-- Node3&#45;&gt;Node4 -->
<g id="edge3" class="edge"><title>Node3&#45;&gt;Node4</title>
<path fill="none" stroke="midnightblue" d="M226.856,-329.18C265.104,-345.201 326.388,-370.869 360.006,-384.95"/>
<polygon fill="midnightblue" stroke="midnightblue" points="227.766,-325.767 217.19,-325.132 225.062,-332.224 227.766,-325.767"/>
</g>
<!-- Node17 -->
<g id="node17" class="node"><title>Node17</title>
<g id="a_node17"><a xlink:href="classrc_video_cache.html#a985702ceb8af5f143e6648d2fb0cecd7" target="_top" xlink:title="rcVideoCache::rcVideoCache\lUTCtor">
<polygon fill="white" stroke="black" points="311.585,-299 311.585,-331 458.415,-331 458.415,-299 311.585,-299"/>
<text text-anchor="start" x="319.585" y="-317" font-family="Helvetica,sans-Serif" font-size="10.00">rcVideoCache::rcVideoCache</text>
<text text-anchor="middle" x="385" y="-305" font-family="Helvetica,sans-Serif" font-size="10.00">UTCtor</text>
</a>
</g>
</g>
<!-- Node3&#45;&gt;Node17 -->
<g id="edge21" class="edge"><title>Node3&#45;&gt;Node17</title>
<path fill="none" stroke="midnightblue" d="M275.485,-315C287.492,-315 299.78,-315 311.568,-315"/>
<polygon fill="midnightblue" stroke="midnightblue" points="275.481,-311.5 265.481,-315 275.481,-318.5 275.481,-311.5"/>
</g>
<!-- Node5 -->
<g id="node5" class="node"><title>Node5</title>
<g id="a_node5"><a xlink:href="batch__main_8cpp.html#a3c04138a5bfe5d72780bb7e82a18e627" target="_top" xlink:title="main">
<polygon fill="white" stroke="black" points="557.163,-543 557.163,-563 594.837,-563 594.837,-543 557.163,-543"/>
<text text-anchor="middle" x="576" y="-549" font-family="Helvetica,sans-Serif" font-size="10.00">main</text>
</a>
</g>
</g>
<!-- Node4&#45;&gt;Node5 -->
<g id="edge4" class="edge"><title>Node4&#45;&gt;Node5</title>
<path fill="none" stroke="midnightblue" d="M398.07,-413.878C417.236,-442.431 457.277,-496.593 504,-528 520.268,-538.936 541.848,-545.639 556.93,-549.316"/>
<polygon fill="midnightblue" stroke="midnightblue" points="400.812,-411.677 392.392,-405.246 394.964,-415.524 400.812,-411.677"/>
</g>
<!-- Node6 -->
<g id="node6" class="node"><title>Node6</title>
<g id="a_node6"><a xlink:href="bcnvrt__main_8cpp.html#a6e8fab40e4cd89f05d7bafbc7c22dedc" target="_top" xlink:title="rfCompareMovies">
<polygon fill="white" stroke="black" points="700.544,-517 700.544,-537 795.456,-537 795.456,-517 700.544,-517"/>
<text text-anchor="middle" x="748" y="-523" font-family="Helvetica,sans-Serif" font-size="10.00">rfCompareMovies</text>
</a>
</g>
</g>
<!-- Node4&#45;&gt;Node6 -->
<g id="edge5" class="edge"><title>Node4&#45;&gt;Node6</title>
<path fill="none" stroke="midnightblue" d="M401.266,-412.948C421.974,-435.953 461.311,-475.114 504,-494 567.853,-522.249 649.622,-527.847 700.146,-528.222"/>
<polygon fill="midnightblue" stroke="midnightblue" points="403.743,-410.464 394.509,-405.271 398.489,-415.09 403.743,-410.464"/>
</g>
<!-- Node8 -->
<g id="node8" class="node"><title>Node8</title>
<g id="a_node8"><a xlink:href="bcnvrt__main_8cpp.html#a00a4dac924291e9ba2f484741e4abc19" target="_top" xlink:title="rfCompareReifyMovies">
<polygon fill="white" stroke="black" points="689.153,-349 689.153,-369 806.847,-369 806.847,-349 689.153,-349"/>
<text text-anchor="middle" x="748" y="-355" font-family="Helvetica,sans-Serif" font-size="10.00">rfCompareReifyMovies</text>
</a>
</g>
</g>
<!-- Node4&#45;&gt;Node8 -->
<g id="edge7" class="edge"><title>Node4&#45;&gt;Node8</title>
<path fill="none" stroke="midnightblue" d="M477.972,-385.828C544.402,-379.204 632.095,-370.459 689.012,-364.783"/>
<polygon fill="midnightblue" stroke="midnightblue" points="477.52,-382.356 467.916,-386.831 478.214,-389.321 477.52,-382.356"/>
</g>
<!-- Node9 -->
<g id="node9" class="node"><title>Node9</title>
<g id="a_node9"><a xlink:href="classrc_engine_impl.html#ac0162da8fe4f677ad6f3d04a465d50f0" target="_top" xlink:title="rcEngineImpl::loadMovie">
<polygon fill="white" stroke="black" points="513.251,-285 513.251,-305 638.749,-305 638.749,-285 513.251,-285"/>
<text text-anchor="middle" x="576" y="-291" font-family="Helvetica,sans-Serif" font-size="10.00">rcEngineImpl::loadMovie</text>
</a>
</g>
</g>
<!-- Node4&#45;&gt;Node9 -->
<g id="edge9" class="edge"><title>Node4&#45;&gt;Node9</title>
<path fill="none" stroke="midnightblue" d="M409.618,-379.305C426.038,-368.357 448.408,-353.372 468,-340 484.089,-329.019 486.382,-323.311 504,-315 512.339,-311.066 521.604,-307.763 530.613,-305.047"/>
<polygon fill="midnightblue" stroke="midnightblue" points="407.546,-376.48 401.163,-384.936 411.426,-382.306 407.546,-376.48"/>
</g>
<!-- Node10 -->
<g id="node10" class="node"><title>Node10</title>
<g id="a_node10"><a xlink:href="classrc_movie_converter_to_rfy.html#af3af0dd934f527a9c08669e49f7f2304" target="_top" xlink:title="rcMovieConverterToRfy\l::convert">
<polygon fill="white" stroke="black" points="515.764,-402 515.764,-434 636.236,-434 636.236,-402 515.764,-402"/>
<text text-anchor="start" x="523.764" y="-420" font-family="Helvetica,sans-Serif" font-size="10.00">rcMovieConverterToRfy</text>
<text text-anchor="middle" x="576" y="-408" font-family="Helvetica,sans-Serif" font-size="10.00">::convert</text>
</a>
</g>
</g>
<!-- Node4&#45;&gt;Node10 -->
<g id="edge10" class="edge"><title>Node4&#45;&gt;Node10</title>
<path fill="none" stroke="midnightblue" d="M478.27,-406.229C491.021,-407.78 503.827,-409.339 515.757,-410.791"/>
<polygon fill="midnightblue" stroke="midnightblue" points="478.423,-402.722 468.074,-404.988 477.578,-409.67 478.423,-402.722"/>
</g>
<!-- Node14 -->
<g id="node14" class="node"><title>Node14</title>
<g id="a_node14"><a xlink:href="classrc_movie_converter_to_q_t.html#a36c6fbe2132af1466f147840958563d3" target="_top" xlink:title="rcMovieConverterToQT\l::convert">
<polygon fill="white" stroke="black" points="516.32,-453 516.32,-485 635.68,-485 635.68,-453 516.32,-453"/>
<text text-anchor="start" x="524.32" y="-471" font-family="Helvetica,sans-Serif" font-size="10.00">rcMovieConverterToQT</text>
<text text-anchor="middle" x="576" y="-459" font-family="Helvetica,sans-Serif" font-size="10.00">::convert</text>
</a>
</g>
</g>
<!-- Node4&#45;&gt;Node14 -->
<g id="edge16" class="edge"><title>Node4&#45;&gt;Node14</title>
<path fill="none" stroke="midnightblue" d="M419.826,-409.13C443.349,-418.864 475.479,-431.981 504,-443 512.449,-446.264 521.501,-449.658 530.218,-452.874"/>
<polygon fill="midnightblue" stroke="midnightblue" points="420.885,-405.78 410.307,-405.181 418.203,-412.245 420.885,-405.78"/>
</g>
<!-- Node15 -->
<g id="node15" class="node"><title>Node15</title>
<g id="a_node15"><a xlink:href="visimatch_8cpp.html#a82fefdf34801de8f8e9eb60b25fbd6b6" target="_top" xlink:title="genSignatureFromMov">
<polygon fill="white" stroke="black" points="517.143,-324 517.143,-344 634.857,-344 634.857,-324 517.143,-324"/>
<text text-anchor="middle" x="576" y="-330" font-family="Helvetica,sans-Serif" font-size="10.00">genSignatureFromMov</text>
</a>
</g>
</g>
<!-- Node4&#45;&gt;Node15 -->
<g id="edge19" class="edge"><title>Node4&#45;&gt;Node15</title>
<path fill="none" stroke="midnightblue" d="M427.137,-381.723C462.204,-370.405 511.854,-354.38 543.744,-344.088"/>
<polygon fill="midnightblue" stroke="midnightblue" points="425.651,-378.525 417.21,-384.927 427.801,-385.186 425.651,-378.525"/>
</g>
<!-- Node7 -->
<g id="node7" class="node"><title>Node7</title>
<g id="a_node7"><a xlink:href="bcnvrt__main_8cpp.html#a3c04138a5bfe5d72780bb7e82a18e627" target="_top" xlink:title="main">
<polygon fill="white" stroke="black" points="848.163,-433 848.163,-453 885.837,-453 885.837,-433 848.163,-433"/>
<text text-anchor="middle" x="867" y="-439" font-family="Helvetica,sans-Serif" font-size="10.00">main</text>
</a>
</g>
</g>
<!-- Node6&#45;&gt;Node7 -->
<g id="edge6" class="edge"><title>Node6&#45;&gt;Node7</title>
<path fill="none" stroke="midnightblue" d="M801.496,-512.922C805.168,-511.162 808.712,-509.195 812,-507 833.522,-492.632 851.222,-467.303 860.009,-453.202"/>
<polygon fill="midnightblue" stroke="midnightblue" points="800.013,-509.749 792.179,-516.882 802.752,-516.191 800.013,-509.749"/>
</g>
<!-- Node8&#45;&gt;Node7 -->
<g id="edge8" class="edge"><title>Node8&#45;&gt;Node7</title>
<path fill="none" stroke="midnightblue" d="M801.496,-373.078C805.168,-374.838 808.712,-376.805 812,-379 833.522,-393.368 851.222,-418.697 860.009,-432.798"/>
<polygon fill="midnightblue" stroke="midnightblue" points="802.752,-369.809 792.179,-369.118 800.013,-376.251 802.752,-369.809"/>
</g>
<!-- Node11 -->
<g id="node11" class="node"><title>Node11</title>
<g id="a_node11"><a xlink:href="classrc_experiment_impl.html#ac08b9d15f5bb7db0b85a6d67406f95fa" target="_top" xlink:title="rcExperimentImpl::export\lMovie">
<polygon fill="white" stroke="black" points="684.426,-427 684.426,-459 811.574,-459 811.574,-427 684.426,-427"/>
<text text-anchor="start" x="692.426" y="-445" font-family="Helvetica,sans-Serif" font-size="10.00">rcExperimentImpl::export</text>
<text text-anchor="middle" x="748" y="-433" font-family="Helvetica,sans-Serif" font-size="10.00">Movie</text>
</a>
</g>
</g>
<!-- Node10&#45;&gt;Node11 -->
<g id="edge11" class="edge"><title>Node10&#45;&gt;Node11</title>
<path fill="none" stroke="midnightblue" d="M646.418,-428.209C658.992,-430.058 672.036,-431.976 684.4,-433.794"/>
<polygon fill="midnightblue" stroke="midnightblue" points="646.861,-424.736 636.458,-426.744 645.842,-431.662 646.861,-424.736"/>
</g>
<!-- Node12 -->
<g id="node12" class="node"><title>Node12</title>
<g id="a_node12"><a xlink:href="bcnvrt__main_8cpp.html#accc22075ea7eb720aed5cad6e10344b9" target="_top" xlink:title="rfConvertMovie">
<polygon fill="white" stroke="black" points="706.101,-478 706.101,-498 789.899,-498 789.899,-478 706.101,-478"/>
<text text-anchor="middle" x="748" y="-484" font-family="Helvetica,sans-Serif" font-size="10.00">rfConvertMovie</text>
</a>
</g>
</g>
<!-- Node10&#45;&gt;Node12 -->
<g id="edge12" class="edge"><title>Node10&#45;&gt;Node12</title>
<path fill="none" stroke="midnightblue" d="M635.338,-438.078C639.676,-439.961 643.939,-441.94 648,-444 665.149,-452.701 666.666,-459.676 684,-468 691.965,-471.825 700.838,-475.159 709.353,-477.95"/>
<polygon fill="midnightblue" stroke="midnightblue" points="636.354,-434.711 625.776,-434.118 633.676,-441.178 636.354,-434.711"/>
</g>
<!-- Node13 -->
<g id="node13" class="node"><title>Node13</title>
<g id="a_node13"><a xlink:href="bcnvrt__main_8cpp.html#add0a6eef95e64e05a21758380072e136" target="_top" xlink:title="rfConvertTwoMovies">
<polygon fill="white" stroke="black" points="694.429,-388 694.429,-408 801.571,-408 801.571,-388 694.429,-388"/>
<text text-anchor="middle" x="748" y="-394" font-family="Helvetica,sans-Serif" font-size="10.00">rfConvertTwoMovies</text>
</a>
</g>
</g>
<!-- Node10&#45;&gt;Node13 -->
<g id="edge14" class="edge"><title>Node10&#45;&gt;Node13</title>
<path fill="none" stroke="midnightblue" d="M646.78,-409.791C662.687,-407.919 679.329,-405.961 694.379,-404.191"/>
<polygon fill="midnightblue" stroke="midnightblue" points="645.98,-406.36 636.458,-411.005 646.798,-413.313 645.98,-406.36"/>
</g>
<!-- Node12&#45;&gt;Node7 -->
<g id="edge13" class="edge"><title>Node12&#45;&gt;Node7</title>
<path fill="none" stroke="midnightblue" d="M793.158,-474.762C799.526,-472.628 805.963,-470.345 812,-468 824.134,-463.287 837.405,-457.157 847.754,-452.147"/>
<polygon fill="midnightblue" stroke="midnightblue" points="791.701,-471.556 783.277,-477.982 793.87,-478.212 791.701,-471.556"/>
</g>
<!-- Node13&#45;&gt;Node7 -->
<g id="edge15" class="edge"><title>Node13&#45;&gt;Node7</title>
<path fill="none" stroke="midnightblue" d="M793.158,-411.238C799.526,-413.372 805.963,-415.655 812,-418 824.134,-422.713 837.405,-428.843 847.754,-433.853"/>
<polygon fill="midnightblue" stroke="midnightblue" points="793.87,-407.788 783.277,-408.018 791.701,-414.444 793.87,-407.788"/>
</g>
<!-- Node14&#45;&gt;Node11 -->
<g id="edge17" class="edge"><title>Node14&#45;&gt;Node11</title>
<path fill="none" stroke="midnightblue" d="M646.023,-458.444C658.705,-456.504 671.88,-454.489 684.361,-452.58"/>
<polygon fill="midnightblue" stroke="midnightblue" points="645.337,-455.008 635.981,-459.979 646.395,-461.927 645.337,-455.008"/>
</g>
<!-- Node14&#45;&gt;Node12 -->
<g id="edge18" class="edge"><title>Node14&#45;&gt;Node12</title>
<path fill="none" stroke="midnightblue" d="M646.156,-476.729C666.49,-479.002 688.079,-481.415 706.042,-483.422"/>
<polygon fill="midnightblue" stroke="midnightblue" points="646.308,-473.224 635.981,-475.592 645.53,-480.181 646.308,-473.224"/>
</g>
<!-- Node16 -->
<g id="node16" class="node"><title>Node16</title>
<g id="a_node16"><a xlink:href="visimatch_8cpp.html#a3c04138a5bfe5d72780bb7e82a18e627" target="_top" xlink:title="main">
<polygon fill="white" stroke="black" points="729.163,-310 729.163,-330 766.837,-330 766.837,-310 729.163,-310"/>
<text text-anchor="middle" x="748" y="-316" font-family="Helvetica,sans-Serif" font-size="10.00">main</text>
</a>
</g>
</g>
<!-- Node15&#45;&gt;Node16 -->
<g id="edge20" class="edge"><title>Node15&#45;&gt;Node16</title>
<path fill="none" stroke="midnightblue" d="M645.214,-328.382C675.656,-325.875 709.089,-323.122 729.044,-321.479"/>
<polygon fill="midnightblue" stroke="midnightblue" points="644.708,-324.912 635.029,-329.221 645.282,-331.889 644.708,-324.912"/>
</g>
<!-- Node20 -->
<g id="node20" class="node"><title>Node20</title>
<g id="a_node20"><a xlink:href="classrc_engine_impl.html#ae320706cbcafd64f219018b9842c8290" target="_top" xlink:title="rcEngineImpl::analyze">
<polygon fill="white" stroke="black" points="327.808,-168 327.808,-188 442.192,-188 442.192,-168 327.808,-168"/>
<text text-anchor="middle" x="385" y="-174" font-family="Helvetica,sans-Serif" font-size="10.00">rcEngineImpl::analyze</text>
</a>
</g>
</g>
<!-- Node19&#45;&gt;Node20 -->
<g id="edge24" class="edge"><title>Node19&#45;&gt;Node20</title>
<path fill="none" stroke="midnightblue" d="M264.249,-150.413C289.805,-156.301 317.842,-162.759 340.359,-167.947"/>
<polygon fill="midnightblue" stroke="midnightblue" points="264.752,-146.938 254.222,-148.103 263.181,-153.759 264.752,-146.938"/>
</g>
<!-- Node22 -->
<g id="node22" class="node"><title>Node22</title>
<g id="a_node22"><a xlink:href="classrc_engine_impl.html#a3f1d54d99e195efe0eec45f9263e6342" target="_top" xlink:title="rcEngineImpl::loadFrames">
<polygon fill="white" stroke="black" points="318.643,-247 318.643,-267 451.357,-267 451.357,-247 318.643,-247"/>
<text text-anchor="middle" x="385" y="-253" font-family="Helvetica,sans-Serif" font-size="10.00">rcEngineImpl::loadFrames</text>
</a>
</g>
</g>
<!-- Node19&#45;&gt;Node22 -->
<g id="edge27" class="edge"><title>Node19&#45;&gt;Node22</title>
<path fill="none" stroke="midnightblue" d="M258.42,-154.569C261.031,-155.962 263.57,-157.438 266,-159 285.571,-171.577 284.541,-181.624 302,-197 323.843,-216.237 351.593,-235.602 368.562,-246.938"/>
<polygon fill="midnightblue" stroke="midnightblue" points="259.835,-151.365 249.311,-150.143 256.776,-157.661 259.835,-151.365"/>
</g>
<!-- Node25 -->
<g id="node25" class="node"><title>Node25</title>
<g id="a_node25"><a xlink:href="classrc_engine_impl.html#a9a8ec782559561ddc80c85208bc859c7" target="_top" xlink:title="rcEngineImpl::setFromArgs">
<polygon fill="white" stroke="black" points="316.426,-125 316.426,-145 453.574,-145 453.574,-125 316.426,-125"/>
<text text-anchor="middle" x="385" y="-131" font-family="Helvetica,sans-Serif" font-size="10.00">rcEngineImpl::setFromArgs</text>
</a>
</g>
</g>
<!-- Node19&#45;&gt;Node25 -->
<g id="edge31" class="edge"><title>Node19&#45;&gt;Node25</title>
<path fill="none" stroke="midnightblue" d="M264.584,-134.375C281.482,-134.463 299.448,-134.557 316.174,-134.645"/>
<polygon fill="midnightblue" stroke="midnightblue" points="264.24,-130.873 254.222,-134.321 264.203,-137.873 264.24,-130.873"/>
</g>
<!-- Node27 -->
<g id="node27" class="node"><title>Node27</title>
<g id="a_node27"><a xlink:href="classrc_engine_impl.html#a6d36ffad5feaaa46f82bec2bf309b0f4" target="_top" xlink:title="rcEngineImpl::start">
<polygon fill="white" stroke="black" points="335.318,-83 335.318,-103 434.682,-103 434.682,-83 335.318,-83"/>
<text text-anchor="middle" x="385" y="-89" font-family="Helvetica,sans-Serif" font-size="10.00">rcEngineImpl::start</text>
</a>
</g>
</g>
<!-- Node19&#45;&gt;Node27 -->
<g id="edge33" class="edge"><title>Node19&#45;&gt;Node27</title>
<path fill="none" stroke="midnightblue" d="M264.179,-118.721C288.628,-113.473 315.354,-107.735 337.35,-103.014"/>
<polygon fill="midnightblue" stroke="midnightblue" points="263.264,-115.337 254.222,-120.858 264.734,-122.181 263.264,-115.337"/>
</g>
<!-- Node20&#45;&gt;Node2 -->
<g id="edge25" class="edge"><title>Node20&#45;&gt;Node2</title>
<path fill="none" stroke="midnightblue" d="M444.518,-190.075C470.821,-195.503 501.496,-201.832 526.493,-206.991"/>
<polygon fill="midnightblue" stroke="midnightblue" points="445.173,-186.637 434.672,-188.043 443.759,-193.492 445.173,-186.637"/>
</g>
<!-- Node21 -->
<g id="node21" class="node"><title>Node21</title>
<g id="a_node21"><a xlink:href="classrc_engine_analyzer.html#a064037f0ec3e68fcb11dabbcba790cdd" target="_top" xlink:title="rcEngineAnalyzer::run">
<polygon fill="white" stroke="black" points="518.808,-168 518.808,-188 633.192,-188 633.192,-168 518.808,-168"/>
<text text-anchor="middle" x="576" y="-174" font-family="Helvetica,sans-Serif" font-size="10.00">rcEngineAnalyzer::run</text>
</a>
</g>
</g>
<!-- Node20&#45;&gt;Node21 -->
<g id="edge26" class="edge"><title>Node20&#45;&gt;Node21</title>
<path fill="none" stroke="midnightblue" d="M452.307,-178C473.98,-178 497.831,-178 518.696,-178"/>
<polygon fill="midnightblue" stroke="midnightblue" points="452.195,-174.5 442.195,-178 452.194,-181.5 452.195,-174.5"/>
</g>
<!-- Node22&#45;&gt;Node9 -->
<g id="edge30" class="edge"><title>Node22&#45;&gt;Node9</title>
<path fill="none" stroke="midnightblue" d="M446.048,-269.073C471.459,-274.182 500.722,-280.066 524.942,-284.935"/>
<polygon fill="midnightblue" stroke="midnightblue" points="446.646,-265.623 436.152,-267.084 445.266,-272.486 446.646,-265.623"/>
</g>
<!-- Node23 -->
<g id="node23" class="node"><title>Node23</title>
<g id="a_node23"><a xlink:href="classrc_engine_impl.html#ac6c444948228b9a6c9c013efefd7452c" target="_top" xlink:title="rcEngineImpl::loadImages">
<polygon fill="white" stroke="black" points="510.192,-246 510.192,-266 641.808,-266 641.808,-246 510.192,-246"/>
<text text-anchor="middle" x="576" y="-252" font-family="Helvetica,sans-Serif" font-size="10.00">rcEngineImpl::loadImages</text>
</a>
</g>
</g>
<!-- Node22&#45;&gt;Node23 -->
<g id="edge28" class="edge"><title>Node22&#45;&gt;Node23</title>
<path fill="none" stroke="midnightblue" d="M461.949,-256.598C477.932,-256.514 494.652,-256.425 510.182,-256.343"/>
<polygon fill="midnightblue" stroke="midnightblue" points="461.554,-253.1 451.573,-256.653 461.591,-260.1 461.554,-253.1"/>
</g>
<!-- Node24 -->
<g id="node24" class="node"><title>Node24</title>
<g id="a_node24"><a xlink:href="classrc_engine_importer.html#a2e45417f1c29adf01483b2b8fca6b27b" target="_top" xlink:title="rcEngineImporter::run">
<polygon fill="white" stroke="black" points="691.646,-246 691.646,-266 804.354,-266 804.354,-246 691.646,-246"/>
<text text-anchor="middle" x="748" y="-252" font-family="Helvetica,sans-Serif" font-size="10.00">rcEngineImporter::run</text>
</a>
</g>
</g>
<!-- Node23&#45;&gt;Node24 -->
<g id="edge29" class="edge"><title>Node23&#45;&gt;Node24</title>
<path fill="none" stroke="midnightblue" d="M652.274,-256C665.504,-256 679.053,-256 691.615,-256"/>
<polygon fill="midnightblue" stroke="midnightblue" points="652.24,-252.5 642.24,-256 652.24,-259.5 652.24,-252.5"/>
</g>
<!-- Node26 -->
<g id="node26" class="node"><title>Node26</title>
<g id="a_node26"><a xlink:href="rc__main_8cpp.html#a3c04138a5bfe5d72780bb7e82a18e627" target="_top" xlink:title="main">
<polygon fill="white" stroke="black" points="557.163,-129 557.163,-149 594.837,-149 594.837,-129 557.163,-129"/>
<text text-anchor="middle" x="576" y="-135" font-family="Helvetica,sans-Serif" font-size="10.00">main</text>
</a>
</g>
</g>
<!-- Node25&#45;&gt;Node26 -->
<g id="edge32" class="edge"><title>Node25&#45;&gt;Node26</title>
<path fill="none" stroke="midnightblue" d="M463.76,-136.646C498.094,-137.372 535.474,-138.163 556.982,-138.619"/>
<polygon fill="midnightblue" stroke="midnightblue" points="463.771,-133.145 453.7,-136.433 463.623,-140.144 463.771,-133.145"/>
</g>
<!-- Node28 -->
<g id="node28" class="node"><title>Node28</title>
<g id="a_node28"><a xlink:href="classrc_engine_movie_playback.html#ab5cff6edcb8b3d901f96d0fde1766f18" target="_top" xlink:title="rcEngineMoviePlayback::run">
<polygon fill="white" stroke="black" points="504.636,-39 504.636,-59 647.364,-59 647.364,-39 504.636,-39"/>
<text text-anchor="middle" x="576" y="-45" font-family="Helvetica,sans-Serif" font-size="10.00">rcEngineMoviePlayback::run</text>
</a>
</g>
</g>
<!-- Node27&#45;&gt;Node28 -->
<g id="edge34" class="edge"><title>Node27&#45;&gt;Node28</title>
<path fill="none" stroke="midnightblue" d="M439.405,-80.5671C468.639,-73.7612 504.39,-65.4383 531.841,-59.0475"/>
<polygon fill="midnightblue" stroke="midnightblue" points="438.306,-77.2292 429.36,-82.9055 439.894,-84.0469 438.306,-77.2292"/>
</g>
<!-- Node29 -->
<g id="node29" class="node"><title>Node29</title>
<g id="a_node29"><a xlink:href="classrc_engine_movie_capture.html#a0d8bfe4fd32e11bdbdb2c0ad113425ff" target="_top" xlink:title="rcEngineMovieCapture::run">
<polygon fill="white" stroke="black" points="507.136,-0 507.136,-20 644.864,-20 644.864,-0 507.136,-0"/>
<text text-anchor="middle" x="576" y="-6" font-family="Helvetica,sans-Serif" font-size="10.00">rcEngineMovieCapture::run</text>
</a>
</g>
</g>
<!-- Node27&#45;&gt;Node29 -->
<g id="edge35" class="edge"><title>Node27&#45;&gt;Node29</title>
<path fill="none" stroke="midnightblue" d="M412.349,-77.7648C441.251,-61.2245 485.93,-36.2012 504,-29 512.535,-25.5989 521.885,-22.6079 530.916,-20.0655"/>
<polygon fill="midnightblue" stroke="midnightblue" points="410.503,-74.789 403.574,-82.8037 413.989,-80.8594 410.503,-74.789"/>
</g>
<!-- Node30 -->
<g id="node30" class="node"><title>Node30</title>
<g id="a_node30"><a xlink:href="classrc_engine_movie_saver.html#abb624bdd44b94c6a21f9e34dfc2da081" target="_top" xlink:title="rcEngineMovieSaver\l::waitHdlr">
<polygon fill="white" stroke="black" points="521.867,-78 521.867,-110 630.133,-110 630.133,-78 521.867,-78"/>
<text text-anchor="start" x="529.867" y="-96" font-family="Helvetica,sans-Serif" font-size="10.00">rcEngineMovieSaver</text>
<text text-anchor="middle" x="576" y="-84" font-family="Helvetica,sans-Serif" font-size="10.00">::waitHdlr</text>
</a>
</g>
</g>
<!-- Node27&#45;&gt;Node30 -->
<g id="edge36" class="edge"><title>Node27&#45;&gt;Node30</title>
<path fill="none" stroke="midnightblue" d="M445.402,-93.3143C469.866,-93.4437 497.988,-93.5925 521.77,-93.7184"/>
<polygon fill="midnightblue" stroke="midnightblue" points="445.183,-89.8132 435.164,-93.2601 445.145,-96.8131 445.183,-89.8132"/>
</g>
<!-- Node31 -->
<g id="node31" class="node"><title>Node31</title>
<g id="a_node31"><a xlink:href="classrc_engine_movie_saver.html#a216e88884a3dd557507ea93dc3609a91" target="_top" xlink:title="rcEngineMovieSaver::run">
<polygon fill="white" stroke="black" points="683.862,-84 683.862,-104 812.138,-104 812.138,-84 683.862,-84"/>
<text text-anchor="middle" x="748" y="-90" font-family="Helvetica,sans-Serif" font-size="10.00">rcEngineMovieSaver::run</text>
</a>
</g>
</g>
<!-- Node30&#45;&gt;Node31 -->
<g id="edge37" class="edge"><title>Node30&#45;&gt;Node31</title>
<path fill="none" stroke="midnightblue" d="M640.45,-94C654.599,-94 669.601,-94 683.742,-94"/>
<polygon fill="midnightblue" stroke="midnightblue" points="640.323,-90.5001 630.323,-94 640.323,-97.5001 640.323,-90.5001"/>
</g>
<!-- Node32&#45;&gt;Node29 -->
<g id="edge39" class="edge"><title>Node32&#45;&gt;Node29</title>
<path fill="none" stroke="midnightblue" d="M260.981,-50.28C330.427,-41.3719 437.641,-27.6194 507.069,-18.7137"/>
<polygon fill="midnightblue" stroke="midnightblue" points="260.491,-46.814 251.018,-51.558 261.382,-53.7571 260.491,-46.814"/>
</g>
</g>
</svg>
