<?xml version="1.0" encoding="UTF-8" standalone="no"?>
<!DOCTYPE svg PUBLIC "-//W3C//DTD SVG 1.1//EN"
 "http://www.w3.org/Graphics/SVG/1.1/DTD/svg11.dtd">
<!-- Generated by graphviz version 2.32.0 (20130916.1925)
 -->
<!-- Title: rcKinetoscope::sourceMotion Pages: 1 -->
<!--zoomable 118 -->
<svg id="main" version="1.1" xmlns="http://www.w3.org/2000/svg" xmlns:xlink="http://www.w3.org/1999/xlink" xml:space="preserve" onload="init(evt)">
        <defs>
                <circle id="rim" cx="0" cy="0" r="7"/>
                <circle id="rim2" cx="0" cy="0" r="3.5"/>
                <g id="zoomPlus">
                        <use xlink:href="#rim" fill="#404040">
                                <set attributeName="fill" to="#808080" begin="zoomplus.mouseover" end="zoomplus.mouseout"/>
                        </use>
                        <path d="M-4,0h8M0,-4v8" fill="none" stroke="white" stroke-width="1.5" pointer-events="none"/>
                </g>
                <g id="zoomMin">
                        <use xlink:href="#rim" fill="#404040">
                                <set attributeName="fill" to="#808080" begin="zoomminus.mouseover" end="zoomminus.mouseout"/>
                        </use>
                        <path d="M-4,0h8" fill="none" stroke="white" stroke-width="1.5" pointer-events="none"/>
                </g>
                <g id="dirArrow">
                        <path fill="none" stroke="white" stroke-width="1.5" d="M0,-3.0v7 M-2.5,-0.5L0,-3.0L2.5,-0.5"/>
                </g>
               <g id="resetDef">
                       <use xlink:href="#rim2" fill="#404040">
                               <set attributeName="fill" to="#808080" begin="reset.mouseover" end="reset.mouseout"/>
                       </use>
               </g>
        </defs>

<script type="text/javascript">
var viewWidth = 828;
var viewHeight = 118;
var sectionId = 'dynsection-109';
</script>
<script xlink:href="svgpan.js"/>
<svg id="graph" class="graph">
<g id="viewport">
<title>rcKinetoscope::sourceMotion</title>
<polygon fill="white" stroke="white" points="-4,5 -4,-114 825,-114 825,5 -4,5"/>
<!-- Node1 -->
<g id="node1" class="node"><title>Node1</title>
<polygon fill="#bfbfbf" stroke="black" points="0.522461,-51 0.522461,-71 145.478,-71 145.478,-51 0.522461,-51"/>
<text text-anchor="middle" x="73" y="-57" font-family="Helvetica,sans-Serif" font-size="10.00">rcKinetoscope::sourceMotion</text>
</g>
<!-- Node2 -->
<g id="node2" class="node"><title>Node2</title>
<g id="a_node2"><a xlink:href="classrc_kinetoscope.html#a6c7d26c32da53421777db8041fb1e3a9" target="_top" xlink:title="rcKinetoscope::advance">
<polygon fill="white" stroke="black" points="370.633,-90 370.633,-110 493.367,-110 493.367,-90 370.633,-90"/>
<text text-anchor="middle" x="432" y="-96" font-family="Helvetica,sans-Serif" font-size="10.00">rcKinetoscope::advance</text>
</a>
</g>
</g>
<!-- Node1&#45;&gt;Node2 -->
<g id="edge1" class="edge"><title>Node1&#45;&gt;Node2</title>
<path fill="none" stroke="midnightblue" d="M155.695,-71.8436C164.569,-72.9458 173.471,-74.0192 182,-75 246.311,-82.3953 320.112,-89.651 370.569,-94.4244"/>
<polygon fill="midnightblue" stroke="midnightblue" points="156.068,-68.363 145.71,-70.5903 155.196,-75.3085 156.068,-68.363"/>
</g>
<!-- Node3 -->
<g id="node3" class="node"><title>Node3</title>
<g id="a_node3"><a xlink:href="classrc_engine_impl.html#a00ca0d227e480ddb5bd6be293b55d2c9" target="_top" xlink:title="rcEngineImpl::muscleTracker">
<polygon fill="white" stroke="black" points="674.442,-51 674.442,-71 819.558,-71 819.558,-51 674.442,-51"/>
<text text-anchor="middle" x="747" y="-57" font-family="Helvetica,sans-Serif" font-size="10.00">rcEngineImpl::muscleTracker</text>
</a>
</g>
</g>
<!-- Node1&#45;&gt;Node3 -->
<g id="edge3" class="edge"><title>Node1&#45;&gt;Node3</title>
<path fill="none" stroke="midnightblue" d="M155.7,-61C288.34,-61 548.345,-61 674.267,-61"/>
<polygon fill="midnightblue" stroke="midnightblue" points="155.597,-57.5001 145.597,-61 155.597,-64.5001 155.597,-57.5001"/>
</g>
<!-- Node4 -->
<g id="node4" class="node"><title>Node4</title>
<g id="a_node4"><a xlink:href="classrc_kinetoscope.html#afe805a453ae10008a433841fa9c8ad1e" target="_top" xlink:title="rcKinetoscope::selfSimilar\lMotionField_AttentiveCapture">
<polygon fill="white" stroke="black" points="182.131,-0 182.131,-32 329.869,-32 329.869,-0 182.131,-0"/>
<text text-anchor="start" x="190.131" y="-18" font-family="Helvetica,sans-Serif" font-size="10.00">rcKinetoscope::selfSimilar</text>
<text text-anchor="middle" x="256" y="-6" font-family="Helvetica,sans-Serif" font-size="10.00">MotionField_AttentiveCapture</text>
</a>
</g>
</g>
<!-- Node1&#45;&gt;Node4 -->
<g id="edge4" class="edge"><title>Node1&#45;&gt;Node4</title>
<path fill="none" stroke="midnightblue" d="M124.354,-48.481C144.793,-43.3994 168.659,-37.4659 190.36,-32.0708"/>
<polygon fill="midnightblue" stroke="midnightblue" points="123.48,-45.0917 114.62,-50.9011 125.169,-51.8849 123.48,-45.0917"/>
</g>
<!-- Node2&#45;&gt;Node3 -->
<g id="edge2" class="edge"><title>Node2&#45;&gt;Node3</title>
<path fill="none" stroke="midnightblue" d="M503.633,-91.5198C543.16,-86.7405 593.33,-80.6189 638,-75 649.724,-73.5252 662.161,-71.9361 674.264,-70.3763"/>
<polygon fill="midnightblue" stroke="midnightblue" points="503.071,-88.0621 493.563,-92.7361 503.91,-95.0116 503.071,-88.0621"/>
</g>
<!-- Node5 -->
<g id="node5" class="node"><title>Node5</title>
<g id="a_node5"><a xlink:href="classrc_kinetoscope.html#a0b18f2bfdf0f15e136add61040f57f62" target="_top" xlink:title="rcKinetoscope::selfSimilar\lMotionField">
<polygon fill="white" stroke="black" points="366.478,-0 366.478,-32 497.522,-32 497.522,-0 366.478,-0"/>
<text text-anchor="start" x="374.478" y="-18" font-family="Helvetica,sans-Serif" font-size="10.00">rcKinetoscope::selfSimilar</text>
<text text-anchor="middle" x="432" y="-6" font-family="Helvetica,sans-Serif" font-size="10.00">MotionField</text>
</a>
</g>
</g>
<!-- Node4&#45;&gt;Node5 -->
<g id="edge5" class="edge"><title>Node4&#45;&gt;Node5</title>
<path fill="none" stroke="midnightblue" d="M340.303,-16C349.087,-16 357.922,-16 366.447,-16"/>
<polygon fill="midnightblue" stroke="midnightblue" points="340.035,-12.5001 330.035,-16 340.035,-19.5001 340.035,-12.5001"/>
</g>
<!-- Node6 -->
<g id="node6" class="node"><title>Node6</title>
<g id="a_node6"><a xlink:href="classrc_kinetoscope.html#a30274b84c57f86e667b614556f6c569b" target="_top" xlink:title="rcKinetoscope::step">
<polygon fill="white" stroke="black" points="534.086,-9 534.086,-29 637.914,-29 637.914,-9 534.086,-9"/>
<text text-anchor="middle" x="586" y="-15" font-family="Helvetica,sans-Serif" font-size="10.00">rcKinetoscope::step</text>
</a>
</g>
</g>
<!-- Node5&#45;&gt;Node6 -->
<g id="edge6" class="edge"><title>Node5&#45;&gt;Node6</title>
<path fill="none" stroke="midnightblue" d="M508.04,-17.4811C516.706,-17.6521 525.388,-17.8234 533.636,-17.9862"/>
<polygon fill="midnightblue" stroke="midnightblue" points="507.97,-13.9791 497.903,-17.281 507.832,-20.9777 507.97,-13.9791"/>
</g>
<!-- Node6&#45;&gt;Node3 -->
<g id="edge7" class="edge"><title>Node6&#45;&gt;Node3</title>
<path fill="none" stroke="midnightblue" d="M634.818,-31.6311C658.224,-37.8139 686.011,-45.1539 707.951,-50.9493"/>
<polygon fill="midnightblue" stroke="midnightblue" points="635.647,-28.2301 625.084,-29.06 633.859,-34.998 635.647,-28.2301"/>
</g>
</g>
</svg>
        <g id="navigator" transform="translate(0 0)" fill="#404254">
                <rect fill="#f2f5e9" fill-opacity="0.5" stroke="#606060" stroke-width=".5" x="0" y="0" width="60" height="60"/>
                <use id="zoomplus" xlink:href="#zoomPlus" x="17" y="9" onmousedown="handleZoom(evt,'in')"/>
                <use id="zoomminus" xlink:href="#zoomMin" x="42" y="9" onmousedown="handleZoom(evt,'out')"/>
                <use id="reset" xlink:href="#resetDef" x="30" y="36" onmousedown="handleReset()"/>
                <g id="arrowUp" xlink:href="#dirArrow" transform="translate(30 24)" onmousedown="handlePan(0,-1)">
                  <use xlink:href="#rim" fill="#404040">
                        <set attributeName="fill" to="#808080" begin="arrowUp.mouseover" end="arrowUp.mouseout"/>
                  </use>
                  <path fill="none" stroke="white" stroke-width="1.5" d="M0,-3.0v7 M-2.5,-0.5L0,-3.0L2.5,-0.5"/>
                </g>
                <g id="arrowRight" xlink:href="#dirArrow" transform="rotate(90) translate(36 -43)" onmousedown="handlePan(1,0)">
                  <use xlink:href="#rim" fill="#404040">
                        <set attributeName="fill" to="#808080" begin="arrowRight.mouseover" end="arrowRight.mouseout"/>
                  </use>
                  <path fill="none" stroke="white" stroke-width="1.5" d="M0,-3.0v7 M-2.5,-0.5L0,-3.0L2.5,-0.5"/>
                </g>
                <g id="arrowDown" xlink:href="#dirArrow" transform="rotate(180) translate(-30 -48)" onmousedown="handlePan(0,1)">
                  <use xlink:href="#rim" fill="#404040">
                        <set attributeName="fill" to="#808080" begin="arrowDown.mouseover" end="arrowDown.mouseout"/>
                  </use>
                  <path fill="none" stroke="white" stroke-width="1.5" d="M0,-3.0v7 M-2.5,-0.5L0,-3.0L2.5,-0.5"/>
                </g>
                <g id="arrowLeft" xlink:href="#dirArrow" transform="rotate(270) translate(-36 17)" onmousedown="handlePan(-1,0)">
                  <use xlink:href="#rim" fill="#404040">
                        <set attributeName="fill" to="#808080" begin="arrowLeft.mouseover" end="arrowLeft.mouseout"/>
                  </use>
                  <path fill="none" stroke="white" stroke-width="1.5" d="M0,-3.0v7 M-2.5,-0.5L0,-3.0L2.5,-0.5"/>
                </g>
        </g>
        <svg viewBox="0 0 15 15" width="100%" height="30px" preserveAspectRatio="xMaxYMin meet">
         <g id="arrow_out" transform="scale(0.3 0.3)">
          <a xlink:href="classrc_kinetoscope_a09d9b9b817065c390145daab398fa6d6_icgraph_org.svg" target="_base">
           <rect id="button" ry="5" rx="5" y="6" x="6" height="38" width="38"
                fill="#f2f5e9" fill-opacity="0.5" stroke="#606060" stroke-width="1.0"/>
           <path id="arrow"
             d="M 11.500037,31.436501 C 11.940474,20.09759 22.043105,11.32322 32.158766,21.979434 L 37.068811,17.246167 C 37.068811,17.246167 37.088388,32 37.088388,32 L 22.160133,31.978069 C 22.160133,31.978069 26.997745,27.140456 26.997745,27.140456 C 18.528582,18.264221 13.291696,25.230495 11.500037,31.436501 z"
             style="fill:#404040;"/>
          </a>
         </g>
        </svg>
</svg>
