<?xml version="1.0" encoding="UTF-8" standalone="no"?>
<!DOCTYPE svg PUBLIC "-//W3C//DTD SVG 1.1//EN"
 "http://www.w3.org/Graphics/SVG/1.1/DTD/svg11.dtd">
<!-- Generated by graphviz version 2.32.0 (20130916.1925)
 -->
<!-- Title: obuff::set_error Pages: 1 -->
<svg width="902pt" height="1333pt"
 viewBox="0.00 0.00 902.00 1333.00" xmlns="http://www.w3.org/2000/svg" xmlns:xlink="http://www.w3.org/1999/xlink">
<g id="graph0" class="graph" transform="scale(1 1) rotate(0) translate(4 1329)">
<title>obuff::set_error</title>
<polygon fill="white" stroke="white" points="-4,5 -4,-1329 899,-1329 899,5 -4,5"/>
<!-- Node1 -->
<g id="node1" class="node"><title>Node1</title>
<polygon fill="#bfbfbf" stroke="black" points="0.181641,-1068 0.181641,-1088 83.8184,-1088 83.8184,-1068 0.181641,-1068"/>
<text text-anchor="middle" x="42" y="-1074" font-family="Helvetica,sans-Serif" font-size="10.00">obuff::set_error</text>
</g>
<!-- Node2 -->
<g id="node2" class="node"><title>Node2</title>
<g id="a_node2"><a xlink:href="classoiobuff.html#a9af1e93aa17b222ad019af62c0746b07" target="_top" xlink:title="oiobuff::flush">
<polygon fill="white" stroke="black" points="125.736,-1166 125.736,-1186 198.264,-1186 198.264,-1166 125.736,-1166"/>
<text text-anchor="middle" x="162" y="-1172" font-family="Helvetica,sans-Serif" font-size="10.00">oiobuff::flush</text>
</a>
</g>
</g>
<!-- Node1&#45;&gt;Node2 -->
<g id="edge1" class="edge"><title>Node1&#45;&gt;Node2</title>
<path fill="none" stroke="midnightblue" d="M57.8402,-1096.26C72.3653,-1113.29 95.7835,-1138.61 120,-1156 125.146,-1159.7 131.08,-1163.04 136.806,-1165.88"/>
<polygon fill="midnightblue" stroke="midnightblue" points="60.1976,-1093.62 51.098,-1088.19 54.8275,-1098.11 60.1976,-1093.62"/>
</g>
<!-- Node4 -->
<g id="node4" class="node"><title>Node4</title>
<g id="a_node4"><a xlink:href="classofbuff.html#a53df491fc21065f4309d4ee945c1854b" target="_top" xlink:title="ofbuff::flush">
<polygon fill="white" stroke="black" points="128.238,-1127 128.238,-1147 195.762,-1147 195.762,-1127 128.238,-1127"/>
<text text-anchor="middle" x="162" y="-1133" font-family="Helvetica,sans-Serif" font-size="10.00">ofbuff::flush</text>
</a>
</g>
</g>
<!-- Node1&#45;&gt;Node4 -->
<g id="edge3" class="edge"><title>Node1&#45;&gt;Node4</title>
<path fill="none" stroke="midnightblue" d="M71.5564,-1092.59C86.0426,-1099.96 103.929,-1109.01 120,-1117 126.524,-1120.24 133.655,-1123.74 140.113,-1126.89"/>
<polygon fill="midnightblue" stroke="midnightblue" points="73.0803,-1089.44 62.5812,-1088.02 69.9029,-1095.68 73.0803,-1089.44"/>
</g>
<!-- Node6 -->
<g id="node6" class="node"><title>Node6</title>
<g id="a_node6"><a xlink:href="classofbuff.html#ab5c4ad0666c40eecd28a27b17a227067" target="_top" xlink:title="ofbuff::open">
<polygon fill="white" stroke="black" points="127.677,-1088 127.677,-1108 196.323,-1108 196.323,-1088 127.677,-1088"/>
<text text-anchor="middle" x="162" y="-1094" font-family="Helvetica,sans-Serif" font-size="10.00">ofbuff::open</text>
</a>
</g>
</g>
<!-- Node1&#45;&gt;Node6 -->
<g id="edge5" class="edge"><title>Node1&#45;&gt;Node6</title>
<path fill="none" stroke="midnightblue" d="M93.8169,-1086.61C105.229,-1088.55 117.057,-1090.55 127.55,-1092.33"/>
<polygon fill="midnightblue" stroke="midnightblue" points="94.3838,-1083.16 83.9395,-1084.94 93.214,-1090.06 94.3838,-1083.16"/>
</g>
<!-- Node8 -->
<g id="node8" class="node"><title>Node8</title>
<g id="a_node8"><a xlink:href="classoiobuff.html#ae5030edbee1fa253b26a3eedf823d1ae" target="_top" xlink:title="oiobuff::put">
<polygon fill="white" stroke="black" points="129.347,-1049 129.347,-1069 194.653,-1069 194.653,-1049 129.347,-1049"/>
<text text-anchor="middle" x="162" y="-1055" font-family="Helvetica,sans-Serif" font-size="10.00">oiobuff::put</text>
</a>
</g>
</g>
<!-- Node1&#45;&gt;Node8 -->
<g id="edge7" class="edge"><title>Node1&#45;&gt;Node8</title>
<path fill="none" stroke="midnightblue" d="M93.8331,-1069.82C105.792,-1067.89 118.207,-1065.89 129.061,-1064.14"/>
<polygon fill="midnightblue" stroke="midnightblue" points="93.2559,-1066.36 83.9395,-1071.41 94.3688,-1073.27 93.2559,-1066.36"/>
</g>
<!-- Node9 -->
<g id="node9" class="node"><title>Node9</title>
<g id="a_node9"><a xlink:href="classofbuff.html#a541b2d721b6f1956eae9a71dc1b86de8" target="_top" xlink:title="ofbuff::put">
<polygon fill="white" stroke="black" points="131.849,-1010 131.849,-1030 192.151,-1030 192.151,-1010 131.849,-1010"/>
<text text-anchor="middle" x="162" y="-1016" font-family="Helvetica,sans-Serif" font-size="10.00">ofbuff::put</text>
</a>
</g>
</g>
<!-- Node1&#45;&gt;Node9 -->
<g id="edge8" class="edge"><title>Node1&#45;&gt;Node9</title>
<path fill="none" stroke="midnightblue" d="M72.6017,-1063.35C86.9125,-1056.28 104.342,-1047.68 120,-1040 126.541,-1036.79 133.676,-1033.3 140.133,-1030.16"/>
<polygon fill="midnightblue" stroke="midnightblue" points="70.666,-1060.4 63.2526,-1067.97 73.7681,-1066.68 70.666,-1060.4"/>
</g>
<!-- Node10 -->
<g id="node10" class="node"><title>Node10</title>
<g id="a_node10"><a xlink:href="classotext.html#a2a2435d80cce60cb88360c7bfe3f8445" target="_top" xlink:title="otext::set_error">
<polygon fill="white" stroke="black" points="120.375,-971 120.375,-991 203.625,-991 203.625,-971 120.375,-971"/>
<text text-anchor="middle" x="162" y="-977" font-family="Helvetica,sans-Serif" font-size="10.00">otext::set_error</text>
</a>
</g>
</g>
<!-- Node1&#45;&gt;Node10 -->
<g id="edge9" class="edge"><title>Node1&#45;&gt;Node10</title>
<path fill="none" stroke="midnightblue" d="M57.8858,-1059.99C72.4438,-1043.19 95.8846,-1018.2 120,-1001 125.158,-997.321 131.096,-993.988 136.823,-991.144"/>
<polygon fill="midnightblue" stroke="midnightblue" points="54.9347,-1058.06 51.1261,-1067.95 60.2688,-1062.59 54.9347,-1058.06"/>
</g>
<!-- Node3 -->
<g id="node3" class="node"><title>Node3</title>
<g id="a_node3"><a xlink:href="classoiobuff.html#ac60d20d6bb0dd594ebd6ff8196ab094d" target="_top" xlink:title="oiobuff::~oiobuff">
<polygon fill="white" stroke="black" points="242.453,-1166 242.453,-1186 329.547,-1186 329.547,-1166 242.453,-1166"/>
<text text-anchor="middle" x="286" y="-1172" font-family="Helvetica,sans-Serif" font-size="10.00">oiobuff::~oiobuff</text>
</a>
</g>
</g>
<!-- Node2&#45;&gt;Node3 -->
<g id="edge2" class="edge"><title>Node2&#45;&gt;Node3</title>
<path fill="none" stroke="midnightblue" d="M208.292,-1176C219.469,-1176 231.401,-1176 242.443,-1176"/>
<polygon fill="midnightblue" stroke="midnightblue" points="208.287,-1172.5 198.287,-1176 208.287,-1179.5 208.287,-1172.5"/>
</g>
<!-- Node5 -->
<g id="node5" class="node"><title>Node5</title>
<g id="a_node5"><a xlink:href="classofbuff.html#ac7332642f5e372b17eae34b41d0f4110" target="_top" xlink:title="ofbuff::~ofbuff">
<polygon fill="white" stroke="black" points="247.458,-1127 247.458,-1147 324.542,-1147 324.542,-1127 247.458,-1127"/>
<text text-anchor="middle" x="286" y="-1133" font-family="Helvetica,sans-Serif" font-size="10.00">ofbuff::~ofbuff</text>
</a>
</g>
</g>
<!-- Node4&#45;&gt;Node5 -->
<g id="edge4" class="edge"><title>Node4&#45;&gt;Node5</title>
<path fill="none" stroke="midnightblue" d="M206.391,-1137C219.724,-1137 234.286,-1137 247.213,-1137"/>
<polygon fill="midnightblue" stroke="midnightblue" points="206.015,-1133.5 196.015,-1137 206.015,-1140.5 206.015,-1133.5"/>
</g>
<!-- Node7 -->
<g id="node7" class="node"><title>Node7</title>
<g id="a_node7"><a xlink:href="classofbuff.html#a55a4fb98db62b2bcde8ebc3c964744e6" target="_top" xlink:title="ofbuff::ofbuff">
<polygon fill="white" stroke="black" points="250.378,-1088 250.378,-1108 321.622,-1108 321.622,-1088 250.378,-1088"/>
<text text-anchor="middle" x="286" y="-1094" font-family="Helvetica,sans-Serif" font-size="10.00">ofbuff::ofbuff</text>
</a>
</g>
</g>
<!-- Node6&#45;&gt;Node7 -->
<g id="edge6" class="edge"><title>Node6&#45;&gt;Node7</title>
<path fill="none" stroke="midnightblue" d="M206.442,-1098C220.729,-1098 236.421,-1098 249.999,-1098"/>
<polygon fill="midnightblue" stroke="midnightblue" points="206.337,-1094.5 196.337,-1098 206.337,-1101.5 206.337,-1094.5"/>
</g>
<!-- Node11 -->
<g id="node11" class="node"><title>Node11</title>
<g id="a_node11"><a xlink:href="inf_8hpp.html#aaab843734b97720a23d7b0676e7c1a12" target="_top" xlink:title="operator\&lt;\&lt;">
<polygon fill="white" stroke="black" points="253.537,-1010 253.537,-1030 318.463,-1030 318.463,-1010 253.537,-1010"/>
<text text-anchor="middle" x="286" y="-1016" font-family="Helvetica,sans-Serif" font-size="10.00">operator&lt;&lt;</text>
</a>
</g>
</g>
<!-- Node10&#45;&gt;Node11 -->
<g id="edge10" class="edge"><title>Node10&#45;&gt;Node11</title>
<path fill="none" stroke="midnightblue" d="M204.174,-994.162C220.353,-999.334 238.619,-1005.17 253.688,-1009.99"/>
<polygon fill="midnightblue" stroke="midnightblue" points="205.009,-990.755 194.418,-991.043 202.877,-997.422 205.009,-990.755"/>
</g>
<!-- Node12 -->
<g id="node12" class="node"><title>Node12</title>
<g id="a_node12"><a xlink:href="classotext.html#a5086c0fd5e3f551eae3027e5d23d3c30" target="_top" xlink:title="otext::put">
<polygon fill="white" stroke="black" points="257.431,-971 257.431,-991 314.569,-991 314.569,-971 257.431,-971"/>
<text text-anchor="middle" x="286" y="-977" font-family="Helvetica,sans-Serif" font-size="10.00">otext::put</text>
</a>
</g>
</g>
<!-- Node10&#45;&gt;Node12 -->
<g id="edge11" class="edge"><title>Node10&#45;&gt;Node12</title>
<path fill="none" stroke="midnightblue" d="M214.073,-981C228.925,-981 244.585,-981 257.401,-981"/>
<polygon fill="midnightblue" stroke="midnightblue" points="213.964,-977.5 203.964,-981 213.964,-984.5 213.964,-977.5"/>
</g>
<!-- Node50 -->
<g id="node50" class="node"><title>Node50</title>
<g id="a_node50"><a xlink:href="classotext.html#a9205aa4e81d4f11a9b8ad399d023374c" target="_top" xlink:title="otext::operator\&lt;\&lt;">
<polygon fill="white" stroke="black" points="239.919,-932 239.919,-952 332.081,-952 332.081,-932 239.919,-932"/>
<text text-anchor="middle" x="286" y="-938" font-family="Helvetica,sans-Serif" font-size="10.00">otext::operator&lt;&lt;</text>
</a>
</g>
</g>
<!-- Node10&#45;&gt;Node50 -->
<g id="edge53" class="edge"><title>Node10&#45;&gt;Node50</title>
<path fill="none" stroke="midnightblue" d="M204.174,-967.838C220.353,-962.666 238.619,-956.827 253.688,-952.009"/>
<polygon fill="midnightblue" stroke="midnightblue" points="202.877,-964.578 194.418,-970.957 205.009,-971.245 202.877,-964.578"/>
</g>
<!-- Node13 -->
<g id="node13" class="node"><title>Node13</title>
<g id="a_node13"><a xlink:href="classdump__context__body.html#a80f164f353cd71d5307692beebdd3fe4" target="_top" xlink:title="dump_context_body::put">
<polygon fill="white" stroke="black" points="368.239,-1185 368.239,-1205 493.761,-1205 493.761,-1185 368.239,-1185"/>
<text text-anchor="middle" x="431" y="-1191" font-family="Helvetica,sans-Serif" font-size="10.00">dump_context_body::put</text>
</a>
</g>
</g>
<!-- Node12&#45;&gt;Node13 -->
<g id="edge12" class="edge"><title>Node12&#45;&gt;Node13</title>
<path fill="none" stroke="midnightblue" d="M323.979,-994.794C326.861,-996.639 329.585,-998.701 332,-1001 389.949,-1056.15 419.128,-1153 427.446,-1184.66"/>
<polygon fill="midnightblue" stroke="midnightblue" points="325.461,-991.616 315.007,-989.894 322.105,-997.759 325.461,-991.616"/>
</g>
<!-- Node15 -->
<g id="node15" class="node"><title>Node15</title>
<g id="a_node15"><a xlink:href="classotext.html#a94a2799e87ab18e1d6109ae2f92f1876" target="_top" xlink:title="otext::put">
<polygon fill="white" stroke="black" points="402.431,-1010 402.431,-1030 459.569,-1030 459.569,-1010 402.431,-1010"/>
<text text-anchor="middle" x="431" y="-1016" font-family="Helvetica,sans-Serif" font-size="10.00">otext::put</text>
</a>
</g>
</g>
<!-- Node12&#45;&gt;Node15 -->
<g id="edge14" class="edge"><title>Node12&#45;&gt;Node15</title>
<path fill="none" stroke="midnightblue" d="M324.516,-991.232C348.8,-997.855 379.9,-1006.34 402.025,-1012.37"/>
<polygon fill="midnightblue" stroke="midnightblue" points="325.14,-987.774 314.572,-988.52 323.299,-994.528 325.14,-987.774"/>
</g>
<!-- Node16 -->
<g id="node16" class="node"><title>Node16</title>
<g id="a_node16"><a xlink:href="classotext.html#a340c3383e2f786f0310780d114c1f715" target="_top" xlink:title="otext::operator\&lt;\&lt;">
<polygon fill="white" stroke="black" points="384.919,-971 384.919,-991 477.081,-991 477.081,-971 384.919,-971"/>
<text text-anchor="middle" x="431" y="-977" font-family="Helvetica,sans-Serif" font-size="10.00">otext::operator&lt;&lt;</text>
</a>
</g>
</g>
<!-- Node12&#45;&gt;Node16 -->
<g id="edge15" class="edge"><title>Node12&#45;&gt;Node16</title>
<path fill="none" stroke="midnightblue" d="M324.647,-981C343.087,-981 365.433,-981 384.791,-981"/>
<polygon fill="midnightblue" stroke="midnightblue" points="324.572,-977.5 314.572,-981 324.572,-984.5 324.572,-977.5"/>
</g>
<!-- Node18 -->
<g id="node18" class="node"><title>Node18</title>
<g id="a_node18"><a xlink:href="textio_8hpp.html#abedc963ced03cb61b3f923b7e29d651b" target="_top" xlink:title="endl">
<polygon fill="white" stroke="red" points="413.547,-661 413.547,-681 448.453,-681 448.453,-661 413.547,-661"/>
<text text-anchor="middle" x="431" y="-667" font-family="Helvetica,sans-Serif" font-size="10.00">endl</text>
</a>
</g>
</g>
<!-- Node12&#45;&gt;Node18 -->
<g id="edge17" class="edge"><title>Node12&#45;&gt;Node18</title>
<path fill="none" stroke="midnightblue" d="M323.856,-967.892C326.845,-965.892 329.624,-963.606 332,-961 410.948,-874.403 426.601,-721.836 429.424,-681.188"/>
<polygon fill="midnightblue" stroke="midnightblue" points="322.064,-964.884 315.029,-972.806 325.469,-971 322.064,-964.884"/>
</g>
<!-- Node49 -->
<g id="node49" class="node"><title>Node49</title>
<g id="a_node49"><a xlink:href="classitext.html#a14cd8807168ac7d884efe4b502254b1c" target="_top" xlink:title="itext::operator\&gt;\&gt;">
<polygon fill="white" stroke="black" points="386.589,-622 386.589,-642 475.411,-642 475.411,-622 386.589,-622"/>
<text text-anchor="middle" x="431" y="-628" font-family="Helvetica,sans-Serif" font-size="10.00">itext::operator&gt;&gt;</text>
</a>
</g>
</g>
<!-- Node12&#45;&gt;Node49 -->
<g id="edge52" class="edge"><title>Node12&#45;&gt;Node49</title>
<path fill="none" stroke="midnightblue" d="M323.751,-968.897C326.899,-966.683 329.739,-964.073 332,-961 413.934,-849.63 280.272,-758.865 368,-652 372.808,-646.143 379.346,-641.982 386.38,-639.03"/>
<polygon fill="midnightblue" stroke="midnightblue" points="321.884,-965.93 314.881,-973.881 325.314,-972.033 321.884,-965.93"/>
</g>
<!-- Node14 -->
<g id="node14" class="node"><title>Node14</title>
<g id="a_node14"><a xlink:href="classdump__context__body.html#a10accf1d666a0531c9d62e916a8728f9" target="_top" xlink:title="dump_context_body::\ldump_context_body">
<polygon fill="white" stroke="black" points="561.19,-1293 561.19,-1325 672.81,-1325 672.81,-1293 561.19,-1293"/>
<text text-anchor="start" x="569.19" y="-1311" font-family="Helvetica,sans-Serif" font-size="10.00">dump_context_body::</text>
<text text-anchor="middle" x="617" y="-1299" font-family="Helvetica,sans-Serif" font-size="10.00">dump_context_body</text>
</a>
</g>
</g>
<!-- Node13&#45;&gt;Node14 -->
<g id="edge13" class="edge"><title>Node13&#45;&gt;Node14</title>
<path fill="none" stroke="midnightblue" d="M447.474,-1212.99C465.44,-1232.81 496.871,-1264.35 530,-1283 539.515,-1288.36 550.257,-1292.73 560.842,-1296.25"/>
<polygon fill="midnightblue" stroke="midnightblue" points="449.889,-1210.44 440.633,-1205.28 444.654,-1215.08 449.889,-1210.44"/>
</g>
<!-- Node17 -->
<g id="node17" class="node"><title>Node17</title>
<g id="a_node17"><a xlink:href="classotext.html#a093cd9c05ffa9513dc27d1505cb95a0a" target="_top" xlink:title="otext::operator\&lt;\&lt;">
<polygon fill="white" stroke="black" points="570.919,-1254 570.919,-1274 663.081,-1274 663.081,-1254 570.919,-1254"/>
<text text-anchor="middle" x="617" y="-1260" font-family="Helvetica,sans-Serif" font-size="10.00">otext::operator&lt;&lt;</text>
</a>
</g>
</g>
<!-- Node16&#45;&gt;Node17 -->
<g id="edge16" class="edge"><title>Node16&#45;&gt;Node17</title>
<path fill="none" stroke="midnightblue" d="M486.114,-993.904C489.03,-995.937 491.7,-998.286 494,-1001 564.578,-1084.3 456.005,-1163.72 530,-1244 540.389,-1255.27 555.784,-1260.79 570.689,-1263.33"/>
<polygon fill="midnightblue" stroke="midnightblue" points="487.785,-990.828 477.354,-988.972 484.351,-996.928 487.785,-990.828"/>
</g>
<!-- Node19 -->
<g id="node19" class="node"><title>Node19</title>
<g id="a_node19"><a xlink:href="visimatch_8cpp.html#a0daae27389aa4e365eea5de79245b36e" target="_top" xlink:title="_printCommands">
<polygon fill="white" stroke="red" points="570.929,-1137 570.929,-1157 663.071,-1157 663.071,-1137 570.929,-1137"/>
<text text-anchor="middle" x="617" y="-1143" font-family="Helvetica,sans-Serif" font-size="10.00">_printCommands</text>
</a>
</g>
</g>
<!-- Node18&#45;&gt;Node19 -->
<g id="edge18" class="edge"><title>Node18&#45;&gt;Node19</title>
<path fill="none" stroke="midnightblue" d="M436.304,-691.2C455.089,-779.352 529.009,-1125.99 530,-1127 540.64,-1137.82 555.912,-1143.26 570.643,-1145.87"/>
<polygon fill="midnightblue" stroke="midnightblue" points="439.713,-690.407 434.206,-681.356 432.867,-691.865 439.713,-690.407"/>
</g>
<!-- Node20 -->
<g id="node20" class="node"><title>Node20</title>
<g id="a_node20"><a xlink:href="visimatch_8cpp.html#a1448d8bc49735d8e567ed0c4d0ad79c0" target="_top" xlink:title="_sm2out">
<polygon fill="white" stroke="black" points="589.823,-1098 589.823,-1118 644.177,-1118 644.177,-1098 589.823,-1098"/>
<text text-anchor="middle" x="617" y="-1104" font-family="Helvetica,sans-Serif" font-size="10.00">_sm2out</text>
</a>
</g>
</g>
<!-- Node18&#45;&gt;Node20 -->
<g id="edge19" class="edge"><title>Node18&#45;&gt;Node20</title>
<path fill="none" stroke="midnightblue" d="M436.156,-691.327C452.931,-772.988 515.45,-1073.48 530,-1088 545.518,-1103.48 570.534,-1107.91 589.595,-1108.8"/>
<polygon fill="midnightblue" stroke="midnightblue" points="439.539,-690.403 434.102,-681.309 432.682,-691.809 439.539,-690.403"/>
</g>
<!-- Node21 -->
<g id="node21" class="node"><title>Node21</title>
<g id="a_node21"><a xlink:href="classrc_video_track_impl.html#a01b7a81dbb3b710a2baa2f438420e28b" target="_top" xlink:title="rcVideoTrackImpl::addSegment">
<polygon fill="white" stroke="red" points="539.239,-1059 539.239,-1079 694.761,-1079 694.761,-1059 539.239,-1059"/>
<text text-anchor="middle" x="617" y="-1065" font-family="Helvetica,sans-Serif" font-size="10.00">rcVideoTrackImpl::addSegment</text>
</a>
</g>
</g>
<!-- Node18&#45;&gt;Node21 -->
<g id="edge20" class="edge"><title>Node18&#45;&gt;Node21</title>
<path fill="none" stroke="midnightblue" d="M435.931,-691.017C450.71,-765.422 503.454,-1023.11 530,-1049 534.061,-1052.96 538.744,-1056.19 543.785,-1058.83"/>
<polygon fill="midnightblue" stroke="midnightblue" points="439.336,-690.195 433.964,-681.063 432.469,-691.552 439.336,-690.195"/>
</g>
<!-- Node22 -->
<g id="node22" class="node"><title>Node22</title>
<g id="a_node22"><a xlink:href="classrc_movie_converter_to_q_t.html#ad76ebb33252df1ff7af4984a729c9dba" target="_top" xlink:title="rcMovieConverterToQT\l::addVideoSamplesToMedia">
<polygon fill="white" stroke="black" points="546.827,-1008 546.827,-1040 687.173,-1040 687.173,-1008 546.827,-1008"/>
<text text-anchor="start" x="554.827" y="-1026" font-family="Helvetica,sans-Serif" font-size="10.00">rcMovieConverterToQT</text>
<text text-anchor="middle" x="617" y="-1014" font-family="Helvetica,sans-Serif" font-size="10.00">::addVideoSamplesToMedia</text>
</a>
</g>
</g>
<!-- Node18&#45;&gt;Node22 -->
<g id="edge21" class="edge"><title>Node18&#45;&gt;Node22</title>
<path fill="none" stroke="midnightblue" d="M432.207,-691.297C433.881,-747.156 446.19,-904.845 530,-993 535.796,-999.096 542.878,-1004 550.465,-1007.94"/>
<polygon fill="midnightblue" stroke="midnightblue" points="435.706,-691.181 431.993,-681.258 428.708,-691.331 435.706,-691.181"/>
</g>
<!-- Node23 -->
<g id="node23" class="node"><title>Node23</title>
<g id="a_node23"><a xlink:href="classrc_movie_converter_to_q_t.html#a166b19241ef0b0b93ba0210903f53969" target="_top" xlink:title="rcMovieConverterToQT\l::createQTMovie">
<polygon fill="white" stroke="black" points="757.32,-985 757.32,-1017 876.68,-1017 876.68,-985 757.32,-985"/>
<text text-anchor="start" x="765.32" y="-1003" font-family="Helvetica,sans-Serif" font-size="10.00">rcMovieConverterToQT</text>
<text text-anchor="middle" x="817" y="-991" font-family="Helvetica,sans-Serif" font-size="10.00">::createQTMovie</text>
</a>
</g>
</g>
<!-- Node18&#45;&gt;Node23 -->
<g id="edge38" class="edge"><title>Node18&#45;&gt;Node23</title>
<path fill="none" stroke="midnightblue" d="M432.177,-691.421C433.839,-744.818 446.242,-889.263 530,-959 563.553,-986.937 683.62,-996.3 757.095,-999.432"/>
<polygon fill="midnightblue" stroke="midnightblue" points="435.672,-691.127 431.961,-681.204 428.674,-691.275 435.672,-691.127"/>
</g>
<!-- Node24 -->
<g id="node24" class="node"><title>Node24</title>
<g id="a_node24"><a xlink:href="classrc_engine_impl.html#a3ad6dbc54b2a53acae4d345ff14974ae" target="_top" xlink:title="rcEngineImpl::analyzeFocusArea">
<polygon fill="white" stroke="red" points="535.631,-930 535.631,-950 698.369,-950 698.369,-930 535.631,-930"/>
<text text-anchor="middle" x="617" y="-936" font-family="Helvetica,sans-Serif" font-size="10.00">rcEngineImpl::analyzeFocusArea</text>
</a>
</g>
</g>
<!-- Node18&#45;&gt;Node24 -->
<g id="edge23" class="edge"><title>Node18&#45;&gt;Node24</title>
<path fill="none" stroke="midnightblue" d="M433.738,-691.177C438.96,-738.761 458.867,-858.59 530,-920 534.641,-924.007 539.932,-927.25 545.555,-929.87"/>
<polygon fill="midnightblue" stroke="midnightblue" points="437.218,-690.799 432.746,-681.193 430.252,-691.49 437.218,-690.799"/>
</g>
<!-- Node25 -->
<g id="node25" class="node"><title>Node25</title>
<g id="a_node25"><a xlink:href="classrc_kinetoscope.html#aeb4e292dbf28c00e8aa73b18debdc6d6" target="_top" xlink:title="rcKinetoscope::associate">
<polygon fill="white" stroke="red" points="553.414,-891 553.414,-911 680.586,-911 680.586,-891 553.414,-891"/>
<text text-anchor="middle" x="617" y="-897" font-family="Helvetica,sans-Serif" font-size="10.00">rcKinetoscope::associate</text>
</a>
</g>
</g>
<!-- Node18&#45;&gt;Node25 -->
<g id="edge24" class="edge"><title>Node18&#45;&gt;Node25</title>
<path fill="none" stroke="midnightblue" d="M435.909,-691.241C444.918,-732.351 471.05,-825.954 530,-876 537.705,-882.541 547.041,-887.372 556.684,-890.94"/>
<polygon fill="midnightblue" stroke="midnightblue" points="439.312,-690.411 433.851,-681.331 432.458,-691.834 439.312,-690.411"/>
</g>
<!-- Node26 -->
<g id="node26" class="node"><title>Node26</title>
<g id="a_node26"><a xlink:href="classrc_image_canvas_g_l.html#a1904f80d39ae3f7f162dbf6d75c12e81" target="_top" xlink:title="rcImageCanvasGL::buildImage\lDlist">
<polygon fill="white" stroke="red" points="740.077,-517 740.077,-549 893.923,-549 893.923,-517 740.077,-517"/>
<text text-anchor="start" x="748.077" y="-535" font-family="Helvetica,sans-Serif" font-size="10.00">rcImageCanvasGL::buildImage</text>
<text text-anchor="middle" x="817" y="-523" font-family="Helvetica,sans-Serif" font-size="10.00">Dlist</text>
</a>
</g>
</g>
<!-- Node18&#45;&gt;Node26 -->
<g id="edge25" class="edge"><title>Node18&#45;&gt;Node26</title>
<path fill="none" stroke="midnightblue" d="M458.533,-667.407C470.528,-664.626 484.18,-659.703 494,-651 522.573,-625.675 499.345,-595.761 530,-573 562.304,-549.015 666.52,-539.382 739.779,-535.533"/>
<polygon fill="midnightblue" stroke="midnightblue" points="457.708,-664.001 448.556,-669.341 459.04,-670.874 457.708,-664.001"/>
</g>
<!-- Node27 -->
<g id="node27" class="node"><title>Node27</title>
<g id="a_node27"><a xlink:href="classrc_video_cache.html#a740ca7a9e79a349d4c5da43db57fe7a0" target="_top" xlink:title="rcVideoCache::camLoad">
<polygon fill="white" stroke="red" points="554.334,-813 554.334,-833 679.666,-833 679.666,-813 554.334,-813"/>
<text text-anchor="middle" x="617" y="-819" font-family="Helvetica,sans-Serif" font-size="10.00">rcVideoCache::camLoad</text>
</a>
</g>
</g>
<!-- Node18&#45;&gt;Node27 -->
<g id="edge26" class="edge"><title>Node18&#45;&gt;Node27</title>
<path fill="none" stroke="midnightblue" d="M440.827,-690.34C455.187,-719.525 486.442,-774.442 530,-803 537.307,-807.791 545.624,-811.44 554.138,-814.218"/>
<polygon fill="midnightblue" stroke="midnightblue" points="443.922,-688.697 436.461,-681.175 437.602,-691.708 443.922,-688.697"/>
</g>
<!-- Node28 -->
<g id="node28" class="node"><title>Node28</title>
<g id="a_node28"><a xlink:href="classrc_engine_base_impl.html#a3694823ddc3764b560ecb4a5c1d205f9" target="_top" xlink:title="rcEngineBaseImpl::checkSettings">
<polygon fill="white" stroke="red" points="534.518,-774 534.518,-794 699.482,-794 699.482,-774 534.518,-774"/>
<text text-anchor="middle" x="617" y="-780" font-family="Helvetica,sans-Serif" font-size="10.00">rcEngineBaseImpl::checkSettings</text>
</a>
</g>
</g>
<!-- Node18&#45;&gt;Node28 -->
<g id="edge27" class="edge"><title>Node18&#45;&gt;Node28</title>
<path fill="none" stroke="midnightblue" d="M445.975,-689.175C463.333,-710.441 494.967,-745.14 530,-764 537.558,-768.069 545.925,-771.315 554.385,-773.903"/>
<polygon fill="midnightblue" stroke="midnightblue" points="448.611,-686.866 439.642,-681.226 443.136,-691.228 448.611,-686.866"/>
</g>
<!-- Node29 -->
<g id="node29" class="node"><title>Node29</title>
<g id="a_node29"><a xlink:href="classrc_engine_movie_saver.html#a32276bec2dea00cc5439e6f7cd3d586c" target="_top" xlink:title="rcEngineMovieSaver\l::closeHdlr">
<polygon fill="white" stroke="red" points="562.867,-723 562.867,-755 671.133,-755 671.133,-723 562.867,-723"/>
<text text-anchor="start" x="570.867" y="-741" font-family="Helvetica,sans-Serif" font-size="10.00">rcEngineMovieSaver</text>
<text text-anchor="middle" x="617" y="-729" font-family="Helvetica,sans-Serif" font-size="10.00">::closeHdlr</text>
</a>
</g>
</g>
<!-- Node18&#45;&gt;Node29 -->
<g id="edge28" class="edge"><title>Node18&#45;&gt;Node29</title>
<path fill="none" stroke="midnightblue" d="M457.944,-683.057C477.517,-691.922 505.152,-703.951 530,-713 540.406,-716.79 551.655,-720.477 562.479,-723.827"/>
<polygon fill="midnightblue" stroke="midnightblue" points="459.317,-679.836 448.766,-678.864 456.408,-686.203 459.317,-679.836"/>
</g>
<!-- Node30 -->
<g id="node30" class="node"><title>Node30</title>
<g id="a_node30"><a xlink:href="classrc_video_cache.html#afde139e2a9d46908003beb798983ed92" target="_top" xlink:title="rcVideoCache::cnvLoad">
<polygon fill="white" stroke="red" points="556,-684 556,-704 678,-704 678,-684 556,-684"/>
<text text-anchor="middle" x="617" y="-690" font-family="Helvetica,sans-Serif" font-size="10.00">rcVideoCache::cnvLoad</text>
</a>
</g>
</g>
<!-- Node18&#45;&gt;Node30 -->
<g id="edge29" class="edge"><title>Node18&#45;&gt;Node30</title>
<path fill="none" stroke="midnightblue" d="M458.594,-674.324C483.872,-677.484 522.793,-682.349 555.607,-686.451"/>
<polygon fill="midnightblue" stroke="midnightblue" points="459.01,-670.849 448.653,-673.082 458.142,-677.795 459.01,-670.849"/>
</g>
<!-- Node31 -->
<g id="node31" class="node"><title>Node31</title>
<g id="a_node31"><a xlink:href="classrc_polygon.html#a24a3347f6c64febad2b5d6d07c61b63c" target="_top" xlink:title="rcPolygon::contains">
<polygon fill="white" stroke="black" points="765.365,-745 765.365,-765 868.635,-765 868.635,-745 765.365,-745"/>
<text text-anchor="middle" x="817" y="-751" font-family="Helvetica,sans-Serif" font-size="10.00">rcPolygon::contains</text>
</a>
</g>
</g>
<!-- Node18&#45;&gt;Node31 -->
<g id="edge30" class="edge"><title>Node18&#45;&gt;Node31</title>
<path fill="none" stroke="midnightblue" d="M436.51,-690.983C446.189,-728.55 472.875,-808.897 530,-842 596.911,-880.774 630.845,-867.075 704,-842 749.185,-826.512 790.206,-784.536 807.425,-765.112"/>
<polygon fill="midnightblue" stroke="midnightblue" points="439.893,-690.083 434.128,-681.195 433.092,-691.739 439.893,-690.083"/>
</g>
<!-- Node32 -->
<g id="node32" class="node"><title>Node32</title>
<g id="a_node32"><a xlink:href="classrc_movie_converter_to_q_t.html#a36c6fbe2132af1466f147840958563d3" target="_top" xlink:title="rcMovieConverterToQT\l::convert">
<polygon fill="white" stroke="red" points="557.32,-582 557.32,-614 676.68,-614 676.68,-582 557.32,-582"/>
<text text-anchor="start" x="565.32" y="-600" font-family="Helvetica,sans-Serif" font-size="10.00">rcMovieConverterToQT</text>
<text text-anchor="middle" x="617" y="-588" font-family="Helvetica,sans-Serif" font-size="10.00">::convert</text>
</a>
</g>
</g>
<!-- Node18&#45;&gt;Node32 -->
<g id="edge31" class="edge"><title>Node18&#45;&gt;Node32</title>
<path fill="none" stroke="midnightblue" d="M458.405,-664.577C469.711,-661.3 482.85,-656.773 494,-651 511.76,-641.804 512.155,-633.032 530,-624 538.489,-619.703 547.816,-615.978 557.099,-612.796"/>
<polygon fill="midnightblue" stroke="midnightblue" points="457.376,-661.229 448.647,-667.233 459.215,-667.983 457.376,-661.229"/>
</g>
<!-- Node33 -->
<g id="node33" class="node"><title>Node33</title>
<g id="a_node33"><a xlink:href="classrc_movie_converter_to_rfy.html#af3af0dd934f527a9c08669e49f7f2304" target="_top" xlink:title="rcMovieConverterToRfy\l::convert">
<polygon fill="white" stroke="red" points="756.764,-217 756.764,-249 877.236,-249 877.236,-217 756.764,-217"/>
<text text-anchor="start" x="764.764" y="-235" font-family="Helvetica,sans-Serif" font-size="10.00">rcMovieConverterToRfy</text>
<text text-anchor="middle" x="817" y="-223" font-family="Helvetica,sans-Serif" font-size="10.00">::convert</text>
</a>
</g>
</g>
<!-- Node18&#45;&gt;Node33 -->
<g id="edge32" class="edge"><title>Node18&#45;&gt;Node33</title>
<path fill="none" stroke="midnightblue" d="M458.713,-669.125C471.405,-666.769 485.604,-661.708 494,-651 563.42,-562.464 447.666,-222.674 530,-146 586.594,-93.2971 630.845,-120.925 704,-146 744.993,-160.051 782.558,-195.903 802.033,-216.938"/>
<polygon fill="midnightblue" stroke="midnightblue" points="457.99,-665.692 448.566,-670.533 458.952,-672.625 457.99,-665.692"/>
</g>
<!-- Node34 -->
<g id="node34" class="node"><title>Node34</title>
<g id="a_node34"><a xlink:href="classrc_polygon.html#a589db645c2f757064903220d41721d2e" target="_top" xlink:title="rcPolygon::convexCompared\lToConvex">
<polygon fill="white" stroke="red" points="544.801,-633 544.801,-665 689.199,-665 689.199,-633 544.801,-633"/>
<text text-anchor="start" x="552.801" y="-651" font-family="Helvetica,sans-Serif" font-size="10.00">rcPolygon::convexCompared</text>
<text text-anchor="middle" x="617" y="-639" font-family="Helvetica,sans-Serif" font-size="10.00">ToConvex</text>
</a>
</g>
</g>
<!-- Node18&#45;&gt;Node34 -->
<g id="edge33" class="edge"><title>Node18&#45;&gt;Node34</title>
<path fill="none" stroke="midnightblue" d="M458.779,-667.798C481.283,-665.108 514.505,-661.135 544.619,-657.535"/>
<polygon fill="midnightblue" stroke="midnightblue" points="458.167,-664.346 448.653,-669.009 458.998,-671.297 458.167,-664.346"/>
</g>
<!-- Node35 -->
<g id="node35" class="node"><title>Node35</title>
<g id="a_node35"><a xlink:href="classrc_polygon.html#a41ee396a9453685f11c2cc8d15af5738" target="_top" xlink:title="rcPolygon::convexIntersection">
<polygon fill="white" stroke="red" points="542.298,-465 542.298,-485 691.702,-485 691.702,-465 542.298,-465"/>
<text text-anchor="middle" x="617" y="-471" font-family="Helvetica,sans-Serif" font-size="10.00">rcPolygon::convexIntersection</text>
</a>
</g>
</g>
<!-- Node18&#45;&gt;Node35 -->
<g id="edge35" class="edge"><title>Node18&#45;&gt;Node35</title>
<path fill="none" stroke="midnightblue" d="M458.522,-668.449C470.919,-665.911 484.916,-660.893 494,-651 542.125,-598.587 479.728,-545.357 530,-495 534.007,-490.986 538.652,-487.715 543.668,-485.055"/>
<polygon fill="midnightblue" stroke="midnightblue" points="457.939,-664.997 448.627,-670.049 459.057,-671.908 457.939,-664.997"/>
</g>
<!-- Node36 -->
<g id="node36" class="node"><title>Node36</title>
<g id="a_node36"><a xlink:href="classrc_track_manager.html#a6588e09274d99a587efd68fba1257d7d" target="_top" xlink:title="rcTrackManager::copyTrack\lToClipboard">
<polygon fill="white" stroke="red" points="547.127,-414 547.127,-446 686.873,-446 686.873,-414 547.127,-414"/>
<text text-anchor="start" x="555.127" y="-432" font-family="Helvetica,sans-Serif" font-size="10.00">rcTrackManager::copyTrack</text>
<text text-anchor="middle" x="617" y="-420" font-family="Helvetica,sans-Serif" font-size="10.00">ToClipboard</text>
</a>
</g>
</g>
<!-- Node18&#45;&gt;Node36 -->
<g id="edge36" class="edge"><title>Node18&#45;&gt;Node36</title>
<path fill="none" stroke="midnightblue" d="M458.467,-668.669C470.972,-666.19 485.079,-661.158 494,-651 552.156,-584.781 471.236,-521.68 530,-456 534.784,-450.653 540.626,-446.388 546.99,-442.989"/>
<polygon fill="midnightblue" stroke="midnightblue" points="457.838,-665.224 448.488,-670.207 458.904,-672.143 457.838,-665.224"/>
</g>
<!-- Node37 -->
<g id="node37" class="node"><title>Node37</title>
<g id="a_node37"><a xlink:href="classrc_polygon.html#a3fd238c5f728095b4325cc356e6bba55" target="_top" xlink:title="rcPolygon::createConvexHull">
<polygon fill="white" stroke="red" points="544.525,-375 544.525,-395 689.475,-395 689.475,-375 544.525,-375"/>
<text text-anchor="middle" x="617" y="-381" font-family="Helvetica,sans-Serif" font-size="10.00">rcPolygon::createConvexHull</text>
</a>
</g>
</g>
<!-- Node18&#45;&gt;Node37 -->
<g id="edge37" class="edge"><title>Node18&#45;&gt;Node37</title>
<path fill="none" stroke="midnightblue" d="M458.629,-668.809C471.175,-666.365 485.27,-661.322 494,-651 565.356,-566.631 455.183,-486.315 530,-405 534.152,-400.488 539.106,-396.897 544.51,-394.051"/>
<polygon fill="midnightblue" stroke="midnightblue" points="457.978,-665.367 448.607,-670.309 459.014,-672.29 457.978,-665.367"/>
</g>
<!-- Node38 -->
<g id="node38" class="node"><title>Node38</title>
<g id="a_node38"><a xlink:href="classrc_movie_converter_to_rfy.html#a14ff503f33fc8496d34f367992430ebb" target="_top" xlink:title="rcMovieConverterToRfy\l::createRfyMovie">
<polygon fill="white" stroke="black" points="556.764,-324 556.764,-356 677.236,-356 677.236,-324 556.764,-324"/>
<text text-anchor="start" x="564.764" y="-342" font-family="Helvetica,sans-Serif" font-size="10.00">rcMovieConverterToRfy</text>
<text text-anchor="middle" x="617" y="-330" font-family="Helvetica,sans-Serif" font-size="10.00">::createRfyMovie</text>
</a>
</g>
</g>
<!-- Node18&#45;&gt;Node38 -->
<g id="edge39" class="edge"><title>Node18&#45;&gt;Node38</title>
<path fill="none" stroke="midnightblue" d="M458.716,-668.882C471.284,-666.456 485.372,-661.408 494,-651 575.485,-552.712 447.611,-463.532 530,-366 536.945,-357.778 546.394,-352.1 556.493,-348.191"/>
<polygon fill="midnightblue" stroke="midnightblue" points="458.053,-665.442 448.67,-670.362 459.073,-672.367 458.053,-665.442"/>
</g>
<!-- Node39 -->
<g id="node39" class="node"><title>Node39</title>
<g id="a_node39"><a xlink:href="classrc_model_domain.html#a2c29afd7288ef7c96bc7a50d3d467f44" target="_top" xlink:title="rcModelDomain::customEvent">
<polygon fill="white" stroke="black" points="542.308,-285 542.308,-305 691.692,-305 691.692,-285 542.308,-285"/>
<text text-anchor="middle" x="617" y="-291" font-family="Helvetica,sans-Serif" font-size="10.00">rcModelDomain::customEvent</text>
</a>
</g>
</g>
<!-- Node18&#45;&gt;Node39 -->
<g id="edge41" class="edge"><title>Node18&#45;&gt;Node39</title>
<path fill="none" stroke="midnightblue" d="M458.8,-668.951C471.389,-666.543 485.47,-661.489 494,-651 588.757,-534.478 430.459,-427.464 530,-315 533.454,-311.097 537.508,-307.878 541.941,-305.231"/>
<polygon fill="midnightblue" stroke="midnightblue" points="458.125,-665.512 448.731,-670.412 459.13,-672.44 458.125,-665.512"/>
</g>
<!-- Node40 -->
<g id="node40" class="node"><title>Node40</title>
<g id="a_node40"><a xlink:href="classrc_value_histogram.html#aaeb8972aafe6ff4d0865de1d07a7d51d" target="_top" xlink:title="rcValueHistogram::debugDisplay">
<polygon fill="white" stroke="black" points="536.556,-246 536.556,-266 697.444,-266 697.444,-246 536.556,-246"/>
<text text-anchor="middle" x="617" y="-252" font-family="Helvetica,sans-Serif" font-size="10.00">rcValueHistogram::debugDisplay</text>
</a>
</g>
</g>
<!-- Node18&#45;&gt;Node40 -->
<g id="edge42" class="edge"><title>Node18&#45;&gt;Node40</title>
<path fill="none" stroke="midnightblue" d="M458.604,-669.038C471.268,-666.66 485.474,-661.605 494,-651 546.59,-585.58 474.375,-337.86 530,-275 533.141,-271.45 536.783,-268.481 540.757,-266.005"/>
<polygon fill="midnightblue" stroke="midnightblue" points="457.898,-665.603 448.487,-670.47 458.879,-672.534 457.898,-665.603"/>
</g>
<!-- Node41 -->
<g id="node41" class="node"><title>Node41</title>
<g id="a_node41"><a xlink:href="classrc_image_canvas_g_l.html#a1187f6d34a60d5652113e04f34ed3b00" target="_top" xlink:title="rcImageCanvasGL::detectApple\lExtensions">
<polygon fill="white" stroke="red" points="538.128,-195 538.128,-227 695.872,-227 695.872,-195 538.128,-195"/>
<text text-anchor="start" x="546.128" y="-213" font-family="Helvetica,sans-Serif" font-size="10.00">rcImageCanvasGL::detectApple</text>
<text text-anchor="middle" x="617" y="-201" font-family="Helvetica,sans-Serif" font-size="10.00">Extensions</text>
</a>
</g>
</g>
<!-- Node18&#45;&gt;Node41 -->
<g id="edge43" class="edge"><title>Node18&#45;&gt;Node41</title>
<path fill="none" stroke="midnightblue" d="M458.644,-669.07C471.319,-666.7 485.522,-661.643 494,-651 551.675,-578.595 471.276,-307.557 530,-236 532.762,-232.635 535.948,-229.706 539.434,-227.16"/>
<polygon fill="midnightblue" stroke="midnightblue" points="457.932,-665.636 448.516,-670.493 458.906,-672.568 457.932,-665.636"/>
</g>
<!-- Node42 -->
<g id="node42" class="node"><title>Node42</title>
<g id="a_node42"><a xlink:href="classdcam__formats.html#a8a7f311f7b4c0e0268643e5abf0f9a53" target="_top" xlink:title="dcam_formats::displayFormat">
<polygon fill="white" stroke="black" points="543.146,-156 543.146,-176 690.854,-176 690.854,-156 543.146,-156"/>
<text text-anchor="middle" x="617" y="-162" font-family="Helvetica,sans-Serif" font-size="10.00">dcam_formats::displayFormat</text>
</a>
</g>
</g>
<!-- Node18&#45;&gt;Node42 -->
<g id="edge44" class="edge"><title>Node18&#45;&gt;Node42</title>
<path fill="none" stroke="midnightblue" d="M458.686,-669.104C471.372,-666.742 485.572,-661.683 494,-651 558.329,-569.456 461.887,-263.411 530,-185 533.71,-180.729 538.144,-177.296 543.016,-174.547"/>
<polygon fill="midnightblue" stroke="midnightblue" points="457.968,-665.67 448.547,-670.518 458.934,-672.603 457.968,-665.67"/>
</g>
<!-- Node43 -->
<g id="node43" class="node"><title>Node43</title>
<g id="a_node43"><a xlink:href="rc__imagecanvasgl_8cpp.html#a06bdf4d459280ad8056cd35cb117966a" target="_top" xlink:title="displayOpenGLError">
<polygon fill="white" stroke="red" points="563.424,-504 563.424,-524 670.576,-524 670.576,-504 563.424,-504"/>
<text text-anchor="middle" x="617" y="-510" font-family="Helvetica,sans-Serif" font-size="10.00">displayOpenGLError</text>
</a>
</g>
</g>
<!-- Node18&#45;&gt;Node43 -->
<g id="edge45" class="edge"><title>Node18&#45;&gt;Node43</title>
<path fill="none" stroke="midnightblue" d="M458.781,-667.98C470.943,-665.326 484.665,-660.345 494,-651 530.952,-614.009 492.512,-575.449 530,-539 539.03,-530.22 550.955,-524.494 563.04,-520.767"/>
<polygon fill="midnightblue" stroke="midnightblue" points="457.885,-664.584 448.643,-669.764 459.098,-671.478 457.885,-664.584"/>
</g>
<!-- Node44 -->
<g id="node44" class="node"><title>Node44</title>
<g id="a_node44"><a xlink:href="rc__imagecanvasgl_8cpp.html#aed415aa70258a228aa1d3761b7fb2081" target="_top" xlink:title="displayOpenGLInfo">
<polygon fill="white" stroke="red" points="566.195,-78 566.195,-98 667.805,-98 667.805,-78 566.195,-78"/>
<text text-anchor="middle" x="617" y="-84" font-family="Helvetica,sans-Serif" font-size="10.00">displayOpenGLInfo</text>
</a>
</g>
</g>
<!-- Node18&#45;&gt;Node44 -->
<g id="edge47" class="edge"><title>Node18&#45;&gt;Node44</title>
<path fill="none" stroke="midnightblue" d="M458.733,-669.14C471.43,-666.788 485.627,-661.726 494,-651 567.729,-556.546 454.903,-206.37 530,-113 538.868,-101.974 552.298,-95.6284 565.926,-92.0282"/>
<polygon fill="midnightblue" stroke="midnightblue" points="458.007,-665.707 448.58,-670.544 458.966,-672.641 458.007,-665.707"/>
</g>
<!-- Node45 -->
<g id="node45" class="node"><title>Node45</title>
<g id="a_node45"><a xlink:href="classrc_image_canvas_g_l.html#afb8bd2211dd5052de546442c93422583" target="_top" xlink:title="rcImageCanvasGL::drawModelRect">
<polygon fill="white" stroke="red" points="529.801,-39 529.801,-59 704.199,-59 704.199,-39 529.801,-39"/>
<text text-anchor="middle" x="617" y="-45" font-family="Helvetica,sans-Serif" font-size="10.00">rcImageCanvasGL::drawModelRect</text>
</a>
</g>
</g>
<!-- Node18&#45;&gt;Node45 -->
<g id="edge48" class="edge"><title>Node18&#45;&gt;Node45</title>
<path fill="none" stroke="midnightblue" d="M458.756,-669.159C471.459,-666.811 485.655,-661.748 494,-651 573.606,-548.474 445.635,-166.647 530,-68 532.981,-64.5138 536.445,-61.5838 540.237,-59.1275"/>
<polygon fill="midnightblue" stroke="midnightblue" points="458.026,-665.726 448.597,-670.557 458.981,-672.66 458.026,-665.726"/>
</g>
<!-- Node46 -->
<g id="node46" class="node"><title>Node46</title>
<g id="a_node46"><a xlink:href="classrc_setting_category.html#a342705f9fa418458f8189a6cb99d4333" target="_top" xlink:title="rcSettingCategory::dump">
<polygon fill="white" stroke="black" points="553.695,-0 553.695,-20 680.305,-20 680.305,-0 553.695,-0"/>
<text text-anchor="middle" x="617" y="-6" font-family="Helvetica,sans-Serif" font-size="10.00">rcSettingCategory::dump</text>
</a>
</g>
</g>
<!-- Node18&#45;&gt;Node46 -->
<g id="edge49" class="edge"><title>Node18&#45;&gt;Node46</title>
<path fill="none" stroke="midnightblue" d="M458.774,-669.172C471.481,-666.828 485.676,-661.764 494,-651 578.7,-541.477 440.216,-134.395 530,-29 536.148,-21.7834 544.362,-16.9479 553.281,-13.7634"/>
<polygon fill="midnightblue" stroke="midnightblue" points="458.041,-665.74 448.61,-670.567 458.993,-672.675 458.041,-665.74"/>
</g>
<!-- Node47 -->
<g id="node47" class="node"><title>Node47</title>
<g id="a_node47"><a xlink:href="classrc_camera_mapper.html#a87e66fe91e90aad76373b8b22bcc5ca9" target="_top" xlink:title="rcCameraMapper::dump">
<polygon fill="white" stroke="black" points="554.813,-1215 554.813,-1235 679.187,-1235 679.187,-1215 554.813,-1215"/>
<text text-anchor="middle" x="617" y="-1221" font-family="Helvetica,sans-Serif" font-size="10.00">rcCameraMapper::dump</text>
</a>
</g>
</g>
<!-- Node18&#45;&gt;Node47 -->
<g id="edge50" class="edge"><title>Node18&#45;&gt;Node47</title>
<path fill="none" stroke="midnightblue" d="M436.668,-690.8C447.631,-737.714 475.49,-859.407 494,-962 503.692,-1015.72 493.002,-1164.86 530,-1205 536.649,-1212.21 545.349,-1217.07 554.658,-1220.3"/>
<polygon fill="midnightblue" stroke="midnightblue" points="440.063,-689.943 434.371,-681.007 433.248,-691.542 440.063,-689.943"/>
</g>
<!-- Node48 -->
<g id="node48" class="node"><title>Node48</title>
<g id="a_node48"><a xlink:href="classrc_point_scan.html#a2b089a8f95865d1866fb8758fbd6d225" target="_top" xlink:title="rcPointScan::dump">
<polygon fill="white" stroke="black" points="566.756,-1176 566.756,-1196 667.244,-1196 667.244,-1176 566.756,-1176"/>
<text text-anchor="middle" x="617" y="-1182" font-family="Helvetica,sans-Serif" font-size="10.00">rcPointScan::dump</text>
</a>
</g>
</g>
<!-- Node18&#45;&gt;Node48 -->
<g id="edge51" class="edge"><title>Node18&#45;&gt;Node48</title>
<path fill="none" stroke="midnightblue" d="M436.479,-690.835C447.033,-737.826 474.077,-859.672 494,-962 511.595,-1052.37 466.674,-1099.17 530,-1166 539.489,-1176.01 552.936,-1181.46 566.384,-1184.31"/>
<polygon fill="midnightblue" stroke="midnightblue" points="439.881,-690.013 434.27,-681.026 433.052,-691.55 439.881,-690.013"/>
</g>
<!-- Node22&#45;&gt;Node23 -->
<g id="edge22" class="edge"><title>Node22&#45;&gt;Node23</title>
<path fill="none" stroke="midnightblue" d="M697.293,-1014.79C717.328,-1012.46 738.485,-1010 757.301,-1007.82"/>
<polygon fill="midnightblue" stroke="midnightblue" points="696.78,-1011.33 687.251,-1015.96 697.588,-1018.28 696.78,-1011.33"/>
</g>
<!-- Node34&#45;&gt;Node31 -->
<g id="edge34" class="edge"><title>Node34&#45;&gt;Node31</title>
<path fill="none" stroke="midnightblue" d="M689.608,-668.662C694.551,-670.624 699.394,-672.736 704,-675 744.1,-694.714 785.378,-728.314 804.716,-744.994"/>
<polygon fill="midnightblue" stroke="midnightblue" points="690.608,-665.3 680.016,-665.076 688.157,-671.857 690.608,-665.3"/>
</g>
<!-- Node38&#45;&gt;Node33 -->
<g id="edge40" class="edge"><title>Node38&#45;&gt;Node33</title>
<path fill="none" stroke="midnightblue" d="M686.7,-321.511C692.651,-319.228 698.496,-316.726 704,-314 739.911,-296.214 776.631,-267.163 797.823,-249.114"/>
<polygon fill="midnightblue" stroke="midnightblue" points="685.503,-318.222 677.294,-324.92 687.888,-324.803 685.503,-318.222"/>
</g>
<!-- Node43&#45;&gt;Node26 -->
<g id="edge46" class="edge"><title>Node43&#45;&gt;Node26</title>
<path fill="none" stroke="midnightblue" d="M680.981,-520.044C699.712,-521.841 720.435,-523.83 739.907,-525.698"/>
<polygon fill="midnightblue" stroke="midnightblue" points="681.089,-516.538 670.8,-519.067 680.42,-523.506 681.089,-516.538"/>
</g>
</g>
</svg>
