<?xml version="1.0" encoding="UTF-8" standalone="no"?>
<!DOCTYPE svg PUBLIC "-//W3C//DTD SVG 1.1//EN"
 "http://www.w3.org/Graphics/SVG/1.1/DTD/svg11.dtd">
<!-- Generated by graphviz version 2.32.0 (20130916.1925)
 -->
<!-- Title: library_manager::close Pages: 1 -->
<svg width="448pt" height="136pt"
 viewBox="0.00 0.00 448.00 136.00" xmlns="http://www.w3.org/2000/svg" xmlns:xlink="http://www.w3.org/1999/xlink">
<g id="graph0" class="graph" transform="scale(1 1) rotate(0) translate(4 132)">
<title>library_manager::close</title>
<polygon fill="white" stroke="white" points="-4,5 -4,-132 445,-132 445,5 -4,5"/>
<!-- Node1 -->
<g id="node1" class="node"><title>Node1</title>
<polygon fill="#bfbfbf" stroke="black" points="0.421387,-28 0.421387,-48 117.579,-48 117.579,-28 0.421387,-28"/>
<text text-anchor="middle" x="59" y="-34" font-family="Helvetica,sans-Serif" font-size="10.00">library_manager::close</text>
</g>
<!-- Node2 -->
<g id="node2" class="node"><title>Node2</title>
<g id="a_node2"><a xlink:href="classlibrary__manager.html#a0cd027b7336471ac38d1b6baf4a62a27" target="_top" xlink:title="library_manager::open">
<polygon fill="white" stroke="black" points="159.971,-51 159.971,-71 276.029,-71 276.029,-51 159.971,-51"/>
<text text-anchor="middle" x="218" y="-57" font-family="Helvetica,sans-Serif" font-size="10.00">library_manager::open</text>
</a>
</g>
</g>
<!-- Node1&#45;&gt;Node2 -->
<g id="edge1" class="edge"><title>Node1&#45;&gt;Node2</title>
<path fill="none" stroke="midnightblue" d="M128.046,-47.9685C138.617,-49.5171 149.446,-51.1035 159.747,-52.6126"/>
<polygon fill="midnightblue" stroke="midnightblue" points="128.417,-44.4855 118.015,-46.499 127.402,-51.4116 128.417,-44.4855"/>
</g>
<!-- Node6 -->
<g id="node6" class="node"><title>Node6</title>
<g id="a_node6"><a xlink:href="classlibrary__manager.html#a45cfddaaf4e1400c68112a843303a531" target="_top" xlink:title="library_manager::~library\l_manager">
<polygon fill="white" stroke="black" points="154.561,-0 154.561,-32 281.439,-32 281.439,-0 154.561,-0"/>
<text text-anchor="start" x="162.561" y="-18" font-family="Helvetica,sans-Serif" font-size="10.00">library_manager::~library</text>
<text text-anchor="middle" x="218" y="-6" font-family="Helvetica,sans-Serif" font-size="10.00">_manager</text>
</a>
</g>
</g>
<!-- Node1&#45;&gt;Node6 -->
<g id="edge5" class="edge"><title>Node1&#45;&gt;Node6</title>
<path fill="none" stroke="midnightblue" d="M128.172,-28.4473C136.914,-27.2222 145.831,-25.9728 154.477,-24.7612"/>
<polygon fill="midnightblue" stroke="midnightblue" points="127.432,-25.0166 118.015,-29.8705 128.404,-31.9489 127.432,-25.0166"/>
</g>
<!-- Node3 -->
<g id="node3" class="node"><title>Node3</title>
<g id="a_node3"><a xlink:href="classlibrary__manager.html#a12e20333489fef2db96ea08e93d821f1" target="_top" xlink:title="library_manager::load\l_mappings">
<polygon fill="white" stroke="black" points="322.641,-96 322.641,-128 435.359,-128 435.359,-96 322.641,-96"/>
<text text-anchor="start" x="330.641" y="-114" font-family="Helvetica,sans-Serif" font-size="10.00">library_manager::load</text>
<text text-anchor="middle" x="379" y="-102" font-family="Helvetica,sans-Serif" font-size="10.00">_mappings</text>
</a>
</g>
</g>
<!-- Node2&#45;&gt;Node3 -->
<g id="edge2" class="edge"><title>Node2&#45;&gt;Node3</title>
<path fill="none" stroke="midnightblue" d="M260.165,-74.2038C280.845,-80.837 306.075,-88.9297 327.876,-95.9223"/>
<polygon fill="midnightblue" stroke="midnightblue" points="261.004,-70.7975 250.413,-71.076 258.866,-77.4631 261.004,-70.7975"/>
</g>
<!-- Node4 -->
<g id="node4" class="node"><title>Node4</title>
<g id="a_node4"><a xlink:href="classlibrary__manager.html#a595ca94278cb510626c5fd37d80bebcf" target="_top" xlink:title="library_manager::set\l_ini_manager">
<polygon fill="white" stroke="black" points="325.424,-45 325.424,-77 432.576,-77 432.576,-45 325.424,-45"/>
<text text-anchor="start" x="333.424" y="-63" font-family="Helvetica,sans-Serif" font-size="10.00">library_manager::set</text>
<text text-anchor="middle" x="379" y="-51" font-family="Helvetica,sans-Serif" font-size="10.00">_ini_manager</text>
</a>
</g>
</g>
<!-- Node2&#45;&gt;Node4 -->
<g id="edge3" class="edge"><title>Node2&#45;&gt;Node4</title>
<path fill="none" stroke="midnightblue" d="M286.623,-61C299.515,-61 312.833,-61 325.18,-61"/>
<polygon fill="midnightblue" stroke="midnightblue" points="286.403,-57.5001 276.403,-61 286.403,-64.5001 286.403,-57.5001"/>
</g>
<!-- Node5 -->
<g id="node5" class="node"><title>Node5</title>
<g id="a_node5"><a xlink:href="classlibrary__manager.html#aa0f9af009d4e4cbba74d88544e328323" target="_top" xlink:title="library_manager::create">
<polygon fill="white" stroke="black" points="318.197,-6 318.197,-26 439.803,-26 439.803,-6 318.197,-6"/>
<text text-anchor="middle" x="379" y="-12" font-family="Helvetica,sans-Serif" font-size="10.00">library_manager::create</text>
</a>
</g>
</g>
<!-- Node2&#45;&gt;Node5 -->
<g id="edge4" class="edge"><title>Node2&#45;&gt;Node5</title>
<path fill="none" stroke="midnightblue" d="M264.569,-48.1032C289.309,-41.1013 319.446,-32.5719 342.436,-26.0652"/>
<polygon fill="midnightblue" stroke="midnightblue" points="263.352,-44.8101 254.683,-50.9011 265.258,-51.5455 263.352,-44.8101"/>
</g>
</g>
</svg>
