<?xml version="1.0" encoding="UTF-8" standalone="no"?>
<!DOCTYPE svg PUBLIC "-//W3C//DTD SVG 1.1//EN"
 "http://www.w3.org/Graphics/SVG/1.1/DTD/svg11.dtd">
<!-- Generated by graphviz version 2.32.0 (20130916.1925)
 -->
<!-- Title: rcWindow::canTrim Pages: 1 -->
<svg width="338pt" height="301pt"
 viewBox="0.00 0.00 338.00 301.00" xmlns="http://www.w3.org/2000/svg" xmlns:xlink="http://www.w3.org/1999/xlink">
<g id="graph0" class="graph" transform="scale(1 1) rotate(0) translate(4 297)">
<title>rcWindow::canTrim</title>
<polygon fill="white" stroke="white" points="-4,5 -4,-297 335,-297 335,5 -4,5"/>
<!-- Node1 -->
<g id="node1" class="node"><title>Node1</title>
<polygon fill="#bfbfbf" stroke="black" points="0.399902,-136 0.399902,-156 101.6,-156 101.6,-136 0.399902,-136"/>
<text text-anchor="middle" x="51" y="-142" font-family="Helvetica,sans-Serif" font-size="10.00">rcWindow::canTrim</text>
</g>
<!-- Node2 -->
<g id="node2" class="node"><title>Node2</title>
<g id="a_node2"><a xlink:href="classrc_frame.html#a47538b9ca13f7fd1c5c9440e5ab984af" target="_top" xlink:title="rcFrame::height">
<polygon fill="white" stroke="black" points="145.988,-273 145.988,-293 232.012,-293 232.012,-273 145.988,-273"/>
<text text-anchor="middle" x="189" y="-279" font-family="Helvetica,sans-Serif" font-size="10.00">rcFrame::height</text>
</a>
</g>
</g>
<!-- Node1&#45;&gt;Node2 -->
<g id="edge1" class="edge"><title>Node1&#45;&gt;Node2</title>
<path fill="none" stroke="midnightblue" d="M56.9918,-156.251C68.3675,-178.627 98.3292,-232.293 138,-263 140.471,-264.913 143.149,-266.667 145.938,-268.271"/>
<polygon fill="midnightblue" stroke="midnightblue" points="144.6,-271.517 155.105,-272.896 147.754,-265.267 144.6,-271.517"/>
</g>
<!-- Node3 -->
<g id="node3" class="node"><title>Node3</title>
<g id="a_node3"><a xlink:href="classrc_rectangle.html#abe44205fccdffe80fbfdd4de79b406dc" target="_top" xlink:title="rcRectangle::height">
<polygon fill="white" stroke="black" points="137.919,-234 137.919,-254 240.081,-254 240.081,-234 137.919,-234"/>
<text text-anchor="middle" x="189" y="-240" font-family="Helvetica,sans-Serif" font-size="10.00">rcRectangle::height</text>
</a>
</g>
</g>
<!-- Node1&#45;&gt;Node3 -->
<g id="edge2" class="edge"><title>Node1&#45;&gt;Node3</title>
<path fill="none" stroke="midnightblue" d="M60.8788,-156.111C75.5475,-172.304 106.378,-204.237 138,-224 141.339,-226.086 144.932,-228.028 148.605,-229.815"/>
<polygon fill="midnightblue" stroke="midnightblue" points="147.246,-233.041 157.803,-233.936 150.108,-226.653 147.246,-233.041"/>
</g>
<!-- Node4 -->
<g id="node4" class="node"><title>Node4</title>
<g id="a_node4"><a xlink:href="classrc_frame.html#a7229e5529f0500d7aa8129ff915bd441" target="_top" xlink:title="rcFrame::width">
<polygon fill="white" stroke="black" points="147.938,-195 147.938,-215 230.062,-215 230.062,-195 147.938,-195"/>
<text text-anchor="middle" x="189" y="-201" font-family="Helvetica,sans-Serif" font-size="10.00">rcFrame::width</text>
</a>
</g>
</g>
<!-- Node1&#45;&gt;Node4 -->
<g id="edge3" class="edge"><title>Node1&#45;&gt;Node4</title>
<path fill="none" stroke="midnightblue" d="M73.4399,-156.048C90.7665,-164.09 115.833,-175.546 138,-185 142.769,-187.034 147.818,-189.125 152.802,-191.153"/>
<polygon fill="midnightblue" stroke="midnightblue" points="151.632,-194.455 162.215,-194.944 154.247,-187.962 151.632,-194.455"/>
</g>
<!-- Node5 -->
<g id="node5" class="node"><title>Node5</title>
<g id="a_node5"><a xlink:href="classrc_rectangle.html#a37c8043dcda3dc1076e57c4a1c219263" target="_top" xlink:title="rcRectangle::width">
<polygon fill="white" stroke="black" points="139.87,-156 139.87,-176 238.13,-176 238.13,-156 139.87,-156"/>
<text text-anchor="middle" x="189" y="-162" font-family="Helvetica,sans-Serif" font-size="10.00">rcRectangle::width</text>
</a>
</g>
</g>
<!-- Node1&#45;&gt;Node5 -->
<g id="edge4" class="edge"><title>Node1&#45;&gt;Node5</title>
<path fill="none" stroke="midnightblue" d="M101.869,-153.334C110.888,-154.66 120.366,-156.054 129.603,-157.412"/>
<polygon fill="midnightblue" stroke="midnightblue" points="129.095,-160.875 139.498,-158.867 130.114,-153.95 129.095,-160.875"/>
</g>
<!-- Node6 -->
<g id="node6" class="node"><title>Node6</title>
<g id="a_node6"><a xlink:href="classrc_rect.html#ac0f95519a41dcf7e33bec85ccb8e7aff" target="_top" xlink:title="rcRect::x">
<polygon fill="white" stroke="black" points="161.276,-117 161.276,-137 216.724,-137 216.724,-117 161.276,-117"/>
<text text-anchor="middle" x="189" y="-123" font-family="Helvetica,sans-Serif" font-size="10.00">rcRect::x</text>
</a>
</g>
</g>
<!-- Node1&#45;&gt;Node6 -->
<g id="edge5" class="edge"><title>Node1&#45;&gt;Node6</title>
<path fill="none" stroke="midnightblue" d="M101.869,-139.033C118.13,-136.761 135.884,-134.281 151.025,-132.166"/>
<polygon fill="midnightblue" stroke="midnightblue" points="151.62,-135.617 161.039,-130.767 150.651,-128.684 151.62,-135.617"/>
</g>
<!-- Node8 -->
<g id="node8" class="node"><title>Node8</title>
<g id="a_node8"><a xlink:href="classrc_window.html#a98432b2a313c3926da82a837448c0189" target="_top" xlink:title="rcWindow::x">
<polygon fill="white" stroke="black" points="153.773,-78 153.773,-98 224.227,-98 224.227,-78 153.773,-78"/>
<text text-anchor="middle" x="189" y="-84" font-family="Helvetica,sans-Serif" font-size="10.00">rcWindow::x</text>
</a>
</g>
</g>
<!-- Node1&#45;&gt;Node8 -->
<g id="edge7" class="edge"><title>Node1&#45;&gt;Node8</title>
<path fill="none" stroke="midnightblue" d="M74.1795,-135.94C91.4913,-128.151 116.184,-117.18 138,-108 142.831,-105.967 147.944,-103.866 152.984,-101.823"/>
<polygon fill="midnightblue" stroke="midnightblue" points="154.519,-104.978 162.492,-98.0003 151.908,-98.483 154.519,-104.978"/>
</g>
<!-- Node9 -->
<g id="node9" class="node"><title>Node9</title>
<g id="a_node9"><a xlink:href="classrc_rect.html#a50236160751c949d8718f8d4d17f7923" target="_top" xlink:title="rcRect::y">
<polygon fill="white" stroke="black" points="161.276,-39 161.276,-59 216.724,-59 216.724,-39 161.276,-39"/>
<text text-anchor="middle" x="189" y="-45" font-family="Helvetica,sans-Serif" font-size="10.00">rcRect::y</text>
</a>
</g>
</g>
<!-- Node1&#45;&gt;Node9 -->
<g id="edge8" class="edge"><title>Node1&#45;&gt;Node9</title>
<path fill="none" stroke="midnightblue" d="M61.1463,-135.767C75.9477,-119.715 106.667,-88.4426 138,-69 142.357,-66.2965 147.142,-63.8334 151.971,-61.6319"/>
<polygon fill="midnightblue" stroke="midnightblue" points="153.364,-64.8429 161.213,-57.726 150.639,-58.3951 153.364,-64.8429"/>
</g>
<!-- Node11 -->
<g id="node11" class="node"><title>Node11</title>
<g id="a_node11"><a xlink:href="classrc_window.html#af6e384a7f4f830b0ba48e5acc8ba6828" target="_top" xlink:title="rcWindow::y">
<polygon fill="white" stroke="black" points="153.773,-0 153.773,-20 224.227,-20 224.227,-0 153.773,-0"/>
<text text-anchor="middle" x="189" y="-6" font-family="Helvetica,sans-Serif" font-size="10.00">rcWindow::y</text>
</a>
</g>
</g>
<!-- Node1&#45;&gt;Node11 -->
<g id="edge10" class="edge"><title>Node1&#45;&gt;Node11</title>
<path fill="none" stroke="midnightblue" d="M57.0152,-135.838C68.4375,-113.657 98.4865,-60.4564 138,-30 140.592,-28.0024 143.409,-26.1771 146.343,-24.5144"/>
<polygon fill="midnightblue" stroke="midnightblue" points="147.995,-27.6016 155.38,-20.0044 144.869,-21.3382 147.995,-27.6016"/>
</g>
<!-- Node7 -->
<g id="node7" class="node"><title>Node7</title>
<g id="a_node7"><a xlink:href="classrc_pair.html#ad1a3cb1e7fdbe119ce1295514b1bb49d" target="_top" xlink:title="rcPair::x">
<polygon fill="white" stroke="black" points="276.665,-117 276.665,-137 329.335,-137 329.335,-117 276.665,-117"/>
<text text-anchor="middle" x="303" y="-123" font-family="Helvetica,sans-Serif" font-size="10.00">rcPair::x</text>
</a>
</g>
</g>
<!-- Node6&#45;&gt;Node7 -->
<g id="edge6" class="edge"><title>Node6&#45;&gt;Node7</title>
<path fill="none" stroke="midnightblue" d="M216.827,-127C231.691,-127 250.36,-127 266.428,-127"/>
<polygon fill="midnightblue" stroke="midnightblue" points="266.546,-130.5 276.546,-127 266.546,-123.5 266.546,-130.5"/>
</g>
<!-- Node10 -->
<g id="node10" class="node"><title>Node10</title>
<g id="a_node10"><a xlink:href="classrc_pair.html#a87400f83938e920c405c40aa449d3607" target="_top" xlink:title="rcPair::y">
<polygon fill="white" stroke="black" points="276.665,-39 276.665,-59 329.335,-59 329.335,-39 276.665,-39"/>
<text text-anchor="middle" x="303" y="-45" font-family="Helvetica,sans-Serif" font-size="10.00">rcPair::y</text>
</a>
</g>
</g>
<!-- Node9&#45;&gt;Node10 -->
<g id="edge9" class="edge"><title>Node9&#45;&gt;Node10</title>
<path fill="none" stroke="midnightblue" d="M216.827,-49C231.691,-49 250.36,-49 266.428,-49"/>
<polygon fill="midnightblue" stroke="midnightblue" points="266.546,-52.5001 276.546,-49 266.546,-45.5001 266.546,-52.5001"/>
</g>
</g>
</svg>
