<?xml version="1.0" encoding="UTF-8" standalone="no"?>
<!DOCTYPE svg PUBLIC "-//W3C//DTD SVG 1.1//EN"
 "http://www.w3.org/Graphics/SVG/1.1/DTD/svg11.dtd">
<!-- Generated by graphviz version 2.32.0 (20130916.1925)
 -->
<!-- Title: rcVideoWriter::flush Pages: 1 -->
<svg width="802pt" height="145pt"
 viewBox="0.00 0.00 802.00 145.00" xmlns="http://www.w3.org/2000/svg" xmlns:xlink="http://www.w3.org/1999/xlink">
<g id="graph0" class="graph" transform="scale(1 1) rotate(0) translate(4 141)">
<title>rcVideoWriter::flush</title>
<polygon fill="white" stroke="white" points="-4,5 -4,-141 799,-141 799,5 -4,5"/>
<!-- Node1 -->
<g id="node1" class="node"><title>Node1</title>
<polygon fill="#bfbfbf" stroke="black" points="0.552734,-58 0.552734,-78 103.447,-78 103.447,-58 0.552734,-58"/>
<text text-anchor="middle" x="52" y="-64" font-family="Helvetica,sans-Serif" font-size="10.00">rcVideoWriter::flush</text>
</g>
<!-- Node2 -->
<g id="node2" class="node"><title>Node2</title>
<g id="a_node2"><a xlink:href="classrc_engine_impl.html#a1d87f31acb85041d7358208d46a890ef" target="_top" xlink:title="rcEngineImpl::flushShared\lWriters">
<polygon fill="white" stroke="black" points="140.357,-52 140.357,-84 273.643,-84 273.643,-52 140.357,-52"/>
<text text-anchor="start" x="148.357" y="-70" font-family="Helvetica,sans-Serif" font-size="10.00">rcEngineImpl::flushShared</text>
<text text-anchor="middle" x="207" y="-58" font-family="Helvetica,sans-Serif" font-size="10.00">Writers</text>
</a>
</g>
</g>
<!-- Node1&#45;&gt;Node2 -->
<g id="edge1" class="edge"><title>Node1&#45;&gt;Node2</title>
<path fill="none" stroke="midnightblue" d="M113.628,-68C122.374,-68 131.411,-68 140.251,-68"/>
<polygon fill="midnightblue" stroke="midnightblue" points="113.522,-64.5001 103.522,-68 113.522,-71.5001 113.522,-64.5001"/>
</g>
<!-- Node3 -->
<g id="node3" class="node"><title>Node3</title>
<g id="a_node3"><a xlink:href="classrc_engine_impl.html#a3ad6dbc54b2a53acae4d345ff14974ae" target="_top" xlink:title="rcEngineImpl::analyzeFocusArea">
<polygon fill="white" stroke="black" points="310.631,-78 310.631,-98 473.369,-98 473.369,-78 310.631,-78"/>
<text text-anchor="middle" x="392" y="-84" font-family="Helvetica,sans-Serif" font-size="10.00">rcEngineImpl::analyzeFocusArea</text>
</a>
</g>
</g>
<!-- Node2&#45;&gt;Node3 -->
<g id="edge2" class="edge"><title>Node2&#45;&gt;Node3</title>
<path fill="none" stroke="midnightblue" d="M283.967,-76.3024C292.714,-77.2584 301.656,-78.2357 310.461,-79.1979"/>
<polygon fill="midnightblue" stroke="midnightblue" points="284.13,-72.7994 273.809,-75.1922 283.369,-79.758 284.13,-72.7994"/>
</g>
<!-- Node7 -->
<g id="node7" class="node"><title>Node7</title>
<g id="a_node7"><a xlink:href="classrc_engine_impl.html#a3f1d54d99e195efe0eec45f9263e6342" target="_top" xlink:title="rcEngineImpl::loadFrames">
<polygon fill="white" stroke="black" points="325.643,-39 325.643,-59 458.357,-59 458.357,-39 325.643,-39"/>
<text text-anchor="middle" x="392" y="-45" font-family="Helvetica,sans-Serif" font-size="10.00">rcEngineImpl::loadFrames</text>
</a>
</g>
</g>
<!-- Node2&#45;&gt;Node7 -->
<g id="edge6" class="edge"><title>Node2&#45;&gt;Node7</title>
<path fill="none" stroke="midnightblue" d="M283.78,-60.1321C297.621,-58.6951 311.956,-57.2067 325.468,-55.8039"/>
<polygon fill="midnightblue" stroke="midnightblue" points="283.394,-56.6533 273.809,-61.1674 284.117,-63.6159 283.394,-56.6533"/>
</g>
<!-- Node4 -->
<g id="node4" class="node"><title>Node4</title>
<g id="a_node4"><a xlink:href="classrc_engine_impl.html#ae320706cbcafd64f219018b9842c8290" target="_top" xlink:title="rcEngineImpl::analyze">
<polygon fill="white" stroke="black" points="518.808,-78 518.808,-98 633.192,-98 633.192,-78 518.808,-78"/>
<text text-anchor="middle" x="576" y="-84" font-family="Helvetica,sans-Serif" font-size="10.00">rcEngineImpl::analyze</text>
</a>
</g>
</g>
<!-- Node3&#45;&gt;Node4 -->
<g id="edge3" class="edge"><title>Node3&#45;&gt;Node4</title>
<path fill="none" stroke="midnightblue" d="M483.644,-88C495.599,-88 507.561,-88 518.707,-88"/>
<polygon fill="midnightblue" stroke="midnightblue" points="483.623,-84.5001 473.623,-88 483.623,-91.5001 483.623,-84.5001"/>
</g>
<!-- Node5 -->
<g id="node5" class="node"><title>Node5</title>
<g id="a_node5"><a xlink:href="classrc_engine_impl.html#a507e034c1e43ae1dd6ec95a11ec0bb02" target="_top" xlink:title="rcEngineImpl::process">
<polygon fill="white" stroke="black" points="678.535,-117 678.535,-137 793.465,-137 793.465,-117 678.535,-117"/>
<text text-anchor="middle" x="736" y="-123" font-family="Helvetica,sans-Serif" font-size="10.00">rcEngineImpl::process</text>
</a>
</g>
</g>
<!-- Node4&#45;&gt;Node5 -->
<g id="edge4" class="edge"><title>Node4&#45;&gt;Node5</title>
<path fill="none" stroke="midnightblue" d="M627.671,-100.507C649.261,-105.837 674.104,-111.969 694.449,-116.991"/>
<polygon fill="midnightblue" stroke="midnightblue" points="628.236,-97.042 617.689,-98.0435 626.559,-103.838 628.236,-97.042"/>
</g>
<!-- Node6 -->
<g id="node6" class="node"><title>Node6</title>
<g id="a_node6"><a xlink:href="classrc_engine_analyzer.html#a064037f0ec3e68fcb11dabbcba790cdd" target="_top" xlink:title="rcEngineAnalyzer::run">
<polygon fill="white" stroke="black" points="678.808,-78 678.808,-98 793.192,-98 793.192,-78 678.808,-78"/>
<text text-anchor="middle" x="736" y="-84" font-family="Helvetica,sans-Serif" font-size="10.00">rcEngineAnalyzer::run</text>
</a>
</g>
</g>
<!-- Node4&#45;&gt;Node6 -->
<g id="edge5" class="edge"><title>Node4&#45;&gt;Node6</title>
<path fill="none" stroke="midnightblue" d="M643.733,-88C655.407,-88 667.447,-88 678.8,-88"/>
<polygon fill="midnightblue" stroke="midnightblue" points="643.595,-84.5001 633.595,-88 643.595,-91.5001 643.595,-84.5001"/>
</g>
<!-- Node8 -->
<g id="node8" class="node"><title>Node8</title>
<g id="a_node8"><a xlink:href="classrc_engine_impl.html#ac6c444948228b9a6c9c013efefd7452c" target="_top" xlink:title="rcEngineImpl::loadImages">
<polygon fill="white" stroke="black" points="510.192,-39 510.192,-59 641.808,-59 641.808,-39 510.192,-39"/>
<text text-anchor="middle" x="576" y="-45" font-family="Helvetica,sans-Serif" font-size="10.00">rcEngineImpl::loadImages</text>
</a>
</g>
</g>
<!-- Node7&#45;&gt;Node8 -->
<g id="edge7" class="edge"><title>Node7&#45;&gt;Node8</title>
<path fill="none" stroke="midnightblue" d="M468.831,-49C482.556,-49 496.755,-49 510.131,-49"/>
<polygon fill="midnightblue" stroke="midnightblue" points="468.449,-45.5001 458.449,-49 468.449,-52.5001 468.449,-45.5001"/>
</g>
<!-- Node10 -->
<g id="node10" class="node"><title>Node10</title>
<g id="a_node10"><a xlink:href="classrc_engine_impl.html#ac0162da8fe4f677ad6f3d04a465d50f0" target="_top" xlink:title="rcEngineImpl::loadMovie">
<polygon fill="white" stroke="black" points="513.251,-0 513.251,-20 638.749,-20 638.749,-0 513.251,-0"/>
<text text-anchor="middle" x="576" y="-6" font-family="Helvetica,sans-Serif" font-size="10.00">rcEngineImpl::loadMovie</text>
</a>
</g>
</g>
<!-- Node7&#45;&gt;Node10 -->
<g id="edge9" class="edge"><title>Node7&#45;&gt;Node10</title>
<path fill="none" stroke="midnightblue" d="M449.686,-36.8531C474.94,-31.4415 504.324,-25.1448 528.289,-20.0094"/>
<polygon fill="midnightblue" stroke="midnightblue" points="448.914,-33.4389 439.87,-38.9565 450.381,-40.2835 448.914,-33.4389"/>
</g>
<!-- Node9 -->
<g id="node9" class="node"><title>Node9</title>
<g id="a_node9"><a xlink:href="classrc_engine_importer.html#a2e45417f1c29adf01483b2b8fca6b27b" target="_top" xlink:title="rcEngineImporter::run">
<polygon fill="white" stroke="black" points="679.646,-39 679.646,-59 792.354,-59 792.354,-39 679.646,-39"/>
<text text-anchor="middle" x="736" y="-45" font-family="Helvetica,sans-Serif" font-size="10.00">rcEngineImporter::run</text>
</a>
</g>
</g>
<!-- Node8&#45;&gt;Node9 -->
<g id="edge8" class="edge"><title>Node8&#45;&gt;Node9</title>
<path fill="none" stroke="midnightblue" d="M652.437,-49C661.571,-49 670.77,-49 679.542,-49"/>
<polygon fill="midnightblue" stroke="midnightblue" points="652.177,-45.5001 642.177,-49 652.177,-52.5001 652.177,-45.5001"/>
</g>
</g>
</svg>
