<?xml version="1.0" encoding="UTF-8" standalone="no"?>
<!DOCTYPE svg PUBLIC "-//W3C//DTD SVG 1.1//EN"
 "http://www.w3.org/Graphics/SVG/1.1/DTD/svg11.dtd">
<!-- Generated by graphviz version 2.32.0 (20130916.1925)
 -->
<!-- Title: rcEngineImpl::makeTmpName Pages: 1 -->
<svg width="642pt" height="106pt"
 viewBox="0.00 0.00 642.00 106.00" xmlns="http://www.w3.org/2000/svg" xmlns:xlink="http://www.w3.org/1999/xlink">
<g id="graph0" class="graph" transform="scale(1 1) rotate(0) translate(4 102)">
<title>rcEngineImpl::makeTmpName</title>
<polygon fill="white" stroke="white" points="-4,5 -4,-102 639,-102 639,5 -4,5"/>
<!-- Node1 -->
<g id="node1" class="node"><title>Node1</title>
<polygon fill="#bfbfbf" stroke="black" points="0.478027,-39 0.478027,-59 151.522,-59 151.522,-39 0.478027,-39"/>
<text text-anchor="middle" x="76" y="-45" font-family="Helvetica,sans-Serif" font-size="10.00">rcEngineImpl::makeTmpName</text>
</g>
<!-- Node2 -->
<g id="node2" class="node"><title>Node2</title>
<g id="a_node2"><a xlink:href="classrc_timestamp.html#a7e749f376ff8741e79a2dbba2419e78f" target="_top" xlink:title="rcTimestamp::now">
<polygon fill="white" stroke="black" points="189.341,-78 189.341,-98 286.659,-98 286.659,-78 189.341,-78"/>
<text text-anchor="middle" x="238" y="-84" font-family="Helvetica,sans-Serif" font-size="10.00">rcTimestamp::now</text>
</a>
</g>
</g>
<!-- Node1&#45;&gt;Node2 -->
<g id="edge1" class="edge"><title>Node1&#45;&gt;Node2</title>
<path fill="none" stroke="midnightblue" d="M118.204,-59.0435C138.92,-64.093 164.215,-70.2587 186.132,-75.6009"/>
<polygon fill="midnightblue" stroke="midnightblue" points="185.391,-79.0228 195.936,-77.9906 187.049,-72.2219 185.391,-79.0228"/>
</g>
<!-- Node4 -->
<g id="node4" class="node"><title>Node4</title>
<g id="a_node4"><a xlink:href="rc__stlplus_8h.html#ad04eedfe9e5e677632f04feaa76fe1ea" target="_top" xlink:title="rfToString">
<polygon fill="white" stroke="black" points="208.604,-39 208.604,-59 267.396,-59 267.396,-39 208.604,-39"/>
<text text-anchor="middle" x="238" y="-45" font-family="Helvetica,sans-Serif" font-size="10.00">rfToString</text>
</a>
</g>
</g>
<!-- Node1&#45;&gt;Node4 -->
<g id="edge3" class="edge"><title>Node1&#45;&gt;Node4</title>
<path fill="none" stroke="midnightblue" d="M151.847,-49C167.92,-49 184.272,-49 198.292,-49"/>
<polygon fill="midnightblue" stroke="midnightblue" points="198.516,-52.5001 208.516,-49 198.516,-45.5001 198.516,-52.5001"/>
</g>
<!-- Node5 -->
<g id="node5" class="node"><title>Node5</title>
<g id="a_node5"><a xlink:href="classrc_timestamp.html#a7a76776edb5c337196cf10c009339d15" target="_top" xlink:title="rcTimestamp::secs">
<polygon fill="white" stroke="black" points="188.232,-0 188.232,-20 287.768,-20 287.768,-0 188.232,-0"/>
<text text-anchor="middle" x="238" y="-6" font-family="Helvetica,sans-Serif" font-size="10.00">rcTimestamp::secs</text>
</a>
</g>
</g>
<!-- Node1&#45;&gt;Node5 -->
<g id="edge4" class="edge"><title>Node1&#45;&gt;Node5</title>
<path fill="none" stroke="midnightblue" d="M118.204,-38.9565C138.92,-33.907 164.215,-27.7413 186.132,-22.3991"/>
<polygon fill="midnightblue" stroke="midnightblue" points="187.049,-25.7781 195.936,-20.0094 185.391,-18.9772 187.049,-25.7781"/>
</g>
<!-- Node3 -->
<g id="node3" class="node"><title>Node3</title>
<g id="a_node3"><a xlink:href="rc__timestamp__mac_8cpp.html#af7988734f76c2effcc4118da588b8779" target="_top" xlink:title="getCurrentTimestamp">
<polygon fill="white" stroke="black" points="341.833,-78 341.833,-98 454.167,-98 454.167,-78 341.833,-78"/>
<text text-anchor="middle" x="398" y="-84" font-family="Helvetica,sans-Serif" font-size="10.00">getCurrentTimestamp</text>
</a>
</g>
</g>
<!-- Node2&#45;&gt;Node3 -->
<g id="edge2" class="edge"><title>Node2&#45;&gt;Node3</title>
<path fill="none" stroke="midnightblue" d="M286.834,-88C300.855,-88 316.437,-88 331.363,-88"/>
<polygon fill="midnightblue" stroke="midnightblue" points="331.564,-91.5001 341.564,-88 331.564,-84.5001 331.564,-91.5001"/>
</g>
<!-- Node6 -->
<g id="node6" class="node"><title>Node6</title>
<g id="a_node6"><a xlink:href="rc__timestamp_8h.html#ac624900be52fa7f30d3ad72543cc725d" target="_top" xlink:title="convertTimestampToSeconds">
<polygon fill="white" stroke="black" points="324.321,-0 324.321,-20 471.679,-20 471.679,-0 324.321,-0"/>
<text text-anchor="middle" x="398" y="-6" font-family="Helvetica,sans-Serif" font-size="10.00">convertTimestampToSeconds</text>
</a>
</g>
</g>
<!-- Node5&#45;&gt;Node6 -->
<g id="edge5" class="edge"><title>Node5&#45;&gt;Node6</title>
<path fill="none" stroke="midnightblue" d="M288.126,-10C296.419,-10 305.227,-10 314.101,-10"/>
<polygon fill="midnightblue" stroke="midnightblue" points="314.124,-13.5001 324.124,-10 314.124,-6.5001 314.124,-13.5001"/>
</g>
<!-- Node7 -->
<g id="node7" class="node"><title>Node7</title>
<g id="a_node7"><a xlink:href="rc__timestamp__mac_8cpp.html#a7962719b626553bf7a913f7c2671b777" target="_top" xlink:title="getTimestampResolution">
<polygon fill="white" stroke="black" points="507.88,-0 507.88,-20 634.12,-20 634.12,-0 507.88,-0"/>
<text text-anchor="middle" x="571" y="-6" font-family="Helvetica,sans-Serif" font-size="10.00">getTimestampResolution</text>
</a>
</g>
</g>
<!-- Node6&#45;&gt;Node7 -->
<g id="edge6" class="edge"><title>Node6&#45;&gt;Node7</title>
<path fill="none" stroke="midnightblue" d="M472.015,-10C480.47,-10 489.09,-10 497.537,-10"/>
<polygon fill="midnightblue" stroke="midnightblue" points="497.731,-13.5001 507.731,-10 497.731,-6.5001 497.731,-13.5001"/>
</g>
</g>
</svg>
