<?xml version="1.0" encoding="UTF-8" standalone="no"?>
<!DOCTYPE svg PUBLIC "-//W3C//DTD SVG 1.1//EN"
 "http://www.w3.org/Graphics/SVG/1.1/DTD/svg11.dtd">
<!-- Generated by graphviz version 2.32.0 (20130916.1925)
 -->
<!-- Title: rcTrackManager::isTrackEnabled Pages: 1 -->
<!--zoomable 283 -->
<svg id="main" version="1.1" xmlns="http://www.w3.org/2000/svg" xmlns:xlink="http://www.w3.org/1999/xlink" xml:space="preserve" onload="init(evt)">
        <defs>
                <circle id="rim" cx="0" cy="0" r="7"/>
                <circle id="rim2" cx="0" cy="0" r="3.5"/>
                <g id="zoomPlus">
                        <use xlink:href="#rim" fill="#404040">
                                <set attributeName="fill" to="#808080" begin="zoomplus.mouseover" end="zoomplus.mouseout"/>
                        </use>
                        <path d="M-4,0h8M0,-4v8" fill="none" stroke="white" stroke-width="1.5" pointer-events="none"/>
                </g>
                <g id="zoomMin">
                        <use xlink:href="#rim" fill="#404040">
                                <set attributeName="fill" to="#808080" begin="zoomminus.mouseover" end="zoomminus.mouseout"/>
                        </use>
                        <path d="M-4,0h8" fill="none" stroke="white" stroke-width="1.5" pointer-events="none"/>
                </g>
                <g id="dirArrow">
                        <path fill="none" stroke="white" stroke-width="1.5" d="M0,-3.0v7 M-2.5,-0.5L0,-3.0L2.5,-0.5"/>
                </g>
               <g id="resetDef">
                       <use xlink:href="#rim2" fill="#404040">
                               <set attributeName="fill" to="#808080" begin="reset.mouseover" end="reset.mouseout"/>
                       </use>
               </g>
        </defs>

<script type="text/javascript">
var viewWidth = 614;
var viewHeight = 283;
var sectionId = 'dynsection-27';
</script>
<script xlink:href="svgpan.js"/>
<svg id="graph" class="graph">
<g id="viewport">
<title>rcTrackManager::isTrackEnabled</title>
<polygon fill="white" stroke="white" points="-4,5 -4,-279 611,-279 611,5 -4,5"/>
<!-- Node1 -->
<g id="node1" class="node"><title>Node1</title>
<polygon fill="#bfbfbf" stroke="black" points="0.728516,-183 0.728516,-203 163.271,-203 163.271,-183 0.728516,-183"/>
<text text-anchor="middle" x="82" y="-189" font-family="Helvetica,sans-Serif" font-size="10.00">rcTrackManager::isTrackEnabled</text>
</g>
<!-- Node2 -->
<g id="node2" class="node"><title>Node2</title>
<g id="a_node2"><a xlink:href="classrc_scalar_track_widget.html#a6108b831424259c957069a6523315e81" target="_top" xlink:title="rcScalarTrackWidget\l::mousePressEvent">
<polygon fill="white" stroke="black" points="200.784,-243 200.784,-275 309.216,-275 309.216,-243 200.784,-243"/>
<text text-anchor="start" x="208.784" y="-261" font-family="Helvetica,sans-Serif" font-size="10.00">rcScalarTrackWidget</text>
<text text-anchor="middle" x="255" y="-249" font-family="Helvetica,sans-Serif" font-size="10.00">::mousePressEvent</text>
</a>
</g>
</g>
<!-- Node1&#45;&gt;Node2 -->
<g id="edge1" class="edge"><title>Node1&#45;&gt;Node2</title>
<path fill="none" stroke="midnightblue" d="M118.532,-206.714C145.871,-217.266 183.712,-231.871 212.452,-242.964"/>
<polygon fill="midnightblue" stroke="midnightblue" points="119.561,-203.36 108.971,-203.024 117.04,-209.89 119.561,-203.36"/>
</g>
<!-- Node3 -->
<g id="node3" class="node"><title>Node3</title>
<g id="a_node3"><a xlink:href="classrc_scalar_track_widget.html#afc60cc8a08bd8f16560757beef569858" target="_top" xlink:title="rcScalarTrackWidget\l::rcScalarTrackWidget">
<polygon fill="white" stroke="black" points="492.006,-102 492.006,-134 605.994,-134 605.994,-102 492.006,-102"/>
<text text-anchor="start" x="500.006" y="-120" font-family="Helvetica,sans-Serif" font-size="10.00">rcScalarTrackWidget</text>
<text text-anchor="middle" x="549" y="-108" font-family="Helvetica,sans-Serif" font-size="10.00">::rcScalarTrackWidget</text>
</a>
</g>
</g>
<!-- Node1&#45;&gt;Node3 -->
<g id="edge2" class="edge"><title>Node1&#45;&gt;Node3</title>
<path fill="none" stroke="midnightblue" d="M139.959,-204.858C214.924,-217.877 349.641,-232.249 456,-194 488.946,-182.152 518.487,-152.826 534.761,-134.261"/>
<polygon fill="midnightblue" stroke="midnightblue" points="140.247,-201.354 129.787,-203.035 139.013,-208.244 140.247,-201.354"/>
</g>
<!-- Node4 -->
<g id="node4" class="node"><title>Node4</title>
<g id="a_node4"><a xlink:href="classrc_scalar_track_widget.html#a7da75db1b5c899514300d208a61404d0" target="_top" xlink:title="rcScalarTrackWidget\l::updateSettings">
<polygon fill="white" stroke="black" points="346.784,-153 346.784,-185 455.216,-185 455.216,-153 346.784,-153"/>
<text text-anchor="start" x="354.784" y="-171" font-family="Helvetica,sans-Serif" font-size="10.00">rcScalarTrackWidget</text>
<text text-anchor="middle" x="401" y="-159" font-family="Helvetica,sans-Serif" font-size="10.00">::updateSettings</text>
</a>
</g>
</g>
<!-- Node1&#45;&gt;Node4 -->
<g id="edge3" class="edge"><title>Node1&#45;&gt;Node4</title>
<path fill="none" stroke="midnightblue" d="M173.673,-186.135C229.591,-181.902 299.39,-176.617 346.577,-173.045"/>
<polygon fill="midnightblue" stroke="midnightblue" points="173.109,-182.668 163.402,-186.913 173.638,-189.648 173.109,-182.668"/>
</g>
<!-- Node5 -->
<g id="node5" class="node"><title>Node5</title>
<g id="a_node5"><a xlink:href="classrc_scalar_track_widget.html#a29a1735b0b8498fe714384d69bc90044" target="_top" xlink:title="rcScalarTrackWidget\l::updateTrackDisplay">
<polygon fill="white" stroke="black" points="200.218,-102 200.218,-134 309.782,-134 309.782,-102 200.218,-102"/>
<text text-anchor="start" x="208.218" y="-120" font-family="Helvetica,sans-Serif" font-size="10.00">rcScalarTrackWidget</text>
<text text-anchor="middle" x="255" y="-108" font-family="Helvetica,sans-Serif" font-size="10.00">::updateTrackDisplay</text>
</a>
</g>
</g>
<!-- Node1&#45;&gt;Node5 -->
<g id="edge5" class="edge"><title>Node1&#45;&gt;Node5</title>
<path fill="none" stroke="midnightblue" d="M115.35,-178.811C144.379,-166.079 186.956,-147.405 217.259,-134.115"/>
<polygon fill="midnightblue" stroke="midnightblue" points="113.814,-175.663 106.062,-182.885 116.626,-182.074 113.814,-175.663"/>
</g>
<!-- Node4&#45;&gt;Node3 -->
<g id="edge4" class="edge"><title>Node4&#45;&gt;Node3</title>
<path fill="none" stroke="midnightblue" d="M457.669,-149.554C472.344,-144.428 488.01,-138.955 502.105,-134.032"/>
<polygon fill="midnightblue" stroke="midnightblue" points="456.482,-146.261 448.195,-152.863 458.79,-152.87 456.482,-146.261"/>
</g>
<!-- Node5&#45;&gt;Node4 -->
<g id="edge12" class="edge"><title>Node5&#45;&gt;Node4</title>
<path fill="none" stroke="midnightblue" d="M311.32,-137.593C325.674,-142.676 340.964,-148.092 354.734,-152.968"/>
<polygon fill="midnightblue" stroke="midnightblue" points="312.157,-134.176 301.562,-134.137 309.82,-140.774 312.157,-134.176"/>
</g>
<!-- Node6 -->
<g id="node6" class="node"><title>Node6</title>
<g id="a_node6"><a xlink:href="classrc_scalar_track_widget.html#a4f797a2bc3ccded186a6d83628287f2e" target="_top" xlink:title="rcScalarTrackWidget\l::updateCursorTime">
<polygon fill="white" stroke="black" points="346.784,-102 346.784,-134 455.216,-134 455.216,-102 346.784,-102"/>
<text text-anchor="start" x="354.784" y="-120" font-family="Helvetica,sans-Serif" font-size="10.00">rcScalarTrackWidget</text>
<text text-anchor="middle" x="401" y="-108" font-family="Helvetica,sans-Serif" font-size="10.00">::updateCursorTime</text>
</a>
</g>
</g>
<!-- Node5&#45;&gt;Node6 -->
<g id="edge6" class="edge"><title>Node5&#45;&gt;Node6</title>
<path fill="none" stroke="midnightblue" d="M320.266,-118C329.075,-118 338.039,-118 346.624,-118"/>
<polygon fill="midnightblue" stroke="midnightblue" points="320.03,-114.5 310.03,-118 320.03,-121.5 320.03,-114.5"/>
</g>
<!-- Node7 -->
<g id="node7" class="node"><title>Node7</title>
<g id="a_node7"><a xlink:href="classrc_scalar_track_widget.html#a5ed82e0b8b25164260de3891a6155dc5" target="_top" xlink:title="rcScalarTrackWidget\l::updateDisplay">
<polygon fill="white" stroke="black" points="346.784,-51 346.784,-83 455.216,-83 455.216,-51 346.784,-51"/>
<text text-anchor="start" x="354.784" y="-69" font-family="Helvetica,sans-Serif" font-size="10.00">rcScalarTrackWidget</text>
<text text-anchor="middle" x="401" y="-57" font-family="Helvetica,sans-Serif" font-size="10.00">::updateDisplay</text>
</a>
</g>
</g>
<!-- Node5&#45;&gt;Node7 -->
<g id="edge8" class="edge"><title>Node5&#45;&gt;Node7</title>
<path fill="none" stroke="midnightblue" d="M311.32,-98.4074C325.674,-93.3237 340.964,-87.9085 354.734,-83.0317"/>
<polygon fill="midnightblue" stroke="midnightblue" points="309.82,-95.2255 301.562,-101.863 312.157,-101.824 309.82,-95.2255"/>
</g>
<!-- Node8 -->
<g id="node8" class="node"><title>Node8</title>
<g id="a_node8"><a xlink:href="classrc_scalar_track_widget.html#a56a434f74d97cb999aad3efbb90fb0ec" target="_top" xlink:title="rcScalarTrackWidget\l::updateElapsedTime">
<polygon fill="white" stroke="black" points="345.932,-0 345.932,-32 456.068,-32 456.068,-0 345.932,-0"/>
<text text-anchor="start" x="353.932" y="-18" font-family="Helvetica,sans-Serif" font-size="10.00">rcScalarTrackWidget</text>
<text text-anchor="middle" x="401" y="-6" font-family="Helvetica,sans-Serif" font-size="10.00">::updateElapsedTime</text>
</a>
</g>
</g>
<!-- Node5&#45;&gt;Node8 -->
<g id="edge10" class="edge"><title>Node5&#45;&gt;Node8</title>
<path fill="none" stroke="midnightblue" d="M279.587,-94.6466C296.957,-78.2709 321.689,-56.6046 346,-41 350.956,-37.8191 356.382,-34.8153 361.823,-32.0674"/>
<polygon fill="midnightblue" stroke="midnightblue" points="276.96,-92.3162 272.153,-101.758 281.799,-97.3749 276.96,-92.3162"/>
</g>
<!-- Node6&#45;&gt;Node3 -->
<g id="edge7" class="edge"><title>Node6&#45;&gt;Node3</title>
<path fill="none" stroke="midnightblue" d="M465.566,-118C474.205,-118 483.024,-118 491.526,-118"/>
<polygon fill="midnightblue" stroke="midnightblue" points="465.536,-114.5 455.536,-118 465.536,-121.5 465.536,-114.5"/>
</g>
<!-- Node7&#45;&gt;Node3 -->
<g id="edge9" class="edge"><title>Node7&#45;&gt;Node3</title>
<path fill="none" stroke="midnightblue" d="M457.669,-86.446C472.344,-91.5721 488.01,-97.0446 502.105,-101.968"/>
<polygon fill="midnightblue" stroke="midnightblue" points="458.79,-83.1303 448.195,-83.1367 456.482,-89.7387 458.79,-83.1303"/>
</g>
<!-- Node8&#45;&gt;Node3 -->
<g id="edge11" class="edge"><title>Node8&#45;&gt;Node3</title>
<path fill="none" stroke="midnightblue" d="M449.245,-36.9621C451.56,-38.2719 453.824,-39.6201 456,-41 484.494,-59.0724 513.767,-85.1067 531.422,-101.789"/>
<polygon fill="midnightblue" stroke="midnightblue" points="450.618,-33.7276 440.146,-32.1162 447.327,-39.9061 450.618,-33.7276"/>
</g>
</g>
</svg>
        <g id="navigator" transform="translate(0 0)" fill="#404254">
                <rect fill="#f2f5e9" fill-opacity="0.5" stroke="#606060" stroke-width=".5" x="0" y="0" width="60" height="60"/>
                <use id="zoomplus" xlink:href="#zoomPlus" x="17" y="9" onmousedown="handleZoom(evt,'in')"/>
                <use id="zoomminus" xlink:href="#zoomMin" x="42" y="9" onmousedown="handleZoom(evt,'out')"/>
                <use id="reset" xlink:href="#resetDef" x="30" y="36" onmousedown="handleReset()"/>
                <g id="arrowUp" xlink:href="#dirArrow" transform="translate(30 24)" onmousedown="handlePan(0,-1)">
                  <use xlink:href="#rim" fill="#404040">
                        <set attributeName="fill" to="#808080" begin="arrowUp.mouseover" end="arrowUp.mouseout"/>
                  </use>
                  <path fill="none" stroke="white" stroke-width="1.5" d="M0,-3.0v7 M-2.5,-0.5L0,-3.0L2.5,-0.5"/>
                </g>
                <g id="arrowRight" xlink:href="#dirArrow" transform="rotate(90) translate(36 -43)" onmousedown="handlePan(1,0)">
                  <use xlink:href="#rim" fill="#404040">
                        <set attributeName="fill" to="#808080" begin="arrowRight.mouseover" end="arrowRight.mouseout"/>
                  </use>
                  <path fill="none" stroke="white" stroke-width="1.5" d="M0,-3.0v7 M-2.5,-0.5L0,-3.0L2.5,-0.5"/>
                </g>
                <g id="arrowDown" xlink:href="#dirArrow" transform="rotate(180) translate(-30 -48)" onmousedown="handlePan(0,1)">
                  <use xlink:href="#rim" fill="#404040">
                        <set attributeName="fill" to="#808080" begin="arrowDown.mouseover" end="arrowDown.mouseout"/>
                  </use>
                  <path fill="none" stroke="white" stroke-width="1.5" d="M0,-3.0v7 M-2.5,-0.5L0,-3.0L2.5,-0.5"/>
                </g>
                <g id="arrowLeft" xlink:href="#dirArrow" transform="rotate(270) translate(-36 17)" onmousedown="handlePan(-1,0)">
                  <use xlink:href="#rim" fill="#404040">
                        <set attributeName="fill" to="#808080" begin="arrowLeft.mouseover" end="arrowLeft.mouseout"/>
                  </use>
                  <path fill="none" stroke="white" stroke-width="1.5" d="M0,-3.0v7 M-2.5,-0.5L0,-3.0L2.5,-0.5"/>
                </g>
        </g>
        <svg viewBox="0 0 15 15" width="100%" height="30px" preserveAspectRatio="xMaxYMin meet">
         <g id="arrow_out" transform="scale(0.3 0.3)">
          <a xlink:href="classrc_track_manager_a26fe8b21385ea763bddd52e15e8f0419_icgraph_org.svg" target="_base">
           <rect id="button" ry="5" rx="5" y="6" x="6" height="38" width="38"
                fill="#f2f5e9" fill-opacity="0.5" stroke="#606060" stroke-width="1.0"/>
           <path id="arrow"
             d="M 11.500037,31.436501 C 11.940474,20.09759 22.043105,11.32322 32.158766,21.979434 L 37.068811,17.246167 C 37.068811,17.246167 37.088388,32 37.088388,32 L 22.160133,31.978069 C 22.160133,31.978069 26.997745,27.140456 26.997745,27.140456 C 18.528582,18.264221 13.291696,25.230495 11.500037,31.436501 z"
             style="fill:#404040;"/>
          </a>
         </g>
        </svg>
</svg>
