<?xml version="1.0" encoding="UTF-8" standalone="no"?>
<!DOCTYPE svg PUBLIC "-//W3C//DTD SVG 1.1//EN"
 "http://www.w3.org/Graphics/SVG/1.1/DTD/svg11.dtd">
<!-- Generated by graphviz version 2.32.0 (20130916.1925)
 -->
<!-- Title: rcStyle::pixelOrigin Pages: 1 -->
<svg width="272pt" height="67pt"
 viewBox="0.00 0.00 272.00 67.00" xmlns="http://www.w3.org/2000/svg" xmlns:xlink="http://www.w3.org/1999/xlink">
<g id="graph0" class="graph" transform="scale(1 1) rotate(0) translate(4 63)">
<title>rcStyle::pixelOrigin</title>
<polygon fill="white" stroke="white" points="-4,5 -4,-63 269,-63 269,5 -4,5"/>
<!-- Node1 -->
<g id="node1" class="node"><title>Node1</title>
<polygon fill="#bfbfbf" stroke="black" points="0.320312,-19 0.320312,-39 99.6797,-39 99.6797,-19 0.320312,-19"/>
<text text-anchor="middle" x="50" y="-25" font-family="Helvetica,sans-Serif" font-size="10.00">rcStyle::pixelOrigin</text>
</g>
<!-- Node2 -->
<g id="node2" class="node"><title>Node2</title>
<g id="a_node2"><a xlink:href="classrc_image_canvas_g_l.html#a76b51426aac776789bed359225535759" target="_top" xlink:title="rcImageCanvasGL::draw">
<polygon fill="white" stroke="black" points="136.7,-39 136.7,-59 263.3,-59 263.3,-39 136.7,-39"/>
<text text-anchor="middle" x="200" y="-45" font-family="Helvetica,sans-Serif" font-size="10.00">rcImageCanvasGL::draw</text>
</a>
</g>
</g>
<!-- Node1&#45;&gt;Node2 -->
<g id="edge1" class="edge"><title>Node1&#45;&gt;Node2</title>
<path fill="none" stroke="midnightblue" d="M109.941,-36.965C118.659,-38.1431 127.668,-39.3606 136.457,-40.5482"/>
<polygon fill="midnightblue" stroke="midnightblue" points="110.25,-33.475 99.8709,-35.6042 109.312,-40.4119 110.25,-33.475"/>
</g>
<!-- Node3 -->
<g id="node3" class="node"><title>Node3</title>
<g id="a_node3"><a xlink:href="classrc_style.html#a0c6cb8c6ea6a62748585b460db6b2b74" target="_top" xlink:title="rcStyle::operator==">
<polygon fill="white" stroke="black" points="149.478,-0 149.478,-20 250.522,-20 250.522,-0 149.478,-0"/>
<text text-anchor="middle" x="200" y="-6" font-family="Helvetica,sans-Serif" font-size="10.00">rcStyle::operator==</text>
</a>
</g>
</g>
<!-- Node1&#45;&gt;Node3 -->
<g id="edge2" class="edge"><title>Node1&#45;&gt;Node3</title>
<path fill="none" stroke="midnightblue" d="M110.143,-21.4073C123.164,-19.7357 136.824,-17.982 149.421,-16.3648"/>
<polygon fill="midnightblue" stroke="midnightblue" points="109.344,-17.9811 99.8709,-22.726 110.235,-24.9241 109.344,-17.9811"/>
</g>
</g>
</svg>
