<?xml version="1.0" encoding="UTF-8" standalone="no"?>
<!DOCTYPE svg PUBLIC "-//W3C//DTD SVG 1.1//EN"
 "http://www.w3.org/Graphics/SVG/1.1/DTD/svg11.dtd">
<!-- Generated by graphviz version 2.32.0 (20130916.1925)
 -->
<!-- Title: rcAnalyzerOptions::bound Pages: 1 -->
<svg width="966pt" height="142pt"
 viewBox="0.00 0.00 966.00 142.00" xmlns="http://www.w3.org/2000/svg" xmlns:xlink="http://www.w3.org/1999/xlink">
<g id="graph0" class="graph" transform="scale(1 1) rotate(0) translate(4 138)">
<title>rcAnalyzerOptions::bound</title>
<polygon fill="white" stroke="white" points="-4,5 -4,-138 963,-138 963,5 -4,5"/>
<!-- Node1 -->
<g id="node1" class="node"><title>Node1</title>
<polygon fill="#bfbfbf" stroke="black" points="0.37207,-45 0.37207,-77 103.628,-77 103.628,-45 0.37207,-45"/>
<text text-anchor="start" x="8.37207" y="-63" font-family="Helvetica,sans-Serif" font-size="10.00">rcAnalyzerOptions::</text>
<text text-anchor="middle" x="52" y="-51" font-family="Helvetica,sans-Serif" font-size="10.00">bound</text>
</g>
<!-- Node2 -->
<g id="node2" class="node"><title>Node2</title>
<g id="a_node2"><a xlink:href="classrc_analyzer.html#a8a3d5b38714ea9edc5cc5b5ee98b38a0" target="_top" xlink:title="rcAnalyzer::getNextResult">
<polygon fill="white" stroke="black" points="140.2,-91 140.2,-111 271.8,-111 271.8,-91 140.2,-91"/>
<text text-anchor="middle" x="206" y="-97" font-family="Helvetica,sans-Serif" font-size="10.00">rcAnalyzer::getNextResult</text>
</a>
</g>
</g>
<!-- Node1&#45;&gt;Node2 -->
<g id="edge1" class="edge"><title>Node1&#45;&gt;Node2</title>
<path fill="none" stroke="midnightblue" d="M113.832,-77.0084C131.728,-81.7179 150.794,-86.7352 166.839,-90.9575"/>
<polygon fill="midnightblue" stroke="midnightblue" points="114.598,-73.5909 104.037,-74.4307 112.817,-80.3605 114.598,-73.5909"/>
</g>
<!-- Node8 -->
<g id="node8" class="node"><title>Node8</title>
<g id="a_node8"><a xlink:href="rc__analyzer_8h.html#af310c39b51aa1142cbc5c75231f7ba2f" target="_top" xlink:title="operator\&lt;\&lt;">
<polygon fill="white" stroke="black" points="173.537,-51 173.537,-71 238.463,-71 238.463,-51 173.537,-51"/>
<text text-anchor="middle" x="206" y="-57" font-family="Helvetica,sans-Serif" font-size="10.00">operator&lt;&lt;</text>
</a>
</g>
</g>
<!-- Node1&#45;&gt;Node8 -->
<g id="edge7" class="edge"><title>Node1&#45;&gt;Node8</title>
<path fill="none" stroke="midnightblue" d="M114.168,-61C134.464,-61 156.228,-61 173.363,-61"/>
<polygon fill="midnightblue" stroke="midnightblue" points="114.037,-57.5001 104.037,-61 114.037,-64.5001 114.037,-57.5001"/>
</g>
<!-- Node10 -->
<g id="node10" class="node"><title>Node10</title>
<g id="a_node10"><a xlink:href="classrc_analyzer_options.html#a557fa0f771298791117f91514edf7086" target="_top" xlink:title="rcAnalyzerOptions::\loperator==">
<polygon fill="white" stroke="black" points="154.372,-0 154.372,-32 257.628,-32 257.628,-0 154.372,-0"/>
<text text-anchor="start" x="162.372" y="-18" font-family="Helvetica,sans-Serif" font-size="10.00">rcAnalyzerOptions::</text>
<text text-anchor="middle" x="206" y="-6" font-family="Helvetica,sans-Serif" font-size="10.00">operator==</text>
</a>
</g>
</g>
<!-- Node1&#45;&gt;Node10 -->
<g id="edge9" class="edge"><title>Node1&#45;&gt;Node10</title>
<path fill="none" stroke="midnightblue" d="M113.707,-43.0276C127.184,-39.0375 141.332,-34.8492 154.356,-30.9931"/>
<polygon fill="midnightblue" stroke="midnightblue" points="112.632,-39.6956 104.037,-45.8905 114.619,-46.4077 112.632,-39.6956"/>
</g>
<!-- Node3 -->
<g id="node3" class="node"><title>Node3</title>
<g id="a_node3"><a xlink:href="classrc_engine_impl.html#a1ec71befab88914b35b700cd5fe03ba2" target="_top" xlink:title="rcEngineImpl::entropyTracker\lWindow">
<polygon fill="white" stroke="black" points="308.602,-88 308.602,-120 455.398,-120 455.398,-88 308.602,-88"/>
<text text-anchor="start" x="316.602" y="-106" font-family="Helvetica,sans-Serif" font-size="10.00">rcEngineImpl::entropyTracker</text>
<text text-anchor="middle" x="382" y="-94" font-family="Helvetica,sans-Serif" font-size="10.00">Window</text>
</a>
</g>
</g>
<!-- Node2&#45;&gt;Node3 -->
<g id="edge2" class="edge"><title>Node2&#45;&gt;Node3</title>
<path fill="none" stroke="midnightblue" d="M282.326,-102.299C290.958,-102.448 299.745,-102.599 308.34,-102.747"/>
<polygon fill="midnightblue" stroke="midnightblue" points="282.345,-98.7986 272.286,-102.126 282.224,-105.798 282.345,-98.7986"/>
</g>
<!-- Node4 -->
<g id="node4" class="node"><title>Node4</title>
<g id="a_node4"><a xlink:href="classrc_engine_impl.html#a3ad6dbc54b2a53acae4d345ff14974ae" target="_top" xlink:title="rcEngineImpl::analyzeFocusArea">
<polygon fill="white" stroke="black" points="492.631,-94 492.631,-114 655.369,-114 655.369,-94 492.631,-94"/>
<text text-anchor="middle" x="574" y="-100" font-family="Helvetica,sans-Serif" font-size="10.00">rcEngineImpl::analyzeFocusArea</text>
</a>
</g>
</g>
<!-- Node3&#45;&gt;Node4 -->
<g id="edge3" class="edge"><title>Node3&#45;&gt;Node4</title>
<path fill="none" stroke="midnightblue" d="M465.911,-104C474.729,-104 483.687,-104 492.476,-104"/>
<polygon fill="midnightblue" stroke="midnightblue" points="465.644,-100.5 455.644,-104 465.644,-107.5 465.644,-100.5"/>
</g>
<!-- Node5 -->
<g id="node5" class="node"><title>Node5</title>
<g id="a_node5"><a xlink:href="classrc_engine_impl.html#ae320706cbcafd64f219018b9842c8290" target="_top" xlink:title="rcEngineImpl::analyze">
<polygon fill="white" stroke="black" points="691.808,-94 691.808,-114 806.192,-114 806.192,-94 691.808,-94"/>
<text text-anchor="middle" x="749" y="-100" font-family="Helvetica,sans-Serif" font-size="10.00">rcEngineImpl::analyze</text>
</a>
</g>
</g>
<!-- Node4&#45;&gt;Node5 -->
<g id="edge4" class="edge"><title>Node4&#45;&gt;Node5</title>
<path fill="none" stroke="midnightblue" d="M665.5,-104C674.423,-104 683.288,-104 691.716,-104"/>
<polygon fill="midnightblue" stroke="midnightblue" points="665.422,-100.5 655.422,-104 665.422,-107.5 665.422,-100.5"/>
</g>
<!-- Node6 -->
<g id="node6" class="node"><title>Node6</title>
<g id="a_node6"><a xlink:href="classrc_engine_impl.html#a507e034c1e43ae1dd6ec95a11ec0bb02" target="_top" xlink:title="rcEngineImpl::process">
<polygon fill="white" stroke="black" points="842.535,-114 842.535,-134 957.465,-134 957.465,-114 842.535,-114"/>
<text text-anchor="middle" x="900" y="-120" font-family="Helvetica,sans-Serif" font-size="10.00">rcEngineImpl::process</text>
</a>
</g>
</g>
<!-- Node5&#45;&gt;Node6 -->
<g id="edge5" class="edge"><title>Node5&#45;&gt;Node6</title>
<path fill="none" stroke="midnightblue" d="M816.328,-112.903C824.925,-114.057 833.669,-115.231 842.095,-116.362"/>
<polygon fill="midnightblue" stroke="midnightblue" points="816.707,-109.423 806.331,-111.561 815.776,-116.36 816.707,-109.423"/>
</g>
<!-- Node7 -->
<g id="node7" class="node"><title>Node7</title>
<g id="a_node7"><a xlink:href="classrc_engine_analyzer.html#a064037f0ec3e68fcb11dabbcba790cdd" target="_top" xlink:title="rcEngineAnalyzer::run">
<polygon fill="white" stroke="black" points="842.808,-75 842.808,-95 957.192,-95 957.192,-75 842.808,-75"/>
<text text-anchor="middle" x="900" y="-81" font-family="Helvetica,sans-Serif" font-size="10.00">rcEngineAnalyzer::run</text>
</a>
</g>
</g>
<!-- Node5&#45;&gt;Node7 -->
<g id="edge6" class="edge"><title>Node5&#45;&gt;Node7</title>
<path fill="none" stroke="midnightblue" d="M816.47,-95.524C825.19,-94.412 834.058,-93.2812 842.59,-92.1932"/>
<polygon fill="midnightblue" stroke="midnightblue" points="815.807,-92.08 806.331,-96.8169 816.693,-99.0238 815.807,-92.08"/>
</g>
<!-- Node9 -->
<g id="node9" class="node"><title>Node9</title>
<g id="a_node9"><a xlink:href="classotext.html#ab145455754b431650cfe6b05ad3db99d" target="_top" xlink:title="otext::operator\&lt;\&lt;">
<polygon fill="white" stroke="black" points="335.919,-49 335.919,-69 428.081,-69 428.081,-49 335.919,-49"/>
<text text-anchor="middle" x="382" y="-55" font-family="Helvetica,sans-Serif" font-size="10.00">otext::operator&lt;&lt;</text>
</a>
</g>
</g>
<!-- Node8&#45;&gt;Node9 -->
<g id="edge8" class="edge"><title>Node8&#45;&gt;Node9</title>
<path fill="none" stroke="midnightblue" d="M248.522,-60.5227C274.768,-60.2211 308.696,-59.8311 335.647,-59.5213"/>
<polygon fill="midnightblue" stroke="midnightblue" points="248.469,-57.023 238.51,-60.6378 248.55,-64.0226 248.469,-57.023"/>
</g>
</g>
</svg>
