<?xml version="1.0" encoding="UTF-8" standalone="no"?>
<!DOCTYPE svg PUBLIC "-//W3C//DTD SVG 1.1//EN"
 "http://www.w3.org/Graphics/SVG/1.1/DTD/svg11.dtd">
<!-- Generated by graphviz version 2.32.0 (20130916.1925)
 -->
<!-- Title: obuff::real_precision Pages: 1 -->
<svg width="384pt" height="28pt"
 viewBox="0.00 0.00 384.00 28.00" xmlns="http://www.w3.org/2000/svg" xmlns:xlink="http://www.w3.org/1999/xlink">
<g id="graph0" class="graph" transform="scale(1 1) rotate(0) translate(4 24)">
<title>obuff::real_precision</title>
<polygon fill="white" stroke="white" points="-4,5 -4,-24 381,-24 381,5 -4,5"/>
<!-- Node1 -->
<g id="node1" class="node"><title>Node1</title>
<polygon fill="#bfbfbf" stroke="black" points="0.0610352,-0 0.0610352,-20 105.939,-20 105.939,-0 0.0610352,-0"/>
<text text-anchor="middle" x="53" y="-6" font-family="Helvetica,sans-Serif" font-size="10.00">obuff::real_precision</text>
</g>
<!-- Node2 -->
<g id="node2" class="node"><title>Node2</title>
<g id="a_node2"><a xlink:href="classotext.html#a932032f01454f92cef1f4e113f1be650" target="_top" xlink:title="otext::real_precision">
<polygon fill="white" stroke="black" points="142.254,-0 142.254,-20 247.746,-20 247.746,-0 142.254,-0"/>
<text text-anchor="middle" x="195" y="-6" font-family="Helvetica,sans-Serif" font-size="10.00">otext::real_precision</text>
</a>
</g>
</g>
<!-- Node1&#45;&gt;Node2 -->
<g id="edge1" class="edge"><title>Node1&#45;&gt;Node2</title>
<path fill="none" stroke="midnightblue" d="M116.387,-10C124.885,-10 133.534,-10 141.826,-10"/>
<polygon fill="midnightblue" stroke="midnightblue" points="116.131,-6.5001 106.131,-10 116.131,-13.5001 116.131,-6.5001"/>
</g>
<!-- Node3 -->
<g id="node3" class="node"><title>Node3</title>
<g id="a_node3"><a xlink:href="classotext.html#a1a8a521984422443e75d79ce5acbda51" target="_top" xlink:title="otext::operator\&lt;\&lt;">
<polygon fill="white" stroke="black" points="283.919,-0 283.919,-20 376.081,-20 376.081,-0 283.919,-0"/>
<text text-anchor="middle" x="330" y="-6" font-family="Helvetica,sans-Serif" font-size="10.00">otext::operator&lt;&lt;</text>
</a>
</g>
</g>
<!-- Node2&#45;&gt;Node3 -->
<g id="edge2" class="edge"><title>Node2&#45;&gt;Node3</title>
<path fill="none" stroke="midnightblue" d="M257.891,-10C266.556,-10 275.327,-10 283.61,-10"/>
<polygon fill="midnightblue" stroke="midnightblue" points="257.802,-6.5001 247.802,-10 257.802,-13.5001 257.802,-6.5001"/>
</g>
</g>
</svg>
