<?xml version="1.0" encoding="UTF-8" standalone="no"?>
<!DOCTYPE svg PUBLIC "-//W3C//DTD SVG 1.1//EN"
 "http://www.w3.org/Graphics/SVG/1.1/DTD/svg11.dtd">
<!-- Generated by graphviz version 2.32.0 (20130916.1925)
 -->
<!-- Title: rcEngineImpl::updateCaptureLog Pages: 1 -->
<!--zoomable 224 -->
<svg id="main" version="1.1" xmlns="http://www.w3.org/2000/svg" xmlns:xlink="http://www.w3.org/1999/xlink" xml:space="preserve" onload="init(evt)">
        <defs>
                <circle id="rim" cx="0" cy="0" r="7"/>
                <circle id="rim2" cx="0" cy="0" r="3.5"/>
                <g id="zoomPlus">
                        <use xlink:href="#rim" fill="#404040">
                                <set attributeName="fill" to="#808080" begin="zoomplus.mouseover" end="zoomplus.mouseout"/>
                        </use>
                        <path d="M-4,0h8M0,-4v8" fill="none" stroke="white" stroke-width="1.5" pointer-events="none"/>
                </g>
                <g id="zoomMin">
                        <use xlink:href="#rim" fill="#404040">
                                <set attributeName="fill" to="#808080" begin="zoomminus.mouseover" end="zoomminus.mouseout"/>
                        </use>
                        <path d="M-4,0h8" fill="none" stroke="white" stroke-width="1.5" pointer-events="none"/>
                </g>
                <g id="dirArrow">
                        <path fill="none" stroke="white" stroke-width="1.5" d="M0,-3.0v7 M-2.5,-0.5L0,-3.0L2.5,-0.5"/>
                </g>
               <g id="resetDef">
                       <use xlink:href="#rim2" fill="#404040">
                               <set attributeName="fill" to="#808080" begin="reset.mouseover" end="reset.mouseout"/>
                       </use>
               </g>
        </defs>

<script type="text/javascript">
var viewWidth = 1038;
var viewHeight = 224;
var sectionId = 'dynsection-128';
</script>
<script xlink:href="svgpan.js"/>
<svg id="graph" class="graph">
<g id="viewport">
<title>rcEngineImpl::updateCaptureLog</title>
<polygon fill="white" stroke="white" points="-4,5 -4,-220 1035,-220 1035,5 -4,5"/>
<!-- Node1 -->
<g id="node1" class="node"><title>Node1</title>
<polygon fill="#bfbfbf" stroke="black" points="0.618652,-78 0.618652,-98 163.381,-98 163.381,-78 0.618652,-78"/>
<text text-anchor="middle" x="82" y="-84" font-family="Helvetica,sans-Serif" font-size="10.00">rcEngineImpl::updateCaptureLog</text>
</g>
<!-- Node2 -->
<g id="node2" class="node"><title>Node2</title>
<g id="a_node2"><a xlink:href="classrc_video_cache.html#aa85808f161304b912d91bf4038f0369b" target="_top" xlink:title="rcVideoCache::averageFrameRate">
<polygon fill="white" stroke="black" points="206.827,-137 206.827,-157 377.173,-157 377.173,-137 206.827,-137"/>
<text text-anchor="middle" x="292" y="-143" font-family="Helvetica,sans-Serif" font-size="10.00">rcVideoCache::averageFrameRate</text>
</a>
</g>
</g>
<!-- Node1&#45;&gt;Node2 -->
<g id="edge1" class="edge"><title>Node1&#45;&gt;Node2</title>
<path fill="none" stroke="midnightblue" d="M110.642,-98.1312C134.191,-106.541 169.039,-118.463 200,-127 209.926,-129.737 220.543,-132.349 230.892,-134.73"/>
<polygon fill="midnightblue" stroke="midnightblue" points="230.178,-138.157 240.702,-136.938 231.715,-131.328 230.178,-138.157"/>
</g>
<!-- Node3 -->
<g id="node3" class="node"><title>Node3</title>
<g id="a_node3"><a xlink:href="textio_8cpp.html#a905a4c61e365d406069f00eb68db1ca5" target="_top" xlink:title="endl">
<polygon fill="white" stroke="black" points="274.547,-98 274.547,-118 309.453,-118 309.453,-98 274.547,-98"/>
<text text-anchor="middle" x="292" y="-104" font-family="Helvetica,sans-Serif" font-size="10.00">endl</text>
</a>
</g>
</g>
<!-- Node1&#45;&gt;Node3 -->
<g id="edge2" class="edge"><title>Node1&#45;&gt;Node3</title>
<path fill="none" stroke="midnightblue" d="M163.418,-95.7325C199.229,-99.1758 238.977,-102.998 264.439,-105.446"/>
<polygon fill="midnightblue" stroke="midnightblue" points="264.135,-108.933 274.424,-106.406 264.805,-101.965 264.135,-108.933"/>
</g>
<!-- Node15 -->
<g id="node15" class="node"><title>Node15</title>
<g id="a_node15"><a xlink:href="classrc_video_cache.html#ac387a28bd8afa08bca02c5ebca6291c7" target="_top" xlink:title="rcVideoCache::movieFileExperiments">
<polygon fill="white" stroke="black" points="200.721,-59 200.721,-79 383.279,-79 383.279,-59 200.721,-59"/>
<text text-anchor="middle" x="292" y="-65" font-family="Helvetica,sans-Serif" font-size="10.00">rcVideoCache::movieFileExperiments</text>
</a>
</g>
</g>
<!-- Node1&#45;&gt;Node15 -->
<g id="edge14" class="edge"><title>Node1&#45;&gt;Node15</title>
<path fill="none" stroke="midnightblue" d="M163.418,-80.6541C172.223,-79.8499 181.265,-79.0239 190.274,-78.2009"/>
<polygon fill="midnightblue" stroke="midnightblue" points="190.778,-81.6696 200.418,-77.2743 190.141,-74.6986 190.778,-81.6696"/>
</g>
<!-- Node16 -->
<g id="node16" class="node"><title>Node16</title>
<g id="a_node16"><a xlink:href="classrc_video_cache.html#aa5fb8bf922cdc2175ec9bbaf01714e1e" target="_top" xlink:title="rcVideoCache::movieFileOrigins">
<polygon fill="white" stroke="black" points="212.672,-20 212.672,-40 371.328,-40 371.328,-20 212.672,-20"/>
<text text-anchor="middle" x="292" y="-26" font-family="Helvetica,sans-Serif" font-size="10.00">rcVideoCache::movieFileOrigins</text>
</a>
</g>
</g>
<!-- Node1&#45;&gt;Node16 -->
<g id="edge15" class="edge"><title>Node1&#45;&gt;Node16</title>
<path fill="none" stroke="midnightblue" d="M111.614,-77.8402C135.158,-69.6906 169.497,-58.2843 200,-50 210.055,-47.2692 220.812,-44.6463 231.28,-42.2501"/>
<polygon fill="midnightblue" stroke="midnightblue" points="232.204,-45.6298 241.196,-40.0259 230.672,-38.7995 232.204,-45.6298"/>
</g>
<!-- Node4 -->
<g id="node4" class="node"><title>Node4</title>
<g id="a_node4"><a xlink:href="classotext.html#a5086c0fd5e3f551eae3027e5d23d3c30" target="_top" xlink:title="otext::put">
<polygon fill="white" stroke="black" points="420.431,-98 420.431,-118 477.569,-118 477.569,-98 420.431,-98"/>
<text text-anchor="middle" x="449" y="-104" font-family="Helvetica,sans-Serif" font-size="10.00">otext::put</text>
</a>
</g>
</g>
<!-- Node3&#45;&gt;Node4 -->
<g id="edge3" class="edge"><title>Node3&#45;&gt;Node4</title>
<path fill="none" stroke="midnightblue" d="M309.588,-108C333.374,-108 377.84,-108 409.965,-108"/>
<polygon fill="midnightblue" stroke="midnightblue" points="410.339,-111.5 420.339,-108 410.339,-104.5 410.339,-111.5"/>
</g>
<!-- Node5 -->
<g id="node5" class="node"><title>Node5</title>
<g id="a_node5"><a xlink:href="classotext.html#ab52b059090ba70eeeac469f9051d3a22" target="_top" xlink:title="otext::flush">
<polygon fill="white" stroke="black" points="535.82,-196 535.82,-216 600.18,-216 600.18,-196 535.82,-196"/>
<text text-anchor="middle" x="568" y="-202" font-family="Helvetica,sans-Serif" font-size="10.00">otext::flush</text>
</a>
</g>
</g>
<!-- Node4&#45;&gt;Node5 -->
<g id="edge4" class="edge"><title>Node4&#45;&gt;Node5</title>
<path fill="none" stroke="midnightblue" d="M455.8,-118.047C465.737,-134.439 487.526,-167.01 514,-186 517.742,-188.684 521.889,-191.056 526.167,-193.139"/>
<polygon fill="midnightblue" stroke="midnightblue" points="525.068,-196.478 535.635,-197.249 527.855,-190.057 525.068,-196.478"/>
</g>
<!-- Node7 -->
<g id="node7" class="node"><title>Node7</title>
<g id="a_node7"><a xlink:href="classobuff.html#a069bcd2767c0d7c8e2bc8cd26d91e267" target="_top" xlink:title="obuff::increment">
<polygon fill="white" stroke="black" points="524.236,-157 524.236,-177 611.764,-177 611.764,-157 524.236,-157"/>
<text text-anchor="middle" x="568" y="-163" font-family="Helvetica,sans-Serif" font-size="10.00">obuff::increment</text>
</a>
</g>
</g>
<!-- Node4&#45;&gt;Node7 -->
<g id="edge6" class="edge"><title>Node4&#45;&gt;Node7</title>
<path fill="none" stroke="midnightblue" d="M464.81,-118.119C477.502,-126.521 496.46,-138.439 514,-147 518.408,-149.151 523.11,-151.224 527.825,-153.166"/>
<polygon fill="midnightblue" stroke="midnightblue" points="526.841,-156.541 537.428,-156.954 529.41,-150.029 526.841,-156.541"/>
</g>
<!-- Node8 -->
<g id="node8" class="node"><title>Node8</title>
<g id="a_node8"><a xlink:href="classobuff.html#a51efd4e8e00303842fa762940aad86ec" target="_top" xlink:title="obuff::line_buffer">
<polygon fill="white" stroke="black" points="522.927,-118 522.927,-138 613.073,-138 613.073,-118 522.927,-118"/>
<text text-anchor="middle" x="568" y="-124" font-family="Helvetica,sans-Serif" font-size="10.00">obuff::line_buffer</text>
</a>
</g>
</g>
<!-- Node4&#45;&gt;Node8 -->
<g id="edge7" class="edge"><title>Node4&#45;&gt;Node8</title>
<path fill="none" stroke="midnightblue" d="M477.727,-112.74C488.18,-114.527 500.466,-116.627 512.523,-118.688"/>
<polygon fill="midnightblue" stroke="midnightblue" points="512.104,-122.167 522.551,-120.402 513.284,-115.267 512.104,-122.167"/>
</g>
<!-- Node9 -->
<g id="node9" class="node"><title>Node9</title>
<g id="a_node9"><a xlink:href="classobuff.html#a0711113beee11f9793f5ba9e8e64c641" target="_top" xlink:title="obuff::newline_mode">
<polygon fill="white" stroke="black" points="513.945,-79 513.945,-99 622.055,-99 622.055,-79 513.945,-79"/>
<text text-anchor="middle" x="568" y="-85" font-family="Helvetica,sans-Serif" font-size="10.00">obuff::newline_mode</text>
</a>
</g>
</g>
<!-- Node4&#45;&gt;Node9 -->
<g id="edge8" class="edge"><title>Node4&#45;&gt;Node9</title>
<path fill="none" stroke="midnightblue" d="M477.727,-103.497C485.667,-102.208 494.665,-100.747 503.816,-99.2606"/>
<polygon fill="midnightblue" stroke="midnightblue" points="504.454,-102.703 513.764,-97.6452 503.332,-95.7935 504.454,-102.703"/>
</g>
<!-- Node10 -->
<g id="node10" class="node"><title>Node10</title>
<g id="a_node10"><a xlink:href="classobuff.html#a5bbb61ac15c672da7f7b2002bef6b128" target="_top" xlink:title="obuff::put">
<polygon fill="white" stroke="black" points="539.238,-40 539.238,-60 596.762,-60 596.762,-40 539.238,-40"/>
<text text-anchor="middle" x="568" y="-46" font-family="Helvetica,sans-Serif" font-size="10.00">obuff::put</text>
</a>
</g>
</g>
<!-- Node4&#45;&gt;Node10 -->
<g id="edge9" class="edge"><title>Node4&#45;&gt;Node10</title>
<path fill="none" stroke="midnightblue" d="M465.359,-97.8431C478.068,-89.6951 496.765,-78.2897 514,-70 518.985,-67.6021 524.339,-65.2924 529.658,-63.1478"/>
<polygon fill="midnightblue" stroke="midnightblue" points="531.05,-66.362 539.108,-59.4827 528.519,-59.8356 531.05,-66.362"/>
</g>
<!-- Node11 -->
<g id="node11" class="node"><title>Node11</title>
<g id="a_node11"><a xlink:href="classotext.html#a2a2435d80cce60cb88360c7bfe3f8445" target="_top" xlink:title="otext::set_error">
<polygon fill="white" stroke="black" points="526.375,-1 526.375,-21 609.625,-21 609.625,-1 526.375,-1"/>
<text text-anchor="middle" x="568" y="-7" font-family="Helvetica,sans-Serif" font-size="10.00">otext::set_error</text>
</a>
</g>
</g>
<!-- Node4&#45;&gt;Node11 -->
<g id="edge10" class="edge"><title>Node4&#45;&gt;Node11</title>
<path fill="none" stroke="midnightblue" d="M455.994,-97.8231C466.05,-81.563 487.81,-49.6611 514,-31 516.891,-28.9401 520.02,-27.0635 523.263,-25.3595"/>
<polygon fill="midnightblue" stroke="midnightblue" points="525.017,-28.4037 532.6,-21.005 522.058,-22.0597 525.017,-28.4037"/>
</g>
<!-- Node6 -->
<g id="node6" class="node"><title>Node6</title>
<g id="a_node6"><a xlink:href="classobuff.html#a8fb8969c450f4fdc037f8c51d35c87c7" target="_top" xlink:title="obuff::flush">
<polygon fill="white" stroke="black" points="667.627,-196 667.627,-216 732.373,-216 732.373,-196 667.627,-196"/>
<text text-anchor="middle" x="700" y="-202" font-family="Helvetica,sans-Serif" font-size="10.00">obuff::flush</text>
</a>
</g>
</g>
<!-- Node5&#45;&gt;Node6 -->
<g id="edge5" class="edge"><title>Node5&#45;&gt;Node6</title>
<path fill="none" stroke="midnightblue" d="M600.469,-206C617.509,-206 638.782,-206 657.196,-206"/>
<polygon fill="midnightblue" stroke="midnightblue" points="657.37,-209.5 667.37,-206 657.37,-202.5 657.37,-209.5"/>
</g>
<!-- Node12 -->
<g id="node12" class="node"><title>Node12</title>
<g id="a_node12"><a xlink:href="classobuff.html#ae388e9608d1c873d1feaf621f4044c25" target="_top" xlink:title="obuff::set_error">
<polygon fill="white" stroke="black" points="658.182,-1 658.182,-21 741.818,-21 741.818,-1 658.182,-1"/>
<text text-anchor="middle" x="700" y="-7" font-family="Helvetica,sans-Serif" font-size="10.00">obuff::set_error</text>
</a>
</g>
</g>
<!-- Node11&#45;&gt;Node12 -->
<g id="edge11" class="edge"><title>Node11&#45;&gt;Node12</title>
<path fill="none" stroke="midnightblue" d="M609.776,-11C621.76,-11 635.026,-11 647.583,-11"/>
<polygon fill="midnightblue" stroke="midnightblue" points="647.922,-14.5001 657.922,-11 647.922,-7.5001 647.922,-14.5001"/>
</g>
<!-- Node13 -->
<g id="node13" class="node"><title>Node13</title>
<g id="a_node13"><a xlink:href="class_t_c_p__client__data.html#a970f6bf6bb6e6166615813c5f7768381" target="_top" xlink:title="TCP_client_data::error">
<polygon fill="white" stroke="black" points="778.7,-1 778.7,-21 895.3,-21 895.3,-1 778.7,-1"/>
<text text-anchor="middle" x="837" y="-7" font-family="Helvetica,sans-Serif" font-size="10.00">TCP_client_data::error</text>
</a>
</g>
</g>
<!-- Node12&#45;&gt;Node13 -->
<g id="edge12" class="edge"><title>Node12&#45;&gt;Node13</title>
<path fill="none" stroke="midnightblue" d="M741.871,-11C750.216,-11 759.208,-11 768.206,-11"/>
<polygon fill="midnightblue" stroke="midnightblue" points="768.335,-14.5001 778.335,-11 768.335,-7.5001 768.335,-14.5001"/>
</g>
<!-- Node14 -->
<g id="node14" class="node"><title>Node14</title>
<g id="a_node14"><a xlink:href="class_t_c_p__socket.html#adb70059ca46476efe0ced51ed377a975" target="_top" xlink:title="TCP_socket::error">
<polygon fill="white" stroke="black" points="932.434,-1 932.434,-21 1029.57,-21 1029.57,-1 932.434,-1"/>
<text text-anchor="middle" x="981" y="-7" font-family="Helvetica,sans-Serif" font-size="10.00">TCP_socket::error</text>
</a>
</g>
</g>
<!-- Node13&#45;&gt;Node14 -->
<g id="edge13" class="edge"><title>Node13&#45;&gt;Node14</title>
<path fill="none" stroke="midnightblue" d="M895.348,-11C904.089,-11 913.117,-11 921.875,-11"/>
<polygon fill="midnightblue" stroke="midnightblue" points="921.998,-14.5001 931.998,-11 921.998,-7.5001 921.998,-14.5001"/>
</g>
</g>
</svg>
        <g id="navigator" transform="translate(0 0)" fill="#404254">
                <rect fill="#f2f5e9" fill-opacity="0.5" stroke="#606060" stroke-width=".5" x="0" y="0" width="60" height="60"/>
                <use id="zoomplus" xlink:href="#zoomPlus" x="17" y="9" onmousedown="handleZoom(evt,'in')"/>
                <use id="zoomminus" xlink:href="#zoomMin" x="42" y="9" onmousedown="handleZoom(evt,'out')"/>
                <use id="reset" xlink:href="#resetDef" x="30" y="36" onmousedown="handleReset()"/>
                <g id="arrowUp" xlink:href="#dirArrow" transform="translate(30 24)" onmousedown="handlePan(0,-1)">
                  <use xlink:href="#rim" fill="#404040">
                        <set attributeName="fill" to="#808080" begin="arrowUp.mouseover" end="arrowUp.mouseout"/>
                  </use>
                  <path fill="none" stroke="white" stroke-width="1.5" d="M0,-3.0v7 M-2.5,-0.5L0,-3.0L2.5,-0.5"/>
                </g>
                <g id="arrowRight" xlink:href="#dirArrow" transform="rotate(90) translate(36 -43)" onmousedown="handlePan(1,0)">
                  <use xlink:href="#rim" fill="#404040">
                        <set attributeName="fill" to="#808080" begin="arrowRight.mouseover" end="arrowRight.mouseout"/>
                  </use>
                  <path fill="none" stroke="white" stroke-width="1.5" d="M0,-3.0v7 M-2.5,-0.5L0,-3.0L2.5,-0.5"/>
                </g>
                <g id="arrowDown" xlink:href="#dirArrow" transform="rotate(180) translate(-30 -48)" onmousedown="handlePan(0,1)">
                  <use xlink:href="#rim" fill="#404040">
                        <set attributeName="fill" to="#808080" begin="arrowDown.mouseover" end="arrowDown.mouseout"/>
                  </use>
                  <path fill="none" stroke="white" stroke-width="1.5" d="M0,-3.0v7 M-2.5,-0.5L0,-3.0L2.5,-0.5"/>
                </g>
                <g id="arrowLeft" xlink:href="#dirArrow" transform="rotate(270) translate(-36 17)" onmousedown="handlePan(-1,0)">
                  <use xlink:href="#rim" fill="#404040">
                        <set attributeName="fill" to="#808080" begin="arrowLeft.mouseover" end="arrowLeft.mouseout"/>
                  </use>
                  <path fill="none" stroke="white" stroke-width="1.5" d="M0,-3.0v7 M-2.5,-0.5L0,-3.0L2.5,-0.5"/>
                </g>
        </g>
        <svg viewBox="0 0 15 15" width="100%" height="30px" preserveAspectRatio="xMaxYMin meet">
         <g id="arrow_out" transform="scale(0.3 0.3)">
          <a xlink:href="classrc_engine_impl_a26c13439e2a3fbecef6976a8a6b292c2_cgraph_org.svg" target="_base">
           <rect id="button" ry="5" rx="5" y="6" x="6" height="38" width="38"
                fill="#f2f5e9" fill-opacity="0.5" stroke="#606060" stroke-width="1.0"/>
           <path id="arrow"
             d="M 11.500037,31.436501 C 11.940474,20.09759 22.043105,11.32322 32.158766,21.979434 L 37.068811,17.246167 C 37.068811,17.246167 37.088388,32 37.088388,32 L 22.160133,31.978069 C 22.160133,31.978069 26.997745,27.140456 26.997745,27.140456 C 18.528582,18.264221 13.291696,25.230495 11.500037,31.436501 z"
             style="fill:#404040;"/>
          </a>
         </g>
        </svg>
</svg>
