<?xml version="1.0" encoding="UTF-8" standalone="no"?>
<!DOCTYPE svg PUBLIC "-//W3C//DTD SVG 1.1//EN"
 "http://www.w3.org/Graphics/SVG/1.1/DTD/svg11.dtd">
<!-- Generated by graphviz version 2.32.0 (20130916.1925)
 -->
<!-- Title: rcPositionSegmentIteratorImpl::contains Pages: 1 -->
<svg width="444pt" height="67pt"
 viewBox="0.00 0.00 444.00 67.00" xmlns="http://www.w3.org/2000/svg" xmlns:xlink="http://www.w3.org/1999/xlink">
<g id="graph0" class="graph" transform="scale(1 1) rotate(0) translate(4 63)">
<title>rcPositionSegmentIteratorImpl::contains</title>
<polygon fill="white" stroke="white" points="-4,5 -4,-63 441,-63 441,5 -4,5"/>
<!-- Node1 -->
<g id="node1" class="node"><title>Node1</title>
<polygon fill="#bfbfbf" stroke="black" points="0.194824,-13 0.194824,-45 131.805,-45 131.805,-13 0.194824,-13"/>
<text text-anchor="start" x="8.19482" y="-31" font-family="Helvetica,sans-Serif" font-size="10.00">rcPositionSegmentIterator</text>
<text text-anchor="middle" x="66" y="-19" font-family="Helvetica,sans-Serif" font-size="10.00">Impl::contains</text>
</g>
<!-- Node2 -->
<g id="node2" class="node"><title>Node2</title>
<g id="a_node2"><a xlink:href="classrc_segment_iterator_impl.html#a0cfe7eed1e51162550769acf74fc9a39" target="_top" xlink:title="rcSegmentIteratorImpl\l::contains">
<polygon fill="white" stroke="black" points="168.537,-13 168.537,-45 283.463,-45 283.463,-13 168.537,-13"/>
<text text-anchor="start" x="176.537" y="-31" font-family="Helvetica,sans-Serif" font-size="10.00">rcSegmentIteratorImpl</text>
<text text-anchor="middle" x="226" y="-19" font-family="Helvetica,sans-Serif" font-size="10.00">::contains</text>
</a>
</g>
</g>
<!-- Node1&#45;&gt;Node2 -->
<g id="edge1" class="edge"><title>Node1&#45;&gt;Node2</title>
<path fill="none" stroke="midnightblue" d="M132.177,-29C140.638,-29 149.317,-29 157.809,-29"/>
<polygon fill="midnightblue" stroke="midnightblue" points="158.049,-32.5001 168.049,-29 158.049,-25.5001 158.049,-32.5001"/>
</g>
<!-- Node3 -->
<g id="node3" class="node"><title>Node3</title>
<g id="a_node3"><a xlink:href="classrc_segment_impl.html#ad3c4f17458bfc71d0b0d1b0ab846b89a" target="_top" xlink:title="rcSegmentImpl::start">
<polygon fill="white" stroke="black" points="323.875,-39 323.875,-59 432.125,-59 432.125,-39 323.875,-39"/>
<text text-anchor="middle" x="378" y="-45" font-family="Helvetica,sans-Serif" font-size="10.00">rcSegmentImpl::start</text>
</a>
</g>
</g>
<!-- Node2&#45;&gt;Node3 -->
<g id="edge2" class="edge"><title>Node2&#45;&gt;Node3</title>
<path fill="none" stroke="midnightblue" d="M283.709,-36.5611C293.437,-37.8583 303.603,-39.2138 313.496,-40.5328"/>
<polygon fill="midnightblue" stroke="midnightblue" points="313.302,-44.0378 323.677,-41.8902 314.227,-37.0992 313.302,-44.0378"/>
</g>
<!-- Node4 -->
<g id="node4" class="node"><title>Node4</title>
<g id="a_node4"><a xlink:href="classrc_segment_impl.html#a3e75fcd7573f9ec7f1d4aa3c46255098" target="_top" xlink:title="rcSegmentImpl::length">
<polygon fill="white" stroke="black" points="319.976,-0 319.976,-20 436.024,-20 436.024,-0 319.976,-0"/>
<text text-anchor="middle" x="378" y="-6" font-family="Helvetica,sans-Serif" font-size="10.00">rcSegmentImpl::length</text>
</a>
</g>
</g>
<!-- Node2&#45;&gt;Node4 -->
<g id="edge3" class="edge"><title>Node2&#45;&gt;Node4</title>
<path fill="none" stroke="midnightblue" d="M283.709,-21.8169C292.176,-20.7444 300.975,-19.6299 309.636,-18.5327"/>
<polygon fill="midnightblue" stroke="midnightblue" points="310.232,-21.9853 319.713,-17.2564 309.352,-15.0408 310.232,-21.9853"/>
</g>
</g>
</svg>
