<?xml version="1.0" encoding="UTF-8" standalone="no"?>
<!DOCTYPE svg PUBLIC "-//W3C//DTD SVG 1.1//EN"
 "http://www.w3.org/Graphics/SVG/1.1/DTD/svg11.dtd">
<!-- Generated by graphviz version 2.32.0 (20130916.1925)
 -->
<!-- Title: rcFeature::polar Pages: 1 -->
<svg width="222pt" height="67pt"
 viewBox="0.00 0.00 222.00 67.00" xmlns="http://www.w3.org/2000/svg" xmlns:xlink="http://www.w3.org/1999/xlink">
<g id="graph0" class="graph" transform="scale(1 1) rotate(0) translate(4 63)">
<title>rcFeature::polar</title>
<polygon fill="white" stroke="white" points="-4,5 -4,-63 219,-63 219,5 -4,5"/>
<!-- Node1 -->
<g id="node1" class="node"><title>Node1</title>
<polygon fill="#bfbfbf" stroke="black" points="0.707031,-19 0.707031,-39 87.293,-39 87.293,-19 0.707031,-19"/>
<text text-anchor="middle" x="44" y="-25" font-family="Helvetica,sans-Serif" font-size="10.00">rcFeature::polar</text>
</g>
<!-- Node2 -->
<g id="node2" class="node"><title>Node2</title>
<g id="a_node2"><a xlink:href="classrc_feature.html#a495a88d2e912d01d22f328e98d805e71" target="_top" xlink:title="rcFeature::angle">
<polygon fill="white" stroke="black" points="124.591,-39 124.591,-59 213.409,-59 213.409,-39 124.591,-39"/>
<text text-anchor="middle" x="169" y="-45" font-family="Helvetica,sans-Serif" font-size="10.00">rcFeature::angle</text>
</a>
</g>
</g>
<!-- Node1&#45;&gt;Node2 -->
<g id="edge1" class="edge"><title>Node1&#45;&gt;Node2</title>
<path fill="none" stroke="midnightblue" d="M97.3328,-37.5094C106.331,-38.9725 115.597,-40.4792 124.337,-41.9004"/>
<polygon fill="midnightblue" stroke="midnightblue" points="97.7617,-34.0333 87.3296,-35.8829 96.6382,-40.9425 97.7617,-34.0333"/>
</g>
<!-- Node3 -->
<g id="node3" class="node"><title>Node3</title>
<g id="a_node3"><a xlink:href="classrc_feature.html#a600c6c3b5cae1ddd6757173229ea9a19" target="_top" xlink:title="rcFeature::polar">
<polygon fill="white" stroke="black" points="125.707,-0 125.707,-20 212.293,-20 212.293,-0 125.707,-0"/>
<text text-anchor="middle" x="169" y="-6" font-family="Helvetica,sans-Serif" font-size="10.00">rcFeature::polar</text>
</a>
</g>
</g>
<!-- Node1&#45;&gt;Node3 -->
<g id="edge2" class="edge"><title>Node1&#45;&gt;Node3</title>
<path fill="none" stroke="midnightblue" d="M97.3869,-20.9077C106.8,-19.4536 116.505,-17.9545 125.592,-16.5508"/>
<polygon fill="midnightblue" stroke="midnightblue" points="96.6781,-17.4756 87.3296,-22.4613 97.7468,-24.3936 96.6781,-17.4756"/>
</g>
</g>
</svg>
