<?xml version="1.0" encoding="UTF-8" standalone="no"?>
<!DOCTYPE svg PUBLIC "-//W3C//DTD SVG 1.1//EN"
 "http://www.w3.org/Graphics/SVG/1.1/DTD/svg11.dtd">
<!-- Generated by graphviz version 2.32.0 (20130916.1925)
 -->
<!-- Title: rcKinetoscope::update Pages: 1 -->
<svg width="790pt" height="286pt"
 viewBox="0.00 0.00 790.00 286.00" xmlns="http://www.w3.org/2000/svg" xmlns:xlink="http://www.w3.org/1999/xlink">
<g id="graph0" class="graph" transform="scale(1 1) rotate(0) translate(4 282)">
<title>rcKinetoscope::update</title>
<polygon fill="white" stroke="white" points="-4,5 -4,-282 787,-282 787,5 -4,5"/>
<!-- Node1 -->
<g id="node1" class="node"><title>Node1</title>
<polygon fill="#bfbfbf" stroke="black" points="0.244141,-117 0.244141,-137 115.756,-137 115.756,-117 0.244141,-117"/>
<text text-anchor="middle" x="58" y="-123" font-family="Helvetica,sans-Serif" font-size="10.00">rcKinetoscope::update</text>
</g>
<!-- Node2 -->
<g id="node2" class="node"><title>Node2</title>
<g id="a_node2"><a xlink:href="classrc_kinetoscope.html#ab3e8ffaa10b63ad834714f6dcdec851c" target="_top" xlink:title="rcKinetoscope::frameCount">
<polygon fill="white" stroke="black" points="152.414,-258 152.414,-278 289.586,-278 289.586,-258 152.414,-258"/>
<text text-anchor="middle" x="221" y="-264" font-family="Helvetica,sans-Serif" font-size="10.00">rcKinetoscope::frameCount</text>
</a>
</g>
</g>
<!-- Node1&#45;&gt;Node2 -->
<g id="edge1" class="edge"><title>Node1&#45;&gt;Node2</title>
<path fill="none" stroke="midnightblue" d="M63.9504,-137.187C75.7922,-160.472 108.07,-217.896 152,-248 155.275,-250.244 158.805,-252.241 162.473,-254.016"/>
<polygon fill="midnightblue" stroke="midnightblue" points="161.238,-257.294 171.81,-257.988 163.979,-250.853 161.238,-257.294"/>
</g>
<!-- Node4 -->
<g id="node4" class="node"><title>Node4</title>
<g id="a_node4"><a xlink:href="classgeneral__exception.html#a6bcc0385409aba8c8228de60bf90b597" target="_top" xlink:title="general_exception::\lGetFile">
<polygon fill="white" stroke="black" points="169.357,-207 169.357,-239 272.643,-239 272.643,-207 169.357,-207"/>
<text text-anchor="start" x="177.357" y="-225" font-family="Helvetica,sans-Serif" font-size="10.00">general_exception::</text>
<text text-anchor="middle" x="221" y="-213" font-family="Helvetica,sans-Serif" font-size="10.00">GetFile</text>
</a>
</g>
</g>
<!-- Node1&#45;&gt;Node4 -->
<g id="edge3" class="edge"><title>Node1&#45;&gt;Node4</title>
<path fill="none" stroke="midnightblue" d="M70.3067,-137.19C87.1227,-151.94 120.169,-179.395 152,-197 155.671,-199.03 159.532,-200.971 163.474,-202.811"/>
<polygon fill="midnightblue" stroke="midnightblue" points="162.202,-206.076 172.764,-206.918 165.033,-199.674 162.202,-206.076"/>
</g>
<!-- Node5 -->
<g id="node5" class="node"><title>Node5</title>
<g id="a_node5"><a xlink:href="classgeneral__exception.html#a6a789091bb84277ec10301ccac258fa8" target="_top" xlink:title="general_exception::\lGetLine">
<polygon fill="white" stroke="black" points="169.357,-156 169.357,-188 272.643,-188 272.643,-156 169.357,-156"/>
<text text-anchor="start" x="177.357" y="-174" font-family="Helvetica,sans-Serif" font-size="10.00">general_exception::</text>
<text text-anchor="middle" x="221" y="-162" font-family="Helvetica,sans-Serif" font-size="10.00">GetLine</text>
</a>
</g>
</g>
<!-- Node1&#45;&gt;Node5 -->
<g id="edge4" class="edge"><title>Node1&#45;&gt;Node5</title>
<path fill="none" stroke="midnightblue" d="M95.1315,-137.099C114.105,-142.402 137.862,-149.042 159.546,-155.103"/>
<polygon fill="midnightblue" stroke="midnightblue" points="158.765,-158.519 169.338,-157.84 160.65,-151.777 158.765,-158.519"/>
</g>
<!-- Node6 -->
<g id="node6" class="node"><title>Node6</title>
<g id="a_node6"><a xlink:href="classrc_timing_info.html#a5e7930bfdd3c0b07d791a153c79dfdae" target="_top" xlink:title="rcTimingInfo::nextPass">
<polygon fill="white" stroke="black" points="162.331,-117 162.331,-137 279.669,-137 279.669,-117 162.331,-117"/>
<text text-anchor="middle" x="221" y="-123" font-family="Helvetica,sans-Serif" font-size="10.00">rcTimingInfo::nextPass</text>
</a>
</g>
</g>
<!-- Node1&#45;&gt;Node6 -->
<g id="edge5" class="edge"><title>Node1&#45;&gt;Node6</title>
<path fill="none" stroke="midnightblue" d="M115.763,-127C127.504,-127 139.984,-127 152.077,-127"/>
<polygon fill="midnightblue" stroke="midnightblue" points="152.119,-130.5 162.119,-127 152.119,-123.5 152.119,-130.5"/>
</g>
<!-- Node9 -->
<g id="node9" class="node"><title>Node9</title>
<g id="a_node9"><a xlink:href="classrc_timing_info.html#a76381999c6a6d932ccec2d42c7b4d61b" target="_top" xlink:title="rcTimingInfo::printInfo">
<polygon fill="white" stroke="black" points="164.831,-78 164.831,-98 277.169,-98 277.169,-78 164.831,-78"/>
<text text-anchor="middle" x="221" y="-84" font-family="Helvetica,sans-Serif" font-size="10.00">rcTimingInfo::printInfo</text>
</a>
</g>
</g>
<!-- Node1&#45;&gt;Node9 -->
<g id="edge8" class="edge"><title>Node1&#45;&gt;Node9</title>
<path fill="none" stroke="midnightblue" d="M100.462,-116.957C121.307,-111.907 146.76,-105.741 168.814,-100.399"/>
<polygon fill="midnightblue" stroke="midnightblue" points="169.784,-103.765 178.679,-98.0094 168.136,-96.9622 169.784,-103.765"/>
</g>
<!-- Node10 -->
<g id="node10" class="node"><title>Node10</title>
<g id="a_node10"><a xlink:href="classrc_timing_info.html#a50ba9cb10b77d8673443680f2a42e4c9" target="_top" xlink:title="rcTimingInfo::touch">
<polygon fill="white" stroke="black" points="170.666,-39 170.666,-59 271.334,-59 271.334,-39 170.666,-39"/>
<text text-anchor="middle" x="221" y="-45" font-family="Helvetica,sans-Serif" font-size="10.00">rcTimingInfo::touch</text>
</a>
</g>
</g>
<!-- Node1&#45;&gt;Node10 -->
<g id="edge9" class="edge"><title>Node1&#45;&gt;Node10</title>
<path fill="none" stroke="midnightblue" d="M72.5176,-116.913C90.054,-104.227 121.967,-82.4785 152,-69 157.466,-66.5469 163.313,-64.3035 169.197,-62.2787"/>
<polygon fill="midnightblue" stroke="midnightblue" points="170.641,-65.4902 179.076,-59.0792 168.484,-58.8308 170.641,-65.4902"/>
</g>
<!-- Node14 -->
<g id="node14" class="node"><title>Node14</title>
<g id="a_node14"><a xlink:href="classgeneral__exception.html#a94a11f479c950ebf385096aec6f6e8bf" target="_top" xlink:title="general_exception::what">
<polygon fill="white" stroke="black" points="158.796,-0 158.796,-20 283.204,-20 283.204,-0 158.796,-0"/>
<text text-anchor="middle" x="221" y="-6" font-family="Helvetica,sans-Serif" font-size="10.00">general_exception::what</text>
</a>
</g>
</g>
<!-- Node1&#45;&gt;Node14 -->
<g id="edge14" class="edge"><title>Node1&#45;&gt;Node14</title>
<path fill="none" stroke="midnightblue" d="M65.6505,-116.978C79.367,-97.1055 112.817,-52.5947 152,-29 155.18,-27.0852 158.559,-25.3576 162.045,-23.7996"/>
<polygon fill="midnightblue" stroke="midnightblue" points="163.46,-27.0036 171.463,-20.0598 160.877,-20.4978 163.46,-27.0036"/>
</g>
<!-- Node3 -->
<g id="node3" class="node"><title>Node3</title>
<g id="a_node3"><a xlink:href="classrc_kinetoscope.html#aa2f14f99f252f047ed98b30f932307ab" target="_top" xlink:title="rcKinetoscope::count">
<polygon fill="white" stroke="black" points="326.306,-258 326.306,-278 435.694,-278 435.694,-258 326.306,-258"/>
<text text-anchor="middle" x="381" y="-264" font-family="Helvetica,sans-Serif" font-size="10.00">rcKinetoscope::count</text>
</a>
</g>
</g>
<!-- Node2&#45;&gt;Node3 -->
<g id="edge2" class="edge"><title>Node2&#45;&gt;Node3</title>
<path fill="none" stroke="midnightblue" d="M289.923,-268C298.486,-268 307.225,-268 315.729,-268"/>
<polygon fill="midnightblue" stroke="midnightblue" points="315.957,-271.5 325.957,-268 315.957,-264.5 315.957,-271.5"/>
</g>
<!-- Node7 -->
<g id="node7" class="node"><title>Node7</title>
<g id="a_node7"><a xlink:href="classrc_timestamp.html#a7e749f376ff8741e79a2dbba2419e78f" target="_top" xlink:title="rcTimestamp::now">
<polygon fill="white" stroke="black" points="332.341,-97 332.341,-117 429.659,-117 429.659,-97 332.341,-97"/>
<text text-anchor="middle" x="381" y="-103" font-family="Helvetica,sans-Serif" font-size="10.00">rcTimestamp::now</text>
</a>
</g>
</g>
<!-- Node6&#45;&gt;Node7 -->
<g id="edge6" class="edge"><title>Node6&#45;&gt;Node7</title>
<path fill="none" stroke="midnightblue" d="M279.936,-119.666C293.622,-117.934 308.217,-116.086 321.91,-114.353"/>
<polygon fill="midnightblue" stroke="midnightblue" points="322.693,-117.782 332.174,-113.054 321.814,-110.837 322.693,-117.782"/>
</g>
<!-- Node8 -->
<g id="node8" class="node"><title>Node8</title>
<g id="a_node8"><a xlink:href="rc__timestamp__mac_8cpp.html#af7988734f76c2effcc4118da588b8779" target="_top" xlink:title="getCurrentTimestamp">
<polygon fill="white" stroke="black" points="489.833,-97 489.833,-117 602.167,-117 602.167,-97 489.833,-97"/>
<text text-anchor="middle" x="546" y="-103" font-family="Helvetica,sans-Serif" font-size="10.00">getCurrentTimestamp</text>
</a>
</g>
</g>
<!-- Node7&#45;&gt;Node8 -->
<g id="edge7" class="edge"><title>Node7&#45;&gt;Node8</title>
<path fill="none" stroke="midnightblue" d="M430.024,-107C445.5,-107 462.924,-107 479.441,-107"/>
<polygon fill="midnightblue" stroke="midnightblue" points="479.581,-110.5 489.581,-107 479.581,-103.5 479.581,-110.5"/>
</g>
<!-- Node10&#45;&gt;Node7 -->
<g id="edge10" class="edge"><title>Node10&#45;&gt;Node7</title>
<path fill="none" stroke="midnightblue" d="M258.948,-59.0396C269.088,-62.0188 280.033,-65.443 290,-69 309.763,-76.0528 331.444,-85.1638 348.573,-92.6964"/>
<polygon fill="midnightblue" stroke="midnightblue" points="347.524,-96.0602 358.084,-96.9217 350.366,-89.6631 347.524,-96.0602"/>
</g>
<!-- Node11 -->
<g id="node11" class="node"><title>Node11</title>
<g id="a_node11"><a xlink:href="classrc_timestamp.html#a7a76776edb5c337196cf10c009339d15" target="_top" xlink:title="rcTimestamp::secs">
<polygon fill="white" stroke="black" points="331.232,-39 331.232,-59 430.768,-59 430.768,-39 331.232,-39"/>
<text text-anchor="middle" x="381" y="-45" font-family="Helvetica,sans-Serif" font-size="10.00">rcTimestamp::secs</text>
</a>
</g>
</g>
<!-- Node10&#45;&gt;Node11 -->
<g id="edge11" class="edge"><title>Node10&#45;&gt;Node11</title>
<path fill="none" stroke="midnightblue" d="M271.559,-49C287.149,-49 304.524,-49 320.718,-49"/>
<polygon fill="midnightblue" stroke="midnightblue" points="321.159,-52.5001 331.159,-49 321.159,-45.5001 321.159,-52.5001"/>
</g>
<!-- Node12 -->
<g id="node12" class="node"><title>Node12</title>
<g id="a_node12"><a xlink:href="rc__timestamp_8h.html#ac624900be52fa7f30d3ad72543cc725d" target="_top" xlink:title="convertTimestampToSeconds">
<polygon fill="white" stroke="black" points="472.321,-39 472.321,-59 619.679,-59 619.679,-39 472.321,-39"/>
<text text-anchor="middle" x="546" y="-45" font-family="Helvetica,sans-Serif" font-size="10.00">convertTimestampToSeconds</text>
</a>
</g>
</g>
<!-- Node11&#45;&gt;Node12 -->
<g id="edge12" class="edge"><title>Node11&#45;&gt;Node12</title>
<path fill="none" stroke="midnightblue" d="M430.905,-49C440.783,-49 451.426,-49 462.101,-49"/>
<polygon fill="midnightblue" stroke="midnightblue" points="462.321,-52.5001 472.321,-49 462.321,-45.5001 462.321,-52.5001"/>
</g>
<!-- Node13 -->
<g id="node13" class="node"><title>Node13</title>
<g id="a_node13"><a xlink:href="rc__timestamp__mac_8cpp.html#a7962719b626553bf7a913f7c2671b777" target="_top" xlink:title="getTimestampResolution">
<polygon fill="white" stroke="black" points="655.88,-39 655.88,-59 782.12,-59 782.12,-39 655.88,-39"/>
<text text-anchor="middle" x="719" y="-45" font-family="Helvetica,sans-Serif" font-size="10.00">getTimestampResolution</text>
</a>
</g>
</g>
<!-- Node12&#45;&gt;Node13 -->
<g id="edge13" class="edge"><title>Node12&#45;&gt;Node13</title>
<path fill="none" stroke="midnightblue" d="M620.015,-49C628.47,-49 637.09,-49 645.537,-49"/>
<polygon fill="midnightblue" stroke="midnightblue" points="645.731,-52.5001 655.731,-49 645.731,-45.5001 645.731,-52.5001"/>
</g>
</g>
</svg>
