<?xml version="1.0" encoding="UTF-8" standalone="no"?>
<!DOCTYPE svg PUBLIC "-//W3C//DTD SVG 1.1//EN"
 "http://www.w3.org/Graphics/SVG/1.1/DTD/svg11.dtd">
<!-- Generated by graphviz version 2.32.0 (20130916.1925)
 -->
<!-- Title: rcMatrix_2d Pages: 1 -->
<svg width="136pt" height="102pt"
 viewBox="0.00 0.00 136.00 102.00" xmlns="http://www.w3.org/2000/svg" xmlns:xlink="http://www.w3.org/1999/xlink">
<g id="graph0" class="graph" transform="scale(1 1) rotate(0) translate(4 98)">
<title>rcMatrix_2d</title>
<polygon fill="white" stroke="white" points="-4,5 -4,-98 133,-98 133,5 -4,5"/>
<!-- Node1 -->
<g id="node1" class="node"><title>Node1</title>
<polygon fill="#bfbfbf" stroke="black" points="29.8818,-1 29.8818,-21 98.1182,-21 98.1182,-1 29.8818,-1"/>
<text text-anchor="middle" x="64" y="-7" font-family="Helvetica,sans-Serif" font-size="10.00">rcMatrix_2d</text>
</g>
<!-- Node1&#45;&gt;Node1 -->
<g id="edge2" class="edge"><title>Node1&#45;&gt;Node1</title>
<path fill="none" stroke="#9a32cd" stroke-dasharray="5,2" d="M108.726,-15.5912C113.171,-14.6727 116,-13.1423 116,-11 116,-7.48438 108.383,-5.6167 98.5043,-5.39697"/>
<polygon fill="#9a32cd" stroke="#9a32cd" points="108.111,-12.1349 98.5043,-16.603 108.8,-19.1008 108.111,-12.1349"/>
<text text-anchor="middle" x="118.778" y="-7" font-family="Helvetica,sans-Serif" font-size="10.00"> I</text>
</g>
<!-- Node2 -->
<g id="node2" class="node"><title>Node2</title>
<polygon fill="white" stroke="#bfbfbf" points="-0.420898,-61 -0.420898,-93 128.421,-93 128.421,-61 -0.420898,-61"/>
<text text-anchor="start" x="7.5791" y="-79" font-family="Helvetica,sans-Serif" font-size="10.00">boost::numeric::ublas</text>
<text text-anchor="middle" x="64" y="-67" font-family="Helvetica,sans-Serif" font-size="10.00">::c_matrix&lt; double, 2, 2 &gt;</text>
</g>
<!-- Node2&#45;&gt;Node1 -->
<g id="edge1" class="edge"><title>Node2&#45;&gt;Node1</title>
<path fill="none" stroke="midnightblue" d="M64,-50.6115C64,-40.2862 64,-29.0006 64,-21.3126"/>
<polygon fill="midnightblue" stroke="midnightblue" points="60.5001,-50.8329 64,-60.8329 67.5001,-50.8329 60.5001,-50.8329"/>
</g>
</g>
</svg>
