<?xml version="1.0" encoding="UTF-8" standalone="no"?>
<!DOCTYPE svg PUBLIC "-//W3C//DTD SVG 1.1//EN"
 "http://www.w3.org/Graphics/SVG/1.1/DTD/svg11.dtd">
<!-- Generated by graphviz version 2.32.0 (20130916.1925)
 -->
<!-- Title: rcMuscleSegmenter Pages: 1 -->
<svg width="590pt" height="432pt"
 viewBox="0.00 0.00 590.00 432.00" xmlns="http://www.w3.org/2000/svg" xmlns:xlink="http://www.w3.org/1999/xlink">
<g id="graph0" class="graph" transform="scale(1 1) rotate(0) translate(4 428)">
<title>rcMuscleSegmenter</title>
<polygon fill="white" stroke="white" points="-4,5 -4,-428 587,-428 587,5 -4,5"/>
<!-- Node1 -->
<g id="node1" class="node"><title>Node1</title>
<polygon fill="#bfbfbf" stroke="black" points="225.54,-1 225.54,-21 330.46,-21 330.46,-1 225.54,-1"/>
<text text-anchor="middle" x="278" y="-7" font-family="Helvetica,sans-Serif" font-size="10.00">rcMuscleSegmenter</text>
</g>
<!-- Node2 -->
<g id="node2" class="node"><title>Node2</title>
<g id="a_node2"><a xlink:href="classrc_pair.html" target="_top" xlink:title="rcPair\&lt; int32 \&gt;">
<polygon fill="white" stroke="black" points="198.483,-343 198.483,-363 279.517,-363 279.517,-343 198.483,-343"/>
<text text-anchor="middle" x="239" y="-349" font-family="Helvetica,sans-Serif" font-size="10.00">rcPair&lt; int32 &gt;</text>
</a>
</g>
</g>
<!-- Node2&#45;&gt;Node1 -->
<g id="edge1" class="edge"><title>Node2&#45;&gt;Node1</title>
<path fill="none" stroke="#9a32cd" stroke-dasharray="5,2" d="M256.154,-335.279C259.088,-331.77 261.872,-327.933 264,-324 275.389,-302.949 278,-295.934 278,-272 278,-272 278,-272 278,-128 278,-88.125 278,-40.5398 278,-21.0246"/>
<polygon fill="#9a32cd" stroke="#9a32cd" points="253.463,-333.035 249.269,-342.764 258.615,-337.774 253.463,-333.035"/>
<text text-anchor="middle" x="310.517" y="-202" font-family="Helvetica,sans-Serif" font-size="10.00"> _segSdImgSz</text>
<text text-anchor="middle" x="310.517" y="-190" font-family="Helvetica,sans-Serif" font-size="10.00">_dSize</text>
</g>
<!-- Node10 -->
<g id="node10" class="node"><title>Node10</title>
<g id="a_node10"><a xlink:href="classrc_rectangle.html" target="_top" xlink:title="rcIRect">
<polygon fill="white" stroke="black" points="177.165,-261 177.165,-281 224.835,-281 224.835,-261 177.165,-261"/>
<text text-anchor="middle" x="201" y="-267" font-family="Helvetica,sans-Serif" font-size="10.00">rcIRect</text>
</a>
</g>
</g>
<!-- Node2&#45;&gt;Node10 -->
<g id="edge11" class="edge"><title>Node2&#45;&gt;Node10</title>
<path fill="none" stroke="#9a32cd" stroke-dasharray="5,2" d="M212.756,-336.769C208.566,-333.134 204.797,-328.871 202.311,-324 195.33,-310.327 197.042,-291.882 198.981,-281.033"/>
<polygon fill="#9a32cd" stroke="#9a32cd" points="210.993,-339.819 221.107,-342.976 215.169,-334.201 210.993,-339.819"/>
<text text-anchor="middle" x="233.845" y="-314" font-family="Helvetica,sans-Serif" font-size="10.00"> mLowerRight</text>
<text text-anchor="middle" x="233.845" y="-302" font-family="Helvetica,sans-Serif" font-size="10.00">mUpperLeft</text>
</g>
<!-- Node3 -->
<g id="node3" class="node"><title>Node3</title>
<polygon fill="white" stroke="#bfbfbf" points="190.971,-403 190.971,-423 287.029,-423 287.029,-403 190.971,-403"/>
<text text-anchor="middle" x="239" y="-409" font-family="Helvetica,sans-Serif" font-size="10.00">pair&lt;int32 ,int32 &gt;</text>
</g>
<!-- Node3&#45;&gt;Node2 -->
<g id="edge2" class="edge"><title>Node3&#45;&gt;Node2</title>
<path fill="none" stroke="midnightblue" d="M239,-392.731C239,-382.781 239,-371.102 239,-363.19"/>
<polygon fill="midnightblue" stroke="midnightblue" points="235.5,-392.937 239,-402.938 242.5,-392.938 235.5,-392.937"/>
</g>
<!-- Node4 -->
<g id="node4" class="node"><title>Node4</title>
<g id="a_node4"><a xlink:href="classrc_gen_movie_file.html" target="_top" xlink:title="rcGenMovieFile">
<polygon fill="white" stroke="black" points="366.99,-119 366.99,-139 453.01,-139 453.01,-119 366.99,-119"/>
<text text-anchor="middle" x="410" y="-125" font-family="Helvetica,sans-Serif" font-size="10.00">rcGenMovieFile</text>
</a>
</g>
</g>
<!-- Node4&#45;&gt;Node1 -->
<g id="edge3" class="edge"><title>Node4&#45;&gt;Node1</title>
<path fill="none" stroke="#9a32cd" stroke-dasharray="5,2" d="M391.779,-111.987C363.665,-87.2812 310.628,-40.6728 288.31,-21.06"/>
<polygon fill="#9a32cd" stroke="#9a32cd" points="389.82,-114.926 399.642,-118.898 394.441,-109.667 389.82,-114.926"/>
<text text-anchor="middle" x="410.411" y="-66" font-family="Helvetica,sans-Serif" font-size="10.00"> _debugMovie</text>
</g>
<!-- Node5 -->
<g id="node5" class="node"><title>Node5</title>
<g id="a_node5"><a xlink:href="classrc_movie_file_format.html" target="_top" xlink:title="rcMovieFileFormat">
<polygon fill="white" stroke="black" points="360.606,-190 360.606,-210 459.394,-210 459.394,-190 360.606,-190"/>
<text text-anchor="middle" x="410" y="-196" font-family="Helvetica,sans-Serif" font-size="10.00">rcMovieFileFormat</text>
</a>
</g>
</g>
<!-- Node5&#45;&gt;Node4 -->
<g id="edge4" class="edge"><title>Node5&#45;&gt;Node4</title>
<path fill="none" stroke="#9a32cd" stroke-dasharray="5,2" d="M410,-179.581C410,-166.379 410,-149.511 410,-139.243"/>
<polygon fill="#9a32cd" stroke="#9a32cd" points="406.5,-179.979 410,-189.979 413.5,-179.979 406.5,-179.979"/>
<text text-anchor="middle" x="435.564" y="-160" font-family="Helvetica,sans-Serif" font-size="10.00"> _movieHdr</text>
</g>
<!-- Node6 -->
<g id="node6" class="node"><title>Node6</title>
<g id="a_node6"><a xlink:href="classrc_movie_file_identifier.html" target="_top" xlink:title="rcMovieFileIdentifier">
<polygon fill="white" stroke="black" points="416.264,-261 416.264,-281 521.736,-281 521.736,-261 416.264,-261"/>
<text text-anchor="middle" x="469" y="-267" font-family="Helvetica,sans-Serif" font-size="10.00">rcMovieFileIdentifier</text>
</a>
</g>
</g>
<!-- Node6&#45;&gt;Node5 -->
<g id="edge5" class="edge"><title>Node6&#45;&gt;Node5</title>
<path fill="none" stroke="#9a32cd" stroke-dasharray="5,2" d="M454.739,-253.322C443.175,-239.798 427.304,-221.237 417.903,-210.243"/>
<polygon fill="#9a32cd" stroke="#9a32cd" points="452.128,-255.654 461.287,-260.979 457.448,-251.104 452.128,-255.654"/>
<text text-anchor="middle" x="454.724" y="-232" font-family="Helvetica,sans-Serif" font-size="10.00"> mId</text>
</g>
<!-- Node7 -->
<g id="node7" class="node"><title>Node7</title>
<g id="a_node7"><a xlink:href="classrc_movie_file_format2.html" target="_top" xlink:title="rcMovieFileFormat2">
<polygon fill="white" stroke="black" points="477.825,-190 477.825,-210 582.175,-210 582.175,-190 477.825,-190"/>
<text text-anchor="middle" x="530" y="-196" font-family="Helvetica,sans-Serif" font-size="10.00">rcMovieFileFormat2</text>
</a>
</g>
</g>
<!-- Node6&#45;&gt;Node7 -->
<g id="edge7" class="edge"><title>Node6&#45;&gt;Node7</title>
<path fill="none" stroke="#9a32cd" stroke-dasharray="5,2" d="M483.744,-253.322C495.7,-239.798 512.11,-221.237 521.829,-210.243"/>
<polygon fill="#9a32cd" stroke="#9a32cd" points="480.976,-251.169 476.975,-260.979 486.22,-255.806 480.976,-251.169"/>
<text text-anchor="middle" x="513.724" y="-232" font-family="Helvetica,sans-Serif" font-size="10.00"> mId</text>
</g>
<!-- Node7&#45;&gt;Node4 -->
<g id="edge6" class="edge"><title>Node7&#45;&gt;Node4</title>
<path fill="none" stroke="#9a32cd" stroke-dasharray="5,2" d="M507.906,-184.355C495.471,-176.294 479.561,-166.276 465,-158 453.169,-151.276 439.541,-144.333 428.81,-139.042"/>
<polygon fill="#9a32cd" stroke="#9a32cd" points="505.992,-187.286 516.277,-189.827 509.822,-181.426 505.992,-187.286"/>
<text text-anchor="middle" x="513.345" y="-160" font-family="Helvetica,sans-Serif" font-size="10.00"> _movieHdr2</text>
</g>
<!-- Node8 -->
<g id="node8" class="node"><title>Node8</title>
<g id="a_node8"><a xlink:href="classrc_window.html" target="_top" xlink:title="rcWindow">
<polygon fill="white" stroke="black" points="164.052,-119 164.052,-139 223.948,-139 223.948,-119 164.052,-119"/>
<text text-anchor="middle" x="194" y="-125" font-family="Helvetica,sans-Serif" font-size="10.00">rcWindow</text>
</a>
</g>
</g>
<!-- Node8&#45;&gt;Node1 -->
<g id="edge8" class="edge"><title>Node8&#45;&gt;Node1</title>
<path fill="none" stroke="#9a32cd" stroke-dasharray="5,2" d="M188.447,-109.249C183.956,-89.9748 180.506,-60.0307 195.069,-40 202.397,-29.9215 213.539,-23.4267 225.3,-19.2539"/>
<polygon fill="#9a32cd" stroke="#9a32cd" points="185.076,-110.192 191.012,-118.968 191.844,-108.406 185.076,-110.192"/>
<text text-anchor="middle" x="230.465" y="-90" font-family="Helvetica,sans-Serif" font-size="10.00"> _emiImg</text>
<text text-anchor="middle" x="230.465" y="-78" font-family="Helvetica,sans-Serif" font-size="10.00">_segFreqImg</text>
<text text-anchor="middle" x="230.465" y="-66" font-family="Helvetica,sans-Serif" font-size="10.00">_segSdImg</text>
<text text-anchor="middle" x="230.465" y="-54" font-family="Helvetica,sans-Serif" font-size="10.00">_emiImgDbg</text>
<text text-anchor="middle" x="230.465" y="-42" font-family="Helvetica,sans-Serif" font-size="10.00">_segSdImgDbg</text>
</g>
<!-- Node9 -->
<g id="node9" class="node"><title>Node9</title>
<g id="a_node9"><a xlink:href="classrc_rect.html" target="_top" xlink:title="rcRect">
<polygon fill="white" stroke="black" points="178.554,-190 178.554,-210 223.446,-210 223.446,-190 178.554,-190"/>
<text text-anchor="middle" x="201" y="-196" font-family="Helvetica,sans-Serif" font-size="10.00">rcRect</text>
</a>
</g>
</g>
<!-- Node9&#45;&gt;Node8 -->
<g id="edge9" class="edge"><title>Node9&#45;&gt;Node8</title>
<path fill="none" stroke="#9a32cd" stroke-dasharray="5,2" d="M199.07,-179.98C197.725,-166.721 195.99,-149.614 194.938,-139.243"/>
<polygon fill="#9a32cd" stroke="#9a32cd" points="195.593,-180.384 200.085,-189.979 202.558,-179.677 195.593,-180.384"/>
<text text-anchor="middle" x="225.505" y="-160" font-family="Helvetica,sans-Serif" font-size="10.00"> mGeometry</text>
</g>
<!-- Node10&#45;&gt;Node9 -->
<g id="edge10" class="edge"><title>Node10&#45;&gt;Node9</title>
<path fill="none" stroke="midnightblue" d="M201,-250.581C201,-237.379 201,-220.511 201,-210.243"/>
<polygon fill="midnightblue" stroke="midnightblue" points="197.5,-250.979 201,-260.979 204.5,-250.979 197.5,-250.979"/>
</g>
<!-- Node11 -->
<g id="node11" class="node"><title>Node11</title>
<g id="a_node11"><a xlink:href="classrc_shared_frame_buf_ptr.html" target="_top" xlink:title="rcSharedFrameBufPtr">
<polygon fill="white" stroke="black" points="47.3721,-190 47.3721,-210 160.628,-210 160.628,-190 47.3721,-190"/>
<text text-anchor="middle" x="104" y="-196" font-family="Helvetica,sans-Serif" font-size="10.00">rcSharedFrameBufPtr</text>
</a>
</g>
</g>
<!-- Node11&#45;&gt;Node8 -->
<g id="edge12" class="edge"><title>Node11&#45;&gt;Node8</title>
<path fill="none" stroke="#9a32cd" stroke-dasharray="5,2" d="M115.803,-181.661C121.791,-173.752 129.573,-164.684 137.99,-158 147.781,-150.226 160.078,-143.786 170.654,-139.05"/>
<polygon fill="#9a32cd" stroke="#9a32cd" points="112.868,-179.747 109.867,-189.908 118.549,-183.837 112.868,-179.747"/>
<text text-anchor="middle" x="165.505" y="-160" font-family="Helvetica,sans-Serif" font-size="10.00"> mFrameBuf</text>
</g>
<!-- Node12 -->
<g id="node12" class="node"><title>Node12</title>
<g id="a_node12"><a xlink:href="classrc_frame.html" target="_top" xlink:title="rcFrame">
<polygon fill="white" stroke="black" points="9.38916,-261 9.38916,-281 62.6108,-281 62.6108,-261 9.38916,-261"/>
<text text-anchor="middle" x="36" y="-267" font-family="Helvetica,sans-Serif" font-size="10.00">rcFrame</text>
</a>
</g>
</g>
<!-- Node12&#45;&gt;Node11 -->
<g id="edge13" class="edge"><title>Node12&#45;&gt;Node11</title>
<path fill="none" stroke="#9a32cd" stroke-dasharray="5,2" d="M39.5528,-251.032C41.6442,-243.828 44.9158,-235.937 49.9902,-230 57.4586,-221.263 68.2381,-214.736 78.2058,-210.11"/>
<polygon fill="#9a32cd" stroke="#9a32cd" points="36.1409,-250.252 37.2605,-260.787 42.9553,-251.853 36.1409,-250.252"/>
<text text-anchor="middle" x="77.5049" y="-232" font-family="Helvetica,sans-Serif" font-size="10.00"> mFrameBuf</text>
</g>
<!-- Node13 -->
<g id="node13" class="node"><title>Node13</title>
<g id="a_node13"><a xlink:href="classrc_timestamp.html" target="_top" xlink:title="rcTimestamp">
<polygon fill="white" stroke="black" points="-0.708496,-343 -0.708496,-363 72.7085,-363 72.7085,-343 -0.708496,-343"/>
<text text-anchor="middle" x="36" y="-349" font-family="Helvetica,sans-Serif" font-size="10.00">rcTimestamp</text>
</a>
</g>
</g>
<!-- Node13&#45;&gt;Node12 -->
<g id="edge14" class="edge"><title>Node13&#45;&gt;Node12</title>
<path fill="none" stroke="#9a32cd" stroke-dasharray="5,2" d="M36,-332.71C36,-316.329 36,-293.55 36,-281.07"/>
<polygon fill="#9a32cd" stroke="#9a32cd" points="32.5001,-332.823 36,-342.823 39.5001,-332.823 32.5001,-332.823"/>
<text text-anchor="middle" x="66.0977" y="-308" font-family="Helvetica,sans-Serif" font-size="10.00"> mTimestamp</text>
</g>
<!-- Node14 -->
<g id="node14" class="node"><title>Node14</title>
<g id="a_node14"><a xlink:href="classrc_mutex.html" target="_top" xlink:title="rcMutex">
<polygon fill="white" stroke="black" points="88.2192,-261 88.2192,-281 139.781,-281 139.781,-261 88.2192,-261"/>
<text text-anchor="middle" x="114" y="-267" font-family="Helvetica,sans-Serif" font-size="10.00">rcMutex</text>
</a>
</g>
</g>
<!-- Node14&#45;&gt;Node11 -->
<g id="edge15" class="edge"><title>Node14&#45;&gt;Node11</title>
<path fill="none" stroke="#9a32cd" stroke-dasharray="5,2" d="M111.243,-250.98C109.322,-237.721 106.843,-220.614 105.34,-210.243"/>
<polygon fill="#9a32cd" stroke="#9a32cd" points="107.794,-251.585 112.693,-260.979 114.722,-250.581 107.794,-251.585"/>
<text text-anchor="middle" x="141.121" y="-232" font-family="Helvetica,sans-Serif" font-size="10.00"> frameMutexP</text>
</g>
</g>
</svg>
