<?xml version="1.0" encoding="UTF-8" standalone="no"?>
<!DOCTYPE svg PUBLIC "-//W3C//DTD SVG 1.1//EN"
 "http://www.w3.org/Graphics/SVG/1.1/DTD/svg11.dtd">
<!-- Generated by graphviz version 2.32.0 (20130916.1925)
 -->
<!-- Title: rcExecWithShmem::isValid Pages: 1 -->
<svg width="538pt" height="163pt"
 viewBox="0.00 0.00 538.00 163.00" xmlns="http://www.w3.org/2000/svg" xmlns:xlink="http://www.w3.org/1999/xlink">
<g id="graph0" class="graph" transform="scale(1 1) rotate(0) translate(4 159)">
<title>rcExecWithShmem::isValid</title>
<polygon fill="white" stroke="white" points="-4,5 -4,-159 535,-159 535,5 -4,5"/>
<!-- Node1 -->
<g id="node1" class="node"><title>Node1</title>
<polygon fill="#bfbfbf" stroke="black" points="0.354004,-70 0.354004,-90 135.646,-90 135.646,-70 0.354004,-70"/>
<text text-anchor="middle" x="68" y="-76" font-family="Helvetica,sans-Serif" font-size="10.00">rcExecWithShmem::isValid</text>
</g>
<!-- Node2 -->
<g id="node2" class="node"><title>Node2</title>
<g id="a_node2"><a xlink:href="classrc_exec_with_shmem.html#a8105d019dd62189433cfa38aef0a95ef" target="_top" xlink:title="rcExecWithShmem::isChildDone">
<polygon fill="white" stroke="black" points="178.756,-129 178.756,-149 339.244,-149 339.244,-129 178.756,-129"/>
<text text-anchor="middle" x="259" y="-135" font-family="Helvetica,sans-Serif" font-size="10.00">rcExecWithShmem::isChildDone</text>
</a>
</g>
</g>
<!-- Node1&#45;&gt;Node2 -->
<g id="edge1" class="edge"><title>Node1&#45;&gt;Node2</title>
<path fill="none" stroke="midnightblue" d="M102.118,-93.8304C122.123,-101.859 148.261,-111.781 172,-119 184.026,-122.657 197.171,-126.024 209.485,-128.91"/>
<polygon fill="midnightblue" stroke="midnightblue" points="103.41,-90.5774 92.8274,-90.061 100.778,-97.0638 103.41,-90.5774"/>
</g>
<!-- Node4 -->
<g id="node4" class="node"><title>Node4</title>
<g id="a_node4"><a xlink:href="classrc_exec_with_shmem.html#ab3ade72d5eaff0e7871213c639cb6479" target="_top" xlink:title="rcExecWithShmem::isParentDone">
<polygon fill="white" stroke="black" points="175.419,-90 175.419,-110 342.581,-110 342.581,-90 175.419,-90"/>
<text text-anchor="middle" x="259" y="-96" font-family="Helvetica,sans-Serif" font-size="10.00">rcExecWithShmem::isParentDone</text>
</a>
</g>
</g>
<!-- Node1&#45;&gt;Node4 -->
<g id="edge3" class="edge"><title>Node1&#45;&gt;Node4</title>
<path fill="none" stroke="midnightblue" d="M145.885,-88.1359C155.571,-89.161 165.514,-90.2132 175.287,-91.2473"/>
<polygon fill="midnightblue" stroke="midnightblue" points="146.213,-84.6512 135.9,-87.0794 145.476,-91.6124 146.213,-84.6512"/>
</g>
<!-- Node5 -->
<g id="node5" class="node"><title>Node5</title>
<g id="a_node5"><a xlink:href="classrc_exec_with_shmem.html#a431c68cefc58fd24ed7d0ea69185709c" target="_top" xlink:title="rcExecWithShmem::setParentDone">
<polygon fill="white" stroke="black" points="172.36,-51 172.36,-71 345.64,-71 345.64,-51 172.36,-51"/>
<text text-anchor="middle" x="259" y="-57" font-family="Helvetica,sans-Serif" font-size="10.00">rcExecWithShmem::setParentDone</text>
</a>
</g>
</g>
<!-- Node1&#45;&gt;Node5 -->
<g id="edge4" class="edge"><title>Node1&#45;&gt;Node5</title>
<path fill="none" stroke="midnightblue" d="M145.976,-72.2616C154.655,-71.3892 163.538,-70.4961 172.319,-69.6134"/>
<polygon fill="midnightblue" stroke="midnightblue" points="145.5,-68.7918 135.9,-73.2746 146.2,-75.7567 145.5,-68.7918"/>
</g>
<!-- Node6 -->
<g id="node6" class="node"><title>Node6</title>
<g id="a_node6"><a xlink:href="classrc_exec_with_shmem.html#ad651072419b020e8f5f2b2fc8a0c9d70" target="_top" xlink:title="rcExecWithShmem::~rcExec\lWithShmem">
<polygon fill="white" stroke="black" points="187.514,-0 187.514,-32 330.486,-32 330.486,-0 187.514,-0"/>
<text text-anchor="start" x="195.514" y="-18" font-family="Helvetica,sans-Serif" font-size="10.00">rcExecWithShmem::~rcExec</text>
<text text-anchor="middle" x="259" y="-6" font-family="Helvetica,sans-Serif" font-size="10.00">WithShmem</text>
</a>
</g>
</g>
<!-- Node1&#45;&gt;Node6 -->
<g id="edge5" class="edge"><title>Node1&#45;&gt;Node6</title>
<path fill="none" stroke="midnightblue" d="M104.613,-66.2639C124.365,-58.7964 149.429,-49.5679 172,-42 182.056,-38.6281 192.838,-35.2131 203.25,-32.0158"/>
<polygon fill="midnightblue" stroke="midnightblue" points="103.199,-63.0571 95.0943,-69.8814 105.685,-69.6005 103.199,-63.0571"/>
</g>
<!-- Node3 -->
<g id="node3" class="node"><title>Node3</title>
<g id="a_node3"><a xlink:href="classrc_q_video_grabber.html#a84171b95af6d38ea985b0a35d6b18b1a" target="_top" xlink:title="rcQVideoGrabber::~rcQVideo\lGrabber">
<polygon fill="white" stroke="black" points="382.451,-123 382.451,-155 529.549,-155 529.549,-123 382.451,-123"/>
<text text-anchor="start" x="390.451" y="-141" font-family="Helvetica,sans-Serif" font-size="10.00">rcQVideoGrabber::~rcQVideo</text>
<text text-anchor="middle" x="456" y="-129" font-family="Helvetica,sans-Serif" font-size="10.00">Grabber</text>
</a>
</g>
</g>
<!-- Node2&#45;&gt;Node3 -->
<g id="edge2" class="edge"><title>Node2&#45;&gt;Node3</title>
<path fill="none" stroke="midnightblue" d="M349.395,-139C360.432,-139 371.609,-139 382.355,-139"/>
<polygon fill="midnightblue" stroke="midnightblue" points="349.314,-135.5 339.314,-139 349.314,-142.5 349.314,-135.5"/>
</g>
</g>
</svg>
