<?xml version="1.0" encoding="UTF-8" standalone="no"?>
<!DOCTYPE svg PUBLIC "-//W3C//DTD SVG 1.1//EN"
 "http://www.w3.org/Graphics/SVG/1.1/DTD/svg11.dtd">
<!-- Generated by graphviz version 2.32.0 (20130916.1925)
 -->
<!-- Title: TCP_connection_data::close Pages: 1 -->
<!--zoomable 131 -->
<svg id="main" version="1.1" xmlns="http://www.w3.org/2000/svg" xmlns:xlink="http://www.w3.org/1999/xlink" xml:space="preserve" onload="init(evt)">
        <defs>
                <circle id="rim" cx="0" cy="0" r="7"/>
                <circle id="rim2" cx="0" cy="0" r="3.5"/>
                <g id="zoomPlus">
                        <use xlink:href="#rim" fill="#404040">
                                <set attributeName="fill" to="#808080" begin="zoomplus.mouseover" end="zoomplus.mouseout"/>
                        </use>
                        <path d="M-4,0h8M0,-4v8" fill="none" stroke="white" stroke-width="1.5" pointer-events="none"/>
                </g>
                <g id="zoomMin">
                        <use xlink:href="#rim" fill="#404040">
                                <set attributeName="fill" to="#808080" begin="zoomminus.mouseover" end="zoomminus.mouseout"/>
                        </use>
                        <path d="M-4,0h8" fill="none" stroke="white" stroke-width="1.5" pointer-events="none"/>
                </g>
                <g id="dirArrow">
                        <path fill="none" stroke="white" stroke-width="1.5" d="M0,-3.0v7 M-2.5,-0.5L0,-3.0L2.5,-0.5"/>
                </g>
               <g id="resetDef">
                       <use xlink:href="#rim2" fill="#404040">
                               <set attributeName="fill" to="#808080" begin="reset.mouseover" end="reset.mouseout"/>
                       </use>
               </g>
        </defs>

<script type="text/javascript">
var viewWidth = 630;
var viewHeight = 131;
var sectionId = 'dynsection-4';
</script>
<script xlink:href="svgpan.js"/>
<svg id="graph" class="graph">
<g id="viewport">
<title>TCP_connection_data::close</title>
<polygon fill="white" stroke="white" points="-4,5 -4,-127 627,-127 627,5 -4,5"/>
<!-- Node1 -->
<g id="node1" class="node"><title>Node1</title>
<polygon fill="#bfbfbf" stroke="black" points="0.522461,-52 0.522461,-84 115.478,-84 115.478,-52 0.522461,-52"/>
<text text-anchor="start" x="8.52246" y="-70" font-family="Helvetica,sans-Serif" font-size="10.00">TCP_connection_data</text>
<text text-anchor="middle" x="58" y="-58" font-family="Helvetica,sans-Serif" font-size="10.00">::close</text>
</g>
<!-- Node2 -->
<g id="node2" class="node"><title>Node2</title>
<g id="a_node2"><a xlink:href="class_t_c_p__connection.html#a64d4727a2d036fbb2edf7fea52c89609" target="_top" xlink:title="TCP_connection::close">
<polygon fill="white" stroke="black" points="155.584,-103 155.584,-123 274.416,-123 274.416,-103 155.584,-103"/>
<text text-anchor="middle" x="215" y="-109" font-family="Helvetica,sans-Serif" font-size="10.00">TCP_connection::close</text>
</a>
</g>
</g>
<!-- Node1&#45;&gt;Node2 -->
<g id="edge1" class="edge"><title>Node1&#45;&gt;Node2</title>
<path fill="none" stroke="midnightblue" d="M124.253,-86.9444C143.083,-92.4111 162.902,-98.1652 179.112,-102.871"/>
<polygon fill="midnightblue" stroke="midnightblue" points="125.1,-83.5459 114.521,-84.1189 123.148,-90.2683 125.1,-83.5459"/>
</g>
<!-- Node3 -->
<g id="node3" class="node"><title>Node3</title>
<g id="a_node3"><a xlink:href="class_t_c_p__connection__data.html#a622196c7d9a49cf4da1ca2113c8284f2" target="_top" xlink:title="TCP_connection_data\l::initialise">
<polygon fill="white" stroke="black" points="157.522,-52 157.522,-84 272.478,-84 272.478,-52 157.522,-52"/>
<text text-anchor="start" x="165.522" y="-70" font-family="Helvetica,sans-Serif" font-size="10.00">TCP_connection_data</text>
<text text-anchor="middle" x="215" y="-58" font-family="Helvetica,sans-Serif" font-size="10.00">::initialise</text>
</a>
</g>
</g>
<!-- Node1&#45;&gt;Node3 -->
<g id="edge2" class="edge"><title>Node1&#45;&gt;Node3</title>
<path fill="none" stroke="midnightblue" d="M126.152,-68C136.581,-68 147.265,-68 157.43,-68"/>
<polygon fill="midnightblue" stroke="midnightblue" points="125.836,-64.5001 115.836,-68 125.836,-71.5001 125.836,-64.5001"/>
</g>
<!-- Node7 -->
<g id="node7" class="node"><title>Node7</title>
<g id="a_node7"><a xlink:href="class_t_c_p__connection__data.html#a3b91152216b653639f07d4892b0ce4f1" target="_top" xlink:title="TCP_connection_data\l::~TCP_connection_data">
<polygon fill="white" stroke="black" points="151.824,-1 151.824,-33 278.176,-33 278.176,-1 151.824,-1"/>
<text text-anchor="start" x="159.824" y="-19" font-family="Helvetica,sans-Serif" font-size="10.00">TCP_connection_data</text>
<text text-anchor="middle" x="215" y="-7" font-family="Helvetica,sans-Serif" font-size="10.00">::~TCP_connection_data</text>
</a>
</g>
</g>
<!-- Node1&#45;&gt;Node7 -->
<g id="edge6" class="edge"><title>Node1&#45;&gt;Node7</title>
<path fill="none" stroke="midnightblue" d="M117.656,-48.7003C133.363,-43.5322 150.17,-38.0023 165.276,-33.0317"/>
<polygon fill="midnightblue" stroke="midnightblue" points="116.448,-45.4131 108.043,-51.8633 118.636,-52.0624 116.448,-45.4131"/>
</g>
<!-- Node4 -->
<g id="node4" class="node"><title>Node4</title>
<g id="a_node4"><a xlink:href="class_t_c_p__server__data.html#a004eca7522f8ebfe804d8e7988225304" target="_top" xlink:title="TCP_server_data::connection">
<polygon fill="white" stroke="black" points="313.853,-58 313.853,-78 462.147,-78 462.147,-58 313.853,-58"/>
<text text-anchor="middle" x="388" y="-64" font-family="Helvetica,sans-Serif" font-size="10.00">TCP_server_data::connection</text>
</a>
</g>
</g>
<!-- Node3&#45;&gt;Node4 -->
<g id="edge3" class="edge"><title>Node3&#45;&gt;Node4</title>
<path fill="none" stroke="midnightblue" d="M283.185,-68C293.159,-68 303.483,-68 313.577,-68"/>
<polygon fill="midnightblue" stroke="midnightblue" points="282.941,-64.5001 272.941,-68 282.94,-71.5001 282.941,-64.5001"/>
</g>
<!-- Node5 -->
<g id="node5" class="node"><title>Node5</title>
<g id="a_node5"><a xlink:href="class_t_c_p__connection.html#a1f72968182ca65cc67ee4c9c94f6ac5f" target="_top" xlink:title="TCP_connection::TCP\l_connection">
<polygon fill="white" stroke="black" points="502.256,-75 502.256,-107 617.744,-107 617.744,-75 502.256,-75"/>
<text text-anchor="start" x="510.256" y="-93" font-family="Helvetica,sans-Serif" font-size="10.00">TCP_connection::TCP</text>
<text text-anchor="middle" x="560" y="-81" font-family="Helvetica,sans-Serif" font-size="10.00">_connection</text>
</a>
</g>
</g>
<!-- Node4&#45;&gt;Node5 -->
<g id="edge4" class="edge"><title>Node4&#45;&gt;Node5</title>
<path fill="none" stroke="midnightblue" d="M472.587,-79.3088C482.627,-80.6672 492.694,-82.0292 502.226,-83.3189"/>
<polygon fill="midnightblue" stroke="midnightblue" points="472.955,-75.8268 462.576,-77.9544 472.016,-82.7636 472.955,-75.8268"/>
</g>
<!-- Node6 -->
<g id="node6" class="node"><title>Node6</title>
<g id="a_node6"><a xlink:href="class_t_c_p__server.html#a59603f23a2ba9dd321dbeea0e46bd557" target="_top" xlink:title="TCP_server::connection">
<polygon fill="white" stroke="black" points="498.365,-36 498.365,-56 621.635,-56 621.635,-36 498.365,-36"/>
<text text-anchor="middle" x="560" y="-42" font-family="Helvetica,sans-Serif" font-size="10.00">TCP_server::connection</text>
</a>
</g>
</g>
<!-- Node4&#45;&gt;Node6 -->
<g id="edge5" class="edge"><title>Node4&#45;&gt;Node6</title>
<path fill="none" stroke="midnightblue" d="M472.697,-57.1686C481.344,-56.0496 490.009,-54.9283 498.334,-53.8509"/>
<polygon fill="midnightblue" stroke="midnightblue" points="472.044,-53.7239 462.576,-58.4784 472.942,-60.666 472.044,-53.7239"/>
</g>
</g>
</svg>
        <g id="navigator" transform="translate(0 0)" fill="#404254">
                <rect fill="#f2f5e9" fill-opacity="0.5" stroke="#606060" stroke-width=".5" x="0" y="0" width="60" height="60"/>
                <use id="zoomplus" xlink:href="#zoomPlus" x="17" y="9" onmousedown="handleZoom(evt,'in')"/>
                <use id="zoomminus" xlink:href="#zoomMin" x="42" y="9" onmousedown="handleZoom(evt,'out')"/>
                <use id="reset" xlink:href="#resetDef" x="30" y="36" onmousedown="handleReset()"/>
                <g id="arrowUp" xlink:href="#dirArrow" transform="translate(30 24)" onmousedown="handlePan(0,-1)">
                  <use xlink:href="#rim" fill="#404040">
                        <set attributeName="fill" to="#808080" begin="arrowUp.mouseover" end="arrowUp.mouseout"/>
                  </use>
                  <path fill="none" stroke="white" stroke-width="1.5" d="M0,-3.0v7 M-2.5,-0.5L0,-3.0L2.5,-0.5"/>
                </g>
                <g id="arrowRight" xlink:href="#dirArrow" transform="rotate(90) translate(36 -43)" onmousedown="handlePan(1,0)">
                  <use xlink:href="#rim" fill="#404040">
                        <set attributeName="fill" to="#808080" begin="arrowRight.mouseover" end="arrowRight.mouseout"/>
                  </use>
                  <path fill="none" stroke="white" stroke-width="1.5" d="M0,-3.0v7 M-2.5,-0.5L0,-3.0L2.5,-0.5"/>
                </g>
                <g id="arrowDown" xlink:href="#dirArrow" transform="rotate(180) translate(-30 -48)" onmousedown="handlePan(0,1)">
                  <use xlink:href="#rim" fill="#404040">
                        <set attributeName="fill" to="#808080" begin="arrowDown.mouseover" end="arrowDown.mouseout"/>
                  </use>
                  <path fill="none" stroke="white" stroke-width="1.5" d="M0,-3.0v7 M-2.5,-0.5L0,-3.0L2.5,-0.5"/>
                </g>
                <g id="arrowLeft" xlink:href="#dirArrow" transform="rotate(270) translate(-36 17)" onmousedown="handlePan(-1,0)">
                  <use xlink:href="#rim" fill="#404040">
                        <set attributeName="fill" to="#808080" begin="arrowLeft.mouseover" end="arrowLeft.mouseout"/>
                  </use>
                  <path fill="none" stroke="white" stroke-width="1.5" d="M0,-3.0v7 M-2.5,-0.5L0,-3.0L2.5,-0.5"/>
                </g>
        </g>
        <svg viewBox="0 0 15 15" width="100%" height="30px" preserveAspectRatio="xMaxYMin meet">
         <g id="arrow_out" transform="scale(0.3 0.3)">
          <a xlink:href="class_t_c_p__connection__data_aa55187d3ad30e032d2a2c2ce2a6ba2aa_icgraph_org.svg" target="_base">
           <rect id="button" ry="5" rx="5" y="6" x="6" height="38" width="38"
                fill="#f2f5e9" fill-opacity="0.5" stroke="#606060" stroke-width="1.0"/>
           <path id="arrow"
             d="M 11.500037,31.436501 C 11.940474,20.09759 22.043105,11.32322 32.158766,21.979434 L 37.068811,17.246167 C 37.068811,17.246167 37.088388,32 37.088388,32 L 22.160133,31.978069 C 22.160133,31.978069 26.997745,27.140456 26.997745,27.140456 C 18.528582,18.264221 13.291696,25.230495 11.500037,31.436501 z"
             style="fill:#404040;"/>
          </a>
         </g>
        </svg>
</svg>
