<?xml version="1.0" encoding="UTF-8" standalone="no"?>
<!DOCTYPE svg PUBLIC "-//W3C//DTD SVG 1.1//EN"
 "http://www.w3.org/Graphics/SVG/1.1/DTD/svg11.dtd">
<!-- Generated by graphviz version 2.32.0 (20130916.1925)
 -->
<!-- Title: rcFileSaveSettingWidget::browseRequest Pages: 1 -->
<!--zoomable 490 -->
<svg id="main" version="1.1" xmlns="http://www.w3.org/2000/svg" xmlns:xlink="http://www.w3.org/1999/xlink" xml:space="preserve" onload="init(evt)">
        <defs>
                <circle id="rim" cx="0" cy="0" r="7"/>
                <circle id="rim2" cx="0" cy="0" r="3.5"/>
                <g id="zoomPlus">
                        <use xlink:href="#rim" fill="#404040">
                                <set attributeName="fill" to="#808080" begin="zoomplus.mouseover" end="zoomplus.mouseout"/>
                        </use>
                        <path d="M-4,0h8M0,-4v8" fill="none" stroke="white" stroke-width="1.5" pointer-events="none"/>
                </g>
                <g id="zoomMin">
                        <use xlink:href="#rim" fill="#404040">
                                <set attributeName="fill" to="#808080" begin="zoomminus.mouseover" end="zoomminus.mouseout"/>
                        </use>
                        <path d="M-4,0h8" fill="none" stroke="white" stroke-width="1.5" pointer-events="none"/>
                </g>
                <g id="dirArrow">
                        <path fill="none" stroke="white" stroke-width="1.5" d="M0,-3.0v7 M-2.5,-0.5L0,-3.0L2.5,-0.5"/>
                </g>
               <g id="resetDef">
                       <use xlink:href="#rim2" fill="#404040">
                               <set attributeName="fill" to="#808080" begin="reset.mouseover" end="reset.mouseout"/>
                       </use>
               </g>
        </defs>

<script type="text/javascript">
var viewWidth = 532;
var viewHeight = 490;
var sectionId = 'dynsection-3';
</script>
<script xlink:href="svgpan.js"/>
<svg id="graph" class="graph">
<g id="viewport">
<title>rcFileSaveSettingWidget::browseRequest</title>
<polygon fill="white" stroke="white" points="-4,5 -4,-486 529,-486 529,5 -4,5"/>
<!-- Node1 -->
<g id="node1" class="node"><title>Node1</title>
<polygon fill="#bfbfbf" stroke="black" points="0.253906,-207 0.253906,-239 125.746,-239 125.746,-207 0.253906,-207"/>
<text text-anchor="start" x="8.25391" y="-225" font-family="Helvetica,sans-Serif" font-size="10.00">rcFileSaveSettingWidget</text>
<text text-anchor="middle" x="63" y="-213" font-family="Helvetica,sans-Serif" font-size="10.00">::browseRequest</text>
</g>
<!-- Node2 -->
<g id="node2" class="node"><title>Node2</title>
<g id="a_node2"><a xlink:href="classrc_persistence_manager.html#a1665662b60b00ef9d64656674855975f" target="_top" xlink:title="rcPersistenceManager\l::fileFormatExportCaption">
<polygon fill="white" stroke="black" points="181.311,-450 181.311,-482 310.689,-482 310.689,-450 181.311,-450"/>
<text text-anchor="start" x="189.311" y="-468" font-family="Helvetica,sans-Serif" font-size="10.00">rcPersistenceManager</text>
<text text-anchor="middle" x="246" y="-456" font-family="Helvetica,sans-Serif" font-size="10.00">::fileFormatExportCaption</text>
</a>
</g>
</g>
<!-- Node1&#45;&gt;Node2 -->
<g id="edge1" class="edge"><title>Node1&#45;&gt;Node2</title>
<path fill="none" stroke="midnightblue" d="M66.6209,-239.006C74.0076,-278.97 98.7306,-383.937 162,-440 165.179,-442.817 168.661,-445.328 172.341,-447.568"/>
<polygon fill="midnightblue" stroke="midnightblue" points="170.768,-450.696 181.239,-452.315 174.064,-444.52 170.768,-450.696"/>
</g>
<!-- Node3 -->
<g id="node3" class="node"><title>Node3</title>
<g id="a_node3"><a xlink:href="classrc_persistence_manager.html#a6d3a3869551e4419a4b8c34cc6963220" target="_top" xlink:title="rcPersistenceManager\l::fileFormatExportExtension">
<polygon fill="white" stroke="black" points="176.586,-399 176.586,-431 315.414,-431 315.414,-399 176.586,-399"/>
<text text-anchor="start" x="184.586" y="-417" font-family="Helvetica,sans-Serif" font-size="10.00">rcPersistenceManager</text>
<text text-anchor="middle" x="246" y="-405" font-family="Helvetica,sans-Serif" font-size="10.00">::fileFormatExportExtension</text>
</a>
</g>
</g>
<!-- Node1&#45;&gt;Node3 -->
<g id="edge2" class="edge"><title>Node1&#45;&gt;Node3</title>
<path fill="none" stroke="midnightblue" d="M69.1571,-239.364C80.4637,-272.587 110.607,-348.239 162,-389 164.274,-390.803 166.674,-392.482 169.169,-394.046"/>
<polygon fill="midnightblue" stroke="midnightblue" points="167.526,-397.137 177.969,-398.928 170.922,-391.016 167.526,-397.137"/>
</g>
<!-- Node4 -->
<g id="node4" class="node"><title>Node4</title>
<g id="a_node4"><a xlink:href="classrc_persistence_manager.html#accc47f09f6f2f4cc5bc42096ec46c4e3" target="_top" xlink:title="rcPersistenceManager\l::fileFormatExportFilter">
<polygon fill="white" stroke="black" points="187.434,-348 187.434,-380 304.566,-380 304.566,-348 187.434,-348"/>
<text text-anchor="start" x="195.434" y="-366" font-family="Helvetica,sans-Serif" font-size="10.00">rcPersistenceManager</text>
<text text-anchor="middle" x="246" y="-354" font-family="Helvetica,sans-Serif" font-size="10.00">::fileFormatExportFilter</text>
</a>
</g>
</g>
<!-- Node1&#45;&gt;Node4 -->
<g id="edge3" class="edge"><title>Node1&#45;&gt;Node4</title>
<path fill="none" stroke="midnightblue" d="M73.5943,-239.261C89.0869,-264.133 121.961,-311.52 162,-338 166.922,-341.255 172.275,-344.122 177.813,-346.644"/>
<polygon fill="midnightblue" stroke="midnightblue" points="176.688,-349.966 187.265,-350.569 179.372,-343.502 176.688,-349.966"/>
</g>
<!-- Node5 -->
<g id="node5" class="node"><title>Node5</title>
<g id="a_node5"><a xlink:href="classrc_model_domain.html#aa43d293533bcf88d4fff6846aa52d1d3" target="_top" xlink:title="rcModelDomain::getExperiment\lAttributes">
<polygon fill="white" stroke="black" points="167.971,-297 167.971,-329 324.029,-329 324.029,-297 167.971,-297"/>
<text text-anchor="start" x="175.971" y="-315" font-family="Helvetica,sans-Serif" font-size="10.00">rcModelDomain::getExperiment</text>
<text text-anchor="middle" x="246" y="-303" font-family="Helvetica,sans-Serif" font-size="10.00">Attributes</text>
</a>
</g>
</g>
<!-- Node1&#45;&gt;Node5 -->
<g id="edge4" class="edge"><title>Node1&#45;&gt;Node5</title>
<path fill="none" stroke="midnightblue" d="M84.798,-239.022C103.985,-253.194 133.701,-273.641 162,-287 166.865,-289.296 171.983,-291.457 177.189,-293.476"/>
<polygon fill="midnightblue" stroke="midnightblue" points="176.028,-296.778 186.622,-296.954 178.45,-290.21 176.028,-296.778"/>
</g>
<!-- Node7 -->
<g id="node7" class="node"><title>Node7</title>
<g id="a_node7"><a xlink:href="classrc_model_domain.html#a8fafb31fce65382de4c9d4c35b72eb3d" target="_top" xlink:title="rcModelDomain::getModelDomain">
<polygon fill="white" stroke="black" points="162.412,-258 162.412,-278 329.588,-278 329.588,-258 162.412,-258"/>
<text text-anchor="middle" x="246" y="-264" font-family="Helvetica,sans-Serif" font-size="10.00">rcModelDomain::getModelDomain</text>
</a>
</g>
</g>
<!-- Node1&#45;&gt;Node7 -->
<g id="edge6" class="edge"><title>Node1&#45;&gt;Node7</title>
<path fill="none" stroke="midnightblue" d="M125.918,-238.928C137.883,-241.969 150.326,-245.105 162,-248 171.927,-250.462 182.532,-253.05 192.729,-255.517"/>
<polygon fill="midnightblue" stroke="midnightblue" points="192.207,-258.991 202.749,-257.934 193.849,-252.186 192.207,-258.991"/>
</g>
<!-- Node8 -->
<g id="node8" class="node"><title>Node8</title>
<g id="a_node8"><a xlink:href="classrc_persistence_manager_factory.html#ab45216ea21c13d548a0afc8825287c8d" target="_top" xlink:title="rcPersistenceManagerFactory\l::getPersistenceManager">
<polygon fill="white" stroke="black" points="171.308,-207 171.308,-239 320.692,-239 320.692,-207 171.308,-207"/>
<text text-anchor="start" x="179.308" y="-225" font-family="Helvetica,sans-Serif" font-size="10.00">rcPersistenceManagerFactory</text>
<text text-anchor="middle" x="246" y="-213" font-family="Helvetica,sans-Serif" font-size="10.00">::getPersistenceManager</text>
</a>
</g>
</g>
<!-- Node1&#45;&gt;Node8 -->
<g id="edge7" class="edge"><title>Node1&#45;&gt;Node8</title>
<path fill="none" stroke="midnightblue" d="M125.784,-223C137.11,-223 149.107,-223 160.955,-223"/>
<polygon fill="midnightblue" stroke="midnightblue" points="161.308,-226.5 171.308,-223 161.308,-219.5 161.308,-226.5"/>
</g>
<!-- Node9 -->
<g id="node9" class="node"><title>Node9</title>
<g id="a_node9"><a xlink:href="classrc_setting_info.html#a4dc154cd3e34eeb58d3e08b72d1f1c34" target="_top" xlink:title="rcSettingInfo::getTag">
<polygon fill="white" stroke="black" points="192.138,-168 192.138,-188 299.862,-188 299.862,-168 192.138,-168"/>
<text text-anchor="middle" x="246" y="-174" font-family="Helvetica,sans-Serif" font-size="10.00">rcSettingInfo::getTag</text>
</a>
</g>
</g>
<!-- Node1&#45;&gt;Node9 -->
<g id="edge8" class="edge"><title>Node1&#45;&gt;Node9</title>
<path fill="none" stroke="midnightblue" d="M125.918,-207.072C137.883,-204.031 150.326,-200.895 162,-198 171.927,-195.538 182.532,-192.95 192.729,-190.483"/>
<polygon fill="midnightblue" stroke="midnightblue" points="193.849,-193.814 202.749,-188.066 192.207,-187.009 193.849,-193.814"/>
</g>
<!-- Node10 -->
<g id="node10" class="node"><title>Node10</title>
<g id="a_node10"><a xlink:href="classrc_setting_info.html#a97d3386417e33e46df6f361ccfb430a5" target="_top" xlink:title="rcSettingInfo::getValue">
<polygon fill="white" stroke="black" points="187.78,-129 187.78,-149 304.22,-149 304.22,-129 187.78,-129"/>
<text text-anchor="middle" x="246" y="-135" font-family="Helvetica,sans-Serif" font-size="10.00">rcSettingInfo::getValue</text>
</a>
</g>
</g>
<!-- Node1&#45;&gt;Node10 -->
<g id="edge9" class="edge"><title>Node1&#45;&gt;Node10</title>
<path fill="none" stroke="midnightblue" d="M84.2224,-206.804C103.256,-192.311 133.082,-171.482 162,-159 168.217,-156.316 174.859,-153.953 181.576,-151.882"/>
<polygon fill="midnightblue" stroke="midnightblue" points="182.783,-155.177 191.429,-149.054 180.852,-148.449 182.783,-155.177"/>
</g>
<!-- Node11 -->
<g id="node11" class="node"><title>Node11</title>
<g id="a_node11"><a xlink:href="classrc_model_domain.html#a964f8cb50c816a0826dbbbc60bb78006" target="_top" xlink:title="rcModelDomain::notifySetting\lChange">
<polygon fill="white" stroke="black" points="172.692,-78 172.692,-110 319.308,-110 319.308,-78 172.692,-78"/>
<text text-anchor="start" x="180.692" y="-96" font-family="Helvetica,sans-Serif" font-size="10.00">rcModelDomain::notifySetting</text>
<text text-anchor="middle" x="246" y="-84" font-family="Helvetica,sans-Serif" font-size="10.00">Change</text>
</a>
</g>
</g>
<!-- Node1&#45;&gt;Node11 -->
<g id="edge10" class="edge"><title>Node1&#45;&gt;Node11</title>
<path fill="none" stroke="midnightblue" d="M75.0852,-206.989C91.5252,-184.406 124.494,-143.353 162,-120 165.365,-117.905 168.912,-115.966 172.57,-114.173"/>
<polygon fill="midnightblue" stroke="midnightblue" points="174.153,-117.299 181.845,-110.013 171.288,-110.912 174.153,-117.299"/>
</g>
<!-- Node13 -->
<g id="node13" class="node"><title>Node13</title>
<g id="a_node13"><a xlink:href="classrc_setting_info.html#a56e4a99afd7b35b9ac8bfcb853dcdc4d" target="_top" xlink:title="rcSettingInfo::setValue">
<polygon fill="white" stroke="black" points="188.061,-39 188.061,-59 303.939,-59 303.939,-39 188.061,-39"/>
<text text-anchor="middle" x="246" y="-45" font-family="Helvetica,sans-Serif" font-size="10.00">rcSettingInfo::setValue</text>
</a>
</g>
</g>
<!-- Node1&#45;&gt;Node13 -->
<g id="edge12" class="edge"><title>Node1&#45;&gt;Node13</title>
<path fill="none" stroke="midnightblue" d="M69.6572,-206.565C81.4884,-174.748 111.972,-104.735 162,-69 167.066,-65.3816 172.703,-62.4121 178.589,-59.976"/>
<polygon fill="midnightblue" stroke="midnightblue" points="179.784,-63.2658 187.995,-56.5704 177.401,-56.6839 179.784,-63.2658"/>
</g>
<!-- Node14 -->
<g id="node14" class="node"><title>Node14</title>
<g id="a_node14"><a xlink:href="classrc_value.html#a6acf327946376e76e1308c71a9adc8b4" target="_top" xlink:title="rcValue::stringValue">
<polygon fill="white" stroke="black" points="193.991,-0 193.991,-20 298.009,-20 298.009,-0 193.991,-0"/>
<text text-anchor="middle" x="246" y="-6" font-family="Helvetica,sans-Serif" font-size="10.00">rcValue::stringValue</text>
</a>
</g>
</g>
<!-- Node1&#45;&gt;Node14 -->
<g id="edge13" class="edge"><title>Node1&#45;&gt;Node14</title>
<path fill="none" stroke="midnightblue" d="M67.3554,-206.866C75.9879,-169.56 102.587,-76.9452 162,-30 168.449,-24.9043 175.999,-21.0777 183.87,-18.2096"/>
<polygon fill="midnightblue" stroke="midnightblue" points="185.083,-21.4974 193.577,-15.1656 182.988,-14.818 185.083,-21.4974"/>
</g>
<!-- Node6 -->
<g id="node6" class="node"><title>Node6</title>
<g id="a_node6"><a xlink:href="classrc_experiment_domain.html#a6abeb9bb031e7bf26116f5cb914e2a56" target="_top" xlink:title="rcExperimentDomain\l::getExperimentAttributes">
<polygon fill="white" stroke="black" points="380.862,-297 380.862,-329 509.138,-329 509.138,-297 380.862,-297"/>
<text text-anchor="start" x="388.862" y="-315" font-family="Helvetica,sans-Serif" font-size="10.00">rcExperimentDomain</text>
<text text-anchor="middle" x="445" y="-303" font-family="Helvetica,sans-Serif" font-size="10.00">::getExperimentAttributes</text>
</a>
</g>
</g>
<!-- Node5&#45;&gt;Node6 -->
<g id="edge5" class="edge"><title>Node5&#45;&gt;Node6</title>
<path fill="none" stroke="midnightblue" d="M324.294,-313C339.446,-313 355.301,-313 370.33,-313"/>
<polygon fill="midnightblue" stroke="midnightblue" points="370.585,-316.5 380.585,-313 370.585,-309.5 370.585,-316.5"/>
</g>
<!-- Node12 -->
<g id="node12" class="node"><title>Node12</title>
<g id="a_node12"><a xlink:href="classrc_model_domain.html#af20f3010314a2ddf0ec3b3aa82f466b5" target="_top" xlink:title="rcModelDomain::updateSettings">
<polygon fill="white" stroke="black" points="365.85,-84 365.85,-104 524.15,-104 524.15,-84 365.85,-84"/>
<text text-anchor="middle" x="445" y="-90" font-family="Helvetica,sans-Serif" font-size="10.00">rcModelDomain::updateSettings</text>
</a>
</g>
</g>
<!-- Node11&#45;&gt;Node12 -->
<g id="edge11" class="edge"><title>Node11&#45;&gt;Node12</title>
<path fill="none" stroke="midnightblue" d="M319.516,-94C331.259,-94 343.531,-94 355.6,-94"/>
<polygon fill="midnightblue" stroke="midnightblue" points="355.673,-97.5001 365.673,-94 355.673,-90.5001 355.673,-97.5001"/>
</g>
</g>
</svg>
        <g id="navigator" transform="translate(0 0)" fill="#404254">
                <rect fill="#f2f5e9" fill-opacity="0.5" stroke="#606060" stroke-width=".5" x="0" y="0" width="60" height="60"/>
                <use id="zoomplus" xlink:href="#zoomPlus" x="17" y="9" onmousedown="handleZoom(evt,'in')"/>
                <use id="zoomminus" xlink:href="#zoomMin" x="42" y="9" onmousedown="handleZoom(evt,'out')"/>
                <use id="reset" xlink:href="#resetDef" x="30" y="36" onmousedown="handleReset()"/>
                <g id="arrowUp" xlink:href="#dirArrow" transform="translate(30 24)" onmousedown="handlePan(0,-1)">
                  <use xlink:href="#rim" fill="#404040">
                        <set attributeName="fill" to="#808080" begin="arrowUp.mouseover" end="arrowUp.mouseout"/>
                  </use>
                  <path fill="none" stroke="white" stroke-width="1.5" d="M0,-3.0v7 M-2.5,-0.5L0,-3.0L2.5,-0.5"/>
                </g>
                <g id="arrowRight" xlink:href="#dirArrow" transform="rotate(90) translate(36 -43)" onmousedown="handlePan(1,0)">
                  <use xlink:href="#rim" fill="#404040">
                        <set attributeName="fill" to="#808080" begin="arrowRight.mouseover" end="arrowRight.mouseout"/>
                  </use>
                  <path fill="none" stroke="white" stroke-width="1.5" d="M0,-3.0v7 M-2.5,-0.5L0,-3.0L2.5,-0.5"/>
                </g>
                <g id="arrowDown" xlink:href="#dirArrow" transform="rotate(180) translate(-30 -48)" onmousedown="handlePan(0,1)">
                  <use xlink:href="#rim" fill="#404040">
                        <set attributeName="fill" to="#808080" begin="arrowDown.mouseover" end="arrowDown.mouseout"/>
                  </use>
                  <path fill="none" stroke="white" stroke-width="1.5" d="M0,-3.0v7 M-2.5,-0.5L0,-3.0L2.5,-0.5"/>
                </g>
                <g id="arrowLeft" xlink:href="#dirArrow" transform="rotate(270) translate(-36 17)" onmousedown="handlePan(-1,0)">
                  <use xlink:href="#rim" fill="#404040">
                        <set attributeName="fill" to="#808080" begin="arrowLeft.mouseover" end="arrowLeft.mouseout"/>
                  </use>
                  <path fill="none" stroke="white" stroke-width="1.5" d="M0,-3.0v7 M-2.5,-0.5L0,-3.0L2.5,-0.5"/>
                </g>
        </g>
        <svg viewBox="0 0 15 15" width="100%" height="30px" preserveAspectRatio="xMaxYMin meet">
         <g id="arrow_out" transform="scale(0.3 0.3)">
          <a xlink:href="classrc_file_save_setting_widget_a92f0adabb8de2c1c32b8ae1f5a9082b5_cgraph_org.svg" target="_base">
           <rect id="button" ry="5" rx="5" y="6" x="6" height="38" width="38"
                fill="#f2f5e9" fill-opacity="0.5" stroke="#606060" stroke-width="1.0"/>
           <path id="arrow"
             d="M 11.500037,31.436501 C 11.940474,20.09759 22.043105,11.32322 32.158766,21.979434 L 37.068811,17.246167 C 37.068811,17.246167 37.088388,32 37.088388,32 L 22.160133,31.978069 C 22.160133,31.978069 26.997745,27.140456 26.997745,27.140456 C 18.528582,18.264221 13.291696,25.230495 11.500037,31.436501 z"
             style="fill:#404040;"/>
          </a>
         </g>
        </svg>
</svg>
