<?xml version="1.0" encoding="UTF-8" standalone="no"?>
<!DOCTYPE svg PUBLIC "-//W3C//DTD SVG 1.1//EN"
 "http://www.w3.org/Graphics/SVG/1.1/DTD/svg11.dtd">
<!-- Generated by graphviz version 2.32.0 (20130916.1925)
 -->
<!-- Title: rcAffineRectangle::getPixelLoc Pages: 1 -->
<svg width="454pt" height="130pt"
 viewBox="0.00 0.00 454.00 130.00" xmlns="http://www.w3.org/2000/svg" xmlns:xlink="http://www.w3.org/1999/xlink">
<g id="graph0" class="graph" transform="scale(1 1) rotate(0) translate(4 126)">
<title>rcAffineRectangle::getPixelLoc</title>
<polygon fill="white" stroke="white" points="-4,5 -4,-126 451,-126 451,5 -4,5"/>
<!-- Node1 -->
<g id="node1" class="node"><title>Node1</title>
<polygon fill="#bfbfbf" stroke="black" points="-0.243652,-51 -0.243652,-83 100.244,-83 100.244,-51 -0.243652,-51"/>
<text text-anchor="start" x="7.75635" y="-69" font-family="Helvetica,sans-Serif" font-size="10.00">rcAffineRectangle::</text>
<text text-anchor="middle" x="50" y="-57" font-family="Helvetica,sans-Serif" font-size="10.00">getPixelLoc</text>
</g>
<!-- Node2 -->
<g id="node2" class="node"><title>Node2</title>
<g id="a_node2"><a xlink:href="classrc_affine_window.html#a57b841d70ac33034737205ab9b8739be" target="_top" xlink:title="rcAffineWindow::getPixelLoc">
<polygon fill="white" stroke="black" points="136.638,-57 136.638,-77 279.362,-77 279.362,-57 136.638,-57"/>
<text text-anchor="middle" x="208" y="-63" font-family="Helvetica,sans-Serif" font-size="10.00">rcAffineWindow::getPixelLoc</text>
</a>
</g>
</g>
<!-- Node1&#45;&gt;Node2 -->
<g id="edge1" class="edge"><title>Node1&#45;&gt;Node2</title>
<path fill="none" stroke="midnightblue" d="M110.558,-67C119.07,-67 127.892,-67 136.587,-67"/>
<polygon fill="midnightblue" stroke="midnightblue" points="110.359,-63.5001 100.359,-67 110.359,-70.5001 110.359,-63.5001"/>
</g>
<!-- Node3 -->
<g id="node3" class="node"><title>Node3</title>
<g id="a_node3"><a xlink:href="classrc_affine_window.html#a332d7fd5d1a0969fd1351548f4873754" target="_top" xlink:title="rcAffineWindow::genPixel">
<polygon fill="white" stroke="black" points="316.308,-102 316.308,-122 445.692,-122 445.692,-102 316.308,-102"/>
<text text-anchor="middle" x="381" y="-108" font-family="Helvetica,sans-Serif" font-size="10.00">rcAffineWindow::genPixel</text>
</a>
</g>
</g>
<!-- Node2&#45;&gt;Node3 -->
<g id="edge2" class="edge"><title>Node2&#45;&gt;Node3</title>
<path fill="none" stroke="midnightblue" d="M257.3,-79.7104C284.038,-86.7469 316.807,-95.3703 341.752,-101.935"/>
<polygon fill="midnightblue" stroke="midnightblue" points="257.937,-76.2591 247.376,-77.0989 256.156,-83.0286 257.937,-76.2591"/>
</g>
<!-- Node4 -->
<g id="node4" class="node"><title>Node4</title>
<g id="a_node4"><a xlink:href="classrc_def_generate_image.html#abaf414018792172efa91b653757bae81" target="_top" xlink:title="rcDefGenerateImage\l::genImage">
<polygon fill="white" stroke="black" points="326.311,-51 326.311,-83 435.689,-83 435.689,-51 326.311,-51"/>
<text text-anchor="start" x="334.311" y="-69" font-family="Helvetica,sans-Serif" font-size="10.00">rcDefGenerateImage</text>
<text text-anchor="middle" x="381" y="-57" font-family="Helvetica,sans-Serif" font-size="10.00">::genImage</text>
</a>
</g>
</g>
<!-- Node2&#45;&gt;Node4 -->
<g id="edge3" class="edge"><title>Node2&#45;&gt;Node4</title>
<path fill="none" stroke="midnightblue" d="M289.818,-67C302.118,-67 314.547,-67 326.083,-67"/>
<polygon fill="midnightblue" stroke="midnightblue" points="289.54,-63.5001 279.54,-67 289.539,-70.5001 289.54,-63.5001"/>
</g>
<!-- Node5 -->
<g id="node5" class="node"><title>Node5</title>
<g id="a_node5"><a xlink:href="classrc_def_generate_image.html#a9812cdbff0d1e41517e7736955816a22" target="_top" xlink:title="rcDefGenerateImage\l::project">
<polygon fill="white" stroke="black" points="326.311,-0 326.311,-32 435.689,-32 435.689,-0 326.311,-0"/>
<text text-anchor="start" x="334.311" y="-18" font-family="Helvetica,sans-Serif" font-size="10.00">rcDefGenerateImage</text>
<text text-anchor="middle" x="381" y="-6" font-family="Helvetica,sans-Serif" font-size="10.00">::project</text>
</a>
</g>
</g>
<!-- Node2&#45;&gt;Node5 -->
<g id="edge4" class="edge"><title>Node2&#45;&gt;Node5</title>
<path fill="none" stroke="midnightblue" d="M252.666,-53.9767C275.019,-47.3102 302.433,-39.1339 326.093,-32.0777"/>
<polygon fill="midnightblue" stroke="midnightblue" points="251.367,-50.7119 242.784,-56.924 253.367,-57.4199 251.367,-50.7119"/>
</g>
</g>
</svg>
