<?xml version="1.0" encoding="UTF-8" standalone="no"?>
<!DOCTYPE svg PUBLIC "-//W3C//DTD SVG 1.1//EN"
 "http://www.w3.org/Graphics/SVG/1.1/DTD/svg11.dtd">
<!-- Generated by graphviz version 2.32.0 (20130916.1925)
 -->
<!-- Title: ini_file::ini_file Pages: 1 -->
<!--zoomable 262 -->
<svg id="main" version="1.1" xmlns="http://www.w3.org/2000/svg" xmlns:xlink="http://www.w3.org/1999/xlink" xml:space="preserve" onload="init(evt)">
        <defs>
                <circle id="rim" cx="0" cy="0" r="7"/>
                <circle id="rim2" cx="0" cy="0" r="3.5"/>
                <g id="zoomPlus">
                        <use xlink:href="#rim" fill="#404040">
                                <set attributeName="fill" to="#808080" begin="zoomplus.mouseover" end="zoomplus.mouseout"/>
                        </use>
                        <path d="M-4,0h8M0,-4v8" fill="none" stroke="white" stroke-width="1.5" pointer-events="none"/>
                </g>
                <g id="zoomMin">
                        <use xlink:href="#rim" fill="#404040">
                                <set attributeName="fill" to="#808080" begin="zoomminus.mouseover" end="zoomminus.mouseout"/>
                        </use>
                        <path d="M-4,0h8" fill="none" stroke="white" stroke-width="1.5" pointer-events="none"/>
                </g>
                <g id="dirArrow">
                        <path fill="none" stroke="white" stroke-width="1.5" d="M0,-3.0v7 M-2.5,-0.5L0,-3.0L2.5,-0.5"/>
                </g>
               <g id="resetDef">
                       <use xlink:href="#rim2" fill="#404040">
                               <set attributeName="fill" to="#808080" begin="reset.mouseover" end="reset.mouseout"/>
                       </use>
               </g>
        </defs>

<script type="text/javascript">
var viewWidth = 802;
var viewHeight = 262;
var sectionId = 'dynsection-0';
</script>
<script xlink:href="svgpan.js"/>
<svg id="graph" class="graph">
<g id="viewport">
<title>ini_file::ini_file</title>
<polygon fill="white" stroke="white" points="-4,5 -4,-258 799,-258 799,5 -4,5"/>
<!-- Node1 -->
<g id="node1" class="node"><title>Node1</title>
<polygon fill="#bfbfbf" stroke="black" points="-0.12793,-97 -0.12793,-117 78.1279,-117 78.1279,-97 -0.12793,-97"/>
<text text-anchor="middle" x="39" y="-103" font-family="Helvetica,sans-Serif" font-size="10.00">ini_file::ini_file</text>
</g>
<!-- Node2 -->
<g id="node2" class="node"><title>Node2</title>
<g id="a_node2"><a xlink:href="classini__file.html#a2f1a805d0c24494001d979e3ac613b24" target="_top" xlink:title="ini_file::read_file">
<polygon fill="white" stroke="black" points="113.867,-97 113.867,-117 202.133,-117 202.133,-97 113.867,-97"/>
<text text-anchor="middle" x="158" y="-103" font-family="Helvetica,sans-Serif" font-size="10.00">ini_file::read_file</text>
</a>
</g>
</g>
<!-- Node1&#45;&gt;Node2 -->
<g id="edge1" class="edge"><title>Node1&#45;&gt;Node2</title>
<path fill="none" stroke="midnightblue" d="M78.3102,-107C86.3648,-107 95.0015,-107 103.497,-107"/>
<polygon fill="midnightblue" stroke="midnightblue" points="103.74,-110.5 113.74,-107 103.74,-103.5 103.74,-110.5"/>
</g>
<!-- Node3 -->
<g id="node3" class="node"><title>Node3</title>
<g id="a_node3"><a xlink:href="classini__file.html#ac811b5b449af4d96207474960f6da939" target="_top" xlink:title="ini_file::filename">
<polygon fill="white" stroke="black" points="238.148,-195 238.148,-215 325.852,-215 325.852,-195 238.148,-195"/>
<text text-anchor="middle" x="282" y="-201" font-family="Helvetica,sans-Serif" font-size="10.00">ini_file::filename</text>
</a>
</g>
</g>
<!-- Node2&#45;&gt;Node3 -->
<g id="edge2" class="edge"><title>Node2&#45;&gt;Node3</title>
<path fill="none" stroke="midnightblue" d="M167.32,-117.237C180.806,-133.323 208.875,-164.766 238,-185 240.705,-186.879 243.614,-188.659 246.598,-190.325"/>
<polygon fill="midnightblue" stroke="midnightblue" points="245.148,-193.516 255.643,-194.968 248.345,-187.288 245.148,-193.516"/>
</g>
<!-- Node4 -->
<g id="node4" class="node"><title>Node4</title>
<g id="a_node4"><a xlink:href="file__system_8cpp.html#af1b4015e95ccfc0571140b25b648b91b" target="_top" xlink:title="file_writable">
<polygon fill="white" stroke="black" points="247.599,-156 247.599,-176 316.401,-176 316.401,-156 247.599,-156"/>
<text text-anchor="middle" x="282" y="-162" font-family="Helvetica,sans-Serif" font-size="10.00">file_writable</text>
</a>
</g>
</g>
<!-- Node2&#45;&gt;Node4 -->
<g id="edge3" class="edge"><title>Node2&#45;&gt;Node4</title>
<path fill="none" stroke="midnightblue" d="M179.069,-117.067C194.999,-125.02 217.862,-136.348 238,-146 241.842,-147.842 245.888,-149.756 249.898,-151.638"/>
<polygon fill="midnightblue" stroke="midnightblue" points="248.537,-154.865 259.079,-155.923 251.498,-148.522 248.537,-154.865"/>
</g>
<!-- Node12 -->
<g id="node12" class="node"><title>Node12</title>
<g id="a_node12"><a xlink:href="file__system_8cpp.html#a70caa80e7bc53b5f40266a0a985f5e09" target="_top" xlink:title="file_exists">
<polygon fill="white" stroke="black" points="252.047,-117 252.047,-137 311.953,-137 311.953,-117 252.047,-117"/>
<text text-anchor="middle" x="282" y="-123" font-family="Helvetica,sans-Serif" font-size="10.00">file_exists</text>
</a>
</g>
</g>
<!-- Node2&#45;&gt;Node12 -->
<g id="edge14" class="edge"><title>Node2&#45;&gt;Node12</title>
<path fill="none" stroke="midnightblue" d="M202.356,-114.108C215.198,-116.213 229.181,-118.505 241.747,-120.565"/>
<polygon fill="midnightblue" stroke="midnightblue" points="241.479,-124.068 251.914,-122.232 242.612,-117.16 241.479,-124.068"/>
</g>
<!-- Node13 -->
<g id="node13" class="node"><title>Node13</title>
<g id="a_node13"><a xlink:href="classitext.html#a22a3de7513de1b92b666d24c430645e4" target="_top" xlink:title="itext::getline">
<polygon fill="white" stroke="black" points="247.318,-78 247.318,-98 316.682,-98 316.682,-78 247.318,-78"/>
<text text-anchor="middle" x="282" y="-84" font-family="Helvetica,sans-Serif" font-size="10.00">itext::getline</text>
</a>
</g>
</g>
<!-- Node2&#45;&gt;Node13 -->
<g id="edge16" class="edge"><title>Node2&#45;&gt;Node13</title>
<path fill="none" stroke="midnightblue" d="M202.356,-100.248C213.578,-98.5002 225.671,-96.6169 236.928,-94.8636"/>
<polygon fill="midnightblue" stroke="midnightblue" points="237.641,-98.2949 246.983,-93.2977 236.564,-91.3783 237.641,-98.2949"/>
</g>
<!-- Node17 -->
<g id="node17" class="node"><title>Node17</title>
<g id="a_node17"><a xlink:href="classini__section.html#abe7940663fdb3b362dbd58773a53d2f6" target="_top" xlink:title="ini_section::title">
<polygon fill="white" stroke="black" points="239.815,-39 239.815,-59 324.185,-59 324.185,-39 239.815,-39"/>
<text text-anchor="middle" x="282" y="-45" font-family="Helvetica,sans-Serif" font-size="10.00">ini_section::title</text>
</a>
</g>
</g>
<!-- Node2&#45;&gt;Node17 -->
<g id="edge20" class="edge"><title>Node2&#45;&gt;Node17</title>
<path fill="none" stroke="midnightblue" d="M179.756,-96.9253C195.669,-89.2235 218.189,-78.3715 238,-69 241.852,-67.1781 245.903,-65.2755 249.916,-63.3992"/>
<polygon fill="midnightblue" stroke="midnightblue" points="251.514,-66.5164 259.099,-59.1197 248.557,-60.1715 251.514,-66.5164"/>
</g>
<!-- Node18 -->
<g id="node18" class="node"><title>Node18</title>
<g id="a_node18"><a xlink:href="string__utilities_8cpp.html#a92b477f13171d3fd668249c0f9b45a1a" target="_top" xlink:title="trim">
<polygon fill="white" stroke="black" points="265.67,-0 265.67,-20 298.33,-20 298.33,-0 265.67,-0"/>
<text text-anchor="middle" x="282" y="-6" font-family="Helvetica,sans-Serif" font-size="10.00">trim</text>
</a>
</g>
</g>
<!-- Node2&#45;&gt;Node18 -->
<g id="edge21" class="edge"><title>Node2&#45;&gt;Node18</title>
<path fill="none" stroke="midnightblue" d="M167.057,-96.9581C180.393,-80.8617 208.522,-49.0611 238,-29 243.579,-25.2031 250.04,-21.8768 256.232,-19.1132"/>
<polygon fill="midnightblue" stroke="midnightblue" points="257.672,-22.3051 265.573,-15.2467 254.995,-15.8372 257.672,-22.3051"/>
</g>
<!-- Node5 -->
<g id="node5" class="node"><title>Node5</title>
<g id="a_node5"><a xlink:href="file__system_8cpp.html#acb48f4675dcd897962719fcc704fa980" target="_top" xlink:title="folder_part">
<polygon fill="white" stroke="black" points="622.096,-156 622.096,-176 685.904,-176 685.904,-156 622.096,-156"/>
<text text-anchor="middle" x="654" y="-162" font-family="Helvetica,sans-Serif" font-size="10.00">folder_part</text>
</a>
</g>
</g>
<!-- Node4&#45;&gt;Node5 -->
<g id="edge4" class="edge"><title>Node4&#45;&gt;Node5</title>
<path fill="none" stroke="midnightblue" d="M316.488,-166C384.308,-166 537.713,-166 611.641,-166"/>
<polygon fill="midnightblue" stroke="midnightblue" points="611.952,-169.5 621.952,-166 611.952,-162.5 611.952,-169.5"/>
</g>
<!-- Node7 -->
<g id="node7" class="node"><title>Node7</title>
<g id="a_node7"><a xlink:href="file__system_8cpp.html#aca2e038e3296f4edf901c5e3c318d548" target="_top" xlink:title="folder_writable">
<polygon fill="white" stroke="black" points="362.483,-233 362.483,-253 443.517,-253 443.517,-233 362.483,-233"/>
<text text-anchor="middle" x="403" y="-239" font-family="Helvetica,sans-Serif" font-size="10.00">folder_writable</text>
</a>
</g>
</g>
<!-- Node4&#45;&gt;Node7 -->
<g id="edge6" class="edge"><title>Node4&#45;&gt;Node7</title>
<path fill="none" stroke="midnightblue" d="M307.769,-176.023C313.917,-178.911 320.357,-182.295 326,-186 343.895,-197.75 344.863,-205.171 362,-218 366.314,-221.23 371.054,-224.451 375.715,-227.455"/>
<polygon fill="midnightblue" stroke="midnightblue" points="374.114,-230.581 384.45,-232.909 377.821,-224.644 374.114,-230.581"/>
</g>
<!-- Node10 -->
<g id="node10" class="node"><title>Node10</title>
<g id="a_node10"><a xlink:href="file__system_8cpp.html#a896521b0391b7bcdd8057eaec72fa0a1" target="_top" xlink:title="is_file">
<polygon fill="white" stroke="black" points="382.217,-117 382.217,-137 423.783,-137 423.783,-117 382.217,-117"/>
<text text-anchor="middle" x="403" y="-123" font-family="Helvetica,sans-Serif" font-size="10.00">is_file</text>
</a>
</g>
</g>
<!-- Node4&#45;&gt;Node10 -->
<g id="edge10" class="edge"><title>Node4&#45;&gt;Node10</title>
<path fill="none" stroke="midnightblue" d="M313.645,-155.957C331.69,-150.043 354.407,-142.598 372.287,-136.738"/>
<polygon fill="midnightblue" stroke="midnightblue" points="373.51,-140.02 381.923,-133.58 371.33,-133.368 373.51,-140.02"/>
</g>
<!-- Node11 -->
<g id="node11" class="node"><title>Node11</title>
<g id="a_node11"><a xlink:href="file__system_8cpp.html#ad52c650ca52988f035f8ad58e81669ff" target="_top" xlink:title="is_present">
<polygon fill="white" stroke="black" points="622.931,-195 622.931,-215 685.069,-215 685.069,-195 622.931,-195"/>
<text text-anchor="middle" x="654" y="-201" font-family="Helvetica,sans-Serif" font-size="10.00">is_present</text>
</a>
</g>
</g>
<!-- Node4&#45;&gt;Node11 -->
<g id="edge12" class="edge"><title>Node4&#45;&gt;Node11</title>
<path fill="none" stroke="midnightblue" d="M316.727,-172.664C330.694,-175.244 347.085,-178.042 362,-180 451.031,-191.689 556.136,-199.169 612.473,-202.67"/>
<polygon fill="midnightblue" stroke="midnightblue" points="612.546,-206.181 622.741,-203.297 612.973,-199.194 612.546,-206.181"/>
</g>
<!-- Node6 -->
<g id="node6" class="node"><title>Node6</title>
<g id="a_node6"><a xlink:href="file__system_8cpp.html#a99e06c76afffe1f1d77f01c905b1a5fd" target="_top" xlink:title="is_separator">
<polygon fill="white" stroke="black" points="722.485,-175 722.485,-195 793.515,-195 793.515,-175 722.485,-175"/>
<text text-anchor="middle" x="758" y="-181" font-family="Helvetica,sans-Serif" font-size="10.00">is_separator</text>
</a>
</g>
</g>
<!-- Node5&#45;&gt;Node6 -->
<g id="edge5" class="edge"><title>Node5&#45;&gt;Node6</title>
<path fill="none" stroke="midnightblue" d="M686.158,-171.804C694.501,-173.358 703.683,-175.068 712.593,-176.728"/>
<polygon fill="midnightblue" stroke="midnightblue" points="712.004,-180.179 722.476,-178.569 713.286,-173.297 712.004,-180.179"/>
</g>
<!-- Node8 -->
<g id="node8" class="node"><title>Node8</title>
<g id="a_node8"><a xlink:href="file__system_8cpp.html#aad7ae11400ad76e728db2b39f937db2f" target="_top" xlink:title="folder_exists">
<polygon fill="white" stroke="black" points="496.931,-233 496.931,-253 569.069,-253 569.069,-233 496.931,-233"/>
<text text-anchor="middle" x="533" y="-239" font-family="Helvetica,sans-Serif" font-size="10.00">folder_exists</text>
</a>
</g>
</g>
<!-- Node7&#45;&gt;Node8 -->
<g id="edge7" class="edge"><title>Node7&#45;&gt;Node8</title>
<path fill="none" stroke="midnightblue" d="M443.798,-243C457.249,-243 472.372,-243 486.247,-243"/>
<polygon fill="midnightblue" stroke="midnightblue" points="486.565,-246.5 496.565,-243 486.565,-239.5 486.565,-246.5"/>
</g>
<!-- Node9 -->
<g id="node9" class="node"><title>Node9</title>
<g id="a_node9"><a xlink:href="file__system_8cpp.html#a4bf41553eb34f21058b17faf699b5a4f" target="_top" xlink:title="is_folder">
<polygon fill="white" stroke="black" points="627.101,-234 627.101,-254 680.899,-254 680.899,-234 627.101,-234"/>
<text text-anchor="middle" x="654" y="-240" font-family="Helvetica,sans-Serif" font-size="10.00">is_folder</text>
</a>
</g>
</g>
<!-- Node8&#45;&gt;Node9 -->
<g id="edge8" class="edge"><title>Node8&#45;&gt;Node9</title>
<path fill="none" stroke="midnightblue" d="M569.382,-243.297C584.411,-243.424 601.913,-243.571 617.008,-243.698"/>
<polygon fill="midnightblue" stroke="midnightblue" points="616.986,-247.197 627.015,-243.782 617.045,-240.198 616.986,-247.197"/>
</g>
<!-- Node9&#45;&gt;Node6 -->
<g id="edge9" class="edge"><title>Node9&#45;&gt;Node6</title>
<path fill="none" stroke="midnightblue" d="M672.303,-233.991C688.349,-224.71 712.449,-210.77 730.844,-200.13"/>
<polygon fill="midnightblue" stroke="midnightblue" points="732.708,-203.094 739.612,-195.058 729.204,-197.035 732.708,-203.094"/>
</g>
<!-- Node10&#45;&gt;Node6 -->
<g id="edge11" class="edge"><title>Node10&#45;&gt;Node6</title>
<path fill="none" stroke="midnightblue" d="M423.982,-125.603C470.833,-122.927 590.983,-119.563 686,-147 703.025,-151.916 720.596,-161.279 733.999,-169.481"/>
<polygon fill="midnightblue" stroke="midnightblue" points="732.235,-172.506 742.555,-174.905 735.983,-166.594 732.235,-172.506"/>
</g>
<!-- Node11&#45;&gt;Node6 -->
<g id="edge13" class="edge"><title>Node11&#45;&gt;Node6</title>
<path fill="none" stroke="midnightblue" d="M685.327,-199.053C693.775,-197.397 703.134,-195.562 712.225,-193.779"/>
<polygon fill="midnightblue" stroke="midnightblue" points="713.173,-197.16 722.313,-191.801 711.826,-190.291 713.173,-197.16"/>
</g>
<!-- Node12&#45;&gt;Node10 -->
<g id="edge15" class="edge"><title>Node12&#45;&gt;Node10</title>
<path fill="none" stroke="midnightblue" d="M312.111,-127C330.287,-127 353.635,-127 371.98,-127"/>
<polygon fill="midnightblue" stroke="midnightblue" points="372.126,-130.5 382.126,-127 372.126,-123.5 372.126,-130.5"/>
</g>
<!-- Node14 -->
<g id="node14" class="node"><title>Node14</title>
<g id="a_node14"><a xlink:href="classitext.html#a38bd74dce665f9902b0be3ebc89fa236" target="_top" xlink:title="itext::peek">
<polygon fill="white" stroke="black" points="372.209,-78 372.209,-98 433.791,-98 433.791,-78 372.209,-78"/>
<text text-anchor="middle" x="403" y="-84" font-family="Helvetica,sans-Serif" font-size="10.00">itext::peek</text>
</a>
</g>
</g>
<!-- Node13&#45;&gt;Node14 -->
<g id="edge17" class="edge"><title>Node13&#45;&gt;Node14</title>
<path fill="none" stroke="midnightblue" d="M316.782,-88C330.827,-88 347.239,-88 361.889,-88"/>
<polygon fill="midnightblue" stroke="midnightblue" points="362.187,-91.5001 372.187,-88 362.187,-84.5001 362.187,-91.5001"/>
</g>
<!-- Node15 -->
<g id="node15" class="node"><title>Node15</title>
<g id="a_node15"><a xlink:href="classibuff.html#af83bd07bbed7b837d08c8bafdfbd3e87" target="_top" xlink:title="ibuff::peek">
<polygon fill="white" stroke="black" points="502.017,-78 502.017,-98 563.983,-98 563.983,-78 502.017,-78"/>
<text text-anchor="middle" x="533" y="-84" font-family="Helvetica,sans-Serif" font-size="10.00">ibuff::peek</text>
</a>
</g>
</g>
<!-- Node14&#45;&gt;Node15 -->
<g id="edge18" class="edge"><title>Node14&#45;&gt;Node15</title>
<path fill="none" stroke="midnightblue" d="M434.01,-88C451.218,-88 473.044,-88 491.727,-88"/>
<polygon fill="midnightblue" stroke="midnightblue" points="491.734,-91.5001 501.734,-88 491.734,-84.5001 491.734,-91.5001"/>
</g>
<!-- Node16 -->
<g id="node16" class="node"><title>Node16</title>
<g id="a_node16"><a xlink:href="classibuff.html#a34316b72de5ddac433ef6d29d7c00eb4" target="_top" xlink:title="ibuff::newline_mode">
<polygon fill="white" stroke="black" points="480.615,-39 480.615,-59 585.385,-59 585.385,-39 480.615,-39"/>
<text text-anchor="middle" x="533" y="-45" font-family="Helvetica,sans-Serif" font-size="10.00">ibuff::newline_mode</text>
</a>
</g>
</g>
<!-- Node14&#45;&gt;Node16 -->
<g id="edge19" class="edge"><title>Node14&#45;&gt;Node16</title>
<path fill="none" stroke="midnightblue" d="M434.01,-78.8562C450.47,-73.8412 471.155,-67.5388 489.273,-62.0184"/>
<polygon fill="midnightblue" stroke="midnightblue" points="490.486,-65.3078 499.032,-59.0451 488.446,-58.6117 490.486,-65.3078"/>
</g>
</g>
</svg>
        <g id="navigator" transform="translate(0 0)" fill="#404254">
                <rect fill="#f2f5e9" fill-opacity="0.5" stroke="#606060" stroke-width=".5" x="0" y="0" width="60" height="60"/>
                <use id="zoomplus" xlink:href="#zoomPlus" x="17" y="9" onmousedown="handleZoom(evt,'in')"/>
                <use id="zoomminus" xlink:href="#zoomMin" x="42" y="9" onmousedown="handleZoom(evt,'out')"/>
                <use id="reset" xlink:href="#resetDef" x="30" y="36" onmousedown="handleReset()"/>
                <g id="arrowUp" xlink:href="#dirArrow" transform="translate(30 24)" onmousedown="handlePan(0,-1)">
                  <use xlink:href="#rim" fill="#404040">
                        <set attributeName="fill" to="#808080" begin="arrowUp.mouseover" end="arrowUp.mouseout"/>
                  </use>
                  <path fill="none" stroke="white" stroke-width="1.5" d="M0,-3.0v7 M-2.5,-0.5L0,-3.0L2.5,-0.5"/>
                </g>
                <g id="arrowRight" xlink:href="#dirArrow" transform="rotate(90) translate(36 -43)" onmousedown="handlePan(1,0)">
                  <use xlink:href="#rim" fill="#404040">
                        <set attributeName="fill" to="#808080" begin="arrowRight.mouseover" end="arrowRight.mouseout"/>
                  </use>
                  <path fill="none" stroke="white" stroke-width="1.5" d="M0,-3.0v7 M-2.5,-0.5L0,-3.0L2.5,-0.5"/>
                </g>
                <g id="arrowDown" xlink:href="#dirArrow" transform="rotate(180) translate(-30 -48)" onmousedown="handlePan(0,1)">
                  <use xlink:href="#rim" fill="#404040">
                        <set attributeName="fill" to="#808080" begin="arrowDown.mouseover" end="arrowDown.mouseout"/>
                  </use>
                  <path fill="none" stroke="white" stroke-width="1.5" d="M0,-3.0v7 M-2.5,-0.5L0,-3.0L2.5,-0.5"/>
                </g>
                <g id="arrowLeft" xlink:href="#dirArrow" transform="rotate(270) translate(-36 17)" onmousedown="handlePan(-1,0)">
                  <use xlink:href="#rim" fill="#404040">
                        <set attributeName="fill" to="#808080" begin="arrowLeft.mouseover" end="arrowLeft.mouseout"/>
                  </use>
                  <path fill="none" stroke="white" stroke-width="1.5" d="M0,-3.0v7 M-2.5,-0.5L0,-3.0L2.5,-0.5"/>
                </g>
        </g>
        <svg viewBox="0 0 15 15" width="100%" height="30px" preserveAspectRatio="xMaxYMin meet">
         <g id="arrow_out" transform="scale(0.3 0.3)">
          <a xlink:href="classini__file_a93b558c428dbeea78090450849ae08bd_cgraph_org.svg" target="_base">
           <rect id="button" ry="5" rx="5" y="6" x="6" height="38" width="38"
                fill="#f2f5e9" fill-opacity="0.5" stroke="#606060" stroke-width="1.0"/>
           <path id="arrow"
             d="M 11.500037,31.436501 C 11.940474,20.09759 22.043105,11.32322 32.158766,21.979434 L 37.068811,17.246167 C 37.068811,17.246167 37.088388,32 37.088388,32 L 22.160133,31.978069 C 22.160133,31.978069 26.997745,27.140456 26.997745,27.140456 C 18.528582,18.264221 13.291696,25.230495 11.500037,31.436501 z"
             style="fill:#404040;"/>
          </a>
         </g>
        </svg>
</svg>
