<?xml version="1.0" encoding="UTF-8" standalone="no"?>
<!DOCTYPE svg PUBLIC "-//W3C//DTD SVG 1.1//EN"
 "http://www.w3.org/Graphics/SVG/1.1/DTD/svg11.dtd">
<!-- Generated by graphviz version 2.32.0 (20130916.1925)
 -->
<!-- Title: rcFrame::remRef Pages: 1 -->
<svg width="1388pt" height="191pt"
 viewBox="0.00 0.00 1388.00 191.00" xmlns="http://www.w3.org/2000/svg" xmlns:xlink="http://www.w3.org/1999/xlink">
<g id="graph0" class="graph" transform="scale(1 1) rotate(0) translate(4 187)">
<title>rcFrame::remRef</title>
<polygon fill="white" stroke="white" points="-4,5 -4,-187 1385,-187 1385,5 -4,5"/>
<!-- Node1 -->
<g id="node1" class="node"><title>Node1</title>
<polygon fill="#bfbfbf" stroke="black" points="0.219238,-106 0.219238,-126 91.7808,-126 91.7808,-106 0.219238,-106"/>
<text text-anchor="middle" x="46" y="-112" font-family="Helvetica,sans-Serif" font-size="10.00">rcFrame::remRef</text>
</g>
<!-- Node2 -->
<g id="node2" class="node"><title>Node2</title>
<g id="a_node2"><a xlink:href="classrc_shared_frame_buf_ptr.html#a30c0a06c7d1834be21ecc2e2dabfa109" target="_top" xlink:title="rcSharedFrameBufPtr\l::internalUnlock">
<polygon fill="white" stroke="black" points="128.372,-100 128.372,-132 241.628,-132 241.628,-100 128.372,-100"/>
<text text-anchor="start" x="136.372" y="-118" font-family="Helvetica,sans-Serif" font-size="10.00">rcSharedFrameBufPtr</text>
<text text-anchor="middle" x="185" y="-106" font-family="Helvetica,sans-Serif" font-size="10.00">::internalUnlock</text>
</a>
</g>
</g>
<!-- Node1&#45;&gt;Node2 -->
<g id="edge1" class="edge"><title>Node1&#45;&gt;Node2</title>
<path fill="none" stroke="midnightblue" d="M102.093,-116C110.632,-116 119.46,-116 128.017,-116"/>
<polygon fill="midnightblue" stroke="midnightblue" points="101.859,-112.5 91.8589,-116 101.859,-119.5 101.859,-112.5"/>
</g>
<!-- Node3 -->
<g id="node3" class="node"><title>Node3</title>
<g id="a_node3"><a xlink:href="classrc_shared_frame_buf_ptr.html#aee7264919c0a92ab400c7a0eefcd2146" target="_top" xlink:title="rcSharedFrameBufPtr\l::~rcSharedFrameBufPtr">
<polygon fill="white" stroke="black" points="278.674,-151 278.674,-183 403.326,-183 403.326,-151 278.674,-151"/>
<text text-anchor="start" x="286.674" y="-169" font-family="Helvetica,sans-Serif" font-size="10.00">rcSharedFrameBufPtr</text>
<text text-anchor="middle" x="341" y="-157" font-family="Helvetica,sans-Serif" font-size="10.00">::~rcSharedFrameBufPtr</text>
</a>
</g>
</g>
<!-- Node2&#45;&gt;Node3 -->
<g id="edge2" class="edge"><title>Node2&#45;&gt;Node3</title>
<path fill="none" stroke="midnightblue" d="M244.277,-135.3C259.883,-140.468 276.581,-145.998 291.59,-150.968"/>
<polygon fill="midnightblue" stroke="midnightblue" points="245.32,-131.958 234.727,-132.137 243.119,-138.603 245.32,-131.958"/>
</g>
<!-- Node4 -->
<g id="node4" class="node"><title>Node4</title>
<g id="a_node4"><a xlink:href="classrc_shared_frame_buf_ptr.html#a96929f97d48f28c5f21aed02e75ef889" target="_top" xlink:title="rcSharedFrameBufPtr\l::operator=">
<polygon fill="white" stroke="black" points="284.372,-100 284.372,-132 397.628,-132 397.628,-100 284.372,-100"/>
<text text-anchor="start" x="292.372" y="-118" font-family="Helvetica,sans-Serif" font-size="10.00">rcSharedFrameBufPtr</text>
<text text-anchor="middle" x="341" y="-106" font-family="Helvetica,sans-Serif" font-size="10.00">::operator=</text>
</a>
</g>
</g>
<!-- Node2&#45;&gt;Node4 -->
<g id="edge3" class="edge"><title>Node2&#45;&gt;Node4</title>
<path fill="none" stroke="midnightblue" d="M252.173,-116C262.869,-116 273.85,-116 284.266,-116"/>
<polygon fill="midnightblue" stroke="midnightblue" points="252.033,-112.5 242.033,-116 252.033,-119.5 252.033,-112.5"/>
</g>
<!-- Node5 -->
<g id="node5" class="node"><title>Node5</title>
<g id="a_node5"><a xlink:href="classrc_shared_frame_buf_ptr.html#a7139d46af60fdd793ab17817824568c3" target="_top" xlink:title="rcSharedFrameBufPtr\l::unlock">
<polygon fill="white" stroke="black" points="284.372,-49 284.372,-81 397.628,-81 397.628,-49 284.372,-49"/>
<text text-anchor="start" x="292.372" y="-67" font-family="Helvetica,sans-Serif" font-size="10.00">rcSharedFrameBufPtr</text>
<text text-anchor="middle" x="341" y="-55" font-family="Helvetica,sans-Serif" font-size="10.00">::unlock</text>
</a>
</g>
</g>
<!-- Node2&#45;&gt;Node5 -->
<g id="edge4" class="edge"><title>Node2&#45;&gt;Node5</title>
<path fill="none" stroke="midnightblue" d="M244.277,-96.7003C259.883,-91.5322 276.581,-86.0023 291.59,-81.0317"/>
<polygon fill="midnightblue" stroke="midnightblue" points="243.119,-93.3969 234.727,-99.8633 245.32,-100.042 243.119,-93.3969"/>
</g>
<!-- Node6 -->
<g id="node6" class="node"><title>Node6</title>
<g id="a_node6"><a xlink:href="classrc_similarator.html#afc32d63dc053c8180fa96ca34a3202ea" target="_top" xlink:title="rcSimilarator::internalUpdate">
<polygon fill="white" stroke="black" points="440.641,-55 440.641,-75 583.359,-75 583.359,-55 440.641,-55"/>
<text text-anchor="middle" x="512" y="-61" font-family="Helvetica,sans-Serif" font-size="10.00">rcSimilarator::internalUpdate</text>
</a>
</g>
</g>
<!-- Node5&#45;&gt;Node6 -->
<g id="edge5" class="edge"><title>Node5&#45;&gt;Node6</title>
<path fill="none" stroke="midnightblue" d="M407.9,-65C418.588,-65 429.693,-65 440.486,-65"/>
<polygon fill="midnightblue" stroke="midnightblue" points="407.805,-61.5001 397.805,-65 407.805,-68.5001 407.805,-61.5001"/>
</g>
<!-- Node7 -->
<g id="node7" class="node"><title>Node7</title>
<g id="a_node7"><a xlink:href="classrc_similarator.html#a778a5f9764b8b49df3ded912bafbfcaf" target="_top" xlink:title="rcSimilarator::update">
<polygon fill="white" stroke="black" points="619.87,-55 619.87,-75 728.13,-75 728.13,-55 619.87,-55"/>
<text text-anchor="middle" x="674" y="-61" font-family="Helvetica,sans-Serif" font-size="10.00">rcSimilarator::update</text>
</a>
</g>
</g>
<!-- Node6&#45;&gt;Node7 -->
<g id="edge6" class="edge"><title>Node6&#45;&gt;Node7</title>
<path fill="none" stroke="midnightblue" d="M593.859,-65C602.576,-65 611.28,-65 619.556,-65"/>
<polygon fill="midnightblue" stroke="midnightblue" points="593.644,-61.5001 583.644,-65 593.644,-68.5001 593.644,-61.5001"/>
</g>
<!-- Node8 -->
<g id="node8" class="node"><title>Node8</title>
<g id="a_node8"><a xlink:href="rc__kineticimage_8h.html#a74f16cb8db93e0991685b7e04ac2d18d" target="_top" xlink:title="segPointByEnergy">
<polygon fill="white" stroke="black" points="769.865,-94 769.865,-114 868.135,-114 868.135,-94 769.865,-94"/>
<text text-anchor="middle" x="819" y="-100" font-family="Helvetica,sans-Serif" font-size="10.00">segPointByEnergy</text>
</a>
</g>
</g>
<!-- Node7&#45;&gt;Node8 -->
<g id="edge7" class="edge"><title>Node7&#45;&gt;Node8</title>
<path fill="none" stroke="midnightblue" d="M721.658,-77.7248C741.01,-83.0028 763.136,-89.037 781.299,-93.9906"/>
<polygon fill="midnightblue" stroke="midnightblue" points="722.395,-74.298 711.826,-75.0435 720.553,-81.0514 722.395,-74.298"/>
</g>
<!-- Node9 -->
<g id="node9" class="node"><title>Node9</title>
<g id="a_node9"><a xlink:href="rc__kineticimage_8h.html#a37fdff5165799a39ff0e7807bf05a1a3" target="_top" xlink:title="calcMusclePeriod">
<polygon fill="white" stroke="black" points="771.818,-55 771.818,-75 866.182,-75 866.182,-55 771.818,-55"/>
<text text-anchor="middle" x="819" y="-61" font-family="Helvetica,sans-Serif" font-size="10.00">calcMusclePeriod</text>
</a>
</g>
</g>
<!-- Node7&#45;&gt;Node9 -->
<g id="edge8" class="edge"><title>Node7&#45;&gt;Node9</title>
<path fill="none" stroke="midnightblue" d="M738.438,-65C749.65,-65 761.131,-65 771.757,-65"/>
<polygon fill="midnightblue" stroke="midnightblue" points="738.248,-61.5001 728.248,-65 738.248,-68.5001 738.248,-61.5001"/>
</g>
<!-- Node13 -->
<g id="node13" class="node"><title>Node13</title>
<g id="a_node13"><a xlink:href="classrc_muscle_segmenter.html#ab797a355a4e18e94b3e482fbbff932ea" target="_top" xlink:title="rcMuscleSegmenter::\lgetEMI">
<polygon fill="white" stroke="black" points="763.761,-3 763.761,-35 874.239,-35 874.239,-3 763.761,-3"/>
<text text-anchor="start" x="771.761" y="-21" font-family="Helvetica,sans-Serif" font-size="10.00">rcMuscleSegmenter::</text>
<text text-anchor="middle" x="819" y="-9" font-family="Helvetica,sans-Serif" font-size="10.00">getEMI</text>
</a>
</g>
</g>
<!-- Node7&#45;&gt;Node13 -->
<g id="edge12" class="edge"><title>Node7&#45;&gt;Node13</title>
<path fill="none" stroke="midnightblue" d="M716.118,-51.7732C732.35,-46.5517 751.149,-40.5046 768.146,-35.0371"/>
<polygon fill="midnightblue" stroke="midnightblue" points="714.83,-48.5109 706.382,-54.9051 716.973,-55.1746 714.83,-48.5109"/>
</g>
<!-- Node10 -->
<g id="node10" class="node"><title>Node10</title>
<g id="a_node10"><a xlink:href="classrc_muscle_segmenter.html#a61c65559f55fd9fa632b96e09ef50b2e" target="_top" xlink:title="rcMuscleSegmenter::\lgenFrequencySegmentation">
<polygon fill="white" stroke="black" points="910.18,-51 910.18,-83 1051.82,-83 1051.82,-51 910.18,-51"/>
<text text-anchor="start" x="918.18" y="-69" font-family="Helvetica,sans-Serif" font-size="10.00">rcMuscleSegmenter::</text>
<text text-anchor="middle" x="981" y="-57" font-family="Helvetica,sans-Serif" font-size="10.00">genFrequencySegmentation</text>
</a>
</g>
</g>
<!-- Node9&#45;&gt;Node10 -->
<g id="edge9" class="edge"><title>Node9&#45;&gt;Node10</title>
<path fill="none" stroke="midnightblue" d="M876.456,-65.7057C887.305,-65.8413 898.787,-65.9848 910.004,-66.125"/>
<polygon fill="midnightblue" stroke="midnightblue" points="876.322,-62.2038 866.279,-65.5785 876.234,-69.2033 876.322,-62.2038"/>
</g>
<!-- Node11 -->
<g id="node11" class="node"><title>Node11</title>
<g id="a_node11"><a xlink:href="classrc_muscle_segmenter.html#a660d7b3d1c240efa0b725e0db65154e3" target="_top" xlink:title="rcMuscleSegmenter::\lfilterByActivity">
<polygon fill="white" stroke="black" points="1087.76,-51 1087.76,-83 1198.24,-83 1198.24,-51 1087.76,-51"/>
<text text-anchor="start" x="1095.76" y="-69" font-family="Helvetica,sans-Serif" font-size="10.00">rcMuscleSegmenter::</text>
<text text-anchor="middle" x="1143" y="-57" font-family="Helvetica,sans-Serif" font-size="10.00">filterByActivity</text>
</a>
</g>
</g>
<!-- Node10&#45;&gt;Node11 -->
<g id="edge10" class="edge"><title>Node10&#45;&gt;Node11</title>
<path fill="none" stroke="midnightblue" d="M1062.28,-67C1070.91,-67 1079.54,-67 1087.75,-67"/>
<polygon fill="midnightblue" stroke="midnightblue" points="1062.18,-63.5001 1052.18,-67 1062.18,-70.5001 1062.18,-63.5001"/>
</g>
<!-- Node12 -->
<g id="node12" class="node"><title>Node12</title>
<g id="a_node12"><a xlink:href="classrc_engine_impl.html#a00ca0d227e480ddb5bd6be293b55d2c9" target="_top" xlink:title="rcEngineImpl::muscleTracker">
<polygon fill="white" stroke="black" points="1234.44,-31 1234.44,-51 1379.56,-51 1379.56,-31 1234.44,-31"/>
<text text-anchor="middle" x="1307" y="-37" font-family="Helvetica,sans-Serif" font-size="10.00">rcEngineImpl::muscleTracker</text>
</a>
</g>
</g>
<!-- Node11&#45;&gt;Node12 -->
<g id="edge11" class="edge"><title>Node11&#45;&gt;Node12</title>
<path fill="none" stroke="midnightblue" d="M1208.44,-56.6581C1220.03,-54.797 1232.1,-52.8599 1243.64,-51.0084"/>
<polygon fill="midnightblue" stroke="midnightblue" points="1207.71,-53.2295 1198.39,-58.27 1208.82,-60.1411 1207.71,-53.2295"/>
</g>
<!-- Node14 -->
<g id="node14" class="node"><title>Node14</title>
<g id="a_node14"><a xlink:href="classrc_muscle_segmenter.html#a248fccb8fc46afa10c1a0a0cb240e72a" target="_top" xlink:title="rcMuscleSegmenter::\lgenSpatialSegmentation">
<polygon fill="white" stroke="black" points="918.515,-0 918.515,-32 1043.48,-32 1043.48,-0 918.515,-0"/>
<text text-anchor="start" x="926.515" y="-18" font-family="Helvetica,sans-Serif" font-size="10.00">rcMuscleSegmenter::</text>
<text text-anchor="middle" x="981" y="-6" font-family="Helvetica,sans-Serif" font-size="10.00">genSpatialSegmentation</text>
</a>
</g>
</g>
<!-- Node13&#45;&gt;Node14 -->
<g id="edge13" class="edge"><title>Node13&#45;&gt;Node14</title>
<path fill="none" stroke="midnightblue" d="M884.713,-17.7866C895.863,-17.5776 907.424,-17.3608 918.487,-17.1534"/>
<polygon fill="midnightblue" stroke="midnightblue" points="884.548,-14.289 874.615,-17.976 884.679,-21.2878 884.548,-14.289"/>
</g>
<!-- Node15 -->
<g id="node15" class="node"><title>Node15</title>
<g id="a_node15"><a xlink:href="classrc_muscle_segmenter.html#a86d108c38d0bcb7a7eb47021b7ab0308" target="_top" xlink:title="rcMuscleSegmenter::\lsegment">
<polygon fill="white" stroke="black" points="1087.76,-0 1087.76,-32 1198.24,-32 1198.24,-0 1087.76,-0"/>
<text text-anchor="start" x="1095.76" y="-18" font-family="Helvetica,sans-Serif" font-size="10.00">rcMuscleSegmenter::</text>
<text text-anchor="middle" x="1143" y="-6" font-family="Helvetica,sans-Serif" font-size="10.00">segment</text>
</a>
</g>
</g>
<!-- Node14&#45;&gt;Node15 -->
<g id="edge14" class="edge"><title>Node14&#45;&gt;Node15</title>
<path fill="none" stroke="midnightblue" d="M1054.11,-16C1065.37,-16 1076.83,-16 1087.6,-16"/>
<polygon fill="midnightblue" stroke="midnightblue" points="1053.86,-12.5001 1043.86,-16 1053.86,-19.5001 1053.86,-12.5001"/>
</g>
<!-- Node15&#45;&gt;Node12 -->
<g id="edge15" class="edge"><title>Node15&#45;&gt;Node12</title>
<path fill="none" stroke="midnightblue" d="M1208.52,-25.9568C1219.24,-27.6107 1230.36,-29.3266 1241.08,-30.9819"/>
<polygon fill="midnightblue" stroke="midnightblue" points="1208.81,-22.4604 1198.39,-24.3942 1207.74,-29.3785 1208.81,-22.4604"/>
</g>
</g>
</svg>
