<?xml version="1.0" encoding="UTF-8" standalone="no"?>
<!DOCTYPE svg PUBLIC "-//W3C//DTD SVG 1.1//EN"
 "http://www.w3.org/Graphics/SVG/1.1/DTD/svg11.dtd">
<!-- Generated by graphviz version 2.32.0 (20130916.1925)
 -->
<!-- Title: rcPolygon::intersects Pages: 1 -->
<svg width="986pt" height="184pt"
 viewBox="0.00 0.00 986.00 184.00" xmlns="http://www.w3.org/2000/svg" xmlns:xlink="http://www.w3.org/1999/xlink">
<g id="graph0" class="graph" transform="scale(1 1) rotate(0) translate(4 180)">
<title>rcPolygon::intersects</title>
<polygon fill="white" stroke="white" points="-4,5 -4,-180 983,-180 983,5 -4,5"/>
<!-- Node1 -->
<g id="node1" class="node"><title>Node1</title>
<polygon fill="#bfbfbf" stroke="black" points="0.591309,-78 0.591309,-98 109.409,-98 109.409,-78 0.591309,-78"/>
<text text-anchor="middle" x="55" y="-84" font-family="Helvetica,sans-Serif" font-size="10.00">rcPolygon::intersects</text>
</g>
<!-- Node2 -->
<g id="node2" class="node"><title>Node2</title>
<g id="a_node2"><a xlink:href="classrc_kinetoscope.html#aeb4e292dbf28c00e8aa73b18debdc6d6" target="_top" xlink:title="rcKinetoscope::associate">
<polygon fill="white" stroke="black" points="159.414,-156 159.414,-176 286.586,-176 286.586,-156 159.414,-156"/>
<text text-anchor="middle" x="223" y="-162" font-family="Helvetica,sans-Serif" font-size="10.00">rcKinetoscope::associate</text>
</a>
</g>
</g>
<!-- Node1&#45;&gt;Node2 -->
<g id="edge1" class="edge"><title>Node1&#45;&gt;Node2</title>
<path fill="none" stroke="midnightblue" d="M77.0348,-104.292C94.6156,-117.217 120.794,-134.898 146,-146 154.99,-149.96 164.935,-153.274 174.586,-155.993"/>
<polygon fill="midnightblue" stroke="midnightblue" points="78.7767,-101.224 68.6756,-98.0272 74.5785,-106.825 78.7767,-101.224"/>
</g>
<!-- Node8 -->
<g id="node8" class="node"><title>Node8</title>
<g id="a_node8"><a xlink:href="classrc_polygon.html#ad22adb537d52958897ec5b6c1b5b86e0" target="_top" xlink:title="rcPolygon::intersects">
<polygon fill="white" stroke="black" points="168.591,-117 168.591,-137 277.409,-137 277.409,-117 168.591,-117"/>
<text text-anchor="middle" x="223" y="-123" font-family="Helvetica,sans-Serif" font-size="10.00">rcPolygon::intersects</text>
</a>
</g>
</g>
<!-- Node1&#45;&gt;Node8 -->
<g id="edge9" class="edge"><title>Node1&#45;&gt;Node8</title>
<path fill="none" stroke="midnightblue" d="M108.622,-100.363C131.447,-105.725 157.828,-111.923 179.396,-116.991"/>
<polygon fill="midnightblue" stroke="midnightblue" points="109.285,-96.9234 98.7491,-98.0435 107.684,-103.738 109.285,-96.9234"/>
</g>
<!-- Node9 -->
<g id="node9" class="node"><title>Node9</title>
<g id="a_node9"><a xlink:href="classrc_kinetoscope.html#a417073176a71ba125e6eeab0a2c3a8f0" target="_top" xlink:title="rcKinetoscope::newGeneration">
<polygon fill="white" stroke="black" points="146.626,-78 146.626,-98 299.374,-98 299.374,-78 146.626,-78"/>
<text text-anchor="middle" x="223" y="-84" font-family="Helvetica,sans-Serif" font-size="10.00">rcKinetoscope::newGeneration</text>
</a>
</g>
</g>
<!-- Node1&#45;&gt;Node9 -->
<g id="edge10" class="edge"><title>Node1&#45;&gt;Node9</title>
<path fill="none" stroke="midnightblue" d="M119.627,-88C128.45,-88 137.583,-88 146.595,-88"/>
<polygon fill="midnightblue" stroke="midnightblue" points="119.437,-84.5001 109.437,-88 119.437,-91.5001 119.437,-84.5001"/>
</g>
<!-- Node10 -->
<g id="node10" class="node"><title>Node10</title>
<g id="a_node10"><a xlink:href="rc__kinetrack_8cpp.html#a29f6a59de6b3dbbed8672ad7da9016ae" target="_top" xlink:title="rfOfCellsAndPolys">
<polygon fill="white" stroke="black" points="174.431,-39 174.431,-59 271.569,-59 271.569,-39 174.431,-39"/>
<text text-anchor="middle" x="223" y="-45" font-family="Helvetica,sans-Serif" font-size="10.00">rfOfCellsAndPolys</text>
</a>
</g>
</g>
<!-- Node1&#45;&gt;Node10 -->
<g id="edge12" class="edge"><title>Node1&#45;&gt;Node10</title>
<path fill="none" stroke="midnightblue" d="M108.622,-75.6371C131.447,-70.2746 157.828,-64.0766 179.396,-59.0094"/>
<polygon fill="midnightblue" stroke="midnightblue" points="107.684,-72.2621 98.7491,-77.9565 109.285,-79.0766 107.684,-72.2621"/>
</g>
<!-- Node11 -->
<g id="node11" class="node"><title>Node11</title>
<g id="a_node11"><a xlink:href="rc__polygongroup_8h.html#aef640fc26e2a3c85a5ae68abb68fc251" target="_top" xlink:title="rfPolygonGroupMutualMerge">
<polygon fill="white" stroke="black" points="150.801,-0 150.801,-20 295.199,-20 295.199,-0 150.801,-0"/>
<text text-anchor="middle" x="223" y="-6" font-family="Helvetica,sans-Serif" font-size="10.00">rfPolygonGroupMutualMerge</text>
</a>
</g>
</g>
<!-- Node1&#45;&gt;Node11 -->
<g id="edge14" class="edge"><title>Node1&#45;&gt;Node11</title>
<path fill="none" stroke="midnightblue" d="M77.0348,-71.7076C94.6156,-58.783 120.794,-41.1023 146,-30 154.99,-26.0403 164.935,-22.7258 174.586,-20.007"/>
<polygon fill="midnightblue" stroke="midnightblue" points="74.5785,-69.1747 68.6756,-77.9728 78.7767,-74.776 74.5785,-69.1747"/>
</g>
<!-- Node3 -->
<g id="node3" class="node"><title>Node3</title>
<g id="a_node3"><a xlink:href="classrc_kinetoscope.html#a9e34ed1b237aa970f30995cb75245233" target="_top" xlink:title="rcKinetoscope::connected\lFunctions">
<polygon fill="white" stroke="black" points="336.463,-72 336.463,-104 467.537,-104 467.537,-72 336.463,-72"/>
<text text-anchor="start" x="344.463" y="-90" font-family="Helvetica,sans-Serif" font-size="10.00">rcKinetoscope::connected</text>
<text text-anchor="middle" x="402" y="-78" font-family="Helvetica,sans-Serif" font-size="10.00">Functions</text>
</a>
</g>
</g>
<!-- Node2&#45;&gt;Node3 -->
<g id="edge2" class="edge"><title>Node2&#45;&gt;Node3</title>
<path fill="none" stroke="midnightblue" d="M280.016,-153.069C286.838,-150.966 293.639,-148.609 300,-146 327.687,-134.642 357.118,-117.031 377.023,-104.194"/>
<polygon fill="midnightblue" stroke="midnightblue" points="278.679,-149.813 270.055,-155.968 280.635,-156.534 278.679,-149.813"/>
</g>
<!-- Node4 -->
<g id="node4" class="node"><title>Node4</title>
<g id="a_node4"><a xlink:href="classrc_kinetoscope.html#a30274b84c57f86e667b614556f6c569b" target="_top" xlink:title="rcKinetoscope::step">
<polygon fill="white" stroke="black" points="692.086,-78 692.086,-98 795.914,-98 795.914,-78 692.086,-78"/>
<text text-anchor="middle" x="744" y="-84" font-family="Helvetica,sans-Serif" font-size="10.00">rcKinetoscope::step</text>
</a>
</g>
</g>
<!-- Node3&#45;&gt;Node4 -->
<g id="edge3" class="edge"><title>Node3&#45;&gt;Node4</title>
<path fill="none" stroke="midnightblue" d="M477.617,-103.645C486.475,-105.025 495.416,-106.2 504,-107 571.264,-113.272 588.834,-114.249 656,-107 672.447,-105.225 690.344,-101.615 705.606,-98.013"/>
<polygon fill="midnightblue" stroke="midnightblue" points="478.11,-100.179 467.675,-102.009 476.974,-107.086 478.11,-100.179"/>
</g>
<!-- Node6 -->
<g id="node6" class="node"><title>Node6</title>
<g id="a_node6"><a xlink:href="classrc_kinetoscope.html#ae0addfc3a10c4c69ba027d9bfc351217" target="_top" xlink:title="rcKinetoscope::stepContractile">
<polygon fill="white" stroke="black" points="504.188,-78 504.188,-98 655.812,-98 655.812,-78 504.188,-78"/>
<text text-anchor="middle" x="580" y="-84" font-family="Helvetica,sans-Serif" font-size="10.00">rcKinetoscope::stepContractile</text>
</a>
</g>
</g>
<!-- Node3&#45;&gt;Node6 -->
<g id="edge5" class="edge"><title>Node3&#45;&gt;Node6</title>
<path fill="none" stroke="midnightblue" d="M478.069,-88C486.7,-88 495.501,-88 504.129,-88"/>
<polygon fill="midnightblue" stroke="midnightblue" points="478.036,-84.5001 468.036,-88 478.036,-91.5001 478.036,-84.5001"/>
</g>
<!-- Node7 -->
<g id="node7" class="node"><title>Node7</title>
<g id="a_node7"><a xlink:href="classrc_kinetoscope.html#a431144623d201c5aeb857893d8460ca2" target="_top" xlink:title="rcKinetoscope::stepEpi">
<polygon fill="white" stroke="black" points="520.86,-39 520.86,-59 639.14,-59 639.14,-39 520.86,-39"/>
<text text-anchor="middle" x="580" y="-45" font-family="Helvetica,sans-Serif" font-size="10.00">rcKinetoscope::stepEpi</text>
</a>
</g>
</g>
<!-- Node3&#45;&gt;Node7 -->
<g id="edge7" class="edge"><title>Node3&#45;&gt;Node7</title>
<path fill="none" stroke="midnightblue" d="M477.875,-71.4085C496.872,-67.1989 516.704,-62.8043 533.721,-59.0334"/>
<polygon fill="midnightblue" stroke="midnightblue" points="477.042,-68.008 468.036,-73.5886 478.556,-74.8422 477.042,-68.008"/>
</g>
<!-- Node5 -->
<g id="node5" class="node"><title>Node5</title>
<g id="a_node5"><a xlink:href="classrc_engine_impl.html#a00ca0d227e480ddb5bd6be293b55d2c9" target="_top" xlink:title="rcEngineImpl::muscleTracker">
<polygon fill="white" stroke="black" points="832.442,-78 832.442,-98 977.558,-98 977.558,-78 832.442,-78"/>
<text text-anchor="middle" x="905" y="-84" font-family="Helvetica,sans-Serif" font-size="10.00">rcEngineImpl::muscleTracker</text>
</a>
</g>
</g>
<!-- Node4&#45;&gt;Node5 -->
<g id="edge4" class="edge"><title>Node4&#45;&gt;Node5</title>
<path fill="none" stroke="midnightblue" d="M806.383,-88C814.886,-88 823.682,-88 832.351,-88"/>
<polygon fill="midnightblue" stroke="midnightblue" points="806.184,-84.5001 796.184,-88 806.184,-91.5001 806.184,-84.5001"/>
</g>
<!-- Node6&#45;&gt;Node4 -->
<g id="edge6" class="edge"><title>Node6&#45;&gt;Node4</title>
<path fill="none" stroke="midnightblue" d="M665.92,-88C674.848,-88 683.713,-88 692.079,-88"/>
<polygon fill="midnightblue" stroke="midnightblue" points="665.835,-84.5001 655.835,-88 665.835,-91.5001 665.835,-84.5001"/>
</g>
<!-- Node7&#45;&gt;Node4 -->
<g id="edge8" class="edge"><title>Node7&#45;&gt;Node4</title>
<path fill="none" stroke="midnightblue" d="M632.653,-61.4351C654.86,-66.781 680.468,-72.9461 701.422,-77.9906"/>
<polygon fill="midnightblue" stroke="midnightblue" points="633.26,-57.9813 622.719,-59.0435 631.622,-64.7869 633.26,-57.9813"/>
</g>
<!-- Node9&#45;&gt;Node3 -->
<g id="edge11" class="edge"><title>Node9&#45;&gt;Node3</title>
<path fill="none" stroke="midnightblue" d="M309.653,-88C318.609,-88 327.605,-88 336.271,-88"/>
<polygon fill="midnightblue" stroke="midnightblue" points="309.577,-84.5001 299.577,-88 309.577,-91.5001 309.577,-84.5001"/>
</g>
<!-- Node10&#45;&gt;Node3 -->
<g id="edge13" class="edge"><title>Node10&#45;&gt;Node3</title>
<path fill="none" stroke="midnightblue" d="M279.356,-61.1971C297.389,-65.1704 317.567,-69.6165 336.226,-73.7278"/>
<polygon fill="midnightblue" stroke="midnightblue" points="280.101,-57.7773 269.582,-59.0435 278.595,-64.6133 280.101,-57.7773"/>
</g>
</g>
</svg>
