<?xml version="1.0" encoding="UTF-8" standalone="no"?>
<!DOCTYPE svg PUBLIC "-//W3C//DTD SVG 1.1//EN"
 "http://www.w3.org/Graphics/SVG/1.1/DTD/svg11.dtd">
<!-- Generated by graphviz version 2.32.0 (20130916.1925)
 -->
<!-- Title: rcWriterInfo::type Pages: 1 -->
<!--zoomable 338 -->
<svg id="main" version="1.1" xmlns="http://www.w3.org/2000/svg" xmlns:xlink="http://www.w3.org/1999/xlink" xml:space="preserve" onload="init(evt)">
        <defs>
                <circle id="rim" cx="0" cy="0" r="7"/>
                <circle id="rim2" cx="0" cy="0" r="3.5"/>
                <g id="zoomPlus">
                        <use xlink:href="#rim" fill="#404040">
                                <set attributeName="fill" to="#808080" begin="zoomplus.mouseover" end="zoomplus.mouseout"/>
                        </use>
                        <path d="M-4,0h8M0,-4v8" fill="none" stroke="white" stroke-width="1.5" pointer-events="none"/>
                </g>
                <g id="zoomMin">
                        <use xlink:href="#rim" fill="#404040">
                                <set attributeName="fill" to="#808080" begin="zoomminus.mouseover" end="zoomminus.mouseout"/>
                        </use>
                        <path d="M-4,0h8" fill="none" stroke="white" stroke-width="1.5" pointer-events="none"/>
                </g>
                <g id="dirArrow">
                        <path fill="none" stroke="white" stroke-width="1.5" d="M0,-3.0v7 M-2.5,-0.5L0,-3.0L2.5,-0.5"/>
                </g>
               <g id="resetDef">
                       <use xlink:href="#rim2" fill="#404040">
                               <set attributeName="fill" to="#808080" begin="reset.mouseover" end="reset.mouseout"/>
                       </use>
               </g>
        </defs>

<script type="text/javascript">
var viewWidth = 1184;
var viewHeight = 338;
var sectionId = 'dynsection-5';
</script>
<script xlink:href="svgpan.js"/>
<svg id="graph" class="graph">
<g id="viewport">
<title>rcWriterInfo::type</title>
<polygon fill="white" stroke="white" points="-4,5 -4,-334 1181,-334 1181,5 -4,5"/>
<!-- Node1 -->
<g id="node1" class="node"><title>Node1</title>
<polygon fill="#bfbfbf" stroke="black" points="0.0239258,-96 0.0239258,-116 91.9761,-116 91.9761,-96 0.0239258,-96"/>
<text text-anchor="middle" x="46" y="-102" font-family="Helvetica,sans-Serif" font-size="10.00">rcWriterInfo::type</text>
</g>
<!-- Node2 -->
<g id="node2" class="node"><title>Node2</title>
<g id="a_node2"><a xlink:href="classrc_writer_manager.html#a049ff277874fbbb649533a1f42cd2aa8" target="_top" xlink:title="rcWriterManager::createGraphics\lWriter">
<polygon fill="white" stroke="black" points="128.177,-192 128.177,-224 291.823,-224 291.823,-192 128.177,-192"/>
<text text-anchor="start" x="136.177" y="-210" font-family="Helvetica,sans-Serif" font-size="10.00">rcWriterManager::createGraphics</text>
<text text-anchor="middle" x="210" y="-198" font-family="Helvetica,sans-Serif" font-size="10.00">Writer</text>
</a>
</g>
</g>
<!-- Node1&#45;&gt;Node2 -->
<g id="edge1" class="edge"><title>Node1&#45;&gt;Node2</title>
<path fill="none" stroke="midnightblue" d="M61.6991,-123.771C76.7358,-140.9 101.581,-166.447 128,-182 134.364,-185.746 141.331,-189.021 148.425,-191.866"/>
<polygon fill="midnightblue" stroke="midnightblue" points="64.3063,-121.434 55.1414,-116.119 58.9911,-125.989 64.3063,-121.434"/>
</g>
<!-- Node12 -->
<g id="node12" class="node"><title>Node12</title>
<g id="a_node12"><a xlink:href="classrc_writer_manager.html#ab7c8b74f6a8c39437410e661a09c18eb" target="_top" xlink:title="rcWriterManager::createPosition\lWriter">
<polygon fill="white" stroke="black" points="130.396,-39 130.396,-71 289.604,-71 289.604,-39 130.396,-39"/>
<text text-anchor="start" x="138.396" y="-57" font-family="Helvetica,sans-Serif" font-size="10.00">rcWriterManager::createPosition</text>
<text text-anchor="middle" x="210" y="-45" font-family="Helvetica,sans-Serif" font-size="10.00">Writer</text>
</a>
</g>
</g>
<!-- Node1&#45;&gt;Node12 -->
<g id="edge12" class="edge"><title>Node1&#45;&gt;Node12</title>
<path fill="none" stroke="midnightblue" d="M88.6545,-92.8865C109.778,-86.2365 135.617,-78.1021 157.93,-71.0777"/>
<polygon fill="midnightblue" stroke="midnightblue" points="87.4935,-89.5826 79.006,-95.924 89.5955,-96.2596 87.4935,-89.5826"/>
</g>
<!-- Node14 -->
<g id="node14" class="node"><title>Node14</title>
<g id="a_node14"><a xlink:href="classrc_writer_manager.html#aa1e0cd9902b74d4ac5d7f8b962880f1f" target="_top" xlink:title="rcWriterManager::createScalar\lWriter">
<polygon fill="white" stroke="black" points="134.012,-90 134.012,-122 285.988,-122 285.988,-90 134.012,-90"/>
<text text-anchor="start" x="142.012" y="-108" font-family="Helvetica,sans-Serif" font-size="10.00">rcWriterManager::createScalar</text>
<text text-anchor="middle" x="210" y="-96" font-family="Helvetica,sans-Serif" font-size="10.00">Writer</text>
</a>
</g>
</g>
<!-- Node1&#45;&gt;Node14 -->
<g id="edge14" class="edge"><title>Node1&#45;&gt;Node14</title>
<path fill="none" stroke="midnightblue" d="M102.148,-106C112.405,-106 123.279,-106 134.011,-106"/>
<polygon fill="midnightblue" stroke="midnightblue" points="102.126,-102.5 92.126,-106 102.126,-109.5 102.126,-102.5"/>
</g>
<!-- Node18 -->
<g id="node18" class="node"><title>Node18</title>
<g id="a_node18"><a xlink:href="classrc_writer_manager.html#ae2e7738e69e20190f9862bcb6a3f49b0" target="_top" xlink:title="rcWriterManager::createVideo\lWriter">
<polygon fill="white" stroke="black" points="135.484,-141 135.484,-173 284.516,-173 284.516,-141 135.484,-141"/>
<text text-anchor="start" x="143.484" y="-159" font-family="Helvetica,sans-Serif" font-size="10.00">rcWriterManager::createVideo</text>
<text text-anchor="middle" x="210" y="-147" font-family="Helvetica,sans-Serif" font-size="10.00">Writer</text>
</a>
</g>
</g>
<!-- Node1&#45;&gt;Node18 -->
<g id="edge20" class="edge"><title>Node1&#45;&gt;Node18</title>
<path fill="none" stroke="midnightblue" d="M88.6545,-119.113C109.778,-125.763 135.617,-133.898 157.93,-140.922"/>
<polygon fill="midnightblue" stroke="midnightblue" points="89.5955,-115.74 79.006,-116.076 87.4935,-122.417 89.5955,-115.74"/>
</g>
<!-- Node28 -->
<g id="node28" class="node"><title>Node28</title>
<g id="a_node28"><a xlink:href="classrc_writer_manager.html#affd9fa78c6bd3b2dcc34c7570fd67c27" target="_top" xlink:title="rcWriterManager::createWriter">
<polygon fill="white" stroke="black" points="134.942,-0 134.942,-20 285.058,-20 285.058,-0 134.942,-0"/>
<text text-anchor="middle" x="210" y="-6" font-family="Helvetica,sans-Serif" font-size="10.00">rcWriterManager::createWriter</text>
</a>
</g>
</g>
<!-- Node1&#45;&gt;Node28 -->
<g id="edge32" class="edge"><title>Node1&#45;&gt;Node28</title>
<path fill="none" stroke="midnightblue" d="M60.9116,-88.094C75.6557,-70.3755 100.566,-43.8184 128,-29 134.736,-25.3618 142.154,-22.4156 149.684,-20.0309"/>
<polygon fill="midnightblue" stroke="midnightblue" points="58.091,-86.0157 54.5237,-95.992 63.5337,-90.4177 58.091,-86.0157"/>
</g>
<!-- Node3 -->
<g id="node3" class="node"><title>Node3</title>
<g id="a_node3"><a xlink:href="classrc_engine_impl.html#a25f089be3c3dc19f3a44baa1d98776b0" target="_top" xlink:title="rcEngineImpl::createGraphics\lWriters">
<polygon fill="white" stroke="black" points="328.138,-256 328.138,-288 475.862,-288 475.862,-256 328.138,-256"/>
<text text-anchor="start" x="336.138" y="-274" font-family="Helvetica,sans-Serif" font-size="10.00">rcEngineImpl::createGraphics</text>
<text text-anchor="middle" x="402" y="-262" font-family="Helvetica,sans-Serif" font-size="10.00">Writers</text>
</a>
</g>
</g>
<!-- Node2&#45;&gt;Node3 -->
<g id="edge2" class="edge"><title>Node2&#45;&gt;Node3</title>
<path fill="none" stroke="midnightblue" d="M268.691,-227.433C295.79,-236.561 327.705,-247.311 353.4,-255.966"/>
<polygon fill="midnightblue" stroke="midnightblue" points="269.539,-224.025 258.945,-224.15 267.305,-230.659 269.539,-224.025"/>
</g>
<!-- Node11 -->
<g id="node11" class="node"><title>Node11</title>
<g id="a_node11"><a xlink:href="classrc_engine_focus_data.html#a1051979bfee211064c23803fc33dabba" target="_top" xlink:title="rcEngineFocusData::\lrcEngineFocusData">
<polygon fill="white" stroke="black" points="347.311,-141 347.311,-173 456.689,-173 456.689,-141 347.311,-141"/>
<text text-anchor="start" x="355.311" y="-159" font-family="Helvetica,sans-Serif" font-size="10.00">rcEngineFocusData::</text>
<text text-anchor="middle" x="402" y="-147" font-family="Helvetica,sans-Serif" font-size="10.00">rcEngineFocusData</text>
</a>
</g>
</g>
<!-- Node2&#45;&gt;Node11 -->
<g id="edge11" class="edge"><title>Node2&#45;&gt;Node11</title>
<path fill="none" stroke="midnightblue" d="M280.781,-189.269C302.718,-183.381 326.59,-176.973 347.237,-171.431"/>
<polygon fill="midnightblue" stroke="midnightblue" points="279.607,-185.96 270.856,-191.933 281.422,-192.721 279.607,-185.96"/>
</g>
<!-- Node4 -->
<g id="node4" class="node"><title>Node4</title>
<g id="a_node4"><a xlink:href="classrc_engine_impl.html#afeacc2314f49f0c2ebda1adc29845367" target="_top" xlink:title="rcEngineImpl::entropyTracker">
<polygon fill="white" stroke="black" points="512.602,-308 512.602,-328 659.398,-328 659.398,-308 512.602,-308"/>
<text text-anchor="middle" x="586" y="-314" font-family="Helvetica,sans-Serif" font-size="10.00">rcEngineImpl::entropyTracker</text>
</a>
</g>
</g>
<!-- Node3&#45;&gt;Node4 -->
<g id="edge3" class="edge"><title>Node3&#45;&gt;Node4</title>
<path fill="none" stroke="midnightblue" d="M476.387,-290.548C499.972,-296.509 525.198,-302.885 545.397,-307.99"/>
<polygon fill="midnightblue" stroke="midnightblue" points="476.952,-287.081 466.399,-288.024 475.237,-293.868 476.952,-287.081"/>
</g>
<!-- Node9 -->
<g id="node9" class="node"><title>Node9</title>
<g id="a_node9"><a xlink:href="classrc_engine_impl.html#a7eec21aabd0c657881fc6eac91787480" target="_top" xlink:title="rcEngineImpl::modelTracker">
<polygon fill="white" stroke="black" points="515.661,-269 515.661,-289 656.339,-289 656.339,-269 515.661,-269"/>
<text text-anchor="middle" x="586" y="-275" font-family="Helvetica,sans-Serif" font-size="10.00">rcEngineImpl::modelTracker</text>
</a>
</g>
</g>
<!-- Node3&#45;&gt;Node9 -->
<g id="edge8" class="edge"><title>Node3&#45;&gt;Node9</title>
<path fill="none" stroke="midnightblue" d="M486.158,-275.198C495.987,-275.576 505.94,-275.959 515.553,-276.329"/>
<polygon fill="midnightblue" stroke="midnightblue" points="486.105,-271.694 475.978,-274.807 485.836,-278.689 486.105,-271.694"/>
</g>
<!-- Node10 -->
<g id="node10" class="node"><title>Node10</title>
<g id="a_node10"><a xlink:href="classrc_engine_impl.html#a00ca0d227e480ddb5bd6be293b55d2c9" target="_top" xlink:title="rcEngineImpl::muscleTracker">
<polygon fill="white" stroke="black" points="513.442,-230 513.442,-250 658.558,-250 658.558,-230 513.442,-230"/>
<text text-anchor="middle" x="586" y="-236" font-family="Helvetica,sans-Serif" font-size="10.00">rcEngineImpl::muscleTracker</text>
</a>
</g>
</g>
<!-- Node3&#45;&gt;Node10 -->
<g id="edge10" class="edge"><title>Node3&#45;&gt;Node10</title>
<path fill="none" stroke="midnightblue" d="M486.202,-257.371C500.332,-254.887 514.715,-252.358 527.974,-250.027"/>
<polygon fill="midnightblue" stroke="midnightblue" points="485.22,-253.99 475.978,-259.169 486.433,-260.884 485.22,-253.99"/>
</g>
<!-- Node5 -->
<g id="node5" class="node"><title>Node5</title>
<g id="a_node5"><a xlink:href="classrc_engine_impl.html#a3ad6dbc54b2a53acae4d345ff14974ae" target="_top" xlink:title="rcEngineImpl::analyzeFocusArea">
<polygon fill="white" stroke="black" points="696.631,-291 696.631,-311 859.369,-311 859.369,-291 696.631,-291"/>
<text text-anchor="middle" x="778" y="-297" font-family="Helvetica,sans-Serif" font-size="10.00">rcEngineImpl::analyzeFocusArea</text>
</a>
</g>
</g>
<!-- Node4&#45;&gt;Node5 -->
<g id="edge4" class="edge"><title>Node4&#45;&gt;Node5</title>
<path fill="none" stroke="midnightblue" d="M669.624,-310.607C678.534,-309.81 687.591,-309 696.476,-308.205"/>
<polygon fill="midnightblue" stroke="midnightblue" points="669.292,-307.123 659.644,-311.5 669.916,-314.095 669.292,-307.123"/>
</g>
<!-- Node6 -->
<g id="node6" class="node"><title>Node6</title>
<g id="a_node6"><a xlink:href="classrc_engine_impl.html#ae320706cbcafd64f219018b9842c8290" target="_top" xlink:title="rcEngineImpl::analyze">
<polygon fill="white" stroke="black" points="902.808,-291 902.808,-311 1017.19,-311 1017.19,-291 902.808,-291"/>
<text text-anchor="middle" x="960" y="-297" font-family="Helvetica,sans-Serif" font-size="10.00">rcEngineImpl::analyze</text>
</a>
</g>
</g>
<!-- Node5&#45;&gt;Node6 -->
<g id="edge5" class="edge"><title>Node5&#45;&gt;Node6</title>
<path fill="none" stroke="midnightblue" d="M869.826,-301C881.061,-301 892.279,-301 902.78,-301"/>
<polygon fill="midnightblue" stroke="midnightblue" points="869.523,-297.5 859.523,-301 869.523,-304.5 869.523,-297.5"/>
</g>
<!-- Node7 -->
<g id="node7" class="node"><title>Node7</title>
<g id="a_node7"><a xlink:href="classrc_engine_impl.html#a507e034c1e43ae1dd6ec95a11ec0bb02" target="_top" xlink:title="rcEngineImpl::process">
<polygon fill="white" stroke="black" points="1060.53,-310 1060.53,-330 1175.47,-330 1175.47,-310 1060.53,-310"/>
<text text-anchor="middle" x="1118" y="-316" font-family="Helvetica,sans-Serif" font-size="10.00">rcEngineImpl::process</text>
</a>
</g>
</g>
<!-- Node6&#45;&gt;Node7 -->
<g id="edge6" class="edge"><title>Node6&#45;&gt;Node7</title>
<path fill="none" stroke="midnightblue" d="M1027.34,-309.08C1038.38,-310.424 1049.74,-311.808 1060.5,-313.119"/>
<polygon fill="midnightblue" stroke="midnightblue" points="1027.67,-305.594 1017.32,-307.859 1026.82,-312.543 1027.67,-305.594"/>
</g>
<!-- Node8 -->
<g id="node8" class="node"><title>Node8</title>
<g id="a_node8"><a xlink:href="classrc_engine_analyzer.html#a064037f0ec3e68fcb11dabbcba790cdd" target="_top" xlink:title="rcEngineAnalyzer::run">
<polygon fill="white" stroke="black" points="1060.81,-271 1060.81,-291 1175.19,-291 1175.19,-271 1060.81,-271"/>
<text text-anchor="middle" x="1118" y="-277" font-family="Helvetica,sans-Serif" font-size="10.00">rcEngineAnalyzer::run</text>
</a>
</g>
</g>
<!-- Node6&#45;&gt;Node8 -->
<g id="edge7" class="edge"><title>Node6&#45;&gt;Node8</title>
<path fill="none" stroke="midnightblue" d="M1027.4,-292.487C1038.51,-291.063 1049.94,-289.597 1060.76,-288.21"/>
<polygon fill="midnightblue" stroke="midnightblue" points="1026.79,-289.036 1017.32,-293.78 1027.68,-295.979 1026.79,-289.036"/>
</g>
<!-- Node9&#45;&gt;Node5 -->
<g id="edge9" class="edge"><title>Node9&#45;&gt;Node5</title>
<path fill="none" stroke="midnightblue" d="M666.606,-288.218C676.496,-289.363 686.614,-290.534 696.517,-291.681"/>
<polygon fill="midnightblue" stroke="midnightblue" points="666.737,-284.709 656.401,-287.036 665.932,-291.663 666.737,-284.709"/>
</g>
<!-- Node13 -->
<g id="node13" class="node"><title>Node13</title>
<g id="a_node13"><a xlink:href="classrc_cell_writer_group.html#adf8ddd2672d2b59fe5d9014d94f8173e" target="_top" xlink:title="rcCellWriterGroup::\lrcCellWriterGroup">
<polygon fill="white" stroke="black" points="351.305,-39 351.305,-71 452.695,-71 452.695,-39 351.305,-39"/>
<text text-anchor="start" x="359.305" y="-57" font-family="Helvetica,sans-Serif" font-size="10.00">rcCellWriterGroup::</text>
<text text-anchor="middle" x="402" y="-45" font-family="Helvetica,sans-Serif" font-size="10.00">rcCellWriterGroup</text>
</a>
</g>
</g>
<!-- Node12&#45;&gt;Node13 -->
<g id="edge13" class="edge"><title>Node12&#45;&gt;Node13</title>
<path fill="none" stroke="midnightblue" d="M299.971,-55C317.583,-55 335.473,-55 351.206,-55"/>
<polygon fill="midnightblue" stroke="midnightblue" points="299.652,-51.5001 289.652,-55 299.652,-58.5001 299.652,-51.5001"/>
</g>
<!-- Node14&#45;&gt;Node11 -->
<g id="edge19" class="edge"><title>Node14&#45;&gt;Node11</title>
<path fill="none" stroke="midnightblue" d="M280.781,-124.731C302.718,-130.619 326.59,-137.027 347.237,-142.569"/>
<polygon fill="midnightblue" stroke="midnightblue" points="281.422,-121.279 270.856,-122.067 279.607,-128.04 281.422,-121.279"/>
</g>
<!-- Node14&#45;&gt;Node13 -->
<g id="edge18" class="edge"><title>Node14&#45;&gt;Node13</title>
<path fill="none" stroke="midnightblue" d="M280.694,-87.2926C304.004,-81.0357 329.507,-74.1903 351.008,-68.4188"/>
<polygon fill="midnightblue" stroke="midnightblue" points="279.607,-83.9604 270.856,-89.9333 281.422,-90.7211 279.607,-83.9604"/>
</g>
<!-- Node15 -->
<g id="node15" class="node"><title>Node15</title>
<g id="a_node15"><a xlink:href="classrc_engine_impl.html#a424a72fdab7c304065ac4ec3c3318fff" target="_top" xlink:title="rcEngineImpl::createCamera\lPreviewWriters">
<polygon fill="white" stroke="black" points="330.362,-90 330.362,-122 473.638,-122 473.638,-90 330.362,-90"/>
<text text-anchor="start" x="338.362" y="-108" font-family="Helvetica,sans-Serif" font-size="10.00">rcEngineImpl::createCamera</text>
<text text-anchor="middle" x="402" y="-96" font-family="Helvetica,sans-Serif" font-size="10.00">PreviewWriters</text>
</a>
</g>
</g>
<!-- Node14&#45;&gt;Node15 -->
<g id="edge15" class="edge"><title>Node14&#45;&gt;Node15</title>
<path fill="none" stroke="midnightblue" d="M296.392,-106C307.683,-106 319.157,-106 330.167,-106"/>
<polygon fill="midnightblue" stroke="midnightblue" points="296.093,-102.5 286.093,-106 296.093,-109.5 296.093,-102.5"/>
</g>
<!-- Node16 -->
<g id="node16" class="node"><title>Node16</title>
<g id="a_node16"><a xlink:href="classrc_engine_impl.html#a3ee0191b2f88116db0b6d565d869667a" target="_top" xlink:title="rcEngineImpl::startPreview">
<polygon fill="white" stroke="black" points="518.535,-146 518.535,-166 653.465,-166 653.465,-146 518.535,-146"/>
<text text-anchor="middle" x="586" y="-152" font-family="Helvetica,sans-Serif" font-size="10.00">rcEngineImpl::startPreview</text>
</a>
</g>
</g>
<!-- Node15&#45;&gt;Node16 -->
<g id="edge16" class="edge"><title>Node15&#45;&gt;Node16</title>
<path fill="none" stroke="midnightblue" d="M471.022,-124.735C484.595,-128.469 498.75,-132.362 512,-136 523.785,-139.236 536.641,-142.76 548.235,-145.936"/>
<polygon fill="midnightblue" stroke="midnightblue" points="471.832,-121.328 461.262,-122.049 469.975,-128.077 471.832,-121.328"/>
</g>
<!-- Node17 -->
<g id="node17" class="node"><title>Node17</title>
<g id="a_node17"><a xlink:href="classrc_engine_movie_capture.html#a0d8bfe4fd32e11bdbdb2c0ad113425ff" target="_top" xlink:title="rcEngineMovieCapture::run">
<polygon fill="white" stroke="black" points="709.136,-146 709.136,-166 846.864,-166 846.864,-146 709.136,-146"/>
<text text-anchor="middle" x="778" y="-152" font-family="Helvetica,sans-Serif" font-size="10.00">rcEngineMovieCapture::run</text>
</a>
</g>
</g>
<!-- Node16&#45;&gt;Node17 -->
<g id="edge17" class="edge"><title>Node16&#45;&gt;Node17</title>
<path fill="none" stroke="midnightblue" d="M663.9,-156C678.774,-156 694.263,-156 708.834,-156"/>
<polygon fill="midnightblue" stroke="midnightblue" points="663.72,-152.5 653.72,-156 663.72,-159.5 663.72,-152.5"/>
</g>
<!-- Node18&#45;&gt;Node11 -->
<g id="edge31" class="edge"><title>Node18&#45;&gt;Node11</title>
<path fill="none" stroke="midnightblue" d="M295.044,-157C312.693,-157 330.853,-157 347.044,-157"/>
<polygon fill="midnightblue" stroke="midnightblue" points="294.731,-153.5 284.731,-157 294.731,-160.5 294.731,-153.5"/>
</g>
<!-- Node19 -->
<g id="node19" class="node"><title>Node19</title>
<g id="a_node19"><a xlink:href="classrc_engine_impl.html#a26bff835c02e9abf77822aa87a653c15" target="_top" xlink:title="rcEngineImpl::createShared\lWriters">
<polygon fill="white" stroke="black" points="332.022,-192 332.022,-224 471.978,-224 471.978,-192 332.022,-192"/>
<text text-anchor="start" x="340.022" y="-210" font-family="Helvetica,sans-Serif" font-size="10.00">rcEngineImpl::createShared</text>
<text text-anchor="middle" x="402" y="-198" font-family="Helvetica,sans-Serif" font-size="10.00">Writers</text>
</a>
</g>
</g>
<!-- Node18&#45;&gt;Node19 -->
<g id="edge21" class="edge"><title>Node18&#45;&gt;Node19</title>
<path fill="none" stroke="midnightblue" d="M280.744,-175.721C300.556,-181.039 321.947,-186.781 341.118,-191.926"/>
<polygon fill="midnightblue" stroke="midnightblue" points="281.422,-172.279 270.856,-173.067 279.607,-179.04 281.422,-172.279"/>
</g>
<!-- Node20 -->
<g id="node20" class="node"><title>Node20</title>
<g id="a_node20"><a xlink:href="classrc_engine_impl.html#a3f1d54d99e195efe0eec45f9263e6342" target="_top" xlink:title="rcEngineImpl::loadFrames">
<polygon fill="white" stroke="black" points="519.643,-107 519.643,-127 652.357,-127 652.357,-107 519.643,-107"/>
<text text-anchor="middle" x="586" y="-113" font-family="Helvetica,sans-Serif" font-size="10.00">rcEngineImpl::loadFrames</text>
</a>
</g>
</g>
<!-- Node19&#45;&gt;Node20 -->
<g id="edge22" class="edge"><title>Node19&#45;&gt;Node20</title>
<path fill="none" stroke="midnightblue" d="M467.537,-187.361C470.477,-185.698 473.316,-183.913 476,-182 496.859,-167.137 490.6,-151.073 512,-137 518.258,-132.884 525.348,-129.61 532.59,-127.006"/>
<polygon fill="midnightblue" stroke="midnightblue" points="465.781,-184.328 458.47,-191.997 468.967,-190.561 465.781,-184.328"/>
</g>
<!-- Node24 -->
<g id="node24" class="node"><title>Node24</title>
<g id="a_node24"><a xlink:href="classrc_engine_impl.html#a6d36ffad5feaaa46f82bec2bf309b0f4" target="_top" xlink:title="rcEngineImpl::start">
<polygon fill="white" stroke="black" points="536.318,-191 536.318,-211 635.682,-211 635.682,-191 536.318,-191"/>
<text text-anchor="middle" x="586" y="-197" font-family="Helvetica,sans-Serif" font-size="10.00">rcEngineImpl::start</text>
</a>
</g>
</g>
<!-- Node19&#45;&gt;Node24 -->
<g id="edge26" class="edge"><title>Node19&#45;&gt;Node24</title>
<path fill="none" stroke="midnightblue" d="M482.165,-204.955C500.498,-204.25 519.484,-203.52 536.076,-202.882"/>
<polygon fill="midnightblue" stroke="midnightblue" points="481.924,-201.462 472.066,-205.344 482.193,-208.457 481.924,-201.462"/>
</g>
<!-- Node21 -->
<g id="node21" class="node"><title>Node21</title>
<g id="a_node21"><a xlink:href="classrc_engine_impl.html#ac6c444948228b9a6c9c013efefd7452c" target="_top" xlink:title="rcEngineImpl::loadImages">
<polygon fill="white" stroke="black" points="712.192,-68 712.192,-88 843.808,-88 843.808,-68 712.192,-68"/>
<text text-anchor="middle" x="778" y="-74" font-family="Helvetica,sans-Serif" font-size="10.00">rcEngineImpl::loadImages</text>
</a>
</g>
</g>
<!-- Node20&#45;&gt;Node21 -->
<g id="edge23" class="edge"><title>Node20&#45;&gt;Node21</title>
<path fill="none" stroke="midnightblue" d="M645.828,-104.925C672.27,-99.4973 703.107,-93.1675 728.236,-88.0094"/>
<polygon fill="midnightblue" stroke="midnightblue" points="645.022,-101.517 635.93,-106.957 646.429,-108.374 645.022,-101.517"/>
</g>
<!-- Node23 -->
<g id="node23" class="node"><title>Node23</title>
<g id="a_node23"><a xlink:href="classrc_engine_impl.html#ac0162da8fe4f677ad6f3d04a465d50f0" target="_top" xlink:title="rcEngineImpl::loadMovie">
<polygon fill="white" stroke="black" points="715.251,-107 715.251,-127 840.749,-127 840.749,-107 715.251,-107"/>
<text text-anchor="middle" x="778" y="-113" font-family="Helvetica,sans-Serif" font-size="10.00">rcEngineImpl::loadMovie</text>
</a>
</g>
</g>
<!-- Node20&#45;&gt;Node23 -->
<g id="edge25" class="edge"><title>Node20&#45;&gt;Node23</title>
<path fill="none" stroke="midnightblue" d="M662.516,-117C679.929,-117 698.255,-117 715.015,-117"/>
<polygon fill="midnightblue" stroke="midnightblue" points="662.387,-113.5 652.387,-117 662.387,-120.5 662.387,-113.5"/>
</g>
<!-- Node22 -->
<g id="node22" class="node"><title>Node22</title>
<g id="a_node22"><a xlink:href="classrc_engine_importer.html#a2e45417f1c29adf01483b2b8fca6b27b" target="_top" xlink:title="rcEngineImporter::run">
<polygon fill="white" stroke="black" points="903.646,-68 903.646,-88 1016.35,-88 1016.35,-68 903.646,-68"/>
<text text-anchor="middle" x="960" y="-74" font-family="Helvetica,sans-Serif" font-size="10.00">rcEngineImporter::run</text>
</a>
</g>
</g>
<!-- Node21&#45;&gt;Node22 -->
<g id="edge24" class="edge"><title>Node21&#45;&gt;Node22</title>
<path fill="none" stroke="midnightblue" d="M854.188,-78C870.752,-78 888.005,-78 903.617,-78"/>
<polygon fill="midnightblue" stroke="midnightblue" points="853.984,-74.5001 843.984,-78 853.984,-81.5001 853.984,-74.5001"/>
</g>
<!-- Node24&#45;&gt;Node17 -->
<g id="edge28" class="edge"><title>Node24&#45;&gt;Node17</title>
<path fill="none" stroke="midnightblue" d="M639.492,-188.568C669.412,-181.481 706.419,-172.716 734.503,-166.065"/>
<polygon fill="midnightblue" stroke="midnightblue" points="638.564,-185.191 629.64,-190.901 640.177,-192.002 638.564,-185.191"/>
</g>
<!-- Node25 -->
<g id="node25" class="node"><title>Node25</title>
<g id="a_node25"><a xlink:href="classrc_engine_movie_playback.html#ab5cff6edcb8b3d901f96d0fde1766f18" target="_top" xlink:title="rcEngineMoviePlayback::run">
<polygon fill="white" stroke="black" points="706.636,-236 706.636,-256 849.364,-256 849.364,-236 706.636,-236"/>
<text text-anchor="middle" x="778" y="-242" font-family="Helvetica,sans-Serif" font-size="10.00">rcEngineMoviePlayback::run</text>
</a>
</g>
</g>
<!-- Node24&#45;&gt;Node25 -->
<g id="edge27" class="edge"><title>Node24&#45;&gt;Node25</title>
<path fill="none" stroke="midnightblue" d="M639.492,-213.432C669.412,-220.519 706.419,-229.284 734.503,-235.935"/>
<polygon fill="midnightblue" stroke="midnightblue" points="640.177,-209.998 629.64,-211.099 638.564,-216.809 640.177,-209.998"/>
</g>
<!-- Node26 -->
<g id="node26" class="node"><title>Node26</title>
<g id="a_node26"><a xlink:href="classrc_engine_movie_saver.html#abb624bdd44b94c6a21f9e34dfc2da081" target="_top" xlink:title="rcEngineMovieSaver\l::waitHdlr">
<polygon fill="white" stroke="black" points="723.867,-185 723.867,-217 832.133,-217 832.133,-185 723.867,-185"/>
<text text-anchor="start" x="731.867" y="-203" font-family="Helvetica,sans-Serif" font-size="10.00">rcEngineMovieSaver</text>
<text text-anchor="middle" x="778" y="-191" font-family="Helvetica,sans-Serif" font-size="10.00">::waitHdlr</text>
</a>
</g>
</g>
<!-- Node24&#45;&gt;Node26 -->
<g id="edge29" class="edge"><title>Node24&#45;&gt;Node26</title>
<path fill="none" stroke="midnightblue" d="M645.939,-201C670.737,-201 699.385,-201 723.561,-201"/>
<polygon fill="midnightblue" stroke="midnightblue" points="645.93,-197.5 635.93,-201 645.93,-204.5 645.93,-197.5"/>
</g>
<!-- Node27 -->
<g id="node27" class="node"><title>Node27</title>
<g id="a_node27"><a xlink:href="classrc_engine_movie_saver.html#a216e88884a3dd557507ea93dc3609a91" target="_top" xlink:title="rcEngineMovieSaver::run">
<polygon fill="white" stroke="black" points="895.862,-191 895.862,-211 1024.14,-211 1024.14,-191 895.862,-191"/>
<text text-anchor="middle" x="960" y="-197" font-family="Helvetica,sans-Serif" font-size="10.00">rcEngineMovieSaver::run</text>
</a>
</g>
</g>
<!-- Node26&#45;&gt;Node27 -->
<g id="edge30" class="edge"><title>Node26&#45;&gt;Node27</title>
<path fill="none" stroke="midnightblue" d="M842.521,-201C859.828,-201 878.569,-201 895.855,-201"/>
<polygon fill="midnightblue" stroke="midnightblue" points="842.519,-197.5 832.519,-201 842.519,-204.5 842.519,-197.5"/>
</g>
</g>
</svg>
        <g id="navigator" transform="translate(0 0)" fill="#404254">
                <rect fill="#f2f5e9" fill-opacity="0.5" stroke="#606060" stroke-width=".5" x="0" y="0" width="60" height="60"/>
                <use id="zoomplus" xlink:href="#zoomPlus" x="17" y="9" onmousedown="handleZoom(evt,'in')"/>
                <use id="zoomminus" xlink:href="#zoomMin" x="42" y="9" onmousedown="handleZoom(evt,'out')"/>
                <use id="reset" xlink:href="#resetDef" x="30" y="36" onmousedown="handleReset()"/>
                <g id="arrowUp" xlink:href="#dirArrow" transform="translate(30 24)" onmousedown="handlePan(0,-1)">
                  <use xlink:href="#rim" fill="#404040">
                        <set attributeName="fill" to="#808080" begin="arrowUp.mouseover" end="arrowUp.mouseout"/>
                  </use>
                  <path fill="none" stroke="white" stroke-width="1.5" d="M0,-3.0v7 M-2.5,-0.5L0,-3.0L2.5,-0.5"/>
                </g>
                <g id="arrowRight" xlink:href="#dirArrow" transform="rotate(90) translate(36 -43)" onmousedown="handlePan(1,0)">
                  <use xlink:href="#rim" fill="#404040">
                        <set attributeName="fill" to="#808080" begin="arrowRight.mouseover" end="arrowRight.mouseout"/>
                  </use>
                  <path fill="none" stroke="white" stroke-width="1.5" d="M0,-3.0v7 M-2.5,-0.5L0,-3.0L2.5,-0.5"/>
                </g>
                <g id="arrowDown" xlink:href="#dirArrow" transform="rotate(180) translate(-30 -48)" onmousedown="handlePan(0,1)">
                  <use xlink:href="#rim" fill="#404040">
                        <set attributeName="fill" to="#808080" begin="arrowDown.mouseover" end="arrowDown.mouseout"/>
                  </use>
                  <path fill="none" stroke="white" stroke-width="1.5" d="M0,-3.0v7 M-2.5,-0.5L0,-3.0L2.5,-0.5"/>
                </g>
                <g id="arrowLeft" xlink:href="#dirArrow" transform="rotate(270) translate(-36 17)" onmousedown="handlePan(-1,0)">
                  <use xlink:href="#rim" fill="#404040">
                        <set attributeName="fill" to="#808080" begin="arrowLeft.mouseover" end="arrowLeft.mouseout"/>
                  </use>
                  <path fill="none" stroke="white" stroke-width="1.5" d="M0,-3.0v7 M-2.5,-0.5L0,-3.0L2.5,-0.5"/>
                </g>
        </g>
        <svg viewBox="0 0 15 15" width="100%" height="30px" preserveAspectRatio="xMaxYMin meet">
         <g id="arrow_out" transform="scale(0.3 0.3)">
          <a xlink:href="classrc_writer_info_a2356971328e03fdf35eda486e81a755b_icgraph_org.svg" target="_base">
           <rect id="button" ry="5" rx="5" y="6" x="6" height="38" width="38"
                fill="#f2f5e9" fill-opacity="0.5" stroke="#606060" stroke-width="1.0"/>
           <path id="arrow"
             d="M 11.500037,31.436501 C 11.940474,20.09759 22.043105,11.32322 32.158766,21.979434 L 37.068811,17.246167 C 37.068811,17.246167 37.088388,32 37.088388,32 L 22.160133,31.978069 C 22.160133,31.978069 26.997745,27.140456 26.997745,27.140456 C 18.528582,18.264221 13.291696,25.230495 11.500037,31.436501 z"
             style="fill:#404040;"/>
          </a>
         </g>
        </svg>
</svg>
