<?xml version="1.0" encoding="UTF-8" standalone="no"?>
<!DOCTYPE svg PUBLIC "-//W3C//DTD SVG 1.1//EN"
 "http://www.w3.org/Graphics/SVG/1.1/DTD/svg11.dtd">
<!-- Generated by graphviz version 2.32.0 (20130916.1925)
 -->
<!-- Title: rcConversionProgress::progress Pages: 1 -->
<svg width="352pt" height="118pt"
 viewBox="0.00 0.00 352.00 118.00" xmlns="http://www.w3.org/2000/svg" xmlns:xlink="http://www.w3.org/1999/xlink">
<g id="graph0" class="graph" transform="scale(1 1) rotate(0) translate(4 114)">
<title>rcConversionProgress::progress</title>
<polygon fill="white" stroke="white" points="-4,5 -4,-114 349,-114 349,5 -4,5"/>
<!-- Node1 -->
<g id="node1" class="node"><title>Node1</title>
<polygon fill="#bfbfbf" stroke="black" points="0.537109,-33 0.537109,-65 115.463,-65 115.463,-33 0.537109,-33"/>
<text text-anchor="start" x="8.53711" y="-51" font-family="Helvetica,sans-Serif" font-size="10.00">rcConversionProgress</text>
<text text-anchor="middle" x="58" y="-39" font-family="Helvetica,sans-Serif" font-size="10.00">::progress</text>
</g>
<!-- Node2 -->
<g id="node2" class="node"><title>Node2</title>
<g id="a_node2"><a xlink:href="classrc_conversion_progress.html#a8ec539b81d35fb7b1934b522a109bd93" target="_top" xlink:title="rcConversionProgress\l::progress">
<polygon fill="white" stroke="black" points="153.537,-78 153.537,-110 268.463,-110 268.463,-78 153.537,-78"/>
<text text-anchor="start" x="161.537" y="-96" font-family="Helvetica,sans-Serif" font-size="10.00">rcConversionProgress</text>
<text text-anchor="middle" x="211" y="-84" font-family="Helvetica,sans-Serif" font-size="10.00">::progress</text>
</a>
</g>
</g>
<!-- Node1&#45;&gt;Node2 -->
<g id="edge1" class="edge"><title>Node1&#45;&gt;Node2</title>
<path fill="none" stroke="midnightblue" d="M122.777,-68.0063C133.933,-71.3311 145.44,-74.7602 156.29,-77.9936"/>
<polygon fill="midnightblue" stroke="midnightblue" points="123.671,-64.6208 113.088,-65.1189 121.672,-71.3292 123.671,-64.6208"/>
</g>
<!-- Node3 -->
<g id="node3" class="node"><title>Node3</title>
<g id="a_node3"><a xlink:href="bcnvrt__main_8cpp.html#a6e8fab40e4cd89f05d7bafbc7c22dedc" target="_top" xlink:title="rfCompareMovies">
<polygon fill="white" stroke="black" points="163.544,-39 163.544,-59 258.456,-59 258.456,-39 163.544,-39"/>
<text text-anchor="middle" x="211" y="-45" font-family="Helvetica,sans-Serif" font-size="10.00">rfCompareMovies</text>
</a>
</g>
</g>
<!-- Node1&#45;&gt;Node3 -->
<g id="edge2" class="edge"><title>Node1&#45;&gt;Node3</title>
<path fill="none" stroke="midnightblue" d="M125.74,-49C138.438,-49 151.471,-49 163.376,-49"/>
<polygon fill="midnightblue" stroke="midnightblue" points="125.656,-45.5001 115.656,-49 125.656,-52.5001 125.656,-45.5001"/>
</g>
<!-- Node5 -->
<g id="node5" class="node"><title>Node5</title>
<g id="a_node5"><a xlink:href="bcnvrt__main_8cpp.html#a00a4dac924291e9ba2f484741e4abc19" target="_top" xlink:title="rfCompareReifyMovies">
<polygon fill="white" stroke="black" points="152.153,-0 152.153,-20 269.847,-20 269.847,-0 152.153,-0"/>
<text text-anchor="middle" x="211" y="-6" font-family="Helvetica,sans-Serif" font-size="10.00">rfCompareReifyMovies</text>
</a>
</g>
</g>
<!-- Node1&#45;&gt;Node5 -->
<g id="edge4" class="edge"><title>Node1&#45;&gt;Node5</title>
<path fill="none" stroke="midnightblue" d="M125.708,-31.7708C141.155,-27.7812 157.1,-23.663 170.908,-20.0966"/>
<polygon fill="midnightblue" stroke="midnightblue" points="124.463,-28.4773 115.656,-34.3669 126.214,-35.2549 124.463,-28.4773"/>
</g>
<!-- Node4 -->
<g id="node4" class="node"><title>Node4</title>
<g id="a_node4"><a xlink:href="bcnvrt__main_8cpp.html#a3c04138a5bfe5d72780bb7e82a18e627" target="_top" xlink:title="main">
<polygon fill="white" stroke="black" points="306.163,-19 306.163,-39 343.837,-39 343.837,-19 306.163,-19"/>
<text text-anchor="middle" x="325" y="-25" font-family="Helvetica,sans-Serif" font-size="10.00">main</text>
</a>
</g>
</g>
<!-- Node3&#45;&gt;Node4 -->
<g id="edge3" class="edge"><title>Node3&#45;&gt;Node4</title>
<path fill="none" stroke="midnightblue" d="M268.402,-38.9283C282.021,-36.4963 295.609,-34.0699 305.942,-32.2246"/>
<polygon fill="midnightblue" stroke="midnightblue" points="267.754,-35.4885 258.525,-40.692 268.985,-42.3795 267.754,-35.4885"/>
</g>
<!-- Node5&#45;&gt;Node4 -->
<g id="edge5" class="edge"><title>Node5&#45;&gt;Node4</title>
<path fill="none" stroke="midnightblue" d="M279.965,-21.5297C289.437,-23.1367 298.431,-24.6624 305.791,-25.911"/>
<polygon fill="midnightblue" stroke="midnightblue" points="280.413,-18.0558 269.968,-19.8339 279.242,-24.9572 280.413,-18.0558"/>
</g>
</g>
</svg>
