<?xml version="1.0" encoding="UTF-8" standalone="no"?>
<!DOCTYPE svg PUBLIC "-//W3C//DTD SVG 1.1//EN"
 "http://www.w3.org/Graphics/SVG/1.1/DTD/svg11.dtd">
<!-- Generated by graphviz version 2.32.0 (20130916.1925)
 -->
<!-- Title: Polygon_2_edge_iterator&lt; Container_ &gt; Pages: 1 -->
<svg width="134pt" height="194pt"
 viewBox="0.00 0.00 134.00 194.00" xmlns="http://www.w3.org/2000/svg" xmlns:xlink="http://www.w3.org/1999/xlink">
<g id="graph0" class="graph" transform="scale(1 1) rotate(0) translate(4 190)">
<title>Polygon_2_edge_iterator&lt; Container_ &gt;</title>
<polygon fill="white" stroke="white" points="-4,5 -4,-190 131,-190 131,5 -4,5"/>
<!-- Node1 -->
<g id="node1" class="node"><title>Node1</title>
<polygon fill="#bfbfbf" stroke="black" points="-0.876465,-1 -0.876465,-33 126.876,-33 126.876,-1 -0.876465,-1"/>
<text text-anchor="start" x="7.12354" y="-19" font-family="Helvetica,sans-Serif" font-size="10.00">Polygon_2_edge_iterator</text>
<text text-anchor="middle" x="63" y="-7" font-family="Helvetica,sans-Serif" font-size="10.00">&lt; Container_ &gt;</text>
</g>
<!-- Node2 -->
<g id="node2" class="node"><title>Node2</title>
<g id="a_node2"><a xlink:href="classrc_polygon_segment.html" target="_top" xlink:title="rcPolygonSegment">
<polygon fill="white" stroke="black" points="12.7539,-83 12.7539,-103 113.246,-103 113.246,-83 12.7539,-83"/>
<text text-anchor="middle" x="63" y="-89" font-family="Helvetica,sans-Serif" font-size="10.00">rcPolygonSegment</text>
</a>
</g>
</g>
<!-- Node2&#45;&gt;Node1 -->
<g id="edge1" class="edge"><title>Node2&#45;&gt;Node1</title>
<path fill="none" stroke="#9a32cd" stroke-dasharray="5,2" d="M63,-72.7583C63,-60.3756 63,-44.5144 63,-33.053"/>
<polygon fill="#9a32cd" stroke="#9a32cd" points="59.5001,-72.9261 63,-82.9261 66.5001,-72.9262 59.5001,-72.9261"/>
<text text-anchor="middle" x="79.3965" y="-54" font-family="Helvetica,sans-Serif" font-size="10.00"> m_seg</text>
</g>
<!-- Node3 -->
<g id="node3" class="node"><title>Node3</title>
<g id="a_node3"><a xlink:href="classrc2d_vector.html" target="_top" xlink:title="rc2dVector\&lt; double \&gt;">
<polygon fill="white" stroke="black" points="7.46338,-165 7.46338,-185 118.537,-185 118.537,-165 7.46338,-165"/>
<text text-anchor="middle" x="63" y="-171" font-family="Helvetica,sans-Serif" font-size="10.00">rc2dVector&lt; double &gt;</text>
</a>
</g>
</g>
<!-- Node3&#45;&gt;Node2 -->
<g id="edge2" class="edge"><title>Node3&#45;&gt;Node2</title>
<path fill="none" stroke="#9a32cd" stroke-dasharray="5,2" d="M63,-154.71C63,-138.329 63,-115.55 63,-103.07"/>
<polygon fill="#9a32cd" stroke="#9a32cd" points="59.5001,-154.823 63,-164.823 66.5001,-154.823 59.5001,-154.823"/>
<text text-anchor="middle" x="85.5122" y="-136" font-family="Helvetica,sans-Serif" font-size="10.00"> mSecond</text>
<text text-anchor="middle" x="85.5122" y="-124" font-family="Helvetica,sans-Serif" font-size="10.00">mFirst</text>
</g>
</g>
</svg>
