<?xml version="1.0" encoding="UTF-8" standalone="no"?>
<!DOCTYPE svg PUBLIC "-//W3C//DTD SVG 1.1//EN"
 "http://www.w3.org/Graphics/SVG/1.1/DTD/svg11.dtd">
<!-- Generated by graphviz version 2.32.0 (20130916.1925)
 -->
<!-- Title: rcVisualFunction::have Pages: 1 -->
<!--zoomable 727 -->
<svg id="main" version="1.1" xmlns="http://www.w3.org/2000/svg" xmlns:xlink="http://www.w3.org/1999/xlink" xml:space="preserve" onload="init(evt)">
        <defs>
                <circle id="rim" cx="0" cy="0" r="7"/>
                <circle id="rim2" cx="0" cy="0" r="3.5"/>
                <g id="zoomPlus">
                        <use xlink:href="#rim" fill="#404040">
                                <set attributeName="fill" to="#808080" begin="zoomplus.mouseover" end="zoomplus.mouseout"/>
                        </use>
                        <path d="M-4,0h8M0,-4v8" fill="none" stroke="white" stroke-width="1.5" pointer-events="none"/>
                </g>
                <g id="zoomMin">
                        <use xlink:href="#rim" fill="#404040">
                                <set attributeName="fill" to="#808080" begin="zoomminus.mouseover" end="zoomminus.mouseout"/>
                        </use>
                        <path d="M-4,0h8" fill="none" stroke="white" stroke-width="1.5" pointer-events="none"/>
                </g>
                <g id="dirArrow">
                        <path fill="none" stroke="white" stroke-width="1.5" d="M0,-3.0v7 M-2.5,-0.5L0,-3.0L2.5,-0.5"/>
                </g>
               <g id="resetDef">
                       <use xlink:href="#rim2" fill="#404040">
                               <set attributeName="fill" to="#808080" begin="reset.mouseover" end="reset.mouseout"/>
                       </use>
               </g>
        </defs>

<script type="text/javascript">
var viewWidth = 836;
var viewHeight = 727;
var sectionId = 'dynsection-52';
</script>
<script xlink:href="svgpan.js"/>
<svg id="graph" class="graph">
<g id="viewport">
<title>rcVisualFunction::have</title>
<polygon fill="white" stroke="white" points="-4,5 -4,-722.629 833,-722.629 833,5 -4,5"/>
<!-- Node1 -->
<g id="node1" class="node"><title>Node1</title>
<polygon fill="#bfbfbf" stroke="black" points="0.506836,-279 0.506836,-299 117.493,-299 117.493,-279 0.506836,-279"/>
<text text-anchor="middle" x="59" y="-285" font-family="Helvetica,sans-Serif" font-size="10.00">rcVisualFunction::have</text>
</g>
<!-- Node2 -->
<g id="node2" class="node"><title>Node2</title>
<g id="a_node2"><a xlink:href="classrc_visual_function.html#afcb3816a0597cf4e416a028bbe631b4e" target="_top" xlink:title="rcVisualFunction::clear">
<polygon fill="white" stroke="black" points="168.512,-537 168.512,-557 285.488,-557 285.488,-537 168.512,-537"/>
<text text-anchor="middle" x="227" y="-543" font-family="Helvetica,sans-Serif" font-size="10.00">rcVisualFunction::clear</text>
</a>
</g>
</g>
<!-- Node1&#45;&gt;Node2 -->
<g id="edge1" class="edge"><title>Node1&#45;&gt;Node2</title>
<path fill="none" stroke="midnightblue" d="M65.4721,-309.013C76.861,-347.933 106.11,-435.152 154,-494 168.891,-512.299 191.482,-527.553 207.379,-536.926"/>
<polygon fill="midnightblue" stroke="midnightblue" points="68.8347,-308.042 62.7329,-299.38 62.1017,-309.956 68.8347,-308.042"/>
</g>
<!-- Node4 -->
<g id="node4" class="node"><title>Node4</title>
<g id="a_node4"><a xlink:href="classrc_visual_function.html#a653fd69af532714b01f9c0b5cabc96c6" target="_top" xlink:title="rcVisualFunction::reconcile">
<polygon fill="white" stroke="black" points="524.339,-669 524.339,-689 659.661,-689 659.661,-669 524.339,-669"/>
<text text-anchor="middle" x="592" y="-675" font-family="Helvetica,sans-Serif" font-size="10.00">rcVisualFunction::reconcile</text>
</a>
</g>
</g>
<!-- Node1&#45;&gt;Node4 -->
<g id="edge43" class="edge"><title>Node1&#45;&gt;Node4</title>
<path fill="none" stroke="midnightblue" d="M59.7176,-309.484C60.0243,-367.348 68.6779,-534.043 154,-630 255.03,-743.623 337.032,-722.059 488,-704 511.935,-701.137 538.345,-694.658 558.43,-689.013"/>
<polygon fill="midnightblue" stroke="midnightblue" points="63.2186,-309.144 59.7507,-299.133 56.2186,-309.122 63.2186,-309.144"/>
</g>
<!-- Node5 -->
<g id="node5" class="node"><title>Node5</title>
<g id="a_node5"><a xlink:href="classrc_visual_function.html#aac560c030fc167d7e22ea54d1cbbacbe" target="_top" xlink:title="rcVisualFunction::compute\lAcceleration">
<polygon fill="white" stroke="black" points="345.172,-509 345.172,-541 478.828,-541 478.828,-509 345.172,-509"/>
<text text-anchor="start" x="353.172" y="-527" font-family="Helvetica,sans-Serif" font-size="10.00">rcVisualFunction::compute</text>
<text text-anchor="middle" x="412" y="-515" font-family="Helvetica,sans-Serif" font-size="10.00">Acceleration</text>
</a>
</g>
</g>
<!-- Node1&#45;&gt;Node5 -->
<g id="edge17" class="edge"><title>Node1&#45;&gt;Node5</title>
<path fill="none" stroke="midnightblue" d="M71.0926,-308.023C86.8252,-333.677 117.771,-379.536 154,-409 214.576,-458.264 299.433,-491.17 354.799,-508.978"/>
<polygon fill="midnightblue" stroke="midnightblue" points="73.9771,-306.027 65.8285,-299.256 67.9759,-309.631 73.9771,-306.027"/>
</g>
<!-- Node6 -->
<g id="node6" class="node"><title>Node6</title>
<g id="a_node6"><a xlink:href="classrc_visual_function.html#a60c456dafac1e2842e1356274b928a08" target="_top" xlink:title="rcVisualFunction::update">
<polygon fill="white" stroke="black" points="529.056,-515 529.056,-535 654.944,-535 654.944,-515 529.056,-515"/>
<text text-anchor="middle" x="592" y="-521" font-family="Helvetica,sans-Serif" font-size="10.00">rcVisualFunction::update</text>
</a>
</g>
</g>
<!-- Node1&#45;&gt;Node6 -->
<g id="edge44" class="edge"><title>Node1&#45;&gt;Node6</title>
<path fill="none" stroke="midnightblue" d="M62.1591,-309.195C68.3096,-358.178 89.8331,-485.2 154,-566 213.212,-640.56 244.439,-652.888 336,-679 400.965,-697.527 434.391,-720.108 488,-679 536.936,-641.475 481.001,-589.204 524,-545 527.978,-540.91 532.754,-537.648 537.9,-535.048"/>
<polygon fill="midnightblue" stroke="midnightblue" points="65.6312,-308.752 60.9887,-299.228 58.6789,-309.568 65.6312,-308.752"/>
</g>
<!-- Node13 -->
<g id="node13" class="node"><title>Node13</title>
<g id="a_node13"><a xlink:href="classrc_visual_function.html#ab5e34886e06cd4b26e1aa8a1f185f1bf" target="_top" xlink:title="rcVisualFunction::rcVisual\lFunction">
<polygon fill="white" stroke="black" points="696.654,-341 696.654,-373 827.346,-373 827.346,-341 696.654,-341"/>
<text text-anchor="start" x="704.654" y="-359" font-family="Helvetica,sans-Serif" font-size="10.00">rcVisualFunction::rcVisual</text>
<text text-anchor="middle" x="762" y="-347" font-family="Helvetica,sans-Serif" font-size="10.00">Function</text>
</a>
</g>
</g>
<!-- Node1&#45;&gt;Node13 -->
<g id="edge42" class="edge"><title>Node1&#45;&gt;Node13</title>
<path fill="none" stroke="midnightblue" d="M82.9215,-272.993C146.901,-230.33 332.896,-120.045 488,-164 602.481,-196.443 708.675,-300.688 746.443,-340.935"/>
<polygon fill="midnightblue" stroke="midnightblue" points="80.7051,-270.267 74.3855,-278.77 84.6288,-276.064 80.7051,-270.267"/>
</g>
<!-- Node14 -->
<g id="node14" class="node"><title>Node14</title>
<g id="a_node14"><a xlink:href="classrc_visual_function.html#a55def00752d23dbfe638a0657d85b125" target="_top" xlink:title="rcVisualFunction::contraction\lFrequency">
<polygon fill="white" stroke="black" points="154.891,-90 154.891,-122 299.109,-122 299.109,-90 154.891,-90"/>
<text text-anchor="start" x="162.891" y="-108" font-family="Helvetica,sans-Serif" font-size="10.00">rcVisualFunction::contraction</text>
<text text-anchor="middle" x="227" y="-96" font-family="Helvetica,sans-Serif" font-size="10.00">Frequency</text>
</a>
</g>
</g>
<!-- Node1&#45;&gt;Node14 -->
<g id="edge18" class="edge"><title>Node1&#45;&gt;Node14</title>
<path fill="none" stroke="midnightblue" d="M67.6342,-269.102C80.7757,-237.229 110.517,-174.508 154,-137 160.905,-131.044 169.127,-126.083 177.504,-122.003"/>
<polygon fill="midnightblue" stroke="midnightblue" points="64.2803,-268.063 63.818,-278.648 70.7801,-270.661 64.2803,-268.063"/>
</g>
<!-- Node15 -->
<g id="node15" class="node"><title>Node15</title>
<g id="a_node15"><a xlink:href="rc__visualfunction_8cpp.html#ae06819e25787b9e65f7f1a28bd0e36ab" target="_top" xlink:title="operator\&lt;\&lt;">
<polygon fill="white" stroke="black" points="379.537,-96 379.537,-116 444.463,-116 444.463,-96 379.537,-96"/>
<text text-anchor="middle" x="412" y="-102" font-family="Helvetica,sans-Serif" font-size="10.00">operator&lt;&lt;</text>
</a>
</g>
</g>
<!-- Node1&#45;&gt;Node15 -->
<g id="edge40" class="edge"><title>Node1&#45;&gt;Node15</title>
<path fill="none" stroke="midnightblue" d="M70.5609,-269.916C85.6844,-244.384 115.935,-199.494 154,-175 173.134,-162.688 315.009,-128.465 379.389,-113.344"/>
<polygon fill="midnightblue" stroke="midnightblue" points="67.477,-268.258 65.5206,-278.67 73.5434,-271.75 67.477,-268.258"/>
</g>
<!-- Node17 -->
<g id="node17" class="node"><title>Node17</title>
<g id="a_node17"><a xlink:href="classrc_visual_function.html#aac8369d3416b4fac464414ca2cb1cb5c" target="_top" xlink:title="rcVisualFunction::dimensions">
<polygon fill="white" stroke="black" points="154.059,-51 154.059,-71 299.941,-71 299.941,-51 154.059,-51"/>
<text text-anchor="middle" x="227" y="-57" font-family="Helvetica,sans-Serif" font-size="10.00">rcVisualFunction::dimensions</text>
</a>
</g>
</g>
<!-- Node1&#45;&gt;Node17 -->
<g id="edge21" class="edge"><title>Node1&#45;&gt;Node17</title>
<path fill="none" stroke="midnightblue" d="M63.1563,-268.852C70.7887,-227.069 94.226,-130.662 154,-80 158.241,-76.4057 163.088,-73.4829 168.219,-71.1073"/>
<polygon fill="midnightblue" stroke="midnightblue" points="59.6755,-268.444 61.4397,-278.89 66.5753,-269.624 59.6755,-268.444"/>
</g>
<!-- Node18 -->
<g id="node18" class="node"><title>Node18</title>
<g id="a_node18"><a xlink:href="classrc_visual_function.html#a56d73586ab94d3c30f14a1b1330ffda7" target="_top" xlink:title="rcVisualFunction::mark">
<polygon fill="white" stroke="black" points="168.238,-380 168.238,-400 285.762,-400 285.762,-380 168.238,-380"/>
<text text-anchor="middle" x="227" y="-386" font-family="Helvetica,sans-Serif" font-size="10.00">rcVisualFunction::mark</text>
</a>
</g>
</g>
<!-- Node1&#45;&gt;Node18 -->
<g id="edge24" class="edge"><title>Node1&#45;&gt;Node18</title>
<path fill="none" stroke="midnightblue" d="M85.0718,-304.255C119.481,-325.19 180.383,-362.245 209.543,-379.987"/>
<polygon fill="midnightblue" stroke="midnightblue" points="86.8859,-301.261 76.5236,-299.054 83.2473,-307.241 86.8859,-301.261"/>
</g>
<!-- Node23 -->
<g id="node23" class="node"><title>Node23</title>
<g id="a_node23"><a xlink:href="classrc_visual_function.html#ad35931d8f44aac3c82a62ef392732b97" target="_top" xlink:title="rcVisualFunction::pacing\lFrequency">
<polygon fill="white" stroke="black" points="164.615,-0 164.615,-32 289.385,-32 289.385,-0 164.615,-0"/>
<text text-anchor="start" x="172.615" y="-18" font-family="Helvetica,sans-Serif" font-size="10.00">rcVisualFunction::pacing</text>
<text text-anchor="middle" x="227" y="-6" font-family="Helvetica,sans-Serif" font-size="10.00">Frequency</text>
</a>
</g>
</g>
<!-- Node1&#45;&gt;Node23 -->
<g id="edge41" class="edge"><title>Node1&#45;&gt;Node23</title>
<path fill="none" stroke="midnightblue" d="M61.931,-268.786C67.4609,-222.063 87.5142,-105.643 154,-41 157.51,-37.5871 161.51,-34.6385 165.784,-32.0913"/>
<polygon fill="midnightblue" stroke="midnightblue" points="58.4378,-268.536 60.8415,-278.854 65.3971,-269.289 58.4378,-268.536"/>
</g>
<!-- Node3 -->
<g id="node3" class="node"><title>Node3</title>
<g id="a_node3"><a xlink:href="classrc_visual_function.html#a76bcc401f54c5578f2962cd77cb11a63" target="_top" xlink:title="rcVisualFunction::beatProcess">
<polygon fill="white" stroke="black" points="336.556,-650 336.556,-670 487.444,-670 487.444,-650 336.556,-650"/>
<text text-anchor="middle" x="412" y="-656" font-family="Helvetica,sans-Serif" font-size="10.00">rcVisualFunction::beatProcess</text>
</a>
</g>
</g>
<!-- Node2&#45;&gt;Node3 -->
<g id="edge2" class="edge"><title>Node2&#45;&gt;Node3</title>
<path fill="none" stroke="midnightblue" d="M243.65,-564.644C263.222,-585.638 298.718,-620.317 336,-640 343.627,-644.027 352.128,-647.29 360.589,-649.92"/>
<polygon fill="midnightblue" stroke="midnightblue" points="246.06,-562.094 236.73,-557.074 240.893,-566.816 246.06,-562.094"/>
</g>
<!-- Node2&#45;&gt;Node4 -->
<g id="edge12" class="edge"><title>Node2&#45;&gt;Node4</title>
<path fill="none" stroke="midnightblue" d="M236.872,-566.376C252.112,-597.004 286.478,-655.532 336,-679 405.811,-712.082 498.932,-700.064 551.148,-689.059"/>
<polygon fill="midnightblue" stroke="midnightblue" points="239.926,-564.65 232.442,-557.15 233.615,-567.68 239.926,-564.65"/>
</g>
<!-- Node2&#45;&gt;Node5 -->
<g id="edge4" class="edge"><title>Node2&#45;&gt;Node5</title>
<path fill="none" stroke="midnightblue" d="M296.011,-538.824C312.035,-536.897 329.091,-534.847 345.024,-532.932"/>
<polygon fill="midnightblue" stroke="midnightblue" points="295.162,-535.401 285.651,-540.069 295.997,-542.351 295.162,-535.401"/>
</g>
<!-- Node7 -->
<g id="node7" class="node"><title>Node7</title>
<g id="a_node7"><a xlink:href="classrc_visual_function.html#a975f79cf1a89ebe5f9e2af5b567c4e84" target="_top" xlink:title="rcVisualFunction::correspond">
<polygon fill="white" stroke="black" points="339.334,-470 339.334,-490 484.666,-490 484.666,-470 339.334,-470"/>
<text text-anchor="middle" x="412" y="-476" font-family="Helvetica,sans-Serif" font-size="10.00">rcVisualFunction::correspond</text>
</a>
</g>
</g>
<!-- Node2&#45;&gt;Node7 -->
<g id="edge6" class="edge"><title>Node2&#45;&gt;Node7</title>
<path fill="none" stroke="midnightblue" d="M257.954,-532.519C279.366,-522.527 309.042,-509.401 336,-500 346.561,-496.317 358.158,-492.92 369.009,-490.01"/>
<polygon fill="midnightblue" stroke="midnightblue" points="256.289,-529.434 248.737,-536.865 259.275,-535.766 256.289,-529.434"/>
</g>
<!-- Node9 -->
<g id="node9" class="node"><title>Node9</title>
<g id="a_node9"><a xlink:href="classrc_visual_function.html#a12c7c4b7e50e15224f75ce88787d799a" target="_top" xlink:title="rcVisualFunction::correspond\lMutualChannel">
<polygon fill="white" stroke="black" points="339.334,-419 339.334,-451 484.666,-451 484.666,-419 339.334,-419"/>
<text text-anchor="start" x="347.334" y="-437" font-family="Helvetica,sans-Serif" font-size="10.00">rcVisualFunction::correspond</text>
<text text-anchor="middle" x="412" y="-425" font-family="Helvetica,sans-Serif" font-size="10.00">MutualChannel</text>
</a>
</g>
</g>
<!-- Node2&#45;&gt;Node9 -->
<g id="edge8" class="edge"><title>Node2&#45;&gt;Node9</title>
<path fill="none" stroke="midnightblue" d="M245.423,-529.991C265.72,-510.961 300.963,-480.281 336,-461 342.64,-457.346 349.889,-454.061 357.179,-451.157"/>
<polygon fill="midnightblue" stroke="midnightblue" points="242.995,-527.469 238.165,-536.899 247.822,-532.54 242.995,-527.469"/>
</g>
<!-- Node10 -->
<g id="node10" class="node"><title>Node10</title>
<g id="a_node10"><a xlink:href="classrc_visual_function.html#a30a00c90c13381c72aa2166edb81d71f" target="_top" xlink:title="rcVisualFunction::population\lMigration">
<polygon fill="white" stroke="black" points="341.273,-599 341.273,-631 482.727,-631 482.727,-599 341.273,-599"/>
<text text-anchor="start" x="349.273" y="-617" font-family="Helvetica,sans-Serif" font-size="10.00">rcVisualFunction::population</text>
<text text-anchor="middle" x="412" y="-605" font-family="Helvetica,sans-Serif" font-size="10.00">Migration</text>
</a>
</g>
</g>
<!-- Node2&#45;&gt;Node10 -->
<g id="edge10" class="edge"><title>Node2&#45;&gt;Node10</title>
<path fill="none" stroke="midnightblue" d="M262.722,-560.881C283.836,-569.228 311.386,-579.951 336,-589 344.925,-592.281 354.487,-595.682 363.695,-598.901"/>
<polygon fill="midnightblue" stroke="midnightblue" points="263.798,-557.543 253.212,-557.111 261.218,-564.05 263.798,-557.543"/>
</g>
<!-- Node11 -->
<g id="node11" class="node"><title>Node11</title>
<g id="a_node11"><a xlink:href="classrc_visual_function.html#aa1355fccb7d421265fad24036d76bd0b" target="_top" xlink:title="rcVisualFunction::updateSims">
<polygon fill="white" stroke="black" points="337.945,-560 337.945,-580 486.055,-580 486.055,-560 337.945,-560"/>
<text text-anchor="middle" x="412" y="-566" font-family="Helvetica,sans-Serif" font-size="10.00">rcVisualFunction::updateSims</text>
</a>
</g>
</g>
<!-- Node2&#45;&gt;Node11 -->
<g id="edge13" class="edge"><title>Node2&#45;&gt;Node11</title>
<path fill="none" stroke="midnightblue" d="M295.929,-555.538C309.59,-557.255 324.004,-559.066 337.834,-560.804"/>
<polygon fill="midnightblue" stroke="midnightblue" points="296.01,-552.02 285.651,-554.246 295.137,-558.966 296.01,-552.02"/>
</g>
<!-- Node3&#45;&gt;Node4 -->
<g id="edge3" class="edge"><title>Node3&#45;&gt;Node4</title>
<path fill="none" stroke="midnightblue" d="M497.524,-669.022C506.481,-669.978 515.499,-670.941 524.213,-671.871"/>
<polygon fill="midnightblue" stroke="midnightblue" points="497.772,-665.529 487.457,-667.948 497.029,-672.489 497.772,-665.529"/>
</g>
<!-- Node5&#45;&gt;Node6 -->
<g id="edge5" class="edge"><title>Node5&#45;&gt;Node6</title>
<path fill="none" stroke="midnightblue" d="M489.093,-525C502.381,-525 516.061,-525 528.915,-525"/>
<polygon fill="midnightblue" stroke="midnightblue" points="489.028,-521.5 479.028,-525 489.028,-528.5 489.028,-521.5"/>
</g>
<!-- Node8 -->
<g id="node8" class="node"><title>Node8</title>
<g id="a_node8"><a xlink:href="classrc_visual_function.html#ac3135ba614a9ba5080e78c3f2f426312" target="_top" xlink:title="rcVisualFunction::measure">
<polygon fill="white" stroke="black" points="524.896,-280 524.896,-300 659.104,-300 659.104,-280 524.896,-280"/>
<text text-anchor="middle" x="592" y="-286" font-family="Helvetica,sans-Serif" font-size="10.00">rcVisualFunction::measure</text>
</a>
</g>
</g>
<!-- Node7&#45;&gt;Node8 -->
<g id="edge7" class="edge"><title>Node7&#45;&gt;Node8</title>
<path fill="none" stroke="midnightblue" d="M478.94,-465.724C482.12,-464.026 485.165,-462.126 488,-460 545.982,-416.529 578.147,-329.983 587.835,-300.283"/>
<polygon fill="midnightblue" stroke="midnightblue" points="477.293,-462.63 469.678,-469.996 480.224,-468.986 477.293,-462.63"/>
</g>
<!-- Node9&#45;&gt;Node8 -->
<g id="edge9" class="edge"><title>Node9&#45;&gt;Node8</title>
<path fill="none" stroke="midnightblue" d="M478.928,-414.47C482.073,-412.774 485.118,-410.953 488,-409 533.24,-378.346 570.659,-322.957 584.865,-300.191"/>
<polygon fill="midnightblue" stroke="midnightblue" points="477.282,-411.378 469.844,-418.923 480.363,-417.664 477.282,-411.378"/>
</g>
<!-- Node10&#45;&gt;Node4 -->
<g id="edge11" class="edge"><title>Node10&#45;&gt;Node4</title>
<path fill="none" stroke="midnightblue" d="M469.581,-634.481C475.803,-636.663 482.039,-638.868 488,-641 513.843,-650.245 543.202,-661.113 563.945,-668.853"/>
<polygon fill="midnightblue" stroke="midnightblue" points="470.454,-631.079 459.859,-631.085 468.146,-637.687 470.454,-631.079"/>
</g>
<!-- Node11&#45;&gt;Node6 -->
<g id="edge14" class="edge"><title>Node11&#45;&gt;Node6</title>
<path fill="none" stroke="midnightblue" d="M462.909,-557.382C490.809,-550.329 525.106,-541.659 551.187,-535.065"/>
<polygon fill="midnightblue" stroke="midnightblue" points="461.784,-554.057 452.947,-559.901 463.5,-560.843 461.784,-554.057"/>
</g>
<!-- Node12 -->
<g id="node12" class="node"><title>Node12</title>
<g id="a_node12"><a xlink:href="classrc_visual_function.html#a7567dbf4b28f60a5402f5cf91b81c6d5" target="_top" xlink:title="rcVisualFunction::initialize\lSimilarator">
<polygon fill="white" stroke="black" points="526.563,-554 526.563,-586 657.437,-586 657.437,-554 526.563,-554"/>
<text text-anchor="start" x="534.563" y="-572" font-family="Helvetica,sans-Serif" font-size="10.00">rcVisualFunction::initialize</text>
<text text-anchor="middle" x="592" y="-560" font-family="Helvetica,sans-Serif" font-size="10.00">Similarator</text>
</a>
</g>
</g>
<!-- Node11&#45;&gt;Node12 -->
<g id="edge15" class="edge"><title>Node11&#45;&gt;Node12</title>
<path fill="none" stroke="midnightblue" d="M496.239,-570C506.36,-570 516.581,-570 526.376,-570"/>
<polygon fill="midnightblue" stroke="midnightblue" points="496.17,-566.5 486.17,-570 496.17,-573.5 496.17,-566.5"/>
</g>
<!-- Node12&#45;&gt;Node13 -->
<g id="edge16" class="edge"><title>Node12&#45;&gt;Node13</title>
<path fill="none" stroke="midnightblue" d="M654.473,-548.372C656.401,-546.998 658.251,-545.542 660,-544 715.202,-495.303 745.704,-408.939 756.479,-373.189"/>
<polygon fill="midnightblue" stroke="midnightblue" points="652.249,-545.633 645.599,-553.882 655.941,-551.581 652.249,-545.633"/>
</g>
<!-- Node14&#45;&gt;Node15 -->
<g id="edge19" class="edge"><title>Node14&#45;&gt;Node15</title>
<path fill="none" stroke="midnightblue" d="M309.434,-106C334.193,-106 359.947,-106 379.326,-106"/>
<polygon fill="midnightblue" stroke="midnightblue" points="309.277,-102.5 299.277,-106 309.277,-109.5 309.277,-102.5"/>
</g>
<!-- Node16 -->
<g id="node16" class="node"><title>Node16</title>
<g id="a_node16"><a xlink:href="classrc_cell_writer_group.html#a5fd86a7207963db202313d184767dae4" target="_top" xlink:title="rcCellWriterGroup::\lwriteValues">
<polygon fill="white" stroke="black" points="361.305,-45 361.305,-77 462.695,-77 462.695,-45 361.305,-45"/>
<text text-anchor="start" x="369.305" y="-63" font-family="Helvetica,sans-Serif" font-size="10.00">rcCellWriterGroup::</text>
<text text-anchor="middle" x="412" y="-51" font-family="Helvetica,sans-Serif" font-size="10.00">writeValues</text>
</a>
</g>
</g>
<!-- Node14&#45;&gt;Node16 -->
<g id="edge20" class="edge"><title>Node14&#45;&gt;Node16</title>
<path fill="none" stroke="midnightblue" d="M303.12,-87.528C322.72,-82.7082 343.357,-77.6336 361.273,-73.228"/>
<polygon fill="midnightblue" stroke="midnightblue" points="302.167,-84.1578 293.292,-89.9445 303.839,-90.9553 302.167,-84.1578"/>
</g>
<!-- Node17&#45;&gt;Node15 -->
<g id="edge22" class="edge"><title>Node17&#45;&gt;Node15</title>
<path fill="none" stroke="midnightblue" d="M278.784,-73.4879C311.043,-81.4205 351.784,-91.4387 379.456,-98.2432"/>
<polygon fill="midnightblue" stroke="midnightblue" points="279.615,-70.0881 269.069,-71.0989 277.944,-76.8856 279.615,-70.0881"/>
</g>
<!-- Node17&#45;&gt;Node16 -->
<g id="edge23" class="edge"><title>Node17&#45;&gt;Node16</title>
<path fill="none" stroke="midnightblue" d="M310.247,-61C327.663,-61 345.53,-61 361.291,-61"/>
<polygon fill="midnightblue" stroke="midnightblue" points="310.064,-57.5001 300.064,-61 310.064,-64.5001 310.064,-57.5001"/>
</g>
<!-- Node18&#45;&gt;Node3 -->
<g id="edge28" class="edge"><title>Node18&#45;&gt;Node3</title>
<path fill="none" stroke="midnightblue" d="M239.207,-408.947C254.363,-435.094 281.609,-484.005 300,-528 320.166,-576.241 298.108,-603.971 336,-640 340.297,-644.086 345.332,-647.358 350.726,-649.975"/>
<polygon fill="midnightblue" stroke="midnightblue" points="242.103,-406.965 234.034,-400.099 236.06,-410.498 242.103,-406.965"/>
</g>
<!-- Node18&#45;&gt;Node5 -->
<g id="edge39" class="edge"><title>Node18&#45;&gt;Node5</title>
<path fill="none" stroke="midnightblue" d="M244.439,-407.437C271.958,-436.496 325.387,-492.319 336,-499 341.948,-502.744 348.502,-506.029 355.186,-508.888"/>
<polygon fill="midnightblue" stroke="midnightblue" points="246.835,-404.876 237.422,-400.013 241.748,-409.685 246.835,-404.876"/>
</g>
<!-- Node18&#45;&gt;Node6 -->
<g id="edge33" class="edge"><title>Node18&#45;&gt;Node6</title>
<path fill="none" stroke="midnightblue" d="M261.792,-376.415C313.804,-357.812 415.094,-330.912 488,-370 547.798,-402.06 578.8,-485.823 588.01,-514.89"/>
<polygon fill="midnightblue" stroke="midnightblue" points="260.542,-373.145 252.37,-379.888 262.963,-379.713 260.542,-373.145"/>
</g>
<!-- Node18&#45;&gt;Node7 -->
<g id="edge36" class="edge"><title>Node18&#45;&gt;Node7</title>
<path fill="none" stroke="midnightblue" d="M248.682,-406.25C269.625,-421.998 303.478,-445.561 336,-460 344.868,-463.937 354.68,-467.242 364.204,-469.958"/>
<polygon fill="midnightblue" stroke="midnightblue" points="250.61,-403.318 240.539,-400.029 246.36,-408.881 250.61,-403.318"/>
</g>
<!-- Node18&#45;&gt;Node8 -->
<g id="edge32" class="edge"><title>Node18&#45;&gt;Node8</title>
<path fill="none" stroke="midnightblue" d="M253.739,-374.861C275.103,-362.918 306.633,-346.707 336,-337 398.403,-316.373 472.568,-303.986 524.782,-297.15"/>
<polygon fill="midnightblue" stroke="midnightblue" points="251.928,-371.865 244.962,-379.848 255.386,-377.951 251.928,-371.865"/>
</g>
<!-- Node18&#45;&gt;Node9 -->
<g id="edge37" class="edge"><title>Node18&#45;&gt;Node9</title>
<path fill="none" stroke="midnightblue" d="M278.91,-402.519C299.576,-407.601 323.705,-413.534 345.645,-418.929"/>
<polygon fill="midnightblue" stroke="midnightblue" points="279.615,-399.088 269.069,-400.099 277.944,-405.886 279.615,-399.088"/>
</g>
<!-- Node18&#45;&gt;Node10 -->
<g id="edge29" class="edge"><title>Node18&#45;&gt;Node10</title>
<path fill="none" stroke="midnightblue" d="M237.919,-409.16C263.143,-457.758 328.287,-582.456 336,-589 340.518,-592.834 345.635,-596.114 351.021,-598.917"/>
<polygon fill="midnightblue" stroke="midnightblue" points="240.888,-407.281 233.178,-400.015 234.674,-410.503 240.888,-407.281"/>
</g>
<!-- Node18&#45;&gt;Node11 -->
<g id="edge38" class="edge"><title>Node18&#45;&gt;Node11</title>
<path fill="none" stroke="midnightblue" d="M235.626,-409.373C249.98,-443.258 284.294,-513.178 336,-550 341.708,-554.065 348.192,-557.304 354.9,-559.884"/>
<polygon fill="midnightblue" stroke="midnightblue" points="238.851,-408.012 231.815,-400.09 232.375,-410.67 238.851,-408.012"/>
</g>
<!-- Node19 -->
<g id="node19" class="node"><title>Node19</title>
<g id="a_node19"><a xlink:href="classrc_visual_function.html#aa65c087d7537ace41d10052cd152ec37" target="_top" xlink:title="rcVisualFunction::label">
<polygon fill="white" stroke="black" points="353.785,-380 353.785,-400 470.215,-400 470.215,-380 353.785,-380"/>
<text text-anchor="middle" x="412" y="-386" font-family="Helvetica,sans-Serif" font-size="10.00">rcVisualFunction::label</text>
</a>
</g>
</g>
<!-- Node18&#45;&gt;Node19 -->
<g id="edge25" class="edge"><title>Node18&#45;&gt;Node19</title>
<path fill="none" stroke="midnightblue" d="M295.942,-390C314.859,-390 335.218,-390 353.474,-390"/>
<polygon fill="midnightblue" stroke="midnightblue" points="295.902,-386.5 285.902,-390 295.902,-393.5 295.902,-386.5"/>
</g>
<!-- Node20 -->
<g id="node20" class="node"><title>Node20</title>
<g id="a_node20"><a xlink:href="classrc_visual_function.html#a1df64c3605f3a0a4670118911ac783b1" target="_top" xlink:title="rcVisualFunction::cardiac\lMeasure">
<polygon fill="white" stroke="black" points="348.231,-252 348.231,-284 475.769,-284 475.769,-252 348.231,-252"/>
<text text-anchor="start" x="356.231" y="-270" font-family="Helvetica,sans-Serif" font-size="10.00">rcVisualFunction::cardiac</text>
<text text-anchor="middle" x="412" y="-258" font-family="Helvetica,sans-Serif" font-size="10.00">Measure</text>
</a>
</g>
</g>
<!-- Node18&#45;&gt;Node20 -->
<g id="edge26" class="edge"><title>Node18&#45;&gt;Node20</title>
<path fill="none" stroke="midnightblue" d="M245.129,-372.623C265.4,-352.794 300.855,-320.358 336,-299 345.271,-293.366 355.75,-288.317 365.872,-284.01"/>
<polygon fill="midnightblue" stroke="midnightblue" points="242.531,-370.27 237.896,-379.797 247.46,-375.24 242.531,-370.27"/>
</g>
<!-- Node21 -->
<g id="node21" class="node"><title>Node21</title>
<g id="a_node21"><a xlink:href="classrc_visual_function.html#a39b0eae4df10a782d7b9f8fede2b4f63" target="_top" xlink:title="rcVisualFunction::vXform">
<polygon fill="white" stroke="black" points="348.514,-213 348.514,-233 475.486,-233 475.486,-213 348.514,-213"/>
<text text-anchor="middle" x="412" y="-219" font-family="Helvetica,sans-Serif" font-size="10.00">rcVisualFunction::vXform</text>
</a>
</g>
</g>
<!-- Node18&#45;&gt;Node21 -->
<g id="edge30" class="edge"><title>Node18&#45;&gt;Node21</title>
<path fill="none" stroke="midnightblue" d="M236.62,-370.689C251.886,-338.777 286.772,-275.265 336,-242 341.342,-238.39 347.318,-235.466 353.501,-233.097"/>
<polygon fill="midnightblue" stroke="midnightblue" points="233.398,-369.317 232.359,-379.861 239.746,-372.266 233.398,-369.317"/>
</g>
<!-- Node22 -->
<g id="node22" class="node"><title>Node22</title>
<g id="a_node22"><a xlink:href="classrc_visual_function.html#a672854bd6906b2c7158baa5236cc085f" target="_top" xlink:title="rcVisualFunction::direct">
<polygon fill="white" stroke="black" points="352.123,-174 352.123,-194 471.877,-194 471.877,-174 352.123,-174"/>
<text text-anchor="middle" x="412" y="-180" font-family="Helvetica,sans-Serif" font-size="10.00">rcVisualFunction::direct</text>
</a>
</g>
</g>
<!-- Node18&#45;&gt;Node22 -->
<g id="edge34" class="edge"><title>Node18&#45;&gt;Node22</title>
<path fill="none" stroke="midnightblue" d="M233.77,-369.998C245.953,-331.452 278.058,-246.827 336,-203 340.821,-199.354 346.264,-196.402 351.962,-194.014"/>
<polygon fill="midnightblue" stroke="midnightblue" points="230.418,-368.99 230.857,-379.576 237.115,-371.027 230.418,-368.99"/>
</g>
<!-- Node20&#45;&gt;Node8 -->
<g id="edge27" class="edge"><title>Node20&#45;&gt;Node8</title>
<path fill="none" stroke="midnightblue" d="M486.145,-277.04C498.933,-278.621 512.173,-280.257 524.762,-281.813"/>
<polygon fill="midnightblue" stroke="midnightblue" points="486.36,-273.54 476.007,-275.787 485.502,-280.488 486.36,-273.54"/>
</g>
<!-- Node21&#45;&gt;Node8 -->
<g id="edge31" class="edge"><title>Node21&#45;&gt;Node8</title>
<path fill="none" stroke="midnightblue" d="M468.357,-235.764C475.032,-237.673 481.709,-239.76 488,-242 518.294,-252.788 551.768,-269.298 572.09,-279.87"/>
<polygon fill="midnightblue" stroke="midnightblue" points="469.194,-232.365 458.624,-233.099 467.345,-239.116 469.194,-232.365"/>
</g>
<!-- Node22&#45;&gt;Node8 -->
<g id="edge35" class="edge"><title>Node22&#45;&gt;Node8</title>
<path fill="none" stroke="midnightblue" d="M475.176,-197.358C479.605,-199.032 483.925,-200.906 488,-203 527.763,-223.437 565.528,-261.807 582.142,-279.975"/>
<polygon fill="midnightblue" stroke="midnightblue" points="475.958,-193.926 465.363,-194.002 473.693,-200.549 475.958,-193.926"/>
</g>
</g>
</svg>
        <g id="navigator" transform="translate(0 0)" fill="#404254">
                <rect fill="#f2f5e9" fill-opacity="0.5" stroke="#606060" stroke-width=".5" x="0" y="0" width="60" height="60"/>
                <use id="zoomplus" xlink:href="#zoomPlus" x="17" y="9" onmousedown="handleZoom(evt,'in')"/>
                <use id="zoomminus" xlink:href="#zoomMin" x="42" y="9" onmousedown="handleZoom(evt,'out')"/>
                <use id="reset" xlink:href="#resetDef" x="30" y="36" onmousedown="handleReset()"/>
                <g id="arrowUp" xlink:href="#dirArrow" transform="translate(30 24)" onmousedown="handlePan(0,-1)">
                  <use xlink:href="#rim" fill="#404040">
                        <set attributeName="fill" to="#808080" begin="arrowUp.mouseover" end="arrowUp.mouseout"/>
                  </use>
                  <path fill="none" stroke="white" stroke-width="1.5" d="M0,-3.0v7 M-2.5,-0.5L0,-3.0L2.5,-0.5"/>
                </g>
                <g id="arrowRight" xlink:href="#dirArrow" transform="rotate(90) translate(36 -43)" onmousedown="handlePan(1,0)">
                  <use xlink:href="#rim" fill="#404040">
                        <set attributeName="fill" to="#808080" begin="arrowRight.mouseover" end="arrowRight.mouseout"/>
                  </use>
                  <path fill="none" stroke="white" stroke-width="1.5" d="M0,-3.0v7 M-2.5,-0.5L0,-3.0L2.5,-0.5"/>
                </g>
                <g id="arrowDown" xlink:href="#dirArrow" transform="rotate(180) translate(-30 -48)" onmousedown="handlePan(0,1)">
                  <use xlink:href="#rim" fill="#404040">
                        <set attributeName="fill" to="#808080" begin="arrowDown.mouseover" end="arrowDown.mouseout"/>
                  </use>
                  <path fill="none" stroke="white" stroke-width="1.5" d="M0,-3.0v7 M-2.5,-0.5L0,-3.0L2.5,-0.5"/>
                </g>
                <g id="arrowLeft" xlink:href="#dirArrow" transform="rotate(270) translate(-36 17)" onmousedown="handlePan(-1,0)">
                  <use xlink:href="#rim" fill="#404040">
                        <set attributeName="fill" to="#808080" begin="arrowLeft.mouseover" end="arrowLeft.mouseout"/>
                  </use>
                  <path fill="none" stroke="white" stroke-width="1.5" d="M0,-3.0v7 M-2.5,-0.5L0,-3.0L2.5,-0.5"/>
                </g>
        </g>
        <svg viewBox="0 0 15 15" width="100%" height="30px" preserveAspectRatio="xMaxYMin meet">
         <g id="arrow_out" transform="scale(0.3 0.3)">
          <a xlink:href="classrc_visual_function_a4379ad1befee1b2649a47ec20ef92c91_icgraph_org.svg" target="_base">
           <rect id="button" ry="5" rx="5" y="6" x="6" height="38" width="38"
                fill="#f2f5e9" fill-opacity="0.5" stroke="#606060" stroke-width="1.0"/>
           <path id="arrow"
             d="M 11.500037,31.436501 C 11.940474,20.09759 22.043105,11.32322 32.158766,21.979434 L 37.068811,17.246167 C 37.068811,17.246167 37.088388,32 37.088388,32 L 22.160133,31.978069 C 22.160133,31.978069 26.997745,27.140456 26.997745,27.140456 C 18.528582,18.264221 13.291696,25.230495 11.500037,31.436501 z"
             style="fill:#404040;"/>
          </a>
         </g>
        </svg>
</svg>
