<?xml version="1.0" encoding="UTF-8" standalone="no"?>
<!DOCTYPE svg PUBLIC "-//W3C//DTD SVG 1.1//EN"
 "http://www.w3.org/Graphics/SVG/1.1/DTD/svg11.dtd">
<!-- Generated by graphviz version 2.32.0 (20130916.1925)
 -->
<!-- Title: ibuff::error_string Pages: 1 -->
<!--zoomable 86 -->
<svg id="main" version="1.1" xmlns="http://www.w3.org/2000/svg" xmlns:xlink="http://www.w3.org/1999/xlink" xml:space="preserve" onload="init(evt)">
        <defs>
                <circle id="rim" cx="0" cy="0" r="7"/>
                <circle id="rim2" cx="0" cy="0" r="3.5"/>
                <g id="zoomPlus">
                        <use xlink:href="#rim" fill="#404040">
                                <set attributeName="fill" to="#808080" begin="zoomplus.mouseover" end="zoomplus.mouseout"/>
                        </use>
                        <path d="M-4,0h8M0,-4v8" fill="none" stroke="white" stroke-width="1.5" pointer-events="none"/>
                </g>
                <g id="zoomMin">
                        <use xlink:href="#rim" fill="#404040">
                                <set attributeName="fill" to="#808080" begin="zoomminus.mouseover" end="zoomminus.mouseout"/>
                        </use>
                        <path d="M-4,0h8" fill="none" stroke="white" stroke-width="1.5" pointer-events="none"/>
                </g>
                <g id="dirArrow">
                        <path fill="none" stroke="white" stroke-width="1.5" d="M0,-3.0v7 M-2.5,-0.5L0,-3.0L2.5,-0.5"/>
                </g>
               <g id="resetDef">
                       <use xlink:href="#rim2" fill="#404040">
                               <set attributeName="fill" to="#808080" begin="reset.mouseover" end="reset.mouseout"/>
                       </use>
               </g>
        </defs>

<script type="text/javascript">
var viewWidth = 538;
var viewHeight = 86;
var sectionId = 'dynsection-6';
</script>
<script xlink:href="svgpan.js"/>
<svg id="graph" class="graph">
<g id="viewport">
<title>ibuff::error_string</title>
<polygon fill="white" stroke="white" points="-4,5 -4,-82 535,-82 535,5 -4,5"/>
<!-- Node1 -->
<g id="node1" class="node"><title>Node1</title>
<polygon fill="#bfbfbf" stroke="black" points="0.294922,-38 0.294922,-58 91.7051,-58 91.7051,-38 0.294922,-38"/>
<text text-anchor="middle" x="46" y="-44" font-family="Helvetica,sans-Serif" font-size="10.00">ibuff::error_string</text>
</g>
<!-- Node2 -->
<g id="node2" class="node"><title>Node2</title>
<g id="a_node2"><a xlink:href="classifbuff.html#aae2824eab8639926d8dfe83fa67b9fa1" target="_top" xlink:title="ifbuff::error_string">
<polygon fill="white" stroke="black" points="127.906,-58 127.906,-78 222.094,-78 222.094,-58 127.906,-58"/>
<text text-anchor="middle" x="175" y="-64" font-family="Helvetica,sans-Serif" font-size="10.00">ifbuff::error_string</text>
</a>
</g>
</g>
<!-- Node1&#45;&gt;Node2 -->
<g id="edge1" class="edge"><title>Node1&#45;&gt;Node2</title>
<path fill="none" stroke="midnightblue" d="M101.714,-56.6164C110.299,-57.9684 119.103,-59.3547 127.48,-60.6741"/>
<polygon fill="midnightblue" stroke="midnightblue" points="102.198,-53.1496 91.7754,-55.0513 101.109,-60.0644 102.198,-53.1496"/>
</g>
<!-- Node3 -->
<g id="node3" class="node"><title>Node3</title>
<g id="a_node3"><a xlink:href="classitext.html#aa195288e63717cdd02e170ed60868c1e" target="_top" xlink:title="itext::error_string">
<polygon fill="white" stroke="black" points="129.488,-19 129.488,-39 220.512,-39 220.512,-19 129.488,-19"/>
<text text-anchor="middle" x="175" y="-25" font-family="Helvetica,sans-Serif" font-size="10.00">itext::error_string</text>
</a>
</g>
</g>
<!-- Node1&#45;&gt;Node3 -->
<g id="edge2" class="edge"><title>Node1&#45;&gt;Node3</title>
<path fill="none" stroke="midnightblue" d="M101.918,-39.7839C111.029,-38.4209 120.379,-37.022 129.201,-35.7022"/>
<polygon fill="midnightblue" stroke="midnightblue" points="101.147,-36.3602 91.7754,-41.3013 102.183,-43.2831 101.147,-36.3602"/>
</g>
<!-- Node4 -->
<g id="node4" class="node"><title>Node4</title>
<g id="a_node4"><a xlink:href="classlm__unit.html#af80fd74c3f44000e569536ab7ccf8e3d" target="_top" xlink:title="lm_unit::read">
<polygon fill="white" stroke="black" points="287.096,-39 287.096,-59 360.904,-59 360.904,-39 287.096,-39"/>
<text text-anchor="middle" x="324" y="-45" font-family="Helvetica,sans-Serif" font-size="10.00">lm_unit::read</text>
</a>
</g>
</g>
<!-- Node3&#45;&gt;Node4 -->
<g id="edge3" class="edge"><title>Node3&#45;&gt;Node4</title>
<path fill="none" stroke="midnightblue" d="M231.038,-36.4882C249.653,-39.0208 269.956,-41.7832 286.74,-44.0666"/>
<polygon fill="midnightblue" stroke="midnightblue" points="231.284,-32.9895 220.904,-35.1093 230.34,-39.9256 231.284,-32.9895"/>
</g>
<!-- Node6 -->
<g id="node6" class="node"><title>Node6</title>
<g id="a_node6"><a xlink:href="classrestore__context__body.html#acdcc751c5066513b19961cce1a02b3ca" target="_top" xlink:title="restore_context_body::get">
<polygon fill="white" stroke="black" points="258.185,-0 258.185,-20 389.815,-20 389.815,-0 258.185,-0"/>
<text text-anchor="middle" x="324" y="-6" font-family="Helvetica,sans-Serif" font-size="10.00">restore_context_body::get</text>
</a>
</g>
</g>
<!-- Node3&#45;&gt;Node6 -->
<g id="edge5" class="edge"><title>Node3&#45;&gt;Node6</title>
<path fill="none" stroke="midnightblue" d="M231.046,-21.8852C239.863,-20.7456 249.058,-19.5571 258.079,-18.3911"/>
<polygon fill="midnightblue" stroke="midnightblue" points="230.372,-18.4431 220.904,-23.1961 231.27,-25.3853 230.372,-18.4431"/>
</g>
<!-- Node5 -->
<g id="node5" class="node"><title>Node5</title>
<g id="a_node5"><a xlink:href="classlm__unit.html#aaf906aef678a910a3d4aef087efb6d7b" target="_top" xlink:title="lm_unit::load">
<polygon fill="white" stroke="black" points="441.65,-39 441.65,-59 514.35,-59 514.35,-39 441.65,-39"/>
<text text-anchor="middle" x="478" y="-45" font-family="Helvetica,sans-Serif" font-size="10.00">lm_unit::load</text>
</a>
</g>
</g>
<!-- Node4&#45;&gt;Node5 -->
<g id="edge4" class="edge"><title>Node4&#45;&gt;Node5</title>
<path fill="none" stroke="midnightblue" d="M371.079,-49C393.69,-49 420.507,-49 441.499,-49"/>
<polygon fill="midnightblue" stroke="midnightblue" points="371.022,-45.5001 361.022,-49 371.022,-52.5001 371.022,-45.5001"/>
</g>
<!-- Node7 -->
<g id="node7" class="node"><title>Node7</title>
<g id="a_node7"><a xlink:href="classrestore__context.html#a483b31369171dac9534d562ad22b4af3" target="_top" xlink:title="restore_context::get">
<polygon fill="white" stroke="black" points="425.808,-0 425.808,-20 530.192,-20 530.192,-0 425.808,-0"/>
<text text-anchor="middle" x="478" y="-6" font-family="Helvetica,sans-Serif" font-size="10.00">restore_context::get</text>
</a>
</g>
</g>
<!-- Node6&#45;&gt;Node7 -->
<g id="edge6" class="edge"><title>Node6&#45;&gt;Node7</title>
<path fill="none" stroke="midnightblue" d="M400.04,-10C408.706,-10 417.388,-10 425.636,-10"/>
<polygon fill="midnightblue" stroke="midnightblue" points="399.903,-6.5001 389.903,-10 399.903,-13.5001 399.903,-6.5001"/>
</g>
</g>
</svg>
        <g id="navigator" transform="translate(0 0)" fill="#404254">
                <rect fill="#f2f5e9" fill-opacity="0.5" stroke="#606060" stroke-width=".5" x="0" y="0" width="60" height="60"/>
                <use id="zoomplus" xlink:href="#zoomPlus" x="17" y="9" onmousedown="handleZoom(evt,'in')"/>
                <use id="zoomminus" xlink:href="#zoomMin" x="42" y="9" onmousedown="handleZoom(evt,'out')"/>
                <use id="reset" xlink:href="#resetDef" x="30" y="36" onmousedown="handleReset()"/>
                <g id="arrowUp" xlink:href="#dirArrow" transform="translate(30 24)" onmousedown="handlePan(0,-1)">
                  <use xlink:href="#rim" fill="#404040">
                        <set attributeName="fill" to="#808080" begin="arrowUp.mouseover" end="arrowUp.mouseout"/>
                  </use>
                  <path fill="none" stroke="white" stroke-width="1.5" d="M0,-3.0v7 M-2.5,-0.5L0,-3.0L2.5,-0.5"/>
                </g>
                <g id="arrowRight" xlink:href="#dirArrow" transform="rotate(90) translate(36 -43)" onmousedown="handlePan(1,0)">
                  <use xlink:href="#rim" fill="#404040">
                        <set attributeName="fill" to="#808080" begin="arrowRight.mouseover" end="arrowRight.mouseout"/>
                  </use>
                  <path fill="none" stroke="white" stroke-width="1.5" d="M0,-3.0v7 M-2.5,-0.5L0,-3.0L2.5,-0.5"/>
                </g>
                <g id="arrowDown" xlink:href="#dirArrow" transform="rotate(180) translate(-30 -48)" onmousedown="handlePan(0,1)">
                  <use xlink:href="#rim" fill="#404040">
                        <set attributeName="fill" to="#808080" begin="arrowDown.mouseover" end="arrowDown.mouseout"/>
                  </use>
                  <path fill="none" stroke="white" stroke-width="1.5" d="M0,-3.0v7 M-2.5,-0.5L0,-3.0L2.5,-0.5"/>
                </g>
                <g id="arrowLeft" xlink:href="#dirArrow" transform="rotate(270) translate(-36 17)" onmousedown="handlePan(-1,0)">
                  <use xlink:href="#rim" fill="#404040">
                        <set attributeName="fill" to="#808080" begin="arrowLeft.mouseover" end="arrowLeft.mouseout"/>
                  </use>
                  <path fill="none" stroke="white" stroke-width="1.5" d="M0,-3.0v7 M-2.5,-0.5L0,-3.0L2.5,-0.5"/>
                </g>
        </g>
        <svg viewBox="0 0 15 15" width="100%" height="30px" preserveAspectRatio="xMaxYMin meet">
         <g id="arrow_out" transform="scale(0.3 0.3)">
          <a xlink:href="classibuff_a7a5e03ce7cdc068d13171a44f3e98c82_icgraph_org.svg" target="_base">
           <rect id="button" ry="5" rx="5" y="6" x="6" height="38" width="38"
                fill="#f2f5e9" fill-opacity="0.5" stroke="#606060" stroke-width="1.0"/>
           <path id="arrow"
             d="M 11.500037,31.436501 C 11.940474,20.09759 22.043105,11.32322 32.158766,21.979434 L 37.068811,17.246167 C 37.068811,17.246167 37.088388,32 37.088388,32 L 22.160133,31.978069 C 22.160133,31.978069 26.997745,27.140456 26.997745,27.140456 C 18.528582,18.264221 13.291696,25.230495 11.500037,31.436501 z"
             style="fill:#404040;"/>
          </a>
         </g>
        </svg>
</svg>
