<?xml version="1.0" encoding="UTF-8" standalone="no"?>
<!DOCTYPE svg PUBLIC "-//W3C//DTD SVG 1.1//EN"
 "http://www.w3.org/Graphics/SVG/1.1/DTD/svg11.dtd">
<!-- Generated by graphviz version 2.32.0 (20130916.1925)
 -->
<!-- Title: library_manager::library_name Pages: 1 -->
<!--zoomable 145 -->
<svg id="main" version="1.1" xmlns="http://www.w3.org/2000/svg" xmlns:xlink="http://www.w3.org/1999/xlink" xml:space="preserve" onload="init(evt)">
        <defs>
                <circle id="rim" cx="0" cy="0" r="7"/>
                <circle id="rim2" cx="0" cy="0" r="3.5"/>
                <g id="zoomPlus">
                        <use xlink:href="#rim" fill="#404040">
                                <set attributeName="fill" to="#808080" begin="zoomplus.mouseover" end="zoomplus.mouseout"/>
                        </use>
                        <path d="M-4,0h8M0,-4v8" fill="none" stroke="white" stroke-width="1.5" pointer-events="none"/>
                </g>
                <g id="zoomMin">
                        <use xlink:href="#rim" fill="#404040">
                                <set attributeName="fill" to="#808080" begin="zoomminus.mouseover" end="zoomminus.mouseout"/>
                        </use>
                        <path d="M-4,0h8" fill="none" stroke="white" stroke-width="1.5" pointer-events="none"/>
                </g>
                <g id="dirArrow">
                        <path fill="none" stroke="white" stroke-width="1.5" d="M0,-3.0v7 M-2.5,-0.5L0,-3.0L2.5,-0.5"/>
                </g>
               <g id="resetDef">
                       <use xlink:href="#rim2" fill="#404040">
                               <set attributeName="fill" to="#808080" begin="reset.mouseover" end="reset.mouseout"/>
                       </use>
               </g>
        </defs>

<script type="text/javascript">
var viewWidth = 912;
var viewHeight = 145;
var sectionId = 'dynsection-25';
</script>
<script xlink:href="svgpan.js"/>
<svg id="graph" class="graph">
<g id="viewport">
<title>library_manager::library_name</title>
<polygon fill="white" stroke="white" points="-4,5 -4,-141 909,-141 909,5 -4,5"/>
<!-- Node1 -->
<g id="node1" class="node"><title>Node1</title>
<polygon fill="#bfbfbf" stroke="black" points="0.192383,-78 0.192383,-98 151.808,-98 151.808,-78 0.192383,-78"/>
<text text-anchor="middle" x="76" y="-84" font-family="Helvetica,sans-Serif" font-size="10.00">library_manager::library_name</text>
</g>
<!-- Node2 -->
<g id="node2" class="node"><title>Node2</title>
<g id="a_node2"><a xlink:href="classlibrary__manager.html#a6e11b9f375b71c6870e51584d56efb06" target="_top" xlink:title="library_manager::library_name">
<polygon fill="white" stroke="black" points="188.192,-78 188.192,-98 339.808,-98 339.808,-78 188.192,-78"/>
<text text-anchor="middle" x="264" y="-84" font-family="Helvetica,sans-Serif" font-size="10.00">library_manager::library_name</text>
</a>
</g>
</g>
<!-- Node1&#45;&gt;Node2 -->
<g id="edge1" class="edge"><title>Node1&#45;&gt;Node2</title>
<path fill="none" stroke="midnightblue" d="M151.849,-88C160.411,-88 169.186,-88 177.869,-88"/>
<polygon fill="midnightblue" stroke="midnightblue" points="178.001,-91.5001 188.001,-88 178.001,-84.5001 178.001,-91.5001"/>
</g>
<!-- Node3 -->
<g id="node3" class="node"><title>Node3</title>
<g id="a_node3"><a xlink:href="classlibrary__manager.html#a8f8adf85212ff2dfe2eacce2de2b54e4" target="_top" xlink:title="library_manager::name">
<polygon fill="white" stroke="black" points="380.586,-117 380.586,-137 499.414,-137 499.414,-117 380.586,-117"/>
<text text-anchor="middle" x="440" y="-123" font-family="Helvetica,sans-Serif" font-size="10.00">library_manager::name</text>
</a>
</g>
</g>
<!-- Node2&#45;&gt;Node3 -->
<g id="edge2" class="edge"><title>Node2&#45;&gt;Node3</title>
<path fill="none" stroke="midnightblue" d="M309.809,-98.0435C332.541,-103.138 360.343,-109.37 384.324,-114.745"/>
<polygon fill="midnightblue" stroke="midnightblue" points="383.819,-118.219 394.343,-116.991 385.35,-111.388 383.819,-118.219"/>
</g>
<!-- Node6 -->
<g id="node6" class="node"><title>Node6</title>
<g id="a_node6"><a xlink:href="library__manager_8cpp.html#ad14f441aa467dd750083703692bdd6c7" target="_top" xlink:title="read_context">
<polygon fill="white" stroke="black" points="403.091,-39 403.091,-59 476.909,-59 476.909,-39 403.091,-39"/>
<text text-anchor="middle" x="440" y="-45" font-family="Helvetica,sans-Serif" font-size="10.00">read_context</text>
</a>
</g>
</g>
<!-- Node2&#45;&gt;Node6 -->
<g id="edge6" class="edge"><title>Node2&#45;&gt;Node6</title>
<path fill="none" stroke="midnightblue" d="M309.809,-77.9565C335.322,-72.2382 367.221,-65.0884 392.938,-59.3242"/>
<polygon fill="midnightblue" stroke="midnightblue" points="393.831,-62.711 402.823,-57.1086 392.3,-55.8805 393.831,-62.711"/>
</g>
<!-- Node13 -->
<g id="node13" class="node"><title>Node13</title>
<g id="a_node13"><a xlink:href="classlibrary__manager.html#aa4e18ba621e08321acea4b810b2a3ace" target="_top" xlink:title="library_manager::writable">
<polygon fill="white" stroke="black" points="375.865,-78 375.865,-98 504.135,-98 504.135,-78 375.865,-78"/>
<text text-anchor="middle" x="440" y="-84" font-family="Helvetica,sans-Serif" font-size="10.00">library_manager::writable</text>
</a>
</g>
</g>
<!-- Node2&#45;&gt;Node13 -->
<g id="edge14" class="edge"><title>Node2&#45;&gt;Node13</title>
<path fill="none" stroke="midnightblue" d="M340.054,-88C348.49,-88 357.078,-88 365.493,-88"/>
<polygon fill="midnightblue" stroke="midnightblue" points="365.651,-91.5001 375.651,-88 365.651,-84.5001 365.651,-91.5001"/>
</g>
<!-- Node4 -->
<g id="node4" class="node"><title>Node4</title>
<g id="a_node4"><a xlink:href="classlibrary__manager.html#a3e9b46768443b2a126ff2affda73ac53" target="_top" xlink:title="library_manager::local_find">
<polygon fill="white" stroke="black" points="539.968,-117 539.968,-137 676.032,-137 676.032,-117 539.968,-117"/>
<text text-anchor="middle" x="608" y="-123" font-family="Helvetica,sans-Serif" font-size="10.00">library_manager::local_find</text>
</a>
</g>
</g>
<!-- Node3&#45;&gt;Node4 -->
<g id="edge3" class="edge"><title>Node3&#45;&gt;Node4</title>
<path fill="none" stroke="midnightblue" d="M499.525,-120.518C509.327,-120.297 519.628,-120.213 529.812,-120.265"/>
<polygon fill="midnightblue" stroke="midnightblue" points="529.901,-123.766 539.934,-120.362 529.968,-116.766 529.901,-123.766"/>
</g>
<!-- Node4&#45;&gt;Node3 -->
<g id="edge4" class="edge"><title>Node4&#45;&gt;Node3</title>
<path fill="none" stroke="midnightblue" d="M539.934,-133.638C530.001,-133.779 519.752,-133.787 509.785,-133.661"/>
<polygon fill="midnightblue" stroke="midnightblue" points="509.585,-130.157 499.525,-133.482 509.463,-137.156 509.585,-130.157"/>
</g>
<!-- Node5 -->
<g id="node5" class="node"><title>Node5</title>
<g id="a_node5"><a xlink:href="string__utilities_8cpp.html#a981da2fc3da4b4974d8acb6d0593ed6a" target="_top" xlink:title="lowercase">
<polygon fill="white" stroke="black" points="723.49,-117 723.49,-137 784.51,-137 784.51,-117 723.49,-117"/>
<text text-anchor="middle" x="754" y="-123" font-family="Helvetica,sans-Serif" font-size="10.00">lowercase</text>
</a>
</g>
</g>
<!-- Node4&#45;&gt;Node5 -->
<g id="edge5" class="edge"><title>Node4&#45;&gt;Node5</title>
<path fill="none" stroke="midnightblue" d="M676.362,-127C689.028,-127 701.886,-127 713.359,-127"/>
<polygon fill="midnightblue" stroke="midnightblue" points="713.462,-130.5 723.462,-127 713.462,-123.5 713.462,-130.5"/>
</g>
<!-- Node7 -->
<g id="node7" class="node"><title>Node7</title>
<g id="a_node7"><a xlink:href="file__system_8cpp.html#a62475ca973dfe0094c00d60286c7c286" target="_top" xlink:title="create_filespec">
<polygon fill="white" stroke="black" points="712.37,-78 712.37,-98 795.63,-98 795.63,-78 712.37,-78"/>
<text text-anchor="middle" x="754" y="-84" font-family="Helvetica,sans-Serif" font-size="10.00">create_filespec</text>
</a>
</g>
</g>
<!-- Node6&#45;&gt;Node7 -->
<g id="edge7" class="edge"><title>Node6&#45;&gt;Node7</title>
<path fill="none" stroke="midnightblue" d="M477.066,-56.7849C495.772,-60.6029 519.036,-65.0111 540,-68 595.146,-75.8623 658.783,-81.3768 702.035,-84.5958"/>
<polygon fill="midnightblue" stroke="midnightblue" points="701.801,-88.0879 712.029,-85.3258 702.311,-81.1065 701.801,-88.0879"/>
</g>
<!-- Node9 -->
<g id="node9" class="node"><title>Node9</title>
<g id="a_node9"><a xlink:href="file__system_8cpp.html#a70caa80e7bc53b5f40266a0a985f5e09" target="_top" xlink:title="file_exists">
<polygon fill="white" stroke="black" points="578.047,-39 578.047,-59 637.953,-59 637.953,-39 578.047,-39"/>
<text text-anchor="middle" x="608" y="-45" font-family="Helvetica,sans-Serif" font-size="10.00">file_exists</text>
</a>
</g>
</g>
<!-- Node6&#45;&gt;Node9 -->
<g id="edge9" class="edge"><title>Node6&#45;&gt;Node9</title>
<path fill="none" stroke="midnightblue" d="M477.02,-49C503.823,-49 540.373,-49 567.889,-49"/>
<polygon fill="midnightblue" stroke="midnightblue" points="567.953,-52.5001 577.953,-49 567.953,-45.5001 567.953,-52.5001"/>
</g>
<!-- Node11 -->
<g id="node11" class="node"><title>Node11</title>
<g id="a_node11"><a xlink:href="visimatch_8cpp.html#ae8a6e4899fbd06cc223556ccef67b64e" target="_top" xlink:title="restore">
<polygon fill="white" stroke="black" points="584.438,-0 584.438,-20 631.562,-20 631.562,-0 584.438,-0"/>
<text text-anchor="middle" x="608" y="-6" font-family="Helvetica,sans-Serif" font-size="10.00">restore</text>
</a>
</g>
</g>
<!-- Node6&#45;&gt;Node11 -->
<g id="edge12" class="edge"><title>Node6&#45;&gt;Node11</title>
<path fill="none" stroke="midnightblue" d="M477.02,-40.5376C505.937,-33.7438 546.198,-24.2847 574.221,-17.7011"/>
<polygon fill="midnightblue" stroke="midnightblue" points="575.378,-21.0246 584.313,-15.3302 573.777,-14.2102 575.378,-21.0246"/>
</g>
<!-- Node8 -->
<g id="node8" class="node"><title>Node8</title>
<g id="a_node8"><a xlink:href="file__system_8cpp.html#a99e06c76afffe1f1d77f01c905b1a5fd" target="_top" xlink:title="is_separator">
<polygon fill="white" stroke="black" points="832.485,-58 832.485,-78 903.515,-78 903.515,-58 832.485,-58"/>
<text text-anchor="middle" x="868" y="-64" font-family="Helvetica,sans-Serif" font-size="10.00">is_separator</text>
</a>
</g>
</g>
<!-- Node7&#45;&gt;Node8 -->
<g id="edge8" class="edge"><title>Node7&#45;&gt;Node8</title>
<path fill="none" stroke="midnightblue" d="M795.751,-80.723C804.383,-79.1817 813.537,-77.5469 822.306,-75.9811"/>
<polygon fill="midnightblue" stroke="midnightblue" points="823.139,-79.3878 832.368,-74.1843 821.908,-72.4968 823.139,-79.3878"/>
</g>
<!-- Node10 -->
<g id="node10" class="node"><title>Node10</title>
<g id="a_node10"><a xlink:href="file__system_8cpp.html#a896521b0391b7bcdd8057eaec72fa0a1" target="_top" xlink:title="is_file">
<polygon fill="white" stroke="black" points="733.217,-39 733.217,-59 774.783,-59 774.783,-39 733.217,-39"/>
<text text-anchor="middle" x="754" y="-45" font-family="Helvetica,sans-Serif" font-size="10.00">is_file</text>
</a>
</g>
</g>
<!-- Node9&#45;&gt;Node10 -->
<g id="edge10" class="edge"><title>Node9&#45;&gt;Node10</title>
<path fill="none" stroke="midnightblue" d="M638.141,-49C662.767,-49 697.911,-49 722.826,-49"/>
<polygon fill="midnightblue" stroke="midnightblue" points="723.148,-52.5001 733.147,-49 723.147,-45.5001 723.148,-52.5001"/>
</g>
<!-- Node10&#45;&gt;Node8 -->
<g id="edge11" class="edge"><title>Node10&#45;&gt;Node8</title>
<path fill="none" stroke="midnightblue" d="M775.023,-52.3968C788.154,-54.6243 805.861,-57.6282 822.232,-60.4055"/>
<polygon fill="midnightblue" stroke="midnightblue" points="821.756,-63.8746 832.2,-62.0965 822.927,-56.9732 821.756,-63.8746"/>
</g>
<!-- Node12 -->
<g id="node12" class="node"><title>Node12</title>
<g id="a_node12"><a xlink:href="persistent_8hpp.html#aeeb01b2ea31ac58564b5f56b4545f406" target="_top" xlink:title="restore_deque">
<polygon fill="white" stroke="black" points="713.754,-0 713.754,-20 794.246,-20 794.246,-0 713.754,-0"/>
<text text-anchor="middle" x="754" y="-6" font-family="Helvetica,sans-Serif" font-size="10.00">restore_deque</text>
</a>
</g>
</g>
<!-- Node11&#45;&gt;Node12 -->
<g id="edge13" class="edge"><title>Node11&#45;&gt;Node12</title>
<path fill="none" stroke="midnightblue" d="M631.817,-10C651.039,-10 679.218,-10 703.567,-10"/>
<polygon fill="midnightblue" stroke="midnightblue" points="703.731,-13.5001 713.731,-10 703.731,-6.5001 703.731,-13.5001"/>
</g>
<!-- Node13&#45;&gt;Node4 -->
<g id="edge15" class="edge"><title>Node13&#45;&gt;Node4</title>
<path fill="none" stroke="midnightblue" d="M483.749,-98.0435C505.339,-103.116 531.722,-109.314 554.532,-114.673"/>
<polygon fill="midnightblue" stroke="midnightblue" points="553.86,-118.111 564.396,-116.991 555.461,-111.296 553.86,-118.111"/>
</g>
</g>
</svg>
        <g id="navigator" transform="translate(0 0)" fill="#404254">
                <rect fill="#f2f5e9" fill-opacity="0.5" stroke="#606060" stroke-width=".5" x="0" y="0" width="60" height="60"/>
                <use id="zoomplus" xlink:href="#zoomPlus" x="17" y="9" onmousedown="handleZoom(evt,'in')"/>
                <use id="zoomminus" xlink:href="#zoomMin" x="42" y="9" onmousedown="handleZoom(evt,'out')"/>
                <use id="reset" xlink:href="#resetDef" x="30" y="36" onmousedown="handleReset()"/>
                <g id="arrowUp" xlink:href="#dirArrow" transform="translate(30 24)" onmousedown="handlePan(0,-1)">
                  <use xlink:href="#rim" fill="#404040">
                        <set attributeName="fill" to="#808080" begin="arrowUp.mouseover" end="arrowUp.mouseout"/>
                  </use>
                  <path fill="none" stroke="white" stroke-width="1.5" d="M0,-3.0v7 M-2.5,-0.5L0,-3.0L2.5,-0.5"/>
                </g>
                <g id="arrowRight" xlink:href="#dirArrow" transform="rotate(90) translate(36 -43)" onmousedown="handlePan(1,0)">
                  <use xlink:href="#rim" fill="#404040">
                        <set attributeName="fill" to="#808080" begin="arrowRight.mouseover" end="arrowRight.mouseout"/>
                  </use>
                  <path fill="none" stroke="white" stroke-width="1.5" d="M0,-3.0v7 M-2.5,-0.5L0,-3.0L2.5,-0.5"/>
                </g>
                <g id="arrowDown" xlink:href="#dirArrow" transform="rotate(180) translate(-30 -48)" onmousedown="handlePan(0,1)">
                  <use xlink:href="#rim" fill="#404040">
                        <set attributeName="fill" to="#808080" begin="arrowDown.mouseover" end="arrowDown.mouseout"/>
                  </use>
                  <path fill="none" stroke="white" stroke-width="1.5" d="M0,-3.0v7 M-2.5,-0.5L0,-3.0L2.5,-0.5"/>
                </g>
                <g id="arrowLeft" xlink:href="#dirArrow" transform="rotate(270) translate(-36 17)" onmousedown="handlePan(-1,0)">
                  <use xlink:href="#rim" fill="#404040">
                        <set attributeName="fill" to="#808080" begin="arrowLeft.mouseover" end="arrowLeft.mouseout"/>
                  </use>
                  <path fill="none" stroke="white" stroke-width="1.5" d="M0,-3.0v7 M-2.5,-0.5L0,-3.0L2.5,-0.5"/>
                </g>
        </g>
        <svg viewBox="0 0 15 15" width="100%" height="30px" preserveAspectRatio="xMaxYMin meet">
         <g id="arrow_out" transform="scale(0.3 0.3)">
          <a xlink:href="classlibrary__manager_a3ff7ef37b1870a21f46319a09faed197_cgraph_org.svg" target="_base">
           <rect id="button" ry="5" rx="5" y="6" x="6" height="38" width="38"
                fill="#f2f5e9" fill-opacity="0.5" stroke="#606060" stroke-width="1.0"/>
           <path id="arrow"
             d="M 11.500037,31.436501 C 11.940474,20.09759 22.043105,11.32322 32.158766,21.979434 L 37.068811,17.246167 C 37.068811,17.246167 37.088388,32 37.088388,32 L 22.160133,31.978069 C 22.160133,31.978069 26.997745,27.140456 26.997745,27.140456 C 18.528582,18.264221 13.291696,25.230495 11.500037,31.436501 z"
             style="fill:#404040;"/>
          </a>
         </g>
        </svg>
</svg>
