<?xml version="1.0" encoding="UTF-8" standalone="no"?>
<!DOCTYPE svg PUBLIC "-//W3C//DTD SVG 1.1//EN"
 "http://www.w3.org/Graphics/SVG/1.1/DTD/svg11.dtd">
<!-- Generated by graphviz version 2.32.0 (20130916.1925)
 -->
<!-- Title: rcTextEdit::rcTextEdit Pages: 1 -->
<svg width="470pt" height="28pt"
 viewBox="0.00 0.00 470.00 28.00" xmlns="http://www.w3.org/2000/svg" xmlns:xlink="http://www.w3.org/1999/xlink">
<g id="graph0" class="graph" transform="scale(1 1) rotate(0) translate(4 24)">
<title>rcTextEdit::rcTextEdit</title>
<polygon fill="white" stroke="white" points="-4,5 -4,-24 467,-24 467,5 -4,5"/>
<!-- Node1 -->
<g id="node1" class="node"><title>Node1</title>
<polygon fill="#bfbfbf" stroke="black" points="0.320312,-0 0.320312,-20 109.68,-20 109.68,-0 0.320312,-0"/>
<text text-anchor="middle" x="55" y="-6" font-family="Helvetica,sans-Serif" font-size="10.00">rcTextEdit::rcTextEdit</text>
</g>
<!-- Node2 -->
<g id="node2" class="node"><title>Node2</title>
<g id="a_node2"><a xlink:href="classrc_text_edit.html#a637f72a2c1875777d5a6d80b1f5a94de" target="_top" xlink:title="rcTextEdit::relayTextCommited">
<polygon fill="white" stroke="black" points="146.48,-0 146.48,-20 297.52,-20 297.52,-0 146.48,-0"/>
<text text-anchor="middle" x="222" y="-6" font-family="Helvetica,sans-Serif" font-size="10.00">rcTextEdit::relayTextCommited</text>
</a>
</g>
</g>
<!-- Node1&#45;&gt;Node2 -->
<g id="edge1" class="edge"><title>Node1&#45;&gt;Node2</title>
<path fill="none" stroke="midnightblue" d="M110.027,-10C118.495,-10 127.418,-10 136.376,-10"/>
<polygon fill="midnightblue" stroke="midnightblue" points="136.48,-13.5001 146.48,-10 136.48,-6.5001 136.48,-13.5001"/>
</g>
<!-- Node3 -->
<g id="node3" class="node"><title>Node3</title>
<g id="a_node3"><a xlink:href="classrc_text_edit.html#a84718002a17afc2a2e0e5c0e5b455eb3" target="_top" xlink:title="rcTextEdit::textCommited">
<polygon fill="white" stroke="black" points="334.429,-0 334.429,-20 461.571,-20 461.571,-0 334.429,-0"/>
<text text-anchor="middle" x="398" y="-6" font-family="Helvetica,sans-Serif" font-size="10.00">rcTextEdit::textCommited</text>
</a>
</g>
</g>
<!-- Node2&#45;&gt;Node3 -->
<g id="edge2" class="edge"><title>Node2&#45;&gt;Node3</title>
<path fill="none" stroke="midnightblue" d="M297.549,-10C306.366,-10 315.358,-10 324.152,-10"/>
<polygon fill="midnightblue" stroke="midnightblue" points="324.361,-13.5001 334.361,-10 324.361,-6.5001 324.361,-13.5001"/>
</g>
</g>
</svg>
