<?xml version="1.0" encoding="UTF-8" standalone="no"?>
<!DOCTYPE svg PUBLIC "-//W3C//DTD SVG 1.1//EN"
 "http://www.w3.org/Graphics/SVG/1.1/DTD/svg11.dtd">
<!-- Generated by graphviz version 2.32.0 (20130916.1925)
 -->
<!-- Title: rcVideoCache::camLoad Pages: 1 -->
<!--zoomable 285 -->
<svg id="main" version="1.1" xmlns="http://www.w3.org/2000/svg" xmlns:xlink="http://www.w3.org/1999/xlink" xml:space="preserve" onload="init(evt)">
        <defs>
                <circle id="rim" cx="0" cy="0" r="7"/>
                <circle id="rim2" cx="0" cy="0" r="3.5"/>
                <g id="zoomPlus">
                        <use xlink:href="#rim" fill="#404040">
                                <set attributeName="fill" to="#808080" begin="zoomplus.mouseover" end="zoomplus.mouseout"/>
                        </use>
                        <path d="M-4,0h8M0,-4v8" fill="none" stroke="white" stroke-width="1.5" pointer-events="none"/>
                </g>
                <g id="zoomMin">
                        <use xlink:href="#rim" fill="#404040">
                                <set attributeName="fill" to="#808080" begin="zoomminus.mouseover" end="zoomminus.mouseout"/>
                        </use>
                        <path d="M-4,0h8" fill="none" stroke="white" stroke-width="1.5" pointer-events="none"/>
                </g>
                <g id="dirArrow">
                        <path fill="none" stroke="white" stroke-width="1.5" d="M0,-3.0v7 M-2.5,-0.5L0,-3.0L2.5,-0.5"/>
                </g>
               <g id="resetDef">
                       <use xlink:href="#rim2" fill="#404040">
                               <set attributeName="fill" to="#808080" begin="reset.mouseover" end="reset.mouseout"/>
                       </use>
               </g>
        </defs>

<script type="text/javascript">
var viewWidth = 1118;
var viewHeight = 285;
var sectionId = 'dynsection-21';
</script>
<script xlink:href="svgpan.js"/>
<svg id="graph" class="graph">
<g id="viewport">
<title>rcVideoCache::camLoad</title>
<polygon fill="white" stroke="white" points="-4,5 -4,-281 1115,-281 1115,5 -4,5"/>
<!-- Node1 -->
<g id="node1" class="node"><title>Node1</title>
<polygon fill="#bfbfbf" stroke="black" points="0.334473,-93 0.334473,-113 125.666,-113 125.666,-93 0.334473,-93"/>
<text text-anchor="middle" x="63" y="-99" font-family="Helvetica,sans-Serif" font-size="10.00">rcVideoCache::camLoad</text>
</g>
<!-- Node2 -->
<g id="node2" class="node"><title>Node2</title>
<g id="a_node2"><a xlink:href="classrc_video_cache.html#a769435c5f70d7eb21dee4c4bab61b72a" target="_top" xlink:title="rcVideoCache::headerLoadRev2">
<polygon fill="white" stroke="black" points="162.539,-93 162.539,-113 323.461,-113 323.461,-93 162.539,-93"/>
<text text-anchor="middle" x="243" y="-99" font-family="Helvetica,sans-Serif" font-size="10.00">rcVideoCache::headerLoadRev2</text>
</a>
</g>
</g>
<!-- Node1&#45;&gt;Node2 -->
<g id="edge1" class="edge"><title>Node1&#45;&gt;Node2</title>
<path fill="none" stroke="midnightblue" d="M135.901,-103C144.651,-103 153.63,-103 162.483,-103"/>
<polygon fill="midnightblue" stroke="midnightblue" points="135.756,-99.5001 125.756,-103 135.756,-106.5 135.756,-99.5001"/>
</g>
<!-- Node3 -->
<g id="node3" class="node"><title>Node3</title>
<g id="a_node3"><a xlink:href="classrc_video_cache.html#a6bda52136b3558bb73ddb4c9ff3c302d" target="_top" xlink:title="rcVideoCache::rcVideoCache">
<polygon fill="white" stroke="black" points="360.585,-93 360.585,-113 507.415,-113 507.415,-93 360.585,-93"/>
<text text-anchor="middle" x="434" y="-99" font-family="Helvetica,sans-Serif" font-size="10.00">rcVideoCache::rcVideoCache</text>
</a>
</g>
</g>
<!-- Node2&#45;&gt;Node3 -->
<g id="edge2" class="edge"><title>Node2&#45;&gt;Node3</title>
<path fill="none" stroke="midnightblue" d="M333.678,-103C342.636,-103 351.653,-103 360.404,-103"/>
<polygon fill="midnightblue" stroke="midnightblue" points="333.605,-99.5001 323.605,-103 333.605,-106.5 333.605,-99.5001"/>
</g>
<!-- Node4 -->
<g id="node4" class="node"><title>Node4</title>
<g id="a_node4"><a xlink:href="classrc_video_cache.html#acd275c05db2e1ab17a378817d410d058" target="_top" xlink:title="rcVideoCache::rcVideoCacheCtor">
<polygon fill="white" stroke="black" points="544.139,-116 544.139,-136 709.861,-136 709.861,-116 544.139,-116"/>
<text text-anchor="middle" x="627" y="-122" font-family="Helvetica,sans-Serif" font-size="10.00">rcVideoCache::rcVideoCacheCtor</text>
</a>
</g>
</g>
<!-- Node3&#45;&gt;Node4 -->
<g id="edge3" class="edge"><title>Node3&#45;&gt;Node4</title>
<path fill="none" stroke="midnightblue" d="M517.646,-112.952C526.377,-114.004 535.255,-115.073 543.979,-116.123"/>
<polygon fill="midnightblue" stroke="midnightblue" points="517.828,-109.449 507.481,-111.728 516.991,-116.399 517.828,-109.449"/>
</g>
<!-- Node17 -->
<g id="node17" class="node"><title>Node17</title>
<g id="a_node17"><a xlink:href="classrc_video_cache.html#a985702ceb8af5f143e6648d2fb0cecd7" target="_top" xlink:title="rcVideoCache::rcVideoCache\lUTCtor">
<polygon fill="white" stroke="black" points="553.585,-65 553.585,-97 700.415,-97 700.415,-65 553.585,-65"/>
<text text-anchor="start" x="561.585" y="-83" font-family="Helvetica,sans-Serif" font-size="10.00">rcVideoCache::rcVideoCache</text>
<text text-anchor="middle" x="627" y="-71" font-family="Helvetica,sans-Serif" font-size="10.00">UTCtor</text>
</a>
</g>
</g>
<!-- Node3&#45;&gt;Node17 -->
<g id="edge21" class="edge"><title>Node3&#45;&gt;Node17</title>
<path fill="none" stroke="midnightblue" d="M517.485,-93.4991C529.492,-92.1161 541.78,-90.7008 553.568,-89.3429"/>
<polygon fill="midnightblue" stroke="midnightblue" points="517.015,-90.03 507.481,-94.6514 517.816,-96.984 517.015,-90.03"/>
</g>
<!-- Node5 -->
<g id="node5" class="node"><title>Node5</title>
<g id="a_node5"><a xlink:href="batch__main_8cpp.html#a3c04138a5bfe5d72780bb7e82a18e627" target="_top" xlink:title="main">
<polygon fill="white" stroke="black" points="790.163,-257 790.163,-277 827.837,-277 827.837,-257 790.163,-257"/>
<text text-anchor="middle" x="809" y="-263" font-family="Helvetica,sans-Serif" font-size="10.00">main</text>
</a>
</g>
</g>
<!-- Node4&#45;&gt;Node5 -->
<g id="edge4" class="edge"><title>Node4&#45;&gt;Node5</title>
<path fill="none" stroke="midnightblue" d="M641.222,-144.39C661.099,-170.762 701.161,-219.2 746,-247 759.554,-255.403 776.985,-260.617 789.912,-263.605"/>
<polygon fill="midnightblue" stroke="midnightblue" points="643.817,-142.013 635.058,-136.052 638.188,-146.174 643.817,-142.013"/>
</g>
<!-- Node6 -->
<g id="node6" class="node"><title>Node6</title>
<g id="a_node6"><a xlink:href="bcnvrt__main_8cpp.html#a6e8fab40e4cd89f05d7bafbc7c22dedc" target="_top" xlink:title="rfCompareMovies">
<polygon fill="white" stroke="black" points="924.544,-116 924.544,-136 1019.46,-136 1019.46,-116 924.544,-116"/>
<text text-anchor="middle" x="972" y="-122" font-family="Helvetica,sans-Serif" font-size="10.00">rfCompareMovies</text>
</a>
</g>
</g>
<!-- Node4&#45;&gt;Node6 -->
<g id="edge5" class="edge"><title>Node4&#45;&gt;Node6</title>
<path fill="none" stroke="midnightblue" d="M720.549,-126C786.415,-126 872.155,-126 924.309,-126"/>
<polygon fill="midnightblue" stroke="midnightblue" points="720.157,-122.5 710.157,-126 720.157,-129.5 720.157,-122.5"/>
</g>
<!-- Node8 -->
<g id="node8" class="node"><title>Node8</title>
<g id="a_node8"><a xlink:href="bcnvrt__main_8cpp.html#a00a4dac924291e9ba2f484741e4abc19" target="_top" xlink:title="rfCompareReifyMovies">
<polygon fill="white" stroke="black" points="913.153,-77 913.153,-97 1030.85,-97 1030.85,-77 913.153,-77"/>
<text text-anchor="middle" x="972" y="-83" font-family="Helvetica,sans-Serif" font-size="10.00">rfCompareReifyMovies</text>
</a>
</g>
</g>
<!-- Node4&#45;&gt;Node8 -->
<g id="edge7" class="edge"><title>Node4&#45;&gt;Node8</title>
<path fill="none" stroke="midnightblue" d="M720.242,-115.512C781.636,-108.531 860.402,-99.5753 913.124,-93.5807"/>
<polygon fill="midnightblue" stroke="midnightblue" points="719.698,-112.051 710.157,-116.659 720.488,-119.006 719.698,-112.051"/>
</g>
<!-- Node9 -->
<g id="node9" class="node"><title>Node9</title>
<g id="a_node9"><a xlink:href="classrc_engine_impl.html#ac0162da8fe4f677ad6f3d04a465d50f0" target="_top" xlink:title="rcEngineImpl::loadMovie">
<polygon fill="white" stroke="black" points="746.251,-39 746.251,-59 871.749,-59 871.749,-39 746.251,-39"/>
<text text-anchor="middle" x="809" y="-45" font-family="Helvetica,sans-Serif" font-size="10.00">rcEngineImpl::loadMovie</text>
</a>
</g>
</g>
<!-- Node4&#45;&gt;Node9 -->
<g id="edge9" class="edge"><title>Node4&#45;&gt;Node9</title>
<path fill="none" stroke="midnightblue" d="M694.601,-112.739C699.933,-110.785 705.133,-108.552 710,-106 728.959,-96.0588 727.806,-85.2798 746,-74 755.568,-68.0681 766.787,-63.0422 777.032,-59.0874"/>
<polygon fill="midnightblue" stroke="midnightblue" points="693.291,-109.486 684.905,-115.961 695.499,-116.128 693.291,-109.486"/>
</g>
<!-- Node10 -->
<g id="node10" class="node"><title>Node10</title>
<g id="a_node10"><a xlink:href="classrc_movie_converter_to_rfy.html#af3af0dd934f527a9c08669e49f7f2304" target="_top" xlink:title="rcMovieConverterToRfy\l::convert">
<polygon fill="white" stroke="black" points="748.764,-206 748.764,-238 869.236,-238 869.236,-206 748.764,-206"/>
<text text-anchor="start" x="756.764" y="-224" font-family="Helvetica,sans-Serif" font-size="10.00">rcMovieConverterToRfy</text>
<text text-anchor="middle" x="809" y="-212" font-family="Helvetica,sans-Serif" font-size="10.00">::convert</text>
</a>
</g>
</g>
<!-- Node4&#45;&gt;Node10 -->
<g id="edge10" class="edge"><title>Node4&#45;&gt;Node10</title>
<path fill="none" stroke="midnightblue" d="M652.242,-141.727C675.716,-156.629 712.565,-179.174 746,-196 752.777,-199.411 760.11,-202.765 767.279,-205.873"/>
<polygon fill="midnightblue" stroke="midnightblue" points="653.951,-138.665 643.64,-136.227 650.18,-144.563 653.951,-138.665"/>
</g>
<!-- Node14 -->
<g id="node14" class="node"><title>Node14</title>
<g id="a_node14"><a xlink:href="classrc_movie_converter_to_q_t.html#a36c6fbe2132af1466f147840958563d3" target="_top" xlink:title="rcMovieConverterToQT\l::convert">
<polygon fill="white" stroke="black" points="749.32,-155 749.32,-187 868.68,-187 868.68,-155 749.32,-155"/>
<text text-anchor="start" x="757.32" y="-173" font-family="Helvetica,sans-Serif" font-size="10.00">rcMovieConverterToQT</text>
<text text-anchor="middle" x="809" y="-161" font-family="Helvetica,sans-Serif" font-size="10.00">::convert</text>
</a>
</g>
</g>
<!-- Node4&#45;&gt;Node14 -->
<g id="edge16" class="edge"><title>Node4&#45;&gt;Node14</title>
<path fill="none" stroke="midnightblue" d="M678.226,-138.557C700.289,-144.072 726.344,-150.586 749.297,-156.324"/>
<polygon fill="midnightblue" stroke="midnightblue" points="678.946,-135.129 668.396,-136.099 677.248,-141.92 678.946,-135.129"/>
</g>
<!-- Node15 -->
<g id="node15" class="node"><title>Node15</title>
<g id="a_node15"><a xlink:href="visimatch_8cpp.html#a82fefdf34801de8f8e9eb60b25fbd6b6" target="_top" xlink:title="genSignatureFromMov">
<polygon fill="white" stroke="black" points="750.143,-0 750.143,-20 867.857,-20 867.857,-0 750.143,-0"/>
<text text-anchor="middle" x="809" y="-6" font-family="Helvetica,sans-Serif" font-size="10.00">genSignatureFromMov</text>
</a>
</g>
</g>
<!-- Node4&#45;&gt;Node15 -->
<g id="edge19" class="edge"><title>Node4&#45;&gt;Node15</title>
<path fill="none" stroke="midnightblue" d="M702.299,-111.383C705.002,-109.767 707.584,-107.979 710,-106 739.224,-82.0597 717.484,-53.7795 746,-29 750.164,-25.3816 755.005,-22.4523 760.112,-20.0809"/>
<polygon fill="midnightblue" stroke="midnightblue" points="700.619,-108.311 693.304,-115.976 703.802,-114.545 700.619,-108.311"/>
</g>
<!-- Node7 -->
<g id="node7" class="node"><title>Node7</title>
<g id="a_node7"><a xlink:href="bcnvrt__main_8cpp.html#a3c04138a5bfe5d72780bb7e82a18e627" target="_top" xlink:title="main">
<polygon fill="white" stroke="black" points="1072.16,-161 1072.16,-181 1109.84,-181 1109.84,-161 1072.16,-161"/>
<text text-anchor="middle" x="1091" y="-167" font-family="Helvetica,sans-Serif" font-size="10.00">main</text>
</a>
</g>
</g>
<!-- Node6&#45;&gt;Node7 -->
<g id="edge6" class="edge"><title>Node6&#45;&gt;Node7</title>
<path fill="none" stroke="midnightblue" d="M1019.81,-139.227C1025.31,-141.043 1030.81,-142.982 1036,-145 1048.22,-149.751 1061.49,-156.124 1071.82,-161.371"/>
<polygon fill="midnightblue" stroke="midnightblue" points="1020.56,-135.794 1009.97,-136.1 1018.44,-142.465 1020.56,-135.794"/>
</g>
<!-- Node8&#45;&gt;Node7 -->
<g id="edge8" class="edge"><title>Node8&#45;&gt;Node7</title>
<path fill="none" stroke="midnightblue" d="M1027.4,-101.085C1030.4,-102.568 1033.29,-104.201 1036,-106 1057.77,-120.426 1075.37,-146.215 1084.08,-160.592"/>
<polygon fill="midnightblue" stroke="midnightblue" points="1028.75,-97.8535 1018.18,-97.0729 1025.95,-104.272 1028.75,-97.8535"/>
</g>
<!-- Node11 -->
<g id="node11" class="node"><title>Node11</title>
<g id="a_node11"><a xlink:href="classrc_experiment_impl.html#ac08b9d15f5bb7db0b85a6d67406f95fa" target="_top" xlink:title="rcExperimentImpl::export\lMovie">
<polygon fill="white" stroke="black" points="908.426,-155 908.426,-187 1035.57,-187 1035.57,-155 908.426,-155"/>
<text text-anchor="start" x="916.426" y="-173" font-family="Helvetica,sans-Serif" font-size="10.00">rcExperimentImpl::export</text>
<text text-anchor="middle" x="972" y="-161" font-family="Helvetica,sans-Serif" font-size="10.00">Movie</text>
</a>
</g>
</g>
<!-- Node10&#45;&gt;Node11 -->
<g id="edge11" class="edge"><title>Node10&#45;&gt;Node11</title>
<path fill="none" stroke="midnightblue" d="M870.926,-202.7C887.242,-197.532 904.699,-192.002 920.39,-187.032"/>
<polygon fill="midnightblue" stroke="midnightblue" points="869.418,-199.507 860.941,-205.863 871.532,-206.18 869.418,-199.507"/>
</g>
<!-- Node12 -->
<g id="node12" class="node"><title>Node12</title>
<g id="a_node12"><a xlink:href="bcnvrt__main_8cpp.html#accc22075ea7eb720aed5cad6e10344b9" target="_top" xlink:title="rfConvertMovie">
<polygon fill="white" stroke="black" points="930.101,-206 930.101,-226 1013.9,-226 1013.9,-206 930.101,-206"/>
<text text-anchor="middle" x="972" y="-212" font-family="Helvetica,sans-Serif" font-size="10.00">rfConvertMovie</text>
</a>
</g>
</g>
<!-- Node10&#45;&gt;Node12 -->
<g id="edge12" class="edge"><title>Node10&#45;&gt;Node12</title>
<path fill="none" stroke="midnightblue" d="M879.496,-219.41C896.659,-218.77 914.503,-218.105 929.826,-217.534"/>
<polygon fill="midnightblue" stroke="midnightblue" points="879.356,-215.913 869.493,-219.783 879.616,-222.908 879.356,-215.913"/>
</g>
<!-- Node13 -->
<g id="node13" class="node"><title>Node13</title>
<g id="a_node13"><a xlink:href="bcnvrt__main_8cpp.html#add0a6eef95e64e05a21758380072e136" target="_top" xlink:title="rfConvertTwoMovies">
<polygon fill="white" stroke="black" points="918.429,-245 918.429,-265 1025.57,-265 1025.57,-245 918.429,-245"/>
<text text-anchor="middle" x="972" y="-251" font-family="Helvetica,sans-Serif" font-size="10.00">rfConvertTwoMovies</text>
</a>
</g>
</g>
<!-- Node10&#45;&gt;Node13 -->
<g id="edge14" class="edge"><title>Node10&#45;&gt;Node13</title>
<path fill="none" stroke="midnightblue" d="M879.341,-236.213C893.711,-239.158 908.565,-242.203 922.023,-244.961"/>
<polygon fill="midnightblue" stroke="midnightblue" points="879.992,-232.774 869.493,-234.194 878.587,-239.631 879.992,-232.774"/>
</g>
<!-- Node12&#45;&gt;Node7 -->
<g id="edge13" class="edge"><title>Node12&#45;&gt;Node7</title>
<path fill="none" stroke="midnightblue" d="M1017.16,-202.762C1023.53,-200.628 1029.96,-198.345 1036,-196 1048.13,-191.287 1061.4,-185.157 1071.75,-180.147"/>
<polygon fill="midnightblue" stroke="midnightblue" points="1015.7,-199.556 1007.28,-205.982 1017.87,-206.212 1015.7,-199.556"/>
</g>
<!-- Node13&#45;&gt;Node7 -->
<g id="edge15" class="edge"><title>Node13&#45;&gt;Node7</title>
<path fill="none" stroke="midnightblue" d="M1025.5,-240.922C1029.17,-239.162 1032.71,-237.195 1036,-235 1057.52,-220.632 1075.22,-195.303 1084.01,-181.202"/>
<polygon fill="midnightblue" stroke="midnightblue" points="1024.01,-237.749 1016.18,-244.882 1026.75,-244.191 1024.01,-237.749"/>
</g>
<!-- Node14&#45;&gt;Node11 -->
<g id="edge17" class="edge"><title>Node14&#45;&gt;Node11</title>
<path fill="none" stroke="midnightblue" d="M879.329,-171C888.917,-171 898.72,-171 908.18,-171"/>
<polygon fill="midnightblue" stroke="midnightblue" points="879.036,-167.5 869.036,-171 879.036,-174.5 879.036,-167.5"/>
</g>
<!-- Node14&#45;&gt;Node12 -->
<g id="edge18" class="edge"><title>Node14&#45;&gt;Node12</title>
<path fill="none" stroke="midnightblue" d="M877.51,-189.869C897.149,-195.358 917.847,-201.144 934.762,-205.871"/>
<polygon fill="midnightblue" stroke="midnightblue" points="878.243,-186.44 867.67,-187.119 876.359,-193.182 878.243,-186.44"/>
</g>
<!-- Node16 -->
<g id="node16" class="node"><title>Node16</title>
<g id="a_node16"><a xlink:href="visimatch_8cpp.html#a3c04138a5bfe5d72780bb7e82a18e627" target="_top" xlink:title="main">
<polygon fill="white" stroke="black" points="953.163,-0 953.163,-20 990.837,-20 990.837,-0 953.163,-0"/>
<text text-anchor="middle" x="972" y="-6" font-family="Helvetica,sans-Serif" font-size="10.00">main</text>
</a>
</g>
</g>
<!-- Node15&#45;&gt;Node16 -->
<g id="edge20" class="edge"><title>Node15&#45;&gt;Node16</title>
<path fill="none" stroke="midnightblue" d="M878.433,-10C905.639,-10 934.726,-10 952.883,-10"/>
<polygon fill="midnightblue" stroke="midnightblue" points="878.125,-6.5001 868.125,-10 878.125,-13.5001 878.125,-6.5001"/>
</g>
</g>
</svg>
        <g id="navigator" transform="translate(0 0)" fill="#404254">
                <rect fill="#f2f5e9" fill-opacity="0.5" stroke="#606060" stroke-width=".5" x="0" y="0" width="60" height="60"/>
                <use id="zoomplus" xlink:href="#zoomPlus" x="17" y="9" onmousedown="handleZoom(evt,'in')"/>
                <use id="zoomminus" xlink:href="#zoomMin" x="42" y="9" onmousedown="handleZoom(evt,'out')"/>
                <use id="reset" xlink:href="#resetDef" x="30" y="36" onmousedown="handleReset()"/>
                <g id="arrowUp" xlink:href="#dirArrow" transform="translate(30 24)" onmousedown="handlePan(0,-1)">
                  <use xlink:href="#rim" fill="#404040">
                        <set attributeName="fill" to="#808080" begin="arrowUp.mouseover" end="arrowUp.mouseout"/>
                  </use>
                  <path fill="none" stroke="white" stroke-width="1.5" d="M0,-3.0v7 M-2.5,-0.5L0,-3.0L2.5,-0.5"/>
                </g>
                <g id="arrowRight" xlink:href="#dirArrow" transform="rotate(90) translate(36 -43)" onmousedown="handlePan(1,0)">
                  <use xlink:href="#rim" fill="#404040">
                        <set attributeName="fill" to="#808080" begin="arrowRight.mouseover" end="arrowRight.mouseout"/>
                  </use>
                  <path fill="none" stroke="white" stroke-width="1.5" d="M0,-3.0v7 M-2.5,-0.5L0,-3.0L2.5,-0.5"/>
                </g>
                <g id="arrowDown" xlink:href="#dirArrow" transform="rotate(180) translate(-30 -48)" onmousedown="handlePan(0,1)">
                  <use xlink:href="#rim" fill="#404040">
                        <set attributeName="fill" to="#808080" begin="arrowDown.mouseover" end="arrowDown.mouseout"/>
                  </use>
                  <path fill="none" stroke="white" stroke-width="1.5" d="M0,-3.0v7 M-2.5,-0.5L0,-3.0L2.5,-0.5"/>
                </g>
                <g id="arrowLeft" xlink:href="#dirArrow" transform="rotate(270) translate(-36 17)" onmousedown="handlePan(-1,0)">
                  <use xlink:href="#rim" fill="#404040">
                        <set attributeName="fill" to="#808080" begin="arrowLeft.mouseover" end="arrowLeft.mouseout"/>
                  </use>
                  <path fill="none" stroke="white" stroke-width="1.5" d="M0,-3.0v7 M-2.5,-0.5L0,-3.0L2.5,-0.5"/>
                </g>
        </g>
        <svg viewBox="0 0 15 15" width="100%" height="30px" preserveAspectRatio="xMaxYMin meet">
         <g id="arrow_out" transform="scale(0.3 0.3)">
          <a xlink:href="classrc_video_cache_a740ca7a9e79a349d4c5da43db57fe7a0_icgraph_org.svg" target="_base">
           <rect id="button" ry="5" rx="5" y="6" x="6" height="38" width="38"
                fill="#f2f5e9" fill-opacity="0.5" stroke="#606060" stroke-width="1.0"/>
           <path id="arrow"
             d="M 11.500037,31.436501 C 11.940474,20.09759 22.043105,11.32322 32.158766,21.979434 L 37.068811,17.246167 C 37.068811,17.246167 37.088388,32 37.088388,32 L 22.160133,31.978069 C 22.160133,31.978069 26.997745,27.140456 26.997745,27.140456 C 18.528582,18.264221 13.291696,25.230495 11.500037,31.436501 z"
             style="fill:#404040;"/>
          </a>
         </g>
        </svg>
</svg>
