<?xml version="1.0" encoding="UTF-8" standalone="no"?>
<!DOCTYPE svg PUBLIC "-//W3C//DTD SVG 1.1//EN"
 "http://www.w3.org/Graphics/SVG/1.1/DTD/svg11.dtd">
<!-- Generated by graphviz version 2.32.0 (20130916.1925)
 -->
<!-- Title: rcControlPanel::updateElapsedTime Pages: 1 -->
<!--zoomable 172 -->
<svg id="main" version="1.1" xmlns="http://www.w3.org/2000/svg" xmlns:xlink="http://www.w3.org/1999/xlink" xml:space="preserve" onload="init(evt)">
        <defs>
                <circle id="rim" cx="0" cy="0" r="7"/>
                <circle id="rim2" cx="0" cy="0" r="3.5"/>
                <g id="zoomPlus">
                        <use xlink:href="#rim" fill="#404040">
                                <set attributeName="fill" to="#808080" begin="zoomplus.mouseover" end="zoomplus.mouseout"/>
                        </use>
                        <path d="M-4,0h8M0,-4v8" fill="none" stroke="white" stroke-width="1.5" pointer-events="none"/>
                </g>
                <g id="zoomMin">
                        <use xlink:href="#rim" fill="#404040">
                                <set attributeName="fill" to="#808080" begin="zoomminus.mouseover" end="zoomminus.mouseout"/>
                        </use>
                        <path d="M-4,0h8" fill="none" stroke="white" stroke-width="1.5" pointer-events="none"/>
                </g>
                <g id="dirArrow">
                        <path fill="none" stroke="white" stroke-width="1.5" d="M0,-3.0v7 M-2.5,-0.5L0,-3.0L2.5,-0.5"/>
                </g>
               <g id="resetDef">
                       <use xlink:href="#rim2" fill="#404040">
                               <set attributeName="fill" to="#808080" begin="reset.mouseover" end="reset.mouseout"/>
                       </use>
               </g>
        </defs>

<script type="text/javascript">
var viewWidth = 940;
var viewHeight = 172;
var sectionId = 'dynsection-13';
</script>
<script xlink:href="svgpan.js"/>
<svg id="graph" class="graph">
<g id="viewport">
<title>rcControlPanel::updateElapsedTime</title>
<polygon fill="white" stroke="white" points="-4,5 -4,-168 937,-168 937,5 -4,5"/>
<!-- Node1 -->
<g id="node1" class="node"><title>Node1</title>
<polygon fill="#bfbfbf" stroke="black" points="-0.13916,-73 -0.13916,-93 176.139,-93 176.139,-73 -0.13916,-73"/>
<text text-anchor="middle" x="88" y="-79" font-family="Helvetica,sans-Serif" font-size="10.00">rcControlPanel::updateElapsedTime</text>
</g>
<!-- Node2 -->
<g id="node2" class="node"><title>Node2</title>
<g id="a_node2"><a xlink:href="classrc_model_domain.html#a8fafb31fce65382de4c9d4c35b72eb3d" target="_top" xlink:title="rcModelDomain::getModelDomain">
<polygon fill="white" stroke="black" points="418.412,-144 418.412,-164 585.588,-164 585.588,-144 418.412,-144"/>
<text text-anchor="middle" x="502" y="-150" font-family="Helvetica,sans-Serif" font-size="10.00">rcModelDomain::getModelDomain</text>
</a>
</g>
</g>
<!-- Node1&#45;&gt;Node2 -->
<g id="edge1" class="edge"><title>Node1&#45;&gt;Node2</title>
<path fill="none" stroke="midnightblue" d="M113.036,-93.0465C137.496,-102.829 176.724,-117.314 212,-125 276.722,-139.102 351.118,-146.367 408.218,-150.099"/>
<polygon fill="midnightblue" stroke="midnightblue" points="408.11,-153.599 418.31,-150.734 408.549,-146.613 408.11,-153.599"/>
</g>
<!-- Node3 -->
<g id="node3" class="node"><title>Node3</title>
<g id="a_node3"><a xlink:href="classrc_model_domain.html#a407c976085f996af753dc53b02deb36d" target="_top" xlink:title="rcModelDomain::operating\lOnLiveInput">
<polygon fill="white" stroke="black" points="435.36,-42 435.36,-74 568.64,-74 568.64,-42 435.36,-42"/>
<text text-anchor="start" x="443.36" y="-60" font-family="Helvetica,sans-Serif" font-size="10.00">rcModelDomain::operating</text>
<text text-anchor="middle" x="502" y="-48" font-family="Helvetica,sans-Serif" font-size="10.00">OnLiveInput</text>
</a>
</g>
</g>
<!-- Node1&#45;&gt;Node3 -->
<g id="edge2" class="edge"><title>Node1&#45;&gt;Node3</title>
<path fill="none" stroke="midnightblue" d="M176.375,-77.6981C250.107,-73.2241 354.596,-66.8838 424.933,-62.6157"/>
<polygon fill="midnightblue" stroke="midnightblue" points="425.285,-66.1009 435.055,-62.0015 424.861,-59.1137 425.285,-66.1009"/>
</g>
<!-- Node5 -->
<g id="node5" class="node"><title>Node5</title>
<g id="a_node5"><a xlink:href="classrc_control_panel.html#adaa4a6cad6797cfa44ab20ad4d7c4e0d" target="_top" xlink:title="rcControlPanel::timestamp\lToString">
<polygon fill="white" stroke="black" points="230.089,-0 230.089,-32 363.911,-32 363.911,-0 230.089,-0"/>
<text text-anchor="start" x="238.089" y="-18" font-family="Helvetica,sans-Serif" font-size="10.00">rcControlPanel::timestamp</text>
<text text-anchor="middle" x="297" y="-6" font-family="Helvetica,sans-Serif" font-size="10.00">ToString</text>
</a>
</g>
</g>
<!-- Node1&#45;&gt;Node5 -->
<g id="edge4" class="edge"><title>Node1&#45;&gt;Node5</title>
<path fill="none" stroke="midnightblue" d="M119.99,-72.9694C150.636,-63.0502 198.326,-47.6142 236.339,-35.3106"/>
<polygon fill="midnightblue" stroke="midnightblue" points="237.842,-38.5029 246.278,-32.0934 235.687,-31.843 237.842,-38.5029"/>
</g>
<!-- Node9 -->
<g id="node9" class="node"><title>Node9</title>
<g id="a_node9"><a xlink:href="classrc_control_panel.html#ae23fcd481d145da2b0460a7f6b04aed5" target="_top" xlink:title="rcControlPanel::updateCursorTime">
<polygon fill="white" stroke="black" points="211.927,-96 211.927,-116 382.073,-116 382.073,-96 211.927,-96"/>
<text text-anchor="middle" x="297" y="-102" font-family="Helvetica,sans-Serif" font-size="10.00">rcControlPanel::updateCursorTime</text>
</a>
</g>
</g>
<!-- Node1&#45;&gt;Node9 -->
<g id="edge8" class="edge"><title>Node1&#45;&gt;Node9</title>
<path fill="none" stroke="midnightblue" d="M176.187,-92.6874C184.684,-93.6316 193.332,-94.5925 201.894,-95.5437"/>
<polygon fill="midnightblue" stroke="midnightblue" points="201.565,-99.0287 211.89,-96.6545 202.338,-92.0715 201.565,-99.0287"/>
</g>
<!-- Node4 -->
<g id="node4" class="node"><title>Node4</title>
<g id="a_node4"><a xlink:href="classrc_experiment_domain.html#aad0cfe78090f8444ba58c60a434f49cb" target="_top" xlink:title="rcExperimentDomain\l::operatingOnLiveInput">
<polygon fill="white" stroke="black" points="637.409,-42 637.409,-74 754.591,-74 754.591,-42 637.409,-42"/>
<text text-anchor="start" x="645.409" y="-60" font-family="Helvetica,sans-Serif" font-size="10.00">rcExperimentDomain</text>
<text text-anchor="middle" x="696" y="-48" font-family="Helvetica,sans-Serif" font-size="10.00">::operatingOnLiveInput</text>
</a>
</g>
</g>
<!-- Node3&#45;&gt;Node4 -->
<g id="edge3" class="edge"><title>Node3&#45;&gt;Node4</title>
<path fill="none" stroke="midnightblue" d="M568.807,-58C587.67,-58 608.266,-58 627.244,-58"/>
<polygon fill="midnightblue" stroke="midnightblue" points="627.301,-61.5001 637.301,-58 627.301,-54.5001 627.301,-61.5001"/>
</g>
<!-- Node6 -->
<g id="node6" class="node"><title>Node6</title>
<g id="a_node6"><a xlink:href="classrc_timestamp.html#a7a76776edb5c337196cf10c009339d15" target="_top" xlink:title="rcTimestamp::secs">
<polygon fill="white" stroke="black" points="452.232,-3 452.232,-23 551.768,-23 551.768,-3 452.232,-3"/>
<text text-anchor="middle" x="502" y="-9" font-family="Helvetica,sans-Serif" font-size="10.00">rcTimestamp::secs</text>
</a>
</g>
</g>
<!-- Node5&#45;&gt;Node6 -->
<g id="edge5" class="edge"><title>Node5&#45;&gt;Node6</title>
<path fill="none" stroke="midnightblue" d="M364.189,-15.0218C389.195,-14.6523 417.468,-14.2345 441.793,-13.875"/>
<polygon fill="midnightblue" stroke="midnightblue" points="442.009,-17.3723 451.956,-13.7248 441.905,-10.373 442.009,-17.3723"/>
</g>
<!-- Node7 -->
<g id="node7" class="node"><title>Node7</title>
<g id="a_node7"><a xlink:href="rc__timestamp_8h.html#ac624900be52fa7f30d3ad72543cc725d" target="_top" xlink:title="convertTimestampToSeconds">
<polygon fill="white" stroke="black" points="622.321,-3 622.321,-23 769.679,-23 769.679,-3 622.321,-3"/>
<text text-anchor="middle" x="696" y="-9" font-family="Helvetica,sans-Serif" font-size="10.00">convertTimestampToSeconds</text>
</a>
</g>
</g>
<!-- Node6&#45;&gt;Node7 -->
<g id="edge6" class="edge"><title>Node6&#45;&gt;Node7</title>
<path fill="none" stroke="midnightblue" d="M551.946,-13C570.279,-13 591.652,-13 612.202,-13"/>
<polygon fill="midnightblue" stroke="midnightblue" points="612.208,-16.5001 622.208,-13 612.208,-9.5001 612.208,-16.5001"/>
</g>
<!-- Node8 -->
<g id="node8" class="node"><title>Node8</title>
<g id="a_node8"><a xlink:href="rc__timestamp__mac_8cpp.html#a7962719b626553bf7a913f7c2671b777" target="_top" xlink:title="getTimestampResolution">
<polygon fill="white" stroke="black" points="805.88,-3 805.88,-23 932.12,-23 932.12,-3 805.88,-3"/>
<text text-anchor="middle" x="869" y="-9" font-family="Helvetica,sans-Serif" font-size="10.00">getTimestampResolution</text>
</a>
</g>
</g>
<!-- Node7&#45;&gt;Node8 -->
<g id="edge7" class="edge"><title>Node7&#45;&gt;Node8</title>
<path fill="none" stroke="midnightblue" d="M770.015,-13C778.47,-13 787.09,-13 795.537,-13"/>
<polygon fill="midnightblue" stroke="midnightblue" points="795.731,-16.5001 805.731,-13 795.731,-9.5001 795.731,-16.5001"/>
</g>
<!-- Node9&#45;&gt;Node2 -->
<g id="edge9" class="edge"><title>Node9&#45;&gt;Node2</title>
<path fill="none" stroke="midnightblue" d="M340.555,-116.062C371.953,-123.487 414.868,-133.634 448.414,-141.566"/>
<polygon fill="midnightblue" stroke="midnightblue" points="447.964,-145.056 458.501,-143.951 449.574,-138.244 447.964,-145.056"/>
</g>
<!-- Node9&#45;&gt;Node3 -->
<g id="edge10" class="edge"><title>Node9&#45;&gt;Node3</title>
<path fill="none" stroke="midnightblue" d="M340.555,-95.9376C365.099,-90.1341 396.681,-82.6667 425.323,-75.8941"/>
<polygon fill="midnightblue" stroke="midnightblue" points="426.389,-79.2386 435.315,-73.5314 424.778,-72.4265 426.389,-79.2386"/>
</g>
<!-- Node10 -->
<g id="node10" class="node"><title>Node10</title>
<g id="a_node10"><a xlink:href="classrc_model_domain.html#abf45f359d0cc72ee2531e0585828c03a" target="_top" xlink:title="rcModelDomain::storingLive\lInput">
<polygon fill="white" stroke="black" points="432.03,-93 432.03,-125 571.97,-125 571.97,-93 432.03,-93"/>
<text text-anchor="start" x="440.03" y="-111" font-family="Helvetica,sans-Serif" font-size="10.00">rcModelDomain::storingLive</text>
<text text-anchor="middle" x="502" y="-99" font-family="Helvetica,sans-Serif" font-size="10.00">Input</text>
</a>
</g>
</g>
<!-- Node9&#45;&gt;Node10 -->
<g id="edge11" class="edge"><title>Node9&#45;&gt;Node10</title>
<path fill="none" stroke="midnightblue" d="M382.327,-107.246C395.306,-107.438 408.671,-107.636 421.54,-107.826"/>
<polygon fill="midnightblue" stroke="midnightblue" points="421.686,-111.328 431.737,-107.976 421.789,-104.329 421.686,-111.328"/>
</g>
<!-- Node11 -->
<g id="node11" class="node"><title>Node11</title>
<g id="a_node11"><a xlink:href="classrc_experiment_domain.html#a73b95037f94d932b013bd89829e11ae3" target="_top" xlink:title="rcExperimentDomain\l::storingLiveInput">
<polygon fill="white" stroke="black" points="641.318,-93 641.318,-125 750.682,-125 750.682,-93 641.318,-93"/>
<text text-anchor="start" x="649.318" y="-111" font-family="Helvetica,sans-Serif" font-size="10.00">rcExperimentDomain</text>
<text text-anchor="middle" x="696" y="-99" font-family="Helvetica,sans-Serif" font-size="10.00">::storingLiveInput</text>
</a>
</g>
</g>
<!-- Node10&#45;&gt;Node11 -->
<g id="edge12" class="edge"><title>Node10&#45;&gt;Node11</title>
<path fill="none" stroke="midnightblue" d="M572.045,-109C591.365,-109 612.269,-109 631.266,-109"/>
<polygon fill="midnightblue" stroke="midnightblue" points="631.304,-112.5 641.304,-109 631.304,-105.5 631.304,-112.5"/>
</g>
</g>
</svg>
        <g id="navigator" transform="translate(0 0)" fill="#404254">
                <rect fill="#f2f5e9" fill-opacity="0.5" stroke="#606060" stroke-width=".5" x="0" y="0" width="60" height="60"/>
                <use id="zoomplus" xlink:href="#zoomPlus" x="17" y="9" onmousedown="handleZoom(evt,'in')"/>
                <use id="zoomminus" xlink:href="#zoomMin" x="42" y="9" onmousedown="handleZoom(evt,'out')"/>
                <use id="reset" xlink:href="#resetDef" x="30" y="36" onmousedown="handleReset()"/>
                <g id="arrowUp" xlink:href="#dirArrow" transform="translate(30 24)" onmousedown="handlePan(0,-1)">
                  <use xlink:href="#rim" fill="#404040">
                        <set attributeName="fill" to="#808080" begin="arrowUp.mouseover" end="arrowUp.mouseout"/>
                  </use>
                  <path fill="none" stroke="white" stroke-width="1.5" d="M0,-3.0v7 M-2.5,-0.5L0,-3.0L2.5,-0.5"/>
                </g>
                <g id="arrowRight" xlink:href="#dirArrow" transform="rotate(90) translate(36 -43)" onmousedown="handlePan(1,0)">
                  <use xlink:href="#rim" fill="#404040">
                        <set attributeName="fill" to="#808080" begin="arrowRight.mouseover" end="arrowRight.mouseout"/>
                  </use>
                  <path fill="none" stroke="white" stroke-width="1.5" d="M0,-3.0v7 M-2.5,-0.5L0,-3.0L2.5,-0.5"/>
                </g>
                <g id="arrowDown" xlink:href="#dirArrow" transform="rotate(180) translate(-30 -48)" onmousedown="handlePan(0,1)">
                  <use xlink:href="#rim" fill="#404040">
                        <set attributeName="fill" to="#808080" begin="arrowDown.mouseover" end="arrowDown.mouseout"/>
                  </use>
                  <path fill="none" stroke="white" stroke-width="1.5" d="M0,-3.0v7 M-2.5,-0.5L0,-3.0L2.5,-0.5"/>
                </g>
                <g id="arrowLeft" xlink:href="#dirArrow" transform="rotate(270) translate(-36 17)" onmousedown="handlePan(-1,0)">
                  <use xlink:href="#rim" fill="#404040">
                        <set attributeName="fill" to="#808080" begin="arrowLeft.mouseover" end="arrowLeft.mouseout"/>
                  </use>
                  <path fill="none" stroke="white" stroke-width="1.5" d="M0,-3.0v7 M-2.5,-0.5L0,-3.0L2.5,-0.5"/>
                </g>
        </g>
        <svg viewBox="0 0 15 15" width="100%" height="30px" preserveAspectRatio="xMaxYMin meet">
         <g id="arrow_out" transform="scale(0.3 0.3)">
          <a xlink:href="classrc_control_panel_acc61e3dd8c4709619cdfe4de344ca770_cgraph_org.svg" target="_base">
           <rect id="button" ry="5" rx="5" y="6" x="6" height="38" width="38"
                fill="#f2f5e9" fill-opacity="0.5" stroke="#606060" stroke-width="1.0"/>
           <path id="arrow"
             d="M 11.500037,31.436501 C 11.940474,20.09759 22.043105,11.32322 32.158766,21.979434 L 37.068811,17.246167 C 37.068811,17.246167 37.088388,32 37.088388,32 L 22.160133,31.978069 C 22.160133,31.978069 26.997745,27.140456 26.997745,27.140456 C 18.528582,18.264221 13.291696,25.230495 11.500037,31.436501 z"
             style="fill:#404040;"/>
          </a>
         </g>
        </svg>
</svg>
