<?xml version="1.0" encoding="UTF-8" standalone="no"?>
<!DOCTYPE svg PUBLIC "-//W3C//DTD SVG 1.1//EN"
 "http://www.w3.org/Graphics/SVG/1.1/DTD/svg11.dtd">
<!-- Generated by graphviz version 2.32.0 (20130916.1925)
 -->
<!-- Title: rcSimilarator::internalUpdate Pages: 1 -->
<svg width="948pt" height="122pt"
 viewBox="0.00 0.00 948.00 122.00" xmlns="http://www.w3.org/2000/svg" xmlns:xlink="http://www.w3.org/1999/xlink">
<g id="graph0" class="graph" transform="scale(1 1) rotate(0) translate(4 118)">
<title>rcSimilarator::internalUpdate</title>
<polygon fill="white" stroke="white" points="-4,5 -4,-118 945,-118 945,5 -4,5"/>
<!-- Node1 -->
<g id="node1" class="node"><title>Node1</title>
<polygon fill="#bfbfbf" stroke="black" points="0.640625,-55 0.640625,-75 143.359,-75 143.359,-55 0.640625,-55"/>
<text text-anchor="middle" x="72" y="-61" font-family="Helvetica,sans-Serif" font-size="10.00">rcSimilarator::internalUpdate</text>
</g>
<!-- Node2 -->
<g id="node2" class="node"><title>Node2</title>
<g id="a_node2"><a xlink:href="classrc_similarator.html#a778a5f9764b8b49df3ded912bafbfcaf" target="_top" xlink:title="rcSimilarator::update">
<polygon fill="white" stroke="black" points="179.87,-55 179.87,-75 288.13,-75 288.13,-55 179.87,-55"/>
<text text-anchor="middle" x="234" y="-61" font-family="Helvetica,sans-Serif" font-size="10.00">rcSimilarator::update</text>
</a>
</g>
</g>
<!-- Node1&#45;&gt;Node2 -->
<g id="edge1" class="edge"><title>Node1&#45;&gt;Node2</title>
<path fill="none" stroke="midnightblue" d="M153.859,-65C162.576,-65 171.28,-65 179.556,-65"/>
<polygon fill="midnightblue" stroke="midnightblue" points="153.644,-61.5001 143.644,-65 153.644,-68.5001 153.644,-61.5001"/>
</g>
<!-- Node3 -->
<g id="node3" class="node"><title>Node3</title>
<g id="a_node3"><a xlink:href="rc__kineticimage_8h.html#a74f16cb8db93e0991685b7e04ac2d18d" target="_top" xlink:title="segPointByEnergy">
<polygon fill="white" stroke="black" points="329.865,-94 329.865,-114 428.135,-114 428.135,-94 329.865,-94"/>
<text text-anchor="middle" x="379" y="-100" font-family="Helvetica,sans-Serif" font-size="10.00">segPointByEnergy</text>
</a>
</g>
</g>
<!-- Node2&#45;&gt;Node3 -->
<g id="edge2" class="edge"><title>Node2&#45;&gt;Node3</title>
<path fill="none" stroke="midnightblue" d="M281.658,-77.7248C301.01,-83.0028 323.136,-89.037 341.299,-93.9906"/>
<polygon fill="midnightblue" stroke="midnightblue" points="282.395,-74.298 271.826,-75.0435 280.553,-81.0514 282.395,-74.298"/>
</g>
<!-- Node4 -->
<g id="node4" class="node"><title>Node4</title>
<g id="a_node4"><a xlink:href="rc__kineticimage_8h.html#a37fdff5165799a39ff0e7807bf05a1a3" target="_top" xlink:title="calcMusclePeriod">
<polygon fill="white" stroke="black" points="331.818,-55 331.818,-75 426.182,-75 426.182,-55 331.818,-55"/>
<text text-anchor="middle" x="379" y="-61" font-family="Helvetica,sans-Serif" font-size="10.00">calcMusclePeriod</text>
</a>
</g>
</g>
<!-- Node2&#45;&gt;Node4 -->
<g id="edge3" class="edge"><title>Node2&#45;&gt;Node4</title>
<path fill="none" stroke="midnightblue" d="M298.438,-65C309.65,-65 321.131,-65 331.757,-65"/>
<polygon fill="midnightblue" stroke="midnightblue" points="298.248,-61.5001 288.248,-65 298.248,-68.5001 298.248,-61.5001"/>
</g>
<!-- Node8 -->
<g id="node8" class="node"><title>Node8</title>
<g id="a_node8"><a xlink:href="classrc_muscle_segmenter.html#ab797a355a4e18e94b3e482fbbff932ea" target="_top" xlink:title="rcMuscleSegmenter::\lgetEMI">
<polygon fill="white" stroke="black" points="323.761,-3 323.761,-35 434.239,-35 434.239,-3 323.761,-3"/>
<text text-anchor="start" x="331.761" y="-21" font-family="Helvetica,sans-Serif" font-size="10.00">rcMuscleSegmenter::</text>
<text text-anchor="middle" x="379" y="-9" font-family="Helvetica,sans-Serif" font-size="10.00">getEMI</text>
</a>
</g>
</g>
<!-- Node2&#45;&gt;Node8 -->
<g id="edge7" class="edge"><title>Node2&#45;&gt;Node8</title>
<path fill="none" stroke="midnightblue" d="M276.118,-51.7732C292.35,-46.5517 311.149,-40.5046 328.146,-35.0371"/>
<polygon fill="midnightblue" stroke="midnightblue" points="274.83,-48.5109 266.382,-54.9051 276.973,-55.1746 274.83,-48.5109"/>
</g>
<!-- Node5 -->
<g id="node5" class="node"><title>Node5</title>
<g id="a_node5"><a xlink:href="classrc_muscle_segmenter.html#a61c65559f55fd9fa632b96e09ef50b2e" target="_top" xlink:title="rcMuscleSegmenter::\lgenFrequencySegmentation">
<polygon fill="white" stroke="black" points="470.18,-51 470.18,-83 611.82,-83 611.82,-51 470.18,-51"/>
<text text-anchor="start" x="478.18" y="-69" font-family="Helvetica,sans-Serif" font-size="10.00">rcMuscleSegmenter::</text>
<text text-anchor="middle" x="541" y="-57" font-family="Helvetica,sans-Serif" font-size="10.00">genFrequencySegmentation</text>
</a>
</g>
</g>
<!-- Node4&#45;&gt;Node5 -->
<g id="edge4" class="edge"><title>Node4&#45;&gt;Node5</title>
<path fill="none" stroke="midnightblue" d="M436.456,-65.7057C447.305,-65.8413 458.787,-65.9848 470.004,-66.125"/>
<polygon fill="midnightblue" stroke="midnightblue" points="436.322,-62.2038 426.279,-65.5785 436.234,-69.2033 436.322,-62.2038"/>
</g>
<!-- Node6 -->
<g id="node6" class="node"><title>Node6</title>
<g id="a_node6"><a xlink:href="classrc_muscle_segmenter.html#a660d7b3d1c240efa0b725e0db65154e3" target="_top" xlink:title="rcMuscleSegmenter::\lfilterByActivity">
<polygon fill="white" stroke="black" points="647.761,-51 647.761,-83 758.239,-83 758.239,-51 647.761,-51"/>
<text text-anchor="start" x="655.761" y="-69" font-family="Helvetica,sans-Serif" font-size="10.00">rcMuscleSegmenter::</text>
<text text-anchor="middle" x="703" y="-57" font-family="Helvetica,sans-Serif" font-size="10.00">filterByActivity</text>
</a>
</g>
</g>
<!-- Node5&#45;&gt;Node6 -->
<g id="edge5" class="edge"><title>Node5&#45;&gt;Node6</title>
<path fill="none" stroke="midnightblue" d="M622.284,-67C630.912,-67 639.535,-67 647.753,-67"/>
<polygon fill="midnightblue" stroke="midnightblue" points="622.178,-63.5001 612.178,-67 622.178,-70.5001 622.178,-63.5001"/>
</g>
<!-- Node7 -->
<g id="node7" class="node"><title>Node7</title>
<g id="a_node7"><a xlink:href="classrc_engine_impl.html#a00ca0d227e480ddb5bd6be293b55d2c9" target="_top" xlink:title="rcEngineImpl::muscleTracker">
<polygon fill="white" stroke="black" points="794.442,-31 794.442,-51 939.558,-51 939.558,-31 794.442,-31"/>
<text text-anchor="middle" x="867" y="-37" font-family="Helvetica,sans-Serif" font-size="10.00">rcEngineImpl::muscleTracker</text>
</a>
</g>
</g>
<!-- Node6&#45;&gt;Node7 -->
<g id="edge6" class="edge"><title>Node6&#45;&gt;Node7</title>
<path fill="none" stroke="midnightblue" d="M768.438,-56.6581C780.034,-54.797 792.104,-52.8599 803.64,-51.0084"/>
<polygon fill="midnightblue" stroke="midnightblue" points="767.713,-53.2295 758.394,-58.27 768.823,-60.1411 767.713,-53.2295"/>
</g>
<!-- Node9 -->
<g id="node9" class="node"><title>Node9</title>
<g id="a_node9"><a xlink:href="classrc_muscle_segmenter.html#a248fccb8fc46afa10c1a0a0cb240e72a" target="_top" xlink:title="rcMuscleSegmenter::\lgenSpatialSegmentation">
<polygon fill="white" stroke="black" points="478.515,-0 478.515,-32 603.485,-32 603.485,-0 478.515,-0"/>
<text text-anchor="start" x="486.515" y="-18" font-family="Helvetica,sans-Serif" font-size="10.00">rcMuscleSegmenter::</text>
<text text-anchor="middle" x="541" y="-6" font-family="Helvetica,sans-Serif" font-size="10.00">genSpatialSegmentation</text>
</a>
</g>
</g>
<!-- Node8&#45;&gt;Node9 -->
<g id="edge8" class="edge"><title>Node8&#45;&gt;Node9</title>
<path fill="none" stroke="midnightblue" d="M444.713,-17.7866C455.863,-17.5776 467.424,-17.3608 478.487,-17.1534"/>
<polygon fill="midnightblue" stroke="midnightblue" points="444.548,-14.289 434.615,-17.976 444.679,-21.2878 444.548,-14.289"/>
</g>
<!-- Node10 -->
<g id="node10" class="node"><title>Node10</title>
<g id="a_node10"><a xlink:href="classrc_muscle_segmenter.html#a86d108c38d0bcb7a7eb47021b7ab0308" target="_top" xlink:title="rcMuscleSegmenter::\lsegment">
<polygon fill="white" stroke="black" points="647.761,-0 647.761,-32 758.239,-32 758.239,-0 647.761,-0"/>
<text text-anchor="start" x="655.761" y="-18" font-family="Helvetica,sans-Serif" font-size="10.00">rcMuscleSegmenter::</text>
<text text-anchor="middle" x="703" y="-6" font-family="Helvetica,sans-Serif" font-size="10.00">segment</text>
</a>
</g>
</g>
<!-- Node9&#45;&gt;Node10 -->
<g id="edge9" class="edge"><title>Node9&#45;&gt;Node10</title>
<path fill="none" stroke="midnightblue" d="M614.111,-16C625.366,-16 636.832,-16 647.605,-16"/>
<polygon fill="midnightblue" stroke="midnightblue" points="613.86,-12.5001 603.86,-16 613.86,-19.5001 613.86,-12.5001"/>
</g>
<!-- Node10&#45;&gt;Node7 -->
<g id="edge10" class="edge"><title>Node10&#45;&gt;Node7</title>
<path fill="none" stroke="midnightblue" d="M768.52,-25.9568C779.237,-27.6107 790.356,-29.3266 801.083,-30.9819"/>
<polygon fill="midnightblue" stroke="midnightblue" points="768.811,-22.4604 758.394,-24.3942 767.743,-29.3785 768.811,-22.4604"/>
</g>
</g>
</svg>
