<?xml version="1.0" encoding="UTF-8" standalone="no"?>
<!DOCTYPE svg PUBLIC "-//W3C//DTD SVG 1.1//EN"
 "http://www.w3.org/Graphics/SVG/1.1/DTD/svg11.dtd">
<!-- Generated by graphviz version 2.32.0 (20130916.1925)
 -->
<!-- Title: rcCameraGrabber::addBuffer Pages: 1 -->
<svg width="482pt" height="40pt"
 viewBox="0.00 0.00 482.00 40.00" xmlns="http://www.w3.org/2000/svg" xmlns:xlink="http://www.w3.org/1999/xlink">
<g id="graph0" class="graph" transform="scale(1 1) rotate(0) translate(4 36)">
<title>rcCameraGrabber::addBuffer</title>
<polygon fill="white" stroke="white" points="-4,5 -4,-36 479,-36 479,5 -4,5"/>
<!-- Node1 -->
<g id="node1" class="node"><title>Node1</title>
<polygon fill="#bfbfbf" stroke="black" points="0.336914,-6 0.336914,-26 145.663,-26 145.663,-6 0.336914,-6"/>
<text text-anchor="middle" x="73" y="-12" font-family="Helvetica,sans-Serif" font-size="10.00">rcCameraGrabber::addBuffer</text>
</g>
<!-- Node2 -->
<g id="node2" class="node"><title>Node2</title>
<g id="a_node2"><a xlink:href="classrc_engine_movie_capture.html#a6a8350d80d9ae7a2b10eb473f64b7354" target="_top" xlink:title="rcEngineMovieCapture\l::initializeCamera">
<polygon fill="white" stroke="black" points="182.141,-0 182.141,-32 299.859,-32 299.859,-0 182.141,-0"/>
<text text-anchor="start" x="190.141" y="-18" font-family="Helvetica,sans-Serif" font-size="10.00">rcEngineMovieCapture</text>
<text text-anchor="middle" x="241" y="-6" font-family="Helvetica,sans-Serif" font-size="10.00">::initializeCamera</text>
</a>
</g>
</g>
<!-- Node1&#45;&gt;Node2 -->
<g id="edge1" class="edge"><title>Node1&#45;&gt;Node2</title>
<path fill="none" stroke="midnightblue" d="M156.1,-16C164.862,-16 173.636,-16 182.034,-16"/>
<polygon fill="midnightblue" stroke="midnightblue" points="155.845,-12.5001 145.845,-16 155.845,-19.5001 155.845,-12.5001"/>
</g>
<!-- Node3 -->
<g id="node3" class="node"><title>Node3</title>
<g id="a_node3"><a xlink:href="classrc_engine_movie_capture.html#a0d8bfe4fd32e11bdbdb2c0ad113425ff" target="_top" xlink:title="rcEngineMovieCapture::run">
<polygon fill="white" stroke="black" points="336.136,-6 336.136,-26 473.864,-26 473.864,-6 336.136,-6"/>
<text text-anchor="middle" x="405" y="-12" font-family="Helvetica,sans-Serif" font-size="10.00">rcEngineMovieCapture::run</text>
</a>
</g>
</g>
<!-- Node2&#45;&gt;Node3 -->
<g id="edge2" class="edge"><title>Node2&#45;&gt;Node3</title>
<path fill="none" stroke="midnightblue" d="M310.252,-16C318.733,-16 327.405,-16 335.884,-16"/>
<polygon fill="midnightblue" stroke="midnightblue" points="310.028,-12.5001 300.028,-16 310.028,-19.5001 310.028,-12.5001"/>
</g>
</g>
</svg>
