<?xml version="1.0" encoding="UTF-8" standalone="no"?>
<!DOCTYPE svg PUBLIC "-//W3C//DTD SVG 1.1//EN"
 "http://www.w3.org/Graphics/SVG/1.1/DTD/svg11.dtd">
<!-- Generated by graphviz version 2.32.0 (20130916.1925)
 -->
<!-- Title: TIFFImageIO::GetFormat Pages: 1 -->
<svg width="696pt" height="96pt"
 viewBox="0.00 0.00 696.00 96.00" xmlns="http://www.w3.org/2000/svg" xmlns:xlink="http://www.w3.org/1999/xlink">
<g id="graph0" class="graph" transform="scale(1 1) rotate(0) translate(4 92)">
<title>TIFFImageIO::GetFormat</title>
<polygon fill="white" stroke="white" points="-4,5 -4,-92 693,-92 693,5 -4,5"/>
<!-- Node1 -->
<g id="node1" class="node"><title>Node1</title>
<polygon fill="#bfbfbf" stroke="black" points="0.601074,-48 0.601074,-68 129.399,-68 129.399,-48 0.601074,-48"/>
<text text-anchor="middle" x="65" y="-54" font-family="Helvetica,sans-Serif" font-size="10.00">TIFFImageIO::GetFormat</text>
</g>
<!-- Node2 -->
<g id="node2" class="node"><title>Node2</title>
<g id="a_node2"><a xlink:href="class_t_i_f_f_image_i_o.html#a6b4464d2893d4a82be54184498857036" target="_top" xlink:title="TIFFImageIO::EvaluateImageAt">
<polygon fill="white" stroke="black" points="179.417,-68 179.417,-88 336.583,-88 336.583,-68 179.417,-68"/>
<text text-anchor="middle" x="258" y="-74" font-family="Helvetica,sans-Serif" font-size="10.00">TIFFImageIO::EvaluateImageAt</text>
</a>
</g>
</g>
<!-- Node1&#45;&gt;Node2 -->
<g id="edge1" class="edge"><title>Node1&#45;&gt;Node2</title>
<path fill="none" stroke="midnightblue" d="M139.855,-65.7335C152.815,-67.0906 166.338,-68.5066 179.397,-69.874"/>
<polygon fill="midnightblue" stroke="midnightblue" points="139.91,-62.2203 129.6,-64.6597 139.181,-69.1822 139.91,-62.2203"/>
</g>
<!-- Node3 -->
<g id="node3" class="node"><title>Node3</title>
<g id="a_node3"><a xlink:href="class_t_i_f_f_image_i_o.html#aa2c4a533e76dd736d4624d89b11c30c8" target="_top" xlink:title="TIFFImageIO::ReadImageInformation">
<polygon fill="white" stroke="black" points="166.633,-29 166.633,-49 349.367,-49 349.367,-29 166.633,-29"/>
<text text-anchor="middle" x="258" y="-35" font-family="Helvetica,sans-Serif" font-size="10.00">TIFFImageIO::ReadImageInformation</text>
</a>
</g>
</g>
<!-- Node1&#45;&gt;Node3 -->
<g id="edge2" class="edge"><title>Node1&#45;&gt;Node3</title>
<path fill="none" stroke="midnightblue" d="M139.737,-50.6649C148.489,-49.7943 157.498,-48.8981 166.449,-48.0077"/>
<polygon fill="midnightblue" stroke="midnightblue" points="139.205,-47.2005 129.6,-51.6733 139.898,-54.1661 139.205,-47.2005"/>
</g>
<!-- Node4 -->
<g id="node4" class="node"><title>Node4</title>
<g id="a_node4"><a xlink:href="classrc_engine_impl.html#ac0162da8fe4f677ad6f3d04a465d50f0" target="_top" xlink:title="rcEngineImpl::loadMovie">
<polygon fill="white" stroke="black" points="562.251,-48 562.251,-68 687.749,-68 687.749,-48 562.251,-48"/>
<text text-anchor="middle" x="625" y="-54" font-family="Helvetica,sans-Serif" font-size="10.00">rcEngineImpl::loadMovie</text>
</a>
</g>
</g>
<!-- Node3&#45;&gt;Node4 -->
<g id="edge3" class="edge"><title>Node3&#45;&gt;Node4</title>
<path fill="none" stroke="midnightblue" d="M323.703,-50.5753C343.615,-53.6257 365.649,-56.4861 386,-58 445.542,-62.4293 513.695,-61.8583 561.768,-60.5207"/>
<polygon fill="midnightblue" stroke="midnightblue" points="324.233,-47.1157 313.811,-49.0185 323.145,-54.0306 324.233,-47.1157"/>
</g>
<!-- Node5 -->
<g id="node5" class="node"><title>Node5</title>
<g id="a_node5"><a xlink:href="class_t_i_f_f_image_i_o.html#abec0d00f473debbd9d05f5a0e4820402" target="_top" xlink:title="TIFFImageIO::CanReadFile">
<polygon fill="white" stroke="black" points="386.313,-29 386.313,-49 525.687,-49 525.687,-29 386.313,-29"/>
<text text-anchor="middle" x="456" y="-35" font-family="Helvetica,sans-Serif" font-size="10.00">TIFFImageIO::CanReadFile</text>
</a>
</g>
</g>
<!-- Node3&#45;&gt;Node5 -->
<g id="edge4" class="edge"><title>Node3&#45;&gt;Node5</title>
<path fill="none" stroke="midnightblue" d="M359.682,-39C368.666,-39 377.62,-39 386.241,-39"/>
<polygon fill="midnightblue" stroke="midnightblue" points="359.542,-35.5001 349.542,-39 359.542,-42.5001 359.542,-35.5001"/>
</g>
<!-- Node6 -->
<g id="node6" class="node"><title>Node6</title>
<g id="a_node6"><a xlink:href="classrc_window.html#a5da06176e6878b676bbc534db6b09b7d" target="_top" xlink:title="rcWindow::rcWindow">
<polygon fill="white" stroke="black" points="570.325,-0 570.325,-20 679.675,-20 679.675,-0 570.325,-0"/>
<text text-anchor="middle" x="625" y="-6" font-family="Helvetica,sans-Serif" font-size="10.00">rcWindow::rcWindow</text>
</a>
</g>
</g>
<!-- Node3&#45;&gt;Node6 -->
<g id="edge7" class="edge"><title>Node3&#45;&gt;Node6</title>
<path fill="none" stroke="midnightblue" d="M323.443,-27.3371C343.429,-24.1285 365.57,-20.9879 386,-19 448.967,-12.8732 521.68,-10.8551 569.999,-10.223"/>
<polygon fill="midnightblue" stroke="midnightblue" points="322.819,-23.8926 313.517,-28.9639 323.951,-30.8005 322.819,-23.8926"/>
</g>
<!-- Node5&#45;&gt;Node4 -->
<g id="edge5" class="edge"><title>Node5&#45;&gt;Node4</title>
<path fill="none" stroke="midnightblue" d="M535.838,-47.9696C544.695,-48.9773 553.622,-49.993 562.219,-50.9711"/>
<polygon fill="midnightblue" stroke="midnightblue" points="536.221,-44.4907 525.889,-46.8377 535.43,-51.4458 536.221,-44.4907"/>
</g>
<!-- Node5&#45;&gt;Node6 -->
<g id="edge6" class="edge"><title>Node5&#45;&gt;Node6</title>
<path fill="none" stroke="midnightblue" d="M525.166,-27.1627C540.131,-24.5642 555.775,-21.8474 570.088,-19.362"/>
<polygon fill="midnightblue" stroke="midnightblue" points="524.194,-23.7792 514.94,-28.9386 525.391,-30.676 524.194,-23.7792"/>
</g>
</g>
</svg>
