<?xml version="1.0" encoding="UTF-8" standalone="no"?>
<!DOCTYPE svg PUBLIC "-//W3C//DTD SVG 1.1//EN"
 "http://www.w3.org/Graphics/SVG/1.1/DTD/svg11.dtd">
<!-- Generated by graphviz version 2.32.0 (20130916.1925)
 -->
<!-- Title: rcEngineImpl::getElapsedTime Pages: 1 -->
<!--zoomable 313 -->
<svg id="main" version="1.1" xmlns="http://www.w3.org/2000/svg" xmlns:xlink="http://www.w3.org/1999/xlink" xml:space="preserve" onload="init(evt)">
        <defs>
                <circle id="rim" cx="0" cy="0" r="7"/>
                <circle id="rim2" cx="0" cy="0" r="3.5"/>
                <g id="zoomPlus">
                        <use xlink:href="#rim" fill="#404040">
                                <set attributeName="fill" to="#808080" begin="zoomplus.mouseover" end="zoomplus.mouseout"/>
                        </use>
                        <path d="M-4,0h8M0,-4v8" fill="none" stroke="white" stroke-width="1.5" pointer-events="none"/>
                </g>
                <g id="zoomMin">
                        <use xlink:href="#rim" fill="#404040">
                                <set attributeName="fill" to="#808080" begin="zoomminus.mouseover" end="zoomminus.mouseout"/>
                        </use>
                        <path d="M-4,0h8" fill="none" stroke="white" stroke-width="1.5" pointer-events="none"/>
                </g>
                <g id="dirArrow">
                        <path fill="none" stroke="white" stroke-width="1.5" d="M0,-3.0v7 M-2.5,-0.5L0,-3.0L2.5,-0.5"/>
                </g>
               <g id="resetDef">
                       <use xlink:href="#rim2" fill="#404040">
                               <set attributeName="fill" to="#808080" begin="reset.mouseover" end="reset.mouseout"/>
                       </use>
               </g>
        </defs>

<script type="text/javascript">
var viewWidth = 1060;
var viewHeight = 313;
var sectionId = 'dynsection-39';
</script>
<script xlink:href="svgpan.js"/>
<svg id="graph" class="graph">
<g id="viewport">
<title>rcEngineImpl::getElapsedTime</title>
<polygon fill="white" stroke="white" points="-4,5 -4,-309 1057,-309 1057,5 -4,5"/>
<!-- Node1 -->
<g id="node1" class="node"><title>Node1</title>
<polygon fill="#bfbfbf" stroke="black" points="0.0947266,-159 0.0947266,-179 151.905,-179 151.905,-159 0.0947266,-159"/>
<text text-anchor="middle" x="76" y="-165" font-family="Helvetica,sans-Serif" font-size="10.00">rcEngineImpl::getElapsedTime</text>
</g>
<!-- Node2 -->
<g id="node2" class="node"><title>Node2</title>
<g id="a_node2"><a xlink:href="classrc_engine_impl.html#a3f1d54d99e195efe0eec45f9263e6342" target="_top" xlink:title="rcEngineImpl::loadFrames">
<polygon fill="white" stroke="black" points="572.643,-246 572.643,-266 705.357,-266 705.357,-246 572.643,-246"/>
<text text-anchor="middle" x="639" y="-252" font-family="Helvetica,sans-Serif" font-size="10.00">rcEngineImpl::loadFrames</text>
</a>
</g>
</g>
<!-- Node1&#45;&gt;Node2 -->
<g id="edge1" class="edge"><title>Node1&#45;&gt;Node2</title>
<path fill="none" stroke="midnightblue" d="M104.684,-183.79C126.644,-194.82 158.453,-209.264 188,-217 321.325,-251.909 483.68,-257.267 572.367,-257.197"/>
<polygon fill="midnightblue" stroke="midnightblue" points="106.117,-180.592 95.6208,-179.15 102.927,-186.823 106.117,-180.592"/>
</g>
<!-- Node6 -->
<g id="node6" class="node"><title>Node6</title>
<g id="a_node6"><a xlink:href="classrc_engine_impl.html#a7eec21aabd0c657881fc6eac91787480" target="_top" xlink:title="rcEngineImpl::modelTracker">
<polygon fill="white" stroke="black" points="190.661,-137 190.661,-157 331.339,-157 331.339,-137 190.661,-137"/>
<text text-anchor="middle" x="261" y="-143" font-family="Helvetica,sans-Serif" font-size="10.00">rcEngineImpl::modelTracker</text>
</a>
</g>
</g>
<!-- Node1&#45;&gt;Node6 -->
<g id="edge5" class="edge"><title>Node1&#45;&gt;Node6</title>
<path fill="none" stroke="midnightblue" d="M162.182,-158.76C171.652,-157.621 181.213,-156.472 190.456,-155.361"/>
<polygon fill="midnightblue" stroke="midnightblue" points="161.472,-155.32 151.961,-159.988 162.307,-162.27 161.472,-155.32"/>
</g>
<!-- Node11 -->
<g id="node11" class="node"><title>Node11</title>
<g id="a_node11"><a xlink:href="classrc_engine_impl.html#a00ca0d227e480ddb5bd6be293b55d2c9" target="_top" xlink:title="rcEngineImpl::muscleTracker">
<polygon fill="white" stroke="black" points="188.442,-98 188.442,-118 333.558,-118 333.558,-98 188.442,-98"/>
<text text-anchor="middle" x="261" y="-104" font-family="Helvetica,sans-Serif" font-size="10.00">rcEngineImpl::muscleTracker</text>
</a>
</g>
</g>
<!-- Node1&#45;&gt;Node11 -->
<g id="edge10" class="edge"><title>Node1&#45;&gt;Node11</title>
<path fill="none" stroke="midnightblue" d="M111.829,-155.291C133.572,-146.944 162.232,-136.322 188,-128 198.864,-124.491 210.767,-121.032 221.71,-118.002"/>
<polygon fill="midnightblue" stroke="midnightblue" points="110.427,-152.08 102.361,-158.95 112.951,-158.61 110.427,-152.08"/>
</g>
<!-- Node12 -->
<g id="node12" class="node"><title>Node12</title>
<g id="a_node12"><a xlink:href="classrc_engine_impl.html#a9091e225a7d4b9e02a92442fd3f727c3" target="_top" xlink:title="rcEngineImpl::setTimeLine\lRange">
<polygon fill="white" stroke="black" points="193.991,-176 193.991,-208 328.009,-208 328.009,-176 193.991,-176"/>
<text text-anchor="start" x="201.991" y="-194" font-family="Helvetica,sans-Serif" font-size="10.00">rcEngineImpl::setTimeLine</text>
<text text-anchor="middle" x="261" y="-182" font-family="Helvetica,sans-Serif" font-size="10.00">Range</text>
</a>
</g>
</g>
<!-- Node1&#45;&gt;Node12 -->
<g id="edge11" class="edge"><title>Node1&#45;&gt;Node12</title>
<path fill="none" stroke="midnightblue" d="M162.147,-179.702C172.828,-181.044 183.625,-182.401 193.952,-183.699"/>
<polygon fill="midnightblue" stroke="midnightblue" points="162.32,-176.196 151.961,-178.421 161.447,-183.141 162.32,-176.196"/>
</g>
<!-- Node3 -->
<g id="node3" class="node"><title>Node3</title>
<g id="a_node3"><a xlink:href="classrc_engine_impl.html#ac6c444948228b9a6c9c013efefd7452c" target="_top" xlink:title="rcEngineImpl::loadImages">
<polygon fill="white" stroke="black" points="750.192,-246 750.192,-266 881.808,-266 881.808,-246 750.192,-246"/>
<text text-anchor="middle" x="816" y="-252" font-family="Helvetica,sans-Serif" font-size="10.00">rcEngineImpl::loadImages</text>
</a>
</g>
</g>
<!-- Node2&#45;&gt;Node3 -->
<g id="edge2" class="edge"><title>Node2&#45;&gt;Node3</title>
<path fill="none" stroke="midnightblue" d="M715.662,-256C727.145,-256 738.907,-256 750.134,-256"/>
<polygon fill="midnightblue" stroke="midnightblue" points="715.661,-252.5 705.661,-256 715.661,-259.5 715.661,-252.5"/>
</g>
<!-- Node5 -->
<g id="node5" class="node"><title>Node5</title>
<g id="a_node5"><a xlink:href="classrc_engine_impl.html#ac0162da8fe4f677ad6f3d04a465d50f0" target="_top" xlink:title="rcEngineImpl::loadMovie">
<polygon fill="white" stroke="black" points="753.251,-285 753.251,-305 878.749,-305 878.749,-285 753.251,-285"/>
<text text-anchor="middle" x="816" y="-291" font-family="Helvetica,sans-Serif" font-size="10.00">rcEngineImpl::loadMovie</text>
</a>
</g>
</g>
<!-- Node2&#45;&gt;Node5 -->
<g id="edge4" class="edge"><title>Node2&#45;&gt;Node5</title>
<path fill="none" stroke="midnightblue" d="M694.828,-268.219C719.038,-273.614 747.145,-279.878 770.086,-284.991"/>
<polygon fill="midnightblue" stroke="midnightblue" points="695.589,-264.803 685.067,-266.043 694.066,-271.635 695.589,-264.803"/>
</g>
<!-- Node4 -->
<g id="node4" class="node"><title>Node4</title>
<g id="a_node4"><a xlink:href="classrc_engine_importer.html#a2e45417f1c29adf01483b2b8fca6b27b" target="_top" xlink:title="rcEngineImporter::run">
<polygon fill="white" stroke="black" points="931.646,-246 931.646,-266 1044.35,-266 1044.35,-246 931.646,-246"/>
<text text-anchor="middle" x="988" y="-252" font-family="Helvetica,sans-Serif" font-size="10.00">rcEngineImporter::run</text>
</a>
</g>
</g>
<!-- Node3&#45;&gt;Node4 -->
<g id="edge3" class="edge"><title>Node3&#45;&gt;Node4</title>
<path fill="none" stroke="midnightblue" d="M892.274,-256C905.504,-256 919.053,-256 931.615,-256"/>
<polygon fill="midnightblue" stroke="midnightblue" points="892.24,-252.5 882.24,-256 892.24,-259.5 892.24,-252.5"/>
</g>
<!-- Node7 -->
<g id="node7" class="node"><title>Node7</title>
<g id="a_node7"><a xlink:href="classrc_engine_impl.html#a3ad6dbc54b2a53acae4d345ff14974ae" target="_top" xlink:title="rcEngineImpl::analyzeFocusArea">
<polygon fill="white" stroke="black" points="370.631,-84 370.631,-104 533.369,-104 533.369,-84 370.631,-84"/>
<text text-anchor="middle" x="452" y="-90" font-family="Helvetica,sans-Serif" font-size="10.00">rcEngineImpl::analyzeFocusArea</text>
</a>
</g>
</g>
<!-- Node6&#45;&gt;Node7 -->
<g id="edge6" class="edge"><title>Node6&#45;&gt;Node7</title>
<path fill="none" stroke="midnightblue" d="M308.159,-134.207C316.75,-131.818 325.649,-129.338 334,-127 361.437,-119.32 392.473,-110.563 415.683,-104.001"/>
<polygon fill="midnightblue" stroke="midnightblue" points="306.965,-130.906 298.267,-136.956 308.839,-137.651 306.965,-130.906"/>
</g>
<!-- Node8 -->
<g id="node8" class="node"><title>Node8</title>
<g id="a_node8"><a xlink:href="classrc_engine_impl.html#ae320706cbcafd64f219018b9842c8290" target="_top" xlink:title="rcEngineImpl::analyze">
<polygon fill="white" stroke="black" points="581.808,-51 581.808,-71 696.192,-71 696.192,-51 581.808,-51"/>
<text text-anchor="middle" x="639" y="-57" font-family="Helvetica,sans-Serif" font-size="10.00">rcEngineImpl::analyze</text>
</a>
</g>
</g>
<!-- Node7&#45;&gt;Node8 -->
<g id="edge7" class="edge"><title>Node7&#45;&gt;Node8</title>
<path fill="none" stroke="midnightblue" d="M519.137,-82.2026C539.605,-78.5516 561.952,-74.5653 581.689,-71.0446"/>
<polygon fill="midnightblue" stroke="midnightblue" points="518.49,-78.7627 509.26,-83.9645 519.719,-85.654 518.49,-78.7627"/>
</g>
<!-- Node9 -->
<g id="node9" class="node"><title>Node9</title>
<g id="a_node9"><a xlink:href="classrc_engine_impl.html#a507e034c1e43ae1dd6ec95a11ec0bb02" target="_top" xlink:title="rcEngineImpl::process">
<polygon fill="white" stroke="black" points="758.535,-39 758.535,-59 873.465,-59 873.465,-39 758.535,-39"/>
<text text-anchor="middle" x="816" y="-45" font-family="Helvetica,sans-Serif" font-size="10.00">rcEngineImpl::process</text>
</a>
</g>
</g>
<!-- Node8&#45;&gt;Node9 -->
<g id="edge8" class="edge"><title>Node8&#45;&gt;Node9</title>
<path fill="none" stroke="midnightblue" d="M706.781,-56.4207C723.83,-55.2517 741.992,-54.0063 758.471,-52.8762"/>
<polygon fill="midnightblue" stroke="midnightblue" points="706.071,-52.9611 696.334,-57.1371 706.55,-59.9447 706.071,-52.9611"/>
</g>
<!-- Node10 -->
<g id="node10" class="node"><title>Node10</title>
<g id="a_node10"><a xlink:href="classrc_engine_analyzer.html#a064037f0ec3e68fcb11dabbcba790cdd" target="_top" xlink:title="rcEngineAnalyzer::run">
<polygon fill="white" stroke="black" points="758.808,-0 758.808,-20 873.192,-20 873.192,-0 758.808,-0"/>
<text text-anchor="middle" x="816" y="-6" font-family="Helvetica,sans-Serif" font-size="10.00">rcEngineAnalyzer::run</text>
</a>
</g>
</g>
<!-- Node8&#45;&gt;Node10 -->
<g id="edge9" class="edge"><title>Node8&#45;&gt;Node10</title>
<path fill="none" stroke="midnightblue" d="M681.338,-47.8958C700.372,-41.9613 723.283,-34.957 744,-29 754.424,-26.0027 765.753,-22.9012 776.237,-20.095"/>
<polygon fill="midnightblue" stroke="midnightblue" points="680.269,-44.563 671.771,-50.8904 682.36,-51.2435 680.269,-44.563"/>
</g>
<!-- Node13 -->
<g id="node13" class="node"><title>Node13</title>
<g id="a_node13"><a xlink:href="classrc_engine_impl.html#a3ee0191b2f88116db0b6d565d869667a" target="_top" xlink:title="rcEngineImpl::startPreview">
<polygon fill="white" stroke="black" points="384.535,-207 384.535,-227 519.465,-227 519.465,-207 384.535,-207"/>
<text text-anchor="middle" x="452" y="-213" font-family="Helvetica,sans-Serif" font-size="10.00">rcEngineImpl::startPreview</text>
</a>
</g>
</g>
<!-- Node12&#45;&gt;Node13 -->
<g id="edge12" class="edge"><title>Node12&#45;&gt;Node13</title>
<path fill="none" stroke="midnightblue" d="M338.048,-202.059C353.356,-204.084 369.335,-206.198 384.295,-208.177"/>
<polygon fill="midnightblue" stroke="midnightblue" points="338.476,-198.585 328.103,-200.744 337.558,-205.525 338.476,-198.585"/>
</g>
<!-- Node15 -->
<g id="node15" class="node"><title>Node15</title>
<g id="a_node15"><a xlink:href="classrc_engine_impl.html#af86b1890184a272b1b0eeb055c251e39" target="_top" xlink:title="rcEngineImpl::setSetting\lValue">
<polygon fill="white" stroke="black" points="389.806,-156 389.806,-188 514.194,-188 514.194,-156 389.806,-156"/>
<text text-anchor="start" x="397.806" y="-174" font-family="Helvetica,sans-Serif" font-size="10.00">rcEngineImpl::setSetting</text>
<text text-anchor="middle" x="452" y="-162" font-family="Helvetica,sans-Serif" font-size="10.00">Value</text>
</a>
</g>
</g>
<!-- Node12&#45;&gt;Node15 -->
<g id="edge14" class="edge"><title>Node12&#45;&gt;Node15</title>
<path fill="none" stroke="midnightblue" d="M338.086,-183.949C355.238,-182.134 373.231,-180.23 389.686,-178.488"/>
<polygon fill="midnightblue" stroke="midnightblue" points="337.679,-180.472 328.103,-185.005 338.416,-187.433 337.679,-180.472"/>
</g>
<!-- Node14 -->
<g id="node14" class="node"><title>Node14</title>
<g id="a_node14"><a xlink:href="classrc_engine_movie_capture.html#a0d8bfe4fd32e11bdbdb2c0ad113425ff" target="_top" xlink:title="rcEngineMovieCapture::run">
<polygon fill="white" stroke="black" points="747.136,-207 747.136,-227 884.864,-227 884.864,-207 747.136,-207"/>
<text text-anchor="middle" x="816" y="-213" font-family="Helvetica,sans-Serif" font-size="10.00">rcEngineMovieCapture::run</text>
</a>
</g>
</g>
<!-- Node13&#45;&gt;Node14 -->
<g id="edge13" class="edge"><title>Node13&#45;&gt;Node14</title>
<path fill="none" stroke="midnightblue" d="M529.914,-217C594.297,-217 685.296,-217 747.036,-217"/>
<polygon fill="midnightblue" stroke="midnightblue" points="529.818,-213.5 519.818,-217 529.818,-220.5 529.818,-213.5"/>
</g>
<!-- Node15&#45;&gt;Node2 -->
<g id="edge23" class="edge"><title>Node15&#45;&gt;Node2</title>
<path fill="none" stroke="midnightblue" d="M517.511,-191.416C523.141,-193.498 528.706,-195.701 534,-198 566.616,-212.163 602.352,-233.477 622.291,-245.939"/>
<polygon fill="midnightblue" stroke="midnightblue" points="518.605,-188.09 508.01,-188.029 516.254,-194.684 518.605,-188.09"/>
</g>
<!-- Node15&#45;&gt;Node8 -->
<g id="edge20" class="edge"><title>Node15&#45;&gt;Node8</title>
<path fill="none" stroke="midnightblue" d="M482.611,-149.648C505.732,-132.721 539.025,-109.478 570,-92 583.899,-84.1574 600.139,-76.6946 613.263,-71.0573"/>
<polygon fill="midnightblue" stroke="midnightblue" points="480.241,-147.047 474.274,-155.801 484.398,-152.679 480.241,-147.047"/>
</g>
<!-- Node16 -->
<g id="node16" class="node"><title>Node16</title>
<g id="a_node16"><a xlink:href="classrc_engine_impl.html#a6d36ffad5feaaa46f82bec2bf309b0f4" target="_top" xlink:title="rcEngineImpl::start">
<polygon fill="white" stroke="black" points="589.318,-165 589.318,-185 688.682,-185 688.682,-165 589.318,-165"/>
<text text-anchor="middle" x="639" y="-171" font-family="Helvetica,sans-Serif" font-size="10.00">rcEngineImpl::start</text>
</a>
</g>
</g>
<!-- Node15&#45;&gt;Node16 -->
<g id="edge15" class="edge"><title>Node15&#45;&gt;Node16</title>
<path fill="none" stroke="midnightblue" d="M524.473,-173.159C546.087,-173.51 569.318,-173.886 589.1,-174.207"/>
<polygon fill="midnightblue" stroke="midnightblue" points="524.401,-169.657 514.345,-172.995 524.287,-176.657 524.401,-169.657"/>
</g>
<!-- Node20 -->
<g id="node20" class="node"><title>Node20</title>
<g id="a_node20"><a xlink:href="classrc_engine_impl.html#a9a8ec782559561ddc80c85208bc859c7" target="_top" xlink:title="rcEngineImpl::setFromArgs">
<polygon fill="white" stroke="black" points="570.426,-101 570.426,-121 707.574,-121 707.574,-101 570.426,-101"/>
<text text-anchor="middle" x="639" y="-107" font-family="Helvetica,sans-Serif" font-size="10.00">rcEngineImpl::setFromArgs</text>
</a>
</g>
</g>
<!-- Node15&#45;&gt;Node20 -->
<g id="edge21" class="edge"><title>Node15&#45;&gt;Node20</title>
<path fill="none" stroke="midnightblue" d="M511.306,-152.775C543.281,-142.232 581.602,-129.596 607.665,-121.002"/>
<polygon fill="midnightblue" stroke="midnightblue" points="510.008,-149.517 501.607,-155.973 512.2,-156.165 510.008,-149.517"/>
</g>
<!-- Node16&#45;&gt;Node14 -->
<g id="edge16" class="edge"><title>Node16&#45;&gt;Node14</title>
<path fill="none" stroke="midnightblue" d="M691.941,-187.466C717.845,-193.683 748.759,-201.102 773.122,-206.949"/>
<polygon fill="midnightblue" stroke="midnightblue" points="692.458,-183.99 681.917,-185.06 690.824,-190.797 692.458,-183.99"/>
</g>
<!-- Node17 -->
<g id="node17" class="node"><title>Node17</title>
<g id="a_node17"><a xlink:href="classrc_engine_movie_playback.html#ab5cff6edcb8b3d901f96d0fde1766f18" target="_top" xlink:title="rcEngineMoviePlayback::run">
<polygon fill="white" stroke="black" points="744.636,-168 744.636,-188 887.364,-188 887.364,-168 744.636,-168"/>
<text text-anchor="middle" x="816" y="-174" font-family="Helvetica,sans-Serif" font-size="10.00">rcEngineMoviePlayback::run</text>
</a>
</g>
</g>
<!-- Node16&#45;&gt;Node17 -->
<g id="edge17" class="edge"><title>Node16&#45;&gt;Node17</title>
<path fill="none" stroke="midnightblue" d="M699.143,-176.014C713.744,-176.264 729.526,-176.535 744.603,-176.793"/>
<polygon fill="midnightblue" stroke="midnightblue" points="698.806,-172.508 688.747,-175.836 698.686,-179.507 698.806,-172.508"/>
</g>
<!-- Node18 -->
<g id="node18" class="node"><title>Node18</title>
<g id="a_node18"><a xlink:href="classrc_engine_movie_saver.html#abb624bdd44b94c6a21f9e34dfc2da081" target="_top" xlink:title="rcEngineMovieSaver\l::waitHdlr">
<polygon fill="white" stroke="black" points="761.867,-117 761.867,-149 870.133,-149 870.133,-117 761.867,-117"/>
<text text-anchor="start" x="769.867" y="-135" font-family="Helvetica,sans-Serif" font-size="10.00">rcEngineMovieSaver</text>
<text text-anchor="middle" x="816" y="-123" font-family="Helvetica,sans-Serif" font-size="10.00">::waitHdlr</text>
</a>
</g>
</g>
<!-- Node16&#45;&gt;Node18 -->
<g id="edge18" class="edge"><title>Node16&#45;&gt;Node18</title>
<path fill="none" stroke="midnightblue" d="M691.775,-162.574C713.846,-157.277 739.58,-151.101 761.805,-145.767"/>
<polygon fill="midnightblue" stroke="midnightblue" points="690.824,-159.203 681.917,-164.94 692.458,-166.01 690.824,-159.203"/>
</g>
<!-- Node19 -->
<g id="node19" class="node"><title>Node19</title>
<g id="a_node19"><a xlink:href="classrc_engine_movie_saver.html#a216e88884a3dd557507ea93dc3609a91" target="_top" xlink:title="rcEngineMovieSaver::run">
<polygon fill="white" stroke="black" points="923.862,-123 923.862,-143 1052.14,-143 1052.14,-123 923.862,-123"/>
<text text-anchor="middle" x="988" y="-129" font-family="Helvetica,sans-Serif" font-size="10.00">rcEngineMovieSaver::run</text>
</a>
</g>
</g>
<!-- Node18&#45;&gt;Node19 -->
<g id="edge19" class="edge"><title>Node18&#45;&gt;Node19</title>
<path fill="none" stroke="midnightblue" d="M880.45,-133C894.599,-133 909.601,-133 923.742,-133"/>
<polygon fill="midnightblue" stroke="midnightblue" points="880.323,-129.5 870.323,-133 880.323,-136.5 880.323,-129.5"/>
</g>
<!-- Node21 -->
<g id="node21" class="node"><title>Node21</title>
<g id="a_node21"><a xlink:href="rc__main_8cpp.html#a3c04138a5bfe5d72780bb7e82a18e627" target="_top" xlink:title="main">
<polygon fill="white" stroke="black" points="797.163,-78 797.163,-98 834.837,-98 834.837,-78 797.163,-78"/>
<text text-anchor="middle" x="816" y="-84" font-family="Helvetica,sans-Serif" font-size="10.00">main</text>
</a>
</g>
</g>
<!-- Node20&#45;&gt;Node21 -->
<g id="edge22" class="edge"><title>Node20&#45;&gt;Node21</title>
<path fill="none" stroke="midnightblue" d="M717.604,-100.801C747.159,-96.9162 778.24,-92.8313 797.125,-90.3493"/>
<polygon fill="midnightblue" stroke="midnightblue" points="717.118,-97.3343 707.66,-102.108 718.03,-104.275 717.118,-97.3343"/>
</g>
</g>
</svg>
        <g id="navigator" transform="translate(0 0)" fill="#404254">
                <rect fill="#f2f5e9" fill-opacity="0.5" stroke="#606060" stroke-width=".5" x="0" y="0" width="60" height="60"/>
                <use id="zoomplus" xlink:href="#zoomPlus" x="17" y="9" onmousedown="handleZoom(evt,'in')"/>
                <use id="zoomminus" xlink:href="#zoomMin" x="42" y="9" onmousedown="handleZoom(evt,'out')"/>
                <use id="reset" xlink:href="#resetDef" x="30" y="36" onmousedown="handleReset()"/>
                <g id="arrowUp" xlink:href="#dirArrow" transform="translate(30 24)" onmousedown="handlePan(0,-1)">
                  <use xlink:href="#rim" fill="#404040">
                        <set attributeName="fill" to="#808080" begin="arrowUp.mouseover" end="arrowUp.mouseout"/>
                  </use>
                  <path fill="none" stroke="white" stroke-width="1.5" d="M0,-3.0v7 M-2.5,-0.5L0,-3.0L2.5,-0.5"/>
                </g>
                <g id="arrowRight" xlink:href="#dirArrow" transform="rotate(90) translate(36 -43)" onmousedown="handlePan(1,0)">
                  <use xlink:href="#rim" fill="#404040">
                        <set attributeName="fill" to="#808080" begin="arrowRight.mouseover" end="arrowRight.mouseout"/>
                  </use>
                  <path fill="none" stroke="white" stroke-width="1.5" d="M0,-3.0v7 M-2.5,-0.5L0,-3.0L2.5,-0.5"/>
                </g>
                <g id="arrowDown" xlink:href="#dirArrow" transform="rotate(180) translate(-30 -48)" onmousedown="handlePan(0,1)">
                  <use xlink:href="#rim" fill="#404040">
                        <set attributeName="fill" to="#808080" begin="arrowDown.mouseover" end="arrowDown.mouseout"/>
                  </use>
                  <path fill="none" stroke="white" stroke-width="1.5" d="M0,-3.0v7 M-2.5,-0.5L0,-3.0L2.5,-0.5"/>
                </g>
                <g id="arrowLeft" xlink:href="#dirArrow" transform="rotate(270) translate(-36 17)" onmousedown="handlePan(-1,0)">
                  <use xlink:href="#rim" fill="#404040">
                        <set attributeName="fill" to="#808080" begin="arrowLeft.mouseover" end="arrowLeft.mouseout"/>
                  </use>
                  <path fill="none" stroke="white" stroke-width="1.5" d="M0,-3.0v7 M-2.5,-0.5L0,-3.0L2.5,-0.5"/>
                </g>
        </g>
        <svg viewBox="0 0 15 15" width="100%" height="30px" preserveAspectRatio="xMaxYMin meet">
         <g id="arrow_out" transform="scale(0.3 0.3)">
          <a xlink:href="classrc_engine_impl_a17f93f9688e5e9d542c85c664e03e0c3_icgraph_org.svg" target="_base">
           <rect id="button" ry="5" rx="5" y="6" x="6" height="38" width="38"
                fill="#f2f5e9" fill-opacity="0.5" stroke="#606060" stroke-width="1.0"/>
           <path id="arrow"
             d="M 11.500037,31.436501 C 11.940474,20.09759 22.043105,11.32322 32.158766,21.979434 L 37.068811,17.246167 C 37.068811,17.246167 37.088388,32 37.088388,32 L 22.160133,31.978069 C 22.160133,31.978069 26.997745,27.140456 26.997745,27.140456 C 18.528582,18.264221 13.291696,25.230495 11.500037,31.436501 z"
             style="fill:#404040;"/>
          </a>
         </g>
        </svg>
</svg>
