<?xml version="1.0" encoding="UTF-8" standalone="no"?>
<!DOCTYPE svg PUBLIC "-//W3C//DTD SVG 1.1//EN"
 "http://www.w3.org/Graphics/SVG/1.1/DTD/svg11.dtd">
<!-- Generated by graphviz version 2.32.0 (20130916.1925)
 -->
<!-- Title: arg_vector::operator+= Pages: 1 -->
<svg width="382pt" height="106pt"
 viewBox="0.00 0.00 382.00 106.00" xmlns="http://www.w3.org/2000/svg" xmlns:xlink="http://www.w3.org/1999/xlink">
<g id="graph0" class="graph" transform="scale(1 1) rotate(0) translate(4 102)">
<title>arg_vector::operator+=</title>
<polygon fill="white" stroke="white" points="-4,5 -4,-102 379,-102 379,5 -4,5"/>
<!-- Node1 -->
<g id="node1" class="node"><title>Node1</title>
<polygon fill="#bfbfbf" stroke="black" points="0.135742,-19 0.135742,-39 117.864,-39 117.864,-19 0.135742,-19"/>
<text text-anchor="middle" x="59" y="-25" font-family="Helvetica,sans-Serif" font-size="10.00">arg_vector::operator+=</text>
</g>
<!-- Node2 -->
<g id="node2" class="node"><title>Node2</title>
<g id="a_node2"><a xlink:href="classarg__vector.html#ad6dd90833ec2bff880b383ae6559e102" target="_top" xlink:title="arg_vector::insert">
<polygon fill="white" stroke="black" points="154.372,-39 154.372,-59 247.628,-59 247.628,-39 154.372,-39"/>
<text text-anchor="middle" x="201" y="-45" font-family="Helvetica,sans-Serif" font-size="10.00">arg_vector::insert</text>
</a>
</g>
</g>
<!-- Node1&#45;&gt;Node2 -->
<g id="edge1" class="edge"><title>Node1&#45;&gt;Node2</title>
<path fill="none" stroke="midnightblue" d="M118.156,-37.308C126.796,-38.5423 135.683,-39.8119 144.272,-41.0388"/>
<polygon fill="midnightblue" stroke="midnightblue" points="143.788,-44.5052 154.183,-42.4547 144.778,-37.5756 143.788,-44.5052"/>
</g>
<!-- Node5 -->
<g id="node5" class="node"><title>Node5</title>
<g id="a_node5"><a xlink:href="classarg__vector.html#abbd4abb8335497d4d81c64b191498f28" target="_top" xlink:title="arg_vector::size">
<polygon fill="white" stroke="black" points="285.707,-0 285.707,-20 372.293,-20 372.293,-0 285.707,-0"/>
<text text-anchor="middle" x="329" y="-6" font-family="Helvetica,sans-Serif" font-size="10.00">arg_vector::size</text>
</a>
</g>
</g>
<!-- Node1&#45;&gt;Node5 -->
<g id="edge5" class="edge"><title>Node1&#45;&gt;Node5</title>
<path fill="none" stroke="midnightblue" d="M118.152,-24.8773C164.855,-21.5663 229.886,-16.9558 275.13,-13.7483"/>
<polygon fill="midnightblue" stroke="midnightblue" points="275.597,-17.224 285.324,-13.0255 275.101,-10.2416 275.597,-17.224"/>
</g>
<!-- Node3 -->
<g id="node3" class="node"><title>Node3</title>
<g id="a_node3"><a xlink:href="classarg__vector.html#a2cd7f5437dfc3421fa9ab7501c4ff764" target="_top" xlink:title="arg_vector::clear">
<polygon fill="white" stroke="black" points="283.761,-78 283.761,-98 374.239,-98 374.239,-78 283.761,-78"/>
<text text-anchor="middle" x="329" y="-84" font-family="Helvetica,sans-Serif" font-size="10.00">arg_vector::clear</text>
</a>
</g>
</g>
<!-- Node2&#45;&gt;Node3 -->
<g id="edge2" class="edge"><title>Node2&#45;&gt;Node3</title>
<path fill="none" stroke="midnightblue" d="M234.448,-59.0435C250.174,-63.911 269.251,-69.8158 286.066,-75.0203"/>
<polygon fill="midnightblue" stroke="midnightblue" points="285.074,-78.3772 295.662,-77.9906 287.144,-71.6902 285.074,-78.3772"/>
</g>
<!-- Node4 -->
<g id="node4" class="node"><title>Node4</title>
<g id="a_node4"><a xlink:href="subprocesses_8cpp.html#a926651a6370abeed0ad2d73468d1af99" target="_top" xlink:title="copy_string">
<polygon fill="white" stroke="black" points="295.431,-39 295.431,-59 362.569,-59 362.569,-39 295.431,-39"/>
<text text-anchor="middle" x="329" y="-45" font-family="Helvetica,sans-Serif" font-size="10.00">copy_string</text>
</a>
</g>
</g>
<!-- Node2&#45;&gt;Node4 -->
<g id="edge3" class="edge"><title>Node2&#45;&gt;Node4</title>
<path fill="none" stroke="midnightblue" d="M247.845,-49C260.036,-49 273.154,-49 285.176,-49"/>
<polygon fill="midnightblue" stroke="midnightblue" points="285.409,-52.5001 295.409,-49 285.408,-45.5001 285.409,-52.5001"/>
</g>
<!-- Node2&#45;&gt;Node5 -->
<g id="edge4" class="edge"><title>Node2&#45;&gt;Node5</title>
<path fill="none" stroke="midnightblue" d="M234.448,-38.9565C250.174,-34.089 269.251,-28.1842 286.066,-22.9797"/>
<polygon fill="midnightblue" stroke="midnightblue" points="287.144,-26.3098 295.662,-20.0094 285.074,-19.6228 287.144,-26.3098"/>
</g>
</g>
</svg>
