<?xml version="1.0" encoding="UTF-8" standalone="no"?>
<!DOCTYPE svg PUBLIC "-//W3C//DTD SVG 1.1//EN"
 "http://www.w3.org/Graphics/SVG/1.1/DTD/svg11.dtd">
<!-- Generated by graphviz version 2.32.0 (20130916.1925)
 -->
<!-- Title: rcGraphicsSegmentIteratorImpl::getSegmentCount Pages: 1 -->
<!--zoomable 79 -->
<svg id="main" version="1.1" xmlns="http://www.w3.org/2000/svg" xmlns:xlink="http://www.w3.org/1999/xlink" xml:space="preserve" onload="init(evt)">
        <defs>
                <circle id="rim" cx="0" cy="0" r="7"/>
                <circle id="rim2" cx="0" cy="0" r="3.5"/>
                <g id="zoomPlus">
                        <use xlink:href="#rim" fill="#404040">
                                <set attributeName="fill" to="#808080" begin="zoomplus.mouseover" end="zoomplus.mouseout"/>
                        </use>
                        <path d="M-4,0h8M0,-4v8" fill="none" stroke="white" stroke-width="1.5" pointer-events="none"/>
                </g>
                <g id="zoomMin">
                        <use xlink:href="#rim" fill="#404040">
                                <set attributeName="fill" to="#808080" begin="zoomminus.mouseover" end="zoomminus.mouseout"/>
                        </use>
                        <path d="M-4,0h8" fill="none" stroke="white" stroke-width="1.5" pointer-events="none"/>
                </g>
                <g id="dirArrow">
                        <path fill="none" stroke="white" stroke-width="1.5" d="M0,-3.0v7 M-2.5,-0.5L0,-3.0L2.5,-0.5"/>
                </g>
               <g id="resetDef">
                       <use xlink:href="#rim2" fill="#404040">
                               <set attributeName="fill" to="#808080" begin="reset.mouseover" end="reset.mouseout"/>
                       </use>
               </g>
        </defs>

<script type="text/javascript">
var viewWidth = 562;
var viewHeight = 79;
var sectionId = 'dynsection-8';
</script>
<script xlink:href="svgpan.js"/>
<svg id="graph" class="graph">
<g id="viewport">
<title>rcGraphicsSegmentIteratorImpl::getSegmentCount</title>
<polygon fill="white" stroke="white" points="-4,5 -4,-75 559,-75 559,5 -4,5"/>
<!-- Node1 -->
<g id="node1" class="node"><title>Node1</title>
<polygon fill="#bfbfbf" stroke="black" points="-0.0244141,-16 -0.0244141,-48 136.024,-48 136.024,-16 -0.0244141,-16"/>
<text text-anchor="start" x="7.97559" y="-34" font-family="Helvetica,sans-Serif" font-size="10.00">rcGraphicsSegmentIterator</text>
<text text-anchor="middle" x="68" y="-22" font-family="Helvetica,sans-Serif" font-size="10.00">Impl::getSegmentCount</text>
</g>
<!-- Node2 -->
<g id="node2" class="node"><title>Node2</title>
<g id="a_node2"><a xlink:href="classrc_segment_iterator_impl.html#a955c765e3e0bfb5f15163b001fe6d56a" target="_top" xlink:title="rcSegmentIteratorImpl\l::getSegmentCount">
<polygon fill="white" stroke="black" points="172.537,-16 172.537,-48 287.463,-48 287.463,-16 172.537,-16"/>
<text text-anchor="start" x="180.537" y="-34" font-family="Helvetica,sans-Serif" font-size="10.00">rcSegmentIteratorImpl</text>
<text text-anchor="middle" x="230" y="-22" font-family="Helvetica,sans-Serif" font-size="10.00">::getSegmentCount</text>
</a>
</g>
</g>
<!-- Node1&#45;&gt;Node2 -->
<g id="edge1" class="edge"><title>Node1&#45;&gt;Node2</title>
<path fill="none" stroke="midnightblue" d="M136.391,-32C144.891,-32 153.586,-32 162.079,-32"/>
<polygon fill="midnightblue" stroke="midnightblue" points="162.312,-35.5001 172.312,-32 162.312,-28.5001 162.312,-35.5001"/>
</g>
<!-- Node3 -->
<g id="node3" class="node"><title>Node3</title>
<g id="a_node3"><a xlink:href="classrc_segment_iterator_impl.html#a22abc78fcb201cdca524b10299558f03" target="_top" xlink:title="rcSegmentIteratorImpl\l::lock">
<polygon fill="white" stroke="black" points="325.537,-39 325.537,-71 440.463,-71 440.463,-39 325.537,-39"/>
<text text-anchor="start" x="333.537" y="-57" font-family="Helvetica,sans-Serif" font-size="10.00">rcSegmentIteratorImpl</text>
<text text-anchor="middle" x="383" y="-45" font-family="Helvetica,sans-Serif" font-size="10.00">::lock</text>
</a>
</g>
</g>
<!-- Node2&#45;&gt;Node3 -->
<g id="edge2" class="edge"><title>Node2&#45;&gt;Node3</title>
<path fill="none" stroke="midnightblue" d="M287.656,-40.6298C296.752,-42.0152 306.237,-43.46 315.537,-44.8765"/>
<polygon fill="midnightblue" stroke="midnightblue" points="315.115,-48.3525 325.528,-46.3983 316.169,-41.4324 315.115,-48.3525"/>
</g>
<!-- Node5 -->
<g id="node5" class="node"><title>Node5</title>
<g id="a_node5"><a xlink:href="classrc_track_impl.html#a7364f3ea7bc5feb9bb14a2600c949925" target="_top" xlink:title="rcTrackImpl::segments">
<polygon fill="white" stroke="black" points="324.617,-0 324.617,-20 441.383,-20 441.383,-0 324.617,-0"/>
<text text-anchor="middle" x="383" y="-6" font-family="Helvetica,sans-Serif" font-size="10.00">rcTrackImpl::segments</text>
</a>
</g>
</g>
<!-- Node2&#45;&gt;Node5 -->
<g id="edge4" class="edge"><title>Node2&#45;&gt;Node5</title>
<path fill="none" stroke="midnightblue" d="M287.656,-23.7454C296.412,-22.4698 305.529,-21.1415 314.494,-19.8354"/>
<polygon fill="midnightblue" stroke="midnightblue" points="315.132,-23.2794 324.523,-18.3741 314.123,-16.3525 315.132,-23.2794"/>
</g>
<!-- Node4 -->
<g id="node4" class="node"><title>Node4</title>
<g id="a_node4"><a xlink:href="classrc_mutex.html#ab3d2138979404d7f06abe308ca2177a8" target="_top" xlink:title="rcMutex::lock">
<polygon fill="white" stroke="black" points="478.549,-45 478.549,-65 553.451,-65 553.451,-45 478.549,-45"/>
<text text-anchor="middle" x="516" y="-51" font-family="Helvetica,sans-Serif" font-size="10.00">rcMutex::lock</text>
</a>
</g>
</g>
<!-- Node3&#45;&gt;Node4 -->
<g id="edge3" class="edge"><title>Node3&#45;&gt;Node4</title>
<path fill="none" stroke="midnightblue" d="M440.697,-55C449.842,-55 459.22,-55 468.1,-55"/>
<polygon fill="midnightblue" stroke="midnightblue" points="468.253,-58.5001 478.253,-55 468.253,-51.5001 468.253,-58.5001"/>
</g>
</g>
</svg>
        <g id="navigator" transform="translate(0 0)" fill="#404254">
                <rect fill="#f2f5e9" fill-opacity="0.5" stroke="#606060" stroke-width=".5" x="0" y="0" width="60" height="60"/>
                <use id="zoomplus" xlink:href="#zoomPlus" x="17" y="9" onmousedown="handleZoom(evt,'in')"/>
                <use id="zoomminus" xlink:href="#zoomMin" x="42" y="9" onmousedown="handleZoom(evt,'out')"/>
                <use id="reset" xlink:href="#resetDef" x="30" y="36" onmousedown="handleReset()"/>
                <g id="arrowUp" xlink:href="#dirArrow" transform="translate(30 24)" onmousedown="handlePan(0,-1)">
                  <use xlink:href="#rim" fill="#404040">
                        <set attributeName="fill" to="#808080" begin="arrowUp.mouseover" end="arrowUp.mouseout"/>
                  </use>
                  <path fill="none" stroke="white" stroke-width="1.5" d="M0,-3.0v7 M-2.5,-0.5L0,-3.0L2.5,-0.5"/>
                </g>
                <g id="arrowRight" xlink:href="#dirArrow" transform="rotate(90) translate(36 -43)" onmousedown="handlePan(1,0)">
                  <use xlink:href="#rim" fill="#404040">
                        <set attributeName="fill" to="#808080" begin="arrowRight.mouseover" end="arrowRight.mouseout"/>
                  </use>
                  <path fill="none" stroke="white" stroke-width="1.5" d="M0,-3.0v7 M-2.5,-0.5L0,-3.0L2.5,-0.5"/>
                </g>
                <g id="arrowDown" xlink:href="#dirArrow" transform="rotate(180) translate(-30 -48)" onmousedown="handlePan(0,1)">
                  <use xlink:href="#rim" fill="#404040">
                        <set attributeName="fill" to="#808080" begin="arrowDown.mouseover" end="arrowDown.mouseout"/>
                  </use>
                  <path fill="none" stroke="white" stroke-width="1.5" d="M0,-3.0v7 M-2.5,-0.5L0,-3.0L2.5,-0.5"/>
                </g>
                <g id="arrowLeft" xlink:href="#dirArrow" transform="rotate(270) translate(-36 17)" onmousedown="handlePan(-1,0)">
                  <use xlink:href="#rim" fill="#404040">
                        <set attributeName="fill" to="#808080" begin="arrowLeft.mouseover" end="arrowLeft.mouseout"/>
                  </use>
                  <path fill="none" stroke="white" stroke-width="1.5" d="M0,-3.0v7 M-2.5,-0.5L0,-3.0L2.5,-0.5"/>
                </g>
        </g>
        <svg viewBox="0 0 15 15" width="100%" height="30px" preserveAspectRatio="xMaxYMin meet">
         <g id="arrow_out" transform="scale(0.3 0.3)">
          <a xlink:href="classrc_graphics_segment_iterator_impl_abcfcc41931bf5145b91b9c49a91c8add_cgraph_org.svg" target="_base">
           <rect id="button" ry="5" rx="5" y="6" x="6" height="38" width="38"
                fill="#f2f5e9" fill-opacity="0.5" stroke="#606060" stroke-width="1.0"/>
           <path id="arrow"
             d="M 11.500037,31.436501 C 11.940474,20.09759 22.043105,11.32322 32.158766,21.979434 L 37.068811,17.246167 C 37.068811,17.246167 37.088388,32 37.088388,32 L 22.160133,31.978069 C 22.160133,31.978069 26.997745,27.140456 26.997745,27.140456 C 18.528582,18.264221 13.291696,25.230495 11.500037,31.436501 z"
             style="fill:#404040;"/>
          </a>
         </g>
        </svg>
</svg>
