<?xml version="1.0" encoding="UTF-8" standalone="no"?>
<!DOCTYPE svg PUBLIC "-//W3C//DTD SVG 1.1//EN"
 "http://www.w3.org/Graphics/SVG/1.1/DTD/svg11.dtd">
<!-- Generated by graphviz version 2.32.0 (20130916.1925)
 -->
<!-- Title: rcTimingInfo::touch Pages: 1 -->
<svg width="730pt" height="67pt"
 viewBox="0.00 0.00 730.00 67.00" xmlns="http://www.w3.org/2000/svg" xmlns:xlink="http://www.w3.org/1999/xlink">
<g id="graph0" class="graph" transform="scale(1 1) rotate(0) translate(4 63)">
<title>rcTimingInfo::touch</title>
<polygon fill="white" stroke="white" points="-4,5 -4,-63 727,-63 727,5 -4,5"/>
<!-- Node1 -->
<g id="node1" class="node"><title>Node1</title>
<polygon fill="#bfbfbf" stroke="black" points="0.666016,-19 0.666016,-39 101.334,-39 101.334,-19 0.666016,-19"/>
<text text-anchor="middle" x="51" y="-25" font-family="Helvetica,sans-Serif" font-size="10.00">rcTimingInfo::touch</text>
</g>
<!-- Node2 -->
<g id="node2" class="node"><title>Node2</title>
<g id="a_node2"><a xlink:href="classrc_timing_info.html#a50ba9cb10b77d8673443680f2a42e4c9" target="_top" xlink:title="rcTimingInfo::touch">
<polygon fill="white" stroke="black" points="138.666,-19 138.666,-39 239.334,-39 239.334,-19 138.666,-19"/>
<text text-anchor="middle" x="189" y="-25" font-family="Helvetica,sans-Serif" font-size="10.00">rcTimingInfo::touch</text>
</a>
</g>
</g>
<!-- Node1&#45;&gt;Node2 -->
<g id="edge1" class="edge"><title>Node1&#45;&gt;Node2</title>
<path fill="none" stroke="midnightblue" d="M101.484,-29C110.203,-29 119.361,-29 128.323,-29"/>
<polygon fill="midnightblue" stroke="midnightblue" points="128.325,-32.5001 138.325,-29 128.325,-25.5001 128.325,-32.5001"/>
</g>
<!-- Node3 -->
<g id="node3" class="node"><title>Node3</title>
<g id="a_node3"><a xlink:href="classrc_timestamp.html#a7e749f376ff8741e79a2dbba2419e78f" target="_top" xlink:title="rcTimestamp::now">
<polygon fill="white" stroke="black" points="277.341,-39 277.341,-59 374.659,-59 374.659,-39 277.341,-39"/>
<text text-anchor="middle" x="326" y="-45" font-family="Helvetica,sans-Serif" font-size="10.00">rcTimestamp::now</text>
</a>
</g>
</g>
<!-- Node2&#45;&gt;Node3 -->
<g id="edge2" class="edge"><title>Node2&#45;&gt;Node3</title>
<path fill="none" stroke="midnightblue" d="M239.502,-36.3337C248.566,-37.6764 258.096,-39.0883 267.372,-40.4625"/>
<polygon fill="midnightblue" stroke="midnightblue" points="266.898,-43.9304 277.303,-41.9338 267.924,-37.006 266.898,-43.9304"/>
</g>
<!-- Node5 -->
<g id="node5" class="node"><title>Node5</title>
<g id="a_node5"><a xlink:href="classrc_timestamp.html#a7a76776edb5c337196cf10c009339d15" target="_top" xlink:title="rcTimestamp::secs">
<polygon fill="white" stroke="black" points="276.232,-0 276.232,-20 375.768,-20 375.768,-0 276.232,-0"/>
<text text-anchor="middle" x="326" y="-6" font-family="Helvetica,sans-Serif" font-size="10.00">rcTimestamp::secs</text>
</a>
</g>
</g>
<!-- Node2&#45;&gt;Node5 -->
<g id="edge4" class="edge"><title>Node2&#45;&gt;Node5</title>
<path fill="none" stroke="midnightblue" d="M239.502,-22.033C248.048,-20.8302 257.009,-19.5691 265.781,-18.3346"/>
<polygon fill="midnightblue" stroke="midnightblue" points="266.54,-21.7623 275.955,-16.9027 265.564,-14.8306 266.54,-21.7623"/>
</g>
<!-- Node4 -->
<g id="node4" class="node"><title>Node4</title>
<g id="a_node4"><a xlink:href="rc__timestamp__mac_8cpp.html#af7988734f76c2effcc4118da588b8779" target="_top" xlink:title="getCurrentTimestamp">
<polygon fill="white" stroke="black" points="429.833,-39 429.833,-59 542.167,-59 542.167,-39 429.833,-39"/>
<text text-anchor="middle" x="486" y="-45" font-family="Helvetica,sans-Serif" font-size="10.00">getCurrentTimestamp</text>
</a>
</g>
</g>
<!-- Node3&#45;&gt;Node4 -->
<g id="edge3" class="edge"><title>Node3&#45;&gt;Node4</title>
<path fill="none" stroke="midnightblue" d="M374.834,-49C388.855,-49 404.437,-49 419.363,-49"/>
<polygon fill="midnightblue" stroke="midnightblue" points="419.564,-52.5001 429.564,-49 419.564,-45.5001 419.564,-52.5001"/>
</g>
<!-- Node6 -->
<g id="node6" class="node"><title>Node6</title>
<g id="a_node6"><a xlink:href="rc__timestamp_8h.html#ac624900be52fa7f30d3ad72543cc725d" target="_top" xlink:title="convertTimestampToSeconds">
<polygon fill="white" stroke="black" points="412.321,-0 412.321,-20 559.679,-20 559.679,-0 412.321,-0"/>
<text text-anchor="middle" x="486" y="-6" font-family="Helvetica,sans-Serif" font-size="10.00">convertTimestampToSeconds</text>
</a>
</g>
</g>
<!-- Node5&#45;&gt;Node6 -->
<g id="edge5" class="edge"><title>Node5&#45;&gt;Node6</title>
<path fill="none" stroke="midnightblue" d="M376.126,-10C384.419,-10 393.227,-10 402.101,-10"/>
<polygon fill="midnightblue" stroke="midnightblue" points="402.124,-13.5001 412.124,-10 402.124,-6.5001 402.124,-13.5001"/>
</g>
<!-- Node7 -->
<g id="node7" class="node"><title>Node7</title>
<g id="a_node7"><a xlink:href="rc__timestamp__mac_8cpp.html#a7962719b626553bf7a913f7c2671b777" target="_top" xlink:title="getTimestampResolution">
<polygon fill="white" stroke="black" points="595.88,-0 595.88,-20 722.12,-20 722.12,-0 595.88,-0"/>
<text text-anchor="middle" x="659" y="-6" font-family="Helvetica,sans-Serif" font-size="10.00">getTimestampResolution</text>
</a>
</g>
</g>
<!-- Node6&#45;&gt;Node7 -->
<g id="edge6" class="edge"><title>Node6&#45;&gt;Node7</title>
<path fill="none" stroke="midnightblue" d="M560.015,-10C568.47,-10 577.09,-10 585.537,-10"/>
<polygon fill="midnightblue" stroke="midnightblue" points="585.731,-13.5001 595.731,-10 585.731,-6.5001 585.731,-13.5001"/>
</g>
</g>
</svg>
