<?xml version="1.0" encoding="UTF-8" standalone="no"?>
<!DOCTYPE svg PUBLIC "-//W3C//DTD SVG 1.1//EN"
 "http://www.w3.org/Graphics/SVG/1.1/DTD/svg11.dtd">
<!-- Generated by graphviz version 2.32.0 (20130916.1925)
 -->
<!-- Title: rcFrame::rowUpdate Pages: 1 -->
<svg width="624pt" height="67pt"
 viewBox="0.00 0.00 624.00 67.00" xmlns="http://www.w3.org/2000/svg" xmlns:xlink="http://www.w3.org/1999/xlink">
<g id="graph0" class="graph" transform="scale(1 1) rotate(0) translate(4 63)">
<title>rcFrame::rowUpdate</title>
<polygon fill="white" stroke="white" points="-4,5 -4,-63 621,-63 621,5 -4,5"/>
<!-- Node1 -->
<g id="node1" class="node"><title>Node1</title>
<polygon fill="#bfbfbf" stroke="black" points="0.431152,-19 0.431152,-39 107.569,-39 107.569,-19 0.431152,-19"/>
<text text-anchor="middle" x="54" y="-25" font-family="Helvetica,sans-Serif" font-size="10.00">rcFrame::rowUpdate</text>
</g>
<!-- Node2 -->
<g id="node2" class="node"><title>Node2</title>
<g id="a_node2"><a xlink:href="rc__dcam__capture_8cpp.html#a5bb44dd407ae5255003d9c7b0101a519" target="_top" xlink:title="yourDisplayCallback">
<polygon fill="white" stroke="black" points="144.705,-19 144.705,-39 251.295,-39 251.295,-19 144.705,-19"/>
<text text-anchor="middle" x="198" y="-25" font-family="Helvetica,sans-Serif" font-size="10.00">yourDisplayCallback</text>
</a>
</g>
</g>
<!-- Node1&#45;&gt;Node2 -->
<g id="edge1" class="edge"><title>Node1&#45;&gt;Node2</title>
<path fill="none" stroke="midnightblue" d="M118.13,-29C126.959,-29 135.951,-29 144.553,-29"/>
<polygon fill="midnightblue" stroke="midnightblue" points="117.876,-25.5001 107.876,-29 117.876,-32.5001 117.876,-25.5001"/>
</g>
<!-- Node3 -->
<g id="node3" class="node"><title>Node3</title>
<g id="a_node3"><a xlink:href="rc__dcam__capture_8cpp.html#a8fcb91e1b2e6adaad571752a59ac3dad" target="_top" xlink:title="InitializeMungData2">
<polygon fill="white" stroke="black" points="288.086,-19 288.086,-39 391.914,-39 391.914,-19 288.086,-19"/>
<text text-anchor="middle" x="340" y="-25" font-family="Helvetica,sans-Serif" font-size="10.00">InitializeMungData2</text>
</a>
</g>
</g>
<!-- Node2&#45;&gt;Node3 -->
<g id="edge2" class="edge"><title>Node2&#45;&gt;Node3</title>
<path fill="none" stroke="midnightblue" d="M261.749,-29C270.544,-29 279.494,-29 288.034,-29"/>
<polygon fill="midnightblue" stroke="midnightblue" points="261.529,-25.5001 251.529,-29 261.529,-32.5001 261.529,-25.5001"/>
</g>
<!-- Node4 -->
<g id="node4" class="node"><title>Node4</title>
<g id="a_node4"><a xlink:href="rc__dcam__capture_8h.html#aa3528bb0b33aa9119084d4b082f8c0aa" target="_top" xlink:title="rfDCAMVideoCapture">
<polygon fill="white" stroke="black" points="428.736,-39 428.736,-59 541.264,-59 541.264,-39 428.736,-39"/>
<text text-anchor="middle" x="485" y="-45" font-family="Helvetica,sans-Serif" font-size="10.00">rfDCAMVideoCapture</text>
</a>
</g>
</g>
<!-- Node3&#45;&gt;Node4 -->
<g id="edge3" class="edge"><title>Node3&#45;&gt;Node4</title>
<path fill="none" stroke="midnightblue" d="M402.251,-37.5666C410.9,-38.7763 419.754,-40.0146 428.292,-41.2086"/>
<polygon fill="midnightblue" stroke="midnightblue" points="402.611,-34.0829 392.222,-36.164 401.641,-41.0154 402.611,-34.0829"/>
</g>
<!-- Node6 -->
<g id="node6" class="node"><title>Node6</title>
<g id="a_node6"><a xlink:href="rc__qtime__capture_8h.html#adf4b66b022a2bc6ba21cddbc179756cb" target="_top" xlink:title="rfQTVideoCapture">
<polygon fill="white" stroke="black" points="436.514,-0 436.514,-20 533.486,-20 533.486,-0 436.514,-0"/>
<text text-anchor="middle" x="485" y="-6" font-family="Helvetica,sans-Serif" font-size="10.00">rfQTVideoCapture</text>
</a>
</g>
</g>
<!-- Node3&#45;&gt;Node6 -->
<g id="edge5" class="edge"><title>Node3&#45;&gt;Node6</title>
<path fill="none" stroke="midnightblue" d="M402.181,-20.871C413.655,-19.3465 425.491,-17.774 436.473,-16.3148"/>
<polygon fill="midnightblue" stroke="midnightblue" points="401.674,-17.4075 392.222,-22.1942 402.596,-24.3466 401.674,-17.4075"/>
</g>
<!-- Node5 -->
<g id="node5" class="node"><title>Node5</title>
<g id="a_node5"><a xlink:href="rc__dcam__main_8cpp.html#a3c04138a5bfe5d72780bb7e82a18e627" target="_top" xlink:title="main">
<polygon fill="white" stroke="black" points="578.163,-39 578.163,-59 615.837,-59 615.837,-39 578.163,-39"/>
<text text-anchor="middle" x="597" y="-45" font-family="Helvetica,sans-Serif" font-size="10.00">main</text>
</a>
</g>
</g>
<!-- Node4&#45;&gt;Node5 -->
<g id="edge4" class="edge"><title>Node4&#45;&gt;Node5</title>
<path fill="none" stroke="midnightblue" d="M551.526,-49C561.212,-49 570.445,-49 577.963,-49"/>
<polygon fill="midnightblue" stroke="midnightblue" points="551.322,-45.5001 541.322,-49 551.322,-52.5001 551.322,-45.5001"/>
</g>
<!-- Node7 -->
<g id="node7" class="node"><title>Node7</title>
<g id="a_node7"><a xlink:href="rc__qtime__main_8cpp.html#a3c04138a5bfe5d72780bb7e82a18e627" target="_top" xlink:title="main">
<polygon fill="white" stroke="black" points="578.163,-0 578.163,-20 615.837,-20 615.837,-0 578.163,-0"/>
<text text-anchor="middle" x="597" y="-6" font-family="Helvetica,sans-Serif" font-size="10.00">main</text>
</a>
</g>
</g>
<!-- Node6&#45;&gt;Node7 -->
<g id="edge6" class="edge"><title>Node6&#45;&gt;Node7</title>
<path fill="none" stroke="midnightblue" d="M543.663,-10C556.213,-10 568.578,-10 578.135,-10"/>
<polygon fill="midnightblue" stroke="midnightblue" points="543.608,-6.5001 533.608,-10 543.608,-13.5001 543.608,-6.5001"/>
</g>
</g>
</svg>
