<?xml version="1.0" encoding="UTF-8" standalone="no"?>
<!DOCTYPE svg PUBLIC "-//W3C//DTD SVG 1.1//EN"
 "http://www.w3.org/Graphics/SVG/1.1/DTD/svg11.dtd">
<!-- Generated by graphviz version 2.32.0 (20130916.1925)
 -->
<!-- Title: rcMenuBar::doSave Pages: 1 -->
<svg width="1502pt" height="550pt"
 viewBox="0.00 0.00 1502.00 550.00" xmlns="http://www.w3.org/2000/svg" xmlns:xlink="http://www.w3.org/1999/xlink">
<g id="graph0" class="graph" transform="scale(1 1) rotate(0) translate(4 546)">
<title>rcMenuBar::doSave</title>
<polygon fill="white" stroke="white" points="-4,5 -4,-546 1499,-546 1499,5 -4,5"/>
<!-- Node1 -->
<g id="node1" class="node"><title>Node1</title>
<polygon fill="#bfbfbf" stroke="black" points="-0.189453,-280 -0.189453,-300 104.189,-300 104.189,-280 -0.189453,-280"/>
<text text-anchor="middle" x="52" y="-286" font-family="Helvetica,sans-Serif" font-size="10.00">rcMenuBar::doSave</text>
</g>
<!-- Node2 -->
<g id="node2" class="node"><title>Node2</title>
<g id="a_node2"><a xlink:href="classrc_model_domain.html#a8fafb31fce65382de4c9d4c35b72eb3d" target="_top" xlink:title="rcModelDomain::getModelDomain">
<polygon fill="white" stroke="black" points="140.412,-300 140.412,-320 307.588,-320 307.588,-300 140.412,-300"/>
<text text-anchor="middle" x="224" y="-306" font-family="Helvetica,sans-Serif" font-size="10.00">rcModelDomain::getModelDomain</text>
</a>
</g>
</g>
<!-- Node1&#45;&gt;Node2 -->
<g id="edge1" class="edge"><title>Node1&#45;&gt;Node2</title>
<path fill="none" stroke="midnightblue" d="M104.467,-296.055C112.703,-297.024 121.44,-298.052 130.289,-299.093"/>
<polygon fill="midnightblue" stroke="midnightblue" points="129.967,-302.579 140.307,-300.271 130.785,-295.627 129.967,-302.579"/>
</g>
<!-- Node3 -->
<g id="node3" class="node"><title>Node3</title>
<g id="a_node3"><a xlink:href="classrc_model_domain.html#a6562b10ffc6a1102c0210152912ed955" target="_top" xlink:title="rcModelDomain::requestSave">
<polygon fill="white" stroke="black" points="150.136,-261 150.136,-281 297.864,-281 297.864,-261 150.136,-261"/>
<text text-anchor="middle" x="224" y="-267" font-family="Helvetica,sans-Serif" font-size="10.00">rcModelDomain::requestSave</text>
</a>
</g>
</g>
<!-- Node1&#45;&gt;Node3 -->
<g id="edge2" class="edge"><title>Node1&#45;&gt;Node3</title>
<path fill="none" stroke="midnightblue" d="M104.467,-284.248C115.69,-282.993 127.842,-281.635 139.942,-280.283"/>
<polygon fill="midnightblue" stroke="midnightblue" points="140.522,-283.74 150.071,-279.151 139.744,-276.783 140.522,-283.74"/>
</g>
<!-- Node4 -->
<g id="node4" class="node"><title>Node4</title>
<g id="a_node4"><a xlink:href="classrc_model_domain.html#a8d5d07157ef2acbf819145cdf10f05a6" target="_top" xlink:title="rcModelDomain::notifyStatus\lInternal">
<polygon fill="white" stroke="black" points="347.084,-510 347.084,-542 490.916,-542 490.916,-510 347.084,-510"/>
<text text-anchor="start" x="355.084" y="-528" font-family="Helvetica,sans-Serif" font-size="10.00">rcModelDomain::notifyStatus</text>
<text text-anchor="middle" x="419" y="-516" font-family="Helvetica,sans-Serif" font-size="10.00">Internal</text>
</a>
</g>
</g>
<!-- Node3&#45;&gt;Node4 -->
<g id="edge3" class="edge"><title>Node3&#45;&gt;Node4</title>
<path fill="none" stroke="midnightblue" d="M295.071,-281.078C299.853,-283.732 304.252,-286.996 308,-291 372.418,-359.809 283.152,-428.015 344,-500 345.016,-501.202 346.092,-502.349 347.219,-503.443"/>
<polygon fill="midnightblue" stroke="midnightblue" points="345.333,-506.416 355.331,-509.92 349.701,-500.946 345.333,-506.416"/>
</g>
<!-- Node6 -->
<g id="node6" class="node"><title>Node6</title>
<g id="a_node6"><a xlink:href="classrc_persistence_manager_factory.html#ab45216ea21c13d548a0afc8825287c8d" target="_top" xlink:title="rcPersistenceManagerFactory\l::getPersistenceManager">
<polygon fill="white" stroke="black" points="344.308,-459 344.308,-491 493.692,-491 493.692,-459 344.308,-459"/>
<text text-anchor="start" x="352.308" y="-477" font-family="Helvetica,sans-Serif" font-size="10.00">rcPersistenceManagerFactory</text>
<text text-anchor="middle" x="419" y="-465" font-family="Helvetica,sans-Serif" font-size="10.00">::getPersistenceManager</text>
</a>
</g>
</g>
<!-- Node3&#45;&gt;Node6 -->
<g id="edge5" class="edge"><title>Node3&#45;&gt;Node6</title>
<path fill="none" stroke="midnightblue" d="M294.446,-281.091C299.43,-283.734 304.042,-286.993 308,-291 358.61,-342.243 296.053,-395.258 344,-449 345.184,-450.327 346.44,-451.587 347.758,-452.782"/>
<polygon fill="midnightblue" stroke="midnightblue" points="345.816,-455.702 355.902,-458.948 350.042,-450.122 345.816,-455.702"/>
</g>
<!-- Node7 -->
<g id="node7" class="node"><title>Node7</title>
<g id="a_node7"><a xlink:href="classrc_experiment_domain.html#a6abeb9bb031e7bf26116f5cb914e2a56" target="_top" xlink:title="rcExperimentDomain\l::getExperimentAttributes">
<polygon fill="white" stroke="black" points="354.862,-408 354.862,-440 483.138,-440 483.138,-408 354.862,-408"/>
<text text-anchor="start" x="362.862" y="-426" font-family="Helvetica,sans-Serif" font-size="10.00">rcExperimentDomain</text>
<text text-anchor="middle" x="419" y="-414" font-family="Helvetica,sans-Serif" font-size="10.00">::getExperimentAttributes</text>
</a>
</g>
</g>
<!-- Node3&#45;&gt;Node7 -->
<g id="edge6" class="edge"><title>Node3&#45;&gt;Node7</title>
<path fill="none" stroke="midnightblue" d="M293.215,-281.137C298.594,-283.756 303.627,-286.996 308,-291 345.007,-324.882 308.758,-362.285 344,-398 345.435,-399.454 346.955,-400.827 348.547,-402.123"/>
<polygon fill="midnightblue" stroke="midnightblue" points="346.81,-405.178 357.026,-407.986 350.792,-399.42 346.81,-405.178"/>
</g>
<!-- Node8 -->
<g id="node8" class="node"><title>Node8</title>
<g id="a_node8"><a xlink:href="classrc_persistence_manager.html#accc47f09f6f2f4cc5bc42096ec46c4e3" target="_top" xlink:title="rcPersistenceManager\l::fileFormatExportFilter">
<polygon fill="white" stroke="black" points="360.434,-357 360.434,-389 477.566,-389 477.566,-357 360.434,-357"/>
<text text-anchor="start" x="368.434" y="-375" font-family="Helvetica,sans-Serif" font-size="10.00">rcPersistenceManager</text>
<text text-anchor="middle" x="419" y="-363" font-family="Helvetica,sans-Serif" font-size="10.00">::fileFormatExportFilter</text>
</a>
</g>
</g>
<!-- Node3&#45;&gt;Node8 -->
<g id="edge7" class="edge"><title>Node3&#45;&gt;Node8</title>
<path fill="none" stroke="midnightblue" d="M289.281,-281.155C295.931,-283.736 302.322,-286.964 308,-291 332.116,-308.143 320.784,-328.657 344,-347 346.304,-348.82 348.745,-350.518 351.283,-352.102"/>
<polygon fill="midnightblue" stroke="midnightblue" points="349.787,-355.274 360.231,-357.056 353.178,-349.15 349.787,-355.274"/>
</g>
<!-- Node9 -->
<g id="node9" class="node"><title>Node9</title>
<g id="a_node9"><a xlink:href="classrc_persistence_manager.html#a6d3a3869551e4419a4b8c34cc6963220" target="_top" xlink:title="rcPersistenceManager\l::fileFormatExportExtension">
<polygon fill="white" stroke="black" points="349.586,-306 349.586,-338 488.414,-338 488.414,-306 349.586,-306"/>
<text text-anchor="start" x="357.586" y="-324" font-family="Helvetica,sans-Serif" font-size="10.00">rcPersistenceManager</text>
<text text-anchor="middle" x="419" y="-312" font-family="Helvetica,sans-Serif" font-size="10.00">::fileFormatExportExtension</text>
</a>
</g>
</g>
<!-- Node3&#45;&gt;Node9 -->
<g id="edge8" class="edge"><title>Node3&#45;&gt;Node9</title>
<path fill="none" stroke="midnightblue" d="M268.157,-281.068C281.003,-284.155 295.093,-287.628 308,-291 322.505,-294.79 338.031,-299.044 352.712,-303.157"/>
<polygon fill="midnightblue" stroke="midnightblue" points="352.142,-306.633 362.717,-305.974 354.04,-299.895 352.142,-306.633"/>
</g>
<!-- Node10 -->
<g id="node10" class="node"><title>Node10</title>
<g id="a_node10"><a xlink:href="classrc_persistence_manager.html#a1665662b60b00ef9d64656674855975f" target="_top" xlink:title="rcPersistenceManager\l::fileFormatExportCaption">
<polygon fill="white" stroke="black" points="354.311,-255 354.311,-287 483.689,-287 483.689,-255 354.311,-255"/>
<text text-anchor="start" x="362.311" y="-273" font-family="Helvetica,sans-Serif" font-size="10.00">rcPersistenceManager</text>
<text text-anchor="middle" x="419" y="-261" font-family="Helvetica,sans-Serif" font-size="10.00">::fileFormatExportCaption</text>
</a>
</g>
</g>
<!-- Node3&#45;&gt;Node10 -->
<g id="edge9" class="edge"><title>Node3&#45;&gt;Node10</title>
<path fill="none" stroke="midnightblue" d="M297.965,-271C312.97,-271 328.783,-271 343.829,-271"/>
<polygon fill="midnightblue" stroke="midnightblue" points="344.104,-274.5 354.104,-271 344.104,-267.5 344.104,-274.5"/>
</g>
<!-- Node11 -->
<g id="node11" class="node"><title>Node11</title>
<g id="a_node11"><a xlink:href="rc__modeldomain_8cpp.html#a42fcabbbc1b20de28d909de7895c8934" target="_top" xlink:title="processExtension">
<polygon fill="white" stroke="black" points="371.535,-216 371.535,-236 466.465,-236 466.465,-216 371.535,-216"/>
<text text-anchor="middle" x="419" y="-222" font-family="Helvetica,sans-Serif" font-size="10.00">processExtension</text>
</a>
</g>
</g>
<!-- Node3&#45;&gt;Node11 -->
<g id="edge10" class="edge"><title>Node3&#45;&gt;Node11</title>
<path fill="none" stroke="midnightblue" d="M268.313,-260.901C296.87,-254.243 334.465,-245.477 364.833,-238.396"/>
<polygon fill="midnightblue" stroke="midnightblue" points="365.888,-241.745 374.832,-236.065 364.298,-234.927 365.888,-241.745"/>
</g>
<!-- Node12 -->
<g id="node12" class="node"><title>Node12</title>
<g id="a_node12"><a xlink:href="classrc_experiment_domain.html#a3d8717a083acb325885ae08f1756e2bb" target="_top" xlink:title="rcExperimentDomain\l::saveExperiment">
<polygon fill="white" stroke="black" points="364.318,-165 364.318,-197 473.682,-197 473.682,-165 364.318,-165"/>
<text text-anchor="start" x="372.318" y="-183" font-family="Helvetica,sans-Serif" font-size="10.00">rcExperimentDomain</text>
<text text-anchor="middle" x="419" y="-171" font-family="Helvetica,sans-Serif" font-size="10.00">::saveExperiment</text>
</a>
</g>
</g>
<!-- Node3&#45;&gt;Node12 -->
<g id="edge11" class="edge"><title>Node3&#45;&gt;Node12</title>
<path fill="none" stroke="midnightblue" d="M241.922,-260.811C264.625,-247.397 306.444,-223.576 344,-207 348.905,-204.835 354.052,-202.721 359.25,-200.693"/>
<polygon fill="midnightblue" stroke="midnightblue" points="360.509,-203.959 368.621,-197.145 358.03,-197.413 360.509,-203.959"/>
</g>
<!-- Node13 -->
<g id="node13" class="node"><title>Node13</title>
<g id="a_node13"><a xlink:href="classrc_model_domain.html#a964f8cb50c816a0826dbbbc60bb78006" target="_top" xlink:title="rcModelDomain::notifySetting\lChange">
<polygon fill="white" stroke="black" points="345.692,-114 345.692,-146 492.308,-146 492.308,-114 345.692,-114"/>
<text text-anchor="start" x="353.692" y="-132" font-family="Helvetica,sans-Serif" font-size="10.00">rcModelDomain::notifySetting</text>
<text text-anchor="middle" x="419" y="-120" font-family="Helvetica,sans-Serif" font-size="10.00">Change</text>
</a>
</g>
</g>
<!-- Node3&#45;&gt;Node13 -->
<g id="edge12" class="edge"><title>Node3&#45;&gt;Node13</title>
<path fill="none" stroke="midnightblue" d="M232.836,-260.902C250.429,-238.865 295.351,-186.034 344,-156 347.201,-154.024 350.573,-152.171 354.041,-150.439"/>
<polygon fill="midnightblue" stroke="midnightblue" points="355.778,-153.493 363.397,-146.131 352.85,-147.134 355.778,-153.493"/>
</g>
<!-- Node15 -->
<g id="node15" class="node"><title>Node15</title>
<g id="a_node15"><a xlink:href="classrc_model_domain.html#a2b36dfed954525ca53a6d4047a55928d" target="_top" xlink:title="rcModelDomain::notifyStatus">
<polygon fill="white" stroke="black" points="347.084,-75 347.084,-95 490.916,-95 490.916,-75 347.084,-75"/>
<text text-anchor="middle" x="419" y="-81" font-family="Helvetica,sans-Serif" font-size="10.00">rcModelDomain::notifyStatus</text>
</a>
</g>
</g>
<!-- Node3&#45;&gt;Node15 -->
<g id="edge14" class="edge"><title>Node3&#45;&gt;Node15</title>
<path fill="none" stroke="midnightblue" d="M229.219,-260.958C241.934,-231.955 282.812,-147.439 344,-105 347.229,-102.76 350.698,-100.771 354.309,-99.0044"/>
<polygon fill="midnightblue" stroke="midnightblue" points="355.707,-102.213 363.519,-95.0557 352.949,-95.7795 355.707,-102.213"/>
</g>
<!-- Node30 -->
<g id="node30" class="node"><title>Node30</title>
<g id="a_node30"><a xlink:href="classgeneral__exception.html#a94a11f479c950ebf385096aec6f6e8bf" target="_top" xlink:title="general_exception::what">
<polygon fill="white" stroke="black" points="356.796,-36 356.796,-56 481.204,-56 481.204,-36 356.796,-36"/>
<text text-anchor="middle" x="419" y="-42" font-family="Helvetica,sans-Serif" font-size="10.00">general_exception::what</text>
</a>
</g>
</g>
<!-- Node3&#45;&gt;Node30 -->
<g id="edge29" class="edge"><title>Node3&#45;&gt;Node30</title>
<path fill="none" stroke="midnightblue" d="M227.916,-260.585C237.917,-226.841 274.128,-119.604 344,-66 346.64,-63.9749 349.47,-62.1545 352.427,-60.5183"/>
<polygon fill="midnightblue" stroke="midnightblue" points="354.097,-63.5999 361.622,-56.1413 351.088,-57.2795 354.097,-63.5999"/>
</g>
<!-- Node5 -->
<g id="node5" class="node"><title>Node5</title>
<g id="a_node5"><a xlink:href="classrc_model_domain.html#a8008cbbd84bbb8e14d94da875f38703f" target="_top" xlink:title="rcModelDomain::updateStatus">
<polygon fill="white" stroke="black" points="533.742,-516 533.742,-536 684.258,-536 684.258,-516 533.742,-516"/>
<text text-anchor="middle" x="609" y="-522" font-family="Helvetica,sans-Serif" font-size="10.00">rcModelDomain::updateStatus</text>
</a>
</g>
</g>
<!-- Node4&#45;&gt;Node5 -->
<g id="edge4" class="edge"><title>Node4&#45;&gt;Node5</title>
<path fill="none" stroke="midnightblue" d="M491.075,-526C501.634,-526 512.604,-526 523.406,-526"/>
<polygon fill="midnightblue" stroke="midnightblue" points="523.693,-529.5 533.693,-526 523.693,-522.5 523.693,-529.5"/>
</g>
<!-- Node14 -->
<g id="node14" class="node"><title>Node14</title>
<g id="a_node14"><a xlink:href="classrc_model_domain.html#af20f3010314a2ddf0ec3b3aa82f466b5" target="_top" xlink:title="rcModelDomain::updateSettings">
<polygon fill="white" stroke="black" points="529.85,-120 529.85,-140 688.15,-140 688.15,-120 529.85,-120"/>
<text text-anchor="middle" x="609" y="-126" font-family="Helvetica,sans-Serif" font-size="10.00">rcModelDomain::updateSettings</text>
</a>
</g>
</g>
<!-- Node13&#45;&gt;Node14 -->
<g id="edge13" class="edge"><title>Node13&#45;&gt;Node14</title>
<path fill="none" stroke="midnightblue" d="M492.417,-130C501.285,-130 510.424,-130 519.495,-130"/>
<polygon fill="midnightblue" stroke="midnightblue" points="519.689,-133.5 529.689,-130 519.689,-126.5 519.689,-133.5"/>
</g>
<!-- Node16 -->
<g id="node16" class="node"><title>Node16</title>
<g id="a_node16"><a xlink:href="classrc_custom_event_manager.html#a1df479c275e1bea2d3866c9257ed66fb" target="_top" xlink:title="rcCustomEventManager\l::postEvent">
<polygon fill="white" stroke="black" points="547.089,-69 547.089,-101 670.911,-101 670.911,-69 547.089,-69"/>
<text text-anchor="start" x="555.089" y="-87" font-family="Helvetica,sans-Serif" font-size="10.00">rcCustomEventManager</text>
<text text-anchor="middle" x="609" y="-75" font-family="Helvetica,sans-Serif" font-size="10.00">::postEvent</text>
</a>
</g>
</g>
<!-- Node15&#45;&gt;Node16 -->
<g id="edge15" class="edge"><title>Node15&#45;&gt;Node16</title>
<path fill="none" stroke="midnightblue" d="M491.075,-85C506.029,-85 521.807,-85 536.766,-85"/>
<polygon fill="midnightblue" stroke="midnightblue" points="536.972,-88.5001 546.972,-85 536.972,-81.5001 536.972,-88.5001"/>
</g>
<!-- Node17 -->
<g id="node17" class="node"><title>Node17</title>
<g id="a_node17"><a xlink:href="textio_8cpp.html#a905a4c61e365d406069f00eb68db1ca5" target="_top" xlink:title="endl">
<polygon fill="white" stroke="black" points="768.547,-98 768.547,-118 803.453,-118 803.453,-98 768.547,-98"/>
<text text-anchor="middle" x="786" y="-104" font-family="Helvetica,sans-Serif" font-size="10.00">endl</text>
</a>
</g>
</g>
<!-- Node16&#45;&gt;Node17 -->
<g id="edge16" class="edge"><title>Node16&#45;&gt;Node17</title>
<path fill="none" stroke="midnightblue" d="M671.207,-93.0443C700.988,-96.9584 735.248,-101.461 758.33,-104.495"/>
<polygon fill="midnightblue" stroke="midnightblue" points="758.023,-107.984 768.393,-105.817 758.935,-101.044 758.023,-107.984"/>
</g>
<!-- Node29 -->
<g id="node29" class="node"><title>Node29</title>
<g id="a_node29"><a xlink:href="classrc_custom_event_manager.html#abd4530c73a5690442140f93d3837cd70" target="_top" xlink:title="rcCustomEventManager\l::postedEvent">
<polygon fill="white" stroke="black" points="724.089,-47 724.089,-79 847.911,-79 847.911,-47 724.089,-47"/>
<text text-anchor="start" x="732.089" y="-65" font-family="Helvetica,sans-Serif" font-size="10.00">rcCustomEventManager</text>
<text text-anchor="middle" x="786" y="-53" font-family="Helvetica,sans-Serif" font-size="10.00">::postedEvent</text>
</a>
</g>
</g>
<!-- Node16&#45;&gt;Node29 -->
<g id="edge28" class="edge"><title>Node16&#45;&gt;Node29</title>
<path fill="none" stroke="midnightblue" d="M671.207,-77.3055C684.928,-75.5805 699.6,-73.736 713.692,-71.9645"/>
<polygon fill="midnightblue" stroke="midnightblue" points="714.343,-75.4103 723.828,-70.6902 713.47,-68.4649 714.343,-75.4103"/>
</g>
<!-- Node18 -->
<g id="node18" class="node"><title>Node18</title>
<g id="a_node18"><a xlink:href="classotext.html#a5086c0fd5e3f551eae3027e5d23d3c30" target="_top" xlink:title="otext::put">
<polygon fill="white" stroke="black" points="884.431,-98 884.431,-118 941.569,-118 941.569,-98 884.431,-98"/>
<text text-anchor="middle" x="913" y="-104" font-family="Helvetica,sans-Serif" font-size="10.00">otext::put</text>
</a>
</g>
</g>
<!-- Node17&#45;&gt;Node18 -->
<g id="edge17" class="edge"><title>Node17&#45;&gt;Node18</title>
<path fill="none" stroke="midnightblue" d="M803.599,-108C821.533,-108 850.703,-108 874.269,-108"/>
<polygon fill="midnightblue" stroke="midnightblue" points="874.308,-111.5 884.308,-108 874.308,-104.5 874.308,-111.5"/>
</g>
<!-- Node19 -->
<g id="node19" class="node"><title>Node19</title>
<g id="a_node19"><a xlink:href="classotext.html#ab52b059090ba70eeeac469f9051d3a22" target="_top" xlink:title="otext::flush">
<polygon fill="white" stroke="black" points="999.82,-196 999.82,-216 1064.18,-216 1064.18,-196 999.82,-196"/>
<text text-anchor="middle" x="1032" y="-202" font-family="Helvetica,sans-Serif" font-size="10.00">otext::flush</text>
</a>
</g>
</g>
<!-- Node18&#45;&gt;Node19 -->
<g id="edge18" class="edge"><title>Node18&#45;&gt;Node19</title>
<path fill="none" stroke="midnightblue" d="M919.8,-118.047C929.737,-134.439 951.526,-167.01 978,-186 981.742,-188.684 985.889,-191.056 990.167,-193.139"/>
<polygon fill="midnightblue" stroke="midnightblue" points="989.068,-196.478 999.635,-197.249 991.855,-190.057 989.068,-196.478"/>
</g>
<!-- Node21 -->
<g id="node21" class="node"><title>Node21</title>
<g id="a_node21"><a xlink:href="classobuff.html#a069bcd2767c0d7c8e2bc8cd26d91e267" target="_top" xlink:title="obuff::increment">
<polygon fill="white" stroke="black" points="988.236,-157 988.236,-177 1075.76,-177 1075.76,-157 988.236,-157"/>
<text text-anchor="middle" x="1032" y="-163" font-family="Helvetica,sans-Serif" font-size="10.00">obuff::increment</text>
</a>
</g>
</g>
<!-- Node18&#45;&gt;Node21 -->
<g id="edge20" class="edge"><title>Node18&#45;&gt;Node21</title>
<path fill="none" stroke="midnightblue" d="M928.81,-118.119C941.502,-126.521 960.46,-138.439 978,-147 982.408,-149.151 987.11,-151.224 991.825,-153.166"/>
<polygon fill="midnightblue" stroke="midnightblue" points="990.841,-156.541 1001.43,-156.954 993.41,-150.029 990.841,-156.541"/>
</g>
<!-- Node22 -->
<g id="node22" class="node"><title>Node22</title>
<g id="a_node22"><a xlink:href="classobuff.html#a51efd4e8e00303842fa762940aad86ec" target="_top" xlink:title="obuff::line_buffer">
<polygon fill="white" stroke="black" points="986.927,-118 986.927,-138 1077.07,-138 1077.07,-118 986.927,-118"/>
<text text-anchor="middle" x="1032" y="-124" font-family="Helvetica,sans-Serif" font-size="10.00">obuff::line_buffer</text>
</a>
</g>
</g>
<!-- Node18&#45;&gt;Node22 -->
<g id="edge21" class="edge"><title>Node18&#45;&gt;Node22</title>
<path fill="none" stroke="midnightblue" d="M941.727,-112.74C952.18,-114.527 964.466,-116.627 976.523,-118.688"/>
<polygon fill="midnightblue" stroke="midnightblue" points="976.104,-122.167 986.551,-120.402 977.284,-115.267 976.104,-122.167"/>
</g>
<!-- Node23 -->
<g id="node23" class="node"><title>Node23</title>
<g id="a_node23"><a xlink:href="classobuff.html#a0711113beee11f9793f5ba9e8e64c641" target="_top" xlink:title="obuff::newline_mode">
<polygon fill="white" stroke="black" points="977.945,-79 977.945,-99 1086.05,-99 1086.05,-79 977.945,-79"/>
<text text-anchor="middle" x="1032" y="-85" font-family="Helvetica,sans-Serif" font-size="10.00">obuff::newline_mode</text>
</a>
</g>
</g>
<!-- Node18&#45;&gt;Node23 -->
<g id="edge22" class="edge"><title>Node18&#45;&gt;Node23</title>
<path fill="none" stroke="midnightblue" d="M941.727,-103.497C949.667,-102.208 958.665,-100.747 967.816,-99.2606"/>
<polygon fill="midnightblue" stroke="midnightblue" points="968.454,-102.703 977.764,-97.6452 967.332,-95.7935 968.454,-102.703"/>
</g>
<!-- Node24 -->
<g id="node24" class="node"><title>Node24</title>
<g id="a_node24"><a xlink:href="classobuff.html#a5bbb61ac15c672da7f7b2002bef6b128" target="_top" xlink:title="obuff::put">
<polygon fill="white" stroke="black" points="1003.24,-40 1003.24,-60 1060.76,-60 1060.76,-40 1003.24,-40"/>
<text text-anchor="middle" x="1032" y="-46" font-family="Helvetica,sans-Serif" font-size="10.00">obuff::put</text>
</a>
</g>
</g>
<!-- Node18&#45;&gt;Node24 -->
<g id="edge23" class="edge"><title>Node18&#45;&gt;Node24</title>
<path fill="none" stroke="midnightblue" d="M929.359,-97.8431C942.068,-89.6951 960.765,-78.2897 978,-70 982.985,-67.6021 988.339,-65.2924 993.658,-63.1478"/>
<polygon fill="midnightblue" stroke="midnightblue" points="995.05,-66.362 1003.11,-59.4827 992.519,-59.8356 995.05,-66.362"/>
</g>
<!-- Node25 -->
<g id="node25" class="node"><title>Node25</title>
<g id="a_node25"><a xlink:href="classotext.html#a2a2435d80cce60cb88360c7bfe3f8445" target="_top" xlink:title="otext::set_error">
<polygon fill="white" stroke="black" points="990.375,-1 990.375,-21 1073.63,-21 1073.63,-1 990.375,-1"/>
<text text-anchor="middle" x="1032" y="-7" font-family="Helvetica,sans-Serif" font-size="10.00">otext::set_error</text>
</a>
</g>
</g>
<!-- Node18&#45;&gt;Node25 -->
<g id="edge24" class="edge"><title>Node18&#45;&gt;Node25</title>
<path fill="none" stroke="midnightblue" d="M919.994,-97.8231C930.05,-81.563 951.81,-49.6611 978,-31 980.891,-28.9401 984.02,-27.0635 987.263,-25.3595"/>
<polygon fill="midnightblue" stroke="midnightblue" points="989.017,-28.4037 996.6,-21.005 986.058,-22.0597 989.017,-28.4037"/>
</g>
<!-- Node20 -->
<g id="node20" class="node"><title>Node20</title>
<g id="a_node20"><a xlink:href="classobuff.html#a8fb8969c450f4fdc037f8c51d35c87c7" target="_top" xlink:title="obuff::flush">
<polygon fill="white" stroke="black" points="1131.63,-196 1131.63,-216 1196.37,-216 1196.37,-196 1131.63,-196"/>
<text text-anchor="middle" x="1164" y="-202" font-family="Helvetica,sans-Serif" font-size="10.00">obuff::flush</text>
</a>
</g>
</g>
<!-- Node19&#45;&gt;Node20 -->
<g id="edge19" class="edge"><title>Node19&#45;&gt;Node20</title>
<path fill="none" stroke="midnightblue" d="M1064.47,-206C1081.51,-206 1102.78,-206 1121.2,-206"/>
<polygon fill="midnightblue" stroke="midnightblue" points="1121.37,-209.5 1131.37,-206 1121.37,-202.5 1121.37,-209.5"/>
</g>
<!-- Node26 -->
<g id="node26" class="node"><title>Node26</title>
<g id="a_node26"><a xlink:href="classobuff.html#ae388e9608d1c873d1feaf621f4044c25" target="_top" xlink:title="obuff::set_error">
<polygon fill="white" stroke="black" points="1122.18,-1 1122.18,-21 1205.82,-21 1205.82,-1 1122.18,-1"/>
<text text-anchor="middle" x="1164" y="-7" font-family="Helvetica,sans-Serif" font-size="10.00">obuff::set_error</text>
</a>
</g>
</g>
<!-- Node25&#45;&gt;Node26 -->
<g id="edge25" class="edge"><title>Node25&#45;&gt;Node26</title>
<path fill="none" stroke="midnightblue" d="M1073.78,-11C1085.76,-11 1099.03,-11 1111.58,-11"/>
<polygon fill="midnightblue" stroke="midnightblue" points="1111.92,-14.5001 1121.92,-11 1111.92,-7.5001 1111.92,-14.5001"/>
</g>
<!-- Node27 -->
<g id="node27" class="node"><title>Node27</title>
<g id="a_node27"><a xlink:href="class_t_c_p__client__data.html#a970f6bf6bb6e6166615813c5f7768381" target="_top" xlink:title="TCP_client_data::error">
<polygon fill="white" stroke="black" points="1242.7,-1 1242.7,-21 1359.3,-21 1359.3,-1 1242.7,-1"/>
<text text-anchor="middle" x="1301" y="-7" font-family="Helvetica,sans-Serif" font-size="10.00">TCP_client_data::error</text>
</a>
</g>
</g>
<!-- Node26&#45;&gt;Node27 -->
<g id="edge26" class="edge"><title>Node26&#45;&gt;Node27</title>
<path fill="none" stroke="midnightblue" d="M1205.87,-11C1214.22,-11 1223.21,-11 1232.21,-11"/>
<polygon fill="midnightblue" stroke="midnightblue" points="1232.33,-14.5001 1242.33,-11 1232.33,-7.5001 1232.33,-14.5001"/>
</g>
<!-- Node28 -->
<g id="node28" class="node"><title>Node28</title>
<g id="a_node28"><a xlink:href="class_t_c_p__socket.html#adb70059ca46476efe0ced51ed377a975" target="_top" xlink:title="TCP_socket::error">
<polygon fill="white" stroke="black" points="1396.43,-1 1396.43,-21 1493.57,-21 1493.57,-1 1396.43,-1"/>
<text text-anchor="middle" x="1445" y="-7" font-family="Helvetica,sans-Serif" font-size="10.00">TCP_socket::error</text>
</a>
</g>
</g>
<!-- Node27&#45;&gt;Node28 -->
<g id="edge27" class="edge"><title>Node27&#45;&gt;Node28</title>
<path fill="none" stroke="midnightblue" d="M1359.35,-11C1368.09,-11 1377.12,-11 1385.87,-11"/>
<polygon fill="midnightblue" stroke="midnightblue" points="1386,-14.5001 1396,-11 1386,-7.5001 1386,-14.5001"/>
</g>
</g>
</svg>
