<?xml version="1.0" encoding="UTF-8" standalone="no"?>
<!DOCTYPE svg PUBLIC "-//W3C//DTD SVG 1.1//EN"
 "http://www.w3.org/Graphics/SVG/1.1/DTD/svg11.dtd">
<!-- Generated by graphviz version 2.32.0 (20130916.1925)
 -->
<!-- Title: error_handler_format_error::offset Pages: 1 -->
<svg width="564pt" height="40pt"
 viewBox="0.00 0.00 564.00 40.00" xmlns="http://www.w3.org/2000/svg" xmlns:xlink="http://www.w3.org/1999/xlink">
<g id="graph0" class="graph" transform="scale(1 1) rotate(0) translate(4 36)">
<title>error_handler_format_error::offset</title>
<polygon fill="white" stroke="white" points="-4,5 -4,-36 561,-36 561,5 -4,5"/>
<!-- Node1 -->
<g id="node1" class="node"><title>Node1</title>
<polygon fill="#bfbfbf" stroke="black" points="0.0322266,-0 0.0322266,-32 109.968,-32 109.968,-0 0.0322266,-0"/>
<text text-anchor="start" x="8.03223" y="-18" font-family="Helvetica,sans-Serif" font-size="10.00">error_handler_format</text>
<text text-anchor="middle" x="55" y="-6" font-family="Helvetica,sans-Serif" font-size="10.00">_error::offset</text>
</g>
<!-- Node2 -->
<g id="node2" class="node"><title>Node2</title>
<g id="a_node2"><a xlink:href="classerror__handler__base__body.html#a8c6c4eaa2a1a5335aaeae37d5e9b3f59" target="_top" xlink:title="error_handler_base\l_body::format_message">
<polygon fill="white" stroke="black" points="146.36,-0 146.36,-32 269.64,-32 269.64,-0 146.36,-0"/>
<text text-anchor="start" x="154.36" y="-18" font-family="Helvetica,sans-Serif" font-size="10.00">error_handler_base</text>
<text text-anchor="middle" x="208" y="-6" font-family="Helvetica,sans-Serif" font-size="10.00">_body::format_message</text>
</a>
</g>
</g>
<!-- Node1&#45;&gt;Node2 -->
<g id="edge1" class="edge"><title>Node1&#45;&gt;Node2</title>
<path fill="none" stroke="midnightblue" d="M120.09,-16C128.714,-16 137.542,-16 146.108,-16"/>
<polygon fill="midnightblue" stroke="midnightblue" points="120.088,-12.5001 110.088,-16 120.088,-19.5001 120.088,-12.5001"/>
</g>
<!-- Node3 -->
<g id="node3" class="node"><title>Node3</title>
<g id="a_node3"><a xlink:href="classerror__handler__base__body.html#a634b92e5eb3b66288b127762ff295c59" target="_top" xlink:title="error_handler_base\l_body::format_id">
<polygon fill="white" stroke="black" points="306.36,-0 306.36,-32 409.64,-32 409.64,-0 306.36,-0"/>
<text text-anchor="start" x="314.36" y="-18" font-family="Helvetica,sans-Serif" font-size="10.00">error_handler_base</text>
<text text-anchor="middle" x="358" y="-6" font-family="Helvetica,sans-Serif" font-size="10.00">_body::format_id</text>
</a>
</g>
</g>
<!-- Node2&#45;&gt;Node3 -->
<g id="edge2" class="edge"><title>Node2&#45;&gt;Node3</title>
<path fill="none" stroke="midnightblue" d="M280.211,-16C288.909,-16 297.659,-16 305.979,-16"/>
<polygon fill="midnightblue" stroke="midnightblue" points="280.052,-12.5001 270.052,-16 280.052,-19.5001 280.052,-12.5001"/>
</g>
<!-- Node4 -->
<g id="node4" class="node"><title>Node4</title>
<g id="a_node4"><a xlink:href="classerror__handler__base__body.html#aba82d26f4b7ce25048485a00312f5c55" target="_top" xlink:title="error_handler_base\l_body::format_report">
<polygon fill="white" stroke="black" points="446.586,-0 446.586,-32 555.414,-32 555.414,-0 446.586,-0"/>
<text text-anchor="start" x="454.586" y="-18" font-family="Helvetica,sans-Serif" font-size="10.00">error_handler_base</text>
<text text-anchor="middle" x="501" y="-6" font-family="Helvetica,sans-Serif" font-size="10.00">_body::format_report</text>
</a>
</g>
</g>
<!-- Node3&#45;&gt;Node4 -->
<g id="edge3" class="edge"><title>Node3&#45;&gt;Node4</title>
<path fill="none" stroke="midnightblue" d="M420.045,-16C428.788,-16 437.729,-16 446.317,-16"/>
<polygon fill="midnightblue" stroke="midnightblue" points="419.904,-12.5001 409.904,-16 419.904,-19.5001 419.904,-12.5001"/>
</g>
</g>
</svg>
