<?xml version="1.0" encoding="UTF-8" standalone="no"?>
<!DOCTYPE svg PUBLIC "-//W3C//DTD SVG 1.1//EN"
 "http://www.w3.org/Graphics/SVG/1.1/DTD/svg11.dtd">
<!-- Generated by graphviz version 2.32.0 (20130916.1925)
 -->
<!-- Title: rcChoiceRadioButton::rcChoiceRadioButton Pages: 1 -->
<svg width="438pt" height="79pt"
 viewBox="0.00 0.00 438.00 79.00" xmlns="http://www.w3.org/2000/svg" xmlns:xlink="http://www.w3.org/1999/xlink">
<g id="graph0" class="graph" transform="scale(1 1) rotate(0) translate(4 75)">
<title>rcChoiceRadioButton::rcChoiceRadioButton</title>
<polygon fill="white" stroke="white" points="-4,5 -4,-75 435,-75 435,5 -4,5"/>
<!-- Node1 -->
<g id="node1" class="node"><title>Node1</title>
<polygon fill="#bfbfbf" stroke="black" points="-0.0268555,-16 -0.0268555,-48 116.027,-48 116.027,-16 -0.0268555,-16"/>
<text text-anchor="start" x="7.97314" y="-34" font-family="Helvetica,sans-Serif" font-size="10.00">rcChoiceRadioButton</text>
<text text-anchor="middle" x="58" y="-22" font-family="Helvetica,sans-Serif" font-size="10.00">::rcChoiceRadioButton</text>
</g>
<!-- Node2 -->
<g id="node2" class="node"><title>Node2</title>
<g id="a_node2"><a xlink:href="classrc_choice_radio_button.html#ae5264de10c5469a9bdaf8414fbfb5ffd" target="_top" xlink:title="rcChoiceRadioButton\l::clickRelay">
<polygon fill="white" stroke="black" points="162.751,-39 162.751,-71 273.249,-71 273.249,-39 162.751,-39"/>
<text text-anchor="start" x="170.751" y="-57" font-family="Helvetica,sans-Serif" font-size="10.00">rcChoiceRadioButton</text>
<text text-anchor="middle" x="218" y="-45" font-family="Helvetica,sans-Serif" font-size="10.00">::clickRelay</text>
</a>
</g>
</g>
<!-- Node1&#45;&gt;Node2 -->
<g id="edge1" class="edge"><title>Node1&#45;&gt;Node2</title>
<path fill="none" stroke="midnightblue" d="M116.042,-40.3035C127.919,-42.0326 140.517,-43.8663 152.637,-45.6308"/>
<polygon fill="midnightblue" stroke="midnightblue" points="152.281,-49.1157 162.681,-47.0928 153.289,-42.1887 152.281,-49.1157"/>
</g>
<!-- Node4 -->
<g id="node4" class="node"><title>Node4</title>
<g id="a_node4"><a xlink:href="structrc_setting_choice.html#a1171657e8b731eaf1ce4acddc732f9c3" target="_top" xlink:title="rcSettingChoice::getValue">
<polygon fill="white" stroke="black" points="152.556,-0 152.556,-20 283.444,-20 283.444,-0 152.556,-0"/>
<text text-anchor="middle" x="218" y="-6" font-family="Helvetica,sans-Serif" font-size="10.00">rcSettingChoice::getValue</text>
</a>
</g>
</g>
<!-- Node1&#45;&gt;Node4 -->
<g id="edge3" class="edge"><title>Node1&#45;&gt;Node4</title>
<path fill="none" stroke="midnightblue" d="M116.042,-24.0575C124.648,-22.8592 133.631,-21.6083 142.537,-20.3682"/>
<polygon fill="midnightblue" stroke="midnightblue" points="143.114,-23.8217 152.536,-18.976 142.149,-16.8886 143.114,-23.8217"/>
</g>
<!-- Node3 -->
<g id="node3" class="node"><title>Node3</title>
<g id="a_node3"><a xlink:href="classrc_choice_radio_button.html#a0d1d4a26af9399f5402a17f3ec430f2c" target="_top" xlink:title="rcChoiceRadioButton\l::choiceSelected">
<polygon fill="white" stroke="black" points="319.751,-39 319.751,-71 430.249,-71 430.249,-39 319.751,-39"/>
<text text-anchor="start" x="327.751" y="-57" font-family="Helvetica,sans-Serif" font-size="10.00">rcChoiceRadioButton</text>
<text text-anchor="middle" x="375" y="-45" font-family="Helvetica,sans-Serif" font-size="10.00">::choiceSelected</text>
</a>
</g>
</g>
<!-- Node2&#45;&gt;Node3 -->
<g id="edge2" class="edge"><title>Node2&#45;&gt;Node3</title>
<path fill="none" stroke="midnightblue" d="M273.647,-55C285.175,-55 297.443,-55 309.3,-55"/>
<polygon fill="midnightblue" stroke="midnightblue" points="309.585,-58.5001 319.585,-55 309.585,-51.5001 309.585,-58.5001"/>
</g>
</g>
</svg>
