<?xml version="1.0" encoding="UTF-8" standalone="no"?>
<!DOCTYPE svg PUBLIC "-//W3C//DTD SVG 1.1//EN"
 "http://www.w3.org/Graphics/SVG/1.1/DTD/svg11.dtd">
<!-- Generated by graphviz version 2.32.0 (20130916.1925)
 -->
<!-- Title: rcImageCanvasGL::addDefaultText Pages: 1 -->
<svg width="290pt" height="106pt"
 viewBox="0.00 0.00 290.00 106.00" xmlns="http://www.w3.org/2000/svg" xmlns:xlink="http://www.w3.org/1999/xlink">
<g id="graph0" class="graph" transform="scale(1 1) rotate(0) translate(4 102)">
<title>rcImageCanvasGL::addDefaultText</title>
<polygon fill="white" stroke="white" points="-4,5 -4,-102 287,-102 287,5 -4,5"/>
<!-- Node1 -->
<g id="node1" class="node"><title>Node1</title>
<polygon fill="#bfbfbf" stroke="black" points="0.182617,-39 0.182617,-59 171.817,-59 171.817,-39 0.182617,-39"/>
<text text-anchor="middle" x="86" y="-45" font-family="Helvetica,sans-Serif" font-size="10.00">rcImageCanvasGL::addDefaultText</text>
</g>
<!-- Node2 -->
<g id="node2" class="node"><title>Node2</title>
<g id="a_node2"><a xlink:href="classrc_style.html#a9c8a27bd7d687f9fe6983b5dfc1b98e0" target="_top" xlink:title="rcStyle::color">
<polygon fill="white" stroke="black" points="208.104,-78 208.104,-98 281.896,-98 281.896,-78 208.104,-78"/>
<text text-anchor="middle" x="245" y="-84" font-family="Helvetica,sans-Serif" font-size="10.00">rcStyle::color</text>
</a>
</g>
</g>
<!-- Node1&#45;&gt;Node2 -->
<g id="edge1" class="edge"><title>Node1&#45;&gt;Node2</title>
<path fill="none" stroke="midnightblue" d="M127.431,-59.0435C149.02,-64.4061 175.676,-71.0278 198.047,-76.5849"/>
<polygon fill="midnightblue" stroke="midnightblue" points="197.441,-80.0408 207.99,-79.0549 199.129,-73.2473 197.441,-80.0408"/>
</g>
<!-- Node3 -->
<g id="node3" class="node"><title>Node3</title>
<g id="a_node3"><a xlink:href="classrc2d_vector.html#a510fd549126da1dfe80d60ee866ff628" target="_top" xlink:title="rc2dVector::x">
<polygon fill="white" stroke="black" points="207.818,-39 207.818,-59 282.182,-59 282.182,-39 207.818,-39"/>
<text text-anchor="middle" x="245" y="-45" font-family="Helvetica,sans-Serif" font-size="10.00">rc2dVector::x</text>
</a>
</g>
</g>
<!-- Node1&#45;&gt;Node3 -->
<g id="edge2" class="edge"><title>Node1&#45;&gt;Node3</title>
<path fill="none" stroke="midnightblue" d="M171.933,-49C180.773,-49 189.502,-49 197.67,-49"/>
<polygon fill="midnightblue" stroke="midnightblue" points="197.682,-52.5001 207.682,-49 197.682,-45.5001 197.682,-52.5001"/>
</g>
<!-- Node4 -->
<g id="node4" class="node"><title>Node4</title>
<g id="a_node4"><a xlink:href="classrc2d_vector.html#a07f5517208bbd1d2a3ef6fb8eb3fddf8" target="_top" xlink:title="rc2dVector::y">
<polygon fill="white" stroke="black" points="207.818,-0 207.818,-20 282.182,-20 282.182,-0 207.818,-0"/>
<text text-anchor="middle" x="245" y="-6" font-family="Helvetica,sans-Serif" font-size="10.00">rc2dVector::y</text>
</a>
</g>
</g>
<!-- Node1&#45;&gt;Node4 -->
<g id="edge3" class="edge"><title>Node1&#45;&gt;Node4</title>
<path fill="none" stroke="midnightblue" d="M127.431,-38.9565C148.941,-33.6135 175.481,-27.0206 197.802,-21.476"/>
<polygon fill="midnightblue" stroke="midnightblue" points="198.866,-24.8182 207.727,-19.0105 197.178,-18.0246 198.866,-24.8182"/>
</g>
</g>
</svg>
