<?xml version="1.0" encoding="UTF-8" standalone="no"?>
<!DOCTYPE svg PUBLIC "-//W3C//DTD SVG 1.1//EN"
 "http://www.w3.org/Graphics/SVG/1.1/DTD/svg11.dtd">
<!-- Generated by graphviz version 2.32.0 (20130916.1925)
 -->
<!-- Title: dump_context_body::register_interface Pages: 1 -->
<svg width="274pt" height="40pt"
 viewBox="0.00 0.00 274.00 40.00" xmlns="http://www.w3.org/2000/svg" xmlns:xlink="http://www.w3.org/1999/xlink">
<g id="graph0" class="graph" transform="scale(1 1) rotate(0) translate(4 36)">
<title>dump_context_body::register_interface</title>
<polygon fill="white" stroke="white" points="-4,5 -4,-36 271,-36 271,5 -4,5"/>
<!-- Node1 -->
<g id="node1" class="node"><title>Node1</title>
<polygon fill="#bfbfbf" stroke="black" points="0.189941,-0 0.189941,-32 111.81,-32 111.81,-0 0.189941,-0"/>
<text text-anchor="start" x="8.18994" y="-18" font-family="Helvetica,sans-Serif" font-size="10.00">dump_context_body::</text>
<text text-anchor="middle" x="56" y="-6" font-family="Helvetica,sans-Serif" font-size="10.00">register_interface</text>
</g>
<!-- Node2 -->
<g id="node2" class="node"><title>Node2</title>
<g id="a_node2"><a xlink:href="classdump__context.html#ac10fd4bdfb4a3924eb1efe326cf80657" target="_top" xlink:title="dump_context::register\l_interface">
<polygon fill="white" stroke="black" points="148.141,-0 148.141,-32 265.859,-32 265.859,-0 148.141,-0"/>
<text text-anchor="start" x="156.141" y="-18" font-family="Helvetica,sans-Serif" font-size="10.00">dump_context::register</text>
<text text-anchor="middle" x="207" y="-6" font-family="Helvetica,sans-Serif" font-size="10.00">_interface</text>
</a>
</g>
</g>
<!-- Node1&#45;&gt;Node2 -->
<g id="edge1" class="edge"><title>Node1&#45;&gt;Node2</title>
<path fill="none" stroke="midnightblue" d="M122.337,-16C130.854,-16 139.533,-16 147.92,-16"/>
<polygon fill="midnightblue" stroke="midnightblue" points="122.059,-12.5001 112.059,-16 122.059,-19.5001 122.059,-12.5001"/>
</g>
</g>
</svg>
