<?xml version="1.0" encoding="UTF-8" standalone="no"?>
<!DOCTYPE svg PUBLIC "-//W3C//DTD SVG 1.1//EN"
 "http://www.w3.org/Graphics/SVG/1.1/DTD/svg11.dtd">
<!-- Generated by graphviz version 2.32.0 (20130916.1925)
 -->
<!-- Title: rcFrame::depth Pages: 1 -->
<svg width="716pt" height="1842pt"
 viewBox="0.00 0.00 716.00 1842.00" xmlns="http://www.w3.org/2000/svg" xmlns:xlink="http://www.w3.org/1999/xlink">
<g id="graph0" class="graph" transform="scale(1 1) rotate(0) translate(4 1838)">
<title>rcFrame::depth</title>
<polygon fill="white" stroke="white" points="-4,5 -4,-1838 713,-1838 713,5 -4,5"/>
<!-- Node1 -->
<g id="node1" class="node"><title>Node1</title>
<polygon fill="#bfbfbf" stroke="black" points="0.0986328,-1369 0.0986328,-1389 83.9014,-1389 83.9014,-1369 0.0986328,-1369"/>
<text text-anchor="middle" x="42" y="-1375" font-family="Helvetica,sans-Serif" font-size="10.00">rcFrame::depth</text>
</g>
<!-- Node2 -->
<g id="node2" class="node"><title>Node2</title>
<g id="a_node2"><a xlink:href="classrc_movie_converter.html#a4fd62b8f548fcc2eb83daec6b7d3342d" target="_top" xlink:title="rcMovieConverter::clipped\lFrame">
<polygon fill="white" stroke="black" points="119.921,-1751 119.921,-1783 252.079,-1783 252.079,-1751 119.921,-1751"/>
<text text-anchor="start" x="127.921" y="-1769" font-family="Helvetica,sans-Serif" font-size="10.00">rcMovieConverter::clipped</text>
<text text-anchor="middle" x="186" y="-1757" font-family="Helvetica,sans-Serif" font-size="10.00">Frame</text>
</a>
</g>
</g>
<!-- Node1&#45;&gt;Node2 -->
<g id="edge1" class="edge"><title>Node1&#45;&gt;Node2</title>
<path fill="none" stroke="midnightblue" d="M47.4484,-1399.25C57.6152,-1444.1 84.4457,-1554.83 120,-1643 136.181,-1683.13 161.285,-1727.4 175.081,-1750.66"/>
<polygon fill="midnightblue" stroke="midnightblue" points="50.8259,-1398.31 45.2274,-1389.32 43.9947,-1399.84 50.8259,-1398.31"/>
</g>
<!-- Node5 -->
<g id="node5" class="node"><title>Node5</title>
<g id="a_node5"><a xlink:href="classrc_kinetoscope.html#a673ae7a94c5b1b67c804fcb9fca3fc43" target="_top" xlink:title="rcKinetoscope::frame">
<polygon fill="white" stroke="black" points="130.756,-1614 130.756,-1634 241.244,-1634 241.244,-1614 130.756,-1614"/>
<text text-anchor="middle" x="186" y="-1620" font-family="Helvetica,sans-Serif" font-size="10.00">rcKinetoscope::frame</text>
</a>
</g>
</g>
<!-- Node1&#45;&gt;Node5 -->
<g id="edge4" class="edge"><title>Node1&#45;&gt;Node5</title>
<path fill="none" stroke="midnightblue" d="M54.1117,-1398.17C82.5787,-1447.29 157.406,-1576.39 179.054,-1613.74"/>
<polygon fill="midnightblue" stroke="midnightblue" points="56.9635,-1396.11 48.9208,-1389.22 50.9072,-1399.62 56.9635,-1396.11"/>
</g>
<!-- Node11 -->
<g id="node11" class="node"><title>Node11</title>
<g id="a_node11"><a xlink:href="classrc_frame.html#ae52de398e02de893913cc956b824cc51" target="_top" xlink:title="rcFrame::isD32Float">
<polygon fill="white" stroke="black" points="132.712,-1434 132.712,-1454 239.288,-1454 239.288,-1434 132.712,-1434"/>
<text text-anchor="middle" x="186" y="-1440" font-family="Helvetica,sans-Serif" font-size="10.00">rcFrame::isD32Float</text>
</a>
</g>
</g>
<!-- Node1&#45;&gt;Node11 -->
<g id="edge13" class="edge"><title>Node1&#45;&gt;Node11</title>
<path fill="none" stroke="midnightblue" d="M74.2074,-1393.29C101.037,-1405.57 139.065,-1422.97 162.865,-1433.87"/>
<polygon fill="midnightblue" stroke="midnightblue" points="75.4257,-1389.99 64.8763,-1389.01 72.5122,-1396.36 75.4257,-1389.99"/>
</g>
<!-- Node12 -->
<g id="node12" class="node"><title>Node12</title>
<g id="a_node12"><a xlink:href="classrc_frame.html#a0c46eeef1725295d1a71df620f3adc07" target="_top" xlink:title="rcFrame::markD32Float">
<polygon fill="white" stroke="black" points="308.212,-1389 308.212,-1409 429.788,-1409 429.788,-1389 308.212,-1389"/>
<text text-anchor="middle" x="369" y="-1395" font-family="Helvetica,sans-Serif" font-size="10.00">rcFrame::markD32Float</text>
</a>
</g>
</g>
<!-- Node1&#45;&gt;Node12 -->
<g id="edge19" class="edge"><title>Node1&#45;&gt;Node12</title>
<path fill="none" stroke="midnightblue" d="M94.2073,-1382.15C152.252,-1385.72 246.758,-1391.54 308.155,-1395.32"/>
<polygon fill="midnightblue" stroke="midnightblue" points="94.3576,-1378.65 84.1615,-1381.53 93.9276,-1385.64 94.3576,-1378.65"/>
</g>
<!-- Node16 -->
<g id="node16" class="node"><title>Node16</title>
<g id="a_node16"><a xlink:href="classrc_frame.html#a8005eafc78f0008a7df596d55c2b23b9" target="_top" xlink:title="rcFrame::pelPointer">
<polygon fill="white" stroke="black" points="134.096,-1350 134.096,-1370 237.904,-1370 237.904,-1350 134.096,-1350"/>
<text text-anchor="middle" x="186" y="-1356" font-family="Helvetica,sans-Serif" font-size="10.00">rcFrame::pelPointer</text>
</a>
</g>
</g>
<!-- Node1&#45;&gt;Node16 -->
<g id="edge20" class="edge"><title>Node1&#45;&gt;Node16</title>
<path fill="none" stroke="midnightblue" d="M94.1977,-1372.15C107.123,-1370.42 121,-1368.56 133.92,-1366.83"/>
<polygon fill="midnightblue" stroke="midnightblue" points="93.5197,-1368.71 84.0723,-1373.5 94.4482,-1375.65 93.5197,-1368.71"/>
</g>
<!-- Node19 -->
<g id="node19" class="node"><title>Node19</title>
<g id="a_node19"><a xlink:href="bcnvrt__main_8cpp.html#ab4778b8a2f574f4a41b29fab53732492" target="_top" xlink:title="rfCompareFrames">
<polygon fill="white" stroke="black" points="137.436,-39 137.436,-59 234.564,-59 234.564,-39 137.436,-39"/>
<text text-anchor="middle" x="186" y="-45" font-family="Helvetica,sans-Serif" font-size="10.00">rfCompareFrames</text>
</a>
</g>
</g>
<!-- Node1&#45;&gt;Node19 -->
<g id="edge24" class="edge"><title>Node1&#45;&gt;Node19</title>
<path fill="none" stroke="midnightblue" d="M43.5898,-1358.89C46.8472,-1254.49 64.5525,-763.958 120,-367 137.111,-244.501 172.665,-98.284 182.456,-59.0794"/>
<polygon fill="midnightblue" stroke="midnightblue" points="40.0887,-1358.87 43.2831,-1368.98 47.0855,-1359.09 40.0887,-1358.87"/>
</g>
<!-- Node20 -->
<g id="node20" class="node"><title>Node20</title>
<g id="a_node20"><a xlink:href="bcnvrt__main_8cpp.html#a6e8fab40e4cd89f05d7bafbc7c22dedc" target="_top" xlink:title="rfCompareMovies">
<polygon fill="white" stroke="black" points="321.544,-39 321.544,-59 416.456,-59 416.456,-39 321.544,-39"/>
<text text-anchor="middle" x="369" y="-45" font-family="Helvetica,sans-Serif" font-size="10.00">rfCompareMovies</text>
</a>
</g>
</g>
<!-- Node1&#45;&gt;Node20 -->
<g id="edge29" class="edge"><title>Node1&#45;&gt;Node20</title>
<path fill="none" stroke="midnightblue" d="M44.1536,-1358.74C49.1185,-1275.69 70.6892,-953.35 120,-693 173.528,-410.386 81.6401,-268.378 288,-68 297.012,-59.2488 309.282,-54.2689 321.504,-51.5017"/>
<polygon fill="midnightblue" stroke="midnightblue" points="40.6529,-1358.66 43.5621,-1368.84 47.6409,-1359.07 40.6529,-1358.66"/>
</g>
<!-- Node23 -->
<g id="node23" class="node"><title>Node23</title>
<g id="a_node23"><a xlink:href="classrc_window.html#a232627a15bd75725861721177a38df82" target="_top" xlink:title="rcWindow::rowPointer">
<polygon fill="white" stroke="red" points="129.375,-702 129.375,-722 242.625,-722 242.625,-702 129.375,-702"/>
<text text-anchor="middle" x="186" y="-708" font-family="Helvetica,sans-Serif" font-size="10.00">rcWindow::rowPointer</text>
</a>
</g>
</g>
<!-- Node1&#45;&gt;Node23 -->
<g id="edge30" class="edge"><title>Node1&#45;&gt;Node23</title>
<path fill="none" stroke="midnightblue" d="M47.2945,-1358.83C69.0791,-1256.5 166.952,-796.776 182.823,-722.228"/>
<polygon fill="midnightblue" stroke="midnightblue" points="43.8327,-1358.28 45.1737,-1368.79 50.6793,-1359.74 43.8327,-1358.28"/>
</g>
<!-- Node3 -->
<g id="node3" class="node"><title>Node3</title>
<g id="a_node3"><a xlink:href="classrc_movie_converter_to_rfy.html#a14ff503f33fc8496d34f367992430ebb" target="_top" xlink:title="rcMovieConverterToRfy\l::createRfyMovie">
<polygon fill="white" stroke="red" points="308.764,-1802 308.764,-1834 429.236,-1834 429.236,-1802 308.764,-1802"/>
<text text-anchor="start" x="316.764" y="-1820" font-family="Helvetica,sans-Serif" font-size="10.00">rcMovieConverterToRfy</text>
<text text-anchor="middle" x="369" y="-1808" font-family="Helvetica,sans-Serif" font-size="10.00">::createRfyMovie</text>
</a>
</g>
</g>
<!-- Node2&#45;&gt;Node3 -->
<g id="edge2" class="edge"><title>Node2&#45;&gt;Node3</title>
<path fill="none" stroke="midnightblue" d="M253.941,-1785.86C272.724,-1791.15 292.963,-1796.86 311.103,-1801.97"/>
<polygon fill="midnightblue" stroke="midnightblue" points="254.844,-1782.48 244.27,-1783.14 252.945,-1789.22 254.844,-1782.48"/>
</g>
<!-- Node4 -->
<g id="node4" class="node"><title>Node4</title>
<g id="a_node4"><a xlink:href="classrc_movie_converter_to_q_t.html#ad76ebb33252df1ff7af4984a729c9dba" target="_top" xlink:title="rcMovieConverterToQT\l::addVideoSamplesToMedia">
<polygon fill="white" stroke="red" points="298.827,-1751 298.827,-1783 439.173,-1783 439.173,-1751 298.827,-1751"/>
<text text-anchor="start" x="306.827" y="-1769" font-family="Helvetica,sans-Serif" font-size="10.00">rcMovieConverterToQT</text>
<text text-anchor="middle" x="369" y="-1757" font-family="Helvetica,sans-Serif" font-size="10.00">::addVideoSamplesToMedia</text>
</a>
</g>
</g>
<!-- Node2&#45;&gt;Node4 -->
<g id="edge3" class="edge"><title>Node2&#45;&gt;Node4</title>
<path fill="none" stroke="midnightblue" d="M262.127,-1767C274.206,-1767 286.661,-1767 298.597,-1767"/>
<polygon fill="midnightblue" stroke="midnightblue" points="262.089,-1763.5 252.089,-1767 262.089,-1770.5 262.089,-1763.5"/>
</g>
<!-- Node6 -->
<g id="node6" class="node"><title>Node6</title>
<g id="a_node6"><a xlink:href="classrc_kinetoscope.html#a30274b84c57f86e667b614556f6c569b" target="_top" xlink:title="rcKinetoscope::step">
<polygon fill="white" stroke="red" points="486.086,-1614 486.086,-1634 589.914,-1634 589.914,-1614 486.086,-1614"/>
<text text-anchor="middle" x="538" y="-1620" font-family="Helvetica,sans-Serif" font-size="10.00">rcKinetoscope::step</text>
</a>
</g>
</g>
<!-- Node5&#45;&gt;Node6 -->
<g id="edge5" class="edge"><title>Node5&#45;&gt;Node6</title>
<path fill="none" stroke="midnightblue" d="M216.612,-1609.62C236.325,-1600.87 263.086,-1590.53 288,-1586 358.838,-1573.11 379.521,-1571.28 450,-1586 475.492,-1591.32 502.657,-1604.55 519.72,-1613.9"/>
<polygon fill="midnightblue" stroke="midnightblue" points="214.912,-1606.55 207.268,-1613.89 217.818,-1612.92 214.912,-1606.55"/>
</g>
<!-- Node7 -->
<g id="node7" class="node"><title>Node7</title>
<g id="a_node7"><a xlink:href="classrc_kinetoscope.html#ae0addfc3a10c4c69ba027d9bfc351217" target="_top" xlink:title="rcKinetoscope::stepContractile">
<polygon fill="white" stroke="black" points="293.188,-1712 293.188,-1732 444.812,-1732 444.812,-1712 293.188,-1712"/>
<text text-anchor="middle" x="369" y="-1718" font-family="Helvetica,sans-Serif" font-size="10.00">rcKinetoscope::stepContractile</text>
</a>
</g>
</g>
<!-- Node5&#45;&gt;Node7 -->
<g id="edge6" class="edge"><title>Node5&#45;&gt;Node7</title>
<path fill="none" stroke="midnightblue" d="M204.219,-1640.96C223.196,-1658.73 255.378,-1686.19 288,-1702 296.374,-1706.06 305.653,-1709.35 314.838,-1711.99"/>
<polygon fill="midnightblue" stroke="midnightblue" points="206.582,-1638.38 196.931,-1634.01 201.749,-1643.44 206.582,-1638.38"/>
</g>
<!-- Node8 -->
<g id="node8" class="node"><title>Node8</title>
<g id="a_node8"><a xlink:href="classrc_kinetoscope.html#a431144623d201c5aeb857893d8460ca2" target="_top" xlink:title="rcKinetoscope::stepEpi">
<polygon fill="white" stroke="black" points="309.86,-1634 309.86,-1654 428.14,-1654 428.14,-1634 309.86,-1634"/>
<text text-anchor="middle" x="369" y="-1640" font-family="Helvetica,sans-Serif" font-size="10.00">rcKinetoscope::stepEpi</text>
</a>
</g>
</g>
<!-- Node5&#45;&gt;Node8 -->
<g id="edge8" class="edge"><title>Node5&#45;&gt;Node8</title>
<path fill="none" stroke="midnightblue" d="M251.364,-1631.11C270.361,-1633.21 291.038,-1635.5 309.635,-1637.55"/>
<polygon fill="midnightblue" stroke="midnightblue" points="251.63,-1627.62 241.306,-1630 250.861,-1634.58 251.63,-1627.62"/>
</g>
<!-- Node9 -->
<g id="node9" class="node"><title>Node9</title>
<g id="a_node9"><a xlink:href="classrc_kinetoscope.html#ade990e6e3582a1e363aad1549d0117b2" target="_top" xlink:title="rcKinetoscope::stepDirectedFlow">
<polygon fill="white" stroke="black" points="287.912,-1595 287.912,-1615 450.088,-1615 450.088,-1595 287.912,-1595"/>
<text text-anchor="middle" x="369" y="-1601" font-family="Helvetica,sans-Serif" font-size="10.00">rcKinetoscope::stepDirectedFlow</text>
</a>
</g>
</g>
<!-- Node5&#45;&gt;Node9 -->
<g id="edge10" class="edge"><title>Node5&#45;&gt;Node9</title>
<path fill="none" stroke="midnightblue" d="M251.423,-1617.24C263.149,-1616.01 275.512,-1614.71 287.631,-1613.44"/>
<polygon fill="midnightblue" stroke="midnightblue" points="250.886,-1613.77 241.306,-1618.3 251.617,-1620.74 250.886,-1613.77"/>
</g>
<!-- Node10 -->
<g id="node10" class="node"><title>Node10</title>
<g id="a_node10"><a xlink:href="classrc_kinetoscope.html#a773e884a84eb4f6d97ef71eb1c95aeda" target="_top" xlink:title="rcKinetoscope::start">
<polygon fill="white" stroke="red" points="316.813,-1673 316.813,-1693 421.187,-1693 421.187,-1673 316.813,-1673"/>
<text text-anchor="middle" x="369" y="-1679" font-family="Helvetica,sans-Serif" font-size="10.00">rcKinetoscope::start</text>
</a>
</g>
</g>
<!-- Node5&#45;&gt;Node10 -->
<g id="edge12" class="edge"><title>Node5&#45;&gt;Node10</title>
<path fill="none" stroke="midnightblue" d="M220.151,-1637.99C239.687,-1645.94 265.006,-1655.72 288,-1663 299.464,-1666.63 312.019,-1670.03 323.713,-1672.96"/>
<polygon fill="midnightblue" stroke="midnightblue" points="221.364,-1634.71 210.784,-1634.14 218.703,-1641.18 221.364,-1634.71"/>
</g>
<!-- Node7&#45;&gt;Node6 -->
<g id="edge7" class="edge"><title>Node7&#45;&gt;Node6</title>
<path fill="none" stroke="midnightblue" d="M434.729,-1708.76C440.019,-1706.8 445.179,-1704.56 450,-1702 483.507,-1684.22 514.484,-1650.79 528.749,-1634.07"/>
<polygon fill="midnightblue" stroke="midnightblue" points="433.475,-1705.49 425.111,-1711.99 435.705,-1712.12 433.475,-1705.49"/>
</g>
<!-- Node8&#45;&gt;Node6 -->
<g id="edge9" class="edge"><title>Node8&#45;&gt;Node6</title>
<path fill="none" stroke="midnightblue" d="M438.653,-1635.78C454.441,-1633.89 470.961,-1631.91 485.856,-1630.13"/>
<polygon fill="midnightblue" stroke="midnightblue" points="437.921,-1632.34 428.408,-1637 438.754,-1639.29 437.921,-1632.34"/>
</g>
<!-- Node9&#45;&gt;Node6 -->
<g id="edge11" class="edge"><title>Node9&#45;&gt;Node6</title>
<path fill="none" stroke="midnightblue" d="M460.696,-1615.32C469.305,-1616.3 477.811,-1617.27 485.845,-1618.18"/>
<polygon fill="midnightblue" stroke="midnightblue" points="460.897,-1611.82 450.565,-1614.17 460.105,-1618.77 460.897,-1611.82"/>
</g>
<!-- Node11&#45;&gt;Node12 -->
<g id="edge14" class="edge"><title>Node11&#45;&gt;Node12</title>
<path fill="none" stroke="midnightblue" d="M237.377,-1431.48C265.815,-1424.41 300.879,-1415.69 327.516,-1409.07"/>
<polygon fill="midnightblue" stroke="midnightblue" points="236.48,-1428.09 227.62,-1433.9 238.169,-1434.88 236.48,-1428.09"/>
</g>
<!-- Node13 -->
<g id="node13" class="node"><title>Node13</title>
<g id="a_node13"><a xlink:href="rc__imageintegrals_8cpp.html#a20b33654ff01ced109f050e9a8bbdcd8" target="_top" xlink:title="rfImageACfield">
<polygon fill="white" stroke="black" points="625.931,-1389 625.931,-1409 708.069,-1409 708.069,-1389 625.931,-1389"/>
<text text-anchor="middle" x="667" y="-1395" font-family="Helvetica,sans-Serif" font-size="10.00">rfImageACfield</text>
</a>
</g>
</g>
<!-- Node11&#45;&gt;Node13 -->
<g id="edge16" class="edge"><title>Node11&#45;&gt;Node13</title>
<path fill="none" stroke="midnightblue" d="M205.712,-1460.52C224.855,-1476.23 256.219,-1498.78 288,-1508 357.148,-1528.06 379.957,-1524.67 450,-1508 532.134,-1488.45 618.45,-1432.4 651.747,-1409.22"/>
<polygon fill="midnightblue" stroke="midnightblue" points="207.955,-1457.83 198.054,-1454.06 203.443,-1463.18 207.955,-1457.83"/>
</g>
<!-- Node14 -->
<g id="node14" class="node"><title>Node14</title>
<g id="a_node14"><a xlink:href="classrc_row_func_two_source.html#a3bf8b014acbb16110abce215bb4da25f" target="_top" xlink:title="rcRowFuncTwoSource\l::checkAssigned">
<polygon fill="white" stroke="black" points="310.702,-1428 310.702,-1460 427.298,-1460 427.298,-1428 310.702,-1428"/>
<text text-anchor="start" x="318.702" y="-1446" font-family="Helvetica,sans-Serif" font-size="10.00">rcRowFuncTwoSource</text>
<text text-anchor="middle" x="369" y="-1434" font-family="Helvetica,sans-Serif" font-size="10.00">::checkAssigned</text>
</a>
</g>
</g>
<!-- Node11&#45;&gt;Node14 -->
<g id="edge17" class="edge"><title>Node11&#45;&gt;Node14</title>
<path fill="none" stroke="midnightblue" d="M249.53,-1444C269.384,-1444 291.229,-1444 310.696,-1444"/>
<polygon fill="midnightblue" stroke="midnightblue" points="249.353,-1440.5 239.353,-1444 249.353,-1447.5 249.353,-1440.5"/>
</g>
<!-- Node15 -->
<g id="node15" class="node"><title>Node15</title>
<g id="a_node15"><a xlink:href="classrc_frame.html#a12be4afaa975295a6df8fe22c53986f2" target="_top" xlink:title="rcFrame::operator()">
<polygon fill="white" stroke="black" points="317.658,-1479 317.658,-1499 420.342,-1499 420.342,-1479 317.658,-1479"/>
<text text-anchor="middle" x="369" y="-1485" font-family="Helvetica,sans-Serif" font-size="10.00">rcFrame::operator()</text>
</a>
</g>
</g>
<!-- Node11&#45;&gt;Node15 -->
<g id="edge18" class="edge"><title>Node11&#45;&gt;Node15</title>
<path fill="none" stroke="midnightblue" d="M237.377,-1456.52C265.815,-1463.59 300.879,-1472.31 327.516,-1478.93"/>
<polygon fill="midnightblue" stroke="midnightblue" points="238.169,-1453.12 227.62,-1454.1 236.48,-1459.91 238.169,-1453.12"/>
</g>
<!-- Node12&#45;&gt;Node13 -->
<g id="edge15" class="edge"><title>Node12&#45;&gt;Node13</title>
<path fill="none" stroke="midnightblue" d="M440.067,-1399C497.912,-1399 577.98,-1399 625.632,-1399"/>
<polygon fill="midnightblue" stroke="midnightblue" points="439.9,-1395.5 429.9,-1399 439.9,-1402.5 439.9,-1395.5"/>
</g>
<!-- Node17 -->
<g id="node17" class="node"><title>Node17</title>
<g id="a_node17"><a xlink:href="classrc_window.html#a8bad48552f0db28803089113326911de" target="_top" xlink:title="rcWindow::pelPointer">
<polygon fill="white" stroke="red" points="313.759,-1350 313.759,-1370 424.241,-1370 424.241,-1350 313.759,-1350"/>
<text text-anchor="middle" x="369" y="-1356" font-family="Helvetica,sans-Serif" font-size="10.00">rcWindow::pelPointer</text>
</a>
</g>
</g>
<!-- Node16&#45;&gt;Node17 -->
<g id="edge21" class="edge"><title>Node16&#45;&gt;Node17</title>
<path fill="none" stroke="midnightblue" d="M248.539,-1360C269.661,-1360 293.134,-1360 313.644,-1360"/>
<polygon fill="midnightblue" stroke="midnightblue" points="248.383,-1356.5 238.383,-1360 248.383,-1363.5 248.383,-1356.5"/>
</g>
<!-- Node18 -->
<g id="node18" class="node"><title>Node18</title>
<g id="a_node18"><a xlink:href="rc__imageintegrals_8cpp.html#a4c9e78ee8f8128ed6ba82aea9e2b5d7e" target="_top" xlink:title="rfImageIntegrals">
<polygon fill="white" stroke="black" points="493.872,-1350 493.872,-1370 582.128,-1370 582.128,-1350 493.872,-1350"/>
<text text-anchor="middle" x="538" y="-1356" font-family="Helvetica,sans-Serif" font-size="10.00">rfImageIntegrals</text>
</a>
</g>
</g>
<!-- Node17&#45;&gt;Node18 -->
<g id="edge22" class="edge"><title>Node17&#45;&gt;Node18</title>
<path fill="none" stroke="midnightblue" d="M434.863,-1360C454.637,-1360 475.88,-1360 493.844,-1360"/>
<polygon fill="midnightblue" stroke="midnightblue" points="434.682,-1356.5 424.682,-1360 434.682,-1363.5 434.682,-1356.5"/>
</g>
<!-- Node18&#45;&gt;Node13 -->
<g id="edge23" class="edge"><title>Node18&#45;&gt;Node13</title>
<path fill="none" stroke="midnightblue" d="M581.386,-1373.02C598.344,-1378.22 617.57,-1384.13 633.405,-1388.99"/>
<polygon fill="midnightblue" stroke="midnightblue" points="582.293,-1369.63 571.706,-1370.04 580.238,-1376.32 582.293,-1369.63"/>
</g>
<!-- Node19&#45;&gt;Node20 -->
<g id="edge25" class="edge"><title>Node19&#45;&gt;Node20</title>
<path fill="none" stroke="midnightblue" d="M245.318,-49C269.905,-49 298.135,-49 321.312,-49"/>
<polygon fill="midnightblue" stroke="midnightblue" points="245.03,-45.5001 235.029,-49 245.029,-52.5001 245.03,-45.5001"/>
</g>
<!-- Node22 -->
<g id="node22" class="node"><title>Node22</title>
<g id="a_node22"><a xlink:href="bcnvrt__main_8cpp.html#a00a4dac924291e9ba2f484741e4abc19" target="_top" xlink:title="rfCompareReifyMovies">
<polygon fill="white" stroke="black" points="310.153,-0 310.153,-20 427.847,-20 427.847,-0 310.153,-0"/>
<text text-anchor="middle" x="369" y="-6" font-family="Helvetica,sans-Serif" font-size="10.00">rfCompareReifyMovies</text>
</a>
</g>
</g>
<!-- Node19&#45;&gt;Node22 -->
<g id="edge27" class="edge"><title>Node19&#45;&gt;Node22</title>
<path fill="none" stroke="midnightblue" d="M243.708,-36.7812C268.748,-31.3858 297.818,-25.1221 321.546,-20.0094"/>
<polygon fill="midnightblue" stroke="midnightblue" points="242.65,-33.4286 233.612,-38.9565 244.125,-40.2716 242.65,-33.4286"/>
</g>
<!-- Node21 -->
<g id="node21" class="node"><title>Node21</title>
<g id="a_node21"><a xlink:href="bcnvrt__main_8cpp.html#a3c04138a5bfe5d72780bb7e82a18e627" target="_top" xlink:title="main">
<polygon fill="white" stroke="black" points="519.163,-20 519.163,-40 556.837,-40 556.837,-20 519.163,-20"/>
<text text-anchor="middle" x="538" y="-26" font-family="Helvetica,sans-Serif" font-size="10.00">main</text>
</a>
</g>
</g>
<!-- Node20&#45;&gt;Node21 -->
<g id="edge26" class="edge"><title>Node20&#45;&gt;Node21</title>
<path fill="none" stroke="midnightblue" d="M426.736,-42.545C458.935,-38.8816 497.072,-34.5427 519.009,-32.0469"/>
<polygon fill="midnightblue" stroke="midnightblue" points="426.059,-39.0994 416.519,-43.7074 426.85,-46.0545 426.059,-39.0994"/>
</g>
<!-- Node22&#45;&gt;Node21 -->
<g id="edge28" class="edge"><title>Node22&#45;&gt;Node21</title>
<path fill="none" stroke="midnightblue" d="M438.173,-18.1644C467.482,-21.6745 499.399,-25.4969 518.806,-27.8211"/>
<polygon fill="midnightblue" stroke="midnightblue" points="438.285,-14.6529 427.94,-16.9389 437.453,-21.6033 438.285,-14.6529"/>
</g>
<!-- Node23&#45;&gt;Node18 -->
<g id="edge38" class="edge"><title>Node23&#45;&gt;Node18</title>
<path fill="none" stroke="midnightblue" d="M187.585,-732.538C190.687,-826.686 208.232,-1216.06 288,-1301 291.564,-1304.8 423.481,-1334.68 493.822,-1350.4"/>
<polygon fill="midnightblue" stroke="midnightblue" points="191.077,-732.228 187.268,-722.342 184.08,-732.445 191.077,-732.228"/>
</g>
<!-- Node24 -->
<g id="node24" class="node"><title>Node24</title>
<g id="a_node24"><a xlink:href="classrc_correlation_window.html#a49a7cce1e36532fd77d515fafe4746d7" target="_top" xlink:title="rcCorrelationWindow\l\&lt; uint8 \&gt;::rowPointer">
<polygon fill="white" stroke="black" points="314.596,-594 314.596,-626 423.404,-626 423.404,-594 314.596,-594"/>
<text text-anchor="start" x="322.596" y="-612" font-family="Helvetica,sans-Serif" font-size="10.00">rcCorrelationWindow</text>
<text text-anchor="middle" x="369" y="-600" font-family="Helvetica,sans-Serif" font-size="10.00">&lt; uint8 &gt;::rowPointer</text>
</a>
</g>
</g>
<!-- Node23&#45;&gt;Node24 -->
<g id="edge31" class="edge"><title>Node23&#45;&gt;Node24</title>
<path fill="none" stroke="midnightblue" d="M205.454,-695.106C224.789,-678.161 256.656,-652.304 288,-636 296.292,-631.687 305.438,-627.905 314.492,-624.659"/>
<polygon fill="midnightblue" stroke="midnightblue" points="203.113,-692.504 197.973,-701.768 207.769,-697.731 203.113,-692.504"/>
</g>
<!-- Node25 -->
<g id="node25" class="node"><title>Node25</title>
<g id="a_node25"><a xlink:href="classrc_correlation_window.html#a8afd1ff96d9b8f9fd5eca1ab15f7a09b" target="_top" xlink:title="rcCorrelationWindow\l\&lt; uint8 \&gt;::rowPelPointer">
<polygon fill="white" stroke="black" points="307.636,-543 307.636,-575 430.364,-575 430.364,-543 307.636,-543"/>
<text text-anchor="start" x="315.636" y="-561" font-family="Helvetica,sans-Serif" font-size="10.00">rcCorrelationWindow</text>
<text text-anchor="middle" x="369" y="-549" font-family="Helvetica,sans-Serif" font-size="10.00">&lt; uint8 &gt;::rowPelPointer</text>
</a>
</g>
</g>
<!-- Node23&#45;&gt;Node25 -->
<g id="edge32" class="edge"><title>Node23&#45;&gt;Node25</title>
<path fill="none" stroke="midnightblue" d="M197.22,-693.03C213.076,-665.345 246.178,-614.019 288,-585 293.999,-580.837 300.707,-577.309 307.617,-574.326"/>
<polygon fill="midnightblue" stroke="midnightblue" points="194.164,-691.324 192.345,-701.762 200.276,-694.737 194.164,-691.324"/>
</g>
<!-- Node26 -->
<g id="node26" class="node"><title>Node26</title>
<g id="a_node26"><a xlink:href="classrc_basic_corr_row_func.html#a4760884d4fe4e207082edffdf8533774" target="_top" xlink:title="rcBasicCorrRowFunc\l::rcBasicCorrRowFunc">
<polygon fill="white" stroke="black" points="310.99,-492 310.99,-524 427.01,-524 427.01,-492 310.99,-492"/>
<text text-anchor="start" x="318.99" y="-510" font-family="Helvetica,sans-Serif" font-size="10.00">rcBasicCorrRowFunc</text>
<text text-anchor="middle" x="369" y="-498" font-family="Helvetica,sans-Serif" font-size="10.00">::rcBasicCorrRowFunc</text>
</a>
</g>
</g>
<!-- Node23&#45;&gt;Node26 -->
<g id="edge33" class="edge"><title>Node23&#45;&gt;Node26</title>
<path fill="none" stroke="midnightblue" d="M193.017,-691.826C205.008,-655.052 235.361,-576.956 288,-534 294.676,-528.552 302.523,-524.235 310.649,-520.815"/>
<polygon fill="midnightblue" stroke="midnightblue" points="189.534,-691.238 189.881,-701.827 196.213,-693.333 189.534,-691.238"/>
</g>
<!-- Node27 -->
<g id="node27" class="node"><title>Node27</title>
<g id="a_node27"><a xlink:href="classrc_basic_pixel_map.html#ad18faf69314eb6f99843fd7e80ae04f6" target="_top" xlink:title="rcBasicPixelMap::rcBasic\lPixelMap">
<polygon fill="white" stroke="black" points="304.875,-441 304.875,-473 433.125,-473 433.125,-441 304.875,-441"/>
<text text-anchor="start" x="312.875" y="-459" font-family="Helvetica,sans-Serif" font-size="10.00">rcBasicPixelMap::rcBasic</text>
<text text-anchor="middle" x="369" y="-447" font-family="Helvetica,sans-Serif" font-size="10.00">PixelMap</text>
</a>
</g>
</g>
<!-- Node23&#45;&gt;Node27 -->
<g id="edge34" class="edge"><title>Node23&#45;&gt;Node27</title>
<path fill="none" stroke="midnightblue" d="M190.235,-691.703C198.368,-647.326 223.804,-541.01 288,-483 292.876,-478.594 298.51,-474.933 304.484,-471.893"/>
<polygon fill="midnightblue" stroke="midnightblue" points="186.781,-691.133 188.527,-701.584 193.679,-692.326 186.781,-691.133"/>
</g>
<!-- Node28 -->
<g id="node28" class="node"><title>Node28</title>
<g id="a_node28"><a xlink:href="classrc_mutual_info.html#a45b7fc763edc28a4c8c0e20aa1a4a777" target="_top" xlink:title="rcMutualInfo::add">
<polygon fill="white" stroke="black" points="322.367,-402 322.367,-422 415.633,-422 415.633,-402 322.367,-402"/>
<text text-anchor="middle" x="369" y="-408" font-family="Helvetica,sans-Serif" font-size="10.00">rcMutualInfo::add</text>
</a>
</g>
</g>
<!-- Node23&#45;&gt;Node28 -->
<g id="edge35" class="edge"><title>Node23&#45;&gt;Node28</title>
<path fill="none" stroke="midnightblue" d="M188.07,-691.543C191.916,-639.844 209.399,-503.023 288,-432 297.454,-423.458 310.003,-418.438 322.354,-415.523"/>
<polygon fill="midnightblue" stroke="midnightblue" points="184.563,-691.543 187.411,-701.747 191.548,-691.994 184.563,-691.543"/>
</g>
<!-- Node29 -->
<g id="node29" class="node"><title>Node29</title>
<g id="a_node29"><a xlink:href="rc__analysis_8h.html#ad502b5b11d75de45c2c0f634e837abd1" target="_top" xlink:title="rfGetComponents">
<polygon fill="white" stroke="red" points="321.537,-363 321.537,-383 416.463,-383 416.463,-363 321.537,-363"/>
<text text-anchor="middle" x="369" y="-369" font-family="Helvetica,sans-Serif" font-size="10.00">rfGetComponents</text>
</a>
</g>
</g>
<!-- Node23&#45;&gt;Node29 -->
<g id="edge36" class="edge"><title>Node23&#45;&gt;Node29</title>
<path fill="none" stroke="midnightblue" d="M187.025,-691.8C188.242,-635.586 199.702,-476.016 288,-393 297.074,-384.468 309.221,-379.426 321.303,-376.486"/>
<polygon fill="midnightblue" stroke="midnightblue" points="183.524,-691.844 186.897,-701.888 190.524,-691.933 183.524,-691.844"/>
</g>
<!-- Node30 -->
<g id="node30" class="node"><title>Node30</title>
<g id="a_node30"><a xlink:href="rc__analysis_8h.html#acd06a7f611ec4deb1d3b90bf12a3822c" target="_top" xlink:title="rfGetRects">
<polygon fill="white" stroke="red" points="337.106,-324 337.106,-344 400.894,-344 400.894,-324 337.106,-324"/>
<text text-anchor="middle" x="369" y="-330" font-family="Helvetica,sans-Serif" font-size="10.00">rfGetRects</text>
</a>
</g>
</g>
<!-- Node23&#45;&gt;Node30 -->
<g id="edge37" class="edge"><title>Node23&#45;&gt;Node30</title>
<path fill="none" stroke="midnightblue" d="M186.207,-691.825C184.991,-631.214 190.04,-449.065 288,-354 300.945,-341.438 320.527,-336.396 337.077,-334.516"/>
<polygon fill="midnightblue" stroke="midnightblue" points="182.713,-692.078 186.497,-701.974 189.71,-691.878 182.713,-692.078"/>
</g>
<!-- Node31 -->
<g id="node31" class="node"><title>Node31</title>
<g id="a_node31"><a xlink:href="rc__imageintegrals_8cpp.html#a16236d13d8eadd27401c0c2e3bd8c179" target="_top" xlink:title="rfImageOrthogonalProjections">
<polygon fill="white" stroke="black" points="294.577,-285 294.577,-305 443.423,-305 443.423,-285 294.577,-285"/>
<text text-anchor="middle" x="369" y="-291" font-family="Helvetica,sans-Serif" font-size="10.00">rfImageOrthogonalProjections</text>
</a>
</g>
</g>
<!-- Node23&#45;&gt;Node31 -->
<g id="edge39" class="edge"><title>Node23&#45;&gt;Node31</title>
<path fill="none" stroke="midnightblue" d="M190.848,-691.975C205.765,-615.201 260.322,-342.563 288,-315 292.058,-310.959 296.8,-307.693 301.915,-305.057"/>
<polygon fill="midnightblue" stroke="midnightblue" points="187.405,-691.346 188.942,-701.828 194.277,-692.675 187.405,-691.346"/>
</g>
<!-- Node32 -->
<g id="node32" class="node"><title>Node32</title>
<g id="a_node32"><a xlink:href="classrc_moment_generator.html#a7b8dba1194147838b9ddadd80fb12c47" target="_top" xlink:title="rcMomentGenerator::\lupdate">
<polygon fill="white" stroke="red" points="313.483,-234 313.483,-266 424.517,-266 424.517,-234 313.483,-234"/>
<text text-anchor="start" x="321.483" y="-252" font-family="Helvetica,sans-Serif" font-size="10.00">rcMomentGenerator::</text>
<text text-anchor="middle" x="369" y="-240" font-family="Helvetica,sans-Serif" font-size="10.00">update</text>
</a>
</g>
</g>
<!-- Node23&#45;&gt;Node32 -->
<g id="edge40" class="edge"><title>Node23&#45;&gt;Node32</title>
<path fill="none" stroke="midnightblue" d="M191.087,-691.797C208.126,-607.929 273.308,-290.849 288,-275 294.826,-267.637 303.784,-262.426 313.229,-258.744"/>
<polygon fill="midnightblue" stroke="midnightblue" points="187.649,-691.138 189.092,-701.634 194.51,-692.529 187.649,-691.138"/>
</g>
<!-- Node33 -->
<g id="node33" class="node"><title>Node33</title>
<g id="a_node33"><a xlink:href="rc__ip_8cpp.html#a54d94fa650e57fe06612ec8a91a20d69" target="_top" xlink:title="gaussEdge">
<polygon fill="white" stroke="black" points="335.98,-195 335.98,-215 402.02,-215 402.02,-195 335.98,-195"/>
<text text-anchor="middle" x="369" y="-201" font-family="Helvetica,sans-Serif" font-size="10.00">gaussEdge</text>
</a>
</g>
</g>
<!-- Node23&#45;&gt;Node33 -->
<g id="edge41" class="edge"><title>Node23&#45;&gt;Node33</title>
<path fill="none" stroke="midnightblue" d="M191.13,-691.863C209.976,-599.999 286.942,-225.089 288,-224 300.333,-211.303 319.488,-206.448 335.963,-204.818"/>
<polygon fill="midnightblue" stroke="midnightblue" points="187.666,-691.333 189.085,-701.833 194.523,-692.74 187.666,-691.333"/>
</g>
<!-- Node34 -->
<g id="node34" class="node"><title>Node34</title>
<g id="a_node34"><a xlink:href="rc__ip_8cpp.html#aa1a6d4d9ba9c2ee7accc173232fe09ac" target="_top" xlink:title="rfGauss3">
<polygon fill="white" stroke="red" points="509.714,-117 509.714,-137 566.286,-137 566.286,-117 509.714,-117"/>
<text text-anchor="middle" x="538" y="-123" font-family="Helvetica,sans-Serif" font-size="10.00">rfGauss3</text>
</a>
</g>
</g>
<!-- Node23&#45;&gt;Node34 -->
<g id="edge42" class="edge"><title>Node23&#45;&gt;Node34</title>
<path fill="none" stroke="midnightblue" d="M191.322,-692.065C202.095,-642.141 230.798,-507.666 252,-395 269.513,-301.939 223.047,-253.908 288,-185 291.853,-180.912 445.411,-147 509.425,-133.005"/>
<polygon fill="midnightblue" stroke="midnightblue" points="187.889,-691.382 189.196,-701.896 194.731,-692.861 187.889,-691.382"/>
</g>
<!-- Node35 -->
<g id="node35" class="node"><title>Node35</title>
<g id="a_node35"><a xlink:href="rc__ip_8cpp.html#ab144102eb846bcc24817450991e5a57f" target="_top" xlink:title="rfGauss3by3">
<polygon fill="white" stroke="black" points="332.653,-117 332.653,-137 405.347,-137 405.347,-117 332.653,-117"/>
<text text-anchor="middle" x="369" y="-123" font-family="Helvetica,sans-Serif" font-size="10.00">rfGauss3by3</text>
</a>
</g>
</g>
<!-- Node23&#45;&gt;Node35 -->
<g id="edge43" class="edge"><title>Node23&#45;&gt;Node35</title>
<path fill="none" stroke="midnightblue" d="M191.48,-692.094C202.614,-642.236 232.078,-507.9 252,-395 261.486,-341.241 252.521,-193.488 288,-152 299.065,-139.061 316.726,-132.727 332.643,-129.664"/>
<polygon fill="midnightblue" stroke="midnightblue" points="188.052,-691.388 189.28,-701.911 194.882,-692.918 188.052,-691.388"/>
</g>
<!-- Node36 -->
<g id="node36" class="node"><title>Node36</title>
<g id="a_node36"><a xlink:href="rc__ip_8cpp.html#ae9db2a72045d64d64bc724d246af6c85" target="_top" xlink:title="rfGauss163by3">
<polygon fill="white" stroke="black" points="327.091,-78 327.091,-98 410.909,-98 410.909,-78 327.091,-78"/>
<text text-anchor="middle" x="369" y="-84" font-family="Helvetica,sans-Serif" font-size="10.00">rfGauss163by3</text>
</a>
</g>
</g>
<!-- Node23&#45;&gt;Node36 -->
<g id="edge45" class="edge"><title>Node23&#45;&gt;Node36</title>
<path fill="none" stroke="midnightblue" d="M191.639,-692.121C203.135,-642.325 233.362,-508.119 252,-395 262.486,-331.36 244.941,-155.02 288,-107 297.816,-96.053 312.684,-90.8392 326.949,-88.5173"/>
<polygon fill="midnightblue" stroke="midnightblue" points="188.215,-691.393 189.365,-701.926 195.034,-692.975 188.215,-691.393"/>
</g>
<!-- Node37 -->
<g id="node37" class="node"><title>Node37</title>
<g id="a_node37"><a xlink:href="rc__kineticimage_8h.html#ad78a2d848ed09d08c0481b964e29ce8e" target="_top" xlink:title="segPoint">
<polygon fill="white" stroke="red" points="341.542,-1272 341.542,-1292 396.458,-1292 396.458,-1272 341.542,-1272"/>
<text text-anchor="middle" x="369" y="-1278" font-family="Helvetica,sans-Serif" font-size="10.00">segPoint</text>
</a>
</g>
</g>
<!-- Node23&#45;&gt;Node37 -->
<g id="edge47" class="edge"><title>Node23&#45;&gt;Node37</title>
<path fill="none" stroke="midnightblue" d="M187.869,-732.282C192.128,-822.07 213.69,-1182.83 288,-1262 301.52,-1276.41 323.711,-1281.09 341.296,-1282.35"/>
<polygon fill="midnightblue" stroke="midnightblue" points="191.356,-731.915 187.406,-722.084 184.363,-732.232 191.356,-731.915"/>
</g>
<!-- Node38 -->
<g id="node38" class="node"><title>Node38</title>
<g id="a_node38"><a xlink:href="rc__kineticimage_8h.html#a4fd150ac4366c6ed539ad9d0f45ec67c" target="_top" xlink:title="genSpatialSDImg">
<polygon fill="white" stroke="red" points="322.089,-1233 322.089,-1253 415.911,-1253 415.911,-1233 322.089,-1233"/>
<text text-anchor="middle" x="369" y="-1239" font-family="Helvetica,sans-Serif" font-size="10.00">genSpatialSDImg</text>
</a>
</g>
</g>
<!-- Node23&#45;&gt;Node38 -->
<g id="edge48" class="edge"><title>Node23&#45;&gt;Node38</title>
<path fill="none" stroke="midnightblue" d="M188.173,-732.205C193.553,-817.882 218.653,-1150.11 288,-1223 296.881,-1232.34 309.405,-1237.58 321.913,-1240.45"/>
<polygon fill="midnightblue" stroke="midnightblue" points="191.665,-731.971 187.565,-722.202 184.678,-732.396 191.665,-731.971"/>
</g>
<!-- Node39 -->
<g id="node39" class="node"><title>Node39</title>
<g id="a_node39"><a xlink:href="rc__kineticimage_8cpp.html#a7fe945030e20c7cc5e0b67f69eb9c115" target="_top" xlink:title="binarize">
<polygon fill="white" stroke="red" points="343.49,-1194 343.49,-1214 394.51,-1214 394.51,-1194 343.49,-1194"/>
<text text-anchor="middle" x="369" y="-1200" font-family="Helvetica,sans-Serif" font-size="10.00">binarize</text>
</a>
</g>
</g>
<!-- Node23&#45;&gt;Node39 -->
<g id="edge49" class="edge"><title>Node23&#45;&gt;Node39</title>
<path fill="none" stroke="midnightblue" d="M188.53,-732.21C195.108,-813.756 223.622,-1117.38 288,-1184 302.227,-1198.72 325.522,-1203.24 343.315,-1204.35"/>
<polygon fill="midnightblue" stroke="midnightblue" points="192.018,-731.921 187.746,-722.225 185.04,-732.469 192.018,-731.921"/>
</g>
<!-- Node40 -->
<g id="node40" class="node"><title>Node40</title>
<g id="a_node40"><a xlink:href="classrc_opto_kinetic_image.html#ad13dd3d1f50bb9a8c77b1ef9dccf8d31" target="_top" xlink:title="rcOptoKineticImage\l::genKineticStats">
<polygon fill="white" stroke="red" points="317.091,-1143 317.091,-1175 420.909,-1175 420.909,-1143 317.091,-1143"/>
<text text-anchor="start" x="325.091" y="-1161" font-family="Helvetica,sans-Serif" font-size="10.00">rcOptoKineticImage</text>
<text text-anchor="middle" x="369" y="-1149" font-family="Helvetica,sans-Serif" font-size="10.00">::genKineticStats</text>
</a>
</g>
</g>
<!-- Node23&#45;&gt;Node40 -->
<g id="edge50" class="edge"><title>Node23&#45;&gt;Node40</title>
<path fill="none" stroke="midnightblue" d="M189.387,-731.957C198.656,-806.418 234.417,-1066.86 288,-1128 295.658,-1136.74 306.076,-1143.03 316.861,-1147.55"/>
<polygon fill="midnightblue" stroke="midnightblue" points="192.859,-731.513 188.171,-722.012 185.911,-732.364 192.859,-731.513"/>
</g>
<!-- Node41 -->
<g id="node41" class="node"><title>Node41</title>
<g id="a_node41"><a xlink:href="classrc_opto_kinetic_image.html#a182b7956724fc573550277810ae37d11" target="_top" xlink:title="rcOptoKineticImage\l::genEightBitDFT">
<polygon fill="white" stroke="black" points="486.091,-1120 486.091,-1152 589.909,-1152 589.909,-1120 486.091,-1120"/>
<text text-anchor="start" x="494.091" y="-1138" font-family="Helvetica,sans-Serif" font-size="10.00">rcOptoKineticImage</text>
<text text-anchor="middle" x="538" y="-1126" font-family="Helvetica,sans-Serif" font-size="10.00">::genEightBitDFT</text>
</a>
</g>
</g>
<!-- Node23&#45;&gt;Node41 -->
<g id="edge53" class="edge"><title>Node23&#45;&gt;Node41</title>
<path fill="none" stroke="midnightblue" d="M189.443,-732.036C198.561,-803.419 232.928,-1043.74 288,-1094 316.254,-1119.78 421.684,-1129.93 485.949,-1133.78"/>
<polygon fill="midnightblue" stroke="midnightblue" points="192.913,-731.572 188.197,-722.085 185.967,-732.442 192.913,-731.572"/>
</g>
<!-- Node42 -->
<g id="node42" class="node"><title>Node42</title>
<g id="a_node42"><a xlink:href="classrc_opto_kinetic_image.html#a1d1715dc28a0eea84834c136e02c26c4" target="_top" xlink:title="rcOptoKineticImage\l::genDFT">
<polygon fill="white" stroke="black" points="317.091,-1053 317.091,-1085 420.909,-1085 420.909,-1053 317.091,-1053"/>
<text text-anchor="start" x="325.091" y="-1071" font-family="Helvetica,sans-Serif" font-size="10.00">rcOptoKineticImage</text>
<text text-anchor="middle" x="369" y="-1059" font-family="Helvetica,sans-Serif" font-size="10.00">::genDFT</text>
</a>
</g>
</g>
<!-- Node23&#45;&gt;Node42 -->
<g id="edge52" class="edge"><title>Node23&#45;&gt;Node42</title>
<path fill="none" stroke="midnightblue" d="M187.064,-732.237C188.364,-789.337 199.975,-953.37 288,-1043 295.879,-1051.02 306.256,-1056.57 316.916,-1060.41"/>
<polygon fill="midnightblue" stroke="midnightblue" points="190.561,-731.967 186.921,-722.017 183.562,-732.066 190.561,-731.967"/>
</g>
<!-- Node43 -->
<g id="node43" class="node"><title>Node43</title>
<g id="a_node43"><a xlink:href="classrc_opto_kinetic_image.html#ab8c6bd963086ef561d0f65ec8240e139" target="_top" xlink:title="rcOptoKineticImage\l::genFreqImg">
<polygon fill="white" stroke="red" points="317.091,-1002 317.091,-1034 420.909,-1034 420.909,-1002 317.091,-1002"/>
<text text-anchor="start" x="325.091" y="-1020" font-family="Helvetica,sans-Serif" font-size="10.00">rcOptoKineticImage</text>
<text text-anchor="middle" x="369" y="-1008" font-family="Helvetica,sans-Serif" font-size="10.00">::genFreqImg</text>
</a>
</g>
</g>
<!-- Node23&#45;&gt;Node43 -->
<g id="edge54" class="edge"><title>Node23&#45;&gt;Node43</title>
<path fill="none" stroke="midnightblue" d="M188.368,-732.138C192.915,-783.089 211.905,-918.299 288,-992 295.973,-999.722 306.262,-1005.15 316.791,-1008.97"/>
<polygon fill="midnightblue" stroke="midnightblue" points="191.851,-731.776 187.566,-722.086 184.873,-732.333 191.851,-731.776"/>
</g>
<!-- Node44 -->
<g id="node44" class="node"><title>Node44</title>
<g id="a_node44"><a xlink:href="classrc_opto_kinetic_image.html#a3fd72217752fe521e6e7aad3b3db8a52" target="_top" xlink:title="rcOptoKineticImage\l::gen1DCorrKineticImgs">
<polygon fill="white" stroke="black" points="307.924,-951 307.924,-983 430.076,-983 430.076,-951 307.924,-951"/>
<text text-anchor="start" x="315.924" y="-969" font-family="Helvetica,sans-Serif" font-size="10.00">rcOptoKineticImage</text>
<text text-anchor="middle" x="369" y="-957" font-family="Helvetica,sans-Serif" font-size="10.00">::gen1DCorrKineticImgs</text>
</a>
</g>
</g>
<!-- Node23&#45;&gt;Node44 -->
<g id="edge55" class="edge"><title>Node23&#45;&gt;Node44</title>
<path fill="none" stroke="midnightblue" d="M190.235,-732.297C198.368,-776.674 223.804,-882.99 288,-941 293.743,-946.189 300.537,-950.344 307.7,-953.671"/>
<polygon fill="midnightblue" stroke="midnightblue" points="193.679,-731.674 188.527,-722.416 186.781,-732.867 193.679,-731.674"/>
</g>
<!-- Node45 -->
<g id="node45" class="node"><title>Node45</title>
<g id="a_node45"><a xlink:href="classrc_opto_kinetic_image.html#a0a1f97d37fdfc2454fafcfaab3e28a9e" target="_top" xlink:title="rcOptoKineticImage\l::genEightBitFreq">
<polygon fill="white" stroke="black" points="317.091,-900 317.091,-932 420.909,-932 420.909,-900 317.091,-900"/>
<text text-anchor="start" x="325.091" y="-918" font-family="Helvetica,sans-Serif" font-size="10.00">rcOptoKineticImage</text>
<text text-anchor="middle" x="369" y="-906" font-family="Helvetica,sans-Serif" font-size="10.00">::genEightBitFreq</text>
</a>
</g>
</g>
<!-- Node23&#45;&gt;Node45 -->
<g id="edge56" class="edge"><title>Node23&#45;&gt;Node45</title>
<path fill="none" stroke="midnightblue" d="M193.017,-732.174C205.008,-768.948 235.361,-847.044 288,-890 296.373,-896.833 306.59,-901.888 316.885,-905.622"/>
<polygon fill="midnightblue" stroke="midnightblue" points="196.213,-730.667 189.881,-722.173 189.534,-732.762 196.213,-730.667"/>
</g>
<!-- Node46 -->
<g id="node46" class="node"><title>Node46</title>
<g id="a_node46"><a xlink:href="classrc_opto_kinetic_image.html#aa7778606ebdff2a3f26470b3a2e75486" target="_top" xlink:title="rcOptoKineticImage\l::genEightBitImg">
<polygon fill="white" stroke="black" points="317.091,-849 317.091,-881 420.909,-881 420.909,-849 317.091,-849"/>
<text text-anchor="start" x="325.091" y="-867" font-family="Helvetica,sans-Serif" font-size="10.00">rcOptoKineticImage</text>
<text text-anchor="middle" x="369" y="-855" font-family="Helvetica,sans-Serif" font-size="10.00">::genEightBitImg</text>
</a>
</g>
</g>
<!-- Node23&#45;&gt;Node46 -->
<g id="edge57" class="edge"><title>Node23&#45;&gt;Node46</title>
<path fill="none" stroke="midnightblue" d="M197.22,-730.97C213.076,-758.655 246.178,-809.981 288,-839 296.639,-844.994 306.747,-849.673 316.814,-853.303"/>
<polygon fill="midnightblue" stroke="midnightblue" points="200.276,-729.263 192.345,-722.238 194.164,-732.676 200.276,-729.263"/>
</g>
<!-- Node47 -->
<g id="node47" class="node"><title>Node47</title>
<g id="a_node47"><a xlink:href="classrc_opto_kinetic_image.html#a98709035909c6137fdb83d5747b79234" target="_top" xlink:title="rcOptoKineticImage\l::genVarImg">
<polygon fill="white" stroke="red" points="317.091,-798 317.091,-830 420.909,-830 420.909,-798 317.091,-798"/>
<text text-anchor="start" x="325.091" y="-816" font-family="Helvetica,sans-Serif" font-size="10.00">rcOptoKineticImage</text>
<text text-anchor="middle" x="369" y="-804" font-family="Helvetica,sans-Serif" font-size="10.00">::genVarImg</text>
</a>
</g>
</g>
<!-- Node23&#45;&gt;Node47 -->
<g id="edge58" class="edge"><title>Node23&#45;&gt;Node47</title>
<path fill="none" stroke="midnightblue" d="M205.454,-728.894C224.789,-745.839 256.656,-771.696 288,-788 297.069,-792.718 307.16,-796.799 317.036,-800.24"/>
<polygon fill="midnightblue" stroke="midnightblue" points="207.769,-726.269 197.973,-722.232 203.113,-731.496 207.769,-726.269"/>
</g>
<!-- Node48 -->
<g id="node48" class="node"><title>Node48</title>
<g id="a_node48"><a xlink:href="classrc_opto_kinetic_image.html#a2cec8a6e6f2c3dd69693b6d3d86c239d" target="_top" xlink:title="rcOptoKineticImage\l::genStdDevImg">
<polygon fill="white" stroke="red" points="317.091,-747 317.091,-779 420.909,-779 420.909,-747 317.091,-747"/>
<text text-anchor="start" x="325.091" y="-765" font-family="Helvetica,sans-Serif" font-size="10.00">rcOptoKineticImage</text>
<text text-anchor="middle" x="369" y="-753" font-family="Helvetica,sans-Serif" font-size="10.00">::genStdDevImg</text>
</a>
</g>
</g>
<!-- Node23&#45;&gt;Node48 -->
<g id="edge59" class="edge"><title>Node23&#45;&gt;Node48</title>
<path fill="none" stroke="midnightblue" d="M232.61,-724.852C258.273,-732.083 290.385,-741.131 316.894,-748.6"/>
<polygon fill="midnightblue" stroke="midnightblue" points="233.334,-721.419 222.76,-722.076 231.436,-728.157 233.334,-721.419"/>
</g>
<!-- Node49 -->
<g id="node49" class="node"><title>Node49</title>
<g id="a_node49"><a xlink:href="classrc_opto_kinetic_image.html#adb97737d4121118afee01d122f7dfc43" target="_top" xlink:title="rcOptoKineticImage\l::genVelEntropyImg">
<polygon fill="white" stroke="red" points="317.091,-696 317.091,-728 420.909,-728 420.909,-696 317.091,-696"/>
<text text-anchor="start" x="325.091" y="-714" font-family="Helvetica,sans-Serif" font-size="10.00">rcOptoKineticImage</text>
<text text-anchor="middle" x="369" y="-702" font-family="Helvetica,sans-Serif" font-size="10.00">::genVelEntropyImg</text>
</a>
</g>
</g>
<!-- Node23&#45;&gt;Node49 -->
<g id="edge60" class="edge"><title>Node23&#45;&gt;Node49</title>
<path fill="none" stroke="midnightblue" d="M252.973,-712C274.093,-712 297.14,-712 317.021,-712"/>
<polygon fill="midnightblue" stroke="midnightblue" points="252.783,-708.5 242.783,-712 252.783,-715.5 252.783,-708.5"/>
</g>
<!-- Node50 -->
<g id="node50" class="node"><title>Node50</title>
<g id="a_node50"><a xlink:href="classrc_opto_kinetic_image.html#a3e5ce919e618710e7563016ae0ba986d" target="_top" xlink:title="rcOptoKineticImage\l::genAccelEntropyImg">
<polygon fill="white" stroke="red" points="312.086,-645 312.086,-677 425.914,-677 425.914,-645 312.086,-645"/>
<text text-anchor="start" x="320.086" y="-663" font-family="Helvetica,sans-Serif" font-size="10.00">rcOptoKineticImage</text>
<text text-anchor="middle" x="369" y="-651" font-family="Helvetica,sans-Serif" font-size="10.00">::genAccelEntropyImg</text>
</a>
</g>
</g>
<!-- Node23&#45;&gt;Node50 -->
<g id="edge61" class="edge"><title>Node23&#45;&gt;Node50</title>
<path fill="none" stroke="midnightblue" d="M232.707,-699.121C256.794,-692.334 286.541,-683.953 312.003,-676.778"/>
<polygon fill="midnightblue" stroke="midnightblue" points="231.436,-695.843 222.76,-701.924 233.334,-702.581 231.436,-695.843"/>
</g>
<!-- Node35&#45;&gt;Node34 -->
<g id="edge44" class="edge"><title>Node35&#45;&gt;Node34</title>
<path fill="none" stroke="midnightblue" d="M415.678,-127C445.768,-127 484.166,-127 509.616,-127"/>
<polygon fill="midnightblue" stroke="midnightblue" points="415.416,-123.5 405.416,-127 415.416,-130.5 415.416,-123.5"/>
</g>
<!-- Node36&#45;&gt;Node34 -->
<g id="edge46" class="edge"><title>Node36&#45;&gt;Node34</title>
<path fill="none" stroke="midnightblue" d="M421.283,-99.9763C450.368,-106.769 485.613,-115 509.507,-120.579"/>
<polygon fill="midnightblue" stroke="midnightblue" points="421.815,-96.5064 411.281,-97.6405 420.223,-103.323 421.815,-96.5064"/>
</g>
<!-- Node40&#45;&gt;Node41 -->
<g id="edge51" class="edge"><title>Node40&#45;&gt;Node41</title>
<path fill="none" stroke="midnightblue" d="M431.137,-1150.58C449.165,-1148.1 468.694,-1145.41 486.012,-1143.02"/>
<polygon fill="midnightblue" stroke="midnightblue" points="430.442,-1147.14 421.013,-1151.97 431.397,-1154.08 430.442,-1147.14"/>
</g>
</g>
</svg>
