<?xml version="1.0" encoding="UTF-8" standalone="no"?>
<!DOCTYPE svg PUBLIC "-//W3C//DTD SVG 1.1//EN"
 "http://www.w3.org/Graphics/SVG/1.1/DTD/svg11.dtd">
<!-- Generated by graphviz version 2.32.0 (20130916.1925)
 -->
<!-- Title: rcEngineFocusData::developmentVideoWriter Pages: 1 -->
<svg width="498pt" height="40pt"
 viewBox="0.00 0.00 498.00 40.00" xmlns="http://www.w3.org/2000/svg" xmlns:xlink="http://www.w3.org/1999/xlink">
<g id="graph0" class="graph" transform="scale(1 1) rotate(0) translate(4 36)">
<title>rcEngineFocusData::developmentVideoWriter</title>
<polygon fill="white" stroke="white" points="-4,5 -4,-36 495,-36 495,5 -4,5"/>
<!-- Node1 -->
<g id="node1" class="node"><title>Node1</title>
<polygon fill="#bfbfbf" stroke="black" points="0.427246,-0 0.427246,-32 125.573,-32 125.573,-0 0.427246,-0"/>
<text text-anchor="start" x="8.42725" y="-18" font-family="Helvetica,sans-Serif" font-size="10.00">rcEngineFocusData::</text>
<text text-anchor="middle" x="63" y="-6" font-family="Helvetica,sans-Serif" font-size="10.00">developmentVideoWriter</text>
</g>
<!-- Node2 -->
<g id="node2" class="node"><title>Node2</title>
<g id="a_node2"><a xlink:href="classrc_engine_impl.html#a3e4efac4360b8c41a63965fddc3e91b2" target="_top" xlink:title="rcEngineImpl::produceDebug\lResults">
<polygon fill="white" stroke="black" points="162.239,-0 162.239,-32 307.761,-32 307.761,-0 162.239,-0"/>
<text text-anchor="start" x="170.239" y="-18" font-family="Helvetica,sans-Serif" font-size="10.00">rcEngineImpl::produceDebug</text>
<text text-anchor="middle" x="235" y="-6" font-family="Helvetica,sans-Serif" font-size="10.00">Results</text>
</a>
</g>
</g>
<!-- Node1&#45;&gt;Node2 -->
<g id="edge1" class="edge"><title>Node1&#45;&gt;Node2</title>
<path fill="none" stroke="midnightblue" d="M135.917,-16C144.581,-16 153.43,-16 162.093,-16"/>
<polygon fill="midnightblue" stroke="midnightblue" points="135.855,-12.5001 125.855,-16 135.855,-19.5001 135.855,-12.5001"/>
</g>
<!-- Node3 -->
<g id="node3" class="node"><title>Node3</title>
<g id="a_node3"><a xlink:href="classrc_engine_impl.html#a00ca0d227e480ddb5bd6be293b55d2c9" target="_top" xlink:title="rcEngineImpl::muscleTracker">
<polygon fill="white" stroke="black" points="344.442,-6 344.442,-26 489.558,-26 489.558,-6 344.442,-6"/>
<text text-anchor="middle" x="417" y="-12" font-family="Helvetica,sans-Serif" font-size="10.00">rcEngineImpl::muscleTracker</text>
</a>
</g>
</g>
<!-- Node2&#45;&gt;Node3 -->
<g id="edge2" class="edge"><title>Node2&#45;&gt;Node3</title>
<path fill="none" stroke="midnightblue" d="M318.082,-16C326.798,-16 335.613,-16 344.197,-16"/>
<polygon fill="midnightblue" stroke="midnightblue" points="317.917,-12.5001 307.917,-16 317.917,-19.5001 317.917,-12.5001"/>
</g>
</g>
</svg>
