<?xml version="1.0" encoding="UTF-8" standalone="no"?>
<!DOCTYPE svg PUBLIC "-//W3C//DTD SVG 1.1//EN"
 "http://www.w3.org/Graphics/SVG/1.1/DTD/svg11.dtd">
<!-- Generated by graphviz version 2.32.0 (20130916.1925)
 -->
<!-- Title: rcMovieConverterToRfy::convert Pages: 1 -->
<svg width="366pt" height="118pt"
 viewBox="0.00 0.00 366.00 118.00" xmlns="http://www.w3.org/2000/svg" xmlns:xlink="http://www.w3.org/1999/xlink">
<g id="graph0" class="graph" transform="scale(1 1) rotate(0) translate(4 114)">
<title>rcMovieConverterToRfy::convert</title>
<polygon fill="white" stroke="white" points="-4,5 -4,-114 363,-114 363,5 -4,5"/>
<!-- Node1 -->
<g id="node1" class="node"><title>Node1</title>
<polygon fill="#bfbfbf" stroke="black" points="-0.236328,-33 -0.236328,-65 120.236,-65 120.236,-33 -0.236328,-33"/>
<text text-anchor="start" x="7.76367" y="-51" font-family="Helvetica,sans-Serif" font-size="10.00">rcMovieConverterToRfy</text>
<text text-anchor="middle" x="60" y="-39" font-family="Helvetica,sans-Serif" font-size="10.00">::convert</text>
</g>
<!-- Node2 -->
<g id="node2" class="node"><title>Node2</title>
<g id="a_node2"><a xlink:href="classrc_experiment_impl.html#ac08b9d15f5bb7db0b85a6d67406f95fa" target="_top" xlink:title="rcExperimentImpl::export\lMovie">
<polygon fill="white" stroke="black" points="156.426,-78 156.426,-110 283.574,-110 283.574,-78 156.426,-78"/>
<text text-anchor="start" x="164.426" y="-96" font-family="Helvetica,sans-Serif" font-size="10.00">rcExperimentImpl::export</text>
<text text-anchor="middle" x="220" y="-84" font-family="Helvetica,sans-Serif" font-size="10.00">Movie</text>
</a>
</g>
</g>
<!-- Node1&#45;&gt;Node2 -->
<g id="edge1" class="edge"><title>Node1&#45;&gt;Node2</title>
<path fill="none" stroke="midnightblue" d="M127.38,-67.9056C139.164,-71.2618 151.332,-74.7275 162.8,-77.9936"/>
<polygon fill="midnightblue" stroke="midnightblue" points="128.172,-64.492 117.595,-65.1189 126.254,-71.2243 128.172,-64.492"/>
</g>
<!-- Node3 -->
<g id="node3" class="node"><title>Node3</title>
<g id="a_node3"><a xlink:href="bcnvrt__main_8cpp.html#accc22075ea7eb720aed5cad6e10344b9" target="_top" xlink:title="rfConvertMovie">
<polygon fill="white" stroke="black" points="178.101,-39 178.101,-59 261.899,-59 261.899,-39 178.101,-39"/>
<text text-anchor="middle" x="220" y="-45" font-family="Helvetica,sans-Serif" font-size="10.00">rfConvertMovie</text>
</a>
</g>
</g>
<!-- Node1&#45;&gt;Node3 -->
<g id="edge2" class="edge"><title>Node1&#45;&gt;Node3</title>
<path fill="none" stroke="midnightblue" d="M130.339,-49C146.646,-49 163.51,-49 178.096,-49"/>
<polygon fill="midnightblue" stroke="midnightblue" points="130.283,-45.5001 120.283,-49 130.283,-52.5001 130.283,-45.5001"/>
</g>
<!-- Node5 -->
<g id="node5" class="node"><title>Node5</title>
<g id="a_node5"><a xlink:href="bcnvrt__main_8cpp.html#add0a6eef95e64e05a21758380072e136" target="_top" xlink:title="rfConvertTwoMovies">
<polygon fill="white" stroke="black" points="166.429,-0 166.429,-20 273.571,-20 273.571,-0 166.429,-0"/>
<text text-anchor="middle" x="220" y="-6" font-family="Helvetica,sans-Serif" font-size="10.00">rfConvertTwoMovies</text>
</a>
</g>
</g>
<!-- Node1&#45;&gt;Node5 -->
<g id="edge4" class="edge"><title>Node1&#45;&gt;Node5</title>
<path fill="none" stroke="midnightblue" d="M130.339,-31.8847C146.646,-27.8597 163.51,-23.697 178.096,-20.0966"/>
<polygon fill="midnightblue" stroke="midnightblue" points="129.153,-28.5724 120.283,-34.3669 130.83,-35.3684 129.153,-28.5724"/>
</g>
<!-- Node4 -->
<g id="node4" class="node"><title>Node4</title>
<g id="a_node4"><a xlink:href="bcnvrt__main_8cpp.html#a3c04138a5bfe5d72780bb7e82a18e627" target="_top" xlink:title="main">
<polygon fill="white" stroke="black" points="320.163,-19 320.163,-39 357.837,-39 357.837,-19 320.163,-19"/>
<text text-anchor="middle" x="339" y="-25" font-family="Helvetica,sans-Serif" font-size="10.00">main</text>
</a>
</g>
</g>
<!-- Node3&#45;&gt;Node4 -->
<g id="edge3" class="edge"><title>Node3&#45;&gt;Node4</title>
<path fill="none" stroke="midnightblue" d="M271.911,-40.2972C289.133,-37.3534 307.247,-34.257 320.147,-32.0519"/>
<polygon fill="midnightblue" stroke="midnightblue" points="271.188,-36.87 261.921,-42.005 272.368,-43.7699 271.188,-36.87"/>
</g>
<!-- Node5&#45;&gt;Node4 -->
<g id="edge5" class="edge"><title>Node5&#45;&gt;Node4</title>
<path fill="none" stroke="midnightblue" d="M283.841,-20.205C297.111,-22.3599 310.081,-24.4661 320,-26.0769"/>
<polygon fill="midnightblue" stroke="midnightblue" points="284.113,-16.7034 273.681,-18.5551 282.991,-23.6129 284.113,-16.7034"/>
</g>
</g>
</svg>
