<?xml version="1.0" encoding="UTF-8" standalone="no"?>
<!DOCTYPE svg PUBLIC "-//W3C//DTD SVG 1.1//EN"
 "http://www.w3.org/Graphics/SVG/1.1/DTD/svg11.dtd">
<!-- Generated by graphviz version 2.32.0 (20130916.1925)
 -->
<!-- Title: rcKinetoscope::have Pages: 1 -->
<!--zoomable 584 -->
<svg id="main" version="1.1" xmlns="http://www.w3.org/2000/svg" xmlns:xlink="http://www.w3.org/1999/xlink" xml:space="preserve" onload="init(evt)">
        <defs>
                <circle id="rim" cx="0" cy="0" r="7"/>
                <circle id="rim2" cx="0" cy="0" r="3.5"/>
                <g id="zoomPlus">
                        <use xlink:href="#rim" fill="#404040">
                                <set attributeName="fill" to="#808080" begin="zoomplus.mouseover" end="zoomplus.mouseout"/>
                        </use>
                        <path d="M-4,0h8M0,-4v8" fill="none" stroke="white" stroke-width="1.5" pointer-events="none"/>
                </g>
                <g id="zoomMin">
                        <use xlink:href="#rim" fill="#404040">
                                <set attributeName="fill" to="#808080" begin="zoomminus.mouseover" end="zoomminus.mouseout"/>
                        </use>
                        <path d="M-4,0h8" fill="none" stroke="white" stroke-width="1.5" pointer-events="none"/>
                </g>
                <g id="dirArrow">
                        <path fill="none" stroke="white" stroke-width="1.5" d="M0,-3.0v7 M-2.5,-0.5L0,-3.0L2.5,-0.5"/>
                </g>
               <g id="resetDef">
                       <use xlink:href="#rim2" fill="#404040">
                               <set attributeName="fill" to="#808080" begin="reset.mouseover" end="reset.mouseout"/>
                       </use>
               </g>
        </defs>

<script type="text/javascript">
var viewWidth = 1466;
var viewHeight = 584;
var sectionId = 'dynsection-55';
</script>
<script xlink:href="svgpan.js"/>
<svg id="graph" class="graph">
<g id="viewport">
<title>rcKinetoscope::have</title>
<polygon fill="white" stroke="white" points="-4,5 -4,-580.099 1463,-580.099 1463,5 -4,5"/>
<!-- Node1 -->
<g id="node1" class="node"><title>Node1</title>
<polygon fill="#bfbfbf" stroke="black" points="0.694824,-190.099 0.694824,-210.099 107.305,-210.099 107.305,-190.099 0.694824,-190.099"/>
<text text-anchor="middle" x="54" y="-196.099" font-family="Helvetica,sans-Serif" font-size="10.00">rcKinetoscope::have</text>
</g>
<!-- Node2 -->
<g id="node2" class="node"><title>Node2</title>
<g id="a_node2"><a xlink:href="classrc_kinetoscope.html#a671d4ea0e58ad0c2684e770b0f85fee1" target="_top" xlink:title="rcKinetoscope::canStep">
<polygon fill="white" stroke="black" points="163.19,-425.099 163.19,-445.099 284.81,-445.099 284.81,-425.099 163.19,-425.099"/>
<text text-anchor="middle" x="224" y="-431.099" font-family="Helvetica,sans-Serif" font-size="10.00">rcKinetoscope::canStep</text>
</a>
</g>
</g>
<!-- Node1&#45;&gt;Node2 -->
<g id="edge1" class="edge"><title>Node1&#45;&gt;Node2</title>
<path fill="none" stroke="midnightblue" d="M57.3779,-220.561C63.4774,-263.416 83.6984,-362.938 144,-415.099 149.564,-419.912 156.127,-423.595 163.054,-426.408"/>
<polygon fill="midnightblue" stroke="midnightblue" points="60.8299,-219.966 56.0625,-210.504 53.889,-220.874 60.8299,-219.966"/>
</g>
<!-- Node3 -->
<g id="node3" class="node"><title>Node3</title>
<g id="a_node3"><a xlink:href="classrc_kinetoscope.html#adc8a89eabf3d80ce0de093373789a42b" target="_top" xlink:title="rcKinetoscope::channelAvailable">
<polygon fill="white" stroke="black" points="143.82,-210.099 143.82,-230.099 304.18,-230.099 304.18,-210.099 143.82,-210.099"/>
<text text-anchor="middle" x="224" y="-216.099" font-family="Helvetica,sans-Serif" font-size="10.00">rcKinetoscope::channelAvailable</text>
</a>
</g>
</g>
<!-- Node1&#45;&gt;Node3 -->
<g id="edge2" class="edge"><title>Node1&#45;&gt;Node3</title>
<path fill="none" stroke="midnightblue" d="M117.828,-207.578C126.279,-208.584 135.037,-209.627 143.726,-210.661"/>
<polygon fill="midnightblue" stroke="midnightblue" points="118.039,-204.079 107.695,-206.372 117.211,-211.03 118.039,-204.079"/>
</g>
<!-- Node19 -->
<g id="node19" class="node"><title>Node19</title>
<g id="a_node19"><a xlink:href="classrc_kinetoscope.html#a9e34ed1b237aa970f30995cb75245233" target="_top" xlink:title="rcKinetoscope::connected\lFunctions">
<polygon fill="white" stroke="black" points="710.463,-218.099 710.463,-250.099 841.537,-250.099 841.537,-218.099 710.463,-218.099"/>
<text text-anchor="start" x="718.463" y="-236.099" font-family="Helvetica,sans-Serif" font-size="10.00">rcKinetoscope::connected</text>
<text text-anchor="middle" x="776" y="-224.099" font-family="Helvetica,sans-Serif" font-size="10.00">Functions</text>
</a>
</g>
</g>
<!-- Node1&#45;&gt;Node19 -->
<g id="edge36" class="edge"><title>Node1&#45;&gt;Node19</title>
<path fill="none" stroke="midnightblue" d="M80.914,-185.326C98.1785,-176.358 121.71,-165.768 144,-161.099 256.78,-137.473 625.567,-181.145 664,-190.099 691.053,-196.401 720.198,-208.161 741.832,-217.939"/>
<polygon fill="midnightblue" stroke="midnightblue" points="79.177,-182.286 72.015,-190.094 82.4826,-188.456 79.177,-182.286"/>
</g>
<!-- Node21 -->
<g id="node21" class="node"><title>Node21</title>
<g id="a_node21"><a xlink:href="classrc_kinetoscope.html#a06e5f3a6a2ee87834adac782dbf9809e" target="_top" xlink:title="rcKinetoscope::clear">
<polygon fill="white" stroke="black" points="170.7,-171.099 170.7,-191.099 277.3,-191.099 277.3,-171.099 170.7,-171.099"/>
<text text-anchor="middle" x="224" y="-177.099" font-family="Helvetica,sans-Serif" font-size="10.00">rcKinetoscope::clear</text>
</a>
</g>
</g>
<!-- Node1&#45;&gt;Node21 -->
<g id="edge35" class="edge"><title>Node1&#45;&gt;Node21</title>
<path fill="none" stroke="midnightblue" d="M117.746,-193.002C135.111,-191.038 153.774,-188.928 170.492,-187.037"/>
<polygon fill="midnightblue" stroke="midnightblue" points="117.239,-189.537 107.695,-194.139 118.025,-196.493 117.239,-189.537"/>
</g>
<!-- Node22 -->
<g id="node22" class="node"><title>Node22</title>
<g id="a_node22"><a xlink:href="classrc_kinetoscope.html#acdbacaeddbfdf6c3b5bb8bea4a24ebdf" target="_top" xlink:title="rcKinetoscope::mark">
<polygon fill="white" stroke="black" points="536.426,-18.0987 536.426,-38.0987 643.574,-38.0987 643.574,-18.0987 536.426,-18.0987"/>
<text text-anchor="middle" x="590" y="-24.0987" font-family="Helvetica,sans-Serif" font-size="10.00">rcKinetoscope::mark</text>
</a>
</g>
</g>
<!-- Node1&#45;&gt;Node22 -->
<g id="edge37" class="edge"><title>Node1&#45;&gt;Node22</title>
<path fill="none" stroke="midnightblue" d="M60.5111,-180.016C70.7697,-146.943 96.217,-81.8227 144,-53.0987 272.326,24.0427 460.898,-1.14892 545.326,-18.0475"/>
<polygon fill="midnightblue" stroke="midnightblue" points="57.0667,-179.324 57.6041,-189.905 63.7825,-181.298 57.0667,-179.324"/>
</g>
<!-- Node24 -->
<g id="node24" class="node"><title>Node24</title>
<g id="a_node24"><a xlink:href="classrc_kinetoscope.html#a3cabc9a20a2426314710f1f3d8908f75" target="_top" xlink:title="rcKinetoscope::visualDebug\lGraphics">
<polygon fill="white" stroke="black" points="154.02,-374.099 154.02,-406.099 293.98,-406.099 293.98,-374.099 154.02,-374.099"/>
<text text-anchor="start" x="162.02" y="-392.099" font-family="Helvetica,sans-Serif" font-size="10.00">rcKinetoscope::visualDebug</text>
<text text-anchor="middle" x="224" y="-380.099" font-family="Helvetica,sans-Serif" font-size="10.00">Graphics</text>
</a>
</g>
</g>
<!-- Node1&#45;&gt;Node24 -->
<g id="edge41" class="edge"><title>Node1&#45;&gt;Node24</title>
<path fill="none" stroke="midnightblue" d="M71.0573,-218.259C103.741,-255.222 177.534,-338.679 208.69,-373.915"/>
<polygon fill="midnightblue" stroke="midnightblue" points="73.2785,-215.487 64.0324,-210.314 68.0345,-220.124 73.2785,-215.487"/>
</g>
<!-- Node4 -->
<g id="node4" class="node"><title>Node4</title>
<g id="a_node4"><a xlink:href="classrc_kinetoscope.html#a6c7d26c32da53421777db8041fb1e3a9" target="_top" xlink:title="rcKinetoscope::advance">
<polygon fill="white" stroke="black" points="1108.63,-466.099 1108.63,-486.099 1231.37,-486.099 1231.37,-466.099 1108.63,-466.099"/>
<text text-anchor="middle" x="1170" y="-472.099" font-family="Helvetica,sans-Serif" font-size="10.00">rcKinetoscope::advance</text>
</a>
</g>
</g>
<!-- Node3&#45;&gt;Node4 -->
<g id="edge3" class="edge"><title>Node3&#45;&gt;Node4</title>
<path fill="none" stroke="midnightblue" d="M237.781,-238.541C280.255,-297.427 423.415,-477.099 589,-477.099 589,-477.099 589,-477.099 777,-477.099 894.396,-477.099 1031.57,-476.645 1108.56,-476.348"/>
<polygon fill="midnightblue" stroke="midnightblue" points="240.484,-236.302 231.841,-230.173 234.776,-240.354 240.484,-236.302"/>
</g>
<!-- Node6 -->
<g id="node6" class="node"><title>Node6</title>
<g id="a_node6"><a xlink:href="classrc_kinetoscope.html#a673ae7a94c5b1b67c804fcb9fca3fc43" target="_top" xlink:title="rcKinetoscope::frame">
<polygon fill="white" stroke="black" points="720.756,-163.099 720.756,-183.099 831.244,-183.099 831.244,-163.099 720.756,-163.099"/>
<text text-anchor="middle" x="776" y="-169.099" font-family="Helvetica,sans-Serif" font-size="10.00">rcKinetoscope::frame</text>
</a>
</g>
</g>
<!-- Node3&#45;&gt;Node6 -->
<g id="edge5" class="edge"><title>Node3&#45;&gt;Node6</title>
<path fill="none" stroke="midnightblue" d="M285.579,-208.275C303.082,-205.209 322.25,-202.187 340,-200.099 476.394,-184.055 638.042,-177.189 720.575,-174.551"/>
<polygon fill="midnightblue" stroke="midnightblue" points="284.718,-204.874 275.489,-210.079 285.949,-211.765 284.718,-204.874"/>
</g>
<!-- Node7 -->
<g id="node7" class="node"><title>Node7</title>
<g id="a_node7"><a xlink:href="classrc_kinetoscope.html#a773e884a84eb4f6d97ef71eb1c95aeda" target="_top" xlink:title="rcKinetoscope::start">
<polygon fill="white" stroke="black" points="916.813,-95.0987 916.813,-115.099 1021.19,-115.099 1021.19,-95.0987 916.813,-95.0987"/>
<text text-anchor="middle" x="969" y="-101.099" font-family="Helvetica,sans-Serif" font-size="10.00">rcKinetoscope::start</text>
</a>
</g>
</g>
<!-- Node3&#45;&gt;Node7 -->
<g id="edge17" class="edge"><title>Node3&#45;&gt;Node7</title>
<path fill="none" stroke="midnightblue" d="M279.931,-207.48C288.068,-205.24 296.301,-202.763 304,-200.099 320.547,-194.374 323.133,-188.797 340,-184.099 548.537,-126.007 808.011,-110.54 916.535,-106.496"/>
<polygon fill="midnightblue" stroke="midnightblue" points="278.863,-204.142 270.096,-210.091 280.659,-210.908 278.863,-204.142"/>
</g>
<!-- Node14 -->
<g id="node14" class="node"><title>Node14</title>
<g id="a_node14"><a xlink:href="classrc_kinetoscope.html#a6dbd6db59b321ea6f5a5a6482b1fef96" target="_top" xlink:title="rcKinetoscope::use4fixed">
<polygon fill="white" stroke="black" points="346.133,-271.099 346.133,-291.099 473.867,-291.099 473.867,-271.099 346.133,-271.099"/>
<text text-anchor="middle" x="410" y="-277.099" font-family="Helvetica,sans-Serif" font-size="10.00">rcKinetoscope::use4fixed</text>
</a>
</g>
</g>
<!-- Node3&#45;&gt;Node14 -->
<g id="edge18" class="edge"><title>Node3&#45;&gt;Node14</title>
<path fill="none" stroke="midnightblue" d="M265.048,-233.376C299.188,-244.693 347.525,-260.718 378.571,-271.011"/>
<polygon fill="midnightblue" stroke="midnightblue" points="265.977,-229.996 255.384,-230.172 263.774,-236.641 265.977,-229.996"/>
</g>
<!-- Node20 -->
<g id="node20" class="node"><title>Node20</title>
<g id="a_node20"><a xlink:href="classrc_kinetoscope.html#abaa57e53fed6747d5a8f5322ea3ca1e3" target="_top" xlink:title="rcKinetoscope::use4moving">
<polygon fill="white" stroke="black" points="340.577,-210.099 340.577,-230.099 479.423,-230.099 479.423,-210.099 340.577,-210.099"/>
<text text-anchor="middle" x="410" y="-216.099" font-family="Helvetica,sans-Serif" font-size="10.00">rcKinetoscope::use4moving</text>
</a>
</g>
</g>
<!-- Node3&#45;&gt;Node20 -->
<g id="edge31" class="edge"><title>Node3&#45;&gt;Node20</title>
<path fill="none" stroke="midnightblue" d="M314.512,-220.099C323.181,-220.099 331.88,-220.099 340.3,-220.099"/>
<polygon fill="midnightblue" stroke="midnightblue" points="314.368,-216.599 304.368,-220.099 314.368,-223.599 314.368,-216.599"/>
</g>
<!-- Node5 -->
<g id="node5" class="node"><title>Node5</title>
<g id="a_node5"><a xlink:href="classrc_engine_impl.html#a00ca0d227e480ddb5bd6be293b55d2c9" target="_top" xlink:title="rcEngineImpl::muscleTracker">
<polygon fill="white" stroke="black" points="1301.44,-466.099 1301.44,-486.099 1446.56,-486.099 1446.56,-466.099 1301.44,-466.099"/>
<text text-anchor="middle" x="1374" y="-472.099" font-family="Helvetica,sans-Serif" font-size="10.00">rcEngineImpl::muscleTracker</text>
</a>
</g>
</g>
<!-- Node4&#45;&gt;Node5 -->
<g id="edge4" class="edge"><title>Node4&#45;&gt;Node5</title>
<path fill="none" stroke="midnightblue" d="M1241.84,-476.099C1261.14,-476.099 1282.06,-476.099 1301.41,-476.099"/>
<polygon fill="midnightblue" stroke="midnightblue" points="1241.61,-472.599 1231.61,-476.099 1241.61,-479.599 1241.61,-472.599"/>
</g>
<!-- Node6&#45;&gt;Node7 -->
<g id="edge6" class="edge"><title>Node6&#45;&gt;Node7</title>
<path fill="none" stroke="midnightblue" d="M806.637,-158.708C828.703,-148.383 859.764,-134.662 888,-125.099 898.983,-121.379 911.025,-118.011 922.356,-115.144"/>
<polygon fill="midnightblue" stroke="midnightblue" points="805.014,-155.604 797.47,-163.044 808.007,-161.932 805.014,-155.604"/>
</g>
<!-- Node10 -->
<g id="node10" class="node"><title>Node10</title>
<g id="a_node10"><a xlink:href="classrc_kinetoscope.html#a30274b84c57f86e667b614556f6c569b" target="_top" xlink:title="rcKinetoscope::step">
<polygon fill="white" stroke="black" points="1118.09,-252.099 1118.09,-272.099 1221.91,-272.099 1221.91,-252.099 1118.09,-252.099"/>
<text text-anchor="middle" x="1170" y="-258.099" font-family="Helvetica,sans-Serif" font-size="10.00">rcKinetoscope::step</text>
</a>
</g>
</g>
<!-- Node6&#45;&gt;Node10 -->
<g id="edge9" class="edge"><title>Node6&#45;&gt;Node10</title>
<path fill="none" stroke="midnightblue" d="M841.603,-173.863C897.718,-176.012 980.644,-182.789 1050,-203.099 1089.17,-214.569 1131.06,-238.383 1153.19,-251.988"/>
<polygon fill="midnightblue" stroke="midnightblue" points="841.56,-170.36 831.446,-173.514 841.319,-177.356 841.56,-170.36"/>
</g>
<!-- Node11 -->
<g id="node11" class="node"><title>Node11</title>
<g id="a_node11"><a xlink:href="classrc_kinetoscope.html#ae0addfc3a10c4c69ba027d9bfc351217" target="_top" xlink:title="rcKinetoscope::stepContractile">
<polygon fill="white" stroke="black" points="893.188,-213.099 893.188,-233.099 1044.81,-233.099 1044.81,-213.099 893.188,-213.099"/>
<text text-anchor="middle" x="969" y="-219.099" font-family="Helvetica,sans-Serif" font-size="10.00">rcKinetoscope::stepContractile</text>
</a>
</g>
</g>
<!-- Node6&#45;&gt;Node11 -->
<g id="edge11" class="edge"><title>Node6&#45;&gt;Node11</title>
<path fill="none" stroke="midnightblue" d="M825.359,-185.758C857.714,-194.228 899.704,-205.22 929.732,-213.081"/>
<polygon fill="midnightblue" stroke="midnightblue" points="826.212,-182.364 815.652,-183.217 824.439,-189.135 826.212,-182.364"/>
</g>
<!-- Node12 -->
<g id="node12" class="node"><title>Node12</title>
<g id="a_node12"><a xlink:href="classrc_kinetoscope.html#ade990e6e3582a1e363aad1549d0117b2" target="_top" xlink:title="rcKinetoscope::stepDirectedFlow">
<polygon fill="white" stroke="black" points="887.912,-135.099 887.912,-155.099 1050.09,-155.099 1050.09,-135.099 887.912,-135.099"/>
<text text-anchor="middle" x="969" y="-141.099" font-family="Helvetica,sans-Serif" font-size="10.00">rcKinetoscope::stepDirectedFlow</text>
</a>
</g>
</g>
<!-- Node6&#45;&gt;Node12 -->
<g id="edge13" class="edge"><title>Node6&#45;&gt;Node12</title>
<path fill="none" stroke="midnightblue" d="M841.623,-163.625C860.249,-160.895 880.63,-157.907 899.483,-155.143"/>
<polygon fill="midnightblue" stroke="midnightblue" points="840.864,-160.199 831.477,-165.112 841.879,-167.125 840.864,-160.199"/>
</g>
<!-- Node13 -->
<g id="node13" class="node"><title>Node13</title>
<g id="a_node13"><a xlink:href="classrc_kinetoscope.html#a431144623d201c5aeb857893d8460ca2" target="_top" xlink:title="rcKinetoscope::stepEpi">
<polygon fill="white" stroke="black" points="909.86,-291.099 909.86,-311.099 1028.14,-311.099 1028.14,-291.099 909.86,-291.099"/>
<text text-anchor="middle" x="969" y="-297.099" font-family="Helvetica,sans-Serif" font-size="10.00">rcKinetoscope::stepEpi</text>
</a>
</g>
</g>
<!-- Node6&#45;&gt;Node13 -->
<g id="edge15" class="edge"><title>Node6&#45;&gt;Node13</title>
<path fill="none" stroke="midnightblue" d="M813.213,-187.185C825.956,-192.86 840.066,-199.991 852,-208.099 870.204,-220.466 871.113,-227.986 888,-242.099 909.849,-260.359 936.767,-279.59 953.143,-290.955"/>
<polygon fill="midnightblue" stroke="midnightblue" points="814.363,-183.87 803.793,-183.138 811.599,-190.301 814.363,-183.87"/>
</g>
<!-- Node8 -->
<g id="node8" class="node"><title>Node8</title>
<g id="a_node8"><a xlink:href="classrc_kinetoscope.html#aff1e9fdbb27b84b86d7f9a9f5a3d6229" target="_top" xlink:title="rcKinetoscope::visualFunctionMap">
<polygon fill="white" stroke="black" points="1085.85,-95.0987 1085.85,-115.099 1254.15,-115.099 1254.15,-95.0987 1085.85,-95.0987"/>
<text text-anchor="middle" x="1170" y="-101.099" font-family="Helvetica,sans-Serif" font-size="10.00">rcKinetoscope::visualFunctionMap</text>
</a>
</g>
</g>
<!-- Node7&#45;&gt;Node8 -->
<g id="edge7" class="edge"><title>Node7&#45;&gt;Node8</title>
<path fill="none" stroke="midnightblue" d="M1031.61,-105.099C1048.65,-105.099 1067.44,-105.099 1085.5,-105.099"/>
<polygon fill="midnightblue" stroke="midnightblue" points="1031.25,-101.599 1021.25,-105.099 1031.25,-108.599 1031.25,-101.599"/>
</g>
<!-- Node9 -->
<g id="node9" class="node"><title>Node9</title>
<g id="a_node9"><a xlink:href="classrc_kinetoscope.html#abf1996c0d39c655ec7b58d9795fed1c8" target="_top" xlink:title="rcKinetoscope::visualFunctionMap">
<polygon fill="white" stroke="black" points="1289.85,-95.0987 1289.85,-115.099 1458.15,-115.099 1458.15,-95.0987 1289.85,-95.0987"/>
<text text-anchor="middle" x="1374" y="-101.099" font-family="Helvetica,sans-Serif" font-size="10.00">rcKinetoscope::visualFunctionMap</text>
</a>
</g>
</g>
<!-- Node8&#45;&gt;Node9 -->
<g id="edge8" class="edge"><title>Node8&#45;&gt;Node9</title>
<path fill="none" stroke="midnightblue" d="M1264.48,-105.099C1272.84,-105.099 1281.27,-105.099 1289.54,-105.099"/>
<polygon fill="midnightblue" stroke="midnightblue" points="1264.33,-101.599 1254.33,-105.099 1264.33,-108.599 1264.33,-101.599"/>
</g>
<!-- Node10&#45;&gt;Node5 -->
<g id="edge10" class="edge"><title>Node10&#45;&gt;Node5</title>
<path fill="none" stroke="midnightblue" d="M1187.48,-279.553C1227.93,-322.411 1331.19,-431.807 1363.31,-465.837"/>
<polygon fill="midnightblue" stroke="midnightblue" points="1189.88,-277.003 1180.47,-272.133 1184.79,-281.808 1189.88,-277.003"/>
</g>
<!-- Node11&#45;&gt;Node10 -->
<g id="edge12" class="edge"><title>Node11&#45;&gt;Node10</title>
<path fill="none" stroke="midnightblue" d="M1031.25,-235.102C1059.02,-240.546 1091.49,-246.908 1117.93,-252.089"/>
<polygon fill="midnightblue" stroke="midnightblue" points="1031.73,-231.631 1021.25,-233.142 1030.39,-238.5 1031.73,-231.631"/>
</g>
<!-- Node12&#45;&gt;Node10 -->
<g id="edge14" class="edge"><title>Node12&#45;&gt;Node10</title>
<path fill="none" stroke="midnightblue" d="M1021.45,-158.2C1031.18,-161.502 1041.1,-165.458 1050,-170.099 1094.46,-193.274 1139.17,-233.436 1158.74,-252.069"/>
<polygon fill="midnightblue" stroke="midnightblue" points="1022.41,-154.833 1011.81,-155.114 1020.27,-161.499 1022.41,-154.833"/>
</g>
<!-- Node13&#45;&gt;Node10 -->
<g id="edge16" class="edge"><title>Node13&#45;&gt;Node10</title>
<path fill="none" stroke="midnightblue" d="M1031.25,-289.095C1059.02,-283.652 1091.49,-277.289 1117.93,-272.108"/>
<polygon fill="midnightblue" stroke="midnightblue" points="1030.39,-285.697 1021.25,-291.055 1031.73,-292.567 1030.39,-285.697"/>
</g>
<!-- Node15 -->
<g id="node15" class="node"><title>Node15</title>
<g id="a_node15"><a xlink:href="classrc_kinetoscope.html#a0b18f2bfdf0f15e136add61040f57f62" target="_top" xlink:title="rcKinetoscope::selfSimilar\lMotionField">
<polygon fill="white" stroke="black" points="710.478,-356.099 710.478,-388.099 841.522,-388.099 841.522,-356.099 710.478,-356.099"/>
<text text-anchor="start" x="718.478" y="-374.099" font-family="Helvetica,sans-Serif" font-size="10.00">rcKinetoscope::selfSimilar</text>
<text text-anchor="middle" x="776" y="-362.099" font-family="Helvetica,sans-Serif" font-size="10.00">MotionField</text>
</a>
</g>
</g>
<!-- Node14&#45;&gt;Node15 -->
<g id="edge19" class="edge"><title>Node14&#45;&gt;Node15</title>
<path fill="none" stroke="midnightblue" d="M419.011,-300.844C433.143,-332.665 465.836,-394.233 516,-419.099 593.182,-457.357 697.126,-413.791 746.574,-388.158"/>
<polygon fill="midnightblue" stroke="midnightblue" points="422.077,-299.111 414.931,-291.289 415.639,-301.86 422.077,-299.111"/>
</g>
<!-- Node16 -->
<g id="node16" class="node"><title>Node16</title>
<g id="a_node16"><a xlink:href="classrc_kinetoscope.html#afe805a453ae10008a433841fa9c8ad1e" target="_top" xlink:title="rcKinetoscope::selfSimilar\lMotionField_AttentiveCapture">
<polygon fill="white" stroke="black" points="516.131,-378.099 516.131,-410.099 663.869,-410.099 663.869,-378.099 516.131,-378.099"/>
<text text-anchor="start" x="524.131" y="-396.099" font-family="Helvetica,sans-Serif" font-size="10.00">rcKinetoscope::selfSimilar</text>
<text text-anchor="middle" x="590" y="-384.099" font-family="Helvetica,sans-Serif" font-size="10.00">MotionField_AttentiveCapture</text>
</a>
</g>
</g>
<!-- Node14&#45;&gt;Node16 -->
<g id="edge21" class="edge"><title>Node14&#45;&gt;Node16</title>
<path fill="none" stroke="midnightblue" d="M429.465,-297.97C449.633,-315.789 483.42,-343.909 516,-363.099 525.373,-368.619 535.912,-373.685 546.006,-378.05"/>
<polygon fill="midnightblue" stroke="midnightblue" points="431.731,-295.3 421.944,-291.241 427.063,-300.517 431.731,-295.3"/>
</g>
<!-- Node17 -->
<g id="node17" class="node"><title>Node17</title>
<g id="a_node17"><a xlink:href="classrc_kinetoscope.html#a71bf36bfcaed48850d22e75501cd725d" target="_top" xlink:title="rcKinetoscope::epiMotion\lField">
<polygon fill="white" stroke="black" points="525.857,-288.099 525.857,-320.099 654.143,-320.099 654.143,-288.099 525.857,-288.099"/>
<text text-anchor="start" x="533.857" y="-306.099" font-family="Helvetica,sans-Serif" font-size="10.00">rcKinetoscope::epiMotion</text>
<text text-anchor="middle" x="590" y="-294.099" font-family="Helvetica,sans-Serif" font-size="10.00">Field</text>
</a>
</g>
</g>
<!-- Node14&#45;&gt;Node17 -->
<g id="edge23" class="edge"><title>Node14&#45;&gt;Node17</title>
<path fill="none" stroke="midnightblue" d="M483.986,-290.529C497.849,-292.321 512.249,-294.181 525.778,-295.93"/>
<polygon fill="midnightblue" stroke="midnightblue" points="484.373,-287.05 474.007,-289.24 483.476,-293.993 484.373,-287.05"/>
</g>
<!-- Node18 -->
<g id="node18" class="node"><title>Node18</title>
<g id="a_node18"><a xlink:href="classrc_kinetoscope.html#a67b0089bfe7274b2e014b0e95f0447d6" target="_top" xlink:title="rcKinetoscope::use4when">
<polygon fill="white" stroke="black" points="524.742,-210.099 524.742,-230.099 655.258,-230.099 655.258,-210.099 524.742,-210.099"/>
<text text-anchor="middle" x="590" y="-216.099" font-family="Helvetica,sans-Serif" font-size="10.00">rcKinetoscope::use4when</text>
</a>
</g>
</g>
<!-- Node14&#45;&gt;Node18 -->
<g id="edge25" class="edge"><title>Node14&#45;&gt;Node18</title>
<path fill="none" stroke="midnightblue" d="M450.009,-267.72C469.781,-260.941 494.166,-252.58 516,-245.099 530.32,-240.192 546.222,-234.746 559.518,-230.193"/>
<polygon fill="midnightblue" stroke="midnightblue" points="448.742,-264.455 440.418,-271.009 451.013,-271.076 448.742,-264.455"/>
</g>
<!-- Node14&#45;&gt;Node19 -->
<g id="edge27" class="edge"><title>Node14&#45;&gt;Node19</title>
<path fill="none" stroke="midnightblue" d="M483.934,-271.681C550.135,-263.133 646.84,-250.647 710.335,-242.448"/>
<polygon fill="midnightblue" stroke="midnightblue" points="483.458,-268.214 473.988,-272.966 484.354,-275.156 483.458,-268.214"/>
</g>
<!-- Node15&#45;&gt;Node10 -->
<g id="edge20" class="edge"><title>Node15&#45;&gt;Node10</title>
<path fill="none" stroke="midnightblue" d="M851.786,-363.305C907.425,-355.462 984.699,-341.801 1050,-320.099 1087.95,-307.486 1129.29,-285.224 1151.87,-272.257"/>
<polygon fill="midnightblue" stroke="midnightblue" points="851.085,-359.869 841.657,-364.703 852.041,-366.803 851.085,-359.869"/>
</g>
<!-- Node16&#45;&gt;Node15 -->
<g id="edge22" class="edge"><title>Node16&#45;&gt;Node15</title>
<path fill="none" stroke="midnightblue" d="M674.147,-384.157C686.325,-382.701 698.712,-381.22 710.443,-379.817"/>
<polygon fill="midnightblue" stroke="midnightblue" points="673.5,-380.71 663.986,-385.372 674.331,-387.66 673.5,-380.71"/>
</g>
<!-- Node17&#45;&gt;Node13 -->
<g id="edge24" class="edge"><title>Node17&#45;&gt;Node13</title>
<path fill="none" stroke="midnightblue" d="M664.837,-303.511C736.539,-302.941 843.938,-302.086 909.794,-301.562"/>
<polygon fill="midnightblue" stroke="midnightblue" points="664.498,-300.014 654.527,-303.593 664.554,-307.013 664.498,-300.014"/>
</g>
<!-- Node18&#45;&gt;Node6 -->
<g id="edge26" class="edge"><title>Node18&#45;&gt;Node6</title>
<path fill="none" stroke="midnightblue" d="M640.278,-207.511C670.138,-199.884 707.716,-190.285 735.593,-183.165"/>
<polygon fill="midnightblue" stroke="midnightblue" points="639.295,-204.15 630.473,-210.016 641.028,-210.932 639.295,-204.15"/>
</g>
<!-- Node19&#45;&gt;Node10 -->
<g id="edge28" class="edge"><title>Node19&#45;&gt;Node10</title>
<path fill="none" stroke="midnightblue" d="M851.671,-239.49C863.814,-240.364 876.256,-241.258 888,-242.099 968.37,-247.855 1061.67,-254.486 1117.98,-258.481"/>
<polygon fill="midnightblue" stroke="midnightblue" points="851.789,-235.989 841.564,-238.762 851.287,-242.971 851.789,-235.989"/>
</g>
<!-- Node19&#45;&gt;Node11 -->
<g id="edge29" class="edge"><title>Node19&#45;&gt;Node11</title>
<path fill="none" stroke="midnightblue" d="M851.838,-229.789C865.315,-229.012 879.369,-228.203 892.854,-227.426"/>
<polygon fill="midnightblue" stroke="midnightblue" points="851.446,-226.305 841.664,-230.375 851.849,-233.294 851.446,-226.305"/>
</g>
<!-- Node19&#45;&gt;Node13 -->
<g id="edge30" class="edge"><title>Node19&#45;&gt;Node13</title>
<path fill="none" stroke="midnightblue" d="M827.009,-253.736C846.016,-261.011 867.922,-269.17 888,-276.099 903.131,-281.32 920.029,-286.67 934.382,-291.074"/>
<polygon fill="midnightblue" stroke="midnightblue" points="828.237,-250.458 817.647,-250.135 825.724,-256.992 828.237,-250.458"/>
</g>
<!-- Node20&#45;&gt;Node15 -->
<g id="edge32" class="edge"><title>Node20&#45;&gt;Node15</title>
<path fill="none" stroke="midnightblue" d="M443.823,-234.816C456.24,-241.535 469.818,-250.402 480,-261.099 503.578,-285.867 488.252,-309.112 516,-329.099 546.328,-350.943 644.092,-362.447 710.443,-367.894"/>
<polygon fill="midnightblue" stroke="midnightblue" points="445.125,-231.55 434.63,-230.102 441.931,-237.779 445.125,-231.55"/>
</g>
<!-- Node20&#45;&gt;Node18 -->
<g id="edge33" class="edge"><title>Node20&#45;&gt;Node18</title>
<path fill="none" stroke="midnightblue" d="M489.718,-220.099C501.365,-220.099 513.251,-220.099 524.561,-220.099"/>
<polygon fill="midnightblue" stroke="midnightblue" points="489.565,-216.599 479.565,-220.099 489.565,-223.599 489.565,-216.599"/>
</g>
<!-- Node20&#45;&gt;Node19 -->
<g id="edge34" class="edge"><title>Node20&#45;&gt;Node19</title>
<path fill="none" stroke="midnightblue" d="M463.734,-208.045C480.363,-204.787 498.865,-201.716 516,-200.099 581.487,-193.917 598.947,-190.359 664,-200.099 687.421,-203.605 712.726,-211.056 733.252,-218.091"/>
<polygon fill="midnightblue" stroke="midnightblue" points="462.758,-204.672 453.651,-210.087 464.147,-211.533 462.758,-204.672"/>
</g>
<!-- Node22&#45;&gt;Node6 -->
<g id="edge38" class="edge"><title>Node22&#45;&gt;Node6</title>
<path fill="none" stroke="midnightblue" d="M641.567,-41.7341C649.387,-44.8693 657.136,-48.6297 664,-53.0987 688.496,-69.048 745.444,-137.031 766.754,-162.979"/>
<polygon fill="midnightblue" stroke="midnightblue" points="642.641,-38.3996 632.048,-38.2141 640.213,-44.9651 642.641,-38.3996"/>
</g>
<!-- Node22&#45;&gt;Node7 -->
<g id="edge40" class="edge"><title>Node22&#45;&gt;Node7</title>
<path fill="none" stroke="midnightblue" d="M653.801,-20.5315C707.562,-16.1624 786.437,-14.8109 852,-34.0987 894.132,-46.4935 936.277,-78.3575 956.174,-94.8564"/>
<polygon fill="midnightblue" stroke="midnightblue" points="653.388,-17.0541 643.73,-21.4092 653.996,-24.0277 653.388,-17.0541"/>
</g>
<!-- Node23 -->
<g id="node23" class="node"><title>Node23</title>
<g id="a_node23"><a xlink:href="classrc_kinetoscope.html#a8c9f1992e0fe194bb0b30a4c060a2df1" target="_top" xlink:title="rcKinetoscope::preSegmented\lBodies">
<polygon fill="white" stroke="black" points="700.737,-44.0987 700.737,-76.0987 851.263,-76.0987 851.263,-44.0987 700.737,-44.0987"/>
<text text-anchor="start" x="708.737" y="-62.0987" font-family="Helvetica,sans-Serif" font-size="10.00">rcKinetoscope::preSegmented</text>
<text text-anchor="middle" x="776" y="-50.0987" font-family="Helvetica,sans-Serif" font-size="10.00">Bodies</text>
</a>
</g>
</g>
<!-- Node22&#45;&gt;Node23 -->
<g id="edge39" class="edge"><title>Node22&#45;&gt;Node23</title>
<path fill="none" stroke="midnightblue" d="M653.933,-39.0435C668.974,-41.6593 685.17,-44.4761 700.671,-47.1719"/>
<polygon fill="midnightblue" stroke="midnightblue" points="654.179,-35.5338 643.727,-37.2686 652.979,-42.4303 654.179,-35.5338"/>
</g>
<!-- Node24&#45;&gt;Node5 -->
<g id="edge43" class="edge"><title>Node24&#45;&gt;Node5</title>
<path fill="none" stroke="midnightblue" d="M286.022,-409.202C292.104,-411.168 298.179,-413.157 304,-415.099 431.34,-457.576 454.762,-515.099 589,-515.099 589,-515.099 589,-515.099 970,-515.099 1096.53,-515.099 1128.29,-509.532 1254,-495.099 1274.58,-492.736 1297.04,-489.359 1316.84,-486.106"/>
<polygon fill="midnightblue" stroke="midnightblue" points="287.086,-405.867 276.494,-406.141 284.944,-412.532 287.086,-405.867"/>
</g>
<!-- Node25 -->
<g id="node25" class="node"><title>Node25</title>
<g id="a_node25"><a xlink:href="classrc_kinetoscope.html#a7eb12d336c7e47b947f4a3ddf480b710" target="_top" xlink:title="rcKinetoscope::visualDebug\lGraphics">
<polygon fill="white" stroke="black" points="340.02,-544.099 340.02,-576.099 479.98,-576.099 479.98,-544.099 340.02,-544.099"/>
<text text-anchor="start" x="348.02" y="-562.099" font-family="Helvetica,sans-Serif" font-size="10.00">rcKinetoscope::visualDebug</text>
<text text-anchor="middle" x="410" y="-550.099" font-family="Helvetica,sans-Serif" font-size="10.00">Graphics</text>
</a>
</g>
</g>
<!-- Node24&#45;&gt;Node25 -->
<g id="edge42" class="edge"><title>Node24&#45;&gt;Node25</title>
<path fill="none" stroke="midnightblue" d="M301.066,-412.371C302.077,-413.246 303.056,-414.154 304,-415.099 341.559,-452.681 304.678,-489.407 340,-529.099 345.326,-535.083 352.031,-539.976 359.156,-543.957"/>
<polygon fill="midnightblue" stroke="midnightblue" points="302.903,-409.379 292.761,-406.316 298.779,-415.035 302.903,-409.379"/>
</g>
</g>
</svg>
        <g id="navigator" transform="translate(0 0)" fill="#404254">
                <rect fill="#f2f5e9" fill-opacity="0.5" stroke="#606060" stroke-width=".5" x="0" y="0" width="60" height="60"/>
                <use id="zoomplus" xlink:href="#zoomPlus" x="17" y="9" onmousedown="handleZoom(evt,'in')"/>
                <use id="zoomminus" xlink:href="#zoomMin" x="42" y="9" onmousedown="handleZoom(evt,'out')"/>
                <use id="reset" xlink:href="#resetDef" x="30" y="36" onmousedown="handleReset()"/>
                <g id="arrowUp" xlink:href="#dirArrow" transform="translate(30 24)" onmousedown="handlePan(0,-1)">
                  <use xlink:href="#rim" fill="#404040">
                        <set attributeName="fill" to="#808080" begin="arrowUp.mouseover" end="arrowUp.mouseout"/>
                  </use>
                  <path fill="none" stroke="white" stroke-width="1.5" d="M0,-3.0v7 M-2.5,-0.5L0,-3.0L2.5,-0.5"/>
                </g>
                <g id="arrowRight" xlink:href="#dirArrow" transform="rotate(90) translate(36 -43)" onmousedown="handlePan(1,0)">
                  <use xlink:href="#rim" fill="#404040">
                        <set attributeName="fill" to="#808080" begin="arrowRight.mouseover" end="arrowRight.mouseout"/>
                  </use>
                  <path fill="none" stroke="white" stroke-width="1.5" d="M0,-3.0v7 M-2.5,-0.5L0,-3.0L2.5,-0.5"/>
                </g>
                <g id="arrowDown" xlink:href="#dirArrow" transform="rotate(180) translate(-30 -48)" onmousedown="handlePan(0,1)">
                  <use xlink:href="#rim" fill="#404040">
                        <set attributeName="fill" to="#808080" begin="arrowDown.mouseover" end="arrowDown.mouseout"/>
                  </use>
                  <path fill="none" stroke="white" stroke-width="1.5" d="M0,-3.0v7 M-2.5,-0.5L0,-3.0L2.5,-0.5"/>
                </g>
                <g id="arrowLeft" xlink:href="#dirArrow" transform="rotate(270) translate(-36 17)" onmousedown="handlePan(-1,0)">
                  <use xlink:href="#rim" fill="#404040">
                        <set attributeName="fill" to="#808080" begin="arrowLeft.mouseover" end="arrowLeft.mouseout"/>
                  </use>
                  <path fill="none" stroke="white" stroke-width="1.5" d="M0,-3.0v7 M-2.5,-0.5L0,-3.0L2.5,-0.5"/>
                </g>
        </g>
        <svg viewBox="0 0 15 15" width="100%" height="30px" preserveAspectRatio="xMaxYMin meet">
         <g id="arrow_out" transform="scale(0.3 0.3)">
          <a xlink:href="classrc_kinetoscope_ac9568a6bf45d811c47e89632aa58f945_icgraph_org.svg" target="_base">
           <rect id="button" ry="5" rx="5" y="6" x="6" height="38" width="38"
                fill="#f2f5e9" fill-opacity="0.5" stroke="#606060" stroke-width="1.0"/>
           <path id="arrow"
             d="M 11.500037,31.436501 C 11.940474,20.09759 22.043105,11.32322 32.158766,21.979434 L 37.068811,17.246167 C 37.068811,17.246167 37.088388,32 37.088388,32 L 22.160133,31.978069 C 22.160133,31.978069 26.997745,27.140456 26.997745,27.140456 C 18.528582,18.264221 13.291696,25.230495 11.500037,31.436501 z"
             style="fill:#404040;"/>
          </a>
         </g>
        </svg>
</svg>
