<?xml version="1.0" encoding="UTF-8" standalone="no"?>
<!DOCTYPE svg PUBLIC "-//W3C//DTD SVG 1.1//EN"
 "http://www.w3.org/Graphics/SVG/1.1/DTD/svg11.dtd">
<!-- Generated by graphviz version 2.32.0 (20130916.1925)
 -->
<!-- Title: rcModelDomain::updateDisplay Pages: 1 -->
<svg width="1644pt" height="233pt"
 viewBox="0.00 0.00 1644.00 233.00" xmlns="http://www.w3.org/2000/svg" xmlns:xlink="http://www.w3.org/1999/xlink">
<g id="graph0" class="graph" transform="scale(1 1) rotate(0) translate(4 229)">
<title>rcModelDomain::updateDisplay</title>
<polygon fill="white" stroke="white" points="-4,5 -4,-229 1641,-229 1641,5 -4,5"/>
<!-- Node1 -->
<g id="node1" class="node"><title>Node1</title>
<polygon fill="#bfbfbf" stroke="black" points="0.522461,-107 0.522461,-127 155.478,-127 155.478,-107 0.522461,-107"/>
<text text-anchor="middle" x="78" y="-113" font-family="Helvetica,sans-Serif" font-size="10.00">rcModelDomain::updateDisplay</text>
</g>
<!-- Node2 -->
<g id="node2" class="node"><title>Node2</title>
<g id="a_node2"><a xlink:href="classrc_model_domain.html#a2c29afd7288ef7c96bc7a50d3d467f44" target="_top" xlink:title="rcModelDomain::customEvent">
<polygon fill="white" stroke="black" points="192.308,-130 192.308,-150 341.692,-150 341.692,-130 192.308,-130"/>
<text text-anchor="middle" x="267" y="-136" font-family="Helvetica,sans-Serif" font-size="10.00">rcModelDomain::customEvent</text>
</a>
</g>
</g>
<!-- Node1&#45;&gt;Node2 -->
<g id="edge1" class="edge"><title>Node1&#45;&gt;Node2</title>
<path fill="none" stroke="midnightblue" d="M165.599,-127.651C174.502,-128.746 183.489,-129.852 192.235,-130.927"/>
<polygon fill="midnightblue" stroke="midnightblue" points="165.952,-124.168 155.6,-126.421 165.098,-131.116 165.952,-124.168"/>
</g>
<!-- Node3 -->
<g id="node3" class="node"><title>Node3</title>
<g id="a_node3"><a xlink:href="classrc_model_domain.html#a86d2be206d7e3823bc8e4ed05515f029" target="_top" xlink:title="rcModelDomain::notifyUpdate\lDisplay">
<polygon fill="white" stroke="black" points="193.136,-79 193.136,-111 340.864,-111 340.864,-79 193.136,-79"/>
<text text-anchor="start" x="201.136" y="-97" font-family="Helvetica,sans-Serif" font-size="10.00">rcModelDomain::notifyUpdate</text>
<text text-anchor="middle" x="267" y="-85" font-family="Helvetica,sans-Serif" font-size="10.00">Display</text>
</a>
</g>
</g>
<!-- Node1&#45;&gt;Node3 -->
<g id="edge2" class="edge"><title>Node1&#45;&gt;Node3</title>
<path fill="none" stroke="midnightblue" d="M165.766,-106.792C174.819,-105.727 183.957,-104.652 192.837,-103.607"/>
<polygon fill="midnightblue" stroke="midnightblue" points="165.122,-103.344 155.6,-107.988 165.94,-110.296 165.122,-103.344"/>
</g>
<!-- Node4 -->
<g id="node4" class="node"><title>Node4</title>
<g id="a_node4"><a xlink:href="classrc_track_manager.html#aa92231c2665b519e866898cf221548b9" target="_top" xlink:title="rcTrackManager::hiliteTracks">
<polygon fill="white" stroke="black" points="569.906,-18 569.906,-38 714.094,-38 714.094,-18 569.906,-18"/>
<text text-anchor="middle" x="642" y="-24" font-family="Helvetica,sans-Serif" font-size="10.00">rcTrackManager::hiliteTracks</text>
</a>
</g>
</g>
<!-- Node3&#45;&gt;Node4 -->
<g id="edge3" class="edge"><title>Node3&#45;&gt;Node4</title>
<path fill="none" stroke="midnightblue" d="M351.058,-82.8295C402.209,-75.0255 469.055,-64.2717 528,-53 551.386,-48.5281 577.334,-42.8395 598.461,-38.0188"/>
<polygon fill="midnightblue" stroke="midnightblue" points="350.405,-79.3885 341.044,-84.3503 351.456,-86.3091 350.405,-79.3885"/>
</g>
<!-- Node17 -->
<g id="node17" class="node"><title>Node17</title>
<g id="a_node17"><a xlink:href="classrc_scalar_track_widget.html#a6108b831424259c957069a6523315e81" target="_top" xlink:title="rcScalarTrackWidget\l::mousePressEvent">
<polygon fill="white" stroke="black" points="587.784,-186 587.784,-218 696.216,-218 696.216,-186 587.784,-186"/>
<text text-anchor="start" x="595.784" y="-204" font-family="Helvetica,sans-Serif" font-size="10.00">rcScalarTrackWidget</text>
<text text-anchor="middle" x="642" y="-192" font-family="Helvetica,sans-Serif" font-size="10.00">::mousePressEvent</text>
</a>
</g>
</g>
<!-- Node3&#45;&gt;Node17 -->
<g id="edge17" class="edge"><title>Node3&#45;&gt;Node17</title>
<path fill="none" stroke="midnightblue" d="M330.248,-114.787C334.268,-116.445 338.217,-118.186 342,-120 359.12,-128.21 360.472,-135.701 378,-143 447.441,-171.919 533.374,-187.783 587.707,-195.585"/>
<polygon fill="midnightblue" stroke="midnightblue" points="331.371,-111.467 320.783,-111.07 328.812,-117.983 331.371,-111.467"/>
</g>
<!-- Node18 -->
<g id="node18" class="node"><title>Node18</title>
<g id="a_node18"><a xlink:href="classrc_track_manager.html#adab53f1d602707849ddd095621d7c1fc" target="_top" xlink:title="rcTrackManager::setHilite\lTrack">
<polygon fill="white" stroke="black" points="388.223,-102 388.223,-134 517.777,-134 517.777,-102 388.223,-102"/>
<text text-anchor="start" x="396.223" y="-120" font-family="Helvetica,sans-Serif" font-size="10.00">rcTrackManager::setHilite</text>
<text text-anchor="middle" x="453" y="-108" font-family="Helvetica,sans-Serif" font-size="10.00">Track</text>
</a>
</g>
</g>
<!-- Node3&#45;&gt;Node18 -->
<g id="edge18" class="edge"><title>Node3&#45;&gt;Node18</title>
<path fill="none" stroke="midnightblue" d="M350.911,-105.364C363.369,-106.921 376.051,-108.506 388.032,-110.004"/>
<polygon fill="midnightblue" stroke="midnightblue" points="351.343,-101.891 340.986,-104.123 350.475,-108.837 351.343,-101.891"/>
</g>
<!-- Node21 -->
<g id="node21" class="node"><title>Node21</title>
<g id="a_node21"><a xlink:href="classrc_track_manager.html#a8fe76da74e59caad5347f2b08d131aba" target="_top" xlink:title="rcTrackManager::setTrackPen">
<polygon fill="white" stroke="black" points="378.123,-24 378.123,-44 527.877,-44 527.877,-24 378.123,-24"/>
<text text-anchor="middle" x="453" y="-30" font-family="Helvetica,sans-Serif" font-size="10.00">rcTrackManager::setTrackPen</text>
</a>
</g>
</g>
<!-- Node3&#45;&gt;Node21 -->
<g id="edge24" class="edge"><title>Node3&#45;&gt;Node21</title>
<path fill="none" stroke="midnightblue" d="M325.991,-75.7749C357.793,-65.2315 395.906,-52.5962 421.829,-44.0025"/>
<polygon fill="midnightblue" stroke="midnightblue" points="324.734,-72.5039 316.344,-78.973 326.937,-79.1483 324.734,-72.5039"/>
</g>
<!-- Node5 -->
<g id="node5" class="node"><title>Node5</title>
<g id="a_node5"><a xlink:href="classrc_track_manager.html#a745168e90647a62f4bb0a1c085079c50" target="_top" xlink:title="rcTrackManager::setTrack\lEnabled">
<polygon fill="white" stroke="black" points="756.019,-76 756.019,-108 887.981,-108 887.981,-76 756.019,-76"/>
<text text-anchor="start" x="764.019" y="-94" font-family="Helvetica,sans-Serif" font-size="10.00">rcTrackManager::setTrack</text>
<text text-anchor="middle" x="822" y="-82" font-family="Helvetica,sans-Serif" font-size="10.00">Enabled</text>
</a>
</g>
</g>
<!-- Node4&#45;&gt;Node5 -->
<g id="edge4" class="edge"><title>Node4&#45;&gt;Node5</title>
<path fill="none" stroke="midnightblue" d="M699.524,-40.7236C706.475,-42.6467 713.437,-44.7482 720,-47 743.604,-55.0991 769.281,-66.5769 788.838,-75.9133"/>
<polygon fill="midnightblue" stroke="midnightblue" points="699.96,-37.2183 689.397,-38.037 698.165,-43.9843 699.96,-37.2183"/>
</g>
<!-- Node6 -->
<g id="node6" class="node"><title>Node6</title>
<g id="a_node6"><a xlink:href="classrc_image_canvas_g_l.html#a85e0b816bc87a7c933361451e7768810" target="_top" xlink:title="rcImageCanvasGL::enableCell\lGroup">
<polygon fill="white" stroke="black" points="923.909,-153 923.909,-185 1076.09,-185 1076.09,-153 923.909,-153"/>
<text text-anchor="start" x="931.909" y="-171" font-family="Helvetica,sans-Serif" font-size="10.00">rcImageCanvasGL::enableCell</text>
<text text-anchor="middle" x="1000" y="-159" font-family="Helvetica,sans-Serif" font-size="10.00">Group</text>
</a>
</g>
</g>
<!-- Node5&#45;&gt;Node6 -->
<g id="edge5" class="edge"><title>Node5&#45;&gt;Node6</title>
<path fill="none" stroke="midnightblue" d="M861.181,-112.801C879.844,-122.574 902.801,-134.021 924,-143 932.121,-146.44 940.87,-149.785 949.424,-152.867"/>
<polygon fill="midnightblue" stroke="midnightblue" points="862.596,-109.59 852.119,-108.011 859.324,-115.779 862.596,-109.59"/>
</g>
<!-- Node11 -->
<g id="node11" class="node"><title>Node11</title>
<g id="a_node11"><a xlink:href="classrc_scalar_track_widget.html#aec406498f8a4809dbdcf36d8deba3c7a" target="_top" xlink:title="rcScalarTrackWidget\l::setEnabled">
<polygon fill="white" stroke="black" points="945.784,-102 945.784,-134 1054.22,-134 1054.22,-102 945.784,-102"/>
<text text-anchor="start" x="953.784" y="-120" font-family="Helvetica,sans-Serif" font-size="10.00">rcScalarTrackWidget</text>
<text text-anchor="middle" x="1000" y="-108" font-family="Helvetica,sans-Serif" font-size="10.00">::setEnabled</text>
</a>
</g>
</g>
<!-- Node5&#45;&gt;Node11 -->
<g id="edge10" class="edge"><title>Node5&#45;&gt;Node11</title>
<path fill="none" stroke="midnightblue" d="M897.947,-103.072C914.021,-105.446 930.689,-107.909 945.741,-110.132"/>
<polygon fill="midnightblue" stroke="midnightblue" points="898.44,-99.6066 888.036,-101.608 897.417,-106.531 898.44,-99.6066"/>
</g>
<!-- Node13 -->
<g id="node13" class="node"><title>Node13</title>
<g id="a_node13"><a xlink:href="classrc_track_group_widget.html#acd0f4f43430b7dc7130b6ef6dc3e2b6c" target="_top" xlink:title="rcTrackGroupWidget\l::setEnabled">
<polygon fill="white" stroke="black" points="946.06,-51 946.06,-83 1053.94,-83 1053.94,-51 946.06,-51"/>
<text text-anchor="start" x="954.06" y="-69" font-family="Helvetica,sans-Serif" font-size="10.00">rcTrackGroupWidget</text>
<text text-anchor="middle" x="1000" y="-57" font-family="Helvetica,sans-Serif" font-size="10.00">::setEnabled</text>
</a>
</g>
</g>
<!-- Node5&#45;&gt;Node13 -->
<g id="edge12" class="edge"><title>Node5&#45;&gt;Node13</title>
<path fill="none" stroke="midnightblue" d="M897.999,-81.3467C914.157,-79.0516 930.912,-76.6716 946.022,-74.5253"/>
<polygon fill="midnightblue" stroke="midnightblue" points="897.444,-77.8903 888.036,-82.762 898.429,-84.8207 897.444,-77.8903"/>
</g>
<!-- Node16 -->
<g id="node16" class="node"><title>Node16</title>
<g id="a_node16"><a xlink:href="classrc_track_manager.html#ae1a5729f27c156a3905d302bce2c475c" target="_top" xlink:title="rcTrackManager::setTrack\lEnabled">
<polygon fill="white" stroke="black" points="934.019,-0 934.019,-32 1065.98,-32 1065.98,-0 934.019,-0"/>
<text text-anchor="start" x="942.019" y="-18" font-family="Helvetica,sans-Serif" font-size="10.00">rcTrackManager::setTrack</text>
<text text-anchor="middle" x="1000" y="-6" font-family="Helvetica,sans-Serif" font-size="10.00">Enabled</text>
</a>
</g>
</g>
<!-- Node5&#45;&gt;Node16 -->
<g id="edge16" class="edge"><title>Node5&#45;&gt;Node16</title>
<path fill="none" stroke="midnightblue" d="M861.134,-71.0869C879.786,-61.2881 902.748,-49.8521 924,-41 931.475,-37.8863 939.489,-34.8799 947.395,-32.0968"/>
<polygon fill="midnightblue" stroke="midnightblue" points="859.271,-68.1133 852.079,-75.8928 862.553,-74.2965 859.271,-68.1133"/>
</g>
<!-- Node7 -->
<g id="node7" class="node"><title>Node7</title>
<g id="a_node7"><a xlink:href="classrc_image_canvas_g_l.html#acb25a27713e20842e6bb0a741570480b" target="_top" xlink:title="rcImageCanvasGL::mouseRelease\lEvent">
<polygon fill="white" stroke="black" points="1123.19,-153 1123.19,-185 1294.81,-185 1294.81,-153 1123.19,-153"/>
<text text-anchor="start" x="1131.19" y="-171" font-family="Helvetica,sans-Serif" font-size="10.00">rcImageCanvasGL::mouseRelease</text>
<text text-anchor="middle" x="1209" y="-159" font-family="Helvetica,sans-Serif" font-size="10.00">Event</text>
</a>
</g>
</g>
<!-- Node6&#45;&gt;Node7 -->
<g id="edge6" class="edge"><title>Node6&#45;&gt;Node7</title>
<path fill="none" stroke="midnightblue" d="M1086.37,-169C1098.44,-169 1110.85,-169 1122.92,-169"/>
<polygon fill="midnightblue" stroke="midnightblue" points="1086.32,-165.5 1076.32,-169 1086.32,-172.5 1086.32,-165.5"/>
</g>
<!-- Node8 -->
<g id="node8" class="node"><title>Node8</title>
<g id="a_node8"><a xlink:href="classrc_image_canvas_g_l.html#a99a6568df0e15227de9062331e1f2e0b" target="_top" xlink:title="rcImageCanvasGL::updateAnalysisRect">
<polygon fill="white" stroke="black" points="1112.35,-204 1112.35,-224 1305.65,-224 1305.65,-204 1112.35,-204"/>
<text text-anchor="middle" x="1209" y="-210" font-family="Helvetica,sans-Serif" font-size="10.00">rcImageCanvasGL::updateAnalysisRect</text>
</a>
</g>
</g>
<!-- Node6&#45;&gt;Node8 -->
<g id="edge7" class="edge"><title>Node6&#45;&gt;Node8</title>
<path fill="none" stroke="midnightblue" d="M1081.28,-187.242C1091.61,-189.542 1102.05,-191.844 1112,-194 1127.31,-197.318 1144.01,-200.834 1159.13,-203.978"/>
<polygon fill="midnightblue" stroke="midnightblue" points="1081.95,-183.805 1071.43,-185.041 1080.42,-190.637 1081.95,-183.805"/>
</g>
<!-- Node9 -->
<g id="node9" class="node"><title>Node9</title>
<g id="a_node9"><a xlink:href="classrc_monitor.html#ae24f91aee12ee35053a43b405b0fd35c" target="_top" xlink:title="rcMonitor::updateAnalysisRect">
<polygon fill="white" stroke="black" points="1342.19,-204 1342.19,-224 1493.81,-224 1493.81,-204 1342.19,-204"/>
<text text-anchor="middle" x="1418" y="-210" font-family="Helvetica,sans-Serif" font-size="10.00">rcMonitor::updateAnalysisRect</text>
</a>
</g>
</g>
<!-- Node8&#45;&gt;Node9 -->
<g id="edge8" class="edge"><title>Node8&#45;&gt;Node9</title>
<path fill="none" stroke="midnightblue" d="M1316.21,-214C1324.97,-214 1333.7,-214 1342.16,-214"/>
<polygon fill="midnightblue" stroke="midnightblue" points="1315.93,-210.5 1305.93,-214 1315.93,-217.5 1315.93,-210.5"/>
</g>
<!-- Node10 -->
<g id="node10" class="node"><title>Node10</title>
<g id="a_node10"><a xlink:href="classrc_monitor.html#ac08d61628243cd2d0bf2f6388f42995b" target="_top" xlink:title="rcMonitor::rcMonitor">
<polygon fill="white" stroke="black" points="1530.55,-204 1530.55,-224 1635.45,-224 1635.45,-204 1530.55,-204"/>
<text text-anchor="middle" x="1583" y="-210" font-family="Helvetica,sans-Serif" font-size="10.00">rcMonitor::rcMonitor</text>
</a>
</g>
</g>
<!-- Node9&#45;&gt;Node10 -->
<g id="edge9" class="edge"><title>Node9&#45;&gt;Node10</title>
<path fill="none" stroke="midnightblue" d="M1504,-214C1513.02,-214 1521.99,-214 1530.45,-214"/>
<polygon fill="midnightblue" stroke="midnightblue" points="1503.82,-210.5 1493.82,-214 1503.82,-217.5 1503.82,-210.5"/>
</g>
<!-- Node12 -->
<g id="node12" class="node"><title>Node12</title>
<g id="a_node12"><a xlink:href="classrc_scalar_track_widget.html#afc60cc8a08bd8f16560757beef569858" target="_top" xlink:title="rcScalarTrackWidget\l::rcScalarTrackWidget">
<polygon fill="white" stroke="black" points="1152.01,-102 1152.01,-134 1265.99,-134 1265.99,-102 1152.01,-102"/>
<text text-anchor="start" x="1160.01" y="-120" font-family="Helvetica,sans-Serif" font-size="10.00">rcScalarTrackWidget</text>
<text text-anchor="middle" x="1209" y="-108" font-family="Helvetica,sans-Serif" font-size="10.00">::rcScalarTrackWidget</text>
</a>
</g>
</g>
<!-- Node11&#45;&gt;Node12 -->
<g id="edge11" class="edge"><title>Node11&#45;&gt;Node12</title>
<path fill="none" stroke="midnightblue" d="M1064.38,-118C1092.34,-118 1124.92,-118 1151.98,-118"/>
<polygon fill="midnightblue" stroke="midnightblue" points="1064.31,-114.5 1054.31,-118 1064.31,-121.5 1064.31,-114.5"/>
</g>
<!-- Node14 -->
<g id="node14" class="node"><title>Node14</title>
<g id="a_node14"><a xlink:href="classrc_track_group_widget.html#ad61eb6b64b90a1f10be6562ae339923b" target="_top" xlink:title="rcTrackGroupWidget\l::rcTrackGroupWidget">
<polygon fill="white" stroke="black" points="1361.28,-32 1361.28,-64 1474.72,-64 1474.72,-32 1361.28,-32"/>
<text text-anchor="start" x="1369.28" y="-50" font-family="Helvetica,sans-Serif" font-size="10.00">rcTrackGroupWidget</text>
<text text-anchor="middle" x="1418" y="-38" font-family="Helvetica,sans-Serif" font-size="10.00">::rcTrackGroupWidget</text>
</a>
</g>
</g>
<!-- Node13&#45;&gt;Node14 -->
<g id="edge13" class="edge"><title>Node13&#45;&gt;Node14</title>
<path fill="none" stroke="midnightblue" d="M1064.16,-64.1152C1145.07,-60.4197 1284.05,-54.0724 1361.22,-50.5474"/>
<polygon fill="midnightblue" stroke="midnightblue" points="1063.94,-60.6216 1054.11,-64.5743 1064.26,-67.6143 1063.94,-60.6216"/>
</g>
<!-- Node15 -->
<g id="node15" class="node"><title>Node15</title>
<g id="a_node15"><a xlink:href="classrc_track_group_widget.html#a921fe29cf7f76be8059df16a50f4f318" target="_top" xlink:title="rcTrackGroupWidget\l::updateSettings">
<polygon fill="white" stroke="black" points="1155.06,-9 1155.06,-41 1262.94,-41 1262.94,-9 1155.06,-9"/>
<text text-anchor="start" x="1163.06" y="-27" font-family="Helvetica,sans-Serif" font-size="10.00">rcTrackGroupWidget</text>
<text text-anchor="middle" x="1209" y="-15" font-family="Helvetica,sans-Serif" font-size="10.00">::updateSettings</text>
</a>
</g>
</g>
<!-- Node13&#45;&gt;Node15 -->
<g id="edge14" class="edge"><title>Node13&#45;&gt;Node15</title>
<path fill="none" stroke="midnightblue" d="M1064.06,-54.2044C1093.05,-48.3229 1127.06,-41.4226 1154.74,-35.8065"/>
<polygon fill="midnightblue" stroke="midnightblue" points="1063.14,-50.8198 1054.04,-56.2385 1064.54,-57.6801 1063.14,-50.8198"/>
</g>
<!-- Node15&#45;&gt;Node14 -->
<g id="edge15" class="edge"><title>Node15&#45;&gt;Node14</title>
<path fill="none" stroke="midnightblue" d="M1273.16,-32.0173C1301.24,-35.1381 1334.03,-38.7812 1361.2,-41.8004"/>
<polygon fill="midnightblue" stroke="midnightblue" points="1273.36,-28.519 1263.04,-30.8932 1272.59,-35.4762 1273.36,-28.519"/>
</g>
<!-- Node18&#45;&gt;Node4 -->
<g id="edge23" class="edge"><title>Node18&#45;&gt;Node4</title>
<path fill="none" stroke="midnightblue" d="M510.229,-97.5995C516.445,-94.4339 522.506,-90.9005 528,-87 547.503,-73.1548 543.485,-59.2959 564,-47 570.023,-43.3899 576.702,-40.4642 583.537,-38.0934"/>
<polygon fill="midnightblue" stroke="midnightblue" points="508.577,-94.5098 501.058,-101.974 511.591,-100.828 508.577,-94.5098"/>
</g>
<!-- Node18&#45;&gt;Node5 -->
<g id="edge22" class="edge"><title>Node18&#45;&gt;Node5</title>
<path fill="none" stroke="midnightblue" d="M527.978,-134.25C581.778,-143.422 656.079,-150.596 720,-137 746.099,-131.449 773.633,-118.659 793.348,-108.128"/>
<polygon fill="midnightblue" stroke="midnightblue" points="528.296,-130.752 517.839,-132.456 527.076,-137.645 528.296,-130.752"/>
</g>
<!-- Node18&#45;&gt;Node17 -->
<g id="edge20" class="edge"><title>Node18&#45;&gt;Node17</title>
<path fill="none" stroke="midnightblue" d="M495.066,-138.584C515.616,-148.68 540.962,-160.826 564,-171 575.469,-176.065 588.035,-181.268 599.629,-185.929"/>
<polygon fill="midnightblue" stroke="midnightblue" points="496.504,-135.391 485.987,-134.104 493.406,-141.668 496.504,-135.391"/>
</g>
<!-- Node19 -->
<g id="node19" class="node"><title>Node19</title>
<g id="a_node19"><a xlink:href="classrc_monitor.html#a0ddaad1b9f1478578e9603b6f6ebf1f1" target="_top" xlink:title="rcMonitor::mouseReleaseEvent">
<polygon fill="white" stroke="black" points="564.247,-108 564.247,-128 719.753,-128 719.753,-108 564.247,-108"/>
<text text-anchor="middle" x="642" y="-114" font-family="Helvetica,sans-Serif" font-size="10.00">rcMonitor::mouseReleaseEvent</text>
</a>
</g>
</g>
<!-- Node18&#45;&gt;Node19 -->
<g id="edge19" class="edge"><title>Node18&#45;&gt;Node19</title>
<path fill="none" stroke="midnightblue" d="M528.125,-118C539.988,-118 552.286,-118 564.21,-118"/>
<polygon fill="midnightblue" stroke="midnightblue" points="527.832,-114.5 517.832,-118 527.832,-121.5 527.832,-114.5"/>
</g>
<!-- Node20 -->
<g id="node20" class="node"><title>Node20</title>
<g id="a_node20"><a xlink:href="classrc_scalar_track_widget.html#a0d235267119f2b8e39caf5b4c19df726" target="_top" xlink:title="rcScalarTrackWidget\l::keyPressEvent">
<polygon fill="white" stroke="black" points="587.784,-57 587.784,-89 696.216,-89 696.216,-57 587.784,-57"/>
<text text-anchor="start" x="595.784" y="-75" font-family="Helvetica,sans-Serif" font-size="10.00">rcScalarTrackWidget</text>
<text text-anchor="middle" x="642" y="-63" font-family="Helvetica,sans-Serif" font-size="10.00">::keyPressEvent</text>
</a>
</g>
</g>
<!-- Node18&#45;&gt;Node20 -->
<g id="edge21" class="edge"><title>Node18&#45;&gt;Node20</title>
<path fill="none" stroke="midnightblue" d="M527.566,-100.297C547.642,-95.4658 569.003,-90.3254 587.711,-85.8235"/>
<polygon fill="midnightblue" stroke="midnightblue" points="526.735,-96.8968 517.832,-102.639 528.373,-103.703 526.735,-96.8968"/>
</g>
</g>
</svg>
