<?xml version="1.0" encoding="UTF-8" standalone="no"?>
<!DOCTYPE svg PUBLIC "-//W3C//DTD SVG 1.1//EN"
 "http://www.w3.org/Graphics/SVG/1.1/DTD/svg11.dtd">
<!-- Generated by graphviz version 2.32.0 (20130916.1925)
 -->
<!-- Title: rcExperimentImpl::getSettingValue Pages: 1 -->
<svg width="316pt" height="40pt"
 viewBox="0.00 0.00 316.00 40.00" xmlns="http://www.w3.org/2000/svg" xmlns:xlink="http://www.w3.org/1999/xlink">
<g id="graph0" class="graph" transform="scale(1 1) rotate(0) translate(4 36)">
<title>rcExperimentImpl::getSettingValue</title>
<polygon fill="white" stroke="white" points="-4,5 -4,-36 313,-36 313,5 -4,5"/>
<!-- Node1 -->
<g id="node1" class="node"><title>Node1</title>
<polygon fill="#bfbfbf" stroke="black" points="-0.194336,-0 -0.194336,-32 144.194,-32 144.194,-0 -0.194336,-0"/>
<text text-anchor="start" x="7.80566" y="-18" font-family="Helvetica,sans-Serif" font-size="10.00">rcExperimentImpl::getSetting</text>
<text text-anchor="middle" x="72" y="-6" font-family="Helvetica,sans-Serif" font-size="10.00">Value</text>
</g>
<!-- Node2 -->
<g id="node2" class="node"><title>Node2</title>
<g id="a_node2"><a xlink:href="classrc_experiment_domain_impl.html#a5727f81d05a336e8b0448888ae409415" target="_top" xlink:title="rcExperimentDomainImpl\l::getExperimentAttributes">
<polygon fill="white" stroke="black" points="179.862,-0 179.862,-32 308.138,-32 308.138,-0 179.862,-0"/>
<text text-anchor="start" x="187.862" y="-18" font-family="Helvetica,sans-Serif" font-size="10.00">rcExperimentDomainImpl</text>
<text text-anchor="middle" x="244" y="-6" font-family="Helvetica,sans-Serif" font-size="10.00">::getExperimentAttributes</text>
</a>
</g>
</g>
<!-- Node1&#45;&gt;Node2 -->
<g id="edge1" class="edge"><title>Node1&#45;&gt;Node2</title>
<path fill="none" stroke="midnightblue" d="M154.819,-16C163.229,-16 171.681,-16 179.845,-16"/>
<polygon fill="midnightblue" stroke="midnightblue" points="154.603,-12.5001 144.603,-16 154.603,-19.5001 154.603,-12.5001"/>
</g>
</g>
</svg>
