<?xml version="1.0" encoding="UTF-8" standalone="no"?>
<!DOCTYPE svg PUBLIC "-//W3C//DTD SVG 1.1//EN"
 "http://www.w3.org/Graphics/SVG/1.1/DTD/svg11.dtd">
<!-- Generated by graphviz version 2.32.0 (20130916.1925)
 -->
<!-- Title: rcExperimentImpl::getSettingCategory Pages: 1 -->
<!--zoomable 214 -->
<svg id="main" version="1.1" xmlns="http://www.w3.org/2000/svg" xmlns:xlink="http://www.w3.org/1999/xlink" xml:space="preserve" onload="init(evt)">
        <defs>
                <circle id="rim" cx="0" cy="0" r="7"/>
                <circle id="rim2" cx="0" cy="0" r="3.5"/>
                <g id="zoomPlus">
                        <use xlink:href="#rim" fill="#404040">
                                <set attributeName="fill" to="#808080" begin="zoomplus.mouseover" end="zoomplus.mouseout"/>
                        </use>
                        <path d="M-4,0h8M0,-4v8" fill="none" stroke="white" stroke-width="1.5" pointer-events="none"/>
                </g>
                <g id="zoomMin">
                        <use xlink:href="#rim" fill="#404040">
                                <set attributeName="fill" to="#808080" begin="zoomminus.mouseover" end="zoomminus.mouseout"/>
                        </use>
                        <path d="M-4,0h8" fill="none" stroke="white" stroke-width="1.5" pointer-events="none"/>
                </g>
                <g id="dirArrow">
                        <path fill="none" stroke="white" stroke-width="1.5" d="M0,-3.0v7 M-2.5,-0.5L0,-3.0L2.5,-0.5"/>
                </g>
               <g id="resetDef">
                       <use xlink:href="#rim2" fill="#404040">
                               <set attributeName="fill" to="#808080" begin="reset.mouseover" end="reset.mouseout"/>
                       </use>
               </g>
        </defs>

<script type="text/javascript">
var viewWidth = 1238;
var viewHeight = 214;
var sectionId = 'dynsection-7';
</script>
<script xlink:href="svgpan.js"/>
<svg id="graph" class="graph">
<g id="viewport">
<title>rcExperimentImpl::getSettingCategory</title>
<polygon fill="white" stroke="white" points="-4,5 -4,-210 1235,-210 1235,5 -4,5"/>
<!-- Node1 -->
<g id="node1" class="node"><title>Node1</title>
<polygon fill="#bfbfbf" stroke="black" points="-0.194336,-112 -0.194336,-144 144.194,-144 144.194,-112 -0.194336,-112"/>
<text text-anchor="start" x="7.80566" y="-130" font-family="Helvetica,sans-Serif" font-size="10.00">rcExperimentImpl::getSetting</text>
<text text-anchor="middle" x="72" y="-118" font-family="Helvetica,sans-Serif" font-size="10.00">Category</text>
</g>
<!-- Node2 -->
<g id="node2" class="node"><title>Node2</title>
<g id="a_node2"><a xlink:href="classrc_native_importer.html#ae349355757ccd591f49202edc8fc86fc" target="_top" xlink:title="rcNativeImporter::findSetting">
<polygon fill="white" stroke="black" points="180.641,-186 180.641,-206 323.359,-206 323.359,-186 180.641,-186"/>
<text text-anchor="middle" x="252" y="-192" font-family="Helvetica,sans-Serif" font-size="10.00">rcNativeImporter::findSetting</text>
</a>
</g>
</g>
<!-- Node1&#45;&gt;Node2 -->
<g id="edge1" class="edge"><title>Node1&#45;&gt;Node2</title>
<path fill="none" stroke="midnightblue" d="M114.952,-148.542C134.454,-157.643 158.125,-168.061 180,-176 189.991,-179.626 200.967,-183.003 211.239,-185.912"/>
<polygon fill="midnightblue" stroke="midnightblue" points="116.276,-145.297 105.738,-144.197 113.29,-151.628 116.276,-145.297"/>
</g>
<!-- Node8 -->
<g id="node8" class="node"><title>Node8</title>
<g id="a_node8"><a xlink:href="classrc_native_importer.html#ad2bab5159de3385fb95778d4211479c8" target="_top" xlink:title="rcNativeImporter::findSetting\lCategory">
<polygon fill="white" stroke="black" points="364.641,-90 364.641,-122 507.359,-122 507.359,-90 364.641,-90"/>
<text text-anchor="start" x="372.641" y="-108" font-family="Helvetica,sans-Serif" font-size="10.00">rcNativeImporter::findSetting</text>
<text text-anchor="middle" x="436" y="-96" font-family="Helvetica,sans-Serif" font-size="10.00">Category</text>
</a>
</g>
</g>
<!-- Node1&#45;&gt;Node8 -->
<g id="edge7" class="edge"><title>Node1&#45;&gt;Node8</title>
<path fill="none" stroke="midnightblue" d="M154.842,-123.026C218,-119.188 304.455,-113.934 364.554,-110.281"/>
<polygon fill="midnightblue" stroke="midnightblue" points="154.289,-119.553 144.52,-123.654 154.713,-126.54 154.289,-119.553"/>
</g>
<!-- Node9 -->
<g id="node9" class="node"><title>Node9</title>
<g id="a_node9"><a xlink:href="classrc_experiment_domain_impl.html#a8db39db2ae092474f985b4c2997d5b72" target="_top" xlink:title="rcExperimentDomainImpl\l::saveExperiment">
<polygon fill="white" stroke="black" points="187.872,-45 187.872,-77 316.128,-77 316.128,-45 187.872,-45"/>
<text text-anchor="start" x="195.872" y="-63" font-family="Helvetica,sans-Serif" font-size="10.00">rcExperimentDomainImpl</text>
<text text-anchor="middle" x="252" y="-51" font-family="Helvetica,sans-Serif" font-size="10.00">::saveExperiment</text>
</a>
</g>
</g>
<!-- Node1&#45;&gt;Node9 -->
<g id="edge9" class="edge"><title>Node1&#45;&gt;Node9</title>
<path fill="none" stroke="midnightblue" d="M125.133,-108.377C151.622,-98.4063 183.404,-86.4433 208.404,-77.0332"/>
<polygon fill="midnightblue" stroke="midnightblue" points="123.761,-105.153 115.635,-111.952 126.227,-111.705 123.761,-105.153"/>
</g>
<!-- Node12 -->
<g id="node12" class="node"><title>Node12</title>
<g id="a_node12"><a xlink:href="classrc_native_importer.html#a9efdf50e31ffb861f86fe46e110ef4e9" target="_top" xlink:title="rcNativeImporter::setSetting\lValue">
<polygon fill="white" stroke="black" points="182.032,-135 182.032,-167 321.968,-167 321.968,-135 182.032,-135"/>
<text text-anchor="start" x="190.032" y="-153" font-family="Helvetica,sans-Serif" font-size="10.00">rcNativeImporter::setSetting</text>
<text text-anchor="middle" x="252" y="-141" font-family="Helvetica,sans-Serif" font-size="10.00">Value</text>
</a>
</g>
</g>
<!-- Node1&#45;&gt;Node12 -->
<g id="edge12" class="edge"><title>Node1&#45;&gt;Node12</title>
<path fill="none" stroke="midnightblue" d="M154.321,-138.508C163.545,-139.7 172.88,-140.906 181.926,-142.075"/>
<polygon fill="midnightblue" stroke="midnightblue" points="154.74,-135.033 144.374,-137.222 153.843,-141.975 154.74,-135.033"/>
</g>
<!-- Node3 -->
<g id="node3" class="node"><title>Node3</title>
<g id="a_node3"><a xlink:href="classrc_native_importer.html#a15f2c17509c6da7625bc25dfb69eda24" target="_top" xlink:title="rcNativeImporter::parseSetting">
<polygon fill="white" stroke="black" points="360.195,-141 360.195,-161 511.805,-161 511.805,-141 360.195,-141"/>
<text text-anchor="middle" x="436" y="-147" font-family="Helvetica,sans-Serif" font-size="10.00">rcNativeImporter::parseSetting</text>
</a>
</g>
</g>
<!-- Node2&#45;&gt;Node3 -->
<g id="edge2" class="edge"><title>Node2&#45;&gt;Node3</title>
<path fill="none" stroke="midnightblue" d="M303.656,-183.475C332.25,-176.405 367.508,-167.688 394.292,-161.065"/>
<polygon fill="midnightblue" stroke="midnightblue" points="302.712,-180.103 293.844,-185.901 304.392,-186.898 302.712,-180.103"/>
</g>
<!-- Node4 -->
<g id="node4" class="node"><title>Node4</title>
<g id="a_node4"><a xlink:href="classrc_native_importer.html#a9b6997ba2648e5efcda88a0d30d33503" target="_top" xlink:title="rcNativeImporter::parseSetting\lCategory">
<polygon fill="white" stroke="black" points="548.195,-112 548.195,-144 699.805,-144 699.805,-112 548.195,-112"/>
<text text-anchor="start" x="556.195" y="-130" font-family="Helvetica,sans-Serif" font-size="10.00">rcNativeImporter::parseSetting</text>
<text text-anchor="middle" x="624" y="-118" font-family="Helvetica,sans-Serif" font-size="10.00">Category</text>
</a>
</g>
</g>
<!-- Node3&#45;&gt;Node4 -->
<g id="edge3" class="edge"><title>Node3&#45;&gt;Node4</title>
<path fill="none" stroke="midnightblue" d="M521.98,-140.492C530.661,-139.418 539.437,-138.333 548.001,-137.274"/>
<polygon fill="midnightblue" stroke="midnightblue" points="521.344,-137.044 511.849,-141.744 522.203,-143.991 521.344,-137.044"/>
</g>
<!-- Node5 -->
<g id="node5" class="node"><title>Node5</title>
<g id="a_node5"><a xlink:href="classrc_native_importer.html#aec2b9d0745ceb8c0f75ae5d7b2d28076" target="_top" xlink:title="rcNativeImporter::import\lExperiment">
<polygon fill="white" stroke="black" points="736.377,-112 736.377,-144 859.623,-144 859.623,-112 736.377,-112"/>
<text text-anchor="start" x="744.377" y="-130" font-family="Helvetica,sans-Serif" font-size="10.00">rcNativeImporter::import</text>
<text text-anchor="middle" x="798" y="-118" font-family="Helvetica,sans-Serif" font-size="10.00">Experiment</text>
</a>
</g>
</g>
<!-- Node4&#45;&gt;Node5 -->
<g id="edge4" class="edge"><title>Node4&#45;&gt;Node5</title>
<path fill="none" stroke="midnightblue" d="M710.226,-128C719.009,-128 727.803,-128 736.242,-128"/>
<polygon fill="midnightblue" stroke="midnightblue" points="709.941,-124.5 699.941,-128 709.941,-131.5 709.941,-124.5"/>
</g>
<!-- Node6 -->
<g id="node6" class="node"><title>Node6</title>
<g id="a_node6"><a xlink:href="classrc_experiment_impl.html#a23195f3ff1ec159207ba1784d919434c" target="_top" xlink:title="rcExperimentImpl::loadExperiment">
<polygon fill="white" stroke="black" points="896.582,-118 896.582,-138 1065.42,-138 1065.42,-118 896.582,-118"/>
<text text-anchor="middle" x="981" y="-124" font-family="Helvetica,sans-Serif" font-size="10.00">rcExperimentImpl::loadExperiment</text>
</a>
</g>
</g>
<!-- Node5&#45;&gt;Node6 -->
<g id="edge5" class="edge"><title>Node5&#45;&gt;Node6</title>
<path fill="none" stroke="midnightblue" d="M869.898,-128C878.641,-128 887.64,-128 896.548,-128"/>
<polygon fill="midnightblue" stroke="midnightblue" points="869.774,-124.5 859.774,-128 869.774,-131.5 869.774,-124.5"/>
</g>
<!-- Node7 -->
<g id="node7" class="node"><title>Node7</title>
<g id="a_node7"><a xlink:href="classrc_experiment_domain_impl.html#a5c45f8064944cafb71471e3a576f1ad3" target="_top" xlink:title="rcExperimentDomainImpl\l::loadExperiment">
<polygon fill="white" stroke="black" points="1101.87,-112 1101.87,-144 1230.13,-144 1230.13,-112 1101.87,-112"/>
<text text-anchor="start" x="1109.87" y="-130" font-family="Helvetica,sans-Serif" font-size="10.00">rcExperimentDomainImpl</text>
<text text-anchor="middle" x="1166" y="-118" font-family="Helvetica,sans-Serif" font-size="10.00">::loadExperiment</text>
</a>
</g>
</g>
<!-- Node6&#45;&gt;Node7 -->
<g id="edge6" class="edge"><title>Node6&#45;&gt;Node7</title>
<path fill="none" stroke="midnightblue" d="M1075.47,-128C1084.33,-128 1093.17,-128 1101.65,-128"/>
<polygon fill="midnightblue" stroke="midnightblue" points="1075.47,-124.5 1065.47,-128 1075.47,-131.5 1075.47,-124.5"/>
</g>
<!-- Node8&#45;&gt;Node4 -->
<g id="edge8" class="edge"><title>Node8&#45;&gt;Node4</title>
<path fill="none" stroke="midnightblue" d="M517.63,-115.537C527.76,-116.735 538.09,-117.957 548.127,-119.144"/>
<polygon fill="midnightblue" stroke="midnightblue" points="517.926,-112.048 507.584,-114.349 517.103,-118.999 517.926,-112.048"/>
</g>
<!-- Node10 -->
<g id="node10" class="node"><title>Node10</title>
<g id="a_node10"><a xlink:href="rc__main_8cpp.html#a3c04138a5bfe5d72780bb7e82a18e627" target="_top" xlink:title="main">
<polygon fill="white" stroke="black" points="417.163,-51 417.163,-71 454.837,-71 454.837,-51 417.163,-51"/>
<text text-anchor="middle" x="436" y="-57" font-family="Helvetica,sans-Serif" font-size="10.00">main</text>
</a>
</g>
</g>
<!-- Node9&#45;&gt;Node10 -->
<g id="edge10" class="edge"><title>Node9&#45;&gt;Node10</title>
<path fill="none" stroke="midnightblue" d="M326.28,-61C359.341,-61 395.648,-61 416.822,-61"/>
<polygon fill="midnightblue" stroke="midnightblue" points="326.144,-57.5001 316.144,-61 326.144,-64.5001 326.144,-57.5001"/>
</g>
<!-- Node11 -->
<g id="node11" class="node"><title>Node11</title>
<g id="a_node11"><a xlink:href="classrc_experiment_domain_impl.html#a29b2a73f82318c9faec49f9a1178f90b" target="_top" xlink:title="rcExperimentDomainImpl\l::notifyRequestSave">
<polygon fill="white" stroke="black" points="371.872,-0 371.872,-32 500.128,-32 500.128,-0 371.872,-0"/>
<text text-anchor="start" x="379.872" y="-18" font-family="Helvetica,sans-Serif" font-size="10.00">rcExperimentDomainImpl</text>
<text text-anchor="middle" x="436" y="-6" font-family="Helvetica,sans-Serif" font-size="10.00">::notifyRequestSave</text>
</a>
</g>
</g>
<!-- Node9&#45;&gt;Node11 -->
<g id="edge11" class="edge"><title>Node9&#45;&gt;Node11</title>
<path fill="none" stroke="midnightblue" d="M325.966,-42.9589C341.093,-39.2189 356.912,-35.3076 371.66,-31.6611"/>
<polygon fill="midnightblue" stroke="midnightblue" points="325.012,-39.5895 316.144,-45.3875 326.692,-46.3848 325.012,-39.5895"/>
</g>
<!-- Node12&#45;&gt;Node3 -->
<g id="edge13" class="edge"><title>Node12&#45;&gt;Node3</title>
<path fill="none" stroke="midnightblue" d="M332.321,-151C341.482,-151 350.804,-151 359.907,-151"/>
<polygon fill="midnightblue" stroke="midnightblue" points="332.066,-147.5 322.066,-151 332.066,-154.5 332.066,-147.5"/>
</g>
</g>
</svg>
        <g id="navigator" transform="translate(0 0)" fill="#404254">
                <rect fill="#f2f5e9" fill-opacity="0.5" stroke="#606060" stroke-width=".5" x="0" y="0" width="60" height="60"/>
                <use id="zoomplus" xlink:href="#zoomPlus" x="17" y="9" onmousedown="handleZoom(evt,'in')"/>
                <use id="zoomminus" xlink:href="#zoomMin" x="42" y="9" onmousedown="handleZoom(evt,'out')"/>
                <use id="reset" xlink:href="#resetDef" x="30" y="36" onmousedown="handleReset()"/>
                <g id="arrowUp" xlink:href="#dirArrow" transform="translate(30 24)" onmousedown="handlePan(0,-1)">
                  <use xlink:href="#rim" fill="#404040">
                        <set attributeName="fill" to="#808080" begin="arrowUp.mouseover" end="arrowUp.mouseout"/>
                  </use>
                  <path fill="none" stroke="white" stroke-width="1.5" d="M0,-3.0v7 M-2.5,-0.5L0,-3.0L2.5,-0.5"/>
                </g>
                <g id="arrowRight" xlink:href="#dirArrow" transform="rotate(90) translate(36 -43)" onmousedown="handlePan(1,0)">
                  <use xlink:href="#rim" fill="#404040">
                        <set attributeName="fill" to="#808080" begin="arrowRight.mouseover" end="arrowRight.mouseout"/>
                  </use>
                  <path fill="none" stroke="white" stroke-width="1.5" d="M0,-3.0v7 M-2.5,-0.5L0,-3.0L2.5,-0.5"/>
                </g>
                <g id="arrowDown" xlink:href="#dirArrow" transform="rotate(180) translate(-30 -48)" onmousedown="handlePan(0,1)">
                  <use xlink:href="#rim" fill="#404040">
                        <set attributeName="fill" to="#808080" begin="arrowDown.mouseover" end="arrowDown.mouseout"/>
                  </use>
                  <path fill="none" stroke="white" stroke-width="1.5" d="M0,-3.0v7 M-2.5,-0.5L0,-3.0L2.5,-0.5"/>
                </g>
                <g id="arrowLeft" xlink:href="#dirArrow" transform="rotate(270) translate(-36 17)" onmousedown="handlePan(-1,0)">
                  <use xlink:href="#rim" fill="#404040">
                        <set attributeName="fill" to="#808080" begin="arrowLeft.mouseover" end="arrowLeft.mouseout"/>
                  </use>
                  <path fill="none" stroke="white" stroke-width="1.5" d="M0,-3.0v7 M-2.5,-0.5L0,-3.0L2.5,-0.5"/>
                </g>
        </g>
        <svg viewBox="0 0 15 15" width="100%" height="30px" preserveAspectRatio="xMaxYMin meet">
         <g id="arrow_out" transform="scale(0.3 0.3)">
          <a xlink:href="classrc_experiment_impl_ac26e569b233a16531d5a137122c91f20_icgraph_org.svg" target="_base">
           <rect id="button" ry="5" rx="5" y="6" x="6" height="38" width="38"
                fill="#f2f5e9" fill-opacity="0.5" stroke="#606060" stroke-width="1.0"/>
           <path id="arrow"
             d="M 11.500037,31.436501 C 11.940474,20.09759 22.043105,11.32322 32.158766,21.979434 L 37.068811,17.246167 C 37.068811,17.246167 37.088388,32 37.088388,32 L 22.160133,31.978069 C 22.160133,31.978069 26.997745,27.140456 26.997745,27.140456 C 18.528582,18.264221 13.291696,25.230495 11.500037,31.436501 z"
             style="fill:#404040;"/>
          </a>
         </g>
        </svg>
</svg>
