<?xml version="1.0" encoding="UTF-8" standalone="no"?>
<!DOCTYPE svg PUBLIC "-//W3C//DTD SVG 1.1//EN"
 "http://www.w3.org/Graphics/SVG/1.1/DTD/svg11.dtd">
<!-- Generated by graphviz version 2.32.0 (20130916.1925)
 -->
<!-- Title: rcCmdLine::getSafeArgument Pages: 1 -->
<svg width="472pt" height="28pt"
 viewBox="0.00 0.00 472.00 28.00" xmlns="http://www.w3.org/2000/svg" xmlns:xlink="http://www.w3.org/1999/xlink">
<g id="graph0" class="graph" transform="scale(1 1) rotate(0) translate(4 24)">
<title>rcCmdLine::getSafeArgument</title>
<polygon fill="white" stroke="white" points="-4,5 -4,-24 469,-24 469,5 -4,5"/>
<!-- Node1 -->
<g id="node1" class="node"><title>Node1</title>
<polygon fill="#bfbfbf" stroke="black" points="0.133301,-0 0.133301,-20 147.867,-20 147.867,-0 0.133301,-0"/>
<text text-anchor="middle" x="74" y="-6" font-family="Helvetica,sans-Serif" font-size="10.00">rcCmdLine::getSafeArgument</text>
</g>
<!-- Node2 -->
<g id="node2" class="node"><title>Node2</title>
<g id="a_node2"><a xlink:href="classrc_cmd_line.html#a03c50287f91bf65e3173fc585edbe969" target="_top" xlink:title="rcCmdLine::getArgument">
<polygon fill="white" stroke="black" points="184.419,-0 184.419,-20 311.581,-20 311.581,-0 184.419,-0"/>
<text text-anchor="middle" x="248" y="-6" font-family="Helvetica,sans-Serif" font-size="10.00">rcCmdLine::getArgument</text>
</a>
</g>
</g>
<!-- Node1&#45;&gt;Node2 -->
<g id="edge1" class="edge"><title>Node1&#45;&gt;Node2</title>
<path fill="none" stroke="midnightblue" d="M147.943,-10C156.63,-10 165.499,-10 174.184,-10"/>
<polygon fill="midnightblue" stroke="midnightblue" points="174.273,-13.5001 184.273,-10 174.273,-6.5001 174.273,-13.5001"/>
</g>
<!-- Node3 -->
<g id="node3" class="node"><title>Node3</title>
<g id="a_node3"><a xlink:href="classrc_cmd_line.html#ade9ae8d292cef103f2d137b8ddc72e36" target="_top" xlink:title="rcCmdLine::hasSwitch">
<polygon fill="white" stroke="black" points="348.259,-0 348.259,-20 463.741,-20 463.741,-0 348.259,-0"/>
<text text-anchor="middle" x="406" y="-6" font-family="Helvetica,sans-Serif" font-size="10.00">rcCmdLine::hasSwitch</text>
</a>
</g>
</g>
<!-- Node2&#45;&gt;Node3 -->
<g id="edge2" class="edge"><title>Node2&#45;&gt;Node3</title>
<path fill="none" stroke="midnightblue" d="M312.002,-10C320.418,-10 329.077,-10 337.565,-10"/>
<polygon fill="midnightblue" stroke="midnightblue" points="337.808,-13.5001 347.808,-10 337.808,-6.5001 337.808,-13.5001"/>
</g>
</g>
</svg>
