<?xml version="1.0" encoding="UTF-8" standalone="no"?>
<!DOCTYPE svg PUBLIC "-//W3C//DTD SVG 1.1//EN"
 "http://www.w3.org/Graphics/SVG/1.1/DTD/svg11.dtd">
<!-- Generated by graphviz version 2.32.0 (20130916.1925)
 -->
<!-- Title: rcCorr::Si Pages: 1 -->
<svg width="202pt" height="67pt"
 viewBox="0.00 0.00 202.00 67.00" xmlns="http://www.w3.org/2000/svg" xmlns:xlink="http://www.w3.org/1999/xlink">
<g id="graph0" class="graph" transform="scale(1 1) rotate(0) translate(4 63)">
<title>rcCorr::Si</title>
<polygon fill="white" stroke="white" points="-4,5 -4,-63 199,-63 199,5 -4,5"/>
<!-- Node1 -->
<g id="node1" class="node"><title>Node1</title>
<polygon fill="#bfbfbf" stroke="black" points="-0.11084,-19 -0.11084,-39 58.1108,-39 58.1108,-19 -0.11084,-19"/>
<text text-anchor="middle" x="29" y="-25" font-family="Helvetica,sans-Serif" font-size="10.00">rcCorr::Si</text>
</g>
<!-- Node2 -->
<g id="node2" class="node"><title>Node2</title>
<g id="a_node2"><a xlink:href="rc__analysis_8h.html#a16bd4086c286a072849db229ec2270c7" target="_top" xlink:title="operator\&lt;\&lt;">
<polygon fill="white" stroke="black" points="111.537,-39 111.537,-59 176.463,-59 176.463,-39 111.537,-39"/>
<text text-anchor="middle" x="144" y="-45" font-family="Helvetica,sans-Serif" font-size="10.00">operator&lt;&lt;</text>
</a>
</g>
</g>
<!-- Node1&#45;&gt;Node2 -->
<g id="edge1" class="edge"><title>Node1&#45;&gt;Node2</title>
<path fill="none" stroke="midnightblue" d="M68.4681,-35.8085C82.3637,-38.2679 97.8848,-41.015 111.151,-43.363"/>
<polygon fill="midnightblue" stroke="midnightblue" points="68.6802,-32.2917 58.2232,-33.9953 67.4601,-39.1846 68.6802,-32.2917"/>
</g>
<!-- Node3 -->
<g id="node3" class="node"><title>Node3</title>
<g id="a_node3"><a xlink:href="rc__pmcorr_8cpp.html#a95528c100c27f7116719a224a515380c" target="_top" xlink:title="rfCorrelateWindow">
<polygon fill="white" stroke="black" points="94.5986,-0 94.5986,-20 193.401,-20 193.401,-0 94.5986,-0"/>
<text text-anchor="middle" x="144" y="-6" font-family="Helvetica,sans-Serif" font-size="10.00">rfCorrelateWindow</text>
</a>
</g>
</g>
<!-- Node1&#45;&gt;Node3 -->
<g id="edge2" class="edge"><title>Node1&#45;&gt;Node3</title>
<path fill="none" stroke="midnightblue" d="M68.1693,-22.5822C76.6212,-21.161 85.6869,-19.6367 94.4887,-18.1568"/>
<polygon fill="midnightblue" stroke="midnightblue" points="67.5044,-19.1447 58.2232,-24.2545 68.6651,-26.0478 67.5044,-19.1447"/>
</g>
</g>
</svg>
