<?xml version="1.0" encoding="UTF-8" standalone="no"?>
<!DOCTYPE svg PUBLIC "-//W3C//DTD SVG 1.1//EN"
 "http://www.w3.org/Graphics/SVG/1.1/DTD/svg11.dtd">
<!-- Generated by graphviz version 2.32.0 (20130916.1925)
 -->
<!-- Title: cli_parser::kind Pages: 1 -->
<svg width="998pt" height="413pt"
 viewBox="0.00 0.00 998.00 412.81" xmlns="http://www.w3.org/2000/svg" xmlns:xlink="http://www.w3.org/1999/xlink">
<g id="graph0" class="graph" transform="scale(1 1) rotate(0) translate(4 408.811)">
<title>cli_parser::kind</title>
<polygon fill="white" stroke="white" points="-4,5 -4,-408.811 995,-408.811 995,5 -4,5"/>
<!-- Node1 -->
<g id="node1" class="node"><title>Node1</title>
<polygon fill="#bfbfbf" stroke="black" points="0.374512,-325.811 0.374512,-345.811 83.6255,-345.811 83.6255,-325.811 0.374512,-325.811"/>
<text text-anchor="middle" x="42" y="-331.811" font-family="Helvetica,sans-Serif" font-size="10.00">cli_parser::kind</text>
</g>
<!-- Node2 -->
<g id="node2" class="node"><title>Node2</title>
<g id="a_node2"><a xlink:href="error__handler_8cpp.html#aac3be3c13a6d90b39f966b6e897c0744" target="_top" xlink:title="to_string">
<polygon fill="white" stroke="black" points="119.823,-325.811 119.823,-345.811 174.177,-345.811 174.177,-325.811 119.823,-325.811"/>
<text text-anchor="middle" x="147" y="-331.811" font-family="Helvetica,sans-Serif" font-size="10.00">to_string</text>
</a>
</g>
</g>
<!-- Node1&#45;&gt;Node2 -->
<g id="edge1" class="edge"><title>Node1&#45;&gt;Node2</title>
<path fill="none" stroke="midnightblue" d="M83.7083,-335.811C92.2484,-335.811 101.203,-335.811 109.575,-335.811"/>
<polygon fill="midnightblue" stroke="midnightblue" points="109.792,-339.311 119.792,-335.811 109.792,-332.311 109.792,-339.311"/>
</g>
<!-- Node2&#45;&gt;Node2 -->
<g id="edge30" class="edge"><title>Node2&#45;&gt;Node2</title>
<path fill="none" stroke="midnightblue" d="M130.718,-345.858C123.292,-354.582 128.719,-363.811 147,-363.811 158.14,-363.811 164.507,-360.384 166.101,-355.732"/>
<polygon fill="midnightblue" stroke="midnightblue" points="169.393,-354.513 163.282,-345.858 162.662,-356.435 169.393,-354.513"/>
</g>
<!-- Node3 -->
<g id="node3" class="node"><title>Node3</title>
<g id="a_node3"><a xlink:href="classerror__position.html#a3f7ed498a2a6aa5343334b17bbdf4bbf" target="_top" xlink:title="error_position::column">
<polygon fill="white" stroke="black" points="216.532,-384.811 216.532,-404.811 331.468,-404.811 331.468,-384.811 216.532,-384.811"/>
<text text-anchor="middle" x="274" y="-390.811" font-family="Helvetica,sans-Serif" font-size="10.00">error_position::column</text>
</a>
</g>
</g>
<!-- Node2&#45;&gt;Node3 -->
<g id="edge2" class="edge"><title>Node2&#45;&gt;Node3</title>
<path fill="none" stroke="midnightblue" d="M161.702,-345.862C173.897,-354.451 192.467,-366.675 210,-374.811 215.075,-377.165 220.501,-379.348 225.961,-381.34"/>
<polygon fill="midnightblue" stroke="midnightblue" points="225.163,-384.767 235.758,-384.713 227.442,-378.148 225.163,-384.767"/>
</g>
<!-- Node4 -->
<g id="node4" class="node"><title>Node4</title>
<g id="a_node4"><a xlink:href="classerror__position.html#ac4739e90b92106a85b0f8c76e9198daf" target="_top" xlink:title="error_position::filename">
<polygon fill="white" stroke="black" points="213.751,-345.811 213.751,-365.811 334.249,-365.811 334.249,-345.811 213.751,-345.811"/>
<text text-anchor="middle" x="274" y="-351.811" font-family="Helvetica,sans-Serif" font-size="10.00">error_position::filename</text>
</a>
</g>
</g>
<!-- Node2&#45;&gt;Node4 -->
<g id="edge3" class="edge"><title>Node2&#45;&gt;Node4</title>
<path fill="none" stroke="midnightblue" d="M174.204,-340.003C182.939,-341.401 193.12,-343.03 203.564,-344.701"/>
<polygon fill="midnightblue" stroke="midnightblue" points="203.191,-348.186 213.618,-346.309 204.297,-341.273 203.191,-348.186"/>
</g>
<!-- Node5 -->
<g id="node5" class="node"><title>Node5</title>
<g id="a_node5"><a xlink:href="file__system_8cpp.html#a6982b54d454c07cc3f770f67c5d0b5ef" target="_top" xlink:title="filespec_to_relative_path">
<polygon fill="white" stroke="black" points="210.685,-306.811 210.685,-326.811 337.315,-326.811 337.315,-306.811 210.685,-306.811"/>
<text text-anchor="middle" x="274" y="-312.811" font-family="Helvetica,sans-Serif" font-size="10.00">filespec_to_relative_path</text>
</a>
</g>
</g>
<!-- Node2&#45;&gt;Node5 -->
<g id="edge4" class="edge"><title>Node2&#45;&gt;Node5</title>
<path fill="none" stroke="midnightblue" d="M174.204,-331.828C182.038,-330.637 191.035,-329.269 200.342,-327.855"/>
<polygon fill="midnightblue" stroke="midnightblue" points="201.16,-331.27 210.521,-326.307 200.108,-324.35 201.16,-331.27"/>
</g>
<!-- Node20 -->
<g id="node20" class="node"><title>Node20</title>
<g id="a_node20"><a xlink:href="classerror__position.html#af47fc5beec407412df713d56814af6fe" target="_top" xlink:title="error_position::line">
<polygon fill="white" stroke="black" points="224.867,-267.811 224.867,-287.811 323.133,-287.811 323.133,-267.811 224.867,-267.811"/>
<text text-anchor="middle" x="274" y="-273.811" font-family="Helvetica,sans-Serif" font-size="10.00">error_position::line</text>
</a>
</g>
</g>
<!-- Node2&#45;&gt;Node20 -->
<g id="edge29" class="edge"><title>Node2&#45;&gt;Node20</title>
<path fill="none" stroke="midnightblue" d="M162.227,-325.709C174.45,-317.375 192.776,-305.681 210,-297.811 215.282,-295.397 220.938,-293.156 226.614,-291.113"/>
<polygon fill="midnightblue" stroke="midnightblue" points="227.787,-294.411 236.121,-287.869 225.526,-287.786 227.787,-294.411"/>
</g>
<!-- Node6 -->
<g id="node6" class="node"><title>Node6</title>
<g id="a_node6"><a xlink:href="file__system_8cpp.html#a62475ca973dfe0094c00d60286c7c286" target="_top" xlink:title="create_filespec">
<polygon fill="white" stroke="black" points="528.37,-364.811 528.37,-384.811 611.63,-384.811 611.63,-364.811 528.37,-364.811"/>
<text text-anchor="middle" x="570" y="-370.811" font-family="Helvetica,sans-Serif" font-size="10.00">create_filespec</text>
</a>
</g>
</g>
<!-- Node5&#45;&gt;Node6 -->
<g id="edge5" class="edge"><title>Node5&#45;&gt;Node6</title>
<path fill="none" stroke="midnightblue" d="M313.894,-326.86C332.088,-331.402 354.089,-336.666 374,-340.811 422.746,-350.957 478.777,-360.51 518.232,-366.89"/>
<polygon fill="midnightblue" stroke="midnightblue" points="517.715,-370.352 528.143,-368.482 518.825,-363.44 517.715,-370.352"/>
</g>
<!-- Node8 -->
<g id="node8" class="node"><title>Node8</title>
<g id="a_node8"><a xlink:href="file__system_8cpp.html#acf89fa1738d4f789e4cc5b9c3c3bec72" target="_top" xlink:title="filename_part">
<polygon fill="white" stroke="black" points="531.705,-325.811 531.705,-345.811 608.295,-345.811 608.295,-325.811 531.705,-325.811"/>
<text text-anchor="middle" x="570" y="-331.811" font-family="Helvetica,sans-Serif" font-size="10.00">filename_part</text>
</a>
</g>
</g>
<!-- Node5&#45;&gt;Node8 -->
<g id="edge7" class="edge"><title>Node5&#45;&gt;Node8</title>
<path fill="none" stroke="midnightblue" d="M337.35,-320.84C392.27,-324.389 471.102,-329.484 521.172,-332.72"/>
<polygon fill="midnightblue" stroke="midnightblue" points="521.196,-336.228 531.401,-333.381 521.647,-329.243 521.196,-336.228"/>
</g>
<!-- Node9 -->
<g id="node9" class="node"><title>Node9</title>
<g id="a_node9"><a xlink:href="file__system_8cpp.html#acb48f4675dcd897962719fcc704fa980" target="_top" xlink:title="folder_part">
<polygon fill="white" stroke="black" points="401.096,-286.811 401.096,-306.811 464.904,-306.811 464.904,-286.811 401.096,-286.811"/>
<text text-anchor="middle" x="433" y="-292.811" font-family="Helvetica,sans-Serif" font-size="10.00">folder_part</text>
</a>
</g>
</g>
<!-- Node5&#45;&gt;Node9 -->
<g id="edge9" class="edge"><title>Node5&#45;&gt;Node9</title>
<path fill="none" stroke="midnightblue" d="M337.502,-308.849C355.319,-306.579 374.285,-304.163 390.513,-302.096"/>
<polygon fill="midnightblue" stroke="midnightblue" points="391.265,-305.528 400.743,-300.792 390.381,-298.584 391.265,-305.528"/>
</g>
<!-- Node10 -->
<g id="node10" class="node"><title>Node10</title>
<g id="a_node10"><a xlink:href="file__system_8cpp.html#a154091f28159afef5c72b12cee64a9a0" target="_top" xlink:title="folder_to_relative_path">
<polygon fill="white" stroke="black" points="374.131,-186.811 374.131,-206.811 491.869,-206.811 491.869,-186.811 374.131,-186.811"/>
<text text-anchor="middle" x="433" y="-192.811" font-family="Helvetica,sans-Serif" font-size="10.00">folder_to_relative_path</text>
</a>
</g>
</g>
<!-- Node5&#45;&gt;Node10 -->
<g id="edge11" class="edge"><title>Node5&#45;&gt;Node10</title>
<path fill="none" stroke="midnightblue" d="M317.005,-306.781C324.299,-304.129 331.591,-300.846 338,-296.811 372.559,-275.055 402.976,-237.609 419.307,-215.232"/>
<polygon fill="midnightblue" stroke="midnightblue" points="422.276,-217.097 425.23,-206.922 416.576,-213.034 422.276,-217.097"/>
</g>
<!-- Node7 -->
<g id="node7" class="node"><title>Node7</title>
<g id="a_node7"><a xlink:href="file__system_8cpp.html#a99e06c76afffe1f1d77f01c905b1a5fd" target="_top" xlink:title="is_separator">
<polygon fill="white" stroke="black" points="909.485,-286.811 909.485,-306.811 980.515,-306.811 980.515,-286.811 909.485,-286.811"/>
<text text-anchor="middle" x="945" y="-292.811" font-family="Helvetica,sans-Serif" font-size="10.00">is_separator</text>
</a>
</g>
</g>
<!-- Node6&#45;&gt;Node7 -->
<g id="edge6" class="edge"><title>Node6&#45;&gt;Node7</title>
<path fill="none" stroke="midnightblue" d="M611.894,-371.317C669.092,-365.774 775.869,-353.023 864,-328.811 880.642,-324.238 898.533,-317.288 913.166,-311.031"/>
<polygon fill="midnightblue" stroke="midnightblue" points="914.964,-314.065 922.722,-306.848 912.157,-307.652 914.964,-314.065"/>
</g>
<!-- Node8&#45;&gt;Node7 -->
<g id="edge8" class="edge"><title>Node8&#45;&gt;Node7</title>
<path fill="none" stroke="midnightblue" d="M608.577,-333.667C664.438,-330.241 772.617,-322.682 864,-310.811 875.572,-309.307 888.022,-307.313 899.574,-305.302"/>
<polygon fill="midnightblue" stroke="midnightblue" points="900.218,-308.742 909.449,-303.543 898.99,-301.851 900.218,-308.742"/>
</g>
<!-- Node9&#45;&gt;Node7 -->
<g id="edge10" class="edge"><title>Node9&#45;&gt;Node7</title>
<path fill="none" stroke="midnightblue" d="M465.135,-296.811C552.027,-296.811 797.431,-296.811 899.06,-296.811"/>
<polygon fill="midnightblue" stroke="midnightblue" points="899.297,-300.311 909.297,-296.811 899.297,-293.311 899.297,-300.311"/>
</g>
<!-- Node11 -->
<g id="node11" class="node"><title>Node11</title>
<g id="a_node11"><a xlink:href="file__system_8cpp.html#a0a5c33c34c3c47d4e15e955b7ac25681" target="_top" xlink:title="relative_path">
<polygon fill="white" stroke="black" points="533.37,-103.811 533.37,-123.811 606.63,-123.811 606.63,-103.811 533.37,-103.811"/>
<text text-anchor="middle" x="570" y="-109.811" font-family="Helvetica,sans-Serif" font-size="10.00">relative_path</text>
</a>
</g>
</g>
<!-- Node10&#45;&gt;Node11 -->
<g id="edge12" class="edge"><title>Node10&#45;&gt;Node11</title>
<path fill="none" stroke="midnightblue" d="M450.284,-186.799C473.596,-172.466 516.681,-145.977 544.036,-129.159"/>
<polygon fill="midnightblue" stroke="midnightblue" points="545.972,-132.077 552.658,-123.858 542.306,-126.114 545.972,-132.077"/>
</g>
<!-- Node12 -->
<g id="node12" class="node"><title>Node12</title>
<g id="a_node12"><a xlink:href="classfile__specification.html#a518bc2d13c74b0e00131c87fdd294f2b" target="_top" xlink:title="file_specification\l::image">
<polygon fill="white" stroke="black" points="648.313,-171.811 648.313,-203.811 737.687,-203.811 737.687,-171.811 648.313,-171.811"/>
<text text-anchor="start" x="656.313" y="-189.811" font-family="Helvetica,sans-Serif" font-size="10.00">file_specification</text>
<text text-anchor="middle" x="693" y="-177.811" font-family="Helvetica,sans-Serif" font-size="10.00">::image</text>
</a>
</g>
</g>
<!-- Node11&#45;&gt;Node12 -->
<g id="edge13" class="edge"><title>Node11&#45;&gt;Node12</title>
<path fill="none" stroke="midnightblue" d="M586.859,-123.85C602.38,-133.638 626.724,-148.895 648,-161.811 650.489,-163.321 653.062,-164.872 655.658,-166.427"/>
<polygon fill="midnightblue" stroke="midnightblue" points="654.096,-169.571 664.479,-171.683 657.68,-163.558 654.096,-169.571"/>
</g>
<!-- Node14 -->
<g id="node14" class="node"><title>Node14</title>
<g id="a_node14"><a xlink:href="classfile__specification.html#a18e9d7a9b9dd1214d09ab5e843ea7806" target="_top" xlink:title="file_specification\l::relative">
<polygon fill="white" stroke="black" points="900.313,-24.8106 900.313,-56.8106 989.687,-56.8106 989.687,-24.8106 900.313,-24.8106"/>
<text text-anchor="start" x="908.313" y="-42.8106" font-family="Helvetica,sans-Serif" font-size="10.00">file_specification</text>
<text text-anchor="middle" x="945" y="-30.8106" font-family="Helvetica,sans-Serif" font-size="10.00">::relative</text>
</a>
</g>
</g>
<!-- Node11&#45;&gt;Node14 -->
<g id="edge28" class="edge"><title>Node11&#45;&gt;Node14</title>
<path fill="none" stroke="midnightblue" d="M575.58,-103.761C585.437,-83.5218 610.822,-38.2961 648,-20.8106 726.036,15.8912 828.61,-3.96931 890.245,-22.1052"/>
<polygon fill="midnightblue" stroke="midnightblue" points="889.562,-25.5553 900.147,-25.108 891.593,-18.8565 889.562,-25.5553"/>
</g>
<!-- Node16 -->
<g id="node16" class="node"><title>Node16</title>
<g id="a_node16"><a xlink:href="classfile__specification.html#aefefc9da1b64f7ed66a436750a88ffa2" target="_top" xlink:title="file_specification\l::initialise_folder">
<polygon fill="white" stroke="black" points="774.313,-69.8106 774.313,-101.811 863.687,-101.811 863.687,-69.8106 774.313,-69.8106"/>
<text text-anchor="start" x="782.313" y="-87.8106" font-family="Helvetica,sans-Serif" font-size="10.00">file_specification</text>
<text text-anchor="middle" x="819" y="-75.8106" font-family="Helvetica,sans-Serif" font-size="10.00">::initialise_folder</text>
</a>
</g>
</g>
<!-- Node11&#45;&gt;Node16 -->
<g id="edge19" class="edge"><title>Node11&#45;&gt;Node16</title>
<path fill="none" stroke="midnightblue" d="M606.652,-109.769C647.85,-105.099 716.089,-97.3632 763.851,-91.9489"/>
<polygon fill="midnightblue" stroke="midnightblue" points="764.473,-95.4009 774.015,-90.7967 763.685,-88.4454 764.473,-95.4009"/>
</g>
<!-- Node18 -->
<g id="node18" class="node"><title>Node18</title>
<g id="a_node18"><a xlink:href="classfile__specification.html#a1c51930e39fad4d827a81b5b12a72752" target="_top" xlink:title="file_specification\l::make_absolute">
<polygon fill="white" stroke="black" points="648.311,-120.811 648.311,-152.811 737.689,-152.811 737.689,-120.811 648.311,-120.811"/>
<text text-anchor="start" x="656.311" y="-138.811" font-family="Helvetica,sans-Serif" font-size="10.00">file_specification</text>
<text text-anchor="middle" x="693" y="-126.811" font-family="Helvetica,sans-Serif" font-size="10.00">::make_absolute</text>
</a>
</g>
</g>
<!-- Node11&#45;&gt;Node18 -->
<g id="edge22" class="edge"><title>Node11&#45;&gt;Node18</title>
<path fill="none" stroke="midnightblue" d="M606.65,-120.587C616.476,-122.455 627.36,-124.524 637.975,-126.541"/>
<polygon fill="midnightblue" stroke="midnightblue" points="637.55,-130.023 648.027,-128.452 638.857,-123.146 637.55,-130.023"/>
</g>
<!-- Node19 -->
<g id="node19" class="node"><title>Node19</title>
<g id="a_node19"><a xlink:href="classfile__specification.html#a37f966146802536ffdb2f154e3df928f" target="_top" xlink:title="file_specification\l::make_relative">
<polygon fill="white" stroke="black" points="648.313,-30.8106 648.313,-62.8106 737.687,-62.8106 737.687,-30.8106 648.313,-30.8106"/>
<text text-anchor="start" x="656.313" y="-48.8106" font-family="Helvetica,sans-Serif" font-size="10.00">file_specification</text>
<text text-anchor="middle" x="693" y="-36.8106" font-family="Helvetica,sans-Serif" font-size="10.00">::make_relative</text>
</a>
</g>
</g>
<!-- Node11&#45;&gt;Node19 -->
<g id="edge25" class="edge"><title>Node11&#45;&gt;Node19</title>
<path fill="none" stroke="midnightblue" d="M589.115,-103.78C606.19,-94.3251 632.318,-79.8578 653.97,-67.8686"/>
<polygon fill="midnightblue" stroke="midnightblue" points="655.883,-70.8101 662.936,-62.904 652.492,-64.6863 655.883,-70.8101"/>
</g>
<!-- Node12&#45;&gt;Node7 -->
<g id="edge18" class="edge"><title>Node12&#45;&gt;Node7</title>
<path fill="none" stroke="midnightblue" d="M718.588,-203.829C734.098,-213.533 754.766,-225.745 774,-234.811 816.029,-254.62 866.237,-272.234 901.145,-283.578"/>
<polygon fill="midnightblue" stroke="midnightblue" points="900.422,-287.022 911.013,-286.75 902.564,-280.358 900.422,-287.022"/>
</g>
<!-- Node13 -->
<g id="node13" class="node"><title>Node13</title>
<g id="a_node13"><a xlink:href="classfile__specification.html#a5b8f1026354ff32bfc183da3f38f5ce7" target="_top" xlink:title="file_specification\l::absolute">
<polygon fill="white" stroke="black" points="774.313,-120.811 774.313,-152.811 863.687,-152.811 863.687,-120.811 774.313,-120.811"/>
<text text-anchor="start" x="782.313" y="-138.811" font-family="Helvetica,sans-Serif" font-size="10.00">file_specification</text>
<text text-anchor="middle" x="819" y="-126.811" font-family="Helvetica,sans-Serif" font-size="10.00">::absolute</text>
</a>
</g>
</g>
<!-- Node12&#45;&gt;Node13 -->
<g id="edge14" class="edge"><title>Node12&#45;&gt;Node13</title>
<path fill="none" stroke="midnightblue" d="M733.234,-171.674C744.768,-166.93 757.521,-161.685 769.558,-156.734"/>
<polygon fill="midnightblue" stroke="midnightblue" points="771.104,-159.883 779.021,-152.842 768.441,-153.409 771.104,-159.883"/>
</g>
<!-- Node12&#45;&gt;Node14 -->
<g id="edge17" class="edge"><title>Node12&#45;&gt;Node14</title>
<path fill="none" stroke="midnightblue" d="M731.245,-203.847C768.713,-217.217 826.209,-229.844 864,-200.811 913.242,-162.979 862.058,-114.967 900,-65.8106 900.564,-65.0803 901.155,-64.3679 901.771,-63.673"/>
<polygon fill="midnightblue" stroke="midnightblue" points="904.16,-66.2309 909.164,-56.8919 899.429,-61.0724 904.16,-66.2309"/>
</g>
<!-- Node15 -->
<g id="node15" class="node"><title>Node15</title>
<g id="a_node15"><a xlink:href="string__utilities_8hpp.html#a657118c43fe44a8454311075655ac9d4" target="_top" xlink:title="vector_to_string">
<polygon fill="white" stroke="black" points="775.426,-171.811 775.426,-191.811 862.574,-191.811 862.574,-171.811 775.426,-171.811"/>
<text text-anchor="middle" x="819" y="-177.811" font-family="Helvetica,sans-Serif" font-size="10.00">vector_to_string</text>
</a>
</g>
</g>
<!-- Node12&#45;&gt;Node15 -->
<g id="edge16" class="edge"><title>Node12&#45;&gt;Node15</title>
<path fill="none" stroke="midnightblue" d="M737.718,-185.695C746.533,-185.269 755.889,-184.816 764.983,-184.376"/>
<polygon fill="midnightblue" stroke="midnightblue" points="765.275,-187.866 775.094,-183.887 764.937,-180.874 765.275,-187.866"/>
</g>
<!-- Node13&#45;&gt;Node14 -->
<g id="edge15" class="edge"><title>Node13&#45;&gt;Node14</title>
<path fill="none" stroke="midnightblue" d="M850.812,-120.563C855.427,-117.583 859.98,-114.3 864,-110.811 883.342,-94.0208 880.516,-82.4351 900,-65.8106 901.287,-64.7128 902.628,-63.6388 904.01,-62.5911"/>
<polygon fill="midnightblue" stroke="midnightblue" points="906.012,-65.4623 912.249,-56.8976 902.032,-59.7036 906.012,-65.4623"/>
</g>
<!-- Node16&#45;&gt;Node7 -->
<g id="edge20" class="edge"><title>Node16&#45;&gt;Node7</title>
<path fill="none" stroke="midnightblue" d="M853.929,-101.964C857.606,-104.589 861.07,-107.537 864,-110.811 908.832,-160.892 931.324,-239.932 939.837,-276.728"/>
<polygon fill="midnightblue" stroke="midnightblue" points="936.467,-277.701 942.039,-286.712 943.303,-276.193 936.467,-277.701"/>
</g>
<!-- Node17 -->
<g id="node17" class="node"><title>Node17</title>
<g id="a_node17"><a xlink:href="classfile__specification.html#ab6e2c3cc492528550d2c4021d3a1c225" target="_top" xlink:title="file_specification\l::path">
<polygon fill="white" stroke="black" points="900.313,-75.8106 900.313,-107.811 989.687,-107.811 989.687,-75.8106 900.313,-75.8106"/>
<text text-anchor="start" x="908.313" y="-93.8106" font-family="Helvetica,sans-Serif" font-size="10.00">file_specification</text>
<text text-anchor="middle" x="945" y="-81.8106" font-family="Helvetica,sans-Serif" font-size="10.00">::path</text>
</a>
</g>
</g>
<!-- Node16&#45;&gt;Node17 -->
<g id="edge21" class="edge"><title>Node16&#45;&gt;Node17</title>
<path fill="none" stroke="midnightblue" d="M863.718,-87.9259C872.238,-88.3382 881.263,-88.7749 890.068,-89.2009"/>
<polygon fill="midnightblue" stroke="midnightblue" points="890.102,-92.7066 900.259,-89.6941 890.44,-85.7148 890.102,-92.7066"/>
</g>
<!-- Node18&#45;&gt;Node13 -->
<g id="edge23" class="edge"><title>Node18&#45;&gt;Node13</title>
<path fill="none" stroke="midnightblue" d="M737.718,-136.811C746.238,-136.811 755.263,-136.811 764.068,-136.811"/>
<polygon fill="midnightblue" stroke="midnightblue" points="764.259,-140.311 774.259,-136.811 764.259,-133.311 764.259,-140.311"/>
</g>
<!-- Node18&#45;&gt;Node16 -->
<g id="edge24" class="edge"><title>Node18&#45;&gt;Node16</title>
<path fill="none" stroke="midnightblue" d="M733.234,-120.674C744.768,-115.93 757.521,-110.685 769.558,-105.734"/>
<polygon fill="midnightblue" stroke="midnightblue" points="771.104,-108.883 779.021,-101.842 768.441,-102.409 771.104,-108.883"/>
</g>
<!-- Node19&#45;&gt;Node14 -->
<g id="edge26" class="edge"><title>Node19&#45;&gt;Node14</title>
<path fill="none" stroke="midnightblue" d="M737.833,-45.7586C780.186,-44.7421 844.441,-43.2 889.945,-42.1079"/>
<polygon fill="midnightblue" stroke="midnightblue" points="890.304,-45.6004 900.218,-41.8613 890.136,-38.6024 890.304,-45.6004"/>
</g>
<!-- Node19&#45;&gt;Node16 -->
<g id="edge27" class="edge"><title>Node19&#45;&gt;Node16</title>
<path fill="none" stroke="midnightblue" d="M737.718,-60.5605C746.423,-63.2984 755.656,-66.2023 764.642,-69.0286"/>
<polygon fill="midnightblue" stroke="midnightblue" points="763.67,-72.3918 774.259,-72.0533 765.77,-65.7142 763.67,-72.3918"/>
</g>
</g>
</svg>
