<?xml version="1.0" encoding="UTF-8" standalone="no"?>
<!DOCTYPE svg PUBLIC "-//W3C//DTD SVG 1.1//EN"
 "http://www.w3.org/Graphics/SVG/1.1/DTD/svg11.dtd">
<!-- Generated by graphviz version 2.32.0 (20130916.1925)
 -->
<!-- Title: rcExperimentDomain::storingLiveInput Pages: 1 -->
<!--zoomable 145 -->
<svg id="main" version="1.1" xmlns="http://www.w3.org/2000/svg" xmlns:xlink="http://www.w3.org/1999/xlink" xml:space="preserve" onload="init(evt)">
        <defs>
                <circle id="rim" cx="0" cy="0" r="7"/>
                <circle id="rim2" cx="0" cy="0" r="3.5"/>
                <g id="zoomPlus">
                        <use xlink:href="#rim" fill="#404040">
                                <set attributeName="fill" to="#808080" begin="zoomplus.mouseover" end="zoomplus.mouseout"/>
                        </use>
                        <path d="M-4,0h8M0,-4v8" fill="none" stroke="white" stroke-width="1.5" pointer-events="none"/>
                </g>
                <g id="zoomMin">
                        <use xlink:href="#rim" fill="#404040">
                                <set attributeName="fill" to="#808080" begin="zoomminus.mouseover" end="zoomminus.mouseout"/>
                        </use>
                        <path d="M-4,0h8" fill="none" stroke="white" stroke-width="1.5" pointer-events="none"/>
                </g>
                <g id="dirArrow">
                        <path fill="none" stroke="white" stroke-width="1.5" d="M0,-3.0v7 M-2.5,-0.5L0,-3.0L2.5,-0.5"/>
                </g>
               <g id="resetDef">
                       <use xlink:href="#rim2" fill="#404040">
                               <set attributeName="fill" to="#808080" begin="reset.mouseover" end="reset.mouseout"/>
                       </use>
               </g>
        </defs>

<script type="text/javascript">
var viewWidth = 876;
var viewHeight = 145;
var sectionId = 'dynsection-21';
</script>
<script xlink:href="svgpan.js"/>
<svg id="graph" class="graph">
<g id="viewport">
<title>rcExperimentDomain::storingLiveInput</title>
<polygon fill="white" stroke="white" points="-4,5 -4,-141 873,-141 873,5 -4,5"/>
<!-- Node1 -->
<g id="node1" class="node"><title>Node1</title>
<polygon fill="#bfbfbf" stroke="black" points="0.317871,-52 0.317871,-84 109.682,-84 109.682,-52 0.317871,-52"/>
<text text-anchor="start" x="8.31787" y="-70" font-family="Helvetica,sans-Serif" font-size="10.00">rcExperimentDomain</text>
<text text-anchor="middle" x="55" y="-58" font-family="Helvetica,sans-Serif" font-size="10.00">::storingLiveInput</text>
</g>
<!-- Node2 -->
<g id="node2" class="node"><title>Node2</title>
<g id="a_node2"><a xlink:href="classrc_model_domain.html#abf45f359d0cc72ee2531e0585828c03a" target="_top" xlink:title="rcModelDomain::storingLive\lInput">
<polygon fill="white" stroke="black" points="146.03,-52 146.03,-84 285.97,-84 285.97,-52 146.03,-52"/>
<text text-anchor="start" x="154.03" y="-70" font-family="Helvetica,sans-Serif" font-size="10.00">rcModelDomain::storingLive</text>
<text text-anchor="middle" x="216" y="-58" font-family="Helvetica,sans-Serif" font-size="10.00">Input</text>
</a>
</g>
</g>
<!-- Node1&#45;&gt;Node2 -->
<g id="edge1" class="edge"><title>Node1&#45;&gt;Node2</title>
<path fill="none" stroke="midnightblue" d="M120.086,-68C128.617,-68 137.395,-68 146.005,-68"/>
<polygon fill="midnightblue" stroke="midnightblue" points="119.83,-64.5001 109.83,-68 119.83,-71.5001 119.83,-64.5001"/>
</g>
<!-- Node3 -->
<g id="node3" class="node"><title>Node3</title>
<g id="a_node3"><a xlink:href="classrc_control_panel.html#ae23fcd481d145da2b0460a7f6b04aed5" target="_top" xlink:title="rcControlPanel::updateCursorTime">
<polygon fill="white" stroke="black" points="321.927,-58 321.927,-78 492.073,-78 492.073,-58 321.927,-58"/>
<text text-anchor="middle" x="407" y="-64" font-family="Helvetica,sans-Serif" font-size="10.00">rcControlPanel::updateCursorTime</text>
</a>
</g>
</g>
<!-- Node2&#45;&gt;Node3 -->
<g id="edge2" class="edge"><title>Node2&#45;&gt;Node3</title>
<path fill="none" stroke="midnightblue" d="M296.215,-68C304.642,-68 313.237,-68 321.72,-68"/>
<polygon fill="midnightblue" stroke="midnightblue" points="296.036,-64.5001 286.036,-68 296.036,-71.5001 296.036,-64.5001"/>
</g>
<!-- Node4 -->
<g id="node4" class="node"><title>Node4</title>
<g id="a_node4"><a xlink:href="classrc_control_panel.html#aa9afee306e1819f8cb45365384f08ca6" target="_top" xlink:title="rcControlPanel::inputSource">
<polygon fill="white" stroke="black" points="545.466,-117 545.466,-137 686.534,-137 686.534,-117 545.466,-117"/>
<text text-anchor="middle" x="616" y="-123" font-family="Helvetica,sans-Serif" font-size="10.00">rcControlPanel::inputSource</text>
</a>
</g>
</g>
<!-- Node3&#45;&gt;Node4 -->
<g id="edge3" class="edge"><title>Node3&#45;&gt;Node4</title>
<path fill="none" stroke="midnightblue" d="M452.909,-80.8C490.939,-91.6397 544.709,-106.965 579.713,-116.942"/>
<polygon fill="midnightblue" stroke="midnightblue" points="453.691,-77.3837 443.115,-78.0085 451.772,-84.1156 453.691,-77.3837"/>
</g>
<!-- Node5 -->
<g id="node5" class="node"><title>Node5</title>
<g id="a_node5"><a xlink:href="classrc_control_panel.html#a1d81139159e25744274b18bdc03d4948" target="_top" xlink:title="rcControlPanel::rcControl\lPanel">
<polygon fill="white" stroke="black" points="739.867,-72 739.867,-104 868.133,-104 868.133,-72 739.867,-72"/>
<text text-anchor="start" x="747.867" y="-90" font-family="Helvetica,sans-Serif" font-size="10.00">rcControlPanel::rcControl</text>
<text text-anchor="middle" x="804" y="-78" font-family="Helvetica,sans-Serif" font-size="10.00">Panel</text>
</a>
</g>
</g>
<!-- Node3&#45;&gt;Node5 -->
<g id="edge5" class="edge"><title>Node3&#45;&gt;Node5</title>
<path fill="none" stroke="midnightblue" d="M502.426,-72.7811C575.806,-76.4965 675.562,-81.5475 739.626,-84.7912"/>
<polygon fill="midnightblue" stroke="midnightblue" points="502.417,-69.2762 492.253,-72.266 502.063,-76.2673 502.417,-69.2762"/>
</g>
<!-- Node6 -->
<g id="node6" class="node"><title>Node6</title>
<g id="a_node6"><a xlink:href="classrc_control_panel.html#aa7e44df1bde3fa091e12c704435a7d02" target="_top" xlink:title="rcControlPanel::updateCursorTime">
<polygon fill="white" stroke="black" points="530.927,-39 530.927,-59 701.073,-59 701.073,-39 530.927,-39"/>
<text text-anchor="middle" x="616" y="-45" font-family="Helvetica,sans-Serif" font-size="10.00">rcControlPanel::updateCursorTime</text>
</a>
</g>
</g>
<!-- Node3&#45;&gt;Node6 -->
<g id="edge6" class="edge"><title>Node3&#45;&gt;Node6</title>
<path fill="none" stroke="midnightblue" d="M502.434,-59.3322C511.921,-58.4614 521.51,-57.5812 530.88,-56.7212"/>
<polygon fill="midnightblue" stroke="midnightblue" points="501.833,-55.8725 492.195,-60.272 502.473,-62.8432 501.833,-55.8725"/>
</g>
<!-- Node7 -->
<g id="node7" class="node"><title>Node7</title>
<g id="a_node7"><a xlink:href="classrc_control_panel.html#acc61e3dd8c4709619cdfe4de344ca770" target="_top" xlink:title="rcControlPanel::updateElapsedTime">
<polygon fill="white" stroke="black" points="527.861,-0 527.861,-20 704.139,-20 704.139,-0 527.861,-0"/>
<text text-anchor="middle" x="616" y="-6" font-family="Helvetica,sans-Serif" font-size="10.00">rcControlPanel::updateElapsedTime</text>
</a>
</g>
</g>
<!-- Node3&#45;&gt;Node7 -->
<g id="edge7" class="edge"><title>Node3&#45;&gt;Node7</title>
<path fill="none" stroke="midnightblue" d="M446.946,-54.7897C470.311,-47.0846 500.698,-37.4479 528,-30 541.008,-26.4514 555.223,-23.0049 568.321,-20.0009"/>
<polygon fill="midnightblue" stroke="midnightblue" points="445.78,-51.489 437.392,-57.9617 447.985,-58.1325 445.78,-51.489"/>
</g>
<!-- Node4&#45;&gt;Node5 -->
<g id="edge4" class="edge"><title>Node4&#45;&gt;Node5</title>
<path fill="none" stroke="midnightblue" d="M674.788,-114.883C695.42,-110.557 718.764,-105.662 739.826,-101.246"/>
<polygon fill="midnightblue" stroke="midnightblue" points="673.969,-111.479 664.9,-116.957 675.405,-118.33 673.969,-111.479"/>
</g>
<!-- Node7&#45;&gt;Node5 -->
<g id="edge8" class="edge"><title>Node7&#45;&gt;Node5</title>
<path fill="none" stroke="midnightblue" d="M682.289,-22.7206C689.713,-24.8383 697.089,-27.2561 704,-30 731.586,-40.9529 760.597,-58.804 780.03,-71.813"/>
<polygon fill="midnightblue" stroke="midnightblue" points="683.101,-19.3149 672.536,-20.1075 681.29,-26.0764 683.101,-19.3149"/>
</g>
</g>
</svg>
        <g id="navigator" transform="translate(0 0)" fill="#404254">
                <rect fill="#f2f5e9" fill-opacity="0.5" stroke="#606060" stroke-width=".5" x="0" y="0" width="60" height="60"/>
                <use id="zoomplus" xlink:href="#zoomPlus" x="17" y="9" onmousedown="handleZoom(evt,'in')"/>
                <use id="zoomminus" xlink:href="#zoomMin" x="42" y="9" onmousedown="handleZoom(evt,'out')"/>
                <use id="reset" xlink:href="#resetDef" x="30" y="36" onmousedown="handleReset()"/>
                <g id="arrowUp" xlink:href="#dirArrow" transform="translate(30 24)" onmousedown="handlePan(0,-1)">
                  <use xlink:href="#rim" fill="#404040">
                        <set attributeName="fill" to="#808080" begin="arrowUp.mouseover" end="arrowUp.mouseout"/>
                  </use>
                  <path fill="none" stroke="white" stroke-width="1.5" d="M0,-3.0v7 M-2.5,-0.5L0,-3.0L2.5,-0.5"/>
                </g>
                <g id="arrowRight" xlink:href="#dirArrow" transform="rotate(90) translate(36 -43)" onmousedown="handlePan(1,0)">
                  <use xlink:href="#rim" fill="#404040">
                        <set attributeName="fill" to="#808080" begin="arrowRight.mouseover" end="arrowRight.mouseout"/>
                  </use>
                  <path fill="none" stroke="white" stroke-width="1.5" d="M0,-3.0v7 M-2.5,-0.5L0,-3.0L2.5,-0.5"/>
                </g>
                <g id="arrowDown" xlink:href="#dirArrow" transform="rotate(180) translate(-30 -48)" onmousedown="handlePan(0,1)">
                  <use xlink:href="#rim" fill="#404040">
                        <set attributeName="fill" to="#808080" begin="arrowDown.mouseover" end="arrowDown.mouseout"/>
                  </use>
                  <path fill="none" stroke="white" stroke-width="1.5" d="M0,-3.0v7 M-2.5,-0.5L0,-3.0L2.5,-0.5"/>
                </g>
                <g id="arrowLeft" xlink:href="#dirArrow" transform="rotate(270) translate(-36 17)" onmousedown="handlePan(-1,0)">
                  <use xlink:href="#rim" fill="#404040">
                        <set attributeName="fill" to="#808080" begin="arrowLeft.mouseover" end="arrowLeft.mouseout"/>
                  </use>
                  <path fill="none" stroke="white" stroke-width="1.5" d="M0,-3.0v7 M-2.5,-0.5L0,-3.0L2.5,-0.5"/>
                </g>
        </g>
        <svg viewBox="0 0 15 15" width="100%" height="30px" preserveAspectRatio="xMaxYMin meet">
         <g id="arrow_out" transform="scale(0.3 0.3)">
          <a xlink:href="classrc_experiment_domain_a73b95037f94d932b013bd89829e11ae3_icgraph_org.svg" target="_base">
           <rect id="button" ry="5" rx="5" y="6" x="6" height="38" width="38"
                fill="#f2f5e9" fill-opacity="0.5" stroke="#606060" stroke-width="1.0"/>
           <path id="arrow"
             d="M 11.500037,31.436501 C 11.940474,20.09759 22.043105,11.32322 32.158766,21.979434 L 37.068811,17.246167 C 37.068811,17.246167 37.088388,32 37.088388,32 L 22.160133,31.978069 C 22.160133,31.978069 26.997745,27.140456 26.997745,27.140456 C 18.528582,18.264221 13.291696,25.230495 11.500037,31.436501 z"
             style="fill:#404040;"/>
          </a>
         </g>
        </svg>
</svg>
