<?xml version="1.0" encoding="UTF-8" standalone="no"?>
<!DOCTYPE svg PUBLIC "-//W3C//DTD SVG 1.1//EN"
 "http://www.w3.org/Graphics/SVG/1.1/DTD/svg11.dtd">
<!-- Generated by graphviz version 2.32.0 (20130916.1925)
 -->
<!-- Title: rcTimeline::reducedContentsRect Pages: 1 -->
<svg width="718pt" height="79pt"
 viewBox="0.00 0.00 718.00 79.00" xmlns="http://www.w3.org/2000/svg" xmlns:xlink="http://www.w3.org/1999/xlink">
<g id="graph0" class="graph" transform="scale(1 1) rotate(0) translate(4 75)">
<title>rcTimeline::reducedContentsRect</title>
<polygon fill="white" stroke="white" points="-4,5 -4,-75 715,-75 715,5 -4,5"/>
<!-- Node1 -->
<g id="node1" class="node"><title>Node1</title>
<polygon fill="#bfbfbf" stroke="black" points="-0.0161133,-22 -0.0161133,-42 164.016,-42 164.016,-22 -0.0161133,-22"/>
<text text-anchor="middle" x="82" y="-28" font-family="Helvetica,sans-Serif" font-size="10.00">rcTimeline::reducedContentsRect</text>
</g>
<!-- Node2 -->
<g id="node2" class="node"><title>Node2</title>
<g id="a_node2"><a xlink:href="classrc_timeline.html#a6f0a926a10d7e2a59f03a7fd7def64d9" target="_top" xlink:title="rcTimeline::paintScalarScale\lMarks">
<polygon fill="white" stroke="black" points="199.824,-39 199.824,-71 342.176,-71 342.176,-39 199.824,-39"/>
<text text-anchor="start" x="207.824" y="-57" font-family="Helvetica,sans-Serif" font-size="10.00">rcTimeline::paintScalarScale</text>
<text text-anchor="middle" x="271" y="-45" font-family="Helvetica,sans-Serif" font-size="10.00">Marks</text>
</a>
</g>
</g>
<!-- Node1&#45;&gt;Node2 -->
<g id="edge1" class="edge"><title>Node1&#45;&gt;Node2</title>
<path fill="none" stroke="midnightblue" d="M174.231,-43.2209C182.796,-44.2744 191.387,-45.331 199.715,-46.3554"/>
<polygon fill="midnightblue" stroke="midnightblue" points="174.558,-39.7348 164.205,-41.9878 173.703,-46.6824 174.558,-39.7348"/>
</g>
<!-- Node5 -->
<g id="node5" class="node"><title>Node5</title>
<g id="a_node5"><a xlink:href="classrc_timeline.html#a00b0d6cd530a3f3d5f10080b0c3ce516" target="_top" xlink:title="rcTimeline::pixelToTime">
<polygon fill="white" stroke="black" points="210.854,-0 210.854,-20 331.146,-20 331.146,-0 210.854,-0"/>
<text text-anchor="middle" x="271" y="-6" font-family="Helvetica,sans-Serif" font-size="10.00">rcTimeline::pixelToTime</text>
</a>
</g>
</g>
<!-- Node1&#45;&gt;Node5 -->
<g id="edge4" class="edge"><title>Node1&#45;&gt;Node5</title>
<path fill="none" stroke="midnightblue" d="M174.168,-21.2743C186.627,-19.8086 199.142,-18.3363 210.826,-16.9617"/>
<polygon fill="midnightblue" stroke="midnightblue" points="173.728,-17.8019 164.205,-22.4465 174.546,-24.754 173.728,-17.8019"/>
</g>
<!-- Node3 -->
<g id="node3" class="node"><title>Node3</title>
<g id="a_node3"><a xlink:href="classrc_timeline.html#a1ccc2d8b2395a4d1620ddc4fd97a0490" target="_top" xlink:title="rcTimeline::paintTimeline">
<polygon fill="white" stroke="black" points="388.792,-45 388.792,-65 515.208,-65 515.208,-45 388.792,-45"/>
<text text-anchor="middle" x="452" y="-51" font-family="Helvetica,sans-Serif" font-size="10.00">rcTimeline::paintTimeline</text>
</a>
</g>
</g>
<!-- Node2&#45;&gt;Node3 -->
<g id="edge2" class="edge"><title>Node2&#45;&gt;Node3</title>
<path fill="none" stroke="midnightblue" d="M352.352,-55C364.487,-55 376.849,-55 388.532,-55"/>
<polygon fill="midnightblue" stroke="midnightblue" points="352.232,-51.5001 342.232,-55 352.232,-58.5001 352.232,-51.5001"/>
</g>
<!-- Node4 -->
<g id="node4" class="node"><title>Node4</title>
<g id="a_node4"><a xlink:href="classrc_timeline.html#a7eee350d60e6b09f19e2701c109c7f56" target="_top" xlink:title="rcTimeline::paintEvent">
<polygon fill="white" stroke="black" points="578.718,-45 578.718,-65 693.282,-65 693.282,-45 578.718,-45"/>
<text text-anchor="middle" x="636" y="-51" font-family="Helvetica,sans-Serif" font-size="10.00">rcTimeline::paintEvent</text>
</a>
</g>
</g>
<!-- Node3&#45;&gt;Node4 -->
<g id="edge3" class="edge"><title>Node3&#45;&gt;Node4</title>
<path fill="none" stroke="midnightblue" d="M525.611,-55C543.212,-55 561.771,-55 578.503,-55"/>
<polygon fill="midnightblue" stroke="midnightblue" points="525.379,-51.5001 515.379,-55 525.379,-58.5001 525.379,-51.5001"/>
</g>
<!-- Node6 -->
<g id="node6" class="node"><title>Node6</title>
<g id="a_node6"><a xlink:href="classrc_timeline.html#a82ab1ac96dab1bfd044d01d83b333e24" target="_top" xlink:title="rcTimeline::mouseMoveEvent">
<polygon fill="white" stroke="black" points="378.326,-0 378.326,-20 525.674,-20 525.674,-0 378.326,-0"/>
<text text-anchor="middle" x="452" y="-6" font-family="Helvetica,sans-Serif" font-size="10.00">rcTimeline::mouseMoveEvent</text>
</a>
</g>
</g>
<!-- Node5&#45;&gt;Node6 -->
<g id="edge5" class="edge"><title>Node5&#45;&gt;Node6</title>
<path fill="none" stroke="midnightblue" d="M341.937,-10C353.863,-10 366.276,-10 378.272,-10"/>
<polygon fill="midnightblue" stroke="midnightblue" points="341.604,-6.5001 331.604,-10 341.604,-13.5001 341.604,-6.5001"/>
</g>
<!-- Node7 -->
<g id="node7" class="node"><title>Node7</title>
<g id="a_node7"><a xlink:href="classrc_timeline.html#a8a5755070cda22ee7307093bb95f5824" target="_top" xlink:title="rcTimeline::mousePressEvent">
<polygon fill="white" stroke="black" points="561.772,-0 561.772,-20 710.228,-20 710.228,-0 561.772,-0"/>
<text text-anchor="middle" x="636" y="-6" font-family="Helvetica,sans-Serif" font-size="10.00">rcTimeline::mousePressEvent</text>
</a>
</g>
</g>
<!-- Node6&#45;&gt;Node7 -->
<g id="edge6" class="edge"><title>Node6&#45;&gt;Node7</title>
<path fill="none" stroke="midnightblue" d="M535.74,-10C544.334,-10 553.026,-10 561.508,-10"/>
<polygon fill="midnightblue" stroke="midnightblue" points="535.716,-6.5001 525.716,-10 535.716,-13.5001 535.716,-6.5001"/>
</g>
</g>
</svg>
