<?xml version="1.0" encoding="UTF-8" standalone="no"?>
<!DOCTYPE svg PUBLIC "-//W3C//DTD SVG 1.1//EN"
 "http://www.w3.org/Graphics/SVG/1.1/DTD/svg11.dtd">
<!-- Generated by graphviz version 2.32.0 (20130916.1925)
 -->
<!-- Title: rcNativeImporter Pages: 1 -->
<svg width="502pt" height="262pt"
 viewBox="0.00 0.00 502.00 262.00" xmlns="http://www.w3.org/2000/svg" xmlns:xlink="http://www.w3.org/1999/xlink">
<g id="graph0" class="graph" transform="scale(1 1) rotate(0) translate(4 258)">
<title>rcNativeImporter</title>
<polygon fill="white" stroke="white" points="-4,5 -4,-258 499,-258 499,5 -4,5"/>
<!-- Node1 -->
<g id="node1" class="node"><title>Node1</title>
<polygon fill="#bfbfbf" stroke="black" points="404.047,-97 404.047,-117 493.953,-117 493.953,-97 404.047,-97"/>
<text text-anchor="middle" x="449" y="-103" font-family="Helvetica,sans-Serif" font-size="10.00">rcNativeImporter</text>
</g>
<!-- Node2 -->
<g id="node2" class="node"><title>Node2</title>
<g id="a_node2"><a xlink:href="classrc_experiment_impl.html" target="_top" xlink:title="rcExperimentImpl">
<polygon fill="white" stroke="black" points="196.101,-195 196.101,-215 289.899,-215 289.899,-195 196.101,-195"/>
<text text-anchor="middle" x="243" y="-201" font-family="Helvetica,sans-Serif" font-size="10.00">rcExperimentImpl</text>
</a>
</g>
</g>
<!-- Node2&#45;&gt;Node1 -->
<g id="edge1" class="edge"><title>Node2&#45;&gt;Node1</title>
<path fill="none" stroke="#9a32cd" stroke-dasharray="5,2" d="M300.298,-197.872C327.495,-192.693 359.826,-183.877 386,-169 409.557,-155.611 430.329,-130.866 440.801,-117.031"/>
<polygon fill="#9a32cd" stroke="#9a32cd" points="299.379,-194.481 290.15,-199.684 300.609,-201.372 299.379,-194.481"/>
<text text-anchor="middle" x="350" y="-196" font-family="Helvetica,sans-Serif" font-size="10.00"> mExperiment</text>
</g>
<!-- Node3 -->
<g id="node3" class="node"><title>Node3</title>
<g id="a_node3"><a xlink:href="classrc_experiment.html" target="_top" xlink:title="rcExperiment">
<polygon fill="white" stroke="black" points="6.54688,-234 6.54688,-254 81.4531,-254 81.4531,-234 6.54688,-234"/>
<text text-anchor="middle" x="44" y="-240" font-family="Helvetica,sans-Serif" font-size="10.00">rcExperiment</text>
</a>
</g>
</g>
<!-- Node3&#45;&gt;Node2 -->
<g id="edge2" class="edge"><title>Node3&#45;&gt;Node2</title>
<path fill="none" stroke="midnightblue" d="M91.6021,-234.861C115.622,-230.142 145.384,-224.281 172,-219 179.78,-217.456 188.045,-215.809 196.066,-214.207"/>
<polygon fill="midnightblue" stroke="midnightblue" points="90.8237,-231.447 81.6856,-236.809 92.1727,-238.316 90.8237,-231.447"/>
</g>
<!-- Node4 -->
<g id="node4" class="node"><title>Node4</title>
<g id="a_node4"><a xlink:href="classrc_setting_source.html" target="_top" xlink:title="rcSettingSource">
<polygon fill="white" stroke="black" points="0.42627,-195 0.42627,-215 87.5737,-215 87.5737,-195 0.42627,-195"/>
<text text-anchor="middle" x="44" y="-201" font-family="Helvetica,sans-Serif" font-size="10.00">rcSettingSource</text>
</a>
</g>
</g>
<!-- Node4&#45;&gt;Node2 -->
<g id="edge3" class="edge"><title>Node4&#45;&gt;Node2</title>
<path fill="none" stroke="#8b1a1a" d="M97.8059,-205C128.393,-205 166.531,-205 195.902,-205"/>
<polygon fill="#8b1a1a" stroke="#8b1a1a" points="97.7461,-201.5 87.7461,-205 97.746,-208.5 97.7461,-201.5"/>
</g>
<!-- Node5 -->
<g id="node5" class="node"><title>Node5</title>
<g id="a_node5"><a xlink:href="classrc_mutex.html" target="_top" xlink:title="rcMutex">
<polygon fill="white" stroke="black" points="18.2192,-156 18.2192,-176 69.7808,-176 69.7808,-156 18.2192,-156"/>
<text text-anchor="middle" x="44" y="-162" font-family="Helvetica,sans-Serif" font-size="10.00">rcMutex</text>
</a>
</g>
</g>
<!-- Node5&#45;&gt;Node2 -->
<g id="edge4" class="edge"><title>Node5&#45;&gt;Node2</title>
<path fill="none" stroke="#9a32cd" stroke-dasharray="5,2" d="M80.2905,-165.941C106.072,-166.646 141.675,-169.182 172,-177 180.477,-179.186 181.912,-181.65 190,-185 198.132,-188.368 207.053,-191.869 215.175,-194.983"/>
<polygon fill="#9a32cd" stroke="#9a32cd" points="80.2995,-162.441 70.2331,-165.745 80.163,-169.44 80.2995,-162.441"/>
<text text-anchor="middle" x="139" y="-191" font-family="Helvetica,sans-Serif" font-size="10.00"> _settingMutex</text>
<text text-anchor="middle" x="139" y="-179" font-family="Helvetica,sans-Serif" font-size="10.00">_trackMutex</text>
</g>
<!-- Node6 -->
<g id="node6" class="node"><title>Node6</title>
<g id="a_node6"><a xlink:href="classrc_id_mapper.html" target="_top" xlink:title="rcIdMapper">
<polygon fill="white" stroke="black" points="209.712,-156 209.712,-176 276.288,-176 276.288,-156 209.712,-156"/>
<text text-anchor="middle" x="243" y="-162" font-family="Helvetica,sans-Serif" font-size="10.00">rcIdMapper</text>
</a>
</g>
</g>
<!-- Node6&#45;&gt;Node1 -->
<g id="edge5" class="edge"><title>Node6&#45;&gt;Node1</title>
<path fill="none" stroke="#9a32cd" stroke-dasharray="5,2" d="M286.484,-159.648C315.06,-154.741 353.333,-146.929 386,-136 401.101,-130.948 417.38,-123.239 429.467,-117.039"/>
<polygon fill="#9a32cd" stroke="#9a32cd" points="285.712,-156.228 276.424,-161.325 286.863,-163.133 285.712,-156.228"/>
<text text-anchor="middle" x="350" y="-155" font-family="Helvetica,sans-Serif" font-size="10.00"> mIdMapper</text>
</g>
<!-- Node7 -->
<g id="node7" class="node"><title>Node7</title>
<g id="a_node7"><a xlink:href="classrc_progress_indicator.html" target="_top" xlink:title="rcProgressIndicator">
<polygon fill="white" stroke="black" points="191.65,-117 191.65,-137 294.35,-137 294.35,-117 191.65,-117"/>
<text text-anchor="middle" x="243" y="-123" font-family="Helvetica,sans-Serif" font-size="10.00">rcProgressIndicator</text>
</a>
</g>
</g>
<!-- Node7&#45;&gt;Node1 -->
<g id="edge6" class="edge"><title>Node7&#45;&gt;Node1</title>
<path fill="none" stroke="#9a32cd" stroke-dasharray="5,2" d="M304.549,-121.064C336.493,-117.932 374.974,-114.159 404.035,-111.31"/>
<polygon fill="#9a32cd" stroke="#9a32cd" points="304.038,-117.597 294.427,-122.056 304.721,-124.564 304.038,-117.597"/>
<text text-anchor="middle" x="350" y="-122" font-family="Helvetica,sans-Serif" font-size="10.00"> mProgress</text>
</g>
<!-- Node8 -->
<g id="node8" class="node"><title>Node8</title>
<g id="a_node8"><a xlink:href="classrc_engine_observer.html" target="_top" xlink:title="rcEngineObserver">
<polygon fill="white" stroke="black" points="194.705,-78 194.705,-98 291.295,-98 291.295,-78 194.705,-78"/>
<text text-anchor="middle" x="243" y="-84" font-family="Helvetica,sans-Serif" font-size="10.00">rcEngineObserver</text>
</a>
</g>
</g>
<!-- Node8&#45;&gt;Node1 -->
<g id="edge7" class="edge"><title>Node8&#45;&gt;Node1</title>
<path fill="none" stroke="#9a32cd" stroke-dasharray="5,2" d="M301.546,-87.5901C327.449,-88.0308 358.355,-89.4241 386,-93 393.442,-93.9626 401.305,-95.4016 408.84,-96.996"/>
<polygon fill="#9a32cd" stroke="#9a32cd" points="301.558,-84.0901 291.514,-87.462 301.469,-91.0895 301.558,-84.0901"/>
<text text-anchor="middle" x="350" y="-95" font-family="Helvetica,sans-Serif" font-size="10.00"> mObserver</text>
</g>
<!-- Node9 -->
<g id="node9" class="node"><title>Node9</title>
<g id="a_node9"><a xlink:href="classrc_x_m_l_name_mapper.html" target="_top" xlink:title="rcXMLNameMapper">
<polygon fill="white" stroke="black" points="190.264,-39 190.264,-59 295.736,-59 295.736,-39 190.264,-39"/>
<text text-anchor="middle" x="243" y="-45" font-family="Helvetica,sans-Serif" font-size="10.00">rcXMLNameMapper</text>
</a>
</g>
</g>
<!-- Node9&#45;&gt;Node1 -->
<g id="edge8" class="edge"><title>Node9&#45;&gt;Node1</title>
<path fill="none" stroke="#9a32cd" stroke-dasharray="5,2" d="M306.219,-54.2559C331.478,-57.6212 360.626,-63.1028 386,-72 403.263,-78.0532 421.288,-88.8054 433.424,-96.8002"/>
<polygon fill="#9a32cd" stroke="#9a32cd" points="306.377,-50.7484 296.02,-52.982 305.509,-57.6945 306.377,-50.7484"/>
<text text-anchor="middle" x="350" y="-74" font-family="Helvetica,sans-Serif" font-size="10.00"> mNameMapper</text>
</g>
<!-- Node10 -->
<g id="node10" class="node"><title>Node10</title>
<g id="a_node10"><a xlink:href="classrc_x_m_l_time_mapper.html" target="_top" xlink:title="rcXMLTimeMapper">
<polygon fill="white" stroke="black" points="193.042,-0 193.042,-20 292.958,-20 292.958,-0 193.042,-0"/>
<text text-anchor="middle" x="243" y="-6" font-family="Helvetica,sans-Serif" font-size="10.00">rcXMLTimeMapper</text>
</a>
</g>
</g>
<!-- Node10&#45;&gt;Node1 -->
<g id="edge9" class="edge"><title>Node10&#45;&gt;Node1</title>
<path fill="none" stroke="#9a32cd" stroke-dasharray="5,2" d="M302.963,-14.2793C329.676,-18.2143 360.836,-25.7196 386,-40 410.81,-54.0795 431.383,-81.4835 441.411,-96.5137"/>
<polygon fill="#9a32cd" stroke="#9a32cd" points="303.34,-10.7986 292.964,-12.9392 302.41,-17.7366 303.34,-10.7986"/>
<text text-anchor="middle" x="350" y="-42" font-family="Helvetica,sans-Serif" font-size="10.00"> mTimeMapper</text>
</g>
</g>
</svg>
