<?xml version="1.0" encoding="UTF-8" standalone="no"?>
<!DOCTYPE svg PUBLIC "-//W3C//DTD SVG 1.1//EN"
 "http://www.w3.org/Graphics/SVG/1.1/DTD/svg11.dtd">
<!-- Generated by graphviz version 2.32.0 (20130916.1925)
 -->
<!-- Title: rcKinetoscope::temporalScale Pages: 1 -->
<svg width="706pt" height="28pt"
 viewBox="0.00 0.00 706.00 28.00" xmlns="http://www.w3.org/2000/svg" xmlns:xlink="http://www.w3.org/1999/xlink">
<g id="graph0" class="graph" transform="scale(1 1) rotate(0) translate(4 24)">
<title>rcKinetoscope::temporalScale</title>
<polygon fill="white" stroke="white" points="-4,5 -4,-24 703,-24 703,5 -4,5"/>
<!-- Node1 -->
<g id="node1" class="node"><title>Node1</title>
<polygon fill="#bfbfbf" stroke="black" points="0.57666,-0 0.57666,-20 149.423,-20 149.423,-0 0.57666,-0"/>
<text text-anchor="middle" x="75" y="-6" font-family="Helvetica,sans-Serif" font-size="10.00">rcKinetoscope::temporalScale</text>
</g>
<!-- Node2 -->
<g id="node2" class="node"><title>Node2</title>
<g id="a_node2"><a xlink:href="classrc_kinetoscope.html#a773e884a84eb4f6d97ef71eb1c95aeda" target="_top" xlink:title="rcKinetoscope::start">
<polygon fill="white" stroke="black" points="185.813,-0 185.813,-20 290.187,-20 290.187,-0 185.813,-0"/>
<text text-anchor="middle" x="238" y="-6" font-family="Helvetica,sans-Serif" font-size="10.00">rcKinetoscope::start</text>
</a>
</g>
</g>
<!-- Node1&#45;&gt;Node2 -->
<g id="edge1" class="edge"><title>Node1&#45;&gt;Node2</title>
<path fill="none" stroke="midnightblue" d="M159.528,-10C168.471,-10 177.364,-10 185.765,-10"/>
<polygon fill="midnightblue" stroke="midnightblue" points="159.433,-6.5001 149.433,-10 159.433,-13.5001 159.433,-6.5001"/>
</g>
<!-- Node3 -->
<g id="node3" class="node"><title>Node3</title>
<g id="a_node3"><a xlink:href="classrc_kinetoscope.html#aff1e9fdbb27b84b86d7f9a9f5a3d6229" target="_top" xlink:title="rcKinetoscope::visualFunctionMap">
<polygon fill="white" stroke="black" points="325.85,-0 325.85,-20 494.15,-20 494.15,-0 325.85,-0"/>
<text text-anchor="middle" x="410" y="-6" font-family="Helvetica,sans-Serif" font-size="10.00">rcKinetoscope::visualFunctionMap</text>
</a>
</g>
</g>
<!-- Node2&#45;&gt;Node3 -->
<g id="edge2" class="edge"><title>Node2&#45;&gt;Node3</title>
<path fill="none" stroke="midnightblue" d="M300.606,-10C308.762,-10 317.229,-10 325.675,-10"/>
<polygon fill="midnightblue" stroke="midnightblue" points="300.467,-6.5001 290.467,-10 300.467,-13.5001 300.467,-6.5001"/>
</g>
<!-- Node4 -->
<g id="node4" class="node"><title>Node4</title>
<g id="a_node4"><a xlink:href="classrc_kinetoscope.html#abf1996c0d39c655ec7b58d9795fed1c8" target="_top" xlink:title="rcKinetoscope::visualFunctionMap">
<polygon fill="white" stroke="black" points="529.85,-0 529.85,-20 698.15,-20 698.15,-0 529.85,-0"/>
<text text-anchor="middle" x="614" y="-6" font-family="Helvetica,sans-Serif" font-size="10.00">rcKinetoscope::visualFunctionMap</text>
</a>
</g>
</g>
<!-- Node3&#45;&gt;Node4 -->
<g id="edge3" class="edge"><title>Node3&#45;&gt;Node4</title>
<path fill="none" stroke="midnightblue" d="M504.477,-10C512.838,-10 521.269,-10 529.538,-10"/>
<polygon fill="midnightblue" stroke="midnightblue" points="504.327,-6.5001 494.327,-10 504.327,-13.5001 504.327,-6.5001"/>
</g>
</g>
</svg>
