<?xml version="1.0" encoding="UTF-8" standalone="no"?>
<!DOCTYPE svg PUBLIC "-//W3C//DTD SVG 1.1//EN"
 "http://www.w3.org/Graphics/SVG/1.1/DTD/svg11.dtd">
<!-- Generated by graphviz version 2.32.0 (20130916.1925)
 -->
<!-- Title: rcEngineImpl::setState Pages: 1 -->
<svg width="846pt" height="581pt"
 viewBox="0.00 0.00 846.00 581.00" xmlns="http://www.w3.org/2000/svg" xmlns:xlink="http://www.w3.org/1999/xlink">
<g id="graph0" class="graph" transform="scale(1 1) rotate(0) translate(4 577)">
<title>rcEngineImpl::setState</title>
<polygon fill="white" stroke="white" points="-4,5 -4,-577 843,-577 843,5 -4,5"/>
<!-- Node1 -->
<g id="node1" class="node"><title>Node1</title>
<polygon fill="#bfbfbf" stroke="black" points="0.697266,-375 0.697266,-395 117.303,-395 117.303,-375 0.697266,-375"/>
<text text-anchor="middle" x="59" y="-381" font-family="Helvetica,sans-Serif" font-size="10.00">rcEngineImpl::setState</text>
</g>
<!-- Node2 -->
<g id="node2" class="node"><title>Node2</title>
<g id="a_node2"><a xlink:href="classrc_engine_impl.html#a5faff49613b7e0e95b134cafdce659aa" target="_top" xlink:title="rcEngineImpl::internalReset">
<polygon fill="white" stroke="black" points="336.582,-533 336.582,-553 475.418,-553 475.418,-533 336.582,-533"/>
<text text-anchor="middle" x="406" y="-539" font-family="Helvetica,sans-Serif" font-size="10.00">rcEngineImpl::internalReset</text>
</a>
</g>
</g>
<!-- Node1&#45;&gt;Node2 -->
<g id="edge1" class="edge"><title>Node1&#45;&gt;Node2</title>
<path fill="none" stroke="midnightblue" d="M66.9639,-404.702C79.1628,-435.942 107.606,-496.055 154,-523 209.19,-555.054 283.068,-557.051 336.368,-552.85"/>
<polygon fill="midnightblue" stroke="midnightblue" points="70.23,-403.443 63.4472,-395.304 63.674,-405.897 70.23,-403.443"/>
</g>
<!-- Node4 -->
<g id="node4" class="node"><title>Node4</title>
<g id="a_node4"><a xlink:href="classrc_engine_impl.html#a1fca9fe8add246acb77b684221201684" target="_top" xlink:title="rcEngineImpl::setInternal\lState">
<polygon fill="white" stroke="black" points="163.695,-321 163.695,-353 290.305,-353 290.305,-321 163.695,-321"/>
<text text-anchor="start" x="171.695" y="-339" font-family="Helvetica,sans-Serif" font-size="10.00">rcEngineImpl::setInternal</text>
<text text-anchor="middle" x="227" y="-327" font-family="Helvetica,sans-Serif" font-size="10.00">State</text>
</a>
</g>
</g>
<!-- Node1&#45;&gt;Node4 -->
<g id="edge3" class="edge"><title>Node1&#45;&gt;Node4</title>
<path fill="none" stroke="midnightblue" d="M104.443,-372.149C124.8,-366.263 149.135,-359.226 170.666,-353"/>
<polygon fill="midnightblue" stroke="midnightblue" points="103.433,-368.798 94.799,-374.938 105.378,-375.522 103.433,-368.798"/>
</g>
<!-- Node25 -->
<g id="node25" class="node"><title>Node25</title>
<g id="a_node25"><a xlink:href="classrc_engine_impl.html#a441e2978c99e82b2dee4167e3bd23845" target="_top" xlink:title="rcEngineImpl::shutdown">
<polygon fill="white" stroke="black" points="165.638,-282 165.638,-302 288.362,-302 288.362,-282 165.638,-282"/>
<text text-anchor="middle" x="227" y="-288" font-family="Helvetica,sans-Serif" font-size="10.00">rcEngineImpl::shutdown</text>
</a>
</g>
</g>
<!-- Node1&#45;&gt;Node25 -->
<g id="edge29" class="edge"><title>Node1&#45;&gt;Node25</title>
<path fill="none" stroke="midnightblue" d="M77.3415,-367.703C95.1359,-350.888 124.341,-325.786 154,-311 161.173,-307.424 169.095,-304.466 176.982,-302.036"/>
<polygon fill="midnightblue" stroke="midnightblue" points="74.7743,-365.316 70.0079,-374.778 79.6346,-370.354 74.7743,-365.316"/>
</g>
<!-- Node26 -->
<g id="node26" class="node"><title>Node26</title>
<g id="a_node26"><a xlink:href="classrc_engine_impl.html#a48233eb8692967c57e62c454edd70822" target="_top" xlink:title="rcEngineImpl::unlockedReset">
<polygon fill="white" stroke="black" points="153.966,-494 153.966,-514 300.034,-514 300.034,-494 153.966,-494"/>
<text text-anchor="middle" x="227" y="-500" font-family="Helvetica,sans-Serif" font-size="10.00">rcEngineImpl::unlockedReset</text>
</a>
</g>
</g>
<!-- Node1&#45;&gt;Node26 -->
<g id="edge30" class="edge"><title>Node1&#45;&gt;Node26</title>
<path fill="none" stroke="midnightblue" d="M82.7046,-401.276C117.532,-426.243 183.124,-473.264 211.883,-493.88"/>
<polygon fill="midnightblue" stroke="midnightblue" points="84.3197,-398.128 74.1531,-395.146 80.2413,-403.817 84.3197,-398.128"/>
</g>
<!-- Node3 -->
<g id="node3" class="node"><title>Node3</title>
<g id="a_node3"><a xlink:href="classrc_engine_impl.html#aef01c1029056616c7c9f880107d1d67c" target="_top" xlink:title="rcEngineImpl::rcEngineImpl">
<polygon fill="white" stroke="black" points="515.862,-553 515.862,-573 654.138,-573 654.138,-553 515.862,-553"/>
<text text-anchor="middle" x="585" y="-559" font-family="Helvetica,sans-Serif" font-size="10.00">rcEngineImpl::rcEngineImpl</text>
</a>
</g>
</g>
<!-- Node2&#45;&gt;Node3 -->
<g id="edge2" class="edge"><title>Node2&#45;&gt;Node3</title>
<path fill="none" stroke="midnightblue" d="M485.454,-551.865C495.554,-553.006 505.831,-554.167 515.749,-555.288"/>
<polygon fill="midnightblue" stroke="midnightblue" points="485.763,-548.378 475.433,-550.733 484.977,-555.333 485.763,-548.378"/>
</g>
<!-- Node5 -->
<g id="node5" class="node"><title>Node5</title>
<g id="a_node5"><a xlink:href="classrc_engine_impl.html#ae320706cbcafd64f219018b9842c8290" target="_top" xlink:title="rcEngineImpl::analyze">
<polygon fill="white" stroke="black" points="348.808,-455 348.808,-475 463.192,-475 463.192,-455 348.808,-455"/>
<text text-anchor="middle" x="406" y="-461" font-family="Helvetica,sans-Serif" font-size="10.00">rcEngineImpl::analyze</text>
</a>
</g>
</g>
<!-- Node4&#45;&gt;Node5 -->
<g id="edge4" class="edge"><title>Node4&#45;&gt;Node5</title>
<path fill="none" stroke="midnightblue" d="M253.204,-359.917C274.482,-378.728 306.166,-405.508 336,-426 351.879,-436.907 371.027,-447.548 385.119,-454.952"/>
<polygon fill="midnightblue" stroke="midnightblue" points="255.379,-357.167 245.584,-353.127 250.722,-362.393 255.379,-357.167"/>
</g>
<!-- Node8 -->
<g id="node8" class="node"><title>Node8</title>
<g id="a_node8"><a xlink:href="classrc_engine_impl.html#af435c4bc3c68a2733f0167c82653e229" target="_top" xlink:title="rcEngineImpl::engineAbort">
<polygon fill="white" stroke="black" points="339.077,-41 339.077,-61 472.923,-61 472.923,-41 339.077,-41"/>
<text text-anchor="middle" x="406" y="-47" font-family="Helvetica,sans-Serif" font-size="10.00">rcEngineImpl::engineAbort</text>
</a>
</g>
</g>
<!-- Node4&#45;&gt;Node8 -->
<g id="edge7" class="edge"><title>Node4&#45;&gt;Node8</title>
<path fill="none" stroke="midnightblue" d="M296.772,-314.452C297.903,-313.356 298.982,-312.206 300,-311 358.265,-241.99 291.392,-189.533 336,-111 348.388,-89.1907 371.768,-71.447 387.853,-61.0581"/>
<polygon fill="midnightblue" stroke="midnightblue" points="294.265,-311.975 288.624,-320.943 298.626,-317.45 294.265,-311.975"/>
</g>
<!-- Node11 -->
<g id="node11" class="node"><title>Node11</title>
<g id="a_node11"><a xlink:href="classrc_engine_impl.html#a99af1b4b3222745ecd46f3701e521044" target="_top" xlink:title="rcEngineImpl::initialize">
<polygon fill="white" stroke="black" points="348.256,-121 348.256,-141 463.744,-141 463.744,-121 348.256,-121"/>
<text text-anchor="middle" x="406" y="-127" font-family="Helvetica,sans-Serif" font-size="10.00">rcEngineImpl::initialize</text>
</a>
</g>
</g>
<!-- Node4&#45;&gt;Node11 -->
<g id="edge10" class="edge"><title>Node4&#45;&gt;Node11</title>
<path fill="none" stroke="midnightblue" d="M296.704,-314.394C297.856,-313.315 298.957,-312.184 300,-311 348.465,-255.978 285.431,-203.094 336,-150 339.513,-146.311 343.671,-143.317 348.177,-140.888"/>
<polygon fill="midnightblue" stroke="midnightblue" points="294.208,-311.9 288.45,-320.793 298.497,-317.432 294.208,-311.9"/>
</g>
<!-- Node12 -->
<g id="node12" class="node"><title>Node12</title>
<g id="a_node12"><a xlink:href="classrc_engine_impl.html#a3f1d54d99e195efe0eec45f9263e6342" target="_top" xlink:title="rcEngineImpl::loadFrames">
<polygon fill="white" stroke="black" points="339.643,-397 339.643,-417 472.357,-417 472.357,-397 339.643,-397"/>
<text text-anchor="middle" x="406" y="-403" font-family="Helvetica,sans-Serif" font-size="10.00">rcEngineImpl::loadFrames</text>
</a>
</g>
</g>
<!-- Node4&#45;&gt;Node12 -->
<g id="edge11" class="edge"><title>Node4&#45;&gt;Node12</title>
<path fill="none" stroke="midnightblue" d="M278.13,-356.825C311.243,-369.921 353.242,-386.531 379.628,-396.966"/>
<polygon fill="midnightblue" stroke="midnightblue" points="279.194,-353.482 268.607,-353.059 276.619,-359.992 279.194,-353.482"/>
</g>
<!-- Node16 -->
<g id="node16" class="node"><title>Node16</title>
<g id="a_node16"><a xlink:href="classrc_engine_impl.html#a6d36ffad5feaaa46f82bec2bf309b0f4" target="_top" xlink:title="rcEngineImpl::start">
<polygon fill="white" stroke="black" points="356.318,-160 356.318,-180 455.682,-180 455.682,-160 356.318,-160"/>
<text text-anchor="middle" x="406" y="-166" font-family="Helvetica,sans-Serif" font-size="10.00">rcEngineImpl::start</text>
</a>
</g>
</g>
<!-- Node4&#45;&gt;Node16 -->
<g id="edge15" class="edge"><title>Node4&#45;&gt;Node16</title>
<path fill="none" stroke="midnightblue" d="M292.174,-316.172C294.895,-314.564 297.519,-312.842 300,-311 312.988,-301.358 376.473,-210.989 397.912,-180.209"/>
<polygon fill="midnightblue" stroke="midnightblue" points="290.403,-313.15 283.212,-320.93 293.685,-319.332 290.403,-313.15"/>
</g>
<!-- Node20 -->
<g id="node20" class="node"><title>Node20</title>
<g id="a_node20"><a xlink:href="classrc_engine_impl.html#a9a0f7115566c5d81729db47131397065" target="_top" xlink:title="rcEngineImpl::stop">
<polygon fill="white" stroke="black" points="356.591,-278 356.591,-298 455.409,-298 455.409,-278 356.591,-278"/>
<text text-anchor="middle" x="406" y="-284" font-family="Helvetica,sans-Serif" font-size="10.00">rcEngineImpl::stop</text>
</a>
</g>
</g>
<!-- Node4&#45;&gt;Node20 -->
<g id="edge20" class="edge"><title>Node4&#45;&gt;Node20</title>
<path fill="none" stroke="midnightblue" d="M295.725,-318.251C320.612,-311.362 347.822,-303.829 368.865,-298.004"/>
<polygon fill="midnightblue" stroke="midnightblue" points="294.66,-314.914 285.956,-320.956 296.528,-321.661 294.66,-314.914"/>
</g>
<!-- Node6 -->
<g id="node6" class="node"><title>Node6</title>
<g id="a_node6"><a xlink:href="classrc_engine_impl.html#a507e034c1e43ae1dd6ec95a11ec0bb02" target="_top" xlink:title="rcEngineImpl::process">
<polygon fill="white" stroke="black" points="527.535,-514 527.535,-534 642.465,-534 642.465,-514 527.535,-514"/>
<text text-anchor="middle" x="585" y="-520" font-family="Helvetica,sans-Serif" font-size="10.00">rcEngineImpl::process</text>
</a>
</g>
</g>
<!-- Node5&#45;&gt;Node6 -->
<g id="edge5" class="edge"><title>Node5&#45;&gt;Node6</title>
<path fill="none" stroke="midnightblue" d="M456.513,-478.024C463.137,-480.151 469.784,-482.489 476,-485 492.775,-491.776 495.187,-497.318 512,-504 521.524,-507.785 532.027,-511.139 541.997,-513.967"/>
<polygon fill="midnightblue" stroke="midnightblue" points="457.465,-474.655 446.878,-475.063 455.408,-481.346 457.465,-474.655"/>
</g>
<!-- Node7 -->
<g id="node7" class="node"><title>Node7</title>
<g id="a_node7"><a xlink:href="classrc_engine_analyzer.html#a064037f0ec3e68fcb11dabbcba790cdd" target="_top" xlink:title="rcEngineAnalyzer::run">
<polygon fill="white" stroke="black" points="527.808,-475 527.808,-495 642.192,-495 642.192,-475 527.808,-475"/>
<text text-anchor="middle" x="585" y="-481" font-family="Helvetica,sans-Serif" font-size="10.00">rcEngineAnalyzer::run</text>
</a>
</g>
</g>
<!-- Node5&#45;&gt;Node7 -->
<g id="edge6" class="edge"><title>Node5&#45;&gt;Node7</title>
<path fill="none" stroke="midnightblue" d="M473.79,-472.547C491.568,-474.556 510.591,-476.705 527.742,-478.643"/>
<polygon fill="midnightblue" stroke="midnightblue" points="473.82,-469.028 463.491,-471.383 473.034,-475.984 473.82,-469.028"/>
</g>
<!-- Node9 -->
<g id="node9" class="node"><title>Node9</title>
<g id="a_node9"><a xlink:href="classrc_engine_impl.html#a08582f48ac2811b56b0fbbe48c1afaf5" target="_top" xlink:title="rcEngineImpl::frameInterrupt">
<polygon fill="white" stroke="black" points="513.641,-0 513.641,-20 656.359,-20 656.359,-0 513.641,-0"/>
<text text-anchor="middle" x="585" y="-6" font-family="Helvetica,sans-Serif" font-size="10.00">rcEngineImpl::frameInterrupt</text>
</a>
</g>
</g>
<!-- Node8&#45;&gt;Node9 -->
<g id="edge8" class="edge"><title>Node8&#45;&gt;Node9</title>
<path fill="none" stroke="midnightblue" d="M460.243,-38.667C485.904,-32.7229 516.292,-25.6837 540.534,-20.0683"/>
<polygon fill="midnightblue" stroke="midnightblue" points="459.251,-35.3038 450.299,-40.9703 460.831,-42.1233 459.251,-35.3038"/>
</g>
<!-- Node10 -->
<g id="node10" class="node"><title>Node10</title>
<g id="a_node10"><a xlink:href="classrc_engine_movie_capture.html#a0d8bfe4fd32e11bdbdb2c0ad113425ff" target="_top" xlink:title="rcEngineMovieCapture::run">
<polygon fill="white" stroke="black" points="697.136,-39 697.136,-59 834.864,-59 834.864,-39 697.136,-39"/>
<text text-anchor="middle" x="766" y="-45" font-family="Helvetica,sans-Serif" font-size="10.00">rcEngineMovieCapture::run</text>
</a>
</g>
</g>
<!-- Node9&#45;&gt;Node10 -->
<g id="edge9" class="edge"><title>Node9&#45;&gt;Node10</title>
<path fill="none" stroke="midnightblue" d="M642.081,-22.2188C666.845,-27.6142 695.594,-33.8779 719.059,-38.9906"/>
<polygon fill="midnightblue" stroke="midnightblue" points="642.613,-18.7526 632.097,-20.0435 641.123,-25.5921 642.613,-18.7526"/>
</g>
<!-- Node13 -->
<g id="node13" class="node"><title>Node13</title>
<g id="a_node13"><a xlink:href="classrc_engine_impl.html#ac6c444948228b9a6c9c013efefd7452c" target="_top" xlink:title="rcEngineImpl::loadImages">
<polygon fill="white" stroke="black" points="519.192,-397 519.192,-417 650.808,-417 650.808,-397 519.192,-397"/>
<text text-anchor="middle" x="585" y="-403" font-family="Helvetica,sans-Serif" font-size="10.00">rcEngineImpl::loadImages</text>
</a>
</g>
</g>
<!-- Node12&#45;&gt;Node13 -->
<g id="edge12" class="edge"><title>Node12&#45;&gt;Node13</title>
<path fill="none" stroke="midnightblue" d="M482.543,-407C494.73,-407 507.253,-407 519.159,-407"/>
<polygon fill="midnightblue" stroke="midnightblue" points="482.405,-403.5 472.405,-407 482.405,-410.5 482.405,-403.5"/>
</g>
<!-- Node15 -->
<g id="node15" class="node"><title>Node15</title>
<g id="a_node15"><a xlink:href="classrc_engine_impl.html#ac0162da8fe4f677ad6f3d04a465d50f0" target="_top" xlink:title="rcEngineImpl::loadMovie">
<polygon fill="white" stroke="black" points="522.251,-436 522.251,-456 647.749,-456 647.749,-436 522.251,-436"/>
<text text-anchor="middle" x="585" y="-442" font-family="Helvetica,sans-Serif" font-size="10.00">rcEngineImpl::loadMovie</text>
</a>
</g>
</g>
<!-- Node12&#45;&gt;Node15 -->
<g id="edge14" class="edge"><title>Node12&#45;&gt;Node15</title>
<path fill="none" stroke="midnightblue" d="M462.455,-419.219C486.941,-424.614 515.369,-430.878 538.573,-435.991"/>
<polygon fill="midnightblue" stroke="midnightblue" points="463.101,-415.777 452.582,-417.043 461.595,-422.613 463.101,-415.777"/>
</g>
<!-- Node14 -->
<g id="node14" class="node"><title>Node14</title>
<g id="a_node14"><a xlink:href="classrc_engine_importer.html#a2e45417f1c29adf01483b2b8fca6b27b" target="_top" xlink:title="rcEngineImporter::run">
<polygon fill="white" stroke="black" points="709.646,-397 709.646,-417 822.354,-417 822.354,-397 709.646,-397"/>
<text text-anchor="middle" x="766" y="-403" font-family="Helvetica,sans-Serif" font-size="10.00">rcEngineImporter::run</text>
</a>
</g>
</g>
<!-- Node13&#45;&gt;Node14 -->
<g id="edge13" class="edge"><title>Node13&#45;&gt;Node14</title>
<path fill="none" stroke="midnightblue" d="M660.907,-407C677.186,-407 694.127,-407 709.497,-407"/>
<polygon fill="midnightblue" stroke="midnightblue" points="660.876,-403.5 650.876,-407 660.876,-410.5 660.876,-403.5"/>
</g>
<!-- Node16&#45;&gt;Node10 -->
<g id="edge16" class="edge"><title>Node16&#45;&gt;Node10</title>
<path fill="none" stroke="midnightblue" d="M453.759,-157.057C461.232,-154.813 468.854,-152.42 476,-150 492.26,-144.494 495.88,-141.904 512,-136 591.816,-106.77 686.803,-74.8726 734.486,-59.058"/>
<polygon fill="midnightblue" stroke="midnightblue" points="452.676,-153.727 444.072,-159.91 454.654,-160.442 452.676,-153.727"/>
</g>
<!-- Node17 -->
<g id="node17" class="node"><title>Node17</title>
<g id="a_node17"><a xlink:href="classrc_engine_movie_playback.html#ab5cff6edcb8b3d901f96d0fde1766f18" target="_top" xlink:title="rcEngineMoviePlayback::run">
<polygon fill="white" stroke="black" points="694.636,-144 694.636,-164 837.364,-164 837.364,-144 694.636,-144"/>
<text text-anchor="middle" x="766" y="-150" font-family="Helvetica,sans-Serif" font-size="10.00">rcEngineMoviePlayback::run</text>
</a>
</g>
</g>
<!-- Node16&#45;&gt;Node17 -->
<g id="edge17" class="edge"><title>Node16&#45;&gt;Node17</title>
<path fill="none" stroke="midnightblue" d="M448.672,-157.211C467.771,-151.992 490.826,-146.583 512,-144 573.307,-136.523 643.526,-140.265 694.409,-145.164"/>
<polygon fill="midnightblue" stroke="midnightblue" points="447.471,-153.913 438.792,-159.989 449.366,-160.652 447.471,-153.913"/>
</g>
<!-- Node18 -->
<g id="node18" class="node"><title>Node18</title>
<g id="a_node18"><a xlink:href="classrc_engine_movie_saver.html#abb624bdd44b94c6a21f9e34dfc2da081" target="_top" xlink:title="rcEngineMovieSaver\l::waitHdlr">
<polygon fill="white" stroke="black" points="530.867,-154 530.867,-186 639.133,-186 639.133,-154 530.867,-154"/>
<text text-anchor="start" x="538.867" y="-172" font-family="Helvetica,sans-Serif" font-size="10.00">rcEngineMovieSaver</text>
<text text-anchor="middle" x="585" y="-160" font-family="Helvetica,sans-Serif" font-size="10.00">::waitHdlr</text>
</a>
</g>
</g>
<!-- Node16&#45;&gt;Node18 -->
<g id="edge18" class="edge"><title>Node16&#45;&gt;Node18</title>
<path fill="none" stroke="midnightblue" d="M465.883,-170C486.808,-170 510.231,-170 530.666,-170"/>
<polygon fill="midnightblue" stroke="midnightblue" points="465.835,-166.5 455.835,-170 465.835,-173.5 465.835,-166.5"/>
</g>
<!-- Node19 -->
<g id="node19" class="node"><title>Node19</title>
<g id="a_node19"><a xlink:href="classrc_engine_movie_saver.html#a216e88884a3dd557507ea93dc3609a91" target="_top" xlink:title="rcEngineMovieSaver::run">
<polygon fill="white" stroke="black" points="701.862,-301 701.862,-321 830.138,-321 830.138,-301 701.862,-301"/>
<text text-anchor="middle" x="766" y="-307" font-family="Helvetica,sans-Serif" font-size="10.00">rcEngineMovieSaver::run</text>
</a>
</g>
</g>
<!-- Node18&#45;&gt;Node19 -->
<g id="edge19" class="edge"><title>Node18&#45;&gt;Node19</title>
<path fill="none" stroke="midnightblue" d="M648.66,-189.56C651.896,-191.245 655.032,-193.056 658,-195 703.607,-224.878 742.965,-278.4 758.231,-300.752"/>
<polygon fill="midnightblue" stroke="midnightblue" points="649.866,-186.258 639.33,-185.141 646.87,-192.585 649.866,-186.258"/>
</g>
<!-- Node20&#45;&gt;Node10 -->
<g id="edge21" class="edge"><title>Node20&#45;&gt;Node10</title>
<path fill="none" stroke="midnightblue" d="M420.068,-269.357C446.772,-231.364 505.627,-148.189 512,-144 567.591,-107.457 596.066,-135.288 658,-111 693.378,-97.1262 730.985,-72.7986 750.827,-59.1051"/>
<polygon fill="midnightblue" stroke="midnightblue" points="417.191,-267.364 414.309,-277.56 422.92,-271.387 417.191,-267.364"/>
</g>
<!-- Node21 -->
<g id="node21" class="node"><title>Node21</title>
<g id="a_node21"><a xlink:href="classrc_engine_impl.html#a00ca0d227e480ddb5bd6be293b55d2c9" target="_top" xlink:title="rcEngineImpl::muscleTracker">
<polygon fill="white" stroke="black" points="512.442,-256 512.442,-276 657.558,-276 657.558,-256 512.442,-256"/>
<text text-anchor="middle" x="585" y="-262" font-family="Helvetica,sans-Serif" font-size="10.00">rcEngineImpl::muscleTracker</text>
</a>
</g>
</g>
<!-- Node20&#45;&gt;Node21 -->
<g id="edge22" class="edge"><title>Node20&#45;&gt;Node21</title>
<path fill="none" stroke="midnightblue" d="M465.867,-280.683C480.683,-278.842 496.751,-276.844 512.125,-274.934"/>
<polygon fill="midnightblue" stroke="midnightblue" points="465.326,-277.223 455.835,-281.93 466.19,-284.17 465.326,-277.223"/>
</g>
<!-- Node22 -->
<g id="node22" class="node"><title>Node22</title>
<g id="a_node22"><a xlink:href="classrc_engine_movie_playback.html#a4d6bea668df96688763fda9650921578" target="_top" xlink:title="rcEngineMoviePlayback\l::playbackCleanup">
<polygon fill="white" stroke="black" points="523.641,-205 523.641,-237 646.359,-237 646.359,-205 523.641,-205"/>
<text text-anchor="start" x="531.641" y="-223" font-family="Helvetica,sans-Serif" font-size="10.00">rcEngineMoviePlayback</text>
<text text-anchor="middle" x="585" y="-211" font-family="Helvetica,sans-Serif" font-size="10.00">::playbackCleanup</text>
</a>
</g>
</g>
<!-- Node20&#45;&gt;Node22 -->
<g id="edge23" class="edge"><title>Node20&#45;&gt;Node22</title>
<path fill="none" stroke="midnightblue" d="M441.003,-273.935C461.482,-265.581 488.132,-254.912 512,-246 519.934,-243.038 528.4,-239.994 536.638,-237.095"/>
<polygon fill="midnightblue" stroke="midnightblue" points="439.413,-270.804 431.485,-277.833 442.066,-277.282 439.413,-270.804"/>
</g>
<!-- Node23 -->
<g id="node23" class="node"><title>Node23</title>
<g id="a_node23"><a xlink:href="classrc_engine_movie_saver.html#a32276bec2dea00cc5439e6f7cd3d586c" target="_top" xlink:title="rcEngineMovieSaver\l::closeHdlr">
<polygon fill="white" stroke="black" points="530.867,-346 530.867,-378 639.133,-378 639.133,-346 530.867,-346"/>
<text text-anchor="start" x="538.867" y="-364" font-family="Helvetica,sans-Serif" font-size="10.00">rcEngineMovieSaver</text>
<text text-anchor="middle" x="585" y="-352" font-family="Helvetica,sans-Serif" font-size="10.00">::closeHdlr</text>
</a>
</g>
</g>
<!-- Node20&#45;&gt;Node23 -->
<g id="edge25" class="edge"><title>Node20&#45;&gt;Node23</title>
<path fill="none" stroke="midnightblue" d="M436.981,-302.502C457.829,-312.389 486.369,-325.534 512,-336 520.244,-339.366 529.104,-342.751 537.694,-345.915"/>
<polygon fill="midnightblue" stroke="midnightblue" points="438.23,-299.219 427.697,-298.073 435.216,-305.537 438.23,-299.219"/>
</g>
<!-- Node24 -->
<g id="node24" class="node"><title>Node24</title>
<g id="a_node24"><a xlink:href="classrc_engine_movie_saver.html#a7282a1f65f3db0878397239984e4a02c" target="_top" xlink:title="rcEngineMovieSaver\l::doneHdlr">
<polygon fill="white" stroke="black" points="530.867,-295 530.867,-327 639.133,-327 639.133,-295 530.867,-295"/>
<text text-anchor="start" x="538.867" y="-313" font-family="Helvetica,sans-Serif" font-size="10.00">rcEngineMovieSaver</text>
<text text-anchor="middle" x="585" y="-301" font-family="Helvetica,sans-Serif" font-size="10.00">::doneHdlr</text>
</a>
</g>
</g>
<!-- Node20&#45;&gt;Node24 -->
<g id="edge27" class="edge"><title>Node20&#45;&gt;Node24</title>
<path fill="none" stroke="midnightblue" d="M465.883,-295.651C486.808,-298.371 510.231,-301.414 530.666,-304.07"/>
<polygon fill="midnightblue" stroke="midnightblue" points="466.202,-292.164 455.835,-294.346 465.3,-299.105 466.202,-292.164"/>
</g>
<!-- Node22&#45;&gt;Node17 -->
<g id="edge24" class="edge"><title>Node22&#45;&gt;Node17</title>
<path fill="none" stroke="midnightblue" d="M640.746,-201.356C646.576,-199.226 652.414,-197.078 658,-195 685.78,-184.663 717.47,-172.47 739.107,-164.083"/>
<polygon fill="midnightblue" stroke="midnightblue" points="639.187,-198.199 630.986,-204.907 641.58,-204.777 639.187,-198.199"/>
</g>
<!-- Node23&#45;&gt;Node19 -->
<g id="edge26" class="edge"><title>Node23&#45;&gt;Node19</title>
<path fill="none" stroke="midnightblue" d="M649.028,-344.042C676.138,-336.318 706.81,-327.579 729.799,-321.029"/>
<polygon fill="midnightblue" stroke="midnightblue" points="647.879,-340.73 639.221,-346.836 649.798,-347.462 647.879,-340.73"/>
</g>
<!-- Node24&#45;&gt;Node19 -->
<g id="edge28" class="edge"><title>Node24&#45;&gt;Node19</title>
<path fill="none" stroke="midnightblue" d="M649.54,-311C666.433,-311 684.676,-311 701.563,-311"/>
<polygon fill="midnightblue" stroke="midnightblue" points="649.221,-307.5 639.221,-311 649.221,-314.5 649.221,-307.5"/>
</g>
<!-- Node26&#45;&gt;Node2 -->
<g id="edge31" class="edge"><title>Node26&#45;&gt;Node2</title>
<path fill="none" stroke="midnightblue" d="M283.455,-516.219C307.941,-521.614 336.369,-527.878 359.573,-532.991"/>
<polygon fill="midnightblue" stroke="midnightblue" points="284.101,-512.777 273.582,-514.043 282.595,-519.613 284.101,-512.777"/>
</g>
<!-- Node27 -->
<g id="node27" class="node"><title>Node27</title>
<g id="a_node27"><a xlink:href="classrc_engine_impl.html#afe1f4a208e8b56aae9527dab0cd888e0" target="_top" xlink:title="rcEngineImpl::reset">
<polygon fill="white" stroke="black" points="354.926,-494 354.926,-514 457.074,-514 457.074,-494 354.926,-494"/>
<text text-anchor="middle" x="406" y="-500" font-family="Helvetica,sans-Serif" font-size="10.00">rcEngineImpl::reset</text>
</a>
</g>
</g>
<!-- Node26&#45;&gt;Node27 -->
<g id="edge32" class="edge"><title>Node26&#45;&gt;Node27</title>
<path fill="none" stroke="midnightblue" d="M310.652,-504C325.764,-504 341.104,-504 354.9,-504"/>
<polygon fill="midnightblue" stroke="midnightblue" points="310.248,-500.5 300.248,-504 310.248,-507.5 310.248,-500.5"/>
</g>
</g>
</svg>
