<?xml version="1.0" encoding="UTF-8" standalone="no"?>
<!DOCTYPE svg PUBLIC "-//W3C//DTD SVG 1.1//EN"
 "http://www.w3.org/Graphics/SVG/1.1/DTD/svg11.dtd">
<!-- Generated by graphviz version 2.32.0 (20130916.1925)
 -->
<!-- Title: rcMotionVectorPath::parabolicDisparity Pages: 1 -->
<svg width="392pt" height="376pt"
 viewBox="0.00 0.00 392.00 376.00" xmlns="http://www.w3.org/2000/svg" xmlns:xlink="http://www.w3.org/1999/xlink">
<g id="graph0" class="graph" transform="scale(1 1) rotate(0) translate(4 372)">
<title>rcMotionVectorPath::parabolicDisparity</title>
<polygon fill="white" stroke="white" points="-4,5 -4,-372 389,-372 389,5 -4,5"/>
<!-- Node1 -->
<g id="node1" class="node"><title>Node1</title>
<polygon fill="#bfbfbf" stroke="black" points="0.364746,-162 0.364746,-194 103.635,-194 103.635,-162 0.364746,-162"/>
<text text-anchor="start" x="8.36475" y="-180" font-family="Helvetica,sans-Serif" font-size="10.00">rcMotionVectorPath</text>
<text text-anchor="middle" x="52" y="-168" font-family="Helvetica,sans-Serif" font-size="10.00">::parabolicDisparity</text>
</g>
<!-- Node2 -->
<g id="node2" class="node"><title>Node2</title>
<g id="a_node2"><a xlink:href="classrc_window.html#a9ab724dc45a3c3c2beee6c8ed558de1e" target="_top" xlink:title="rcWindow::depth">
<polygon fill="white" stroke="black" points="286.761,-348 286.761,-368 377.239,-368 377.239,-348 286.761,-348"/>
<text text-anchor="middle" x="332" y="-354" font-family="Helvetica,sans-Serif" font-size="10.00">rcWindow::depth</text>
</a>
</g>
</g>
<!-- Node1&#45;&gt;Node2 -->
<g id="edge1" class="edge"><title>Node1&#45;&gt;Node2</title>
<path fill="none" stroke="midnightblue" d="M56.4776,-194.068C64.6,-227.312 88.1914,-303.42 140,-338 180.009,-364.704 235.586,-367.661 276.476,-365.156"/>
<polygon fill="midnightblue" stroke="midnightblue" points="276.822,-368.64 286.537,-364.413 276.306,-361.659 276.822,-368.64"/>
</g>
<!-- Node3 -->
<g id="node3" class="node"><title>Node3</title>
<g id="a_node3"><a xlink:href="classrc_rectangle.html#abe44205fccdffe80fbfdd4de79b406dc" target="_top" xlink:title="rcRectangle::height">
<polygon fill="white" stroke="black" points="140.919,-309 140.919,-329 243.081,-329 243.081,-309 140.919,-309"/>
<text text-anchor="middle" x="192" y="-315" font-family="Helvetica,sans-Serif" font-size="10.00">rcRectangle::height</text>
</a>
</g>
</g>
<!-- Node1&#45;&gt;Node3 -->
<g id="edge2" class="edge"><title>Node1&#45;&gt;Node3</title>
<path fill="none" stroke="midnightblue" d="M60.8537,-194.398C73.91,-220.06 102.408,-269.79 140,-299 142.474,-300.922 145.155,-302.681 147.95,-304.286"/>
<polygon fill="midnightblue" stroke="midnightblue" points="146.639,-307.544 157.146,-308.904 149.78,-301.288 146.639,-307.544"/>
</g>
<!-- Node4 -->
<g id="node4" class="node"><title>Node4</title>
<g id="a_node4"><a xlink:href="classrc_motion_vector_path.html#a9163b7d85bbac553dbceb45632815fea" target="_top" xlink:title="rcMotionVectorPath\l::match">
<polygon fill="white" stroke="black" points="140.365,-258 140.365,-290 243.635,-290 243.635,-258 140.365,-258"/>
<text text-anchor="start" x="148.365" y="-276" font-family="Helvetica,sans-Serif" font-size="10.00">rcMotionVectorPath</text>
<text text-anchor="middle" x="192" y="-264" font-family="Helvetica,sans-Serif" font-size="10.00">::match</text>
</a>
</g>
</g>
<!-- Node1&#45;&gt;Node4 -->
<g id="edge3" class="edge"><title>Node1&#45;&gt;Node4</title>
<path fill="none" stroke="midnightblue" d="M70.8327,-194.176C87.8596,-209.167 114.612,-231.566 140,-248 142.586,-249.674 145.294,-251.324 148.056,-252.931"/>
<polygon fill="midnightblue" stroke="midnightblue" points="146.539,-256.092 156.979,-257.895 149.942,-249.975 146.539,-256.092"/>
</g>
<!-- Node8 -->
<g id="node8" class="node"><title>Node8</title>
<g id="a_node8"><a xlink:href="classrc_motion_vector_path.html#a0cc1b17913fabf86898fa2360365b9c4" target="_top" xlink:title="rcMotionVectorPath\l::move">
<polygon fill="white" stroke="black" points="140.365,-207 140.365,-239 243.635,-239 243.635,-207 140.365,-207"/>
<text text-anchor="start" x="148.365" y="-225" font-family="Helvetica,sans-Serif" font-size="10.00">rcMotionVectorPath</text>
<text text-anchor="middle" x="192" y="-213" font-family="Helvetica,sans-Serif" font-size="10.00">::move</text>
</a>
</g>
</g>
<!-- Node1&#45;&gt;Node8 -->
<g id="edge8" class="edge"><title>Node1&#45;&gt;Node8</title>
<path fill="none" stroke="midnightblue" d="M102.431,-194.119C112.06,-197.259 122.243,-200.579 132.141,-203.807"/>
<polygon fill="midnightblue" stroke="midnightblue" points="131.321,-207.221 141.914,-206.994 133.492,-200.566 131.321,-207.221"/>
</g>
<!-- Node9 -->
<g id="node9" class="node"><title>Node9</title>
<g id="a_node9"><a xlink:href="rc__fit_8h.html#aab8b94282f03e5c40b03bda83b781d23" target="_top" xlink:title="parabolicFit">
<polygon fill="white" stroke="black" points="158.155,-168 158.155,-188 225.845,-188 225.845,-168 158.155,-168"/>
<text text-anchor="middle" x="192" y="-174" font-family="Helvetica,sans-Serif" font-size="10.00">parabolicFit</text>
</a>
</g>
</g>
<!-- Node1&#45;&gt;Node9 -->
<g id="edge9" class="edge"><title>Node1&#45;&gt;Node9</title>
<path fill="none" stroke="midnightblue" d="M103.994,-178C118.311,-178 133.74,-178 147.572,-178"/>
<polygon fill="midnightblue" stroke="midnightblue" points="147.793,-181.5 157.793,-178 147.793,-174.5 147.793,-181.5"/>
</g>
<!-- Node10 -->
<g id="node10" class="node"><title>Node10</title>
<g id="a_node10"><a xlink:href="classrc_motion_vector_path.html#a2420b5b2259f76e7755b744bdee236b0" target="_top" xlink:title="rcMotionVectorPath\l::sharedKin">
<polygon fill="white" stroke="black" points="140.365,-117 140.365,-149 243.635,-149 243.635,-117 140.365,-117"/>
<text text-anchor="start" x="148.365" y="-135" font-family="Helvetica,sans-Serif" font-size="10.00">rcMotionVectorPath</text>
<text text-anchor="middle" x="192" y="-123" font-family="Helvetica,sans-Serif" font-size="10.00">::sharedKin</text>
</a>
</g>
</g>
<!-- Node1&#45;&gt;Node10 -->
<g id="edge10" class="edge"><title>Node1&#45;&gt;Node10</title>
<path fill="none" stroke="midnightblue" d="M102.431,-161.881C112.06,-158.741 122.243,-155.421 132.141,-152.193"/>
<polygon fill="midnightblue" stroke="midnightblue" points="133.492,-155.434 141.914,-149.006 131.321,-148.779 133.492,-155.434"/>
</g>
<!-- Node11 -->
<g id="node11" class="node"><title>Node11</title>
<g id="a_node11"><a xlink:href="classrc_rectangle.html#a37c8043dcda3dc1076e57c4a1c219263" target="_top" xlink:title="rcRectangle::width">
<polygon fill="white" stroke="black" points="142.87,-78 142.87,-98 241.13,-98 241.13,-78 142.87,-78"/>
<text text-anchor="middle" x="192" y="-84" font-family="Helvetica,sans-Serif" font-size="10.00">rcRectangle::width</text>
</a>
</g>
</g>
<!-- Node1&#45;&gt;Node11 -->
<g id="edge11" class="edge"><title>Node1&#45;&gt;Node11</title>
<path fill="none" stroke="midnightblue" d="M69.8387,-161.836C86.5744,-146.431 113.505,-123.369 140,-108 143.656,-105.879 147.579,-103.892 151.567,-102.056"/>
<polygon fill="midnightblue" stroke="midnightblue" points="153.083,-105.214 160.893,-98.0551 150.323,-98.7815 153.083,-105.214"/>
</g>
<!-- Node12 -->
<g id="node12" class="node"><title>Node12</title>
<g id="a_node12"><a xlink:href="classrc_pair.html#ad1a3cb1e7fdbe119ce1295514b1bb49d" target="_top" xlink:title="rcPair::x">
<polygon fill="white" stroke="black" points="165.665,-39 165.665,-59 218.335,-59 218.335,-39 165.665,-39"/>
<text text-anchor="middle" x="192" y="-45" font-family="Helvetica,sans-Serif" font-size="10.00">rcPair::x</text>
</a>
</g>
</g>
<!-- Node1&#45;&gt;Node12 -->
<g id="edge12" class="edge"><title>Node1&#45;&gt;Node12</title>
<path fill="none" stroke="midnightblue" d="M61.8513,-161.885C75.6306,-138.183 104.367,-93.9326 140,-68 144.845,-64.4738 150.42,-61.5286 156.065,-59.093"/>
<polygon fill="midnightblue" stroke="midnightblue" points="157.436,-62.3157 165.516,-55.4625 154.926,-55.7813 157.436,-62.3157"/>
</g>
<!-- Node13 -->
<g id="node13" class="node"><title>Node13</title>
<g id="a_node13"><a xlink:href="classrc_pair.html#a87400f83938e920c405c40aa449d3607" target="_top" xlink:title="rcPair::y">
<polygon fill="white" stroke="black" points="165.665,-0 165.665,-20 218.335,-20 218.335,-0 165.665,-0"/>
<text text-anchor="middle" x="192" y="-6" font-family="Helvetica,sans-Serif" font-size="10.00">rcPair::y</text>
</a>
</g>
</g>
<!-- Node1&#45;&gt;Node13 -->
<g id="edge13" class="edge"><title>Node1&#45;&gt;Node13</title>
<path fill="none" stroke="midnightblue" d="M58.3422,-161.661C69.0583,-131.326 95.9915,-66.0274 140,-29 144.678,-25.064 150.249,-21.9039 155.963,-19.379"/>
<polygon fill="midnightblue" stroke="midnightblue" points="157.49,-22.5426 165.582,-15.7043 154.992,-16.0035 157.49,-22.5426"/>
</g>
<!-- Node4&#45;&gt;Node2 -->
<g id="edge7" class="edge"><title>Node4&#45;&gt;Node2</title>
<path fill="none" stroke="midnightblue" d="M228.51,-290.106C233.885,-293.105 239.224,-296.43 244,-300 262.633,-313.93 260.708,-324.997 280,-338 283.058,-340.061 286.361,-341.957 289.763,-343.69"/>
<polygon fill="midnightblue" stroke="midnightblue" points="288.355,-346.895 298.902,-347.9 291.283,-340.537 288.355,-346.895"/>
</g>
<!-- Node5 -->
<g id="node5" class="node"><title>Node5</title>
<g id="a_node5"><a xlink:href="classrc_motion_vector_path.html#a200aac86ab8178b806d51c21a62ade77" target="_top" xlink:title="rcMotionVectorPath\l::_match_u16">
<polygon fill="white" stroke="black" points="280.365,-297 280.365,-329 383.635,-329 383.635,-297 280.365,-297"/>
<text text-anchor="start" x="288.365" y="-315" font-family="Helvetica,sans-Serif" font-size="10.00">rcMotionVectorPath</text>
<text text-anchor="middle" x="332" y="-303" font-family="Helvetica,sans-Serif" font-size="10.00">::_match_u16</text>
</a>
</g>
</g>
<!-- Node4&#45;&gt;Node5 -->
<g id="edge4" class="edge"><title>Node4&#45;&gt;Node5</title>
<path fill="none" stroke="midnightblue" d="M243.994,-288.411C252.585,-290.839 261.576,-293.38 270.383,-295.869"/>
<polygon fill="midnightblue" stroke="midnightblue" points="269.641,-299.296 280.216,-298.648 271.544,-292.56 269.641,-299.296"/>
</g>
<!-- Node6 -->
<g id="node6" class="node"><title>Node6</title>
<g id="a_node6"><a xlink:href="classrc_motion_vector_path.html#a2225fc3180b0b950486c0716dc2c6d5b" target="_top" xlink:title="rcMotionVectorPath\l::_match_u32">
<polygon fill="white" stroke="black" points="280.365,-246 280.365,-278 383.635,-278 383.635,-246 280.365,-246"/>
<text text-anchor="start" x="288.365" y="-264" font-family="Helvetica,sans-Serif" font-size="10.00">rcMotionVectorPath</text>
<text text-anchor="middle" x="332" y="-252" font-family="Helvetica,sans-Serif" font-size="10.00">::_match_u32</text>
</a>
</g>
</g>
<!-- Node4&#45;&gt;Node6 -->
<g id="edge5" class="edge"><title>Node4&#45;&gt;Node6</title>
<path fill="none" stroke="midnightblue" d="M243.994,-269.566C252.493,-268.827 261.383,-268.054 270.098,-267.296"/>
<polygon fill="midnightblue" stroke="midnightblue" points="270.556,-270.769 280.216,-266.416 269.95,-263.796 270.556,-270.769"/>
</g>
<!-- Node7 -->
<g id="node7" class="node"><title>Node7</title>
<g id="a_node7"><a xlink:href="classrc_motion_vector_path.html#a4dbd0d706ecf802c577e3d479f7ea2a7" target="_top" xlink:title="rcMotionVectorPath\l::_match_u8">
<polygon fill="white" stroke="black" points="280.365,-195 280.365,-227 383.635,-227 383.635,-195 280.365,-195"/>
<text text-anchor="start" x="288.365" y="-213" font-family="Helvetica,sans-Serif" font-size="10.00">rcMotionVectorPath</text>
<text text-anchor="middle" x="332" y="-201" font-family="Helvetica,sans-Serif" font-size="10.00">::_match_u8</text>
</a>
</g>
</g>
<!-- Node4&#45;&gt;Node7 -->
<g id="edge6" class="edge"><title>Node4&#45;&gt;Node7</title>
<path fill="none" stroke="midnightblue" d="M228.18,-257.939C245.942,-249.831 267.676,-239.909 286.578,-231.279"/>
<polygon fill="midnightblue" stroke="midnightblue" points="288.241,-234.368 295.884,-227.031 285.334,-228 288.241,-234.368"/>
</g>
</g>
</svg>
