<?xml version="1.0" encoding="UTF-8" standalone="no"?>
<!DOCTYPE svg PUBLIC "-//W3C//DTD SVG 1.1//EN"
 "http://www.w3.org/Graphics/SVG/1.1/DTD/svg11.dtd">
<!-- Generated by graphviz version 2.32.0 (20130916.1925)
 -->
<!-- Title: rcPolygon::parallelInter Pages: 1 -->
<!--zoomable 223 -->
<svg id="main" version="1.1" xmlns="http://www.w3.org/2000/svg" xmlns:xlink="http://www.w3.org/1999/xlink" xml:space="preserve" onload="init(evt)">
        <defs>
                <circle id="rim" cx="0" cy="0" r="7"/>
                <circle id="rim2" cx="0" cy="0" r="3.5"/>
                <g id="zoomPlus">
                        <use xlink:href="#rim" fill="#404040">
                                <set attributeName="fill" to="#808080" begin="zoomplus.mouseover" end="zoomplus.mouseout"/>
                        </use>
                        <path d="M-4,0h8M0,-4v8" fill="none" stroke="white" stroke-width="1.5" pointer-events="none"/>
                </g>
                <g id="zoomMin">
                        <use xlink:href="#rim" fill="#404040">
                                <set attributeName="fill" to="#808080" begin="zoomminus.mouseover" end="zoomminus.mouseout"/>
                        </use>
                        <path d="M-4,0h8" fill="none" stroke="white" stroke-width="1.5" pointer-events="none"/>
                </g>
                <g id="dirArrow">
                        <path fill="none" stroke="white" stroke-width="1.5" d="M0,-3.0v7 M-2.5,-0.5L0,-3.0L2.5,-0.5"/>
                </g>
               <g id="resetDef">
                       <use xlink:href="#rim2" fill="#404040">
                               <set attributeName="fill" to="#808080" begin="reset.mouseover" end="reset.mouseout"/>
                       </use>
               </g>
        </defs>

<script type="text/javascript">
var viewWidth = 930;
var viewHeight = 223;
var sectionId = 'dynsection-60';
</script>
<script xlink:href="svgpan.js"/>
<svg id="graph" class="graph">
<g id="viewport">
<title>rcPolygon::parallelInter</title>
<polygon fill="white" stroke="white" points="-4,5 -4,-219 927,-219 927,5 -4,5"/>
<!-- Node1 -->
<g id="node1" class="node"><title>Node1</title>
<polygon fill="#bfbfbf" stroke="black" points="-0.137695,-136 -0.137695,-156 118.138,-156 118.138,-136 -0.137695,-136"/>
<text text-anchor="middle" x="59" y="-142" font-family="Helvetica,sans-Serif" font-size="10.00">rcPolygon::parallelInter</text>
</g>
<!-- Node2 -->
<g id="node2" class="node"><title>Node2</title>
<g id="a_node2"><a xlink:href="classrc_polygon.html#acc777bfef1094b5db7b699d0ef38c686" target="_top" xlink:title="rcPolygon::areaSign">
<polygon fill="white" stroke="black" points="153.973,-136 153.973,-156 260.027,-156 260.027,-136 153.973,-136"/>
<text text-anchor="middle" x="207" y="-142" font-family="Helvetica,sans-Serif" font-size="10.00">rcPolygon::areaSign</text>
</a>
</g>
</g>
<!-- Node1&#45;&gt;Node2 -->
<g id="edge1" class="edge"><title>Node1&#45;&gt;Node2</title>
<path fill="none" stroke="midnightblue" d="M118.543,-146C126.777,-146 135.267,-146 143.571,-146"/>
<polygon fill="midnightblue" stroke="midnightblue" points="143.577,-149.5 153.577,-146 143.577,-142.5 143.577,-149.5"/>
</g>
<!-- Node5 -->
<g id="node5" class="node"><title>Node5</title>
<g id="a_node5"><a xlink:href="classrc_polygon.html#adb66075148b1819b8a5a34acc6fa8ef2" target="_top" xlink:title="rcPolygon::between">
<polygon fill="white" stroke="black" points="155.084,-175 155.084,-195 258.916,-195 258.916,-175 155.084,-175"/>
<text text-anchor="middle" x="207" y="-181" font-family="Helvetica,sans-Serif" font-size="10.00">rcPolygon::between</text>
</a>
</g>
</g>
<!-- Node1&#45;&gt;Node5 -->
<g id="edge4" class="edge"><title>Node1&#45;&gt;Node5</title>
<path fill="none" stroke="midnightblue" d="M97.5986,-156.043C116.246,-161.025 138.961,-167.092 158.771,-172.384"/>
<polygon fill="midnightblue" stroke="midnightblue" points="157.964,-175.791 168.529,-174.991 159.771,-169.028 157.964,-175.791"/>
</g>
<!-- Node6 -->
<g id="node6" class="node"><title>Node6</title>
<g id="a_node6"><a xlink:href="textio_8cpp.html#a905a4c61e365d406069f00eb68db1ca5" target="_top" xlink:title="endl">
<polygon fill="white" stroke="black" points="189.547,-97 189.547,-117 224.453,-117 224.453,-97 189.547,-97"/>
<text text-anchor="middle" x="207" y="-103" font-family="Helvetica,sans-Serif" font-size="10.00">endl</text>
</a>
</g>
</g>
<!-- Node1&#45;&gt;Node6 -->
<g id="edge7" class="edge"><title>Node1&#45;&gt;Node6</title>
<path fill="none" stroke="midnightblue" d="M97.5986,-135.957C123.243,-129.106 156.577,-120.202 179.472,-114.086"/>
<polygon fill="midnightblue" stroke="midnightblue" points="180.434,-117.452 189.192,-111.49 178.627,-110.689 180.434,-117.452"/>
</g>
<!-- Node3 -->
<g id="node3" class="node"><title>Node3</title>
<g id="a_node3"><a xlink:href="classrc2d_vector.html#a510fd549126da1dfe80d60ee866ff628" target="_top" xlink:title="rc2dVector::x">
<polygon fill="white" stroke="black" points="295.818,-136 295.818,-156 370.182,-156 370.182,-136 295.818,-136"/>
<text text-anchor="middle" x="333" y="-142" font-family="Helvetica,sans-Serif" font-size="10.00">rc2dVector::x</text>
</a>
</g>
</g>
<!-- Node2&#45;&gt;Node3 -->
<g id="edge2" class="edge"><title>Node2&#45;&gt;Node3</title>
<path fill="none" stroke="midnightblue" d="M260.228,-146C268.605,-146 277.226,-146 285.458,-146"/>
<polygon fill="midnightblue" stroke="midnightblue" points="285.631,-149.5 295.631,-146 285.631,-142.5 285.631,-149.5"/>
</g>
<!-- Node4 -->
<g id="node4" class="node"><title>Node4</title>
<g id="a_node4"><a xlink:href="classrc2d_vector.html#a07f5517208bbd1d2a3ef6fb8eb3fddf8" target="_top" xlink:title="rc2dVector::y">
<polygon fill="white" stroke="black" points="295.818,-175 295.818,-195 370.182,-195 370.182,-175 295.818,-175"/>
<text text-anchor="middle" x="333" y="-181" font-family="Helvetica,sans-Serif" font-size="10.00">rc2dVector::y</text>
</a>
</g>
</g>
<!-- Node2&#45;&gt;Node4 -->
<g id="edge3" class="edge"><title>Node2&#45;&gt;Node4</title>
<path fill="none" stroke="midnightblue" d="M239.933,-156.043C255.265,-160.866 273.833,-166.706 290.267,-171.874"/>
<polygon fill="midnightblue" stroke="midnightblue" points="289.586,-175.329 300.175,-174.991 291.686,-168.651 289.586,-175.329"/>
</g>
<!-- Node5&#45;&gt;Node3 -->
<g id="edge5" class="edge"><title>Node5&#45;&gt;Node3</title>
<path fill="none" stroke="midnightblue" d="M239.933,-174.957C255.265,-170.134 273.833,-164.294 290.267,-159.126"/>
<polygon fill="midnightblue" stroke="midnightblue" points="291.686,-162.349 300.175,-156.009 289.586,-155.671 291.686,-162.349"/>
</g>
<!-- Node5&#45;&gt;Node4 -->
<g id="edge6" class="edge"><title>Node5&#45;&gt;Node4</title>
<path fill="none" stroke="midnightblue" d="M259.151,-185C267.878,-185 276.901,-185 285.499,-185"/>
<polygon fill="midnightblue" stroke="midnightblue" points="285.728,-188.5 295.728,-185 285.728,-181.5 285.728,-188.5"/>
</g>
<!-- Node7 -->
<g id="node7" class="node"><title>Node7</title>
<g id="a_node7"><a xlink:href="classotext.html#a5086c0fd5e3f551eae3027e5d23d3c30" target="_top" xlink:title="otext::put">
<polygon fill="white" stroke="black" points="304.431,-97 304.431,-117 361.569,-117 361.569,-97 304.431,-97"/>
<text text-anchor="middle" x="333" y="-103" font-family="Helvetica,sans-Serif" font-size="10.00">otext::put</text>
</a>
</g>
</g>
<!-- Node6&#45;&gt;Node7 -->
<g id="edge8" class="edge"><title>Node6&#45;&gt;Node7</title>
<path fill="none" stroke="midnightblue" d="M224.466,-107C242.062,-107 270.564,-107 293.804,-107"/>
<polygon fill="midnightblue" stroke="midnightblue" points="294.054,-110.5 304.054,-107 294.054,-103.5 294.054,-110.5"/>
</g>
<!-- Node8 -->
<g id="node8" class="node"><title>Node8</title>
<g id="a_node8"><a xlink:href="classotext.html#ab52b059090ba70eeeac469f9051d3a22" target="_top" xlink:title="otext::flush">
<polygon fill="white" stroke="black" points="427.82,-195 427.82,-215 492.18,-215 492.18,-195 427.82,-195"/>
<text text-anchor="middle" x="460" y="-201" font-family="Helvetica,sans-Serif" font-size="10.00">otext::flush</text>
</a>
</g>
</g>
<!-- Node7&#45;&gt;Node8 -->
<g id="edge9" class="edge"><title>Node7&#45;&gt;Node8</title>
<path fill="none" stroke="midnightblue" d="M356.53,-117.199C361.295,-119.966 366.066,-123.252 370,-127 391.966,-147.928 382.563,-165.733 406,-185 409.744,-188.078 414.01,-190.712 418.46,-192.959"/>
<polygon fill="midnightblue" stroke="midnightblue" points="417.178,-196.219 427.74,-197.046 419.999,-189.812 417.178,-196.219"/>
</g>
<!-- Node10 -->
<g id="node10" class="node"><title>Node10</title>
<g id="a_node10"><a xlink:href="classobuff.html#a069bcd2767c0d7c8e2bc8cd26d91e267" target="_top" xlink:title="obuff::increment">
<polygon fill="white" stroke="black" points="416.236,-156 416.236,-176 503.764,-176 503.764,-156 416.236,-156"/>
<text text-anchor="middle" x="460" y="-162" font-family="Helvetica,sans-Serif" font-size="10.00">obuff::increment</text>
</a>
</g>
</g>
<!-- Node7&#45;&gt;Node10 -->
<g id="edge11" class="edge"><title>Node7&#45;&gt;Node10</title>
<path fill="none" stroke="midnightblue" d="M352.45,-117.162C371.953,-127.878 400.634,-143.548 406,-146 410.688,-148.142 415.677,-150.245 420.649,-152.236"/>
<polygon fill="midnightblue" stroke="midnightblue" points="419.513,-155.55 430.102,-155.905 422.046,-149.024 419.513,-155.55"/>
</g>
<!-- Node11 -->
<g id="node11" class="node"><title>Node11</title>
<g id="a_node11"><a xlink:href="classobuff.html#a51efd4e8e00303842fa762940aad86ec" target="_top" xlink:title="obuff::line_buffer">
<polygon fill="white" stroke="black" points="414.927,-117 414.927,-137 505.073,-137 505.073,-117 414.927,-117"/>
<text text-anchor="middle" x="460" y="-123" font-family="Helvetica,sans-Serif" font-size="10.00">obuff::line_buffer</text>
</a>
</g>
</g>
<!-- Node7&#45;&gt;Node11 -->
<g id="edge12" class="edge"><title>Node7&#45;&gt;Node11</title>
<path fill="none" stroke="midnightblue" d="M361.742,-111.439C374.365,-113.458 389.761,-115.922 404.547,-118.287"/>
<polygon fill="midnightblue" stroke="midnightblue" points="404.216,-121.779 414.644,-119.903 405.322,-114.867 404.216,-121.779"/>
</g>
<!-- Node12 -->
<g id="node12" class="node"><title>Node12</title>
<g id="a_node12"><a xlink:href="classobuff.html#a0711113beee11f9793f5ba9e8e64c641" target="_top" xlink:title="obuff::newline_mode">
<polygon fill="white" stroke="black" points="405.945,-78 405.945,-98 514.055,-98 514.055,-78 405.945,-78"/>
<text text-anchor="middle" x="460" y="-84" font-family="Helvetica,sans-Serif" font-size="10.00">obuff::newline_mode</text>
</a>
</g>
</g>
<!-- Node7&#45;&gt;Node12 -->
<g id="edge13" class="edge"><title>Node7&#45;&gt;Node12</title>
<path fill="none" stroke="midnightblue" d="M361.742,-102.783C371.912,-101.237 383.884,-99.4177 395.885,-97.5934"/>
<polygon fill="midnightblue" stroke="midnightblue" points="396.574,-101.029 405.935,-96.0659 395.523,-94.1085 396.574,-101.029"/>
</g>
<!-- Node13 -->
<g id="node13" class="node"><title>Node13</title>
<g id="a_node13"><a xlink:href="classobuff.html#a5bbb61ac15c672da7f7b2002bef6b128" target="_top" xlink:title="obuff::put">
<polygon fill="white" stroke="black" points="431.238,-39 431.238,-59 488.762,-59 488.762,-39 431.238,-39"/>
<text text-anchor="middle" x="460" y="-45" font-family="Helvetica,sans-Serif" font-size="10.00">obuff::put</text>
</a>
</g>
</g>
<!-- Node7&#45;&gt;Node13 -->
<g id="edge14" class="edge"><title>Node7&#45;&gt;Node13</title>
<path fill="none" stroke="midnightblue" d="M351.74,-96.8404C366.128,-88.7963 387.056,-77.5333 406,-69 411.044,-66.728 416.43,-64.4888 421.765,-62.3777"/>
<polygon fill="midnightblue" stroke="midnightblue" points="423.15,-65.5948 431.226,-58.7367 420.636,-59.0619 423.15,-65.5948"/>
</g>
<!-- Node14 -->
<g id="node14" class="node"><title>Node14</title>
<g id="a_node14"><a xlink:href="classotext.html#a2a2435d80cce60cb88360c7bfe3f8445" target="_top" xlink:title="otext::set_error">
<polygon fill="white" stroke="black" points="418.375,-0 418.375,-20 501.625,-20 501.625,-0 418.375,-0"/>
<text text-anchor="middle" x="460" y="-6" font-family="Helvetica,sans-Serif" font-size="10.00">otext::set_error</text>
</a>
</g>
</g>
<!-- Node7&#45;&gt;Node14 -->
<g id="edge15" class="edge"><title>Node7&#45;&gt;Node14</title>
<path fill="none" stroke="midnightblue" d="M341.05,-96.8631C352.792,-80.659 377.864,-48.8343 406,-30 409.126,-27.9074 412.501,-25.9937 415.981,-24.2521"/>
<polygon fill="midnightblue" stroke="midnightblue" points="417.657,-27.336 425.338,-20.0392 414.783,-20.9531 417.657,-27.336"/>
</g>
<!-- Node9 -->
<g id="node9" class="node"><title>Node9</title>
<g id="a_node9"><a xlink:href="classobuff.html#a8fb8969c450f4fdc037f8c51d35c87c7" target="_top" xlink:title="obuff::flush">
<polygon fill="white" stroke="black" points="559.627,-195 559.627,-215 624.373,-215 624.373,-195 559.627,-195"/>
<text text-anchor="middle" x="592" y="-201" font-family="Helvetica,sans-Serif" font-size="10.00">obuff::flush</text>
</a>
</g>
</g>
<!-- Node8&#45;&gt;Node9 -->
<g id="edge10" class="edge"><title>Node8&#45;&gt;Node9</title>
<path fill="none" stroke="midnightblue" d="M492.469,-205C509.509,-205 530.782,-205 549.196,-205"/>
<polygon fill="midnightblue" stroke="midnightblue" points="549.37,-208.5 559.37,-205 549.37,-201.5 549.37,-208.5"/>
</g>
<!-- Node15 -->
<g id="node15" class="node"><title>Node15</title>
<g id="a_node15"><a xlink:href="classobuff.html#ae388e9608d1c873d1feaf621f4044c25" target="_top" xlink:title="obuff::set_error">
<polygon fill="white" stroke="black" points="550.182,-0 550.182,-20 633.818,-20 633.818,-0 550.182,-0"/>
<text text-anchor="middle" x="592" y="-6" font-family="Helvetica,sans-Serif" font-size="10.00">obuff::set_error</text>
</a>
</g>
</g>
<!-- Node14&#45;&gt;Node15 -->
<g id="edge16" class="edge"><title>Node14&#45;&gt;Node15</title>
<path fill="none" stroke="midnightblue" d="M501.776,-10C513.76,-10 527.026,-10 539.583,-10"/>
<polygon fill="midnightblue" stroke="midnightblue" points="539.922,-13.5001 549.922,-10 539.922,-6.5001 539.922,-13.5001"/>
</g>
<!-- Node16 -->
<g id="node16" class="node"><title>Node16</title>
<g id="a_node16"><a xlink:href="class_t_c_p__client__data.html#a970f6bf6bb6e6166615813c5f7768381" target="_top" xlink:title="TCP_client_data::error">
<polygon fill="white" stroke="black" points="670.7,-0 670.7,-20 787.3,-20 787.3,-0 670.7,-0"/>
<text text-anchor="middle" x="729" y="-6" font-family="Helvetica,sans-Serif" font-size="10.00">TCP_client_data::error</text>
</a>
</g>
</g>
<!-- Node15&#45;&gt;Node16 -->
<g id="edge17" class="edge"><title>Node15&#45;&gt;Node16</title>
<path fill="none" stroke="midnightblue" d="M633.871,-10C642.216,-10 651.208,-10 660.206,-10"/>
<polygon fill="midnightblue" stroke="midnightblue" points="660.335,-13.5001 670.335,-10 660.335,-6.5001 660.335,-13.5001"/>
</g>
<!-- Node17 -->
<g id="node17" class="node"><title>Node17</title>
<g id="a_node17"><a xlink:href="class_t_c_p__socket.html#adb70059ca46476efe0ced51ed377a975" target="_top" xlink:title="TCP_socket::error">
<polygon fill="white" stroke="black" points="824.434,-0 824.434,-20 921.566,-20 921.566,-0 824.434,-0"/>
<text text-anchor="middle" x="873" y="-6" font-family="Helvetica,sans-Serif" font-size="10.00">TCP_socket::error</text>
</a>
</g>
</g>
<!-- Node16&#45;&gt;Node17 -->
<g id="edge18" class="edge"><title>Node16&#45;&gt;Node17</title>
<path fill="none" stroke="midnightblue" d="M787.348,-10C796.089,-10 805.117,-10 813.875,-10"/>
<polygon fill="midnightblue" stroke="midnightblue" points="813.998,-13.5001 823.998,-10 813.998,-6.5001 813.998,-13.5001"/>
</g>
</g>
</svg>
        <g id="navigator" transform="translate(0 0)" fill="#404254">
                <rect fill="#f2f5e9" fill-opacity="0.5" stroke="#606060" stroke-width=".5" x="0" y="0" width="60" height="60"/>
                <use id="zoomplus" xlink:href="#zoomPlus" x="17" y="9" onmousedown="handleZoom(evt,'in')"/>
                <use id="zoomminus" xlink:href="#zoomMin" x="42" y="9" onmousedown="handleZoom(evt,'out')"/>
                <use id="reset" xlink:href="#resetDef" x="30" y="36" onmousedown="handleReset()"/>
                <g id="arrowUp" xlink:href="#dirArrow" transform="translate(30 24)" onmousedown="handlePan(0,-1)">
                  <use xlink:href="#rim" fill="#404040">
                        <set attributeName="fill" to="#808080" begin="arrowUp.mouseover" end="arrowUp.mouseout"/>
                  </use>
                  <path fill="none" stroke="white" stroke-width="1.5" d="M0,-3.0v7 M-2.5,-0.5L0,-3.0L2.5,-0.5"/>
                </g>
                <g id="arrowRight" xlink:href="#dirArrow" transform="rotate(90) translate(36 -43)" onmousedown="handlePan(1,0)">
                  <use xlink:href="#rim" fill="#404040">
                        <set attributeName="fill" to="#808080" begin="arrowRight.mouseover" end="arrowRight.mouseout"/>
                  </use>
                  <path fill="none" stroke="white" stroke-width="1.5" d="M0,-3.0v7 M-2.5,-0.5L0,-3.0L2.5,-0.5"/>
                </g>
                <g id="arrowDown" xlink:href="#dirArrow" transform="rotate(180) translate(-30 -48)" onmousedown="handlePan(0,1)">
                  <use xlink:href="#rim" fill="#404040">
                        <set attributeName="fill" to="#808080" begin="arrowDown.mouseover" end="arrowDown.mouseout"/>
                  </use>
                  <path fill="none" stroke="white" stroke-width="1.5" d="M0,-3.0v7 M-2.5,-0.5L0,-3.0L2.5,-0.5"/>
                </g>
                <g id="arrowLeft" xlink:href="#dirArrow" transform="rotate(270) translate(-36 17)" onmousedown="handlePan(-1,0)">
                  <use xlink:href="#rim" fill="#404040">
                        <set attributeName="fill" to="#808080" begin="arrowLeft.mouseover" end="arrowLeft.mouseout"/>
                  </use>
                  <path fill="none" stroke="white" stroke-width="1.5" d="M0,-3.0v7 M-2.5,-0.5L0,-3.0L2.5,-0.5"/>
                </g>
        </g>
        <svg viewBox="0 0 15 15" width="100%" height="30px" preserveAspectRatio="xMaxYMin meet">
         <g id="arrow_out" transform="scale(0.3 0.3)">
          <a xlink:href="classrc_polygon_a72dba2cd405394fb016f48e8ea8ed87b_cgraph_org.svg" target="_base">
           <rect id="button" ry="5" rx="5" y="6" x="6" height="38" width="38"
                fill="#f2f5e9" fill-opacity="0.5" stroke="#606060" stroke-width="1.0"/>
           <path id="arrow"
             d="M 11.500037,31.436501 C 11.940474,20.09759 22.043105,11.32322 32.158766,21.979434 L 37.068811,17.246167 C 37.068811,17.246167 37.088388,32 37.088388,32 L 22.160133,31.978069 C 22.160133,31.978069 26.997745,27.140456 26.997745,27.140456 C 18.528582,18.264221 13.291696,25.230495 11.500037,31.436501 z"
             style="fill:#404040;"/>
          </a>
         </g>
        </svg>
</svg>
