<?xml version="1.0" encoding="UTF-8" standalone="no"?>
<!DOCTYPE svg PUBLIC "-//W3C//DTD SVG 1.1//EN"
 "http://www.w3.org/Graphics/SVG/1.1/DTD/svg11.dtd">
<!-- Generated by graphviz version 2.32.0 (20130916.1925)
 -->
<!-- Title: rcExperimentDomainImpl::saveExperiment Pages: 1 -->
<svg width="300pt" height="79pt"
 viewBox="0.00 0.00 300.00 79.00" xmlns="http://www.w3.org/2000/svg" xmlns:xlink="http://www.w3.org/1999/xlink">
<g id="graph0" class="graph" transform="scale(1 1) rotate(0) translate(4 75)">
<title>rcExperimentDomainImpl::saveExperiment</title>
<polygon fill="white" stroke="white" points="-4,5 -4,-75 297,-75 297,5 -4,5"/>
<!-- Node1 -->
<g id="node1" class="node"><title>Node1</title>
<polygon fill="#bfbfbf" stroke="black" points="-0.12793,-22 -0.12793,-54 128.128,-54 128.128,-22 -0.12793,-22"/>
<text text-anchor="start" x="7.87207" y="-40" font-family="Helvetica,sans-Serif" font-size="10.00">rcExperimentDomainImpl</text>
<text text-anchor="middle" x="64" y="-28" font-family="Helvetica,sans-Serif" font-size="10.00">::saveExperiment</text>
</g>
<!-- Node2 -->
<g id="node2" class="node"><title>Node2</title>
<g id="a_node2"><a xlink:href="rc__main_8cpp.html#a3c04138a5bfe5d72780bb7e82a18e627" target="_top" xlink:title="main">
<polygon fill="white" stroke="black" points="209.163,-51 209.163,-71 246.837,-71 246.837,-51 209.163,-51"/>
<text text-anchor="middle" x="228" y="-57" font-family="Helvetica,sans-Serif" font-size="10.00">main</text>
</a>
</g>
</g>
<!-- Node1&#45;&gt;Node2 -->
<g id="edge1" class="edge"><title>Node1&#45;&gt;Node2</title>
<path fill="none" stroke="midnightblue" d="M138.479,-48.4322C164.55,-52.1336 191.668,-55.9837 208.906,-58.4312"/>
<polygon fill="midnightblue" stroke="midnightblue" points="138.954,-44.9647 128.562,-47.0242 137.97,-51.8952 138.954,-44.9647"/>
</g>
<!-- Node3 -->
<g id="node3" class="node"><title>Node3</title>
<g id="a_node3"><a xlink:href="classrc_experiment_domain_impl.html#a29b2a73f82318c9faec49f9a1178f90b" target="_top" xlink:title="rcExperimentDomainImpl\l::notifyRequestSave">
<polygon fill="white" stroke="black" points="163.872,-0 163.872,-32 292.128,-32 292.128,-0 163.872,-0"/>
<text text-anchor="start" x="171.872" y="-18" font-family="Helvetica,sans-Serif" font-size="10.00">rcExperimentDomainImpl</text>
<text text-anchor="middle" x="228" y="-6" font-family="Helvetica,sans-Serif" font-size="10.00">::notifyRequestSave</text>
</a>
</g>
</g>
<!-- Node1&#45;&gt;Node3 -->
<g id="edge2" class="edge"><title>Node1&#45;&gt;Node3</title>
<path fill="none" stroke="midnightblue" d="M138.655,-27.9975C146.991,-26.8654 155.433,-25.719 163.622,-24.6069"/>
<polygon fill="midnightblue" stroke="midnightblue" points="138,-24.5542 128.562,-29.3682 138.942,-31.4906 138,-24.5542"/>
</g>
</g>
</svg>
