<?xml version="1.0" encoding="UTF-8" standalone="no"?>
<!DOCTYPE svg PUBLIC "-//W3C//DTD SVG 1.1//EN"
 "http://www.w3.org/Graphics/SVG/1.1/DTD/svg11.dtd">
<!-- Generated by graphviz version 2.32.0 (20130916.1925)
 -->
<!-- Title: cli_parser_data::clear_definitions Pages: 1 -->
<svg width="268pt" height="91pt"
 viewBox="0.00 0.00 268.00 91.00" xmlns="http://www.w3.org/2000/svg" xmlns:xlink="http://www.w3.org/1999/xlink">
<g id="graph0" class="graph" transform="scale(1 1) rotate(0) translate(4 87)">
<title>cli_parser_data::clear_definitions</title>
<polygon fill="white" stroke="white" points="-4,5 -4,-87 265,-87 265,5 -4,5"/>
<!-- Node1 -->
<g id="node1" class="node"><title>Node1</title>
<polygon fill="#bfbfbf" stroke="black" points="0.197266,-25 0.197266,-57 111.803,-57 111.803,-25 0.197266,-25"/>
<text text-anchor="start" x="8.19727" y="-43" font-family="Helvetica,sans-Serif" font-size="10.00">cli_parser_data::clear</text>
<text text-anchor="middle" x="56" y="-31" font-family="Helvetica,sans-Serif" font-size="10.00">_definitions</text>
</g>
<!-- Node2 -->
<g id="node2" class="node"><title>Node2</title>
<g id="a_node2"><a xlink:href="classcli__parser__data.html#ae300ca6f44a20356d2b703775f1478ba" target="_top" xlink:title="cli_parser_data::reset\l_level">
<polygon fill="white" stroke="black" points="147.919,-51 147.919,-83 260.081,-83 260.081,-51 147.919,-51"/>
<text text-anchor="start" x="155.919" y="-69" font-family="Helvetica,sans-Serif" font-size="10.00">cli_parser_data::reset</text>
<text text-anchor="middle" x="204" y="-57" font-family="Helvetica,sans-Serif" font-size="10.00">_level</text>
</a>
</g>
</g>
<!-- Node1&#45;&gt;Node2 -->
<g id="edge1" class="edge"><title>Node1&#45;&gt;Node2</title>
<path fill="none" stroke="midnightblue" d="M112.196,-50.8295C120.554,-52.3179 129.243,-53.8653 137.789,-55.387"/>
<polygon fill="midnightblue" stroke="midnightblue" points="137.267,-58.8491 147.726,-57.1566 138.494,-51.9575 137.267,-58.8491"/>
</g>
<!-- Node3 -->
<g id="node3" class="node"><title>Node3</title>
<g id="a_node3"><a xlink:href="classcli__parser__data.html#a0f7bb99a512ac65faa4eed3335297263" target="_top" xlink:title="cli_parser_data::set\l_valid">
<polygon fill="white" stroke="black" points="152.365,-0 152.365,-32 255.635,-32 255.635,-0 152.365,-0"/>
<text text-anchor="start" x="160.365" y="-18" font-family="Helvetica,sans-Serif" font-size="10.00">cli_parser_data::set</text>
<text text-anchor="middle" x="204" y="-6" font-family="Helvetica,sans-Serif" font-size="10.00">_valid</text>
</a>
</g>
</g>
<!-- Node1&#45;&gt;Node3 -->
<g id="edge2" class="edge"><title>Node1&#45;&gt;Node3</title>
<path fill="none" stroke="midnightblue" d="M112.196,-31.5486C121.905,-29.8861 132.062,-28.1469 141.92,-26.4588"/>
<polygon fill="midnightblue" stroke="midnightblue" points="142.789,-29.8611 152.055,-24.7235 141.608,-22.9615 142.789,-29.8611"/>
</g>
</g>
</svg>
