<?xml version="1.0" encoding="UTF-8" standalone="no"?>
<!DOCTYPE svg PUBLIC "-//W3C//DTD SVG 1.1//EN"
 "http://www.w3.org/Graphics/SVG/1.1/DTD/svg11.dtd">
<!-- Generated by graphviz version 2.32.0 (20130916.1925)
 -->
<!-- Title: rcVisualFunction::correspond Pages: 1 -->
<svg width="1038pt" height="1124pt"
 viewBox="0.00 0.00 1038.00 1124.00" xmlns="http://www.w3.org/2000/svg" xmlns:xlink="http://www.w3.org/1999/xlink">
<g id="graph0" class="graph" transform="scale(1 1) rotate(0) translate(4 1120)">
<title>rcVisualFunction::correspond</title>
<polygon fill="white" stroke="white" points="-4,5 -4,-1120 1035,-1120 1035,5 -4,5"/>
<!-- Node1 -->
<g id="node1" class="node"><title>Node1</title>
<polygon fill="#bfbfbf" stroke="black" points="0.334473,-370 0.334473,-390 145.666,-390 145.666,-370 0.334473,-370"/>
<text text-anchor="middle" x="73" y="-376" font-family="Helvetica,sans-Serif" font-size="10.00">rcVisualFunction::correspond</text>
</g>
<!-- Node2 -->
<g id="node2" class="node"><title>Node2</title>
<g id="a_node2"><a xlink:href="classrc_statistics.html#a6d622bff2ed0e6e4cbc4447a489d86c7" target="_top" xlink:title="rcStatistics::add">
<polygon fill="white" stroke="black" points="213.709,-1086 213.709,-1106 300.291,-1106 300.291,-1086 213.709,-1086"/>
<text text-anchor="middle" x="257" y="-1092" font-family="Helvetica,sans-Serif" font-size="10.00">rcStatistics::add</text>
</a>
</g>
</g>
<!-- Node1&#45;&gt;Node2 -->
<g id="edge1" class="edge"><title>Node1&#45;&gt;Node2</title>
<path fill="none" stroke="midnightblue" d="M74.1119,-390.112C75.1745,-467.708 85.7358,-968.516 182,-1076 187.807,-1082.48 195.477,-1086.96 203.68,-1090.03"/>
<polygon fill="midnightblue" stroke="midnightblue" points="202.887,-1093.45 213.473,-1093.03 204.935,-1086.76 202.887,-1093.45"/>
</g>
<!-- Node3 -->
<g id="node3" class="node"><title>Node3</title>
<g id="a_node3"><a xlink:href="classrc_visual_function.html#afcb3816a0597cf4e416a028bbe631b4e" target="_top" xlink:title="rcVisualFunction::clear">
<polygon fill="white" stroke="black" points="198.512,-1047 198.512,-1067 315.488,-1067 315.488,-1047 198.512,-1047"/>
<text text-anchor="middle" x="257" y="-1053" font-family="Helvetica,sans-Serif" font-size="10.00">rcVisualFunction::clear</text>
</a>
</g>
</g>
<!-- Node1&#45;&gt;Node3 -->
<g id="edge2" class="edge"><title>Node1&#45;&gt;Node3</title>
<path fill="none" stroke="midnightblue" d="M74.2111,-390.022C75.9881,-464.837 90.7378,-936.018 182,-1037 184.275,-1039.52 186.832,-1041.73 189.59,-1043.68"/>
<polygon fill="midnightblue" stroke="midnightblue" points="187.983,-1046.79 198.395,-1048.75 191.478,-1040.73 187.983,-1046.79"/>
</g>
<!-- Node5 -->
<g id="node5" class="node"><title>Node5</title>
<g id="a_node5"><a xlink:href="classrc_window.html#a57edd985555420d24b83c6185988e959" target="_top" xlink:title="rcWindow::copyPixelsFrom\lWindow">
<polygon fill="white" stroke="black" points="188.709,-957 188.709,-989 325.291,-989 325.291,-957 188.709,-957"/>
<text text-anchor="start" x="196.709" y="-975" font-family="Helvetica,sans-Serif" font-size="10.00">rcWindow::copyPixelsFrom</text>
<text text-anchor="middle" x="257" y="-963" font-family="Helvetica,sans-Serif" font-size="10.00">Window</text>
</a>
</g>
</g>
<!-- Node1&#45;&gt;Node5 -->
<g id="edge4" class="edge"><title>Node1&#45;&gt;Node5</title>
<path fill="none" stroke="midnightblue" d="M74.9323,-390.154C81.2082,-456.814 118.967,-831.97 182,-925 189.252,-935.703 199.77,-944.568 210.61,-951.642"/>
<polygon fill="midnightblue" stroke="midnightblue" points="208.953,-954.731 219.317,-956.932 212.588,-948.748 208.953,-954.731"/>
</g>
<!-- Node12 -->
<g id="node12" class="node"><title>Node12</title>
<g id="a_node12"><a xlink:href="classrc_pair.html#a87400f83938e920c405c40aa449d3607" target="_top" xlink:title="rcPair::y">
<polygon fill="white" stroke="black" points="767.665,-912 767.665,-932 820.335,-932 820.335,-912 767.665,-912"/>
<text text-anchor="middle" x="794" y="-918" font-family="Helvetica,sans-Serif" font-size="10.00">rcPair::y</text>
</a>
</g>
</g>
<!-- Node1&#45;&gt;Node12 -->
<g id="edge64" class="edge"><title>Node1&#45;&gt;Node12</title>
<path fill="none" stroke="midnightblue" d="M74.6811,-390.107C78.157,-434.987 97.2278,-619.162 182,-736 241.229,-817.633 278.67,-819.18 368,-866 389.205,-877.114 546.436,-936.767 570,-941 635.499,-952.767 713.17,-940.285 757.41,-930.733"/>
<polygon fill="midnightblue" stroke="midnightblue" points="758.385,-934.102 767.382,-928.507 756.859,-927.27 758.385,-934.102"/>
</g>
<!-- Node14 -->
<g id="node14" class="node"><title>Node14</title>
<g id="a_node14"><a xlink:href="classrc_pair.html#ad1a3cb1e7fdbe119ce1295514b1bb49d" target="_top" xlink:title="rcPair::x">
<polygon fill="white" stroke="black" points="767.665,-640 767.665,-660 820.335,-660 820.335,-640 767.665,-640"/>
<text text-anchor="middle" x="794" y="-646" font-family="Helvetica,sans-Serif" font-size="10.00">rcPair::x</text>
</a>
</g>
</g>
<!-- Node1&#45;&gt;Node14 -->
<g id="edge62" class="edge"><title>Node1&#45;&gt;Node14</title>
<path fill="none" stroke="midnightblue" d="M145.892,-382.21C297.642,-387.434 640.352,-402.388 684,-432 753.901,-479.422 781.065,-585.443 789.64,-629.839"/>
<polygon fill="midnightblue" stroke="midnightblue" points="786.245,-630.737 791.472,-639.952 793.133,-629.489 786.245,-630.737"/>
</g>
<!-- Node16 -->
<g id="node16" class="node"><title>Node16</title>
<g id="a_node16"><a xlink:href="classrc_visual_function.html#a825759353504fe93a44f3e7c3f06b62d" target="_top" xlink:title="rcVisualFunction::isState">
<polygon fill="white" stroke="black" points="388.063,-273 388.063,-293 513.937,-293 513.937,-273 388.063,-273"/>
<text text-anchor="middle" x="451" y="-279" font-family="Helvetica,sans-Serif" font-size="10.00">rcVisualFunction::isState</text>
</a>
</g>
</g>
<!-- Node1&#45;&gt;Node16 -->
<g id="edge15" class="edge"><title>Node1&#45;&gt;Node16</title>
<path fill="none" stroke="midnightblue" d="M83.8769,-369.833C101.625,-352.32 140.909,-316.912 182,-302 245.361,-279.006 322.584,-275.917 377.831,-277.588"/>
<polygon fill="midnightblue" stroke="midnightblue" points="377.762,-281.088 387.882,-277.952 378.016,-274.092 377.762,-281.088"/>
</g>
<!-- Node17 -->
<g id="node17" class="node"><title>Node17</title>
<g id="a_node17"><a xlink:href="classrc_visual_function.html#a56d73586ab94d3c30f14a1b1330ffda7" target="_top" xlink:title="rcVisualFunction::mark">
<polygon fill="white" stroke="black" points="198.238,-1008 198.238,-1028 315.762,-1028 315.762,-1008 198.238,-1008"/>
<text text-anchor="middle" x="257" y="-1014" font-family="Helvetica,sans-Serif" font-size="10.00">rcVisualFunction::mark</text>
</a>
</g>
</g>
<!-- Node1&#45;&gt;Node17 -->
<g id="edge16" class="edge"><title>Node1&#45;&gt;Node17</title>
<path fill="none" stroke="midnightblue" d="M74.3354,-390.349C76.9162,-463.604 95.8968,-903.686 182,-998 184.173,-1000.38 186.597,-1002.49 189.206,-1004.36"/>
<polygon fill="midnightblue" stroke="midnightblue" points="187.68,-1007.52 198.081,-1009.54 191.209,-1001.47 187.68,-1007.52"/>
</g>
<!-- Node18 -->
<g id="node18" class="node"><title>Node18</title>
<g id="a_node18"><a xlink:href="classrc_visual_function.html#a46e5270e8d4748172debdf410deb5f40" target="_top" xlink:title="rcVisualFunction::match">
<polygon fill="white" stroke="black" points="195.733,-195 195.733,-215 318.267,-215 318.267,-195 195.733,-195"/>
<text text-anchor="middle" x="257" y="-201" font-family="Helvetica,sans-Serif" font-size="10.00">rcVisualFunction::match</text>
</a>
</g>
</g>
<!-- Node1&#45;&gt;Node18 -->
<g id="edge18" class="edge"><title>Node1&#45;&gt;Node18</title>
<path fill="none" stroke="midnightblue" d="M78.0367,-369.733C89.6184,-341.667 125.774,-263.154 182,-224 184.531,-222.238 187.212,-220.639 189.996,-219.188"/>
<polygon fill="midnightblue" stroke="midnightblue" points="191.504,-222.347 199.176,-215.041 188.622,-215.968 191.504,-222.347"/>
</g>
<!-- Node27 -->
<g id="node27" class="node"><title>Node27</title>
<g id="a_node27"><a xlink:href="classrc_visual_function.html#af28f26f8fdebd971a85e05cd97caf4b5" target="_top" xlink:title="rcVisualFunction::moving">
<polygon fill="white" stroke="black" points="193.231,-156 193.231,-176 320.769,-176 320.769,-156 193.231,-156"/>
<text text-anchor="middle" x="257" y="-162" font-family="Helvetica,sans-Serif" font-size="10.00">rcVisualFunction::moving</text>
</a>
</g>
</g>
<!-- Node1&#45;&gt;Node27 -->
<g id="edge27" class="edge"><title>Node1&#45;&gt;Node27</title>
<path fill="none" stroke="midnightblue" d="M76.598,-369.611C85.3271,-336.932 116.788,-235.42 182,-185 184.066,-183.403 186.252,-181.939 188.527,-180.597"/>
<polygon fill="midnightblue" stroke="midnightblue" points="190.311,-183.618 197.679,-176.005 187.172,-177.361 190.311,-183.618"/>
</g>
<!-- Node28 -->
<g id="node28" class="node"><title>Node28</title>
<g id="a_node28"><a xlink:href="classrc_visual_function.html#ae242a3b1c9a395195133ddcff3412c80" target="_top" xlink:title="rcVisualFunction::roundRectangle">
<polygon fill="white" stroke="black" points="368.046,-717 368.046,-737 533.954,-737 533.954,-717 368.046,-717"/>
<text text-anchor="middle" x="451" y="-723" font-family="Helvetica,sans-Serif" font-size="10.00">rcVisualFunction::roundRectangle</text>
</a>
</g>
</g>
<!-- Node1&#45;&gt;Node28 -->
<g id="edge28" class="edge"><title>Node1&#45;&gt;Node28</title>
<path fill="none" stroke="midnightblue" d="M76.4754,-390.017C85.2274,-423.554 117.7,-533.35 182,-597 244.709,-659.075 342.883,-696.154 401.387,-713.981"/>
<polygon fill="midnightblue" stroke="midnightblue" points="400.545,-717.382 411.128,-716.882 402.544,-710.673 400.545,-717.382"/>
</g>
<!-- Node34 -->
<g id="node34" class="node"><title>Node34</title>
<g id="a_node34"><a xlink:href="classrc_rectangle.html#a503fad35feaa849fc21d0c5895cf9b63" target="_top" xlink:title="rcRectangle::ul">
<polygon fill="white" stroke="black" points="585.65,-523 585.65,-543 668.35,-543 668.35,-523 585.65,-523"/>
<text text-anchor="middle" x="627" y="-529" font-family="Helvetica,sans-Serif" font-size="10.00">rcRectangle::ul</text>
</a>
</g>
</g>
<!-- Node1&#45;&gt;Node34 -->
<g id="edge44" class="edge"><title>Node1&#45;&gt;Node34</title>
<path fill="none" stroke="midnightblue" d="M104.618,-390.026C126.181,-396.992 155.767,-406.359 182,-414 324.507,-455.508 494.308,-499.516 576.52,-520.482"/>
<polygon fill="midnightblue" stroke="midnightblue" points="575.787,-523.907 586.341,-522.983 577.514,-517.123 575.787,-523.907"/>
</g>
<!-- Node35 -->
<g id="node35" class="node"><title>Node35</title>
<g id="a_node35"><a xlink:href="classrc_visual_function.html#a39f6b73d1a768a42363cdc284570f8a8" target="_top" xlink:title="rcVisualFunction::setState">
<polygon fill="white" stroke="black" points="191.004,-234 191.004,-254 322.996,-254 322.996,-234 191.004,-234"/>
<text text-anchor="middle" x="257" y="-240" font-family="Helvetica,sans-Serif" font-size="10.00">rcVisualFunction::setState</text>
</a>
</g>
</g>
<!-- Node1&#45;&gt;Node35 -->
<g id="edge37" class="edge"><title>Node1&#45;&gt;Node35</title>
<path fill="none" stroke="midnightblue" d="M81.184,-369.86C96.9869,-348.265 136.964,-297.389 182,-269 189.173,-264.478 197.257,-260.674 205.379,-257.506"/>
<polygon fill="midnightblue" stroke="midnightblue" points="206.663,-260.764 214.879,-254.075 204.285,-254.18 206.663,-260.764"/>
</g>
<!-- Node36 -->
<g id="node36" class="node"><title>Node36</title>
<g id="a_node36"><a xlink:href="classrc_rectangle.html#abf237ae523e116f84025b7f130988b6e" target="_top" xlink:title="rcRectangle::size">
<polygon fill="white" stroke="black" points="210.65,-117 210.65,-137 303.35,-137 303.35,-117 210.65,-117"/>
<text text-anchor="middle" x="257" y="-123" font-family="Helvetica,sans-Serif" font-size="10.00">rcRectangle::size</text>
</a>
</g>
</g>
<!-- Node1&#45;&gt;Node36 -->
<g id="edge39" class="edge"><title>Node1&#45;&gt;Node36</title>
<path fill="none" stroke="midnightblue" d="M75.5212,-369.942C81.5574,-333.651 107.247,-208.309 182,-146 187.408,-141.492 193.754,-138.037 200.418,-135.392"/>
<polygon fill="midnightblue" stroke="midnightblue" points="201.966,-138.564 210.335,-132.067 199.741,-131.927 201.966,-138.564"/>
</g>
<!-- Node37 -->
<g id="node37" class="node"><title>Node37</title>
<g id="a_node37"><a xlink:href="classrc2_xform.html#a787f10db8a16d50b67bc00d21c02775a" target="_top" xlink:title="rc2Xform::trans">
<polygon fill="white" stroke="black" points="214.825,-78 214.825,-98 299.175,-98 299.175,-78 214.825,-78"/>
<text text-anchor="middle" x="257" y="-84" font-family="Helvetica,sans-Serif" font-size="10.00">rc2Xform::trans</text>
</a>
</g>
</g>
<!-- Node1&#45;&gt;Node37 -->
<g id="edge40" class="edge"><title>Node1&#45;&gt;Node37</title>
<path fill="none" stroke="midnightblue" d="M74.7916,-369.995C78.498,-330.151 97.7065,-181.336 182,-107 188.507,-101.262 196.519,-97.2157 204.843,-94.3713"/>
<polygon fill="midnightblue" stroke="midnightblue" points="206.035,-97.6708 214.686,-91.555 204.109,-90.9409 206.035,-97.6708"/>
</g>
<!-- Node38 -->
<g id="node38" class="node"><title>Node38</title>
<g id="a_node38"><a xlink:href="classrc_rectangle.html#a26a3c3d069b38d7a2e57c7e0c765c82a" target="_top" xlink:title="rcRectangle::translate">
<polygon fill="white" stroke="black" points="570.365,-912 570.365,-932 683.635,-932 683.635,-912 570.365,-912"/>
<text text-anchor="middle" x="627" y="-918" font-family="Helvetica,sans-Serif" font-size="10.00">rcRectangle::translate</text>
</a>
</g>
</g>
<!-- Node1&#45;&gt;Node38 -->
<g id="edge41" class="edge"><title>Node1&#45;&gt;Node38</title>
<path fill="none" stroke="midnightblue" d="M75.9074,-390.26C83.4534,-428.667 114.178,-566.333 182,-656 288.87,-797.292 494.466,-878.721 583.342,-908.693"/>
<polygon fill="midnightblue" stroke="midnightblue" points="582.492,-912.098 593.085,-911.929 584.699,-905.455 582.492,-912.098"/>
</g>
<!-- Node39 -->
<g id="node39" class="node"><title>Node39</title>
<g id="a_node39"><a xlink:href="classrc_visual_function.html#ac75edc7fae3b9c7e89b6d827b544a100" target="_top" xlink:title="rcVisualFunction::update\lRects">
<polygon fill="white" stroke="black" points="194.056,-556 194.056,-588 319.944,-588 319.944,-556 194.056,-556"/>
<text text-anchor="start" x="202.056" y="-574" font-family="Helvetica,sans-Serif" font-size="10.00">rcVisualFunction::update</text>
<text text-anchor="middle" x="257" y="-562" font-family="Helvetica,sans-Serif" font-size="10.00">Rects</text>
</a>
</g>
</g>
<!-- Node1&#45;&gt;Node39 -->
<g id="edge45" class="edge"><title>Node1&#45;&gt;Node39</title>
<path fill="none" stroke="midnightblue" d="M83.5289,-390.052C111.484,-419.543 193.815,-506.398 233.759,-548.537"/>
<polygon fill="midnightblue" stroke="midnightblue" points="231.282,-551.012 240.702,-555.861 236.363,-546.196 231.282,-551.012"/>
</g>
<!-- Node44 -->
<g id="node44" class="node"><title>Node44</title>
<g id="a_node44"><a xlink:href="classrc_visual_function.html#aa0472b7b5574c85267d93aaadd605da7" target="_top" xlink:title="rcVisualFunction::use4fixed">
<polygon fill="white" stroke="black" points="187.945,-351 187.945,-371 326.055,-371 326.055,-351 187.945,-351"/>
<text text-anchor="middle" x="257" y="-357" font-family="Helvetica,sans-Serif" font-size="10.00">rcVisualFunction::use4fixed</text>
</a>
</g>
</g>
<!-- Node1&#45;&gt;Node44 -->
<g id="edge58" class="edge"><title>Node1&#45;&gt;Node44</title>
<path fill="none" stroke="midnightblue" d="M145.67,-372.518C156.148,-371.424 166.985,-370.293 177.589,-369.186"/>
<polygon fill="midnightblue" stroke="midnightblue" points="178.083,-372.653 187.665,-368.134 177.356,-365.691 178.083,-372.653"/>
</g>
<!-- Node45 -->
<g id="node45" class="node"><title>Node45</title>
<g id="a_node45"><a xlink:href="classrc_visual_function.html#ad1a2e9d7afed23ba8cbc66ccd956beba" target="_top" xlink:title="rcVisualFunction::use4moving">
<polygon fill="white" stroke="black" points="182.389,-312 182.389,-332 331.611,-332 331.611,-312 182.389,-312"/>
<text text-anchor="middle" x="257" y="-318" font-family="Helvetica,sans-Serif" font-size="10.00">rcVisualFunction::use4moving</text>
</a>
</g>
</g>
<!-- Node1&#45;&gt;Node45 -->
<g id="edge60" class="edge"><title>Node1&#45;&gt;Node45</title>
<path fill="none" stroke="midnightblue" d="M99.9533,-369.84C121.685,-361.524 153.614,-349.748 182,-341 189.139,-338.8 196.718,-336.648 204.199,-334.63"/>
<polygon fill="midnightblue" stroke="midnightblue" points="205.155,-337.998 213.931,-332.062 203.369,-331.23 205.155,-337.998"/>
</g>
<!-- Node46 -->
<g id="node46" class="node"><title>Node46</title>
<g id="a_node46"><a xlink:href="classrc2d_vector.html#a510fd549126da1dfe80d60ee866ff628" target="_top" xlink:title="rc2dVector::x">
<polygon fill="white" stroke="black" points="219.818,-39 219.818,-59 294.182,-59 294.182,-39 219.818,-39"/>
<text text-anchor="middle" x="257" y="-45" font-family="Helvetica,sans-Serif" font-size="10.00">rc2dVector::x</text>
</a>
</g>
</g>
<!-- Node1&#45;&gt;Node46 -->
<g id="edge63" class="edge"><title>Node1&#45;&gt;Node46</title>
<path fill="none" stroke="midnightblue" d="M74.2455,-369.809C75.8671,-326.303 88.2006,-154.414 182,-68 189.609,-60.9901 199.451,-56.4879 209.459,-53.6162"/>
<polygon fill="midnightblue" stroke="midnightblue" points="210.519,-56.9622 219.446,-51.2554 208.909,-50.1499 210.519,-56.9622"/>
</g>
<!-- Node47 -->
<g id="node47" class="node"><title>Node47</title>
<g id="a_node47"><a xlink:href="classrc2d_vector.html#a07f5517208bbd1d2a3ef6fb8eb3fddf8" target="_top" xlink:title="rc2dVector::y">
<polygon fill="white" stroke="black" points="219.818,-0 219.818,-20 294.182,-20 294.182,-0 219.818,-0"/>
<text text-anchor="middle" x="257" y="-6" font-family="Helvetica,sans-Serif" font-size="10.00">rc2dVector::y</text>
</a>
</g>
</g>
<!-- Node1&#45;&gt;Node47 -->
<g id="edge65" class="edge"><title>Node1&#45;&gt;Node47</title>
<path fill="none" stroke="midnightblue" d="M73.7988,-369.852C73.455,-323.249 78.4301,-127.796 182,-29 189.637,-21.7152 199.675,-17.1233 209.885,-14.2541"/>
<polygon fill="midnightblue" stroke="midnightblue" points="210.696,-17.6589 219.653,-11.9995 209.122,-10.8383 210.696,-17.6589"/>
</g>
<!-- Node4 -->
<g id="node4" class="node"><title>Node4</title>
<g id="a_node4"><a xlink:href="classrc_visual_function.html#a4379ad1befee1b2649a47ec20ef92c91" target="_top" xlink:title="rcVisualFunction::have">
<polygon fill="white" stroke="black" points="392.507,-1096 392.507,-1116 509.493,-1116 509.493,-1096 392.507,-1096"/>
<text text-anchor="middle" x="451" y="-1102" font-family="Helvetica,sans-Serif" font-size="10.00">rcVisualFunction::have</text>
</a>
</g>
</g>
<!-- Node3&#45;&gt;Node4 -->
<g id="edge3" class="edge"><title>Node3&#45;&gt;Node4</title>
<path fill="none" stroke="midnightblue" d="M295.377,-1067.04C316.641,-1072.7 343.784,-1079.86 368,-1086 377.8,-1088.49 388.275,-1091.09 398.348,-1093.56"/>
<polygon fill="midnightblue" stroke="midnightblue" points="397.702,-1097 408.247,-1095.97 399.364,-1090.2 397.702,-1097"/>
</g>
<!-- Node6 -->
<g id="node6" class="node"><title>Node6</title>
<g id="a_node6"><a xlink:href="classrc_window.html#a9ab724dc45a3c3c2beee6c8ed558de1e" target="_top" xlink:title="rcWindow::depth">
<polygon fill="white" stroke="black" points="405.761,-1018 405.761,-1038 496.239,-1038 496.239,-1018 405.761,-1018"/>
<text text-anchor="middle" x="451" y="-1024" font-family="Helvetica,sans-Serif" font-size="10.00">rcWindow::depth</text>
</a>
</g>
</g>
<!-- Node5&#45;&gt;Node6 -->
<g id="edge5" class="edge"><title>Node5&#45;&gt;Node6</title>
<path fill="none" stroke="midnightblue" d="M305.974,-989.055C325.173,-995.272 347.547,-1002.26 368,-1008 377.214,-1010.59 387.065,-1013.15 396.626,-1015.55"/>
<polygon fill="midnightblue" stroke="midnightblue" points="395.9,-1018.97 406.447,-1017.97 397.576,-1012.18 395.9,-1018.97"/>
</g>
<!-- Node7 -->
<g id="node7" class="node"><title>Node7</title>
<g id="a_node7"><a xlink:href="classrc_window.html#a958e7e0bd74b12cbcb44e73a2692400a" target="_top" xlink:title="rcWindow::height">
<polygon fill="white" stroke="black" points="404.65,-979 404.65,-999 497.35,-999 497.35,-979 404.65,-979"/>
<text text-anchor="middle" x="451" y="-985" font-family="Helvetica,sans-Serif" font-size="10.00">rcWindow::height</text>
</a>
</g>
</g>
<!-- Node5&#45;&gt;Node7 -->
<g id="edge6" class="edge"><title>Node5&#45;&gt;Node7</title>
<path fill="none" stroke="midnightblue" d="M325.422,-978.619C347.996,-980.5 372.889,-982.574 394.451,-984.371"/>
<polygon fill="midnightblue" stroke="midnightblue" points="394.166,-987.859 404.422,-985.202 394.747,-980.883 394.166,-987.859"/>
</g>
<!-- Node8 -->
<g id="node8" class="node"><title>Node8</title>
<g id="a_node8"><a xlink:href="classrc_window.html#a0ae0c2adbe34085eb07c93edd60b342a" target="_top" xlink:title="rcWindow::width">
<polygon fill="white" stroke="black" points="406.601,-940 406.601,-960 495.399,-960 495.399,-940 406.601,-940"/>
<text text-anchor="middle" x="451" y="-946" font-family="Helvetica,sans-Serif" font-size="10.00">rcWindow::width</text>
</a>
</g>
</g>
<!-- Node5&#45;&gt;Node8 -->
<g id="edge7" class="edge"><title>Node5&#45;&gt;Node8</title>
<path fill="none" stroke="midnightblue" d="M325.422,-964.923C348.649,-962.141 374.331,-959.065 396.313,-956.431"/>
<polygon fill="midnightblue" stroke="midnightblue" points="396.942,-959.881 406.454,-955.216 396.109,-952.931 396.942,-959.881"/>
</g>
<!-- Node9 -->
<g id="node9" class="node"><title>Node9</title>
<g id="a_node9"><a xlink:href="classrc_window.html#a232627a15bd75725861721177a38df82" target="_top" xlink:title="rcWindow::rowPointer">
<polygon fill="white" stroke="black" points="394.375,-1057 394.375,-1077 507.625,-1077 507.625,-1057 394.375,-1057"/>
<text text-anchor="middle" x="451" y="-1063" font-family="Helvetica,sans-Serif" font-size="10.00">rcWindow::rowPointer</text>
</a>
</g>
</g>
<!-- Node5&#45;&gt;Node9 -->
<g id="edge8" class="edge"><title>Node5&#45;&gt;Node9</title>
<path fill="none" stroke="midnightblue" d="M315.112,-989.127C321.078,-991.945 326.838,-995.216 332,-999 353.507,-1014.77 345.742,-1032.31 368,-1047 373.015,-1050.31 378.526,-1053.07 384.247,-1055.38"/>
<polygon fill="midnightblue" stroke="midnightblue" points="383.427,-1058.8 394.022,-1058.84 385.766,-1052.2 383.427,-1058.8"/>
</g>
<!-- Node10 -->
<g id="node10" class="node"><title>Node10</title>
<g id="a_node10"><a xlink:href="classrc_frame.html#a401a851fcb8a4328949d38cb34b572f6" target="_top" xlink:title="rcFrame::rowPointer">
<polygon fill="white" stroke="black" points="573.712,-1086 573.712,-1106 680.288,-1106 680.288,-1086 573.712,-1086"/>
<text text-anchor="middle" x="627" y="-1092" font-family="Helvetica,sans-Serif" font-size="10.00">rcFrame::rowPointer</text>
</a>
</g>
</g>
<!-- Node9&#45;&gt;Node10 -->
<g id="edge9" class="edge"><title>Node9&#45;&gt;Node10</title>
<path fill="none" stroke="midnightblue" d="M508.012,-1076.34C525.783,-1079.3 545.538,-1082.59 563.722,-1085.62"/>
<polygon fill="midnightblue" stroke="midnightblue" points="563.2,-1089.08 573.639,-1087.27 564.351,-1082.18 563.2,-1089.08"/>
</g>
<!-- Node11 -->
<g id="node11" class="node"><title>Node11</title>
<g id="a_node11"><a xlink:href="classrc_rect.html#a50236160751c949d8718f8d4d17f7923" target="_top" xlink:title="rcRect::y">
<polygon fill="white" stroke="black" points="599.276,-1047 599.276,-1067 654.724,-1067 654.724,-1047 599.276,-1047"/>
<text text-anchor="middle" x="627" y="-1053" font-family="Helvetica,sans-Serif" font-size="10.00">rcRect::y</text>
</a>
</g>
</g>
<!-- Node9&#45;&gt;Node11 -->
<g id="edge10" class="edge"><title>Node9&#45;&gt;Node11</title>
<path fill="none" stroke="midnightblue" d="M508.012,-1063.78C534.375,-1062.27 565.104,-1060.5 588.593,-1059.15"/>
<polygon fill="midnightblue" stroke="midnightblue" points="589.051,-1062.63 598.833,-1058.56 588.649,-1055.64 589.051,-1062.63"/>
</g>
<!-- Node13 -->
<g id="node13" class="node"><title>Node13</title>
<g id="a_node13"><a xlink:href="classrc_rect.html#ac0f95519a41dcf7e33bec85ccb8e7aff" target="_top" xlink:title="rcRect::x">
<polygon fill="white" stroke="black" points="599.276,-873 599.276,-893 654.724,-893 654.724,-873 599.276,-873"/>
<text text-anchor="middle" x="627" y="-879" font-family="Helvetica,sans-Serif" font-size="10.00">rcRect::x</text>
</a>
</g>
</g>
<!-- Node9&#45;&gt;Node13 -->
<g id="edge12" class="edge"><title>Node9&#45;&gt;Node13</title>
<path fill="none" stroke="midnightblue" d="M507.863,-1061.99C517.568,-1058.87 526.83,-1054.13 534,-1047 580.781,-1000.49 525.694,-951.877 570,-903 575.148,-897.321 582.021,-893.253 589.185,-890.341"/>
<polygon fill="midnightblue" stroke="midnightblue" points="590.635,-893.546 598.999,-887.042 588.405,-886.91 590.635,-893.546"/>
</g>
<!-- Node15 -->
<g id="node15" class="node"><title>Node15</title>
<g id="a_node15"><a xlink:href="classrc_frame.html#aaef8303c840834284eb9c60d33bf40c1" target="_top" xlink:title="rcFrame::depth">
<polygon fill="white" stroke="black" points="585.099,-1008 585.099,-1028 668.901,-1028 668.901,-1008 585.099,-1008"/>
<text text-anchor="middle" x="627" y="-1014" font-family="Helvetica,sans-Serif" font-size="10.00">rcFrame::depth</text>
</a>
</g>
</g>
<!-- Node9&#45;&gt;Node15 -->
<g id="edge14" class="edge"><title>Node9&#45;&gt;Node15</title>
<path fill="none" stroke="midnightblue" d="M495.547,-1056.95C508.009,-1053.92 521.58,-1050.47 534,-1047 551.231,-1042.19 570.102,-1036.34 586.243,-1031.16"/>
<polygon fill="midnightblue" stroke="midnightblue" points="587.464,-1034.45 595.902,-1028.04 585.31,-1027.79 587.464,-1034.45"/>
</g>
<!-- Node11&#45;&gt;Node12 -->
<g id="edge11" class="edge"><title>Node11&#45;&gt;Node12</title>
<path fill="none" stroke="midnightblue" d="M654.837,-1050.24C664.496,-1047.09 675.178,-1042.75 684,-1037 724.845,-1010.38 761.379,-965.498 779.994,-940.4"/>
<polygon fill="midnightblue" stroke="midnightblue" points="782.965,-942.265 786.016,-932.119 777.304,-938.148 782.965,-942.265"/>
</g>
<!-- Node13&#45;&gt;Node14 -->
<g id="edge13" class="edge"><title>Node13&#45;&gt;Node14</title>
<path fill="none" stroke="midnightblue" d="M635.09,-872.988C660.419,-837.221 746.689,-715.397 779.859,-668.557"/>
<polygon fill="midnightblue" stroke="midnightblue" points="782.828,-670.421 785.751,-660.237 777.115,-666.375 782.828,-670.421"/>
</g>
<!-- Node17&#45;&gt;Node4 -->
<g id="edge17" class="edge"><title>Node17&#45;&gt;Node4</title>
<path fill="none" stroke="midnightblue" d="M312.015,-1028.03C319.07,-1030.63 325.941,-1033.89 332,-1038 354.075,-1052.96 345.742,-1071.31 368,-1086 372.587,-1089.03 377.589,-1091.6 382.787,-1093.78"/>
<polygon fill="midnightblue" stroke="midnightblue" points="381.714,-1097.11 392.307,-1097.3 384.141,-1090.55 381.714,-1097.11"/>
</g>
<!-- Node19 -->
<g id="node19" class="node"><title>Node19</title>
<g id="a_node19"><a xlink:href="classrc_timing_info.html#a50ba9cb10b77d8673443680f2a42e4c9" target="_top" xlink:title="rcTimingInfo::touch">
<polygon fill="white" stroke="black" points="400.666,-234 400.666,-254 501.334,-254 501.334,-234 400.666,-234"/>
<text text-anchor="middle" x="451" y="-240" font-family="Helvetica,sans-Serif" font-size="10.00">rcTimingInfo::touch</text>
</a>
</g>
</g>
<!-- Node18&#45;&gt;Node19 -->
<g id="edge19" class="edge"><title>Node18&#45;&gt;Node19</title>
<path fill="none" stroke="midnightblue" d="M307.445,-215.043C332.864,-220.207 364.028,-226.537 390.729,-231.961"/>
<polygon fill="midnightblue" stroke="midnightblue" points="390.226,-235.43 400.723,-233.991 391.62,-228.57 390.226,-235.43"/>
</g>
<!-- Node25 -->
<g id="node25" class="node"><title>Node25</title>
<g id="a_node25"><a xlink:href="code_2rc__lattice_8cpp.html#a11f409678e4d3f84988be5331f3b0512" target="_top" xlink:title="rfImageFind">
<polygon fill="white" stroke="black" points="416.323,-195 416.323,-215 485.677,-215 485.677,-195 416.323,-195"/>
<text text-anchor="middle" x="451" y="-201" font-family="Helvetica,sans-Serif" font-size="10.00">rfImageFind</text>
</a>
</g>
</g>
<!-- Node18&#45;&gt;Node25 -->
<g id="edge25" class="edge"><title>Node18&#45;&gt;Node25</title>
<path fill="none" stroke="midnightblue" d="M318.486,-205C346.793,-205 379.895,-205 405.807,-205"/>
<polygon fill="midnightblue" stroke="midnightblue" points="406.077,-208.5 416.077,-205 406.077,-201.5 406.077,-208.5"/>
</g>
<!-- Node26 -->
<g id="node26" class="node"><title>Node26</title>
<g id="a_node26"><a xlink:href="classrc_timing_info.html#a76381999c6a6d932ccec2d42c7b4d61b" target="_top" xlink:title="rcTimingInfo::printInfo">
<polygon fill="white" stroke="black" points="394.831,-156 394.831,-176 507.169,-176 507.169,-156 394.831,-156"/>
<text text-anchor="middle" x="451" y="-162" font-family="Helvetica,sans-Serif" font-size="10.00">rcTimingInfo::printInfo</text>
</a>
</g>
</g>
<!-- Node18&#45;&gt;Node26 -->
<g id="edge26" class="edge"><title>Node18&#45;&gt;Node26</title>
<path fill="none" stroke="midnightblue" d="M307.445,-194.957C332.864,-189.793 364.028,-183.463 390.729,-178.039"/>
<polygon fill="midnightblue" stroke="midnightblue" points="391.62,-181.43 400.723,-176.009 390.226,-174.57 391.62,-181.43"/>
</g>
<!-- Node20 -->
<g id="node20" class="node"><title>Node20</title>
<g id="a_node20"><a xlink:href="classrc_timestamp.html#a7e749f376ff8741e79a2dbba2419e78f" target="_top" xlink:title="rcTimestamp::now">
<polygon fill="white" stroke="black" points="578.341,-254 578.341,-274 675.659,-274 675.659,-254 578.341,-254"/>
<text text-anchor="middle" x="627" y="-260" font-family="Helvetica,sans-Serif" font-size="10.00">rcTimestamp::now</text>
</a>
</g>
</g>
<!-- Node19&#45;&gt;Node20 -->
<g id="edge20" class="edge"><title>Node19&#45;&gt;Node20</title>
<path fill="none" stroke="midnightblue" d="M501.396,-249.678C522.213,-252.07 546.586,-254.872 568.229,-257.36"/>
<polygon fill="midnightblue" stroke="midnightblue" points="567.947,-260.85 578.281,-258.515 568.746,-253.896 567.947,-260.85"/>
</g>
<!-- Node22 -->
<g id="node22" class="node"><title>Node22</title>
<g id="a_node22"><a xlink:href="classrc_timestamp.html#a7a76776edb5c337196cf10c009339d15" target="_top" xlink:title="rcTimestamp::secs">
<polygon fill="white" stroke="black" points="577.232,-215 577.232,-235 676.768,-235 676.768,-215 577.232,-215"/>
<text text-anchor="middle" x="627" y="-221" font-family="Helvetica,sans-Serif" font-size="10.00">rcTimestamp::secs</text>
</a>
</g>
</g>
<!-- Node19&#45;&gt;Node22 -->
<g id="edge22" class="edge"><title>Node19&#45;&gt;Node22</title>
<path fill="none" stroke="midnightblue" d="M501.396,-238.606C521.773,-236.381 545.558,-233.784 566.854,-231.458"/>
<polygon fill="midnightblue" stroke="midnightblue" points="567.522,-234.906 577.083,-230.342 566.762,-227.948 567.522,-234.906"/>
</g>
<!-- Node21 -->
<g id="node21" class="node"><title>Node21</title>
<g id="a_node21"><a xlink:href="rc__timestamp__mac_8cpp.html#af7988734f76c2effcc4118da588b8779" target="_top" xlink:title="getCurrentTimestamp">
<polygon fill="white" stroke="black" points="737.833,-254 737.833,-274 850.167,-274 850.167,-254 737.833,-254"/>
<text text-anchor="middle" x="794" y="-260" font-family="Helvetica,sans-Serif" font-size="10.00">getCurrentTimestamp</text>
</a>
</g>
</g>
<!-- Node20&#45;&gt;Node21 -->
<g id="edge21" class="edge"><title>Node20&#45;&gt;Node21</title>
<path fill="none" stroke="midnightblue" d="M675.725,-264C691.956,-264 710.384,-264 727.746,-264"/>
<polygon fill="midnightblue" stroke="midnightblue" points="727.821,-267.5 737.821,-264 727.821,-260.5 727.821,-267.5"/>
</g>
<!-- Node23 -->
<g id="node23" class="node"><title>Node23</title>
<g id="a_node23"><a xlink:href="rc__timestamp_8h.html#ac624900be52fa7f30d3ad72543cc725d" target="_top" xlink:title="convertTimestampToSeconds">
<polygon fill="white" stroke="black" points="720.321,-215 720.321,-235 867.679,-235 867.679,-215 720.321,-215"/>
<text text-anchor="middle" x="794" y="-221" font-family="Helvetica,sans-Serif" font-size="10.00">convertTimestampToSeconds</text>
</a>
</g>
</g>
<!-- Node22&#45;&gt;Node23 -->
<g id="edge23" class="edge"><title>Node22&#45;&gt;Node23</title>
<path fill="none" stroke="midnightblue" d="M677.059,-225C687.459,-225 698.713,-225 709.98,-225"/>
<polygon fill="midnightblue" stroke="midnightblue" points="710.307,-228.5 720.307,-225 710.307,-221.5 710.307,-228.5"/>
</g>
<!-- Node24 -->
<g id="node24" class="node"><title>Node24</title>
<g id="a_node24"><a xlink:href="rc__timestamp__mac_8cpp.html#a7962719b626553bf7a913f7c2671b777" target="_top" xlink:title="getTimestampResolution">
<polygon fill="white" stroke="black" points="903.88,-215 903.88,-235 1030.12,-235 1030.12,-215 903.88,-215"/>
<text text-anchor="middle" x="967" y="-221" font-family="Helvetica,sans-Serif" font-size="10.00">getTimestampResolution</text>
</a>
</g>
</g>
<!-- Node23&#45;&gt;Node24 -->
<g id="edge24" class="edge"><title>Node23&#45;&gt;Node24</title>
<path fill="none" stroke="midnightblue" d="M868.015,-225C876.47,-225 885.09,-225 893.537,-225"/>
<polygon fill="midnightblue" stroke="midnightblue" points="893.731,-228.5 903.731,-225 893.731,-221.5 893.731,-228.5"/>
</g>
<!-- Node28&#45;&gt;Node12 -->
<g id="edge36" class="edge"><title>Node28&#45;&gt;Node12</title>
<path fill="none" stroke="midnightblue" d="M470.945,-737.174C494.035,-749.411 534.384,-770.265 570,-786 619.678,-807.947 637.27,-802.325 684,-830 719.927,-851.277 755.815,-884.438 776.128,-904.597"/>
<polygon fill="midnightblue" stroke="midnightblue" points="773.829,-907.249 783.358,-911.88 778.797,-902.317 773.829,-907.249"/>
</g>
<!-- Node28&#45;&gt;Node14 -->
<g id="edge35" class="edge"><title>Node28&#45;&gt;Node14</title>
<path fill="none" stroke="midnightblue" d="M468.061,-716.906C490.105,-703.61 531.406,-680.67 570,-670 634.34,-652.213 712.71,-649.29 757.333,-649.293"/>
<polygon fill="midnightblue" stroke="midnightblue" points="757.373,-652.793 767.39,-649.344 757.408,-645.793 757.373,-652.793"/>
</g>
<!-- Node29 -->
<g id="node29" class="node"><title>Node29</title>
<g id="a_node29"><a xlink:href="rc__visualcardiomyo_8cpp.html#a7724e55c10cb2ecdc4811287e949c6a3" target="_top" xlink:title="sDummy">
<polygon fill="white" stroke="black" points="599.278,-718 599.278,-738 654.722,-738 654.722,-718 599.278,-718"/>
<text text-anchor="middle" x="627" y="-724" font-family="Helvetica,sans-Serif" font-size="10.00">sDummy</text>
</a>
</g>
</g>
<!-- Node28&#45;&gt;Node29 -->
<g id="edge29" class="edge"><title>Node28&#45;&gt;Node29</title>
<path fill="none" stroke="midnightblue" d="M534.159,-727.472C553.36,-727.583 572.875,-727.695 588.95,-727.787"/>
<polygon fill="midnightblue" stroke="midnightblue" points="588.959,-731.287 598.979,-727.845 588.999,-724.287 588.959,-731.287"/>
</g>
<!-- Node30 -->
<g id="node30" class="node"><title>Node30</title>
<g id="a_node30"><a xlink:href="rc__math_8h.html#a1dc0185e944470f207aa4af80d9fc50e" target="_top" xlink:title="rfRound">
<polygon fill="white" stroke="black" points="601.212,-679 601.212,-699 652.788,-699 652.788,-679 601.212,-679"/>
<text text-anchor="middle" x="627" y="-685" font-family="Helvetica,sans-Serif" font-size="10.00">rfRound</text>
</a>
</g>
</g>
<!-- Node28&#45;&gt;Node30 -->
<g id="edge30" class="edge"><title>Node28&#45;&gt;Node30</title>
<path fill="none" stroke="midnightblue" d="M498.172,-716.916C527.325,-710.55 564.389,-702.455 591.091,-696.624"/>
<polygon fill="midnightblue" stroke="midnightblue" points="592.111,-699.984 601.134,-694.431 590.617,-693.145 592.111,-699.984"/>
</g>
<!-- Node31 -->
<g id="node31" class="node"><title>Node31</title>
<g id="a_node31"><a xlink:href="classrc_rectangle.html#a302834e46631be595a180bf787a8693d" target="_top" xlink:title="rcRectangle::origin">
<polygon fill="white" stroke="black" points="577.313,-757 577.313,-777 676.687,-777 676.687,-757 577.313,-757"/>
<text text-anchor="middle" x="627" y="-763" font-family="Helvetica,sans-Serif" font-size="10.00">rcRectangle::origin</text>
</a>
</g>
</g>
<!-- Node28&#45;&gt;Node31 -->
<g id="edge31" class="edge"><title>Node28&#45;&gt;Node31</title>
<path fill="none" stroke="midnightblue" d="M495.908,-737.094C519.179,-742.443 547.954,-749.058 572.519,-754.706"/>
<polygon fill="midnightblue" stroke="midnightblue" points="571.878,-758.149 582.408,-756.979 573.447,-751.327 571.878,-758.149"/>
</g>
<!-- Node32 -->
<g id="node32" class="node"><title>Node32</title>
<g id="a_node32"><a xlink:href="classrc_rectangle.html#a37c8043dcda3dc1076e57c4a1c219263" target="_top" xlink:title="rcRectangle::width">
<polygon fill="white" stroke="black" points="577.87,-601 577.87,-621 676.13,-621 676.13,-601 577.87,-601"/>
<text text-anchor="middle" x="627" y="-607" font-family="Helvetica,sans-Serif" font-size="10.00">rcRectangle::width</text>
</a>
</g>
</g>
<!-- Node28&#45;&gt;Node32 -->
<g id="edge32" class="edge"><title>Node28&#45;&gt;Node32</title>
<path fill="none" stroke="midnightblue" d="M506.596,-716.853C516.412,-713.293 526.039,-708.487 534,-702 559.904,-680.894 545.453,-658.67 570,-636 574.359,-631.974 579.475,-628.516 584.811,-625.57"/>
<polygon fill="midnightblue" stroke="midnightblue" points="586.484,-628.647 593.904,-621.084 583.387,-622.369 586.484,-628.647"/>
</g>
<!-- Node33 -->
<g id="node33" class="node"><title>Node33</title>
<g id="a_node33"><a xlink:href="classrc_rectangle.html#abe44205fccdffe80fbfdd4de79b406dc" target="_top" xlink:title="rcRectangle::height">
<polygon fill="white" stroke="black" points="575.919,-562 575.919,-582 678.081,-582 678.081,-562 575.919,-562"/>
<text text-anchor="middle" x="627" y="-568" font-family="Helvetica,sans-Serif" font-size="10.00">rcRectangle::height</text>
</a>
</g>
</g>
<!-- Node28&#45;&gt;Node33 -->
<g id="edge33" class="edge"><title>Node28&#45;&gt;Node33</title>
<path fill="none" stroke="midnightblue" d="M469.563,-716.831C487.573,-705.705 515.495,-686.436 534,-664 556.764,-636.4 543.223,-615.727 570,-592 571.994,-590.233 574.156,-588.618 576.431,-587.144"/>
<polygon fill="midnightblue" stroke="midnightblue" points="578.541,-589.981 585.651,-582.126 575.195,-583.832 578.541,-589.981"/>
</g>
<!-- Node28&#45;&gt;Node34 -->
<g id="edge34" class="edge"><title>Node28&#45;&gt;Node34</title>
<path fill="none" stroke="midnightblue" d="M462.079,-716.956C478.617,-700.095 511.882,-664.541 534,-630 554.372,-598.186 542.058,-578.424 570,-553 571.971,-551.207 574.114,-549.572 576.374,-548.081"/>
<polygon fill="midnightblue" stroke="midnightblue" points="578.488,-550.913 585.556,-543.02 575.109,-544.782 578.488,-550.913"/>
</g>
<!-- Node35&#45;&gt;Node16 -->
<g id="edge38" class="edge"><title>Node35&#45;&gt;Node16</title>
<path fill="none" stroke="midnightblue" d="M307.445,-254.043C332.864,-259.207 364.028,-265.537 390.729,-270.961"/>
<polygon fill="midnightblue" stroke="midnightblue" points="390.226,-274.43 400.723,-272.991 391.62,-267.57 390.226,-274.43"/>
</g>
<!-- Node38&#45;&gt;Node12 -->
<g id="edge43" class="edge"><title>Node38&#45;&gt;Node12</title>
<path fill="none" stroke="midnightblue" d="M683.861,-922C708.015,-922 735.582,-922 756.967,-922"/>
<polygon fill="midnightblue" stroke="midnightblue" points="757.23,-925.5 767.23,-922 757.23,-918.5 757.23,-925.5"/>
</g>
<!-- Node38&#45;&gt;Node14 -->
<g id="edge42" class="edge"><title>Node38&#45;&gt;Node14</title>
<path fill="none" stroke="midnightblue" d="M668.837,-911.961C674.366,-909.359 679.63,-906.094 684,-902 754.368,-836.078 781.587,-716.995 789.911,-669.922"/>
<polygon fill="midnightblue" stroke="midnightblue" points="793.364,-670.494 791.561,-660.054 786.46,-669.34 793.364,-670.494"/>
</g>
<!-- Node39&#45;&gt;Node12 -->
<g id="edge49" class="edge"><title>Node39&#45;&gt;Node12</title>
<path fill="none" stroke="midnightblue" d="M264.033,-588.123C277.516,-622.067 313.27,-701.428 368,-746 484.245,-840.668 547.174,-802.733 684,-864 712.972,-876.973 744.899,-894.345 766.667,-906.686"/>
<polygon fill="midnightblue" stroke="midnightblue" points="765.203,-909.88 775.622,-911.803 768.676,-903.802 765.203,-909.88"/>
</g>
<!-- Node39&#45;&gt;Node14 -->
<g id="edge47" class="edge"><title>Node39&#45;&gt;Node14</title>
<path fill="none" stroke="midnightblue" d="M272.914,-555.832C292.521,-535.812 329.069,-502.575 368,-488 499.641,-438.717 561.11,-406.765 684,-475 744.666,-508.685 775.958,-591.71 787.575,-630.029"/>
<polygon fill="midnightblue" stroke="midnightblue" points="784.311,-631.343 790.449,-639.979 791.036,-629.401 784.311,-631.343"/>
</g>
<!-- Node39&#45;&gt;Node28 -->
<g id="edge57" class="edge"><title>Node39&#45;&gt;Node28</title>
<path fill="none" stroke="midnightblue" d="M272.032,-588.065C287.005,-605.265 311.363,-633.405 332,-658 348.241,-677.356 347.012,-687.932 368,-702 374.931,-706.646 382.759,-710.455 390.758,-713.573"/>
<polygon fill="midnightblue" stroke="midnightblue" points="389.59,-716.872 400.184,-716.923 391.934,-710.276 389.59,-716.872"/>
</g>
<!-- Node39&#45;&gt;Node32 -->
<g id="edge48" class="edge"><title>Node39&#45;&gt;Node32</title>
<path fill="none" stroke="midnightblue" d="M273.282,-588.13C292.997,-607.644 329.375,-639.44 368,-652 438.161,-674.815 461.837,-667.352 534,-652 534.206,-651.956 567.49,-637.113 593.961,-625.301"/>
<polygon fill="midnightblue" stroke="midnightblue" points="595.626,-628.391 603.331,-621.119 592.773,-621.999 595.626,-628.391"/>
</g>
<!-- Node39&#45;&gt;Node33 -->
<g id="edge50" class="edge"><title>Node39&#45;&gt;Node33</title>
<path fill="none" stroke="midnightblue" d="M280.687,-588.206C302.043,-602.394 335.517,-621.961 368,-630 439.617,-647.724 466.226,-659.152 534,-630 555.371,-620.808 550.511,-604.705 570,-592 573.311,-589.842 576.883,-587.882 580.566,-586.109"/>
<polygon fill="midnightblue" stroke="midnightblue" points="582.075,-589.27 589.858,-582.082 579.291,-582.847 582.075,-589.27"/>
</g>
<!-- Node39&#45;&gt;Node34 -->
<g id="edge52" class="edge"><title>Node39&#45;&gt;Node34</title>
<path fill="none" stroke="midnightblue" d="M320.178,-569.828C376.277,-567.314 460.956,-562.144 534,-552 547.517,-550.123 562.026,-547.443 575.434,-544.686"/>
<polygon fill="midnightblue" stroke="midnightblue" points="576.377,-548.064 585.439,-542.574 574.932,-541.215 576.377,-548.064"/>
</g>
<!-- Node40 -->
<g id="node40" class="node"><title>Node40</title>
<g id="a_node40"><a xlink:href="classrc_rectangle.html#a73f63f6c596e1ba27aed947a5523b09a" target="_top" xlink:title="rcRectangle::trim">
<polygon fill="white" stroke="black" points="405.212,-601 405.212,-621 496.788,-621 496.788,-601 405.212,-601"/>
<text text-anchor="middle" x="451" y="-607" font-family="Helvetica,sans-Serif" font-size="10.00">rcRectangle::trim</text>
</a>
</g>
</g>
<!-- Node39&#45;&gt;Node40 -->
<g id="edge46" class="edge"><title>Node39&#45;&gt;Node40</title>
<path fill="none" stroke="midnightblue" d="M320.072,-584.608C344.218,-589.513 371.65,-595.085 395.066,-599.841"/>
<polygon fill="midnightblue" stroke="midnightblue" points="394.677,-603.334 405.173,-601.895 396.07,-596.474 394.677,-603.334"/>
</g>
<!-- Node41 -->
<g id="node41" class="node"><title>Node41</title>
<g id="a_node41"><a xlink:href="classrc_visual_function.html#ad3f6f3313fd0dbfaa1d72ef7c08bb272" target="_top" xlink:title="rcVisualFunction::sharedKin">
<polygon fill="white" stroke="black" points="380.834,-331 380.834,-351 521.166,-351 521.166,-331 380.834,-331"/>
<text text-anchor="middle" x="451" y="-337" font-family="Helvetica,sans-Serif" font-size="10.00">rcVisualFunction::sharedKin</text>
</a>
</g>
</g>
<!-- Node39&#45;&gt;Node41 -->
<g id="edge51" class="edge"><title>Node39&#45;&gt;Node41</title>
<path fill="none" stroke="midnightblue" d="M271.501,-555.757C306.231,-513.972 398.487,-402.976 434.907,-359.158"/>
<polygon fill="midnightblue" stroke="midnightblue" points="437.713,-361.258 441.413,-351.331 432.33,-356.784 437.713,-361.258"/>
</g>
<!-- Node42 -->
<g id="node42" class="node"><title>Node42</title>
<g id="a_node42"><a xlink:href="classrc_rectangle.html#aad573ed10aad598b8ca0a6a351fbe72f" target="_top" xlink:title="rcRectangle::lr">
<polygon fill="white" stroke="black" points="586.766,-484 586.766,-504 667.234,-504 667.234,-484 586.766,-484"/>
<text text-anchor="middle" x="627" y="-490" font-family="Helvetica,sans-Serif" font-size="10.00">rcRectangle::lr</text>
</a>
</g>
</g>
<!-- Node39&#45;&gt;Node42 -->
<g id="edge53" class="edge"><title>Node39&#45;&gt;Node42</title>
<path fill="none" stroke="midnightblue" d="M281.681,-555.841C303.173,-542.096 336.267,-523.17 368,-514 438.405,-493.656 523.842,-491.118 576.566,-491.954"/>
<polygon fill="midnightblue" stroke="midnightblue" points="576.591,-495.455 586.661,-492.162 576.735,-488.457 576.591,-495.455"/>
</g>
<!-- Node43 -->
<g id="node43" class="node"><title>Node43</title>
<g id="a_node43"><a xlink:href="classrc_rectangle.html#ad69317345e356a2e6f70362c50dd543d" target="_top" xlink:title="rcRectangle::contains">
<polygon fill="white" stroke="black" points="394.919,-523 394.919,-543 507.081,-543 507.081,-523 394.919,-523"/>
<text text-anchor="middle" x="451" y="-529" font-family="Helvetica,sans-Serif" font-size="10.00">rcRectangle::contains</text>
</a>
</g>
</g>
<!-- Node39&#45;&gt;Node43 -->
<g id="edge54" class="edge"><title>Node39&#45;&gt;Node43</title>
<path fill="none" stroke="midnightblue" d="M320.072,-559.392C342.684,-554.799 368.179,-549.62 390.558,-545.074"/>
<polygon fill="midnightblue" stroke="midnightblue" points="391.496,-548.455 400.599,-543.035 390.102,-541.595 391.496,-548.455"/>
</g>
<!-- Node43&#45;&gt;Node34 -->
<g id="edge56" class="edge"><title>Node43&#45;&gt;Node34</title>
<path fill="none" stroke="midnightblue" d="M507.533,-533C529.328,-533 554.169,-533 575.455,-533"/>
<polygon fill="midnightblue" stroke="midnightblue" points="575.59,-536.5 585.59,-533 575.59,-529.5 575.59,-536.5"/>
</g>
<!-- Node43&#45;&gt;Node42 -->
<g id="edge55" class="edge"><title>Node43&#45;&gt;Node42</title>
<path fill="none" stroke="midnightblue" d="M496.809,-522.957C521.235,-517.482 551.516,-510.695 576.62,-505.068"/>
<polygon fill="midnightblue" stroke="midnightblue" points="577.681,-508.417 586.673,-502.815 576.15,-501.587 577.681,-508.417"/>
</g>
<!-- Node44&#45;&gt;Node41 -->
<g id="edge59" class="edge"><title>Node44&#45;&gt;Node41</title>
<path fill="none" stroke="midnightblue" d="M326.233,-353.892C340.595,-352.396 355.865,-350.806 370.597,-349.271"/>
<polygon fill="midnightblue" stroke="midnightblue" points="371.109,-352.737 380.692,-348.22 370.383,-345.775 371.109,-352.737"/>
</g>
<!-- Node45&#45;&gt;Node41 -->
<g id="edge61" class="edge"><title>Node45&#45;&gt;Node41</title>
<path fill="none" stroke="midnightblue" d="M331.683,-329.292C344.367,-330.547 357.601,-331.856 370.431,-333.126"/>
<polygon fill="midnightblue" stroke="midnightblue" points="370.32,-336.632 380.616,-334.134 371.009,-329.666 370.32,-336.632"/>
</g>
</g>
</svg>
