<?xml version="1.0" encoding="UTF-8" standalone="no"?>
<!DOCTYPE svg PUBLIC "-//W3C//DTD SVG 1.1//EN"
 "http://www.w3.org/Graphics/SVG/1.1/DTD/svg11.dtd">
<!-- Generated by graphviz version 2.32.0 (20130916.1925)
 -->
<!-- Title: rcKinetoscope::advance Pages: 1 -->
<!--zoomable 498 -->
<svg id="main" version="1.1" xmlns="http://www.w3.org/2000/svg" xmlns:xlink="http://www.w3.org/1999/xlink" xml:space="preserve" onload="init(evt)">
        <defs>
                <circle id="rim" cx="0" cy="0" r="7"/>
                <circle id="rim2" cx="0" cy="0" r="3.5"/>
                <g id="zoomPlus">
                        <use xlink:href="#rim" fill="#404040">
                                <set attributeName="fill" to="#808080" begin="zoomplus.mouseover" end="zoomplus.mouseout"/>
                        </use>
                        <path d="M-4,0h8M0,-4v8" fill="none" stroke="white" stroke-width="1.5" pointer-events="none"/>
                </g>
                <g id="zoomMin">
                        <use xlink:href="#rim" fill="#404040">
                                <set attributeName="fill" to="#808080" begin="zoomminus.mouseover" end="zoomminus.mouseout"/>
                        </use>
                        <path d="M-4,0h8" fill="none" stroke="white" stroke-width="1.5" pointer-events="none"/>
                </g>
                <g id="dirArrow">
                        <path fill="none" stroke="white" stroke-width="1.5" d="M0,-3.0v7 M-2.5,-0.5L0,-3.0L2.5,-0.5"/>
                </g>
               <g id="resetDef">
                       <use xlink:href="#rim2" fill="#404040">
                               <set attributeName="fill" to="#808080" begin="reset.mouseover" end="reset.mouseout"/>
                       </use>
               </g>
        </defs>

<script type="text/javascript">
var viewWidth = 954;
var viewHeight = 498;
var sectionId = 'dynsection-3';
</script>
<script xlink:href="svgpan.js"/>
<svg id="graph" class="graph">
<g id="viewport">
<title>rcKinetoscope::advance</title>
<polygon fill="white" stroke="white" points="-4,5 -4,-494 951,-494 951,5 -4,5"/>
<!-- Node1 -->
<g id="node1" class="node"><title>Node1</title>
<polygon fill="#bfbfbf" stroke="black" points="0.633301,-214 0.633301,-234 123.367,-234 123.367,-214 0.633301,-214"/>
<text text-anchor="middle" x="62" y="-220" font-family="Helvetica,sans-Serif" font-size="10.00">rcKinetoscope::advance</text>
</g>
<!-- Node2 -->
<g id="node2" class="node"><title>Node2</title>
<g id="a_node2"><a xlink:href="classrc_kinetoscope.html#adc8a89eabf3d80ce0de093373789a42b" target="_top" xlink:title="rcKinetoscope::channelAvailable">
<polygon fill="white" stroke="black" points="159.82,-435 159.82,-455 320.18,-455 320.18,-435 159.82,-435"/>
<text text-anchor="middle" x="240" y="-441" font-family="Helvetica,sans-Serif" font-size="10.00">rcKinetoscope::channelAvailable</text>
</a>
</g>
</g>
<!-- Node1&#45;&gt;Node2 -->
<g id="edge1" class="edge"><title>Node1&#45;&gt;Node2</title>
<path fill="none" stroke="midnightblue" d="M65.1371,-234.195C72.3943,-266.297 99.111,-366.284 160,-419 165.554,-423.808 172.02,-427.732 178.817,-430.933"/>
<polygon fill="midnightblue" stroke="midnightblue" points="177.659,-434.243 188.236,-434.866 180.356,-427.783 177.659,-434.243"/>
</g>
<!-- Node4 -->
<g id="node4" class="node"><title>Node4</title>
<g id="a_node4"><a xlink:href="classrc_kinetoscope.html#a003c046604a4eb9c2780de5e6b38d9f0" target="_top" xlink:title="rcKinetoscope::connect">
<polygon fill="white" stroke="black" points="180.025,-390 180.025,-410 299.975,-410 299.975,-390 180.025,-390"/>
<text text-anchor="middle" x="240" y="-396" font-family="Helvetica,sans-Serif" font-size="10.00">rcKinetoscope::connect</text>
</a>
</g>
</g>
<!-- Node1&#45;&gt;Node4 -->
<g id="edge3" class="edge"><title>Node1&#45;&gt;Node4</title>
<path fill="none" stroke="midnightblue" d="M66.3035,-234.268C75.8826,-262.335 106.447,-340.853 160,-380 163.248,-382.374 166.749,-384.468 170.407,-386.314"/>
<polygon fill="midnightblue" stroke="midnightblue" points="169.205,-389.608 179.769,-390.411 172.011,-383.195 169.205,-389.608"/>
</g>
<!-- Node5 -->
<g id="node5" class="node"><title>Node5</title>
<g id="a_node5"><a xlink:href="classrc_kinetoscope.html#a3fe695eff8568b858582734b201789bf" target="_top" xlink:title="rcKinetoscope::debugScreen">
<polygon fill="white" stroke="black" points="167.791,-351 167.791,-371 312.209,-371 312.209,-351 167.791,-351"/>
<text text-anchor="middle" x="240" y="-357" font-family="Helvetica,sans-Serif" font-size="10.00">rcKinetoscope::debugScreen</text>
</a>
</g>
</g>
<!-- Node1&#45;&gt;Node5 -->
<g id="edge4" class="edge"><title>Node1&#45;&gt;Node5</title>
<path fill="none" stroke="midnightblue" d="M68.9243,-234.001C82.3412,-255.797 117.232,-307.872 160,-336 166.997,-340.602 174.898,-344.404 182.929,-347.532"/>
<polygon fill="midnightblue" stroke="midnightblue" points="181.775,-350.836 192.37,-350.901 184.128,-344.243 181.775,-350.836"/>
</g>
<!-- Node19 -->
<g id="node19" class="node"><title>Node19</title>
<g id="a_node19"><a xlink:href="classrc_kinetoscope.html#ae46f297240640027b90d14915cc580e7" target="_top" xlink:title="rcKinetoscope::detail">
<polygon fill="white" stroke="black" points="185.584,-273 185.584,-293 294.416,-293 294.416,-273 185.584,-273"/>
<text text-anchor="middle" x="240" y="-279" font-family="Helvetica,sans-Serif" font-size="10.00">rcKinetoscope::detail</text>
</a>
</g>
</g>
<!-- Node1&#45;&gt;Node19 -->
<g id="edge19" class="edge"><title>Node1&#45;&gt;Node19</title>
<path fill="none" stroke="midnightblue" d="M90.9375,-234.047C110.276,-240.94 136.638,-250.211 160,-258 171.835,-261.946 184.717,-266.087 196.578,-269.838"/>
<polygon fill="midnightblue" stroke="midnightblue" points="195.667,-273.221 206.257,-272.885 197.769,-266.544 195.667,-273.221"/>
</g>
<!-- Node20 -->
<g id="node20" class="node"><title>Node20</title>
<g id="a_node20"><a xlink:href="classrc_kinetoscope.html#a3530c24e6cd1c3787b5b7d6d8313c26f" target="_top" xlink:title="rcKinetoscope::isCardiacCell">
<polygon fill="white" stroke="black" points="168.084,-195 168.084,-215 311.916,-215 311.916,-195 168.084,-195"/>
<text text-anchor="middle" x="240" y="-201" font-family="Helvetica,sans-Serif" font-size="10.00">rcKinetoscope::isCardiacCell</text>
</a>
</g>
</g>
<!-- Node1&#45;&gt;Node20 -->
<g id="edge20" class="edge"><title>Node1&#45;&gt;Node20</title>
<path fill="none" stroke="midnightblue" d="M123.569,-217.461C134.644,-216.266 146.362,-215.001 157.921,-213.753"/>
<polygon fill="midnightblue" stroke="midnightblue" points="158.45,-217.216 168.016,-212.663 157.699,-210.257 158.45,-217.216"/>
</g>
<!-- Node21 -->
<g id="node21" class="node"><title>Node21</title>
<g id="a_node21"><a xlink:href="classrc_kinetoscope.html#afdc6f16a29d2822b29e120988e7595ff" target="_top" xlink:title="rcKinetoscope::organism">
<polygon fill="white" stroke="black" points="369.973,-205 369.973,-225 496.027,-225 496.027,-205 369.973,-205"/>
<text text-anchor="middle" x="433" y="-211" font-family="Helvetica,sans-Serif" font-size="10.00">rcKinetoscope::organism</text>
</a>
</g>
</g>
<!-- Node1&#45;&gt;Node21 -->
<g id="edge26" class="edge"><title>Node1&#45;&gt;Node21</title>
<path fill="none" stroke="midnightblue" d="M123.522,-225.367C175.619,-226.217 252.792,-226.696 320,-224 332.892,-223.483 346.598,-222.632 359.838,-221.655"/>
<polygon fill="midnightblue" stroke="midnightblue" points="360.147,-225.141 369.85,-220.886 359.611,-218.162 360.147,-225.141"/>
</g>
<!-- Node22 -->
<g id="node22" class="node"><title>Node22</title>
<g id="a_node22"><a xlink:href="classrc_kinetoscope.html#a8143c946161e98827336c73f30340848" target="_top" xlink:title="rcKinetoscope::organismName">
<polygon fill="white" stroke="black" points="356.636,-156 356.636,-176 509.364,-176 509.364,-156 356.636,-156"/>
<text text-anchor="middle" x="433" y="-162" font-family="Helvetica,sans-Serif" font-size="10.00">rcKinetoscope::organismName</text>
</a>
</g>
</g>
<!-- Node1&#45;&gt;Node22 -->
<g id="edge27" class="edge"><title>Node1&#45;&gt;Node22</title>
<path fill="none" stroke="midnightblue" d="M83.245,-213.996C102.485,-204.994 132.486,-192.251 160,-186 221.271,-172.081 292.105,-167.218 346.126,-165.762"/>
<polygon fill="midnightblue" stroke="midnightblue" points="346.439,-169.256 356.354,-165.522 346.274,-162.258 346.439,-169.256"/>
</g>
<!-- Node23 -->
<g id="node23" class="node"><title>Node23</title>
<g id="a_node23"><a xlink:href="classrc_timing_info.html#a5e7930bfdd3c0b07d791a153c79dfdae" target="_top" xlink:title="rcTimingInfo::nextPass">
<polygon fill="white" stroke="black" points="181.331,-117 181.331,-137 298.669,-137 298.669,-117 181.331,-117"/>
<text text-anchor="middle" x="240" y="-123" font-family="Helvetica,sans-Serif" font-size="10.00">rcTimingInfo::nextPass</text>
</a>
</g>
</g>
<!-- Node1&#45;&gt;Node23 -->
<g id="edge23" class="edge"><title>Node1&#45;&gt;Node23</title>
<path fill="none" stroke="midnightblue" d="M74.1097,-213.784C91.324,-198.434 126.012,-169.372 160,-152 168.935,-147.433 178.865,-143.499 188.585,-140.192"/>
<polygon fill="midnightblue" stroke="midnightblue" points="189.749,-143.495 198.191,-137.094 187.6,-136.833 189.749,-143.495"/>
</g>
<!-- Node26 -->
<g id="node26" class="node"><title>Node26</title>
<g id="a_node26"><a xlink:href="classrc_timing_info.html#a76381999c6a6d932ccec2d42c7b4d61b" target="_top" xlink:title="rcTimingInfo::printInfo">
<polygon fill="white" stroke="black" points="183.831,-39 183.831,-59 296.169,-59 296.169,-39 183.831,-39"/>
<text text-anchor="middle" x="240" y="-45" font-family="Helvetica,sans-Serif" font-size="10.00">rcTimingInfo::printInfo</text>
</a>
</g>
</g>
<!-- Node1&#45;&gt;Node26 -->
<g id="edge28" class="edge"><title>Node1&#45;&gt;Node26</title>
<path fill="none" stroke="midnightblue" d="M66.3237,-213.797C75.9542,-185.908 106.638,-107.889 160,-69 164.25,-65.9026 168.932,-63.283 173.83,-61.0677"/>
<polygon fill="midnightblue" stroke="midnightblue" points="175.43,-64.1995 183.459,-57.2868 172.872,-57.6838 175.43,-64.1995"/>
</g>
<!-- Node27 -->
<g id="node27" class="node"><title>Node27</title>
<g id="a_node27"><a xlink:href="classrc_window.html#a0e1cf40e57b974aec21e6bc47d52f8b4" target="_top" xlink:title="rcWindow::setAllPixels">
<polygon fill="white" stroke="black" points="374.709,-263 374.709,-283 491.291,-283 491.291,-263 374.709,-263"/>
<text text-anchor="middle" x="433" y="-269" font-family="Helvetica,sans-Serif" font-size="10.00">rcWindow::setAllPixels</text>
</a>
</g>
</g>
<!-- Node1&#45;&gt;Node27 -->
<g id="edge29" class="edge"><title>Node1&#45;&gt;Node27</title>
<path fill="none" stroke="midnightblue" d="M71.2954,-234.16C86.5999,-252.002 121.273,-288.361 160,-302 227.073,-325.622 249.459,-310.984 320,-302 321.723,-301.781 354.299,-293.327 383.875,-285.605"/>
<polygon fill="midnightblue" stroke="midnightblue" points="384.951,-288.941 393.741,-283.026 383.181,-282.168 384.951,-288.941"/>
</g>
<!-- Node28 -->
<g id="node28" class="node"><title>Node28</title>
<g id="a_node28"><a xlink:href="classrc_kinetoscope.html#a09d9b9b817065c390145daab398fa6d6" target="_top" xlink:title="rcKinetoscope::sourceMotion">
<polygon fill="white" stroke="black" points="167.522,-0 167.522,-20 312.478,-20 312.478,-0 167.522,-0"/>
<text text-anchor="middle" x="240" y="-6" font-family="Helvetica,sans-Serif" font-size="10.00">rcKinetoscope::sourceMotion</text>
</a>
</g>
</g>
<!-- Node1&#45;&gt;Node28 -->
<g id="edge34" class="edge"><title>Node1&#45;&gt;Node28</title>
<path fill="none" stroke="midnightblue" d="M64.9587,-213.59C71.6863,-180.85 97.0033,-79.1779 160,-29 161.838,-27.5361 163.771,-26.1823 165.779,-24.9304"/>
<polygon fill="midnightblue" stroke="midnightblue" points="167.788,-27.8281 175.003,-20.0693 164.524,-21.6355 167.788,-27.8281"/>
</g>
<!-- Node29 -->
<g id="node29" class="node"><title>Node29</title>
<g id="a_node29"><a xlink:href="classrc_timing_info.html#a50ba9cb10b77d8673443680f2a42e4c9" target="_top" xlink:title="rcTimingInfo::touch">
<polygon fill="white" stroke="black" points="189.666,-78 189.666,-98 290.334,-98 290.334,-78 189.666,-78"/>
<text text-anchor="middle" x="240" y="-84" font-family="Helvetica,sans-Serif" font-size="10.00">rcTimingInfo::touch</text>
</a>
</g>
</g>
<!-- Node1&#45;&gt;Node29 -->
<g id="edge35" class="edge"><title>Node1&#45;&gt;Node29</title>
<path fill="none" stroke="midnightblue" d="M68.5128,-213.787C81.3482,-191.025 115.548,-135.941 160,-108 166.094,-104.17 172.886,-101.072 179.857,-98.5665"/>
<polygon fill="midnightblue" stroke="midnightblue" points="180.969,-101.886 189.427,-95.5046 178.836,-95.2186 180.969,-101.886"/>
</g>
<!-- Node3 -->
<g id="node3" class="node"><title>Node3</title>
<g id="a_node3"><a xlink:href="classrc_kinetoscope.html#ac9568a6bf45d811c47e89632aa58f945" target="_top" xlink:title="rcKinetoscope::have">
<polygon fill="white" stroke="black" points="379.695,-470 379.695,-490 486.305,-490 486.305,-470 379.695,-470"/>
<text text-anchor="middle" x="433" y="-476" font-family="Helvetica,sans-Serif" font-size="10.00">rcKinetoscope::have</text>
</a>
</g>
</g>
<!-- Node2&#45;&gt;Node3 -->
<g id="edge2" class="edge"><title>Node2&#45;&gt;Node3</title>
<path fill="none" stroke="midnightblue" d="M295.733,-455.03C318.786,-459.254 345.74,-464.193 369.563,-468.559"/>
<polygon fill="midnightblue" stroke="midnightblue" points="369.094,-472.031 379.561,-470.391 370.355,-465.146 369.094,-472.031"/>
</g>
<!-- Node6 -->
<g id="node6" class="node"><title>Node6</title>
<g id="a_node6"><a xlink:href="classrc_kinetoscope.html#aaf31cab4920b5c5f9f39370d9755a3af" target="_top" xlink:title="rcKinetoscope::isDebugOn">
<polygon fill="white" stroke="black" points="365.522,-341 365.522,-361 500.478,-361 500.478,-341 365.522,-341"/>
<text text-anchor="middle" x="433" y="-347" font-family="Helvetica,sans-Serif" font-size="10.00">rcKinetoscope::isDebugOn</text>
</a>
</g>
</g>
<!-- Node5&#45;&gt;Node6 -->
<g id="edge5" class="edge"><title>Node5&#45;&gt;Node6</title>
<path fill="none" stroke="midnightblue" d="M312.393,-357.262C326.376,-356.53 341.097,-355.759 355.247,-355.018"/>
<polygon fill="midnightblue" stroke="midnightblue" points="355.627,-358.503 365.43,-354.485 355.261,-351.513 355.627,-358.503"/>
</g>
<!-- Node7 -->
<g id="node7" class="node"><title>Node7</title>
<g id="a_node7"><a xlink:href="classrc_kinetoscope.html#a82a8a5c4ba76ee208081562a31bf2daf" target="_top" xlink:title="rcKinetoscope::iframe">
<polygon fill="white" stroke="black" points="376.646,-302 376.646,-322 489.354,-322 489.354,-302 376.646,-302"/>
<text text-anchor="middle" x="433" y="-308" font-family="Helvetica,sans-Serif" font-size="10.00">rcKinetoscope::iframe</text>
</a>
</g>
</g>
<!-- Node5&#45;&gt;Node7 -->
<g id="edge6" class="edge"><title>Node5&#45;&gt;Node7</title>
<path fill="none" stroke="midnightblue" d="M280.113,-350.966C309.854,-343.336 350.963,-332.79 382.914,-324.593"/>
<polygon fill="midnightblue" stroke="midnightblue" points="384.123,-327.896 392.94,-322.021 382.384,-321.116 384.123,-327.896"/>
</g>
<!-- Node8 -->
<g id="node8" class="node"><title>Node8</title>
<g id="a_node8"><a xlink:href="classrc_window.html#a9ab724dc45a3c3c2beee6c8ed558de1e" target="_top" xlink:title="rcWindow::depth">
<polygon fill="white" stroke="black" points="574.761,-386 574.761,-406 665.239,-406 665.239,-386 574.761,-386"/>
<text text-anchor="middle" x="620" y="-392" font-family="Helvetica,sans-Serif" font-size="10.00">rcWindow::depth</text>
</a>
</g>
</g>
<!-- Node5&#45;&gt;Node8 -->
<g id="edge7" class="edge"><title>Node5&#45;&gt;Node8</title>
<path fill="none" stroke="midnightblue" d="M297.892,-371.052C305.621,-373.647 313.217,-376.906 320,-381 340.478,-393.358 334.151,-411.269 356,-421 432.202,-454.938 532.875,-428.035 584.786,-409.61"/>
<polygon fill="midnightblue" stroke="midnightblue" points="586.307,-412.781 594.496,-406.059 583.902,-406.207 586.307,-412.781"/>
</g>
<!-- Node9 -->
<g id="node9" class="node"><title>Node9</title>
<g id="a_node9"><a xlink:href="classrc_window.html#a57edd985555420d24b83c6185988e959" target="_top" xlink:title="rcWindow::copyPixelsFrom\lWindow">
<polygon fill="white" stroke="black" points="364.709,-380 364.709,-412 501.291,-412 501.291,-380 364.709,-380"/>
<text text-anchor="start" x="372.709" y="-398" font-family="Helvetica,sans-Serif" font-size="10.00">rcWindow::copyPixelsFrom</text>
<text text-anchor="middle" x="433" y="-386" font-family="Helvetica,sans-Serif" font-size="10.00">Window</text>
</a>
</g>
</g>
<!-- Node5&#45;&gt;Node9 -->
<g id="edge8" class="edge"><title>Node5&#45;&gt;Node9</title>
<path fill="none" stroke="midnightblue" d="M295.733,-371.03C314.122,-374.399 334.993,-378.224 354.778,-381.849"/>
<polygon fill="midnightblue" stroke="midnightblue" points="354.228,-385.307 364.695,-383.667 355.49,-378.421 354.228,-385.307"/>
</g>
<!-- Node9&#45;&gt;Node8 -->
<g id="edge9" class="edge"><title>Node9&#45;&gt;Node8</title>
<path fill="none" stroke="midnightblue" d="M501.313,-396C522.075,-396 544.671,-396 564.461,-396"/>
<polygon fill="midnightblue" stroke="midnightblue" points="564.53,-399.5 574.53,-396 564.53,-392.5 564.53,-399.5"/>
</g>
<!-- Node10 -->
<g id="node10" class="node"><title>Node10</title>
<g id="a_node10"><a xlink:href="classrc_window.html#a958e7e0bd74b12cbcb44e73a2692400a" target="_top" xlink:title="rcWindow::height">
<polygon fill="white" stroke="black" points="573.65,-346 573.65,-366 666.35,-366 666.35,-346 573.65,-346"/>
<text text-anchor="middle" x="620" y="-352" font-family="Helvetica,sans-Serif" font-size="10.00">rcWindow::height</text>
</a>
</g>
</g>
<!-- Node9&#45;&gt;Node10 -->
<g id="edge10" class="edge"><title>Node9&#45;&gt;Node10</title>
<path fill="none" stroke="midnightblue" d="M501.313,-381.446C521.723,-377.033 543.905,-372.237 563.452,-368.01"/>
<polygon fill="midnightblue" stroke="midnightblue" points="564.376,-371.392 573.411,-365.857 562.897,-364.55 564.376,-371.392"/>
</g>
<!-- Node11 -->
<g id="node11" class="node"><title>Node11</title>
<g id="a_node11"><a xlink:href="classrc_window.html#a0ae0c2adbe34085eb07c93edd60b342a" target="_top" xlink:title="rcWindow::width">
<polygon fill="white" stroke="black" points="575.601,-304 575.601,-324 664.399,-324 664.399,-304 575.601,-304"/>
<text text-anchor="middle" x="620" y="-310" font-family="Helvetica,sans-Serif" font-size="10.00">rcWindow::width</text>
</a>
</g>
</g>
<!-- Node9&#45;&gt;Node11 -->
<g id="edge11" class="edge"><title>Node9&#45;&gt;Node11</title>
<path fill="none" stroke="midnightblue" d="M489.588,-380C496.663,-377.098 503.645,-373.773 510,-370 528.664,-358.919 527.203,-347.852 546,-337 552.408,-333.3 559.483,-330.122 566.631,-327.413"/>
<polygon fill="midnightblue" stroke="midnightblue" points="568.085,-330.612 576.367,-324.005 565.773,-324.005 568.085,-330.612"/>
</g>
<!-- Node12 -->
<g id="node12" class="node"><title>Node12</title>
<g id="a_node12"><a xlink:href="classrc_window.html#a232627a15bd75725861721177a38df82" target="_top" xlink:title="rcWindow::rowPointer">
<polygon fill="white" stroke="black" points="563.375,-264 563.375,-284 676.625,-284 676.625,-264 563.375,-264"/>
<text text-anchor="middle" x="620" y="-270" font-family="Helvetica,sans-Serif" font-size="10.00">rcWindow::rowPointer</text>
</a>
</g>
</g>
<!-- Node9&#45;&gt;Node12 -->
<g id="edge12" class="edge"><title>Node9&#45;&gt;Node12</title>
<path fill="none" stroke="midnightblue" d="M495.732,-379.823C500.872,-377.046 505.726,-373.798 510,-370 537.64,-345.441 517.761,-318.867 546,-295 548.889,-292.558 552.048,-290.399 555.379,-288.492"/>
<polygon fill="midnightblue" stroke="midnightblue" points="557.094,-291.549 564.533,-284.005 554.013,-285.263 557.094,-291.549"/>
</g>
<!-- Node13 -->
<g id="node13" class="node"><title>Node13</title>
<g id="a_node13"><a xlink:href="classrc_frame.html#a401a851fcb8a4328949d38cb34b572f6" target="_top" xlink:title="rcFrame::rowPointer">
<polygon fill="white" stroke="black" points="739.712,-205 739.712,-225 846.288,-225 846.288,-205 739.712,-205"/>
<text text-anchor="middle" x="793" y="-211" font-family="Helvetica,sans-Serif" font-size="10.00">rcFrame::rowPointer</text>
</a>
</g>
</g>
<!-- Node12&#45;&gt;Node13 -->
<g id="edge13" class="edge"><title>Node12&#45;&gt;Node13</title>
<path fill="none" stroke="midnightblue" d="M648.242,-263.984C670.24,-255.96 702.029,-244.513 730,-235 736.547,-232.773 743.503,-230.47 750.299,-228.253"/>
<polygon fill="midnightblue" stroke="midnightblue" points="751.642,-231.497 760.077,-225.085 749.485,-224.837 751.642,-231.497"/>
</g>
<!-- Node14 -->
<g id="node14" class="node"><title>Node14</title>
<g id="a_node14"><a xlink:href="classrc_rect.html#a50236160751c949d8718f8d4d17f7923" target="_top" xlink:title="rcRect::y">
<polygon fill="white" stroke="black" points="765.276,-322 765.276,-342 820.724,-342 820.724,-322 765.276,-322"/>
<text text-anchor="middle" x="793" y="-328" font-family="Helvetica,sans-Serif" font-size="10.00">rcRect::y</text>
</a>
</g>
</g>
<!-- Node12&#45;&gt;Node14 -->
<g id="edge14" class="edge"><title>Node12&#45;&gt;Node14</title>
<path fill="none" stroke="midnightblue" d="M660.402,-284.079C671.395,-287.229 683.265,-290.951 694,-295 710.556,-301.244 713.546,-305.493 730,-312 738.164,-315.229 747.078,-318.338 755.536,-321.104"/>
<polygon fill="midnightblue" stroke="midnightblue" points="754.592,-324.477 765.183,-324.18 756.718,-317.808 754.592,-324.477"/>
</g>
<!-- Node16 -->
<g id="node16" class="node"><title>Node16</title>
<g id="a_node16"><a xlink:href="classrc_rect.html#ac0f95519a41dcf7e33bec85ccb8e7aff" target="_top" xlink:title="rcRect::x">
<polygon fill="white" stroke="black" points="765.276,-283 765.276,-303 820.724,-303 820.724,-283 765.276,-283"/>
<text text-anchor="middle" x="793" y="-289" font-family="Helvetica,sans-Serif" font-size="10.00">rcRect::x</text>
</a>
</g>
</g>
<!-- Node12&#45;&gt;Node16 -->
<g id="edge16" class="edge"><title>Node12&#45;&gt;Node16</title>
<path fill="none" stroke="midnightblue" d="M676.992,-280.221C702.67,-283.074 732.395,-286.377 755.193,-288.91"/>
<polygon fill="midnightblue" stroke="midnightblue" points="754.815,-292.39 765.14,-290.016 755.588,-285.433 754.815,-292.39"/>
</g>
<!-- Node18 -->
<g id="node18" class="node"><title>Node18</title>
<g id="a_node18"><a xlink:href="classrc_frame.html#aaef8303c840834284eb9c60d33bf40c1" target="_top" xlink:title="rcFrame::depth">
<polygon fill="white" stroke="black" points="751.099,-244 751.099,-264 834.901,-264 834.901,-244 751.099,-244"/>
<text text-anchor="middle" x="793" y="-250" font-family="Helvetica,sans-Serif" font-size="10.00">rcFrame::depth</text>
</a>
</g>
</g>
<!-- Node12&#45;&gt;Node18 -->
<g id="edge18" class="edge"><title>Node12&#45;&gt;Node18</title>
<path fill="none" stroke="midnightblue" d="M676.992,-267.451C697.657,-265.034 720.943,-262.311 741.13,-259.95"/>
<polygon fill="midnightblue" stroke="midnightblue" points="741.543,-263.425 751.068,-258.787 740.73,-256.473 741.543,-263.425"/>
</g>
<!-- Node15 -->
<g id="node15" class="node"><title>Node15</title>
<g id="a_node15"><a xlink:href="classrc_pair.html#a87400f83938e920c405c40aa449d3607" target="_top" xlink:title="rcPair::y">
<polygon fill="white" stroke="black" points="892.665,-322 892.665,-342 945.335,-342 945.335,-322 892.665,-322"/>
<text text-anchor="middle" x="919" y="-328" font-family="Helvetica,sans-Serif" font-size="10.00">rcPair::y</text>
</a>
</g>
</g>
<!-- Node14&#45;&gt;Node15 -->
<g id="edge15" class="edge"><title>Node14&#45;&gt;Node15</title>
<path fill="none" stroke="midnightblue" d="M820.906,-332C838.899,-332 862.771,-332 882.342,-332"/>
<polygon fill="midnightblue" stroke="midnightblue" points="882.418,-335.5 892.418,-332 882.418,-328.5 882.418,-335.5"/>
</g>
<!-- Node17 -->
<g id="node17" class="node"><title>Node17</title>
<g id="a_node17"><a xlink:href="classrc_pair.html#ad1a3cb1e7fdbe119ce1295514b1bb49d" target="_top" xlink:title="rcPair::x">
<polygon fill="white" stroke="black" points="892.665,-283 892.665,-303 945.335,-303 945.335,-283 892.665,-283"/>
<text text-anchor="middle" x="919" y="-289" font-family="Helvetica,sans-Serif" font-size="10.00">rcPair::x</text>
</a>
</g>
</g>
<!-- Node16&#45;&gt;Node17 -->
<g id="edge17" class="edge"><title>Node16&#45;&gt;Node17</title>
<path fill="none" stroke="midnightblue" d="M820.906,-293C838.899,-293 862.771,-293 882.342,-293"/>
<polygon fill="midnightblue" stroke="midnightblue" points="882.418,-296.5 892.418,-293 882.418,-289.5 882.418,-296.5"/>
</g>
<!-- Node20&#45;&gt;Node21 -->
<g id="edge21" class="edge"><title>Node20&#45;&gt;Node21</title>
<path fill="none" stroke="midnightblue" d="M312.121,-208.724C327.695,-209.539 344.196,-210.403 359.811,-211.22"/>
<polygon fill="midnightblue" stroke="midnightblue" points="359.757,-214.722 369.926,-211.75 360.123,-207.732 359.757,-214.722"/>
</g>
<!-- Node20&#45;&gt;Node22 -->
<g id="edge22" class="edge"><title>Node20&#45;&gt;Node22</title>
<path fill="none" stroke="midnightblue" d="M290.187,-194.957C315.474,-189.793 346.476,-183.463 373.038,-178.039"/>
<polygon fill="midnightblue" stroke="midnightblue" points="373.882,-181.439 382.979,-176.009 372.481,-174.581 373.882,-181.439"/>
</g>
<!-- Node24 -->
<g id="node24" class="node"><title>Node24</title>
<g id="a_node24"><a xlink:href="classrc_timestamp.html#a7e749f376ff8741e79a2dbba2419e78f" target="_top" xlink:title="rcTimestamp::now">
<polygon fill="white" stroke="black" points="384.341,-117 384.341,-137 481.659,-137 481.659,-117 384.341,-117"/>
<text text-anchor="middle" x="433" y="-123" font-family="Helvetica,sans-Serif" font-size="10.00">rcTimestamp::now</text>
</a>
</g>
</g>
<!-- Node23&#45;&gt;Node24 -->
<g id="edge24" class="edge"><title>Node23&#45;&gt;Node24</title>
<path fill="none" stroke="midnightblue" d="M298.825,-127C322.64,-127 350.178,-127 374.01,-127"/>
<polygon fill="midnightblue" stroke="midnightblue" points="374.323,-130.5 384.323,-127 374.323,-123.5 374.323,-130.5"/>
</g>
<!-- Node25 -->
<g id="node25" class="node"><title>Node25</title>
<g id="a_node25"><a xlink:href="rc__timestamp__mac_8cpp.html#af7988734f76c2effcc4118da588b8779" target="_top" xlink:title="getCurrentTimestamp">
<polygon fill="white" stroke="black" points="563.833,-117 563.833,-137 676.167,-137 676.167,-117 563.833,-117"/>
<text text-anchor="middle" x="620" y="-123" font-family="Helvetica,sans-Serif" font-size="10.00">getCurrentTimestamp</text>
</a>
</g>
</g>
<!-- Node24&#45;&gt;Node25 -->
<g id="edge25" class="edge"><title>Node24&#45;&gt;Node25</title>
<path fill="none" stroke="midnightblue" d="M482.124,-127C503.853,-127 529.864,-127 553.348,-127"/>
<polygon fill="midnightblue" stroke="midnightblue" points="553.585,-130.5 563.585,-127 553.585,-123.5 553.585,-130.5"/>
</g>
<!-- Node27&#45;&gt;Node8 -->
<g id="edge32" class="edge"><title>Node27&#45;&gt;Node8</title>
<path fill="none" stroke="midnightblue" d="M491.592,-282.078C498.269,-284.828 504.607,-288.39 510,-293 540.256,-318.86 516.04,-348.797 546,-375 551.528,-379.835 558.105,-383.56 565.014,-386.429"/>
<polygon fill="midnightblue" stroke="midnightblue" points="563.977,-389.775 574.572,-389.835 566.327,-383.182 563.977,-389.775"/>
</g>
<!-- Node27&#45;&gt;Node10 -->
<g id="edge30" class="edge"><title>Node27&#45;&gt;Node10</title>
<path fill="none" stroke="midnightblue" d="M488.339,-283.126C495.91,-285.713 503.36,-288.951 510,-293 530.42,-305.453 525.884,-320.061 546,-333 551.706,-336.671 558.041,-339.792 564.526,-342.437"/>
<polygon fill="midnightblue" stroke="midnightblue" points="563.485,-345.784 574.078,-345.98 565.92,-339.221 563.485,-345.784"/>
</g>
<!-- Node27&#45;&gt;Node11 -->
<g id="edge31" class="edge"><title>Node27&#45;&gt;Node11</title>
<path fill="none" stroke="midnightblue" d="M479.256,-283.03C505.36,-288.815 538.326,-296.121 565.683,-302.184"/>
<polygon fill="midnightblue" stroke="midnightblue" points="564.965,-305.609 575.485,-304.356 566.479,-298.775 564.965,-305.609"/>
</g>
<!-- Node27&#45;&gt;Node12 -->
<g id="edge33" class="edge"><title>Node27&#45;&gt;Node12</title>
<path fill="none" stroke="midnightblue" d="M491.521,-273.311C511.03,-273.416 532.973,-273.535 553.084,-273.644"/>
<polygon fill="midnightblue" stroke="midnightblue" points="553.081,-277.144 563.1,-273.698 553.119,-270.144 553.081,-277.144"/>
</g>
<!-- Node29&#45;&gt;Node24 -->
<g id="edge36" class="edge"><title>Node29&#45;&gt;Node24</title>
<path fill="none" stroke="midnightblue" d="M290.187,-98.0435C315.866,-103.287 347.439,-109.734 374.27,-115.212"/>
<polygon fill="midnightblue" stroke="midnightblue" points="373.801,-118.689 384.299,-117.26 375.202,-111.83 373.801,-118.689"/>
</g>
<!-- Node30 -->
<g id="node30" class="node"><title>Node30</title>
<g id="a_node30"><a xlink:href="classrc_timestamp.html#a7a76776edb5c337196cf10c009339d15" target="_top" xlink:title="rcTimestamp::secs">
<polygon fill="white" stroke="black" points="383.232,-78 383.232,-98 482.768,-98 482.768,-78 383.232,-78"/>
<text text-anchor="middle" x="433" y="-84" font-family="Helvetica,sans-Serif" font-size="10.00">rcTimestamp::secs</text>
</a>
</g>
</g>
<!-- Node29&#45;&gt;Node30 -->
<g id="edge37" class="edge"><title>Node29&#45;&gt;Node30</title>
<path fill="none" stroke="midnightblue" d="M290.684,-88C315.86,-88 346.602,-88 372.976,-88"/>
<polygon fill="midnightblue" stroke="midnightblue" points="373.225,-91.5001 383.225,-88 373.225,-84.5001 373.225,-91.5001"/>
</g>
<!-- Node31 -->
<g id="node31" class="node"><title>Node31</title>
<g id="a_node31"><a xlink:href="rc__timestamp_8h.html#ac624900be52fa7f30d3ad72543cc725d" target="_top" xlink:title="convertTimestampToSeconds">
<polygon fill="white" stroke="black" points="546.321,-78 546.321,-98 693.679,-98 693.679,-78 546.321,-78"/>
<text text-anchor="middle" x="620" y="-84" font-family="Helvetica,sans-Serif" font-size="10.00">convertTimestampToSeconds</text>
</a>
</g>
</g>
<!-- Node30&#45;&gt;Node31 -->
<g id="edge38" class="edge"><title>Node30&#45;&gt;Node31</title>
<path fill="none" stroke="midnightblue" d="M483.091,-88C499.273,-88 517.748,-88 535.75,-88"/>
<polygon fill="midnightblue" stroke="midnightblue" points="535.979,-91.5001 545.979,-88 535.979,-84.5001 535.979,-91.5001"/>
</g>
<!-- Node32 -->
<g id="node32" class="node"><title>Node32</title>
<g id="a_node32"><a xlink:href="rc__timestamp__mac_8cpp.html#a7962719b626553bf7a913f7c2671b777" target="_top" xlink:title="getTimestampResolution">
<polygon fill="white" stroke="black" points="729.88,-78 729.88,-98 856.12,-98 856.12,-78 729.88,-78"/>
<text text-anchor="middle" x="793" y="-84" font-family="Helvetica,sans-Serif" font-size="10.00">getTimestampResolution</text>
</a>
</g>
</g>
<!-- Node31&#45;&gt;Node32 -->
<g id="edge39" class="edge"><title>Node31&#45;&gt;Node32</title>
<path fill="none" stroke="midnightblue" d="M694.015,-88C702.47,-88 711.09,-88 719.537,-88"/>
<polygon fill="midnightblue" stroke="midnightblue" points="719.731,-91.5001 729.731,-88 719.731,-84.5001 719.731,-91.5001"/>
</g>
</g>
</svg>
        <g id="navigator" transform="translate(0 0)" fill="#404254">
                <rect fill="#f2f5e9" fill-opacity="0.5" stroke="#606060" stroke-width=".5" x="0" y="0" width="60" height="60"/>
                <use id="zoomplus" xlink:href="#zoomPlus" x="17" y="9" onmousedown="handleZoom(evt,'in')"/>
                <use id="zoomminus" xlink:href="#zoomMin" x="42" y="9" onmousedown="handleZoom(evt,'out')"/>
                <use id="reset" xlink:href="#resetDef" x="30" y="36" onmousedown="handleReset()"/>
                <g id="arrowUp" xlink:href="#dirArrow" transform="translate(30 24)" onmousedown="handlePan(0,-1)">
                  <use xlink:href="#rim" fill="#404040">
                        <set attributeName="fill" to="#808080" begin="arrowUp.mouseover" end="arrowUp.mouseout"/>
                  </use>
                  <path fill="none" stroke="white" stroke-width="1.5" d="M0,-3.0v7 M-2.5,-0.5L0,-3.0L2.5,-0.5"/>
                </g>
                <g id="arrowRight" xlink:href="#dirArrow" transform="rotate(90) translate(36 -43)" onmousedown="handlePan(1,0)">
                  <use xlink:href="#rim" fill="#404040">
                        <set attributeName="fill" to="#808080" begin="arrowRight.mouseover" end="arrowRight.mouseout"/>
                  </use>
                  <path fill="none" stroke="white" stroke-width="1.5" d="M0,-3.0v7 M-2.5,-0.5L0,-3.0L2.5,-0.5"/>
                </g>
                <g id="arrowDown" xlink:href="#dirArrow" transform="rotate(180) translate(-30 -48)" onmousedown="handlePan(0,1)">
                  <use xlink:href="#rim" fill="#404040">
                        <set attributeName="fill" to="#808080" begin="arrowDown.mouseover" end="arrowDown.mouseout"/>
                  </use>
                  <path fill="none" stroke="white" stroke-width="1.5" d="M0,-3.0v7 M-2.5,-0.5L0,-3.0L2.5,-0.5"/>
                </g>
                <g id="arrowLeft" xlink:href="#dirArrow" transform="rotate(270) translate(-36 17)" onmousedown="handlePan(-1,0)">
                  <use xlink:href="#rim" fill="#404040">
                        <set attributeName="fill" to="#808080" begin="arrowLeft.mouseover" end="arrowLeft.mouseout"/>
                  </use>
                  <path fill="none" stroke="white" stroke-width="1.5" d="M0,-3.0v7 M-2.5,-0.5L0,-3.0L2.5,-0.5"/>
                </g>
        </g>
        <svg viewBox="0 0 15 15" width="100%" height="30px" preserveAspectRatio="xMaxYMin meet">
         <g id="arrow_out" transform="scale(0.3 0.3)">
          <a xlink:href="classrc_kinetoscope_a6c7d26c32da53421777db8041fb1e3a9_cgraph_org.svg" target="_base">
           <rect id="button" ry="5" rx="5" y="6" x="6" height="38" width="38"
                fill="#f2f5e9" fill-opacity="0.5" stroke="#606060" stroke-width="1.0"/>
           <path id="arrow"
             d="M 11.500037,31.436501 C 11.940474,20.09759 22.043105,11.32322 32.158766,21.979434 L 37.068811,17.246167 C 37.068811,17.246167 37.088388,32 37.088388,32 L 22.160133,31.978069 C 22.160133,31.978069 26.997745,27.140456 26.997745,27.140456 C 18.528582,18.264221 13.291696,25.230495 11.500037,31.436501 z"
             style="fill:#404040;"/>
          </a>
         </g>
        </svg>
</svg>
