<?xml version="1.0" encoding="UTF-8" standalone="no"?>
<!DOCTYPE svg PUBLIC "-//W3C//DTD SVG 1.1//EN"
 "http://www.w3.org/Graphics/SVG/1.1/DTD/svg11.dtd">
<!-- Generated by graphviz version 2.32.0 (20130916.1925)
 -->
<!-- Title: rcSimilarator::fill Pages: 1 -->
<svg width="812pt" height="241pt"
 viewBox="0.00 0.00 812.00 241.00" xmlns="http://www.w3.org/2000/svg" xmlns:xlink="http://www.w3.org/1999/xlink">
<g id="graph0" class="graph" transform="scale(1 1) rotate(0) translate(4 237)">
<title>rcSimilarator::fill</title>
<polygon fill="white" stroke="white" points="-4,5 -4,-237 809,-237 809,5 -4,5"/>
<!-- Node1 -->
<g id="node1" class="node"><title>Node1</title>
<polygon fill="#bfbfbf" stroke="black" points="0.440918,-97 0.440918,-117 87.5591,-117 87.5591,-97 0.440918,-97"/>
<text text-anchor="middle" x="44" y="-103" font-family="Helvetica,sans-Serif" font-size="10.00">rcSimilarator::fill</text>
</g>
<!-- Node2 -->
<g id="node2" class="node"><title>Node2</title>
<g id="a_node2"><a xlink:href="rc__kineticimage_8h.html#a37fdff5165799a39ff0e7807bf05a1a3" target="_top" xlink:title="calcMusclePeriod">
<polygon fill="white" stroke="black" points="150.818,-156 150.818,-176 245.182,-176 245.182,-156 150.818,-156"/>
<text text-anchor="middle" x="198" y="-162" font-family="Helvetica,sans-Serif" font-size="10.00">calcMusclePeriod</text>
</a>
</g>
</g>
<!-- Node1&#45;&gt;Node2 -->
<g id="edge1" class="edge"><title>Node1&#45;&gt;Node2</title>
<path fill="none" stroke="midnightblue" d="M72.257,-122.068C87.2213,-129.925 106.288,-139.273 124,-146 133.828,-149.733 144.642,-153.086 154.866,-155.932"/>
<polygon fill="midnightblue" stroke="midnightblue" points="73.541,-118.785 63.0713,-117.162 70.2434,-124.96 73.541,-118.785"/>
</g>
<!-- Node6 -->
<g id="node6" class="node"><title>Node6</title>
<g id="a_node6"><a xlink:href="classrc_engine_impl.html#afeacc2314f49f0c2ebda1adc29845367" target="_top" xlink:title="rcEngineImpl::entropyTracker">
<polygon fill="white" stroke="black" points="124.602,-117 124.602,-137 271.398,-137 271.398,-117 124.602,-117"/>
<text text-anchor="middle" x="198" y="-123" font-family="Helvetica,sans-Serif" font-size="10.00">rcEngineImpl::entropyTracker</text>
</a>
</g>
</g>
<!-- Node1&#45;&gt;Node6 -->
<g id="edge5" class="edge"><title>Node1&#45;&gt;Node6</title>
<path fill="none" stroke="midnightblue" d="M97.9234,-113.964C106.47,-115.088 115.447,-116.269 124.361,-117.442"/>
<polygon fill="midnightblue" stroke="midnightblue" points="98.1161,-110.459 87.745,-112.624 97.2029,-117.399 98.1161,-110.459"/>
</g>
<!-- Node11 -->
<g id="node11" class="node"><title>Node11</title>
<g id="a_node11"><a xlink:href="classrc_muscle_segmenter.html#ab797a355a4e18e94b3e482fbbff932ea" target="_top" xlink:title="rcMuscleSegmenter::\lgetEMI">
<polygon fill="white" stroke="black" points="142.761,-198 142.761,-230 253.239,-230 253.239,-198 142.761,-198"/>
<text text-anchor="start" x="150.761" y="-216" font-family="Helvetica,sans-Serif" font-size="10.00">rcMuscleSegmenter::</text>
<text text-anchor="middle" x="198" y="-204" font-family="Helvetica,sans-Serif" font-size="10.00">getEMI</text>
</a>
</g>
</g>
<!-- Node1&#45;&gt;Node11 -->
<g id="edge10" class="edge"><title>Node1&#45;&gt;Node11</title>
<path fill="none" stroke="midnightblue" d="M59.3843,-124.896C74.0863,-142.216 98.3449,-168.243 124,-185 131.536,-189.922 140.038,-194.233 148.507,-197.922"/>
<polygon fill="midnightblue" stroke="midnightblue" points="62.0514,-122.629 52.9704,-117.172 56.6659,-127.101 62.0514,-122.629"/>
</g>
<!-- Node14 -->
<g id="node14" class="node"><title>Node14</title>
<g id="a_node14"><a xlink:href="batch__main_8cpp.html#a3c04138a5bfe5d72780bb7e82a18e627" target="_top" xlink:title="main">
<polygon fill="white" stroke="black" points="179.163,-78 179.163,-98 216.837,-98 216.837,-78 179.163,-78"/>
<text text-anchor="middle" x="198" y="-84" font-family="Helvetica,sans-Serif" font-size="10.00">main</text>
</a>
</g>
</g>
<!-- Node1&#45;&gt;Node14 -->
<g id="edge14" class="edge"><title>Node1&#45;&gt;Node14</title>
<path fill="none" stroke="midnightblue" d="M97.8758,-100.391C126.037,-96.8704 158.88,-92.7649 178.796,-90.2755"/>
<polygon fill="midnightblue" stroke="midnightblue" points="97.2336,-96.9435 87.745,-101.657 98.1019,-103.889 97.2336,-96.9435"/>
</g>
<!-- Node15 -->
<g id="node15" class="node"><title>Node15</title>
<g id="a_node15"><a xlink:href="classrc_shape.html#a0c28cf660f43f60ce630345077ec6e7d" target="_top" xlink:title="rcShape::projectMI">
<polygon fill="white" stroke="black" points="148.037,-39 148.037,-59 247.963,-59 247.963,-39 148.037,-39"/>
<text text-anchor="middle" x="198" y="-45" font-family="Helvetica,sans-Serif" font-size="10.00">rcShape::projectMI</text>
</a>
</g>
</g>
<!-- Node1&#45;&gt;Node15 -->
<g id="edge15" class="edge"><title>Node1&#45;&gt;Node15</title>
<path fill="none" stroke="midnightblue" d="M72.5983,-92.2057C87.5296,-84.5927 106.459,-75.5598 124,-69 133.97,-65.2716 144.938,-61.9003 155.276,-59.0334"/>
<polygon fill="midnightblue" stroke="midnightblue" points="70.6865,-89.2544 63.4186,-96.9633 73.9076,-95.4693 70.6865,-89.2544"/>
</g>
<!-- Node16 -->
<g id="node16" class="node"><title>Node16</title>
<g id="a_node16"><a xlink:href="rc__kineticimage_8h.html#a74f16cb8db93e0991685b7e04ac2d18d" target="_top" xlink:title="segPointByEnergy">
<polygon fill="white" stroke="black" points="148.865,-0 148.865,-20 247.135,-20 247.135,-0 148.865,-0"/>
<text text-anchor="middle" x="198" y="-6" font-family="Helvetica,sans-Serif" font-size="10.00">segPointByEnergy</text>
</a>
</g>
</g>
<!-- Node1&#45;&gt;Node16 -->
<g id="edge16" class="edge"><title>Node1&#45;&gt;Node16</title>
<path fill="none" stroke="midnightblue" d="M58.8193,-89.0088C73.2429,-71.4464 97.4326,-45.2113 124,-30 131.526,-25.6907 140.024,-22.274 148.492,-19.5761"/>
<polygon fill="midnightblue" stroke="midnightblue" points="56.064,-86.8502 52.5555,-96.8473 61.5325,-91.2201 56.064,-86.8502"/>
</g>
<!-- Node3 -->
<g id="node3" class="node"><title>Node3</title>
<g id="a_node3"><a xlink:href="classrc_muscle_segmenter.html#a61c65559f55fd9fa632b96e09ef50b2e" target="_top" xlink:title="rcMuscleSegmenter::\lgenFrequencySegmentation">
<polygon fill="white" stroke="black" points="319.18,-150 319.18,-182 460.82,-182 460.82,-150 319.18,-150"/>
<text text-anchor="start" x="327.18" y="-168" font-family="Helvetica,sans-Serif" font-size="10.00">rcMuscleSegmenter::</text>
<text text-anchor="middle" x="390" y="-156" font-family="Helvetica,sans-Serif" font-size="10.00">genFrequencySegmentation</text>
</a>
</g>
</g>
<!-- Node2&#45;&gt;Node3 -->
<g id="edge2" class="edge"><title>Node2&#45;&gt;Node3</title>
<path fill="none" stroke="midnightblue" d="M255.605,-166C275.484,-166 298.06,-166 318.912,-166"/>
<polygon fill="midnightblue" stroke="midnightblue" points="255.479,-162.5 245.479,-166 255.479,-169.5 255.479,-162.5"/>
</g>
<!-- Node4 -->
<g id="node4" class="node"><title>Node4</title>
<g id="a_node4"><a xlink:href="classrc_muscle_segmenter.html#a660d7b3d1c240efa0b725e0db65154e3" target="_top" xlink:title="rcMuscleSegmenter::\lfilterByActivity">
<polygon fill="white" stroke="black" points="509.761,-150 509.761,-182 620.239,-182 620.239,-150 509.761,-150"/>
<text text-anchor="start" x="517.761" y="-168" font-family="Helvetica,sans-Serif" font-size="10.00">rcMuscleSegmenter::</text>
<text text-anchor="middle" x="565" y="-156" font-family="Helvetica,sans-Serif" font-size="10.00">filterByActivity</text>
</a>
</g>
</g>
<!-- Node3&#45;&gt;Node4 -->
<g id="edge3" class="edge"><title>Node3&#45;&gt;Node4</title>
<path fill="none" stroke="midnightblue" d="M471.219,-166C484.206,-166 497.383,-166 509.571,-166"/>
<polygon fill="midnightblue" stroke="midnightblue" points="470.867,-162.5 460.867,-166 470.867,-169.5 470.867,-162.5"/>
</g>
<!-- Node5 -->
<g id="node5" class="node"><title>Node5</title>
<g id="a_node5"><a xlink:href="classrc_engine_impl.html#a00ca0d227e480ddb5bd6be293b55d2c9" target="_top" xlink:title="rcEngineImpl::muscleTracker">
<polygon fill="white" stroke="black" points="658.442,-190 658.442,-210 803.558,-210 803.558,-190 658.442,-190"/>
<text text-anchor="middle" x="731" y="-196" font-family="Helvetica,sans-Serif" font-size="10.00">rcEngineImpl::muscleTracker</text>
</a>
</g>
</g>
<!-- Node4&#45;&gt;Node5 -->
<g id="edge4" class="edge"><title>Node4&#45;&gt;Node5</title>
<path fill="none" stroke="midnightblue" d="M630.502,-179.372C647.551,-182.907 665.659,-186.661 681.689,-189.984"/>
<polygon fill="midnightblue" stroke="midnightblue" points="631.112,-175.924 620.61,-177.322 629.691,-182.779 631.112,-175.924"/>
</g>
<!-- Node7 -->
<g id="node7" class="node"><title>Node7</title>
<g id="a_node7"><a xlink:href="classrc_engine_impl.html#a3ad6dbc54b2a53acae4d345ff14974ae" target="_top" xlink:title="rcEngineImpl::analyzeFocusArea">
<polygon fill="white" stroke="black" points="308.631,-111 308.631,-131 471.369,-131 471.369,-111 308.631,-111"/>
<text text-anchor="middle" x="390" y="-117" font-family="Helvetica,sans-Serif" font-size="10.00">rcEngineImpl::analyzeFocusArea</text>
</a>
</g>
</g>
<!-- Node6&#45;&gt;Node7 -->
<g id="edge6" class="edge"><title>Node6&#45;&gt;Node7</title>
<path fill="none" stroke="midnightblue" d="M281.911,-124.382C290.729,-124.103 299.687,-123.82 308.476,-123.543"/>
<polygon fill="midnightblue" stroke="midnightblue" points="281.529,-120.892 271.644,-124.706 281.75,-127.889 281.529,-120.892"/>
</g>
<!-- Node8 -->
<g id="node8" class="node"><title>Node8</title>
<g id="a_node8"><a xlink:href="classrc_engine_impl.html#ae320706cbcafd64f219018b9842c8290" target="_top" xlink:title="rcEngineImpl::analyze">
<polygon fill="white" stroke="black" points="507.808,-111 507.808,-131 622.192,-131 622.192,-111 507.808,-111"/>
<text text-anchor="middle" x="565" y="-117" font-family="Helvetica,sans-Serif" font-size="10.00">rcEngineImpl::analyze</text>
</a>
</g>
</g>
<!-- Node7&#45;&gt;Node8 -->
<g id="edge7" class="edge"><title>Node7&#45;&gt;Node8</title>
<path fill="none" stroke="midnightblue" d="M481.5,-121C490.423,-121 499.288,-121 507.716,-121"/>
<polygon fill="midnightblue" stroke="midnightblue" points="481.422,-117.5 471.422,-121 481.422,-124.5 481.422,-117.5"/>
</g>
<!-- Node9 -->
<g id="node9" class="node"><title>Node9</title>
<g id="a_node9"><a xlink:href="classrc_engine_impl.html#a507e034c1e43ae1dd6ec95a11ec0bb02" target="_top" xlink:title="rcEngineImpl::process">
<polygon fill="white" stroke="black" points="673.535,-134 673.535,-154 788.465,-154 788.465,-134 673.535,-134"/>
<text text-anchor="middle" x="731" y="-140" font-family="Helvetica,sans-Serif" font-size="10.00">rcEngineImpl::process</text>
</a>
</g>
</g>
<!-- Node8&#45;&gt;Node9 -->
<g id="edge8" class="edge"><title>Node8&#45;&gt;Node9</title>
<path fill="none" stroke="midnightblue" d="M632.654,-130.348C646.192,-132.246 660.309,-134.226 673.456,-136.07"/>
<polygon fill="midnightblue" stroke="midnightblue" points="632.829,-126.838 622.439,-128.915 631.856,-133.77 632.829,-126.838"/>
</g>
<!-- Node10 -->
<g id="node10" class="node"><title>Node10</title>
<g id="a_node10"><a xlink:href="classrc_engine_analyzer.html#a064037f0ec3e68fcb11dabbcba790cdd" target="_top" xlink:title="rcEngineAnalyzer::run">
<polygon fill="white" stroke="black" points="673.808,-95 673.808,-115 788.192,-115 788.192,-95 673.808,-95"/>
<text text-anchor="middle" x="731" y="-101" font-family="Helvetica,sans-Serif" font-size="10.00">rcEngineAnalyzer::run</text>
</a>
</g>
</g>
<!-- Node8&#45;&gt;Node10 -->
<g id="edge9" class="edge"><title>Node8&#45;&gt;Node10</title>
<path fill="none" stroke="midnightblue" d="M632.712,-114.492C646.328,-113.163 660.527,-111.778 673.734,-110.489"/>
<polygon fill="midnightblue" stroke="midnightblue" points="632.052,-111.039 622.439,-115.494 632.732,-118.006 632.052,-111.039"/>
</g>
<!-- Node12 -->
<g id="node12" class="node"><title>Node12</title>
<g id="a_node12"><a xlink:href="classrc_muscle_segmenter.html#a248fccb8fc46afa10c1a0a0cb240e72a" target="_top" xlink:title="rcMuscleSegmenter::\lgenSpatialSegmentation">
<polygon fill="white" stroke="black" points="327.515,-201 327.515,-233 452.485,-233 452.485,-201 327.515,-201"/>
<text text-anchor="start" x="335.515" y="-219" font-family="Helvetica,sans-Serif" font-size="10.00">rcMuscleSegmenter::</text>
<text text-anchor="middle" x="390" y="-207" font-family="Helvetica,sans-Serif" font-size="10.00">genSpatialSegmentation</text>
</a>
</g>
</g>
<!-- Node11&#45;&gt;Node12 -->
<g id="edge11" class="edge"><title>Node11&#45;&gt;Node12</title>
<path fill="none" stroke="midnightblue" d="M263.655,-215.021C284.196,-215.345 306.852,-215.703 327.187,-216.024"/>
<polygon fill="midnightblue" stroke="midnightblue" points="263.5,-211.518 253.446,-214.86 263.39,-218.517 263.5,-211.518"/>
</g>
<!-- Node13 -->
<g id="node13" class="node"><title>Node13</title>
<g id="a_node13"><a xlink:href="classrc_muscle_segmenter.html#a86d108c38d0bcb7a7eb47021b7ab0308" target="_top" xlink:title="rcMuscleSegmenter::\lsegment">
<polygon fill="white" stroke="black" points="509.761,-201 509.761,-233 620.239,-233 620.239,-201 509.761,-201"/>
<text text-anchor="start" x="517.761" y="-219" font-family="Helvetica,sans-Serif" font-size="10.00">rcMuscleSegmenter::</text>
<text text-anchor="middle" x="565" y="-207" font-family="Helvetica,sans-Serif" font-size="10.00">segment</text>
</a>
</g>
</g>
<!-- Node12&#45;&gt;Node13 -->
<g id="edge12" class="edge"><title>Node12&#45;&gt;Node13</title>
<path fill="none" stroke="midnightblue" d="M463.087,-217C478.659,-217 494.873,-217 509.632,-217"/>
<polygon fill="midnightblue" stroke="midnightblue" points="462.968,-213.5 452.968,-217 462.968,-220.5 462.968,-213.5"/>
</g>
<!-- Node13&#45;&gt;Node5 -->
<g id="edge13" class="edge"><title>Node13&#45;&gt;Node5</title>
<path fill="none" stroke="midnightblue" d="M630.723,-210.291C639.815,-209.348 649.203,-208.375 658.414,-207.421"/>
<polygon fill="midnightblue" stroke="midnightblue" points="630.195,-206.827 620.61,-211.339 630.917,-213.789 630.195,-206.827"/>
</g>
</g>
</svg>
