<?xml version="1.0" encoding="UTF-8" standalone="no"?>
<!DOCTYPE svg PUBLIC "-//W3C//DTD SVG 1.1//EN"
 "http://www.w3.org/Graphics/SVG/1.1/DTD/svg11.dtd">
<!-- Generated by graphviz version 2.32.0 (20130916.1925)
 -->
<!-- Title: lm_unit::~lm_unit Pages: 1 -->
<!--zoomable 274 -->
<svg id="main" version="1.1" xmlns="http://www.w3.org/2000/svg" xmlns:xlink="http://www.w3.org/1999/xlink" xml:space="preserve" onload="init(evt)">
        <defs>
                <circle id="rim" cx="0" cy="0" r="7"/>
                <circle id="rim2" cx="0" cy="0" r="3.5"/>
                <g id="zoomPlus">
                        <use xlink:href="#rim" fill="#404040">
                                <set attributeName="fill" to="#808080" begin="zoomplus.mouseover" end="zoomplus.mouseout"/>
                        </use>
                        <path d="M-4,0h8M0,-4v8" fill="none" stroke="white" stroke-width="1.5" pointer-events="none"/>
                </g>
                <g id="zoomMin">
                        <use xlink:href="#rim" fill="#404040">
                                <set attributeName="fill" to="#808080" begin="zoomminus.mouseover" end="zoomminus.mouseout"/>
                        </use>
                        <path d="M-4,0h8" fill="none" stroke="white" stroke-width="1.5" pointer-events="none"/>
                </g>
                <g id="dirArrow">
                        <path fill="none" stroke="white" stroke-width="1.5" d="M0,-3.0v7 M-2.5,-0.5L0,-3.0L2.5,-0.5"/>
                </g>
               <g id="resetDef">
                       <use xlink:href="#rim2" fill="#404040">
                               <set attributeName="fill" to="#808080" begin="reset.mouseover" end="reset.mouseout"/>
                       </use>
               </g>
        </defs>

<script type="text/javascript">
var viewWidth = 682;
var viewHeight = 274;
var sectionId = 'dynsection-3';
</script>
<script xlink:href="svgpan.js"/>
<svg id="graph" class="graph">
<g id="viewport">
<title>lm_unit::~lm_unit</title>
<polygon fill="white" stroke="white" points="-4,5 -4,-270 679,-270 679,5 -4,5"/>
<!-- Node1 -->
<g id="node1" class="node"><title>Node1</title>
<polygon fill="#bfbfbf" stroke="black" points="0.0654297,-97 0.0654297,-117 91.9346,-117 91.9346,-97 0.0654297,-97"/>
<text text-anchor="middle" x="46" y="-103" font-family="Helvetica,sans-Serif" font-size="10.00">lm_unit::~lm_unit</text>
</g>
<!-- Node2 -->
<g id="node2" class="node"><title>Node2</title>
<g id="a_node2"><a xlink:href="classlm__unit.html#ac56f4305b294e90ad29709b6911f965c" target="_top" xlink:title="lm_unit::dump_header">
<polygon fill="white" stroke="black" points="128.247,-97 128.247,-117 243.753,-117 243.753,-97 128.247,-97"/>
<text text-anchor="middle" x="186" y="-103" font-family="Helvetica,sans-Serif" font-size="10.00">lm_unit::dump_header</text>
</a>
</g>
</g>
<!-- Node1&#45;&gt;Node2 -->
<g id="edge1" class="edge"><title>Node1&#45;&gt;Node2</title>
<path fill="none" stroke="midnightblue" d="M92.1864,-107C100.435,-107 109.201,-107 117.927,-107"/>
<polygon fill="midnightblue" stroke="midnightblue" points="118.117,-110.5 128.117,-107 118.117,-103.5 118.117,-110.5"/>
</g>
<!-- Node3 -->
<g id="node3" class="node"><title>Node3</title>
<g id="a_node3"><a xlink:href="rc__xml_8cpp.html#a127c366ab4e46d552c39dd2d2e7d6b89" target="_top" xlink:title="output">
<polygon fill="white" stroke="black" points="322.099,-195 322.099,-215 365.901,-215 365.901,-195 322.099,-195"/>
<text text-anchor="middle" x="344" y="-201" font-family="Helvetica,sans-Serif" font-size="10.00">output</text>
</a>
</g>
</g>
<!-- Node2&#45;&gt;Node3 -->
<g id="edge2" class="edge"><title>Node2&#45;&gt;Node3</title>
<path fill="none" stroke="midnightblue" d="M203.107,-117.119C230.315,-134.211 285.563,-168.918 317.892,-189.227"/>
<polygon fill="midnightblue" stroke="midnightblue" points="316.417,-192.434 326.747,-194.79 320.141,-186.506 316.417,-192.434"/>
</g>
<!-- Node6 -->
<g id="node6" class="node"><title>Node6</title>
<g id="a_node6"><a xlink:href="classlm__unit.html#a5c316c08e15c1e53f7bd19e7596b07fe" target="_top" xlink:title="lm_unit::header_filename">
<polygon fill="white" stroke="black" points="279.855,-97 279.855,-117 408.145,-117 408.145,-97 279.855,-97"/>
<text text-anchor="middle" x="344" y="-103" font-family="Helvetica,sans-Serif" font-size="10.00">lm_unit::header_filename</text>
</a>
</g>
</g>
<!-- Node2&#45;&gt;Node6 -->
<g id="edge5" class="edge"><title>Node2&#45;&gt;Node6</title>
<path fill="none" stroke="midnightblue" d="M243.761,-107C252.151,-107 260.897,-107 269.567,-107"/>
<polygon fill="midnightblue" stroke="midnightblue" points="269.684,-110.5 279.684,-107 269.684,-103.5 269.684,-110.5"/>
</g>
<!-- Node13 -->
<g id="node13" class="node"><title>Node13</title>
<g id="a_node13"><a xlink:href="visimatch_8cpp.html#a455a979b4529b4ab9bf44ef7f4c535eb" target="_top" xlink:title="dump">
<polygon fill="white" stroke="black" points="323.493,-39 323.493,-59 364.507,-59 364.507,-39 323.493,-39"/>
<text text-anchor="middle" x="344" y="-45" font-family="Helvetica,sans-Serif" font-size="10.00">dump</text>
</a>
</g>
</g>
<!-- Node2&#45;&gt;Node13 -->
<g id="edge12" class="edge"><title>Node2&#45;&gt;Node13</title>
<path fill="none" stroke="midnightblue" d="M214.173,-96.8972C241.972,-86.5615 285.028,-70.5536 313.608,-59.9279"/>
<polygon fill="midnightblue" stroke="midnightblue" points="314.911,-63.1776 323.064,-56.412 312.471,-56.6164 314.911,-63.1776"/>
</g>
<!-- Node4 -->
<g id="node4" class="node"><title>Node4</title>
<g id="a_node4"><a xlink:href="classrc_progress_indicator.html#ae01451b2ec83eef63852f3ce8c238bf5" target="_top" xlink:title="rcProgressIndicator\l::progress">
<polygon fill="white" stroke="black" points="447.65,-234 447.65,-266 550.35,-266 550.35,-234 447.65,-234"/>
<text text-anchor="start" x="455.65" y="-252" font-family="Helvetica,sans-Serif" font-size="10.00">rcProgressIndicator</text>
<text text-anchor="middle" x="499" y="-240" font-family="Helvetica,sans-Serif" font-size="10.00">::progress</text>
</a>
</g>
</g>
<!-- Node3&#45;&gt;Node4 -->
<g id="edge3" class="edge"><title>Node3&#45;&gt;Node4</title>
<path fill="none" stroke="midnightblue" d="M365.953,-211.163C384.377,-216.582 412.127,-224.743 437.44,-232.188"/>
<polygon fill="midnightblue" stroke="midnightblue" points="436.783,-235.643 447.364,-235.107 438.758,-228.928 436.783,-235.643"/>
</g>
<!-- Node5 -->
<g id="node5" class="node"><title>Node5</title>
<g id="a_node5"><a xlink:href="classrc_x_m_l_element.html#a16e3743f305544ac5d7b71a1c5b7e54b" target="_top" xlink:title="rcXMLElement::type">
<polygon fill="white" stroke="black" points="445.983,-195 445.983,-215 552.017,-215 552.017,-195 445.983,-195"/>
<text text-anchor="middle" x="499" y="-201" font-family="Helvetica,sans-Serif" font-size="10.00">rcXMLElement::type</text>
</a>
</g>
</g>
<!-- Node3&#45;&gt;Node5 -->
<g id="edge4" class="edge"><title>Node3&#45;&gt;Node5</title>
<path fill="none" stroke="midnightblue" d="M365.953,-205C383.936,-205 410.803,-205 435.618,-205"/>
<polygon fill="midnightblue" stroke="midnightblue" points="435.729,-208.5 445.729,-205 435.729,-201.5 435.729,-208.5"/>
</g>
<!-- Node7 -->
<g id="node7" class="node"><title>Node7</title>
<g id="a_node7"><a xlink:href="file__system_8cpp.html#a62475ca973dfe0094c00d60286c7c286" target="_top" xlink:title="create_filespec">
<polygon fill="white" stroke="black" points="457.37,-156 457.37,-176 540.63,-176 540.63,-156 457.37,-156"/>
<text text-anchor="middle" x="499" y="-162" font-family="Helvetica,sans-Serif" font-size="10.00">create_filespec</text>
</a>
</g>
</g>
<!-- Node6&#45;&gt;Node7 -->
<g id="edge6" class="edge"><title>Node6&#45;&gt;Node7</title>
<path fill="none" stroke="midnightblue" d="M370.173,-117.082C390.148,-125.042 418.806,-136.373 444,-146 449.504,-148.103 455.336,-150.298 461.053,-152.431"/>
<polygon fill="midnightblue" stroke="midnightblue" points="459.895,-155.734 470.488,-155.934 462.332,-149.172 459.895,-155.734"/>
</g>
<!-- Node9 -->
<g id="node9" class="node"><title>Node9</title>
<g id="a_node9"><a xlink:href="classlm__unit.html#a6a490d308afbd21957f40bf77fb4c4c4" target="_top" xlink:title="lm_unit::library_path">
<polygon fill="white" stroke="black" points="445.978,-117 445.978,-137 552.022,-137 552.022,-117 445.978,-117"/>
<text text-anchor="middle" x="499" y="-123" font-family="Helvetica,sans-Serif" font-size="10.00">lm_unit::library_path</text>
</a>
</g>
</g>
<!-- Node6&#45;&gt;Node9 -->
<g id="edge8" class="edge"><title>Node6&#45;&gt;Node9</title>
<path fill="none" stroke="midnightblue" d="M408.557,-115.308C417.504,-116.478 426.696,-117.679 435.621,-118.846"/>
<polygon fill="midnightblue" stroke="midnightblue" points="435.189,-122.319 445.558,-120.145 436.097,-115.378 435.189,-122.319"/>
</g>
<!-- Node11 -->
<g id="node11" class="node"><title>Node11</title>
<g id="a_node11"><a xlink:href="classlm__unit__name.html#af0e9f16bb8f96adc5c73fedb876bda2a" target="_top" xlink:title="lm_unit_name::name">
<polygon fill="white" stroke="black" points="444.308,-78 444.308,-98 553.692,-98 553.692,-78 444.308,-78"/>
<text text-anchor="middle" x="499" y="-84" font-family="Helvetica,sans-Serif" font-size="10.00">lm_unit_name::name</text>
</a>
</g>
</g>
<!-- Node6&#45;&gt;Node11 -->
<g id="edge10" class="edge"><title>Node6&#45;&gt;Node11</title>
<path fill="none" stroke="midnightblue" d="M408.557,-99.1074C416.962,-98.0636 425.582,-96.9931 433.995,-95.9484"/>
<polygon fill="midnightblue" stroke="midnightblue" points="434.633,-99.3961 444.125,-94.6903 433.77,-92.4495 434.633,-99.3961"/>
</g>
<!-- Node12 -->
<g id="node12" class="node"><title>Node12</title>
<g id="a_node12"><a xlink:href="classlm__unit__name.html#a94e6a4f8cf0cf3674c231fc30c533fe6" target="_top" xlink:title="lm_unit_name::type">
<polygon fill="white" stroke="black" points="447.365,-39 447.365,-59 550.635,-59 550.635,-39 447.365,-39"/>
<text text-anchor="middle" x="499" y="-45" font-family="Helvetica,sans-Serif" font-size="10.00">lm_unit_name::type</text>
</a>
</g>
</g>
<!-- Node6&#45;&gt;Node12 -->
<g id="edge11" class="edge"><title>Node6&#45;&gt;Node12</title>
<path fill="none" stroke="midnightblue" d="M369.721,-96.9683C389.689,-88.9362 418.555,-77.4847 444,-68 448.88,-66.1809 454.025,-64.3103 459.123,-62.4856"/>
<polygon fill="midnightblue" stroke="midnightblue" points="460.528,-65.7006 468.783,-59.0587 458.188,-59.1034 460.528,-65.7006"/>
</g>
<!-- Node8 -->
<g id="node8" class="node"><title>Node8</title>
<g id="a_node8"><a xlink:href="file__system_8cpp.html#a99e06c76afffe1f1d77f01c905b1a5fd" target="_top" xlink:title="is_separator">
<polygon fill="white" stroke="black" points="596.485,-156 596.485,-176 667.515,-176 667.515,-156 596.485,-156"/>
<text text-anchor="middle" x="632" y="-162" font-family="Helvetica,sans-Serif" font-size="10.00">is_separator</text>
</a>
</g>
</g>
<!-- Node7&#45;&gt;Node8 -->
<g id="edge7" class="edge"><title>Node7&#45;&gt;Node8</title>
<path fill="none" stroke="midnightblue" d="M540.731,-166C555.116,-166 571.369,-166 586.08,-166"/>
<polygon fill="midnightblue" stroke="midnightblue" points="586.472,-169.5 596.472,-166 586.472,-162.5 586.472,-169.5"/>
</g>
<!-- Node10 -->
<g id="node10" class="node"><title>Node10</title>
<g id="a_node10"><a xlink:href="classlm__library.html#aa025c61299499f986c5f2724354ee874" target="_top" xlink:title="lm_library::path">
<polygon fill="white" stroke="black" points="589.82,-117 589.82,-137 674.18,-137 674.18,-117 589.82,-117"/>
<text text-anchor="middle" x="632" y="-123" font-family="Helvetica,sans-Serif" font-size="10.00">lm_library::path</text>
</a>
</g>
</g>
<!-- Node9&#45;&gt;Node10 -->
<g id="edge9" class="edge"><title>Node9&#45;&gt;Node10</title>
<path fill="none" stroke="midnightblue" d="M552.151,-127C561.074,-127 570.343,-127 579.256,-127"/>
<polygon fill="midnightblue" stroke="midnightblue" points="579.513,-130.5 589.513,-127 579.513,-123.5 579.513,-130.5"/>
</g>
<!-- Node14 -->
<g id="node14" class="node"><title>Node14</title>
<g id="a_node14"><a xlink:href="persistent_8hpp.html#ad663f7090f251c9983d60cd899eed527" target="_top" xlink:title="dump_deque">
<polygon fill="white" stroke="black" points="461.808,-0 461.808,-20 536.192,-20 536.192,-0 461.808,-0"/>
<text text-anchor="middle" x="499" y="-6" font-family="Helvetica,sans-Serif" font-size="10.00">dump_deque</text>
</a>
</g>
</g>
<!-- Node13&#45;&gt;Node14 -->
<g id="edge13" class="edge"><title>Node13&#45;&gt;Node14</title>
<path fill="none" stroke="midnightblue" d="M364.689,-43.9813C386.564,-38.4052 422.639,-29.2098 451.748,-21.7897"/>
<polygon fill="midnightblue" stroke="midnightblue" points="452.894,-25.1097 461.719,-19.2481 451.164,-18.3266 452.894,-25.1097"/>
</g>
</g>
</svg>
        <g id="navigator" transform="translate(0 0)" fill="#404254">
                <rect fill="#f2f5e9" fill-opacity="0.5" stroke="#606060" stroke-width=".5" x="0" y="0" width="60" height="60"/>
                <use id="zoomplus" xlink:href="#zoomPlus" x="17" y="9" onmousedown="handleZoom(evt,'in')"/>
                <use id="zoomminus" xlink:href="#zoomMin" x="42" y="9" onmousedown="handleZoom(evt,'out')"/>
                <use id="reset" xlink:href="#resetDef" x="30" y="36" onmousedown="handleReset()"/>
                <g id="arrowUp" xlink:href="#dirArrow" transform="translate(30 24)" onmousedown="handlePan(0,-1)">
                  <use xlink:href="#rim" fill="#404040">
                        <set attributeName="fill" to="#808080" begin="arrowUp.mouseover" end="arrowUp.mouseout"/>
                  </use>
                  <path fill="none" stroke="white" stroke-width="1.5" d="M0,-3.0v7 M-2.5,-0.5L0,-3.0L2.5,-0.5"/>
                </g>
                <g id="arrowRight" xlink:href="#dirArrow" transform="rotate(90) translate(36 -43)" onmousedown="handlePan(1,0)">
                  <use xlink:href="#rim" fill="#404040">
                        <set attributeName="fill" to="#808080" begin="arrowRight.mouseover" end="arrowRight.mouseout"/>
                  </use>
                  <path fill="none" stroke="white" stroke-width="1.5" d="M0,-3.0v7 M-2.5,-0.5L0,-3.0L2.5,-0.5"/>
                </g>
                <g id="arrowDown" xlink:href="#dirArrow" transform="rotate(180) translate(-30 -48)" onmousedown="handlePan(0,1)">
                  <use xlink:href="#rim" fill="#404040">
                        <set attributeName="fill" to="#808080" begin="arrowDown.mouseover" end="arrowDown.mouseout"/>
                  </use>
                  <path fill="none" stroke="white" stroke-width="1.5" d="M0,-3.0v7 M-2.5,-0.5L0,-3.0L2.5,-0.5"/>
                </g>
                <g id="arrowLeft" xlink:href="#dirArrow" transform="rotate(270) translate(-36 17)" onmousedown="handlePan(-1,0)">
                  <use xlink:href="#rim" fill="#404040">
                        <set attributeName="fill" to="#808080" begin="arrowLeft.mouseover" end="arrowLeft.mouseout"/>
                  </use>
                  <path fill="none" stroke="white" stroke-width="1.5" d="M0,-3.0v7 M-2.5,-0.5L0,-3.0L2.5,-0.5"/>
                </g>
        </g>
        <svg viewBox="0 0 15 15" width="100%" height="30px" preserveAspectRatio="xMaxYMin meet">
         <g id="arrow_out" transform="scale(0.3 0.3)">
          <a xlink:href="classlm__unit_a04607b36e59a5a216fb25b959e580cd3_cgraph_org.svg" target="_base">
           <rect id="button" ry="5" rx="5" y="6" x="6" height="38" width="38"
                fill="#f2f5e9" fill-opacity="0.5" stroke="#606060" stroke-width="1.0"/>
           <path id="arrow"
             d="M 11.500037,31.436501 C 11.940474,20.09759 22.043105,11.32322 32.158766,21.979434 L 37.068811,17.246167 C 37.068811,17.246167 37.088388,32 37.088388,32 L 22.160133,31.978069 C 22.160133,31.978069 26.997745,27.140456 26.997745,27.140456 C 18.528582,18.264221 13.291696,25.230495 11.500037,31.436501 z"
             style="fill:#404040;"/>
          </a>
         </g>
        </svg>
</svg>
