<?xml version="1.0" encoding="UTF-8" standalone="no"?>
<!DOCTYPE svg PUBLIC "-//W3C//DTD SVG 1.1//EN"
 "http://www.w3.org/Graphics/SVG/1.1/DTD/svg11.dtd">
<!-- Generated by graphviz version 2.32.0 (20130916.1925)
 -->
<!-- Title: rcEngineImpl::writeEntropyData Pages: 1 -->
<!--zoomable 67 -->
<svg id="main" version="1.1" xmlns="http://www.w3.org/2000/svg" xmlns:xlink="http://www.w3.org/1999/xlink" xml:space="preserve" onload="init(evt)">
        <defs>
                <circle id="rim" cx="0" cy="0" r="7"/>
                <circle id="rim2" cx="0" cy="0" r="3.5"/>
                <g id="zoomPlus">
                        <use xlink:href="#rim" fill="#404040">
                                <set attributeName="fill" to="#808080" begin="zoomplus.mouseover" end="zoomplus.mouseout"/>
                        </use>
                        <path d="M-4,0h8M0,-4v8" fill="none" stroke="white" stroke-width="1.5" pointer-events="none"/>
                </g>
                <g id="zoomMin">
                        <use xlink:href="#rim" fill="#404040">
                                <set attributeName="fill" to="#808080" begin="zoomminus.mouseover" end="zoomminus.mouseout"/>
                        </use>
                        <path d="M-4,0h8" fill="none" stroke="white" stroke-width="1.5" pointer-events="none"/>
                </g>
                <g id="dirArrow">
                        <path fill="none" stroke="white" stroke-width="1.5" d="M0,-3.0v7 M-2.5,-0.5L0,-3.0L2.5,-0.5"/>
                </g>
               <g id="resetDef">
                       <use xlink:href="#rim2" fill="#404040">
                               <set attributeName="fill" to="#808080" begin="reset.mouseover" end="reset.mouseout"/>
                       </use>
               </g>
        </defs>

<script type="text/javascript">
var viewWidth = 852;
var viewHeight = 67;
var sectionId = 'dynsection-135';
</script>
<script xlink:href="svgpan.js"/>
<svg id="graph" class="graph">
<g id="viewport">
<title>rcEngineImpl::writeEntropyData</title>
<polygon fill="white" stroke="white" points="-4,5 -4,-63 849,-63 849,5 -4,5"/>
<!-- Node1 -->
<g id="node1" class="node"><title>Node1</title>
<polygon fill="#bfbfbf" stroke="black" points="0.692383,-19 0.692383,-39 157.308,-39 157.308,-19 0.692383,-19"/>
<text text-anchor="middle" x="79" y="-25" font-family="Helvetica,sans-Serif" font-size="10.00">rcEngineImpl::writeEntropyData</text>
</g>
<!-- Node2 -->
<g id="node2" class="node"><title>Node2</title>
<g id="a_node2"><a xlink:href="classrc_engine_impl.html#afeacc2314f49f0c2ebda1adc29845367" target="_top" xlink:title="rcEngineImpl::entropyTracker">
<polygon fill="white" stroke="black" points="194.602,-19 194.602,-39 341.398,-39 341.398,-19 194.602,-19"/>
<text text-anchor="middle" x="268" y="-25" font-family="Helvetica,sans-Serif" font-size="10.00">rcEngineImpl::entropyTracker</text>
</a>
</g>
</g>
<!-- Node1&#45;&gt;Node2 -->
<g id="edge1" class="edge"><title>Node1&#45;&gt;Node2</title>
<path fill="none" stroke="midnightblue" d="M167.533,-29C176.543,-29 185.627,-29 194.449,-29"/>
<polygon fill="midnightblue" stroke="midnightblue" points="167.41,-25.5001 157.41,-29 167.41,-32.5001 167.41,-25.5001"/>
</g>
<!-- Node3 -->
<g id="node3" class="node"><title>Node3</title>
<g id="a_node3"><a xlink:href="classrc_engine_impl.html#a3ad6dbc54b2a53acae4d345ff14974ae" target="_top" xlink:title="rcEngineImpl::analyzeFocusArea">
<polygon fill="white" stroke="black" points="378.631,-19 378.631,-39 541.369,-39 541.369,-19 378.631,-19"/>
<text text-anchor="middle" x="460" y="-25" font-family="Helvetica,sans-Serif" font-size="10.00">rcEngineImpl::analyzeFocusArea</text>
</a>
</g>
</g>
<!-- Node2&#45;&gt;Node3 -->
<g id="edge2" class="edge"><title>Node2&#45;&gt;Node3</title>
<path fill="none" stroke="midnightblue" d="M351.911,-29C360.729,-29 369.687,-29 378.476,-29"/>
<polygon fill="midnightblue" stroke="midnightblue" points="351.644,-25.5001 341.644,-29 351.644,-32.5001 351.644,-25.5001"/>
</g>
<!-- Node4 -->
<g id="node4" class="node"><title>Node4</title>
<g id="a_node4"><a xlink:href="classrc_engine_impl.html#ae320706cbcafd64f219018b9842c8290" target="_top" xlink:title="rcEngineImpl::analyze">
<polygon fill="white" stroke="black" points="577.808,-19 577.808,-39 692.192,-39 692.192,-19 577.808,-19"/>
<text text-anchor="middle" x="635" y="-25" font-family="Helvetica,sans-Serif" font-size="10.00">rcEngineImpl::analyze</text>
</a>
</g>
</g>
<!-- Node3&#45;&gt;Node4 -->
<g id="edge3" class="edge"><title>Node3&#45;&gt;Node4</title>
<path fill="none" stroke="midnightblue" d="M551.5,-29C560.423,-29 569.288,-29 577.716,-29"/>
<polygon fill="midnightblue" stroke="midnightblue" points="551.422,-25.5001 541.422,-29 551.422,-32.5001 551.422,-25.5001"/>
</g>
<!-- Node5 -->
<g id="node5" class="node"><title>Node5</title>
<g id="a_node5"><a xlink:href="classrc_engine_impl.html#a507e034c1e43ae1dd6ec95a11ec0bb02" target="_top" xlink:title="rcEngineImpl::process">
<polygon fill="white" stroke="black" points="728.535,-39 728.535,-59 843.465,-59 843.465,-39 728.535,-39"/>
<text text-anchor="middle" x="786" y="-45" font-family="Helvetica,sans-Serif" font-size="10.00">rcEngineImpl::process</text>
</a>
</g>
</g>
<!-- Node4&#45;&gt;Node5 -->
<g id="edge4" class="edge"><title>Node4&#45;&gt;Node5</title>
<path fill="none" stroke="midnightblue" d="M702.328,-37.903C710.925,-39.057 719.669,-40.2308 728.095,-41.3617"/>
<polygon fill="midnightblue" stroke="midnightblue" points="702.707,-34.4227 692.331,-36.5611 701.776,-41.3605 702.707,-34.4227"/>
</g>
<!-- Node6 -->
<g id="node6" class="node"><title>Node6</title>
<g id="a_node6"><a xlink:href="classrc_engine_analyzer.html#a064037f0ec3e68fcb11dabbcba790cdd" target="_top" xlink:title="rcEngineAnalyzer::run">
<polygon fill="white" stroke="black" points="728.808,-0 728.808,-20 843.192,-20 843.192,-0 728.808,-0"/>
<text text-anchor="middle" x="786" y="-6" font-family="Helvetica,sans-Serif" font-size="10.00">rcEngineAnalyzer::run</text>
</a>
</g>
</g>
<!-- Node4&#45;&gt;Node6 -->
<g id="edge5" class="edge"><title>Node4&#45;&gt;Node6</title>
<path fill="none" stroke="midnightblue" d="M702.47,-20.524C711.19,-19.412 720.058,-18.2812 728.59,-17.1932"/>
<polygon fill="midnightblue" stroke="midnightblue" points="701.807,-17.08 692.331,-21.8169 702.693,-24.0238 701.807,-17.08"/>
</g>
</g>
</svg>
        <g id="navigator" transform="translate(0 0)" fill="#404254">
                <rect fill="#f2f5e9" fill-opacity="0.5" stroke="#606060" stroke-width=".5" x="0" y="0" width="60" height="60"/>
                <use id="zoomplus" xlink:href="#zoomPlus" x="17" y="9" onmousedown="handleZoom(evt,'in')"/>
                <use id="zoomminus" xlink:href="#zoomMin" x="42" y="9" onmousedown="handleZoom(evt,'out')"/>
                <use id="reset" xlink:href="#resetDef" x="30" y="36" onmousedown="handleReset()"/>
                <g id="arrowUp" xlink:href="#dirArrow" transform="translate(30 24)" onmousedown="handlePan(0,-1)">
                  <use xlink:href="#rim" fill="#404040">
                        <set attributeName="fill" to="#808080" begin="arrowUp.mouseover" end="arrowUp.mouseout"/>
                  </use>
                  <path fill="none" stroke="white" stroke-width="1.5" d="M0,-3.0v7 M-2.5,-0.5L0,-3.0L2.5,-0.5"/>
                </g>
                <g id="arrowRight" xlink:href="#dirArrow" transform="rotate(90) translate(36 -43)" onmousedown="handlePan(1,0)">
                  <use xlink:href="#rim" fill="#404040">
                        <set attributeName="fill" to="#808080" begin="arrowRight.mouseover" end="arrowRight.mouseout"/>
                  </use>
                  <path fill="none" stroke="white" stroke-width="1.5" d="M0,-3.0v7 M-2.5,-0.5L0,-3.0L2.5,-0.5"/>
                </g>
                <g id="arrowDown" xlink:href="#dirArrow" transform="rotate(180) translate(-30 -48)" onmousedown="handlePan(0,1)">
                  <use xlink:href="#rim" fill="#404040">
                        <set attributeName="fill" to="#808080" begin="arrowDown.mouseover" end="arrowDown.mouseout"/>
                  </use>
                  <path fill="none" stroke="white" stroke-width="1.5" d="M0,-3.0v7 M-2.5,-0.5L0,-3.0L2.5,-0.5"/>
                </g>
                <g id="arrowLeft" xlink:href="#dirArrow" transform="rotate(270) translate(-36 17)" onmousedown="handlePan(-1,0)">
                  <use xlink:href="#rim" fill="#404040">
                        <set attributeName="fill" to="#808080" begin="arrowLeft.mouseover" end="arrowLeft.mouseout"/>
                  </use>
                  <path fill="none" stroke="white" stroke-width="1.5" d="M0,-3.0v7 M-2.5,-0.5L0,-3.0L2.5,-0.5"/>
                </g>
        </g>
        <svg viewBox="0 0 15 15" width="100%" height="30px" preserveAspectRatio="xMaxYMin meet">
         <g id="arrow_out" transform="scale(0.3 0.3)">
          <a xlink:href="classrc_engine_impl_aed3e25c038699a7e34add46870c2a8e4_icgraph_org.svg" target="_base">
           <rect id="button" ry="5" rx="5" y="6" x="6" height="38" width="38"
                fill="#f2f5e9" fill-opacity="0.5" stroke="#606060" stroke-width="1.0"/>
           <path id="arrow"
             d="M 11.500037,31.436501 C 11.940474,20.09759 22.043105,11.32322 32.158766,21.979434 L 37.068811,17.246167 C 37.068811,17.246167 37.088388,32 37.088388,32 L 22.160133,31.978069 C 22.160133,31.978069 26.997745,27.140456 26.997745,27.140456 C 18.528582,18.264221 13.291696,25.230495 11.500037,31.436501 z"
             style="fill:#404040;"/>
          </a>
         </g>
        </svg>
</svg>
