<?xml version="1.0" encoding="UTF-8" standalone="no"?>
<!DOCTYPE svg PUBLIC "-//W3C//DTD SVG 1.1//EN"
 "http://www.w3.org/Graphics/SVG/1.1/DTD/svg11.dtd">
<!-- Generated by graphviz version 2.32.0 (20130916.1925)
 -->
<!-- Title: rcNumericChoiceSettingWidget::choiceSelected Pages: 1 -->
<svg width="562pt" height="247pt"
 viewBox="0.00 0.00 562.00 247.00" xmlns="http://www.w3.org/2000/svg" xmlns:xlink="http://www.w3.org/1999/xlink">
<g id="graph0" class="graph" transform="scale(1 1) rotate(0) translate(4 243)">
<title>rcNumericChoiceSettingWidget::choiceSelected</title>
<polygon fill="white" stroke="white" points="-4,5 -4,-243 559,-243 559,5 -4,5"/>
<!-- Node1 -->
<g id="node1" class="node"><title>Node1</title>
<polygon fill="#bfbfbf" stroke="black" points="0.529785,-103 0.529785,-135 155.47,-135 155.47,-103 0.529785,-103"/>
<text text-anchor="start" x="8.52979" y="-121" font-family="Helvetica,sans-Serif" font-size="10.00">rcNumericChoiceSettingWidget</text>
<text text-anchor="middle" x="78" y="-109" font-family="Helvetica,sans-Serif" font-size="10.00">::choiceSelected</text>
</g>
<!-- Node2 -->
<g id="node2" class="node"><title>Node2</title>
<g id="a_node2"><a xlink:href="classrc_setting_info.html#a6d3cda0e1b71a0f7c2061015fb02d3d8" target="_top" xlink:title="rcSettingInfo::getChoice">
<polygon fill="white" stroke="black" points="214.636,-219 214.636,-239 337.364,-239 337.364,-219 214.636,-219"/>
<text text-anchor="middle" x="276" y="-225" font-family="Helvetica,sans-Serif" font-size="10.00">rcSettingInfo::getChoice</text>
</a>
</g>
</g>
<!-- Node1&#45;&gt;Node2 -->
<g id="edge1" class="edge"><title>Node1&#45;&gt;Node2</title>
<path fill="none" stroke="midnightblue" d="M94.6391,-135.24C115.117,-155.547 153.017,-189.951 192,-209 197.289,-211.585 202.936,-213.849 208.7,-215.829"/>
<polygon fill="midnightblue" stroke="midnightblue" points="207.883,-219.241 218.472,-218.902 209.982,-212.564 207.883,-219.241"/>
</g>
<!-- Node3 -->
<g id="node3" class="node"><title>Node3</title>
<g id="a_node3"><a xlink:href="structrc_setting_choice.html#a2d47fcdec3c4938ae6ffd0581fa22887" target="_top" xlink:title="rcSettingChoice::getFloat\lValue">
<polygon fill="white" stroke="black" points="211.86,-168 211.86,-200 340.14,-200 340.14,-168 211.86,-168"/>
<text text-anchor="start" x="219.86" y="-186" font-family="Helvetica,sans-Serif" font-size="10.00">rcSettingChoice::getFloat</text>
<text text-anchor="middle" x="276" y="-174" font-family="Helvetica,sans-Serif" font-size="10.00">Value</text>
</a>
</g>
</g>
<!-- Node1&#45;&gt;Node3 -->
<g id="edge2" class="edge"><title>Node1&#45;&gt;Node3</title>
<path fill="none" stroke="midnightblue" d="M124.534,-135.049C145.097,-142.211 169.724,-150.669 192,-158 198.804,-160.239 205.937,-162.542 213.042,-164.806"/>
<polygon fill="midnightblue" stroke="midnightblue" points="212.091,-168.177 222.681,-167.862 214.207,-161.504 212.091,-168.177"/>
</g>
<!-- Node4 -->
<g id="node4" class="node"><title>Node4</title>
<g id="a_node4"><a xlink:href="classrc_model_domain.html#a8fafb31fce65382de4c9d4c35b72eb3d" target="_top" xlink:title="rcModelDomain::getModelDomain">
<polygon fill="white" stroke="black" points="192.412,-129 192.412,-149 359.588,-149 359.588,-129 192.412,-129"/>
<text text-anchor="middle" x="276" y="-135" font-family="Helvetica,sans-Serif" font-size="10.00">rcModelDomain::getModelDomain</text>
</a>
</g>
</g>
<!-- Node1&#45;&gt;Node4 -->
<g id="edge3" class="edge"><title>Node1&#45;&gt;Node4</title>
<path fill="none" stroke="midnightblue" d="M155.621,-126.818C164.358,-127.71 173.333,-128.626 182.25,-129.536"/>
<polygon fill="midnightblue" stroke="midnightblue" points="181.974,-133.026 192.278,-130.559 182.685,-126.062 181.974,-133.026"/>
</g>
<!-- Node5 -->
<g id="node5" class="node"><title>Node5</title>
<g id="a_node5"><a xlink:href="classrc_setting_info.html#a1b99595ec48ea7982c8a8c7f3afd0534" target="_top" xlink:title="rcSettingInfo::getNChoices">
<polygon fill="white" stroke="black" points="208.525,-90 208.525,-110 343.475,-110 343.475,-90 208.525,-90"/>
<text text-anchor="middle" x="276" y="-96" font-family="Helvetica,sans-Serif" font-size="10.00">rcSettingInfo::getNChoices</text>
</a>
</g>
</g>
<!-- Node1&#45;&gt;Node5 -->
<g id="edge4" class="edge"><title>Node1&#45;&gt;Node5</title>
<path fill="none" stroke="midnightblue" d="M155.621,-111.572C169.617,-110.216 184.225,-108.8 198.226,-107.442"/>
<polygon fill="midnightblue" stroke="midnightblue" points="198.68,-110.915 208.296,-106.466 198.005,-103.947 198.68,-110.915"/>
</g>
<!-- Node6 -->
<g id="node6" class="node"><title>Node6</title>
<g id="a_node6"><a xlink:href="classrc_model_domain.html#a964f8cb50c816a0826dbbbc60bb78006" target="_top" xlink:title="rcModelDomain::notifySetting\lChange">
<polygon fill="white" stroke="black" points="202.692,-39 202.692,-71 349.308,-71 349.308,-39 202.692,-39"/>
<text text-anchor="start" x="210.692" y="-57" font-family="Helvetica,sans-Serif" font-size="10.00">rcModelDomain::notifySetting</text>
<text text-anchor="middle" x="276" y="-45" font-family="Helvetica,sans-Serif" font-size="10.00">Change</text>
</a>
</g>
</g>
<!-- Node1&#45;&gt;Node6 -->
<g id="edge5" class="edge"><title>Node1&#45;&gt;Node6</title>
<path fill="none" stroke="midnightblue" d="M125.934,-102.973C146.22,-96.1094 170.247,-88.0637 192,-81 198.912,-78.7556 206.158,-76.4362 213.369,-74.1493"/>
<polygon fill="midnightblue" stroke="midnightblue" points="214.664,-77.4108 223.145,-71.0611 212.555,-70.7359 214.664,-77.4108"/>
</g>
<!-- Node8 -->
<g id="node8" class="node"><title>Node8</title>
<g id="a_node8"><a xlink:href="classrc_setting_info.html#a56e4a99afd7b35b9ac8bfcb853dcdc4d" target="_top" xlink:title="rcSettingInfo::setValue">
<polygon fill="white" stroke="black" points="218.061,-0 218.061,-20 333.939,-20 333.939,-0 218.061,-0"/>
<text text-anchor="middle" x="276" y="-6" font-family="Helvetica,sans-Serif" font-size="10.00">rcSettingInfo::setValue</text>
</a>
</g>
</g>
<!-- Node1&#45;&gt;Node8 -->
<g id="edge7" class="edge"><title>Node1&#45;&gt;Node8</title>
<path fill="none" stroke="midnightblue" d="M94.6757,-102.948C115.192,-82.8749 153.133,-48.8613 192,-30 197.382,-27.3883 203.13,-25.103 208.995,-23.1061"/>
<polygon fill="midnightblue" stroke="midnightblue" points="210.424,-26.3267 218.931,-20.011 208.342,-19.6434 210.424,-26.3267"/>
</g>
<!-- Node7 -->
<g id="node7" class="node"><title>Node7</title>
<g id="a_node7"><a xlink:href="classrc_model_domain.html#af20f3010314a2ddf0ec3b3aa82f466b5" target="_top" xlink:title="rcModelDomain::updateSettings">
<polygon fill="white" stroke="black" points="395.85,-45 395.85,-65 554.15,-65 554.15,-45 395.85,-45"/>
<text text-anchor="middle" x="475" y="-51" font-family="Helvetica,sans-Serif" font-size="10.00">rcModelDomain::updateSettings</text>
</a>
</g>
</g>
<!-- Node6&#45;&gt;Node7 -->
<g id="edge6" class="edge"><title>Node6&#45;&gt;Node7</title>
<path fill="none" stroke="midnightblue" d="M349.516,-55C361.259,-55 373.531,-55 385.6,-55"/>
<polygon fill="midnightblue" stroke="midnightblue" points="385.673,-58.5001 395.673,-55 385.673,-51.5001 385.673,-58.5001"/>
</g>
</g>
</svg>
