<?xml version="1.0" encoding="UTF-8" standalone="no"?>
<!DOCTYPE svg PUBLIC "-//W3C//DTD SVG 1.1//EN"
 "http://www.w3.org/Graphics/SVG/1.1/DTD/svg11.dtd">
<!-- Generated by graphviz version 2.32.0 (20130916.1925)
 -->
<!-- Title: rc2DTrackRenderInfo::tickCount Pages: 1 -->
<svg width="542pt" height="382pt"
 viewBox="0.00 0.00 542.00 382.00" xmlns="http://www.w3.org/2000/svg" xmlns:xlink="http://www.w3.org/1999/xlink">
<g id="graph0" class="graph" transform="scale(1 1) rotate(0) translate(4 378)">
<title>rc2DTrackRenderInfo::tickCount</title>
<polygon fill="white" stroke="white" points="-4,5 -4,-378 539,-378 539,5 -4,5"/>
<!-- Node1 -->
<g id="node1" class="node"><title>Node1</title>
<polygon fill="#bfbfbf" stroke="black" points="0.387695,-159 0.387695,-191 111.612,-191 111.612,-159 0.387695,-159"/>
<text text-anchor="start" x="8.3877" y="-177" font-family="Helvetica,sans-Serif" font-size="10.00">rc2DTrackRenderInfo</text>
<text text-anchor="middle" x="56" y="-165" font-family="Helvetica,sans-Serif" font-size="10.00">::tickCount</text>
</g>
<!-- Node2 -->
<g id="node2" class="node"><title>Node2</title>
<g id="a_node2"><a xlink:href="classrc_speed_direction_track_render_info.html#af7d9751b61250437dfe330b55357fc17" target="_top" xlink:title="rcSpeedDirectionTrackRender\lInfo::init">
<polygon fill="white" stroke="black" points="152.932,-334 152.932,-366 303.068,-366 303.068,-334 152.932,-334"/>
<text text-anchor="start" x="160.932" y="-352" font-family="Helvetica,sans-Serif" font-size="10.00">rcSpeedDirectionTrackRender</text>
<text text-anchor="middle" x="228" y="-340" font-family="Helvetica,sans-Serif" font-size="10.00">Info::init</text>
</a>
</g>
</g>
<!-- Node1&#45;&gt;Node2 -->
<g id="edge1" class="edge"><title>Node1&#45;&gt;Node2</title>
<path fill="none" stroke="midnightblue" d="M67.6403,-200.678C81.7858,-231.992 109.549,-284.726 148,-317 156.083,-323.785 165.759,-329.344 175.523,-333.837"/>
<polygon fill="midnightblue" stroke="midnightblue" points="70.7551,-199.065 63.5299,-191.316 64.3457,-201.88 70.7551,-199.065"/>
</g>
<!-- Node4 -->
<g id="node4" class="node"><title>Node4</title>
<g id="a_node4"><a xlink:href="classrc_speed_direction_compass_track_render_info.html#af3a2d27ec604227b740270df01286b09" target="_top" xlink:title="rcSpeedDirectionCompassTrack\lRenderInfo::init">
<polygon fill="white" stroke="black" points="148.213,-276 148.213,-308 307.787,-308 307.787,-276 148.213,-276"/>
<text text-anchor="start" x="156.213" y="-294" font-family="Helvetica,sans-Serif" font-size="10.00">rcSpeedDirectionCompassTrack</text>
<text text-anchor="middle" x="228" y="-282" font-family="Helvetica,sans-Serif" font-size="10.00">RenderInfo::init</text>
</a>
</g>
</g>
<!-- Node1&#45;&gt;Node4 -->
<g id="edge3" class="edge"><title>Node1&#45;&gt;Node4</title>
<path fill="none" stroke="midnightblue" d="M79.2755,-198.803C96.7403,-216.492 122.313,-240.345 148,-257 159.076,-264.182 171.873,-270.562 183.898,-275.843"/>
<polygon fill="midnightblue" stroke="midnightblue" points="81.3281,-195.893 71.8504,-191.157 76.3064,-200.77 81.3281,-195.893"/>
</g>
<!-- Node6 -->
<g id="node6" class="node"><title>Node6</title>
<g id="a_node6"><a xlink:href="classrc_persistence_compass_track_render_info.html#a0748157894cc44f006317798526d4d82" target="_top" xlink:title="rcPersistenceCompassTrack\lRenderInfo::init">
<polygon fill="white" stroke="black" points="156.277,-216 156.277,-248 299.723,-248 299.723,-216 156.277,-216"/>
<text text-anchor="start" x="164.277" y="-234" font-family="Helvetica,sans-Serif" font-size="10.00">rcPersistenceCompassTrack</text>
<text text-anchor="middle" x="228" y="-222" font-family="Helvetica,sans-Serif" font-size="10.00">RenderInfo::init</text>
</a>
</g>
</g>
<!-- Node1&#45;&gt;Node6 -->
<g id="edge5" class="edge"><title>Node1&#45;&gt;Node6</title>
<path fill="none" stroke="midnightblue" d="M114.304,-194.214C135.413,-201.292 159.081,-209.227 179.258,-215.992"/>
<polygon fill="midnightblue" stroke="midnightblue" points="115.401,-190.89 104.807,-191.029 113.175,-197.527 115.401,-190.89"/>
</g>
<!-- Node8 -->
<g id="node8" class="node"><title>Node8</title>
<g id="a_node8"><a xlink:href="classrc_persistence_histogram_track_render_info.html#ab6cf2ecd7acbf39030c6a9ff745bbf58" target="_top" xlink:title="rcPersistenceHistogramTrack\lRenderInfo::init">
<polygon fill="white" stroke="black" points="154.612,-159 154.612,-191 301.388,-191 301.388,-159 154.612,-159"/>
<text text-anchor="start" x="162.612" y="-177" font-family="Helvetica,sans-Serif" font-size="10.00">rcPersistenceHistogramTrack</text>
<text text-anchor="middle" x="228" y="-165" font-family="Helvetica,sans-Serif" font-size="10.00">RenderInfo::init</text>
</a>
</g>
</g>
<!-- Node1&#45;&gt;Node8 -->
<g id="edge7" class="edge"><title>Node1&#45;&gt;Node8</title>
<path fill="none" stroke="midnightblue" d="M121.783,-175C132.443,-175 143.553,-175 154.388,-175"/>
<polygon fill="midnightblue" stroke="midnightblue" points="121.725,-171.5 111.725,-175 121.725,-178.5 121.725,-171.5"/>
</g>
<!-- Node10 -->
<g id="node10" class="node"><title>Node10</title>
<g id="a_node10"><a xlink:href="classrc_a_c_i_compass_track_render_info.html#a31866fe082a01a2c5afdc5118a2c08b1" target="_top" xlink:title="rcACICompassTrackRenderInfo\l::init">
<polygon fill="white" stroke="black" points="149.326,-107 149.326,-139 306.674,-139 306.674,-107 149.326,-107"/>
<text text-anchor="start" x="157.326" y="-125" font-family="Helvetica,sans-Serif" font-size="10.00">rcACICompassTrackRenderInfo</text>
<text text-anchor="middle" x="228" y="-113" font-family="Helvetica,sans-Serif" font-size="10.00">::init</text>
</a>
</g>
</g>
<!-- Node1&#45;&gt;Node10 -->
<g id="edge9" class="edge"><title>Node1&#45;&gt;Node10</title>
<path fill="none" stroke="midnightblue" d="M119.035,-156.025C137.232,-150.459 156.946,-144.428 174.488,-139.063"/>
<polygon fill="midnightblue" stroke="midnightblue" points="117.932,-152.702 109.393,-158.974 119.979,-159.396 117.932,-152.702"/>
</g>
<!-- Node12 -->
<g id="node12" class="node"><title>Node12</title>
<g id="a_node12"><a xlink:href="classrc_a_c_i_histogram_track_render_info.html#a66a4157ccfcfd211b4dac4a9bcc355b7" target="_top" xlink:title="rcACIHistogramTrackRender\lInfo::init">
<polygon fill="white" stroke="black" points="156.001,-55 156.001,-87 299.999,-87 299.999,-55 156.001,-55"/>
<text text-anchor="start" x="164.001" y="-73" font-family="Helvetica,sans-Serif" font-size="10.00">rcACIHistogramTrackRender</text>
<text text-anchor="middle" x="228" y="-61" font-family="Helvetica,sans-Serif" font-size="10.00">Info::init</text>
</a>
</g>
</g>
<!-- Node1&#45;&gt;Node12 -->
<g id="edge11" class="edge"><title>Node1&#45;&gt;Node12</title>
<path fill="none" stroke="midnightblue" d="M79.7762,-151.492C97.1554,-134.669 122.396,-112.517 148,-98 155.313,-93.8537 163.367,-90.2002 171.452,-87.0291"/>
<polygon fill="midnightblue" stroke="midnightblue" points="77.0303,-149.284 72.3713,-158.8 81.9474,-154.267 77.0303,-149.284"/>
</g>
<!-- Node14 -->
<g id="node14" class="node"><title>Node14</title>
<g id="a_node14"><a xlink:href="classrc_distance_track_render_info.html#ab82b6b17f0927ec04e13a6ba491e9b72" target="_top" xlink:title="rcDistanceTrackRenderInfo\l::init">
<polygon fill="white" stroke="black" points="159.326,-1 159.326,-33 296.674,-33 296.674,-1 159.326,-1"/>
<text text-anchor="start" x="167.326" y="-19" font-family="Helvetica,sans-Serif" font-size="10.00">rcDistanceTrackRenderInfo</text>
<text text-anchor="middle" x="228" y="-7" font-family="Helvetica,sans-Serif" font-size="10.00">::init</text>
</a>
</g>
</g>
<!-- Node1&#45;&gt;Node14 -->
<g id="edge13" class="edge"><title>Node1&#45;&gt;Node14</title>
<path fill="none" stroke="midnightblue" d="M68.9109,-149.686C83.6857,-120.821 111.458,-74.0179 148,-46 154.609,-40.9328 162.191,-36.6844 169.986,-33.1414"/>
<polygon fill="midnightblue" stroke="midnightblue" points="65.7299,-148.222 64.4048,-158.734 71.9958,-151.343 65.7299,-148.222"/>
</g>
<!-- Node3 -->
<g id="node3" class="node"><title>Node3</title>
<g id="a_node3"><a xlink:href="classrc_speed_direction_track_render_info.html#a7e534314195c4cbdb3193663a69dcfd1" target="_top" xlink:title="rcSpeedDirectionTrackRender\lInfo::rcSpeedDirectionTrackRenderInfo">
<polygon fill="white" stroke="black" points="344.474,-342 344.474,-374 533.526,-374 533.526,-342 344.474,-342"/>
<text text-anchor="start" x="352.474" y="-360" font-family="Helvetica,sans-Serif" font-size="10.00">rcSpeedDirectionTrackRender</text>
<text text-anchor="middle" x="439" y="-348" font-family="Helvetica,sans-Serif" font-size="10.00">Info::rcSpeedDirectionTrackRenderInfo</text>
</a>
</g>
</g>
<!-- Node2&#45;&gt;Node3 -->
<g id="edge2" class="edge"><title>Node2&#45;&gt;Node3</title>
<path fill="none" stroke="midnightblue" d="M313.336,-353.228C323.501,-353.617 333.931,-354.016 344.22,-354.41"/>
<polygon fill="midnightblue" stroke="midnightblue" points="313.401,-349.728 303.274,-352.843 313.133,-356.723 313.401,-349.728"/>
</g>
<!-- Node5 -->
<g id="node5" class="node"><title>Node5</title>
<g id="a_node5"><a xlink:href="classrc_speed_direction_compass_track_render_info.html#a9e4ea7590498ffd532649d5bb6dbbb63" target="_top" xlink:title="rcSpeedDirectionCompassTrack\lRenderInfo::rcSpeedDirectionCompass\lTrackRenderInfo">
<polygon fill="white" stroke="black" points="344.013,-279 344.013,-323 533.987,-323 533.987,-279 344.013,-279"/>
<text text-anchor="start" x="352.013" y="-309" font-family="Helvetica,sans-Serif" font-size="10.00">rcSpeedDirectionCompassTrack</text>
<text text-anchor="start" x="352.013" y="-297" font-family="Helvetica,sans-Serif" font-size="10.00">RenderInfo::rcSpeedDirectionCompass</text>
<text text-anchor="middle" x="439" y="-285" font-family="Helvetica,sans-Serif" font-size="10.00">TrackRenderInfo</text>
</a>
</g>
</g>
<!-- Node4&#45;&gt;Node5 -->
<g id="edge4" class="edge"><title>Node4&#45;&gt;Node5</title>
<path fill="none" stroke="midnightblue" d="M318.237,-295.843C326.685,-296.207 335.27,-296.576 343.763,-296.942"/>
<polygon fill="midnightblue" stroke="midnightblue" points="318.155,-292.336 308.014,-295.403 317.854,-299.33 318.155,-292.336"/>
</g>
<!-- Node7 -->
<g id="node7" class="node"><title>Node7</title>
<g id="a_node7"><a xlink:href="classrc_persistence_compass_track_render_info.html#ad019d99ea17990c3158326cd6822da6e" target="_top" xlink:title="rcPersistenceCompassTrack\lRenderInfo::rcPersistenceCompass\lTrackRenderInfo">
<polygon fill="white" stroke="black" points="352.077,-216 352.077,-260 525.923,-260 525.923,-216 352.077,-216"/>
<text text-anchor="start" x="360.077" y="-246" font-family="Helvetica,sans-Serif" font-size="10.00">rcPersistenceCompassTrack</text>
<text text-anchor="start" x="360.077" y="-234" font-family="Helvetica,sans-Serif" font-size="10.00">RenderInfo::rcPersistenceCompass</text>
<text text-anchor="middle" x="439" y="-222" font-family="Helvetica,sans-Serif" font-size="10.00">TrackRenderInfo</text>
</a>
</g>
</g>
<!-- Node6&#45;&gt;Node7 -->
<g id="edge6" class="edge"><title>Node6&#45;&gt;Node7</title>
<path fill="none" stroke="midnightblue" d="M310.076,-234.328C323.734,-234.72 337.954,-235.128 351.738,-235.524"/>
<polygon fill="midnightblue" stroke="midnightblue" points="309.854,-230.82 299.758,-234.031 309.653,-237.817 309.854,-230.82"/>
</g>
<!-- Node9 -->
<g id="node9" class="node"><title>Node9</title>
<g id="a_node9"><a xlink:href="classrc_persistence_histogram_track_render_info.html#ae73edd267518ecb44ba0c27f165c1cdd" target="_top" xlink:title="rcPersistenceHistogramTrack\lRenderInfo::rcPersistenceHistogram\lTrackRenderInfo">
<polygon fill="white" stroke="black" points="350.412,-153 350.412,-197 527.588,-197 527.588,-153 350.412,-153"/>
<text text-anchor="start" x="358.412" y="-183" font-family="Helvetica,sans-Serif" font-size="10.00">rcPersistenceHistogramTrack</text>
<text text-anchor="start" x="358.412" y="-171" font-family="Helvetica,sans-Serif" font-size="10.00">RenderInfo::rcPersistenceHistogram</text>
<text text-anchor="middle" x="439" y="-159" font-family="Helvetica,sans-Serif" font-size="10.00">TrackRenderInfo</text>
</a>
</g>
</g>
<!-- Node8&#45;&gt;Node9 -->
<g id="edge8" class="edge"><title>Node8&#45;&gt;Node9</title>
<path fill="none" stroke="midnightblue" d="M311.561,-175C324.232,-175 337.353,-175 350.133,-175"/>
<polygon fill="midnightblue" stroke="midnightblue" points="311.512,-171.5 301.512,-175 311.511,-178.5 311.512,-171.5"/>
</g>
<!-- Node11 -->
<g id="node11" class="node"><title>Node11</title>
<g id="a_node11"><a xlink:href="classrc_a_c_i_compass_track_render_info.html#a9a98f0afc813a1d3b60b05ca32b724a1" target="_top" xlink:title="rcACICompassTrackRenderInfo\l::rcACICompassTrackRenderInfo">
<polygon fill="white" stroke="black" points="357.548,-102 357.548,-134 520.452,-134 520.452,-102 357.548,-102"/>
<text text-anchor="start" x="365.548" y="-120" font-family="Helvetica,sans-Serif" font-size="10.00">rcACICompassTrackRenderInfo</text>
<text text-anchor="middle" x="439" y="-108" font-family="Helvetica,sans-Serif" font-size="10.00">::rcACICompassTrackRenderInfo</text>
</a>
</g>
</g>
<!-- Node10&#45;&gt;Node11 -->
<g id="edge10" class="edge"><title>Node10&#45;&gt;Node11</title>
<path fill="none" stroke="midnightblue" d="M316.969,-120.895C330.35,-120.575 344.102,-120.246 357.317,-119.93"/>
<polygon fill="midnightblue" stroke="midnightblue" points="316.737,-117.4 306.824,-121.138 316.905,-124.398 316.737,-117.4"/>
</g>
<!-- Node13 -->
<g id="node13" class="node"><title>Node13</title>
<g id="a_node13"><a xlink:href="classrc_a_c_i_histogram_track_render_info.html#a7e54cabb6897e3e29d665e6b5d8ba9c1" target="_top" xlink:title="rcACIHistogramTrackRender\lInfo::rcACIHistogramTrackRenderInfo">
<polygon fill="white" stroke="black" points="347.543,-51 347.543,-83 530.457,-83 530.457,-51 347.543,-51"/>
<text text-anchor="start" x="355.543" y="-69" font-family="Helvetica,sans-Serif" font-size="10.00">rcACIHistogramTrackRender</text>
<text text-anchor="middle" x="439" y="-57" font-family="Helvetica,sans-Serif" font-size="10.00">Info::rcACIHistogramTrackRenderInfo</text>
</a>
</g>
</g>
<!-- Node12&#45;&gt;Node13 -->
<g id="edge12" class="edge"><title>Node12&#45;&gt;Node13</title>
<path fill="none" stroke="midnightblue" d="M310.205,-69.4458C322.439,-69.2117 335.121,-68.969 347.535,-68.7314"/>
<polygon fill="midnightblue" stroke="midnightblue" points="309.981,-65.9494 300.049,-69.6402 310.115,-72.9481 309.981,-65.9494"/>
</g>
<!-- Node15 -->
<g id="node15" class="node"><title>Node15</title>
<g id="a_node15"><a xlink:href="classrc_distance_track_render_info.html#afced435a73c012a64010606abd8851f1" target="_top" xlink:title="rcDistanceTrackRenderInfo\l::rcDistanceTrackRenderInfo">
<polygon fill="white" stroke="black" points="367.548,-0 367.548,-32 510.452,-32 510.452,-0 367.548,-0"/>
<text text-anchor="start" x="375.548" y="-18" font-family="Helvetica,sans-Serif" font-size="10.00">rcDistanceTrackRenderInfo</text>
<text text-anchor="middle" x="439" y="-6" font-family="Helvetica,sans-Serif" font-size="10.00">::rcDistanceTrackRenderInfo</text>
</a>
</g>
</g>
<!-- Node14&#45;&gt;Node15 -->
<g id="edge14" class="edge"><title>Node14&#45;&gt;Node15</title>
<path fill="none" stroke="midnightblue" d="M307.044,-16.6266C326.791,-16.5321 347.888,-16.4312 367.252,-16.3385"/>
<polygon fill="midnightblue" stroke="midnightblue" points="306.839,-13.1274 296.856,-16.6753 306.873,-20.1273 306.839,-13.1274"/>
</g>
</g>
</svg>
