<?xml version="1.0" encoding="UTF-8" standalone="no"?>
<!DOCTYPE svg PUBLIC "-//W3C//DTD SVG 1.1//EN"
 "http://www.w3.org/Graphics/SVG/1.1/DTD/svg11.dtd">
<!-- Generated by graphviz version 2.32.0 (20130916.1925)
 -->
<!-- Title: rcSegmentIterator::contains Pages: 1 -->
<svg width="1642pt" height="759pt"
 viewBox="0.00 0.00 1642.00 759.00" xmlns="http://www.w3.org/2000/svg" xmlns:xlink="http://www.w3.org/1999/xlink">
<g id="graph0" class="graph" transform="scale(1 1) rotate(0) translate(4 755)">
<title>rcSegmentIterator::contains</title>
<polygon fill="white" stroke="white" points="-4,5 -4,-755 1639,-755 1639,5 -4,5"/>
<!-- Node1 -->
<g id="node1" class="node"><title>Node1</title>
<polygon fill="#bfbfbf" stroke="black" points="0.20459,-345 0.20459,-377 101.795,-377 101.795,-345 0.20459,-345"/>
<text text-anchor="start" x="8.20459" y="-363" font-family="Helvetica,sans-Serif" font-size="10.00">rcSegmentIterator::</text>
<text text-anchor="middle" x="51" y="-351" font-family="Helvetica,sans-Serif" font-size="10.00">contains</text>
</g>
<!-- Node2 -->
<g id="node2" class="node"><title>Node2</title>
<g id="a_node2"><a xlink:href="classrc_monitor.html#a3bcbb4b6407a93a12899aae5644de2e9" target="_top" xlink:title="rcMonitor::addGraphics">
<polygon fill="white" stroke="black" points="151.035,-533 151.035,-553 270.965,-553 270.965,-533 151.035,-533"/>
<text text-anchor="middle" x="211" y="-539" font-family="Helvetica,sans-Serif" font-size="10.00">rcMonitor::addGraphics</text>
</a>
</g>
</g>
<!-- Node1&#45;&gt;Node2 -->
<g id="edge1" class="edge"><title>Node1&#45;&gt;Node2</title>
<path fill="none" stroke="midnightblue" d="M58.9025,-386.868C69.756,-422.543 94.2264,-486.457 138,-522 143.661,-526.596 150.29,-530.187 157.194,-532.991"/>
<polygon fill="midnightblue" stroke="midnightblue" points="62.2384,-385.805 56.0809,-377.183 55.5178,-387.763 62.2384,-385.805"/>
</g>
<!-- Node18 -->
<g id="node18" class="node"><title>Node18</title>
<g id="a_node18"><a xlink:href="classrc_c_s_v_exporter.html#a9ae5e2e7a0f6a907074a9b0005f0f636" target="_top" xlink:title="rcCSVExporter::exportTracks">
<polygon fill="white" stroke="black" points="138.166,-351 138.166,-371 283.834,-371 283.834,-351 138.166,-351"/>
<text text-anchor="middle" x="211" y="-357" font-family="Helvetica,sans-Serif" font-size="10.00">rcCSVExporter::exportTracks</text>
</a>
</g>
</g>
<!-- Node1&#45;&gt;Node18 -->
<g id="edge24" class="edge"><title>Node1&#45;&gt;Node18</title>
<path fill="none" stroke="midnightblue" d="M112.159,-361C120.642,-361 129.433,-361 138.108,-361"/>
<polygon fill="midnightblue" stroke="midnightblue" points="111.992,-357.5 101.992,-361 111.992,-364.5 111.992,-357.5"/>
</g>
<!-- Node24 -->
<g id="node24" class="node"><title>Node24</title>
<g id="a_node24"><a xlink:href="classrc_image_canvas_g_l.html#ac8b4aa9f1a730692eb00c7a096a1a751" target="_top" xlink:title="rcImageCanvasGL::findCell\lPositionTracks">
<polygon fill="white" stroke="black" points="141.862,-441 141.862,-473 280.138,-473 280.138,-441 141.862,-441"/>
<text text-anchor="start" x="149.862" y="-459" font-family="Helvetica,sans-Serif" font-size="10.00">rcImageCanvasGL::findCell</text>
<text text-anchor="middle" x="211" y="-447" font-family="Helvetica,sans-Serif" font-size="10.00">PositionTracks</text>
</a>
</g>
</g>
<!-- Node1&#45;&gt;Node24 -->
<g id="edge30" class="edge"><title>Node1&#45;&gt;Node24</title>
<path fill="none" stroke="midnightblue" d="M75.7214,-384.014C92.15,-398.979 115.105,-418.047 138,-431 144.478,-434.665 151.567,-437.97 158.689,-440.899"/>
<polygon fill="midnightblue" stroke="midnightblue" points="77.9202,-381.279 68.2097,-377.042 73.1581,-386.41 77.9202,-381.279"/>
</g>
<!-- Node31 -->
<g id="node31" class="node"><title>Node31</title>
<g id="a_node31"><a xlink:href="classrc_monitor.html#a8ed63a4e5c92bfa6747d35c91908fc9e" target="_top" xlink:title="rcMonitor::getPosition">
<polygon fill="white" stroke="black" points="154.646,-493 154.646,-513 267.354,-513 267.354,-493 154.646,-493"/>
<text text-anchor="middle" x="211" y="-499" font-family="Helvetica,sans-Serif" font-size="10.00">rcMonitor::getPosition</text>
</a>
</g>
</g>
<!-- Node1&#45;&gt;Node31 -->
<g id="edge38" class="edge"><title>Node1&#45;&gt;Node31</title>
<path fill="none" stroke="midnightblue" d="M63.6166,-386.41C77.4874,-413.953 103.247,-457.276 138,-482 144.366,-486.529 151.703,-490.088 159.206,-492.884"/>
<polygon fill="midnightblue" stroke="midnightblue" points="66.742,-384.833 59.2108,-377.381 60.4511,-387.903 66.742,-384.833"/>
</g>
<!-- Node32 -->
<g id="node32" class="node"><title>Node32</title>
<g id="a_node32"><a xlink:href="rc__cellinfowidget_8cpp.html#abb12f0aca5ec93691156ced677d17408" target="_top" xlink:title="getTrackValue">
<polygon fill="white" stroke="black" points="171.313,-210 171.313,-230 250.687,-230 250.687,-210 171.313,-210"/>
<text text-anchor="middle" x="211" y="-216" font-family="Helvetica,sans-Serif" font-size="10.00">getTrackValue</text>
</a>
</g>
</g>
<!-- Node1&#45;&gt;Node32 -->
<g id="edge40" class="edge"><title>Node1&#45;&gt;Node32</title>
<path fill="none" stroke="midnightblue" d="M63.2222,-335.662C76.8845,-307.763 102.595,-263.608 138,-239 147.766,-232.212 159.812,-227.849 171.237,-225.045"/>
<polygon fill="midnightblue" stroke="midnightblue" points="60.0145,-334.258 58.896,-344.794 66.3405,-337.255 60.0145,-334.258"/>
</g>
<!-- Node39 -->
<g id="node39" class="node"><title>Node39</title>
<g id="a_node39"><a xlink:href="classrc_image_canvas_g_l.html#a0f6dc6aae4d414d0ea9b40ebc44bbd46" target="_top" xlink:title="rcImageCanvasGL::getTrack\lValue">
<polygon fill="white" stroke="black" points="139.27,-390 139.27,-422 282.73,-422 282.73,-390 139.27,-390"/>
<text text-anchor="start" x="147.27" y="-408" font-family="Helvetica,sans-Serif" font-size="10.00">rcImageCanvasGL::getTrack</text>
<text text-anchor="middle" x="211" y="-396" font-family="Helvetica,sans-Serif" font-size="10.00">Value</text>
</a>
</g>
</g>
<!-- Node1&#45;&gt;Node39 -->
<g id="edge51" class="edge"><title>Node1&#45;&gt;Node39</title>
<path fill="none" stroke="midnightblue" d="M111.831,-378.04C125.578,-381.956 140.149,-386.106 153.739,-389.976"/>
<polygon fill="midnightblue" stroke="midnightblue" points="112.568,-374.611 101.992,-375.238 110.651,-381.344 112.568,-374.611"/>
</g>
<!-- Node40 -->
<g id="node40" class="node"><title>Node40</title>
<g id="a_node40"><a xlink:href="classrc_monitor.html#aead09690e699175f01ad7da45ce4111f" target="_top" xlink:title="rcMonitor::paintScalarTrack\lFocus">
<polygon fill="white" stroke="black" points="142.053,-249 142.053,-281 279.947,-281 279.947,-249 142.053,-249"/>
<text text-anchor="start" x="150.053" y="-267" font-family="Helvetica,sans-Serif" font-size="10.00">rcMonitor::paintScalarTrack</text>
<text text-anchor="middle" x="211" y="-255" font-family="Helvetica,sans-Serif" font-size="10.00">Focus</text>
</a>
</g>
</g>
<!-- Node1&#45;&gt;Node40 -->
<g id="edge53" class="edge"><title>Node1&#45;&gt;Node40</title>
<path fill="none" stroke="midnightblue" d="M75.3049,-337.831C91.7067,-322.561 114.794,-303.047 138,-290 143.882,-286.693 150.279,-283.711 156.75,-281.057"/>
<polygon fill="midnightblue" stroke="midnightblue" points="72.6604,-335.516 67.819,-344.94 77.4806,-340.592 72.6604,-335.516"/>
</g>
<!-- Node41 -->
<g id="node41" class="node"><title>Node41</title>
<g id="a_node41"><a xlink:href="classrc_native_exporter.html#a068bcd266a84f2dc16c1678c8d4e84b0" target="_top" xlink:title="rcNativeExporter::produce\lResults">
<polygon fill="white" stroke="black" points="144.919,-300 144.919,-332 277.081,-332 277.081,-300 144.919,-300"/>
<text text-anchor="start" x="152.919" y="-318" font-family="Helvetica,sans-Serif" font-size="10.00">rcNativeExporter::produce</text>
<text text-anchor="middle" x="211" y="-306" font-family="Helvetica,sans-Serif" font-size="10.00">Results</text>
</a>
</g>
</g>
<!-- Node1&#45;&gt;Node41 -->
<g id="edge54" class="edge"><title>Node1&#45;&gt;Node41</title>
<path fill="none" stroke="midnightblue" d="M111.831,-343.96C125.578,-340.044 140.149,-335.894 153.739,-332.024"/>
<polygon fill="midnightblue" stroke="midnightblue" points="110.651,-340.656 101.992,-346.762 112.568,-347.389 110.651,-340.656"/>
</g>
<!-- Node43 -->
<g id="node43" class="node"><title>Node43</title>
<g id="a_node43"><a xlink:href="classrc_scalar_track_widget.html#a29a1735b0b8498fe714384d69bc90044" target="_top" xlink:title="rcScalarTrackWidget\l::updateTrackDisplay">
<polygon fill="white" stroke="black" points="156.218,-102 156.218,-134 265.782,-134 265.782,-102 156.218,-102"/>
<text text-anchor="start" x="164.218" y="-120" font-family="Helvetica,sans-Serif" font-size="10.00">rcScalarTrackWidget</text>
<text text-anchor="middle" x="211" y="-108" font-family="Helvetica,sans-Serif" font-size="10.00">::updateTrackDisplay</text>
</a>
</g>
</g>
<!-- Node1&#45;&gt;Node43 -->
<g id="edge57" class="edge"><title>Node1&#45;&gt;Node43</title>
<path fill="none" stroke="midnightblue" d="M63.3928,-335.469C78.4591,-302.815 106.776,-245.098 138,-200 155.039,-175.39 178.472,-149.922 193.916,-134.03"/>
<polygon fill="midnightblue" stroke="midnightblue" points="60.1219,-334.206 59.1538,-344.757 66.49,-337.113 60.1219,-334.206"/>
</g>
<!-- Node3 -->
<g id="node3" class="node"><title>Node3</title>
<g id="a_node3"><a xlink:href="classrc_monitor.html#a0a6461095c1b44d7828d6d65b80f6713" target="_top" xlink:title="rcMonitor::gatherDevelopment\lTrackData">
<polygon fill="white" stroke="black" points="328.747,-572 328.747,-604 479.253,-604 479.253,-572 328.747,-572"/>
<text text-anchor="start" x="336.747" y="-590" font-family="Helvetica,sans-Serif" font-size="10.00">rcMonitor::gatherDevelopment</text>
<text text-anchor="middle" x="404" y="-578" font-family="Helvetica,sans-Serif" font-size="10.00">TrackData</text>
</a>
</g>
</g>
<!-- Node2&#45;&gt;Node3 -->
<g id="edge2" class="edge"><title>Node2&#45;&gt;Node3</title>
<path fill="none" stroke="midnightblue" d="M264.842,-555.45C286.476,-560.547 311.785,-566.51 334.788,-571.929"/>
<polygon fill="midnightblue" stroke="midnightblue" points="265.4,-551.985 254.864,-553.099 263.795,-558.799 265.4,-551.985"/>
</g>
<!-- Node17 -->
<g id="node17" class="node"><title>Node17</title>
<g id="a_node17"><a xlink:href="classrc_monitor.html#ab46f69006978606f59ce3740d45a0fe5" target="_top" xlink:title="rcMonitor::gatherTrackData">
<polygon fill="white" stroke="black" points="335.329,-533 335.329,-553 472.671,-553 472.671,-533 335.329,-533"/>
<text text-anchor="middle" x="404" y="-539" font-family="Helvetica,sans-Serif" font-size="10.00">rcMonitor::gatherTrackData</text>
</a>
</g>
</g>
<!-- Node2&#45;&gt;Node17 -->
<g id="edge22" class="edge"><title>Node2&#45;&gt;Node17</title>
<path fill="none" stroke="midnightblue" d="M281.289,-543C298.836,-543 317.663,-543 335.138,-543"/>
<polygon fill="midnightblue" stroke="midnightblue" points="281.126,-539.5 271.126,-543 281.126,-546.5 281.126,-539.5"/>
</g>
<!-- Node4 -->
<g id="node4" class="node"><title>Node4</title>
<g id="a_node4"><a xlink:href="classrc_monitor.html#a1a030f1c963f968121298bea1fa60321" target="_top" xlink:title="rcMonitor::updateCachedImage">
<polygon fill="white" stroke="black" points="531.961,-578 531.961,-598 688.039,-598 688.039,-578 531.961,-578"/>
<text text-anchor="middle" x="610" y="-584" font-family="Helvetica,sans-Serif" font-size="10.00">rcMonitor::updateCachedImage</text>
</a>
</g>
</g>
<!-- Node3&#45;&gt;Node4 -->
<g id="edge3" class="edge"><title>Node3&#45;&gt;Node4</title>
<path fill="none" stroke="midnightblue" d="M489.63,-588C503.652,-588 518.125,-588 531.948,-588"/>
<polygon fill="midnightblue" stroke="midnightblue" points="489.515,-584.5 479.515,-588 489.515,-591.5 489.515,-584.5"/>
</g>
<!-- Node5 -->
<g id="node5" class="node"><title>Node5</title>
<g id="a_node5"><a xlink:href="classrc_monitor.html#ace4a868b4792dd9865f2cbd13fac9199" target="_top" xlink:title="rcMonitor::displayTrackFocus">
<polygon fill="white" stroke="black" points="927.888,-597 927.888,-617 1074.11,-617 1074.11,-597 927.888,-597"/>
<text text-anchor="middle" x="1001" y="-603" font-family="Helvetica,sans-Serif" font-size="10.00">rcMonitor::displayTrackFocus</text>
</a>
</g>
</g>
<!-- Node4&#45;&gt;Node5 -->
<g id="edge4" class="edge"><title>Node4&#45;&gt;Node5</title>
<path fill="none" stroke="midnightblue" d="M698.322,-592.265C767.461,-595.642 862.871,-600.302 927.754,-603.471"/>
<polygon fill="midnightblue" stroke="midnightblue" points="698.478,-588.769 688.319,-591.777 698.136,-595.76 698.478,-588.769"/>
</g>
<!-- Node15 -->
<g id="node15" class="node"><title>Node15</title>
<g id="a_node15"><a xlink:href="classrc_monitor.html#af50b9bec8be3cb25d58629ea722088dc" target="_top" xlink:title="rcMonitor::paintVideoTrack\lFocus">
<polygon fill="white" stroke="black" points="744.525,-546 744.525,-578 879.475,-578 879.475,-546 744.525,-546"/>
<text text-anchor="start" x="752.525" y="-564" font-family="Helvetica,sans-Serif" font-size="10.00">rcMonitor::paintVideoTrack</text>
<text text-anchor="middle" x="812" y="-552" font-family="Helvetica,sans-Serif" font-size="10.00">Focus</text>
</a>
</g>
</g>
<!-- Node4&#45;&gt;Node15 -->
<g id="edge19" class="edge"><title>Node4&#45;&gt;Node15</title>
<path fill="none" stroke="midnightblue" d="M698.156,-576.67C713.669,-574.653 729.6,-572.582 744.424,-570.655"/>
<polygon fill="midnightblue" stroke="midnightblue" points="697.504,-573.225 688.039,-577.985 698.407,-580.166 697.504,-573.225"/>
</g>
<!-- Node16 -->
<g id="node16" class="node"><title>Node16</title>
<g id="a_node16"><a xlink:href="classrc_monitor.html#a127ffb18fd0cc155f5b9d73d76be92b8" target="_top" xlink:title="rcMonitor::updateDisplay">
<polygon fill="white" stroke="black" points="748.697,-636 748.697,-656 875.303,-656 875.303,-636 748.697,-636"/>
<text text-anchor="middle" x="812" y="-642" font-family="Helvetica,sans-Serif" font-size="10.00">rcMonitor::updateDisplay</text>
</a>
</g>
</g>
<!-- Node4&#45;&gt;Node16 -->
<g id="edge21" class="edge"><title>Node4&#45;&gt;Node16</title>
<path fill="none" stroke="midnightblue" d="M655.703,-600.964C692.116,-611.524 742.797,-626.221 776.227,-635.916"/>
<polygon fill="midnightblue" stroke="midnightblue" points="656.416,-597.527 645.837,-598.103 654.467,-604.25 656.416,-597.527"/>
</g>
<!-- Node6 -->
<g id="node6" class="node"><title>Node6</title>
<g id="a_node6"><a xlink:href="classrc_monitor.html#a191fd1af79d5f43582d88755419429ac" target="_top" xlink:title="rcMonitor::internalUpdate\lDisplay">
<polygon fill="white" stroke="black" points="1142.86,-599 1142.86,-631 1271.14,-631 1271.14,-599 1142.86,-599"/>
<text text-anchor="start" x="1150.86" y="-617" font-family="Helvetica,sans-Serif" font-size="10.00">rcMonitor::internalUpdate</text>
<text text-anchor="middle" x="1207" y="-605" font-family="Helvetica,sans-Serif" font-size="10.00">Display</text>
</a>
</g>
</g>
<!-- Node5&#45;&gt;Node6 -->
<g id="edge5" class="edge"><title>Node5&#45;&gt;Node6</title>
<path fill="none" stroke="midnightblue" d="M1084.29,-610.227C1103.76,-610.99 1124.22,-611.793 1142.7,-612.518"/>
<polygon fill="midnightblue" stroke="midnightblue" points="1084.34,-606.726 1074.21,-609.832 1084.06,-613.721 1084.34,-606.726"/>
</g>
<!-- Node7 -->
<g id="node7" class="node"><title>Node7</title>
<g id="a_node7"><a xlink:href="classrc_monitor.html#a365544a05e4cd905f6b9025ccb483117" target="_top" xlink:title="rcMonitor::paintEvent">
<polygon fill="white" stroke="black" points="1360.76,-731 1360.76,-751 1471.24,-751 1471.24,-731 1360.76,-731"/>
<text text-anchor="middle" x="1416" y="-737" font-family="Helvetica,sans-Serif" font-size="10.00">rcMonitor::paintEvent</text>
</a>
</g>
</g>
<!-- Node6&#45;&gt;Node7 -->
<g id="edge6" class="edge"><title>Node6&#45;&gt;Node7</title>
<path fill="none" stroke="midnightblue" d="M1230.95,-638.494C1255.73,-662.569 1297.41,-699.44 1340,-721 1347.94,-725.017 1356.76,-728.292 1365.5,-730.941"/>
<polygon fill="midnightblue" stroke="midnightblue" points="1233.09,-635.694 1223.51,-631.162 1228.17,-640.677 1233.09,-635.694"/>
</g>
<!-- Node8 -->
<g id="node8" class="node"><title>Node8</title>
<g id="a_node8"><a xlink:href="classrc_monitor.html#ad85bf9190c2c9332d24d2ee2dd4c1acf" target="_top" xlink:title="rcMonitor::settingChanged">
<polygon fill="white" stroke="black" points="1349.36,-653 1349.36,-673 1482.64,-673 1482.64,-653 1349.36,-653"/>
<text text-anchor="middle" x="1416" y="-659" font-family="Helvetica,sans-Serif" font-size="10.00">rcMonitor::settingChanged</text>
</a>
</g>
</g>
<!-- Node6&#45;&gt;Node8 -->
<g id="edge7" class="edge"><title>Node6&#45;&gt;Node8</title>
<path fill="none" stroke="midnightblue" d="M1281.34,-632.005C1311.61,-639.025 1345.65,-646.919 1371.8,-652.983"/>
<polygon fill="midnightblue" stroke="midnightblue" points="1281.76,-628.512 1271.23,-629.662 1280.18,-635.331 1281.76,-628.512"/>
</g>
<!-- Node10 -->
<g id="node10" class="node"><title>Node10</title>
<g id="a_node10"><a xlink:href="classrc_monitor.html#ae24f91aee12ee35053a43b405b0fd35c" target="_top" xlink:title="rcMonitor::updateAnalysisRect">
<polygon fill="white" stroke="black" points="1340.19,-485 1340.19,-505 1491.81,-505 1491.81,-485 1340.19,-485"/>
<text text-anchor="middle" x="1416" y="-491" font-family="Helvetica,sans-Serif" font-size="10.00">rcMonitor::updateAnalysisRect</text>
</a>
</g>
</g>
<!-- Node6&#45;&gt;Node10 -->
<g id="edge9" class="edge"><title>Node6&#45;&gt;Node10</title>
<path fill="none" stroke="midnightblue" d="M1232.46,-591.757C1257.59,-569.086 1298.74,-535.157 1340,-515 1348.23,-510.977 1357.38,-507.681 1366.39,-505.008"/>
<polygon fill="midnightblue" stroke="midnightblue" points="1229.9,-589.356 1224.89,-598.69 1234.63,-594.519 1229.9,-589.356"/>
</g>
<!-- Node11 -->
<g id="node11" class="node"><title>Node11</title>
<g id="a_node11"><a xlink:href="classrc_monitor.html#a6d7baed800c04560ee01809b016de702" target="_top" xlink:title="rcMonitor::updateAnalysis\lRectRotation">
<polygon fill="white" stroke="black" points="1350.47,-602 1350.47,-634 1481.53,-634 1481.53,-602 1350.47,-602"/>
<text text-anchor="start" x="1358.47" y="-620" font-family="Helvetica,sans-Serif" font-size="10.00">rcMonitor::updateAnalysis</text>
<text text-anchor="middle" x="1416" y="-608" font-family="Helvetica,sans-Serif" font-size="10.00">RectRotation</text>
</a>
</g>
</g>
<!-- Node6&#45;&gt;Node11 -->
<g id="edge11" class="edge"><title>Node6&#45;&gt;Node11</title>
<path fill="none" stroke="midnightblue" d="M1281.41,-616.064C1303.91,-616.39 1328.5,-616.746 1350.37,-617.063"/>
<polygon fill="midnightblue" stroke="midnightblue" points="1281.28,-612.562 1271.23,-615.916 1281.18,-619.561 1281.28,-612.562"/>
</g>
<!-- Node12 -->
<g id="node12" class="node"><title>Node12</title>
<g id="a_node12"><a xlink:href="classrc_monitor.html#ad8a4152cd70dd9aae4ad045378e26f06" target="_top" xlink:title="rcMonitor::updateCursorTime">
<polygon fill="white" stroke="black" points="1343.16,-563 1343.16,-583 1488.84,-583 1488.84,-563 1343.16,-563"/>
<text text-anchor="middle" x="1416" y="-569" font-family="Helvetica,sans-Serif" font-size="10.00">rcMonitor::updateCursorTime</text>
</a>
</g>
</g>
<!-- Node6&#45;&gt;Node12 -->
<g id="edge13" class="edge"><title>Node6&#45;&gt;Node12</title>
<path fill="none" stroke="midnightblue" d="M1281.36,-600.116C1309.29,-594.449 1340.42,-588.131 1365.61,-583.021"/>
<polygon fill="midnightblue" stroke="midnightblue" points="1280.34,-596.752 1271.23,-602.17 1281.73,-603.612 1280.34,-596.752"/>
</g>
<!-- Node13 -->
<g id="node13" class="node"><title>Node13</title>
<g id="a_node13"><a xlink:href="classrc_monitor.html#ac9231e871ef28821ed1b762eaeca7cfb" target="_top" xlink:title="rcMonitor::updateDisplay">
<polygon fill="white" stroke="black" points="1352.7,-524 1352.7,-544 1479.3,-544 1479.3,-524 1352.7,-524"/>
<text text-anchor="middle" x="1416" y="-530" font-family="Helvetica,sans-Serif" font-size="10.00">rcMonitor::updateDisplay</text>
</a>
</g>
</g>
<!-- Node6&#45;&gt;Node13 -->
<g id="edge15" class="edge"><title>Node6&#45;&gt;Node13</title>
<path fill="none" stroke="midnightblue" d="M1247.92,-594.359C1273.72,-581.573 1308.28,-565.461 1340,-554 1350.27,-550.291 1361.54,-546.926 1372.17,-544.06"/>
<polygon fill="midnightblue" stroke="midnightblue" points="1246.21,-591.301 1238.83,-598.905 1249.34,-597.561 1246.21,-591.301"/>
</g>
<!-- Node14 -->
<g id="node14" class="node"><title>Node14</title>
<g id="a_node14"><a xlink:href="classrc_monitor.html#a86955f05aa2947844ad5d2c924f0558f" target="_top" xlink:title="rcMonitor::updateScale">
<polygon fill="white" stroke="black" points="1356.58,-692 1356.58,-712 1475.42,-712 1475.42,-692 1356.58,-692"/>
<text text-anchor="middle" x="1416" y="-698" font-family="Helvetica,sans-Serif" font-size="10.00">rcMonitor::updateScale</text>
</a>
</g>
</g>
<!-- Node6&#45;&gt;Node14 -->
<g id="edge17" class="edge"><title>Node6&#45;&gt;Node14</title>
<path fill="none" stroke="midnightblue" d="M1244.3,-636.029C1270.3,-650.441 1306.5,-669.194 1340,-682 1349.94,-685.802 1360.89,-689.161 1371.28,-691.99"/>
<polygon fill="midnightblue" stroke="midnightblue" points="1245.98,-632.961 1235.55,-631.13 1242.56,-639.069 1245.98,-632.961"/>
</g>
<!-- Node9 -->
<g id="node9" class="node"><title>Node9</title>
<g id="a_node9"><a xlink:href="classrc_monitor.html#ac08d61628243cd2d0bf2f6388f42995b" target="_top" xlink:title="rcMonitor::rcMonitor">
<polygon fill="white" stroke="black" points="1528.55,-585 1528.55,-605 1633.45,-605 1633.45,-585 1528.55,-585"/>
<text text-anchor="middle" x="1581" y="-591" font-family="Helvetica,sans-Serif" font-size="10.00">rcMonitor::rcMonitor</text>
</a>
</g>
</g>
<!-- Node8&#45;&gt;Node9 -->
<g id="edge8" class="edge"><title>Node8&#45;&gt;Node9</title>
<path fill="none" stroke="midnightblue" d="M1471.2,-650.206C1478.28,-648.053 1485.38,-645.646 1492,-643 1518.5,-632.414 1547.17,-615.692 1564.34,-605.041"/>
<polygon fill="midnightblue" stroke="midnightblue" points="1470.23,-646.844 1461.59,-652.984 1472.17,-653.569 1470.23,-646.844"/>
</g>
<!-- Node10&#45;&gt;Node9 -->
<g id="edge10" class="edge"><title>Node10&#45;&gt;Node9</title>
<path fill="none" stroke="midnightblue" d="M1477.6,-508.417C1482.59,-510.34 1487.46,-512.523 1492,-515 1526.08,-533.583 1557.56,-568.017 1571.89,-584.999"/>
<polygon fill="midnightblue" stroke="midnightblue" points="1478.49,-505.022 1467.9,-505.032 1476.19,-511.631 1478.49,-505.022"/>
</g>
<!-- Node11&#45;&gt;Node9 -->
<g id="edge12" class="edge"><title>Node11&#45;&gt;Node9</title>
<path fill="none" stroke="midnightblue" d="M1492.12,-607.4C1504.39,-605.669 1516.85,-603.911 1528.38,-602.284"/>
<polygon fill="midnightblue" stroke="midnightblue" points="1491.3,-603.981 1481.89,-608.844 1492.28,-610.912 1491.3,-603.981"/>
</g>
<!-- Node12&#45;&gt;Node9 -->
<g id="edge14" class="edge"><title>Node12&#45;&gt;Node9</title>
<path fill="none" stroke="midnightblue" d="M1498.99,-584.066C1509.03,-585.421 1519.06,-586.775 1528.47,-588.045"/>
<polygon fill="midnightblue" stroke="midnightblue" points="1499.35,-580.583 1488.97,-582.714 1498.41,-587.52 1499.35,-580.583"/>
</g>
<!-- Node13&#45;&gt;Node9 -->
<g id="edge16" class="edge"><title>Node13&#45;&gt;Node9</title>
<path fill="none" stroke="midnightblue" d="M1469.69,-546.794C1477.24,-548.991 1484.87,-551.41 1492,-554 1516.4,-562.859 1543.29,-575.896 1560.84,-584.879"/>
<polygon fill="midnightblue" stroke="midnightblue" points="1470.42,-543.364 1459.84,-544.038 1468.53,-550.104 1470.42,-543.364"/>
</g>
<!-- Node14&#45;&gt;Node9 -->
<g id="edge18" class="edge"><title>Node14&#45;&gt;Node9</title>
<path fill="none" stroke="midnightblue" d="M1478.56,-688.452C1483.23,-686.565 1487.76,-684.426 1492,-682 1527.61,-661.606 1559.07,-623.215 1572.75,-605.034"/>
<polygon fill="midnightblue" stroke="midnightblue" points="1477.05,-685.276 1468.84,-691.977 1479.43,-691.857 1477.05,-685.276"/>
</g>
<!-- Node15&#45;&gt;Node5 -->
<g id="edge20" class="edge"><title>Node15&#45;&gt;Node5</title>
<path fill="none" stroke="midnightblue" d="M889.679,-580.452C913.168,-586.105 938.123,-592.11 958.345,-596.976"/>
<polygon fill="midnightblue" stroke="midnightblue" points="890.261,-576.992 879.719,-578.055 888.623,-583.798 890.261,-576.992"/>
</g>
<!-- Node17&#45;&gt;Node4 -->
<g id="edge23" class="edge"><title>Node17&#45;&gt;Node4</title>
<path fill="none" stroke="midnightblue" d="M460.303,-555.199C492.695,-562.344 533.099,-571.257 563.611,-577.988"/>
<polygon fill="midnightblue" stroke="midnightblue" points="461.047,-551.779 450.528,-553.043 459.539,-558.615 461.047,-551.779"/>
</g>
<!-- Node19 -->
<g id="node19" class="node"><title>Node19</title>
<g id="a_node19"><a xlink:href="classrc_c_s_v_exporter.html#a17104d6206faff99633d785ed9fb00f9" target="_top" xlink:title="rcCSVExporter::exportExperiment">
<polygon fill="white" stroke="black" points="320.695,-351 320.695,-371 487.305,-371 487.305,-351 320.695,-351"/>
<text text-anchor="middle" x="404" y="-357" font-family="Helvetica,sans-Serif" font-size="10.00">rcCSVExporter::exportExperiment</text>
</a>
</g>
</g>
<!-- Node18&#45;&gt;Node19 -->
<g id="edge25" class="edge"><title>Node18&#45;&gt;Node19</title>
<path fill="none" stroke="midnightblue" d="M294.126,-361C302.88,-361 311.788,-361 320.546,-361"/>
<polygon fill="midnightblue" stroke="midnightblue" points="293.937,-357.5 283.937,-361 293.937,-364.5 293.937,-357.5"/>
</g>
<!-- Node20 -->
<g id="node20" class="node"><title>Node20</title>
<g id="a_node20"><a xlink:href="classrc_experiment_impl.html#a375595b76e0c9f303a7135e096391b9a" target="_top" xlink:title="rcExperimentImpl::saveTo">
<polygon fill="white" stroke="black" points="544.48,-348 544.48,-368 675.52,-368 675.52,-348 544.48,-348"/>
<text text-anchor="middle" x="610" y="-354" font-family="Helvetica,sans-Serif" font-size="10.00">rcExperimentImpl::saveTo</text>
</a>
</g>
</g>
<!-- Node19&#45;&gt;Node20 -->
<g id="edge26" class="edge"><title>Node19&#45;&gt;Node20</title>
<path fill="none" stroke="midnightblue" d="M497.655,-359.637C513.369,-359.406 529.382,-359.171 544.185,-358.953"/>
<polygon fill="midnightblue" stroke="midnightblue" points="497.334,-356.142 487.387,-359.788 497.437,-363.141 497.334,-356.142"/>
</g>
<!-- Node21 -->
<g id="node21" class="node"><title>Node21</title>
<g id="a_node21"><a xlink:href="classrc_experiment_domain_impl.html#a8db39db2ae092474f985b4c2997d5b72" target="_top" xlink:title="rcExperimentDomainImpl\l::saveExperiment">
<polygon fill="white" stroke="black" points="747.872,-340 747.872,-372 876.128,-372 876.128,-340 747.872,-340"/>
<text text-anchor="start" x="755.872" y="-358" font-family="Helvetica,sans-Serif" font-size="10.00">rcExperimentDomainImpl</text>
<text text-anchor="middle" x="812" y="-346" font-family="Helvetica,sans-Serif" font-size="10.00">::saveExperiment</text>
</a>
</g>
</g>
<!-- Node20&#45;&gt;Node21 -->
<g id="edge27" class="edge"><title>Node20&#45;&gt;Node21</title>
<path fill="none" stroke="midnightblue" d="M685.817,-357.252C706.145,-357.049 727.958,-356.83 747.589,-356.634"/>
<polygon fill="midnightblue" stroke="midnightblue" points="685.623,-353.754 675.658,-357.353 685.693,-360.753 685.623,-353.754"/>
</g>
<!-- Node22 -->
<g id="node22" class="node"><title>Node22</title>
<g id="a_node22"><a xlink:href="rc__main_8cpp.html#a3c04138a5bfe5d72780bb7e82a18e627" target="_top" xlink:title="main">
<polygon fill="white" stroke="black" points="982.163,-324 982.163,-344 1019.84,-344 1019.84,-324 982.163,-324"/>
<text text-anchor="middle" x="1001" y="-330" font-family="Helvetica,sans-Serif" font-size="10.00">main</text>
</a>
</g>
</g>
<!-- Node21&#45;&gt;Node22 -->
<g id="edge28" class="edge"><title>Node21&#45;&gt;Node22</title>
<path fill="none" stroke="midnightblue" d="M886.458,-347.358C921.173,-343.274 959.757,-338.735 981.825,-336.138"/>
<polygon fill="midnightblue" stroke="midnightblue" points="885.832,-343.907 876.31,-348.552 886.65,-350.859 885.832,-343.907"/>
</g>
<!-- Node23 -->
<g id="node23" class="node"><title>Node23</title>
<g id="a_node23"><a xlink:href="classrc_experiment_domain_impl.html#a29b2a73f82318c9faec49f9a1178f90b" target="_top" xlink:title="rcExperimentDomainImpl\l::notifyRequestSave">
<polygon fill="white" stroke="black" points="936.872,-363 936.872,-395 1065.13,-395 1065.13,-363 936.872,-363"/>
<text text-anchor="start" x="944.872" y="-381" font-family="Helvetica,sans-Serif" font-size="10.00">rcExperimentDomainImpl</text>
<text text-anchor="middle" x="1001" y="-369" font-family="Helvetica,sans-Serif" font-size="10.00">::notifyRequestSave</text>
</a>
</g>
</g>
<!-- Node21&#45;&gt;Node23 -->
<g id="edge29" class="edge"><title>Node21&#45;&gt;Node23</title>
<path fill="none" stroke="midnightblue" d="M886.516,-365.042C903.124,-367.085 920.614,-369.236 936.756,-371.221"/>
<polygon fill="midnightblue" stroke="midnightblue" points="886.662,-361.534 876.31,-363.787 885.808,-368.481 886.662,-361.534"/>
</g>
<!-- Node25 -->
<g id="node25" class="node"><title>Node25</title>
<g id="a_node25"><a xlink:href="classrc_image_canvas_g_l.html#a85e0b816bc87a7c933361451e7768810" target="_top" xlink:title="rcImageCanvasGL::enableCell\lGroup">
<polygon fill="white" stroke="black" points="327.909,-482 327.909,-514 480.091,-514 480.091,-482 327.909,-482"/>
<text text-anchor="start" x="335.909" y="-500" font-family="Helvetica,sans-Serif" font-size="10.00">rcImageCanvasGL::enableCell</text>
<text text-anchor="middle" x="404" y="-488" font-family="Helvetica,sans-Serif" font-size="10.00">Group</text>
</a>
</g>
</g>
<!-- Node24&#45;&gt;Node25 -->
<g id="edge31" class="edge"><title>Node24&#45;&gt;Node25</title>
<path fill="none" stroke="midnightblue" d="M290.17,-473.78C302.802,-476.491 315.852,-479.293 328.397,-481.986"/>
<polygon fill="midnightblue" stroke="midnightblue" points="290.658,-470.305 280.146,-471.628 289.189,-477.149 290.658,-470.305"/>
</g>
<!-- Node28 -->
<g id="node28" class="node"><title>Node28</title>
<g id="a_node28"><a xlink:href="classrc_image_canvas_g_l.html#a20505dcee342d0b1a7a3e357f524d9ff" target="_top" xlink:title="rcImageCanvasGL::findClosest\lCellGroup">
<polygon fill="white" stroke="black" points="326.803,-431 326.803,-463 481.197,-463 481.197,-431 326.803,-431"/>
<text text-anchor="start" x="334.803" y="-449" font-family="Helvetica,sans-Serif" font-size="10.00">rcImageCanvasGL::findClosest</text>
<text text-anchor="middle" x="404" y="-437" font-family="Helvetica,sans-Serif" font-size="10.00">CellGroup</text>
</a>
</g>
</g>
<!-- Node24&#45;&gt;Node28 -->
<g id="edge35" class="edge"><title>Node24&#45;&gt;Node28</title>
<path fill="none" stroke="midnightblue" d="M290.185,-452.907C302.264,-452.274 314.725,-451.622 326.761,-450.992"/>
<polygon fill="midnightblue" stroke="midnightblue" points="289.95,-449.414 280.146,-453.432 290.316,-456.404 289.95,-449.414"/>
</g>
<!-- Node26 -->
<g id="node26" class="node"><title>Node26</title>
<g id="a_node26"><a xlink:href="classrc_image_canvas_g_l.html#acb25a27713e20842e6bb0a741570480b" target="_top" xlink:title="rcImageCanvasGL::mouseRelease\lEvent">
<polygon fill="white" stroke="black" points="524.185,-440 524.185,-472 695.815,-472 695.815,-440 524.185,-440"/>
<text text-anchor="start" x="532.185" y="-458" font-family="Helvetica,sans-Serif" font-size="10.00">rcImageCanvasGL::mouseRelease</text>
<text text-anchor="middle" x="610" y="-446" font-family="Helvetica,sans-Serif" font-size="10.00">Event</text>
</a>
</g>
</g>
<!-- Node25&#45;&gt;Node26 -->
<g id="edge32" class="edge"><title>Node25&#45;&gt;Node26</title>
<path fill="none" stroke="midnightblue" d="M489.914,-480.518C503.524,-477.716 517.55,-474.828 530.988,-472.061"/>
<polygon fill="midnightblue" stroke="midnightblue" points="489.182,-477.095 480.093,-482.54 490.593,-483.951 489.182,-477.095"/>
</g>
<!-- Node27 -->
<g id="node27" class="node"><title>Node27</title>
<g id="a_node27"><a xlink:href="classrc_image_canvas_g_l.html#a99a6568df0e15227de9062331e1f2e0b" target="_top" xlink:title="rcImageCanvasGL::updateAnalysisRect">
<polygon fill="white" stroke="black" points="1110.35,-487 1110.35,-507 1303.65,-507 1303.65,-487 1110.35,-487"/>
<text text-anchor="middle" x="1207" y="-493" font-family="Helvetica,sans-Serif" font-size="10.00">rcImageCanvasGL::updateAnalysisRect</text>
</a>
</g>
</g>
<!-- Node25&#45;&gt;Node27 -->
<g id="edge33" class="edge"><title>Node25&#45;&gt;Node27</title>
<path fill="none" stroke="midnightblue" d="M490.479,-497.893C641.092,-497.705 952.685,-497.316 1110.28,-497.12"/>
<polygon fill="midnightblue" stroke="midnightblue" points="490.352,-494.393 480.356,-497.906 490.361,-501.393 490.352,-494.393"/>
</g>
<!-- Node27&#45;&gt;Node10 -->
<g id="edge34" class="edge"><title>Node27&#45;&gt;Node10</title>
<path fill="none" stroke="midnightblue" d="M1314.21,-495.974C1322.97,-495.889 1331.7,-495.805 1340.16,-495.723"/>
<polygon fill="midnightblue" stroke="midnightblue" points="1313.89,-492.477 1303.93,-496.073 1313.96,-499.476 1313.89,-492.477"/>
</g>
<!-- Node29 -->
<g id="node29" class="node"><title>Node29</title>
<g id="a_node29"><a xlink:href="classrc_image_canvas_g_l.html#a81111b0e59530e373e19cc01144c0347" target="_top" xlink:title="rcImageCanvasGL::getTool\lTipText">
<polygon fill="white" stroke="black" points="541.414,-389 541.414,-421 678.586,-421 678.586,-389 541.414,-389"/>
<text text-anchor="start" x="549.414" y="-407" font-family="Helvetica,sans-Serif" font-size="10.00">rcImageCanvasGL::getTool</text>
<text text-anchor="middle" x="610" y="-395" font-family="Helvetica,sans-Serif" font-size="10.00">TipText</text>
</a>
</g>
</g>
<!-- Node28&#45;&gt;Node29 -->
<g id="edge36" class="edge"><title>Node28&#45;&gt;Node29</title>
<path fill="none" stroke="midnightblue" d="M491.511,-429.189C508.13,-425.767 525.31,-422.23 541.231,-418.952"/>
<polygon fill="midnightblue" stroke="midnightblue" points="490.341,-425.856 481.252,-431.301 491.753,-432.713 490.341,-425.856"/>
</g>
<!-- Node30 -->
<g id="node30" class="node"><title>Node30</title>
<g id="a_node30"><a xlink:href="classrc_image_canvas_g_l.html#ab57b93a733a4e2b8703a4ee083d46737" target="_top" xlink:title="rcImageCanvasGL::mouseMove\lEvent">
<polygon fill="white" stroke="black" points="732.303,-391 732.303,-423 891.697,-423 891.697,-391 732.303,-391"/>
<text text-anchor="start" x="740.303" y="-409" font-family="Helvetica,sans-Serif" font-size="10.00">rcImageCanvasGL::mouseMove</text>
<text text-anchor="middle" x="812" y="-397" font-family="Helvetica,sans-Serif" font-size="10.00">Event</text>
</a>
</g>
</g>
<!-- Node29&#45;&gt;Node30 -->
<g id="edge37" class="edge"><title>Node29&#45;&gt;Node30</title>
<path fill="none" stroke="midnightblue" d="M688.882,-405.779C703.024,-405.92 717.788,-406.068 731.964,-406.21"/>
<polygon fill="midnightblue" stroke="midnightblue" points="688.745,-402.277 678.711,-405.677 688.675,-409.277 688.745,-402.277"/>
</g>
<!-- Node31&#45;&gt;Node17 -->
<g id="edge39" class="edge"><title>Node31&#45;&gt;Node17</title>
<path fill="none" stroke="midnightblue" d="M269.994,-515.145C297.236,-520.851 329.319,-527.569 355.149,-532.979"/>
<polygon fill="midnightblue" stroke="midnightblue" points="270.702,-511.718 260.197,-513.094 269.268,-518.569 270.702,-511.718"/>
</g>
<!-- Node33 -->
<g id="node33" class="node"><title>Node33</title>
<g id="a_node33"><a xlink:href="classrc_cell_info_widget.html#af3ba83828e1b40f7910dae02fccf0856" target="_top" xlink:title="rcCellInfoWidget::update\lTrackDisplay">
<polygon fill="white" stroke="black" points="341.249,-204 341.249,-236 466.751,-236 466.751,-204 341.249,-204"/>
<text text-anchor="start" x="349.249" y="-222" font-family="Helvetica,sans-Serif" font-size="10.00">rcCellInfoWidget::update</text>
<text text-anchor="middle" x="404" y="-210" font-family="Helvetica,sans-Serif" font-size="10.00">TrackDisplay</text>
</a>
</g>
</g>
<!-- Node32&#45;&gt;Node33 -->
<g id="edge41" class="edge"><title>Node32&#45;&gt;Node33</title>
<path fill="none" stroke="midnightblue" d="M261.189,-220C285.518,-220 315.138,-220 341.003,-220"/>
<polygon fill="midnightblue" stroke="midnightblue" points="261.113,-216.5 251.113,-220 261.113,-223.5 261.113,-216.5"/>
</g>
<!-- Node34 -->
<g id="node34" class="node"><title>Node34</title>
<g id="a_node34"><a xlink:href="classrc_cell_info_widget.html#a1f6ca3dce158e7b1fd77aa3e368a2bbd" target="_top" xlink:title="rcCellInfoWidget::rcCell\lInfoWidget">
<polygon fill="white" stroke="black" points="751.764,-201 751.764,-233 872.236,-233 872.236,-201 751.764,-201"/>
<text text-anchor="start" x="759.764" y="-219" font-family="Helvetica,sans-Serif" font-size="10.00">rcCellInfoWidget::rcCell</text>
<text text-anchor="middle" x="812" y="-207" font-family="Helvetica,sans-Serif" font-size="10.00">InfoWidget</text>
</a>
</g>
</g>
<!-- Node33&#45;&gt;Node34 -->
<g id="edge42" class="edge"><title>Node33&#45;&gt;Node34</title>
<path fill="none" stroke="midnightblue" d="M477.359,-219.465C555.571,-218.887 678.765,-217.977 751.546,-217.439"/>
<polygon fill="midnightblue" stroke="midnightblue" points="477.078,-215.967 467.105,-219.541 477.13,-222.967 477.078,-215.967"/>
</g>
<!-- Node35 -->
<g id="node35" class="node"><title>Node35</title>
<g id="a_node35"><a xlink:href="classrc_cell_info_widget.html#acb54df6aabcb3b443e9cfbcd11a02299" target="_top" xlink:title="rcCellInfoWidget::update\lCursorTime">
<polygon fill="white" stroke="black" points="547.249,-156 547.249,-188 672.751,-188 672.751,-156 547.249,-156"/>
<text text-anchor="start" x="555.249" y="-174" font-family="Helvetica,sans-Serif" font-size="10.00">rcCellInfoWidget::update</text>
<text text-anchor="middle" x="610" y="-162" font-family="Helvetica,sans-Serif" font-size="10.00">CursorTime</text>
</a>
</g>
</g>
<!-- Node33&#45;&gt;Node35 -->
<g id="edge43" class="edge"><title>Node33&#45;&gt;Node35</title>
<path fill="none" stroke="midnightblue" d="M476.783,-203.11C499.729,-197.711 524.918,-191.784 547.098,-186.565"/>
<polygon fill="midnightblue" stroke="midnightblue" points="475.693,-199.771 466.76,-205.468 477.296,-206.585 475.693,-199.771"/>
</g>
<!-- Node36 -->
<g id="node36" class="node"><title>Node36</title>
<g id="a_node36"><a xlink:href="classrc_cell_info_widget.html#a935c8f915acec7499796f0fe97cf65b3" target="_top" xlink:title="rcCellInfoWidget::update\lDisplay">
<polygon fill="white" stroke="black" points="547.249,-105 547.249,-137 672.751,-137 672.751,-105 547.249,-105"/>
<text text-anchor="start" x="555.249" y="-123" font-family="Helvetica,sans-Serif" font-size="10.00">rcCellInfoWidget::update</text>
<text text-anchor="middle" x="610" y="-111" font-family="Helvetica,sans-Serif" font-size="10.00">Display</text>
</a>
</g>
</g>
<!-- Node33&#45;&gt;Node36 -->
<g id="edge45" class="edge"><title>Node33&#45;&gt;Node36</title>
<path fill="none" stroke="midnightblue" d="M476.174,-201.115C480.313,-198.984 484.293,-196.621 488,-194 509.774,-178.605 502.092,-161.204 524,-146 530.95,-141.177 538.838,-137.272 546.939,-134.114"/>
<polygon fill="midnightblue" stroke="midnightblue" points="474.501,-198.033 466.904,-205.418 477.448,-204.383 474.501,-198.033"/>
</g>
<!-- Node37 -->
<g id="node37" class="node"><title>Node37</title>
<g id="a_node37"><a xlink:href="classrc_cell_info_widget.html#a115752df3a9548b03a677da31c2889af" target="_top" xlink:title="rcCellInfoWidget::update\lSettings">
<polygon fill="white" stroke="black" points="547.249,-297 547.249,-329 672.751,-329 672.751,-297 547.249,-297"/>
<text text-anchor="start" x="555.249" y="-315" font-family="Helvetica,sans-Serif" font-size="10.00">rcCellInfoWidget::update</text>
<text text-anchor="middle" x="610" y="-303" font-family="Helvetica,sans-Serif" font-size="10.00">Settings</text>
</a>
</g>
</g>
<!-- Node33&#45;&gt;Node37 -->
<g id="edge47" class="edge"><title>Node33&#45;&gt;Node37</title>
<path fill="none" stroke="midnightblue" d="M438.515,-241.456C461.827,-255.726 493.987,-274.14 524,-287 532.369,-290.586 541.395,-293.9 550.331,-296.877"/>
<polygon fill="midnightblue" stroke="midnightblue" points="440.07,-238.302 429.725,-236.015 436.386,-244.254 440.07,-238.302"/>
</g>
<!-- Node38 -->
<g id="node38" class="node"><title>Node38</title>
<g id="a_node38"><a xlink:href="classrc_cell_info_widget.html#a0a5863573fc489b2d340b7c1788ceea0" target="_top" xlink:title="rcCellInfoWidget::update\lState">
<polygon fill="white" stroke="black" points="547.249,-246 547.249,-278 672.751,-278 672.751,-246 547.249,-246"/>
<text text-anchor="start" x="555.249" y="-264" font-family="Helvetica,sans-Serif" font-size="10.00">rcCellInfoWidget::update</text>
<text text-anchor="middle" x="610" y="-252" font-family="Helvetica,sans-Serif" font-size="10.00">State</text>
</a>
</g>
</g>
<!-- Node33&#45;&gt;Node38 -->
<g id="edge49" class="edge"><title>Node33&#45;&gt;Node38</title>
<path fill="none" stroke="midnightblue" d="M476.783,-234.779C499.729,-239.503 524.918,-244.689 547.098,-249.255"/>
<polygon fill="midnightblue" stroke="midnightblue" points="477.261,-231.304 466.76,-232.715 475.849,-238.16 477.261,-231.304"/>
</g>
<!-- Node35&#45;&gt;Node34 -->
<g id="edge44" class="edge"><title>Node35&#45;&gt;Node34</title>
<path fill="none" stroke="midnightblue" d="M682.753,-188.144C705.266,-193.21 729.86,-198.744 751.435,-203.598"/>
<polygon fill="midnightblue" stroke="midnightblue" points="683.436,-184.711 672.912,-185.93 681.899,-191.54 683.436,-184.711"/>
</g>
<!-- Node36&#45;&gt;Node34 -->
<g id="edge46" class="edge"><title>Node36&#45;&gt;Node34</title>
<path fill="none" stroke="midnightblue" d="M682.527,-140.508C687.135,-142.234 691.663,-144.065 696,-146 730.286,-161.294 766.636,-185.205 789.078,-200.987"/>
<polygon fill="midnightblue" stroke="midnightblue" points="683.582,-137.169 672.988,-137.117 681.238,-143.765 683.582,-137.169"/>
</g>
<!-- Node37&#45;&gt;Node34 -->
<g id="edge48" class="edge"><title>Node37&#45;&gt;Node34</title>
<path fill="none" stroke="midnightblue" d="M679.679,-293.631C685.265,-291.561 690.769,-289.348 696,-287 729.693,-271.88 765.602,-248.76 788.157,-233.273"/>
<polygon fill="midnightblue" stroke="midnightblue" points="678.491,-290.338 670.233,-296.975 680.828,-296.937 678.491,-290.338"/>
</g>
<!-- Node38&#45;&gt;Node34 -->
<g id="edge50" class="edge"><title>Node38&#45;&gt;Node34</title>
<path fill="none" stroke="midnightblue" d="M682.753,-245.856C705.266,-240.79 729.86,-235.256 751.435,-230.402"/>
<polygon fill="midnightblue" stroke="midnightblue" points="681.899,-242.46 672.912,-248.07 683.436,-249.289 681.899,-242.46"/>
</g>
<!-- Node39&#45;&gt;Node29 -->
<g id="edge52" class="edge"><title>Node39&#45;&gt;Node29</title>
<path fill="none" stroke="midnightblue" d="M293.069,-405.796C366.219,-405.612 472.587,-405.344 541.289,-405.171"/>
<polygon fill="midnightblue" stroke="midnightblue" points="292.967,-402.296 282.976,-405.821 292.984,-409.296 292.967,-402.296"/>
</g>
<!-- Node42 -->
<g id="node42" class="node"><title>Node42</title>
<g id="a_node42"><a xlink:href="classrc_native_exporter.html#a75a5374634d85e7bc85f7ae501563e0d" target="_top" xlink:title="rcNativeExporter::export\lExperiment">
<polygon fill="white" stroke="black" points="342.091,-300 342.091,-332 465.909,-332 465.909,-300 342.091,-300"/>
<text text-anchor="start" x="350.091" y="-318" font-family="Helvetica,sans-Serif" font-size="10.00">rcNativeExporter::export</text>
<text text-anchor="middle" x="404" y="-306" font-family="Helvetica,sans-Serif" font-size="10.00">Experiment</text>
</a>
</g>
</g>
<!-- Node41&#45;&gt;Node42 -->
<g id="edge55" class="edge"><title>Node41&#45;&gt;Node42</title>
<path fill="none" stroke="midnightblue" d="M287.418,-316C305.511,-316 324.61,-316 341.957,-316"/>
<polygon fill="midnightblue" stroke="midnightblue" points="287.197,-312.5 277.197,-316 287.197,-319.5 287.197,-312.5"/>
</g>
<!-- Node42&#45;&gt;Node20 -->
<g id="edge56" class="edge"><title>Node42&#45;&gt;Node20</title>
<path fill="none" stroke="midnightblue" d="M476.02,-330.622C503.872,-336.356 535.129,-342.791 560.338,-347.981"/>
<polygon fill="midnightblue" stroke="midnightblue" points="476.431,-327.133 465.93,-328.544 475.019,-333.989 476.431,-327.133"/>
</g>
<!-- Node44 -->
<g id="node44" class="node"><title>Node44</title>
<g id="a_node44"><a xlink:href="classrc_scalar_track_widget.html#a4f797a2bc3ccded186a6d83628287f2e" target="_top" xlink:title="rcScalarTrackWidget\l::updateCursorTime">
<polygon fill="white" stroke="black" points="349.784,-153 349.784,-185 458.216,-185 458.216,-153 349.784,-153"/>
<text text-anchor="start" x="357.784" y="-171" font-family="Helvetica,sans-Serif" font-size="10.00">rcScalarTrackWidget</text>
<text text-anchor="middle" x="404" y="-159" font-family="Helvetica,sans-Serif" font-size="10.00">::updateCursorTime</text>
</a>
</g>
</g>
<!-- Node43&#45;&gt;Node44 -->
<g id="edge58" class="edge"><title>Node43&#45;&gt;Node44</title>
<path fill="none" stroke="midnightblue" d="M275.673,-135.002C299.616,-141.395 326.572,-148.593 349.497,-154.714"/>
<polygon fill="midnightblue" stroke="midnightblue" points="276.532,-131.608 265.967,-132.41 274.726,-138.371 276.532,-131.608"/>
</g>
<!-- Node46 -->
<g id="node46" class="node"><title>Node46</title>
<g id="a_node46"><a xlink:href="classrc_scalar_track_widget.html#a5ed82e0b8b25164260de3891a6155dc5" target="_top" xlink:title="rcScalarTrackWidget\l::updateDisplay">
<polygon fill="white" stroke="black" points="349.784,-102 349.784,-134 458.216,-134 458.216,-102 349.784,-102"/>
<text text-anchor="start" x="357.784" y="-120" font-family="Helvetica,sans-Serif" font-size="10.00">rcScalarTrackWidget</text>
<text text-anchor="middle" x="404" y="-108" font-family="Helvetica,sans-Serif" font-size="10.00">::updateDisplay</text>
</a>
</g>
</g>
<!-- Node43&#45;&gt;Node46 -->
<g id="edge60" class="edge"><title>Node43&#45;&gt;Node46</title>
<path fill="none" stroke="midnightblue" d="M275.993,-118C299.856,-118 326.674,-118 349.497,-118"/>
<polygon fill="midnightblue" stroke="midnightblue" points="275.967,-114.5 265.967,-118 275.967,-121.5 275.967,-114.5"/>
</g>
<!-- Node47 -->
<g id="node47" class="node"><title>Node47</title>
<g id="a_node47"><a xlink:href="classrc_scalar_track_widget.html#a56a434f74d97cb999aad3efbb90fb0ec" target="_top" xlink:title="rcScalarTrackWidget\l::updateElapsedTime">
<polygon fill="white" stroke="black" points="348.932,-51 348.932,-83 459.068,-83 459.068,-51 348.932,-51"/>
<text text-anchor="start" x="356.932" y="-69" font-family="Helvetica,sans-Serif" font-size="10.00">rcScalarTrackWidget</text>
<text text-anchor="middle" x="404" y="-57" font-family="Helvetica,sans-Serif" font-size="10.00">::updateElapsedTime</text>
</a>
</g>
</g>
<!-- Node43&#45;&gt;Node47 -->
<g id="edge62" class="edge"><title>Node43&#45;&gt;Node47</title>
<path fill="none" stroke="midnightblue" d="M275.906,-100.936C299.561,-94.6199 326.129,-87.5257 348.835,-81.4628"/>
<polygon fill="midnightblue" stroke="midnightblue" points="274.726,-97.6286 265.967,-103.59 276.532,-104.392 274.726,-97.6286"/>
</g>
<!-- Node48 -->
<g id="node48" class="node"><title>Node48</title>
<g id="a_node48"><a xlink:href="classrc_scalar_track_widget.html#a7da75db1b5c899514300d208a61404d0" target="_top" xlink:title="rcScalarTrackWidget\l::updateSettings">
<polygon fill="white" stroke="black" points="349.784,-0 349.784,-32 458.216,-32 458.216,-0 349.784,-0"/>
<text text-anchor="start" x="357.784" y="-18" font-family="Helvetica,sans-Serif" font-size="10.00">rcScalarTrackWidget</text>
<text text-anchor="middle" x="404" y="-6" font-family="Helvetica,sans-Serif" font-size="10.00">::updateSettings</text>
</a>
</g>
</g>
<!-- Node43&#45;&gt;Node48 -->
<g id="edge64" class="edge"><title>Node43&#45;&gt;Node48</title>
<path fill="none" stroke="midnightblue" d="M238.492,-95.3404C259.447,-78.3841 290.067,-55.6804 320,-41 329.323,-36.4276 339.65,-32.5039 349.763,-29.2113"/>
<polygon fill="midnightblue" stroke="midnightblue" points="236.187,-92.7044 230.682,-101.757 240.631,-98.1131 236.187,-92.7044"/>
</g>
<!-- Node45 -->
<g id="node45" class="node"><title>Node45</title>
<g id="a_node45"><a xlink:href="classrc_scalar_track_widget.html#afc60cc8a08bd8f16560757beef569858" target="_top" xlink:title="rcScalarTrackWidget\l::rcScalarTrackWidget">
<polygon fill="white" stroke="black" points="553.006,-52 553.006,-84 666.994,-84 666.994,-52 553.006,-52"/>
<text text-anchor="start" x="561.006" y="-70" font-family="Helvetica,sans-Serif" font-size="10.00">rcScalarTrackWidget</text>
<text text-anchor="middle" x="610" y="-58" font-family="Helvetica,sans-Serif" font-size="10.00">::rcScalarTrackWidget</text>
</a>
</g>
</g>
<!-- Node44&#45;&gt;Node45 -->
<g id="edge59" class="edge"><title>Node44&#45;&gt;Node45</title>
<path fill="none" stroke="midnightblue" d="M467.977,-153.964C475.051,-150.934 481.897,-147.315 488,-143 509.774,-127.605 502.257,-110.438 524,-95 532.585,-88.9044 542.606,-84.1421 552.695,-80.4348"/>
<polygon fill="midnightblue" stroke="midnightblue" points="466.296,-150.861 458.239,-157.741 468.828,-157.388 466.296,-150.861"/>
</g>
<!-- Node46&#45;&gt;Node45 -->
<g id="edge61" class="edge"><title>Node46&#45;&gt;Node45</title>
<path fill="none" stroke="midnightblue" d="M468.091,-102.537C495.153,-95.9037 526.514,-88.2172 552.77,-81.7819"/>
<polygon fill="midnightblue" stroke="midnightblue" points="467.211,-99.1484 458.332,-104.928 468.878,-105.947 467.211,-99.1484"/>
</g>
<!-- Node47&#45;&gt;Node45 -->
<g id="edge63" class="edge"><title>Node47&#45;&gt;Node45</title>
<path fill="none" stroke="midnightblue" d="M469.198,-67.3147C496.027,-67.4462 526.921,-67.5977 552.833,-67.7247"/>
<polygon fill="midnightblue" stroke="midnightblue" points="469.15,-63.8145 459.133,-67.2654 469.115,-70.8144 469.15,-63.8145"/>
</g>
<!-- Node48&#45;&gt;Node45 -->
<g id="edge65" class="edge"><title>Node48&#45;&gt;Node45</title>
<path fill="none" stroke="midnightblue" d="M468.091,-32.0819C495.153,-38.9802 526.514,-46.9741 552.77,-53.6668"/>
<polygon fill="midnightblue" stroke="midnightblue" points="468.887,-28.673 458.332,-29.5945 467.158,-35.4561 468.887,-28.673"/>
</g>
</g>
</svg>
