<?xml version="1.0" encoding="UTF-8" standalone="no"?>
<!DOCTYPE svg PUBLIC "-//W3C//DTD SVG 1.1//EN"
 "http://www.w3.org/Graphics/SVG/1.1/DTD/svg11.dtd">
<!-- Generated by graphviz version 2.32.0 (20130916.1925)
 -->
<!-- Title: rcEngine::shutdown Pages: 1 -->
<svg width="350pt" height="40pt"
 viewBox="0.00 0.00 350.00 40.00" xmlns="http://www.w3.org/2000/svg" xmlns:xlink="http://www.w3.org/1999/xlink">
<g id="graph0" class="graph" transform="scale(1 1) rotate(0) translate(4 36)">
<title>rcEngine::shutdown</title>
<polygon fill="white" stroke="white" points="-4,5 -4,-36 347,-36 347,5 -4,5"/>
<!-- Node1 -->
<g id="node1" class="node"><title>Node1</title>
<polygon fill="#bfbfbf" stroke="black" points="0.0839844,-6 0.0839844,-26 103.916,-26 103.916,-6 0.0839844,-6"/>
<text text-anchor="middle" x="52" y="-12" font-family="Helvetica,sans-Serif" font-size="10.00">rcEngine::shutdown</text>
</g>
<!-- Node2 -->
<g id="node2" class="node"><title>Node2</title>
<g id="a_node2"><a xlink:href="classrc_experiment_domain_impl.html#ad71b23e84d80bf05bd65f50fe979f8c1" target="_top" xlink:title="rcExperimentDomainImpl\l::shutdown">
<polygon fill="white" stroke="black" points="139.872,-0 139.872,-32 268.128,-32 268.128,-0 139.872,-0"/>
<text text-anchor="start" x="147.872" y="-18" font-family="Helvetica,sans-Serif" font-size="10.00">rcExperimentDomainImpl</text>
<text text-anchor="middle" x="204" y="-6" font-family="Helvetica,sans-Serif" font-size="10.00">::shutdown</text>
</a>
</g>
</g>
<!-- Node1&#45;&gt;Node2 -->
<g id="edge1" class="edge"><title>Node1&#45;&gt;Node2</title>
<path fill="none" stroke="midnightblue" d="M114.315,-16C122.727,-16 131.377,-16 139.822,-16"/>
<polygon fill="midnightblue" stroke="midnightblue" points="114.202,-12.5001 104.202,-16 114.202,-19.5001 114.202,-12.5001"/>
</g>
<!-- Node3 -->
<g id="node3" class="node"><title>Node3</title>
<g id="a_node3"><a xlink:href="rc__main_8cpp.html#a3c04138a5bfe5d72780bb7e82a18e627" target="_top" xlink:title="main">
<polygon fill="white" stroke="black" points="304.163,-6 304.163,-26 341.837,-26 341.837,-6 304.163,-6"/>
<text text-anchor="middle" x="323" y="-12" font-family="Helvetica,sans-Serif" font-size="10.00">main</text>
</a>
</g>
</g>
<!-- Node2&#45;&gt;Node3 -->
<g id="edge2" class="edge"><title>Node2&#45;&gt;Node3</title>
<path fill="none" stroke="midnightblue" d="M278.345,-16C287.839,-16 296.775,-16 304.059,-16"/>
<polygon fill="midnightblue" stroke="midnightblue" points="278.294,-12.5001 268.294,-16 278.294,-19.5001 278.294,-12.5001"/>
</g>
</g>
</svg>
