<?xml version="1.0" encoding="UTF-8" standalone="no"?>
<!DOCTYPE svg PUBLIC "-//W3C//DTD SVG 1.1//EN"
 "http://www.w3.org/Graphics/SVG/1.1/DTD/svg11.dtd">
<!-- Generated by graphviz version 2.32.0 (20130916.1925)
 -->
<!-- Title: itext::getline Pages: 1 -->
<svg width="318pt" height="67pt"
 viewBox="0.00 0.00 318.00 67.00" xmlns="http://www.w3.org/2000/svg" xmlns:xlink="http://www.w3.org/1999/xlink">
<g id="graph0" class="graph" transform="scale(1 1) rotate(0) translate(4 63)">
<title>itext::getline</title>
<polygon fill="white" stroke="white" points="-4,5 -4,-63 315,-63 315,5 -4,5"/>
<!-- Node1 -->
<g id="node1" class="node"><title>Node1</title>
<polygon fill="#bfbfbf" stroke="black" points="0.317871,-19 0.317871,-39 69.6821,-39 69.6821,-19 0.317871,-19"/>
<text text-anchor="middle" x="35" y="-25" font-family="Helvetica,sans-Serif" font-size="10.00">itext::getline</text>
</g>
<!-- Node2 -->
<g id="node2" class="node"><title>Node2</title>
<g id="a_node2"><a xlink:href="classitext.html#a38bd74dce665f9902b0be3ebc89fa236" target="_top" xlink:title="itext::peek">
<polygon fill="white" stroke="black" points="106.209,-19 106.209,-39 167.791,-39 167.791,-19 106.209,-19"/>
<text text-anchor="middle" x="137" y="-25" font-family="Helvetica,sans-Serif" font-size="10.00">itext::peek</text>
</a>
</g>
</g>
<!-- Node1&#45;&gt;Node2 -->
<g id="edge1" class="edge"><title>Node1&#45;&gt;Node2</title>
<path fill="none" stroke="midnightblue" d="M69.8554,-29C78.2343,-29 87.2907,-29 95.9344,-29"/>
<polygon fill="midnightblue" stroke="midnightblue" points="96.1999,-32.5001 106.2,-29 96.1998,-25.5001 96.1999,-32.5001"/>
</g>
<!-- Node3 -->
<g id="node3" class="node"><title>Node3</title>
<g id="a_node3"><a xlink:href="classibuff.html#af83bd07bbed7b837d08c8bafdfbd3e87" target="_top" xlink:title="ibuff::peek">
<polygon fill="white" stroke="black" points="226.017,-39 226.017,-59 287.983,-59 287.983,-39 226.017,-39"/>
<text text-anchor="middle" x="257" y="-45" font-family="Helvetica,sans-Serif" font-size="10.00">ibuff::peek</text>
</a>
</g>
</g>
<!-- Node2&#45;&gt;Node3 -->
<g id="edge2" class="edge"><title>Node2&#45;&gt;Node3</title>
<path fill="none" stroke="midnightblue" d="M168.082,-34.0986C182.645,-36.5669 200.331,-39.5646 216.012,-42.2223"/>
<polygon fill="midnightblue" stroke="midnightblue" points="215.529,-45.6903 225.973,-43.9107 216.699,-38.7888 215.529,-45.6903"/>
</g>
<!-- Node4 -->
<g id="node4" class="node"><title>Node4</title>
<g id="a_node4"><a xlink:href="classibuff.html#a34316b72de5ddac433ef6d29d7c00eb4" target="_top" xlink:title="ibuff::newline_mode">
<polygon fill="white" stroke="black" points="204.615,-0 204.615,-20 309.385,-20 309.385,-0 204.615,-0"/>
<text text-anchor="middle" x="257" y="-6" font-family="Helvetica,sans-Serif" font-size="10.00">ibuff::newline_mode</text>
</a>
</g>
</g>
<!-- Node2&#45;&gt;Node4 -->
<g id="edge3" class="edge"><title>Node2&#45;&gt;Node4</title>
<path fill="none" stroke="midnightblue" d="M168.082,-24.1563C176.205,-22.8483 185.3,-21.3839 194.477,-19.9063"/>
<polygon fill="midnightblue" stroke="midnightblue" points="195.108,-23.3498 204.425,-18.3045 193.995,-16.4388 195.108,-23.3498"/>
</g>
</g>
</svg>
