<?xml version="1.0" encoding="UTF-8" standalone="no"?>
<!DOCTYPE svg PUBLIC "-//W3C//DTD SVG 1.1//EN"
 "http://www.w3.org/Graphics/SVG/1.1/DTD/svg11.dtd">
<!-- Generated by graphviz version 2.32.0 (20130916.1925)
 -->
<!-- Title: rcDbDtParams::validate Pages: 1 -->
<svg width="398pt" height="242pt"
 viewBox="0.00 0.00 398.00 242.00" xmlns="http://www.w3.org/2000/svg" xmlns:xlink="http://www.w3.org/1999/xlink">
<g id="graph0" class="graph" transform="scale(1 1) rotate(0) translate(4 238)">
<title>rcDbDtParams::validate</title>
<polygon fill="white" stroke="white" points="-4,5 -4,-238 395,-238 395,5 -4,5"/>
<!-- Node1 -->
<g id="node1" class="node"><title>Node1</title>
<polygon fill="#bfbfbf" stroke="black" points="0.20459,-97 0.20459,-117 121.795,-117 121.795,-97 0.20459,-97"/>
<text text-anchor="middle" x="61" y="-103" font-family="Helvetica,sans-Serif" font-size="10.00">rcDbDtParams::validate</text>
</g>
<!-- Node2 -->
<g id="node2" class="node"><title>Node2</title>
<g id="a_node2"><a xlink:href="classrc_rectangle.html#ad69317345e356a2e6f70362c50dd543d" target="_top" xlink:title="rcRectangle::contains">
<polygon fill="white" stroke="black" points="157.919,-195 157.919,-215 270.081,-215 270.081,-195 157.919,-195"/>
<text text-anchor="middle" x="214" y="-201" font-family="Helvetica,sans-Serif" font-size="10.00">rcRectangle::contains</text>
</a>
</g>
</g>
<!-- Node1&#45;&gt;Node2 -->
<g id="edge1" class="edge"><title>Node1&#45;&gt;Node2</title>
<path fill="none" stroke="midnightblue" d="M72.0809,-117.152C88.6934,-133.402 123.436,-165.414 158,-185 161.935,-187.23 166.165,-189.289 170.467,-191.169"/>
<polygon fill="midnightblue" stroke="midnightblue" points="169.335,-194.487 179.918,-194.997 171.963,-187.999 169.335,-194.487"/>
</g>
<!-- Node5 -->
<g id="node5" class="node"><title>Node5</title>
<g id="a_node5"><a xlink:href="classrc_rectangle.html#abe44205fccdffe80fbfdd4de79b406dc" target="_top" xlink:title="rcRectangle::height">
<polygon fill="white" stroke="black" points="162.919,-156 162.919,-176 265.081,-176 265.081,-156 162.919,-156"/>
<text text-anchor="middle" x="214" y="-162" font-family="Helvetica,sans-Serif" font-size="10.00">rcRectangle::height</text>
</a>
</g>
</g>
<!-- Node1&#45;&gt;Node5 -->
<g id="edge4" class="edge"><title>Node1&#45;&gt;Node5</title>
<path fill="none" stroke="midnightblue" d="M85.9681,-117.025C105.329,-125.054 133.32,-136.503 158,-146 163.528,-148.127 169.39,-150.323 175.148,-152.445"/>
<polygon fill="midnightblue" stroke="midnightblue" points="174.069,-155.777 184.662,-155.923 176.472,-149.202 174.069,-155.777"/>
</g>
<!-- Node6 -->
<g id="node6" class="node"><title>Node6</title>
<g id="a_node6"><a xlink:href="classrc_window.html#a89b86cca79113a99ef305290e81765b6" target="_top" xlink:title="rcWindow::rectangle">
<polygon fill="white" stroke="black" points="160.705,-117 160.705,-137 267.295,-137 267.295,-117 160.705,-117"/>
<text text-anchor="middle" x="214" y="-123" font-family="Helvetica,sans-Serif" font-size="10.00">rcWindow::rectangle</text>
</a>
</g>
</g>
<!-- Node1&#45;&gt;Node6 -->
<g id="edge5" class="edge"><title>Node1&#45;&gt;Node6</title>
<path fill="none" stroke="midnightblue" d="M122.113,-114.962C131.414,-116.194 141.041,-117.469 150.396,-118.708"/>
<polygon fill="midnightblue" stroke="midnightblue" points="150.038,-122.191 160.411,-120.035 150.957,-115.252 150.038,-122.191"/>
</g>
<!-- Node7 -->
<g id="node7" class="node"><title>Node7</title>
<g id="a_node7"><a xlink:href="classrc_rectangle.html#a37c8043dcda3dc1076e57c4a1c219263" target="_top" xlink:title="rcRectangle::width">
<polygon fill="white" stroke="black" points="164.87,-78 164.87,-98 263.13,-98 263.13,-78 164.87,-78"/>
<text text-anchor="middle" x="214" y="-84" font-family="Helvetica,sans-Serif" font-size="10.00">rcRectangle::width</text>
</a>
</g>
</g>
<!-- Node1&#45;&gt;Node7 -->
<g id="edge6" class="edge"><title>Node1&#45;&gt;Node7</title>
<path fill="none" stroke="midnightblue" d="M122.113,-99.4361C132.833,-98.0872 143.985,-96.684 154.655,-95.3414"/>
<polygon fill="midnightblue" stroke="midnightblue" points="155.222,-98.7978 164.707,-94.0766 154.348,-91.8525 155.222,-98.7978"/>
</g>
<!-- Node8 -->
<g id="node8" class="node"><title>Node8</title>
<g id="a_node8"><a xlink:href="classrc_pair.html#ad1a3cb1e7fdbe119ce1295514b1bb49d" target="_top" xlink:title="rcPair::x">
<polygon fill="white" stroke="black" points="187.665,-39 187.665,-59 240.335,-59 240.335,-39 187.665,-39"/>
<text text-anchor="middle" x="214" y="-45" font-family="Helvetica,sans-Serif" font-size="10.00">rcPair::x</text>
</a>
</g>
</g>
<!-- Node1&#45;&gt;Node8 -->
<g id="edge7" class="edge"><title>Node1&#45;&gt;Node8</title>
<path fill="none" stroke="midnightblue" d="M86.7889,-96.9659C106.13,-89.1908 133.701,-78.225 158,-69 164.446,-66.5528 171.339,-63.9978 177.989,-61.5639"/>
<polygon fill="midnightblue" stroke="midnightblue" points="179.278,-64.8195 187.479,-58.1114 176.885,-58.2413 179.278,-64.8195"/>
</g>
<!-- Node9 -->
<g id="node9" class="node"><title>Node9</title>
<g id="a_node9"><a xlink:href="classrc_pair.html#a87400f83938e920c405c40aa449d3607" target="_top" xlink:title="rcPair::y">
<polygon fill="white" stroke="black" points="187.665,-0 187.665,-20 240.335,-20 240.335,-0 187.665,-0"/>
<text text-anchor="middle" x="214" y="-6" font-family="Helvetica,sans-Serif" font-size="10.00">rcPair::y</text>
</a>
</g>
</g>
<!-- Node1&#45;&gt;Node9 -->
<g id="edge8" class="edge"><title>Node1&#45;&gt;Node9</title>
<path fill="none" stroke="midnightblue" d="M72.1072,-96.9886C88.7568,-80.9607 123.55,-49.3781 158,-30 164.188,-26.5194 171.095,-23.4488 177.868,-20.8237"/>
<polygon fill="midnightblue" stroke="midnightblue" points="179.386,-23.9966 187.597,-17.3006 177.002,-17.415 179.386,-23.9966"/>
</g>
<!-- Node3 -->
<g id="node3" class="node"><title>Node3</title>
<g id="a_node3"><a xlink:href="classrc_rectangle.html#a503fad35feaa849fc21d0c5895cf9b63" target="_top" xlink:title="rcRectangle::ul">
<polygon fill="white" stroke="black" points="306.65,-214 306.65,-234 389.35,-234 389.35,-214 306.65,-214"/>
<text text-anchor="middle" x="348" y="-220" font-family="Helvetica,sans-Serif" font-size="10.00">rcRectangle::ul</text>
</a>
</g>
</g>
<!-- Node2&#45;&gt;Node3 -->
<g id="edge2" class="edge"><title>Node2&#45;&gt;Node3</title>
<path fill="none" stroke="midnightblue" d="M270.215,-212.948C278.949,-214.205 287.942,-215.499 296.559,-216.74"/>
<polygon fill="midnightblue" stroke="midnightblue" points="296.068,-220.205 306.465,-218.165 297.066,-213.276 296.068,-220.205"/>
</g>
<!-- Node4 -->
<g id="node4" class="node"><title>Node4</title>
<g id="a_node4"><a xlink:href="classrc_rectangle.html#aad573ed10aad598b8ca0a6a351fbe72f" target="_top" xlink:title="rcRectangle::lr">
<polygon fill="white" stroke="black" points="307.766,-175 307.766,-195 388.234,-195 388.234,-175 307.766,-175"/>
<text text-anchor="middle" x="348" y="-181" font-family="Helvetica,sans-Serif" font-size="10.00">rcRectangle::lr</text>
</a>
</g>
</g>
<!-- Node2&#45;&gt;Node4 -->
<g id="edge3" class="edge"><title>Node2&#45;&gt;Node4</title>
<path fill="none" stroke="midnightblue" d="M270.215,-196.634C279.352,-195.25 288.772,-193.822 297.749,-192.462"/>
<polygon fill="midnightblue" stroke="midnightblue" points="298.295,-195.92 307.658,-190.961 297.247,-188.999 298.295,-195.92"/>
</g>
</g>
</svg>
