<?xml version="1.0" encoding="UTF-8" standalone="no"?>
<!DOCTYPE svg PUBLIC "-//W3C//DTD SVG 1.1//EN"
 "http://www.w3.org/Graphics/SVG/1.1/DTD/svg11.dtd">
<!-- Generated by graphviz version 2.32.0 (20130916.1925)
 -->
<!-- Title: rcRectSettingWidget::settingChanged Pages: 1 -->
<svg width="668pt" height="169pt"
 viewBox="0.00 0.00 668.00 169.00" xmlns="http://www.w3.org/2000/svg" xmlns:xlink="http://www.w3.org/1999/xlink">
<g id="graph0" class="graph" transform="scale(1 1) rotate(0) translate(4 165)">
<title>rcRectSettingWidget::settingChanged</title>
<polygon fill="white" stroke="white" points="-4,5 -4,-165 665,-165 665,5 -4,5"/>
<!-- Node1 -->
<g id="node1" class="node"><title>Node1</title>
<polygon fill="#bfbfbf" stroke="black" points="0.42627,-61 0.42627,-93 107.574,-93 107.574,-61 0.42627,-61"/>
<text text-anchor="start" x="8.42627" y="-79" font-family="Helvetica,sans-Serif" font-size="10.00">rcRectSettingWidget</text>
<text text-anchor="middle" x="54" y="-67" font-family="Helvetica,sans-Serif" font-size="10.00">::settingChanged</text>
</g>
<!-- Node2 -->
<g id="node2" class="node"><title>Node2</title>
<g id="a_node2"><a xlink:href="classrc_model_domain.html#a8fafb31fce65382de4c9d4c35b72eb3d" target="_top" xlink:title="rcModelDomain::getModelDomain">
<polygon fill="white" stroke="black" points="328.412,-90 328.412,-110 495.588,-110 495.588,-90 328.412,-90"/>
<text text-anchor="middle" x="412" y="-96" font-family="Helvetica,sans-Serif" font-size="10.00">rcModelDomain::getModelDomain</text>
</a>
</g>
</g>
<!-- Node1&#45;&gt;Node2 -->
<g id="edge1" class="edge"><title>Node1&#45;&gt;Node2</title>
<path fill="none" stroke="midnightblue" d="M107.912,-80.4185C163.275,-83.9953 251.282,-89.6811 318.231,-94.0065"/>
<polygon fill="midnightblue" stroke="midnightblue" points="318.163,-97.5093 328.368,-94.6614 318.615,-90.5239 318.163,-97.5093"/>
</g>
<!-- Node3 -->
<g id="node3" class="node"><title>Node3</title>
<g id="a_node3"><a xlink:href="classrc_model_domain.html#a964f8cb50c816a0826dbbbc60bb78006" target="_top" xlink:title="rcModelDomain::notifySetting\lChange">
<polygon fill="white" stroke="black" points="144.692,-129 144.692,-161 291.308,-161 291.308,-129 144.692,-129"/>
<text text-anchor="start" x="152.692" y="-147" font-family="Helvetica,sans-Serif" font-size="10.00">rcModelDomain::notifySetting</text>
<text text-anchor="middle" x="218" y="-135" font-family="Helvetica,sans-Serif" font-size="10.00">Change</text>
</a>
</g>
</g>
<!-- Node1&#45;&gt;Node3 -->
<g id="edge2" class="edge"><title>Node1&#45;&gt;Node3</title>
<path fill="none" stroke="midnightblue" d="M93.3917,-93.1151C116.107,-102.65 145.072,-114.808 169.253,-124.958"/>
<polygon fill="midnightblue" stroke="midnightblue" points="168.028,-128.24 178.603,-128.883 170.737,-121.785 168.028,-128.24"/>
</g>
<!-- Node5 -->
<g id="node5" class="node"><title>Node5</title>
<g id="a_node5"><a xlink:href="classrc_rect_setting_widget.html#a7134fb58e1d8da291090ef4dab349a30" target="_top" xlink:title="rcRectSettingWidget\l::setMaxValues">
<polygon fill="white" stroke="black" points="164.426,-39 164.426,-71 271.574,-71 271.574,-39 164.426,-39"/>
<text text-anchor="start" x="172.426" y="-57" font-family="Helvetica,sans-Serif" font-size="10.00">rcRectSettingWidget</text>
<text text-anchor="middle" x="218" y="-45" font-family="Helvetica,sans-Serif" font-size="10.00">::setMaxValues</text>
</a>
</g>
</g>
<!-- Node1&#45;&gt;Node5 -->
<g id="edge4" class="edge"><title>Node1&#45;&gt;Node5</title>
<path fill="none" stroke="midnightblue" d="M107.597,-69.8572C122.527,-67.8297 138.931,-65.6019 154.392,-63.5024"/>
<polygon fill="midnightblue" stroke="midnightblue" points="154.952,-66.9585 164.39,-62.1446 154.01,-60.0221 154.952,-66.9585"/>
</g>
<!-- Node8 -->
<g id="node8" class="node"><title>Node8</title>
<g id="a_node8"><a xlink:href="classrc_setting_info.html#a56e4a99afd7b35b9ac8bfcb853dcdc4d" target="_top" xlink:title="rcSettingInfo::setValue">
<polygon fill="white" stroke="black" points="160.061,-0 160.061,-20 275.939,-20 275.939,-0 160.061,-0"/>
<text text-anchor="middle" x="218" y="-6" font-family="Helvetica,sans-Serif" font-size="10.00">rcSettingInfo::setValue</text>
</a>
</g>
</g>
<!-- Node1&#45;&gt;Node8 -->
<g id="edge8" class="edge"><title>Node1&#45;&gt;Node8</title>
<path fill="none" stroke="midnightblue" d="M81.071,-60.7789C98.4,-50.5463 121.944,-37.6721 144,-29 149.543,-26.8204 155.422,-24.8155 161.34,-22.9921"/>
<polygon fill="midnightblue" stroke="midnightblue" points="162.665,-26.2518 171.288,-20.0959 160.708,-19.5309 162.665,-26.2518"/>
</g>
<!-- Node4 -->
<g id="node4" class="node"><title>Node4</title>
<g id="a_node4"><a xlink:href="classrc_model_domain.html#af20f3010314a2ddf0ec3b3aa82f466b5" target="_top" xlink:title="rcModelDomain::updateSettings">
<polygon fill="white" stroke="black" points="332.85,-135 332.85,-155 491.15,-155 491.15,-135 332.85,-135"/>
<text text-anchor="middle" x="412" y="-141" font-family="Helvetica,sans-Serif" font-size="10.00">rcModelDomain::updateSettings</text>
</a>
</g>
</g>
<!-- Node3&#45;&gt;Node4 -->
<g id="edge3" class="edge"><title>Node3&#45;&gt;Node4</title>
<path fill="none" stroke="midnightblue" d="M291.313,-145C301.544,-145 312.158,-145 322.648,-145"/>
<polygon fill="midnightblue" stroke="midnightblue" points="322.653,-148.5 332.653,-145 322.653,-141.5 322.653,-148.5"/>
</g>
<!-- Node5&#45;&gt;Node2 -->
<g id="edge7" class="edge"><title>Node5&#45;&gt;Node2</title>
<path fill="none" stroke="midnightblue" d="M271.719,-67.356C298.593,-73.6545 331.19,-81.2944 358.09,-87.5993"/>
<polygon fill="midnightblue" stroke="midnightblue" points="357.563,-91.0704 368.098,-89.9448 359.16,-84.2551 357.563,-91.0704"/>
</g>
<!-- Node6 -->
<g id="node6" class="node"><title>Node6</title>
<g id="a_node6"><a xlink:href="classrc_model_domain.html#aa43d293533bcf88d4fff6846aa52d1d3" target="_top" xlink:title="rcModelDomain::getExperiment\lAttributes">
<polygon fill="white" stroke="black" points="333.971,-39 333.971,-71 490.029,-71 490.029,-39 333.971,-39"/>
<text text-anchor="start" x="341.971" y="-57" font-family="Helvetica,sans-Serif" font-size="10.00">rcModelDomain::getExperiment</text>
<text text-anchor="middle" x="412" y="-45" font-family="Helvetica,sans-Serif" font-size="10.00">Attributes</text>
</a>
</g>
</g>
<!-- Node5&#45;&gt;Node6 -->
<g id="edge5" class="edge"><title>Node5&#45;&gt;Node6</title>
<path fill="none" stroke="midnightblue" d="M271.719,-55C287.773,-55 305.871,-55 323.576,-55"/>
<polygon fill="midnightblue" stroke="midnightblue" points="323.936,-58.5001 333.936,-55 323.936,-51.5001 323.936,-58.5001"/>
</g>
<!-- Node7 -->
<g id="node7" class="node"><title>Node7</title>
<g id="a_node7"><a xlink:href="classrc_experiment_domain.html#a6abeb9bb031e7bf26116f5cb914e2a56" target="_top" xlink:title="rcExperimentDomain\l::getExperimentAttributes">
<polygon fill="white" stroke="black" points="531.862,-39 531.862,-71 660.138,-71 660.138,-39 531.862,-39"/>
<text text-anchor="start" x="539.862" y="-57" font-family="Helvetica,sans-Serif" font-size="10.00">rcExperimentDomain</text>
<text text-anchor="middle" x="596" y="-45" font-family="Helvetica,sans-Serif" font-size="10.00">::getExperimentAttributes</text>
</a>
</g>
</g>
<!-- Node6&#45;&gt;Node7 -->
<g id="edge6" class="edge"><title>Node6&#45;&gt;Node7</title>
<path fill="none" stroke="midnightblue" d="M490.184,-55C500.575,-55 511.212,-55 521.536,-55"/>
<polygon fill="midnightblue" stroke="midnightblue" points="521.734,-58.5001 531.734,-55 521.734,-51.5001 521.734,-58.5001"/>
</g>
</g>
</svg>
