<?xml version="1.0" encoding="UTF-8" standalone="no"?>
<!DOCTYPE svg PUBLIC "-//W3C//DTD SVG 1.1//EN"
 "http://www.w3.org/Graphics/SVG/1.1/DTD/svg11.dtd">
<!-- Generated by graphviz version 2.32.0 (20130916.1925)
 -->
<!-- Title: rcTimeline::hasViewableTracks Pages: 1 -->
<!--zoomable 232 -->
<svg id="main" version="1.1" xmlns="http://www.w3.org/2000/svg" xmlns:xlink="http://www.w3.org/1999/xlink" xml:space="preserve" onload="init(evt)">
        <defs>
                <circle id="rim" cx="0" cy="0" r="7"/>
                <circle id="rim2" cx="0" cy="0" r="3.5"/>
                <g id="zoomPlus">
                        <use xlink:href="#rim" fill="#404040">
                                <set attributeName="fill" to="#808080" begin="zoomplus.mouseover" end="zoomplus.mouseout"/>
                        </use>
                        <path d="M-4,0h8M0,-4v8" fill="none" stroke="white" stroke-width="1.5" pointer-events="none"/>
                </g>
                <g id="zoomMin">
                        <use xlink:href="#rim" fill="#404040">
                                <set attributeName="fill" to="#808080" begin="zoomminus.mouseover" end="zoomminus.mouseout"/>
                        </use>
                        <path d="M-4,0h8" fill="none" stroke="white" stroke-width="1.5" pointer-events="none"/>
                </g>
                <g id="dirArrow">
                        <path fill="none" stroke="white" stroke-width="1.5" d="M0,-3.0v7 M-2.5,-0.5L0,-3.0L2.5,-0.5"/>
                </g>
               <g id="resetDef">
                       <use xlink:href="#rim2" fill="#404040">
                               <set attributeName="fill" to="#808080" begin="reset.mouseover" end="reset.mouseout"/>
                       </use>
               </g>
        </defs>

<script type="text/javascript">
var viewWidth = 700;
var viewHeight = 232;
var sectionId = 'dynsection-19';
</script>
<script xlink:href="svgpan.js"/>
<svg id="graph" class="graph">
<g id="viewport">
<title>rcTimeline::hasViewableTracks</title>
<polygon fill="white" stroke="white" points="-4,5 -4,-228 697,-228 697,5 -4,5"/>
<!-- Node1 -->
<g id="node1" class="node"><title>Node1</title>
<polygon fill="#bfbfbf" stroke="black" points="0.264648,-106 0.264648,-126 153.735,-126 153.735,-106 0.264648,-106"/>
<text text-anchor="middle" x="77" y="-112" font-family="Helvetica,sans-Serif" font-size="10.00">rcTimeline::hasViewableTracks</text>
</g>
<!-- Node2 -->
<g id="node2" class="node"><title>Node2</title>
<g id="a_node2"><a xlink:href="classrc_track_group.html#aeaac0b69fb2dd8810c1b5a5d5179319d" target="_top" xlink:title="rcTrackGroup::getNTracks">
<polygon fill="white" stroke="black" points="190.465,-204 190.465,-224 323.535,-224 323.535,-204 190.465,-204"/>
<text text-anchor="middle" x="257" y="-210" font-family="Helvetica,sans-Serif" font-size="10.00">rcTrackGroup::getNTracks</text>
</a>
</g>
</g>
<!-- Node1&#45;&gt;Node2 -->
<g id="edge1" class="edge"><title>Node1&#45;&gt;Node2</title>
<path fill="none" stroke="midnightblue" d="M89.9634,-126.26C109.629,-142.662 150.552,-174.882 190,-194 194.983,-196.415 200.32,-198.61 205.72,-200.586"/>
<polygon fill="midnightblue" stroke="midnightblue" points="204.851,-203.988 215.445,-203.906 207.112,-197.363 204.851,-203.988"/>
</g>
<!-- Node3 -->
<g id="node3" class="node"><title>Node3</title>
<g id="a_node3"><a xlink:href="classrc_track_group.html#af6717118313f9c7a40d241addf84e434" target="_top" xlink:title="rcTrackGroup::getTrack">
<polygon fill="white" stroke="black" points="196.576,-165 196.576,-185 317.424,-185 317.424,-165 196.576,-165"/>
<text text-anchor="middle" x="257" y="-171" font-family="Helvetica,sans-Serif" font-size="10.00">rcTrackGroup::getTrack</text>
</a>
</g>
</g>
<!-- Node1&#45;&gt;Node3 -->
<g id="edge2" class="edge"><title>Node1&#45;&gt;Node3</title>
<path fill="none" stroke="midnightblue" d="M105.97,-126.096C128.562,-134.164 161.219,-145.633 190,-155 197.204,-157.345 204.878,-159.752 212.351,-162.048"/>
<polygon fill="midnightblue" stroke="midnightblue" points="211.416,-165.422 222.002,-164.987 213.455,-158.725 211.416,-165.422"/>
</g>
<!-- Node4 -->
<g id="node4" class="node"><title>Node4</title>
<g id="a_node4"><a xlink:href="classrc_track.html#aa92c4dfed7e9cdfe07f52769061086be" target="_top" xlink:title="rcTrack::getTrackType">
<polygon fill="white" stroke="black" points="199.63,-126 199.63,-146 314.37,-146 314.37,-126 199.63,-126"/>
<text text-anchor="middle" x="257" y="-132" font-family="Helvetica,sans-Serif" font-size="10.00">rcTrack::getTrackType</text>
</a>
</g>
</g>
<!-- Node1&#45;&gt;Node4 -->
<g id="edge3" class="edge"><title>Node1&#45;&gt;Node4</title>
<path fill="none" stroke="midnightblue" d="M153.746,-124.511C165.602,-125.843 177.779,-127.211 189.41,-128.518"/>
<polygon fill="midnightblue" stroke="midnightblue" points="189.14,-132.01 199.469,-129.648 189.922,-125.053 189.14,-132.01"/>
</g>
<!-- Node5 -->
<g id="node5" class="node"><title>Node5</title>
<g id="a_node5"><a xlink:href="classrc_track_group.html#a5bb93fe23f0992a358157bc1966cac60" target="_top" xlink:title="rcTrackGroup::getType">
<polygon fill="white" stroke="black" points="198.05,-87 198.05,-107 315.95,-107 315.95,-87 198.05,-87"/>
<text text-anchor="middle" x="257" y="-93" font-family="Helvetica,sans-Serif" font-size="10.00">rcTrackGroup::getType</text>
</a>
</g>
</g>
<!-- Node1&#45;&gt;Node5 -->
<g id="edge4" class="edge"><title>Node1&#45;&gt;Node5</title>
<path fill="none" stroke="midnightblue" d="M153.746,-107.915C165.048,-106.708 176.641,-105.471 187.775,-104.282"/>
<polygon fill="midnightblue" stroke="midnightblue" points="188.277,-107.749 197.849,-103.207 187.534,-100.788 188.277,-107.749"/>
</g>
<!-- Node6 -->
<g id="node6" class="node"><title>Node6</title>
<g id="a_node6"><a xlink:href="classrc_timeline.html#a8c8dec2479c11805ff16e1d4145d94f1" target="_top" xlink:title="rcTimeline::inputIsCamera">
<polygon fill="white" stroke="black" points="190.831,-48 190.831,-68 323.169,-68 323.169,-48 190.831,-48"/>
<text text-anchor="middle" x="257" y="-54" font-family="Helvetica,sans-Serif" font-size="10.00">rcTimeline::inputIsCamera</text>
</a>
</g>
</g>
<!-- Node1&#45;&gt;Node6 -->
<g id="edge5" class="edge"><title>Node1&#45;&gt;Node6</title>
<path fill="none" stroke="midnightblue" d="M106.921,-105.896C129.486,-98.0836 161.652,-87.1014 190,-78 197.213,-75.6842 204.892,-73.2913 212.367,-71.001"/>
<polygon fill="midnightblue" stroke="midnightblue" points="213.47,-74.3238 222.018,-68.0643 211.433,-67.6269 213.47,-74.3238"/>
</g>
<!-- Node10 -->
<g id="node10" class="node"><title>Node10</title>
<g id="a_node10"><a xlink:href="classrc_timeline.html#a9d9499feed10d4cdd625c8c75cb97e83" target="_top" xlink:title="rcTimeline::inputIsStored">
<polygon fill="white" stroke="black" points="193.883,-9 193.883,-29 320.117,-29 320.117,-9 193.883,-9"/>
<text text-anchor="middle" x="257" y="-15" font-family="Helvetica,sans-Serif" font-size="10.00">rcTimeline::inputIsStored</text>
</a>
</g>
</g>
<!-- Node1&#45;&gt;Node10 -->
<g id="edge9" class="edge"><title>Node1&#45;&gt;Node10</title>
<path fill="none" stroke="midnightblue" d="M89.9882,-105.883C109.688,-89.7062 150.659,-57.9193 190,-39 195.058,-36.5676 200.476,-34.3555 205.954,-32.3644"/>
<polygon fill="midnightblue" stroke="midnightblue" points="207.466,-35.5472 215.811,-29.0196 205.217,-28.9184 207.466,-35.5472"/>
</g>
<!-- Node7 -->
<g id="node7" class="node"><title>Node7</title>
<g id="a_node7"><a xlink:href="classrc_model_domain.html#a8fafb31fce65382de4c9d4c35b72eb3d" target="_top" xlink:title="rcModelDomain::getModelDomain">
<polygon fill="white" stroke="black" points="360.412,-51 360.412,-71 527.588,-71 527.588,-51 360.412,-51"/>
<text text-anchor="middle" x="444" y="-57" font-family="Helvetica,sans-Serif" font-size="10.00">rcModelDomain::getModelDomain</text>
</a>
</g>
</g>
<!-- Node6&#45;&gt;Node7 -->
<g id="edge6" class="edge"><title>Node6&#45;&gt;Node7</title>
<path fill="none" stroke="midnightblue" d="M323.224,-59.0577C331.916,-59.1986 340.961,-59.3453 350.012,-59.4921"/>
<polygon fill="midnightblue" stroke="midnightblue" points="350.16,-62.9949 360.216,-59.6575 350.274,-55.9958 350.16,-62.9949"/>
</g>
<!-- Node8 -->
<g id="node8" class="node"><title>Node8</title>
<g id="a_node8"><a xlink:href="classrc_model_domain.html#aa43d293533bcf88d4fff6846aa52d1d3" target="_top" xlink:title="rcModelDomain::getExperiment\lAttributes">
<polygon fill="white" stroke="black" points="365.971,-0 365.971,-32 522.029,-32 522.029,-0 365.971,-0"/>
<text text-anchor="start" x="373.971" y="-18" font-family="Helvetica,sans-Serif" font-size="10.00">rcModelDomain::getExperiment</text>
<text text-anchor="middle" x="444" y="-6" font-family="Helvetica,sans-Serif" font-size="10.00">Attributes</text>
</a>
</g>
</g>
<!-- Node6&#45;&gt;Node8 -->
<g id="edge7" class="edge"><title>Node6&#45;&gt;Node8</title>
<path fill="none" stroke="midnightblue" d="M302.312,-47.94C320.317,-43.8523 341.702,-38.9973 362.294,-34.3224"/>
<polygon fill="midnightblue" stroke="midnightblue" points="363.344,-37.6731 372.321,-32.046 361.794,-30.8469 363.344,-37.6731"/>
</g>
<!-- Node9 -->
<g id="node9" class="node"><title>Node9</title>
<g id="a_node9"><a xlink:href="classrc_experiment_domain.html#a6abeb9bb031e7bf26116f5cb914e2a56" target="_top" xlink:title="rcExperimentDomain\l::getExperimentAttributes">
<polygon fill="white" stroke="black" points="563.862,-0 563.862,-32 692.138,-32 692.138,-0 563.862,-0"/>
<text text-anchor="start" x="571.862" y="-18" font-family="Helvetica,sans-Serif" font-size="10.00">rcExperimentDomain</text>
<text text-anchor="middle" x="628" y="-6" font-family="Helvetica,sans-Serif" font-size="10.00">::getExperimentAttributes</text>
</a>
</g>
</g>
<!-- Node8&#45;&gt;Node9 -->
<g id="edge8" class="edge"><title>Node8&#45;&gt;Node9</title>
<path fill="none" stroke="midnightblue" d="M522.184,-16C532.575,-16 543.212,-16 553.536,-16"/>
<polygon fill="midnightblue" stroke="midnightblue" points="553.734,-19.5001 563.734,-16 553.734,-12.5001 553.734,-19.5001"/>
</g>
<!-- Node10&#45;&gt;Node7 -->
<g id="edge10" class="edge"><title>Node10&#45;&gt;Node7</title>
<path fill="none" stroke="midnightblue" d="M302.312,-29.06C328.303,-34.9606 361.336,-42.46 388.861,-48.7089"/>
<polygon fill="midnightblue" stroke="midnightblue" points="388.202,-52.1485 398.729,-50.9493 389.752,-45.3222 388.202,-52.1485"/>
</g>
<!-- Node10&#45;&gt;Node8 -->
<g id="edge11" class="edge"><title>Node10&#45;&gt;Node8</title>
<path fill="none" stroke="midnightblue" d="M320.375,-17.9885C331.652,-17.8056 343.6,-17.6119 355.44,-17.4199"/>
<polygon fill="midnightblue" stroke="midnightblue" points="355.855,-20.9137 365.797,-17.2519 355.741,-13.9146 355.855,-20.9137"/>
</g>
</g>
</svg>
        <g id="navigator" transform="translate(0 0)" fill="#404254">
                <rect fill="#f2f5e9" fill-opacity="0.5" stroke="#606060" stroke-width=".5" x="0" y="0" width="60" height="60"/>
                <use id="zoomplus" xlink:href="#zoomPlus" x="17" y="9" onmousedown="handleZoom(evt,'in')"/>
                <use id="zoomminus" xlink:href="#zoomMin" x="42" y="9" onmousedown="handleZoom(evt,'out')"/>
                <use id="reset" xlink:href="#resetDef" x="30" y="36" onmousedown="handleReset()"/>
                <g id="arrowUp" xlink:href="#dirArrow" transform="translate(30 24)" onmousedown="handlePan(0,-1)">
                  <use xlink:href="#rim" fill="#404040">
                        <set attributeName="fill" to="#808080" begin="arrowUp.mouseover" end="arrowUp.mouseout"/>
                  </use>
                  <path fill="none" stroke="white" stroke-width="1.5" d="M0,-3.0v7 M-2.5,-0.5L0,-3.0L2.5,-0.5"/>
                </g>
                <g id="arrowRight" xlink:href="#dirArrow" transform="rotate(90) translate(36 -43)" onmousedown="handlePan(1,0)">
                  <use xlink:href="#rim" fill="#404040">
                        <set attributeName="fill" to="#808080" begin="arrowRight.mouseover" end="arrowRight.mouseout"/>
                  </use>
                  <path fill="none" stroke="white" stroke-width="1.5" d="M0,-3.0v7 M-2.5,-0.5L0,-3.0L2.5,-0.5"/>
                </g>
                <g id="arrowDown" xlink:href="#dirArrow" transform="rotate(180) translate(-30 -48)" onmousedown="handlePan(0,1)">
                  <use xlink:href="#rim" fill="#404040">
                        <set attributeName="fill" to="#808080" begin="arrowDown.mouseover" end="arrowDown.mouseout"/>
                  </use>
                  <path fill="none" stroke="white" stroke-width="1.5" d="M0,-3.0v7 M-2.5,-0.5L0,-3.0L2.5,-0.5"/>
                </g>
                <g id="arrowLeft" xlink:href="#dirArrow" transform="rotate(270) translate(-36 17)" onmousedown="handlePan(-1,0)">
                  <use xlink:href="#rim" fill="#404040">
                        <set attributeName="fill" to="#808080" begin="arrowLeft.mouseover" end="arrowLeft.mouseout"/>
                  </use>
                  <path fill="none" stroke="white" stroke-width="1.5" d="M0,-3.0v7 M-2.5,-0.5L0,-3.0L2.5,-0.5"/>
                </g>
        </g>
        <svg viewBox="0 0 15 15" width="100%" height="30px" preserveAspectRatio="xMaxYMin meet">
         <g id="arrow_out" transform="scale(0.3 0.3)">
          <a xlink:href="classrc_timeline_a3a8508685cd51c9f7b5aab0bdea30e32_cgraph_org.svg" target="_base">
           <rect id="button" ry="5" rx="5" y="6" x="6" height="38" width="38"
                fill="#f2f5e9" fill-opacity="0.5" stroke="#606060" stroke-width="1.0"/>
           <path id="arrow"
             d="M 11.500037,31.436501 C 11.940474,20.09759 22.043105,11.32322 32.158766,21.979434 L 37.068811,17.246167 C 37.068811,17.246167 37.088388,32 37.088388,32 L 22.160133,31.978069 C 22.160133,31.978069 26.997745,27.140456 26.997745,27.140456 C 18.528582,18.264221 13.291696,25.230495 11.500037,31.436501 z"
             style="fill:#404040;"/>
          </a>
         </g>
        </svg>
</svg>
