<?xml version="1.0" encoding="UTF-8" standalone="no"?>
<!DOCTYPE svg PUBLIC "-//W3C//DTD SVG 1.1//EN"
 "http://www.w3.org/Graphics/SVG/1.1/DTD/svg11.dtd">
<!-- Generated by graphviz version 2.32.0 (20130916.1925)
 -->
<!-- Title: rcCameraProperty::minValue Pages: 1 -->
<!--zoomable 146 -->
<svg id="main" version="1.1" xmlns="http://www.w3.org/2000/svg" xmlns:xlink="http://www.w3.org/1999/xlink" xml:space="preserve" onload="init(evt)">
        <defs>
                <circle id="rim" cx="0" cy="0" r="7"/>
                <circle id="rim2" cx="0" cy="0" r="3.5"/>
                <g id="zoomPlus">
                        <use xlink:href="#rim" fill="#404040">
                                <set attributeName="fill" to="#808080" begin="zoomplus.mouseover" end="zoomplus.mouseout"/>
                        </use>
                        <path d="M-4,0h8M0,-4v8" fill="none" stroke="white" stroke-width="1.5" pointer-events="none"/>
                </g>
                <g id="zoomMin">
                        <use xlink:href="#rim" fill="#404040">
                                <set attributeName="fill" to="#808080" begin="zoomminus.mouseover" end="zoomminus.mouseout"/>
                        </use>
                        <path d="M-4,0h8" fill="none" stroke="white" stroke-width="1.5" pointer-events="none"/>
                </g>
                <g id="dirArrow">
                        <path fill="none" stroke="white" stroke-width="1.5" d="M0,-3.0v7 M-2.5,-0.5L0,-3.0L2.5,-0.5"/>
                </g>
               <g id="resetDef">
                       <use xlink:href="#rim2" fill="#404040">
                               <set attributeName="fill" to="#808080" begin="reset.mouseover" end="reset.mouseout"/>
                       </use>
               </g>
        </defs>

<script type="text/javascript">
var viewWidth = 1022;
var viewHeight = 146;
var sectionId = 'dynsection-11';
</script>
<script xlink:href="svgpan.js"/>
<svg id="graph" class="graph">
<g id="viewport">
<title>rcCameraProperty::minValue</title>
<polygon fill="white" stroke="white" points="-4,5 -4,-142 1019,-142 1019,5 -4,5"/>
<!-- Node1 -->
<g id="node1" class="node"><title>Node1</title>
<polygon fill="#bfbfbf" stroke="black" points="-0.0991211,-45 -0.0991211,-65 144.099,-65 144.099,-45 -0.0991211,-45"/>
<text text-anchor="middle" x="72" y="-51" font-family="Helvetica,sans-Serif" font-size="10.00">rcCameraProperty::minValue</text>
</g>
<!-- Node2 -->
<g id="node2" class="node"><title>Node2</title>
<g id="a_node2"><a xlink:href="rc__dcam_8cpp.html#ac94c927dbd4df168f8aa9e6780a735cf" target="_top" xlink:title="GetCameraProperty">
<polygon fill="white" stroke="black" points="203.261,-90 203.261,-110 308.739,-110 308.739,-90 203.261,-90"/>
<text text-anchor="middle" x="256" y="-96" font-family="Helvetica,sans-Serif" font-size="10.00">GetCameraProperty</text>
</a>
</g>
</g>
<!-- Node1&#45;&gt;Node2 -->
<g id="edge1" class="edge"><title>Node1&#45;&gt;Node2</title>
<path fill="none" stroke="midnightblue" d="M123.656,-67.5248C152.25,-74.5948 187.508,-83.3124 214.292,-89.9348"/>
<polygon fill="midnightblue" stroke="midnightblue" points="124.392,-64.1015 113.844,-65.0989 122.712,-70.8969 124.392,-64.1015"/>
</g>
<!-- Node12 -->
<g id="node12" class="node"><title>Node12</title>
<g id="a_node12"><a xlink:href="classrc_camera_mapper.html#a7e1ab092429a23e5c2e0115e0a72899e" target="_top" xlink:title="rcCameraMapper::GetCamera\lProperty">
<polygon fill="white" stroke="black" points="180.478,-39 180.478,-71 331.522,-71 331.522,-39 180.478,-39"/>
<text text-anchor="start" x="188.478" y="-57" font-family="Helvetica,sans-Serif" font-size="10.00">rcCameraMapper::GetCamera</text>
<text text-anchor="middle" x="256" y="-45" font-family="Helvetica,sans-Serif" font-size="10.00">Property</text>
</a>
</g>
</g>
<!-- Node1&#45;&gt;Node12 -->
<g id="edge12" class="edge"><title>Node1&#45;&gt;Node12</title>
<path fill="none" stroke="midnightblue" d="M154.251,-55C162.921,-55 171.71,-55 180.299,-55"/>
<polygon fill="midnightblue" stroke="midnightblue" points="154.148,-51.5001 144.148,-55 154.148,-58.5001 154.148,-51.5001"/>
</g>
<!-- Node13 -->
<g id="node13" class="node"><title>Node13</title>
<g id="a_node13"><a xlink:href="rc__dcam_8cpp.html#a90efefb88ce3a8a7e679a62fb101502f" target="_top" xlink:title="operator\&lt;\&lt;">
<polygon fill="white" stroke="black" points="223.537,-0 223.537,-20 288.463,-20 288.463,-0 223.537,-0"/>
<text text-anchor="middle" x="256" y="-6" font-family="Helvetica,sans-Serif" font-size="10.00">operator&lt;&lt;</text>
</a>
</g>
</g>
<!-- Node1&#45;&gt;Node13 -->
<g id="edge13" class="edge"><title>Node1&#45;&gt;Node13</title>
<path fill="none" stroke="midnightblue" d="M123.889,-42.4175C155.799,-34.5277 195.935,-24.6039 223.34,-17.828"/>
<polygon fill="midnightblue" stroke="midnightblue" points="122.712,-39.1031 113.844,-44.9011 124.392,-45.8985 122.712,-39.1031"/>
</g>
<!-- Node3 -->
<g id="node3" class="node"><title>Node3</title>
<g id="a_node3"><a xlink:href="classrc_camera_mapper.html#a2124becc0391d389b0437c82e6d5b913" target="_top" xlink:title="rcCameraMapper::Fill\l_dcam_info">
<polygon fill="white" stroke="black" points="371.934,-106 371.934,-138 484.066,-138 484.066,-106 371.934,-106"/>
<text text-anchor="start" x="379.934" y="-124" font-family="Helvetica,sans-Serif" font-size="10.00">rcCameraMapper::Fill</text>
<text text-anchor="middle" x="428" y="-112" font-family="Helvetica,sans-Serif" font-size="10.00">_dcam_info</text>
</a>
</g>
</g>
<!-- Node2&#45;&gt;Node3 -->
<g id="edge2" class="edge"><title>Node2&#45;&gt;Node3</title>
<path fill="none" stroke="midnightblue" d="M318.941,-108.016C336.257,-110.257 354.955,-112.677 371.85,-114.863"/>
<polygon fill="midnightblue" stroke="midnightblue" points="319.296,-104.533 308.929,-106.72 318.397,-111.475 319.296,-104.533"/>
</g>
<!-- Node4 -->
<g id="node4" class="node"><title>Node4</title>
<g id="a_node4"><a xlink:href="rc__dcam_8h.html#aa36bd157651ad33c1b8bb4105423d8b4" target="_top" xlink:title="rfGetCameraProperties">
<polygon fill="white" stroke="black" points="368.315,-67 368.315,-87 487.685,-87 487.685,-67 368.315,-67"/>
<text text-anchor="middle" x="428" y="-73" font-family="Helvetica,sans-Serif" font-size="10.00">rfGetCameraProperties</text>
</a>
</g>
</g>
<!-- Node2&#45;&gt;Node4 -->
<g id="edge3" class="edge"><title>Node2&#45;&gt;Node4</title>
<path fill="none" stroke="midnightblue" d="M319.255,-91.5772C335.264,-89.4114 352.434,-87.0884 368.258,-84.9475"/>
<polygon fill="midnightblue" stroke="midnightblue" points="318.37,-88.1651 308.929,-92.9743 319.308,-95.1019 318.37,-88.1651"/>
</g>
<!-- Node5 -->
<g id="node5" class="node"><title>Node5</title>
<g id="a_node5"><a xlink:href="rc__dcam_8h.html#a471b8dac84c06d5437ad0e873b84da77" target="_top" xlink:title="rfGetCameraCapabilities">
<polygon fill="white" stroke="black" points="524.256,-87 524.256,-107 649.744,-107 649.744,-87 524.256,-87"/>
<text text-anchor="middle" x="587" y="-93" font-family="Helvetica,sans-Serif" font-size="10.00">rfGetCameraCapabilities</text>
</a>
</g>
</g>
<!-- Node4&#45;&gt;Node5 -->
<g id="edge4" class="edge"><title>Node4&#45;&gt;Node5</title>
<path fill="none" stroke="midnightblue" d="M498.017,-85.7919C506.712,-86.8996 515.565,-88.0273 524.14,-89.1197"/>
<polygon fill="midnightblue" stroke="midnightblue" points="498.27,-82.296 487.908,-84.5042 497.385,-89.2399 498.27,-82.296"/>
</g>
<!-- Node11 -->
<g id="node11" class="node"><title>Node11</title>
<g id="a_node11"><a xlink:href="rc__dcam_8h.html#abdaac796c588bd54040222228f90bd0f" target="_top" xlink:title="rfGetCameraInformation">
<polygon fill="white" stroke="black" points="525.091,-48 525.091,-68 648.909,-68 648.909,-48 525.091,-48"/>
<text text-anchor="middle" x="587" y="-54" font-family="Helvetica,sans-Serif" font-size="10.00">rfGetCameraInformation</text>
</a>
</g>
</g>
<!-- Node4&#45;&gt;Node11 -->
<g id="edge10" class="edge"><title>Node4&#45;&gt;Node11</title>
<path fill="none" stroke="midnightblue" d="M497.952,-68.6555C506.935,-67.5684 516.087,-66.4608 524.928,-65.3908"/>
<polygon fill="midnightblue" stroke="midnightblue" points="497.415,-65.1949 487.908,-69.871 498.256,-72.1442 497.415,-65.1949"/>
</g>
<!-- Node6 -->
<g id="node6" class="node"><title>Node6</title>
<g id="a_node6"><a xlink:href="rc__dcam__capture_8cpp.html#a8fcb91e1b2e6adaad571752a59ac3dad" target="_top" xlink:title="InitializeMungData2">
<polygon fill="white" stroke="black" points="686.086,-67 686.086,-87 789.914,-87 789.914,-67 686.086,-67"/>
<text text-anchor="middle" x="738" y="-73" font-family="Helvetica,sans-Serif" font-size="10.00">InitializeMungData2</text>
</a>
</g>
</g>
<!-- Node5&#45;&gt;Node6 -->
<g id="edge5" class="edge"><title>Node5&#45;&gt;Node6</title>
<path fill="none" stroke="midnightblue" d="M659.808,-87.3614C668.63,-86.1772 677.502,-84.9863 685.929,-83.8551"/>
<polygon fill="midnightblue" stroke="midnightblue" points="659.34,-83.8926 649.895,-88.692 660.272,-90.8304 659.34,-83.8926"/>
</g>
<!-- Node7 -->
<g id="node7" class="node"><title>Node7</title>
<g id="a_node7"><a xlink:href="rc__dcam__capture_8h.html#aa3528bb0b33aa9119084d4b082f8c0aa" target="_top" xlink:title="rfDCAMVideoCapture">
<polygon fill="white" stroke="black" points="826.736,-87 826.736,-107 939.264,-107 939.264,-87 826.736,-87"/>
<text text-anchor="middle" x="883" y="-93" font-family="Helvetica,sans-Serif" font-size="10.00">rfDCAMVideoCapture</text>
</a>
</g>
</g>
<!-- Node6&#45;&gt;Node7 -->
<g id="edge6" class="edge"><title>Node6&#45;&gt;Node7</title>
<path fill="none" stroke="midnightblue" d="M800.251,-85.5666C808.9,-86.7763 817.754,-88.0146 826.292,-89.2086"/>
<polygon fill="midnightblue" stroke="midnightblue" points="800.611,-82.0829 790.222,-84.164 799.641,-89.0154 800.611,-82.0829"/>
</g>
<!-- Node9 -->
<g id="node9" class="node"><title>Node9</title>
<g id="a_node9"><a xlink:href="rc__qtime__capture_8h.html#adf4b66b022a2bc6ba21cddbc179756cb" target="_top" xlink:title="rfQTVideoCapture">
<polygon fill="white" stroke="black" points="834.514,-48 834.514,-68 931.486,-68 931.486,-48 834.514,-48"/>
<text text-anchor="middle" x="883" y="-54" font-family="Helvetica,sans-Serif" font-size="10.00">rfQTVideoCapture</text>
</a>
</g>
</g>
<!-- Node6&#45;&gt;Node9 -->
<g id="edge8" class="edge"><title>Node6&#45;&gt;Node9</title>
<path fill="none" stroke="midnightblue" d="M800.181,-68.871C811.655,-67.3465 823.491,-65.774 834.473,-64.3148"/>
<polygon fill="midnightblue" stroke="midnightblue" points="799.674,-65.4075 790.222,-70.1942 800.596,-72.3466 799.674,-65.4075"/>
</g>
<!-- Node8 -->
<g id="node8" class="node"><title>Node8</title>
<g id="a_node8"><a xlink:href="rc__dcam__main_8cpp.html#a3c04138a5bfe5d72780bb7e82a18e627" target="_top" xlink:title="main">
<polygon fill="white" stroke="black" points="976.163,-87 976.163,-107 1013.84,-107 1013.84,-87 976.163,-87"/>
<text text-anchor="middle" x="995" y="-93" font-family="Helvetica,sans-Serif" font-size="10.00">main</text>
</a>
</g>
</g>
<!-- Node7&#45;&gt;Node8 -->
<g id="edge7" class="edge"><title>Node7&#45;&gt;Node8</title>
<path fill="none" stroke="midnightblue" d="M949.526,-97C959.212,-97 968.445,-97 975.963,-97"/>
<polygon fill="midnightblue" stroke="midnightblue" points="949.322,-93.5001 939.322,-97 949.322,-100.5 949.322,-93.5001"/>
</g>
<!-- Node10 -->
<g id="node10" class="node"><title>Node10</title>
<g id="a_node10"><a xlink:href="rc__qtime__main_8cpp.html#a3c04138a5bfe5d72780bb7e82a18e627" target="_top" xlink:title="main">
<polygon fill="white" stroke="black" points="976.163,-48 976.163,-68 1013.84,-68 1013.84,-48 976.163,-48"/>
<text text-anchor="middle" x="995" y="-54" font-family="Helvetica,sans-Serif" font-size="10.00">main</text>
</a>
</g>
</g>
<!-- Node9&#45;&gt;Node10 -->
<g id="edge9" class="edge"><title>Node9&#45;&gt;Node10</title>
<path fill="none" stroke="midnightblue" d="M941.663,-58C954.213,-58 966.578,-58 976.135,-58"/>
<polygon fill="midnightblue" stroke="midnightblue" points="941.608,-54.5001 931.608,-58 941.608,-61.5001 941.608,-54.5001"/>
</g>
<!-- Node11&#45;&gt;Node6 -->
<g id="edge11" class="edge"><title>Node11&#45;&gt;Node6</title>
<path fill="none" stroke="midnightblue" d="M659.139,-67.0714C668.138,-68.219 677.203,-69.3749 685.807,-70.4721"/>
<polygon fill="midnightblue" stroke="midnightblue" points="659.396,-63.576 649.034,-65.7828 658.511,-70.5197 659.396,-63.576"/>
</g>
</g>
</svg>
        <g id="navigator" transform="translate(0 0)" fill="#404254">
                <rect fill="#f2f5e9" fill-opacity="0.5" stroke="#606060" stroke-width=".5" x="0" y="0" width="60" height="60"/>
                <use id="zoomplus" xlink:href="#zoomPlus" x="17" y="9" onmousedown="handleZoom(evt,'in')"/>
                <use id="zoomminus" xlink:href="#zoomMin" x="42" y="9" onmousedown="handleZoom(evt,'out')"/>
                <use id="reset" xlink:href="#resetDef" x="30" y="36" onmousedown="handleReset()"/>
                <g id="arrowUp" xlink:href="#dirArrow" transform="translate(30 24)" onmousedown="handlePan(0,-1)">
                  <use xlink:href="#rim" fill="#404040">
                        <set attributeName="fill" to="#808080" begin="arrowUp.mouseover" end="arrowUp.mouseout"/>
                  </use>
                  <path fill="none" stroke="white" stroke-width="1.5" d="M0,-3.0v7 M-2.5,-0.5L0,-3.0L2.5,-0.5"/>
                </g>
                <g id="arrowRight" xlink:href="#dirArrow" transform="rotate(90) translate(36 -43)" onmousedown="handlePan(1,0)">
                  <use xlink:href="#rim" fill="#404040">
                        <set attributeName="fill" to="#808080" begin="arrowRight.mouseover" end="arrowRight.mouseout"/>
                  </use>
                  <path fill="none" stroke="white" stroke-width="1.5" d="M0,-3.0v7 M-2.5,-0.5L0,-3.0L2.5,-0.5"/>
                </g>
                <g id="arrowDown" xlink:href="#dirArrow" transform="rotate(180) translate(-30 -48)" onmousedown="handlePan(0,1)">
                  <use xlink:href="#rim" fill="#404040">
                        <set attributeName="fill" to="#808080" begin="arrowDown.mouseover" end="arrowDown.mouseout"/>
                  </use>
                  <path fill="none" stroke="white" stroke-width="1.5" d="M0,-3.0v7 M-2.5,-0.5L0,-3.0L2.5,-0.5"/>
                </g>
                <g id="arrowLeft" xlink:href="#dirArrow" transform="rotate(270) translate(-36 17)" onmousedown="handlePan(-1,0)">
                  <use xlink:href="#rim" fill="#404040">
                        <set attributeName="fill" to="#808080" begin="arrowLeft.mouseover" end="arrowLeft.mouseout"/>
                  </use>
                  <path fill="none" stroke="white" stroke-width="1.5" d="M0,-3.0v7 M-2.5,-0.5L0,-3.0L2.5,-0.5"/>
                </g>
        </g>
        <svg viewBox="0 0 15 15" width="100%" height="30px" preserveAspectRatio="xMaxYMin meet">
         <g id="arrow_out" transform="scale(0.3 0.3)">
          <a xlink:href="classrc_camera_property_a30d5d04a70c66d57666f319489298855_icgraph_org.svg" target="_base">
           <rect id="button" ry="5" rx="5" y="6" x="6" height="38" width="38"
                fill="#f2f5e9" fill-opacity="0.5" stroke="#606060" stroke-width="1.0"/>
           <path id="arrow"
             d="M 11.500037,31.436501 C 11.940474,20.09759 22.043105,11.32322 32.158766,21.979434 L 37.068811,17.246167 C 37.068811,17.246167 37.088388,32 37.088388,32 L 22.160133,31.978069 C 22.160133,31.978069 26.997745,27.140456 26.997745,27.140456 C 18.528582,18.264221 13.291696,25.230495 11.500037,31.436501 z"
             style="fill:#404040;"/>
          </a>
         </g>
        </svg>
</svg>
