<?xml version="1.0" encoding="UTF-8" standalone="no"?>
<!DOCTYPE svg PUBLIC "-//W3C//DTD SVG 1.1//EN"
 "http://www.w3.org/Graphics/SVG/1.1/DTD/svg11.dtd">
<!-- Generated by graphviz version 2.32.0 (20130916.1925)
 -->
<!-- Title: rcTextChoiceSettingWidget::settingChanged Pages: 1 -->
<svg width="322pt" height="40pt"
 viewBox="0.00 0.00 322.00 40.00" xmlns="http://www.w3.org/2000/svg" xmlns:xlink="http://www.w3.org/1999/xlink">
<g id="graph0" class="graph" transform="scale(1 1) rotate(0) translate(4 36)">
<title>rcTextChoiceSettingWidget::settingChanged</title>
<polygon fill="white" stroke="white" points="-4,5 -4,-36 319,-36 319,5 -4,5"/>
<!-- Node1 -->
<g id="node1" class="node"><title>Node1</title>
<polygon fill="#bfbfbf" stroke="black" points="-0.0268555,-0 -0.0268555,-32 136.027,-32 136.027,-0 -0.0268555,-0"/>
<text text-anchor="start" x="7.97314" y="-18" font-family="Helvetica,sans-Serif" font-size="10.00">rcTextChoiceSettingWidget</text>
<text text-anchor="middle" x="68" y="-6" font-family="Helvetica,sans-Serif" font-size="10.00">::settingChanged</text>
</g>
<!-- Node2 -->
<g id="node2" class="node"><title>Node2</title>
<g id="a_node2"><a xlink:href="classrc_text_choice_setting_widget.html#a1fb738595b5a80ccd2608a0e9cd66984" target="_top" xlink:title="rcTextChoiceSettingWidget\l::rcTextChoiceSettingWidget">
<polygon fill="white" stroke="black" points="172.195,-0 172.195,-32 313.805,-32 313.805,-0 172.195,-0"/>
<text text-anchor="start" x="180.195" y="-18" font-family="Helvetica,sans-Serif" font-size="10.00">rcTextChoiceSettingWidget</text>
<text text-anchor="middle" x="243" y="-6" font-family="Helvetica,sans-Serif" font-size="10.00">::rcTextChoiceSettingWidget</text>
</a>
</g>
</g>
<!-- Node1&#45;&gt;Node2 -->
<g id="edge1" class="edge"><title>Node1&#45;&gt;Node2</title>
<path fill="none" stroke="midnightblue" d="M146.602,-16C155.045,-16 163.603,-16 171.948,-16"/>
<polygon fill="midnightblue" stroke="midnightblue" points="146.382,-12.5001 136.382,-16 146.382,-19.5001 146.382,-12.5001"/>
</g>
</g>
</svg>
