<?xml version="1.0" encoding="UTF-8" standalone="no"?>
<!DOCTYPE svg PUBLIC "-//W3C//DTD SVG 1.1//EN"
 "http://www.w3.org/Graphics/SVG/1.1/DTD/svg11.dtd">
<!-- Generated by graphviz version 2.32.0 (20130916.1925)
 -->
<!-- Title: rcTrackImpl::setWriterState Pages: 1 -->
<svg width="504pt" height="373pt"
 viewBox="0.00 0.00 504.00 373.00" xmlns="http://www.w3.org/2000/svg" xmlns:xlink="http://www.w3.org/1999/xlink">
<g id="graph0" class="graph" transform="scale(1 1) rotate(0) translate(4 369)">
<title>rcTrackImpl::setWriterState</title>
<polygon fill="white" stroke="white" points="-4,5 -4,-369 501,-369 501,5 -4,5"/>
<!-- Node1 -->
<g id="node1" class="node"><title>Node1</title>
<polygon fill="#bfbfbf" stroke="black" points="0.707031,-184 0.707031,-204 137.293,-204 137.293,-184 0.707031,-184"/>
<text text-anchor="middle" x="69" y="-190" font-family="Helvetica,sans-Serif" font-size="10.00">rcTrackImpl::setWriterState</text>
</g>
<!-- Node2 -->
<g id="node2" class="node"><title>Node2</title>
<g id="a_node2"><a xlink:href="classrc_video_track_impl.html#ab04767a2629c7c7a7bf180b78c5c03bc" target="_top" xlink:title="rcVideoTrackImpl::setWriter\lState">
<polygon fill="white" stroke="black" points="174.682,-300 174.682,-332 313.318,-332 313.318,-300 174.682,-300"/>
<text text-anchor="start" x="182.682" y="-318" font-family="Helvetica,sans-Serif" font-size="10.00">rcVideoTrackImpl::setWriter</text>
<text text-anchor="middle" x="244" y="-306" font-family="Helvetica,sans-Serif" font-size="10.00">State</text>
</a>
</g>
</g>
<!-- Node1&#45;&gt;Node2 -->
<g id="edge1" class="edge"><title>Node1&#45;&gt;Node2</title>
<path fill="none" stroke="midnightblue" d="M93.0251,-210.237C126.185,-233.622 187.028,-276.529 220.112,-299.859"/>
<polygon fill="midnightblue" stroke="midnightblue" points="94.6417,-207.095 84.4523,-204.192 90.6075,-212.815 94.6417,-207.095"/>
</g>
<!-- Node5 -->
<g id="node5" class="node"><title>Node5</title>
<g id="a_node5"><a xlink:href="classrc_graphics_track_impl.html#ab7717b7e81095bec057f3885e8a56c0c" target="_top" xlink:title="rcGraphicsTrackImpl\l::setWriterState">
<polygon fill="white" stroke="black" points="190.065,-204 190.065,-236 297.935,-236 297.935,-204 190.065,-204"/>
<text text-anchor="start" x="198.065" y="-222" font-family="Helvetica,sans-Serif" font-size="10.00">rcGraphicsTrackImpl</text>
<text text-anchor="middle" x="244" y="-210" font-family="Helvetica,sans-Serif" font-size="10.00">::setWriterState</text>
</a>
</g>
</g>
<!-- Node1&#45;&gt;Node5 -->
<g id="edge4" class="edge"><title>Node1&#45;&gt;Node5</title>
<path fill="none" stroke="midnightblue" d="M146.881,-205.554C161.432,-207.741 176.35,-209.983 189.962,-212.029"/>
<polygon fill="midnightblue" stroke="midnightblue" points="147.295,-202.077 136.886,-204.052 146.255,-209 147.295,-202.077"/>
</g>
<!-- Node8 -->
<g id="node8" class="node"><title>Node8</title>
<g id="a_node8"><a xlink:href="classrc_position_track_impl.html#a59f2db5baf081b265da538f8aba48b99" target="_top" xlink:title="rcPositionTrackImpl\l::setWriterState">
<polygon fill="white" stroke="black" points="192.284,-153 192.284,-185 295.716,-185 295.716,-153 192.284,-153"/>
<text text-anchor="start" x="200.284" y="-171" font-family="Helvetica,sans-Serif" font-size="10.00">rcPositionTrackImpl</text>
<text text-anchor="middle" x="244" y="-159" font-family="Helvetica,sans-Serif" font-size="10.00">::setWriterState</text>
</a>
</g>
</g>
<!-- Node1&#45;&gt;Node8 -->
<g id="edge7" class="edge"><title>Node1&#45;&gt;Node8</title>
<path fill="none" stroke="midnightblue" d="M147.296,-182.83C162.499,-180.633 178.084,-178.381 192.147,-176.349"/>
<polygon fill="midnightblue" stroke="midnightblue" points="146.778,-179.368 137.382,-184.263 147.779,-186.296 146.778,-179.368"/>
</g>
<!-- Node11 -->
<g id="node11" class="node"><title>Node11</title>
<g id="a_node11"><a xlink:href="classrc_scalar_track_impl.html#a094ae2f73ab7fdbf8536e9424a5d0c39" target="_top" xlink:title="rcScalarTrackImpl::\lsetWriterState">
<polygon fill="white" stroke="black" points="193.122,-51 193.122,-83 294.878,-83 294.878,-51 193.122,-51"/>
<text text-anchor="start" x="201.122" y="-69" font-family="Helvetica,sans-Serif" font-size="10.00">rcScalarTrackImpl::</text>
<text text-anchor="middle" x="244" y="-57" font-family="Helvetica,sans-Serif" font-size="10.00">setWriterState</text>
</a>
</g>
</g>
<!-- Node1&#45;&gt;Node11 -->
<g id="edge10" class="edge"><title>Node1&#45;&gt;Node11</title>
<path fill="none" stroke="midnightblue" d="M92.0324,-177.826C125.28,-153.419 187.907,-107.444 221.085,-83.0877"/>
<polygon fill="midnightblue" stroke="midnightblue" points="89.8548,-175.083 83.8649,-183.822 93.9972,-180.725 89.8548,-175.083"/>
</g>
<!-- Node3 -->
<g id="node3" class="node"><title>Node3</title>
<g id="a_node3"><a xlink:href="classrc_video_track_impl.html#aefd0892a903fe03ede23853655e36bb0" target="_top" xlink:title="rcVideoTrackImpl::writeValue">
<polygon fill="white" stroke="black" points="350.618,-345 350.618,-365 495.382,-365 495.382,-345 350.618,-345"/>
<text text-anchor="middle" x="423" y="-351" font-family="Helvetica,sans-Serif" font-size="10.00">rcVideoTrackImpl::writeValue</text>
</a>
</g>
</g>
<!-- Node2&#45;&gt;Node3 -->
<g id="edge2" class="edge"><title>Node2&#45;&gt;Node3</title>
<path fill="none" stroke="midnightblue" d="M323.426,-333.28C341.556,-337.275 360.256,-341.395 376.432,-344.96"/>
<polygon fill="midnightblue" stroke="midnightblue" points="323.952,-329.812 313.433,-331.078 322.445,-336.648 323.952,-329.812"/>
</g>
<!-- Node4 -->
<g id="node4" class="node"><title>Node4</title>
<g id="a_node4"><a xlink:href="classrc_video_track_impl.html#a3c77cf3e548499bf555bcf1fc9ee24f2" target="_top" xlink:title="rcVideoTrackImpl::flush">
<polygon fill="white" stroke="black" points="363.032,-306 363.032,-326 482.968,-326 482.968,-306 363.032,-306"/>
<text text-anchor="middle" x="423" y="-312" font-family="Helvetica,sans-Serif" font-size="10.00">rcVideoTrackImpl::flush</text>
</a>
</g>
</g>
<!-- Node2&#45;&gt;Node4 -->
<g id="edge3" class="edge"><title>Node2&#45;&gt;Node4</title>
<path fill="none" stroke="midnightblue" d="M323.491,-316C336.748,-316 350.308,-316 362.962,-316"/>
<polygon fill="midnightblue" stroke="midnightblue" points="323.433,-312.5 313.433,-316 323.433,-319.5 323.433,-312.5"/>
</g>
<!-- Node6 -->
<g id="node6" class="node"><title>Node6</title>
<g id="a_node6"><a xlink:href="classrc_graphics_track_impl.html#a6d0d9d386ab05fab37405386e4f33a5b" target="_top" xlink:title="rcGraphicsTrackImpl\l::flush">
<polygon fill="white" stroke="black" points="369.065,-255 369.065,-287 476.935,-287 476.935,-255 369.065,-255"/>
<text text-anchor="start" x="377.065" y="-273" font-family="Helvetica,sans-Serif" font-size="10.00">rcGraphicsTrackImpl</text>
<text text-anchor="middle" x="423" y="-261" font-family="Helvetica,sans-Serif" font-size="10.00">::flush</text>
</a>
</g>
</g>
<!-- Node5&#45;&gt;Node6 -->
<g id="edge5" class="edge"><title>Node5&#45;&gt;Node6</title>
<path fill="none" stroke="midnightblue" d="M307.752,-238.081C327.756,-243.845 349.683,-250.163 368.932,-255.709"/>
<polygon fill="midnightblue" stroke="midnightblue" points="308.684,-234.707 298.106,-235.302 306.746,-241.434 308.684,-234.707"/>
</g>
<!-- Node7 -->
<g id="node7" class="node"><title>Node7</title>
<g id="a_node7"><a xlink:href="classrc_graphics_track_impl.html#aa68257794be9d2c7e4b37df71d8100f8" target="_top" xlink:title="rcGraphicsTrackImpl\l::writeValue">
<polygon fill="white" stroke="black" points="369.065,-204 369.065,-236 476.935,-236 476.935,-204 369.065,-204"/>
<text text-anchor="start" x="377.065" y="-222" font-family="Helvetica,sans-Serif" font-size="10.00">rcGraphicsTrackImpl</text>
<text text-anchor="middle" x="423" y="-210" font-family="Helvetica,sans-Serif" font-size="10.00">::writeValue</text>
</a>
</g>
</g>
<!-- Node5&#45;&gt;Node7 -->
<g id="edge6" class="edge"><title>Node5&#45;&gt;Node7</title>
<path fill="none" stroke="midnightblue" d="M308.298,-220C328.155,-220 349.858,-220 368.932,-220"/>
<polygon fill="midnightblue" stroke="midnightblue" points="308.106,-216.5 298.106,-220 308.106,-223.5 308.106,-216.5"/>
</g>
<!-- Node9 -->
<g id="node9" class="node"><title>Node9</title>
<g id="a_node9"><a xlink:href="classrc_position_track_impl.html#ac27c33ee80032f3dbbc79f86dcb73bcf" target="_top" xlink:title="rcPositionTrackImpl\l::flush">
<polygon fill="white" stroke="black" points="371.284,-153 371.284,-185 474.716,-185 474.716,-153 371.284,-153"/>
<text text-anchor="start" x="379.284" y="-171" font-family="Helvetica,sans-Serif" font-size="10.00">rcPositionTrackImpl</text>
<text text-anchor="middle" x="423" y="-159" font-family="Helvetica,sans-Serif" font-size="10.00">::flush</text>
</a>
</g>
</g>
<!-- Node8&#45;&gt;Node9 -->
<g id="edge8" class="edge"><title>Node8&#45;&gt;Node9</title>
<path fill="none" stroke="midnightblue" d="M305.959,-169C327.25,-169 350.904,-169 371.271,-169"/>
<polygon fill="midnightblue" stroke="midnightblue" points="305.721,-165.5 295.721,-169 305.721,-172.5 305.721,-165.5"/>
</g>
<!-- Node10 -->
<g id="node10" class="node"><title>Node10</title>
<g id="a_node10"><a xlink:href="classrc_position_track_impl.html#a9a662af6ced25641a7aaf8d99fb71239" target="_top" xlink:title="rcPositionTrackImpl\l::writeValue">
<polygon fill="white" stroke="black" points="371.284,-102 371.284,-134 474.716,-134 474.716,-102 371.284,-102"/>
<text text-anchor="start" x="379.284" y="-120" font-family="Helvetica,sans-Serif" font-size="10.00">rcPositionTrackImpl</text>
<text text-anchor="middle" x="423" y="-108" font-family="Helvetica,sans-Serif" font-size="10.00">::writeValue</text>
</a>
</g>
</g>
<!-- Node8&#45;&gt;Node10 -->
<g id="edge9" class="edge"><title>Node8&#45;&gt;Node10</title>
<path fill="none" stroke="midnightblue" d="M305.379,-151.603C326.82,-145.425 350.718,-138.539 371.271,-132.617"/>
<polygon fill="midnightblue" stroke="midnightblue" points="304.361,-148.253 295.721,-154.385 306.299,-154.98 304.361,-148.253"/>
</g>
<!-- Node12 -->
<g id="node12" class="node"><title>Node12</title>
<g id="a_node12"><a xlink:href="classrc_scalar_track_impl.html#afbf80019aa49e8212d47a308419706f9" target="_top" xlink:title="rcScalarTrackImpl::\lflush">
<polygon fill="white" stroke="black" points="372.122,-51 372.122,-83 473.878,-83 473.878,-51 372.122,-51"/>
<text text-anchor="start" x="380.122" y="-69" font-family="Helvetica,sans-Serif" font-size="10.00">rcScalarTrackImpl::</text>
<text text-anchor="middle" x="423" y="-57" font-family="Helvetica,sans-Serif" font-size="10.00">flush</text>
</a>
</g>
</g>
<!-- Node11&#45;&gt;Node12 -->
<g id="edge11" class="edge"><title>Node11&#45;&gt;Node12</title>
<path fill="none" stroke="midnightblue" d="M305.336,-67C327.019,-67 351.219,-67 371.933,-67"/>
<polygon fill="midnightblue" stroke="midnightblue" points="305.248,-63.5001 295.248,-67 305.248,-70.5001 305.248,-63.5001"/>
</g>
<!-- Node13 -->
<g id="node13" class="node"><title>Node13</title>
<g id="a_node13"><a xlink:href="classrc_scalar_track_impl.html#aed8c1089d8b0d57222a232eec0bd50bc" target="_top" xlink:title="rcScalarTrackImpl::\lwriteValue">
<polygon fill="white" stroke="black" points="372.122,-0 372.122,-32 473.878,-32 473.878,-0 372.122,-0"/>
<text text-anchor="start" x="380.122" y="-18" font-family="Helvetica,sans-Serif" font-size="10.00">rcScalarTrackImpl::</text>
<text text-anchor="middle" x="423" y="-6" font-family="Helvetica,sans-Serif" font-size="10.00">writeValue</text>
</a>
</g>
</g>
<!-- Node11&#45;&gt;Node13 -->
<g id="edge12" class="edge"><title>Node11&#45;&gt;Node13</title>
<path fill="none" stroke="midnightblue" d="M305.042,-49.6998C326.799,-43.4307 351.125,-36.4215 371.933,-30.426"/>
<polygon fill="midnightblue" stroke="midnightblue" points="303.888,-46.3899 295.248,-52.5219 305.826,-53.1163 303.888,-46.3899"/>
</g>
</g>
</svg>
