<?xml version="1.0" encoding="UTF-8" standalone="no"?>
<!DOCTYPE svg PUBLIC "-//W3C//DTD SVG 1.1//EN"
 "http://www.w3.org/Graphics/SVG/1.1/DTD/svg11.dtd">
<!-- Generated by graphviz version 2.32.0 (20130916.1925)
 -->
<!-- Title: arg_vector::size Pages: 1 -->
<svg width="568pt" height="265pt"
 viewBox="0.00 0.00 568.00 264.54" xmlns="http://www.w3.org/2000/svg" xmlns:xlink="http://www.w3.org/1999/xlink">
<g id="graph0" class="graph" transform="scale(1 1) rotate(0) translate(4 260.535)">
<title>arg_vector::size</title>
<polygon fill="white" stroke="white" points="-4,5 -4,-260.535 565,-260.535 565,5 -4,5"/>
<!-- Node1 -->
<g id="node1" class="node"><title>Node1</title>
<polygon fill="#bfbfbf" stroke="black" points="0.707031,-119.535 0.707031,-139.535 87.293,-139.535 87.293,-119.535 0.707031,-119.535"/>
<text text-anchor="middle" x="44" y="-125.535" font-family="Helvetica,sans-Serif" font-size="10.00">arg_vector::size</text>
</g>
<!-- Node2 -->
<g id="node2" class="node"><title>Node2</title>
<g id="a_node2"><a xlink:href="classarg__vector.html#a1c8eab2b0946bac7a36b03a20484bd79" target="_top" xlink:title="arg_vector::clear">
<polygon fill="white" stroke="black" points="134.761,-236.535 134.761,-256.535 225.239,-256.535 225.239,-236.535 134.761,-236.535"/>
<text text-anchor="middle" x="180" y="-242.535" font-family="Helvetica,sans-Serif" font-size="10.00">arg_vector::clear</text>
</a>
</g>
</g>
<!-- Node1&#45;&gt;Node2 -->
<g id="edge1" class="edge"><title>Node1&#45;&gt;Node2</title>
<path fill="none" stroke="midnightblue" d="M55.8075,-148.163C69.2409,-169.809 94.0866,-205.268 124,-226.535 129.631,-230.538 136.151,-233.826 142.691,-236.496"/>
<polygon fill="midnightblue" stroke="midnightblue" points="58.7756,-146.307 50.6141,-139.552 52.7813,-149.923 58.7756,-146.307"/>
</g>
<!-- Node3 -->
<g id="node3" class="node"><title>Node3</title>
<g id="a_node3"><a xlink:href="classarg__vector.html#a9bd329d29f80a4a60bb31de0c4885b9d" target="_top" xlink:title="arg_vector::image">
<polygon fill="white" stroke="black" points="131.98,-197.535 131.98,-217.535 228.02,-217.535 228.02,-197.535 131.98,-197.535"/>
<text text-anchor="middle" x="180" y="-203.535" font-family="Helvetica,sans-Serif" font-size="10.00">arg_vector::image</text>
</a>
</g>
</g>
<!-- Node1&#45;&gt;Node3 -->
<g id="edge2" class="edge"><title>Node1&#45;&gt;Node3</title>
<path fill="none" stroke="midnightblue" d="M66.9357,-145.676C82.4559,-156.738 103.984,-171.371 124,-182.535 133.71,-187.951 144.808,-193.168 154.481,-197.422"/>
<polygon fill="midnightblue" stroke="midnightblue" points="68.7073,-142.639 58.5488,-139.629 64.6134,-148.317 68.7073,-142.639"/>
</g>
<!-- Node5 -->
<g id="node5" class="node"><title>Node5</title>
<g id="a_node5"><a xlink:href="classarg__vector.html#ad6dd90833ec2bff880b383ae6559e102" target="_top" xlink:title="arg_vector::insert">
<polygon fill="white" stroke="black" points="133.372,-119.535 133.372,-139.535 226.628,-139.535 226.628,-119.535 133.372,-119.535"/>
<text text-anchor="middle" x="180" y="-125.535" font-family="Helvetica,sans-Serif" font-size="10.00">arg_vector::insert</text>
</a>
</g>
</g>
<!-- Node1&#45;&gt;Node5 -->
<g id="edge4" class="edge"><title>Node1&#45;&gt;Node5</title>
<path fill="none" stroke="midnightblue" d="M97.539,-129.535C109.305,-129.535 121.697,-129.535 133.166,-129.535"/>
<polygon fill="midnightblue" stroke="midnightblue" points="97.3985,-126.035 87.3984,-129.535 97.3984,-133.035 97.3985,-126.035"/>
</g>
<!-- Node6 -->
<g id="node6" class="node"><title>Node6</title>
<g id="a_node6"><a xlink:href="classarg__vector.html#a1686979bd261f0e351fb76307e3bc1db" target="_top" xlink:title="arg_vector::operator+=">
<polygon fill="white" stroke="black" points="272.136,-158.535 272.136,-178.535 389.864,-178.535 389.864,-158.535 272.136,-158.535"/>
<text text-anchor="middle" x="331" y="-164.535" font-family="Helvetica,sans-Serif" font-size="10.00">arg_vector::operator+=</text>
</a>
</g>
</g>
<!-- Node1&#45;&gt;Node6 -->
<g id="edge8" class="edge"><title>Node1&#45;&gt;Node6</title>
<path fill="none" stroke="midnightblue" d="M91.9742,-141.968C102.459,-144.425 113.563,-146.782 124,-148.535 173.61,-156.867 230.568,-162.068 272,-165.07"/>
<polygon fill="midnightblue" stroke="midnightblue" points="92.6962,-138.542 82.1542,-139.598 91.0541,-145.346 92.6962,-138.542"/>
</g>
<!-- Node9 -->
<g id="node9" class="node"><title>Node9</title>
<g id="a_node9"><a xlink:href="classarg__vector.html#a68a532e11569f6d97563f01ae9dde8cb" target="_top" xlink:title="arg_vector::operator[]">
<polygon fill="white" stroke="black" points="124.197,-41.5351 124.197,-61.5351 235.803,-61.5351 235.803,-41.5351 124.197,-41.5351"/>
<text text-anchor="middle" x="180" y="-47.5351" font-family="Helvetica,sans-Serif" font-size="10.00">arg_vector::operator[]</text>
</a>
</g>
</g>
<!-- Node1&#45;&gt;Node9 -->
<g id="edge9" class="edge"><title>Node1&#45;&gt;Node9</title>
<path fill="none" stroke="midnightblue" d="M66.9357,-113.394C82.4559,-102.332 103.984,-87.6987 124,-76.5351 133.71,-71.1194 144.808,-65.9024 154.481,-61.648"/>
<polygon fill="midnightblue" stroke="midnightblue" points="64.6134,-110.753 58.5488,-119.441 68.7073,-116.432 64.6134,-110.753"/>
</g>
<!-- Node11 -->
<g id="node11" class="node"><title>Node11</title>
<g id="a_node11"><a xlink:href="classsubprocess.html#aca31f4a811773426d2feaa9a7ff5ca55" target="_top" xlink:title="subprocess::spawn">
<polygon fill="white" stroke="black" points="442.2,-60.5351 442.2,-80.5351 543.8,-80.5351 543.8,-60.5351 442.2,-60.5351"/>
<text text-anchor="middle" x="493" y="-66.5351" font-family="Helvetica,sans-Serif" font-size="10.00">subprocess::spawn</text>
</a>
</g>
</g>
<!-- Node1&#45;&gt;Node11 -->
<g id="edge13" class="edge"><title>Node1&#45;&gt;Node11</title>
<path fill="none" stroke="midnightblue" d="M90.0342,-116.957C101.076,-114.2 112.91,-111.516 124,-109.535 236.735,-89.3967 370.891,-78.3947 441.981,-73.5694"/>
<polygon fill="midnightblue" stroke="midnightblue" points="88.9755,-113.615 80.16,-119.492 90.7163,-120.395 88.9755,-113.615"/>
</g>
<!-- Node12 -->
<g id="node12" class="node"><title>Node12</title>
<g id="a_node12"><a xlink:href="classasync__subprocess.html#a6c91f79df47065d74d2d5c59e7352a72" target="_top" xlink:title="async_subprocess::spawn">
<polygon fill="white" stroke="black" points="426.357,-21.5351 426.357,-41.5351 559.643,-41.5351 559.643,-21.5351 426.357,-21.5351"/>
<text text-anchor="middle" x="493" y="-27.5351" font-family="Helvetica,sans-Serif" font-size="10.00">async_subprocess::spawn</text>
</a>
</g>
</g>
<!-- Node1&#45;&gt;Node12 -->
<g id="edge14" class="edge"><title>Node1&#45;&gt;Node12</title>
<path fill="none" stroke="midnightblue" d="M53.9036,-110.199C65.981,-86.5867 90.0174,-47.7902 124,-31.5351 234.37,21.2591 385.54,-4.93178 454.708,-21.4809"/>
<polygon fill="midnightblue" stroke="midnightblue" points="50.7125,-108.757 49.4657,-119.279 57.0015,-111.831 50.7125,-108.757"/>
</g>
<!-- Node4 -->
<g id="node4" class="node"><title>Node4</title>
<g id="a_node4"><a xlink:href="subprocesses_8hpp.html#a75122cf48ec0dc2fc7c2b77481ff3e9c" target="_top" xlink:title="operator\&lt;\&lt;">
<polygon fill="white" stroke="black" points="298.537,-197.535 298.537,-217.535 363.463,-217.535 363.463,-197.535 298.537,-197.535"/>
<text text-anchor="middle" x="331" y="-203.535" font-family="Helvetica,sans-Serif" font-size="10.00">operator&lt;&lt;</text>
</a>
</g>
</g>
<!-- Node3&#45;&gt;Node4 -->
<g id="edge3" class="edge"><title>Node3&#45;&gt;Node4</title>
<path fill="none" stroke="midnightblue" d="M238.27,-207.535C258.616,-207.535 280.777,-207.535 298.219,-207.535"/>
<polygon fill="midnightblue" stroke="midnightblue" points="238.145,-204.035 228.145,-207.535 238.144,-211.035 238.145,-204.035"/>
</g>
<!-- Node5&#45;&gt;Node6 -->
<g id="edge5" class="edge"><title>Node5&#45;&gt;Node6</title>
<path fill="none" stroke="midnightblue" d="M229.061,-142.115C249.357,-147.427 272.66,-153.527 291.759,-158.526"/>
<polygon fill="midnightblue" stroke="midnightblue" points="229.932,-138.725 219.371,-139.579 228.159,-145.497 229.932,-138.725"/>
</g>
<!-- Node8 -->
<g id="node8" class="node"><title>Node8</title>
<g id="a_node8"><a xlink:href="classarg__vector.html#a8bc26274e1b5c2652bce0922c47b92e9" target="_top" xlink:title="arg_vector::operator&#45;=">
<polygon fill="white" stroke="black" points="273.391,-119.535 273.391,-139.535 388.609,-139.535 388.609,-119.535 273.391,-119.535"/>
<text text-anchor="middle" x="331" y="-125.535" font-family="Helvetica,sans-Serif" font-size="10.00">arg_vector::operator&#45;=</text>
</a>
</g>
</g>
<!-- Node5&#45;&gt;Node8 -->
<g id="edge7" class="edge"><title>Node5&#45;&gt;Node8</title>
<path fill="none" stroke="midnightblue" d="M237.093,-129.535C248.898,-129.535 261.361,-129.535 273.192,-129.535"/>
<polygon fill="midnightblue" stroke="midnightblue" points="236.921,-126.035 226.921,-129.535 236.921,-133.035 236.921,-126.035"/>
</g>
<!-- Node7 -->
<g id="node7" class="node"><title>Node7</title>
<g id="a_node7"><a xlink:href="classarg__vector.html#ace110230aa95290f38012b20f6e3e8d2" target="_top" xlink:title="arg_vector::operator=">
<polygon fill="white" stroke="black" points="437.056,-158.535 437.056,-178.535 548.944,-178.535 548.944,-158.535 437.056,-158.535"/>
<text text-anchor="middle" x="493" y="-164.535" font-family="Helvetica,sans-Serif" font-size="10.00">arg_vector::operator=</text>
</a>
</g>
</g>
<!-- Node6&#45;&gt;Node7 -->
<g id="edge6" class="edge"><title>Node6&#45;&gt;Node7</title>
<path fill="none" stroke="midnightblue" d="M400.382,-168.535C412.619,-168.535 425.226,-168.535 437.025,-168.535"/>
<polygon fill="midnightblue" stroke="midnightblue" points="400.216,-165.035 390.216,-168.535 400.216,-172.035 400.216,-165.035"/>
</g>
<!-- Node10 -->
<g id="node10" class="node"><title>Node10</title>
<g id="a_node10"><a xlink:href="classarg__vector.html#ad845fc2f5bcc12e4fc8d3606f17c0195" target="_top" xlink:title="arg_vector::argv0">
<polygon fill="white" stroke="black" points="284.091,-41.5351 284.091,-61.5351 377.909,-61.5351 377.909,-41.5351 284.091,-41.5351"/>
<text text-anchor="middle" x="331" y="-47.5351" font-family="Helvetica,sans-Serif" font-size="10.00">arg_vector::argv0</text>
</a>
</g>
</g>
<!-- Node9&#45;&gt;Node10 -->
<g id="edge10" class="edge"><title>Node9&#45;&gt;Node10</title>
<path fill="none" stroke="midnightblue" d="M246.163,-51.5351C258.898,-51.5351 272.003,-51.5351 283.957,-51.5351"/>
<polygon fill="midnightblue" stroke="midnightblue" points="246.059,-48.0352 236.059,-51.5351 246.059,-55.0352 246.059,-48.0352"/>
</g>
<!-- Node10&#45;&gt;Node11 -->
<g id="edge11" class="edge"><title>Node10&#45;&gt;Node11</title>
<path fill="none" stroke="midnightblue" d="M388.386,-58.2309C405.928,-60.314 425.133,-62.5946 442.192,-64.6204"/>
<polygon fill="midnightblue" stroke="midnightblue" points="388.622,-54.7344 378.279,-57.0307 387.796,-61.6855 388.622,-54.7344"/>
</g>
<!-- Node10&#45;&gt;Node12 -->
<g id="edge12" class="edge"><title>Node10&#45;&gt;Node12</title>
<path fill="none" stroke="midnightblue" d="M388.338,-44.4928C400.575,-42.9632 413.624,-41.3321 426.19,-39.7614"/>
<polygon fill="midnightblue" stroke="midnightblue" points="387.767,-41.0368 378.279,-45.7502 388.636,-47.9828 387.767,-41.0368"/>
</g>
</g>
</svg>
