<?xml version="1.0" encoding="UTF-8" standalone="no"?>
<!DOCTYPE svg PUBLIC "-//W3C//DTD SVG 1.1//EN"
 "http://www.w3.org/Graphics/SVG/1.1/DTD/svg11.dtd">
<!-- Generated by graphviz version 2.32.0 (20130916.1925)
 -->
<!-- Title: rcVideoCache::getFatalError Pages: 1 -->
<!--zoomable 259 -->
<svg id="main" version="1.1" xmlns="http://www.w3.org/2000/svg" xmlns:xlink="http://www.w3.org/1999/xlink" xml:space="preserve" onload="init(evt)">
        <defs>
                <circle id="rim" cx="0" cy="0" r="7"/>
                <circle id="rim2" cx="0" cy="0" r="3.5"/>
                <g id="zoomPlus">
                        <use xlink:href="#rim" fill="#404040">
                                <set attributeName="fill" to="#808080" begin="zoomplus.mouseover" end="zoomplus.mouseout"/>
                        </use>
                        <path d="M-4,0h8M0,-4v8" fill="none" stroke="white" stroke-width="1.5" pointer-events="none"/>
                </g>
                <g id="zoomMin">
                        <use xlink:href="#rim" fill="#404040">
                                <set attributeName="fill" to="#808080" begin="zoomminus.mouseover" end="zoomminus.mouseout"/>
                        </use>
                        <path d="M-4,0h8" fill="none" stroke="white" stroke-width="1.5" pointer-events="none"/>
                </g>
                <g id="dirArrow">
                        <path fill="none" stroke="white" stroke-width="1.5" d="M0,-3.0v7 M-2.5,-0.5L0,-3.0L2.5,-0.5"/>
                </g>
               <g id="resetDef">
                       <use xlink:href="#rim2" fill="#404040">
                               <set attributeName="fill" to="#808080" begin="reset.mouseover" end="reset.mouseout"/>
                       </use>
               </g>
        </defs>

<script type="text/javascript">
var viewWidth = 546;
var viewHeight = 259;
var sectionId = 'dynsection-41';
</script>
<script xlink:href="svgpan.js"/>
<svg id="graph" class="graph">
<g id="viewport">
<title>rcVideoCache::getFatalError</title>
<polygon fill="white" stroke="white" points="-4,5 -4,-255 543,-255 543,5 -4,5"/>
<!-- Node1 -->
<g id="node1" class="node"><title>Node1</title>
<polygon fill="#bfbfbf" stroke="black" points="0.726074,-121 0.726074,-141 143.274,-141 143.274,-121 0.726074,-121"/>
<text text-anchor="middle" x="72" y="-127" font-family="Helvetica,sans-Serif" font-size="10.00">rcVideoCache::getFatalError</text>
</g>
<!-- Node2 -->
<g id="node2" class="node"><title>Node2</title>
<g id="a_node2"><a xlink:href="classrc_movie_converter_to_q_t.html#a36c6fbe2132af1466f147840958563d3" target="_top" xlink:title="rcMovieConverterToQT\l::convert">
<polygon fill="white" stroke="black" points="180.32,-90 180.32,-122 299.68,-122 299.68,-90 180.32,-90"/>
<text text-anchor="start" x="188.32" y="-108" font-family="Helvetica,sans-Serif" font-size="10.00">rcMovieConverterToQT</text>
<text text-anchor="middle" x="240" y="-96" font-family="Helvetica,sans-Serif" font-size="10.00">::convert</text>
</a>
</g>
</g>
<!-- Node1&#45;&gt;Node2 -->
<g id="edge1" class="edge"><title>Node1&#45;&gt;Node2</title>
<path fill="none" stroke="midnightblue" d="M149.731,-119.444C159.966,-117.903 170.328,-116.342 180.192,-114.857"/>
<polygon fill="midnightblue" stroke="midnightblue" points="148.929,-116.025 139.562,-120.976 149.972,-122.947 148.929,-116.025"/>
</g>
<!-- Node6 -->
<g id="node6" class="node"><title>Node6</title>
<g id="a_node6"><a xlink:href="classrc_movie_converter_to_rfy.html#af3af0dd934f527a9c08669e49f7f2304" target="_top" xlink:title="rcMovieConverterToRfy\l::convert">
<polygon fill="white" stroke="black" points="179.764,-141 179.764,-173 300.236,-173 300.236,-141 179.764,-141"/>
<text text-anchor="start" x="187.764" y="-159" font-family="Helvetica,sans-Serif" font-size="10.00">rcMovieConverterToRfy</text>
<text text-anchor="middle" x="240" y="-147" font-family="Helvetica,sans-Serif" font-size="10.00">::convert</text>
</a>
</g>
</g>
<!-- Node1&#45;&gt;Node6 -->
<g id="edge5" class="edge"><title>Node1&#45;&gt;Node6</title>
<path fill="none" stroke="midnightblue" d="M147.097,-142.605C157.982,-144.31 169.073,-146.048 179.611,-147.698"/>
<polygon fill="midnightblue" stroke="midnightblue" points="147.601,-139.142 137.18,-141.052 146.518,-146.058 147.601,-139.142"/>
</g>
<!-- Node8 -->
<g id="node8" class="node"><title>Node8</title>
<g id="a_node8"><a xlink:href="batch__main_8cpp.html#a3c04138a5bfe5d72780bb7e82a18e627" target="_top" xlink:title="main">
<polygon fill="white" stroke="black" points="221.163,-51 221.163,-71 258.837,-71 258.837,-51 221.163,-51"/>
<text text-anchor="middle" x="240" y="-57" font-family="Helvetica,sans-Serif" font-size="10.00">main</text>
</a>
</g>
</g>
<!-- Node1&#45;&gt;Node8 -->
<g id="edge10" class="edge"><title>Node1&#45;&gt;Node8</title>
<path fill="none" stroke="midnightblue" d="M101.977,-116.398C123.289,-105.921 153.105,-91.8039 180,-81 193.549,-75.5573 209.215,-70.2931 220.998,-66.5328"/>
<polygon fill="midnightblue" stroke="midnightblue" points="100.233,-113.356 92.8247,-120.931 103.339,-119.629 100.233,-113.356"/>
</g>
<!-- Node9 -->
<g id="node9" class="node"><title>Node9</title>
<g id="a_node9"><a xlink:href="classrc_reify_movie_grabber.html#a5f27275d82ceba254375c86af83522a5" target="_top" xlink:title="rcReifyMovieGrabber\l::rcReifyMovieGrabber">
<polygon fill="white" stroke="black" points="181.985,-0 181.985,-32 298.015,-32 298.015,-0 181.985,-0"/>
<text text-anchor="start" x="189.985" y="-18" font-family="Helvetica,sans-Serif" font-size="10.00">rcReifyMovieGrabber</text>
<text text-anchor="middle" x="240" y="-6" font-family="Helvetica,sans-Serif" font-size="10.00">::rcReifyMovieGrabber</text>
</a>
</g>
</g>
<!-- Node1&#45;&gt;Node9 -->
<g id="edge11" class="edge"><title>Node1&#45;&gt;Node9</title>
<path fill="none" stroke="midnightblue" d="M90.4202,-113.86C110.675,-94.5895 145.724,-63.225 180,-42 185.805,-38.4052 192.194,-35.0473 198.558,-32.0176"/>
<polygon fill="midnightblue" stroke="midnightblue" points="87.9456,-111.384 83.1728,-120.843 92.8025,-116.425 87.9456,-111.384"/>
</g>
<!-- Node10 -->
<g id="node10" class="node"><title>Node10</title>
<g id="a_node10"><a xlink:href="bcnvrt__main_8cpp.html#a6e8fab40e4cd89f05d7bafbc7c22dedc" target="_top" xlink:title="rfCompareMovies">
<polygon fill="white" stroke="black" points="352.544,-231 352.544,-251 447.456,-251 447.456,-231 352.544,-231"/>
<text text-anchor="middle" x="400" y="-237" font-family="Helvetica,sans-Serif" font-size="10.00">rfCompareMovies</text>
</a>
</g>
</g>
<!-- Node1&#45;&gt;Node10 -->
<g id="edge12" class="edge"><title>Node1&#45;&gt;Node10</title>
<path fill="none" stroke="midnightblue" d="M91.6822,-147.821C111.925,-165.059 145.918,-191.229 180,-205 236.624,-227.879 307.082,-236.227 352.538,-239.268"/>
<polygon fill="midnightblue" stroke="midnightblue" points="93.7309,-144.964 83.8886,-141.043 89.137,-150.246 93.7309,-144.964"/>
</g>
<!-- Node11 -->
<g id="node11" class="node"><title>Node11</title>
<g id="a_node11"><a xlink:href="bcnvrt__main_8cpp.html#a00a4dac924291e9ba2f484741e4abc19" target="_top" xlink:title="rfCompareReifyMovies">
<polygon fill="white" stroke="black" points="341.153,-192 341.153,-212 458.847,-212 458.847,-192 341.153,-192"/>
<text text-anchor="middle" x="400" y="-198" font-family="Helvetica,sans-Serif" font-size="10.00">rfCompareReifyMovies</text>
</a>
</g>
</g>
<!-- Node1&#45;&gt;Node11 -->
<g id="edge14" class="edge"><title>Node1&#45;&gt;Node11</title>
<path fill="none" stroke="midnightblue" d="M98.2581,-146.197C119.335,-158.09 150.573,-173.921 180,-182 233.2,-196.605 296.118,-201.094 340.832,-202.235"/>
<polygon fill="midnightblue" stroke="midnightblue" points="99.7438,-143.014 89.3321,-141.053 96.2482,-149.079 99.7438,-143.014"/>
</g>
<!-- Node3 -->
<g id="node3" class="node"><title>Node3</title>
<g id="a_node3"><a xlink:href="classrc_experiment_impl.html#ac08b9d15f5bb7db0b85a6d67406f95fa" target="_top" xlink:title="rcExperimentImpl::export\lMovie">
<polygon fill="white" stroke="black" points="336.426,-102 336.426,-134 463.574,-134 463.574,-102 336.426,-102"/>
<text text-anchor="start" x="344.426" y="-120" font-family="Helvetica,sans-Serif" font-size="10.00">rcExperimentImpl::export</text>
<text text-anchor="middle" x="400" y="-108" font-family="Helvetica,sans-Serif" font-size="10.00">Movie</text>
</a>
</g>
</g>
<!-- Node2&#45;&gt;Node3 -->
<g id="edge2" class="edge"><title>Node2&#45;&gt;Node3</title>
<path fill="none" stroke="midnightblue" d="M310.031,-111.243C318.805,-111.909 327.747,-112.588 336.412,-113.247"/>
<polygon fill="midnightblue" stroke="midnightblue" points="310.07,-107.736 299.833,-110.468 309.54,-114.716 310.07,-107.736"/>
</g>
<!-- Node4 -->
<g id="node4" class="node"><title>Node4</title>
<g id="a_node4"><a xlink:href="bcnvrt__main_8cpp.html#accc22075ea7eb720aed5cad6e10344b9" target="_top" xlink:title="rfConvertMovie">
<polygon fill="white" stroke="black" points="358.101,-63 358.101,-83 441.899,-83 441.899,-63 358.101,-63"/>
<text text-anchor="middle" x="400" y="-69" font-family="Helvetica,sans-Serif" font-size="10.00">rfConvertMovie</text>
</a>
</g>
</g>
<!-- Node2&#45;&gt;Node4 -->
<g id="edge3" class="edge"><title>Node2&#45;&gt;Node4</title>
<path fill="none" stroke="midnightblue" d="M309.913,-91.6068C326.264,-88.1916 343.202,-84.6541 357.861,-81.5923"/>
<polygon fill="midnightblue" stroke="midnightblue" points="308.907,-88.2414 299.833,-93.712 310.338,-95.0935 308.907,-88.2414"/>
</g>
<!-- Node5 -->
<g id="node5" class="node"><title>Node5</title>
<g id="a_node5"><a xlink:href="bcnvrt__main_8cpp.html#a3c04138a5bfe5d72780bb7e82a18e627" target="_top" xlink:title="main">
<polygon fill="white" stroke="black" points="500.163,-172 500.163,-192 537.837,-192 537.837,-172 500.163,-172"/>
<text text-anchor="middle" x="519" y="-178" font-family="Helvetica,sans-Serif" font-size="10.00">main</text>
</a>
</g>
</g>
<!-- Node4&#45;&gt;Node5 -->
<g id="edge4" class="edge"><title>Node4&#45;&gt;Node5</title>
<path fill="none" stroke="midnightblue" d="M451.478,-85.2916C455.939,-87.4616 460.197,-90.0095 464,-93 491.134,-114.339 507.838,-153.379 514.572,-171.828"/>
<polygon fill="midnightblue" stroke="midnightblue" points="452.691,-82.0049 442.117,-81.3473 449.973,-88.4557 452.691,-82.0049"/>
</g>
<!-- Node6&#45;&gt;Node3 -->
<g id="edge6" class="edge"><title>Node6&#45;&gt;Node3</title>
<path fill="none" stroke="midnightblue" d="M310.024,-139.962C318.734,-137.812 327.609,-135.622 336.216,-133.497"/>
<polygon fill="midnightblue" stroke="midnightblue" points="309.153,-136.572 300.283,-142.367 310.83,-143.368 309.153,-136.572"/>
</g>
<!-- Node6&#45;&gt;Node4 -->
<g id="edge7" class="edge"><title>Node6&#45;&gt;Node4</title>
<path fill="none" stroke="midnightblue" d="M292.057,-136.092C294.806,-134.478 297.474,-132.78 300,-131 319.019,-117.601 316.288,-105.356 336,-93 342.709,-88.7947 350.378,-85.4033 358.003,-82.6927"/>
<polygon fill="midnightblue" stroke="midnightblue" points="290.201,-133.117 283.072,-140.954 293.533,-139.273 290.201,-133.117"/>
</g>
<!-- Node7 -->
<g id="node7" class="node"><title>Node7</title>
<g id="a_node7"><a xlink:href="bcnvrt__main_8cpp.html#add0a6eef95e64e05a21758380072e136" target="_top" xlink:title="rfConvertTwoMovies">
<polygon fill="white" stroke="black" points="346.429,-153 346.429,-173 453.571,-173 453.571,-153 346.429,-153"/>
<text text-anchor="middle" x="400" y="-159" font-family="Helvetica,sans-Serif" font-size="10.00">rfConvertTwoMovies</text>
</a>
</g>
</g>
<!-- Node6&#45;&gt;Node7 -->
<g id="edge8" class="edge"><title>Node6&#45;&gt;Node7</title>
<path fill="none" stroke="midnightblue" d="M310.347,-159.633C322.445,-160.093 334.848,-160.564 346.401,-161.003"/>
<polygon fill="midnightblue" stroke="midnightblue" points="310.409,-156.133 300.283,-159.251 310.143,-163.128 310.409,-156.133"/>
</g>
<!-- Node7&#45;&gt;Node5 -->
<g id="edge9" class="edge"><title>Node7&#45;&gt;Node5</title>
<path fill="none" stroke="midnightblue" d="M463.841,-173.205C477.111,-175.36 490.081,-177.466 500,-179.077"/>
<polygon fill="midnightblue" stroke="midnightblue" points="464.113,-169.703 453.681,-171.555 462.991,-176.613 464.113,-169.703"/>
</g>
<!-- Node10&#45;&gt;Node5 -->
<g id="edge13" class="edge"><title>Node10&#45;&gt;Node5</title>
<path fill="none" stroke="midnightblue" d="M449.21,-227.46C454.296,-225.512 459.316,-223.359 464,-221 479.7,-213.095 495.793,-200.828 506.278,-192.166"/>
<polygon fill="midnightblue" stroke="midnightblue" points="447.663,-224.295 439.418,-230.948 450.013,-230.889 447.663,-224.295"/>
</g>
<!-- Node11&#45;&gt;Node5 -->
<g id="edge15" class="edge"><title>Node11&#45;&gt;Node5</title>
<path fill="none" stroke="midnightblue" d="M469.252,-190.333C480.641,-188.386 491.523,-186.526 500.105,-185.059"/>
<polygon fill="midnightblue" stroke="midnightblue" points="468.424,-186.924 459.157,-192.059 469.604,-193.824 468.424,-186.924"/>
</g>
</g>
</svg>
        <g id="navigator" transform="translate(0 0)" fill="#404254">
                <rect fill="#f2f5e9" fill-opacity="0.5" stroke="#606060" stroke-width=".5" x="0" y="0" width="60" height="60"/>
                <use id="zoomplus" xlink:href="#zoomPlus" x="17" y="9" onmousedown="handleZoom(evt,'in')"/>
                <use id="zoomminus" xlink:href="#zoomMin" x="42" y="9" onmousedown="handleZoom(evt,'out')"/>
                <use id="reset" xlink:href="#resetDef" x="30" y="36" onmousedown="handleReset()"/>
                <g id="arrowUp" xlink:href="#dirArrow" transform="translate(30 24)" onmousedown="handlePan(0,-1)">
                  <use xlink:href="#rim" fill="#404040">
                        <set attributeName="fill" to="#808080" begin="arrowUp.mouseover" end="arrowUp.mouseout"/>
                  </use>
                  <path fill="none" stroke="white" stroke-width="1.5" d="M0,-3.0v7 M-2.5,-0.5L0,-3.0L2.5,-0.5"/>
                </g>
                <g id="arrowRight" xlink:href="#dirArrow" transform="rotate(90) translate(36 -43)" onmousedown="handlePan(1,0)">
                  <use xlink:href="#rim" fill="#404040">
                        <set attributeName="fill" to="#808080" begin="arrowRight.mouseover" end="arrowRight.mouseout"/>
                  </use>
                  <path fill="none" stroke="white" stroke-width="1.5" d="M0,-3.0v7 M-2.5,-0.5L0,-3.0L2.5,-0.5"/>
                </g>
                <g id="arrowDown" xlink:href="#dirArrow" transform="rotate(180) translate(-30 -48)" onmousedown="handlePan(0,1)">
                  <use xlink:href="#rim" fill="#404040">
                        <set attributeName="fill" to="#808080" begin="arrowDown.mouseover" end="arrowDown.mouseout"/>
                  </use>
                  <path fill="none" stroke="white" stroke-width="1.5" d="M0,-3.0v7 M-2.5,-0.5L0,-3.0L2.5,-0.5"/>
                </g>
                <g id="arrowLeft" xlink:href="#dirArrow" transform="rotate(270) translate(-36 17)" onmousedown="handlePan(-1,0)">
                  <use xlink:href="#rim" fill="#404040">
                        <set attributeName="fill" to="#808080" begin="arrowLeft.mouseover" end="arrowLeft.mouseout"/>
                  </use>
                  <path fill="none" stroke="white" stroke-width="1.5" d="M0,-3.0v7 M-2.5,-0.5L0,-3.0L2.5,-0.5"/>
                </g>
        </g>
        <svg viewBox="0 0 15 15" width="100%" height="30px" preserveAspectRatio="xMaxYMin meet">
         <g id="arrow_out" transform="scale(0.3 0.3)">
          <a xlink:href="classrc_video_cache_a9575dd00dbb6125ac9a06b6a4254f682_icgraph_org.svg" target="_base">
           <rect id="button" ry="5" rx="5" y="6" x="6" height="38" width="38"
                fill="#f2f5e9" fill-opacity="0.5" stroke="#606060" stroke-width="1.0"/>
           <path id="arrow"
             d="M 11.500037,31.436501 C 11.940474,20.09759 22.043105,11.32322 32.158766,21.979434 L 37.068811,17.246167 C 37.068811,17.246167 37.088388,32 37.088388,32 L 22.160133,31.978069 C 22.160133,31.978069 26.997745,27.140456 26.997745,27.140456 C 18.528582,18.264221 13.291696,25.230495 11.500037,31.436501 z"
             style="fill:#404040;"/>
          </a>
         </g>
        </svg>
</svg>
