<?xml version="1.0" encoding="UTF-8" standalone="no"?>
<!DOCTYPE svg PUBLIC "-//W3C//DTD SVG 1.1//EN"
 "http://www.w3.org/Graphics/SVG/1.1/DTD/svg11.dtd">
<!-- Generated by graphviz version 2.32.0 (20130916.1925)
 -->
<!-- Title: rcMovieConverter::verbose Pages: 1 -->
<svg width="694pt" height="163pt"
 viewBox="0.00 0.00 694.00 163.00" xmlns="http://www.w3.org/2000/svg" xmlns:xlink="http://www.w3.org/1999/xlink">
<g id="graph0" class="graph" transform="scale(1 1) rotate(0) translate(4 159)">
<title>rcMovieConverter::verbose</title>
<polygon fill="white" stroke="white" points="-4,5 -4,-159 691,-159 691,5 -4,5"/>
<!-- Node1 -->
<g id="node1" class="node"><title>Node1</title>
<polygon fill="#bfbfbf" stroke="black" points="-0.0219727,-73 -0.0219727,-93 136.022,-93 136.022,-73 -0.0219727,-73"/>
<text text-anchor="middle" x="68" y="-79" font-family="Helvetica,sans-Serif" font-size="10.00">rcMovieConverter::verbose</text>
</g>
<!-- Node2 -->
<g id="node2" class="node"><title>Node2</title>
<g id="a_node2"><a xlink:href="classrc_movie_converter_to_q_t.html#a36c6fbe2132af1466f147840958563d3" target="_top" xlink:title="rcMovieConverterToQT\l::convert">
<polygon fill="white" stroke="black" points="328.32,-45 328.32,-77 447.68,-77 447.68,-45 328.32,-45"/>
<text text-anchor="start" x="336.32" y="-63" font-family="Helvetica,sans-Serif" font-size="10.00">rcMovieConverterToQT</text>
<text text-anchor="middle" x="388" y="-51" font-family="Helvetica,sans-Serif" font-size="10.00">::convert</text>
</a>
</g>
</g>
<!-- Node1&#45;&gt;Node2 -->
<g id="edge1" class="edge"><title>Node1&#45;&gt;Node2</title>
<path fill="none" stroke="midnightblue" d="M146.281,-77.6535C202.277,-73.7796 276.843,-68.621 328.065,-65.0772"/>
<polygon fill="midnightblue" stroke="midnightblue" points="145.786,-74.1793 136.051,-78.3612 146.269,-81.1626 145.786,-74.1793"/>
</g>
<!-- Node6 -->
<g id="node6" class="node"><title>Node6</title>
<g id="a_node6"><a xlink:href="classrc_movie_converter_to_rfy.html#af3af0dd934f527a9c08669e49f7f2304" target="_top" xlink:title="rcMovieConverterToRfy\l::convert">
<polygon fill="white" stroke="black" points="327.764,-96 327.764,-128 448.236,-128 448.236,-96 327.764,-96"/>
<text text-anchor="start" x="335.764" y="-114" font-family="Helvetica,sans-Serif" font-size="10.00">rcMovieConverterToRfy</text>
<text text-anchor="middle" x="388" y="-102" font-family="Helvetica,sans-Serif" font-size="10.00">::convert</text>
</a>
</g>
</g>
<!-- Node1&#45;&gt;Node6 -->
<g id="edge5" class="edge"><title>Node1&#45;&gt;Node6</title>
<path fill="none" stroke="midnightblue" d="M93.8183,-98.3406C114.025,-109.88 143.733,-124.737 172,-131 223.767,-142.47 283.993,-135.456 327.511,-126.886"/>
<polygon fill="midnightblue" stroke="midnightblue" points="95.3728,-95.1948 84.9761,-93.1551 91.8316,-101.233 95.3728,-95.1948"/>
</g>
<!-- Node8 -->
<g id="node8" class="node"><title>Node8</title>
<g id="a_node8"><a xlink:href="classrc_movie_converter_to_q_t.html#a166b19241ef0b0b93ba0210903f53969" target="_top" xlink:title="rcMovieConverterToQT\l::createQTMovie">
<polygon fill="white" stroke="black" points="172.32,-0 172.32,-32 291.68,-32 291.68,-0 172.32,-0"/>
<text text-anchor="start" x="180.32" y="-18" font-family="Helvetica,sans-Serif" font-size="10.00">rcMovieConverterToQT</text>
<text text-anchor="middle" x="232" y="-6" font-family="Helvetica,sans-Serif" font-size="10.00">::createQTMovie</text>
</a>
</g>
</g>
<!-- Node1&#45;&gt;Node8 -->
<g id="edge10" class="edge"><title>Node1&#45;&gt;Node8</title>
<path fill="none" stroke="midnightblue" d="M102.702,-69.0614C128.742,-58.2919 164.82,-43.3707 192.087,-32.0934"/>
<polygon fill="midnightblue" stroke="midnightblue" points="101.156,-65.9132 93.253,-72.9694 103.832,-72.3818 101.156,-65.9132"/>
</g>
<!-- Node9 -->
<g id="node9" class="node"><title>Node9</title>
<g id="a_node9"><a xlink:href="classrc_movie_converter_to_rfy.html#a14ff503f33fc8496d34f367992430ebb" target="_top" xlink:title="rcMovieConverterToRfy\l::createRfyMovie">
<polygon fill="white" stroke="black" points="171.764,-90 171.764,-122 292.236,-122 292.236,-90 171.764,-90"/>
<text text-anchor="start" x="179.764" y="-108" font-family="Helvetica,sans-Serif" font-size="10.00">rcMovieConverterToRfy</text>
<text text-anchor="middle" x="232" y="-96" font-family="Helvetica,sans-Serif" font-size="10.00">::createRfyMovie</text>
</a>
</g>
</g>
<!-- Node1&#45;&gt;Node9 -->
<g id="edge11" class="edge"><title>Node1&#45;&gt;Node9</title>
<path fill="none" stroke="midnightblue" d="M146.268,-93.9702C154.805,-95.1822 163.397,-96.4021 171.664,-97.5758"/>
<polygon fill="midnightblue" stroke="midnightblue" points="146.688,-90.4947 136.295,-92.5543 145.704,-97.4252 146.688,-90.4947"/>
</g>
<!-- Node3 -->
<g id="node3" class="node"><title>Node3</title>
<g id="a_node3"><a xlink:href="bcnvrt__main_8cpp.html#accc22075ea7eb720aed5cad6e10344b9" target="_top" xlink:title="rfConvertMovie">
<polygon fill="white" stroke="black" points="506.101,-96 506.101,-116 589.899,-116 589.899,-96 506.101,-96"/>
<text text-anchor="middle" x="548" y="-102" font-family="Helvetica,sans-Serif" font-size="10.00">rfConvertMovie</text>
</a>
</g>
</g>
<!-- Node2&#45;&gt;Node3 -->
<g id="edge2" class="edge"><title>Node2&#45;&gt;Node3</title>
<path fill="none" stroke="midnightblue" d="M455.252,-79.8692C474.525,-85.3583 494.837,-91.1436 511.437,-95.8713"/>
<polygon fill="midnightblue" stroke="midnightblue" points="456.172,-76.492 445.595,-77.1189 454.254,-83.2243 456.172,-76.492"/>
</g>
<!-- Node5 -->
<g id="node5" class="node"><title>Node5</title>
<g id="a_node5"><a xlink:href="classrc_experiment_impl.html#ac08b9d15f5bb7db0b85a6d67406f95fa" target="_top" xlink:title="rcExperimentImpl::export\lMovie">
<polygon fill="white" stroke="black" points="484.426,-45 484.426,-77 611.574,-77 611.574,-45 484.426,-45"/>
<text text-anchor="start" x="492.426" y="-63" font-family="Helvetica,sans-Serif" font-size="10.00">rcExperimentImpl::export</text>
<text text-anchor="middle" x="548" y="-51" font-family="Helvetica,sans-Serif" font-size="10.00">Movie</text>
</a>
</g>
</g>
<!-- Node2&#45;&gt;Node5 -->
<g id="edge4" class="edge"><title>Node2&#45;&gt;Node5</title>
<path fill="none" stroke="midnightblue" d="M458.031,-61C466.805,-61 475.747,-61 484.412,-61"/>
<polygon fill="midnightblue" stroke="midnightblue" points="457.833,-57.5001 447.833,-61 457.833,-64.5001 457.833,-57.5001"/>
</g>
<!-- Node4 -->
<g id="node4" class="node"><title>Node4</title>
<g id="a_node4"><a xlink:href="bcnvrt__main_8cpp.html#a3c04138a5bfe5d72780bb7e82a18e627" target="_top" xlink:title="main">
<polygon fill="white" stroke="black" points="648.163,-115 648.163,-135 685.837,-135 685.837,-115 648.163,-115"/>
<text text-anchor="middle" x="667" y="-121" font-family="Helvetica,sans-Serif" font-size="10.00">main</text>
</a>
</g>
</g>
<!-- Node3&#45;&gt;Node4 -->
<g id="edge3" class="edge"><title>Node3&#45;&gt;Node4</title>
<path fill="none" stroke="midnightblue" d="M599.911,-114.268C617.133,-117.064 635.247,-120.006 648.147,-122.101"/>
<polygon fill="midnightblue" stroke="midnightblue" points="600.353,-110.794 589.921,-112.645 599.231,-117.703 600.353,-110.794"/>
</g>
<!-- Node6&#45;&gt;Node3 -->
<g id="edge6" class="edge"><title>Node6&#45;&gt;Node3</title>
<path fill="none" stroke="midnightblue" d="M458.339,-109.367C474.646,-108.748 491.51,-108.107 506.096,-107.553"/>
<polygon fill="midnightblue" stroke="midnightblue" points="458.143,-105.872 448.283,-109.749 458.409,-112.867 458.143,-105.872"/>
</g>
<!-- Node6&#45;&gt;Node5 -->
<g id="edge9" class="edge"><title>Node6&#45;&gt;Node5</title>
<path fill="none" stroke="midnightblue" d="M448.791,-92.7003C464.802,-87.5322 481.934,-82.0023 497.333,-77.0317"/>
<polygon fill="midnightblue" stroke="midnightblue" points="447.434,-89.4606 438.992,-95.8633 449.584,-96.1222 447.434,-89.4606"/>
</g>
<!-- Node7 -->
<g id="node7" class="node"><title>Node7</title>
<g id="a_node7"><a xlink:href="bcnvrt__main_8cpp.html#add0a6eef95e64e05a21758380072e136" target="_top" xlink:title="rfConvertTwoMovies">
<polygon fill="white" stroke="black" points="494.429,-135 494.429,-155 601.571,-155 601.571,-135 494.429,-135"/>
<text text-anchor="middle" x="548" y="-141" font-family="Helvetica,sans-Serif" font-size="10.00">rfConvertTwoMovies</text>
</a>
</g>
</g>
<!-- Node6&#45;&gt;Node7 -->
<g id="edge7" class="edge"><title>Node6&#45;&gt;Node7</title>
<path fill="none" stroke="midnightblue" d="M458.202,-126.454C471.956,-129.326 486.113,-132.283 498.969,-134.968"/>
<polygon fill="midnightblue" stroke="midnightblue" points="458.787,-123 448.283,-124.382 457.356,-129.853 458.787,-123"/>
</g>
<!-- Node7&#45;&gt;Node4 -->
<g id="edge8" class="edge"><title>Node7&#45;&gt;Node4</title>
<path fill="none" stroke="midnightblue" d="M611.841,-134.258C625.111,-131.99 638.081,-129.773 648,-128.077"/>
<polygon fill="midnightblue" stroke="midnightblue" points="610.949,-130.86 601.681,-135.995 612.128,-137.76 610.949,-130.86"/>
</g>
<!-- Node9&#45;&gt;Node6 -->
<g id="edge12" class="edge"><title>Node9&#45;&gt;Node6</title>
<path fill="none" stroke="midnightblue" d="M302.634,-108.713C310.978,-109.038 319.438,-109.368 327.618,-109.686"/>
<polygon fill="midnightblue" stroke="midnightblue" points="302.669,-105.212 292.54,-108.32 302.397,-112.207 302.669,-105.212"/>
</g>
</g>
</svg>
