<?xml version="1.0" encoding="UTF-8" standalone="no"?>
<!DOCTYPE svg PUBLIC "-//W3C//DTD SVG 1.1//EN"
 "http://www.w3.org/Graphics/SVG/1.1/DTD/svg11.dtd">
<!-- Generated by graphviz version 2.32.0 (20130916.1925)
 -->
<!-- Title: rcEngineObserver::notifyBlitData Pages: 1 -->
<!--zoomable 106 -->
<svg id="main" version="1.1" xmlns="http://www.w3.org/2000/svg" xmlns:xlink="http://www.w3.org/1999/xlink" xml:space="preserve" onload="init(evt)">
        <defs>
                <circle id="rim" cx="0" cy="0" r="7"/>
                <circle id="rim2" cx="0" cy="0" r="3.5"/>
                <g id="zoomPlus">
                        <use xlink:href="#rim" fill="#404040">
                                <set attributeName="fill" to="#808080" begin="zoomplus.mouseover" end="zoomplus.mouseout"/>
                        </use>
                        <path d="M-4,0h8M0,-4v8" fill="none" stroke="white" stroke-width="1.5" pointer-events="none"/>
                </g>
                <g id="zoomMin">
                        <use xlink:href="#rim" fill="#404040">
                                <set attributeName="fill" to="#808080" begin="zoomminus.mouseover" end="zoomminus.mouseout"/>
                        </use>
                        <path d="M-4,0h8" fill="none" stroke="white" stroke-width="1.5" pointer-events="none"/>
                </g>
                <g id="dirArrow">
                        <path fill="none" stroke="white" stroke-width="1.5" d="M0,-3.0v7 M-2.5,-0.5L0,-3.0L2.5,-0.5"/>
                </g>
               <g id="resetDef">
                       <use xlink:href="#rim2" fill="#404040">
                               <set attributeName="fill" to="#808080" begin="reset.mouseover" end="reset.mouseout"/>
                       </use>
               </g>
        </defs>

<script type="text/javascript">
var viewWidth = 702;
var viewHeight = 106;
var sectionId = 'dynsection-6';
</script>
<script xlink:href="svgpan.js"/>
<svg id="graph" class="graph">
<g id="viewport">
<title>rcEngineObserver::notifyBlitData</title>
<polygon fill="white" stroke="white" points="-4,5 -4,-102 699,-102 699,5 -4,5"/>
<!-- Node1 -->
<g id="node1" class="node"><title>Node1</title>
<polygon fill="#bfbfbf" stroke="black" points="-0.0244141,-13 -0.0244141,-45 126.024,-45 126.024,-13 -0.0244141,-13"/>
<text text-anchor="start" x="7.97559" y="-31" font-family="Helvetica,sans-Serif" font-size="10.00">rcEngineObserver::notify</text>
<text text-anchor="middle" x="63" y="-19" font-family="Helvetica,sans-Serif" font-size="10.00">BlitData</text>
</g>
<!-- Node2 -->
<g id="node2" class="node"><title>Node2</title>
<g id="a_node2"><a xlink:href="classrc_engine_impl.html#a3f1d54d99e195efe0eec45f9263e6342" target="_top" xlink:title="rcEngineImpl::loadFrames">
<polygon fill="white" stroke="black" points="184.643,-39 184.643,-59 317.357,-59 317.357,-39 184.643,-39"/>
<text text-anchor="middle" x="251" y="-45" font-family="Helvetica,sans-Serif" font-size="10.00">rcEngineImpl::loadFrames</text>
</a>
</g>
</g>
<!-- Node1&#45;&gt;Node2 -->
<g id="edge1" class="edge"><title>Node1&#45;&gt;Node2</title>
<path fill="none" stroke="midnightblue" d="M136.431,-36.7883C152.224,-38.4864 168.849,-40.2741 184.359,-41.9419"/>
<polygon fill="midnightblue" stroke="midnightblue" points="136.511,-33.2768 126.194,-35.6875 135.762,-40.2366 136.511,-33.2768"/>
</g>
<!-- Node6 -->
<g id="node6" class="node"><title>Node6</title>
<g id="a_node6"><a xlink:href="classrc_engine_impl.html#a8defbaa20c5f1f2cfa987a1c6556b5f5" target="_top" xlink:title="rcEngineImpl::processCapturedData">
<polygon fill="white" stroke="black" points="162.404,-0 162.404,-20 339.596,-20 339.596,-0 162.404,-0"/>
<text text-anchor="middle" x="251" y="-6" font-family="Helvetica,sans-Serif" font-size="10.00">rcEngineImpl::processCapturedData</text>
</a>
</g>
</g>
<!-- Node1&#45;&gt;Node6 -->
<g id="edge5" class="edge"><title>Node1&#45;&gt;Node6</title>
<path fill="none" stroke="midnightblue" d="M136.148,-21.63C144.742,-20.7521 153.586,-19.8487 162.367,-18.9518"/>
<polygon fill="midnightblue" stroke="midnightblue" points="135.786,-18.1487 126.194,-22.6469 136.498,-25.1124 135.786,-18.1487"/>
</g>
<!-- Node3 -->
<g id="node3" class="node"><title>Node3</title>
<g id="a_node3"><a xlink:href="classrc_engine_impl.html#ac6c444948228b9a6c9c013efefd7452c" target="_top" xlink:title="rcEngineImpl::loadImages">
<polygon fill="white" stroke="black" points="382.192,-78 382.192,-98 513.808,-98 513.808,-78 382.192,-78"/>
<text text-anchor="middle" x="448" y="-84" font-family="Helvetica,sans-Serif" font-size="10.00">rcEngineImpl::loadImages</text>
</a>
</g>
</g>
<!-- Node2&#45;&gt;Node3 -->
<g id="edge2" class="edge"><title>Node2&#45;&gt;Node3</title>
<path fill="none" stroke="midnightblue" d="M312.376,-61.0751C339.514,-66.5027 371.162,-72.8325 396.953,-77.9906"/>
<polygon fill="midnightblue" stroke="midnightblue" points="312.71,-57.5727 302.217,-59.0435 311.337,-64.4367 312.71,-57.5727"/>
</g>
<!-- Node5 -->
<g id="node5" class="node"><title>Node5</title>
<g id="a_node5"><a xlink:href="classrc_engine_impl.html#ac0162da8fe4f677ad6f3d04a465d50f0" target="_top" xlink:title="rcEngineImpl::loadMovie">
<polygon fill="white" stroke="black" points="385.251,-39 385.251,-59 510.749,-59 510.749,-39 385.251,-39"/>
<text text-anchor="middle" x="448" y="-45" font-family="Helvetica,sans-Serif" font-size="10.00">rcEngineImpl::loadMovie</text>
</a>
</g>
</g>
<!-- Node2&#45;&gt;Node5 -->
<g id="edge4" class="edge"><title>Node2&#45;&gt;Node5</title>
<path fill="none" stroke="midnightblue" d="M327.586,-49C346.583,-49 366.75,-49 384.996,-49"/>
<polygon fill="midnightblue" stroke="midnightblue" points="327.475,-45.5001 317.475,-49 327.475,-52.5001 327.475,-45.5001"/>
</g>
<!-- Node4 -->
<g id="node4" class="node"><title>Node4</title>
<g id="a_node4"><a xlink:href="classrc_engine_importer.html#a2e45417f1c29adf01483b2b8fca6b27b" target="_top" xlink:title="rcEngineImporter::run">
<polygon fill="white" stroke="black" points="568.646,-78 568.646,-98 681.354,-98 681.354,-78 568.646,-78"/>
<text text-anchor="middle" x="625" y="-84" font-family="Helvetica,sans-Serif" font-size="10.00">rcEngineImporter::run</text>
</a>
</g>
</g>
<!-- Node3&#45;&gt;Node4 -->
<g id="edge3" class="edge"><title>Node3&#45;&gt;Node4</title>
<path fill="none" stroke="midnightblue" d="M524.341,-88C539.182,-88 554.499,-88 568.539,-88"/>
<polygon fill="midnightblue" stroke="midnightblue" points="524.164,-84.5001 514.164,-88 524.164,-91.5001 524.164,-84.5001"/>
</g>
<!-- Node7 -->
<g id="node7" class="node"><title>Node7</title>
<g id="a_node7"><a xlink:href="classrc_engine_impl.html#a08582f48ac2811b56b0fbbe48c1afaf5" target="_top" xlink:title="rcEngineImpl::frameInterrupt">
<polygon fill="white" stroke="black" points="376.641,-0 376.641,-20 519.359,-20 519.359,-0 376.641,-0"/>
<text text-anchor="middle" x="448" y="-6" font-family="Helvetica,sans-Serif" font-size="10.00">rcEngineImpl::frameInterrupt</text>
</a>
</g>
</g>
<!-- Node6&#45;&gt;Node7 -->
<g id="edge6" class="edge"><title>Node6&#45;&gt;Node7</title>
<path fill="none" stroke="midnightblue" d="M349.95,-10C358.95,-10 367.945,-10 376.629,-10"/>
<polygon fill="midnightblue" stroke="midnightblue" points="349.802,-6.5001 339.802,-10 349.802,-13.5001 349.802,-6.5001"/>
</g>
<!-- Node8 -->
<g id="node8" class="node"><title>Node8</title>
<g id="a_node8"><a xlink:href="classrc_engine_movie_capture.html#a0d8bfe4fd32e11bdbdb2c0ad113425ff" target="_top" xlink:title="rcEngineMovieCapture::run">
<polygon fill="white" stroke="black" points="556.136,-0 556.136,-20 693.864,-20 693.864,-0 556.136,-0"/>
<text text-anchor="middle" x="625" y="-6" font-family="Helvetica,sans-Serif" font-size="10.00">rcEngineMovieCapture::run</text>
</a>
</g>
</g>
<!-- Node7&#45;&gt;Node8 -->
<g id="edge7" class="edge"><title>Node7&#45;&gt;Node8</title>
<path fill="none" stroke="midnightblue" d="M529.685,-10C538.482,-10 547.371,-10 555.995,-10"/>
<polygon fill="midnightblue" stroke="midnightblue" points="529.423,-6.5001 519.423,-10 529.423,-13.5001 529.423,-6.5001"/>
</g>
</g>
</svg>
        <g id="navigator" transform="translate(0 0)" fill="#404254">
                <rect fill="#f2f5e9" fill-opacity="0.5" stroke="#606060" stroke-width=".5" x="0" y="0" width="60" height="60"/>
                <use id="zoomplus" xlink:href="#zoomPlus" x="17" y="9" onmousedown="handleZoom(evt,'in')"/>
                <use id="zoomminus" xlink:href="#zoomMin" x="42" y="9" onmousedown="handleZoom(evt,'out')"/>
                <use id="reset" xlink:href="#resetDef" x="30" y="36" onmousedown="handleReset()"/>
                <g id="arrowUp" xlink:href="#dirArrow" transform="translate(30 24)" onmousedown="handlePan(0,-1)">
                  <use xlink:href="#rim" fill="#404040">
                        <set attributeName="fill" to="#808080" begin="arrowUp.mouseover" end="arrowUp.mouseout"/>
                  </use>
                  <path fill="none" stroke="white" stroke-width="1.5" d="M0,-3.0v7 M-2.5,-0.5L0,-3.0L2.5,-0.5"/>
                </g>
                <g id="arrowRight" xlink:href="#dirArrow" transform="rotate(90) translate(36 -43)" onmousedown="handlePan(1,0)">
                  <use xlink:href="#rim" fill="#404040">
                        <set attributeName="fill" to="#808080" begin="arrowRight.mouseover" end="arrowRight.mouseout"/>
                  </use>
                  <path fill="none" stroke="white" stroke-width="1.5" d="M0,-3.0v7 M-2.5,-0.5L0,-3.0L2.5,-0.5"/>
                </g>
                <g id="arrowDown" xlink:href="#dirArrow" transform="rotate(180) translate(-30 -48)" onmousedown="handlePan(0,1)">
                  <use xlink:href="#rim" fill="#404040">
                        <set attributeName="fill" to="#808080" begin="arrowDown.mouseover" end="arrowDown.mouseout"/>
                  </use>
                  <path fill="none" stroke="white" stroke-width="1.5" d="M0,-3.0v7 M-2.5,-0.5L0,-3.0L2.5,-0.5"/>
                </g>
                <g id="arrowLeft" xlink:href="#dirArrow" transform="rotate(270) translate(-36 17)" onmousedown="handlePan(-1,0)">
                  <use xlink:href="#rim" fill="#404040">
                        <set attributeName="fill" to="#808080" begin="arrowLeft.mouseover" end="arrowLeft.mouseout"/>
                  </use>
                  <path fill="none" stroke="white" stroke-width="1.5" d="M0,-3.0v7 M-2.5,-0.5L0,-3.0L2.5,-0.5"/>
                </g>
        </g>
        <svg viewBox="0 0 15 15" width="100%" height="30px" preserveAspectRatio="xMaxYMin meet">
         <g id="arrow_out" transform="scale(0.3 0.3)">
          <a xlink:href="classrc_engine_observer_a13812a4e226d21c329ac562aa697c314_icgraph_org.svg" target="_base">
           <rect id="button" ry="5" rx="5" y="6" x="6" height="38" width="38"
                fill="#f2f5e9" fill-opacity="0.5" stroke="#606060" stroke-width="1.0"/>
           <path id="arrow"
             d="M 11.500037,31.436501 C 11.940474,20.09759 22.043105,11.32322 32.158766,21.979434 L 37.068811,17.246167 C 37.068811,17.246167 37.088388,32 37.088388,32 L 22.160133,31.978069 C 22.160133,31.978069 26.997745,27.140456 26.997745,27.140456 C 18.528582,18.264221 13.291696,25.230495 11.500037,31.436501 z"
             style="fill:#404040;"/>
          </a>
         </g>
        </svg>
</svg>
