<?xml version="1.0" encoding="UTF-8" standalone="no"?>
<!DOCTYPE svg PUBLIC "-//W3C//DTD SVG 1.1//EN"
 "http://www.w3.org/Graphics/SVG/1.1/DTD/svg11.dtd">
<!-- Generated by graphviz version 2.32.0 (20130916.1925)
 -->
<!-- Title: rcMovieConverterOptions::overWrite Pages: 1 -->
<svg width="688pt" height="119pt"
 viewBox="0.00 0.00 688.00 119.00" xmlns="http://www.w3.org/2000/svg" xmlns:xlink="http://www.w3.org/1999/xlink">
<g id="graph0" class="graph" transform="scale(1 1) rotate(0) translate(4 115)">
<title>rcMovieConverterOptions::overWrite</title>
<polygon fill="white" stroke="white" points="-4,5 -4,-115 685,-115 685,5 -4,5"/>
<!-- Node1 -->
<g id="node1" class="node"><title>Node1</title>
<polygon fill="#bfbfbf" stroke="black" points="0.312988,-23 0.312988,-55 129.687,-55 129.687,-23 0.312988,-23"/>
<text text-anchor="start" x="8.31299" y="-41" font-family="Helvetica,sans-Serif" font-size="10.00">rcMovieConverterOptions</text>
<text text-anchor="middle" x="65" y="-29" font-family="Helvetica,sans-Serif" font-size="10.00">::overWrite</text>
</g>
<!-- Node2 -->
<g id="node2" class="node"><title>Node2</title>
<g id="a_node2"><a xlink:href="classrc_movie_converter_to_rfy.html#a14ff503f33fc8496d34f367992430ebb" target="_top" xlink:title="rcMovieConverterToRfy\l::createRfyMovie">
<polygon fill="white" stroke="black" points="165.764,-46 165.764,-78 286.236,-78 286.236,-46 165.764,-46"/>
<text text-anchor="start" x="173.764" y="-64" font-family="Helvetica,sans-Serif" font-size="10.00">rcMovieConverterToRfy</text>
<text text-anchor="middle" x="226" y="-52" font-family="Helvetica,sans-Serif" font-size="10.00">::createRfyMovie</text>
</a>
</g>
</g>
<!-- Node1&#45;&gt;Node2 -->
<g id="edge1" class="edge"><title>Node1&#45;&gt;Node2</title>
<path fill="none" stroke="midnightblue" d="M139.833,-49.6802C148.473,-50.9301 157.203,-52.1929 165.612,-53.4093"/>
<polygon fill="midnightblue" stroke="midnightblue" points="140.153,-46.1902 129.755,-48.2225 139.151,-53.1181 140.153,-46.1902"/>
</g>
<!-- Node8 -->
<g id="node8" class="node"><title>Node8</title>
<g id="a_node8"><a xlink:href="rc__movieconverter_8h.html#a58de5a2419699e52c7215cdc4aa6e1a6" target="_top" xlink:title="operator\&lt;\&lt;">
<polygon fill="white" stroke="black" points="193.537,-7 193.537,-27 258.463,-27 258.463,-7 193.537,-7"/>
<text text-anchor="middle" x="226" y="-13" font-family="Helvetica,sans-Serif" font-size="10.00">operator&lt;&lt;</text>
</a>
</g>
</g>
<!-- Node1&#45;&gt;Node8 -->
<g id="edge8" class="edge"><title>Node1&#45;&gt;Node8</title>
<path fill="none" stroke="midnightblue" d="M139.876,-28.7782C158.769,-26.164 178.088,-23.4909 193.536,-21.3535"/>
<polygon fill="midnightblue" stroke="midnightblue" points="139.181,-25.3409 129.755,-30.1785 140.141,-32.2748 139.181,-25.3409"/>
</g>
<!-- Node3 -->
<g id="node3" class="node"><title>Node3</title>
<g id="a_node3"><a xlink:href="classrc_movie_converter_to_rfy.html#af3af0dd934f527a9c08669e49f7f2304" target="_top" xlink:title="rcMovieConverterToRfy\l::convert">
<polygon fill="white" stroke="black" points="321.764,-46 321.764,-78 442.236,-78 442.236,-46 321.764,-46"/>
<text text-anchor="start" x="329.764" y="-64" font-family="Helvetica,sans-Serif" font-size="10.00">rcMovieConverterToRfy</text>
<text text-anchor="middle" x="382" y="-52" font-family="Helvetica,sans-Serif" font-size="10.00">::convert</text>
</a>
</g>
</g>
<!-- Node2&#45;&gt;Node3 -->
<g id="edge2" class="edge"><title>Node2&#45;&gt;Node3</title>
<path fill="none" stroke="midnightblue" d="M296.634,-62C304.978,-62 313.438,-62 321.618,-62"/>
<polygon fill="midnightblue" stroke="midnightblue" points="296.54,-58.5001 286.54,-62 296.54,-65.5001 296.54,-58.5001"/>
</g>
<!-- Node4 -->
<g id="node4" class="node"><title>Node4</title>
<g id="a_node4"><a xlink:href="bcnvrt__main_8cpp.html#accc22075ea7eb720aed5cad6e10344b9" target="_top" xlink:title="rfConvertMovie">
<polygon fill="white" stroke="black" points="500.101,-91 500.101,-111 583.899,-111 583.899,-91 500.101,-91"/>
<text text-anchor="middle" x="542" y="-97" font-family="Helvetica,sans-Serif" font-size="10.00">rfConvertMovie</text>
</a>
</g>
</g>
<!-- Node3&#45;&gt;Node4 -->
<g id="edge3" class="edge"><title>Node3&#45;&gt;Node4</title>
<path fill="none" stroke="midnightblue" d="M452.339,-79.1153C468.646,-83.1403 485.51,-87.303 500.096,-90.9034"/>
<polygon fill="midnightblue" stroke="midnightblue" points="452.83,-75.6316 442.283,-76.6331 451.153,-82.4276 452.83,-75.6316"/>
</g>
<!-- Node6 -->
<g id="node6" class="node"><title>Node6</title>
<g id="a_node6"><a xlink:href="bcnvrt__main_8cpp.html#add0a6eef95e64e05a21758380072e136" target="_top" xlink:title="rfConvertTwoMovies">
<polygon fill="white" stroke="black" points="488.429,-52 488.429,-72 595.571,-72 595.571,-52 488.429,-52"/>
<text text-anchor="middle" x="542" y="-58" font-family="Helvetica,sans-Serif" font-size="10.00">rfConvertTwoMovies</text>
</a>
</g>
</g>
<!-- Node3&#45;&gt;Node6 -->
<g id="edge5" class="edge"><title>Node3&#45;&gt;Node6</title>
<path fill="none" stroke="midnightblue" d="M452.347,-62C464.445,-62 476.848,-62 488.401,-62"/>
<polygon fill="midnightblue" stroke="midnightblue" points="452.283,-58.5001 442.283,-62 452.283,-65.5001 452.283,-58.5001"/>
</g>
<!-- Node7 -->
<g id="node7" class="node"><title>Node7</title>
<g id="a_node7"><a xlink:href="classrc_experiment_impl.html#ac08b9d15f5bb7db0b85a6d67406f95fa" target="_top" xlink:title="rcExperimentImpl::export\lMovie">
<polygon fill="white" stroke="black" points="478.426,-1 478.426,-33 605.574,-33 605.574,-1 478.426,-1"/>
<text text-anchor="start" x="486.426" y="-19" font-family="Helvetica,sans-Serif" font-size="10.00">rcExperimentImpl::export</text>
<text text-anchor="middle" x="542" y="-7" font-family="Helvetica,sans-Serif" font-size="10.00">Movie</text>
</a>
</g>
</g>
<!-- Node3&#45;&gt;Node7 -->
<g id="edge7" class="edge"><title>Node3&#45;&gt;Node7</title>
<path fill="none" stroke="midnightblue" d="M449.38,-43.0944C461.164,-39.7382 473.332,-36.2725 484.8,-33.0064"/>
<polygon fill="midnightblue" stroke="midnightblue" points="448.254,-39.7757 439.595,-45.8811 450.172,-46.508 448.254,-39.7757"/>
</g>
<!-- Node5 -->
<g id="node5" class="node"><title>Node5</title>
<g id="a_node5"><a xlink:href="bcnvrt__main_8cpp.html#a3c04138a5bfe5d72780bb7e82a18e627" target="_top" xlink:title="main">
<polygon fill="white" stroke="black" points="642.163,-71 642.163,-91 679.837,-91 679.837,-71 642.163,-71"/>
<text text-anchor="middle" x="661" y="-77" font-family="Helvetica,sans-Serif" font-size="10.00">main</text>
</a>
</g>
</g>
<!-- Node4&#45;&gt;Node5 -->
<g id="edge4" class="edge"><title>Node4&#45;&gt;Node5</title>
<path fill="none" stroke="midnightblue" d="M593.911,-92.2972C611.133,-89.3534 629.247,-86.257 642.147,-84.0519"/>
<polygon fill="midnightblue" stroke="midnightblue" points="593.188,-88.87 583.921,-94.005 594.368,-95.7699 593.188,-88.87"/>
</g>
<!-- Node6&#45;&gt;Node5 -->
<g id="edge6" class="edge"><title>Node6&#45;&gt;Node5</title>
<path fill="none" stroke="midnightblue" d="M605.841,-72.205C619.111,-74.3599 632.081,-76.4661 642,-78.0769"/>
<polygon fill="midnightblue" stroke="midnightblue" points="606.113,-68.7034 595.681,-70.5551 604.991,-75.6129 606.113,-68.7034"/>
</g>
</g>
</svg>
