<?xml version="1.0" encoding="UTF-8" standalone="no"?>
<!DOCTYPE svg PUBLIC "-//W3C//DTD SVG 1.1//EN"
 "http://www.w3.org/Graphics/SVG/1.1/DTD/svg11.dtd">
<!-- Generated by graphviz version 2.32.0 (20130916.1925)
 -->
<!-- Title: lm_unit_name::set_name Pages: 1 -->
<svg width="280pt" height="79pt"
 viewBox="0.00 0.00 280.00 79.00" xmlns="http://www.w3.org/2000/svg" xmlns:xlink="http://www.w3.org/1999/xlink">
<g id="graph0" class="graph" transform="scale(1 1) rotate(0) translate(4 75)">
<title>lm_unit_name::set_name</title>
<polygon fill="white" stroke="white" points="-4,5 -4,-75 277,-75 277,5 -4,5"/>
<!-- Node1 -->
<g id="node1" class="node"><title>Node1</title>
<polygon fill="#bfbfbf" stroke="black" points="-0.142578,-28 -0.142578,-48 128.143,-48 128.143,-28 -0.142578,-28"/>
<text text-anchor="middle" x="64" y="-34" font-family="Helvetica,sans-Serif" font-size="10.00">lm_unit_name::set_name</text>
</g>
<!-- Node2 -->
<g id="node2" class="node"><title>Node2</title>
<g id="a_node2"><a xlink:href="classlm__library.html#a4ecac68278ce6f5aeb131f1bbce9cb10" target="_top" xlink:title="lm_library::local_find">
<polygon fill="white" stroke="black" points="164.426,-51 164.426,-71 271.574,-71 271.574,-51 164.426,-51"/>
<text text-anchor="middle" x="218" y="-57" font-family="Helvetica,sans-Serif" font-size="10.00">lm_library::local_find</text>
</a>
</g>
</g>
<!-- Node1&#45;&gt;Node2 -->
<g id="edge1" class="edge"><title>Node1&#45;&gt;Node2</title>
<path fill="none" stroke="midnightblue" d="M138.674,-49.1481C147.311,-50.4549 155.988,-51.7679 164.258,-53.0193"/>
<polygon fill="midnightblue" stroke="midnightblue" points="138.992,-45.6564 128.581,-47.6208 137.945,-52.5776 138.992,-45.6564"/>
</g>
<!-- Node3 -->
<g id="node3" class="node"><title>Node3</title>
<g id="a_node3"><a xlink:href="classlm__unit__dependency.html#a1edf580be35485d2f8982b0c14a6afd6" target="_top" xlink:title="lm_unit_dependency\l::set_name">
<polygon fill="white" stroke="black" points="163.855,-0 163.855,-32 272.145,-32 272.145,-0 163.855,-0"/>
<text text-anchor="start" x="171.855" y="-18" font-family="Helvetica,sans-Serif" font-size="10.00">lm_unit_dependency</text>
<text text-anchor="middle" x="218" y="-6" font-family="Helvetica,sans-Serif" font-size="10.00">::set_name</text>
</a>
</g>
</g>
<!-- Node1&#45;&gt;Node3 -->
<g id="edge2" class="edge"><title>Node1&#45;&gt;Node3</title>
<path fill="none" stroke="midnightblue" d="M138.536,-27.3567C147.053,-26.1239 155.613,-24.885 163.784,-23.7023"/>
<polygon fill="midnightblue" stroke="midnightblue" points="137.976,-23.9011 128.581,-28.7975 138.979,-30.8289 137.976,-23.9011"/>
</g>
</g>
</svg>
