<?xml version="1.0" encoding="UTF-8" standalone="no"?>
<!DOCTYPE svg PUBLIC "-//W3C//DTD SVG 1.1//EN"
 "http://www.w3.org/Graphics/SVG/1.1/DTD/svg11.dtd">
<!-- Generated by graphviz version 2.32.0 (20130916.1925)
 -->
<!-- Title: rcSegmentIteratorImpl::hasNextSegment Pages: 1 -->
<svg width="390pt" height="79pt"
 viewBox="0.00 0.00 390.00 79.00" xmlns="http://www.w3.org/2000/svg" xmlns:xlink="http://www.w3.org/1999/xlink">
<g id="graph0" class="graph" transform="scale(1 1) rotate(0) translate(4 75)">
<title>rcSegmentIteratorImpl::hasNextSegment</title>
<polygon fill="white" stroke="white" points="-4,5 -4,-75 387,-75 387,5 -4,5"/>
<!-- Node1 -->
<g id="node1" class="node"><title>Node1</title>
<polygon fill="#bfbfbf" stroke="black" points="0.537109,-16 0.537109,-48 115.463,-48 115.463,-16 0.537109,-16"/>
<text text-anchor="start" x="8.53711" y="-34" font-family="Helvetica,sans-Serif" font-size="10.00">rcSegmentIteratorImpl</text>
<text text-anchor="middle" x="58" y="-22" font-family="Helvetica,sans-Serif" font-size="10.00">::hasNextSegment</text>
</g>
<!-- Node2 -->
<g id="node2" class="node"><title>Node2</title>
<g id="a_node2"><a xlink:href="classrc_segment_iterator_impl.html#a22abc78fcb201cdca524b10299558f03" target="_top" xlink:title="rcSegmentIteratorImpl\l::lock">
<polygon fill="white" stroke="black" points="153.537,-39 153.537,-71 268.463,-71 268.463,-39 153.537,-39"/>
<text text-anchor="start" x="161.537" y="-57" font-family="Helvetica,sans-Serif" font-size="10.00">rcSegmentIteratorImpl</text>
<text text-anchor="middle" x="211" y="-45" font-family="Helvetica,sans-Serif" font-size="10.00">::lock</text>
</a>
</g>
</g>
<!-- Node1&#45;&gt;Node2 -->
<g id="edge1" class="edge"><title>Node1&#45;&gt;Node2</title>
<path fill="none" stroke="midnightblue" d="M115.656,-40.6298C124.752,-42.0152 134.237,-43.46 143.537,-44.8765"/>
<polygon fill="midnightblue" stroke="midnightblue" points="143.115,-48.3525 153.528,-46.3983 144.169,-41.4324 143.115,-48.3525"/>
</g>
<!-- Node4 -->
<g id="node4" class="node"><title>Node4</title>
<g id="a_node4"><a xlink:href="classrc_track_impl.html#a7364f3ea7bc5feb9bb14a2600c949925" target="_top" xlink:title="rcTrackImpl::segments">
<polygon fill="white" stroke="black" points="152.617,-0 152.617,-20 269.383,-20 269.383,-0 152.617,-0"/>
<text text-anchor="middle" x="211" y="-6" font-family="Helvetica,sans-Serif" font-size="10.00">rcTrackImpl::segments</text>
</a>
</g>
</g>
<!-- Node1&#45;&gt;Node4 -->
<g id="edge3" class="edge"><title>Node1&#45;&gt;Node4</title>
<path fill="none" stroke="midnightblue" d="M115.656,-23.7454C124.412,-22.4698 133.529,-21.1415 142.494,-19.8354"/>
<polygon fill="midnightblue" stroke="midnightblue" points="143.132,-23.2794 152.523,-18.3741 142.123,-16.3525 143.132,-23.2794"/>
</g>
<!-- Node3 -->
<g id="node3" class="node"><title>Node3</title>
<g id="a_node3"><a xlink:href="classrc_mutex.html#ab3d2138979404d7f06abe308ca2177a8" target="_top" xlink:title="rcMutex::lock">
<polygon fill="white" stroke="black" points="306.549,-45 306.549,-65 381.451,-65 381.451,-45 306.549,-45"/>
<text text-anchor="middle" x="344" y="-51" font-family="Helvetica,sans-Serif" font-size="10.00">rcMutex::lock</text>
</a>
</g>
</g>
<!-- Node2&#45;&gt;Node3 -->
<g id="edge2" class="edge"><title>Node2&#45;&gt;Node3</title>
<path fill="none" stroke="midnightblue" d="M268.697,-55C277.842,-55 287.22,-55 296.1,-55"/>
<polygon fill="midnightblue" stroke="midnightblue" points="296.253,-58.5001 306.253,-55 296.253,-51.5001 296.253,-58.5001"/>
</g>
</g>
</svg>
