<?xml version="1.0" encoding="UTF-8" standalone="no"?>
<!DOCTYPE svg PUBLIC "-//W3C//DTD SVG 1.1//EN"
 "http://www.w3.org/Graphics/SVG/1.1/DTD/svg11.dtd">
<!-- Generated by graphviz version 2.32.0 (20130916.1925)
 -->
<!-- Title: rcVideoCache::rcVideoCacheDtor Pages: 1 -->
<svg width="706pt" height="421pt"
 viewBox="0.00 0.00 706.00 421.00" xmlns="http://www.w3.org/2000/svg" xmlns:xlink="http://www.w3.org/1999/xlink">
<g id="graph0" class="graph" transform="scale(1 1) rotate(0) translate(4 417)">
<title>rcVideoCache::rcVideoCacheDtor</title>
<polygon fill="white" stroke="white" points="-4,5 -4,-417 703,-417 703,5 -4,5"/>
<!-- Node1 -->
<g id="node1" class="node"><title>Node1</title>
<polygon fill="#bfbfbf" stroke="black" points="0.13916,-187 0.13916,-207 165.861,-207 165.861,-187 0.13916,-187"/>
<text text-anchor="middle" x="83" y="-193" font-family="Helvetica,sans-Serif" font-size="10.00">rcVideoCache::rcVideoCacheDtor</text>
</g>
<!-- Node2 -->
<g id="node2" class="node"><title>Node2</title>
<g id="a_node2"><a xlink:href="classrc_movie_converter_to_q_t.html#a36c6fbe2132af1466f147840958563d3" target="_top" xlink:title="rcMovieConverterToQT\l::convert">
<polygon fill="white" stroke="black" points="215.32,-354 215.32,-386 334.68,-386 334.68,-354 215.32,-354"/>
<text text-anchor="start" x="223.32" y="-372" font-family="Helvetica,sans-Serif" font-size="10.00">rcMovieConverterToQT</text>
<text text-anchor="middle" x="275" y="-360" font-family="Helvetica,sans-Serif" font-size="10.00">::convert</text>
</a>
</g>
</g>
<!-- Node1&#45;&gt;Node2 -->
<g id="edge1" class="edge"><title>Node1&#45;&gt;Node2</title>
<path fill="none" stroke="midnightblue" d="M94.5687,-216.082C112.675,-247.123 152.507,-308.631 202,-344 207.298,-347.786 213.206,-351.076 219.296,-353.92"/>
<polygon fill="midnightblue" stroke="midnightblue" points="97.4654,-214.097 89.4686,-207.147 91.3859,-217.567 97.4654,-214.097"/>
</g>
<!-- Node6 -->
<g id="node6" class="node"><title>Node6</title>
<g id="a_node6"><a xlink:href="classrc_movie_converter_to_rfy.html#af3af0dd934f527a9c08669e49f7f2304" target="_top" xlink:title="rcMovieConverterToRfy\l::convert">
<polygon fill="white" stroke="black" points="214.764,-303 214.764,-335 335.236,-335 335.236,-303 214.764,-303"/>
<text text-anchor="start" x="222.764" y="-321" font-family="Helvetica,sans-Serif" font-size="10.00">rcMovieConverterToRfy</text>
<text text-anchor="middle" x="275" y="-309" font-family="Helvetica,sans-Serif" font-size="10.00">::convert</text>
</a>
</g>
</g>
<!-- Node1&#45;&gt;Node6 -->
<g id="edge5" class="edge"><title>Node1&#45;&gt;Node6</title>
<path fill="none" stroke="midnightblue" d="M102.774,-213.888C125.205,-233.476 164.433,-265.9 202,-288 211.267,-293.451 221.671,-298.49 231.628,-302.852"/>
<polygon fill="midnightblue" stroke="midnightblue" points="104.85,-211.052 95.0373,-207.057 100.217,-216.299 104.85,-211.052"/>
</g>
<!-- Node8 -->
<g id="node8" class="node"><title>Node8</title>
<g id="a_node8"><a xlink:href="visimatch_8cpp.html#a82fefdf34801de8f8e9eb60b25fbd6b6" target="_top" xlink:title="genSignatureFromMov">
<polygon fill="white" stroke="black" points="216.143,-187 216.143,-207 333.857,-207 333.857,-187 216.143,-187"/>
<text text-anchor="middle" x="275" y="-193" font-family="Helvetica,sans-Serif" font-size="10.00">genSignatureFromMov</text>
</a>
</g>
</g>
<!-- Node1&#45;&gt;Node8 -->
<g id="edge10" class="edge"><title>Node1&#45;&gt;Node8</title>
<path fill="none" stroke="midnightblue" d="M176.289,-197C189.844,-197 203.473,-197 216.07,-197"/>
<polygon fill="midnightblue" stroke="midnightblue" points="175.956,-193.5 165.956,-197 175.956,-200.5 175.956,-193.5"/>
</g>
<!-- Node10 -->
<g id="node10" class="node"><title>Node10</title>
<g id="a_node10"><a xlink:href="classrc_engine_impl.html#ac0162da8fe4f677ad6f3d04a465d50f0" target="_top" xlink:title="rcEngineImpl::loadMovie">
<polygon fill="white" stroke="black" points="212.251,-148 212.251,-168 337.749,-168 337.749,-148 212.251,-148"/>
<text text-anchor="middle" x="275" y="-154" font-family="Helvetica,sans-Serif" font-size="10.00">rcEngineImpl::loadMovie</text>
</a>
</g>
</g>
<!-- Node1&#45;&gt;Node10 -->
<g id="edge12" class="edge"><title>Node1&#45;&gt;Node10</title>
<path fill="none" stroke="midnightblue" d="M142.828,-184.925C169.27,-179.497 200.107,-173.168 225.236,-168.009"/>
<polygon fill="midnightblue" stroke="midnightblue" points="142.022,-181.517 132.93,-186.957 143.429,-188.374 142.022,-181.517"/>
</g>
<!-- Node11 -->
<g id="node11" class="node"><title>Node11</title>
<g id="a_node11"><a xlink:href="batch__main_8cpp.html#a3c04138a5bfe5d72780bb7e82a18e627" target="_top" xlink:title="main">
<polygon fill="white" stroke="black" points="256.163,-109 256.163,-129 293.837,-129 293.837,-109 256.163,-109"/>
<text text-anchor="middle" x="275" y="-115" font-family="Helvetica,sans-Serif" font-size="10.00">main</text>
</a>
</g>
</g>
<!-- Node1&#45;&gt;Node11 -->
<g id="edge13" class="edge"><title>Node1&#45;&gt;Node11</title>
<path fill="none" stroke="midnightblue" d="M110.45,-181.798C133.912,-168.799 169.417,-150.295 202,-138 219.901,-131.245 241.169,-125.95 255.927,-122.685"/>
<polygon fill="midnightblue" stroke="midnightblue" points="108.489,-178.885 101.478,-186.827 111.912,-184.991 108.489,-178.885"/>
</g>
<!-- Node12 -->
<g id="node12" class="node"><title>Node12</title>
<g id="a_node12"><a xlink:href="class_video_cache_releaser.html#a00159da121fe6190a5cfde78e95ac9ba" target="_top" xlink:title="VideoCacheReleaser\l::operator()">
<polygon fill="white" stroke="black" points="219.837,-58 219.837,-90 330.163,-90 330.163,-58 219.837,-58"/>
<text text-anchor="start" x="227.837" y="-76" font-family="Helvetica,sans-Serif" font-size="10.00">VideoCacheReleaser</text>
<text text-anchor="middle" x="275" y="-64" font-family="Helvetica,sans-Serif" font-size="10.00">::operator()</text>
</a>
</g>
</g>
<!-- Node1&#45;&gt;Node12 -->
<g id="edge14" class="edge"><title>Node1&#45;&gt;Node12</title>
<path fill="none" stroke="midnightblue" d="M100.932,-179.499C122.603,-157.961 162.132,-121.491 202,-99 207.878,-95.6842 214.271,-92.6974 220.741,-90.04"/>
<polygon fill="midnightblue" stroke="midnightblue" points="98.3437,-177.138 93.7887,-186.704 103.315,-182.067 98.3437,-177.138"/>
</g>
<!-- Node13 -->
<g id="node13" class="node"><title>Node13</title>
<g id="a_node13"><a xlink:href="bcnvrt__main_8cpp.html#a6e8fab40e4cd89f05d7bafbc7c22dedc" target="_top" xlink:title="rfCompareMovies">
<polygon fill="white" stroke="black" points="406.544,-264 406.544,-284 501.456,-284 501.456,-264 406.544,-264"/>
<text text-anchor="middle" x="454" y="-270" font-family="Helvetica,sans-Serif" font-size="10.00">rfCompareMovies</text>
</a>
</g>
</g>
<!-- Node1&#45;&gt;Node13 -->
<g id="edge15" class="edge"><title>Node1&#45;&gt;Node13</title>
<path fill="none" stroke="midnightblue" d="M118.817,-210.654C142.06,-219.306 173.48,-230.124 202,-237 272.225,-253.932 355.485,-264.355 406.258,-269.659"/>
<polygon fill="midnightblue" stroke="midnightblue" points="119.98,-207.352 109.389,-207.096 117.509,-213.901 119.98,-207.352"/>
</g>
<!-- Node14 -->
<g id="node14" class="node"><title>Node14</title>
<g id="a_node14"><a xlink:href="bcnvrt__main_8cpp.html#a00a4dac924291e9ba2f484741e4abc19" target="_top" xlink:title="rfCompareReifyMovies">
<polygon fill="white" stroke="black" points="395.153,-225 395.153,-245 512.847,-245 512.847,-225 395.153,-225"/>
<text text-anchor="middle" x="454" y="-231" font-family="Helvetica,sans-Serif" font-size="10.00">rfCompareReifyMovies</text>
</a>
</g>
</g>
<!-- Node1&#45;&gt;Node14 -->
<g id="edge17" class="edge"><title>Node1&#45;&gt;Node14</title>
<path fill="none" stroke="midnightblue" d="M150.283,-208.676C167.114,-211.365 185.191,-214.014 202,-216 267.967,-223.794 344.085,-229.031 395.045,-231.999"/>
<polygon fill="midnightblue" stroke="midnightblue" points="150.419,-205.153 139.987,-207.003 149.296,-212.062 150.419,-205.153"/>
</g>
<!-- Node15 -->
<g id="node15" class="node"><title>Node15</title>
<g id="a_node15"><a xlink:href="classrc_engine_impl.html#a48233eb8692967c57e62c454edd70822" target="_top" xlink:title="rcEngineImpl::unlockedReset">
<polygon fill="white" stroke="black" points="201.966,-19 201.966,-39 348.034,-39 348.034,-19 201.966,-19"/>
<text text-anchor="middle" x="275" y="-25" font-family="Helvetica,sans-Serif" font-size="10.00">rcEngineImpl::unlockedReset</text>
</a>
</g>
</g>
<!-- Node1&#45;&gt;Node15 -->
<g id="edge19" class="edge"><title>Node1&#45;&gt;Node15</title>
<path fill="none" stroke="midnightblue" d="M93.9034,-177.616C111.295,-145.572 150.428,-81.7512 202,-48 207.517,-44.3895 213.693,-41.4635 220.047,-39.0926"/>
<polygon fill="midnightblue" stroke="midnightblue" points="90.6143,-176.348 89.0327,-186.824 96.8021,-179.621 90.6143,-176.348"/>
</g>
<!-- Node3 -->
<g id="node3" class="node"><title>Node3</title>
<g id="a_node3"><a xlink:href="classrc_experiment_impl.html#ac08b9d15f5bb7db0b85a6d67406f95fa" target="_top" xlink:title="rcExperimentImpl::export\lMovie">
<polygon fill="white" stroke="black" points="390.426,-381 390.426,-413 517.574,-413 517.574,-381 390.426,-381"/>
<text text-anchor="start" x="398.426" y="-399" font-family="Helvetica,sans-Serif" font-size="10.00">rcExperimentImpl::export</text>
<text text-anchor="middle" x="454" y="-387" font-family="Helvetica,sans-Serif" font-size="10.00">Movie</text>
</a>
</g>
</g>
<!-- Node2&#45;&gt;Node3 -->
<g id="edge2" class="edge"><title>Node2&#45;&gt;Node3</title>
<path fill="none" stroke="midnightblue" d="M345.119,-380.544C360.034,-382.819 375.722,-385.212 390.373,-387.447"/>
<polygon fill="midnightblue" stroke="midnightblue" points="345.352,-377.039 334.938,-378.991 344.296,-383.959 345.352,-377.039"/>
</g>
<!-- Node4 -->
<g id="node4" class="node"><title>Node4</title>
<g id="a_node4"><a xlink:href="bcnvrt__main_8cpp.html#accc22075ea7eb720aed5cad6e10344b9" target="_top" xlink:title="rfConvertMovie">
<polygon fill="white" stroke="black" points="412.101,-342 412.101,-362 495.899,-362 495.899,-342 412.101,-342"/>
<text text-anchor="middle" x="454" y="-348" font-family="Helvetica,sans-Serif" font-size="10.00">rfConvertMovie</text>
</a>
</g>
</g>
<!-- Node2&#45;&gt;Node4 -->
<g id="edge3" class="edge"><title>Node2&#45;&gt;Node4</title>
<path fill="none" stroke="midnightblue" d="M345.165,-362.966C367.742,-360.67 392.085,-358.195 411.918,-356.178"/>
<polygon fill="midnightblue" stroke="midnightblue" points="344.533,-359.512 334.938,-364.006 345.241,-366.476 344.533,-359.512"/>
</g>
<!-- Node5 -->
<g id="node5" class="node"><title>Node5</title>
<g id="a_node5"><a xlink:href="bcnvrt__main_8cpp.html#a3c04138a5bfe5d72780bb7e82a18e627" target="_top" xlink:title="main">
<polygon fill="white" stroke="black" points="610.163,-283 610.163,-303 647.837,-303 647.837,-283 610.163,-283"/>
<text text-anchor="middle" x="629" y="-289" font-family="Helvetica,sans-Serif" font-size="10.00">main</text>
</a>
</g>
</g>
<!-- Node4&#45;&gt;Node5 -->
<g id="edge4" class="edge"><title>Node4&#45;&gt;Node5</title>
<path fill="none" stroke="midnightblue" d="M501.476,-339.058C509.035,-336.801 516.757,-334.404 524,-332 554.564,-321.856 589.509,-308.35 610.112,-300.186"/>
<polygon fill="midnightblue" stroke="midnightblue" points="500.296,-335.756 491.687,-341.932 502.268,-342.473 500.296,-335.756"/>
</g>
<!-- Node6&#45;&gt;Node3 -->
<g id="edge6" class="edge"><title>Node6&#45;&gt;Node3</title>
<path fill="none" stroke="midnightblue" d="M335.691,-339.063C339.916,-340.936 344.06,-342.918 348,-345 365.451,-354.219 366.613,-361.661 384,-371 390.654,-374.574 397.905,-377.882 405.126,-380.856"/>
<polygon fill="midnightblue" stroke="midnightblue" points="336.931,-335.787 326.356,-335.139 334.219,-342.241 336.931,-335.787"/>
</g>
<!-- Node6&#45;&gt;Node4 -->
<g id="edge7" class="edge"><title>Node6&#45;&gt;Node4</title>
<path fill="none" stroke="midnightblue" d="M345.295,-331.919C367.819,-336.119 392.086,-340.643 411.873,-344.332"/>
<polygon fill="midnightblue" stroke="midnightblue" points="345.903,-328.473 335.431,-330.08 344.62,-335.354 345.903,-328.473"/>
</g>
<!-- Node7 -->
<g id="node7" class="node"><title>Node7</title>
<g id="a_node7"><a xlink:href="bcnvrt__main_8cpp.html#add0a6eef95e64e05a21758380072e136" target="_top" xlink:title="rfConvertTwoMovies">
<polygon fill="white" stroke="black" points="400.429,-303 400.429,-323 507.571,-323 507.571,-303 400.429,-303"/>
<text text-anchor="middle" x="454" y="-309" font-family="Helvetica,sans-Serif" font-size="10.00">rfConvertTwoMovies</text>
</a>
</g>
</g>
<!-- Node6&#45;&gt;Node7 -->
<g id="edge8" class="edge"><title>Node6&#45;&gt;Node7</title>
<path fill="none" stroke="midnightblue" d="M345.429,-316.646C363.673,-316.028 383.052,-315.371 400.262,-314.788"/>
<polygon fill="midnightblue" stroke="midnightblue" points="345.306,-313.149 335.431,-316.985 345.544,-320.145 345.306,-313.149"/>
</g>
<!-- Node7&#45;&gt;Node5 -->
<g id="edge9" class="edge"><title>Node7&#45;&gt;Node5</title>
<path fill="none" stroke="midnightblue" d="M517.831,-305.736C550.587,-301.949 588.249,-297.595 609.97,-295.084"/>
<polygon fill="midnightblue" stroke="midnightblue" points="517.378,-302.265 507.846,-306.891 518.182,-309.219 517.378,-302.265"/>
</g>
<!-- Node9 -->
<g id="node9" class="node"><title>Node9</title>
<g id="a_node9"><a xlink:href="visimatch_8cpp.html#a3c04138a5bfe5d72780bb7e82a18e627" target="_top" xlink:title="main">
<polygon fill="white" stroke="black" points="435.163,-186 435.163,-206 472.837,-206 472.837,-186 435.163,-186"/>
<text text-anchor="middle" x="454" y="-192" font-family="Helvetica,sans-Serif" font-size="10.00">main</text>
</a>
</g>
</g>
<!-- Node8&#45;&gt;Node9 -->
<g id="edge11" class="edge"><title>Node8&#45;&gt;Node9</title>
<path fill="none" stroke="midnightblue" d="M343.995,-196.616C376.824,-196.43 413.637,-196.222 434.982,-196.102"/>
<polygon fill="midnightblue" stroke="midnightblue" points="343.936,-193.116 333.956,-196.673 343.976,-200.116 343.936,-193.116"/>
</g>
<!-- Node13&#45;&gt;Node5 -->
<g id="edge16" class="edge"><title>Node13&#45;&gt;Node5</title>
<path fill="none" stroke="midnightblue" d="M512.111,-280.272C546.079,-284.003 586.91,-288.487 609.917,-291.014"/>
<polygon fill="midnightblue" stroke="midnightblue" points="512.139,-276.754 501.816,-279.142 511.374,-283.713 512.139,-276.754"/>
</g>
<!-- Node14&#45;&gt;Node5 -->
<g id="edge18" class="edge"><title>Node14&#45;&gt;Node5</title>
<path fill="none" stroke="midnightblue" d="M503.757,-247.835C510.584,-249.804 517.489,-251.887 524,-254 554.631,-263.938 589.556,-277.507 610.137,-285.74"/>
<polygon fill="midnightblue" stroke="midnightblue" points="504.441,-244.391 493.866,-245.043 502.539,-251.128 504.441,-244.391"/>
</g>
<!-- Node16 -->
<g id="node16" class="node"><title>Node16</title>
<g id="a_node16"><a xlink:href="classrc_engine_impl.html#a5faff49613b7e0e95b134cafdce659aa" target="_top" xlink:title="rcEngineImpl::internalReset">
<polygon fill="white" stroke="black" points="384.582,-39 384.582,-59 523.418,-59 523.418,-39 384.582,-39"/>
<text text-anchor="middle" x="454" y="-45" font-family="Helvetica,sans-Serif" font-size="10.00">rcEngineImpl::internalReset</text>
</a>
</g>
</g>
<!-- Node15&#45;&gt;Node16 -->
<g id="edge20" class="edge"><title>Node15&#45;&gt;Node16</title>
<path fill="none" stroke="midnightblue" d="M358.407,-38.3115C367.108,-39.2947 375.889,-40.2869 384.41,-41.2498"/>
<polygon fill="midnightblue" stroke="midnightblue" points="358.578,-34.8086 348.248,-37.1636 357.792,-41.7644 358.578,-34.8086"/>
</g>
<!-- Node18 -->
<g id="node18" class="node"><title>Node18</title>
<g id="a_node18"><a xlink:href="classrc_engine_impl.html#afe1f4a208e8b56aae9527dab0cd888e0" target="_top" xlink:title="rcEngineImpl::reset">
<polygon fill="white" stroke="black" points="402.926,-0 402.926,-20 505.074,-20 505.074,-0 402.926,-0"/>
<text text-anchor="middle" x="454" y="-6" font-family="Helvetica,sans-Serif" font-size="10.00">rcEngineImpl::reset</text>
</a>
</g>
</g>
<!-- Node15&#45;&gt;Node18 -->
<g id="edge22" class="edge"><title>Node15&#45;&gt;Node18</title>
<path fill="none" stroke="midnightblue" d="M358.216,-20.1746C373.469,-18.5373 388.971,-16.8731 402.9,-15.378"/>
<polygon fill="midnightblue" stroke="midnightblue" points="357.817,-16.6972 348.248,-21.2446 358.564,-23.6572 357.817,-16.6972"/>
</g>
<!-- Node17 -->
<g id="node17" class="node"><title>Node17</title>
<g id="a_node17"><a xlink:href="classrc_engine_impl.html#aef01c1029056616c7c9f880107d1d67c" target="_top" xlink:title="rcEngineImpl::rcEngineImpl">
<polygon fill="white" stroke="black" points="559.862,-39 559.862,-59 698.138,-59 698.138,-39 559.862,-39"/>
<text text-anchor="middle" x="629" y="-45" font-family="Helvetica,sans-Serif" font-size="10.00">rcEngineImpl::rcEngineImpl</text>
</a>
</g>
</g>
<!-- Node16&#45;&gt;Node17 -->
<g id="edge21" class="edge"><title>Node16&#45;&gt;Node17</title>
<path fill="none" stroke="midnightblue" d="M533.897,-49C542.494,-49 551.192,-49 559.648,-49"/>
<polygon fill="midnightblue" stroke="midnightblue" points="533.871,-45.5001 523.871,-49 533.871,-52.5001 533.871,-45.5001"/>
</g>
</g>
</svg>
