<?xml version="1.0" encoding="UTF-8" standalone="no"?>
<!DOCTYPE svg PUBLIC "-//W3C//DTD SVG 1.1//EN"
 "http://www.w3.org/Graphics/SVG/1.1/DTD/svg11.dtd">
<!-- Generated by graphviz version 2.32.0 (20130916.1925)
 -->
<!-- Title: otext::operator! Pages: 1 -->
<svg width="472pt" height="28pt"
 viewBox="0.00 0.00 472.00 28.00" xmlns="http://www.w3.org/2000/svg" xmlns:xlink="http://www.w3.org/1999/xlink">
<g id="graph0" class="graph" transform="scale(1 1) rotate(0) translate(4 24)">
<title>otext::operator!</title>
<polygon fill="white" stroke="white" points="-4,5 -4,-24 469,-24 469,5 -4,5"/>
<!-- Node1 -->
<g id="node1" class="node"><title>Node1</title>
<polygon fill="#bfbfbf" stroke="black" points="0.369629,-0 0.369629,-20 83.6304,-20 83.6304,-0 0.369629,-0"/>
<text text-anchor="middle" x="42" y="-6" font-family="Helvetica,sans-Serif" font-size="10.00">otext::operator!</text>
</g>
<!-- Node2 -->
<g id="node2" class="node"><title>Node2</title>
<g id="a_node2"><a xlink:href="classotext.html#ad6aa67deac46c4ee9dc778a606b1929f" target="_top" xlink:title="otext::error">
<polygon fill="white" stroke="black" points="119.825,-0 119.825,-20 184.175,-20 184.175,-0 119.825,-0"/>
<text text-anchor="middle" x="152" y="-6" font-family="Helvetica,sans-Serif" font-size="10.00">otext::error</text>
</a>
</g>
</g>
<!-- Node1&#45;&gt;Node2 -->
<g id="edge1" class="edge"><title>Node1&#45;&gt;Node2</title>
<path fill="none" stroke="midnightblue" d="M83.8302,-10C92.2386,-10 101.101,-10 109.532,-10"/>
<polygon fill="midnightblue" stroke="midnightblue" points="109.542,-13.5001 119.542,-10 109.542,-6.5001 109.542,-13.5001"/>
</g>
<!-- Node3 -->
<g id="node3" class="node"><title>Node3</title>
<g id="a_node3"><a xlink:href="classotext.html#afaa483edf2722928cd53b5dbd80bc4ed" target="_top" xlink:title="otext::error_number">
<polygon fill="white" stroke="black" points="220.091,-0 220.091,-20 323.909,-20 323.909,-0 220.091,-0"/>
<text text-anchor="middle" x="272" y="-6" font-family="Helvetica,sans-Serif" font-size="10.00">otext::error_number</text>
</a>
</g>
</g>
<!-- Node2&#45;&gt;Node3 -->
<g id="edge2" class="edge"><title>Node2&#45;&gt;Node3</title>
<path fill="none" stroke="midnightblue" d="M184.312,-10C192.164,-10 200.862,-10 209.63,-10"/>
<polygon fill="midnightblue" stroke="midnightblue" points="209.908,-13.5001 219.908,-10 209.908,-6.5001 209.908,-13.5001"/>
</g>
<!-- Node4 -->
<g id="node4" class="node"><title>Node4</title>
<g id="a_node4"><a xlink:href="classobuff.html#a3cbf2641a12dda140543d5d36bcb2a2a" target="_top" xlink:title="obuff::error_number">
<polygon fill="white" stroke="black" points="359.898,-0 359.898,-20 464.102,-20 464.102,-0 359.898,-0"/>
<text text-anchor="middle" x="412" y="-6" font-family="Helvetica,sans-Serif" font-size="10.00">obuff::error_number</text>
</a>
</g>
</g>
<!-- Node3&#45;&gt;Node4 -->
<g id="edge3" class="edge"><title>Node3&#45;&gt;Node4</title>
<path fill="none" stroke="midnightblue" d="M323.994,-10C332.291,-10 340.961,-10 349.478,-10"/>
<polygon fill="midnightblue" stroke="midnightblue" points="349.755,-13.5001 359.755,-10 349.755,-6.5001 349.755,-13.5001"/>
</g>
</g>
</svg>
