<?xml version="1.0" encoding="UTF-8" standalone="no"?>
<!DOCTYPE svg PUBLIC "-//W3C//DTD SVG 1.1//EN"
 "http://www.w3.org/Graphics/SVG/1.1/DTD/svg11.dtd">
<!-- Generated by graphviz version 2.32.0 (20130916.1925)
 -->
<!-- Title: rcBidirectionalRing::takeResource Pages: 1 -->
<svg width="600pt" height="105pt"
 viewBox="0.00 0.00 600.00 105.00" xmlns="http://www.w3.org/2000/svg" xmlns:xlink="http://www.w3.org/1999/xlink">
<g id="graph0" class="graph" transform="scale(1 1) rotate(0) translate(4 101)">
<title>rcBidirectionalRing::takeResource</title>
<polygon fill="white" stroke="white" points="-4,5 -4,-101 597,-101 597,5 -4,5"/>
<!-- Node1 -->
<g id="node1" class="node"><title>Node1</title>
<polygon fill="#bfbfbf" stroke="black" points="0.31543,-39 0.31543,-71 99.6846,-71 99.6846,-39 0.31543,-39"/>
<text text-anchor="start" x="8.31543" y="-57" font-family="Helvetica,sans-Serif" font-size="10.00">rcBidirectionalRing</text>
<text text-anchor="middle" x="50" y="-45" font-family="Helvetica,sans-Serif" font-size="10.00">::takeResource</text>
</g>
<!-- Node2 -->
<g id="node2" class="node"><title>Node2</title>
<g id="a_node2"><a xlink:href="classrc_engine_movie_capture.html#ac35da60d880240d3634b0768a7d6b3bf" target="_top" xlink:title="rcEngineMovieCapture\l::saveComplete">
<polygon fill="white" stroke="black" points="136.141,-65 136.141,-97 253.859,-97 253.859,-65 136.141,-65"/>
<text text-anchor="start" x="144.141" y="-83" font-family="Helvetica,sans-Serif" font-size="10.00">rcEngineMovieCapture</text>
<text text-anchor="middle" x="195" y="-71" font-family="Helvetica,sans-Serif" font-size="10.00">::saveComplete</text>
</a>
</g>
</g>
<!-- Node1&#45;&gt;Node2 -->
<g id="edge1" class="edge"><title>Node1&#45;&gt;Node2</title>
<path fill="none" stroke="midnightblue" d="M109.824,-65.6953C118.48,-67.2691 127.391,-68.8894 136.03,-70.4599"/>
<polygon fill="midnightblue" stroke="midnightblue" points="110.277,-62.2204 99.8125,-63.875 109.025,-69.1075 110.277,-62.2204"/>
</g>
<!-- Node4 -->
<g id="node4" class="node"><title>Node4</title>
<g id="a_node4"><a xlink:href="classrc_engine_movie_saver.html#a6abf59057b5ba519217a1f5f43853046" target="_top" xlink:title="rcEngineMovieSaver\l::saveHdlr">
<polygon fill="white" stroke="black" points="140.867,-14 140.867,-46 249.133,-46 249.133,-14 140.867,-14"/>
<text text-anchor="start" x="148.867" y="-32" font-family="Helvetica,sans-Serif" font-size="10.00">rcEngineMovieSaver</text>
<text text-anchor="middle" x="195" y="-20" font-family="Helvetica,sans-Serif" font-size="10.00">::saveHdlr</text>
</a>
</g>
</g>
<!-- Node1&#45;&gt;Node4 -->
<g id="edge3" class="edge"><title>Node1&#45;&gt;Node4</title>
<path fill="none" stroke="midnightblue" d="M109.824,-44.7161C119.985,-42.9397 130.499,-41.1016 140.509,-39.3516"/>
<polygon fill="midnightblue" stroke="midnightblue" points="109.06,-41.2964 99.8125,-46.4663 110.266,-48.1918 109.06,-41.2964"/>
</g>
<!-- Node3 -->
<g id="node3" class="node"><title>Node3</title>
<g id="a_node3"><a xlink:href="classrc_engine_movie_capture.html#a0d8bfe4fd32e11bdbdb2c0ad113425ff" target="_top" xlink:title="rcEngineMovieCapture::run">
<polygon fill="white" stroke="black" points="290.136,-71 290.136,-91 427.864,-91 427.864,-71 290.136,-71"/>
<text text-anchor="middle" x="359" y="-77" font-family="Helvetica,sans-Serif" font-size="10.00">rcEngineMovieCapture::run</text>
</a>
</g>
</g>
<!-- Node2&#45;&gt;Node3 -->
<g id="edge2" class="edge"><title>Node2&#45;&gt;Node3</title>
<path fill="none" stroke="midnightblue" d="M264.252,-81C272.733,-81 281.405,-81 289.884,-81"/>
<polygon fill="midnightblue" stroke="midnightblue" points="264.028,-77.5001 254.028,-81 264.028,-84.5001 264.028,-77.5001"/>
</g>
<!-- Node5 -->
<g id="node5" class="node"><title>Node5</title>
<g id="a_node5"><a xlink:href="classrc_engine_movie_saver.html#a1bb43ad35af079b3c901552205cd176d" target="_top" xlink:title="rcEngineMovieSaver\l::uninitializedHdlr">
<polygon fill="white" stroke="black" points="304.867,-17 304.867,-49 413.133,-49 413.133,-17 304.867,-17"/>
<text text-anchor="start" x="312.867" y="-35" font-family="Helvetica,sans-Serif" font-size="10.00">rcEngineMovieSaver</text>
<text text-anchor="middle" x="359" y="-23" font-family="Helvetica,sans-Serif" font-size="10.00">::uninitializedHdlr</text>
</a>
</g>
</g>
<!-- Node4&#45;&gt;Node5 -->
<g id="edge4" class="edge"><title>Node4&#45;&gt;Node5</title>
<path fill="none" stroke="midnightblue" d="M259.684,-31.1793C274.633,-31.4562 290.407,-31.7483 304.839,-32.0155"/>
<polygon fill="midnightblue" stroke="midnightblue" points="259.557,-27.6765 249.494,-30.9906 259.427,-34.6753 259.557,-27.6765"/>
</g>
<!-- Node6 -->
<g id="node6" class="node"><title>Node6</title>
<g id="a_node6"><a xlink:href="classrc_engine_movie_saver.html#a216e88884a3dd557507ea93dc3609a91" target="_top" xlink:title="rcEngineMovieSaver::run">
<polygon fill="white" stroke="black" points="463.862,-0 463.862,-20 592.138,-20 592.138,-0 463.862,-0"/>
<text text-anchor="middle" x="528" y="-6" font-family="Helvetica,sans-Serif" font-size="10.00">rcEngineMovieSaver::run</text>
</a>
</g>
</g>
<!-- Node4&#45;&gt;Node6 -->
<g id="edge6" class="edge"><title>Node4&#45;&gt;Node6</title>
<path fill="none" stroke="midnightblue" d="M259.33,-12.3199C269.512,-10.111 279.992,-8.20659 290,-7 348.522,0.0555813 415.759,-1.72438 463.633,-4.66091"/>
<polygon fill="midnightblue" stroke="midnightblue" points="258.247,-8.97715 249.277,-14.6157 259.805,-15.8015 258.247,-8.97715"/>
</g>
<!-- Node5&#45;&gt;Node6 -->
<g id="edge5" class="edge"><title>Node5&#45;&gt;Node6</title>
<path fill="none" stroke="midnightblue" d="M423.26,-24.2875C436.502,-22.4639 450.466,-20.5407 463.708,-18.7168"/>
<polygon fill="midnightblue" stroke="midnightblue" points="422.728,-20.8277 413.299,-25.6594 423.683,-27.7622 422.728,-20.8277"/>
</g>
</g>
</svg>
