<?xml version="1.0" encoding="UTF-8" standalone="no"?>
<!DOCTYPE svg PUBLIC "-//W3C//DTD SVG 1.1//EN"
 "http://www.w3.org/Graphics/SVG/1.1/DTD/svg11.dtd">
<!-- Generated by graphviz version 2.32.0 (20130916.1925)
 -->
<!-- Title: rcSegmentIteratorImpl::getFocus Pages: 1 -->
<svg width="304pt" height="193pt"
 viewBox="0.00 0.00 304.00 193.00" xmlns="http://www.w3.org/2000/svg" xmlns:xlink="http://www.w3.org/1999/xlink">
<g id="graph0" class="graph" transform="scale(1 1) rotate(0) translate(4 189)">
<title>rcSegmentIteratorImpl::getFocus</title>
<polygon fill="white" stroke="white" points="-4,5 -4,-189 301,-189 301,5 -4,5"/>
<!-- Node1 -->
<g id="node1" class="node"><title>Node1</title>
<polygon fill="#bfbfbf" stroke="black" points="0.537109,-76 0.537109,-108 115.463,-108 115.463,-76 0.537109,-76"/>
<text text-anchor="start" x="8.53711" y="-94" font-family="Helvetica,sans-Serif" font-size="10.00">rcSegmentIteratorImpl</text>
<text text-anchor="middle" x="58" y="-82" font-family="Helvetica,sans-Serif" font-size="10.00">::getFocus</text>
</g>
<!-- Node2 -->
<g id="node2" class="node"><title>Node2</title>
<g id="a_node2"><a xlink:href="classrc_graphics_segment_iterator_impl.html#a60b929e44f4314aa9c411b384bf9e636" target="_top" xlink:title="rcGraphicsSegmentIterator\lImpl::getFocus">
<polygon fill="white" stroke="black" points="155.976,-153 155.976,-185 292.024,-185 292.024,-153 155.976,-153"/>
<text text-anchor="start" x="163.976" y="-171" font-family="Helvetica,sans-Serif" font-size="10.00">rcGraphicsSegmentIterator</text>
<text text-anchor="middle" x="224" y="-159" font-family="Helvetica,sans-Serif" font-size="10.00">Impl::getFocus</text>
</a>
</g>
</g>
<!-- Node1&#45;&gt;Node2 -->
<g id="edge1" class="edge"><title>Node1&#45;&gt;Node2</title>
<path fill="none" stroke="midnightblue" d="M94.7497,-113.252C111.78,-122.947 132.619,-134.198 152,-143 159.649,-146.474 167.911,-149.836 176.002,-152.925"/>
<polygon fill="midnightblue" stroke="midnightblue" points="96.1271,-110.007 85.714,-108.052 92.6355,-116.074 96.1271,-110.007"/>
</g>
<!-- Node3 -->
<g id="node3" class="node"><title>Node3</title>
<g id="a_node3"><a xlink:href="classrc_scalar_segment_iterator_impl.html#ab41d563dac8ea0498592fef98cd7acc2" target="_top" xlink:title="rcScalarSegmentIteratorImpl\l::getFocus">
<polygon fill="white" stroke="black" points="152.365,-102 152.365,-134 295.635,-134 295.635,-102 152.365,-102"/>
<text text-anchor="start" x="160.365" y="-120" font-family="Helvetica,sans-Serif" font-size="10.00">rcScalarSegmentIteratorImpl</text>
<text text-anchor="middle" x="224" y="-108" font-family="Helvetica,sans-Serif" font-size="10.00">::getFocus</text>
</a>
</g>
</g>
<!-- Node1&#45;&gt;Node3 -->
<g id="edge2" class="edge"><title>Node1&#45;&gt;Node3</title>
<path fill="none" stroke="midnightblue" d="M125.969,-102.617C134.658,-103.995 143.581,-105.409 152.329,-106.796"/>
<polygon fill="midnightblue" stroke="midnightblue" points="126.324,-99.1296 115.899,-101.021 125.228,-106.043 126.324,-99.1296"/>
</g>
<!-- Node4 -->
<g id="node4" class="node"><title>Node4</title>
<g id="a_node4"><a xlink:href="classrc_position_segment_iterator_impl.html#a1a6797acd10f2334a61deef79d3ecac6" target="_top" xlink:title="rcPositionSegmentIterator\lImpl::getFocus">
<polygon fill="white" stroke="black" points="158.195,-51 158.195,-83 289.805,-83 289.805,-51 158.195,-51"/>
<text text-anchor="start" x="166.195" y="-69" font-family="Helvetica,sans-Serif" font-size="10.00">rcPositionSegmentIterator</text>
<text text-anchor="middle" x="224" y="-57" font-family="Helvetica,sans-Serif" font-size="10.00">Impl::getFocus</text>
</a>
</g>
</g>
<!-- Node1&#45;&gt;Node4 -->
<g id="edge3" class="edge"><title>Node1&#45;&gt;Node4</title>
<path fill="none" stroke="midnightblue" d="M125.935,-81.7965C136.539,-80.18 147.492,-78.5104 158.049,-76.901"/>
<polygon fill="midnightblue" stroke="midnightblue" points="125.257,-78.3593 115.899,-83.3264 126.312,-85.2793 125.257,-78.3593"/>
</g>
<!-- Node5 -->
<g id="node5" class="node"><title>Node5</title>
<g id="a_node5"><a xlink:href="classrc_video_segment_iterator_impl.html#a130dde036f5bc1c683e4a5868d319313" target="_top" xlink:title="rcVideoSegmentIteratorImpl\l::getFocus">
<polygon fill="white" stroke="black" points="153.837,-0 153.837,-32 294.163,-32 294.163,-0 153.837,-0"/>
<text text-anchor="start" x="161.837" y="-18" font-family="Helvetica,sans-Serif" font-size="10.00">rcVideoSegmentIteratorImpl</text>
<text text-anchor="middle" x="224" y="-6" font-family="Helvetica,sans-Serif" font-size="10.00">::getFocus</text>
</a>
</g>
</g>
<!-- Node1&#45;&gt;Node5 -->
<g id="edge4" class="edge"><title>Node1&#45;&gt;Node5</title>
<path fill="none" stroke="midnightblue" d="M95.5444,-70.7952C112.443,-61.3964 132.953,-50.5555 152,-42 159.664,-38.5577 167.933,-35.2116 176.026,-32.1286"/>
<polygon fill="midnightblue" stroke="midnightblue" points="93.5624,-67.8941 86.5595,-75.8446 96.992,-73.9964 93.5624,-67.8941"/>
</g>
</g>
</svg>
