<?xml version="1.0" encoding="UTF-8" standalone="no"?>
<!DOCTYPE svg PUBLIC "-//W3C//DTD SVG 1.1//EN"
 "http://www.w3.org/Graphics/SVG/1.1/DTD/svg11.dtd">
<!-- Generated by graphviz version 2.32.0 (20130916.1925)
 -->
<!-- Title: rcExecWithShmem::setParentDone Pages: 1 -->
<svg width="456pt" height="67pt"
 viewBox="0.00 0.00 456.00 67.00" xmlns="http://www.w3.org/2000/svg" xmlns:xlink="http://www.w3.org/1999/xlink">
<g id="graph0" class="graph" transform="scale(1 1) rotate(0) translate(4 63)">
<title>rcExecWithShmem::setParentDone</title>
<polygon fill="white" stroke="white" points="-4,5 -4,-63 453,-63 453,5 -4,5"/>
<!-- Node1 -->
<g id="node1" class="node"><title>Node1</title>
<polygon fill="#bfbfbf" stroke="black" points="0.359863,-19 0.359863,-39 173.64,-39 173.64,-19 0.359863,-19"/>
<text text-anchor="middle" x="87" y="-25" font-family="Helvetica,sans-Serif" font-size="10.00">rcExecWithShmem::setParentDone</text>
</g>
<!-- Node2 -->
<g id="node2" class="node"><title>Node2</title>
<g id="a_node2"><a xlink:href="rc__assemblyfcts__mac_8cpp.html#a515f00b424dd2c802ddd36560c5829e8" target="_top" xlink:title="genSync">
<polygon fill="white" stroke="black" points="250.542,-39 250.542,-59 305.458,-59 305.458,-39 250.542,-39"/>
<text text-anchor="middle" x="278" y="-45" font-family="Helvetica,sans-Serif" font-size="10.00">genSync</text>
</a>
</g>
</g>
<!-- Node1&#45;&gt;Node2 -->
<g id="edge1" class="edge"><title>Node1&#45;&gt;Node2</title>
<path fill="none" stroke="midnightblue" d="M173.652,-38.0637C197.056,-40.5404 221.191,-43.0943 240.245,-45.1106"/>
<polygon fill="midnightblue" stroke="midnightblue" points="239.959,-48.5998 250.272,-46.1716 240.696,-41.6386 239.959,-48.5998"/>
</g>
<!-- Node4 -->
<g id="node4" class="node"><title>Node4</title>
<g id="a_node4"><a xlink:href="classrc_exec_with_shmem.html#acbf1ee5be02bdf67313fda534116213a" target="_top" xlink:title="rcExecWithShmem::isValid">
<polygon fill="white" stroke="black" points="210.354,-0 210.354,-20 345.646,-20 345.646,-0 210.354,-0"/>
<text text-anchor="middle" x="278" y="-6" font-family="Helvetica,sans-Serif" font-size="10.00">rcExecWithShmem::isValid</text>
</a>
</g>
</g>
<!-- Node1&#45;&gt;Node4 -->
<g id="edge3" class="edge"><title>Node1&#45;&gt;Node4</title>
<path fill="none" stroke="midnightblue" d="M173.652,-20.3895C182.497,-19.5003 191.447,-18.6006 200.187,-17.7219"/>
<polygon fill="midnightblue" stroke="midnightblue" points="200.733,-21.1848 210.332,-16.702 200.032,-14.2199 200.733,-21.1848"/>
</g>
<!-- Node3 -->
<g id="node3" class="node"><title>Node3</title>
<g id="a_node3"><a xlink:href="rc__assemblymacros_8h.html#abe9643998bbd20c6144763753d2e4c80" target="_top" xlink:title="__genSync">
<polygon fill="white" stroke="black" points="381.98,-39 381.98,-59 448.02,-59 448.02,-39 381.98,-39"/>
<text text-anchor="middle" x="415" y="-45" font-family="Helvetica,sans-Serif" font-size="10.00">__genSync</text>
</a>
</g>
</g>
<!-- Node2&#45;&gt;Node3 -->
<g id="edge2" class="edge"><title>Node2&#45;&gt;Node3</title>
<path fill="none" stroke="midnightblue" d="M305.672,-49C324.426,-49 349.916,-49 371.458,-49"/>
<polygon fill="midnightblue" stroke="midnightblue" points="371.67,-52.5001 381.67,-49 371.669,-45.5001 371.67,-52.5001"/>
</g>
</g>
</svg>
