<?xml version="1.0" encoding="UTF-8" standalone="no"?>
<!DOCTYPE svg PUBLIC "-//W3C//DTD SVG 1.1//EN"
 "http://www.w3.org/Graphics/SVG/1.1/DTD/svg11.dtd">
<!-- Generated by graphviz version 2.32.0 (20130916.1925)
 -->
<!-- Title: rcSegmentIterator::getFocus Pages: 1 -->
<!--zoomable 386 -->
<svg id="main" version="1.1" xmlns="http://www.w3.org/2000/svg" xmlns:xlink="http://www.w3.org/1999/xlink" xml:space="preserve" onload="init(evt)">
        <defs>
                <circle id="rim" cx="0" cy="0" r="7"/>
                <circle id="rim2" cx="0" cy="0" r="3.5"/>
                <g id="zoomPlus">
                        <use xlink:href="#rim" fill="#404040">
                                <set attributeName="fill" to="#808080" begin="zoomplus.mouseover" end="zoomplus.mouseout"/>
                        </use>
                        <path d="M-4,0h8M0,-4v8" fill="none" stroke="white" stroke-width="1.5" pointer-events="none"/>
                </g>
                <g id="zoomMin">
                        <use xlink:href="#rim" fill="#404040">
                                <set attributeName="fill" to="#808080" begin="zoomminus.mouseover" end="zoomminus.mouseout"/>
                        </use>
                        <path d="M-4,0h8" fill="none" stroke="white" stroke-width="1.5" pointer-events="none"/>
                </g>
                <g id="dirArrow">
                        <path fill="none" stroke="white" stroke-width="1.5" d="M0,-3.0v7 M-2.5,-0.5L0,-3.0L2.5,-0.5"/>
                </g>
               <g id="resetDef">
                       <use xlink:href="#rim2" fill="#404040">
                               <set attributeName="fill" to="#808080" begin="reset.mouseover" end="reset.mouseout"/>
                       </use>
               </g>
        </defs>

<script type="text/javascript">
var viewWidth = 1642;
var viewHeight = 386;
var sectionId = 'dynsection-3';
</script>
<script xlink:href="svgpan.js"/>
<svg id="graph" class="graph">
<g id="viewport">
<title>rcSegmentIterator::getFocus</title>
<polygon fill="white" stroke="white" points="-4,5 -4,-382 1639,-382 1639,5 -4,5"/>
<!-- Node1 -->
<g id="node1" class="node"><title>Node1</title>
<polygon fill="#bfbfbf" stroke="black" points="0.20459,-185 0.20459,-217 101.795,-217 101.795,-185 0.20459,-185"/>
<text text-anchor="start" x="8.20459" y="-203" font-family="Helvetica,sans-Serif" font-size="10.00">rcSegmentIterator::</text>
<text text-anchor="middle" x="51" y="-191" font-family="Helvetica,sans-Serif" font-size="10.00">getFocus</text>
</g>
<!-- Node2 -->
<g id="node2" class="node"><title>Node2</title>
<g id="a_node2"><a xlink:href="classrc_c_s_v_exporter.html#a9ae5e2e7a0f6a907074a9b0005f0f636" target="_top" xlink:title="rcCSVExporter::exportTracks">
<polygon fill="white" stroke="black" points="138.166,-272 138.166,-292 283.834,-292 283.834,-272 138.166,-272"/>
<text text-anchor="middle" x="211" y="-278" font-family="Helvetica,sans-Serif" font-size="10.00">rcCSVExporter::exportTracks</text>
</a>
</g>
</g>
<!-- Node1&#45;&gt;Node2 -->
<g id="edge1" class="edge"><title>Node1&#45;&gt;Node2</title>
<path fill="none" stroke="midnightblue" d="M88.6277,-222.285C103.765,-230.861 121.583,-240.673 138,-249 154.065,-257.148 172.542,-265.599 186.756,-271.908"/>
<polygon fill="midnightblue" stroke="midnightblue" points="90.0061,-219.042 79.5853,-217.13 86.5391,-225.123 90.0061,-219.042"/>
</g>
<!-- Node8 -->
<g id="node8" class="node"><title>Node8</title>
<g id="a_node8"><a xlink:href="classrc_image_canvas_g_l.html#ac8b4aa9f1a730692eb00c7a096a1a751" target="_top" xlink:title="rcImageCanvasGL::findCell\lPositionTracks">
<polygon fill="white" stroke="black" points="141.862,-208 141.862,-240 280.138,-240 280.138,-208 141.862,-208"/>
<text text-anchor="start" x="149.862" y="-226" font-family="Helvetica,sans-Serif" font-size="10.00">rcImageCanvasGL::findCell</text>
<text text-anchor="middle" x="211" y="-214" font-family="Helvetica,sans-Serif" font-size="10.00">PositionTracks</text>
</a>
</g>
</g>
<!-- Node1&#45;&gt;Node8 -->
<g id="edge7" class="edge"><title>Node1&#45;&gt;Node8</title>
<path fill="none" stroke="midnightblue" d="M111.985,-209.732C121.742,-211.152 131.912,-212.633 141.847,-214.079"/>
<polygon fill="midnightblue" stroke="midnightblue" points="112.392,-206.254 101.992,-208.277 111.384,-213.181 112.392,-206.254"/>
</g>
<!-- Node17 -->
<g id="node17" class="node"><title>Node17</title>
<g id="a_node17"><a xlink:href="classrc_monitor.html#a8ed63a4e5c92bfa6747d35c91908fc9e" target="_top" xlink:title="rcMonitor::getPosition">
<polygon fill="white" stroke="black" points="154.646,-169 154.646,-189 267.354,-189 267.354,-169 154.646,-169"/>
<text text-anchor="middle" x="211" y="-175" font-family="Helvetica,sans-Serif" font-size="10.00">rcMonitor::getPosition</text>
</a>
</g>
</g>
<!-- Node1&#45;&gt;Node17 -->
<g id="edge16" class="edge"><title>Node1&#45;&gt;Node17</title>
<path fill="none" stroke="midnightblue" d="M111.996,-192.646C125.976,-190.7 140.801,-188.635 154.573,-186.718"/>
<polygon fill="midnightblue" stroke="midnightblue" points="111.414,-189.193 101.992,-194.039 112.379,-196.126 111.414,-189.193"/>
</g>
<!-- Node30 -->
<g id="node30" class="node"><title>Node30</title>
<g id="a_node30"><a xlink:href="classrc_monitor.html#aead09690e699175f01ad7da45ce4111f" target="_top" xlink:title="rcMonitor::paintScalarTrack\lFocus">
<polygon fill="white" stroke="black" points="142.053,-118 142.053,-150 279.947,-150 279.947,-118 142.053,-118"/>
<text text-anchor="start" x="150.053" y="-136" font-family="Helvetica,sans-Serif" font-size="10.00">rcMonitor::paintScalarTrack</text>
<text text-anchor="middle" x="211" y="-124" font-family="Helvetica,sans-Serif" font-size="10.00">Focus</text>
</a>
</g>
</g>
<!-- Node1&#45;&gt;Node30 -->
<g id="edge36" class="edge"><title>Node1&#45;&gt;Node30</title>
<path fill="none" stroke="midnightblue" d="M91.7602,-180.346C106.155,-173.2 122.647,-165.387 138,-159 145.452,-155.9 153.441,-152.857 161.288,-150.021"/>
<polygon fill="midnightblue" stroke="midnightblue" points="90.0048,-177.311 82.6371,-184.925 93.1447,-183.567 90.0048,-177.311"/>
</g>
<!-- Node3 -->
<g id="node3" class="node"><title>Node3</title>
<g id="a_node3"><a xlink:href="classrc_c_s_v_exporter.html#a17104d6206faff99633d785ed9fb00f9" target="_top" xlink:title="rcCSVExporter::exportExperiment">
<polygon fill="white" stroke="black" points="320.695,-297 320.695,-317 487.305,-317 487.305,-297 320.695,-297"/>
<text text-anchor="middle" x="404" y="-303" font-family="Helvetica,sans-Serif" font-size="10.00">rcCSVExporter::exportExperiment</text>
</a>
</g>
</g>
<!-- Node2&#45;&gt;Node3 -->
<g id="edge2" class="edge"><title>Node2&#45;&gt;Node3</title>
<path fill="none" stroke="midnightblue" d="M294.108,-292.747C304.808,-294.148 315.738,-295.578 326.344,-296.967"/>
<polygon fill="midnightblue" stroke="midnightblue" points="294.306,-289.243 283.937,-291.416 293.398,-296.184 294.306,-289.243"/>
</g>
<!-- Node4 -->
<g id="node4" class="node"><title>Node4</title>
<g id="a_node4"><a xlink:href="classrc_experiment_impl.html#a375595b76e0c9f303a7135e096391b9a" target="_top" xlink:title="rcExperimentImpl::saveTo">
<polygon fill="white" stroke="black" points="544.48,-336 544.48,-356 675.52,-356 675.52,-336 544.48,-336"/>
<text text-anchor="middle" x="610" y="-342" font-family="Helvetica,sans-Serif" font-size="10.00">rcExperimentImpl::saveTo</text>
</a>
</g>
</g>
<!-- Node3&#45;&gt;Node4 -->
<g id="edge3" class="edge"><title>Node3&#45;&gt;Node4</title>
<path fill="none" stroke="midnightblue" d="M467.413,-318.932C495.969,-324.391 529.424,-330.787 556.643,-335.991"/>
<polygon fill="midnightblue" stroke="midnightblue" points="468.014,-315.484 457.535,-317.043 466.7,-322.359 468.014,-315.484"/>
</g>
<!-- Node5 -->
<g id="node5" class="node"><title>Node5</title>
<g id="a_node5"><a xlink:href="classrc_experiment_domain_impl.html#a8db39db2ae092474f985b4c2997d5b72" target="_top" xlink:title="rcExperimentDomainImpl\l::saveExperiment">
<polygon fill="white" stroke="black" points="747.872,-330 747.872,-362 876.128,-362 876.128,-330 747.872,-330"/>
<text text-anchor="start" x="755.872" y="-348" font-family="Helvetica,sans-Serif" font-size="10.00">rcExperimentDomainImpl</text>
<text text-anchor="middle" x="812" y="-336" font-family="Helvetica,sans-Serif" font-size="10.00">::saveExperiment</text>
</a>
</g>
</g>
<!-- Node4&#45;&gt;Node5 -->
<g id="edge4" class="edge"><title>Node4&#45;&gt;Node5</title>
<path fill="none" stroke="midnightblue" d="M685.817,-346C706.145,-346 727.958,-346 747.589,-346"/>
<polygon fill="midnightblue" stroke="midnightblue" points="685.658,-342.5 675.658,-346 685.658,-349.5 685.658,-342.5"/>
</g>
<!-- Node6 -->
<g id="node6" class="node"><title>Node6</title>
<g id="a_node6"><a xlink:href="rc__main_8cpp.html#a3c04138a5bfe5d72780bb7e82a18e627" target="_top" xlink:title="main">
<polygon fill="white" stroke="black" points="982.163,-358 982.163,-378 1019.84,-378 1019.84,-358 982.163,-358"/>
<text text-anchor="middle" x="1001" y="-364" font-family="Helvetica,sans-Serif" font-size="10.00">main</text>
</a>
</g>
</g>
<!-- Node5&#45;&gt;Node6 -->
<g id="edge5" class="edge"><title>Node5&#45;&gt;Node6</title>
<path fill="none" stroke="midnightblue" d="M886.458,-354.642C921.173,-358.726 959.757,-363.265 981.825,-365.862"/>
<polygon fill="midnightblue" stroke="midnightblue" points="886.65,-351.141 876.31,-353.448 885.832,-358.093 886.65,-351.141"/>
</g>
<!-- Node7 -->
<g id="node7" class="node"><title>Node7</title>
<g id="a_node7"><a xlink:href="classrc_experiment_domain_impl.html#a29b2a73f82318c9faec49f9a1178f90b" target="_top" xlink:title="rcExperimentDomainImpl\l::notifyRequestSave">
<polygon fill="white" stroke="black" points="936.872,-307 936.872,-339 1065.13,-339 1065.13,-307 936.872,-307"/>
<text text-anchor="start" x="944.872" y="-325" font-family="Helvetica,sans-Serif" font-size="10.00">rcExperimentDomainImpl</text>
<text text-anchor="middle" x="1001" y="-313" font-family="Helvetica,sans-Serif" font-size="10.00">::notifyRequestSave</text>
</a>
</g>
</g>
<!-- Node5&#45;&gt;Node7 -->
<g id="edge6" class="edge"><title>Node5&#45;&gt;Node7</title>
<path fill="none" stroke="midnightblue" d="M886.516,-336.958C903.124,-334.915 920.614,-332.764 936.756,-330.779"/>
<polygon fill="midnightblue" stroke="midnightblue" points="885.808,-333.519 876.31,-338.213 886.662,-340.466 885.808,-333.519"/>
</g>
<!-- Node9 -->
<g id="node9" class="node"><title>Node9</title>
<g id="a_node9"><a xlink:href="classrc_image_canvas_g_l.html#a85e0b816bc87a7c933361451e7768810" target="_top" xlink:title="rcImageCanvasGL::enableCell\lGroup">
<polygon fill="white" stroke="black" points="327.909,-246 327.909,-278 480.091,-278 480.091,-246 327.909,-246"/>
<text text-anchor="start" x="335.909" y="-264" font-family="Helvetica,sans-Serif" font-size="10.00">rcImageCanvasGL::enableCell</text>
<text text-anchor="middle" x="404" y="-252" font-family="Helvetica,sans-Serif" font-size="10.00">Group</text>
</a>
</g>
</g>
<!-- Node8&#45;&gt;Node9 -->
<g id="edge8" class="edge"><title>Node8&#45;&gt;Node9</title>
<path fill="none" stroke="midnightblue" d="M290.031,-239.524C302.487,-242.003 315.353,-244.562 327.743,-247.027"/>
<polygon fill="midnightblue" stroke="midnightblue" points="290.637,-236.077 280.146,-237.558 289.271,-242.942 290.637,-236.077"/>
</g>
<!-- Node14 -->
<g id="node14" class="node"><title>Node14</title>
<g id="a_node14"><a xlink:href="classrc_image_canvas_g_l.html#a20505dcee342d0b1a7a3e357f524d9ff" target="_top" xlink:title="rcImageCanvasGL::findClosest\lCellGroup">
<polygon fill="white" stroke="black" points="326.803,-195 326.803,-227 481.197,-227 481.197,-195 326.803,-195"/>
<text text-anchor="start" x="334.803" y="-213" font-family="Helvetica,sans-Serif" font-size="10.00">rcImageCanvasGL::findClosest</text>
<text text-anchor="middle" x="404" y="-201" font-family="Helvetica,sans-Serif" font-size="10.00">CellGroup</text>
</a>
</g>
</g>
<!-- Node8&#45;&gt;Node14 -->
<g id="edge13" class="edge"><title>Node8&#45;&gt;Node14</title>
<path fill="none" stroke="midnightblue" d="M290.185,-218.679C302.264,-217.856 314.725,-217.008 326.761,-216.189"/>
<polygon fill="midnightblue" stroke="midnightblue" points="289.886,-215.191 280.146,-219.362 290.361,-222.175 289.886,-215.191"/>
</g>
<!-- Node10 -->
<g id="node10" class="node"><title>Node10</title>
<g id="a_node10"><a xlink:href="classrc_image_canvas_g_l.html#acb25a27713e20842e6bb0a741570480b" target="_top" xlink:title="rcImageCanvasGL::mouseRelease\lEvent">
<polygon fill="white" stroke="black" points="524.185,-285 524.185,-317 695.815,-317 695.815,-285 524.185,-285"/>
<text text-anchor="start" x="532.185" y="-303" font-family="Helvetica,sans-Serif" font-size="10.00">rcImageCanvasGL::mouseRelease</text>
<text text-anchor="middle" x="610" y="-291" font-family="Helvetica,sans-Serif" font-size="10.00">Event</text>
</a>
</g>
</g>
<!-- Node9&#45;&gt;Node10 -->
<g id="edge9" class="edge"><title>Node9&#45;&gt;Node10</title>
<path fill="none" stroke="midnightblue" d="M490.161,-278.281C501.723,-280.491 513.582,-282.758 525.121,-284.964"/>
<polygon fill="midnightblue" stroke="midnightblue" points="490.572,-274.796 480.093,-276.356 489.258,-281.672 490.572,-274.796"/>
</g>
<!-- Node11 -->
<g id="node11" class="node"><title>Node11</title>
<g id="a_node11"><a xlink:href="classrc_image_canvas_g_l.html#a99a6568df0e15227de9062331e1f2e0b" target="_top" xlink:title="rcImageCanvasGL::updateAnalysisRect">
<polygon fill="white" stroke="black" points="1110.35,-246 1110.35,-266 1303.65,-266 1303.65,-246 1110.35,-246"/>
<text text-anchor="middle" x="1207" y="-252" font-family="Helvetica,sans-Serif" font-size="10.00">rcImageCanvasGL::updateAnalysisRect</text>
</a>
</g>
</g>
<!-- Node9&#45;&gt;Node11 -->
<g id="edge10" class="edge"><title>Node9&#45;&gt;Node11</title>
<path fill="none" stroke="midnightblue" d="M490.479,-261.36C641.092,-260.232 952.685,-257.897 1110.28,-256.717"/>
<polygon fill="midnightblue" stroke="midnightblue" points="490.33,-257.861 480.356,-261.436 490.382,-264.86 490.33,-257.861"/>
</g>
<!-- Node12 -->
<g id="node12" class="node"><title>Node12</title>
<g id="a_node12"><a xlink:href="classrc_monitor.html#ae24f91aee12ee35053a43b405b0fd35c" target="_top" xlink:title="rcMonitor::updateAnalysisRect">
<polygon fill="white" stroke="black" points="1340.19,-246 1340.19,-266 1491.81,-266 1491.81,-246 1340.19,-246"/>
<text text-anchor="middle" x="1416" y="-252" font-family="Helvetica,sans-Serif" font-size="10.00">rcMonitor::updateAnalysisRect</text>
</a>
</g>
</g>
<!-- Node11&#45;&gt;Node12 -->
<g id="edge11" class="edge"><title>Node11&#45;&gt;Node12</title>
<path fill="none" stroke="midnightblue" d="M1314.21,-256C1322.97,-256 1331.7,-256 1340.16,-256"/>
<polygon fill="midnightblue" stroke="midnightblue" points="1313.93,-252.5 1303.93,-256 1313.93,-259.5 1313.93,-252.5"/>
</g>
<!-- Node13 -->
<g id="node13" class="node"><title>Node13</title>
<g id="a_node13"><a xlink:href="classrc_monitor.html#ac08d61628243cd2d0bf2f6388f42995b" target="_top" xlink:title="rcMonitor::rcMonitor">
<polygon fill="white" stroke="black" points="1528.55,-100 1528.55,-120 1633.45,-120 1633.45,-100 1528.55,-100"/>
<text text-anchor="middle" x="1581" y="-106" font-family="Helvetica,sans-Serif" font-size="10.00">rcMonitor::rcMonitor</text>
</a>
</g>
</g>
<!-- Node12&#45;&gt;Node13 -->
<g id="edge12" class="edge"><title>Node12&#45;&gt;Node13</title>
<path fill="none" stroke="midnightblue" d="M1482.09,-241.844C1485.56,-240.116 1488.89,-238.176 1492,-236 1536.15,-205.085 1565.42,-144.508 1575.8,-120.327"/>
<polygon fill="midnightblue" stroke="midnightblue" points="1480.43,-238.751 1472.65,-245.945 1483.22,-245.171 1480.43,-238.751"/>
</g>
<!-- Node15 -->
<g id="node15" class="node"><title>Node15</title>
<g id="a_node15"><a xlink:href="classrc_image_canvas_g_l.html#a81111b0e59530e373e19cc01144c0347" target="_top" xlink:title="rcImageCanvasGL::getTool\lTipText">
<polygon fill="white" stroke="black" points="541.414,-195 541.414,-227 678.586,-227 678.586,-195 541.414,-195"/>
<text text-anchor="start" x="549.414" y="-213" font-family="Helvetica,sans-Serif" font-size="10.00">rcImageCanvasGL::getTool</text>
<text text-anchor="middle" x="610" y="-201" font-family="Helvetica,sans-Serif" font-size="10.00">TipText</text>
</a>
</g>
</g>
<!-- Node14&#45;&gt;Node15 -->
<g id="edge14" class="edge"><title>Node14&#45;&gt;Node15</title>
<path fill="none" stroke="midnightblue" d="M491.511,-211C508.13,-211 525.31,-211 541.231,-211"/>
<polygon fill="midnightblue" stroke="midnightblue" points="491.252,-207.5 481.252,-211 491.252,-214.5 491.252,-207.5"/>
</g>
<!-- Node16 -->
<g id="node16" class="node"><title>Node16</title>
<g id="a_node16"><a xlink:href="classrc_image_canvas_g_l.html#ab57b93a733a4e2b8703a4ee083d46737" target="_top" xlink:title="rcImageCanvasGL::mouseMove\lEvent">
<polygon fill="white" stroke="black" points="732.303,-195 732.303,-227 891.697,-227 891.697,-195 732.303,-195"/>
<text text-anchor="start" x="740.303" y="-213" font-family="Helvetica,sans-Serif" font-size="10.00">rcImageCanvasGL::mouseMove</text>
<text text-anchor="middle" x="812" y="-201" font-family="Helvetica,sans-Serif" font-size="10.00">Event</text>
</a>
</g>
</g>
<!-- Node15&#45;&gt;Node16 -->
<g id="edge15" class="edge"><title>Node15&#45;&gt;Node16</title>
<path fill="none" stroke="midnightblue" d="M688.882,-211C703.024,-211 717.788,-211 731.964,-211"/>
<polygon fill="midnightblue" stroke="midnightblue" points="688.711,-207.5 678.711,-211 688.711,-214.5 688.711,-207.5"/>
</g>
<!-- Node18 -->
<g id="node18" class="node"><title>Node18</title>
<g id="a_node18"><a xlink:href="classrc_monitor.html#ab46f69006978606f59ce3740d45a0fe5" target="_top" xlink:title="rcMonitor::gatherTrackData">
<polygon fill="white" stroke="black" points="335.329,-145 335.329,-165 472.671,-165 472.671,-145 335.329,-145"/>
<text text-anchor="middle" x="404" y="-151" font-family="Helvetica,sans-Serif" font-size="10.00">rcMonitor::gatherTrackData</text>
</a>
</g>
</g>
<!-- Node17&#45;&gt;Node18 -->
<g id="edge17" class="edge"><title>Node17&#45;&gt;Node18</title>
<path fill="none" stroke="midnightblue" d="M277.628,-170.754C296.203,-168.42 316.454,-165.875 335.156,-163.525"/>
<polygon fill="midnightblue" stroke="midnightblue" points="276.987,-167.306 267.502,-172.026 277.86,-174.252 276.987,-167.306"/>
</g>
<!-- Node19 -->
<g id="node19" class="node"><title>Node19</title>
<g id="a_node19"><a xlink:href="classrc_monitor.html#a1a030f1c963f968121298bea1fa60321" target="_top" xlink:title="rcMonitor::updateCachedImage">
<polygon fill="white" stroke="black" points="531.961,-134 531.961,-154 688.039,-154 688.039,-134 531.961,-134"/>
<text text-anchor="middle" x="610" y="-140" font-family="Helvetica,sans-Serif" font-size="10.00">rcMonitor::updateCachedImage</text>
</a>
</g>
</g>
<!-- Node18&#45;&gt;Node19 -->
<g id="edge18" class="edge"><title>Node18&#45;&gt;Node19</title>
<path fill="none" stroke="midnightblue" d="M483.266,-150.78C499.203,-149.92 515.958,-149.017 531.856,-148.16"/>
<polygon fill="midnightblue" stroke="midnightblue" points="482.726,-147.304 472.929,-151.337 483.103,-154.294 482.726,-147.304"/>
</g>
<!-- Node20 -->
<g id="node20" class="node"><title>Node20</title>
<g id="a_node20"><a xlink:href="classrc_monitor.html#ace4a868b4792dd9865f2cbd13fac9199" target="_top" xlink:title="rcMonitor::displayTrackFocus">
<polygon fill="white" stroke="black" points="927.888,-123 927.888,-143 1074.11,-143 1074.11,-123 927.888,-123"/>
<text text-anchor="middle" x="1001" y="-129" font-family="Helvetica,sans-Serif" font-size="10.00">rcMonitor::displayTrackFocus</text>
</a>
</g>
</g>
<!-- Node19&#45;&gt;Node20 -->
<g id="edge19" class="edge"><title>Node19&#45;&gt;Node20</title>
<path fill="none" stroke="midnightblue" d="M698.449,-147.632C753.945,-149.193 827.244,-149.883 892,-146 903.594,-145.305 915.85,-144.193 927.781,-142.906"/>
<polygon fill="midnightblue" stroke="midnightblue" points="698.399,-144.129 688.3,-147.332 698.192,-151.126 698.399,-144.129"/>
</g>
<!-- Node28 -->
<g id="node28" class="node"><title>Node28</title>
<g id="a_node28"><a xlink:href="classrc_monitor.html#af50b9bec8be3cb25d58629ea722088dc" target="_top" xlink:title="rcMonitor::paintVideoTrack\lFocus">
<polygon fill="white" stroke="black" points="744.525,-105 744.525,-137 879.475,-137 879.475,-105 744.525,-105"/>
<text text-anchor="start" x="752.525" y="-123" font-family="Helvetica,sans-Serif" font-size="10.00">rcMonitor::paintVideoTrack</text>
<text text-anchor="middle" x="812" y="-111" font-family="Helvetica,sans-Serif" font-size="10.00">Focus</text>
</a>
</g>
</g>
<!-- Node19&#45;&gt;Node28 -->
<g id="edge33" class="edge"><title>Node19&#45;&gt;Node28</title>
<path fill="none" stroke="midnightblue" d="M698.156,-133.977C713.669,-132.193 729.6,-130.361 744.424,-128.656"/>
<polygon fill="midnightblue" stroke="midnightblue" points="697.574,-130.521 688.039,-135.14 698.374,-137.475 697.574,-130.521"/>
</g>
<!-- Node29 -->
<g id="node29" class="node"><title>Node29</title>
<g id="a_node29"><a xlink:href="classrc_monitor.html#a127ffb18fd0cc155f5b9d73d76be92b8" target="_top" xlink:title="rcMonitor::updateDisplay">
<polygon fill="white" stroke="black" points="748.697,-66 748.697,-86 875.303,-86 875.303,-66 748.697,-66"/>
<text text-anchor="middle" x="812" y="-72" font-family="Helvetica,sans-Serif" font-size="10.00">rcMonitor::updateDisplay</text>
</a>
</g>
</g>
<!-- Node19&#45;&gt;Node29 -->
<g id="edge35" class="edge"><title>Node19&#45;&gt;Node29</title>
<path fill="none" stroke="midnightblue" d="M642.3,-129.825C666.456,-119.254 700.893,-104.978 732,-95 742.343,-91.6824 753.611,-88.6416 764.312,-86.0112"/>
<polygon fill="midnightblue" stroke="midnightblue" points="640.669,-126.719 632.937,-133.962 643.498,-133.122 640.669,-126.719"/>
</g>
<!-- Node21 -->
<g id="node21" class="node"><title>Node21</title>
<g id="a_node21"><a xlink:href="classrc_monitor.html#a191fd1af79d5f43582d88755419429ac" target="_top" xlink:title="rcMonitor::internalUpdate\lDisplay">
<polygon fill="white" stroke="black" points="1142.86,-117 1142.86,-149 1271.14,-149 1271.14,-117 1142.86,-117"/>
<text text-anchor="start" x="1150.86" y="-135" font-family="Helvetica,sans-Serif" font-size="10.00">rcMonitor::internalUpdate</text>
<text text-anchor="middle" x="1207" y="-123" font-family="Helvetica,sans-Serif" font-size="10.00">Display</text>
</a>
</g>
</g>
<!-- Node20&#45;&gt;Node21 -->
<g id="edge20" class="edge"><title>Node20&#45;&gt;Node21</title>
<path fill="none" stroke="midnightblue" d="M1084.29,-133C1103.76,-133 1124.22,-133 1142.7,-133"/>
<polygon fill="midnightblue" stroke="midnightblue" points="1084.21,-129.5 1074.21,-133 1084.21,-136.5 1084.21,-129.5"/>
</g>
<!-- Node21&#45;&gt;Node12 -->
<g id="edge24" class="edge"><title>Node21&#45;&gt;Node12</title>
<path fill="none" stroke="midnightblue" d="M1231.49,-156.188C1256.43,-179.563 1297.96,-215.089 1340,-236 1348.08,-240.021 1357.07,-243.308 1365.94,-245.968"/>
<polygon fill="midnightblue" stroke="midnightblue" points="1233.66,-153.417 1224,-149.06 1228.83,-158.489 1233.66,-153.417"/>
</g>
<!-- Node22 -->
<g id="node22" class="node"><title>Node22</title>
<g id="a_node22"><a xlink:href="classrc_monitor.html#a365544a05e4cd905f6b9025ccb483117" target="_top" xlink:title="rcMonitor::paintEvent">
<polygon fill="white" stroke="black" points="1360.76,-207 1360.76,-227 1471.24,-227 1471.24,-207 1360.76,-207"/>
<text text-anchor="middle" x="1416" y="-213" font-family="Helvetica,sans-Serif" font-size="10.00">rcMonitor::paintEvent</text>
</a>
</g>
</g>
<!-- Node21&#45;&gt;Node22 -->
<g id="edge21" class="edge"><title>Node21&#45;&gt;Node22</title>
<path fill="none" stroke="midnightblue" d="M1246.02,-153.833C1271.94,-167.438 1307.37,-184.864 1340,-197 1350.1,-200.758 1361.22,-204.12 1371.72,-206.967"/>
<polygon fill="midnightblue" stroke="midnightblue" points="1247.39,-150.601 1236.92,-149.011 1244.11,-156.786 1247.39,-150.601"/>
</g>
<!-- Node23 -->
<g id="node23" class="node"><title>Node23</title>
<g id="a_node23"><a xlink:href="classrc_monitor.html#ad85bf9190c2c9332d24d2ee2dd4c1acf" target="_top" xlink:title="rcMonitor::settingChanged">
<polygon fill="white" stroke="black" points="1349.36,-168 1349.36,-188 1482.64,-188 1482.64,-168 1349.36,-168"/>
<text text-anchor="middle" x="1416" y="-174" font-family="Helvetica,sans-Serif" font-size="10.00">rcMonitor::settingChanged</text>
</a>
</g>
</g>
<!-- Node21&#45;&gt;Node23 -->
<g id="edge22" class="edge"><title>Node21&#45;&gt;Node23</title>
<path fill="none" stroke="midnightblue" d="M1281.38,-148.952C1310.53,-155.29 1343.18,-162.387 1368.9,-167.979"/>
<polygon fill="midnightblue" stroke="midnightblue" points="1281.75,-145.45 1271.23,-146.746 1280.26,-152.29 1281.75,-145.45"/>
</g>
<!-- Node24 -->
<g id="node24" class="node"><title>Node24</title>
<g id="a_node24"><a xlink:href="classrc_monitor.html#a6d7baed800c04560ee01809b016de702" target="_top" xlink:title="rcMonitor::updateAnalysis\lRectRotation">
<polygon fill="white" stroke="black" points="1350.47,-117 1350.47,-149 1481.53,-149 1481.53,-117 1350.47,-117"/>
<text text-anchor="start" x="1358.47" y="-135" font-family="Helvetica,sans-Serif" font-size="10.00">rcMonitor::updateAnalysis</text>
<text text-anchor="middle" x="1416" y="-123" font-family="Helvetica,sans-Serif" font-size="10.00">RectRotation</text>
</a>
</g>
</g>
<!-- Node21&#45;&gt;Node24 -->
<g id="edge25" class="edge"><title>Node21&#45;&gt;Node24</title>
<path fill="none" stroke="midnightblue" d="M1281.41,-133C1303.91,-133 1328.5,-133 1350.37,-133"/>
<polygon fill="midnightblue" stroke="midnightblue" points="1281.23,-129.5 1271.23,-133 1281.23,-136.5 1281.23,-129.5"/>
</g>
<!-- Node25 -->
<g id="node25" class="node"><title>Node25</title>
<g id="a_node25"><a xlink:href="classrc_monitor.html#ad8a4152cd70dd9aae4ad045378e26f06" target="_top" xlink:title="rcMonitor::updateCursorTime">
<polygon fill="white" stroke="black" points="1343.16,-78 1343.16,-98 1488.84,-98 1488.84,-78 1343.16,-78"/>
<text text-anchor="middle" x="1416" y="-84" font-family="Helvetica,sans-Serif" font-size="10.00">rcMonitor::updateCursorTime</text>
</a>
</g>
</g>
<!-- Node21&#45;&gt;Node25 -->
<g id="edge27" class="edge"><title>Node21&#45;&gt;Node25</title>
<path fill="none" stroke="midnightblue" d="M1281.38,-117.048C1310.53,-110.71 1343.18,-103.613 1368.9,-98.021"/>
<polygon fill="midnightblue" stroke="midnightblue" points="1280.26,-113.71 1271.23,-119.254 1281.75,-120.55 1280.26,-113.71"/>
</g>
<!-- Node26 -->
<g id="node26" class="node"><title>Node26</title>
<g id="a_node26"><a xlink:href="classrc_monitor.html#ac9231e871ef28821ed1b762eaeca7cfb" target="_top" xlink:title="rcMonitor::updateDisplay">
<polygon fill="white" stroke="black" points="1352.7,-39 1352.7,-59 1479.3,-59 1479.3,-39 1352.7,-39"/>
<text text-anchor="middle" x="1416" y="-45" font-family="Helvetica,sans-Serif" font-size="10.00">rcMonitor::updateDisplay</text>
</a>
</g>
</g>
<!-- Node21&#45;&gt;Node26 -->
<g id="edge29" class="edge"><title>Node21&#45;&gt;Node26</title>
<path fill="none" stroke="midnightblue" d="M1245.42,-111.944C1271.35,-98.0147 1307.02,-80.1465 1340,-68 1349.2,-64.6116 1359.25,-61.6106 1368.92,-59.0517"/>
<polygon fill="midnightblue" stroke="midnightblue" points="1243.45,-109.033 1236.33,-116.88 1246.79,-115.184 1243.45,-109.033"/>
</g>
<!-- Node27 -->
<g id="node27" class="node"><title>Node27</title>
<g id="a_node27"><a xlink:href="classrc_monitor.html#a86955f05aa2947844ad5d2c924f0558f" target="_top" xlink:title="rcMonitor::updateScale">
<polygon fill="white" stroke="black" points="1356.58,-0 1356.58,-20 1475.42,-20 1475.42,-0 1356.58,-0"/>
<text text-anchor="middle" x="1416" y="-6" font-family="Helvetica,sans-Serif" font-size="10.00">rcMonitor::updateScale</text>
</a>
</g>
</g>
<!-- Node21&#45;&gt;Node27 -->
<g id="edge31" class="edge"><title>Node21&#45;&gt;Node27</title>
<path fill="none" stroke="midnightblue" d="M1231.39,-109.468C1256.25,-85.7707 1297.73,-49.8235 1340,-29 1347.23,-25.4386 1355.19,-22.503 1363.14,-20.0953"/>
<polygon fill="midnightblue" stroke="midnightblue" points="1228.68,-107.226 1223.93,-116.697 1233.55,-112.256 1228.68,-107.226"/>
</g>
<!-- Node23&#45;&gt;Node13 -->
<g id="edge23" class="edge"><title>Node23&#45;&gt;Node13</title>
<path fill="none" stroke="midnightblue" d="M1471.2,-165.206C1478.28,-163.053 1485.38,-160.646 1492,-158 1518.5,-147.414 1547.17,-130.692 1564.34,-120.041"/>
<polygon fill="midnightblue" stroke="midnightblue" points="1470.23,-161.844 1461.59,-167.984 1472.17,-168.569 1470.23,-161.844"/>
</g>
<!-- Node24&#45;&gt;Node13 -->
<g id="edge26" class="edge"><title>Node24&#45;&gt;Node13</title>
<path fill="none" stroke="midnightblue" d="M1492.12,-122.4C1504.39,-120.669 1516.85,-118.911 1528.38,-117.284"/>
<polygon fill="midnightblue" stroke="midnightblue" points="1491.3,-118.981 1481.89,-123.844 1492.28,-125.912 1491.3,-118.981"/>
</g>
<!-- Node25&#45;&gt;Node13 -->
<g id="edge28" class="edge"><title>Node25&#45;&gt;Node13</title>
<path fill="none" stroke="midnightblue" d="M1498.99,-99.066C1509.03,-100.421 1519.06,-101.775 1528.47,-103.045"/>
<polygon fill="midnightblue" stroke="midnightblue" points="1499.35,-95.5827 1488.97,-97.7136 1498.41,-102.52 1499.35,-95.5827"/>
</g>
<!-- Node26&#45;&gt;Node13 -->
<g id="edge30" class="edge"><title>Node26&#45;&gt;Node13</title>
<path fill="none" stroke="midnightblue" d="M1472.38,-61.7081C1479.05,-63.6262 1485.72,-65.7307 1492,-68 1516.84,-76.9737 1544.08,-90.6069 1561.58,-99.8886"/>
<polygon fill="midnightblue" stroke="midnightblue" points="1473.22,-58.3093 1462.65,-59.0337 1471.36,-65.0589 1473.22,-58.3093"/>
</g>
<!-- Node27&#45;&gt;Node13 -->
<g id="edge32" class="edge"><title>Node27&#45;&gt;Node13</title>
<path fill="none" stroke="midnightblue" d="M1480.29,-23.5615C1484.34,-25.1802 1488.28,-26.9861 1492,-29 1526.33,-47.5803 1557.7,-82.5546 1571.94,-99.8238"/>
<polygon fill="midnightblue" stroke="midnightblue" points="1481.28,-20.2009 1470.69,-20.1147 1478.92,-26.7889 1481.28,-20.2009"/>
</g>
<!-- Node28&#45;&gt;Node20 -->
<g id="edge34" class="edge"><title>Node28&#45;&gt;Node20</title>
<path fill="none" stroke="midnightblue" d="M890.041,-125.944C902.465,-126.741 915.289,-127.564 927.598,-128.354"/>
<polygon fill="midnightblue" stroke="midnightblue" points="889.923,-122.429 879.719,-125.281 889.475,-129.415 889.923,-122.429"/>
</g>
</g>
</svg>
        <g id="navigator" transform="translate(0 0)" fill="#404254">
                <rect fill="#f2f5e9" fill-opacity="0.5" stroke="#606060" stroke-width=".5" x="0" y="0" width="60" height="60"/>
                <use id="zoomplus" xlink:href="#zoomPlus" x="17" y="9" onmousedown="handleZoom(evt,'in')"/>
                <use id="zoomminus" xlink:href="#zoomMin" x="42" y="9" onmousedown="handleZoom(evt,'out')"/>
                <use id="reset" xlink:href="#resetDef" x="30" y="36" onmousedown="handleReset()"/>
                <g id="arrowUp" xlink:href="#dirArrow" transform="translate(30 24)" onmousedown="handlePan(0,-1)">
                  <use xlink:href="#rim" fill="#404040">
                        <set attributeName="fill" to="#808080" begin="arrowUp.mouseover" end="arrowUp.mouseout"/>
                  </use>
                  <path fill="none" stroke="white" stroke-width="1.5" d="M0,-3.0v7 M-2.5,-0.5L0,-3.0L2.5,-0.5"/>
                </g>
                <g id="arrowRight" xlink:href="#dirArrow" transform="rotate(90) translate(36 -43)" onmousedown="handlePan(1,0)">
                  <use xlink:href="#rim" fill="#404040">
                        <set attributeName="fill" to="#808080" begin="arrowRight.mouseover" end="arrowRight.mouseout"/>
                  </use>
                  <path fill="none" stroke="white" stroke-width="1.5" d="M0,-3.0v7 M-2.5,-0.5L0,-3.0L2.5,-0.5"/>
                </g>
                <g id="arrowDown" xlink:href="#dirArrow" transform="rotate(180) translate(-30 -48)" onmousedown="handlePan(0,1)">
                  <use xlink:href="#rim" fill="#404040">
                        <set attributeName="fill" to="#808080" begin="arrowDown.mouseover" end="arrowDown.mouseout"/>
                  </use>
                  <path fill="none" stroke="white" stroke-width="1.5" d="M0,-3.0v7 M-2.5,-0.5L0,-3.0L2.5,-0.5"/>
                </g>
                <g id="arrowLeft" xlink:href="#dirArrow" transform="rotate(270) translate(-36 17)" onmousedown="handlePan(-1,0)">
                  <use xlink:href="#rim" fill="#404040">
                        <set attributeName="fill" to="#808080" begin="arrowLeft.mouseover" end="arrowLeft.mouseout"/>
                  </use>
                  <path fill="none" stroke="white" stroke-width="1.5" d="M0,-3.0v7 M-2.5,-0.5L0,-3.0L2.5,-0.5"/>
                </g>
        </g>
        <svg viewBox="0 0 15 15" width="100%" height="30px" preserveAspectRatio="xMaxYMin meet">
         <g id="arrow_out" transform="scale(0.3 0.3)">
          <a xlink:href="classrc_segment_iterator_ae0cfb93e96bd898b51a1e35153d0e74c_icgraph_org.svg" target="_base">
           <rect id="button" ry="5" rx="5" y="6" x="6" height="38" width="38"
                fill="#f2f5e9" fill-opacity="0.5" stroke="#606060" stroke-width="1.0"/>
           <path id="arrow"
             d="M 11.500037,31.436501 C 11.940474,20.09759 22.043105,11.32322 32.158766,21.979434 L 37.068811,17.246167 C 37.068811,17.246167 37.088388,32 37.088388,32 L 22.160133,31.978069 C 22.160133,31.978069 26.997745,27.140456 26.997745,27.140456 C 18.528582,18.264221 13.291696,25.230495 11.500037,31.436501 z"
             style="fill:#404040;"/>
          </a>
         </g>
        </svg>
</svg>
