<?xml version="1.0" encoding="UTF-8" standalone="no"?>
<!DOCTYPE svg PUBLIC "-//W3C//DTD SVG 1.1//EN"
 "http://www.w3.org/Graphics/SVG/1.1/DTD/svg11.dtd">
<!-- Generated by graphviz version 2.32.0 (20130916.1925)
 -->
<!-- Title: rcOptoKineticImage::decLogRMSImg Pages: 1 -->
<svg width="636pt" height="203pt"
 viewBox="0.00 0.00 636.00 203.00" xmlns="http://www.w3.org/2000/svg" xmlns:xlink="http://www.w3.org/1999/xlink">
<g id="graph0" class="graph" transform="scale(1 1) rotate(0) translate(4 199)">
<title>rcOptoKineticImage::decLogRMSImg</title>
<polygon fill="white" stroke="white" points="-4,5 -4,-199 633,-199 633,5 -4,5"/>
<!-- Node1 -->
<g id="node1" class="node"><title>Node1</title>
<polygon fill="#bfbfbf" stroke="black" points="0.0913086,-110 0.0913086,-142 103.909,-142 103.909,-110 0.0913086,-110"/>
<text text-anchor="start" x="8.09131" y="-128" font-family="Helvetica,sans-Serif" font-size="10.00">rcOptoKineticImage</text>
<text text-anchor="middle" x="52" y="-116" font-family="Helvetica,sans-Serif" font-size="10.00">::decLogRMSImg</text>
</g>
<!-- Node2 -->
<g id="node2" class="node"><title>Node2</title>
<g id="a_node2"><a xlink:href="classrc_opto_kinetic_image.html#a80a52ba9b2874e9de4d0072a6945bcc2" target="_top" xlink:title="rcOptoKineticImage\l::decrementU8">
<polygon fill="white" stroke="black" points="140.091,-110 140.091,-142 243.909,-142 243.909,-110 140.091,-110"/>
<text text-anchor="start" x="148.091" y="-128" font-family="Helvetica,sans-Serif" font-size="10.00">rcOptoKineticImage</text>
<text text-anchor="middle" x="192" y="-116" font-family="Helvetica,sans-Serif" font-size="10.00">::decrementU8</text>
</a>
</g>
</g>
<!-- Node1&#45;&gt;Node2 -->
<g id="edge1" class="edge"><title>Node1&#45;&gt;Node2</title>
<path fill="none" stroke="midnightblue" d="M103.994,-126C112.291,-126 120.961,-126 129.478,-126"/>
<polygon fill="midnightblue" stroke="midnightblue" points="129.755,-129.5 139.755,-126 129.755,-122.5 129.755,-129.5"/>
</g>
<!-- Node3 -->
<g id="node3" class="node"><title>Node3</title>
<g id="a_node3"><a xlink:href="classrc_window.html#a0ae0c2adbe34085eb07c93edd60b342a" target="_top" xlink:title="rcWindow::width">
<polygon fill="white" stroke="black" points="292.601,-175 292.601,-195 381.399,-195 381.399,-175 292.601,-175"/>
<text text-anchor="middle" x="337" y="-181" font-family="Helvetica,sans-Serif" font-size="10.00">rcWindow::width</text>
</a>
</g>
</g>
<!-- Node2&#45;&gt;Node3 -->
<g id="edge2" class="edge"><title>Node2&#45;&gt;Node3</title>
<path fill="none" stroke="midnightblue" d="M227.448,-142.19C243.325,-149.458 262.492,-157.962 280,-165 285.461,-167.195 291.268,-169.405 296.995,-171.513"/>
<polygon fill="midnightblue" stroke="midnightblue" points="295.888,-174.835 306.483,-174.946 298.27,-168.253 295.888,-174.835"/>
</g>
<!-- Node4 -->
<g id="node4" class="node"><title>Node4</title>
<g id="a_node4"><a xlink:href="classrc_window.html#a958e7e0bd74b12cbcb44e73a2692400a" target="_top" xlink:title="rcWindow::height">
<polygon fill="white" stroke="black" points="290.65,-136 290.65,-156 383.35,-156 383.35,-136 290.65,-136"/>
<text text-anchor="middle" x="337" y="-142" font-family="Helvetica,sans-Serif" font-size="10.00">rcWindow::height</text>
</a>
</g>
</g>
<!-- Node2&#45;&gt;Node4 -->
<g id="edge3" class="edge"><title>Node2&#45;&gt;Node4</title>
<path fill="none" stroke="midnightblue" d="M244.222,-133.164C255.875,-134.794 268.312,-136.533 280.147,-138.188"/>
<polygon fill="midnightblue" stroke="midnightblue" points="279.969,-141.698 290.358,-139.616 280.939,-134.765 279.969,-141.698"/>
</g>
<!-- Node5 -->
<g id="node5" class="node"><title>Node5</title>
<g id="a_node5"><a xlink:href="classrc_window.html#a9ab724dc45a3c3c2beee6c8ed558de1e" target="_top" xlink:title="rcWindow::depth">
<polygon fill="white" stroke="black" points="291.761,-97 291.761,-117 382.239,-117 382.239,-97 291.761,-97"/>
<text text-anchor="middle" x="337" y="-103" font-family="Helvetica,sans-Serif" font-size="10.00">rcWindow::depth</text>
</a>
</g>
</g>
<!-- Node2&#45;&gt;Node5 -->
<g id="edge4" class="edge"><title>Node2&#45;&gt;Node5</title>
<path fill="none" stroke="midnightblue" d="M244.222,-119.194C256.369,-117.58 269.366,-115.853 281.647,-114.222"/>
<polygon fill="midnightblue" stroke="midnightblue" points="282.307,-117.665 291.759,-112.878 281.385,-110.726 282.307,-117.665"/>
</g>
<!-- Node6 -->
<g id="node6" class="node"><title>Node6</title>
<g id="a_node6"><a xlink:href="classrc_window.html#a232627a15bd75725861721177a38df82" target="_top" xlink:title="rcWindow::rowPointer">
<polygon fill="white" stroke="black" points="280.375,-58 280.375,-78 393.625,-78 393.625,-58 280.375,-58"/>
<text text-anchor="middle" x="337" y="-64" font-family="Helvetica,sans-Serif" font-size="10.00">rcWindow::rowPointer</text>
</a>
</g>
</g>
<!-- Node2&#45;&gt;Node6 -->
<g id="edge5" class="edge"><title>Node2&#45;&gt;Node6</title>
<path fill="none" stroke="midnightblue" d="M228.324,-109.913C244.042,-102.927 262.839,-94.8028 280,-88 285.533,-85.8065 291.415,-83.5865 297.207,-81.4633"/>
<polygon fill="midnightblue" stroke="midnightblue" points="298.575,-84.6905 306.793,-78.0032 296.199,-78.1063 298.575,-84.6905"/>
</g>
<!-- Node7 -->
<g id="node7" class="node"><title>Node7</title>
<g id="a_node7"><a xlink:href="classrc_frame.html#a401a851fcb8a4328949d38cb34b572f6" target="_top" xlink:title="rcFrame::rowPointer">
<polygon fill="white" stroke="black" points="430.712,-117 430.712,-137 537.288,-137 537.288,-117 430.712,-117"/>
<text text-anchor="middle" x="484" y="-123" font-family="Helvetica,sans-Serif" font-size="10.00">rcFrame::rowPointer</text>
</a>
</g>
</g>
<!-- Node6&#45;&gt;Node7 -->
<g id="edge6" class="edge"><title>Node6&#45;&gt;Node7</title>
<path fill="none" stroke="midnightblue" d="M368.535,-78.0168C376.886,-80.996 385.873,-84.4258 394,-88 410.561,-95.2832 413.505,-99.5696 430,-107 434.754,-109.141 439.812,-111.254 444.844,-113.257"/>
<polygon fill="midnightblue" stroke="midnightblue" points="443.813,-116.611 454.403,-116.954 446.339,-110.082 443.813,-116.611"/>
</g>
<!-- Node8 -->
<g id="node8" class="node"><title>Node8</title>
<g id="a_node8"><a xlink:href="classrc_rect.html#a50236160751c949d8718f8d4d17f7923" target="_top" xlink:title="rcRect::y">
<polygon fill="white" stroke="black" points="456.276,-78 456.276,-98 511.724,-98 511.724,-78 456.276,-78"/>
<text text-anchor="middle" x="484" y="-84" font-family="Helvetica,sans-Serif" font-size="10.00">rcRect::y</text>
</a>
</g>
</g>
<!-- Node6&#45;&gt;Node8 -->
<g id="edge7" class="edge"><title>Node6&#45;&gt;Node8</title>
<path fill="none" stroke="midnightblue" d="M393.646,-75.6753C411.204,-78.0971 430.158,-80.7114 446.072,-82.9064"/>
<polygon fill="midnightblue" stroke="midnightblue" points="445.661,-86.3828 456.045,-84.2821 446.617,-79.4485 445.661,-86.3828"/>
</g>
<!-- Node10 -->
<g id="node10" class="node"><title>Node10</title>
<g id="a_node10"><a xlink:href="classrc_rect.html#ac0f95519a41dcf7e33bec85ccb8e7aff" target="_top" xlink:title="rcRect::x">
<polygon fill="white" stroke="black" points="456.276,-39 456.276,-59 511.724,-59 511.724,-39 456.276,-39"/>
<text text-anchor="middle" x="484" y="-45" font-family="Helvetica,sans-Serif" font-size="10.00">rcRect::x</text>
</a>
</g>
</g>
<!-- Node6&#45;&gt;Node10 -->
<g id="edge9" class="edge"><title>Node6&#45;&gt;Node10</title>
<path fill="none" stroke="midnightblue" d="M393.646,-60.7084C411.204,-58.4078 430.158,-55.9242 446.072,-53.8389"/>
<polygon fill="midnightblue" stroke="midnightblue" points="446.585,-57.3017 456.045,-52.532 445.675,-50.361 446.585,-57.3017"/>
</g>
<!-- Node12 -->
<g id="node12" class="node"><title>Node12</title>
<g id="a_node12"><a xlink:href="classrc_frame.html#aaef8303c840834284eb9c60d33bf40c1" target="_top" xlink:title="rcFrame::depth">
<polygon fill="white" stroke="black" points="442.099,-0 442.099,-20 525.901,-20 525.901,-0 442.099,-0"/>
<text text-anchor="middle" x="484" y="-6" font-family="Helvetica,sans-Serif" font-size="10.00">rcFrame::depth</text>
</a>
</g>
</g>
<!-- Node6&#45;&gt;Node12 -->
<g id="edge11" class="edge"><title>Node6&#45;&gt;Node12</title>
<path fill="none" stroke="midnightblue" d="M361.746,-57.956C380.275,-50.1756 406.695,-39.2075 430,-30 435.259,-27.9221 440.83,-25.7686 446.307,-23.6783"/>
<polygon fill="midnightblue" stroke="midnightblue" points="447.865,-26.8308 455.976,-20.0141 445.384,-20.285 447.865,-26.8308"/>
</g>
<!-- Node9 -->
<g id="node9" class="node"><title>Node9</title>
<g id="a_node9"><a xlink:href="classrc_pair.html#a87400f83938e920c405c40aa449d3607" target="_top" xlink:title="rcPair::y">
<polygon fill="white" stroke="black" points="574.665,-78 574.665,-98 627.335,-98 627.335,-78 574.665,-78"/>
<text text-anchor="middle" x="601" y="-84" font-family="Helvetica,sans-Serif" font-size="10.00">rcPair::y</text>
</a>
</g>
</g>
<!-- Node8&#45;&gt;Node9 -->
<g id="edge8" class="edge"><title>Node8&#45;&gt;Node9</title>
<path fill="none" stroke="midnightblue" d="M511.962,-88C527.576,-88 547.422,-88 564.317,-88"/>
<polygon fill="midnightblue" stroke="midnightblue" points="564.391,-91.5001 574.391,-88 564.391,-84.5001 564.391,-91.5001"/>
</g>
<!-- Node11 -->
<g id="node11" class="node"><title>Node11</title>
<g id="a_node11"><a xlink:href="classrc_pair.html#ad1a3cb1e7fdbe119ce1295514b1bb49d" target="_top" xlink:title="rcPair::x">
<polygon fill="white" stroke="black" points="574.665,-39 574.665,-59 627.335,-59 627.335,-39 574.665,-39"/>
<text text-anchor="middle" x="601" y="-45" font-family="Helvetica,sans-Serif" font-size="10.00">rcPair::x</text>
</a>
</g>
</g>
<!-- Node10&#45;&gt;Node11 -->
<g id="edge10" class="edge"><title>Node10&#45;&gt;Node11</title>
<path fill="none" stroke="midnightblue" d="M511.962,-49C527.576,-49 547.422,-49 564.317,-49"/>
<polygon fill="midnightblue" stroke="midnightblue" points="564.391,-52.5001 574.391,-49 564.391,-45.5001 564.391,-52.5001"/>
</g>
</g>
</svg>
