<?xml version="1.0" encoding="UTF-8" standalone="no"?>
<!DOCTYPE svg PUBLIC "-//W3C//DTD SVG 1.1//EN"
 "http://www.w3.org/Graphics/SVG/1.1/DTD/svg11.dtd">
<!-- Generated by graphviz version 2.32.0 (20130916.1925)
 -->
<!-- Title: rcNativeImporter::parseTime Pages: 1 -->
<svg width="980pt" height="242pt"
 viewBox="0.00 0.00 980.00 242.00" xmlns="http://www.w3.org/2000/svg" xmlns:xlink="http://www.w3.org/1999/xlink">
<g id="graph0" class="graph" transform="scale(1 1) rotate(0) translate(4 238)">
<title>rcNativeImporter::parseTime</title>
<polygon fill="white" stroke="white" points="-4,5 -4,-238 977,-238 977,5 -4,5"/>
<!-- Node1 -->
<g id="node1" class="node"><title>Node1</title>
<polygon fill="#bfbfbf" stroke="black" points="-0.166504,-155 -0.166504,-175 142.167,-175 142.167,-155 -0.166504,-155"/>
<text text-anchor="middle" x="71" y="-161" font-family="Helvetica,sans-Serif" font-size="10.00">rcNativeImporter::parseTime</text>
</g>
<!-- Node2 -->
<g id="node2" class="node"><title>Node2</title>
<g id="a_node2"><a xlink:href="classrc_x_m_l_element.html#a1defcb2d7e21f90e5686adc96e0656fc" target="_top" xlink:title="rcXMLElement::attributeValue">
<polygon fill="white" stroke="black" points="177.948,-214 177.948,-234 326.052,-234 326.052,-214 177.948,-214"/>
<text text-anchor="middle" x="252" y="-220" font-family="Helvetica,sans-Serif" font-size="10.00">rcXMLElement::attributeValue</text>
</a>
</g>
</g>
<!-- Node1&#45;&gt;Node2 -->
<g id="edge1" class="edge"><title>Node1&#45;&gt;Node2</title>
<path fill="none" stroke="midnightblue" d="M97.4913,-175.073C118.832,-183.338 150.175,-195.088 178,-204 185.74,-206.479 194.002,-208.928 202.081,-211.216"/>
<polygon fill="midnightblue" stroke="midnightblue" points="201.225,-214.611 211.797,-213.919 203.101,-207.867 201.225,-214.611"/>
</g>
<!-- Node3 -->
<g id="node3" class="node"><title>Node3</title>
<g id="a_node3"><a xlink:href="classrc_x_m_l_element.html#a6a94743b788276e26188e382a113b160" target="_top" xlink:title="rcXMLElement::content">
<polygon fill="white" stroke="black" points="192.032,-175 192.032,-195 311.968,-195 311.968,-175 192.032,-175"/>
<text text-anchor="middle" x="252" y="-181" font-family="Helvetica,sans-Serif" font-size="10.00">rcXMLElement::content</text>
</a>
</g>
</g>
<!-- Node1&#45;&gt;Node3 -->
<g id="edge2" class="edge"><title>Node1&#45;&gt;Node3</title>
<path fill="none" stroke="midnightblue" d="M142.232,-172.847C155.216,-174.298 168.767,-175.812 181.723,-177.26"/>
<polygon fill="midnightblue" stroke="midnightblue" points="181.636,-180.771 191.962,-178.404 182.413,-173.815 181.636,-180.771"/>
</g>
<!-- Node4 -->
<g id="node4" class="node"><title>Node4</title>
<g id="a_node4"><a xlink:href="rc__timestamp_8cpp.html#a557e9d876bafd7b69da64c0827169c7f" target="_top" xlink:title="convertStringToTimestamp">
<polygon fill="white" stroke="black" points="184.718,-136 184.718,-156 319.282,-156 319.282,-136 184.718,-136"/>
<text text-anchor="middle" x="252" y="-142" font-family="Helvetica,sans-Serif" font-size="10.00">convertStringToTimestamp</text>
</a>
</g>
</g>
<!-- Node1&#45;&gt;Node4 -->
<g id="edge3" class="edge"><title>Node1&#45;&gt;Node4</title>
<path fill="none" stroke="midnightblue" d="M142.232,-157.545C152.772,-156.426 163.686,-155.268 174.351,-154.136"/>
<polygon fill="midnightblue" stroke="midnightblue" points="174.906,-157.597 184.48,-153.061 174.167,-150.636 174.906,-157.597"/>
</g>
<!-- Node5 -->
<g id="node5" class="node"><title>Node5</title>
<g id="a_node5"><a xlink:href="textio_8cpp.html#a905a4c61e365d406069f00eb68db1ca5" target="_top" xlink:title="endl">
<polygon fill="white" stroke="black" points="234.547,-97 234.547,-117 269.453,-117 269.453,-97 234.547,-97"/>
<text text-anchor="middle" x="252" y="-103" font-family="Helvetica,sans-Serif" font-size="10.00">endl</text>
</a>
</g>
</g>
<!-- Node1&#45;&gt;Node5 -->
<g id="edge4" class="edge"><title>Node1&#45;&gt;Node5</title>
<path fill="none" stroke="midnightblue" d="M98.3814,-154.905C119.712,-146.897 150.596,-135.652 178,-127 193.278,-122.176 210.561,-117.411 224.475,-113.742"/>
<polygon fill="midnightblue" stroke="midnightblue" points="225.572,-117.073 234.368,-111.168 223.809,-110.299 225.572,-117.073"/>
</g>
<!-- Node6 -->
<g id="node6" class="node"><title>Node6</title>
<g id="a_node6"><a xlink:href="classotext.html#a5086c0fd5e3f551eae3027e5d23d3c30" target="_top" xlink:title="otext::put">
<polygon fill="white" stroke="black" points="362.431,-97 362.431,-117 419.569,-117 419.569,-97 362.431,-97"/>
<text text-anchor="middle" x="391" y="-103" font-family="Helvetica,sans-Serif" font-size="10.00">otext::put</text>
</a>
</g>
</g>
<!-- Node5&#45;&gt;Node6 -->
<g id="edge5" class="edge"><title>Node5&#45;&gt;Node6</title>
<path fill="none" stroke="midnightblue" d="M269.525,-107C289.819,-107 324.876,-107 351.958,-107"/>
<polygon fill="midnightblue" stroke="midnightblue" points="352.268,-110.5 362.268,-107 352.268,-103.5 352.268,-110.5"/>
</g>
<!-- Node7 -->
<g id="node7" class="node"><title>Node7</title>
<g id="a_node7"><a xlink:href="classotext.html#ab52b059090ba70eeeac469f9051d3a22" target="_top" xlink:title="otext::flush">
<polygon fill="white" stroke="black" points="477.82,-195 477.82,-215 542.18,-215 542.18,-195 477.82,-195"/>
<text text-anchor="middle" x="510" y="-201" font-family="Helvetica,sans-Serif" font-size="10.00">otext::flush</text>
</a>
</g>
</g>
<!-- Node6&#45;&gt;Node7 -->
<g id="edge6" class="edge"><title>Node6&#45;&gt;Node7</title>
<path fill="none" stroke="midnightblue" d="M397.8,-117.047C407.737,-133.439 429.526,-166.01 456,-185 459.742,-187.684 463.889,-190.056 468.167,-192.139"/>
<polygon fill="midnightblue" stroke="midnightblue" points="467.068,-195.478 477.635,-196.249 469.855,-189.057 467.068,-195.478"/>
</g>
<!-- Node9 -->
<g id="node9" class="node"><title>Node9</title>
<g id="a_node9"><a xlink:href="classobuff.html#a069bcd2767c0d7c8e2bc8cd26d91e267" target="_top" xlink:title="obuff::increment">
<polygon fill="white" stroke="black" points="466.236,-156 466.236,-176 553.764,-176 553.764,-156 466.236,-156"/>
<text text-anchor="middle" x="510" y="-162" font-family="Helvetica,sans-Serif" font-size="10.00">obuff::increment</text>
</a>
</g>
</g>
<!-- Node6&#45;&gt;Node9 -->
<g id="edge8" class="edge"><title>Node6&#45;&gt;Node9</title>
<path fill="none" stroke="midnightblue" d="M406.81,-117.119C419.502,-125.521 438.46,-137.439 456,-146 460.408,-148.151 465.11,-150.224 469.825,-152.166"/>
<polygon fill="midnightblue" stroke="midnightblue" points="468.841,-155.541 479.428,-155.954 471.41,-149.029 468.841,-155.541"/>
</g>
<!-- Node10 -->
<g id="node10" class="node"><title>Node10</title>
<g id="a_node10"><a xlink:href="classobuff.html#a51efd4e8e00303842fa762940aad86ec" target="_top" xlink:title="obuff::line_buffer">
<polygon fill="white" stroke="black" points="464.927,-117 464.927,-137 555.073,-137 555.073,-117 464.927,-117"/>
<text text-anchor="middle" x="510" y="-123" font-family="Helvetica,sans-Serif" font-size="10.00">obuff::line_buffer</text>
</a>
</g>
</g>
<!-- Node6&#45;&gt;Node10 -->
<g id="edge9" class="edge"><title>Node6&#45;&gt;Node10</title>
<path fill="none" stroke="midnightblue" d="M419.727,-111.74C430.18,-113.527 442.466,-115.627 454.523,-117.688"/>
<polygon fill="midnightblue" stroke="midnightblue" points="454.104,-121.167 464.551,-119.402 455.284,-114.267 454.104,-121.167"/>
</g>
<!-- Node11 -->
<g id="node11" class="node"><title>Node11</title>
<g id="a_node11"><a xlink:href="classobuff.html#a0711113beee11f9793f5ba9e8e64c641" target="_top" xlink:title="obuff::newline_mode">
<polygon fill="white" stroke="black" points="455.945,-78 455.945,-98 564.055,-98 564.055,-78 455.945,-78"/>
<text text-anchor="middle" x="510" y="-84" font-family="Helvetica,sans-Serif" font-size="10.00">obuff::newline_mode</text>
</a>
</g>
</g>
<!-- Node6&#45;&gt;Node11 -->
<g id="edge10" class="edge"><title>Node6&#45;&gt;Node11</title>
<path fill="none" stroke="midnightblue" d="M419.727,-102.497C427.667,-101.208 436.665,-99.7467 445.816,-98.2606"/>
<polygon fill="midnightblue" stroke="midnightblue" points="446.454,-101.703 455.764,-96.6452 445.332,-94.7935 446.454,-101.703"/>
</g>
<!-- Node12 -->
<g id="node12" class="node"><title>Node12</title>
<g id="a_node12"><a xlink:href="classobuff.html#a5bbb61ac15c672da7f7b2002bef6b128" target="_top" xlink:title="obuff::put">
<polygon fill="white" stroke="black" points="481.238,-39 481.238,-59 538.762,-59 538.762,-39 481.238,-39"/>
<text text-anchor="middle" x="510" y="-45" font-family="Helvetica,sans-Serif" font-size="10.00">obuff::put</text>
</a>
</g>
</g>
<!-- Node6&#45;&gt;Node12 -->
<g id="edge11" class="edge"><title>Node6&#45;&gt;Node12</title>
<path fill="none" stroke="midnightblue" d="M407.359,-96.8431C420.068,-88.6951 438.765,-77.2897 456,-69 460.985,-66.6021 466.339,-64.2924 471.658,-62.1478"/>
<polygon fill="midnightblue" stroke="midnightblue" points="473.05,-65.362 481.108,-58.4827 470.519,-58.8356 473.05,-65.362"/>
</g>
<!-- Node13 -->
<g id="node13" class="node"><title>Node13</title>
<g id="a_node13"><a xlink:href="classotext.html#a2a2435d80cce60cb88360c7bfe3f8445" target="_top" xlink:title="otext::set_error">
<polygon fill="white" stroke="black" points="468.375,-0 468.375,-20 551.625,-20 551.625,-0 468.375,-0"/>
<text text-anchor="middle" x="510" y="-6" font-family="Helvetica,sans-Serif" font-size="10.00">otext::set_error</text>
</a>
</g>
</g>
<!-- Node6&#45;&gt;Node13 -->
<g id="edge12" class="edge"><title>Node6&#45;&gt;Node13</title>
<path fill="none" stroke="midnightblue" d="M397.994,-96.8231C408.05,-80.563 429.81,-48.6611 456,-30 458.891,-27.9401 462.02,-26.0635 465.263,-24.3595"/>
<polygon fill="midnightblue" stroke="midnightblue" points="467.017,-27.4037 474.6,-20.005 464.058,-21.0597 467.017,-27.4037"/>
</g>
<!-- Node8 -->
<g id="node8" class="node"><title>Node8</title>
<g id="a_node8"><a xlink:href="classobuff.html#a8fb8969c450f4fdc037f8c51d35c87c7" target="_top" xlink:title="obuff::flush">
<polygon fill="white" stroke="black" points="609.627,-195 609.627,-215 674.373,-215 674.373,-195 609.627,-195"/>
<text text-anchor="middle" x="642" y="-201" font-family="Helvetica,sans-Serif" font-size="10.00">obuff::flush</text>
</a>
</g>
</g>
<!-- Node7&#45;&gt;Node8 -->
<g id="edge7" class="edge"><title>Node7&#45;&gt;Node8</title>
<path fill="none" stroke="midnightblue" d="M542.469,-205C559.509,-205 580.782,-205 599.196,-205"/>
<polygon fill="midnightblue" stroke="midnightblue" points="599.37,-208.5 609.37,-205 599.37,-201.5 599.37,-208.5"/>
</g>
<!-- Node14 -->
<g id="node14" class="node"><title>Node14</title>
<g id="a_node14"><a xlink:href="classobuff.html#ae388e9608d1c873d1feaf621f4044c25" target="_top" xlink:title="obuff::set_error">
<polygon fill="white" stroke="black" points="600.182,-0 600.182,-20 683.818,-20 683.818,-0 600.182,-0"/>
<text text-anchor="middle" x="642" y="-6" font-family="Helvetica,sans-Serif" font-size="10.00">obuff::set_error</text>
</a>
</g>
</g>
<!-- Node13&#45;&gt;Node14 -->
<g id="edge13" class="edge"><title>Node13&#45;&gt;Node14</title>
<path fill="none" stroke="midnightblue" d="M551.776,-10C563.76,-10 577.026,-10 589.583,-10"/>
<polygon fill="midnightblue" stroke="midnightblue" points="589.922,-13.5001 599.922,-10 589.922,-6.5001 589.922,-13.5001"/>
</g>
<!-- Node15 -->
<g id="node15" class="node"><title>Node15</title>
<g id="a_node15"><a xlink:href="class_t_c_p__client__data.html#a970f6bf6bb6e6166615813c5f7768381" target="_top" xlink:title="TCP_client_data::error">
<polygon fill="white" stroke="black" points="720.7,-0 720.7,-20 837.3,-20 837.3,-0 720.7,-0"/>
<text text-anchor="middle" x="779" y="-6" font-family="Helvetica,sans-Serif" font-size="10.00">TCP_client_data::error</text>
</a>
</g>
</g>
<!-- Node14&#45;&gt;Node15 -->
<g id="edge14" class="edge"><title>Node14&#45;&gt;Node15</title>
<path fill="none" stroke="midnightblue" d="M683.871,-10C692.216,-10 701.208,-10 710.206,-10"/>
<polygon fill="midnightblue" stroke="midnightblue" points="710.335,-13.5001 720.335,-10 710.335,-6.5001 710.335,-13.5001"/>
</g>
<!-- Node16 -->
<g id="node16" class="node"><title>Node16</title>
<g id="a_node16"><a xlink:href="class_t_c_p__socket.html#adb70059ca46476efe0ced51ed377a975" target="_top" xlink:title="TCP_socket::error">
<polygon fill="white" stroke="black" points="874.434,-0 874.434,-20 971.566,-20 971.566,-0 874.434,-0"/>
<text text-anchor="middle" x="923" y="-6" font-family="Helvetica,sans-Serif" font-size="10.00">TCP_socket::error</text>
</a>
</g>
</g>
<!-- Node15&#45;&gt;Node16 -->
<g id="edge15" class="edge"><title>Node15&#45;&gt;Node16</title>
<path fill="none" stroke="midnightblue" d="M837.348,-10C846.089,-10 855.117,-10 863.875,-10"/>
<polygon fill="midnightblue" stroke="midnightblue" points="863.998,-13.5001 873.998,-10 863.998,-6.5001 863.998,-13.5001"/>
</g>
</g>
</svg>
