<?xml version="1.0" encoding="UTF-8" standalone="no"?>
<!DOCTYPE svg PUBLIC "-//W3C//DTD SVG 1.1//EN"
 "http://www.w3.org/Graphics/SVG/1.1/DTD/svg11.dtd">
<!-- Generated by graphviz version 2.32.0 (20130916.1925)
 -->
<!-- Title: rcTime::getUnixTime Pages: 1 -->
<svg width="482pt" height="86pt"
 viewBox="0.00 0.00 482.00 86.00" xmlns="http://www.w3.org/2000/svg" xmlns:xlink="http://www.w3.org/1999/xlink">
<g id="graph0" class="graph" transform="scale(1 1) rotate(0) translate(4 82)">
<title>rcTime::getUnixTime</title>
<polygon fill="white" stroke="white" points="-4,5 -4,-82 479,-82 479,5 -4,5"/>
<!-- Node1 -->
<g id="node1" class="node"><title>Node1</title>
<polygon fill="#bfbfbf" stroke="black" points="0.248047,-19 0.248047,-39 107.752,-39 107.752,-19 0.248047,-19"/>
<text text-anchor="middle" x="54" y="-25" font-family="Helvetica,sans-Serif" font-size="10.00">rcTime::getUnixTime</text>
</g>
<!-- Node2 -->
<g id="node2" class="node"><title>Node2</title>
<g id="a_node2"><a xlink:href="classrc_time.html#a17c12913d7918dbb2f953df8708ade00" target="_top" xlink:title="rcTime::mReadTBR">
<polygon fill="white" stroke="black" points="144.011,-19 144.011,-39 247.989,-39 247.989,-19 144.011,-19"/>
<text text-anchor="middle" x="196" y="-25" font-family="Helvetica,sans-Serif" font-size="10.00">rcTime::mReadTBR</text>
</a>
</g>
</g>
<!-- Node1&#45;&gt;Node2 -->
<g id="edge1" class="edge"><title>Node1&#45;&gt;Node2</title>
<path fill="none" stroke="midnightblue" d="M117.989,-29C126.644,-29 135.443,-29 143.85,-29"/>
<polygon fill="midnightblue" stroke="midnightblue" points="117.928,-25.5001 107.928,-29 117.928,-32.5001 117.928,-25.5001"/>
</g>
<!-- Node3 -->
<g id="node3" class="node"><title>Node3</title>
<g id="a_node3"><a xlink:href="classrc_time.html#a9880463e8bdab63b4ed0df55b23e3e76" target="_top" xlink:title="rcTime::start">
<polygon fill="white" stroke="black" points="284.405,-39 284.405,-59 355.595,-59 355.595,-39 284.405,-39"/>
<text text-anchor="middle" x="320" y="-45" font-family="Helvetica,sans-Serif" font-size="10.00">rcTime::start</text>
</a>
</g>
</g>
<!-- Node2&#45;&gt;Node3 -->
<g id="edge2" class="edge"><title>Node2&#45;&gt;Node3</title>
<path fill="none" stroke="midnightblue" d="M258.075,-39.0124C267.006,-40.4764 275.935,-41.9402 284.096,-43.278"/>
<polygon fill="midnightblue" stroke="midnightblue" points="258.467,-35.5299 248.032,-37.3659 257.334,-42.4376 258.467,-35.5299"/>
</g>
<!-- Node6 -->
<g id="node6" class="node"><title>Node6</title>
<g id="a_node6"><a xlink:href="classrc_time.html#aac2f29bac0a4b756ffc63a98a9792f3a" target="_top" xlink:title="rcTime::end">
<polygon fill="white" stroke="black" points="285.787,-0 285.787,-20 354.213,-20 354.213,-0 285.787,-0"/>
<text text-anchor="middle" x="320" y="-6" font-family="Helvetica,sans-Serif" font-size="10.00">rcTime::end</text>
</a>
</g>
</g>
<!-- Node2&#45;&gt;Node6 -->
<g id="edge5" class="edge"><title>Node2&#45;&gt;Node6</title>
<path fill="none" stroke="midnightblue" d="M258.209,-19.4675C267.624,-18.0012 277.032,-16.536 285.537,-15.2115"/>
<polygon fill="midnightblue" stroke="midnightblue" points="257.374,-16.0552 248.032,-21.0524 258.452,-22.9718 257.374,-16.0552"/>
</g>
<!-- Node4 -->
<g id="node4" class="node"><title>Node4</title>
<g id="a_node4"><a xlink:href="classrc_time.html#a95254f8d3d2a46c44bc08c567867a1d9" target="_top" xlink:title="rcTime::rcTime">
<polygon fill="white" stroke="black" points="392.036,-58 392.036,-78 473.964,-78 473.964,-58 392.036,-58"/>
<text text-anchor="middle" x="433" y="-64" font-family="Helvetica,sans-Serif" font-size="10.00">rcTime::rcTime</text>
</a>
</g>
</g>
<!-- Node3&#45;&gt;Node4 -->
<g id="edge3" class="edge"><title>Node3&#45;&gt;Node4</title>
<path fill="none" stroke="midnightblue" d="M365.745,-56.659C374.389,-58.1386 383.395,-59.6802 391.88,-61.1326"/>
<polygon fill="midnightblue" stroke="midnightblue" points="366.264,-53.197 355.817,-54.9596 365.083,-60.0967 366.264,-53.197"/>
</g>
<!-- Node5 -->
<g id="node5" class="node"><title>Node5</title>
<g id="a_node5"><a xlink:href="classrc_time.html#a3991d0143ab9e2fbcf7f83c33ef991b5" target="_top" xlink:title="rcTime::reset">
<polygon fill="white" stroke="black" points="396.013,-19 396.013,-39 469.987,-39 469.987,-19 396.013,-19"/>
<text text-anchor="middle" x="433" y="-25" font-family="Helvetica,sans-Serif" font-size="10.00">rcTime::reset</text>
</a>
</g>
</g>
<!-- Node3&#45;&gt;Node5 -->
<g id="edge4" class="edge"><title>Node3&#45;&gt;Node5</title>
<path fill="none" stroke="midnightblue" d="M365.933,-40.904C375.856,-39.116 386.248,-37.2436 395.774,-35.5271"/>
<polygon fill="midnightblue" stroke="midnightblue" points="365.037,-37.5089 355.817,-42.7267 366.279,-44.398 365.037,-37.5089"/>
</g>
</g>
</svg>
