<?xml version="1.0" encoding="UTF-8" standalone="no"?>
<!DOCTYPE svg PUBLIC "-//W3C//DTD SVG 1.1//EN"
 "http://www.w3.org/Graphics/SVG/1.1/DTD/svg11.dtd">
<!-- Generated by graphviz version 2.32.0 (20130916.1925)
 -->
<!-- Title: rcEngineObserver::notifyWarning Pages: 1 -->
<svg width="442pt" height="91pt"
 viewBox="0.00 0.00 442.00 91.00" xmlns="http://www.w3.org/2000/svg" xmlns:xlink="http://www.w3.org/1999/xlink">
<g id="graph0" class="graph" transform="scale(1 1) rotate(0) translate(4 87)">
<title>rcEngineObserver::notifyWarning</title>
<polygon fill="white" stroke="white" points="-4,5 -4,-87 439,-87 439,5 -4,5"/>
<!-- Node1 -->
<g id="node1" class="node"><title>Node1</title>
<polygon fill="#bfbfbf" stroke="black" points="-0.0244141,-25 -0.0244141,-57 126.024,-57 126.024,-25 -0.0244141,-25"/>
<text text-anchor="start" x="7.97559" y="-43" font-family="Helvetica,sans-Serif" font-size="10.00">rcEngineObserver::notify</text>
<text text-anchor="middle" x="63" y="-31" font-family="Helvetica,sans-Serif" font-size="10.00">Warning</text>
</g>
<!-- Node2 -->
<g id="node2" class="node"><title>Node2</title>
<g id="a_node2"><a xlink:href="classrc_engine_movie_saver.html#a32276bec2dea00cc5439e6f7cd3d586c" target="_top" xlink:title="rcEngineMovieSaver\l::closeHdlr">
<polygon fill="white" stroke="black" points="161.867,-51 161.867,-83 270.133,-83 270.133,-51 161.867,-51"/>
<text text-anchor="start" x="169.867" y="-69" font-family="Helvetica,sans-Serif" font-size="10.00">rcEngineMovieSaver</text>
<text text-anchor="middle" x="216" y="-57" font-family="Helvetica,sans-Serif" font-size="10.00">::closeHdlr</text>
</a>
</g>
</g>
<!-- Node1&#45;&gt;Node2 -->
<g id="edge1" class="edge"><title>Node1&#45;&gt;Node2</title>
<path fill="none" stroke="midnightblue" d="M136.237,-53.4382C144.756,-54.905 153.33,-56.3812 161.524,-57.7922"/>
<polygon fill="midnightblue" stroke="midnightblue" points="136.738,-49.973 126.289,-51.7253 135.55,-56.8715 136.738,-49.973"/>
</g>
<!-- Node4 -->
<g id="node4" class="node"><title>Node4</title>
<g id="a_node4"><a xlink:href="classrc_engine_movie_saver.html#a6fe0c86eab7c6dd0cb3ea53b2104431c" target="_top" xlink:title="rcEngineMovieSaver\l::delayHdlr">
<polygon fill="white" stroke="black" points="161.867,-0 161.867,-32 270.133,-32 270.133,-0 161.867,-0"/>
<text text-anchor="start" x="169.867" y="-18" font-family="Helvetica,sans-Serif" font-size="10.00">rcEngineMovieSaver</text>
<text text-anchor="middle" x="216" y="-6" font-family="Helvetica,sans-Serif" font-size="10.00">::delayHdlr</text>
</a>
</g>
</g>
<!-- Node1&#45;&gt;Node4 -->
<g id="edge3" class="edge"><title>Node1&#45;&gt;Node4</title>
<path fill="none" stroke="midnightblue" d="M136.237,-29.0402C144.756,-27.6298 153.33,-26.2103 161.524,-24.8536"/>
<polygon fill="midnightblue" stroke="midnightblue" points="135.583,-25.6007 126.289,-30.6872 136.727,-32.5067 135.583,-25.6007"/>
</g>
<!-- Node3 -->
<g id="node3" class="node"><title>Node3</title>
<g id="a_node3"><a xlink:href="classrc_engine_movie_saver.html#a216e88884a3dd557507ea93dc3609a91" target="_top" xlink:title="rcEngineMovieSaver::run">
<polygon fill="white" stroke="black" points="305.862,-31 305.862,-51 434.138,-51 434.138,-31 305.862,-31"/>
<text text-anchor="middle" x="370" y="-37" font-family="Helvetica,sans-Serif" font-size="10.00">rcEngineMovieSaver::run</text>
</a>
</g>
</g>
<!-- Node2&#45;&gt;Node3 -->
<g id="edge2" class="edge"><title>Node2&#45;&gt;Node3</title>
<path fill="none" stroke="midnightblue" d="M280.079,-56.2101C290.127,-54.4914 300.485,-52.7197 310.423,-51.0197"/>
<polygon fill="midnightblue" stroke="midnightblue" points="279.429,-52.7704 270.162,-57.9065 280.609,-59.6702 279.429,-52.7704"/>
</g>
<!-- Node4&#45;&gt;Node3 -->
<g id="edge4" class="edge"><title>Node4&#45;&gt;Node3</title>
<path fill="none" stroke="midnightblue" d="M280.075,-26.3742C289.331,-27.8965 298.85,-29.4622 308.062,-30.9773"/>
<polygon fill="midnightblue" stroke="midnightblue" points="280.598,-22.9132 270.162,-24.7438 279.462,-29.8204 280.598,-22.9132"/>
</g>
</g>
</svg>
