<?xml version="1.0" encoding="UTF-8" standalone="no"?>
<!DOCTYPE svg PUBLIC "-//W3C//DTD SVG 1.1//EN"
 "http://www.w3.org/Graphics/SVG/1.1/DTD/svg11.dtd">
<!-- Generated by graphviz version 2.32.0 (20130916.1925)
 -->
<!-- Title: subprocess::~subprocess Pages: 1 -->
<svg width="604pt" height="106pt"
 viewBox="0.00 0.00 604.00 106.00" xmlns="http://www.w3.org/2000/svg" xmlns:xlink="http://www.w3.org/1999/xlink">
<g id="graph0" class="graph" transform="scale(1 1) rotate(0) translate(4 102)">
<title>subprocess::~subprocess</title>
<polygon fill="white" stroke="white" points="-4,5 -4,-102 601,-102 601,5 -4,5"/>
<!-- Node1 -->
<g id="node1" class="node"><title>Node1</title>
<polygon fill="#bfbfbf" stroke="black" points="0.164062,-38 0.164062,-58 129.836,-58 129.836,-38 0.164062,-38"/>
<text text-anchor="middle" x="65" y="-44" font-family="Helvetica,sans-Serif" font-size="10.00">subprocess::~subprocess</text>
</g>
<!-- Node2 -->
<g id="node2" class="node"><title>Node2</title>
<g id="a_node2"><a xlink:href="classsubprocess.html#a6c094be24bfb11f259116b7d1e38b7d0" target="_top" xlink:title="subprocess::close_stderr">
<polygon fill="white" stroke="black" points="287.419,-78 287.419,-98 414.581,-98 414.581,-78 287.419,-78"/>
<text text-anchor="middle" x="351" y="-84" font-family="Helvetica,sans-Serif" font-size="10.00">subprocess::close_stderr</text>
</a>
</g>
</g>
<!-- Node1&#45;&gt;Node2 -->
<g id="edge1" class="edge"><title>Node1&#45;&gt;Node2</title>
<path fill="none" stroke="midnightblue" d="M85.6559,-58.1614C105.369,-67.7448 136.896,-81.4437 166,-87 202.114,-93.8948 242.947,-94.7921 276.956,-93.6911"/>
<polygon fill="midnightblue" stroke="midnightblue" points="277.422,-97.1757 287.278,-93.2897 277.15,-90.181 277.422,-97.1757"/>
</g>
<!-- Node5 -->
<g id="node5" class="node"><title>Node5</title>
<g id="a_node5"><a xlink:href="classsubprocess.html#a93a5a36b980b0a8135690eca34a0fed8" target="_top" xlink:title="subprocess::close_stdin">
<polygon fill="white" stroke="black" points="289.638,-39 289.638,-59 412.362,-59 412.362,-39 289.638,-39"/>
<text text-anchor="middle" x="351" y="-45" font-family="Helvetica,sans-Serif" font-size="10.00">subprocess::close_stdin</text>
</a>
</g>
</g>
<!-- Node1&#45;&gt;Node5 -->
<g id="edge4" class="edge"><title>Node1&#45;&gt;Node5</title>
<path fill="none" stroke="midnightblue" d="M129.866,-47.8432C165.265,-47.7957 210.07,-47.8004 250,-48 259.471,-48.0474 269.446,-48.1199 279.281,-48.2048"/>
<polygon fill="midnightblue" stroke="midnightblue" points="279.42,-51.7062 289.452,-48.2972 279.484,-44.7064 279.42,-51.7062"/>
</g>
<!-- Node6 -->
<g id="node6" class="node"><title>Node6</title>
<g id="a_node6"><a xlink:href="classsubprocess.html#a513a73712c337d5406e87a2e67a38454" target="_top" xlink:title="subprocess::close_stdout">
<polygon fill="white" stroke="black" points="286.579,-0 286.579,-20 415.421,-20 415.421,-0 286.579,-0"/>
<text text-anchor="middle" x="351" y="-6" font-family="Helvetica,sans-Serif" font-size="10.00">subprocess::close_stdout</text>
</a>
</g>
</g>
<!-- Node1&#45;&gt;Node6 -->
<g id="edge6" class="edge"><title>Node1&#45;&gt;Node6</title>
<path fill="none" stroke="midnightblue" d="M130.089,-39.4247C173.437,-33.6247 230.813,-25.9475 276.09,-19.8894"/>
<polygon fill="midnightblue" stroke="midnightblue" points="276.696,-23.3395 286.144,-18.5441 275.768,-16.4013 276.696,-23.3395"/>
</g>
<!-- Node7 -->
<g id="node7" class="node"><title>Node7</title>
<g id="a_node7"><a xlink:href="classsubprocess.html#a9e2c0f10c8fd3ec2a4b37f4ae7b19f0d" target="_top" xlink:title="subprocess::kill">
<polygon fill="white" stroke="black" points="165.82,-58 165.82,-78 250.18,-78 250.18,-58 165.82,-58"/>
<text text-anchor="middle" x="208" y="-64" font-family="Helvetica,sans-Serif" font-size="10.00">subprocess::kill</text>
</a>
</g>
</g>
<!-- Node1&#45;&gt;Node7 -->
<g id="edge8" class="edge"><title>Node1&#45;&gt;Node7</title>
<path fill="none" stroke="midnightblue" d="M129.899,-57.0637C138.498,-58.2835 147.23,-59.522 155.575,-60.7057"/>
<polygon fill="midnightblue" stroke="midnightblue" points="155.137,-64.1785 165.529,-62.1176 156.12,-57.2478 155.137,-64.1785"/>
</g>
<!-- Node3 -->
<g id="node3" class="node"><title>Node3</title>
<g id="a_node3"><a xlink:href="textio_8cpp.html#acf3fee36b85acdf7fae42a766218d233" target="_top" xlink:title="close">
<polygon fill="white" stroke="black" points="452.328,-39 452.328,-59 491.672,-59 491.672,-39 452.328,-39"/>
<text text-anchor="middle" x="472" y="-45" font-family="Helvetica,sans-Serif" font-size="10.00">close</text>
</a>
</g>
</g>
<!-- Node2&#45;&gt;Node3 -->
<g id="edge2" class="edge"><title>Node2&#45;&gt;Node3</title>
<path fill="none" stroke="midnightblue" d="M384.947,-77.9096C394.941,-74.7936 405.937,-71.3097 416,-68 424.691,-65.1416 434.116,-61.9278 442.668,-58.9678"/>
<polygon fill="midnightblue" stroke="midnightblue" points="443.916,-62.2392 452.21,-55.646 441.615,-55.6283 443.916,-62.2392"/>
</g>
<!-- Node4 -->
<g id="node4" class="node"><title>Node4</title>
<g id="a_node4"><a xlink:href="classotext.html#ab8cc31aaff71191e9cb95a5330a7bc5f" target="_top" xlink:title="otext::close">
<polygon fill="white" stroke="black" points="528.709,-39 528.709,-59 595.291,-59 595.291,-39 528.709,-39"/>
<text text-anchor="middle" x="562" y="-45" font-family="Helvetica,sans-Serif" font-size="10.00">otext::close</text>
</a>
</g>
</g>
<!-- Node3&#45;&gt;Node4 -->
<g id="edge3" class="edge"><title>Node3&#45;&gt;Node4</title>
<path fill="none" stroke="midnightblue" d="M492.095,-49C499.807,-49 509.043,-49 518.208,-49"/>
<polygon fill="midnightblue" stroke="midnightblue" points="518.441,-52.5001 528.441,-49 518.441,-45.5001 518.441,-52.5001"/>
</g>
<!-- Node5&#45;&gt;Node3 -->
<g id="edge5" class="edge"><title>Node5&#45;&gt;Node3</title>
<path fill="none" stroke="midnightblue" d="M412.546,-49C422.832,-49 433.077,-49 442.05,-49"/>
<polygon fill="midnightblue" stroke="midnightblue" points="442.282,-52.5001 452.281,-49 442.281,-45.5001 442.282,-52.5001"/>
</g>
<!-- Node6&#45;&gt;Node3 -->
<g id="edge7" class="edge"><title>Node6&#45;&gt;Node3</title>
<path fill="none" stroke="midnightblue" d="M387.329,-20.0745C396.685,-22.8554 406.754,-25.9496 416,-29 424.738,-31.8829 434.177,-35.229 442.727,-38.3499"/>
<polygon fill="midnightblue" stroke="midnightblue" points="441.667,-41.6895 452.261,-41.8687 444.091,-35.1225 441.667,-41.6895"/>
</g>
<!-- Node7&#45;&gt;Node2 -->
<g id="edge11" class="edge"><title>Node7&#45;&gt;Node2</title>
<path fill="none" stroke="midnightblue" d="M250.542,-73.8925C259.013,-75.0941 268.159,-76.3914 277.354,-77.6957"/>
<polygon fill="midnightblue" stroke="midnightblue" points="276.929,-81.1703 287.321,-79.1094 277.912,-74.2396 276.929,-81.1703"/>
</g>
<!-- Node7&#45;&gt;Node5 -->
<g id="edge9" class="edge"><title>Node7&#45;&gt;Node5</title>
<path fill="none" stroke="midnightblue" d="M250.542,-62.4021C259.586,-61.1835 269.399,-59.8612 279.219,-58.5379"/>
<polygon fill="midnightblue" stroke="midnightblue" points="279.98,-61.967 289.423,-57.1628 279.046,-55.0297 279.98,-61.967"/>
</g>
<!-- Node7&#45;&gt;Node6 -->
<g id="edge10" class="edge"><title>Node7&#45;&gt;Node6</title>
<path fill="none" stroke="midnightblue" d="M226.624,-57.9214C241.964,-49.4313 264.976,-37.3658 286,-29 291.183,-26.9377 296.678,-24.9794 302.187,-23.1588"/>
<polygon fill="midnightblue" stroke="midnightblue" points="303.571,-26.3917 312.049,-20.0377 301.459,-19.7179 303.571,-26.3917"/>
</g>
</g>
</svg>
