<?xml version="1.0" encoding="UTF-8" standalone="no"?>
<!DOCTYPE svg PUBLIC "-//W3C//DTD SVG 1.1//EN"
 "http://www.w3.org/Graphics/SVG/1.1/DTD/svg11.dtd">
<!-- Generated by graphviz version 2.32.0 (20130916.1925)
 -->
<!-- Title: rcWriterManager::createWriterGroup Pages: 1 -->
<svg width="368pt" height="118pt"
 viewBox="0.00 0.00 368.00 118.00" xmlns="http://www.w3.org/2000/svg" xmlns:xlink="http://www.w3.org/1999/xlink">
<g id="graph0" class="graph" transform="scale(1 1) rotate(0) translate(4 114)">
<title>rcWriterManager::createWriterGroup</title>
<polygon fill="white" stroke="white" points="-4,5 -4,-114 365,-114 365,5 -4,5"/>
<!-- Node1 -->
<g id="node1" class="node"><title>Node1</title>
<polygon fill="#bfbfbf" stroke="black" points="-0.0581055,-33 -0.0581055,-65 150.058,-65 150.058,-33 -0.0581055,-33"/>
<text text-anchor="start" x="7.94189" y="-51" font-family="Helvetica,sans-Serif" font-size="10.00">rcWriterManager::createWriter</text>
<text text-anchor="middle" x="75" y="-39" font-family="Helvetica,sans-Serif" font-size="10.00">Group</text>
</g>
<!-- Node2 -->
<g id="node2" class="node"><title>Node2</title>
<g id="a_node2"><a xlink:href="classrc_engine_observer.html#a7929cfaa8af889be0bb2bebac9dcf33b" target="_top" xlink:title="rcEngineObserver::create\lWriterGroup">
<polygon fill="white" stroke="black" points="208.03,-78 208.03,-110 337.97,-110 337.97,-78 208.03,-78"/>
<text text-anchor="start" x="216.03" y="-96" font-family="Helvetica,sans-Serif" font-size="10.00">rcEngineObserver::create</text>
<text text-anchor="middle" x="273" y="-84" font-family="Helvetica,sans-Serif" font-size="10.00">WriterGroup</text>
</a>
</g>
</g>
<!-- Node1&#45;&gt;Node2 -->
<g id="edge1" class="edge"><title>Node1&#45;&gt;Node2</title>
<path fill="none" stroke="midnightblue" d="M145.93,-65.0555C162.84,-68.9378 180.968,-73.0998 198.055,-77.0229"/>
<polygon fill="midnightblue" stroke="midnightblue" points="197.449,-80.4748 207.979,-79.3013 199.016,-73.6523 197.449,-80.4748"/>
</g>
<!-- Node3 -->
<g id="node3" class="node"><title>Node3</title>
<g id="a_node3"><a xlink:href="classrc_x_m_l_name_mapper.html#ad00a9d906ed6295dc232a7d1df65bf5a" target="_top" xlink:title="rcXMLNameMapper::elementName">
<polygon fill="white" stroke="black" points="186.36,-39 186.36,-59 359.64,-59 359.64,-39 186.36,-39"/>
<text text-anchor="middle" x="273" y="-45" font-family="Helvetica,sans-Serif" font-size="10.00">rcXMLNameMapper::elementName</text>
</a>
</g>
</g>
<!-- Node1&#45;&gt;Node3 -->
<g id="edge2" class="edge"><title>Node1&#45;&gt;Node3</title>
<path fill="none" stroke="midnightblue" d="M150.099,-49C158.592,-49 167.34,-49 176.066,-49"/>
<polygon fill="midnightblue" stroke="midnightblue" points="176.283,-52.5001 186.283,-49 176.283,-45.5001 176.283,-52.5001"/>
</g>
<!-- Node4 -->
<g id="node4" class="node"><title>Node4</title>
<g id="a_node4"><a xlink:href="rc__xml_8cpp.html#a38ee196d36c43f79c29e72813cbf9044" target="_top" xlink:title="rfGetXMLNameMapper">
<polygon fill="white" stroke="black" points="213.315,-0 213.315,-20 332.685,-20 332.685,-0 213.315,-0"/>
<text text-anchor="middle" x="273" y="-6" font-family="Helvetica,sans-Serif" font-size="10.00">rfGetXMLNameMapper</text>
</a>
</g>
</g>
<!-- Node1&#45;&gt;Node4 -->
<g id="edge3" class="edge"><title>Node1&#45;&gt;Node4</title>
<path fill="none" stroke="midnightblue" d="M150.099,-34.2558C170.408,-30.2147 192.176,-25.8834 211.616,-22.0153"/>
<polygon fill="midnightblue" stroke="midnightblue" points="212.424,-25.423 221.549,-20.0387 211.058,-18.5576 212.424,-25.423"/>
</g>
</g>
</svg>
