<?xml version="1.0" encoding="UTF-8" standalone="no"?>
<!DOCTYPE svg PUBLIC "-//W3C//DTD SVG 1.1//EN"
 "http://www.w3.org/Graphics/SVG/1.1/DTD/svg11.dtd">
<!-- Generated by graphviz version 2.32.0 (20130916.1925)
 -->
<!-- Title: rcMovieConverter::getErrorString Pages: 1 -->
<svg width="384pt" height="118pt"
 viewBox="0.00 0.00 384.00 118.00" xmlns="http://www.w3.org/2000/svg" xmlns:xlink="http://www.w3.org/1999/xlink">
<g id="graph0" class="graph" transform="scale(1 1) rotate(0) translate(4 114)">
<title>rcMovieConverter::getErrorString</title>
<polygon fill="white" stroke="white" points="-4,5 -4,-114 381,-114 381,5 -4,5"/>
<!-- Node1 -->
<g id="node1" class="node"><title>Node1</title>
<polygon fill="#bfbfbf" stroke="black" points="0.70459,-33 0.70459,-65 137.295,-65 137.295,-33 0.70459,-33"/>
<text text-anchor="start" x="8.70459" y="-51" font-family="Helvetica,sans-Serif" font-size="10.00">rcMovieConverter::getError</text>
<text text-anchor="middle" x="69" y="-39" font-family="Helvetica,sans-Serif" font-size="10.00">String</text>
</g>
<!-- Node2 -->
<g id="node2" class="node"><title>Node2</title>
<g id="a_node2"><a xlink:href="classrc_experiment_impl.html#ac08b9d15f5bb7db0b85a6d67406f95fa" target="_top" xlink:title="rcExperimentImpl::export\lMovie">
<polygon fill="white" stroke="black" points="174.426,-78 174.426,-110 301.574,-110 301.574,-78 174.426,-78"/>
<text text-anchor="start" x="182.426" y="-96" font-family="Helvetica,sans-Serif" font-size="10.00">rcExperimentImpl::export</text>
<text text-anchor="middle" x="238" y="-84" font-family="Helvetica,sans-Serif" font-size="10.00">Movie</text>
</a>
</g>
</g>
<!-- Node1&#45;&gt;Node2 -->
<g id="edge1" class="edge"><title>Node1&#45;&gt;Node2</title>
<path fill="none" stroke="midnightblue" d="M139.787,-67.8049C152.359,-71.1925 165.357,-74.6949 177.599,-77.9936"/>
<polygon fill="midnightblue" stroke="midnightblue" points="140.385,-64.3413 129.819,-65.1189 138.564,-71.1003 140.385,-64.3413"/>
</g>
<!-- Node3 -->
<g id="node3" class="node"><title>Node3</title>
<g id="a_node3"><a xlink:href="bcnvrt__main_8cpp.html#accc22075ea7eb720aed5cad6e10344b9" target="_top" xlink:title="rfConvertMovie">
<polygon fill="white" stroke="black" points="196.101,-39 196.101,-59 279.899,-59 279.899,-39 196.101,-39"/>
<text text-anchor="middle" x="238" y="-45" font-family="Helvetica,sans-Serif" font-size="10.00">rfConvertMovie</text>
</a>
</g>
</g>
<!-- Node1&#45;&gt;Node3 -->
<g id="edge2" class="edge"><title>Node1&#45;&gt;Node3</title>
<path fill="none" stroke="midnightblue" d="M147.706,-49C164.289,-49 181.178,-49 195.741,-49"/>
<polygon fill="midnightblue" stroke="midnightblue" points="147.444,-45.5001 137.444,-49 147.444,-52.5001 147.444,-45.5001"/>
</g>
<!-- Node5 -->
<g id="node5" class="node"><title>Node5</title>
<g id="a_node5"><a xlink:href="bcnvrt__main_8cpp.html#add0a6eef95e64e05a21758380072e136" target="_top" xlink:title="rfConvertTwoMovies">
<polygon fill="white" stroke="black" points="184.429,-0 184.429,-20 291.571,-20 291.571,-0 184.429,-0"/>
<text text-anchor="middle" x="238" y="-6" font-family="Helvetica,sans-Serif" font-size="10.00">rfConvertTwoMovies</text>
</a>
</g>
</g>
<!-- Node1&#45;&gt;Node5 -->
<g id="edge4" class="edge"><title>Node1&#45;&gt;Node5</title>
<path fill="none" stroke="midnightblue" d="M147.327,-30.9415C163.297,-27.212 179.57,-23.4118 193.791,-20.0906"/>
<polygon fill="midnightblue" stroke="midnightblue" points="146.386,-27.5671 137.444,-33.2496 147.978,-34.3837 146.386,-27.5671"/>
</g>
<!-- Node4 -->
<g id="node4" class="node"><title>Node4</title>
<g id="a_node4"><a xlink:href="bcnvrt__main_8cpp.html#a3c04138a5bfe5d72780bb7e82a18e627" target="_top" xlink:title="main">
<polygon fill="white" stroke="black" points="338.163,-19 338.163,-39 375.837,-39 375.837,-19 338.163,-19"/>
<text text-anchor="middle" x="357" y="-25" font-family="Helvetica,sans-Serif" font-size="10.00">main</text>
</a>
</g>
</g>
<!-- Node3&#45;&gt;Node4 -->
<g id="edge3" class="edge"><title>Node3&#45;&gt;Node4</title>
<path fill="none" stroke="midnightblue" d="M289.911,-40.2972C307.133,-37.3534 325.247,-34.257 338.147,-32.0519"/>
<polygon fill="midnightblue" stroke="midnightblue" points="289.188,-36.87 279.921,-42.005 290.368,-43.7699 289.188,-36.87"/>
</g>
<!-- Node5&#45;&gt;Node4 -->
<g id="edge5" class="edge"><title>Node5&#45;&gt;Node4</title>
<path fill="none" stroke="midnightblue" d="M301.841,-20.205C315.111,-22.3599 328.081,-24.4661 338,-26.0769"/>
<polygon fill="midnightblue" stroke="midnightblue" points="302.113,-16.7034 291.681,-18.5551 300.991,-23.6129 302.113,-16.7034"/>
</g>
</g>
</svg>
