<?xml version="1.0" encoding="UTF-8" standalone="no"?>
<!DOCTYPE svg PUBLIC "-//W3C//DTD SVG 1.1//EN"
 "http://www.w3.org/Graphics/SVG/1.1/DTD/svg11.dtd">
<!-- Generated by graphviz version 2.32.0 (20130916.1925)
 -->
<!-- Title: rcVisualSegment::type Pages: 1 -->
<!--zoomable 137 -->
<svg id="main" version="1.1" xmlns="http://www.w3.org/2000/svg" xmlns:xlink="http://www.w3.org/1999/xlink" xml:space="preserve" onload="init(evt)">
        <defs>
                <circle id="rim" cx="0" cy="0" r="7"/>
                <circle id="rim2" cx="0" cy="0" r="3.5"/>
                <g id="zoomPlus">
                        <use xlink:href="#rim" fill="#404040">
                                <set attributeName="fill" to="#808080" begin="zoomplus.mouseover" end="zoomplus.mouseout"/>
                        </use>
                        <path d="M-4,0h8M0,-4v8" fill="none" stroke="white" stroke-width="1.5" pointer-events="none"/>
                </g>
                <g id="zoomMin">
                        <use xlink:href="#rim" fill="#404040">
                                <set attributeName="fill" to="#808080" begin="zoomminus.mouseover" end="zoomminus.mouseout"/>
                        </use>
                        <path d="M-4,0h8" fill="none" stroke="white" stroke-width="1.5" pointer-events="none"/>
                </g>
                <g id="dirArrow">
                        <path fill="none" stroke="white" stroke-width="1.5" d="M0,-3.0v7 M-2.5,-0.5L0,-3.0L2.5,-0.5"/>
                </g>
               <g id="resetDef">
                       <use xlink:href="#rim2" fill="#404040">
                               <set attributeName="fill" to="#808080" begin="reset.mouseover" end="reset.mouseout"/>
                       </use>
               </g>
        </defs>

<script type="text/javascript">
var viewWidth = 1154;
var viewHeight = 137;
var sectionId = 'dynsection-4';
</script>
<script xlink:href="svgpan.js"/>
<svg id="graph" class="graph">
<g id="viewport">
<title>rcVisualSegment::type</title>
<polygon fill="white" stroke="white" points="-4,5 -4,-133 1151,-133 1151,5 -4,5"/>
<!-- Node1 -->
<g id="node1" class="node"><title>Node1</title>
<polygon fill="#bfbfbf" stroke="black" points="0.0634766,-89 0.0634766,-109 115.937,-109 115.937,-89 0.0634766,-89"/>
<text text-anchor="middle" x="58" y="-95" font-family="Helvetica,sans-Serif" font-size="10.00">rcVisualSegment::type</text>
</g>
<!-- Node2 -->
<g id="node2" class="node"><title>Node2</title>
<g id="a_node2"><a xlink:href="classrc_image_canvas_g_l.html#ae182b135a9cabd5bc949fb6e670b3a93" target="_top" xlink:title="rcImageCanvasGL::draw">
<polygon fill="white" stroke="black" points="152.7,-109 152.7,-129 279.3,-129 279.3,-109 152.7,-109"/>
<text text-anchor="middle" x="216" y="-115" font-family="Helvetica,sans-Serif" font-size="10.00">rcImageCanvasGL::draw</text>
</a>
</g>
</g>
<!-- Node1&#45;&gt;Node2 -->
<g id="edge1" class="edge"><title>Node1&#45;&gt;Node2</title>
<path fill="none" stroke="midnightblue" d="M126.318,-107.63C135.028,-108.747 143.919,-109.887 152.546,-110.993"/>
<polygon fill="midnightblue" stroke="midnightblue" points="126.567,-104.134 116.203,-106.334 125.677,-111.077 126.567,-104.134"/>
</g>
<!-- Node3 -->
<g id="node3" class="node"><title>Node3</title>
<g id="a_node3"><a xlink:href="rc__engineimplbase_8h.html#afbe9682e1f0b2c20f3cb7966b93d3e63" target="_top" xlink:title="offsetGraphics">
<polygon fill="white" stroke="black" points="175.852,-70 175.852,-90 256.148,-90 256.148,-70 175.852,-70"/>
<text text-anchor="middle" x="216" y="-76" font-family="Helvetica,sans-Serif" font-size="10.00">offsetGraphics</text>
</a>
</g>
</g>
<!-- Node1&#45;&gt;Node3 -->
<g id="edge2" class="edge"><title>Node1&#45;&gt;Node3</title>
<path fill="none" stroke="midnightblue" d="M126.568,-90.7705C143.399,-88.7206 160.89,-86.5903 175.83,-84.7707"/>
<polygon fill="midnightblue" stroke="midnightblue" points="125.706,-87.3496 116.203,-92.033 126.553,-94.2982 125.706,-87.3496"/>
</g>
<!-- Node4 -->
<g id="node4" class="node"><title>Node4</title>
<g id="a_node4"><a xlink:href="classrc_engine_impl.html#a00ca0d227e480ddb5bd6be293b55d2c9" target="_top" xlink:title="rcEngineImpl::muscleTracker">
<polygon fill="white" stroke="black" points="498.442,-92 498.442,-112 643.558,-112 643.558,-92 498.442,-92"/>
<text text-anchor="middle" x="571" y="-98" font-family="Helvetica,sans-Serif" font-size="10.00">rcEngineImpl::muscleTracker</text>
</a>
</g>
</g>
<!-- Node3&#45;&gt;Node4 -->
<g id="edge3" class="edge"><title>Node3&#45;&gt;Node4</title>
<path fill="none" stroke="midnightblue" d="M258.228,-92.8375C275.837,-97.6847 296.736,-102.605 316,-105 377.159,-112.603 447.238,-111.011 498.273,-107.997"/>
<polygon fill="midnightblue" stroke="midnightblue" points="258.853,-89.3766 248.277,-90.0116 256.94,-96.1103 258.853,-89.3766"/>
</g>
<!-- Node5 -->
<g id="node5" class="node"><title>Node5</title>
<g id="a_node5"><a xlink:href="classrc_engine_impl.html#aab3e946be5962dd8efe509ed3708249f" target="_top" xlink:title="rcEngineImpl::postTracking\lResults">
<polygon fill="white" stroke="black" points="320.602,-13 320.602,-45 457.398,-45 457.398,-13 320.602,-13"/>
<text text-anchor="start" x="328.602" y="-31" font-family="Helvetica,sans-Serif" font-size="10.00">rcEngineImpl::postTracking</text>
<text text-anchor="middle" x="389" y="-19" font-family="Helvetica,sans-Serif" font-size="10.00">Results</text>
</a>
</g>
</g>
<!-- Node3&#45;&gt;Node5 -->
<g id="edge4" class="edge"><title>Node3&#45;&gt;Node5</title>
<path fill="none" stroke="midnightblue" d="M260.666,-66.9767C283.019,-60.3102 310.433,-52.1339 334.093,-45.0777"/>
<polygon fill="midnightblue" stroke="midnightblue" points="259.367,-63.7119 250.784,-69.924 261.367,-70.4199 259.367,-63.7119"/>
</g>
<!-- Node11 -->
<g id="node11" class="node"><title>Node11</title>
<g id="a_node11"><a xlink:href="classrc_engine_impl.html#a3e4efac4360b8c41a63965fddc3e91b2" target="_top" xlink:title="rcEngineImpl::produceDebug\lResults">
<polygon fill="white" stroke="black" points="316.239,-64 316.239,-96 461.761,-96 461.761,-64 316.239,-64"/>
<text text-anchor="start" x="324.239" y="-82" font-family="Helvetica,sans-Serif" font-size="10.00">rcEngineImpl::produceDebug</text>
<text text-anchor="middle" x="389" y="-70" font-family="Helvetica,sans-Serif" font-size="10.00">Results</text>
</a>
</g>
</g>
<!-- Node3&#45;&gt;Node11 -->
<g id="edge10" class="edge"><title>Node3&#45;&gt;Node11</title>
<path fill="none" stroke="midnightblue" d="M266.584,-80C282.025,-80 299.377,-80 316.027,-80"/>
<polygon fill="midnightblue" stroke="midnightblue" points="266.231,-76.5001 256.231,-80 266.231,-83.5001 266.231,-76.5001"/>
</g>
<!-- Node6 -->
<g id="node6" class="node"><title>Node6</title>
<g id="a_node6"><a xlink:href="classrc_engine_impl.html#a7eec21aabd0c657881fc6eac91787480" target="_top" xlink:title="rcEngineImpl::modelTracker">
<polygon fill="white" stroke="black" points="500.661,-19 500.661,-39 641.339,-39 641.339,-19 500.661,-19"/>
<text text-anchor="middle" x="571" y="-25" font-family="Helvetica,sans-Serif" font-size="10.00">rcEngineImpl::modelTracker</text>
</a>
</g>
</g>
<!-- Node5&#45;&gt;Node6 -->
<g id="edge5" class="edge"><title>Node5&#45;&gt;Node6</title>
<path fill="none" stroke="midnightblue" d="M467.873,-29C478.753,-29 489.874,-29 500.583,-29"/>
<polygon fill="midnightblue" stroke="midnightblue" points="467.538,-25.5001 457.537,-29 467.537,-32.5001 467.538,-25.5001"/>
</g>
<!-- Node7 -->
<g id="node7" class="node"><title>Node7</title>
<g id="a_node7"><a xlink:href="classrc_engine_impl.html#a3ad6dbc54b2a53acae4d345ff14974ae" target="_top" xlink:title="rcEngineImpl::analyzeFocusArea">
<polygon fill="white" stroke="black" points="680.631,-19 680.631,-39 843.369,-39 843.369,-19 680.631,-19"/>
<text text-anchor="middle" x="762" y="-25" font-family="Helvetica,sans-Serif" font-size="10.00">rcEngineImpl::analyzeFocusArea</text>
</a>
</g>
</g>
<!-- Node6&#45;&gt;Node7 -->
<g id="edge6" class="edge"><title>Node6&#45;&gt;Node7</title>
<path fill="none" stroke="midnightblue" d="M651.753,-29C661.227,-29 670.903,-29 680.389,-29"/>
<polygon fill="midnightblue" stroke="midnightblue" points="651.571,-25.5001 641.571,-29 651.571,-32.5001 651.571,-25.5001"/>
</g>
<!-- Node8 -->
<g id="node8" class="node"><title>Node8</title>
<g id="a_node8"><a xlink:href="classrc_engine_impl.html#ae320706cbcafd64f219018b9842c8290" target="_top" xlink:title="rcEngineImpl::analyze">
<polygon fill="white" stroke="black" points="879.808,-19 879.808,-39 994.192,-39 994.192,-19 879.808,-19"/>
<text text-anchor="middle" x="937" y="-25" font-family="Helvetica,sans-Serif" font-size="10.00">rcEngineImpl::analyze</text>
</a>
</g>
</g>
<!-- Node7&#45;&gt;Node8 -->
<g id="edge7" class="edge"><title>Node7&#45;&gt;Node8</title>
<path fill="none" stroke="midnightblue" d="M853.5,-29C862.423,-29 871.288,-29 879.716,-29"/>
<polygon fill="midnightblue" stroke="midnightblue" points="853.422,-25.5001 843.422,-29 853.422,-32.5001 853.422,-25.5001"/>
</g>
<!-- Node9 -->
<g id="node9" class="node"><title>Node9</title>
<g id="a_node9"><a xlink:href="classrc_engine_impl.html#a507e034c1e43ae1dd6ec95a11ec0bb02" target="_top" xlink:title="rcEngineImpl::process">
<polygon fill="white" stroke="black" points="1030.53,-39 1030.53,-59 1145.47,-59 1145.47,-39 1030.53,-39"/>
<text text-anchor="middle" x="1088" y="-45" font-family="Helvetica,sans-Serif" font-size="10.00">rcEngineImpl::process</text>
</a>
</g>
</g>
<!-- Node8&#45;&gt;Node9 -->
<g id="edge8" class="edge"><title>Node8&#45;&gt;Node9</title>
<path fill="none" stroke="midnightblue" d="M1004.33,-37.903C1012.92,-39.057 1021.67,-40.2308 1030.09,-41.3617"/>
<polygon fill="midnightblue" stroke="midnightblue" points="1004.71,-34.4227 994.331,-36.5611 1003.78,-41.3605 1004.71,-34.4227"/>
</g>
<!-- Node10 -->
<g id="node10" class="node"><title>Node10</title>
<g id="a_node10"><a xlink:href="classrc_engine_analyzer.html#a064037f0ec3e68fcb11dabbcba790cdd" target="_top" xlink:title="rcEngineAnalyzer::run">
<polygon fill="white" stroke="black" points="1030.81,-0 1030.81,-20 1145.19,-20 1145.19,-0 1030.81,-0"/>
<text text-anchor="middle" x="1088" y="-6" font-family="Helvetica,sans-Serif" font-size="10.00">rcEngineAnalyzer::run</text>
</a>
</g>
</g>
<!-- Node8&#45;&gt;Node10 -->
<g id="edge9" class="edge"><title>Node8&#45;&gt;Node10</title>
<path fill="none" stroke="midnightblue" d="M1004.47,-20.524C1013.19,-19.412 1022.06,-18.2812 1030.59,-17.1932"/>
<polygon fill="midnightblue" stroke="midnightblue" points="1003.81,-17.08 994.331,-21.8169 1004.69,-24.0238 1003.81,-17.08"/>
</g>
<!-- Node11&#45;&gt;Node4 -->
<g id="edge11" class="edge"><title>Node11&#45;&gt;Node4</title>
<path fill="none" stroke="midnightblue" d="M472.082,-90.0323C480.798,-91.0975 489.613,-92.1749 498.197,-93.2241"/>
<polygon fill="midnightblue" stroke="midnightblue" points="472.268,-86.529 461.917,-88.7898 471.418,-93.4773 472.268,-86.529"/>
</g>
</g>
</svg>
        <g id="navigator" transform="translate(0 0)" fill="#404254">
                <rect fill="#f2f5e9" fill-opacity="0.5" stroke="#606060" stroke-width=".5" x="0" y="0" width="60" height="60"/>
                <use id="zoomplus" xlink:href="#zoomPlus" x="17" y="9" onmousedown="handleZoom(evt,'in')"/>
                <use id="zoomminus" xlink:href="#zoomMin" x="42" y="9" onmousedown="handleZoom(evt,'out')"/>
                <use id="reset" xlink:href="#resetDef" x="30" y="36" onmousedown="handleReset()"/>
                <g id="arrowUp" xlink:href="#dirArrow" transform="translate(30 24)" onmousedown="handlePan(0,-1)">
                  <use xlink:href="#rim" fill="#404040">
                        <set attributeName="fill" to="#808080" begin="arrowUp.mouseover" end="arrowUp.mouseout"/>
                  </use>
                  <path fill="none" stroke="white" stroke-width="1.5" d="M0,-3.0v7 M-2.5,-0.5L0,-3.0L2.5,-0.5"/>
                </g>
                <g id="arrowRight" xlink:href="#dirArrow" transform="rotate(90) translate(36 -43)" onmousedown="handlePan(1,0)">
                  <use xlink:href="#rim" fill="#404040">
                        <set attributeName="fill" to="#808080" begin="arrowRight.mouseover" end="arrowRight.mouseout"/>
                  </use>
                  <path fill="none" stroke="white" stroke-width="1.5" d="M0,-3.0v7 M-2.5,-0.5L0,-3.0L2.5,-0.5"/>
                </g>
                <g id="arrowDown" xlink:href="#dirArrow" transform="rotate(180) translate(-30 -48)" onmousedown="handlePan(0,1)">
                  <use xlink:href="#rim" fill="#404040">
                        <set attributeName="fill" to="#808080" begin="arrowDown.mouseover" end="arrowDown.mouseout"/>
                  </use>
                  <path fill="none" stroke="white" stroke-width="1.5" d="M0,-3.0v7 M-2.5,-0.5L0,-3.0L2.5,-0.5"/>
                </g>
                <g id="arrowLeft" xlink:href="#dirArrow" transform="rotate(270) translate(-36 17)" onmousedown="handlePan(-1,0)">
                  <use xlink:href="#rim" fill="#404040">
                        <set attributeName="fill" to="#808080" begin="arrowLeft.mouseover" end="arrowLeft.mouseout"/>
                  </use>
                  <path fill="none" stroke="white" stroke-width="1.5" d="M0,-3.0v7 M-2.5,-0.5L0,-3.0L2.5,-0.5"/>
                </g>
        </g>
        <svg viewBox="0 0 15 15" width="100%" height="30px" preserveAspectRatio="xMaxYMin meet">
         <g id="arrow_out" transform="scale(0.3 0.3)">
          <a xlink:href="classrc_visual_segment_ab572864229856f1bef9317663e83620c_icgraph_org.svg" target="_base">
           <rect id="button" ry="5" rx="5" y="6" x="6" height="38" width="38"
                fill="#f2f5e9" fill-opacity="0.5" stroke="#606060" stroke-width="1.0"/>
           <path id="arrow"
             d="M 11.500037,31.436501 C 11.940474,20.09759 22.043105,11.32322 32.158766,21.979434 L 37.068811,17.246167 C 37.068811,17.246167 37.088388,32 37.088388,32 L 22.160133,31.978069 C 22.160133,31.978069 26.997745,27.140456 26.997745,27.140456 C 18.528582,18.264221 13.291696,25.230495 11.500037,31.436501 z"
             style="fill:#404040;"/>
          </a>
         </g>
        </svg>
</svg>
