<?xml version="1.0" encoding="UTF-8" standalone="no"?>
<!DOCTYPE svg PUBLIC "-//W3C//DTD SVG 1.1//EN"
 "http://www.w3.org/Graphics/SVG/1.1/DTD/svg11.dtd">
<!-- Generated by graphviz version 2.32.0 (20130916.1925)
 -->
<!-- Title: rcPositionSegmentIteratorImpl::advance Pages: 1 -->
<!--zoomable 345 -->
<svg id="main" version="1.1" xmlns="http://www.w3.org/2000/svg" xmlns:xlink="http://www.w3.org/1999/xlink" xml:space="preserve" onload="init(evt)">
        <defs>
                <circle id="rim" cx="0" cy="0" r="7"/>
                <circle id="rim2" cx="0" cy="0" r="3.5"/>
                <g id="zoomPlus">
                        <use xlink:href="#rim" fill="#404040">
                                <set attributeName="fill" to="#808080" begin="zoomplus.mouseover" end="zoomplus.mouseout"/>
                        </use>
                        <path d="M-4,0h8M0,-4v8" fill="none" stroke="white" stroke-width="1.5" pointer-events="none"/>
                </g>
                <g id="zoomMin">
                        <use xlink:href="#rim" fill="#404040">
                                <set attributeName="fill" to="#808080" begin="zoomminus.mouseover" end="zoomminus.mouseout"/>
                        </use>
                        <path d="M-4,0h8" fill="none" stroke="white" stroke-width="1.5" pointer-events="none"/>
                </g>
                <g id="dirArrow">
                        <path fill="none" stroke="white" stroke-width="1.5" d="M0,-3.0v7 M-2.5,-0.5L0,-3.0L2.5,-0.5"/>
                </g>
               <g id="resetDef">
                       <use xlink:href="#rim2" fill="#404040">
                               <set attributeName="fill" to="#808080" begin="reset.mouseover" end="reset.mouseout"/>
                       </use>
               </g>
        </defs>

<script type="text/javascript">
var viewWidth = 614;
var viewHeight = 345;
var sectionId = 'dynsection-4';
</script>
<script xlink:href="svgpan.js"/>
<svg id="graph" class="graph">
<g id="viewport">
<title>rcPositionSegmentIteratorImpl::advance</title>
<polygon fill="white" stroke="white" points="-4,5 -4,-341 611,-341 611,5 -4,5"/>
<!-- Node1 -->
<g id="node1" class="node"><title>Node1</title>
<polygon fill="#bfbfbf" stroke="black" points="0.194824,-118 0.194824,-150 131.805,-150 131.805,-118 0.194824,-118"/>
<text text-anchor="start" x="8.19482" y="-136" font-family="Helvetica,sans-Serif" font-size="10.00">rcPositionSegmentIterator</text>
<text text-anchor="middle" x="66" y="-124" font-family="Helvetica,sans-Serif" font-size="10.00">Impl::advance</text>
</g>
<!-- Node2 -->
<g id="node2" class="node"><title>Node2</title>
<g id="a_node2"><a xlink:href="classrc_segment_iterator_impl.html#a34e346184f63f0dbbe3ab6c114cbb646" target="_top" xlink:title="rcSegmentIteratorImpl\l::advanceNoLock">
<polygon fill="white" stroke="black" points="176.537,-211 176.537,-243 291.463,-243 291.463,-211 176.537,-211"/>
<text text-anchor="start" x="184.537" y="-229" font-family="Helvetica,sans-Serif" font-size="10.00">rcSegmentIteratorImpl</text>
<text text-anchor="middle" x="234" y="-217" font-family="Helvetica,sans-Serif" font-size="10.00">::advanceNoLock</text>
</a>
</g>
</g>
<!-- Node1&#45;&gt;Node2 -->
<g id="edge1" class="edge"><title>Node1&#45;&gt;Node2</title>
<path fill="none" stroke="midnightblue" d="M95.915,-150.199C123.527,-165.669 165.283,-189.062 195.454,-205.965"/>
<polygon fill="midnightblue" stroke="midnightblue" points="193.981,-209.152 204.416,-210.986 197.403,-203.045 193.981,-209.152"/>
</g>
<!-- Node8 -->
<g id="node8" class="node"><title>Node8</title>
<g id="a_node8"><a xlink:href="classrc_position_segment_iterator_impl.html#a4d2a0b059a564a1c9544e7ebc2446769" target="_top" xlink:title="rcPositionSegmentIterator\lImpl::lock">
<polygon fill="white" stroke="black" points="168.195,-144 168.195,-176 299.805,-176 299.805,-144 168.195,-144"/>
<text text-anchor="start" x="176.195" y="-162" font-family="Helvetica,sans-Serif" font-size="10.00">rcPositionSegmentIterator</text>
<text text-anchor="middle" x="234" y="-150" font-family="Helvetica,sans-Serif" font-size="10.00">Impl::lock</text>
</a>
</g>
</g>
<!-- Node1&#45;&gt;Node8 -->
<g id="edge11" class="edge"><title>Node1&#45;&gt;Node8</title>
<path fill="none" stroke="midnightblue" d="M132.131,-144.201C140.618,-145.531 149.367,-146.901 157.999,-148.253"/>
<polygon fill="midnightblue" stroke="midnightblue" points="157.635,-151.739 168.057,-149.828 158.719,-144.823 157.635,-151.739"/>
</g>
<!-- Node11 -->
<g id="node11" class="node"><title>Node11</title>
<g id="a_node11"><a xlink:href="classrc_segment_iterator_impl.html#abaa5d758a85788273fd632136d089f09" target="_top" xlink:title="rcSegmentIteratorImpl\l::mutex">
<polygon fill="white" stroke="black" points="176.537,-93 176.537,-125 291.463,-125 291.463,-93 176.537,-93"/>
<text text-anchor="start" x="184.537" y="-111" font-family="Helvetica,sans-Serif" font-size="10.00">rcSegmentIteratorImpl</text>
<text text-anchor="middle" x="234" y="-99" font-family="Helvetica,sans-Serif" font-size="10.00">::mutex</text>
</a>
</g>
</g>
<!-- Node1&#45;&gt;Node11 -->
<g id="edge14" class="edge"><title>Node1&#45;&gt;Node11</title>
<path fill="none" stroke="midnightblue" d="M132.131,-124.191C143.328,-122.505 154.979,-120.75 166.218,-119.057"/>
<polygon fill="midnightblue" stroke="midnightblue" points="167.032,-122.475 176.399,-117.524 165.989,-115.553 167.032,-122.475"/>
</g>
<!-- Node12 -->
<g id="node12" class="node"><title>Node12</title>
<g id="a_node12"><a xlink:href="classrc_position_segment_iterator_impl.html#ae06774169ba4300bcb3b9f3e9110f309" target="_top" xlink:title="rcPositionSegmentIterator\lImpl::setCurrentValue">
<polygon fill="white" stroke="black" points="168.195,-42 168.195,-74 299.805,-74 299.805,-42 168.195,-42"/>
<text text-anchor="start" x="176.195" y="-60" font-family="Helvetica,sans-Serif" font-size="10.00">rcPositionSegmentIterator</text>
<text text-anchor="middle" x="234" y="-48" font-family="Helvetica,sans-Serif" font-size="10.00">Impl::setCurrentValue</text>
</a>
</g>
</g>
<!-- Node1&#45;&gt;Node12 -->
<g id="edge15" class="edge"><title>Node1&#45;&gt;Node12</title>
<path fill="none" stroke="midnightblue" d="M97.1143,-117.794C116.997,-107.345 143.758,-93.7499 168,-83 171.855,-81.2907 175.865,-79.5832 179.918,-77.9086"/>
<polygon fill="midnightblue" stroke="midnightblue" points="181.438,-81.0693 189.397,-74.0759 178.814,-74.5797 181.438,-81.0693"/>
</g>
<!-- Node3 -->
<g id="node3" class="node"><title>Node3</title>
<g id="a_node3"><a xlink:href="classrc_track_impl.html#a7364f3ea7bc5feb9bb14a2600c949925" target="_top" xlink:title="rcTrackImpl::segments">
<polygon fill="white" stroke="black" points="488.617,-215 488.617,-235 605.383,-235 605.383,-215 488.617,-215"/>
<text text-anchor="middle" x="547" y="-221" font-family="Helvetica,sans-Serif" font-size="10.00">rcTrackImpl::segments</text>
</a>
</g>
</g>
<!-- Node2&#45;&gt;Node3 -->
<g id="edge2" class="edge"><title>Node2&#45;&gt;Node3</title>
<path fill="none" stroke="midnightblue" d="M291.681,-226.635C344.213,-226.298 422.436,-225.795 478.244,-225.436"/>
<polygon fill="midnightblue" stroke="midnightblue" points="478.416,-228.935 488.393,-225.37 478.371,-221.935 478.416,-228.935"/>
</g>
<!-- Node4 -->
<g id="node4" class="node"><title>Node4</title>
<g id="a_node4"><a xlink:href="classrc_track_impl.html#ae853c3b756bcfff5d42dcad8795075ec" target="_top" xlink:title="rcTrackImpl::segment">
<polygon fill="white" stroke="black" points="491.117,-169 491.117,-189 602.883,-189 602.883,-169 491.117,-169"/>
<text text-anchor="middle" x="547" y="-175" font-family="Helvetica,sans-Serif" font-size="10.00">rcTrackImpl::segment</text>
</a>
</g>
</g>
<!-- Node2&#45;&gt;Node4 -->
<g id="edge3" class="edge"><title>Node2&#45;&gt;Node4</title>
<path fill="none" stroke="midnightblue" d="M291.681,-218.252C345.037,-210.017 424.899,-197.691 480.856,-189.054"/>
<polygon fill="midnightblue" stroke="midnightblue" points="481.665,-192.471 491.015,-187.487 480.598,-185.553 481.665,-192.471"/>
</g>
<!-- Node5 -->
<g id="node5" class="node"><title>Node5</title>
<g id="a_node5"><a xlink:href="classrc_segment_impl.html#ad3c4f17458bfc71d0b0d1b0ab846b89a" target="_top" xlink:title="rcSegmentImpl::start">
<polygon fill="white" stroke="black" points="492.875,-317 492.875,-337 601.125,-337 601.125,-317 492.875,-317"/>
<text text-anchor="middle" x="547" y="-323" font-family="Helvetica,sans-Serif" font-size="10.00">rcSegmentImpl::start</text>
</a>
</g>
</g>
<!-- Node2&#45;&gt;Node5 -->
<g id="edge4" class="edge"><title>Node2&#45;&gt;Node5</title>
<path fill="none" stroke="midnightblue" d="M252.839,-243.276C271.927,-259.696 303.827,-284.374 336,-297 382.973,-315.434 439.821,-322.73 482.517,-325.529"/>
<polygon fill="midnightblue" stroke="midnightblue" points="482.311,-329.023 492.5,-326.119 482.724,-322.035 482.311,-329.023"/>
</g>
<!-- Node6 -->
<g id="node6" class="node"><title>Node6</title>
<g id="a_node6"><a xlink:href="classrc_segment_iterator_impl.html#a7f32e45b3ec89be158054c1aa28ec01e" target="_top" xlink:title="rcSegmentIteratorImpl\l::findClosestSegment">
<polygon fill="white" stroke="black" points="336.537,-239 336.537,-271 451.463,-271 451.463,-239 336.537,-239"/>
<text text-anchor="start" x="344.537" y="-257" font-family="Helvetica,sans-Serif" font-size="10.00">rcSegmentIteratorImpl</text>
<text text-anchor="middle" x="394" y="-245" font-family="Helvetica,sans-Serif" font-size="10.00">::findClosestSegment</text>
</a>
</g>
</g>
<!-- Node2&#45;&gt;Node6 -->
<g id="edge5" class="edge"><title>Node2&#45;&gt;Node6</title>
<path fill="none" stroke="midnightblue" d="M291.595,-237.03C302.896,-239.032 314.862,-241.153 326.462,-243.208"/>
<polygon fill="midnightblue" stroke="midnightblue" points="326.077,-246.695 336.534,-244.993 327.299,-239.802 326.077,-246.695"/>
</g>
<!-- Node7 -->
<g id="node7" class="node"><title>Node7</title>
<g id="a_node7"><a xlink:href="classrc_segment_impl.html#a3e75fcd7573f9ec7f1d4aa3c46255098" target="_top" xlink:title="rcSegmentImpl::length">
<polygon fill="white" stroke="black" points="488.976,-256 488.976,-276 605.024,-276 605.024,-256 488.976,-256"/>
<text text-anchor="middle" x="547" y="-262" font-family="Helvetica,sans-Serif" font-size="10.00">rcSegmentImpl::length</text>
</a>
</g>
</g>
<!-- Node2&#45;&gt;Node7 -->
<g id="edge10" class="edge"><title>Node2&#45;&gt;Node7</title>
<path fill="none" stroke="midnightblue" d="M257.775,-243.08C277.441,-255.918 307.159,-272.892 336,-280 389.208,-293.113 452.148,-286.056 495.155,-277.962"/>
<polygon fill="midnightblue" stroke="midnightblue" points="495.963,-281.371 505.099,-276.006 494.611,-274.502 495.963,-281.371"/>
</g>
<!-- Node6&#45;&gt;Node3 -->
<g id="edge6" class="edge"><title>Node6&#45;&gt;Node3</title>
<path fill="none" stroke="midnightblue" d="M451.656,-243.744C462.677,-241.554 474.269,-239.251 485.411,-237.038"/>
<polygon fill="midnightblue" stroke="midnightblue" points="486.36,-240.417 495.486,-235.036 484.996,-233.552 486.36,-240.417"/>
</g>
<!-- Node6&#45;&gt;Node4 -->
<g id="edge7" class="edge"><title>Node6&#45;&gt;Node4</title>
<path fill="none" stroke="midnightblue" d="M423.627,-238.92C441.878,-228.841 466.125,-215.766 488,-205 496.041,-201.042 504.818,-196.979 513.054,-193.275"/>
<polygon fill="midnightblue" stroke="midnightblue" points="514.683,-196.381 522.398,-189.12 511.839,-189.985 514.683,-196.381"/>
</g>
<!-- Node6&#45;&gt;Node5 -->
<g id="edge8" class="edge"><title>Node6&#45;&gt;Node5</title>
<path fill="none" stroke="midnightblue" d="M428.887,-271.158C454.948,-283.584 490.628,-300.598 515.736,-312.569"/>
<polygon fill="midnightblue" stroke="midnightblue" points="514.266,-315.746 524.799,-316.891 517.279,-309.428 514.266,-315.746"/>
</g>
<!-- Node6&#45;&gt;Node7 -->
<g id="edge9" class="edge"><title>Node6&#45;&gt;Node7</title>
<path fill="none" stroke="midnightblue" d="M451.656,-259.127C460.473,-259.77 469.655,-260.438 478.68,-261.096"/>
<polygon fill="midnightblue" stroke="midnightblue" points="478.547,-264.595 488.775,-261.831 479.055,-257.614 478.547,-264.595"/>
</g>
<!-- Node9 -->
<g id="node9" class="node"><title>Node9</title>
<g id="a_node9"><a xlink:href="classrc_segment_iterator_impl.html#a22abc78fcb201cdca524b10299558f03" target="_top" xlink:title="rcSegmentIteratorImpl\l::lock">
<polygon fill="white" stroke="black" points="336.537,-111 336.537,-143 451.463,-143 451.463,-111 336.537,-111"/>
<text text-anchor="start" x="344.537" y="-129" font-family="Helvetica,sans-Serif" font-size="10.00">rcSegmentIteratorImpl</text>
<text text-anchor="middle" x="394" y="-117" font-family="Helvetica,sans-Serif" font-size="10.00">::lock</text>
</a>
</g>
</g>
<!-- Node8&#45;&gt;Node9 -->
<g id="edge12" class="edge"><title>Node8&#45;&gt;Node9</title>
<path fill="none" stroke="midnightblue" d="M300.177,-146.387C308.731,-144.601 317.507,-142.767 326.089,-140.975"/>
<polygon fill="midnightblue" stroke="midnightblue" points="326.976,-144.365 336.049,-138.895 325.545,-137.513 326.976,-144.365"/>
</g>
<!-- Node10 -->
<g id="node10" class="node"><title>Node10</title>
<g id="a_node10"><a xlink:href="classrc_mutex.html#ab3d2138979404d7f06abe308ca2177a8" target="_top" xlink:title="rcMutex::lock">
<polygon fill="white" stroke="black" points="509.549,-117 509.549,-137 584.451,-137 584.451,-117 509.549,-117"/>
<text text-anchor="middle" x="547" y="-123" font-family="Helvetica,sans-Serif" font-size="10.00">rcMutex::lock</text>
</a>
</g>
</g>
<!-- Node9&#45;&gt;Node10 -->
<g id="edge13" class="edge"><title>Node9&#45;&gt;Node10</title>
<path fill="none" stroke="midnightblue" d="M451.656,-127C467.295,-127 484.086,-127 499.105,-127"/>
<polygon fill="midnightblue" stroke="midnightblue" points="499.184,-130.5 509.183,-127 499.183,-123.5 499.184,-130.5"/>
</g>
<!-- Node13 -->
<g id="node13" class="node"><title>Node13</title>
<g id="a_node13"><a xlink:href="classrc_segment_iterator_impl.html#aa6314211f43757b3bbde20e5749518b4" target="_top" xlink:title="rcSegmentIteratorImpl\l::getSegmentIndex">
<polygon fill="white" stroke="black" points="336.537,-51 336.537,-83 451.463,-83 451.463,-51 336.537,-51"/>
<text text-anchor="start" x="344.537" y="-69" font-family="Helvetica,sans-Serif" font-size="10.00">rcSegmentIteratorImpl</text>
<text text-anchor="middle" x="394" y="-57" font-family="Helvetica,sans-Serif" font-size="10.00">::getSegmentIndex</text>
</a>
</g>
</g>
<!-- Node12&#45;&gt;Node13 -->
<g id="edge16" class="edge"><title>Node12&#45;&gt;Node13</title>
<path fill="none" stroke="midnightblue" d="M300.177,-61.7126C308.638,-62.1945 317.317,-62.6889 325.809,-63.1727"/>
<polygon fill="midnightblue" stroke="midnightblue" points="325.866,-66.6815 336.049,-63.756 326.264,-59.6928 325.866,-66.6815"/>
</g>
<!-- Node14 -->
<g id="node14" class="node"><title>Node14</title>
<g id="a_node14"><a xlink:href="classrc_position_track_impl.html#a2e90d86d25e7fb644025064611ed8b69" target="_top" xlink:title="rcPositionTrackImpl\l::segments">
<polygon fill="white" stroke="black" points="342.284,-0 342.284,-32 445.716,-32 445.716,-0 342.284,-0"/>
<text text-anchor="start" x="350.284" y="-18" font-family="Helvetica,sans-Serif" font-size="10.00">rcPositionTrackImpl</text>
<text text-anchor="middle" x="394" y="-6" font-family="Helvetica,sans-Serif" font-size="10.00">::segments</text>
</a>
</g>
</g>
<!-- Node12&#45;&gt;Node14 -->
<g id="edge17" class="edge"><title>Node12&#45;&gt;Node14</title>
<path fill="none" stroke="midnightblue" d="M295.635,-41.8818C307.669,-38.6829 320.305,-35.324 332.34,-32.1249"/>
<polygon fill="midnightblue" stroke="midnightblue" points="333.516,-35.4339 342.281,-29.4823 331.717,-28.6688 333.516,-35.4339"/>
</g>
</g>
</svg>
        <g id="navigator" transform="translate(0 0)" fill="#404254">
                <rect fill="#f2f5e9" fill-opacity="0.5" stroke="#606060" stroke-width=".5" x="0" y="0" width="60" height="60"/>
                <use id="zoomplus" xlink:href="#zoomPlus" x="17" y="9" onmousedown="handleZoom(evt,'in')"/>
                <use id="zoomminus" xlink:href="#zoomMin" x="42" y="9" onmousedown="handleZoom(evt,'out')"/>
                <use id="reset" xlink:href="#resetDef" x="30" y="36" onmousedown="handleReset()"/>
                <g id="arrowUp" xlink:href="#dirArrow" transform="translate(30 24)" onmousedown="handlePan(0,-1)">
                  <use xlink:href="#rim" fill="#404040">
                        <set attributeName="fill" to="#808080" begin="arrowUp.mouseover" end="arrowUp.mouseout"/>
                  </use>
                  <path fill="none" stroke="white" stroke-width="1.5" d="M0,-3.0v7 M-2.5,-0.5L0,-3.0L2.5,-0.5"/>
                </g>
                <g id="arrowRight" xlink:href="#dirArrow" transform="rotate(90) translate(36 -43)" onmousedown="handlePan(1,0)">
                  <use xlink:href="#rim" fill="#404040">
                        <set attributeName="fill" to="#808080" begin="arrowRight.mouseover" end="arrowRight.mouseout"/>
                  </use>
                  <path fill="none" stroke="white" stroke-width="1.5" d="M0,-3.0v7 M-2.5,-0.5L0,-3.0L2.5,-0.5"/>
                </g>
                <g id="arrowDown" xlink:href="#dirArrow" transform="rotate(180) translate(-30 -48)" onmousedown="handlePan(0,1)">
                  <use xlink:href="#rim" fill="#404040">
                        <set attributeName="fill" to="#808080" begin="arrowDown.mouseover" end="arrowDown.mouseout"/>
                  </use>
                  <path fill="none" stroke="white" stroke-width="1.5" d="M0,-3.0v7 M-2.5,-0.5L0,-3.0L2.5,-0.5"/>
                </g>
                <g id="arrowLeft" xlink:href="#dirArrow" transform="rotate(270) translate(-36 17)" onmousedown="handlePan(-1,0)">
                  <use xlink:href="#rim" fill="#404040">
                        <set attributeName="fill" to="#808080" begin="arrowLeft.mouseover" end="arrowLeft.mouseout"/>
                  </use>
                  <path fill="none" stroke="white" stroke-width="1.5" d="M0,-3.0v7 M-2.5,-0.5L0,-3.0L2.5,-0.5"/>
                </g>
        </g>
        <svg viewBox="0 0 15 15" width="100%" height="30px" preserveAspectRatio="xMaxYMin meet">
         <g id="arrow_out" transform="scale(0.3 0.3)">
          <a xlink:href="classrc_position_segment_iterator_impl_a8d80ebada33ce48c0a66b0d023c6e074_cgraph_org.svg" target="_base">
           <rect id="button" ry="5" rx="5" y="6" x="6" height="38" width="38"
                fill="#f2f5e9" fill-opacity="0.5" stroke="#606060" stroke-width="1.0"/>
           <path id="arrow"
             d="M 11.500037,31.436501 C 11.940474,20.09759 22.043105,11.32322 32.158766,21.979434 L 37.068811,17.246167 C 37.068811,17.246167 37.088388,32 37.088388,32 L 22.160133,31.978069 C 22.160133,31.978069 26.997745,27.140456 26.997745,27.140456 C 18.528582,18.264221 13.291696,25.230495 11.500037,31.436501 z"
             style="fill:#404040;"/>
          </a>
         </g>
        </svg>
</svg>
