<?xml version="1.0" encoding="UTF-8" standalone="no"?>
<!DOCTYPE svg PUBLIC "-//W3C//DTD SVG 1.1//EN"
 "http://www.w3.org/Graphics/SVG/1.1/DTD/svg11.dtd">
<!-- Generated by graphviz version 2.32.0 (20130916.1925)
 -->
<!-- Title: TIFFImageIO::ReadImageInformation Pages: 1 -->
<svg width="1310pt" height="443pt"
 viewBox="0.00 0.00 1310.00 443.00" xmlns="http://www.w3.org/2000/svg" xmlns:xlink="http://www.w3.org/1999/xlink">
<g id="graph0" class="graph" transform="scale(1 1) rotate(0) translate(4 439)">
<title>TIFFImageIO::ReadImageInformation</title>
<polygon fill="white" stroke="white" points="-4,5 -4,-439 1307,-439 1307,5 -4,5"/>
<!-- Node1 -->
<g id="node1" class="node"><title>Node1</title>
<polygon fill="#bfbfbf" stroke="black" points="0.633301,-149 0.633301,-169 183.367,-169 183.367,-149 0.633301,-149"/>
<text text-anchor="middle" x="92" y="-155" font-family="Helvetica,sans-Serif" font-size="10.00">TIFFImageIO::ReadImageInformation</text>
</g>
<!-- Node2 -->
<g id="node2" class="node"><title>Node2</title>
<g id="a_node2"><a xlink:href="class_t_i_f_f_reader_internal.html#a1d19d56f57f5fae788c581fd19cae498" target="_top" xlink:title="TIFFReaderInternal\l::CanRead">
<polygon fill="white" stroke="black" points="239.372,-298 239.372,-330 342.628,-330 342.628,-298 239.372,-298"/>
<text text-anchor="start" x="247.372" y="-316" font-family="Helvetica,sans-Serif" font-size="10.00">TIFFReaderInternal</text>
<text text-anchor="middle" x="291" y="-304" font-family="Helvetica,sans-Serif" font-size="10.00">::CanRead</text>
</a>
</g>
</g>
<!-- Node1&#45;&gt;Node2 -->
<g id="edge1" class="edge"><title>Node1&#45;&gt;Node2</title>
<path fill="none" stroke="midnightblue" d="M100.454,-169.194C118.443,-193.13 166.704,-253.506 220,-288 223.122,-290.021 226.424,-291.915 229.825,-293.686"/>
<polygon fill="midnightblue" stroke="midnightblue" points="228.477,-296.921 239.007,-298.087 231.503,-290.609 228.477,-296.921"/>
</g>
<!-- Node3 -->
<g id="node3" class="node"><title>Node3</title>
<g id="a_node3"><a xlink:href="class_t_i_f_f_image_i_o.html#add75b430048f34bb13cb4c2e733b532a" target="_top" xlink:title="TIFFImageIO::GetFormat">
<polygon fill="white" stroke="black" points="226.601,-259 226.601,-279 355.399,-279 355.399,-259 226.601,-259"/>
<text text-anchor="middle" x="291" y="-265" font-family="Helvetica,sans-Serif" font-size="10.00">TIFFImageIO::GetFormat</text>
</a>
</g>
</g>
<!-- Node1&#45;&gt;Node3 -->
<g id="edge2" class="edge"><title>Node1&#45;&gt;Node3</title>
<path fill="none" stroke="midnightblue" d="M104.405,-169.141C125.674,-187.561 173.465,-226.67 220,-249 225.256,-251.522 230.89,-253.785 236.596,-255.799"/>
<polygon fill="midnightblue" stroke="midnightblue" points="235.619,-259.162 246.212,-258.958 237.804,-252.512 235.619,-259.162"/>
</g>
<!-- Node21 -->
<g id="node21" class="node"><title>Node21</title>
<g id="a_node21"><a xlink:href="class_t_i_f_f_image_i_o.html#a86ef2be1ff413cea3e61443563e75b2b" target="_top" xlink:title="TIFFImageIO::height">
<polygon fill="white" stroke="black" points="236.872,-220 236.872,-240 345.128,-240 345.128,-220 236.872,-220"/>
<text text-anchor="middle" x="291" y="-226" font-family="Helvetica,sans-Serif" font-size="10.00">TIFFImageIO::height</text>
</a>
</g>
</g>
<!-- Node1&#45;&gt;Node21 -->
<g id="edge20" class="edge"><title>Node1&#45;&gt;Node21</title>
<path fill="none" stroke="midnightblue" d="M116.135,-169.132C141.384,-179.992 183.137,-197.37 220,-210 227.15,-212.45 234.779,-214.846 242.273,-217.081"/>
<polygon fill="midnightblue" stroke="midnightblue" points="241.415,-220.476 251.995,-219.916 243.375,-213.756 241.415,-220.476"/>
</g>
<!-- Node22 -->
<g id="node22" class="node"><title>Node22</title>
<g id="a_node22"><a xlink:href="class_t_i_f_f_image_i_o.html#a6ff5b66f27464e848ecdf3b20b22c939" target="_top" xlink:title="TIFFImageIO::SetNumberOf\lComponents">
<polygon fill="white" stroke="black" points="219.929,-169 219.929,-201 362.071,-201 362.071,-169 219.929,-169"/>
<text text-anchor="start" x="227.929" y="-187" font-family="Helvetica,sans-Serif" font-size="10.00">TIFFImageIO::SetNumberOf</text>
<text text-anchor="middle" x="291" y="-175" font-family="Helvetica,sans-Serif" font-size="10.00">Components</text>
</a>
</g>
</g>
<!-- Node1&#45;&gt;Node22 -->
<g id="edge21" class="edge"><title>Node1&#45;&gt;Node22</title>
<path fill="none" stroke="midnightblue" d="M168.884,-169.015C182.185,-170.771 196.068,-172.603 209.49,-174.374"/>
<polygon fill="midnightblue" stroke="midnightblue" points="209.275,-177.876 219.647,-175.715 210.191,-170.936 209.275,-177.876"/>
</g>
<!-- Node23 -->
<g id="node23" class="node"><title>Node23</title>
<g id="a_node23"><a xlink:href="class_t_i_f_f_image_i_o.html#a8d4945ce55957c52f6ce65d043d3d0e7" target="_top" xlink:title="TIFFImageIO::SetNumberOf\lDimensions">
<polygon fill="white" stroke="black" points="219.929,-118 219.929,-150 362.071,-150 362.071,-118 219.929,-118"/>
<text text-anchor="start" x="227.929" y="-136" font-family="Helvetica,sans-Serif" font-size="10.00">TIFFImageIO::SetNumberOf</text>
<text text-anchor="middle" x="291" y="-124" font-family="Helvetica,sans-Serif" font-size="10.00">Dimensions</text>
</a>
</g>
</g>
<!-- Node1&#45;&gt;Node23 -->
<g id="edge22" class="edge"><title>Node1&#45;&gt;Node23</title>
<path fill="none" stroke="midnightblue" d="M171.992,-148.976C184.493,-147.389 197.431,-145.747 209.955,-144.158"/>
<polygon fill="midnightblue" stroke="midnightblue" points="210.415,-147.628 219.895,-142.897 209.534,-140.683 210.415,-147.628"/>
</g>
<!-- Node24 -->
<g id="node24" class="node"><title>Node24</title>
<g id="a_node24"><a xlink:href="class_t_i_f_f_image_i_o.html#afb9cced99909ecd8a401089e086724d8" target="_top" xlink:title="TIFFImageIO::SetPixelType">
<polygon fill="white" stroke="black" points="221.311,-79 221.311,-99 360.689,-99 360.689,-79 221.311,-79"/>
<text text-anchor="middle" x="291" y="-85" font-family="Helvetica,sans-Serif" font-size="10.00">TIFFImageIO::SetPixelType</text>
</a>
</g>
</g>
<!-- Node1&#45;&gt;Node24 -->
<g id="edge23" class="edge"><title>Node1&#45;&gt;Node24</title>
<path fill="none" stroke="midnightblue" d="M116.621,-148.906C141.934,-138.276 183.419,-121.395 220,-109 227.241,-106.546 234.969,-104.136 242.549,-101.885"/>
<polygon fill="midnightblue" stroke="midnightblue" points="243.75,-105.18 252.375,-99.027 241.795,-98.4588 243.75,-105.18"/>
</g>
<!-- Node25 -->
<g id="node25" class="node"><title>Node25</title>
<g id="a_node25"><a xlink:href="tif__open_8c.html#ac3bfa523a9c752bddf0f3f3958f652d7" target="_top" xlink:title="TIFFIsBigEndian">
<polygon fill="white" stroke="black" points="245.764,-40 245.764,-60 336.236,-60 336.236,-40 245.764,-40"/>
<text text-anchor="middle" x="291" y="-46" font-family="Helvetica,sans-Serif" font-size="10.00">TIFFIsBigEndian</text>
</a>
</g>
</g>
<!-- Node1&#45;&gt;Node25 -->
<g id="edge24" class="edge"><title>Node1&#45;&gt;Node25</title>
<path fill="none" stroke="midnightblue" d="M104.427,-148.98C125.732,-130.778 173.579,-92.1256 220,-70 225.263,-67.4917 230.901,-65.238 236.61,-63.2286"/>
<polygon fill="midnightblue" stroke="midnightblue" points="237.816,-66.5165 246.228,-60.0757 235.635,-59.8648 237.816,-66.5165"/>
</g>
<!-- Node26 -->
<g id="node26" class="node"><title>Node26</title>
<g id="a_node26"><a xlink:href="class_t_i_f_f_image_i_o.html#ae3c8989915f6013c5f1cf81542d7c2f3" target="_top" xlink:title="TIFFImageIO::width">
<polygon fill="white" stroke="black" points="238.823,-1 238.823,-21 343.177,-21 343.177,-1 238.823,-1"/>
<text text-anchor="middle" x="291" y="-7" font-family="Helvetica,sans-Serif" font-size="10.00">TIFFImageIO::width</text>
</a>
</g>
</g>
<!-- Node1&#45;&gt;Node26 -->
<g id="edge25" class="edge"><title>Node1&#45;&gt;Node26</title>
<path fill="none" stroke="midnightblue" d="M100.042,-148.97C117.49,-124.875 165.293,-63.3343 220,-31 224.07,-28.5944 228.445,-26.4648 232.949,-24.5819"/>
<polygon fill="midnightblue" stroke="midnightblue" points="234.194,-27.8531 242.32,-21.0541 231.728,-21.302 234.194,-27.8531"/>
</g>
<!-- Node4 -->
<g id="node4" class="node"><title>Node4</title>
<g id="a_node4"><a xlink:href="class_t_i_f_f_image_i_o.html#ac66e633b5b717f26616eacf0b67c800f" target="_top" xlink:title="TIFFImageIO::GetColor">
<polygon fill="white" stroke="black" points="398.488,-259 398.488,-279 519.512,-279 519.512,-259 398.488,-259"/>
<text text-anchor="middle" x="459" y="-265" font-family="Helvetica,sans-Serif" font-size="10.00">TIFFImageIO::GetColor</text>
</a>
</g>
</g>
<!-- Node3&#45;&gt;Node4 -->
<g id="edge3" class="edge"><title>Node3&#45;&gt;Node4</title>
<path fill="none" stroke="midnightblue" d="M355.705,-269C366.306,-269 377.352,-269 388.097,-269"/>
<polygon fill="midnightblue" stroke="midnightblue" points="388.283,-272.5 398.283,-269 388.283,-265.5 388.283,-272.5"/>
</g>
<!-- Node5 -->
<g id="node5" class="node"><title>Node5</title>
<g id="a_node5"><a xlink:href="textio_8cpp.html#a905a4c61e365d406069f00eb68db1ca5" target="_top" xlink:title="endl">
<polygon fill="white" stroke="black" points="576.547,-288 576.547,-308 611.453,-308 611.453,-288 576.547,-288"/>
<text text-anchor="middle" x="594" y="-294" font-family="Helvetica,sans-Serif" font-size="10.00">endl</text>
</a>
</g>
</g>
<!-- Node4&#45;&gt;Node5 -->
<g id="edge4" class="edge"><title>Node4&#45;&gt;Node5</title>
<path fill="none" stroke="midnightblue" d="M506.144,-279.061C526.274,-283.451 549.159,-288.441 566.383,-292.196"/>
<polygon fill="midnightblue" stroke="midnightblue" points="565.785,-295.648 576.301,-294.359 567.276,-288.809 565.785,-295.648"/>
</g>
<!-- Node17 -->
<g id="node17" class="node"><title>Node17</title>
<g id="a_node17"><a xlink:href="tif__dir_8c.html#ac1ca0e4a5a3e8f3fa76e853dbe68c6b2" target="_top" xlink:title="TIFFGetField">
<polygon fill="white" stroke="black" points="556.552,-230 556.552,-250 631.448,-250 631.448,-230 556.552,-230"/>
<text text-anchor="middle" x="594" y="-236" font-family="Helvetica,sans-Serif" font-size="10.00">TIFFGetField</text>
</a>
</g>
</g>
<!-- Node4&#45;&gt;Node17 -->
<g id="edge16" class="edge"><title>Node4&#45;&gt;Node17</title>
<path fill="none" stroke="midnightblue" d="M506.144,-258.939C519.049,-256.125 533.087,-253.064 546.04,-250.239"/>
<polygon fill="midnightblue" stroke="midnightblue" points="547.127,-253.585 556.152,-248.034 545.636,-246.745 547.127,-253.585"/>
</g>
<!-- Node6 -->
<g id="node6" class="node"><title>Node6</title>
<g id="a_node6"><a xlink:href="classotext.html#a5086c0fd5e3f551eae3027e5d23d3c30" target="_top" xlink:title="otext::put">
<polygon fill="white" stroke="black" points="680.431,-298 680.431,-318 737.569,-318 737.569,-298 680.431,-298"/>
<text text-anchor="middle" x="709" y="-304" font-family="Helvetica,sans-Serif" font-size="10.00">otext::put</text>
</a>
</g>
</g>
<!-- Node5&#45;&gt;Node6 -->
<g id="edge5" class="edge"><title>Node5&#45;&gt;Node6</title>
<path fill="none" stroke="midnightblue" d="M611.674,-299.476C627.044,-300.836 650.414,-302.904 670.286,-304.663"/>
<polygon fill="midnightblue" stroke="midnightblue" points="670.029,-308.153 680.298,-305.549 670.646,-301.181 670.029,-308.153"/>
</g>
<!-- Node7 -->
<g id="node7" class="node"><title>Node7</title>
<g id="a_node7"><a xlink:href="classotext.html#ab52b059090ba70eeeac469f9051d3a22" target="_top" xlink:title="otext::flush">
<polygon fill="white" stroke="black" points="807.82,-415 807.82,-435 872.18,-435 872.18,-415 807.82,-415"/>
<text text-anchor="middle" x="840" y="-421" font-family="Helvetica,sans-Serif" font-size="10.00">otext::flush</text>
</a>
</g>
</g>
<!-- Node6&#45;&gt;Node7 -->
<g id="edge6" class="edge"><title>Node6&#45;&gt;Node7</title>
<path fill="none" stroke="midnightblue" d="M715.497,-318.291C726.425,-337.837 752.722,-380.557 786,-405 789.712,-407.726 793.839,-410.124 798.105,-412.223"/>
<polygon fill="midnightblue" stroke="midnightblue" points="796.996,-415.558 807.561,-416.351 799.796,-409.142 796.996,-415.558"/>
</g>
<!-- Node9 -->
<g id="node9" class="node"><title>Node9</title>
<g id="a_node9"><a xlink:href="classobuff.html#a069bcd2767c0d7c8e2bc8cd26d91e267" target="_top" xlink:title="obuff::increment">
<polygon fill="white" stroke="black" points="796.236,-376 796.236,-396 883.764,-396 883.764,-376 796.236,-376"/>
<text text-anchor="middle" x="840" y="-382" font-family="Helvetica,sans-Serif" font-size="10.00">obuff::increment</text>
</a>
</g>
</g>
<!-- Node6&#45;&gt;Node9 -->
<g id="edge8" class="edge"><title>Node6&#45;&gt;Node9</title>
<path fill="none" stroke="midnightblue" d="M721.114,-318.164C735.308,-330.732 761.034,-352.154 786,-366 789.928,-368.178 794.141,-370.216 798.413,-372.094"/>
<polygon fill="midnightblue" stroke="midnightblue" points="797.191,-375.376 807.771,-375.942 799.854,-368.902 797.191,-375.376"/>
</g>
<!-- Node10 -->
<g id="node10" class="node"><title>Node10</title>
<g id="a_node10"><a xlink:href="classobuff.html#a51efd4e8e00303842fa762940aad86ec" target="_top" xlink:title="obuff::line_buffer">
<polygon fill="white" stroke="black" points="794.927,-337 794.927,-357 885.073,-357 885.073,-337 794.927,-337"/>
<text text-anchor="middle" x="840" y="-343" font-family="Helvetica,sans-Serif" font-size="10.00">obuff::line_buffer</text>
</a>
</g>
</g>
<!-- Node6&#45;&gt;Node10 -->
<g id="edge9" class="edge"><title>Node6&#45;&gt;Node10</title>
<path fill="none" stroke="midnightblue" d="M737.674,-316.366C754.695,-321.513 776.863,-328.214 796.122,-334.037"/>
<polygon fill="midnightblue" stroke="midnightblue" points="795.3,-337.445 805.885,-336.989 797.326,-330.744 795.3,-337.445"/>
</g>
<!-- Node11 -->
<g id="node11" class="node"><title>Node11</title>
<g id="a_node11"><a xlink:href="classobuff.html#a0711113beee11f9793f5ba9e8e64c641" target="_top" xlink:title="obuff::newline_mode">
<polygon fill="white" stroke="black" points="785.945,-298 785.945,-318 894.055,-318 894.055,-298 785.945,-298"/>
<text text-anchor="middle" x="840" y="-304" font-family="Helvetica,sans-Serif" font-size="10.00">obuff::newline_mode</text>
</a>
</g>
</g>
<!-- Node6&#45;&gt;Node11 -->
<g id="edge10" class="edge"><title>Node6&#45;&gt;Node11</title>
<path fill="none" stroke="midnightblue" d="M737.674,-308C748.883,-308 762.323,-308 775.695,-308"/>
<polygon fill="midnightblue" stroke="midnightblue" points="775.869,-311.5 785.869,-308 775.869,-304.5 775.869,-311.5"/>
</g>
<!-- Node12 -->
<g id="node12" class="node"><title>Node12</title>
<g id="a_node12"><a xlink:href="classobuff.html#a5bbb61ac15c672da7f7b2002bef6b128" target="_top" xlink:title="obuff::put">
<polygon fill="white" stroke="black" points="811.238,-259 811.238,-279 868.762,-279 868.762,-259 811.238,-259"/>
<text text-anchor="middle" x="840" y="-265" font-family="Helvetica,sans-Serif" font-size="10.00">obuff::put</text>
</a>
</g>
</g>
<!-- Node6&#45;&gt;Node12 -->
<g id="edge11" class="edge"><title>Node6&#45;&gt;Node12</title>
<path fill="none" stroke="midnightblue" d="M737.674,-299.634C756.251,-294.017 780.958,-286.548 801.324,-280.39"/>
<polygon fill="midnightblue" stroke="midnightblue" points="802.368,-283.731 810.927,-277.487 800.342,-277.031 802.368,-283.731"/>
</g>
<!-- Node13 -->
<g id="node13" class="node"><title>Node13</title>
<g id="a_node13"><a xlink:href="classotext.html#a2a2435d80cce60cb88360c7bfe3f8445" target="_top" xlink:title="otext::set_error">
<polygon fill="white" stroke="black" points="798.375,-220 798.375,-240 881.625,-240 881.625,-220 798.375,-220"/>
<text text-anchor="middle" x="840" y="-226" font-family="Helvetica,sans-Serif" font-size="10.00">otext::set_error</text>
</a>
</g>
</g>
<!-- Node6&#45;&gt;Node13 -->
<g id="edge12" class="edge"><title>Node6&#45;&gt;Node13</title>
<path fill="none" stroke="midnightblue" d="M721.114,-297.836C735.308,-285.268 761.034,-263.846 786,-250 789.928,-247.822 794.141,-245.784 798.413,-243.906"/>
<polygon fill="midnightblue" stroke="midnightblue" points="799.854,-247.098 807.771,-240.058 797.191,-240.624 799.854,-247.098"/>
</g>
<!-- Node8 -->
<g id="node8" class="node"><title>Node8</title>
<g id="a_node8"><a xlink:href="classobuff.html#a8fb8969c450f4fdc037f8c51d35c87c7" target="_top" xlink:title="obuff::flush">
<polygon fill="white" stroke="black" points="939.627,-415 939.627,-435 1004.37,-435 1004.37,-415 939.627,-415"/>
<text text-anchor="middle" x="972" y="-421" font-family="Helvetica,sans-Serif" font-size="10.00">obuff::flush</text>
</a>
</g>
</g>
<!-- Node7&#45;&gt;Node8 -->
<g id="edge7" class="edge"><title>Node7&#45;&gt;Node8</title>
<path fill="none" stroke="midnightblue" d="M872.469,-425C889.509,-425 910.782,-425 929.196,-425"/>
<polygon fill="midnightblue" stroke="midnightblue" points="929.37,-428.5 939.37,-425 929.37,-421.5 929.37,-428.5"/>
</g>
<!-- Node14 -->
<g id="node14" class="node"><title>Node14</title>
<g id="a_node14"><a xlink:href="classobuff.html#ae388e9608d1c873d1feaf621f4044c25" target="_top" xlink:title="obuff::set_error">
<polygon fill="white" stroke="black" points="930.182,-220 930.182,-240 1013.82,-240 1013.82,-220 930.182,-220"/>
<text text-anchor="middle" x="972" y="-226" font-family="Helvetica,sans-Serif" font-size="10.00">obuff::set_error</text>
</a>
</g>
</g>
<!-- Node13&#45;&gt;Node14 -->
<g id="edge13" class="edge"><title>Node13&#45;&gt;Node14</title>
<path fill="none" stroke="midnightblue" d="M881.776,-230C893.76,-230 907.026,-230 919.583,-230"/>
<polygon fill="midnightblue" stroke="midnightblue" points="919.922,-233.5 929.922,-230 919.922,-226.5 919.922,-233.5"/>
</g>
<!-- Node15 -->
<g id="node15" class="node"><title>Node15</title>
<g id="a_node15"><a xlink:href="class_t_c_p__client__data.html#a970f6bf6bb6e6166615813c5f7768381" target="_top" xlink:title="TCP_client_data::error">
<polygon fill="white" stroke="black" points="1050.7,-220 1050.7,-240 1167.3,-240 1167.3,-220 1050.7,-220"/>
<text text-anchor="middle" x="1109" y="-226" font-family="Helvetica,sans-Serif" font-size="10.00">TCP_client_data::error</text>
</a>
</g>
</g>
<!-- Node14&#45;&gt;Node15 -->
<g id="edge14" class="edge"><title>Node14&#45;&gt;Node15</title>
<path fill="none" stroke="midnightblue" d="M1013.87,-230C1022.22,-230 1031.21,-230 1040.21,-230"/>
<polygon fill="midnightblue" stroke="midnightblue" points="1040.33,-233.5 1050.33,-230 1040.33,-226.5 1040.33,-233.5"/>
</g>
<!-- Node16 -->
<g id="node16" class="node"><title>Node16</title>
<g id="a_node16"><a xlink:href="class_t_c_p__socket.html#adb70059ca46476efe0ced51ed377a975" target="_top" xlink:title="TCP_socket::error">
<polygon fill="white" stroke="black" points="1204.43,-220 1204.43,-240 1301.57,-240 1301.57,-220 1204.43,-220"/>
<text text-anchor="middle" x="1253" y="-226" font-family="Helvetica,sans-Serif" font-size="10.00">TCP_socket::error</text>
</a>
</g>
</g>
<!-- Node15&#45;&gt;Node16 -->
<g id="edge15" class="edge"><title>Node15&#45;&gt;Node16</title>
<path fill="none" stroke="midnightblue" d="M1167.35,-230C1176.09,-230 1185.12,-230 1193.87,-230"/>
<polygon fill="midnightblue" stroke="midnightblue" points="1194,-233.5 1204,-230 1194,-226.5 1194,-233.5"/>
</g>
<!-- Node18 -->
<g id="node18" class="node"><title>Node18</title>
<g id="a_node18"><a xlink:href="tif__dir_8c.html#ab0eecdbdae2ee28066c5453fdd594027" target="_top" xlink:title="TIFFVGetField">
<polygon fill="white" stroke="black" points="668.217,-191 668.217,-211 749.783,-211 749.783,-191 668.217,-191"/>
<text text-anchor="middle" x="709" y="-197" font-family="Helvetica,sans-Serif" font-size="10.00">TIFFVGetField</text>
</a>
</g>
</g>
<!-- Node17&#45;&gt;Node18 -->
<g id="edge17" class="edge"><title>Node17&#45;&gt;Node18</title>
<path fill="none" stroke="midnightblue" d="M624.1,-229.957C637.94,-225.18 654.674,-219.405 669.544,-214.272"/>
<polygon fill="midnightblue" stroke="midnightblue" points="670.687,-217.58 678.998,-211.009 668.404,-210.963 670.687,-217.58"/>
</g>
<!-- Node19 -->
<g id="node19" class="node"><title>Node19</title>
<g id="a_node19"><a xlink:href="tif__dirinfo_8c.html#a3317560b966ff5f4b7e378e8c6ca936a" target="_top" xlink:title="_TIFFFindFieldInfo">
<polygon fill="white" stroke="black" points="789.764,-181 789.764,-201 890.236,-201 890.236,-181 789.764,-181"/>
<text text-anchor="middle" x="840" y="-187" font-family="Helvetica,sans-Serif" font-size="10.00">_TIFFFindFieldInfo</text>
</a>
</g>
</g>
<!-- Node18&#45;&gt;Node19 -->
<g id="edge18" class="edge"><title>Node18&#45;&gt;Node19</title>
<path fill="none" stroke="midnightblue" d="M750.109,-197.891C759.331,-197.176 769.334,-196.401 779.189,-195.637"/>
<polygon fill="midnightblue" stroke="midnightblue" points="779.668,-199.11 789.367,-194.847 779.127,-192.131 779.668,-199.11"/>
</g>
<!-- Node20 -->
<g id="node20" class="node"><title>Node20</title>
<g id="a_node20"><a xlink:href="tif__dirinfo_8c.html#a365ced53b43ae215e93968db3ef3a29e" target="_top" xlink:title="tagCompare">
<polygon fill="white" stroke="black" points="936.485,-181 936.485,-201 1007.51,-201 1007.51,-181 936.485,-181"/>
<text text-anchor="middle" x="972" y="-187" font-family="Helvetica,sans-Serif" font-size="10.00">tagCompare</text>
</a>
</g>
</g>
<!-- Node19&#45;&gt;Node20 -->
<g id="edge19" class="edge"><title>Node19&#45;&gt;Node20</title>
<path fill="none" stroke="midnightblue" d="M890.518,-191C902.165,-191 914.515,-191 925.953,-191"/>
<polygon fill="midnightblue" stroke="midnightblue" points="926.154,-194.5 936.154,-191 926.154,-187.5 926.154,-194.5"/>
</g>
</g>
</svg>
