<?xml version="1.0" encoding="UTF-8" standalone="no"?>
<!DOCTYPE svg PUBLIC "-//W3C//DTD SVG 1.1//EN"
 "http://www.w3.org/Graphics/SVG/1.1/DTD/svg11.dtd">
<!-- Generated by graphviz version 2.32.0 (20130916.1925)
 -->
<!-- Title: rcVideoCache::rcVideoCachePrefetchUnit::prefetch Pages: 1 -->
<svg width="860pt" height="73pt"
 viewBox="0.00 0.00 860.00 73.00" xmlns="http://www.w3.org/2000/svg" xmlns:xlink="http://www.w3.org/1999/xlink">
<g id="graph0" class="graph" transform="scale(1 1) rotate(0) translate(4 69)">
<title>rcVideoCache::rcVideoCachePrefetchUnit::prefetch</title>
<polygon fill="white" stroke="white" points="-4,5 -4,-69 857,-69 857,5 -4,5"/>
<!-- Node1 -->
<g id="node1" class="node"><title>Node1</title>
<polygon fill="#bfbfbf" stroke="black" points="0.584961,-13 0.584961,-45 147.415,-45 147.415,-13 0.584961,-13"/>
<text text-anchor="start" x="8.58496" y="-31" font-family="Helvetica,sans-Serif" font-size="10.00">rcVideoCache::rcVideoCache</text>
<text text-anchor="middle" x="74" y="-19" font-family="Helvetica,sans-Serif" font-size="10.00">PrefetchUnit::prefetch</text>
</g>
<!-- Node2 -->
<g id="node2" class="node"><title>Node2</title>
<g id="a_node2"><a xlink:href="classrc_video_cache.html#a203d0ba6e59f4adbd60286eae2d25a05" target="_top" xlink:title="rcVideoCache::prefetchFrame">
<polygon fill="white" stroke="black" points="186.391,-39 186.391,-59 335.609,-59 335.609,-39 186.391,-39"/>
<text text-anchor="middle" x="261" y="-45" font-family="Helvetica,sans-Serif" font-size="10.00">rcVideoCache::prefetchFrame</text>
</a>
</g>
</g>
<!-- Node1&#45;&gt;Node2 -->
<g id="edge1" class="edge"><title>Node1&#45;&gt;Node2</title>
<path fill="none" stroke="midnightblue" d="M157.761,-37.9471C167.205,-38.9681 176.785,-40.0038 186.103,-41.0112"/>
<polygon fill="midnightblue" stroke="midnightblue" points="157.904,-34.4423 147.586,-36.8471 157.152,-41.4018 157.904,-34.4423"/>
</g>
<!-- Node6 -->
<g id="node6" class="node"><title>Node6</title>
<g id="a_node6"><a xlink:href="classrc_video_cache.html#aec3e06781206f1f7e7a852632af30bfc" target="_top" xlink:title="rcVideoCache::~rcVideoCache">
<polygon fill="white" stroke="black" points="184.665,-0 184.665,-20 337.335,-20 337.335,-0 184.665,-0"/>
<text text-anchor="middle" x="261" y="-6" font-family="Helvetica,sans-Serif" font-size="10.00">rcVideoCache::~rcVideoCache</text>
</a>
</g>
</g>
<!-- Node1&#45;&gt;Node6 -->
<g id="edge5" class="edge"><title>Node1&#45;&gt;Node6</title>
<path fill="none" stroke="midnightblue" d="M157.64,-20.5126C166.609,-19.5915 175.702,-18.6576 184.578,-17.746"/>
<polygon fill="midnightblue" stroke="midnightblue" points="157.176,-17.0418 147.586,-21.5452 157.891,-24.0052 157.176,-17.0418"/>
</g>
<!-- Node3 -->
<g id="node3" class="node"><title>Node3</title>
<g id="a_node3"><a xlink:href="classrc_video_cache.html#a4c3142d693b4308db8b4e46ac60da99b" target="_top" xlink:title="rcVideoCache::cachePrefetch">
<polygon fill="white" stroke="black" points="373.94,-39 373.94,-59 522.06,-59 522.06,-39 373.94,-39"/>
<text text-anchor="middle" x="448" y="-45" font-family="Helvetica,sans-Serif" font-size="10.00">rcVideoCache::cachePrefetch</text>
</a>
</g>
</g>
<!-- Node2&#45;&gt;Node3 -->
<g id="edge2" class="edge"><title>Node2&#45;&gt;Node3</title>
<path fill="none" stroke="midnightblue" d="M345.77,-49C355.158,-49 364.668,-49 373.907,-49"/>
<polygon fill="midnightblue" stroke="midnightblue" points="345.649,-45.5001 335.648,-49 345.648,-52.5001 345.649,-45.5001"/>
</g>
<!-- Node4 -->
<g id="node4" class="node"><title>Node4</title>
<g id="a_node4"><a xlink:href="classrc_shared_frame_buf_ptr.html#a3a63472e958153aa52867cfcb2b15e2b" target="_top" xlink:title="rcSharedFrameBufPtr\l::prefetch">
<polygon fill="white" stroke="black" points="558.372,-33 558.372,-65 671.628,-65 671.628,-33 558.372,-33"/>
<text text-anchor="start" x="566.372" y="-51" font-family="Helvetica,sans-Serif" font-size="10.00">rcSharedFrameBufPtr</text>
<text text-anchor="middle" x="615" y="-39" font-family="Helvetica,sans-Serif" font-size="10.00">::prefetch</text>
</a>
</g>
</g>
<!-- Node3&#45;&gt;Node4 -->
<g id="edge3" class="edge"><title>Node3&#45;&gt;Node4</title>
<path fill="none" stroke="midnightblue" d="M532.539,-49C541.247,-49 549.939,-49 558.228,-49"/>
<polygon fill="midnightblue" stroke="midnightblue" points="532.332,-45.5001 522.332,-49 532.332,-52.5001 532.332,-45.5001"/>
</g>
<!-- Node5 -->
<g id="node5" class="node"><title>Node5</title>
<g id="a_node5"><a xlink:href="classrc_engine_movie_playback.html#ab5cff6edcb8b3d901f96d0fde1766f18" target="_top" xlink:title="rcEngineMoviePlayback::run">
<polygon fill="white" stroke="black" points="708.636,-39 708.636,-59 851.364,-59 851.364,-39 708.636,-39"/>
<text text-anchor="middle" x="780" y="-45" font-family="Helvetica,sans-Serif" font-size="10.00">rcEngineMoviePlayback::run</text>
</a>
</g>
</g>
<!-- Node4&#45;&gt;Node5 -->
<g id="edge4" class="edge"><title>Node4&#45;&gt;Node5</title>
<path fill="none" stroke="midnightblue" d="M681.846,-49C690.663,-49 699.733,-49 708.623,-49"/>
<polygon fill="midnightblue" stroke="midnightblue" points="681.639,-45.5001 671.639,-49 681.639,-52.5001 681.639,-45.5001"/>
</g>
</g>
</svg>
