<?xml version="1.0" encoding="UTF-8" standalone="no"?>
<!DOCTYPE svg PUBLIC "-//W3C//DTD SVG 1.1//EN"
 "http://www.w3.org/Graphics/SVG/1.1/DTD/svg11.dtd">
<!-- Generated by graphviz version 2.32.0 (20130916.1925)
 -->
<!-- Title: rcAffineWindow::getPixelLoc Pages: 1 -->
<svg width="564pt" height="196pt"
 viewBox="0.00 0.00 564.00 196.00" xmlns="http://www.w3.org/2000/svg" xmlns:xlink="http://www.w3.org/1999/xlink">
<g id="graph0" class="graph" transform="scale(1 1) rotate(0) translate(4 192)">
<title>rcAffineWindow::getPixelLoc</title>
<polygon fill="white" stroke="white" points="-4,5 -4,-192 561,-192 561,5 -4,5"/>
<!-- Node1 -->
<g id="node1" class="node"><title>Node1</title>
<polygon fill="#bfbfbf" stroke="black" points="0.638184,-78 0.638184,-98 143.362,-98 143.362,-78 0.638184,-78"/>
<text text-anchor="middle" x="72" y="-84" font-family="Helvetica,sans-Serif" font-size="10.00">rcAffineWindow::getPixelLoc</text>
</g>
<!-- Node2 -->
<g id="node2" class="node"><title>Node2</title>
<g id="a_node2"><a xlink:href="classrc_affine_rectangle.html#a2103fa7f0aa8584cde38ddee79796d21" target="_top" xlink:title="rcAffineRectangle::\lgetPixelLoc">
<polygon fill="white" stroke="black" points="179.756,-72 179.756,-104 280.244,-104 280.244,-72 179.756,-72"/>
<text text-anchor="start" x="187.756" y="-90" font-family="Helvetica,sans-Serif" font-size="10.00">rcAffineRectangle::</text>
<text text-anchor="middle" x="230" y="-78" font-family="Helvetica,sans-Serif" font-size="10.00">getPixelLoc</text>
</a>
</g>
</g>
<!-- Node1&#45;&gt;Node2 -->
<g id="edge1" class="edge"><title>Node1&#45;&gt;Node2</title>
<path fill="none" stroke="midnightblue" d="M143.697,-88C152.294,-88 161.01,-88 169.423,-88"/>
<polygon fill="midnightblue" stroke="midnightblue" points="169.507,-91.5001 179.507,-88 169.507,-84.5001 169.507,-91.5001"/>
</g>
<!-- Node3 -->
<g id="node3" class="node"><title>Node3</title>
<g id="a_node3"><a xlink:href="classrc_affine_rectangle.html#aabaf03089f1ca6cda7f910291b25bf64" target="_top" xlink:title="rcAffineRectangle::\laffineToImage">
<polygon fill="white" stroke="black" points="315.756,-156 315.756,-188 416.244,-188 416.244,-156 315.756,-156"/>
<text text-anchor="start" x="323.756" y="-174" font-family="Helvetica,sans-Serif" font-size="10.00">rcAffineRectangle::</text>
<text text-anchor="middle" x="366" y="-162" font-family="Helvetica,sans-Serif" font-size="10.00">affineToImage</text>
</a>
</g>
</g>
<!-- Node2&#45;&gt;Node3 -->
<g id="edge2" class="edge"><title>Node2&#45;&gt;Node3</title>
<path fill="none" stroke="midnightblue" d="M253.281,-104.206C270.172,-116.243 294.132,-132.793 316,-146 318.762,-147.668 321.64,-149.344 324.556,-150.999"/>
<polygon fill="midnightblue" stroke="midnightblue" points="322.9,-154.082 333.344,-155.865 326.291,-147.959 322.9,-154.082"/>
</g>
<!-- Node5 -->
<g id="node5" class="node"><title>Node5</title>
<g id="a_node5"><a xlink:href="classrc_pair.html#ad1a3cb1e7fdbe119ce1295514b1bb49d" target="_top" xlink:title="rcPair::x">
<polygon fill="white" stroke="black" points="339.665,-117 339.665,-137 392.335,-137 392.335,-117 339.665,-117"/>
<text text-anchor="middle" x="366" y="-123" font-family="Helvetica,sans-Serif" font-size="10.00">rcPair::x</text>
</a>
</g>
</g>
<!-- Node2&#45;&gt;Node5 -->
<g id="edge4" class="edge"><title>Node2&#45;&gt;Node5</title>
<path fill="none" stroke="midnightblue" d="M280.516,-102.411C296.75,-107.136 314.457,-112.29 329.447,-116.652"/>
<polygon fill="midnightblue" stroke="midnightblue" points="328.76,-120.098 339.339,-119.532 330.716,-113.376 328.76,-120.098"/>
</g>
<!-- Node6 -->
<g id="node6" class="node"><title>Node6</title>
<g id="a_node6"><a xlink:href="classrc2d_vector.html#a510fd549126da1dfe80d60ee866ff628" target="_top" xlink:title="rc2dVector::x">
<polygon fill="white" stroke="black" points="328.818,-78 328.818,-98 403.182,-98 403.182,-78 328.818,-78"/>
<text text-anchor="middle" x="366" y="-84" font-family="Helvetica,sans-Serif" font-size="10.00">rc2dVector::x</text>
</a>
</g>
</g>
<!-- Node2&#45;&gt;Node6 -->
<g id="edge5" class="edge"><title>Node2&#45;&gt;Node6</title>
<path fill="none" stroke="midnightblue" d="M280.516,-88C292.98,-88 306.313,-88 318.618,-88"/>
<polygon fill="midnightblue" stroke="midnightblue" points="318.67,-91.5001 328.67,-88 318.67,-84.5001 318.67,-91.5001"/>
</g>
<!-- Node7 -->
<g id="node7" class="node"><title>Node7</title>
<g id="a_node7"><a xlink:href="classrc_pair.html#a87400f83938e920c405c40aa449d3607" target="_top" xlink:title="rcPair::y">
<polygon fill="white" stroke="black" points="339.665,-39 339.665,-59 392.335,-59 392.335,-39 339.665,-39"/>
<text text-anchor="middle" x="366" y="-45" font-family="Helvetica,sans-Serif" font-size="10.00">rcPair::y</text>
</a>
</g>
</g>
<!-- Node2&#45;&gt;Node7 -->
<g id="edge6" class="edge"><title>Node2&#45;&gt;Node7</title>
<path fill="none" stroke="midnightblue" d="M280.516,-73.5886C296.75,-68.8638 314.457,-63.7104 329.447,-59.3475"/>
<polygon fill="midnightblue" stroke="midnightblue" points="330.716,-62.6235 339.339,-56.4684 328.76,-55.9024 330.716,-62.6235"/>
</g>
<!-- Node8 -->
<g id="node8" class="node"><title>Node8</title>
<g id="a_node8"><a xlink:href="classrc2d_vector.html#a07f5517208bbd1d2a3ef6fb8eb3fddf8" target="_top" xlink:title="rc2dVector::y">
<polygon fill="white" stroke="black" points="328.818,-0 328.818,-20 403.182,-20 403.182,-0 328.818,-0"/>
<text text-anchor="middle" x="366" y="-6" font-family="Helvetica,sans-Serif" font-size="10.00">rc2dVector::y</text>
</a>
</g>
</g>
<!-- Node2&#45;&gt;Node8 -->
<g id="edge7" class="edge"><title>Node2&#45;&gt;Node8</title>
<path fill="none" stroke="midnightblue" d="M251.868,-71.9163C268.609,-59.4763 293.025,-42.3479 316,-30 319.93,-27.8876 324.133,-25.857 328.363,-23.9531"/>
<polygon fill="midnightblue" stroke="midnightblue" points="329.76,-27.1623 337.572,-20.005 327.002,-20.7286 329.76,-27.1623"/>
</g>
<!-- Node4 -->
<g id="node4" class="node"><title>Node4</title>
<g id="a_node4"><a xlink:href="classrc2_xform.html#a44d8bfc2fca67ec4126f15be742281fd" target="_top" xlink:title="rc2Xform::mapPoint">
<polygon fill="white" stroke="black" points="451.818,-162 451.818,-182 556.182,-182 556.182,-162 451.818,-162"/>
<text text-anchor="middle" x="504" y="-168" font-family="Helvetica,sans-Serif" font-size="10.00">rc2Xform::mapPoint</text>
</a>
</g>
</g>
<!-- Node3&#45;&gt;Node4 -->
<g id="edge3" class="edge"><title>Node3&#45;&gt;Node4</title>
<path fill="none" stroke="midnightblue" d="M416.484,-172C424.583,-172 433.062,-172 441.41,-172"/>
<polygon fill="midnightblue" stroke="midnightblue" points="441.495,-175.5 451.495,-172 441.495,-168.5 441.495,-175.5"/>
</g>
</g>
</svg>
