<?xml version="1.0" encoding="UTF-8" standalone="no"?>
<!DOCTYPE svg PUBLIC "-//W3C//DTD SVG 1.1//EN"
 "http://www.w3.org/Graphics/SVG/1.1/DTD/svg11.dtd">
<!-- Generated by graphviz version 2.32.0 (20130916.1925)
 -->
<!-- Title: rcNativeExporter::exportExperiment Pages: 1 -->
<svg width="718pt" height="1525pt"
 viewBox="0.00 0.00 718.00 1525.00" xmlns="http://www.w3.org/2000/svg" xmlns:xlink="http://www.w3.org/1999/xlink">
<g id="graph0" class="graph" transform="scale(1 1) rotate(0) translate(4 1521)">
<title>rcNativeExporter::exportExperiment</title>
<polygon fill="white" stroke="white" points="-4,5 -4,-1521 715,-1521 715,5 -4,5"/>
<!-- Node1 -->
<g id="node1" class="node"><title>Node1</title>
<polygon fill="#bfbfbf" stroke="black" points="0.0913086,-698 0.0913086,-730 123.909,-730 123.909,-698 0.0913086,-698"/>
<text text-anchor="start" x="8.09131" y="-716" font-family="Helvetica,sans-Serif" font-size="10.00">rcNativeExporter::export</text>
<text text-anchor="middle" x="62" y="-704" font-family="Helvetica,sans-Serif" font-size="10.00">Experiment</text>
</g>
<!-- Node2 -->
<g id="node2" class="node"><title>Node2</title>
<g id="a_node2"><a xlink:href="textio_8cpp.html#a905a4c61e365d406069f00eb68db1ca5" target="_top" xlink:title="endl">
<polygon fill="white" stroke="black" points="424.547,-1497 424.547,-1517 459.453,-1517 459.453,-1497 424.547,-1497"/>
<text text-anchor="middle" x="442" y="-1503" font-family="Helvetica,sans-Serif" font-size="10.00">endl</text>
</a>
</g>
</g>
<!-- Node1&#45;&gt;Node2 -->
<g id="edge1" class="edge"><title>Node1&#45;&gt;Node2</title>
<path fill="none" stroke="midnightblue" d="M63.0781,-730.116C63.8434,-824.171 72.0644,-1301.78 160,-1412 223.662,-1491.8 357.212,-1504.98 414.251,-1506.86"/>
<polygon fill="midnightblue" stroke="midnightblue" points="414.206,-1510.36 424.286,-1507.1 414.372,-1503.36 414.206,-1510.36"/>
</g>
<!-- Node4 -->
<g id="node4" class="node"><title>Node4</title>
<g id="a_node4"><a xlink:href="classrc_timestamp.html#a7e749f376ff8741e79a2dbba2419e78f" target="_top" xlink:title="rcTimestamp::now">
<polygon fill="white" stroke="black" points="192.341,-628 192.341,-648 289.659,-648 289.659,-628 192.341,-628"/>
<text text-anchor="middle" x="241" y="-634" font-family="Helvetica,sans-Serif" font-size="10.00">rcTimestamp::now</text>
</a>
</g>
</g>
<!-- Node1&#45;&gt;Node4 -->
<g id="edge3" class="edge"><title>Node1&#45;&gt;Node4</title>
<path fill="none" stroke="midnightblue" d="M85.904,-697.882C104.949,-685.149 133.178,-667.782 160,-657 167.171,-654.117 174.887,-651.604 182.597,-649.433"/>
<polygon fill="midnightblue" stroke="midnightblue" points="183.544,-652.803 192.317,-646.864 181.755,-646.035 183.544,-652.803"/>
</g>
<!-- Node6 -->
<g id="node6" class="node"><title>Node6</title>
<g id="a_node6"><a xlink:href="rc__xml_8cpp.html#a127c366ab4e46d552c39dd2d2e7d6b89" target="_top" xlink:title="output">
<polygon fill="white" stroke="black" points="219.099,-735 219.099,-755 262.901,-755 262.901,-735 219.099,-735"/>
<text text-anchor="middle" x="241" y="-741" font-family="Helvetica,sans-Serif" font-size="10.00">output</text>
</a>
</g>
</g>
<!-- Node1&#45;&gt;Node6 -->
<g id="edge5" class="edge"><title>Node1&#45;&gt;Node6</title>
<path fill="none" stroke="midnightblue" d="M123.913,-724.668C152.53,-729.68 185.423,-735.441 208.872,-739.548"/>
<polygon fill="midnightblue" stroke="midnightblue" points="208.478,-743.032 218.932,-741.31 209.686,-736.137 208.478,-743.032"/>
</g>
<!-- Node7 -->
<g id="node7" class="node"><title>Node7</title>
<g id="a_node7"><a xlink:href="classrc_progress_indicator.html#ae01451b2ec83eef63852f3ce8c238bf5" target="_top" xlink:title="rcProgressIndicator\l::progress">
<polygon fill="white" stroke="black" points="390.65,-774 390.65,-806 493.35,-806 493.35,-774 390.65,-774"/>
<text text-anchor="start" x="398.65" y="-792" font-family="Helvetica,sans-Serif" font-size="10.00">rcProgressIndicator</text>
<text text-anchor="middle" x="442" y="-780" font-family="Helvetica,sans-Serif" font-size="10.00">::progress</text>
</a>
</g>
</g>
<!-- Node1&#45;&gt;Node7 -->
<g id="edge57" class="edge"><title>Node1&#45;&gt;Node7</title>
<path fill="none" stroke="midnightblue" d="M87.8123,-730.187C106.774,-741.695 133.993,-756.406 160,-764 233.757,-785.537 322.607,-790.444 380.374,-791.014"/>
<polygon fill="midnightblue" stroke="midnightblue" points="380.413,-794.514 390.433,-791.072 380.454,-787.514 380.413,-794.514"/>
</g>
<!-- Node9 -->
<g id="node9" class="node"><title>Node9</title>
<g id="a_node9"><a xlink:href="classrc_native_exporter.html#a510e9c799621ed394968a146e95f19bd" target="_top" xlink:title="rcNativeExporter::produce\lElementCount">
<polygon fill="white" stroke="black" points="174.919,-1371 174.919,-1403 307.081,-1403 307.081,-1371 174.919,-1371"/>
<text text-anchor="start" x="182.919" y="-1389" font-family="Helvetica,sans-Serif" font-size="10.00">rcNativeExporter::produce</text>
<text text-anchor="middle" x="241" y="-1377" font-family="Helvetica,sans-Serif" font-size="10.00">ElementCount</text>
</a>
</g>
</g>
<!-- Node1&#45;&gt;Node9 -->
<g id="edge8" class="edge"><title>Node1&#45;&gt;Node9</title>
<path fill="none" stroke="midnightblue" d="M62.865,-730.304C62.866,-800.327 68.8345,-1081.27 160,-1286 173.276,-1315.81 197.404,-1344.45 215.702,-1363.57"/>
<polygon fill="midnightblue" stroke="midnightblue" points="213.392,-1366.21 222.89,-1370.91 218.393,-1361.31 213.392,-1366.21"/>
</g>
<!-- Node10 -->
<g id="node10" class="node"><title>Node10</title>
<g id="a_node10"><a xlink:href="classrc_native_exporter.html#a42689f424d289758e9558db33ffa523b" target="_top" xlink:title="rcNativeExporter::produce\lGroups">
<polygon fill="white" stroke="black" points="174.919,-968 174.919,-1000 307.081,-1000 307.081,-968 174.919,-968"/>
<text text-anchor="start" x="182.919" y="-986" font-family="Helvetica,sans-Serif" font-size="10.00">rcNativeExporter::produce</text>
<text text-anchor="middle" x="241" y="-974" font-family="Helvetica,sans-Serif" font-size="10.00">Groups</text>
</a>
</g>
</g>
<!-- Node1&#45;&gt;Node10 -->
<g id="edge10" class="edge"><title>Node1&#45;&gt;Node10</title>
<path fill="none" stroke="midnightblue" d="M73.5421,-730.081C103.293,-775.463 188.056,-904.764 223.794,-959.28"/>
<polygon fill="midnightblue" stroke="midnightblue" points="220.88,-961.217 229.289,-967.662 226.734,-957.38 220.88,-961.217"/>
</g>
<!-- Node18 -->
<g id="node18" class="node"><title>Node18</title>
<g id="a_node18"><a xlink:href="classrc_native_exporter.html#ab8c0b61fe8b24f1178692496e771097b" target="_top" xlink:title="rcNativeExporter::produce\lPreamble">
<polygon fill="white" stroke="black" points="174.919,-577 174.919,-609 307.081,-609 307.081,-577 174.919,-577"/>
<text text-anchor="start" x="182.919" y="-595" font-family="Helvetica,sans-Serif" font-size="10.00">rcNativeExporter::produce</text>
<text text-anchor="middle" x="241" y="-583" font-family="Helvetica,sans-Serif" font-size="10.00">Preamble</text>
</a>
</g>
</g>
<!-- Node1&#45;&gt;Node18 -->
<g id="edge18" class="edge"><title>Node1&#45;&gt;Node18</title>
<path fill="none" stroke="midnightblue" d="M75.3165,-697.668C92.1878,-676.386 124.47,-639.373 160,-618 162.806,-616.312 165.736,-614.728 168.747,-613.242"/>
<polygon fill="midnightblue" stroke="midnightblue" points="170.307,-616.379 177.982,-609.075 167.428,-609.998 170.307,-616.379"/>
</g>
<!-- Node19 -->
<g id="node19" class="node"><title>Node19</title>
<g id="a_node19"><a xlink:href="classrc_native_exporter.html#a068bcd266a84f2dc16c1678c8d4e84b0" target="_top" xlink:title="rcNativeExporter::produce\lResults">
<polygon fill="white" stroke="black" points="174.919,-1245 174.919,-1277 307.081,-1277 307.081,-1245 174.919,-1245"/>
<text text-anchor="start" x="182.919" y="-1263" font-family="Helvetica,sans-Serif" font-size="10.00">rcNativeExporter::produce</text>
<text text-anchor="middle" x="241" y="-1251" font-family="Helvetica,sans-Serif" font-size="10.00">Results</text>
</a>
</g>
</g>
<!-- Node1&#45;&gt;Node19 -->
<g id="edge19" class="edge"><title>Node1&#45;&gt;Node19</title>
<path fill="none" stroke="midnightblue" d="M68.2014,-730.074C93.1616,-807.211 200.721,-1139.61 231.651,-1235.2"/>
<polygon fill="midnightblue" stroke="midnightblue" points="228.39,-1236.49 234.798,-1244.92 235.05,-1234.33 228.39,-1236.49"/>
</g>
<!-- Node29 -->
<g id="node29" class="node"><title>Node29</title>
<g id="a_node29"><a xlink:href="classrc_native_exporter.html#ad021e9c349035a36d4a005d562078c67" target="_top" xlink:title="rcNativeExporter::produce\lSettings">
<polygon fill="white" stroke="black" points="174.919,-287 174.919,-319 307.081,-319 307.081,-287 174.919,-287"/>
<text text-anchor="start" x="182.919" y="-305" font-family="Helvetica,sans-Serif" font-size="10.00">rcNativeExporter::produce</text>
<text text-anchor="middle" x="241" y="-293" font-family="Helvetica,sans-Serif" font-size="10.00">Settings</text>
</a>
</g>
</g>
<!-- Node1&#45;&gt;Node29 -->
<g id="edge33" class="edge"><title>Node1&#45;&gt;Node29</title>
<path fill="none" stroke="midnightblue" d="M69.9386,-697.888C97.0365,-634.966 195.864,-405.484 229.049,-328.429"/>
<polygon fill="midnightblue" stroke="midnightblue" points="232.369,-329.569 233.109,-319 225.939,-326.8 232.369,-329.569"/>
</g>
<!-- Node40 -->
<g id="node40" class="node"><title>Node40</title>
<g id="a_node40"><a xlink:href="classrc_native_exporter.html#ae65218a34b08adf1acf907608c909b98" target="_top" xlink:title="rcNativeExporter::produce\lTimes">
<polygon fill="white" stroke="black" points="174.919,-819 174.919,-851 307.081,-851 307.081,-819 174.919,-819"/>
<text text-anchor="start" x="182.919" y="-837" font-family="Helvetica,sans-Serif" font-size="10.00">rcNativeExporter::produce</text>
<text text-anchor="middle" x="241" y="-825" font-family="Helvetica,sans-Serif" font-size="10.00">Times</text>
</a>
</g>
</g>
<!-- Node1&#45;&gt;Node40 -->
<g id="edge44" class="edge"><title>Node1&#45;&gt;Node40</title>
<path fill="none" stroke="midnightblue" d="M77.8173,-730.206C95.8012,-749.14 127.742,-780.483 160,-801 168.033,-806.109 176.965,-810.765 185.866,-814.881"/>
<polygon fill="midnightblue" stroke="midnightblue" points="184.53,-818.117 195.09,-818.971 187.367,-811.718 184.53,-818.117"/>
</g>
<!-- Node42 -->
<g id="node42" class="node"><title>Node42</title>
<g id="a_node42"><a xlink:href="classrc_native_exporter.html#ac6198892969d2146be5d422876ff1b9f" target="_top" xlink:title="rcNativeExporter::produce\lTracks">
<polygon fill="white" stroke="red" points="174.919,-667 174.919,-699 307.081,-699 307.081,-667 174.919,-667"/>
<text text-anchor="start" x="182.919" y="-685" font-family="Helvetica,sans-Serif" font-size="10.00">rcNativeExporter::produce</text>
<text text-anchor="middle" x="241" y="-673" font-family="Helvetica,sans-Serif" font-size="10.00">Tracks</text>
</a>
</g>
</g>
<!-- Node1&#45;&gt;Node42 -->
<g id="edge47" class="edge"><title>Node1&#45;&gt;Node42</title>
<path fill="none" stroke="midnightblue" d="M123.913,-703.332C137.11,-701.02 151.216,-698.55 164.886,-696.156"/>
<polygon fill="midnightblue" stroke="midnightblue" points="165.498,-699.602 174.744,-694.429 164.29,-692.707 165.498,-699.602"/>
</g>
<!-- Node48 -->
<g id="node48" class="node"><title>Node48</title>
<g id="a_node48"><a xlink:href="classrc_native_exporter.html#a207fb686fd4722fb7c80afa39587f7d8" target="_top" xlink:title="rcNativeExporter::produce\lVersion">
<polygon fill="white" stroke="red" points="174.919,-236 174.919,-268 307.081,-268 307.081,-236 174.919,-236"/>
<text text-anchor="start" x="182.919" y="-254" font-family="Helvetica,sans-Serif" font-size="10.00">rcNativeExporter::produce</text>
<text text-anchor="middle" x="241" y="-242" font-family="Helvetica,sans-Serif" font-size="10.00">Version</text>
</a>
</g>
</g>
<!-- Node1&#45;&gt;Node48 -->
<g id="edge56" class="edge"><title>Node1&#45;&gt;Node48</title>
<path fill="none" stroke="midnightblue" d="M64.4519,-697.751C71.1455,-626.323 101.238,-340.947 160,-277 161.852,-274.984 163.864,-273.13 166.003,-271.424"/>
<polygon fill="midnightblue" stroke="midnightblue" points="168.428,-274.013 174.806,-265.553 164.544,-268.19 168.428,-274.013"/>
</g>
<!-- Node49 -->
<g id="node49" class="node"><title>Node49</title>
<g id="a_node49"><a xlink:href="classrc_timestamp.html#a7a76776edb5c337196cf10c009339d15" target="_top" xlink:title="rcTimestamp::secs">
<polygon fill="white" stroke="red" points="191.232,-197 191.232,-217 290.768,-217 290.768,-197 191.232,-197"/>
<text text-anchor="middle" x="241" y="-203" font-family="Helvetica,sans-Serif" font-size="10.00">rcTimestamp::secs</text>
</a>
</g>
</g>
<!-- Node1&#45;&gt;Node49 -->
<g id="edge58" class="edge"><title>Node1&#45;&gt;Node49</title>
<path fill="none" stroke="midnightblue" d="M63.9246,-697.856C68.6327,-621.356 92.4173,-296.128 160,-226 165.909,-219.868 173.409,-215.562 181.437,-212.564"/>
<polygon fill="midnightblue" stroke="midnightblue" points="182.508,-215.897 191.04,-209.615 180.453,-209.205 182.508,-215.897"/>
</g>
<!-- Node50 -->
<g id="node50" class="node"><title>Node50</title>
<g id="a_node50"><a xlink:href="classrc_native_exporter.html#a7e1e4f28f23370f0939e2fec88727b08" target="_top" xlink:title="rcNativeExporter::xmlDeclaration">
<polygon fill="white" stroke="black" points="159.921,-158 159.921,-178 322.079,-178 322.079,-158 159.921,-158"/>
<text text-anchor="middle" x="241" y="-164" font-family="Helvetica,sans-Serif" font-size="10.00">rcNativeExporter::xmlDeclaration</text>
</a>
</g>
</g>
<!-- Node1&#45;&gt;Node50 -->
<g id="edge59" class="edge"><title>Node1&#45;&gt;Node50</title>
<path fill="none" stroke="midnightblue" d="M63.6643,-697.927C67.2983,-617.925 87.3513,-263.464 160,-187 160.94,-186.01 161.922,-185.068 162.94,-184.171"/>
<polygon fill="midnightblue" stroke="midnightblue" points="165.286,-186.798 171.401,-178.145 161.225,-181.096 165.286,-186.798"/>
</g>
<!-- Node3 -->
<g id="node3" class="node"><title>Node3</title>
<g id="a_node3"><a xlink:href="classotext.html#a5086c0fd5e3f551eae3027e5d23d3c30" target="_top" xlink:title="otext::put">
<polygon fill="white" stroke="red" points="607.431,-1497 607.431,-1517 664.569,-1517 664.569,-1497 607.431,-1497"/>
<text text-anchor="middle" x="636" y="-1503" font-family="Helvetica,sans-Serif" font-size="10.00">otext::put</text>
</a>
</g>
</g>
<!-- Node2&#45;&gt;Node3 -->
<g id="edge2" class="edge"><title>Node2&#45;&gt;Node3</title>
<path fill="none" stroke="midnightblue" d="M459.703,-1507C490.15,-1507 555.379,-1507 597.114,-1507"/>
<polygon fill="midnightblue" stroke="midnightblue" points="597.183,-1510.5 607.183,-1507 597.183,-1503.5 597.183,-1510.5"/>
</g>
<!-- Node5 -->
<g id="node5" class="node"><title>Node5</title>
<g id="a_node5"><a xlink:href="rc__timestamp__mac_8cpp.html#af7988734f76c2effcc4118da588b8779" target="_top" xlink:title="getCurrentTimestamp">
<polygon fill="white" stroke="black" points="385.833,-462 385.833,-482 498.167,-482 498.167,-462 385.833,-462"/>
<text text-anchor="middle" x="442" y="-468" font-family="Helvetica,sans-Serif" font-size="10.00">getCurrentTimestamp</text>
</a>
</g>
</g>
<!-- Node4&#45;&gt;Node5 -->
<g id="edge4" class="edge"><title>Node4&#45;&gt;Node5</title>
<path fill="none" stroke="midnightblue" d="M289.702,-634.487C301.507,-631.519 313.262,-626.469 322,-618 364.128,-577.168 315.467,-531.41 358,-491 363.112,-486.143 369.201,-482.436 375.725,-479.62"/>
<polygon fill="midnightblue" stroke="midnightblue" points="377.303,-482.773 385.533,-476.1 374.938,-476.184 377.303,-482.773"/>
</g>
<!-- Node6&#45;&gt;Node7 -->
<g id="edge6" class="edge"><title>Node6&#45;&gt;Node7</title>
<path fill="none" stroke="midnightblue" d="M262.92,-749.731C290.611,-755.992 340.593,-767.295 380.571,-776.335"/>
<polygon fill="midnightblue" stroke="midnightblue" points="379.974,-779.788 390.499,-778.58 381.518,-772.961 379.974,-779.788"/>
</g>
<!-- Node8 -->
<g id="node8" class="node"><title>Node8</title>
<g id="a_node8"><a xlink:href="classrc_x_m_l_element.html#a16e3743f305544ac5d7b71a1c5b7e54b" target="_top" xlink:title="rcXMLElement::type">
<polygon fill="white" stroke="black" points="388.983,-735 388.983,-755 495.017,-755 495.017,-735 388.983,-735"/>
<text text-anchor="middle" x="442" y="-741" font-family="Helvetica,sans-Serif" font-size="10.00">rcXMLElement::type</text>
</a>
</g>
</g>
<!-- Node6&#45;&gt;Node8 -->
<g id="edge7" class="edge"><title>Node6&#45;&gt;Node8</title>
<path fill="none" stroke="midnightblue" d="M262.92,-745C290.185,-745 339.061,-745 378.719,-745"/>
<polygon fill="midnightblue" stroke="midnightblue" points="378.846,-748.5 388.846,-745 378.846,-741.5 378.846,-748.5"/>
</g>
<!-- Node9&#45;&gt;Node2 -->
<g id="edge9" class="edge"><title>Node9&#45;&gt;Node2</title>
<path fill="none" stroke="midnightblue" d="M261.175,-1403.09C277.445,-1416.8 301.364,-1437.06 322,-1455 338.157,-1469.04 339.027,-1477.09 358,-1487 375.457,-1496.12 397.156,-1501.16 413.989,-1503.9"/>
<polygon fill="midnightblue" stroke="midnightblue" points="413.856,-1507.42 424.254,-1505.39 414.859,-1500.49 413.856,-1507.42"/>
</g>
<!-- Node11 -->
<g id="node11" class="node"><title>Node11</title>
<g id="a_node11"><a xlink:href="rc__nativeexporter_8cpp.html#abe7b8716319c12406f76f4bbef99cbb5" target="_top" xlink:title="cGroupComment">
<polygon fill="white" stroke="black" points="395.931,-954 395.931,-974 488.069,-974 488.069,-954 395.931,-954"/>
<text text-anchor="middle" x="442" y="-960" font-family="Helvetica,sans-Serif" font-size="10.00">cGroupComment</text>
</a>
</g>
</g>
<!-- Node10&#45;&gt;Node11 -->
<g id="edge11" class="edge"><title>Node10&#45;&gt;Node11</title>
<path fill="none" stroke="midnightblue" d="M307.16,-977.451C332.551,-974.899 361.343,-972.006 385.7,-969.558"/>
<polygon fill="midnightblue" stroke="midnightblue" points="386.244,-973.021 395.844,-968.538 385.544,-966.056 386.244,-973.021"/>
</g>
<!-- Node12 -->
<g id="node12" class="node"><title>Node12</title>
<g id="a_node12"><a xlink:href="classrc_experiment.html#af8f42371548d6281b00f7fd3e753fbd6" target="_top" xlink:title="rcExperiment::getTrackGroup">
<polygon fill="white" stroke="black" points="562.604,-1070 562.604,-1090 709.396,-1090 709.396,-1070 562.604,-1070"/>
<text text-anchor="middle" x="636" y="-1076" font-family="Helvetica,sans-Serif" font-size="10.00">rcExperiment::getTrackGroup</text>
</a>
</g>
</g>
<!-- Node10&#45;&gt;Node12 -->
<g id="edge12" class="edge"><title>Node10&#45;&gt;Node12</title>
<path fill="none" stroke="midnightblue" d="M274.92,-967.87C329.816,-943.408 442.285,-903.811 526,-944 552.181,-956.569 600.382,-1026.75 622.862,-1061.08"/>
<polygon fill="midnightblue" stroke="midnightblue" points="620.1,-1063.26 628.481,-1069.74 625.971,-1059.44 620.1,-1063.26"/>
</g>
<!-- Node13 -->
<g id="node13" class="node"><title>Node13</title>
<g id="a_node13"><a xlink:href="classrc_native_exporter.html#a595a931e369778be00fba8709659246c" target="_top" xlink:title="rcNativeExporter::produce\lIdString">
<polygon fill="white" stroke="black" points="375.919,-864 375.919,-896 508.081,-896 508.081,-864 375.919,-864"/>
<text text-anchor="start" x="383.919" y="-882" font-family="Helvetica,sans-Serif" font-size="10.00">rcNativeExporter::produce</text>
<text text-anchor="middle" x="442" y="-870" font-family="Helvetica,sans-Serif" font-size="10.00">IdString</text>
</a>
</g>
</g>
<!-- Node10&#45;&gt;Node13 -->
<g id="edge13" class="edge"><title>Node10&#45;&gt;Node13</title>
<path fill="none" stroke="midnightblue" d="M264.737,-967.729C287.556,-951.878 324.092,-927.782 358,-911 366.099,-906.992 374.852,-903.19 383.533,-899.712"/>
<polygon fill="midnightblue" stroke="midnightblue" points="384.84,-902.959 392.889,-896.07 382.3,-896.436 384.84,-902.959"/>
</g>
<!-- Node14 -->
<g id="node14" class="node"><title>Node14</title>
<g id="a_node14"><a xlink:href="classrc_x_m_l_name_mapper.html#aaebdcf245463c5377e2e01e50350334b" target="_top" xlink:title="rcXMLNameMapper::elementType">
<polygon fill="white" stroke="black" points="357.855,-1110 357.855,-1130 526.145,-1130 526.145,-1110 357.855,-1110"/>
<text text-anchor="middle" x="442" y="-1116" font-family="Helvetica,sans-Serif" font-size="10.00">rcXMLNameMapper::elementType</text>
</a>
</g>
</g>
<!-- Node10&#45;&gt;Node14 -->
<g id="edge14" class="edge"><title>Node10&#45;&gt;Node14</title>
<path fill="none" stroke="midnightblue" d="M253.518,-1000.29C272.361,-1025.66 312.288,-1074.37 358,-1100 362.412,-1102.47 367.123,-1104.64 371.974,-1106.55"/>
<polygon fill="midnightblue" stroke="midnightblue" points="370.84,-1109.86 381.435,-1109.88 373.17,-1103.26 370.84,-1109.86"/>
</g>
<!-- Node15 -->
<g id="node15" class="node"><title>Node15</title>
<g id="a_node15"><a xlink:href="classrc_track_group.html#a297eacfacefcbd81ed81b347aa094108" target="_top" xlink:title="rcTrackGroup::getTag">
<polygon fill="white" stroke="black" points="385.831,-1071 385.831,-1091 498.169,-1091 498.169,-1071 385.831,-1071"/>
<text text-anchor="middle" x="442" y="-1077" font-family="Helvetica,sans-Serif" font-size="10.00">rcTrackGroup::getTag</text>
</a>
</g>
</g>
<!-- Node10&#45;&gt;Node15 -->
<g id="edge15" class="edge"><title>Node10&#45;&gt;Node15</title>
<path fill="none" stroke="midnightblue" d="M261.694,-1000.23C283.82,-1017.68 321.442,-1045.06 358,-1061 364.116,-1063.67 370.648,-1066.01 377.259,-1068.07"/>
<polygon fill="midnightblue" stroke="midnightblue" points="376.386,-1071.46 386.965,-1070.88 378.333,-1064.74 376.386,-1071.46"/>
</g>
<!-- Node16 -->
<g id="node16" class="node"><title>Node16</title>
<g id="a_node16"><a xlink:href="classrc_track_group.html#a94f7043402d6ddcd978327bd15603375" target="_top" xlink:title="rcTrackGroup::getName">
<polygon fill="white" stroke="black" points="380.555,-1032 380.555,-1052 503.445,-1052 503.445,-1032 380.555,-1032"/>
<text text-anchor="middle" x="442" y="-1038" font-family="Helvetica,sans-Serif" font-size="10.00">rcTrackGroup::getName</text>
</a>
</g>
</g>
<!-- Node10&#45;&gt;Node16 -->
<g id="edge16" class="edge"><title>Node10&#45;&gt;Node16</title>
<path fill="none" stroke="midnightblue" d="M288.025,-1000.02C309.214,-1007.15 334.759,-1015.4 358,-1022 367.207,-1024.61 377.05,-1027.18 386.622,-1029.56"/>
<polygon fill="midnightblue" stroke="midnightblue" points="385.917,-1032.99 396.462,-1031.96 387.578,-1026.19 385.917,-1032.99"/>
</g>
<!-- Node17 -->
<g id="node17" class="node"><title>Node17</title>
<g id="a_node17"><a xlink:href="classrc_track_group.html#a5d6787de8e4d6ebbffc10fac5f34cf62" target="_top" xlink:title="rcTrackGroup::getDescription">
<polygon fill="white" stroke="black" points="368.883,-993 368.883,-1013 515.117,-1013 515.117,-993 368.883,-993"/>
<text text-anchor="middle" x="442" y="-999" font-family="Helvetica,sans-Serif" font-size="10.00">rcTrackGroup::getDescription</text>
</a>
</g>
</g>
<!-- Node10&#45;&gt;Node17 -->
<g id="edge17" class="edge"><title>Node10&#45;&gt;Node17</title>
<path fill="none" stroke="midnightblue" d="M307.16,-990.221C323.648,-991.796 341.569,-993.507 358.779,-995.15"/>
<polygon fill="midnightblue" stroke="midnightblue" points="358.526,-998.641 368.813,-996.108 359.191,-991.673 358.526,-998.641"/>
</g>
<!-- Node19&#45;&gt;Node7 -->
<g id="edge32" class="edge"><title>Node19&#45;&gt;Node7</title>
<path fill="none" stroke="midnightblue" d="M247.85,-1244.98C262.139,-1205.4 299.303,-1099.61 322,-1009 343.308,-923.934 299.463,-880.297 358,-815 364.197,-808.088 372.227,-803.055 380.846,-799.397"/>
<polygon fill="midnightblue" stroke="midnightblue" points="382.163,-802.643 390.372,-795.944 379.778,-796.062 382.163,-802.643"/>
</g>
<!-- Node19&#45;&gt;Node13 -->
<g id="edge23" class="edge"><title>Node19&#45;&gt;Node13</title>
<path fill="none" stroke="midnightblue" d="M246.64,-1244.74C263.201,-1187.4 320.418,-995.29 358,-944 370.25,-927.281 388.031,-912.77 403.996,-901.812"/>
<polygon fill="midnightblue" stroke="midnightblue" points="406.223,-904.535 412.632,-896.098 402.361,-898.697 406.223,-904.535"/>
</g>
<!-- Node20 -->
<g id="node20" class="node"><title>Node20</title>
<g id="a_node20"><a xlink:href="classrc_experiment_domain_factory.html#a138ea9e736e52e90303b7a681d3c920c" target="_top" xlink:title="rcExperimentDomainFactory\l::getExperimentDomain">
<polygon fill="white" stroke="black" points="370.648,-1200 370.648,-1232 513.352,-1232 513.352,-1200 370.648,-1200"/>
<text text-anchor="start" x="378.648" y="-1218" font-family="Helvetica,sans-Serif" font-size="10.00">rcExperimentDomainFactory</text>
<text text-anchor="middle" x="442" y="-1206" font-family="Helvetica,sans-Serif" font-size="10.00">::getExperimentDomain</text>
</a>
</g>
</g>
<!-- Node19&#45;&gt;Node20 -->
<g id="edge20" class="edge"><title>Node19&#45;&gt;Node20</title>
<path fill="none" stroke="midnightblue" d="M307.16,-1246.27C324.28,-1242.39 342.946,-1238.17 360.756,-1234.15"/>
<polygon fill="midnightblue" stroke="midnightblue" points="361.565,-1237.55 370.547,-1231.93 360.021,-1230.72 361.565,-1237.55"/>
</g>
<!-- Node21 -->
<g id="node21" class="node"><title>Node21</title>
<g id="a_node21"><a xlink:href="classrc_experiment_domain.html#adcdad124b236b3e94fc0431f2333179a" target="_top" xlink:title="rcExperimentDomain\l::getExperimentStart">
<polygon fill="white" stroke="black" points="387.318,-1149 387.318,-1181 496.682,-1181 496.682,-1149 387.318,-1149"/>
<text text-anchor="start" x="395.318" y="-1167" font-family="Helvetica,sans-Serif" font-size="10.00">rcExperimentDomain</text>
<text text-anchor="middle" x="442" y="-1155" font-family="Helvetica,sans-Serif" font-size="10.00">::getExperimentStart</text>
</a>
</g>
</g>
<!-- Node19&#45;&gt;Node21 -->
<g id="edge21" class="edge"><title>Node19&#45;&gt;Node21</title>
<path fill="none" stroke="midnightblue" d="M264.583,-1244.75C287.285,-1229.01 323.734,-1205.34 358,-1190 364.183,-1187.23 370.758,-1184.66 377.396,-1182.31"/>
<polygon fill="midnightblue" stroke="midnightblue" points="378.776,-1185.54 387.128,-1179.02 376.534,-1178.91 378.776,-1185.54"/>
</g>
<!-- Node22 -->
<g id="node22" class="node"><title>Node22</title>
<g id="a_node22"><a xlink:href="rc__nativeexporter_8cpp.html#a408630c793296eedf1c44d9eb1fcf21d" target="_top" xlink:title="cValueComment">
<polygon fill="white" stroke="black" points="397.408,-1458 397.408,-1478 486.592,-1478 486.592,-1458 397.408,-1458"/>
<text text-anchor="middle" x="442" y="-1464" font-family="Helvetica,sans-Serif" font-size="10.00">cValueComment</text>
</a>
</g>
</g>
<!-- Node19&#45;&gt;Node22 -->
<g id="edge22" class="edge"><title>Node19&#45;&gt;Node22</title>
<path fill="none" stroke="midnightblue" d="M257.089,-1277.13C274.415,-1296.25 302.9,-1329.64 322,-1362 343.06,-1397.68 326.453,-1421.14 358,-1448 366.381,-1455.14 376.884,-1459.82 387.573,-1462.86"/>
<polygon fill="midnightblue" stroke="midnightblue" points="386.845,-1466.29 397.386,-1465.23 388.484,-1459.48 386.845,-1466.29"/>
</g>
<!-- Node23 -->
<g id="node23" class="node"><title>Node23</title>
<g id="a_node23"><a xlink:href="classrc_segment_iterator.html#a7c50f8a2b69ea85812f18c956d4e42db" target="_top" xlink:title="rcSegmentIterator::\lgetSegmentCount">
<polygon fill="white" stroke="black" points="585.205,-1264 585.205,-1296 686.795,-1296 686.795,-1264 585.205,-1264"/>
<text text-anchor="start" x="593.205" y="-1282" font-family="Helvetica,sans-Serif" font-size="10.00">rcSegmentIterator::</text>
<text text-anchor="middle" x="636" y="-1270" font-family="Helvetica,sans-Serif" font-size="10.00">getSegmentCount</text>
</a>
</g>
</g>
<!-- Node19&#45;&gt;Node23 -->
<g id="edge24" class="edge"><title>Node19&#45;&gt;Node23</title>
<path fill="none" stroke="midnightblue" d="M307.108,-1273.57C323.644,-1276.24 341.423,-1278.65 358,-1280 432.566,-1286.07 518.798,-1284.76 574.981,-1282.8"/>
<polygon fill="midnightblue" stroke="midnightblue" points="575.248,-1286.29 585.113,-1282.43 574.991,-1279.3 575.248,-1286.29"/>
</g>
<!-- Node24 -->
<g id="node24" class="node"><title>Node24</title>
<g id="a_node24"><a xlink:href="classrc_exporter.html#af526dbb5aefc0408d5ebdd0f30958ab7" target="_top" xlink:title="rcExporter::init">
<polygon fill="white" stroke="red" points="401.769,-1251 401.769,-1271 482.231,-1271 482.231,-1251 401.769,-1251"/>
<text text-anchor="middle" x="442" y="-1257" font-family="Helvetica,sans-Serif" font-size="10.00">rcExporter::init</text>
</a>
</g>
</g>
<!-- Node19&#45;&gt;Node24 -->
<g id="edge25" class="edge"><title>Node19&#45;&gt;Node24</title>
<path fill="none" stroke="midnightblue" d="M307.16,-1261C334.557,-1261 365.914,-1261 391.386,-1261"/>
<polygon fill="midnightblue" stroke="midnightblue" points="391.554,-1264.5 401.554,-1261 391.554,-1257.5 391.554,-1264.5"/>
</g>
<!-- Node26 -->
<g id="node26" class="node"><title>Node26</title>
<g id="a_node26"><a xlink:href="classrc_x_m_l_time_mapper.html#a9a4b2b9ce5822f5fe521ed00368a4974" target="_top" xlink:title="rcXMLTimeMapper::timeValue">
<polygon fill="white" stroke="black" points="367.398,-1419 367.398,-1439 516.602,-1439 516.602,-1419 367.398,-1419"/>
<text text-anchor="middle" x="442" y="-1425" font-family="Helvetica,sans-Serif" font-size="10.00">rcXMLTimeMapper::timeValue</text>
</a>
</g>
</g>
<!-- Node19&#45;&gt;Node26 -->
<g id="edge29" class="edge"><title>Node19&#45;&gt;Node26</title>
<path fill="none" stroke="midnightblue" d="M254.828,-1277.03C270.696,-1296.9 298.495,-1331.82 322,-1362 338.169,-1382.76 335.945,-1394.65 358,-1409 361.564,-1411.32 365.372,-1413.37 369.324,-1415.18"/>
<polygon fill="midnightblue" stroke="midnightblue" points="368.176,-1418.49 378.759,-1419 370.799,-1412 368.176,-1418.49"/>
</g>
<!-- Node27 -->
<g id="node27" class="node"><title>Node27</title>
<g id="a_node27"><a xlink:href="classrc_segment_iterator.html#aad34d9a3613ec272be5261a60e30e3c8" target="_top" xlink:title="rcSegmentIterator::\lcontains">
<polygon fill="white" stroke="black" points="391.205,-1368 391.205,-1400 492.795,-1400 492.795,-1368 391.205,-1368"/>
<text text-anchor="start" x="399.205" y="-1386" font-family="Helvetica,sans-Serif" font-size="10.00">rcSegmentIterator::</text>
<text text-anchor="middle" x="442" y="-1374" font-family="Helvetica,sans-Serif" font-size="10.00">contains</text>
</a>
</g>
</g>
<!-- Node19&#45;&gt;Node27 -->
<g id="edge30" class="edge"><title>Node19&#45;&gt;Node27</title>
<path fill="none" stroke="midnightblue" d="M257.025,-1277.01C277.83,-1298.31 317.453,-1335.85 358,-1358 365.334,-1362.01 373.376,-1365.5 381.477,-1368.5"/>
<polygon fill="midnightblue" stroke="midnightblue" points="380.381,-1371.83 390.976,-1371.82 382.686,-1365.22 380.381,-1371.83"/>
</g>
<!-- Node28 -->
<g id="node28" class="node"><title>Node28</title>
<g id="a_node28"><a xlink:href="classrc_exporter.html#aea8467ddf0a3845ff0d845044f23c060" target="_top" xlink:title="rcExporter::produceValue">
<polygon fill="white" stroke="red" points="377.672,-1329 377.672,-1349 506.328,-1349 506.328,-1329 377.672,-1329"/>
<text text-anchor="middle" x="442" y="-1335" font-family="Helvetica,sans-Serif" font-size="10.00">rcExporter::produceValue</text>
</a>
</g>
</g>
<!-- Node19&#45;&gt;Node28 -->
<g id="edge31" class="edge"><title>Node19&#45;&gt;Node28</title>
<path fill="none" stroke="midnightblue" d="M274.002,-1277.05C297.022,-1288.24 328.995,-1303.06 358,-1314 369.551,-1318.36 382.222,-1322.49 394.109,-1326.09"/>
<polygon fill="midnightblue" stroke="midnightblue" points="393.285,-1329.5 403.867,-1328.99 395.276,-1322.79 393.285,-1329.5"/>
</g>
<!-- Node24&#45;&gt;Node12 -->
<g id="edge27" class="edge"><title>Node24&#45;&gt;Node12</title>
<path fill="none" stroke="midnightblue" d="M482.635,-1257.51C497.257,-1254.73 513.33,-1249.78 526,-1241 578.547,-1204.58 613.005,-1133.92 627.377,-1099.62"/>
<polygon fill="midnightblue" stroke="midnightblue" points="630.674,-1100.81 631.19,-1090.22 624.187,-1098.17 630.674,-1100.81"/>
</g>
<!-- Node24&#45;&gt;Node23 -->
<g id="edge26" class="edge"><title>Node24&#45;&gt;Node23</title>
<path fill="none" stroke="midnightblue" d="M482.317,-1264.89C509.029,-1267.53 544.864,-1271.08 575.103,-1274.07"/>
<polygon fill="midnightblue" stroke="midnightblue" points="574.827,-1277.56 585.123,-1275.06 575.516,-1270.6 574.827,-1277.56"/>
</g>
<!-- Node25 -->
<g id="node25" class="node"><title>Node25</title>
<g id="a_node25"><a xlink:href="classrc_track.html#aa92c4dfed7e9cdfe07f52769061086be" target="_top" xlink:title="rcTrack::getTrackType">
<polygon fill="white" stroke="black" points="578.63,-941 578.63,-961 693.37,-961 693.37,-941 578.63,-941"/>
<text text-anchor="middle" x="636" y="-947" font-family="Helvetica,sans-Serif" font-size="10.00">rcTrack::getTrackType</text>
</a>
</g>
</g>
<!-- Node24&#45;&gt;Node25 -->
<g id="edge28" class="edge"><title>Node24&#45;&gt;Node25</title>
<path fill="none" stroke="midnightblue" d="M482.601,-1260.31C498.099,-1258.01 514.807,-1252.65 526,-1241 582.822,-1181.85 530.572,-1135.76 562,-1060 576.508,-1025.03 602.96,-989.507 619.724,-968.902"/>
<polygon fill="midnightblue" stroke="midnightblue" points="622.563,-970.961 626.252,-961.029 617.174,-966.493 622.563,-970.961"/>
</g>
<!-- Node30 -->
<g id="node30" class="node"><title>Node30</title>
<g id="a_node30"><a xlink:href="classrc_experiment.html#a4e598cac917357cd6cf8fba487f80c3b" target="_top" xlink:title="rcExperiment::getNSetting\lCategories">
<polygon fill="white" stroke="black" points="375.641,-39 375.641,-71 508.359,-71 508.359,-39 375.641,-39"/>
<text text-anchor="start" x="383.641" y="-57" font-family="Helvetica,sans-Serif" font-size="10.00">rcExperiment::getNSetting</text>
<text text-anchor="middle" x="442" y="-45" font-family="Helvetica,sans-Serif" font-size="10.00">Categories</text>
</a>
</g>
</g>
<!-- Node29&#45;&gt;Node30 -->
<g id="edge34" class="edge"><title>Node29&#45;&gt;Node30</title>
<path fill="none" stroke="midnightblue" d="M307.401,-288.771C312.863,-285.599 317.866,-281.727 322,-277 380.599,-210.006 298.679,-146.355 358,-80 360.688,-76.9936 363.722,-74.3426 367.001,-72.0056"/>
<polygon fill="midnightblue" stroke="midnightblue" points="368.844,-74.9819 375.599,-66.8197 365.228,-68.988 368.844,-74.9819"/>
</g>
<!-- Node31 -->
<g id="node31" class="node"><title>Node31</title>
<g id="a_node31"><a xlink:href="rc__nativeexporter_8cpp.html#a691162f8a524afa778b0ad312e9e1d7b" target="_top" xlink:title="cSettingCategoryComment">
<polygon fill="white" stroke="black" points="373.973,-0 373.973,-20 510.027,-20 510.027,-0 373.973,-0"/>
<text text-anchor="middle" x="442" y="-6" font-family="Helvetica,sans-Serif" font-size="10.00">cSettingCategoryComment</text>
</a>
</g>
</g>
<!-- Node29&#45;&gt;Node31 -->
<g id="edge35" class="edge"><title>Node29&#45;&gt;Node31</title>
<path fill="none" stroke="midnightblue" d="M307.202,-289.148C312.778,-285.906 317.859,-281.913 322,-277 393.782,-191.84 282.493,-110.876 358,-29 360.067,-26.7587 362.34,-24.7552 364.771,-22.9658"/>
<polygon fill="midnightblue" stroke="midnightblue" points="366.815,-25.8215 373.585,-17.672 363.21,-19.8207 366.815,-25.8215"/>
</g>
<!-- Node32 -->
<g id="node32" class="node"><title>Node32</title>
<g id="a_node32"><a xlink:href="classrc_experiment.html#a560d53d7d6cc65c2da8407ee7e17ad96" target="_top" xlink:title="rcExperiment::getSetting\lCategory">
<polygon fill="white" stroke="black" points="379.251,-411 379.251,-443 504.749,-443 504.749,-411 379.251,-411"/>
<text text-anchor="start" x="387.251" y="-429" font-family="Helvetica,sans-Serif" font-size="10.00">rcExperiment::getSetting</text>
<text text-anchor="middle" x="442" y="-417" font-family="Helvetica,sans-Serif" font-size="10.00">Category</text>
</a>
</g>
</g>
<!-- Node29&#45;&gt;Node32 -->
<g id="edge36" class="edge"><title>Node29&#45;&gt;Node32</title>
<path fill="none" stroke="midnightblue" d="M256.991,-319.182C277.757,-340.712 317.336,-378.652 358,-401 361.978,-403.186 366.167,-405.218 370.461,-407.101"/>
<polygon fill="midnightblue" stroke="midnightblue" points="369.41,-410.452 379.992,-410.987 372.054,-403.97 369.41,-410.452"/>
</g>
<!-- Node33 -->
<g id="node33" class="node"><title>Node33</title>
<g id="a_node33"><a xlink:href="classrc_setting_category.html#aa0d63537745b8704d5e5138d551dc6e2" target="_top" xlink:title="rcSettingCategory::\lgetNSettings">
<polygon fill="white" stroke="black" points="391.202,-360 391.202,-392 492.798,-392 492.798,-360 391.202,-360"/>
<text text-anchor="start" x="399.202" y="-378" font-family="Helvetica,sans-Serif" font-size="10.00">rcSettingCategory::</text>
<text text-anchor="middle" x="442" y="-366" font-family="Helvetica,sans-Serif" font-size="10.00">getNSettings</text>
</a>
</g>
</g>
<!-- Node29&#45;&gt;Node33 -->
<g id="edge37" class="edge"><title>Node29&#45;&gt;Node33</title>
<path fill="none" stroke="midnightblue" d="M279.316,-319.021C301.912,-328.495 331.41,-340.466 358,-350 365.579,-352.717 373.602,-355.431 381.554,-358.024"/>
<polygon fill="midnightblue" stroke="midnightblue" points="380.594,-361.391 391.185,-361.119 382.736,-354.727 380.594,-361.391"/>
</g>
<!-- Node34 -->
<g id="node34" class="node"><title>Node34</title>
<g id="a_node34"><a xlink:href="classrc_setting_category.html#a3943a66b87653c25e0ca6c194ff97e7a" target="_top" xlink:title="rcSettingCategory::\lgetSettingInfo">
<polygon fill="white" stroke="black" points="391.202,-309 391.202,-341 492.798,-341 492.798,-309 391.202,-309"/>
<text text-anchor="start" x="399.202" y="-327" font-family="Helvetica,sans-Serif" font-size="10.00">rcSettingCategory::</text>
<text text-anchor="middle" x="442" y="-315" font-family="Helvetica,sans-Serif" font-size="10.00">getSettingInfo</text>
</a>
</g>
</g>
<!-- Node29&#45;&gt;Node34 -->
<g id="edge38" class="edge"><title>Node29&#45;&gt;Node34</title>
<path fill="none" stroke="midnightblue" d="M307.16,-310.204C330.957,-312.834 357.74,-315.795 381.061,-318.374"/>
<polygon fill="midnightblue" stroke="midnightblue" points="380.841,-321.87 391.165,-319.491 381.61,-314.913 380.841,-321.87"/>
</g>
<!-- Node35 -->
<g id="node35" class="node"><title>Node35</title>
<g id="a_node35"><a xlink:href="classrc_setting_info.html#ac565d8b9d30b1fff0d8c02c80d4e0eb1" target="_top" xlink:title="rcSettingInfo::isPersistable">
<polygon fill="white" stroke="black" points="374.806,-270 374.806,-290 509.194,-290 509.194,-270 374.806,-270"/>
<text text-anchor="middle" x="442" y="-276" font-family="Helvetica,sans-Serif" font-size="10.00">rcSettingInfo::isPersistable</text>
</a>
</g>
</g>
<!-- Node29&#45;&gt;Node35 -->
<g id="edge39" class="edge"><title>Node29&#45;&gt;Node35</title>
<path fill="none" stroke="midnightblue" d="M307.16,-295.469C325.512,-293.348 345.641,-291.021 364.587,-288.832"/>
<polygon fill="midnightblue" stroke="midnightblue" points="365.139,-292.291 374.671,-287.666 364.335,-285.338 365.139,-292.291"/>
</g>
<!-- Node36 -->
<g id="node36" class="node"><title>Node36</title>
<g id="a_node36"><a xlink:href="classrc_setting_category.html#ab064ba4057a7ef7ee9b48f7631d5ed86" target="_top" xlink:title="rcSettingCategory::\lgetName">
<polygon fill="white" stroke="black" points="391.202,-219 391.202,-251 492.798,-251 492.798,-219 391.202,-219"/>
<text text-anchor="start" x="399.202" y="-237" font-family="Helvetica,sans-Serif" font-size="10.00">rcSettingCategory::</text>
<text text-anchor="middle" x="442" y="-225" font-family="Helvetica,sans-Serif" font-size="10.00">getName</text>
</a>
</g>
</g>
<!-- Node29&#45;&gt;Node36 -->
<g id="edge40" class="edge"><title>Node29&#45;&gt;Node36</title>
<path fill="none" stroke="midnightblue" d="M294.839,-286.879C303.968,-283.795 313.312,-280.447 322,-277 338.447,-270.475 341.483,-266.347 358,-260 365.49,-257.122 373.461,-254.358 381.387,-251.786"/>
<polygon fill="midnightblue" stroke="midnightblue" points="382.518,-255.099 390.998,-248.748 380.408,-248.425 382.518,-255.099"/>
</g>
<!-- Node37 -->
<g id="node37" class="node"><title>Node37</title>
<g id="a_node37"><a xlink:href="classrc_setting_category.html#aaead4deeb53630c4adfadd870efb95b5" target="_top" xlink:title="rcSettingCategory::\lgetDescription">
<polygon fill="white" stroke="black" points="391.202,-168 391.202,-200 492.798,-200 492.798,-168 391.202,-168"/>
<text text-anchor="start" x="399.202" y="-186" font-family="Helvetica,sans-Serif" font-size="10.00">rcSettingCategory::</text>
<text text-anchor="middle" x="442" y="-174" font-family="Helvetica,sans-Serif" font-size="10.00">getDescription</text>
</a>
</g>
</g>
<!-- Node29&#45;&gt;Node37 -->
<g id="edge41" class="edge"><title>Node29&#45;&gt;Node37</title>
<path fill="none" stroke="midnightblue" d="M306.803,-286.94C312.25,-284.139 317.417,-280.853 322,-277 348.175,-254.995 331.588,-230.72 358,-209 364.841,-203.374 372.923,-199.014 381.314,-195.635"/>
<polygon fill="midnightblue" stroke="midnightblue" points="382.629,-198.881 390.869,-192.221 380.274,-192.29 382.629,-198.881"/>
</g>
<!-- Node38 -->
<g id="node38" class="node"><title>Node38</title>
<g id="a_node38"><a xlink:href="classrc_setting_info.html#a4dc154cd3e34eeb58d3e08b72d1f1c34" target="_top" xlink:title="rcSettingInfo::getTag">
<polygon fill="white" stroke="black" points="388.138,-129 388.138,-149 495.862,-149 495.862,-129 388.138,-129"/>
<text text-anchor="middle" x="442" y="-135" font-family="Helvetica,sans-Serif" font-size="10.00">rcSettingInfo::getTag</text>
</a>
</g>
</g>
<!-- Node29&#45;&gt;Node38 -->
<g id="edge42" class="edge"><title>Node29&#45;&gt;Node38</title>
<path fill="none" stroke="midnightblue" d="M307.248,-288.055C312.67,-285.025 317.707,-281.381 322,-277 360.67,-237.53 317.609,-195.706 358,-158 363.774,-152.61 370.754,-148.642 378.185,-145.737"/>
<polygon fill="midnightblue" stroke="midnightblue" points="379.365,-149.034 387.782,-142.6 377.19,-142.38 379.365,-149.034"/>
</g>
<!-- Node39 -->
<g id="node39" class="node"><title>Node39</title>
<g id="a_node39"><a xlink:href="classrc_setting_info.html#a97d3386417e33e46df6f361ccfb430a5" target="_top" xlink:title="rcSettingInfo::getValue">
<polygon fill="white" stroke="black" points="383.78,-90 383.78,-110 500.22,-110 500.22,-90 383.78,-90"/>
<text text-anchor="middle" x="442" y="-96" font-family="Helvetica,sans-Serif" font-size="10.00">rcSettingInfo::getValue</text>
</a>
</g>
</g>
<!-- Node29&#45;&gt;Node39 -->
<g id="edge43" class="edge"><title>Node29&#45;&gt;Node39</title>
<path fill="none" stroke="midnightblue" d="M307.19,-288.583C312.694,-285.448 317.764,-281.636 322,-277 370.579,-223.828 307.099,-169.953 358,-119 362.594,-114.402 368.058,-110.822 373.958,-108.048"/>
<polygon fill="midnightblue" stroke="midnightblue" points="375.479,-111.212 383.526,-104.319 372.937,-104.689 375.479,-111.212"/>
</g>
<!-- Node40&#45;&gt;Node13 -->
<g id="edge46" class="edge"><title>Node40&#45;&gt;Node13</title>
<path fill="none" stroke="midnightblue" d="M307.16,-849.735C325.886,-853.969 346.462,-858.622 365.745,-862.982"/>
<polygon fill="midnightblue" stroke="midnightblue" points="365.168,-866.44 375.694,-865.232 366.712,-859.613 365.168,-866.44"/>
</g>
<!-- Node41 -->
<g id="node41" class="node"><title>Node41</title>
<g id="a_node41"><a xlink:href="rc__nativeexporter_8cpp.html#af51ed683b3a5cdfe1b6c86c57a90b50f" target="_top" xlink:title="cTimeComment">
<polygon fill="white" stroke="black" points="398.9,-825 398.9,-845 485.1,-845 485.1,-825 398.9,-825"/>
<text text-anchor="middle" x="442" y="-831" font-family="Helvetica,sans-Serif" font-size="10.00">cTimeComment</text>
</a>
</g>
</g>
<!-- Node40&#45;&gt;Node41 -->
<g id="edge45" class="edge"><title>Node40&#45;&gt;Node41</title>
<path fill="none" stroke="midnightblue" d="M307.16,-835C333.661,-835 363.866,-835 388.867,-835"/>
<polygon fill="midnightblue" stroke="midnightblue" points="388.881,-838.5 398.881,-835 388.881,-831.5 388.881,-838.5"/>
</g>
<!-- Node42&#45;&gt;Node2 -->
<g id="edge55" class="edge"><title>Node42&#45;&gt;Node2</title>
<path fill="none" stroke="midnightblue" d="M291.808,-699.132C303.609,-705.347 314.835,-713.755 322,-725 367.545,-796.485 303.996,-1421.67 358,-1487 371.404,-1503.21 395.458,-1507.6 414.233,-1508.28"/>
<polygon fill="midnightblue" stroke="midnightblue" points="414.271,-1511.78 424.287,-1508.33 414.303,-1504.78 414.271,-1511.78"/>
</g>
<!-- Node42&#45;&gt;Node13 -->
<g id="edge49" class="edge"><title>Node42&#45;&gt;Node13</title>
<path fill="none" stroke="midnightblue" d="M287.678,-699.016C300.324,-705.382 313.027,-713.898 322,-725 359.417,-771.294 316.577,-811.254 358,-854 360.68,-856.765 363.649,-859.237 366.824,-861.448"/>
<polygon fill="midnightblue" stroke="midnightblue" points="365.267,-864.595 375.649,-866.708 368.851,-858.582 365.267,-864.595"/>
</g>
<!-- Node42&#45;&gt;Node25 -->
<g id="edge52" class="edge"><title>Node42&#45;&gt;Node25</title>
<path fill="none" stroke="midnightblue" d="M307.323,-685.665C380.171,-689.828 492.222,-700.158 526,-725 596.202,-776.629 623.247,-885.573 631.716,-930.73"/>
<polygon fill="midnightblue" stroke="midnightblue" points="628.301,-931.521 633.484,-940.762 635.195,-930.306 628.301,-931.521"/>
</g>
<!-- Node43 -->
<g id="node43" class="node"><title>Node43</title>
<g id="a_node43"><a xlink:href="rc__nativeexporter_8cpp.html#ae454c189465e4f489b9d132303bbd8be" target="_top" xlink:title="cTrackComment">
<polygon fill="white" stroke="black" points="397.511,-657 397.511,-677 486.489,-677 486.489,-657 397.511,-657"/>
<text text-anchor="middle" x="442" y="-663" font-family="Helvetica,sans-Serif" font-size="10.00">cTrackComment</text>
</a>
</g>
</g>
<!-- Node42&#45;&gt;Node43 -->
<g id="edge48" class="edge"><title>Node42&#45;&gt;Node43</title>
<path fill="none" stroke="midnightblue" d="M307.16,-677.761C333.047,-675.68 362.469,-673.314 387.122,-671.332"/>
<polygon fill="midnightblue" stroke="midnightblue" points="387.684,-674.798 397.371,-670.508 387.123,-667.821 387.684,-674.798"/>
</g>
<!-- Node44 -->
<g id="node44" class="node"><title>Node44</title>
<g id="a_node44"><a xlink:href="classrc_track.html#a70b58187ae19ac809a958ba4e5fe2b33" target="_top" xlink:title="rcTrack::getTag">
<polygon fill="white" stroke="black" points="399.728,-618 399.728,-638 484.272,-638 484.272,-618 399.728,-618"/>
<text text-anchor="middle" x="442" y="-624" font-family="Helvetica,sans-Serif" font-size="10.00">rcTrack::getTag</text>
</a>
</g>
</g>
<!-- Node42&#45;&gt;Node44 -->
<g id="edge50" class="edge"><title>Node42&#45;&gt;Node44</title>
<path fill="none" stroke="midnightblue" d="M290.865,-666.932C311.482,-660.388 335.806,-652.975 358,-647 368.168,-644.263 379.104,-641.577 389.593,-639.127"/>
<polygon fill="midnightblue" stroke="midnightblue" points="390.511,-642.508 399.473,-636.857 388.943,-635.686 390.511,-642.508"/>
</g>
<!-- Node45 -->
<g id="node45" class="node"><title>Node45</title>
<g id="a_node45"><a xlink:href="classrc_track.html#ad7357e8dd8d9e859b39862bb7bdd1d25" target="_top" xlink:title="rcTrack::name">
<polygon fill="white" stroke="red" points="402.232,-579 402.232,-599 481.768,-599 481.768,-579 402.232,-579"/>
<text text-anchor="middle" x="442" y="-585" font-family="Helvetica,sans-Serif" font-size="10.00">rcTrack::name</text>
</a>
</g>
</g>
<!-- Node42&#45;&gt;Node45 -->
<g id="edge51" class="edge"><title>Node42&#45;&gt;Node45</title>
<path fill="none" stroke="midnightblue" d="M304.597,-666.972C310.747,-664.148 316.673,-660.849 322,-657 343.904,-641.173 335.412,-622.834 358,-608 368.136,-601.343 380.298,-597.002 392.148,-594.175"/>
<polygon fill="midnightblue" stroke="midnightblue" points="392.894,-597.595 401.976,-592.14 391.474,-590.741 392.894,-597.595"/>
</g>
<!-- Node46 -->
<g id="node46" class="node"><title>Node46</title>
<g id="a_node46"><a xlink:href="classrc_track.html#aae992301108c97ad554fcdce2bdf034d" target="_top" xlink:title="rcTrack::getName">
<polygon fill="white" stroke="black" points="394.452,-540 394.452,-560 489.548,-560 489.548,-540 394.452,-540"/>
<text text-anchor="middle" x="442" y="-546" font-family="Helvetica,sans-Serif" font-size="10.00">rcTrack::getName</text>
</a>
</g>
</g>
<!-- Node42&#45;&gt;Node46 -->
<g id="edge53" class="edge"><title>Node42&#45;&gt;Node46</title>
<path fill="none" stroke="midnightblue" d="M307.217,-667.408C312.578,-664.51 317.612,-661.074 322,-657 352.967,-628.247 325.782,-596.344 358,-569 365.608,-562.543 374.974,-558.171 384.642,-555.232"/>
<polygon fill="midnightblue" stroke="midnightblue" points="385.537,-558.616 394.357,-552.747 383.802,-551.834 385.537,-558.616"/>
</g>
<!-- Node47 -->
<g id="node47" class="node"><title>Node47</title>
<g id="a_node47"><a xlink:href="classrc_track.html#af48edc9cf3666dae954b20427a8ccd03" target="_top" xlink:title="rcTrack::getDescription">
<polygon fill="white" stroke="black" points="382.779,-501 382.779,-521 501.221,-521 501.221,-501 382.779,-501"/>
<text text-anchor="middle" x="442" y="-507" font-family="Helvetica,sans-Serif" font-size="10.00">rcTrack::getDescription</text>
</a>
</g>
</g>
<!-- Node42&#45;&gt;Node47 -->
<g id="edge54" class="edge"><title>Node42&#45;&gt;Node47</title>
<path fill="none" stroke="midnightblue" d="M307.329,-668.133C312.735,-665.088 317.746,-661.419 322,-657 362.689,-614.734 315.467,-570.41 358,-530 362.394,-525.825 367.509,-522.501 373.002,-519.861"/>
<polygon fill="midnightblue" stroke="midnightblue" points="374.564,-523.005 382.543,-516.035 371.959,-516.508 374.564,-523.005"/>
</g>
</g>
</svg>
