<?xml version="1.0" encoding="UTF-8" standalone="no"?>
<!DOCTYPE svg PUBLIC "-//W3C//DTD SVG 1.1//EN"
 "http://www.w3.org/Graphics/SVG/1.1/DTD/svg11.dtd">
<!-- Generated by graphviz version 2.32.0 (20130916.1925)
 -->
<!-- Title: rcCellInfoWidget Pages: 1 -->
<svg width="182pt" height="100pt"
 viewBox="0.00 0.00 182.11 100.00" xmlns="http://www.w3.org/2000/svg" xmlns:xlink="http://www.w3.org/1999/xlink">
<g id="graph0" class="graph" transform="scale(1 1) rotate(0) translate(4 96)">
<title>rcCellInfoWidget</title>
<polygon fill="white" stroke="white" points="-4,5 -4,-96 179.111,-96 179.111,5 -4,5"/>
<!-- Node1 -->
<g id="node1" class="node"><title>Node1</title>
<polygon fill="#bfbfbf" stroke="black" points="23.3203,-1 23.3203,-21 112.68,-21 112.68,-1 23.3203,-1"/>
<text text-anchor="middle" x="68" y="-7" font-family="Helvetica,sans-Serif" font-size="10.00">rcCellInfoWidget</text>
</g>
<!-- Node2 -->
<g id="node2" class="node"><title>Node2</title>
<polygon fill="white" stroke="#bfbfbf" points="-0.450684,-71 -0.450684,-91 54.4507,-91 54.4507,-71 -0.450684,-71"/>
<text text-anchor="middle" x="27" y="-77" font-family="Helvetica,sans-Serif" font-size="10.00">QWidget</text>
</g>
<!-- Node2&#45;&gt;Node1 -->
<g id="edge1" class="edge"><title>Node2&#45;&gt;Node1</title>
<path fill="none" stroke="midnightblue" d="M37.7838,-62.1147C45.7509,-48.9009 56.2651,-31.4627 62.5582,-21.0255"/>
<polygon fill="midnightblue" stroke="midnightblue" points="34.6956,-60.4582 32.5294,-70.8292 40.6903,-64.0726 34.6956,-60.4582"/>
</g>
<!-- Node3 -->
<g id="node3" class="node"><title>Node3</title>
<g id="a_node3"><a xlink:href="classrc_timestamp.html" target="_top" xlink:title="rcTimestamp">
<polygon fill="white" stroke="black" points="72.2915,-71 72.2915,-91 145.708,-91 145.708,-71 72.2915,-71"/>
<text text-anchor="middle" x="109" y="-77" font-family="Helvetica,sans-Serif" font-size="10.00">rcTimestamp</text>
</a>
</g>
</g>
<!-- Node3&#45;&gt;Node1 -->
<g id="edge2" class="edge"><title>Node3&#45;&gt;Node1</title>
<path fill="none" stroke="#9a32cd" stroke-dasharray="5,2" d="M98.2162,-62.1147C90.2491,-48.9009 79.7349,-31.4627 73.4418,-21.0255"/>
<polygon fill="#9a32cd" stroke="#9a32cd" points="95.3097,-64.0726 103.471,-70.8292 101.304,-60.4582 95.3097,-64.0726"/>
<text text-anchor="middle" x="132.056" y="-42" font-family="Helvetica,sans-Serif" font-size="10.00"> mLastUpdateTime</text>
</g>
</g>
</svg>
