<?xml version="1.0" encoding="UTF-8" standalone="no"?>
<!DOCTYPE svg PUBLIC "-//W3C//DTD SVG 1.1//EN"
 "http://www.w3.org/Graphics/SVG/1.1/DTD/svg11.dtd">
<!-- Generated by graphviz version 2.32.0 (20130916.1925)
 -->
<!-- Title: rcVideoCache::cachePrefetch Pages: 1 -->
<svg width="526pt" height="40pt"
 viewBox="0.00 0.00 526.00 40.00" xmlns="http://www.w3.org/2000/svg" xmlns:xlink="http://www.w3.org/1999/xlink">
<g id="graph0" class="graph" transform="scale(1 1) rotate(0) translate(4 36)">
<title>rcVideoCache::cachePrefetch</title>
<polygon fill="white" stroke="white" points="-4,5 -4,-36 523,-36 523,5 -4,5"/>
<!-- Node1 -->
<g id="node1" class="node"><title>Node1</title>
<polygon fill="#bfbfbf" stroke="black" points="-0.0595703,-6 -0.0595703,-26 148.06,-26 148.06,-6 -0.0595703,-6"/>
<text text-anchor="middle" x="74" y="-12" font-family="Helvetica,sans-Serif" font-size="10.00">rcVideoCache::cachePrefetch</text>
</g>
<!-- Node2 -->
<g id="node2" class="node"><title>Node2</title>
<g id="a_node2"><a xlink:href="classrc_video_cache.html#a203d0ba6e59f4adbd60286eae2d25a05" target="_top" xlink:title="rcVideoCache::prefetchFrame">
<polygon fill="white" stroke="black" points="184.391,-6 184.391,-26 333.609,-26 333.609,-6 184.391,-6"/>
<text text-anchor="middle" x="259" y="-12" font-family="Helvetica,sans-Serif" font-size="10.00">rcVideoCache::prefetchFrame</text>
</a>
</g>
</g>
<!-- Node1&#45;&gt;Node2 -->
<g id="edge1" class="edge"><title>Node1&#45;&gt;Node2</title>
<path fill="none" stroke="midnightblue" d="M148.115,-16C156.631,-16 165.367,-16 174.014,-16"/>
<polygon fill="midnightblue" stroke="midnightblue" points="174.104,-19.5001 184.104,-16 174.104,-12.5001 174.104,-19.5001"/>
</g>
<!-- Node3 -->
<g id="node3" class="node"><title>Node3</title>
<g id="a_node3"><a xlink:href="classrc_video_cache_1_1rc_video_cache_prefetch_unit.html#a50103933ee0293951007a6b7a884a946" target="_top" xlink:title="rcVideoCache::rcVideoCache\lPrefetchUnit::prefetch">
<polygon fill="white" stroke="black" points="370.585,-0 370.585,-32 517.415,-32 517.415,-0 370.585,-0"/>
<text text-anchor="start" x="378.585" y="-18" font-family="Helvetica,sans-Serif" font-size="10.00">rcVideoCache::rcVideoCache</text>
<text text-anchor="middle" x="444" y="-6" font-family="Helvetica,sans-Serif" font-size="10.00">PrefetchUnit::prefetch</text>
</a>
</g>
</g>
<!-- Node2&#45;&gt;Node3 -->
<g id="edge2" class="edge"><title>Node2&#45;&gt;Node3</title>
<path fill="none" stroke="midnightblue" d="M333.642,-16C342.446,-16 351.479,-16 360.398,-16"/>
<polygon fill="midnightblue" stroke="midnightblue" points="360.402,-19.5001 370.401,-16 360.401,-12.5001 360.402,-19.5001"/>
</g>
</g>
</svg>
