<?xml version="1.0" encoding="UTF-8" standalone="no"?>
<!DOCTYPE svg PUBLIC "-//W3C//DTD SVG 1.1//EN"
 "http://www.w3.org/Graphics/SVG/1.1/DTD/svg11.dtd">
<!-- Generated by graphviz version 2.32.0 (20130916.1925)
 -->
<!-- Title: rcInfLine::isParallel Pages: 1 -->
<svg width="218pt" height="106pt"
 viewBox="0.00 0.00 218.00 106.00" xmlns="http://www.w3.org/2000/svg" xmlns:xlink="http://www.w3.org/1999/xlink">
<g id="graph0" class="graph" transform="scale(1 1) rotate(0) translate(4 102)">
<title>rcInfLine::isParallel</title>
<polygon fill="white" stroke="white" points="-4,5 -4,-102 215,-102 215,5 -4,5"/>
<!-- Node1 -->
<g id="node1" class="node"><title>Node1</title>
<polygon fill="#bfbfbf" stroke="black" points="-0.241211,-39 -0.241211,-59 100.241,-59 100.241,-39 -0.241211,-39"/>
<text text-anchor="middle" x="50" y="-45" font-family="Helvetica,sans-Serif" font-size="10.00">rcInfLine::isParallel</text>
</g>
<!-- Node2 -->
<g id="node2" class="node"><title>Node2</title>
<g id="a_node2"><a xlink:href="classrc_inf_line.html#a0bef70f577eed17b464c68260324c553" target="_top" xlink:title="rcInfLine::dir">
<polygon fill="white" stroke="black" points="137.488,-78 137.488,-98 208.512,-98 208.512,-78 137.488,-78"/>
<text text-anchor="middle" x="173" y="-84" font-family="Helvetica,sans-Serif" font-size="10.00">rcInfLine::dir</text>
</a>
</g>
</g>
<!-- Node1&#45;&gt;Node2 -->
<g id="edge1" class="edge"><title>Node1&#45;&gt;Node2</title>
<path fill="none" stroke="midnightblue" d="M82.1605,-59.0435C97.1212,-63.8655 115.24,-69.7055 131.276,-74.8742"/>
<polygon fill="midnightblue" stroke="midnightblue" points="130.354,-78.254 140.945,-77.9906 132.501,-71.5915 130.354,-78.254"/>
</g>
<!-- Node3 -->
<g id="node3" class="node"><title>Node3</title>
<g id="a_node3"><a xlink:href="classrc2d_vector.html#a510fd549126da1dfe80d60ee866ff628" target="_top" xlink:title="rc2dVector::x">
<polygon fill="white" stroke="black" points="135.818,-39 135.818,-59 210.182,-59 210.182,-39 135.818,-39"/>
<text text-anchor="middle" x="173" y="-45" font-family="Helvetica,sans-Serif" font-size="10.00">rc2dVector::x</text>
</a>
</g>
</g>
<!-- Node1&#45;&gt;Node3 -->
<g id="edge2" class="edge"><title>Node1&#45;&gt;Node3</title>
<path fill="none" stroke="midnightblue" d="M100.564,-49C108.825,-49 117.366,-49 125.545,-49"/>
<polygon fill="midnightblue" stroke="midnightblue" points="125.663,-52.5001 135.663,-49 125.663,-45.5001 125.663,-52.5001"/>
</g>
<!-- Node4 -->
<g id="node4" class="node"><title>Node4</title>
<g id="a_node4"><a xlink:href="classrc2d_vector.html#a07f5517208bbd1d2a3ef6fb8eb3fddf8" target="_top" xlink:title="rc2dVector::y">
<polygon fill="white" stroke="black" points="135.818,-0 135.818,-20 210.182,-20 210.182,-0 135.818,-0"/>
<text text-anchor="middle" x="173" y="-6" font-family="Helvetica,sans-Serif" font-size="10.00">rc2dVector::y</text>
</a>
</g>
</g>
<!-- Node1&#45;&gt;Node4 -->
<g id="edge3" class="edge"><title>Node1&#45;&gt;Node4</title>
<path fill="none" stroke="midnightblue" d="M82.1605,-38.9565C97.1212,-34.1345 115.24,-28.2945 131.276,-23.1258"/>
<polygon fill="midnightblue" stroke="midnightblue" points="132.501,-26.4085 140.945,-20.0094 130.354,-19.746 132.501,-26.4085"/>
</g>
</g>
</svg>
