<?xml version="1.0" encoding="UTF-8" standalone="no"?>
<!DOCTYPE svg PUBLIC "-//W3C//DTD SVG 1.1//EN"
 "http://www.w3.org/Graphics/SVG/1.1/DTD/svg11.dtd">
<!-- Generated by graphviz version 2.32.0 (20130916.1925)
 -->
<!-- Title: include/stlplus/debug.hpp Pages: 1 -->
<!--zoomable 240 -->
<svg id="main" version="1.1" xmlns="http://www.w3.org/2000/svg" xmlns:xlink="http://www.w3.org/1999/xlink" xml:space="preserve" onload="init(evt)">
        <defs>
                <circle id="rim" cx="0" cy="0" r="7"/>
                <circle id="rim2" cx="0" cy="0" r="3.5"/>
                <g id="zoomPlus">
                        <use xlink:href="#rim" fill="#404040">
                                <set attributeName="fill" to="#808080" begin="zoomplus.mouseover" end="zoomplus.mouseout"/>
                        </use>
                        <path d="M-4,0h8M0,-4v8" fill="none" stroke="white" stroke-width="1.5" pointer-events="none"/>
                </g>
                <g id="zoomMin">
                        <use xlink:href="#rim" fill="#404040">
                                <set attributeName="fill" to="#808080" begin="zoomminus.mouseover" end="zoomminus.mouseout"/>
                        </use>
                        <path d="M-4,0h8" fill="none" stroke="white" stroke-width="1.5" pointer-events="none"/>
                </g>
                <g id="dirArrow">
                        <path fill="none" stroke="white" stroke-width="1.5" d="M0,-3.0v7 M-2.5,-0.5L0,-3.0L2.5,-0.5"/>
                </g>
               <g id="resetDef">
                       <use xlink:href="#rim2" fill="#404040">
                               <set attributeName="fill" to="#808080" begin="reset.mouseover" end="reset.mouseout"/>
                       </use>
               </g>
        </defs>

<script type="text/javascript">
var viewWidth = 2715;
var viewHeight = 240;
var sectionId = 'dynsection-1';
</script>
<script xlink:href="svgpan.js"/>
<svg id="graph" class="graph">
<g id="viewport">
<title>include/stlplus/debug.hpp</title>
<polygon fill="white" stroke="white" points="-4,5 -4,-236 2712,-236 2712,5 -4,5"/>
<!-- Node1 -->
<g id="node1" class="node"><title>Node1</title>
<polygon fill="#bfbfbf" stroke="black" points="1259.57,-211 1259.57,-231 1388.43,-231 1388.43,-211 1259.57,-211"/>
<text text-anchor="middle" x="1324" y="-217" font-family="Helvetica,sans-Serif" font-size="10.00">include/stlplus/debug.hpp</text>
</g>
<!-- Node2 -->
<g id="node2" class="node"><title>Node2</title>
<g id="a_node2"><a xlink:href="cli__parser_8cpp.html" target="_top" xlink:title="include/stlplus/cli\l_parser.cpp">
<polygon fill="white" stroke="black" points="-0.51709,-141 -0.51709,-173 90.5171,-173 90.5171,-141 -0.51709,-141"/>
<text text-anchor="start" x="7.48291" y="-159" font-family="Helvetica,sans-Serif" font-size="10.00">include/stlplus/cli</text>
<text text-anchor="middle" x="45" y="-147" font-family="Helvetica,sans-Serif" font-size="10.00">_parser.cpp</text>
</a>
</g>
</g>
<!-- Node1&#45;&gt;Node2 -->
<g id="edge1" class="edge"><title>Node1&#45;&gt;Node2</title>
<path fill="none" stroke="midnightblue" d="M1249.26,-219.591C1019.07,-217.952 323.026,-210.067 100,-174 96.9568,-173.508 93.844,-172.9 90.7233,-172.212"/>
<polygon fill="midnightblue" stroke="midnightblue" points="1249.51,-223.093 1259.54,-219.662 1249.56,-216.093 1249.51,-223.093"/>
</g>
<!-- Node3 -->
<g id="node3" class="node"><title>Node3</title>
<g id="a_node3"><a xlink:href="debug_8cpp.html" target="_top" xlink:title="include/stlplus/debug.cpp">
<polygon fill="white" stroke="black" points="108.85,-147 108.85,-167 237.15,-167 237.15,-147 108.85,-147"/>
<text text-anchor="middle" x="173" y="-153" font-family="Helvetica,sans-Serif" font-size="10.00">include/stlplus/debug.cpp</text>
</a>
</g>
</g>
<!-- Node1&#45;&gt;Node3 -->
<g id="edge2" class="edge"><title>Node1&#45;&gt;Node3</title>
<path fill="none" stroke="midnightblue" d="M1249.31,-218.497C1038.32,-213.984 440.534,-199.276 246,-174 233.648,-172.395 220.295,-169.744 208.428,-167.057"/>
<polygon fill="midnightblue" stroke="midnightblue" points="1249.29,-221.997 1259.37,-218.711 1249.44,-214.999 1249.29,-221.997"/>
</g>
<!-- Node4 -->
<g id="node4" class="node"><title>Node4</title>
<g id="a_node4"><a xlink:href="dprintf_8cpp.html" target="_top" xlink:title="include/stlplus/dprintf.cpp">
<polygon fill="white" stroke="black" points="254.857,-147 254.857,-167 383.143,-167 383.143,-147 254.857,-147"/>
<text text-anchor="middle" x="319" y="-153" font-family="Helvetica,sans-Serif" font-size="10.00">include/stlplus/dprintf.cpp</text>
</a>
</g>
</g>
<!-- Node1&#45;&gt;Node4 -->
<g id="edge3" class="edge"><title>Node1&#45;&gt;Node4</title>
<path fill="none" stroke="midnightblue" d="M1249.42,-220.516C1090.86,-220.694 708.817,-216.239 392,-174 379.654,-172.354 366.302,-169.692 354.434,-167.009"/>
<polygon fill="midnightblue" stroke="midnightblue" points="1249.55,-224.016 1259.54,-220.498 1249.54,-217.016 1249.55,-224.016"/>
</g>
<!-- Node5 -->
<g id="node5" class="node"><title>Node5</title>
<g id="a_node5"><a xlink:href="error__handler_8cpp.html" target="_top" xlink:title="include/stlplus/error\l_handler.cpp">
<polygon fill="white" stroke="black" points="400.648,-141 400.648,-173 503.352,-173 503.352,-141 400.648,-141"/>
<text text-anchor="start" x="408.648" y="-159" font-family="Helvetica,sans-Serif" font-size="10.00">include/stlplus/error</text>
<text text-anchor="middle" x="452" y="-147" font-family="Helvetica,sans-Serif" font-size="10.00">_handler.cpp</text>
</a>
</g>
</g>
<!-- Node1&#45;&gt;Node5 -->
<g id="edge4" class="edge"><title>Node1&#45;&gt;Node5</title>
<path fill="none" stroke="midnightblue" d="M1249.39,-220.726C1105.84,-221.03 781.668,-216.418 513,-174 509.864,-173.505 506.655,-172.917 503.431,-172.263"/>
<polygon fill="midnightblue" stroke="midnightblue" points="1249.42,-224.226 1259.4,-220.696 1249.39,-217.226 1249.42,-224.226"/>
</g>
<!-- Node6 -->
<g id="node6" class="node"><title>Node6</title>
<g id="a_node6"><a xlink:href="exceptions_8cpp.html" target="_top" xlink:title="include/stlplus/exceptions.cpp">
<polygon fill="white" stroke="black" points="521.85,-147 521.85,-167 670.15,-167 670.15,-147 521.85,-147"/>
<text text-anchor="middle" x="596" y="-153" font-family="Helvetica,sans-Serif" font-size="10.00">include/stlplus/exceptions.cpp</text>
</a>
</g>
</g>
<!-- Node1&#45;&gt;Node6 -->
<g id="edge5" class="edge"><title>Node1&#45;&gt;Node6</title>
<path fill="none" stroke="midnightblue" d="M1248.98,-217.553C1128.4,-212.969 884.219,-201 679,-174 665.469,-172.22 650.815,-169.621 637.64,-167.034"/>
<polygon fill="midnightblue" stroke="midnightblue" points="1249.08,-221.059 1259.2,-217.935 1249.34,-214.064 1249.08,-221.059"/>
</g>
<!-- Node7 -->
<g id="node7" class="node"><title>Node7</title>
<g id="a_node7"><a xlink:href="file__system_8cpp.html" target="_top" xlink:title="include/stlplus/file\l_system.cpp">
<polygon fill="white" stroke="black" points="687.813,-141 687.813,-173 782.187,-173 782.187,-141 687.813,-141"/>
<text text-anchor="start" x="695.813" y="-159" font-family="Helvetica,sans-Serif" font-size="10.00">include/stlplus/file</text>
<text text-anchor="middle" x="735" y="-147" font-family="Helvetica,sans-Serif" font-size="10.00">_system.cpp</text>
</a>
</g>
</g>
<!-- Node1&#45;&gt;Node7 -->
<g id="edge6" class="edge"><title>Node1&#45;&gt;Node7</title>
<path fill="none" stroke="midnightblue" d="M1249.42,-218.078C1145.8,-214.386 952.768,-203.804 791,-174 788.116,-173.469 785.167,-172.852 782.205,-172.177"/>
<polygon fill="midnightblue" stroke="midnightblue" points="1249.36,-221.578 1259.47,-218.424 1249.6,-214.582 1249.36,-221.578"/>
</g>
<!-- Node8 -->
<g id="node8" class="node"><title>Node8</title>
<g id="a_node8"><a xlink:href="fileio_8cpp.html" target="_top" xlink:title="include/stlplus/fileio.cpp">
<polygon fill="white" stroke="black" points="800.471,-147 800.471,-167 921.529,-167 921.529,-147 800.471,-147"/>
<text text-anchor="middle" x="861" y="-153" font-family="Helvetica,sans-Serif" font-size="10.00">include/stlplus/fileio.cpp</text>
</a>
</g>
</g>
<!-- Node1&#45;&gt;Node8 -->
<g id="edge7" class="edge"><title>Node1&#45;&gt;Node8</title>
<path fill="none" stroke="midnightblue" d="M1249.13,-213.767C1169.6,-206.561 1040.39,-193.181 930,-174 919.096,-172.105 907.331,-169.565 896.658,-167.068"/>
<polygon fill="midnightblue" stroke="midnightblue" points="1249.26,-217.292 1259.53,-214.7 1249.89,-210.32 1249.26,-217.292"/>
</g>
<!-- Node9 -->
<g id="node9" class="node"><title>Node9</title>
<g id="a_node9"><a xlink:href="inf_8cpp.html" target="_top" xlink:title="include/stlplus/inf.cpp">
<polygon fill="white" stroke="black" points="939.473,-147 939.473,-167 1050.53,-167 1050.53,-147 939.473,-147"/>
<text text-anchor="middle" x="995" y="-153" font-family="Helvetica,sans-Serif" font-size="10.00">include/stlplus/inf.cpp</text>
</a>
</g>
</g>
<!-- Node1&#45;&gt;Node9 -->
<g id="edge8" class="edge"><title>Node1&#45;&gt;Node9</title>
<path fill="none" stroke="midnightblue" d="M1254.74,-209.399C1201.12,-200.849 1125.09,-187.979 1059,-174 1049.25,-171.938 1038.74,-169.43 1029.1,-167.017"/>
<polygon fill="midnightblue" stroke="midnightblue" points="1254.4,-212.888 1264.82,-210.998 1255.49,-205.975 1254.4,-212.888"/>
</g>
<!-- Node10 -->
<g id="node10" class="node"><title>Node10</title>
<g id="a_node10"><a xlink:href="ini__manager_8cpp.html" target="_top" xlink:title="include/stlplus/ini\l_manager.cpp">
<polygon fill="white" stroke="black" points="1068.2,-141 1068.2,-173 1159.8,-173 1159.8,-141 1068.2,-141"/>
<text text-anchor="start" x="1076.2" y="-159" font-family="Helvetica,sans-Serif" font-size="10.00">include/stlplus/ini</text>
<text text-anchor="middle" x="1114" y="-147" font-family="Helvetica,sans-Serif" font-size="10.00">_manager.cpp</text>
</a>
</g>
</g>
<!-- Node1&#45;&gt;Node10 -->
<g id="edge9" class="edge"><title>Node1&#45;&gt;Node10</title>
<path fill="none" stroke="midnightblue" d="M1283.5,-208.042C1248.18,-197.614 1196.96,-182.493 1160.08,-171.605"/>
<polygon fill="midnightblue" stroke="midnightblue" points="1282.88,-211.51 1293.46,-210.985 1284.86,-204.796 1282.88,-211.51"/>
</g>
<!-- Node11 -->
<g id="node11" class="node"><title>Node11</title>
<g id="a_node11"><a xlink:href="iostreamio_8cpp.html" target="_top" xlink:title="include/stlplus/iostreamio.cpp">
<polygon fill="white" stroke="black" points="1177.69,-147 1177.69,-167 1324.31,-167 1324.31,-147 1177.69,-147"/>
<text text-anchor="middle" x="1251" y="-153" font-family="Helvetica,sans-Serif" font-size="10.00">include/stlplus/iostreamio.cpp</text>
</a>
</g>
</g>
<!-- Node1&#45;&gt;Node11 -->
<g id="edge10" class="edge"><title>Node1&#45;&gt;Node11</title>
<path fill="none" stroke="midnightblue" d="M1305.33,-204.142C1291.54,-192.435 1273.26,-176.908 1261.82,-167.186"/>
<polygon fill="midnightblue" stroke="midnightblue" points="1303.34,-207.046 1313.23,-210.852 1307.87,-201.711 1303.34,-207.046"/>
</g>
<!-- Node12 -->
<g id="node12" class="node"><title>Node12</title>
<g id="a_node12"><a xlink:href="library__manager_8cpp.html" target="_top" xlink:title="include/stlplus/library\l_manager.cpp">
<polygon fill="white" stroke="black" points="1342.59,-141 1342.59,-173 1451.41,-173 1451.41,-141 1342.59,-141"/>
<text text-anchor="start" x="1350.59" y="-159" font-family="Helvetica,sans-Serif" font-size="10.00">include/stlplus/library</text>
<text text-anchor="middle" x="1397" y="-147" font-family="Helvetica,sans-Serif" font-size="10.00">_manager.cpp</text>
</a>
</g>
</g>
<!-- Node1&#45;&gt;Node12 -->
<g id="edge11" class="edge"><title>Node1&#45;&gt;Node12</title>
<path fill="none" stroke="midnightblue" d="M1342.66,-204.153C1353.86,-194.638 1368.04,-182.596 1379.1,-173.199"/>
<polygon fill="midnightblue" stroke="midnightblue" points="1340.13,-201.711 1334.77,-210.852 1344.66,-207.046 1340.13,-201.711"/>
</g>
<!-- Node13 -->
<g id="node13" class="node"><title>Node13</title>
<g id="a_node13"><a xlink:href="multiio_8cpp.html" target="_top" xlink:title="include/stlplus/multiio.cpp">
<polygon fill="white" stroke="black" points="1469.31,-147 1469.31,-167 1598.69,-167 1598.69,-147 1469.31,-147"/>
<text text-anchor="middle" x="1534" y="-153" font-family="Helvetica,sans-Serif" font-size="10.00">include/stlplus/multiio.cpp</text>
</a>
</g>
</g>
<!-- Node1&#45;&gt;Node13 -->
<g id="edge12" class="edge"><title>Node1&#45;&gt;Node13</title>
<path fill="none" stroke="midnightblue" d="M1364.38,-208.079C1404.99,-196.089 1466.71,-177.868 1503.43,-167.026"/>
<polygon fill="midnightblue" stroke="midnightblue" points="1363.14,-204.796 1354.54,-210.985 1365.12,-211.51 1363.14,-204.796"/>
</g>
<!-- Node14 -->
<g id="node14" class="node"><title>Node14</title>
<g id="a_node14"><a xlink:href="stlplus_8hpp.html" target="_top" xlink:title="include/stlplus/stlplus.hpp">
<polygon fill="white" stroke="black" points="1616.3,-147 1616.3,-167 1745.7,-167 1745.7,-147 1616.3,-147"/>
<text text-anchor="middle" x="1681" y="-153" font-family="Helvetica,sans-Serif" font-size="10.00">include/stlplus/stlplus.hpp</text>
</a>
</g>
</g>
<!-- Node1&#45;&gt;Node14 -->
<g id="edge13" class="edge"><title>Node1&#45;&gt;Node14</title>
<path fill="none" stroke="midnightblue" d="M1395.21,-209.471C1452.54,-200.741 1535.14,-187.6 1607,-174 1618.11,-171.898 1630.1,-169.403 1641.14,-167.015"/>
<polygon fill="midnightblue" stroke="midnightblue" points="1394.52,-206.034 1385.16,-210.994 1395.57,-212.955 1394.52,-206.034"/>
</g>
<!-- Node17 -->
<g id="node17" class="node"><title>Node17</title>
<g id="a_node17"><a xlink:href="stlplus__lite_8hpp.html" target="_top" xlink:title="include/stlplus/stlplus\l_lite.hpp">
<polygon fill="white" stroke="black" points="1764.03,-141 1764.03,-173 1873.97,-173 1873.97,-141 1764.03,-141"/>
<text text-anchor="start" x="1772.03" y="-159" font-family="Helvetica,sans-Serif" font-size="10.00">include/stlplus/stlplus</text>
<text text-anchor="middle" x="1819" y="-147" font-family="Helvetica,sans-Serif" font-size="10.00">_lite.hpp</text>
</a>
</g>
</g>
<!-- Node1&#45;&gt;Node17 -->
<g id="edge16" class="edge"><title>Node1&#45;&gt;Node17</title>
<path fill="none" stroke="midnightblue" d="M1398.69,-215.079C1484.8,-208.697 1630.36,-195.728 1754,-174 1757.2,-173.437 1760.49,-172.805 1763.79,-172.127"/>
<polygon fill="midnightblue" stroke="midnightblue" points="1398.21,-211.605 1388.49,-215.825 1398.72,-218.586 1398.21,-211.605"/>
</g>
<!-- Node29 -->
<g id="node29" class="node"><title>Node29</title>
<g id="a_node29"><a xlink:href="string__arithmetic_8cpp.html" target="_top" xlink:title="include/stlplus/string\l_arithmetic.cpp">
<polygon fill="white" stroke="black" points="1891.98,-141 1891.98,-173 1998.02,-173 1998.02,-141 1891.98,-141"/>
<text text-anchor="start" x="1899.98" y="-159" font-family="Helvetica,sans-Serif" font-size="10.00">include/stlplus/string</text>
<text text-anchor="middle" x="1945" y="-147" font-family="Helvetica,sans-Serif" font-size="10.00">_arithmetic.cpp</text>
</a>
</g>
</g>
<!-- Node1&#45;&gt;Node29 -->
<g id="edge28" class="edge"><title>Node1&#45;&gt;Node29</title>
<path fill="none" stroke="midnightblue" d="M1398.54,-217.796C1506,-213.728 1710.4,-202.658 1882,-174 1885.23,-173.461 1888.53,-172.839 1891.86,-172.159"/>
<polygon fill="midnightblue" stroke="midnightblue" points="1398.31,-214.302 1388.45,-218.168 1398.57,-221.297 1398.31,-214.302"/>
</g>
<!-- Node30 -->
<g id="node30" class="node"><title>Node30</title>
<g id="a_node30"><a xlink:href="string__utilities_8cpp.html" target="_top" xlink:title="include/stlplus/string\l_utilities.cpp">
<polygon fill="white" stroke="black" points="2015.98,-141 2015.98,-173 2122.02,-173 2122.02,-141 2015.98,-141"/>
<text text-anchor="start" x="2023.98" y="-159" font-family="Helvetica,sans-Serif" font-size="10.00">include/stlplus/string</text>
<text text-anchor="middle" x="2069" y="-147" font-family="Helvetica,sans-Serif" font-size="10.00">_utilities.cpp</text>
</a>
</g>
</g>
<!-- Node1&#45;&gt;Node30 -->
<g id="edge29" class="edge"><title>Node1&#45;&gt;Node30</title>
<path fill="none" stroke="midnightblue" d="M1398.8,-219.481C1524.99,-217.598 1787.89,-209.338 2007,-174 2009.85,-173.54 2012.77,-173.008 2015.7,-172.424"/>
<polygon fill="midnightblue" stroke="midnightblue" points="1398.43,-215.985 1388.48,-219.625 1398.53,-222.984 1398.43,-215.985"/>
</g>
<!-- Node31 -->
<g id="node31" class="node"><title>Node31</title>
<g id="a_node31"><a xlink:href="string__vectorio_8cpp.html" target="_top" xlink:title="include/stlplus/string\l_vectorio.cpp">
<polygon fill="white" stroke="black" points="2139.98,-141 2139.98,-173 2246.02,-173 2246.02,-141 2139.98,-141"/>
<text text-anchor="start" x="2147.98" y="-159" font-family="Helvetica,sans-Serif" font-size="10.00">include/stlplus/string</text>
<text text-anchor="middle" x="2193" y="-147" font-family="Helvetica,sans-Serif" font-size="10.00">_vectorio.cpp</text>
</a>
</g>
</g>
<!-- Node1&#45;&gt;Node31 -->
<g id="edge30" class="edge"><title>Node1&#45;&gt;Node31</title>
<path fill="none" stroke="midnightblue" d="M1398.93,-220.599C1542.09,-220.668 1864.01,-215.649 2131,-174 2133.86,-173.555 2136.77,-173.034 2139.7,-172.46"/>
<polygon fill="midnightblue" stroke="midnightblue" points="1398.53,-217.098 1388.52,-220.584 1398.52,-224.098 1398.53,-217.098"/>
</g>
<!-- Node32 -->
<g id="node32" class="node"><title>Node32</title>
<g id="a_node32"><a xlink:href="stringio_8cpp.html" target="_top" xlink:title="include/stlplus/stringio.cpp">
<polygon fill="white" stroke="black" points="2263.64,-147 2263.64,-167 2396.36,-167 2396.36,-147 2263.64,-147"/>
<text text-anchor="middle" x="2330" y="-153" font-family="Helvetica,sans-Serif" font-size="10.00">include/stlplus/stringio.cpp</text>
</a>
</g>
</g>
<!-- Node1&#45;&gt;Node32 -->
<g id="edge31" class="edge"><title>Node1&#45;&gt;Node32</title>
<path fill="none" stroke="midnightblue" d="M1398.77,-220.371C1557.31,-220.266 1938.6,-215.293 2255,-174 2267.54,-172.363 2281.1,-169.738 2293.2,-167.083"/>
<polygon fill="midnightblue" stroke="midnightblue" points="1398.66,-216.871 1388.66,-220.371 1398.66,-223.871 1398.66,-216.871"/>
</g>
<!-- Node33 -->
<g id="node33" class="node"><title>Node33</title>
<g id="a_node33"><a xlink:href="subprocesses_8cpp.html" target="_top" xlink:title="include/stlplus/subprocesses.cpp">
<polygon fill="white" stroke="black" points="2413.9,-147 2413.9,-167 2576.1,-167 2576.1,-147 2413.9,-147"/>
<text text-anchor="middle" x="2495" y="-153" font-family="Helvetica,sans-Serif" font-size="10.00">include/stlplus/subprocesses.cpp</text>
</a>
</g>
</g>
<!-- Node1&#45;&gt;Node33 -->
<g id="edge32" class="edge"><title>Node1&#45;&gt;Node33</title>
<path fill="none" stroke="midnightblue" d="M1398.68,-220.244C1574.59,-220.073 2028.55,-215.286 2405,-174 2419.99,-172.356 2436.24,-169.729 2450.77,-167.075"/>
<polygon fill="midnightblue" stroke="midnightblue" points="1398.5,-216.744 1388.5,-220.249 1398.5,-223.744 1398.5,-216.744"/>
</g>
<!-- Node34 -->
<g id="node34" class="node"><title>Node34</title>
<g id="a_node34"><a xlink:href="tcp_8cpp.html" target="_top" xlink:title="include/stlplus/tcp.cpp">
<polygon fill="white" stroke="black" points="2594.08,-147 2594.08,-167 2707.92,-167 2707.92,-147 2594.08,-147"/>
<text text-anchor="middle" x="2651" y="-153" font-family="Helvetica,sans-Serif" font-size="10.00">include/stlplus/tcp.cpp</text>
</a>
</g>
</g>
<!-- Node1&#45;&gt;Node34 -->
<g id="edge33" class="edge"><title>Node1&#45;&gt;Node34</title>
<path fill="none" stroke="midnightblue" d="M1398.95,-219.245C1633.84,-216.569 2353.79,-205.91 2585,-174 2596.33,-172.436 2608.55,-169.761 2619.36,-167.04"/>
<polygon fill="midnightblue" stroke="midnightblue" points="1398.75,-215.747 1388.79,-219.36 1398.83,-222.747 1398.75,-215.747"/>
</g>
<!-- Node15 -->
<g id="node15" class="node"><title>Node15</title>
<g id="a_node15"><a xlink:href="convert_matrix_8cpp.html" target="_top" xlink:title="src/vsigmatch/convertMatrix.cpp">
<polygon fill="white" stroke="black" points="1442.59,-77 1442.59,-97 1601.41,-97 1601.41,-77 1442.59,-77"/>
<text text-anchor="middle" x="1522" y="-83" font-family="Helvetica,sans-Serif" font-size="10.00">src/vsigmatch/convertMatrix.cpp</text>
</a>
</g>
</g>
<!-- Node14&#45;&gt;Node15 -->
<g id="edge14" class="edge"><title>Node14&#45;&gt;Node15</title>
<path fill="none" stroke="midnightblue" d="M1650.3,-142.869C1618.82,-129.405 1570.69,-108.822 1543.2,-97.0672"/>
<polygon fill="midnightblue" stroke="midnightblue" points="1649.32,-146.256 1659.89,-146.97 1652.07,-139.82 1649.32,-146.256"/>
</g>
<!-- Node16 -->
<g id="node16" class="node"><title>Node16</title>
<g id="a_node16"><a xlink:href="stlplus_8cpp.html" target="_top" xlink:title="include/stlplus/stlplus.cpp">
<polygon fill="white" stroke="black" points="1619.58,-77 1619.58,-97 1748.42,-97 1748.42,-77 1619.58,-77"/>
<text text-anchor="middle" x="1684" y="-83" font-family="Helvetica,sans-Serif" font-size="10.00">include/stlplus/stlplus.cpp</text>
</a>
</g>
</g>
<!-- Node14&#45;&gt;Node16 -->
<g id="edge15" class="edge"><title>Node14&#45;&gt;Node16</title>
<path fill="none" stroke="midnightblue" d="M1681.86,-136.557C1682.43,-123.557 1683.16,-107.057 1683.6,-97.0255"/>
<polygon fill="midnightblue" stroke="midnightblue" points="1678.35,-136.685 1681.4,-146.829 1685.34,-136.993 1678.35,-136.685"/>
</g>
<!-- Node18 -->
<g id="node18" class="node"><title>Node18</title>
<g id="a_node18"><a xlink:href="rc__engineimpl_8h.html" target="_top" xlink:title="include/visiCore/rc\l_engineimpl.h">
<polygon fill="white" stroke="black" points="1770.15,-71 1770.15,-103 1867.85,-103 1867.85,-71 1770.15,-71"/>
<text text-anchor="start" x="1778.15" y="-89" font-family="Helvetica,sans-Serif" font-size="10.00">include/visiCore/rc</text>
<text text-anchor="middle" x="1819" y="-77" font-family="Helvetica,sans-Serif" font-size="10.00">_engineimpl.h</text>
</a>
</g>
</g>
<!-- Node17&#45;&gt;Node18 -->
<g id="edge17" class="edge"><title>Node17&#45;&gt;Node18</title>
<path fill="none" stroke="midnightblue" d="M1819,-130.617C1819,-121.338 1819,-111.141 1819,-103.049"/>
<polygon fill="midnightblue" stroke="midnightblue" points="1815.5,-130.909 1819,-140.909 1822.5,-130.909 1815.5,-130.909"/>
</g>
<!-- Node19 -->
<g id="node19" class="node"><title>Node19</title>
<g id="a_node19"><a xlink:href="rc__engineimpl_8cpp.html" target="_top" xlink:title="src/visible/src/rc\l_engineimpl.cpp">
<polygon fill="white" stroke="black" points="1140.59,-1 1140.59,-33 1229.41,-33 1229.41,-1 1140.59,-1"/>
<text text-anchor="start" x="1148.59" y="-19" font-family="Helvetica,sans-Serif" font-size="10.00">src/visible/src/rc</text>
<text text-anchor="middle" x="1185" y="-7" font-family="Helvetica,sans-Serif" font-size="10.00">_engineimpl.cpp</text>
</a>
</g>
</g>
<!-- Node18&#45;&gt;Node19 -->
<g id="edge18" class="edge"><title>Node18&#45;&gt;Node19</title>
<path fill="none" stroke="midnightblue" d="M1760.23,-70.5499C1759.15,-70.3573 1758.07,-70.1736 1757,-70 1528.77,-32.956 1465.43,-75.6729 1238,-34 1235.26,-33.4976 1232.46,-32.9038 1229.65,-32.2456"/>
<polygon fill="midnightblue" stroke="midnightblue" points="1759.61,-73.9953 1770.1,-72.4981 1760.97,-67.1278 1759.61,-73.9953"/>
</g>
<!-- Node20 -->
<g id="node20" class="node"><title>Node20</title>
<g id="a_node20"><a xlink:href="rc__engineimpl__modeltracker_8cpp.html" target="_top" xlink:title="src/visible/src/rc\l_engineimpl_modeltracker.cpp">
<polygon fill="white" stroke="black" points="1247.18,-1 1247.18,-33 1398.82,-33 1398.82,-1 1247.18,-1"/>
<text text-anchor="start" x="1255.18" y="-19" font-family="Helvetica,sans-Serif" font-size="10.00">src/visible/src/rc</text>
<text text-anchor="middle" x="1323" y="-7" font-family="Helvetica,sans-Serif" font-size="10.00">_engineimpl_modeltracker.cpp</text>
</a>
</g>
</g>
<!-- Node18&#45;&gt;Node20 -->
<g id="edge19" class="edge"><title>Node18&#45;&gt;Node20</title>
<path fill="none" stroke="midnightblue" d="M1760.22,-70.5996C1759.14,-70.3917 1758.07,-70.1916 1757,-70 1603.52,-42.4405 1562.31,-56.4423 1408,-34 1405.03,-33.5678 1402,-33.1054 1398.95,-32.6203"/>
<polygon fill="midnightblue" stroke="midnightblue" points="1759.57,-74.039 1770.08,-72.6525 1761,-67.1862 1759.57,-74.039"/>
</g>
<!-- Node21 -->
<g id="node21" class="node"><title>Node21</title>
<g id="a_node21"><a xlink:href="rc__engineimplcapture_8cpp.html" target="_top" xlink:title="src/visible/src/rc\l_engineimplcapture.cpp">
<polygon fill="white" stroke="black" points="1416.91,-1 1416.91,-33 1539.09,-33 1539.09,-1 1416.91,-1"/>
<text text-anchor="start" x="1424.91" y="-19" font-family="Helvetica,sans-Serif" font-size="10.00">src/visible/src/rc</text>
<text text-anchor="middle" x="1478" y="-7" font-family="Helvetica,sans-Serif" font-size="10.00">_engineimplcapture.cpp</text>
</a>
</g>
</g>
<!-- Node18&#45;&gt;Node21 -->
<g id="edge20" class="edge"><title>Node18&#45;&gt;Node21</title>
<path fill="none" stroke="midnightblue" d="M1760.2,-70.6996C1759.13,-70.4611 1758.06,-70.2276 1757,-70 1664.84,-50.207 1640.42,-52.5082 1548,-34 1545.19,-33.437 1542.32,-32.846 1539.42,-32.2366"/>
<polygon fill="midnightblue" stroke="midnightblue" points="1759.48,-74.1254 1770.02,-72.9633 1761.06,-67.3046 1759.48,-74.1254"/>
</g>
<!-- Node22 -->
<g id="node22" class="node"><title>Node22</title>
<g id="a_node22"><a xlink:href="rc__engineimplcmdline_8cpp.html" target="_top" xlink:title="src/visible/src/rc\l_engineimplcmdline.cpp">
<polygon fill="white" stroke="black" points="1557.36,-1 1557.36,-33 1680.64,-33 1680.64,-1 1557.36,-1"/>
<text text-anchor="start" x="1565.36" y="-19" font-family="Helvetica,sans-Serif" font-size="10.00">src/visible/src/rc</text>
<text text-anchor="middle" x="1619" y="-7" font-family="Helvetica,sans-Serif" font-size="10.00">_engineimplcmdline.cpp</text>
</a>
</g>
</g>
<!-- Node18&#45;&gt;Node22 -->
<g id="edge21" class="edge"><title>Node18&#45;&gt;Node22</title>
<path fill="none" stroke="midnightblue" d="M1765,-67.6388C1733.12,-56.8009 1693.27,-43.2523 1663.26,-33.0492"/>
<polygon fill="midnightblue" stroke="midnightblue" points="1764.02,-71.0032 1774.61,-70.9086 1766.27,-64.3758 1764.02,-71.0032"/>
</g>
<!-- Node23 -->
<g id="node23" class="node"><title>Node23</title>
<g id="a_node23"><a xlink:href="rc__engineimplload_8cpp.html" target="_top" xlink:title="src/visible/src/rc\l_engineimplload.cpp">
<polygon fill="white" stroke="black" points="1699.13,-1 1699.13,-33 1806.87,-33 1806.87,-1 1699.13,-1"/>
<text text-anchor="start" x="1707.13" y="-19" font-family="Helvetica,sans-Serif" font-size="10.00">src/visible/src/rc</text>
<text text-anchor="middle" x="1753" y="-7" font-family="Helvetica,sans-Serif" font-size="10.00">_engineimplload.cpp</text>
</a>
</g>
</g>
<!-- Node18&#45;&gt;Node23 -->
<g id="edge22" class="edge"><title>Node18&#45;&gt;Node23</title>
<path fill="none" stroke="midnightblue" d="M1797.27,-63.6069C1787.53,-53.5793 1776.31,-42.0209 1767.61,-33.0492"/>
<polygon fill="midnightblue" stroke="midnightblue" points="1794.88,-66.1704 1804.35,-70.9086 1799.9,-61.2951 1794.88,-66.1704"/>
</g>
<!-- Node24 -->
<g id="node24" class="node"><title>Node24</title>
<g id="a_node24"><a xlink:href="rc__engineimplmuscle_8cpp.html" target="_top" xlink:title="src/visible/src/rc\l_engineimplmuscle.cpp">
<polygon fill="white" stroke="black" points="1824.75,-1 1824.75,-33 1945.25,-33 1945.25,-1 1824.75,-1"/>
<text text-anchor="start" x="1832.75" y="-19" font-family="Helvetica,sans-Serif" font-size="10.00">src/visible/src/rc</text>
<text text-anchor="middle" x="1885" y="-7" font-family="Helvetica,sans-Serif" font-size="10.00">_engineimplmuscle.cpp</text>
</a>
</g>
</g>
<!-- Node18&#45;&gt;Node24 -->
<g id="edge23" class="edge"><title>Node18&#45;&gt;Node24</title>
<path fill="none" stroke="midnightblue" d="M1840.73,-63.6069C1850.47,-53.5793 1861.69,-42.0209 1870.39,-33.0492"/>
<polygon fill="midnightblue" stroke="midnightblue" points="1838.1,-61.2951 1833.65,-70.9086 1843.12,-66.1704 1838.1,-61.2951"/>
</g>
<!-- Node25 -->
<g id="node25" class="node"><title>Node25</title>
<g id="a_node25"><a xlink:href="rc__engineimplplayback_8cpp.html" target="_top" xlink:title="src/visible/src/rc\l_engineimplplayback.cpp">
<polygon fill="white" stroke="black" points="1962.85,-1 1962.85,-33 2091.15,-33 2091.15,-1 1962.85,-1"/>
<text text-anchor="start" x="1970.85" y="-19" font-family="Helvetica,sans-Serif" font-size="10.00">src/visible/src/rc</text>
<text text-anchor="middle" x="2027" y="-7" font-family="Helvetica,sans-Serif" font-size="10.00">_engineimplplayback.cpp</text>
</a>
</g>
</g>
<!-- Node18&#45;&gt;Node25 -->
<g id="edge24" class="edge"><title>Node18&#45;&gt;Node25</title>
<path fill="none" stroke="midnightblue" d="M1874.48,-67.8636C1907.7,-57.0017 1949.44,-43.3557 1980.85,-33.0861"/>
<polygon fill="midnightblue" stroke="midnightblue" points="1873.32,-64.5587 1864.9,-70.9929 1875.5,-71.2122 1873.32,-64.5587"/>
</g>
<!-- Node26 -->
<g id="node26" class="node"><title>Node26</title>
<g id="a_node26"><a xlink:href="rc__engineimplsave_8cpp.html" target="_top" xlink:title="src/visible/src/rc\l_engineimplsave.cpp">
<polygon fill="white" stroke="black" points="2109.02,-1 2109.02,-33 2218.98,-33 2218.98,-1 2109.02,-1"/>
<text text-anchor="start" x="2117.02" y="-19" font-family="Helvetica,sans-Serif" font-size="10.00">src/visible/src/rc</text>
<text text-anchor="middle" x="2164" y="-7" font-family="Helvetica,sans-Serif" font-size="10.00">_engineimplsave.cpp</text>
</a>
</g>
</g>
<!-- Node18&#45;&gt;Node26 -->
<g id="edge25" class="edge"><title>Node18&#45;&gt;Node26</title>
<path fill="none" stroke="midnightblue" d="M1877.83,-76.2064C1934.83,-66.46 2023.62,-50.5976 2100,-34 2102.91,-33.3677 2105.89,-32.6987 2108.89,-32.0071"/>
<polygon fill="midnightblue" stroke="midnightblue" points="1877.19,-72.7655 1867.92,-77.8946 1878.36,-79.6661 1877.19,-72.7655"/>
</g>
<!-- Node27 -->
<g id="node27" class="node"><title>Node27</title>
<g id="a_node27"><a xlink:href="rc__engineimplsettings_8cpp.html" target="_top" xlink:title="src/visible/src/rc\l_engineimplsettings.cpp">
<polygon fill="white" stroke="black" points="2237.35,-1 2237.35,-33 2360.65,-33 2360.65,-1 2237.35,-1"/>
<text text-anchor="start" x="2245.35" y="-19" font-family="Helvetica,sans-Serif" font-size="10.00">src/visible/src/rc</text>
<text text-anchor="middle" x="2299" y="-7" font-family="Helvetica,sans-Serif" font-size="10.00">_engineimplsettings.cpp</text>
</a>
</g>
</g>
<!-- Node18&#45;&gt;Node27 -->
<g id="edge26" class="edge"><title>Node18&#45;&gt;Node27</title>
<path fill="none" stroke="midnightblue" d="M1878.21,-80.1797C1957.82,-71.9603 2103.63,-55.522 2227,-34 2230.28,-33.4278 2233.64,-32.8068 2237.02,-32.1529"/>
<polygon fill="midnightblue" stroke="midnightblue" points="1877.48,-76.7355 1867.89,-81.2369 1878.2,-83.699 1877.48,-76.7355"/>
</g>
<!-- Node28 -->
<g id="node28" class="node"><title>Node28</title>
<g id="a_node28"><a xlink:href="rc__main_8cpp.html" target="_top" xlink:title="src/visible/src/rc\l_main.cpp">
<polygon fill="white" stroke="black" points="2378.44,-1 2378.44,-33 2465.56,-33 2465.56,-1 2378.44,-1"/>
<text text-anchor="start" x="2386.44" y="-19" font-family="Helvetica,sans-Serif" font-size="10.00">src/visible/src/rc</text>
<text text-anchor="middle" x="2422" y="-7" font-family="Helvetica,sans-Serif" font-size="10.00">_main.cpp</text>
</a>
</g>
</g>
<!-- Node18&#45;&gt;Node28 -->
<g id="edge27" class="edge"><title>Node18&#45;&gt;Node28</title>
<path fill="none" stroke="midnightblue" d="M1878.06,-84.2632C1979.38,-80.4301 2192.47,-68.632 2369,-34 2372.02,-33.4079 2375.11,-32.7138 2378.21,-31.9525"/>
<polygon fill="midnightblue" stroke="midnightblue" points="1877.89,-80.767 1868.03,-84.6305 1878.15,-87.7624 1877.89,-80.767"/>
</g>
</g>
</svg>
        <g id="navigator" transform="translate(0 0)" fill="#404254">
                <rect fill="#f2f5e9" fill-opacity="0.5" stroke="#606060" stroke-width=".5" x="0" y="0" width="60" height="60"/>
                <use id="zoomplus" xlink:href="#zoomPlus" x="17" y="9" onmousedown="handleZoom(evt,'in')"/>
                <use id="zoomminus" xlink:href="#zoomMin" x="42" y="9" onmousedown="handleZoom(evt,'out')"/>
                <use id="reset" xlink:href="#resetDef" x="30" y="36" onmousedown="handleReset()"/>
                <g id="arrowUp" xlink:href="#dirArrow" transform="translate(30 24)" onmousedown="handlePan(0,-1)">
                  <use xlink:href="#rim" fill="#404040">
                        <set attributeName="fill" to="#808080" begin="arrowUp.mouseover" end="arrowUp.mouseout"/>
                  </use>
                  <path fill="none" stroke="white" stroke-width="1.5" d="M0,-3.0v7 M-2.5,-0.5L0,-3.0L2.5,-0.5"/>
                </g>
                <g id="arrowRight" xlink:href="#dirArrow" transform="rotate(90) translate(36 -43)" onmousedown="handlePan(1,0)">
                  <use xlink:href="#rim" fill="#404040">
                        <set attributeName="fill" to="#808080" begin="arrowRight.mouseover" end="arrowRight.mouseout"/>
                  </use>
                  <path fill="none" stroke="white" stroke-width="1.5" d="M0,-3.0v7 M-2.5,-0.5L0,-3.0L2.5,-0.5"/>
                </g>
                <g id="arrowDown" xlink:href="#dirArrow" transform="rotate(180) translate(-30 -48)" onmousedown="handlePan(0,1)">
                  <use xlink:href="#rim" fill="#404040">
                        <set attributeName="fill" to="#808080" begin="arrowDown.mouseover" end="arrowDown.mouseout"/>
                  </use>
                  <path fill="none" stroke="white" stroke-width="1.5" d="M0,-3.0v7 M-2.5,-0.5L0,-3.0L2.5,-0.5"/>
                </g>
                <g id="arrowLeft" xlink:href="#dirArrow" transform="rotate(270) translate(-36 17)" onmousedown="handlePan(-1,0)">
                  <use xlink:href="#rim" fill="#404040">
                        <set attributeName="fill" to="#808080" begin="arrowLeft.mouseover" end="arrowLeft.mouseout"/>
                  </use>
                  <path fill="none" stroke="white" stroke-width="1.5" d="M0,-3.0v7 M-2.5,-0.5L0,-3.0L2.5,-0.5"/>
                </g>
        </g>
        <svg viewBox="0 0 15 15" width="100%" height="30px" preserveAspectRatio="xMaxYMin meet">
         <g id="arrow_out" transform="scale(0.3 0.3)">
          <a xlink:href="debug_8hpp__dep__incl_org.svg" target="_base">
           <rect id="button" ry="5" rx="5" y="6" x="6" height="38" width="38"
                fill="#f2f5e9" fill-opacity="0.5" stroke="#606060" stroke-width="1.0"/>
           <path id="arrow"
             d="M 11.500037,31.436501 C 11.940474,20.09759 22.043105,11.32322 32.158766,21.979434 L 37.068811,17.246167 C 37.068811,17.246167 37.088388,32 37.088388,32 L 22.160133,31.978069 C 22.160133,31.978069 26.997745,27.140456 26.997745,27.140456 C 18.528582,18.264221 13.291696,25.230495 11.500037,31.436501 z"
             style="fill:#404040;"/>
          </a>
         </g>
        </svg>
</svg>
