<?xml version="1.0" encoding="UTF-8" standalone="no"?>
<!DOCTYPE svg PUBLIC "-//W3C//DTD SVG 1.1//EN"
 "http://www.w3.org/Graphics/SVG/1.1/DTD/svg11.dtd">
<!-- Generated by graphviz version 2.32.0 (20130916.1925)
 -->
<!-- Title: src Pages: 1 -->
<!--zoomable 132 -->
<svg id="main" version="1.1" xmlns="http://www.w3.org/2000/svg" xmlns:xlink="http://www.w3.org/1999/xlink" xml:space="preserve" onload="init(evt)">
        <defs>
                <circle id="rim" cx="0" cy="0" r="7"/>
                <circle id="rim2" cx="0" cy="0" r="3.5"/>
                <g id="zoomPlus">
                        <use xlink:href="#rim" fill="#404040">
                                <set attributeName="fill" to="#808080" begin="zoomplus.mouseover" end="zoomplus.mouseout"/>
                        </use>
                        <path d="M-4,0h8M0,-4v8" fill="none" stroke="white" stroke-width="1.5" pointer-events="none"/>
                </g>
                <g id="zoomMin">
                        <use xlink:href="#rim" fill="#404040">
                                <set attributeName="fill" to="#808080" begin="zoomminus.mouseover" end="zoomminus.mouseout"/>
                        </use>
                        <path d="M-4,0h8" fill="none" stroke="white" stroke-width="1.5" pointer-events="none"/>
                </g>
                <g id="dirArrow">
                        <path fill="none" stroke="white" stroke-width="1.5" d="M0,-3.0v7 M-2.5,-0.5L0,-3.0L2.5,-0.5"/>
                </g>
               <g id="resetDef">
                       <use xlink:href="#rim2" fill="#404040">
                               <set attributeName="fill" to="#808080" begin="reset.mouseover" end="reset.mouseout"/>
                       </use>
               </g>
        </defs>

<script type="text/javascript">
var viewWidth = 606;
var viewHeight = 132;
var sectionId = 'dynsection-0';
</script>
<script xlink:href="svgpan.js"/>
<svg id="graph" class="graph">
<g id="viewport">
<title>src</title>
<polygon fill="white" stroke="white" points="-4,5 -4,-128 603,-128 603,5 -4,5"/>
<g id="clust1" class="cluster"><title>clusterdir_68267d1309a1af8e8297ef4c3efbcdba</title>
<g id="a_clust1"><a xlink:href="dir_68267d1309a1af8e8297ef4c3efbcdba.html" target="_top">
<polygon fill="#eeeeff" stroke="black" points="8,-64 8,-116 590,-116 590,-64 8,-64"/>
</a>
</g>
</g>
<!-- dir_68267d1309a1af8e8297ef4c3efbcdba -->
<g id="node1" class="node"><title>dir_68267d1309a1af8e8297ef4c3efbcdba</title>
<text text-anchor="middle" x="555" y="-86" font-family="Helvetica,sans-Serif" font-size="10.00">src</text>
</g>
<!-- dir_2eec376824a17f48dc36b4bd0c810e01 -->
<g id="node2" class="node"><title>dir_2eec376824a17f48dc36b4bd0c810e01</title>
<g id="a_node2"><a xlink:href="dir_2eec376824a17f48dc36b4bd0c810e01.html" target="_top" xlink:title="analysis">
<polygon fill="white" stroke="red" points="510,-108 456,-108 456,-72 510,-72 510,-108"/>
<text text-anchor="middle" x="483" y="-86" font-family="Helvetica,sans-Serif" font-size="10.00">analysis</text>
</a>
</g>
</g>
<!-- dir_d44c64559bbebec7f509842c48db8b23 -->
<g id="node9" class="node"><title>dir_d44c64559bbebec7f509842c48db8b23</title>
<g id="a_node9"><a xlink:href="dir_d44c64559bbebec7f509842c48db8b23.html" target="_top" xlink:title="include">
<polygon fill="white" stroke="red" points="294,-36 240,-36 240,-0 294,-0 294,-36"/>
<text text-anchor="middle" x="267" y="-14" font-family="Helvetica,sans-Serif" font-size="10.00">include</text>
</a>
</g>
</g>
<!-- dir_2eec376824a17f48dc36b4bd0c810e01&#45;&gt;dir_d44c64559bbebec7f509842c48db8b23 -->
<g id="edge6" class="edge"><title>dir_2eec376824a17f48dc36b4bd0c810e01&#45;&gt;dir_d44c64559bbebec7f509842c48db8b23</title>
<path fill="none" stroke="black" d="M460.894,-71.8139C456.461,-68.9042 451.712,-66.1381 447,-64 400.079,-42.7085 341.516,-30.4553 304.181,-24.2583"/>
<polygon fill="black" stroke="black" points="304.668,-20.7917 294.24,-22.6685 303.562,-27.7039 304.668,-20.7917"/>
<g id="a_edge6&#45;headlabel"><a xlink:href="dir_000011_000000.html" target="_top" xlink:title="245">
<text text-anchor="middle" x="308.665" y="-14.5557" font-family="Helvetica,sans-Serif" font-size="10.00">245</text>
</a>
</g>
</g>
<!-- dir_c4484650c52673644034fdd7947d837f -->
<g id="node3" class="node"><title>dir_c4484650c52673644034fdd7947d837f</title>
<g id="a_node3"><a xlink:href="dir_c4484650c52673644034fdd7947d837f.html" target="_top" xlink:title="baseUI">
<polygon fill="white" stroke="black" points="438,-108 384,-108 384,-72 438,-72 438,-108"/>
<text text-anchor="middle" x="411" y="-86" font-family="Helvetica,sans-Serif" font-size="10.00">baseUI</text>
</a>
</g>
</g>
<!-- dir_c4484650c52673644034fdd7947d837f&#45;&gt;dir_d44c64559bbebec7f509842c48db8b23 -->
<g id="edge2" class="edge"><title>dir_c4484650c52673644034fdd7947d837f&#45;&gt;dir_d44c64559bbebec7f509842c48db8b23</title>
<path fill="none" stroke="black" d="M387.833,-71.8526C383.658,-69.0703 379.272,-66.3386 375,-64 352.236,-51.5375 325.293,-40.3059 304.013,-32.1807"/>
<polygon fill="black" stroke="black" points="304.959,-28.7977 294.367,-28.5615 302.5,-35.3515 304.959,-28.7977"/>
<g id="a_edge2&#45;headlabel"><a xlink:href="dir_000013_000000.html" target="_top" xlink:title="4">
<text text-anchor="middle" x="309.322" y="-23.4022" font-family="Helvetica,sans-Serif" font-size="10.00">4</text>
</a>
</g>
</g>
<!-- dir_021c64f412f6b3b6708367bb6d6ca209 -->
<g id="node4" class="node"><title>dir_021c64f412f6b3b6708367bb6d6ca209</title>
<g id="a_node4"><a xlink:href="dir_021c64f412f6b3b6708367bb6d6ca209.html" target="_top" xlink:title="support">
<polygon fill="white" stroke="black" points="366,-108 312,-108 312,-72 366,-72 366,-108"/>
<text text-anchor="middle" x="339" y="-86" font-family="Helvetica,sans-Serif" font-size="10.00">support</text>
</a>
</g>
</g>
<!-- dir_021c64f412f6b3b6708367bb6d6ca209&#45;&gt;dir_d44c64559bbebec7f509842c48db8b23 -->
<g id="edge4" class="edge"><title>dir_021c64f412f6b3b6708367bb6d6ca209&#45;&gt;dir_d44c64559bbebec7f509842c48db8b23</title>
<path fill="none" stroke="black" d="M321.202,-71.6966C312.396,-63.135 301.618,-52.6562 291.999,-43.3045"/>
<polygon fill="black" stroke="black" points="294.203,-40.5657 284.593,-36.1043 289.323,-45.5846 294.203,-40.5657"/>
<g id="a_edge4&#45;headlabel"><a xlink:href="dir_000014_000000.html" target="_top" xlink:title="29">
<text text-anchor="middle" x="298.759" y="-37.0356" font-family="Helvetica,sans-Serif" font-size="10.00">29</text>
</a>
</g>
</g>
<!-- dir_b7878ad5ecbf2506f4125b9d34c97e45 -->
<g id="node5" class="node"><title>dir_b7878ad5ecbf2506f4125b9d34c97e45</title>
<g id="a_node5"><a xlink:href="dir_b7878ad5ecbf2506f4125b9d34c97e45.html" target="_top" xlink:title="util">
<polygon fill="white" stroke="red" points="294,-108 240,-108 240,-72 294,-72 294,-108"/>
<text text-anchor="middle" x="267" y="-86" font-family="Helvetica,sans-Serif" font-size="10.00">util</text>
</a>
</g>
</g>
<!-- dir_b7878ad5ecbf2506f4125b9d34c97e45&#45;&gt;dir_d44c64559bbebec7f509842c48db8b23 -->
<g id="edge1" class="edge"><title>dir_b7878ad5ecbf2506f4125b9d34c97e45&#45;&gt;dir_d44c64559bbebec7f509842c48db8b23</title>
<path fill="none" stroke="black" d="M267,-71.6966C267,-63.9827 267,-54.7125 267,-46.1124"/>
<polygon fill="black" stroke="black" points="270.5,-46.1043 267,-36.1043 263.5,-46.1044 270.5,-46.1043"/>
<g id="a_edge1&#45;headlabel"><a xlink:href="dir_000015_000000.html" target="_top" xlink:title="72">
<text text-anchor="middle" x="273.339" y="-45.699" font-family="Helvetica,sans-Serif" font-size="10.00">72</text>
</a>
</g>
</g>
<!-- dir_05012d4259fd63bf123c16761d857d30 -->
<g id="node6" class="node"><title>dir_05012d4259fd63bf123c16761d857d30</title>
<g id="a_node6"><a xlink:href="dir_05012d4259fd63bf123c16761d857d30.html" target="_top" xlink:title="visible">
<polygon fill="white" stroke="red" points="222,-108 168,-108 168,-72 222,-72 222,-108"/>
<text text-anchor="middle" x="195" y="-86" font-family="Helvetica,sans-Serif" font-size="10.00">visible</text>
</a>
</g>
</g>
<!-- dir_05012d4259fd63bf123c16761d857d30&#45;&gt;dir_d44c64559bbebec7f509842c48db8b23 -->
<g id="edge5" class="edge"><title>dir_05012d4259fd63bf123c16761d857d30&#45;&gt;dir_d44c64559bbebec7f509842c48db8b23</title>
<path fill="none" stroke="black" d="M212.798,-71.6966C221.604,-63.135 232.382,-52.6562 242.001,-43.3045"/>
<polygon fill="black" stroke="black" points="244.677,-45.5846 249.407,-36.1043 239.797,-40.5657 244.677,-45.5846"/>
<g id="a_edge5&#45;headlabel"><a xlink:href="dir_000017_000000.html" target="_top" xlink:title="237">
<text text-anchor="middle" x="244.079" y="-46.1261" font-family="Helvetica,sans-Serif" font-size="10.00">237</text>
</a>
</g>
</g>
<!-- dir_5594f77850edb42952de1f5e8c94226d -->
<g id="node7" class="node"><title>dir_5594f77850edb42952de1f5e8c94226d</title>
<g id="a_node7"><a xlink:href="dir_5594f77850edb42952de1f5e8c94226d.html" target="_top" xlink:title="visual">
<polygon fill="white" stroke="red" points="150,-108 96,-108 96,-72 150,-72 150,-108"/>
<text text-anchor="middle" x="123" y="-86" font-family="Helvetica,sans-Serif" font-size="10.00">visual</text>
</a>
</g>
</g>
<!-- dir_5594f77850edb42952de1f5e8c94226d&#45;&gt;dir_d44c64559bbebec7f509842c48db8b23 -->
<g id="edge3" class="edge"><title>dir_5594f77850edb42952de1f5e8c94226d&#45;&gt;dir_d44c64559bbebec7f509842c48db8b23</title>
<path fill="none" stroke="black" d="M146.167,-71.8526C150.342,-69.0703 154.728,-66.3386 159,-64 181.764,-51.5375 208.707,-40.3059 229.987,-32.1807"/>
<polygon fill="black" stroke="black" points="231.5,-35.3515 239.633,-28.5615 229.041,-28.7977 231.5,-35.3515"/>
<g id="a_edge3&#45;headlabel"><a xlink:href="dir_000021_000000.html" target="_top" xlink:title="112">
<text text-anchor="middle" x="229.132" y="-35.2726" font-family="Helvetica,sans-Serif" font-size="10.00">112</text>
</a>
</g>
</g>
<!-- dir_9747a38c3e15900cff9458fda88b478b -->
<g id="node8" class="node"><title>dir_9747a38c3e15900cff9458fda88b478b</title>
<g id="a_node8"><a xlink:href="dir_9747a38c3e15900cff9458fda88b478b.html" target="_top" xlink:title="vsigmatch">
<polygon fill="white" stroke="black" points="77.2609,-108 16.7391,-108 16.7391,-72 77.2609,-72 77.2609,-108"/>
<text text-anchor="middle" x="47" y="-86" font-family="Helvetica,sans-Serif" font-size="10.00">vsigmatch</text>
</a>
</g>
</g>
<!-- dir_9747a38c3e15900cff9458fda88b478b&#45;&gt;dir_d44c64559bbebec7f509842c48db8b23 -->
<g id="edge7" class="edge"><title>dir_9747a38c3e15900cff9458fda88b478b&#45;&gt;dir_d44c64559bbebec7f509842c48db8b23</title>
<path fill="none" stroke="black" d="M71.7404,-71.878C76.6501,-68.9624 81.8748,-66.1777 87,-64 134.423,-43.8499 192.86,-31.3117 230.031,-24.7402"/>
<polygon fill="black" stroke="black" points="230.66,-28.1835 239.925,-23.0435 229.477,-21.2842 230.66,-28.1835"/>
<g id="a_edge7&#45;headlabel"><a xlink:href="dir_000023_000000.html" target="_top" xlink:title="20">
<text text-anchor="middle" x="227.597" y="-27.5894" font-family="Helvetica,sans-Serif" font-size="10.00">20</text>
</a>
</g>
</g>
</g>
</svg>
        <g id="navigator" transform="translate(0 0)" fill="#404254">
                <rect fill="#f2f5e9" fill-opacity="0.5" stroke="#606060" stroke-width=".5" x="0" y="0" width="60" height="60"/>
                <use id="zoomplus" xlink:href="#zoomPlus" x="17" y="9" onmousedown="handleZoom(evt,'in')"/>
                <use id="zoomminus" xlink:href="#zoomMin" x="42" y="9" onmousedown="handleZoom(evt,'out')"/>
                <use id="reset" xlink:href="#resetDef" x="30" y="36" onmousedown="handleReset()"/>
                <g id="arrowUp" xlink:href="#dirArrow" transform="translate(30 24)" onmousedown="handlePan(0,-1)">
                  <use xlink:href="#rim" fill="#404040">
                        <set attributeName="fill" to="#808080" begin="arrowUp.mouseover" end="arrowUp.mouseout"/>
                  </use>
                  <path fill="none" stroke="white" stroke-width="1.5" d="M0,-3.0v7 M-2.5,-0.5L0,-3.0L2.5,-0.5"/>
                </g>
                <g id="arrowRight" xlink:href="#dirArrow" transform="rotate(90) translate(36 -43)" onmousedown="handlePan(1,0)">
                  <use xlink:href="#rim" fill="#404040">
                        <set attributeName="fill" to="#808080" begin="arrowRight.mouseover" end="arrowRight.mouseout"/>
                  </use>
                  <path fill="none" stroke="white" stroke-width="1.5" d="M0,-3.0v7 M-2.5,-0.5L0,-3.0L2.5,-0.5"/>
                </g>
                <g id="arrowDown" xlink:href="#dirArrow" transform="rotate(180) translate(-30 -48)" onmousedown="handlePan(0,1)">
                  <use xlink:href="#rim" fill="#404040">
                        <set attributeName="fill" to="#808080" begin="arrowDown.mouseover" end="arrowDown.mouseout"/>
                  </use>
                  <path fill="none" stroke="white" stroke-width="1.5" d="M0,-3.0v7 M-2.5,-0.5L0,-3.0L2.5,-0.5"/>
                </g>
                <g id="arrowLeft" xlink:href="#dirArrow" transform="rotate(270) translate(-36 17)" onmousedown="handlePan(-1,0)">
                  <use xlink:href="#rim" fill="#404040">
                        <set attributeName="fill" to="#808080" begin="arrowLeft.mouseover" end="arrowLeft.mouseout"/>
                  </use>
                  <path fill="none" stroke="white" stroke-width="1.5" d="M0,-3.0v7 M-2.5,-0.5L0,-3.0L2.5,-0.5"/>
                </g>
        </g>
        <svg viewBox="0 0 15 15" width="100%" height="30px" preserveAspectRatio="xMaxYMin meet">
         <g id="arrow_out" transform="scale(0.3 0.3)">
          <a xlink:href="dir_68267d1309a1af8e8297ef4c3efbcdba_dep_org.svg" target="_base">
           <rect id="button" ry="5" rx="5" y="6" x="6" height="38" width="38"
                fill="#f2f5e9" fill-opacity="0.5" stroke="#606060" stroke-width="1.0"/>
           <path id="arrow"
             d="M 11.500037,31.436501 C 11.940474,20.09759 22.043105,11.32322 32.158766,21.979434 L 37.068811,17.246167 C 37.068811,17.246167 37.088388,32 37.088388,32 L 22.160133,31.978069 C 22.160133,31.978069 26.997745,27.140456 26.997745,27.140456 C 18.528582,18.264221 13.291696,25.230495 11.500037,31.436501 z"
             style="fill:#404040;"/>
          </a>
         </g>
        </svg>
</svg>
