<?xml version="1.0" encoding="UTF-8" standalone="no"?>
<!DOCTYPE svg PUBLIC "-//W3C//DTD SVG 1.1//EN"
 "http://www.w3.org/Graphics/SVG/1.1/DTD/svg11.dtd">
<!-- Generated by graphviz version 2.32.0 (20130916.1925)
 -->
<!-- Title: include/visiCore Pages: 1 -->
<svg width="217pt" height="296pt"
 viewBox="0.00 0.00 217.29 296.00" xmlns="http://www.w3.org/2000/svg" xmlns:xlink="http://www.w3.org/1999/xlink">
<g id="graph0" class="graph" transform="scale(1 1) rotate(0) translate(4 292)">
<title>include/visiCore</title>
<polygon fill="white" stroke="white" points="-4,5 -4,-292 214.288,-292 214.288,5 -4,5"/>
<g id="clust1" class="cluster"><title>clusterdir_d44c64559bbebec7f509842c48db8b23</title>
<g id="a_clust1"><a xlink:href="dir_d44c64559bbebec7f509842c48db8b23.html" target="_top" xlink:title="include">
<polygon fill="#ddddee" stroke="black" points="82.2878,-208 82.2878,-280 152.288,-280 152.288,-208 82.2878,-208"/>
<text text-anchor="middle" x="117.288" y="-266" font-family="Helvetica,sans-Serif" font-size="10.00">include</text>
</a>
</g>
</g>
<!-- dir_522086481796802b4cdf606233ea1fe3 -->
<g id="node1" class="node"><title>dir_522086481796802b4cdf606233ea1fe3</title>
<g id="a_node1"><a xlink:href="dir_522086481796802b4cdf606233ea1fe3.html" target="_top" xlink:title="visiCore">
<polygon fill="#eeeeff" stroke="black" points="144.288,-252 90.2878,-252 90.2878,-216 144.288,-216 144.288,-252"/>
<text text-anchor="middle" x="117.288" y="-230" font-family="Helvetica,sans-Serif" font-size="10.00">visiCore</text>
</a>
</g>
</g>
<!-- dir_73d4a28092349dbf779c4e991d882038 -->
<g id="node2" class="node"><title>dir_73d4a28092349dbf779c4e991d882038</title>
<g id="a_node2"><a xlink:href="dir_73d4a28092349dbf779c4e991d882038.html" target="_top" xlink:title="analysis">
<polygon fill="none" stroke="black" points="144.288,-180 90.2878,-180 90.2878,-144 144.288,-144 144.288,-180"/>
<text text-anchor="middle" x="117.288" y="-158" font-family="Helvetica,sans-Serif" font-size="10.00">analysis</text>
</a>
</g>
</g>
<!-- dir_522086481796802b4cdf606233ea1fe3&#45;&gt;dir_73d4a28092349dbf779c4e991d882038 -->
<g id="edge5" class="edge"><title>dir_522086481796802b4cdf606233ea1fe3&#45;&gt;dir_73d4a28092349dbf779c4e991d882038</title>
<path fill="none" stroke="black" d="M117.288,-215.697C117.288,-207.983 117.288,-198.712 117.288,-190.112"/>
<polygon fill="black" stroke="black" points="120.788,-190.104 117.288,-180.104 113.788,-190.104 120.788,-190.104"/>
<g id="a_edge5&#45;headlabel"><a xlink:href="dir_000007_000001.html" target="_top" xlink:title="12">
<text text-anchor="middle" x="123.627" y="-189.699" font-family="Helvetica,sans-Serif" font-size="10.00">12</text>
</a>
</g>
</g>
<!-- dir_586ad3c2f85d776b984733890d824e3e -->
<g id="node3" class="node"><title>dir_586ad3c2f85d776b984733890d824e3e</title>
<g id="a_node3"><a xlink:href="dir_586ad3c2f85d776b984733890d824e3e.html" target="_top" xlink:title="util">
<polygon fill="none" stroke="black" points="165.288,-108 111.288,-108 111.288,-72 165.288,-72 165.288,-108"/>
<text text-anchor="middle" x="138.288" y="-86" font-family="Helvetica,sans-Serif" font-size="10.00">util</text>
</a>
</g>
</g>
<!-- dir_522086481796802b4cdf606233ea1fe3&#45;&gt;dir_586ad3c2f85d776b984733890d824e3e -->
<g id="edge6" class="edge"><title>dir_522086481796802b4cdf606233ea1fe3&#45;&gt;dir_586ad3c2f85d776b984733890d824e3e</title>
<path fill="none" stroke="black" d="M132.898,-215.774C140.661,-206.03 149.234,-193.184 153.288,-180 159.593,-159.497 154.865,-135.472 149.102,-117.555"/>
<polygon fill="black" stroke="black" points="152.375,-116.314 145.761,-108.037 145.771,-118.632 152.375,-116.314"/>
<g id="a_edge6&#45;headlabel"><a xlink:href="dir_000007_000006.html" target="_top" xlink:title="40">
<text text-anchor="middle" x="156.245" y="-114.765" font-family="Helvetica,sans-Serif" font-size="10.00">40</text>
</a>
</g>
</g>
<!-- dir_d2da4e008e38ce7acf59e0150924e48f -->
<g id="node4" class="node"><title>dir_d2da4e008e38ce7acf59e0150924e48f</title>
<g id="a_node4"><a xlink:href="dir_d2da4e008e38ce7acf59e0150924e48f.html" target="_top" xlink:title="visual">
<polygon fill="none" stroke="black" points="110.288,-36 56.2878,-36 56.2878,-0 110.288,-0 110.288,-36"/>
<text text-anchor="middle" x="83.2878" y="-14" font-family="Helvetica,sans-Serif" font-size="10.00">visual</text>
</a>
</g>
</g>
<!-- dir_522086481796802b4cdf606233ea1fe3&#45;&gt;dir_d2da4e008e38ce7acf59e0150924e48f -->
<g id="edge7" class="edge"><title>dir_522086481796802b4cdf606233ea1fe3&#45;&gt;dir_d2da4e008e38ce7acf59e0150924e48f</title>
<path fill="none" stroke="black" d="M90.0864,-228.078C64.2597,-221.803 26.8516,-208.184 9.28782,-180 -19.1802,-134.318 25.8363,-75.8705 57.1848,-43.4479"/>
<polygon fill="black" stroke="black" points="59.8493,-45.732 64.4159,-36.1718 54.8842,-40.7976 59.8493,-45.732"/>
<g id="a_edge7&#45;headlabel"><a xlink:href="dir_000007_000004.html" target="_top" xlink:title="30">
<text text-anchor="middle" x="59.3293" y="-46.283" font-family="Helvetica,sans-Serif" font-size="10.00">30</text>
</a>
</g>
</g>
<!-- dir_7eee62c5268d3e0e3e183cb8387ed656 -->
<g id="node5" class="node"><title>dir_7eee62c5268d3e0e3e183cb8387ed656</title>
<g id="a_node5"><a xlink:href="dir_7eee62c5268d3e0e3e183cb8387ed656.html" target="_top" xlink:title="stlplus">
<polygon fill="none" stroke="black" points="209.288,-36 155.288,-36 155.288,-0 209.288,-0 209.288,-36"/>
<text text-anchor="middle" x="182.288" y="-14" font-family="Helvetica,sans-Serif" font-size="10.00">stlplus</text>
</a>
</g>
</g>
<!-- dir_522086481796802b4cdf606233ea1fe3&#45;&gt;dir_7eee62c5268d3e0e3e183cb8387ed656 -->
<g id="edge8" class="edge"><title>dir_522086481796802b4cdf606233ea1fe3&#45;&gt;dir_7eee62c5268d3e0e3e183cb8387ed656</title>
<path fill="none" stroke="black" d="M140.284,-215.933C151.037,-206.597 162.864,-194.072 169.288,-180 189.061,-136.682 188.323,-79.9953 185.584,-46.733"/>
<polygon fill="black" stroke="black" points="189.033,-46.0291 184.605,-36.4039 182.064,-46.6895 189.033,-46.0291"/>
<g id="a_edge8&#45;headlabel"><a xlink:href="dir_000007_000005.html" target="_top" xlink:title="1">
<text text-anchor="middle" x="192.199" y="-45.3398" font-family="Helvetica,sans-Serif" font-size="10.00">1</text>
</a>
</g>
</g>
<!-- dir_e27655493ef1177cd07375b1ae008232 -->
<g id="node6" class="node"><title>dir_e27655493ef1177cd07375b1ae008232</title>
<g id="a_node6"><a xlink:href="dir_e27655493ef1177cd07375b1ae008232.html" target="_top" xlink:title="baseUI">
<polygon fill="none" stroke="black" points="72.2878,-180 18.2878,-180 18.2878,-144 72.2878,-144 72.2878,-180"/>
<text text-anchor="middle" x="45.2878" y="-158" font-family="Helvetica,sans-Serif" font-size="10.00">baseUI</text>
</a>
</g>
</g>
<!-- dir_522086481796802b4cdf606233ea1fe3&#45;&gt;dir_e27655493ef1177cd07375b1ae008232 -->
<g id="edge9" class="edge"><title>dir_522086481796802b4cdf606233ea1fe3&#45;&gt;dir_e27655493ef1177cd07375b1ae008232</title>
<path fill="none" stroke="black" d="M99.4901,-215.697C90.6839,-207.135 79.9057,-196.656 70.2867,-187.304"/>
<polygon fill="black" stroke="black" points="72.4906,-184.566 62.8808,-180.104 67.611,-189.585 72.4906,-184.566"/>
<g id="a_edge9&#45;headlabel"><a xlink:href="dir_000007_000002.html" target="_top" xlink:title="17">
<text text-anchor="middle" x="77.0471" y="-181.036" font-family="Helvetica,sans-Serif" font-size="10.00">17</text>
</a>
</g>
</g>
<!-- dir_73d4a28092349dbf779c4e991d882038&#45;&gt;dir_586ad3c2f85d776b984733890d824e3e -->
<g id="edge1" class="edge"><title>dir_73d4a28092349dbf779c4e991d882038&#45;&gt;dir_586ad3c2f85d776b984733890d824e3e</title>
<path fill="none" stroke="black" d="M122.479,-143.697C124.818,-135.898 127.635,-126.509 130.239,-117.829"/>
<polygon fill="black" stroke="black" points="133.635,-118.688 133.157,-108.104 126.931,-116.677 133.635,-118.688"/>
<g id="a_edge1&#45;headlabel"><a xlink:href="dir_000001_000006.html" target="_top" xlink:title="53">
<text text-anchor="middle" x="135.322" y="-118.947" font-family="Helvetica,sans-Serif" font-size="10.00">53</text>
</a>
</g>
</g>
<!-- dir_73d4a28092349dbf779c4e991d882038&#45;&gt;dir_d2da4e008e38ce7acf59e0150924e48f -->
<g id="edge2" class="edge"><title>dir_73d4a28092349dbf779c4e991d882038&#45;&gt;dir_d2da4e008e38ce7acf59e0150924e48f</title>
<path fill="none" stroke="black" d="M112.138,-143.89C109.101,-133.545 105.28,-120.066 102.288,-108 97.1864,-87.427 92.2138,-63.9747 88.6361,-46.3108"/>
<polygon fill="black" stroke="black" points="91.9946,-45.2567 86.6,-36.1381 85.1307,-46.6305 91.9946,-45.2567"/>
<g id="a_edge2&#45;headlabel"><a xlink:href="dir_000001_000004.html" target="_top" xlink:title="41">
<text text-anchor="middle" x="95.484" y="-44.2242" font-family="Helvetica,sans-Serif" font-size="10.00">41</text>
</a>
</g>
</g>
<!-- dir_586ad3c2f85d776b984733890d824e3e&#45;&gt;dir_d2da4e008e38ce7acf59e0150924e48f -->
<g id="edge3" class="edge"><title>dir_586ad3c2f85d776b984733890d824e3e&#45;&gt;dir_d2da4e008e38ce7acf59e0150924e48f</title>
<path fill="none" stroke="black" d="M118.777,-71.6966C111.468,-63.4741 103.416,-53.4832 96.7411,-44.4207"/>
<polygon fill="black" stroke="black" points="99.4773,-42.2288 90.8319,-36.1043 93.7711,-46.2833 99.4773,-42.2288"/>
<g id="a_edge3&#45;headlabel"><a xlink:href="dir_000006_000004.html" target="_top" xlink:title="1">
<text text-anchor="middle" x="103.874" y="-39.5144" font-family="Helvetica,sans-Serif" font-size="10.00">1</text>
</a>
</g>
</g>
<!-- dir_586ad3c2f85d776b984733890d824e3e&#45;&gt;dir_7eee62c5268d3e0e3e183cb8387ed656 -->
<g id="edge4" class="edge"><title>dir_586ad3c2f85d776b984733890d824e3e&#45;&gt;dir_7eee62c5268d3e0e3e183cb8387ed656</title>
<path fill="none" stroke="black" d="M149.164,-71.6966C154.279,-63.5589 160.483,-53.689 166.133,-44.7013"/>
<polygon fill="black" stroke="black" points="169.178,-46.4333 171.537,-36.1043 163.252,-42.7081 169.178,-46.4333"/>
<g id="a_edge4&#45;headlabel"><a xlink:href="dir_000006_000005.html" target="_top" xlink:title="1">
<text text-anchor="middle" x="169.669" y="-46.9876" font-family="Helvetica,sans-Serif" font-size="10.00">1</text>
</a>
</g>
</g>
<!-- dir_d2da4e008e38ce7acf59e0150924e48f&#45;&gt;dir_586ad3c2f85d776b984733890d824e3e -->
<g id="edge10" class="edge"><title>dir_d2da4e008e38ce7acf59e0150924e48f&#45;&gt;dir_586ad3c2f85d776b984733890d824e3e</title>
<path fill="none" stroke="black" d="M102.622,-36.1043C109.919,-44.2981 117.975,-54.282 124.672,-63.3594"/>
<polygon fill="black" stroke="black" points="121.957,-65.5802 130.608,-71.6966 127.659,-61.5203 121.957,-65.5802"/>
<g id="a_edge10&#45;headlabel"><a xlink:href="dir_000004_000006.html" target="_top" xlink:title="43">
<text text-anchor="middle" x="117.559" y="-60.2986" font-family="Helvetica,sans-Serif" font-size="10.00">43</text>
</a>
</g>
</g>
<!-- dir_e27655493ef1177cd07375b1ae008232&#45;&gt;dir_586ad3c2f85d776b984733890d824e3e -->
<g id="edge11" class="edge"><title>dir_e27655493ef1177cd07375b1ae008232&#45;&gt;dir_586ad3c2f85d776b984733890d824e3e</title>
<path fill="none" stroke="black" d="M68.2766,-143.697C80.1018,-134.796 94.6798,-123.823 107.466,-114.199"/>
<polygon fill="black" stroke="black" points="109.679,-116.915 115.563,-108.104 105.469,-111.322 109.679,-116.915"/>
<g id="a_edge11&#45;headlabel"><a xlink:href="dir_000002_000006.html" target="_top" xlink:title="4">
<text text-anchor="middle" x="108.514" y="-117.345" font-family="Helvetica,sans-Serif" font-size="10.00">4</text>
</a>
</g>
</g>
<!-- dir_e27655493ef1177cd07375b1ae008232&#45;&gt;dir_d2da4e008e38ce7acf59e0150924e48f -->
<g id="edge12" class="edge"><title>dir_e27655493ef1177cd07375b1ae008232&#45;&gt;dir_d2da4e008e38ce7acf59e0150924e48f</title>
<path fill="none" stroke="black" d="M49.8715,-143.871C56.3764,-119.564 68.3504,-74.8187 76.0589,-46.0132"/>
<polygon fill="black" stroke="black" points="79.4837,-46.7542 78.6879,-36.1893 72.7217,-44.9445 79.4837,-46.7542"/>
<g id="a_edge12&#45;headlabel"><a xlink:href="dir_000002_000004.html" target="_top" xlink:title="2">
<text text-anchor="middle" x="81.2973" y="-46.9605" font-family="Helvetica,sans-Serif" font-size="10.00">2</text>
</a>
</g>
</g>
</g>
</svg>
