<?xml version="1.0" encoding="UTF-8" standalone="no"?>
<!DOCTYPE svg PUBLIC "-//W3C//DTD SVG 1.1//EN"
 "http://www.w3.org/Graphics/SVG/1.1/DTD/svg11.dtd">
<!-- Generated by graphviz version 2.32.0 (20130916.1925)
 -->
<!-- Title: src/vsigmatch Pages: 1 -->
<svg width="102pt" height="152pt"
 viewBox="0.00 0.00 102.00 152.00" xmlns="http://www.w3.org/2000/svg" xmlns:xlink="http://www.w3.org/1999/xlink">
<g id="graph0" class="graph" transform="scale(1 1) rotate(0) translate(4 148)">
<title>src/vsigmatch</title>
<polygon fill="white" stroke="white" points="-4,5 -4,-148 99,-148 99,5 -4,5"/>
<g id="clust1" class="cluster"><title>clusterdir_68267d1309a1af8e8297ef4c3efbcdba</title>
<g id="a_clust1"><a xlink:href="dir_68267d1309a1af8e8297ef4c3efbcdba.html" target="_top" xlink:title="src">
<polygon fill="#ddddee" stroke="black" points="8,-64 8,-136 86,-136 86,-64 8,-64"/>
<text text-anchor="middle" x="47" y="-122" font-family="Helvetica,sans-Serif" font-size="10.00">src</text>
</a>
</g>
</g>
<!-- dir_9747a38c3e15900cff9458fda88b478b -->
<g id="node1" class="node"><title>dir_9747a38c3e15900cff9458fda88b478b</title>
<g id="a_node1"><a xlink:href="dir_9747a38c3e15900cff9458fda88b478b.html" target="_top" xlink:title="vsigmatch">
<polygon fill="#eeeeff" stroke="black" points="77.2609,-108 16.7391,-108 16.7391,-72 77.2609,-72 77.2609,-108"/>
<text text-anchor="middle" x="47" y="-86" font-family="Helvetica,sans-Serif" font-size="10.00">vsigmatch</text>
</a>
</g>
</g>
<!-- dir_d44c64559bbebec7f509842c48db8b23 -->
<g id="node2" class="node"><title>dir_d44c64559bbebec7f509842c48db8b23</title>
<g id="a_node2"><a xlink:href="dir_d44c64559bbebec7f509842c48db8b23.html" target="_top" xlink:title="include">
<polygon fill="white" stroke="red" points="74,-36 20,-36 20,-0 74,-0 74,-36"/>
<text text-anchor="middle" x="47" y="-14" font-family="Helvetica,sans-Serif" font-size="10.00">include</text>
</a>
</g>
</g>
<!-- dir_9747a38c3e15900cff9458fda88b478b&#45;&gt;dir_d44c64559bbebec7f509842c48db8b23 -->
<g id="edge1" class="edge"><title>dir_9747a38c3e15900cff9458fda88b478b&#45;&gt;dir_d44c64559bbebec7f509842c48db8b23</title>
<path fill="none" stroke="black" d="M47,-71.6966C47,-63.9827 47,-54.7125 47,-46.1124"/>
<polygon fill="black" stroke="black" points="50.5001,-46.1043 47,-36.1043 43.5001,-46.1044 50.5001,-46.1043"/>
<g id="a_edge1&#45;headlabel"><a xlink:href="dir_000023_000000.html" target="_top" xlink:title="20">
<text text-anchor="middle" x="53.3393" y="-45.699" font-family="Helvetica,sans-Serif" font-size="10.00">20</text>
</a>
</g>
</g>
</g>
</svg>
