<?xml version="1.0" encoding="UTF-8" standalone="no"?>
<!DOCTYPE svg PUBLIC "-//W3C//DTD SVG 1.1//EN"
 "http://www.w3.org/Graphics/SVG/1.1/DTD/svg11.dtd">
<!-- Generated by graphviz version 2.32.0 (20130916.1925)
 -->
<!-- Title: operator&lt;&lt; Pages: 1 -->
<svg width="980pt" height="393pt"
 viewBox="0.00 0.00 980.00 392.99" xmlns="http://www.w3.org/2000/svg" xmlns:xlink="http://www.w3.org/1999/xlink">
<g id="graph0" class="graph" transform="scale(1 1) rotate(0) translate(4 388.986)">
<title>operator&lt;&lt;</title>
<polygon fill="white" stroke="white" points="-4,5 -4,-388.986 977,-388.986 977,5 -4,5"/>
<!-- Node1 -->
<g id="node1" class="node"><title>Node1</title>
<polygon fill="#bfbfbf" stroke="black" points="0.537109,-78 0.537109,-98 65.4629,-98 65.4629,-78 0.537109,-78"/>
<text text-anchor="middle" x="33" y="-84" font-family="Helvetica,sans-Serif" font-size="10.00">operator&lt;&lt;</text>
</g>
<!-- Node2 -->
<g id="node2" class="node"><title>Node2</title>
<g id="a_node2"><a xlink:href="error__handler_8cpp.html#aac3be3c13a6d90b39f966b6e897c0744" target="_top" xlink:title="to_string">
<polygon fill="white" stroke="black" points="101.823,-78 101.823,-98 156.177,-98 156.177,-78 101.823,-78"/>
<text text-anchor="middle" x="129" y="-84" font-family="Helvetica,sans-Serif" font-size="10.00">to_string</text>
</a>
</g>
</g>
<!-- Node1&#45;&gt;Node2 -->
<g id="edge1" class="edge"><title>Node1&#45;&gt;Node2</title>
<path fill="none" stroke="midnightblue" d="M65.5621,-88C73.9042,-88 82.9762,-88 91.5537,-88"/>
<polygon fill="midnightblue" stroke="midnightblue" points="91.6888,-91.5001 101.689,-88 91.6888,-84.5001 91.6888,-91.5001"/>
</g>
<!-- Node2&#45;&gt;Node2 -->
<g id="edge30" class="edge"><title>Node2&#45;&gt;Node2</title>
<path fill="none" stroke="midnightblue" d="M113.971,-98.0477C107.115,-106.771 112.125,-116 129,-116 139.283,-116 145.16,-112.573 146.632,-107.922"/>
<polygon fill="midnightblue" stroke="midnightblue" points="149.962,-106.826 144.029,-98.0477 143.193,-108.609 149.962,-106.826"/>
</g>
<!-- Node3 -->
<g id="node3" class="node"><title>Node3</title>
<g id="a_node3"><a xlink:href="classerror__position.html#a3f7ed498a2a6aa5343334b17bbdf4bbf" target="_top" xlink:title="error_position::column">
<polygon fill="white" stroke="black" points="198.532,-137 198.532,-157 313.468,-157 313.468,-137 198.532,-137"/>
<text text-anchor="middle" x="256" y="-143" font-family="Helvetica,sans-Serif" font-size="10.00">error_position::column</text>
</a>
</g>
</g>
<!-- Node2&#45;&gt;Node3 -->
<g id="edge2" class="edge"><title>Node2&#45;&gt;Node3</title>
<path fill="none" stroke="midnightblue" d="M143.702,-98.0518C155.897,-106.641 174.467,-118.864 192,-127 197.075,-129.355 202.501,-131.538 207.961,-133.529"/>
<polygon fill="midnightblue" stroke="midnightblue" points="207.163,-136.956 217.758,-136.903 209.442,-130.338 207.163,-136.956"/>
</g>
<!-- Node4 -->
<g id="node4" class="node"><title>Node4</title>
<g id="a_node4"><a xlink:href="classerror__position.html#ac4739e90b92106a85b0f8c76e9198daf" target="_top" xlink:title="error_position::filename">
<polygon fill="white" stroke="black" points="195.751,-98 195.751,-118 316.249,-118 316.249,-98 195.751,-98"/>
<text text-anchor="middle" x="256" y="-104" font-family="Helvetica,sans-Serif" font-size="10.00">error_position::filename</text>
</a>
</g>
</g>
<!-- Node2&#45;&gt;Node4 -->
<g id="edge3" class="edge"><title>Node2&#45;&gt;Node4</title>
<path fill="none" stroke="midnightblue" d="M156.204,-92.1927C164.939,-93.5902 175.12,-95.2193 185.564,-96.8902"/>
<polygon fill="midnightblue" stroke="midnightblue" points="185.191,-100.375 195.618,-98.4989 186.297,-93.4629 185.191,-100.375"/>
</g>
<!-- Node5 -->
<g id="node5" class="node"><title>Node5</title>
<g id="a_node5"><a xlink:href="file__system_8cpp.html#a6982b54d454c07cc3f770f67c5d0b5ef" target="_top" xlink:title="filespec_to_relative_path">
<polygon fill="white" stroke="black" points="192.685,-59 192.685,-79 319.315,-79 319.315,-59 192.685,-59"/>
<text text-anchor="middle" x="256" y="-65" font-family="Helvetica,sans-Serif" font-size="10.00">filespec_to_relative_path</text>
</a>
</g>
</g>
<!-- Node2&#45;&gt;Node5 -->
<g id="edge4" class="edge"><title>Node2&#45;&gt;Node5</title>
<path fill="none" stroke="midnightblue" d="M156.204,-84.017C164.038,-82.8263 173.035,-81.4586 182.342,-80.0441"/>
<polygon fill="midnightblue" stroke="midnightblue" points="183.16,-83.4599 192.521,-78.4968 182.108,-76.5394 183.16,-83.4599"/>
</g>
<!-- Node20 -->
<g id="node20" class="node"><title>Node20</title>
<g id="a_node20"><a xlink:href="classerror__position.html#af47fc5beec407412df713d56814af6fe" target="_top" xlink:title="error_position::line">
<polygon fill="white" stroke="black" points="206.867,-20 206.867,-40 305.133,-40 305.133,-20 206.867,-20"/>
<text text-anchor="middle" x="256" y="-26" font-family="Helvetica,sans-Serif" font-size="10.00">error_position::line</text>
</a>
</g>
</g>
<!-- Node2&#45;&gt;Node20 -->
<g id="edge29" class="edge"><title>Node2&#45;&gt;Node20</title>
<path fill="none" stroke="midnightblue" d="M143.673,-77.8852C155.849,-69.2559 174.408,-57.0085 192,-49 196.445,-46.9765 201.162,-45.099 205.937,-43.3751"/>
<polygon fill="midnightblue" stroke="midnightblue" points="207.398,-46.5755 215.749,-40.0549 205.155,-39.9448 207.398,-46.5755"/>
</g>
<!-- Node6 -->
<g id="node6" class="node"><title>Node6</title>
<g id="a_node6"><a xlink:href="file__system_8cpp.html#a62475ca973dfe0094c00d60286c7c286" target="_top" xlink:title="create_filespec">
<polygon fill="white" stroke="black" points="510.37,-0 510.37,-20 593.63,-20 593.63,-0 510.37,-0"/>
<text text-anchor="middle" x="552" y="-6" font-family="Helvetica,sans-Serif" font-size="10.00">create_filespec</text>
</a>
</g>
</g>
<!-- Node5&#45;&gt;Node6 -->
<g id="edge5" class="edge"><title>Node5&#45;&gt;Node6</title>
<path fill="none" stroke="midnightblue" d="M306.873,-58.9915C360.741,-48.1813 446.105,-31.0504 500.294,-20.1756"/>
<polygon fill="midnightblue" stroke="midnightblue" points="501.251,-23.5536 510.367,-18.1543 499.873,-16.6904 501.251,-23.5536"/>
</g>
<!-- Node8 -->
<g id="node8" class="node"><title>Node8</title>
<g id="a_node8"><a xlink:href="file__system_8cpp.html#a154091f28159afef5c72b12cee64a9a0" target="_top" xlink:title="folder_to_relative_path">
<polygon fill="white" stroke="black" points="356.131,-178 356.131,-198 473.869,-198 473.869,-178 356.131,-178"/>
<text text-anchor="middle" x="415" y="-184" font-family="Helvetica,sans-Serif" font-size="10.00">folder_to_relative_path</text>
</a>
</g>
</g>
<!-- Node5&#45;&gt;Node8 -->
<g id="edge7" class="edge"><title>Node5&#45;&gt;Node8</title>
<path fill="none" stroke="midnightblue" d="M300.993,-79.0104C307.617,-81.429 314.173,-84.3903 320,-88 354.715,-109.505 385.079,-147.036 401.359,-169.496"/>
<polygon fill="midnightblue" stroke="midnightblue" points="398.628,-171.697 407.26,-177.84 404.343,-167.655 398.628,-171.697"/>
</g>
<!-- Node18 -->
<g id="node18" class="node"><title>Node18</title>
<g id="a_node18"><a xlink:href="file__system_8cpp.html#acb48f4675dcd897962719fcc704fa980" target="_top" xlink:title="folder_part">
<polygon fill="white" stroke="black" points="520.096,-39 520.096,-59 583.904,-59 583.904,-39 520.096,-39"/>
<text text-anchor="middle" x="552" y="-45" font-family="Helvetica,sans-Serif" font-size="10.00">folder_part</text>
</a>
</g>
</g>
<!-- Node5&#45;&gt;Node18 -->
<g id="edge25" class="edge"><title>Node5&#45;&gt;Node18</title>
<path fill="none" stroke="midnightblue" d="M319.35,-64.7585C376.788,-60.8512 460.381,-55.1646 509.872,-51.7978"/>
<polygon fill="midnightblue" stroke="midnightblue" points="510.154,-55.2868 519.893,-51.1161 509.679,-48.303 510.154,-55.2868"/>
</g>
<!-- Node19 -->
<g id="node19" class="node"><title>Node19</title>
<g id="a_node19"><a xlink:href="file__system_8cpp.html#acf89fa1738d4f789e4cc5b9c3c3bec72" target="_top" xlink:title="filename_part">
<polygon fill="white" stroke="black" points="376.705,-78 376.705,-98 453.295,-98 453.295,-78 376.705,-78"/>
<text text-anchor="middle" x="415" y="-84" font-family="Helvetica,sans-Serif" font-size="10.00">filename_part</text>
</a>
</g>
</g>
<!-- Node5&#45;&gt;Node19 -->
<g id="edge27" class="edge"><title>Node5&#45;&gt;Node19</title>
<path fill="none" stroke="midnightblue" d="M319.502,-76.5639C335.204,-78.4642 351.798,-80.4724 366.624,-82.2666"/>
<polygon fill="midnightblue" stroke="midnightblue" points="366.226,-85.7439 376.574,-83.4707 367.067,-78.7946 366.226,-85.7439"/>
</g>
<!-- Node7 -->
<g id="node7" class="node"><title>Node7</title>
<g id="a_node7"><a xlink:href="file__system_8cpp.html#a99e06c76afffe1f1d77f01c905b1a5fd" target="_top" xlink:title="is_separator">
<polygon fill="white" stroke="black" points="891.485,-78 891.485,-98 962.515,-98 962.515,-78 891.485,-78"/>
<text text-anchor="middle" x="927" y="-84" font-family="Helvetica,sans-Serif" font-size="10.00">is_separator</text>
</a>
</g>
</g>
<!-- Node6&#45;&gt;Node7 -->
<g id="edge6" class="edge"><title>Node6&#45;&gt;Node7</title>
<path fill="none" stroke="midnightblue" d="M593.699,-15.0765C650.667,-22.6353 757.176,-38.4222 846,-61 860.633,-64.7195 876.441,-69.8168 890.111,-74.581"/>
<polygon fill="midnightblue" stroke="midnightblue" points="889.044,-77.9162 899.639,-77.9667 891.388,-71.3203 889.044,-77.9162"/>
</g>
<!-- Node9 -->
<g id="node9" class="node"><title>Node9</title>
<g id="a_node9"><a xlink:href="file__system_8cpp.html#a0a5c33c34c3c47d4e15e955b7ac25681" target="_top" xlink:title="relative_path">
<polygon fill="white" stroke="black" points="515.37,-261 515.37,-281 588.63,-281 588.63,-261 515.37,-261"/>
<text text-anchor="middle" x="552" y="-267" font-family="Helvetica,sans-Serif" font-size="10.00">relative_path</text>
</a>
</g>
</g>
<!-- Node8&#45;&gt;Node9 -->
<g id="edge8" class="edge"><title>Node8&#45;&gt;Node9</title>
<path fill="none" stroke="midnightblue" d="M432.284,-198.012C455.596,-212.344 498.681,-238.833 526.036,-255.651"/>
<polygon fill="midnightblue" stroke="midnightblue" points="524.306,-258.697 534.658,-260.953 527.972,-252.734 524.306,-258.697"/>
</g>
<!-- Node10 -->
<g id="node10" class="node"><title>Node10</title>
<g id="a_node10"><a xlink:href="classfile__specification.html#aefefc9da1b64f7ed66a436750a88ffa2" target="_top" xlink:title="file_specification\l::initialise_folder">
<polygon fill="white" stroke="black" points="756.313,-284 756.313,-316 845.687,-316 845.687,-284 756.313,-284"/>
<text text-anchor="start" x="764.313" y="-302" font-family="Helvetica,sans-Serif" font-size="10.00">file_specification</text>
<text text-anchor="middle" x="801" y="-290" font-family="Helvetica,sans-Serif" font-size="10.00">::initialise_folder</text>
</a>
</g>
</g>
<!-- Node9&#45;&gt;Node10 -->
<g id="edge9" class="edge"><title>Node9&#45;&gt;Node10</title>
<path fill="none" stroke="midnightblue" d="M588.652,-275.186C629.85,-280.023 698.089,-288.035 745.851,-293.642"/>
<polygon fill="midnightblue" stroke="midnightblue" points="745.675,-297.146 756.015,-294.836 746.492,-290.194 745.675,-297.146"/>
</g>
<!-- Node12 -->
<g id="node12" class="node"><title>Node12</title>
<g id="a_node12"><a xlink:href="classfile__specification.html#a18e9d7a9b9dd1214d09ab5e843ea7806" target="_top" xlink:title="file_specification\l::relative">
<polygon fill="white" stroke="black" points="882.313,-329 882.313,-361 971.687,-361 971.687,-329 882.313,-329"/>
<text text-anchor="start" x="890.313" y="-347" font-family="Helvetica,sans-Serif" font-size="10.00">file_specification</text>
<text text-anchor="middle" x="927" y="-335" font-family="Helvetica,sans-Serif" font-size="10.00">::relative</text>
</a>
</g>
</g>
<!-- Node9&#45;&gt;Node12 -->
<g id="edge12" class="edge"><title>Node9&#45;&gt;Node12</title>
<path fill="none" stroke="midnightblue" d="M557.58,-281.05C567.437,-301.289 592.822,-346.514 630,-364 708.019,-400.694 810.598,-381.263 872.239,-363.426"/>
<polygon fill="midnightblue" stroke="midnightblue" points="873.56,-366.685 882.142,-360.472 871.559,-359.977 873.56,-366.685"/>
</g>
<!-- Node13 -->
<g id="node13" class="node"><title>Node13</title>
<g id="a_node13"><a xlink:href="classfile__specification.html#a1c51930e39fad4d827a81b5b12a72752" target="_top" xlink:title="file_specification\l::make_absolute">
<polygon fill="white" stroke="black" points="630.311,-233 630.311,-265 719.689,-265 719.689,-233 630.311,-233"/>
<text text-anchor="start" x="638.311" y="-251" font-family="Helvetica,sans-Serif" font-size="10.00">file_specification</text>
<text text-anchor="middle" x="675" y="-239" font-family="Helvetica,sans-Serif" font-size="10.00">::make_absolute</text>
</a>
</g>
</g>
<!-- Node9&#45;&gt;Node13 -->
<g id="edge13" class="edge"><title>Node9&#45;&gt;Node13</title>
<path fill="none" stroke="midnightblue" d="M588.65,-264.518C598.476,-262.732 609.36,-260.753 619.975,-258.823"/>
<polygon fill="midnightblue" stroke="midnightblue" points="620.815,-262.227 630.027,-256.995 619.563,-255.34 620.815,-262.227"/>
</g>
<!-- Node15 -->
<g id="node15" class="node"><title>Node15</title>
<g id="a_node15"><a xlink:href="classfile__specification.html#a37f966146802536ffdb2f154e3df928f" target="_top" xlink:title="file_specification\l::make_relative">
<polygon fill="white" stroke="black" points="630.313,-323 630.313,-355 719.687,-355 719.687,-323 630.313,-323"/>
<text text-anchor="start" x="638.313" y="-341" font-family="Helvetica,sans-Serif" font-size="10.00">file_specification</text>
<text text-anchor="middle" x="675" y="-329" font-family="Helvetica,sans-Serif" font-size="10.00">::make_relative</text>
</a>
</g>
</g>
<!-- Node9&#45;&gt;Node15 -->
<g id="edge17" class="edge"><title>Node9&#45;&gt;Node15</title>
<path fill="none" stroke="midnightblue" d="M570.854,-281.034C588.072,-290.71 614.666,-305.655 636.537,-317.947"/>
<polygon fill="midnightblue" stroke="midnightblue" points="634.84,-321.007 645.272,-322.855 638.269,-314.905 634.84,-321.007"/>
</g>
<!-- Node16 -->
<g id="node16" class="node"><title>Node16</title>
<g id="a_node16"><a xlink:href="classfile__specification.html#a518bc2d13c74b0e00131c87fdd294f2b" target="_top" xlink:title="file_specification\l::image">
<polygon fill="white" stroke="black" points="630.313,-182 630.313,-214 719.687,-214 719.687,-182 630.313,-182"/>
<text text-anchor="start" x="638.313" y="-200" font-family="Helvetica,sans-Serif" font-size="10.00">file_specification</text>
<text text-anchor="middle" x="675" y="-188" font-family="Helvetica,sans-Serif" font-size="10.00">::image</text>
</a>
</g>
</g>
<!-- Node9&#45;&gt;Node16 -->
<g id="edge20" class="edge"><title>Node9&#45;&gt;Node16</title>
<path fill="none" stroke="midnightblue" d="M568.811,-260.881C584.296,-251.033 608.615,-235.734 630,-223 631.963,-221.831 633.981,-220.642 636.022,-219.449"/>
<polygon fill="midnightblue" stroke="midnightblue" points="638.124,-222.276 645.028,-214.239 634.619,-216.217 638.124,-222.276"/>
</g>
<!-- Node10&#45;&gt;Node7 -->
<g id="edge10" class="edge"><title>Node10&#45;&gt;Node7</title>
<path fill="none" stroke="midnightblue" d="M835.04,-283.701C839.047,-280.833 842.835,-277.597 846,-274 890.405,-223.539 913.108,-144.686 921.755,-108.01"/>
<polygon fill="midnightblue" stroke="midnightblue" points="925.213,-108.584 923.995,-98.0596 918.384,-107.046 925.213,-108.584"/>
</g>
<!-- Node11 -->
<g id="node11" class="node"><title>Node11</title>
<g id="a_node11"><a xlink:href="classfile__specification.html#ab6e2c3cc492528550d2c4021d3a1c225" target="_top" xlink:title="file_specification\l::path">
<polygon fill="white" stroke="black" points="882.313,-278 882.313,-310 971.687,-310 971.687,-278 882.313,-278"/>
<text text-anchor="start" x="890.313" y="-296" font-family="Helvetica,sans-Serif" font-size="10.00">file_specification</text>
<text text-anchor="middle" x="927" y="-284" font-family="Helvetica,sans-Serif" font-size="10.00">::path</text>
</a>
</g>
</g>
<!-- Node10&#45;&gt;Node11 -->
<g id="edge11" class="edge"><title>Node10&#45;&gt;Node11</title>
<path fill="none" stroke="midnightblue" d="M845.718,-297.885C854.238,-297.472 863.263,-297.036 872.068,-296.61"/>
<polygon fill="midnightblue" stroke="midnightblue" points="872.44,-300.096 882.259,-296.116 872.102,-293.104 872.44,-300.096"/>
</g>
<!-- Node13&#45;&gt;Node10 -->
<g id="edge16" class="edge"><title>Node13&#45;&gt;Node10</title>
<path fill="none" stroke="midnightblue" d="M715.234,-265.137C726.768,-269.88 739.521,-275.126 751.558,-280.076"/>
<polygon fill="midnightblue" stroke="midnightblue" points="750.441,-283.401 761.021,-283.968 753.104,-276.928 750.441,-283.401"/>
</g>
<!-- Node14 -->
<g id="node14" class="node"><title>Node14</title>
<g id="a_node14"><a xlink:href="classfile__specification.html#a5b8f1026354ff32bfc183da3f38f5ce7" target="_top" xlink:title="file_specification\l::absolute">
<polygon fill="white" stroke="black" points="756.313,-233 756.313,-265 845.687,-265 845.687,-233 756.313,-233"/>
<text text-anchor="start" x="764.313" y="-251" font-family="Helvetica,sans-Serif" font-size="10.00">file_specification</text>
<text text-anchor="middle" x="801" y="-239" font-family="Helvetica,sans-Serif" font-size="10.00">::absolute</text>
</a>
</g>
</g>
<!-- Node13&#45;&gt;Node14 -->
<g id="edge14" class="edge"><title>Node13&#45;&gt;Node14</title>
<path fill="none" stroke="midnightblue" d="M719.718,-249C728.238,-249 737.263,-249 746.068,-249"/>
<polygon fill="midnightblue" stroke="midnightblue" points="746.259,-252.5 756.259,-249 746.259,-245.5 746.259,-252.5"/>
</g>
<!-- Node14&#45;&gt;Node12 -->
<g id="edge15" class="edge"><title>Node14&#45;&gt;Node12</title>
<path fill="none" stroke="midnightblue" d="M833.751,-265.087C838.046,-267.814 842.257,-270.806 846,-274 865.484,-290.625 862.658,-302.21 882,-319 883.508,-320.309 885.09,-321.588 886.723,-322.834"/>
<polygon fill="midnightblue" stroke="midnightblue" points="884.987,-325.891 895.188,-328.752 888.998,-320.154 884.987,-325.891"/>
</g>
<!-- Node15&#45;&gt;Node10 -->
<g id="edge19" class="edge"><title>Node15&#45;&gt;Node10</title>
<path fill="none" stroke="midnightblue" d="M719.718,-325.25C728.423,-322.512 737.656,-319.608 746.642,-316.782"/>
<polygon fill="midnightblue" stroke="midnightblue" points="747.77,-320.096 756.259,-313.757 745.67,-313.419 747.77,-320.096"/>
</g>
<!-- Node15&#45;&gt;Node12 -->
<g id="edge18" class="edge"><title>Node15&#45;&gt;Node12</title>
<path fill="none" stroke="midnightblue" d="M719.833,-340.052C762.186,-341.068 826.441,-342.611 871.945,-343.703"/>
<polygon fill="midnightblue" stroke="midnightblue" points="872.136,-347.208 882.218,-343.949 872.304,-340.21 872.136,-347.208"/>
</g>
<!-- Node16&#45;&gt;Node7 -->
<g id="edge24" class="edge"><title>Node16&#45;&gt;Node7</title>
<path fill="none" stroke="midnightblue" d="M697.148,-181.764C712.767,-170.34 734.892,-155.309 756,-145 796.86,-125.044 846.443,-109.303 881.489,-99.4645"/>
<polygon fill="midnightblue" stroke="midnightblue" points="882.711,-102.758 891.42,-96.7251 880.849,-96.0103 882.711,-102.758"/>
</g>
<!-- Node16&#45;&gt;Node12 -->
<g id="edge23" class="edge"><title>Node16&#45;&gt;Node12</title>
<path fill="none" stroke="midnightblue" d="M719.903,-192.926C757.399,-191.049 810.714,-194.523 846,-223 881.461,-251.618 852.717,-284.087 882,-319 882.962,-320.147 883.989,-321.256 885.067,-322.327"/>
<polygon fill="midnightblue" stroke="midnightblue" points="882.896,-325.074 892.799,-328.839 887.405,-319.72 882.896,-325.074"/>
</g>
<!-- Node16&#45;&gt;Node14 -->
<g id="edge21" class="edge"><title>Node16&#45;&gt;Node14</title>
<path fill="none" stroke="midnightblue" d="M715.234,-214.137C726.768,-218.88 739.521,-224.126 751.558,-229.076"/>
<polygon fill="midnightblue" stroke="midnightblue" points="750.441,-232.401 761.021,-232.968 753.104,-225.928 750.441,-232.401"/>
</g>
<!-- Node17 -->
<g id="node17" class="node"><title>Node17</title>
<g id="a_node17"><a xlink:href="string__utilities_8hpp.html#a657118c43fe44a8454311075655ac9d4" target="_top" xlink:title="vector_to_string">
<polygon fill="white" stroke="black" points="757.426,-155 757.426,-175 844.574,-175 844.574,-155 757.426,-155"/>
<text text-anchor="middle" x="801" y="-161" font-family="Helvetica,sans-Serif" font-size="10.00">vector_to_string</text>
</a>
</g>
</g>
<!-- Node16&#45;&gt;Node17 -->
<g id="edge22" class="edge"><title>Node16&#45;&gt;Node17</title>
<path fill="none" stroke="midnightblue" d="M719.718,-186.365C730.18,-183.581 741.405,-180.594 752.048,-177.762"/>
<polygon fill="midnightblue" stroke="midnightblue" points="753.265,-181.059 762.028,-175.105 751.465,-174.295 753.265,-181.059"/>
</g>
<!-- Node18&#45;&gt;Node7 -->
<g id="edge26" class="edge"><title>Node18&#45;&gt;Node7</title>
<path fill="none" stroke="midnightblue" d="M584.318,-50.7632C638.022,-53.9897 751.073,-61.6685 846,-74 857.572,-75.5032 870.022,-77.4976 881.574,-79.5085"/>
<polygon fill="midnightblue" stroke="midnightblue" points="880.99,-82.9596 891.449,-81.268 882.218,-76.0681 880.99,-82.9596"/>
</g>
<!-- Node19&#45;&gt;Node7 -->
<g id="edge28" class="edge"><title>Node19&#45;&gt;Node7</title>
<path fill="none" stroke="midnightblue" d="M453.502,-88C545.481,-88 781.97,-88 881.16,-88"/>
<polygon fill="midnightblue" stroke="midnightblue" points="881.162,-91.5001 891.162,-88 881.162,-84.5001 881.162,-91.5001"/>
</g>
</g>
</svg>
