<?xml version="1.0" encoding="UTF-8" standalone="no"?>
<!DOCTYPE svg PUBLIC "-//W3C//DTD SVG 1.1//EN"
 "http://www.w3.org/Graphics/SVG/1.1/DTD/svg11.dtd">
<!-- Generated by graphviz version 2.32.0 (20130916.1925)
 -->
<!-- Title: filespec_to_relative_path Pages: 1 -->
<svg width="788pt" height="394pt"
 viewBox="0.00 0.00 788.00 393.81" xmlns="http://www.w3.org/2000/svg" xmlns:xlink="http://www.w3.org/1999/xlink">
<g id="graph0" class="graph" transform="scale(1 1) rotate(0) translate(4 389.811)">
<title>filespec_to_relative_path</title>
<polygon fill="white" stroke="white" points="-4,5 -4,-389.811 785,-389.811 785,5 -4,5"/>
<!-- Node1 -->
<g id="node1" class="node"><title>Node1</title>
<polygon fill="#bfbfbf" stroke="black" points="0.685059,-305.811 0.685059,-325.811 127.315,-325.811 127.315,-305.811 0.685059,-305.811"/>
<text text-anchor="middle" x="64" y="-311.811" font-family="Helvetica,sans-Serif" font-size="10.00">filespec_to_relative_path</text>
</g>
<!-- Node2 -->
<g id="node2" class="node"><title>Node2</title>
<g id="a_node2"><a xlink:href="file__system_8cpp.html#a62475ca973dfe0094c00d60286c7c286" target="_top" xlink:title="create_filespec">
<polygon fill="white" stroke="black" points="318.37,-364.811 318.37,-384.811 401.63,-384.811 401.63,-364.811 318.37,-364.811"/>
<text text-anchor="middle" x="360" y="-370.811" font-family="Helvetica,sans-Serif" font-size="10.00">create_filespec</text>
</a>
</g>
</g>
<!-- Node1&#45;&gt;Node2 -->
<g id="edge1" class="edge"><title>Node1&#45;&gt;Node2</title>
<path fill="none" stroke="midnightblue" d="M101.986,-325.849C120.526,-330.702 143.368,-336.413 164,-340.811 212.697,-351.189 268.734,-360.711 308.205,-367.021"/>
<polygon fill="midnightblue" stroke="midnightblue" points="307.695,-370.484 318.12,-368.594 308.792,-363.57 307.695,-370.484"/>
</g>
<!-- Node4 -->
<g id="node4" class="node"><title>Node4</title>
<g id="a_node4"><a xlink:href="file__system_8cpp.html#acf89fa1738d4f789e4cc5b9c3c3bec72" target="_top" xlink:title="filename_part">
<polygon fill="white" stroke="black" points="321.705,-325.811 321.705,-345.811 398.295,-345.811 398.295,-325.811 321.705,-325.811"/>
<text text-anchor="middle" x="360" y="-331.811" font-family="Helvetica,sans-Serif" font-size="10.00">filename_part</text>
</a>
</g>
</g>
<!-- Node1&#45;&gt;Node4 -->
<g id="edge3" class="edge"><title>Node1&#45;&gt;Node4</title>
<path fill="none" stroke="midnightblue" d="M127.35,-320.052C182.27,-323.788 261.102,-329.151 311.172,-332.557"/>
<polygon fill="midnightblue" stroke="midnightblue" points="311.186,-336.066 321.401,-333.253 311.661,-329.082 311.186,-336.066"/>
</g>
<!-- Node5 -->
<g id="node5" class="node"><title>Node5</title>
<g id="a_node5"><a xlink:href="file__system_8cpp.html#acb48f4675dcd897962719fcc704fa980" target="_top" xlink:title="folder_part">
<polygon fill="white" stroke="black" points="191.096,-286.811 191.096,-306.811 254.904,-306.811 254.904,-286.811 191.096,-286.811"/>
<text text-anchor="middle" x="223" y="-292.811" font-family="Helvetica,sans-Serif" font-size="10.00">folder_part</text>
</a>
</g>
</g>
<!-- Node1&#45;&gt;Node5 -->
<g id="edge5" class="edge"><title>Node1&#45;&gt;Node5</title>
<path fill="none" stroke="midnightblue" d="M127.502,-308.247C145.319,-306.09 164.285,-303.795 180.513,-301.831"/>
<polygon fill="midnightblue" stroke="midnightblue" points="181.236,-305.269 190.743,-300.593 180.395,-298.32 181.236,-305.269"/>
</g>
<!-- Node6 -->
<g id="node6" class="node"><title>Node6</title>
<g id="a_node6"><a xlink:href="file__system_8cpp.html#a154091f28159afef5c72b12cee64a9a0" target="_top" xlink:title="folder_to_relative_path">
<polygon fill="white" stroke="black" points="164.131,-164.811 164.131,-184.811 281.869,-184.811 281.869,-164.811 164.131,-164.811"/>
<text text-anchor="middle" x="223" y="-170.811" font-family="Helvetica,sans-Serif" font-size="10.00">folder_to_relative_path</text>
</a>
</g>
</g>
<!-- Node1&#45;&gt;Node6 -->
<g id="edge7" class="edge"><title>Node1&#45;&gt;Node6</title>
<path fill="none" stroke="midnightblue" d="M76.2911,-305.67C102.996,-281.687 170.264,-221.274 203.218,-191.679"/>
<polygon fill="midnightblue" stroke="midnightblue" points="205.71,-194.145 210.811,-184.859 201.033,-188.937 205.71,-194.145"/>
</g>
<!-- Node3 -->
<g id="node3" class="node"><title>Node3</title>
<g id="a_node3"><a xlink:href="file__system_8cpp.html#a99e06c76afffe1f1d77f01c905b1a5fd" target="_top" xlink:title="is_separator">
<polygon fill="white" stroke="black" points="699.485,-286.811 699.485,-306.811 770.515,-306.811 770.515,-286.811 699.485,-286.811"/>
<text text-anchor="middle" x="735" y="-292.811" font-family="Helvetica,sans-Serif" font-size="10.00">is_separator</text>
</a>
</g>
</g>
<!-- Node2&#45;&gt;Node3 -->
<g id="edge2" class="edge"><title>Node2&#45;&gt;Node3</title>
<path fill="none" stroke="midnightblue" d="M401.933,-371.63C459.175,-366.485 566.004,-354.336 654,-329.811 671.096,-325.046 689.448,-317.652 704.257,-311.07"/>
<polygon fill="midnightblue" stroke="midnightblue" points="705.775,-314.224 713.428,-306.898 702.876,-307.853 705.775,-314.224"/>
</g>
<!-- Node4&#45;&gt;Node3 -->
<g id="edge4" class="edge"><title>Node4&#45;&gt;Node3</title>
<path fill="none" stroke="midnightblue" d="M398.577,-333.667C454.438,-330.241 562.617,-322.682 654,-310.811 665.572,-309.307 678.022,-307.313 689.574,-305.302"/>
<polygon fill="midnightblue" stroke="midnightblue" points="690.218,-308.742 699.449,-303.543 688.99,-301.851 690.218,-308.742"/>
</g>
<!-- Node5&#45;&gt;Node3 -->
<g id="edge6" class="edge"><title>Node5&#45;&gt;Node3</title>
<path fill="none" stroke="midnightblue" d="M255.135,-296.811C342.027,-296.811 587.431,-296.811 689.06,-296.811"/>
<polygon fill="midnightblue" stroke="midnightblue" points="689.297,-300.311 699.297,-296.811 689.297,-293.311 689.297,-300.311"/>
</g>
<!-- Node7 -->
<g id="node7" class="node"><title>Node7</title>
<g id="a_node7"><a xlink:href="file__system_8cpp.html#a0a5c33c34c3c47d4e15e955b7ac25681" target="_top" xlink:title="relative_path">
<polygon fill="white" stroke="black" points="323.37,-103.811 323.37,-123.811 396.63,-123.811 396.63,-103.811 323.37,-103.811"/>
<text text-anchor="middle" x="360" y="-109.811" font-family="Helvetica,sans-Serif" font-size="10.00">relative_path</text>
</a>
</g>
</g>
<!-- Node6&#45;&gt;Node7 -->
<g id="edge8" class="edge"><title>Node6&#45;&gt;Node7</title>
<path fill="none" stroke="midnightblue" d="M246.293,-164.738C268.375,-154.76 302.403,-139.384 327.294,-128.137"/>
<polygon fill="midnightblue" stroke="midnightblue" points="329.003,-131.206 336.674,-123.898 326.12,-124.827 329.003,-131.206"/>
</g>
<!-- Node8 -->
<g id="node8" class="node"><title>Node8</title>
<g id="a_node8"><a xlink:href="classfile__specification.html#aefefc9da1b64f7ed66a436750a88ffa2" target="_top" xlink:title="file_specification\l::initialise_folder">
<polygon fill="white" stroke="black" points="564.313,-69.8106 564.313,-101.811 653.687,-101.811 653.687,-69.8106 564.313,-69.8106"/>
<text text-anchor="start" x="572.313" y="-87.8106" font-family="Helvetica,sans-Serif" font-size="10.00">file_specification</text>
<text text-anchor="middle" x="609" y="-75.8106" font-family="Helvetica,sans-Serif" font-size="10.00">::initialise_folder</text>
</a>
</g>
</g>
<!-- Node7&#45;&gt;Node8 -->
<g id="edge9" class="edge"><title>Node7&#45;&gt;Node8</title>
<path fill="none" stroke="midnightblue" d="M396.652,-109.769C437.85,-105.099 506.089,-97.3632 553.851,-91.9489"/>
<polygon fill="midnightblue" stroke="midnightblue" points="554.473,-95.4009 564.015,-90.7967 553.685,-88.4454 554.473,-95.4009"/>
</g>
<!-- Node10 -->
<g id="node10" class="node"><title>Node10</title>
<g id="a_node10"><a xlink:href="classfile__specification.html#a18e9d7a9b9dd1214d09ab5e843ea7806" target="_top" xlink:title="file_specification\l::relative">
<polygon fill="white" stroke="black" points="690.313,-24.8106 690.313,-56.8106 779.687,-56.8106 779.687,-24.8106 690.313,-24.8106"/>
<text text-anchor="start" x="698.313" y="-42.8106" font-family="Helvetica,sans-Serif" font-size="10.00">file_specification</text>
<text text-anchor="middle" x="735" y="-30.8106" font-family="Helvetica,sans-Serif" font-size="10.00">::relative</text>
</a>
</g>
</g>
<!-- Node7&#45;&gt;Node10 -->
<g id="edge12" class="edge"><title>Node7&#45;&gt;Node10</title>
<path fill="none" stroke="midnightblue" d="M365.58,-103.761C375.437,-83.5218 400.822,-38.2961 438,-20.8106 516.036,15.8912 618.61,-3.96931 680.245,-22.1052"/>
<polygon fill="midnightblue" stroke="midnightblue" points="679.562,-25.5553 690.147,-25.108 681.593,-18.8565 679.562,-25.5553"/>
</g>
<!-- Node11 -->
<g id="node11" class="node"><title>Node11</title>
<g id="a_node11"><a xlink:href="classfile__specification.html#a1c51930e39fad4d827a81b5b12a72752" target="_top" xlink:title="file_specification\l::make_absolute">
<polygon fill="white" stroke="black" points="438.311,-120.811 438.311,-152.811 527.689,-152.811 527.689,-120.811 438.311,-120.811"/>
<text text-anchor="start" x="446.311" y="-138.811" font-family="Helvetica,sans-Serif" font-size="10.00">file_specification</text>
<text text-anchor="middle" x="483" y="-126.811" font-family="Helvetica,sans-Serif" font-size="10.00">::make_absolute</text>
</a>
</g>
</g>
<!-- Node7&#45;&gt;Node11 -->
<g id="edge13" class="edge"><title>Node7&#45;&gt;Node11</title>
<path fill="none" stroke="midnightblue" d="M396.65,-120.587C406.476,-122.455 417.36,-124.524 427.975,-126.541"/>
<polygon fill="midnightblue" stroke="midnightblue" points="427.55,-130.023 438.027,-128.452 428.857,-123.146 427.55,-130.023"/>
</g>
<!-- Node13 -->
<g id="node13" class="node"><title>Node13</title>
<g id="a_node13"><a xlink:href="classfile__specification.html#a37f966146802536ffdb2f154e3df928f" target="_top" xlink:title="file_specification\l::make_relative">
<polygon fill="white" stroke="black" points="438.313,-30.8106 438.313,-62.8106 527.687,-62.8106 527.687,-30.8106 438.313,-30.8106"/>
<text text-anchor="start" x="446.313" y="-48.8106" font-family="Helvetica,sans-Serif" font-size="10.00">file_specification</text>
<text text-anchor="middle" x="483" y="-36.8106" font-family="Helvetica,sans-Serif" font-size="10.00">::make_relative</text>
</a>
</g>
</g>
<!-- Node7&#45;&gt;Node13 -->
<g id="edge17" class="edge"><title>Node7&#45;&gt;Node13</title>
<path fill="none" stroke="midnightblue" d="M379.115,-103.78C396.19,-94.3251 422.318,-79.8578 443.97,-67.8686"/>
<polygon fill="midnightblue" stroke="midnightblue" points="445.883,-70.8101 452.936,-62.904 442.492,-64.6863 445.883,-70.8101"/>
</g>
<!-- Node14 -->
<g id="node14" class="node"><title>Node14</title>
<g id="a_node14"><a xlink:href="classfile__specification.html#a518bc2d13c74b0e00131c87fdd294f2b" target="_top" xlink:title="file_specification\l::image">
<polygon fill="white" stroke="black" points="438.313,-171.811 438.313,-203.811 527.687,-203.811 527.687,-171.811 438.313,-171.811"/>
<text text-anchor="start" x="446.313" y="-189.811" font-family="Helvetica,sans-Serif" font-size="10.00">file_specification</text>
<text text-anchor="middle" x="483" y="-177.811" font-family="Helvetica,sans-Serif" font-size="10.00">::image</text>
</a>
</g>
</g>
<!-- Node7&#45;&gt;Node14 -->
<g id="edge20" class="edge"><title>Node7&#45;&gt;Node14</title>
<path fill="none" stroke="midnightblue" d="M376.859,-123.85C392.38,-133.638 416.724,-148.895 438,-161.811 440.489,-163.321 443.062,-164.872 445.658,-166.427"/>
<polygon fill="midnightblue" stroke="midnightblue" points="444.096,-169.571 454.479,-171.683 447.68,-163.558 444.096,-169.571"/>
</g>
<!-- Node8&#45;&gt;Node3 -->
<g id="edge10" class="edge"><title>Node8&#45;&gt;Node3</title>
<path fill="none" stroke="midnightblue" d="M643.929,-101.964C647.606,-104.589 651.07,-107.537 654,-110.811 698.832,-160.892 721.324,-239.932 729.837,-276.728"/>
<polygon fill="midnightblue" stroke="midnightblue" points="726.467,-277.701 732.039,-286.712 733.303,-276.193 726.467,-277.701"/>
</g>
<!-- Node9 -->
<g id="node9" class="node"><title>Node9</title>
<g id="a_node9"><a xlink:href="classfile__specification.html#ab6e2c3cc492528550d2c4021d3a1c225" target="_top" xlink:title="file_specification\l::path">
<polygon fill="white" stroke="black" points="690.313,-75.8106 690.313,-107.811 779.687,-107.811 779.687,-75.8106 690.313,-75.8106"/>
<text text-anchor="start" x="698.313" y="-93.8106" font-family="Helvetica,sans-Serif" font-size="10.00">file_specification</text>
<text text-anchor="middle" x="735" y="-81.8106" font-family="Helvetica,sans-Serif" font-size="10.00">::path</text>
</a>
</g>
</g>
<!-- Node8&#45;&gt;Node9 -->
<g id="edge11" class="edge"><title>Node8&#45;&gt;Node9</title>
<path fill="none" stroke="midnightblue" d="M653.718,-87.9259C662.238,-88.3382 671.263,-88.7749 680.068,-89.2009"/>
<polygon fill="midnightblue" stroke="midnightblue" points="680.102,-92.7066 690.259,-89.6941 680.44,-85.7148 680.102,-92.7066"/>
</g>
<!-- Node11&#45;&gt;Node8 -->
<g id="edge16" class="edge"><title>Node11&#45;&gt;Node8</title>
<path fill="none" stroke="midnightblue" d="M523.234,-120.674C534.768,-115.93 547.521,-110.685 559.558,-105.734"/>
<polygon fill="midnightblue" stroke="midnightblue" points="561.104,-108.883 569.021,-101.842 558.441,-102.409 561.104,-108.883"/>
</g>
<!-- Node12 -->
<g id="node12" class="node"><title>Node12</title>
<g id="a_node12"><a xlink:href="classfile__specification.html#a5b8f1026354ff32bfc183da3f38f5ce7" target="_top" xlink:title="file_specification\l::absolute">
<polygon fill="white" stroke="black" points="564.313,-120.811 564.313,-152.811 653.687,-152.811 653.687,-120.811 564.313,-120.811"/>
<text text-anchor="start" x="572.313" y="-138.811" font-family="Helvetica,sans-Serif" font-size="10.00">file_specification</text>
<text text-anchor="middle" x="609" y="-126.811" font-family="Helvetica,sans-Serif" font-size="10.00">::absolute</text>
</a>
</g>
</g>
<!-- Node11&#45;&gt;Node12 -->
<g id="edge14" class="edge"><title>Node11&#45;&gt;Node12</title>
<path fill="none" stroke="midnightblue" d="M527.718,-136.811C536.238,-136.811 545.263,-136.811 554.068,-136.811"/>
<polygon fill="midnightblue" stroke="midnightblue" points="554.259,-140.311 564.259,-136.811 554.259,-133.311 554.259,-140.311"/>
</g>
<!-- Node12&#45;&gt;Node10 -->
<g id="edge15" class="edge"><title>Node12&#45;&gt;Node10</title>
<path fill="none" stroke="midnightblue" d="M640.812,-120.563C645.427,-117.583 649.98,-114.3 654,-110.811 673.342,-94.0208 670.516,-82.4351 690,-65.8106 691.287,-64.7128 692.628,-63.6388 694.01,-62.5911"/>
<polygon fill="midnightblue" stroke="midnightblue" points="696.012,-65.4623 702.249,-56.8976 692.032,-59.7036 696.012,-65.4623"/>
</g>
<!-- Node13&#45;&gt;Node8 -->
<g id="edge19" class="edge"><title>Node13&#45;&gt;Node8</title>
<path fill="none" stroke="midnightblue" d="M527.718,-60.5605C536.423,-63.2984 545.656,-66.2023 554.642,-69.0286"/>
<polygon fill="midnightblue" stroke="midnightblue" points="553.67,-72.3918 564.259,-72.0533 555.77,-65.7142 553.67,-72.3918"/>
</g>
<!-- Node13&#45;&gt;Node10 -->
<g id="edge18" class="edge"><title>Node13&#45;&gt;Node10</title>
<path fill="none" stroke="midnightblue" d="M527.833,-45.7586C570.186,-44.7421 634.441,-43.2 679.945,-42.1079"/>
<polygon fill="midnightblue" stroke="midnightblue" points="680.304,-45.6004 690.218,-41.8613 680.136,-38.6024 680.304,-45.6004"/>
</g>
<!-- Node14&#45;&gt;Node3 -->
<g id="edge24" class="edge"><title>Node14&#45;&gt;Node3</title>
<path fill="none" stroke="midnightblue" d="M508.588,-203.829C524.098,-213.533 544.766,-225.745 564,-234.811 606.029,-254.62 656.237,-272.234 691.145,-283.578"/>
<polygon fill="midnightblue" stroke="midnightblue" points="690.422,-287.022 701.013,-286.75 692.564,-280.358 690.422,-287.022"/>
</g>
<!-- Node14&#45;&gt;Node10 -->
<g id="edge23" class="edge"><title>Node14&#45;&gt;Node10</title>
<path fill="none" stroke="midnightblue" d="M521.245,-203.847C558.713,-217.217 616.209,-229.844 654,-200.811 703.242,-162.979 652.058,-114.967 690,-65.8106 690.564,-65.0803 691.155,-64.3679 691.771,-63.673"/>
<polygon fill="midnightblue" stroke="midnightblue" points="694.16,-66.2309 699.164,-56.8919 689.429,-61.0724 694.16,-66.2309"/>
</g>
<!-- Node14&#45;&gt;Node12 -->
<g id="edge21" class="edge"><title>Node14&#45;&gt;Node12</title>
<path fill="none" stroke="midnightblue" d="M523.234,-171.674C534.768,-166.93 547.521,-161.685 559.558,-156.734"/>
<polygon fill="midnightblue" stroke="midnightblue" points="561.104,-159.883 569.021,-152.842 558.441,-153.409 561.104,-159.883"/>
</g>
<!-- Node15 -->
<g id="node15" class="node"><title>Node15</title>
<g id="a_node15"><a xlink:href="string__utilities_8hpp.html#a657118c43fe44a8454311075655ac9d4" target="_top" xlink:title="vector_to_string">
<polygon fill="white" stroke="black" points="565.426,-171.811 565.426,-191.811 652.574,-191.811 652.574,-171.811 565.426,-171.811"/>
<text text-anchor="middle" x="609" y="-177.811" font-family="Helvetica,sans-Serif" font-size="10.00">vector_to_string</text>
</a>
</g>
</g>
<!-- Node14&#45;&gt;Node15 -->
<g id="edge22" class="edge"><title>Node14&#45;&gt;Node15</title>
<path fill="none" stroke="midnightblue" d="M527.718,-185.695C536.533,-185.269 545.889,-184.816 554.983,-184.376"/>
<polygon fill="midnightblue" stroke="midnightblue" points="555.275,-187.866 565.094,-183.887 554.937,-180.874 555.275,-187.866"/>
</g>
</g>
</svg>
