<?xml version="1.0" encoding="UTF-8" standalone="no"?>
<!DOCTYPE svg PUBLIC "-//W3C//DTD SVG 1.1//EN"
 "http://www.w3.org/Graphics/SVG/1.1/DTD/svg11.dtd">
<!-- Generated by graphviz version 2.32.0 (20130916.1925)
 -->
<!-- Title: file_modified Pages: 1 -->
<!--zoomable 197 -->
<svg id="main" version="1.1" xmlns="http://www.w3.org/2000/svg" xmlns:xlink="http://www.w3.org/1999/xlink" xml:space="preserve" onload="init(evt)">
        <defs>
                <circle id="rim" cx="0" cy="0" r="7"/>
                <circle id="rim2" cx="0" cy="0" r="3.5"/>
                <g id="zoomPlus">
                        <use xlink:href="#rim" fill="#404040">
                                <set attributeName="fill" to="#808080" begin="zoomplus.mouseover" end="zoomplus.mouseout"/>
                        </use>
                        <path d="M-4,0h8M0,-4v8" fill="none" stroke="white" stroke-width="1.5" pointer-events="none"/>
                </g>
                <g id="zoomMin">
                        <use xlink:href="#rim" fill="#404040">
                                <set attributeName="fill" to="#808080" begin="zoomminus.mouseover" end="zoomminus.mouseout"/>
                        </use>
                        <path d="M-4,0h8" fill="none" stroke="white" stroke-width="1.5" pointer-events="none"/>
                </g>
                <g id="dirArrow">
                        <path fill="none" stroke="white" stroke-width="1.5" d="M0,-3.0v7 M-2.5,-0.5L0,-3.0L2.5,-0.5"/>
                </g>
               <g id="resetDef">
                       <use xlink:href="#rim2" fill="#404040">
                               <set attributeName="fill" to="#808080" begin="reset.mouseover" end="reset.mouseout"/>
                       </use>
               </g>
        </defs>

<script type="text/javascript">
var viewWidth = 1054;
var viewHeight = 197;
var sectionId = 'dynsection-15';
</script>
<script xlink:href="svgpan.js"/>
<svg id="graph" class="graph">
<g id="viewport">
<title>file_modified</title>
<polygon fill="white" stroke="white" points="-4,5 -4,-193 1051,-193 1051,5 -4,5"/>
<!-- Node1 -->
<g id="node1" class="node"><title>Node1</title>
<polygon fill="#bfbfbf" stroke="black" points="-0.0712891,-106 -0.0712891,-126 72.0713,-126 72.0713,-106 -0.0712891,-106"/>
<text text-anchor="middle" x="36" y="-112" font-family="Helvetica,sans-Serif" font-size="10.00">file_modified</text>
</g>
<!-- Node2 -->
<g id="node2" class="node"><title>Node2</title>
<g id="a_node2"><a xlink:href="classlm__unit.html#a1ad26d48fe292e950dd6aed7a12b3f01" target="_top" xlink:title="lm_unit::modified">
<polygon fill="white" stroke="black" points="108.205,-126 108.205,-146 199.795,-146 199.795,-126 108.205,-126"/>
<text text-anchor="middle" x="154" y="-132" font-family="Helvetica,sans-Serif" font-size="10.00">lm_unit::modified</text>
</a>
</g>
</g>
<!-- Node1&#45;&gt;Node2 -->
<g id="edge1" class="edge"><title>Node1&#45;&gt;Node2</title>
<path fill="none" stroke="midnightblue" d="M82.2449,-123.801C90.746,-125.267 99.6317,-126.799 108.122,-128.262"/>
<polygon fill="midnightblue" stroke="midnightblue" points="82.5679,-120.305 72.1186,-122.055 81.3785,-127.203 82.5679,-120.305"/>
</g>
<!-- Node3 -->
<g id="node3" class="node"><title>Node3</title>
<g id="a_node3"><a xlink:href="library__manager_8cpp.html#ab460c687a106dfb6833ae7269f3133d2" target="_top" xlink:title="out_of_date_chk">
<polygon fill="white" stroke="black" points="109.025,-87 109.025,-107 198.975,-107 198.975,-87 109.025,-87"/>
<text text-anchor="middle" x="154" y="-93" font-family="Helvetica,sans-Serif" font-size="10.00">out_of_date_chk</text>
</a>
</g>
</g>
<!-- Node1&#45;&gt;Node3 -->
<g id="edge2" class="edge"><title>Node1&#45;&gt;Node3</title>
<path fill="none" stroke="midnightblue" d="M82.202,-108.596C90.9974,-107.156 100.206,-105.647 108.963,-104.213"/>
<polygon fill="midnightblue" stroke="midnightblue" points="81.4214,-105.177 72.1186,-110.248 82.5529,-112.085 81.4214,-105.177"/>
</g>
<!-- Node4 -->
<g id="node4" class="node"><title>Node4</title>
<g id="a_node4"><a xlink:href="classlibrary__manager.html#a30ebb101e892462e966ee4b8a594d43a" target="_top" xlink:title="library_manager::out\l_of_date_reason">
<polygon fill="white" stroke="black" points="236.143,-81 236.143,-113 343.857,-113 343.857,-81 236.143,-81"/>
<text text-anchor="start" x="244.143" y="-99" font-family="Helvetica,sans-Serif" font-size="10.00">library_manager::out</text>
<text text-anchor="middle" x="290" y="-87" font-family="Helvetica,sans-Serif" font-size="10.00">_of_date_reason</text>
</a>
</g>
</g>
<!-- Node3&#45;&gt;Node4 -->
<g id="edge3" class="edge"><title>Node3&#45;&gt;Node4</title>
<path fill="none" stroke="midnightblue" d="M209.367,-97C218.136,-97 227.204,-97 235.942,-97"/>
<polygon fill="midnightblue" stroke="midnightblue" points="209.248,-93.5001 199.248,-97 209.248,-100.5 209.248,-93.5001"/>
</g>
<!-- Node5 -->
<g id="node5" class="node"><title>Node5</title>
<g id="a_node5"><a xlink:href="classlm__library.html#a5d8bd21cd5f50b5be72e732046689dd8" target="_top" xlink:title="lm_library::out_of\l_date_reason">
<polygon fill="white" stroke="black" points="386.65,-107 386.65,-139 479.35,-139 479.35,-107 386.65,-107"/>
<text text-anchor="start" x="394.65" y="-125" font-family="Helvetica,sans-Serif" font-size="10.00">lm_library::out_of</text>
<text text-anchor="middle" x="433" y="-113" font-family="Helvetica,sans-Serif" font-size="10.00">_date_reason</text>
</a>
</g>
</g>
<!-- Node4&#45;&gt;Node5 -->
<g id="edge4" class="edge"><title>Node4&#45;&gt;Node5</title>
<path fill="none" stroke="midnightblue" d="M353.815,-108.583C364.716,-110.593 375.864,-112.649 386.202,-114.555"/>
<polygon fill="midnightblue" stroke="midnightblue" points="354.373,-105.127 343.904,-106.755 353.104,-112.011 354.373,-105.127"/>
</g>
<!-- Node8 -->
<g id="node8" class="node"><title>Node8</title>
<g id="a_node8"><a xlink:href="classlibrary__manager.html#a09309adef673a0eec62f8931e341f602" target="_top" xlink:title="library_manager::up\l_to_date">
<polygon fill="white" stroke="black" points="380.532,-56 380.532,-88 485.468,-88 485.468,-56 380.532,-56"/>
<text text-anchor="start" x="388.532" y="-74" font-family="Helvetica,sans-Serif" font-size="10.00">library_manager::up</text>
<text text-anchor="middle" x="433" y="-62" font-family="Helvetica,sans-Serif" font-size="10.00">_to_date</text>
</a>
</g>
</g>
<!-- Node4&#45;&gt;Node8 -->
<g id="edge7" class="edge"><title>Node4&#45;&gt;Node8</title>
<path fill="none" stroke="midnightblue" d="M353.777,-85.8692C362.61,-84.3031 371.607,-82.708 380.204,-81.1837"/>
<polygon fill="midnightblue" stroke="midnightblue" points="353.14,-82.4276 343.904,-87.6198 354.362,-89.3201 353.14,-82.4276"/>
</g>
<!-- Node6 -->
<g id="node6" class="node"><title>Node6</title>
<g id="a_node6"><a xlink:href="classlm__unit.html#a02104a6616581d829e547daace18bb61" target="_top" xlink:title="lm_unit::out_of_date\l_reason">
<polygon fill="white" stroke="black" points="526.69,-157 526.69,-189 633.31,-189 633.31,-157 526.69,-157"/>
<text text-anchor="start" x="534.69" y="-175" font-family="Helvetica,sans-Serif" font-size="10.00">lm_unit::out_of_date</text>
<text text-anchor="middle" x="580" y="-163" font-family="Helvetica,sans-Serif" font-size="10.00">_reason</text>
</a>
</g>
</g>
<!-- Node5&#45;&gt;Node6 -->
<g id="edge5" class="edge"><title>Node5&#45;&gt;Node6</title>
<path fill="none" stroke="midnightblue" d="M489.175,-142.026C503.44,-146.945 518.655,-152.191 532.431,-156.942"/>
<polygon fill="midnightblue" stroke="midnightblue" points="490.076,-138.634 479.481,-138.683 487.794,-145.252 490.076,-138.634"/>
</g>
<!-- Node7 -->
<g id="node7" class="node"><title>Node7</title>
<g id="a_node7"><a xlink:href="classlm__library.html#a0c7ebf3f3157ecef27e64c06c7e1f20e" target="_top" xlink:title="lm_library::pretty\l_print">
<polygon fill="white" stroke="black" points="535.047,-106 535.047,-138 624.953,-138 624.953,-106 535.047,-106"/>
<text text-anchor="start" x="543.047" y="-124" font-family="Helvetica,sans-Serif" font-size="10.00">lm_library::pretty</text>
<text text-anchor="middle" x="580" y="-112" font-family="Helvetica,sans-Serif" font-size="10.00">_print</text>
</a>
</g>
</g>
<!-- Node5&#45;&gt;Node7 -->
<g id="edge6" class="edge"><title>Node5&#45;&gt;Node7</title>
<path fill="none" stroke="midnightblue" d="M489.614,-122.616C504.531,-122.514 520.458,-122.404 534.673,-122.306"/>
<polygon fill="midnightblue" stroke="midnightblue" points="489.457,-119.117 479.481,-122.686 489.505,-126.117 489.457,-119.117"/>
</g>
<!-- Node9 -->
<g id="node9" class="node"><title>Node9</title>
<g id="a_node9"><a xlink:href="classlm__library.html#adedd98796624f7e063014524f21d5124" target="_top" xlink:title="lm_library::up_to_date">
<polygon fill="white" stroke="black" points="522.527,-64 522.527,-84 637.473,-84 637.473,-64 522.527,-64"/>
<text text-anchor="middle" x="580" y="-70" font-family="Helvetica,sans-Serif" font-size="10.00">lm_library::up_to_date</text>
</a>
</g>
</g>
<!-- Node8&#45;&gt;Node9 -->
<g id="edge8" class="edge"><title>Node8&#45;&gt;Node9</title>
<path fill="none" stroke="midnightblue" d="M495.721,-72.8513C504.514,-72.9726 513.523,-73.0969 522.216,-73.2168"/>
<polygon fill="midnightblue" stroke="midnightblue" points="495.577,-69.3491 485.53,-72.7108 495.481,-76.3484 495.577,-69.3491"/>
</g>
<!-- Node11 -->
<g id="node11" class="node"><title>Node11</title>
<g id="a_node11"><a xlink:href="classlibrary__manager.html#a9bf17691f97e961004f252919272d9d6" target="_top" xlink:title="library_manager::out\l_of_date">
<polygon fill="white" stroke="black" points="526.143,-13 526.143,-45 633.857,-45 633.857,-13 526.143,-13"/>
<text text-anchor="start" x="534.143" y="-31" font-family="Helvetica,sans-Serif" font-size="10.00">library_manager::out</text>
<text text-anchor="middle" x="580" y="-19" font-family="Helvetica,sans-Serif" font-size="10.00">_of_date</text>
</a>
</g>
</g>
<!-- Node8&#45;&gt;Node11 -->
<g id="edge10" class="edge"><title>Node8&#45;&gt;Node11</title>
<path fill="none" stroke="midnightblue" d="M495.14,-53.8689C505.288,-50.8594 515.741,-47.7595 525.677,-44.8132"/>
<polygon fill="midnightblue" stroke="midnightblue" points="494.122,-50.52 485.53,-56.7187 496.112,-57.2311 494.122,-50.52"/>
</g>
<!-- Node10 -->
<g id="node10" class="node"><title>Node10</title>
<g id="a_node10"><a xlink:href="classlm__unit.html#a6c229dcb208249f76274f53e3802189e" target="_top" xlink:title="lm_unit::up_to_date">
<polygon fill="white" stroke="black" points="681.079,-64 681.079,-84 784.921,-84 784.921,-64 681.079,-64"/>
<text text-anchor="middle" x="733" y="-70" font-family="Helvetica,sans-Serif" font-size="10.00">lm_unit::up_to_date</text>
</a>
</g>
</g>
<!-- Node9&#45;&gt;Node10 -->
<g id="edge9" class="edge"><title>Node9&#45;&gt;Node10</title>
<path fill="none" stroke="midnightblue" d="M647.788,-74C658.93,-74 670.328,-74 680.995,-74"/>
<polygon fill="midnightblue" stroke="midnightblue" points="647.656,-70.5001 637.656,-74 647.656,-77.5001 647.656,-70.5001"/>
</g>
<!-- Node12 -->
<g id="node12" class="node"><title>Node12</title>
<g id="a_node12"><a xlink:href="classlm__library.html#af53b88e6e3bd0a40f844823fd79a8c23" target="_top" xlink:title="lm_library::out_of_date">
<polygon fill="white" stroke="black" points="674.138,-19 674.138,-39 791.862,-39 791.862,-19 674.138,-19"/>
<text text-anchor="middle" x="733" y="-25" font-family="Helvetica,sans-Serif" font-size="10.00">lm_library::out_of_date</text>
</a>
</g>
</g>
<!-- Node11&#45;&gt;Node12 -->
<g id="edge11" class="edge"><title>Node11&#45;&gt;Node12</title>
<path fill="none" stroke="midnightblue" d="M644.38,-29C654.24,-29 664.382,-29 674.112,-29"/>
<polygon fill="midnightblue" stroke="midnightblue" points="644.237,-25.5001 634.237,-29 644.237,-32.5001 644.237,-25.5001"/>
</g>
<!-- Node13 -->
<g id="node13" class="node"><title>Node13</title>
<g id="a_node13"><a xlink:href="classlm__unit.html#acff66d4e8d929cabc4bc5c07c25afb18" target="_top" xlink:title="lm_unit::out_of_date">
<polygon fill="white" stroke="black" points="828.69,-39 828.69,-59 935.31,-59 935.31,-39 828.69,-39"/>
<text text-anchor="middle" x="882" y="-45" font-family="Helvetica,sans-Serif" font-size="10.00">lm_unit::out_of_date</text>
</a>
</g>
</g>
<!-- Node12&#45;&gt;Node13 -->
<g id="edge12" class="edge"><title>Node12&#45;&gt;Node13</title>
<path fill="none" stroke="midnightblue" d="M802.074,-38.2618C810.975,-39.4729 819.983,-40.6984 828.572,-41.8669"/>
<polygon fill="midnightblue" stroke="midnightblue" points="802.479,-34.7847 792.098,-36.9045 801.535,-41.7208 802.479,-34.7847"/>
</g>
<!-- Node15 -->
<g id="node15" class="node"><title>Node15</title>
<g id="a_node15"><a xlink:href="classlm__library.html#a0f0d928c549b095099e11b19740ab4f9" target="_top" xlink:title="lm_library::tidy">
<polygon fill="white" stroke="black" points="841.771,-0 841.771,-20 922.229,-20 922.229,-0 841.771,-0"/>
<text text-anchor="middle" x="882" y="-6" font-family="Helvetica,sans-Serif" font-size="10.00">lm_library::tidy</text>
</a>
</g>
</g>
<!-- Node12&#45;&gt;Node15 -->
<g id="edge14" class="edge"><title>Node12&#45;&gt;Node15</title>
<path fill="none" stroke="midnightblue" d="M802.277,-20.175C815.687,-18.4418 829.329,-16.6785 841.407,-15.1174"/>
<polygon fill="midnightblue" stroke="midnightblue" points="801.567,-16.7376 792.098,-21.4907 802.464,-23.6799 801.567,-16.7376"/>
</g>
<!-- Node14 -->
<g id="node14" class="node"><title>Node14</title>
<g id="a_node14"><a xlink:href="classlm__unit.html#aaf906aef678a910a3d4aef087efb6d7b" target="_top" xlink:title="lm_unit::load">
<polygon fill="white" stroke="black" points="972.65,-39 972.65,-59 1045.35,-59 1045.35,-39 972.65,-39"/>
<text text-anchor="middle" x="1009" y="-45" font-family="Helvetica,sans-Serif" font-size="10.00">lm_unit::load</text>
</a>
</g>
</g>
<!-- Node13&#45;&gt;Node14 -->
<g id="edge13" class="edge"><title>Node13&#45;&gt;Node14</title>
<path fill="none" stroke="midnightblue" d="M945.907,-49C955.025,-49 964.132,-49 972.45,-49"/>
<polygon fill="midnightblue" stroke="midnightblue" points="945.649,-45.5001 935.649,-49 945.649,-52.5001 945.649,-45.5001"/>
</g>
</g>
</svg>
        <g id="navigator" transform="translate(0 0)" fill="#404254">
                <rect fill="#f2f5e9" fill-opacity="0.5" stroke="#606060" stroke-width=".5" x="0" y="0" width="60" height="60"/>
                <use id="zoomplus" xlink:href="#zoomPlus" x="17" y="9" onmousedown="handleZoom(evt,'in')"/>
                <use id="zoomminus" xlink:href="#zoomMin" x="42" y="9" onmousedown="handleZoom(evt,'out')"/>
                <use id="reset" xlink:href="#resetDef" x="30" y="36" onmousedown="handleReset()"/>
                <g id="arrowUp" xlink:href="#dirArrow" transform="translate(30 24)" onmousedown="handlePan(0,-1)">
                  <use xlink:href="#rim" fill="#404040">
                        <set attributeName="fill" to="#808080" begin="arrowUp.mouseover" end="arrowUp.mouseout"/>
                  </use>
                  <path fill="none" stroke="white" stroke-width="1.5" d="M0,-3.0v7 M-2.5,-0.5L0,-3.0L2.5,-0.5"/>
                </g>
                <g id="arrowRight" xlink:href="#dirArrow" transform="rotate(90) translate(36 -43)" onmousedown="handlePan(1,0)">
                  <use xlink:href="#rim" fill="#404040">
                        <set attributeName="fill" to="#808080" begin="arrowRight.mouseover" end="arrowRight.mouseout"/>
                  </use>
                  <path fill="none" stroke="white" stroke-width="1.5" d="M0,-3.0v7 M-2.5,-0.5L0,-3.0L2.5,-0.5"/>
                </g>
                <g id="arrowDown" xlink:href="#dirArrow" transform="rotate(180) translate(-30 -48)" onmousedown="handlePan(0,1)">
                  <use xlink:href="#rim" fill="#404040">
                        <set attributeName="fill" to="#808080" begin="arrowDown.mouseover" end="arrowDown.mouseout"/>
                  </use>
                  <path fill="none" stroke="white" stroke-width="1.5" d="M0,-3.0v7 M-2.5,-0.5L0,-3.0L2.5,-0.5"/>
                </g>
                <g id="arrowLeft" xlink:href="#dirArrow" transform="rotate(270) translate(-36 17)" onmousedown="handlePan(-1,0)">
                  <use xlink:href="#rim" fill="#404040">
                        <set attributeName="fill" to="#808080" begin="arrowLeft.mouseover" end="arrowLeft.mouseout"/>
                  </use>
                  <path fill="none" stroke="white" stroke-width="1.5" d="M0,-3.0v7 M-2.5,-0.5L0,-3.0L2.5,-0.5"/>
                </g>
        </g>
        <svg viewBox="0 0 15 15" width="100%" height="30px" preserveAspectRatio="xMaxYMin meet">
         <g id="arrow_out" transform="scale(0.3 0.3)">
          <a xlink:href="file__system_8cpp_a55fa11708b5a4fa253285ebd6a770166_icgraph_org.svg" target="_base">
           <rect id="button" ry="5" rx="5" y="6" x="6" height="38" width="38"
                fill="#f2f5e9" fill-opacity="0.5" stroke="#606060" stroke-width="1.0"/>
           <path id="arrow"
             d="M 11.500037,31.436501 C 11.940474,20.09759 22.043105,11.32322 32.158766,21.979434 L 37.068811,17.246167 C 37.068811,17.246167 37.088388,32 37.088388,32 L 22.160133,31.978069 C 22.160133,31.978069 26.997745,27.140456 26.997745,27.140456 C 18.528582,18.264221 13.291696,25.230495 11.500037,31.436501 z"
             style="fill:#404040;"/>
          </a>
         </g>
        </svg>
</svg>
