<?xml version="1.0" encoding="UTF-8" standalone="no"?>
<!DOCTYPE svg PUBLIC "-//W3C//DTD SVG 1.1//EN"
 "http://www.w3.org/Graphics/SVG/1.1/DTD/svg11.dtd">
<!-- Generated by graphviz version 2.32.0 (20130916.1925)
 -->
<!-- Title: folder_writable Pages: 1 -->
<svg width="396pt" height="28pt"
 viewBox="0.00 0.00 396.00 28.00" xmlns="http://www.w3.org/2000/svg" xmlns:xlink="http://www.w3.org/1999/xlink">
<g id="graph0" class="graph" transform="scale(1 1) rotate(0) translate(4 24)">
<title>folder_writable</title>
<polygon fill="white" stroke="white" points="-4,5 -4,-24 393,-24 393,5 -4,5"/>
<!-- Node1 -->
<g id="node1" class="node"><title>Node1</title>
<polygon fill="#bfbfbf" stroke="black" points="0.48291,-0 0.48291,-20 81.5171,-20 81.5171,-0 0.48291,-0"/>
<text text-anchor="middle" x="41" y="-6" font-family="Helvetica,sans-Serif" font-size="10.00">folder_writable</text>
</g>
<!-- Node2 -->
<g id="node2" class="node"><title>Node2</title>
<g id="a_node2"><a xlink:href="file__system_8cpp.html#aad7ae11400ad76e728db2b39f937db2f" target="_top" xlink:title="folder_exists">
<polygon fill="white" stroke="black" points="117.931,-0 117.931,-20 190.069,-20 190.069,-0 117.931,-0"/>
<text text-anchor="middle" x="154" y="-6" font-family="Helvetica,sans-Serif" font-size="10.00">folder_exists</text>
</a>
</g>
</g>
<!-- Node1&#45;&gt;Node2 -->
<g id="edge1" class="edge"><title>Node1&#45;&gt;Node2</title>
<path fill="none" stroke="midnightblue" d="M81.76,-10C90.0745,-10 98.9027,-10 107.41,-10"/>
<polygon fill="midnightblue" stroke="midnightblue" points="107.571,-13.5001 117.571,-10 107.571,-6.5001 107.571,-13.5001"/>
</g>
<!-- Node3 -->
<g id="node3" class="node"><title>Node3</title>
<g id="a_node3"><a xlink:href="file__system_8cpp.html#a4bf41553eb34f21058b17faf699b5a4f" target="_top" xlink:title="is_folder">
<polygon fill="white" stroke="black" points="226.101,-0 226.101,-20 279.899,-20 279.899,-0 226.101,-0"/>
<text text-anchor="middle" x="253" y="-6" font-family="Helvetica,sans-Serif" font-size="10.00">is_folder</text>
</a>
</g>
</g>
<!-- Node2&#45;&gt;Node3 -->
<g id="edge2" class="edge"><title>Node2&#45;&gt;Node3</title>
<path fill="none" stroke="midnightblue" d="M190.294,-10C198.597,-10 207.459,-10 215.801,-10"/>
<polygon fill="midnightblue" stroke="midnightblue" points="216.009,-13.5001 226.009,-10 216.009,-6.5001 216.009,-13.5001"/>
</g>
<!-- Node4 -->
<g id="node4" class="node"><title>Node4</title>
<g id="a_node4"><a xlink:href="file__system_8cpp.html#a99e06c76afffe1f1d77f01c905b1a5fd" target="_top" xlink:title="is_separator">
<polygon fill="white" stroke="black" points="316.485,-0 316.485,-20 387.515,-20 387.515,-0 316.485,-0"/>
<text text-anchor="middle" x="352" y="-6" font-family="Helvetica,sans-Serif" font-size="10.00">is_separator</text>
</a>
</g>
</g>
<!-- Node3&#45;&gt;Node4 -->
<g id="edge3" class="edge"><title>Node3&#45;&gt;Node4</title>
<path fill="none" stroke="midnightblue" d="M279.994,-10C287.981,-10 297.013,-10 305.893,-10"/>
<polygon fill="midnightblue" stroke="midnightblue" points="306.176,-13.5001 316.176,-10 306.176,-6.5001 306.176,-13.5001"/>
</g>
</g>
</svg>
