<?xml version="1.0" encoding="UTF-8" standalone="no"?>
<!DOCTYPE svg PUBLIC "-//W3C//DTD SVG 1.1//EN"
 "http://www.w3.org/Graphics/SVG/1.1/DTD/svg11.dtd">
<!-- Generated by graphviz version 2.32.0 (20130916.1925)
 -->
<!-- Title: filename_part Pages: 1 -->
<svg width="800pt" height="1319pt"
 viewBox="0.00 0.00 800.00 1319.00" xmlns="http://www.w3.org/2000/svg" xmlns:xlink="http://www.w3.org/1999/xlink">
<g id="graph0" class="graph" transform="scale(1 1) rotate(0) translate(4 1315)">
<title>filename_part</title>
<polygon fill="white" stroke="white" points="-4,5 -4,-1315 797,-1315 797,5 -4,5"/>
<!-- Node1 -->
<g id="node1" class="node"><title>Node1</title>
<polygon fill="#bfbfbf" stroke="black" points="0.70459,-1123 0.70459,-1143 77.2954,-1143 77.2954,-1123 0.70459,-1123"/>
<text text-anchor="middle" x="39" y="-1129" font-family="Helvetica,sans-Serif" font-size="10.00">filename_part</text>
</g>
<!-- Node2 -->
<g id="node2" class="node"><title>Node2</title>
<g id="a_node2"><a xlink:href="debug_8hpp.html#afb8690fda323d1005299b10f2ae5f096" target="_top" xlink:title="_debug_assert_fail">
<polygon fill="white" stroke="black" points="127.747,-1291 127.747,-1311 228.253,-1311 228.253,-1291 127.747,-1291"/>
<text text-anchor="middle" x="178" y="-1297" font-family="Helvetica,sans-Serif" font-size="10.00">_debug_assert_fail</text>
</a>
</g>
</g>
<!-- Node1&#45;&gt;Node2 -->
<g id="edge1" class="edge"><title>Node1&#45;&gt;Node2</title>
<path fill="none" stroke="midnightblue" d="M44.6956,-1153.24C53.1092,-1185.04 73.7609,-1246.6 114,-1281 118.798,-1285.1 124.442,-1288.36 130.347,-1290.96"/>
<polygon fill="midnightblue" stroke="midnightblue" points="48.0385,-1152.18 42.218,-1143.33 41.2475,-1153.88 48.0385,-1152.18"/>
</g>
<!-- Node3 -->
<g id="node3" class="node"><title>Node3</title>
<g id="a_node3"><a xlink:href="debug_8hpp.html#ab77faed5a5ff0b9cdcd0a804544b88f2" target="_top" xlink:title="_debug_global">
<polygon fill="white" stroke="black" points="137.19,-1252 137.19,-1272 218.81,-1272 218.81,-1252 137.19,-1252"/>
<text text-anchor="middle" x="178" y="-1258" font-family="Helvetica,sans-Serif" font-size="10.00">_debug_global</text>
</a>
</g>
</g>
<!-- Node1&#45;&gt;Node3 -->
<g id="edge2" class="edge"><title>Node1&#45;&gt;Node3</title>
<path fill="none" stroke="midnightblue" d="M48.2407,-1152.38C59.5733,-1176.76 82.2365,-1218.31 114,-1242 120.807,-1247.08 128.942,-1250.89 137.07,-1253.75"/>
<polygon fill="midnightblue" stroke="midnightblue" points="51.3609,-1150.78 44.0841,-1143.08 44.9705,-1153.64 51.3609,-1150.78"/>
</g>
<!-- Node4 -->
<g id="node4" class="node"><title>Node4</title>
<g id="a_node4"><a xlink:href="class__debug__trace.html#a60450fdc6f9142946bcd98b0ed73606a" target="_top" xlink:title="_debug_trace::_debug\l_trace">
<polygon fill="white" stroke="black" points="119.956,-1201 119.956,-1233 236.044,-1233 236.044,-1201 119.956,-1201"/>
<text text-anchor="start" x="127.956" y="-1219" font-family="Helvetica,sans-Serif" font-size="10.00">_debug_trace::_debug</text>
<text text-anchor="middle" x="178" y="-1207" font-family="Helvetica,sans-Serif" font-size="10.00">_trace</text>
</a>
</g>
</g>
<!-- Node1&#45;&gt;Node4 -->
<g id="edge3" class="edge"><title>Node1&#45;&gt;Node4</title>
<path fill="none" stroke="midnightblue" d="M58.5057,-1149.85C72.884,-1162.34 93.7276,-1179.17 114,-1191 120.132,-1194.58 126.851,-1197.91 133.544,-1200.91"/>
<polygon fill="midnightblue" stroke="midnightblue" points="60.6495,-1147.07 50.8403,-1143.07 56.0117,-1152.31 60.6495,-1147.07"/>
</g>
<!-- Node5 -->
<g id="node5" class="node"><title>Node5</title>
<g id="a_node5"><a xlink:href="file__system_8hpp.html#a2564661d393475f28f983626eca1a707" target="_top" xlink:title="basename_part">
<polygon fill="white" stroke="black" points="135.254,-1123 135.254,-1143 220.746,-1143 220.746,-1123 135.254,-1123"/>
<text text-anchor="middle" x="178" y="-1129" font-family="Helvetica,sans-Serif" font-size="10.00">basename_part</text>
</a>
</g>
</g>
<!-- Node1&#45;&gt;Node5 -->
<g id="edge4" class="edge"><title>Node1&#45;&gt;Node5</title>
<path fill="none" stroke="midnightblue" d="M87.7477,-1133C103.057,-1133 119.893,-1133 134.778,-1133"/>
<polygon fill="midnightblue" stroke="midnightblue" points="87.4359,-1129.5 77.4359,-1133 87.4358,-1136.5 87.4359,-1129.5"/>
</g>
<!-- Node13 -->
<g id="node13" class="node"><title>Node13</title>
<g id="a_node13"><a xlink:href="file__system_8hpp.html#a1d0fe44893655b7f4a5173231d08531c" target="_top" xlink:title="extension_part">
<polygon fill="white" stroke="black" points="137.2,-1162 137.2,-1182 218.8,-1182 218.8,-1162 137.2,-1162"/>
<text text-anchor="middle" x="178" y="-1168" font-family="Helvetica,sans-Serif" font-size="10.00">extension_part</text>
</a>
</g>
</g>
<!-- Node1&#45;&gt;Node13 -->
<g id="edge13" class="edge"><title>Node1&#45;&gt;Node13</title>
<path fill="none" stroke="midnightblue" d="M84.9554,-1145.8C103.435,-1151.06 124.517,-1157.06 141.839,-1161.99"/>
<polygon fill="midnightblue" stroke="midnightblue" points="85.8571,-1142.42 75.2809,-1143.04 83.9405,-1149.15 85.8571,-1142.42"/>
</g>
<!-- Node14 -->
<g id="node14" class="node"><title>Node14</title>
<g id="a_node14"><a xlink:href="file__system_8hpp.html#a70e450f809710859e0b15be714435178" target="_top" xlink:title="filespec_to_path">
<polygon fill="white" stroke="black" points="133.584,-123 133.584,-143 222.416,-143 222.416,-123 133.584,-123"/>
<text text-anchor="middle" x="178" y="-129" font-family="Helvetica,sans-Serif" font-size="10.00">filespec_to_path</text>
</a>
</g>
</g>
<!-- Node1&#45;&gt;Node14 -->
<g id="edge16" class="edge"><title>Node1&#45;&gt;Node14</title>
<path fill="none" stroke="midnightblue" d="M40.7715,-1112.51C44.3748,-1023.57 61.6424,-662.382 114,-371 130.101,-281.393 163.022,-176.136 173.628,-143.304"/>
<polygon fill="midnightblue" stroke="midnightblue" points="37.2702,-1112.47 40.3746,-1122.6 44.2648,-1112.75 37.2702,-1112.47"/>
</g>
<!-- Node23 -->
<g id="node23" class="node"><title>Node23</title>
<g id="a_node23"><a xlink:href="file__system_8hpp.html#ac19750a52e814c7fd6b89b2275ac613d" target="_top" xlink:title="filespec_to_relative_path">
<polygon fill="white" stroke="black" points="114.685,-381 114.685,-401 241.315,-401 241.315,-381 114.685,-381"/>
<text text-anchor="middle" x="178" y="-387" font-family="Helvetica,sans-Serif" font-size="10.00">filespec_to_relative_path</text>
</a>
</g>
</g>
<!-- Node1&#45;&gt;Node23 -->
<g id="edge25" class="edge"><title>Node1&#45;&gt;Node23</title>
<path fill="none" stroke="midnightblue" d="M43.7466,-1112.71C64.0452,-1002.77 160.468,-480.537 175.129,-401.131"/>
<polygon fill="midnightblue" stroke="midnightblue" points="40.2585,-1112.32 41.8845,-1122.79 47.1421,-1113.59 40.2585,-1112.32"/>
</g>
<!-- Node48 -->
<g id="node48" class="node"><title>Node48</title>
<g id="a_node48"><a xlink:href="visimatch_8cpp.html#ae0d7b28519100e4a3b9ee193dbfb41ae" target="_top" xlink:title="genRFYmov">
<polygon fill="white" stroke="black" points="636.212,-1165 636.212,-1185 707.788,-1185 707.788,-1165 636.212,-1165"/>
<text text-anchor="middle" x="672" y="-1171" font-family="Helvetica,sans-Serif" font-size="10.00">genRFYmov</text>
</a>
</g>
</g>
<!-- Node1&#45;&gt;Node48 -->
<g id="edge57" class="edge"><title>Node1&#45;&gt;Node48</title>
<path fill="none" stroke="midnightblue" d="M81.7897,-1120.12C149.84,-1100.83 288.781,-1068.49 406,-1086 422.547,-1088.47 425.922,-1092.37 442,-1097 507.479,-1115.85 526.322,-1112.75 590,-1137 606.718,-1143.37 609.822,-1147.37 626,-1155 632.958,-1158.28 640.586,-1161.73 647.552,-1164.82"/>
<polygon fill="midnightblue" stroke="midnightblue" points="80.5205,-1116.84 71.8827,-1122.98 82.4611,-1123.57 80.5205,-1116.84"/>
</g>
<!-- Node49 -->
<g id="node49" class="node"><title>Node49</title>
<g id="a_node49"><a xlink:href="class__debug__trace.html#a0a69e3ceed983b4d613bdce505b12cfc" target="_top" xlink:title="_debug_trace::prefix">
<polygon fill="white" stroke="black" points="124.414,-42 124.414,-62 231.586,-62 231.586,-42 124.414,-42"/>
<text text-anchor="middle" x="178" y="-48" font-family="Helvetica,sans-Serif" font-size="10.00">_debug_trace::prefix</text>
</a>
</g>
</g>
<!-- Node1&#45;&gt;Node49 -->
<g id="edge59" class="edge"><title>Node1&#45;&gt;Node49</title>
<path fill="none" stroke="midnightblue" d="M40.6008,-1112.83C44.7378,-977.733 70.148,-206.884 114,-113 124.244,-91.0677 146.066,-72.8483 161.132,-62.1901"/>
<polygon fill="midnightblue" stroke="midnightblue" points="37.0975,-1112.89 40.2934,-1122.99 44.0943,-1113.1 37.0975,-1112.89"/>
</g>
<!-- Node6 -->
<g id="node6" class="node"><title>Node6</title>
<g id="a_node6"><a xlink:href="file__system_8hpp.html#aaa5c4d660882ae3e1beea1e3e55a8518" target="_top" xlink:title="lookup">
<polygon fill="white" stroke="black" points="319.266,-1224 319.266,-1244 364.734,-1244 364.734,-1224 319.266,-1224"/>
<text text-anchor="middle" x="342" y="-1230" font-family="Helvetica,sans-Serif" font-size="10.00">lookup</text>
</a>
</g>
</g>
<!-- Node5&#45;&gt;Node6 -->
<g id="edge5" class="edge"><title>Node5&#45;&gt;Node6</title>
<path fill="none" stroke="midnightblue" d="M230.3,-1145.84C234.451,-1147.89 238.418,-1150.26 242,-1153 265.493,-1170.99 255.154,-1190.2 278,-1209 289.902,-1218.8 306.12,-1225.11 319.12,-1228.95"/>
<polygon fill="midnightblue" stroke="midnightblue" points="231.571,-1142.57 221.002,-1141.84 228.809,-1149 231.571,-1142.57"/>
</g>
<!-- Node8 -->
<g id="node8" class="node"><title>Node8</title>
<g id="a_node8"><a xlink:href="classlm__library.html#a33a32c68cf681559099106a061bef521" target="_top" xlink:title="lm_library::load_type">
<polygon fill="white" stroke="black" points="287.867,-1146 287.867,-1166 396.133,-1166 396.133,-1146 287.867,-1146"/>
<text text-anchor="middle" x="342" y="-1152" font-family="Helvetica,sans-Serif" font-size="10.00">lm_library::load_type</text>
</a>
</g>
</g>
<!-- Node5&#45;&gt;Node8 -->
<g id="edge8" class="edge"><title>Node5&#45;&gt;Node8</title>
<path fill="none" stroke="midnightblue" d="M231.215,-1140.41C249.297,-1142.98 269.578,-1145.86 287.742,-1148.44"/>
<polygon fill="midnightblue" stroke="midnightblue" points="231.533,-1136.92 221.141,-1138.98 230.549,-1143.85 231.533,-1136.92"/>
</g>
<!-- Node10 -->
<g id="node10" class="node"><title>Node10</title>
<g id="a_node10"><a xlink:href="classrc_movie_converter_to_q_t.html#a166b19241ef0b0b93ba0210903f53969" target="_top" xlink:title="rcMovieConverterToQT\l::createQTMovie">
<polygon fill="white" stroke="black" points="282.32,-1095 282.32,-1127 401.68,-1127 401.68,-1095 282.32,-1095"/>
<text text-anchor="start" x="290.32" y="-1113" font-family="Helvetica,sans-Serif" font-size="10.00">rcMovieConverterToQT</text>
<text text-anchor="middle" x="342" y="-1101" font-family="Helvetica,sans-Serif" font-size="10.00">::createQTMovie</text>
</a>
</g>
</g>
<!-- Node5&#45;&gt;Node10 -->
<g id="edge10" class="edge"><title>Node5&#45;&gt;Node10</title>
<path fill="none" stroke="midnightblue" d="M231.051,-1125.93C247.389,-1123.71 265.537,-1121.25 282.302,-1118.97"/>
<polygon fill="midnightblue" stroke="midnightblue" points="230.579,-1122.46 221.141,-1127.28 231.521,-1129.4 230.579,-1122.46"/>
</g>
<!-- Node11 -->
<g id="node11" class="node"><title>Node11</title>
<g id="a_node11"><a xlink:href="visimatch_8cpp.html#a295bb6a14d1bf2be50ea61993db578d8" target="_top" xlink:title="repFile">
<polygon fill="white" stroke="black" points="648.717,-1126 648.717,-1146 695.283,-1146 695.283,-1126 648.717,-1126"/>
<text text-anchor="middle" x="672" y="-1132" font-family="Helvetica,sans-Serif" font-size="10.00">repFile</text>
</a>
</g>
</g>
<!-- Node5&#45;&gt;Node11 -->
<g id="edge11" class="edge"><title>Node5&#45;&gt;Node11</title>
<path fill="none" stroke="midnightblue" d="M225.383,-1146.31C231.059,-1148.35 236.716,-1150.59 242,-1153 259.06,-1160.78 259.95,-1169.92 278,-1175 411.484,-1212.56 455.401,-1208.34 590,-1175 607.561,-1170.65 609.725,-1163.9 626,-1156 633.23,-1152.49 641.217,-1148.86 648.431,-1145.67"/>
<polygon fill="midnightblue" stroke="midnightblue" points="226.47,-1142.98 215.876,-1143.07 224.21,-1149.61 226.47,-1142.98"/>
</g>
<!-- Node6&#45;&gt;Node6 -->
<g id="edge7" class="edge"><title>Node6&#45;&gt;Node6</title>
<path fill="none" stroke="midnightblue" d="M311.777,-1249.16C308.743,-1256.03 318.817,-1262 342,-1262 372.91,-1262 380.517,-1251.39 364.82,-1242.17"/>
<polygon fill="midnightblue" stroke="midnightblue" points="314.311,-1251.58 319.18,-1242.17 309.505,-1246.49 314.311,-1251.58"/>
</g>
<!-- Node7 -->
<g id="node7" class="node"><title>Node7</title>
<g id="a_node7"><a xlink:href="file__system_8hpp.html#a82d2d317c5db33b7ae5e0b55e77efa48" target="_top" xlink:title="path_lookup">
<polygon fill="white" stroke="red" points="480.754,-1224 480.754,-1244 551.246,-1244 551.246,-1224 480.754,-1224"/>
<text text-anchor="middle" x="516" y="-1230" font-family="Helvetica,sans-Serif" font-size="10.00">path_lookup</text>
</a>
</g>
</g>
<!-- Node6&#45;&gt;Node7 -->
<g id="edge6" class="edge"><title>Node6&#45;&gt;Node7</title>
<path fill="none" stroke="midnightblue" d="M375.135,-1234C405.177,-1234 449.899,-1234 480.64,-1234"/>
<polygon fill="midnightblue" stroke="midnightblue" points="374.784,-1230.5 364.784,-1234 374.784,-1237.5 374.784,-1230.5"/>
</g>
<!-- Node9 -->
<g id="node9" class="node"><title>Node9</title>
<g id="a_node9"><a xlink:href="classlm__library.html#a222ae9a0946face450f8caffcff177cb" target="_top" xlink:title="lm_library::load_types">
<polygon fill="white" stroke="red" points="459.367,-1146 459.367,-1166 572.633,-1166 572.633,-1146 459.367,-1146"/>
<text text-anchor="middle" x="516" y="-1152" font-family="Helvetica,sans-Serif" font-size="10.00">lm_library::load_types</text>
</a>
</g>
</g>
<!-- Node8&#45;&gt;Node9 -->
<g id="edge9" class="edge"><title>Node8&#45;&gt;Node9</title>
<path fill="none" stroke="midnightblue" d="M406.481,-1156C423.763,-1156 442.351,-1156 459.175,-1156"/>
<polygon fill="midnightblue" stroke="midnightblue" points="406.479,-1152.5 396.479,-1156 406.479,-1159.5 406.479,-1152.5"/>
</g>
<!-- Node12 -->
<g id="node12" class="node"><title>Node12</title>
<g id="a_node12"><a xlink:href="visimatch_8cpp.html#a3c04138a5bfe5d72780bb7e82a18e627" target="_top" xlink:title="main">
<polygon fill="white" stroke="black" points="754.163,-1165 754.163,-1185 791.837,-1185 791.837,-1165 754.163,-1165"/>
<text text-anchor="middle" x="773" y="-1171" font-family="Helvetica,sans-Serif" font-size="10.00">main</text>
</a>
</g>
</g>
<!-- Node11&#45;&gt;Node12 -->
<g id="edge12" class="edge"><title>Node11&#45;&gt;Node12</title>
<path fill="none" stroke="midnightblue" d="M705.098,-1148.64C721.279,-1155.02 740.303,-1162.51 753.919,-1167.88"/>
<polygon fill="midnightblue" stroke="midnightblue" points="706.052,-1145.26 695.465,-1144.85 703.486,-1151.77 706.052,-1145.26"/>
</g>
<!-- Node13&#45;&gt;Node6 -->
<g id="edge14" class="edge"><title>Node13&#45;&gt;Node6</title>
<path fill="none" stroke="midnightblue" d="M223.397,-1185.27C229.689,-1187.39 236.042,-1189.66 242,-1192 258.469,-1198.47 261.769,-1201.96 278,-1209 291.493,-1214.86 306.83,-1220.95 318.992,-1225.66"/>
<polygon fill="midnightblue" stroke="midnightblue" points="224.216,-1181.86 213.624,-1182.08 222.041,-1188.51 224.216,-1181.86"/>
</g>
<!-- Node13&#45;&gt;Node12 -->
<g id="edge15" class="edge"><title>Node13&#45;&gt;Node12</title>
<path fill="none" stroke="midnightblue" d="M228.556,-1183.18C233.423,-1185.57 238.023,-1188.47 242,-1192 270.873,-1217.6 245.549,-1250.13 278,-1271 441.125,-1375.93 692.825,-1226.68 756.805,-1185.18"/>
<polygon fill="midnightblue" stroke="midnightblue" points="229.537,-1179.79 218.96,-1179.18 226.844,-1186.26 229.537,-1179.79"/>
</g>
<!-- Node15 -->
<g id="node15" class="node"><title>Node15</title>
<g id="a_node15"><a xlink:href="file__system_8hpp.html#a9ef23dbb51286fa4a18645b5cf06f11d" target="_top" xlink:title="filespec_to_path">
<polygon fill="white" stroke="black" points="297.584,-39 297.584,-59 386.416,-59 386.416,-39 297.584,-39"/>
<text text-anchor="middle" x="342" y="-45" font-family="Helvetica,sans-Serif" font-size="10.00">filespec_to_path</text>
</a>
</g>
</g>
<!-- Node14&#45;&gt;Node15 -->
<g id="edge17" class="edge"><title>Node14&#45;&gt;Node15</title>
<path fill="none" stroke="midnightblue" d="M199.827,-116.749C219.172,-102.297 249.244,-81.4306 278,-68 285.349,-64.5676 293.468,-61.5776 301.364,-59.0487"/>
<polygon fill="midnightblue" stroke="midnightblue" points="197.587,-114.055 191.736,-122.888 201.818,-119.631 197.587,-114.055"/>
</g>
<!-- Node16 -->
<g id="node16" class="node"><title>Node16</title>
<g id="a_node16"><a xlink:href="classini__manager.html#a8e69e8c8d08f2638caca669590372644" target="_top" xlink:title="ini_manager::add_file">
<polygon fill="white" stroke="black" points="286.19,-78 286.19,-98 397.81,-98 397.81,-78 286.19,-78"/>
<text text-anchor="middle" x="342" y="-84" font-family="Helvetica,sans-Serif" font-size="10.00">ini_manager::add_file</text>
</a>
</g>
</g>
<!-- Node14&#45;&gt;Node16 -->
<g id="edge18" class="edge"><title>Node14&#45;&gt;Node16</title>
<path fill="none" stroke="midnightblue" d="M225.093,-120.197C250.362,-113.177 281.237,-104.601 304.765,-98.0652"/>
<polygon fill="midnightblue" stroke="midnightblue" points="224.054,-116.852 215.356,-122.901 225.928,-123.597 224.054,-116.852"/>
</g>
<!-- Node18 -->
<g id="node18" class="node"><title>Node18</title>
<g id="a_node18"><a xlink:href="classlm__file__dependency.html#a7962e83493012738745de4ee95f8d718" target="_top" xlink:title="lm_file_dependency\l::path_full">
<polygon fill="white" stroke="black" points="289.525,-168 289.525,-200 394.475,-200 394.475,-168 289.525,-168"/>
<text text-anchor="start" x="297.525" y="-186" font-family="Helvetica,sans-Serif" font-size="10.00">lm_file_dependency</text>
<text text-anchor="middle" x="342" y="-174" font-family="Helvetica,sans-Serif" font-size="10.00">::path_full</text>
</a>
</g>
</g>
<!-- Node14&#45;&gt;Node18 -->
<g id="edge20" class="edge"><title>Node14&#45;&gt;Node18</title>
<path fill="none" stroke="midnightblue" d="M220.655,-146.113C241.778,-152.763 267.617,-160.898 289.93,-167.922"/>
<polygon fill="midnightblue" stroke="midnightblue" points="221.596,-142.74 211.006,-143.076 219.493,-149.417 221.596,-142.74"/>
</g>
<!-- Node22 -->
<g id="node22" class="node"><title>Node22</title>
<g id="a_node22"><a xlink:href="classlm__library.html#a5e913849cba45b03ba14a60fa07672a3" target="_top" xlink:title="lm_library::erase_by\l_source">
<polygon fill="white" stroke="black" points="288.983,-117 288.983,-149 395.017,-149 395.017,-117 288.983,-117"/>
<text text-anchor="start" x="296.983" y="-135" font-family="Helvetica,sans-Serif" font-size="10.00">lm_library::erase_by</text>
<text text-anchor="middle" x="342" y="-123" font-family="Helvetica,sans-Serif" font-size="10.00">_source</text>
</a>
</g>
</g>
<!-- Node14&#45;&gt;Node22 -->
<g id="edge24" class="edge"><title>Node14&#45;&gt;Node22</title>
<path fill="none" stroke="midnightblue" d="M232.887,-133C250.886,-133 270.904,-133 288.775,-133"/>
<polygon fill="midnightblue" stroke="midnightblue" points="232.84,-129.5 222.84,-133 232.839,-136.5 232.84,-129.5"/>
</g>
<!-- Node17 -->
<g id="node17" class="node"><title>Node17</title>
<g id="a_node17"><a xlink:href="classini__manager.html#ab8f70f244dd50c6792d8c81f1d22cd6b" target="_top" xlink:title="ini_manager::add_files">
<polygon fill="white" stroke="red" points="457.69,-78 457.69,-98 574.31,-98 574.31,-78 457.69,-78"/>
<text text-anchor="middle" x="516" y="-84" font-family="Helvetica,sans-Serif" font-size="10.00">ini_manager::add_files</text>
</a>
</g>
</g>
<!-- Node16&#45;&gt;Node17 -->
<g id="edge19" class="edge"><title>Node16&#45;&gt;Node17</title>
<path fill="none" stroke="midnightblue" d="M407.915,-88C424.271,-88 441.711,-88 457.665,-88"/>
<polygon fill="midnightblue" stroke="midnightblue" points="407.895,-84.5001 397.895,-88 407.895,-91.5001 407.895,-84.5001"/>
</g>
<!-- Node19 -->
<g id="node19" class="node"><title>Node19</title>
<g id="a_node19"><a xlink:href="library__manager_8cpp.html#ab460c687a106dfb6833ae7269f3133d2" target="_top" xlink:title="out_of_date_chk">
<polygon fill="white" stroke="red" points="471.025,-162 471.025,-182 560.975,-182 560.975,-162 471.025,-162"/>
<text text-anchor="middle" x="516" y="-168" font-family="Helvetica,sans-Serif" font-size="10.00">out_of_date_chk</text>
</a>
</g>
</g>
<!-- Node18&#45;&gt;Node19 -->
<g id="edge21" class="edge"><title>Node18&#45;&gt;Node19</title>
<path fill="none" stroke="midnightblue" d="M404.811,-179.688C426.706,-178.16 450.877,-176.474 470.988,-175.071"/>
<polygon fill="midnightblue" stroke="midnightblue" points="404.338,-176.212 394.606,-180.4 404.825,-183.195 404.338,-176.212"/>
</g>
<!-- Node20 -->
<g id="node20" class="node"><title>Node20</title>
<g id="a_node20"><a xlink:href="classlm__unit.html#a1d7075e41c86f236a957b27f1050ab89" target="_top" xlink:title="lm_unit::print_long">
<polygon fill="white" stroke="black" points="467.143,-201 467.143,-221 564.857,-221 564.857,-201 467.143,-201"/>
<text text-anchor="middle" x="516" y="-207" font-family="Helvetica,sans-Serif" font-size="10.00">lm_unit::print_long</text>
</a>
</g>
</g>
<!-- Node18&#45;&gt;Node20 -->
<g id="edge22" class="edge"><title>Node18&#45;&gt;Node20</title>
<path fill="none" stroke="midnightblue" d="M404.5,-193.654C425.034,-196.877 447.602,-200.42 466.96,-203.459"/>
<polygon fill="midnightblue" stroke="midnightblue" points="405.027,-190.194 394.606,-192.101 403.942,-197.109 405.027,-190.194"/>
</g>
<!-- Node21 -->
<g id="node21" class="node"><title>Node21</title>
<g id="a_node21"><a xlink:href="classlm__library.html#a0c7ebf3f3157ecef27e64c06c7e1f20e" target="_top" xlink:title="lm_library::pretty\l_print">
<polygon fill="white" stroke="black" points="471.047,-240 471.047,-272 560.953,-272 560.953,-240 471.047,-240"/>
<text text-anchor="start" x="479.047" y="-258" font-family="Helvetica,sans-Serif" font-size="10.00">lm_library::pretty</text>
<text text-anchor="middle" x="516" y="-246" font-family="Helvetica,sans-Serif" font-size="10.00">_print</text>
</a>
</g>
</g>
<!-- Node18&#45;&gt;Node21 -->
<g id="edge23" class="edge"><title>Node18&#45;&gt;Node21</title>
<path fill="none" stroke="midnightblue" d="M385.014,-204.571C402.478,-212.847 423.057,-222.245 442,-230 451.213,-233.772 461.2,-237.535 470.743,-240.981"/>
<polygon fill="midnightblue" stroke="midnightblue" points="386.194,-201.257 375.662,-200.107 383.179,-207.574 386.194,-201.257"/>
</g>
<!-- Node23&#45;&gt;Node20 -->
<g id="edge55" class="edge"><title>Node23&#45;&gt;Node20</title>
<path fill="none" stroke="midnightblue" d="M187.207,-371.505C201.099,-341.079 232.273,-282.813 278,-254 335.669,-217.662 415.983,-210.166 466.725,-209.515"/>
<polygon fill="midnightblue" stroke="midnightblue" points="183.996,-370.111 183.162,-380.673 190.401,-372.937 183.996,-370.111"/>
</g>
<!-- Node23&#45;&gt;Node21 -->
<g id="edge56" class="edge"><title>Node23&#45;&gt;Node21</title>
<path fill="none" stroke="midnightblue" d="M191.316,-372.667C207.999,-349.456 240.092,-310.186 278,-291 339.788,-259.729 421.456,-254.329 471.008,-254.376"/>
<polygon fill="midnightblue" stroke="midnightblue" points="188.368,-370.775 185.509,-380.977 194.106,-374.784 188.368,-370.775"/>
</g>
<!-- Node24 -->
<g id="node24" class="node"><title>Node24</title>
<g id="a_node24"><a xlink:href="classcli__parser.html#adb9f95fee1210fb339fa857656132432" target="_top" xlink:title="cli_parser::set_defaults">
<polygon fill="white" stroke="black" points="282.584,-723 282.584,-743 401.416,-743 401.416,-723 282.584,-723"/>
<text text-anchor="middle" x="342" y="-729" font-family="Helvetica,sans-Serif" font-size="10.00">cli_parser::set_defaults</text>
</a>
</g>
</g>
<!-- Node23&#45;&gt;Node24 -->
<g id="edge26" class="edge"><title>Node23&#45;&gt;Node24</title>
<path fill="none" stroke="midnightblue" d="M179.093,-411.095C180.464,-467.069 192.116,-626.329 278,-713 282.039,-717.076 286.903,-720.322 292.116,-722.908"/>
<polygon fill="midnightblue" stroke="midnightblue" points="182.592,-410.998 178.935,-401.054 175.593,-411.108 182.592,-410.998"/>
</g>
<!-- Node25 -->
<g id="node25" class="node"><title>Node25</title>
<g id="a_node25"><a xlink:href="classcli__parser.html#ae2c043e579822c49c3dcaf4b68c02d82" target="_top" xlink:title="cli_parser::usage">
<polygon fill="white" stroke="black" points="625.924,-627 625.924,-647 718.076,-647 718.076,-627 625.924,-627"/>
<text text-anchor="middle" x="672" y="-633" font-family="Helvetica,sans-Serif" font-size="10.00">cli_parser::usage</text>
</a>
</g>
</g>
<!-- Node23&#45;&gt;Node25 -->
<g id="edge27" class="edge"><title>Node23&#45;&gt;Node25</title>
<path fill="none" stroke="midnightblue" d="M203.227,-375.41C271.864,-333.403 470.38,-227.102 590,-320 640.807,-359.457 665.117,-577.245 670.045,-626.914"/>
<polygon fill="midnightblue" stroke="midnightblue" points="201.069,-372.631 194.426,-380.884 204.766,-378.575 201.069,-372.631"/>
</g>
<!-- Node26 -->
<g id="node26" class="node"><title>Node26</title>
<g id="a_node26"><a xlink:href="error__handler_8hpp.html#aac3be3c13a6d90b39f966b6e897c0744" target="_top" xlink:title="to_string">
<polygon fill="white" stroke="red" points="314.823,-666 314.823,-686 369.177,-686 369.177,-666 314.823,-666"/>
<text text-anchor="middle" x="342" y="-672" font-family="Helvetica,sans-Serif" font-size="10.00">to_string</text>
</a>
</g>
</g>
<!-- Node23&#45;&gt;Node26 -->
<g id="edge28" class="edge"><title>Node23&#45;&gt;Node26</title>
<path fill="none" stroke="midnightblue" d="M189.742,-409.898C221.08,-465.029 311.666,-624.393 335.303,-665.978"/>
<polygon fill="midnightblue" stroke="midnightblue" points="192.75,-408.107 184.766,-401.143 186.665,-411.567 192.75,-408.107"/>
</g>
<!-- Node37 -->
<g id="node37" class="node"><title>Node37</title>
<g id="a_node37"><a xlink:href="classerror__handler__base__body.html#a634b92e5eb3b66288b127762ff295c59" target="_top" xlink:title="error_handler_base\l_body::format_id">
<polygon fill="white" stroke="red" points="464.36,-330 464.36,-362 567.64,-362 567.64,-330 464.36,-330"/>
<text text-anchor="start" x="472.36" y="-348" font-family="Helvetica,sans-Serif" font-size="10.00">error_handler_base</text>
<text text-anchor="middle" x="516" y="-336" font-family="Helvetica,sans-Serif" font-size="10.00">_body::format_id</text>
</a>
</g>
</g>
<!-- Node23&#45;&gt;Node37 -->
<g id="edge52" class="edge"><title>Node23&#45;&gt;Node37</title>
<path fill="none" stroke="midnightblue" d="M221.116,-378.181C238.566,-373.331 259.108,-368.212 278,-365 341.686,-354.172 416.078,-349.482 464.285,-347.472"/>
<polygon fill="midnightblue" stroke="midnightblue" points="219.897,-374.889 211.234,-380.989 221.81,-381.622 219.897,-374.889"/>
</g>
<!-- Node46 -->
<g id="node46" class="node"><title>Node46</title>
<g id="a_node46"><a xlink:href="file__system_8hpp.html#a357927994e95d5bba082dc55302248b7" target="_top" xlink:title="filespec_to_relative_path">
<polygon fill="white" stroke="black" points="278.685,-426 278.685,-446 405.315,-446 405.315,-426 278.685,-426"/>
<text text-anchor="middle" x="342" y="-432" font-family="Helvetica,sans-Serif" font-size="10.00">filespec_to_relative_path</text>
</a>
</g>
</g>
<!-- Node23&#45;&gt;Node46 -->
<g id="edge53" class="edge"><title>Node23&#45;&gt;Node46</title>
<path fill="none" stroke="midnightblue" d="M225.093,-403.803C250.362,-410.823 281.237,-419.399 304.765,-425.935"/>
<polygon fill="midnightblue" stroke="midnightblue" points="225.928,-400.403 215.356,-401.099 224.054,-407.148 225.928,-400.403"/>
</g>
<!-- Node47 -->
<g id="node47" class="node"><title>Node47</title>
<g id="a_node47"><a xlink:href="classlm__file__dependency.html#ad79e20b4a33df9bdef28a37ab2223a52" target="_top" xlink:title="lm_file_dependency\l::set_path">
<polygon fill="white" stroke="red" points="289.525,-375 289.525,-407 394.475,-407 394.475,-375 289.525,-375"/>
<text text-anchor="start" x="297.525" y="-393" font-family="Helvetica,sans-Serif" font-size="10.00">lm_file_dependency</text>
<text text-anchor="middle" x="342" y="-381" font-family="Helvetica,sans-Serif" font-size="10.00">::set_path</text>
</a>
</g>
</g>
<!-- Node23&#45;&gt;Node47 -->
<g id="edge54" class="edge"><title>Node23&#45;&gt;Node47</title>
<path fill="none" stroke="midnightblue" d="M251.713,-391C264.384,-391 277.329,-391 289.289,-391"/>
<polygon fill="midnightblue" stroke="midnightblue" points="251.633,-387.5 241.633,-391 251.633,-394.5 251.633,-387.5"/>
</g>
<!-- Node26&#45;&gt;Node26 -->
<g id="edge51" class="edge"><title>Node26&#45;&gt;Node26</title>
<path fill="none" stroke="midnightblue" d="M311.433,-694.828C312.893,-700.026 323.082,-704 342,-704 370.828,-704 379.386,-694.771 367.675,-686.048"/>
<polygon fill="midnightblue" stroke="midnightblue" points="314.515,-696.487 316.325,-686.048 308.4,-693.08 314.515,-696.487"/>
</g>
<!-- Node27 -->
<g id="node27" class="node"><title>Node27</title>
<g id="a_node27"><a xlink:href="visimatch_8cpp.html#a1448d8bc49735d8e567ed0c4d0ad79c0" target="_top" xlink:title="_sm2out">
<polygon fill="white" stroke="black" points="488.823,-861 488.823,-881 543.177,-881 543.177,-861 488.823,-861"/>
<text text-anchor="middle" x="516" y="-867" font-family="Helvetica,sans-Serif" font-size="10.00">_sm2out</text>
</a>
</g>
</g>
<!-- Node26&#45;&gt;Node27 -->
<g id="edge29" class="edge"><title>Node26&#45;&gt;Node27</title>
<path fill="none" stroke="midnightblue" d="M378.562,-690.521C388.704,-696.193 398.912,-703.627 406,-713 444.233,-763.557 397.454,-805.906 442,-851 454.19,-863.34 473.218,-868.272 488.79,-870.154"/>
<polygon fill="midnightblue" stroke="midnightblue" points="379.854,-687.25 369.358,-685.803 376.66,-693.48 379.854,-687.25"/>
</g>
<!-- Node28 -->
<g id="node28" class="node"><title>Node28</title>
<g id="a_node28"><a xlink:href="classinf.html#ac5de125801f26784c0e5dd76e15873d4" target="_top" xlink:title="inf::bit">
<polygon fill="white" stroke="red" points="494.66,-822 494.66,-842 537.34,-842 537.34,-822 494.66,-822"/>
<text text-anchor="middle" x="516" y="-828" font-family="Helvetica,sans-Serif" font-size="10.00">inf::bit</text>
</a>
</g>
</g>
<!-- Node26&#45;&gt;Node28 -->
<g id="edge30" class="edge"><title>Node26&#45;&gt;Node28</title>
<path fill="none" stroke="midnightblue" d="M377.473,-690.624C387.77,-696.357 398.342,-703.802 406,-713 435.956,-748.981 407.575,-780.268 442,-812 456.3,-825.181 478.464,-829.806 494.62,-831.363"/>
<polygon fill="midnightblue" stroke="midnightblue" points="379.065,-687.507 368.575,-686.024 375.851,-693.725 379.065,-687.507"/>
</g>
<!-- Node29 -->
<g id="node29" class="node"><title>Node29</title>
<g id="a_node29"><a xlink:href="classinf.html#a5935bba8b0b35eddf8f3444e3a8fee52" target="_top" xlink:title="inf::clear">
<polygon fill="white" stroke="black" points="489.104,-783 489.104,-803 542.896,-803 542.896,-783 489.104,-783"/>
<text text-anchor="middle" x="516" y="-789" font-family="Helvetica,sans-Serif" font-size="10.00">inf::clear</text>
</a>
</g>
</g>
<!-- Node26&#45;&gt;Node29 -->
<g id="edge31" class="edge"><title>Node26&#45;&gt;Node29</title>
<path fill="none" stroke="midnightblue" d="M375.206,-690.847C385.815,-696.744 397.149,-704.231 406,-713 428.093,-734.886 417.222,-754.207 442,-773 455.506,-783.244 473.937,-788.242 488.9,-790.68"/>
<polygon fill="midnightblue" stroke="midnightblue" points="376.631,-687.641 366.151,-686.08 373.37,-693.835 376.631,-687.641"/>
</g>
<!-- Node30 -->
<g id="node30" class="node"><title>Node30</title>
<g id="a_node30"><a xlink:href="string__utilities_8hpp.html#a6f33e33b95485afe690096600dd9a423" target="_top" xlink:title="display_time">
<polygon fill="white" stroke="red" points="480.209,-744 480.209,-764 551.791,-764 551.791,-744 480.209,-744"/>
<text text-anchor="middle" x="516" y="-750" font-family="Helvetica,sans-Serif" font-size="10.00">display_time</text>
</a>
</g>
</g>
<!-- Node26&#45;&gt;Node30 -->
<g id="edge32" class="edge"><title>Node26&#45;&gt;Node30</title>
<path fill="none" stroke="midnightblue" d="M368.865,-691.208C397.871,-708.255 441.027,-733.59 442,-734 454.11,-739.101 467.898,-743.269 480.205,-746.454"/>
<polygon fill="midnightblue" stroke="midnightblue" points="370.411,-688.057 360.016,-686.007 366.864,-694.091 370.411,-688.057"/>
</g>
<!-- Node31 -->
<g id="node31" class="node"><title>Node31</title>
<g id="a_node31"><a xlink:href="inf_8hpp.html#abd99125f5549d3d11666ee3c69305613" target="_top" xlink:title="divide">
<polygon fill="white" stroke="red" points="494.936,-705 494.936,-725 537.064,-725 537.064,-705 494.936,-705"/>
<text text-anchor="middle" x="516" y="-711" font-family="Helvetica,sans-Serif" font-size="10.00">divide</text>
</a>
</g>
</g>
<!-- Node26&#45;&gt;Node31 -->
<g id="edge33" class="edge"><title>Node26&#45;&gt;Node31</title>
<path fill="none" stroke="midnightblue" d="M379.39,-684.251C414.589,-692.232 466.637,-704.034 494.922,-710.447"/>
<polygon fill="midnightblue" stroke="midnightblue" points="380.024,-680.806 369.498,-682.008 378.477,-687.633 380.024,-680.806"/>
</g>
<!-- Node32 -->
<g id="node32" class="node"><title>Node32</title>
<g id="a_node32"><a xlink:href="classinf.html#a01c537a07a801ad2c1f7e4e16401896a" target="_top" xlink:title="inf::dump">
<polygon fill="white" stroke="black" points="487.434,-666 487.434,-686 544.566,-686 544.566,-666 487.434,-666"/>
<text text-anchor="middle" x="516" y="-672" font-family="Helvetica,sans-Serif" font-size="10.00">inf::dump</text>
</a>
</g>
</g>
<!-- Node26&#45;&gt;Node32 -->
<g id="edge34" class="edge"><title>Node26&#45;&gt;Node32</title>
<path fill="none" stroke="midnightblue" d="M379.852,-676C412.08,-676 458.169,-676 487.332,-676"/>
<polygon fill="midnightblue" stroke="midnightblue" points="379.498,-672.5 369.498,-676 379.498,-679.5 379.498,-672.5"/>
</g>
<!-- Node33 -->
<g id="node33" class="node"><title>Node33</title>
<g id="a_node33"><a xlink:href="classdump__context__body.html#a10accf1d666a0531c9d62e916a8728f9" target="_top" xlink:title="dump_context_body::\ldump_context_body">
<polygon fill="white" stroke="black" points="460.19,-576 460.19,-608 571.81,-608 571.81,-576 460.19,-576"/>
<text text-anchor="start" x="468.19" y="-594" font-family="Helvetica,sans-Serif" font-size="10.00">dump_context_body::</text>
<text text-anchor="middle" x="516" y="-582" font-family="Helvetica,sans-Serif" font-size="10.00">dump_context_body</text>
</a>
</g>
</g>
<!-- Node26&#45;&gt;Node33 -->
<g id="edge35" class="edge"><title>Node26&#45;&gt;Node33</title>
<path fill="none" stroke="midnightblue" d="M366.454,-660.127C386.05,-647.335 415.041,-629.485 442,-617 448.929,-613.791 456.391,-610.772 463.806,-608.017"/>
<polygon fill="midnightblue" stroke="midnightblue" points="364.309,-657.35 357.895,-665.783 368.168,-663.19 364.309,-657.35"/>
</g>
<!-- Node34 -->
<g id="node34" class="node"><title>Node34</title>
<g id="a_node34"><a xlink:href="tcp_8cpp.html#ab932f3e7890ed088ca90870c290fb2da" target="_top" xlink:title="error_string">
<polygon fill="white" stroke="red" points="482.436,-537 482.436,-557 549.564,-557 549.564,-537 482.436,-537"/>
<text text-anchor="middle" x="516" y="-543" font-family="Helvetica,sans-Serif" font-size="10.00">error_string</text>
</a>
</g>
</g>
<!-- Node26&#45;&gt;Node34 -->
<g id="edge36" class="edge"><title>Node26&#45;&gt;Node34</title>
<path fill="none" stroke="midnightblue" d="M354.762,-657.189C371.216,-632.464 403.457,-589.435 442,-566 454.085,-558.652 468.966,-554.122 482.132,-551.341"/>
<polygon fill="midnightblue" stroke="midnightblue" points="351.754,-655.395 349.249,-665.689 357.627,-659.204 351.754,-655.395"/>
</g>
<!-- Node35 -->
<g id="node35" class="node"><title>Node35</title>
<g id="a_node35"><a xlink:href="classsubprocess.html#a966ef249b6576eca9f797d948bc1bfaa" target="_top" xlink:title="subprocess::error_text">
<polygon fill="white" stroke="black" points="458.256,-498 458.256,-518 573.744,-518 573.744,-498 458.256,-498"/>
<text text-anchor="middle" x="516" y="-504" font-family="Helvetica,sans-Serif" font-size="10.00">subprocess::error_text</text>
</a>
</g>
</g>
<!-- Node26&#45;&gt;Node35 -->
<g id="edge37" class="edge"><title>Node26&#45;&gt;Node35</title>
<path fill="none" stroke="midnightblue" d="M350.614,-656.182C364.025,-623.982 394.973,-560.536 442,-527 447.118,-523.35 452.883,-520.401 458.873,-518.018"/>
<polygon fill="midnightblue" stroke="midnightblue" points="347.223,-655.232 346.74,-665.816 353.718,-657.844 347.223,-655.232"/>
</g>
<!-- Node36 -->
<g id="node36" class="node"><title>Node36</title>
<g id="a_node36"><a xlink:href="classasync__subprocess.html#ac66b1914b8deb4d7ed6390796ae04c62" target="_top" xlink:title="async_subprocess::error_text">
<polygon fill="white" stroke="black" points="442.414,-459 442.414,-479 589.586,-479 589.586,-459 442.414,-459"/>
<text text-anchor="middle" x="516" y="-465" font-family="Helvetica,sans-Serif" font-size="10.00">async_subprocess::error_text</text>
</a>
</g>
</g>
<!-- Node26&#45;&gt;Node36 -->
<g id="edge38" class="edge"><title>Node26&#45;&gt;Node36</title>
<path fill="none" stroke="midnightblue" d="M347.908,-655.455C358.287,-616.583 386.227,-532.22 442,-488 446.515,-484.42 451.635,-481.51 457.018,-479.144"/>
<polygon fill="midnightblue" stroke="midnightblue" points="344.412,-654.999 345.338,-665.554 351.196,-656.726 344.412,-654.999"/>
</g>
<!-- Node26&#45;&gt;Node37 -->
<g id="edge39" class="edge"><title>Node26&#45;&gt;Node37</title>
<path fill="none" stroke="midnightblue" d="M348.405,-655.882C365.907,-591.308 421.099,-392.24 442,-371 448.201,-364.698 456.057,-359.984 464.302,-356.458"/>
<polygon fill="midnightblue" stroke="midnightblue" points="344.988,-655.112 345.76,-665.678 351.746,-656.936 344.988,-655.112"/>
</g>
<!-- Node38 -->
<g id="node38" class="node"><title>Node38</title>
<g id="a_node38"><a xlink:href="classcli__parser.html#a92def110bb79ed2c4ee2d878889da91d" target="_top" xlink:title="cli_parser::id">
<polygon fill="white" stroke="black" points="479.655,-420 479.655,-440 552.345,-440 552.345,-420 479.655,-420"/>
<text text-anchor="middle" x="516" y="-426" font-family="Helvetica,sans-Serif" font-size="10.00">cli_parser::id</text>
</a>
</g>
</g>
<!-- Node26&#45;&gt;Node38 -->
<g id="edge40" class="edge"><title>Node26&#45;&gt;Node38</title>
<path fill="none" stroke="midnightblue" d="M345.85,-655.601C353.182,-611.052 376.912,-504.616 442,-449 452.354,-440.152 466.344,-435.358 479.306,-432.783"/>
<polygon fill="midnightblue" stroke="midnightblue" points="342.385,-655.109 344.324,-665.525 349.304,-656.173 342.385,-655.109"/>
</g>
<!-- Node39 -->
<g id="node39" class="node"><title>Node39</title>
<g id="a_node39"><a xlink:href="classcli__parser.html#a234250dbc9273e6f48883a49c01e7243" target="_top" xlink:title="cli_parser::kind">
<polygon fill="white" stroke="black" points="474.375,-627 474.375,-647 557.625,-647 557.625,-627 474.375,-627"/>
<text text-anchor="middle" x="516" y="-633" font-family="Helvetica,sans-Serif" font-size="10.00">cli_parser::kind</text>
</a>
</g>
</g>
<!-- Node26&#45;&gt;Node39 -->
<g id="edge41" class="edge"><title>Node26&#45;&gt;Node39</title>
<path fill="none" stroke="midnightblue" d="M379.567,-667.709C407.269,-661.427 445.333,-652.797 474.054,-646.284"/>
<polygon fill="midnightblue" stroke="midnightblue" points="378.477,-664.367 369.498,-669.992 380.024,-671.194 378.477,-664.367"/>
</g>
<!-- Node40 -->
<g id="node40" class="node"><title>Node40</title>
<g id="a_node40"><a xlink:href="classcli__parser.html#a09f3fbb3fc414f90176242c76b6938f1" target="_top" xlink:title="cli_parser::mode">
<polygon fill="white" stroke="black" points="471.04,-381 471.04,-401 560.96,-401 560.96,-381 471.04,-381"/>
<text text-anchor="middle" x="516" y="-387" font-family="Helvetica,sans-Serif" font-size="10.00">cli_parser::mode</text>
</a>
</g>
</g>
<!-- Node26&#45;&gt;Node40 -->
<g id="edge43" class="edge"><title>Node26&#45;&gt;Node40</title>
<path fill="none" stroke="midnightblue" d="M347.909,-655.934C361.958,-600.06 403.775,-444.524 442,-410 449.969,-402.802 460.323,-398.266 470.716,-395.425"/>
<polygon fill="midnightblue" stroke="midnightblue" points="344.493,-655.166 345.478,-665.715 351.287,-656.854 344.493,-655.166"/>
</g>
<!-- Node41 -->
<g id="node41" class="node"><title>Node41</title>
<g id="a_node41"><a xlink:href="classcli__parser.html#a183aac4f38a81619dc8c0a2b3e857557" target="_top" xlink:title="cli_parser::name">
<polygon fill="white" stroke="red" points="471.04,-1068 471.04,-1088 560.96,-1088 560.96,-1068 471.04,-1068"/>
<text text-anchor="middle" x="516" y="-1074" font-family="Helvetica,sans-Serif" font-size="10.00">cli_parser::name</text>
</a>
</g>
</g>
<!-- Node26&#45;&gt;Node41 -->
<g id="edge44" class="edge"><title>Node26&#45;&gt;Node41</title>
<path fill="none" stroke="midnightblue" d="M378.374,-689.31C388.923,-695.013 399.416,-702.771 406,-713 447.718,-777.818 392.125,-999.227 442,-1058 449.312,-1066.62 459.95,-1071.7 470.853,-1074.65"/>
<polygon fill="midnightblue" stroke="midnightblue" points="379.708,-686.066 369.187,-684.818 376.633,-692.355 379.708,-686.066"/>
</g>
<!-- Node42 -->
<g id="node42" class="node"><title>Node42</title>
<g id="a_node42"><a xlink:href="error__handler_8hpp.html#a02569910dcabd52d109a2188de8393d8" target="_top" xlink:title="operator\&lt;\&lt;">
<polygon fill="white" stroke="black" points="483.537,-1029 483.537,-1049 548.463,-1049 548.463,-1029 483.537,-1029"/>
<text text-anchor="middle" x="516" y="-1035" font-family="Helvetica,sans-Serif" font-size="10.00">operator&lt;&lt;</text>
</a>
</g>
</g>
<!-- Node26&#45;&gt;Node42 -->
<g id="edge47" class="edge"><title>Node26&#45;&gt;Node42</title>
<path fill="none" stroke="midnightblue" d="M378.551,-689.5C389.009,-695.192 399.403,-702.896 406,-713 480.866,-827.661 352.714,-915.174 442,-1019 452.196,-1030.86 468.687,-1036.01 483.417,-1038.13"/>
<polygon fill="midnightblue" stroke="midnightblue" points="379.955,-686.29 369.438,-685.005 376.858,-692.568 379.955,-686.29"/>
</g>
<!-- Node43 -->
<g id="node43" class="node"><title>Node43</title>
<g id="a_node43"><a xlink:href="library__manager_8hpp.html#a45c69beabf89ab5179d9a435fe3570f3" target="_top" xlink:title="print">
<polygon fill="white" stroke="black" points="498.273,-990 498.273,-1010 533.727,-1010 533.727,-990 498.273,-990"/>
<text text-anchor="middle" x="516" y="-996" font-family="Helvetica,sans-Serif" font-size="10.00">print</text>
</a>
</g>
</g>
<!-- Node26&#45;&gt;Node43 -->
<g id="edge48" class="edge"><title>Node26&#45;&gt;Node43</title>
<path fill="none" stroke="midnightblue" d="M378.45,-689.566C388.902,-695.263 399.318,-702.952 406,-713 472.31,-812.704 363.162,-889.876 442,-980 455.93,-995.924 481.212,-999.729 498.057,-1000.36"/>
<polygon fill="midnightblue" stroke="midnightblue" points="379.864,-686.361 369.349,-685.064 376.76,-692.635 379.864,-686.361"/>
</g>
<!-- Node44 -->
<g id="node44" class="node"><title>Node44</title>
<g id="a_node44"><a xlink:href="classinf.html#abc053ac05cd7ae515e8347c11547037b" target="_top" xlink:title="inf::restore">
<polygon fill="white" stroke="black" points="484.379,-951 484.379,-971 547.621,-971 547.621,-951 484.379,-951"/>
<text text-anchor="middle" x="516" y="-957" font-family="Helvetica,sans-Serif" font-size="10.00">inf::restore</text>
</a>
</g>
</g>
<!-- Node26&#45;&gt;Node44 -->
<g id="edge49" class="edge"><title>Node26&#45;&gt;Node44</title>
<path fill="none" stroke="midnightblue" d="M378.316,-689.656C388.76,-695.358 399.205,-703.028 406,-713 463.772,-797.775 373.587,-864.553 442,-941 452.603,-952.848 469.492,-957.965 484.355,-960.065"/>
<polygon fill="midnightblue" stroke="midnightblue" points="379.744,-686.457 369.23,-685.144 376.63,-692.727 379.744,-686.457"/>
</g>
<!-- Node45 -->
<g id="node45" class="node"><title>Node45</title>
<g id="a_node45"><a xlink:href="classrestore__context__body.html#a6cccd3f4482a18b4cbf87bd62fe99f10" target="_top" xlink:title="restore_context_body\l::restore_context_body">
<polygon fill="white" stroke="black" points="457.136,-900 457.136,-932 574.864,-932 574.864,-900 457.136,-900"/>
<text text-anchor="start" x="465.136" y="-918" font-family="Helvetica,sans-Serif" font-size="10.00">restore_context_body</text>
<text text-anchor="middle" x="516" y="-906" font-family="Helvetica,sans-Serif" font-size="10.00">::restore_context_body</text>
</a>
</g>
</g>
<!-- Node26&#45;&gt;Node45 -->
<g id="edge50" class="edge"><title>Node26&#45;&gt;Node45</title>
<path fill="none" stroke="midnightblue" d="M378.312,-689.976C388.656,-695.674 399.044,-703.26 406,-713 452.658,-778.326 389.39,-829.365 442,-890 446.232,-894.878 451.443,-898.84 457.118,-902.059"/>
<polygon fill="midnightblue" stroke="midnightblue" points="379.826,-686.82 369.32,-685.449 376.678,-693.072 379.826,-686.82"/>
</g>
<!-- Node39&#45;&gt;Node25 -->
<g id="edge42" class="edge"><title>Node39&#45;&gt;Node25</title>
<path fill="none" stroke="midnightblue" d="M567.985,-637C586.692,-637 607.719,-637 625.875,-637"/>
<polygon fill="midnightblue" stroke="midnightblue" points="567.865,-633.5 557.865,-637 567.865,-640.5 567.865,-633.5"/>
</g>
<!-- Node41&#45;&gt;Node11 -->
<g id="edge46" class="edge"><title>Node41&#45;&gt;Node11</title>
<path fill="none" stroke="midnightblue" d="M557.225,-1091.32C567.92,-1094.98 579.435,-1099.04 590,-1103 609.908,-1110.46 632.266,-1119.63 648.441,-1126.41"/>
<polygon fill="midnightblue" stroke="midnightblue" points="558.278,-1087.98 547.683,-1088.08 556.026,-1094.61 558.278,-1087.98"/>
</g>
<!-- Node41&#45;&gt;Node25 -->
<g id="edge45" class="edge"><title>Node41&#45;&gt;Node25</title>
<path fill="none" stroke="midnightblue" d="M571.006,-1070.72C578.146,-1067.74 584.784,-1063.64 590,-1058 648.14,-995.18 667.192,-705.413 670.462,-647.202"/>
<polygon fill="midnightblue" stroke="midnightblue" points="569.377,-1067.58 561.045,-1074.12 571.64,-1074.2 569.377,-1067.58"/>
</g>
<!-- Node48&#45;&gt;Node12 -->
<g id="edge58" class="edge"><title>Node48&#45;&gt;Node12</title>
<path fill="none" stroke="midnightblue" d="M717.985,-1175C730.745,-1175 743.909,-1175 754.047,-1175"/>
<polygon fill="midnightblue" stroke="midnightblue" points="717.904,-1171.5 707.904,-1175 717.904,-1178.5 717.904,-1171.5"/>
</g>
<!-- Node50 -->
<g id="node50" class="node"><title>Node50</title>
<g id="a_node50"><a xlink:href="class__debug__trace.html#af662d6c484b3ec12fabac3ea4cb43490" target="_top" xlink:title="_debug_trace::do_report">
<polygon fill="white" stroke="red" points="279.237,-0 279.237,-20 404.763,-20 404.763,-0 279.237,-0"/>
<text text-anchor="middle" x="342" y="-6" font-family="Helvetica,sans-Serif" font-size="10.00">_debug_trace::do_report</text>
</a>
</g>
</g>
<!-- Node49&#45;&gt;Node50 -->
<g id="edge60" class="edge"><title>Node49&#45;&gt;Node50</title>
<path fill="none" stroke="midnightblue" d="M227.72,-39.3689C251.568,-33.1861 279.879,-25.8461 302.233,-20.0507"/>
<polygon fill="midnightblue" stroke="midnightblue" points="226.605,-36.0423 217.803,-41.94 228.361,-42.8182 226.605,-36.0423"/>
</g>
</g>
</svg>
