<?xml version="1.0" encoding="UTF-8" standalone="no"?>
<!DOCTYPE svg PUBLIC "-//W3C//DTD SVG 1.1//EN"
 "http://www.w3.org/Graphics/SVG/1.1/DTD/svg11.dtd">
<!-- Generated by graphviz version 2.32.0 (20130916.1925)
 -->
<!-- Title: filespec_to_path Pages: 1 -->
<svg width="838pt" height="342pt"
 viewBox="0.00 0.00 838.00 342.42" xmlns="http://www.w3.org/2000/svg" xmlns:xlink="http://www.w3.org/1999/xlink">
<g id="graph0" class="graph" transform="scale(1 1) rotate(0) translate(4 338.415)">
<title>filespec_to_path</title>
<polygon fill="white" stroke="white" points="-4,5 -4,-338.415 835,-338.415 835,5 -4,5"/>
<!-- Node1 -->
<g id="node1" class="node"><title>Node1</title>
<polygon fill="#bfbfbf" stroke="black" points="0.583984,-236.415 0.583984,-256.415 89.416,-256.415 89.416,-236.415 0.583984,-236.415"/>
<text text-anchor="middle" x="45" y="-242.415" font-family="Helvetica,sans-Serif" font-size="10.00">filespec_to_path</text>
</g>
<!-- Node2 -->
<g id="node2" class="node"><title>Node2</title>
<g id="a_node2"><a xlink:href="file__system_8cpp.html#a467c458d7b033b6892d5179b0a9a3729" target="_top" xlink:title="filespec_to_path">
<polygon fill="white" stroke="black" points="126.584,-256.415 126.584,-276.415 215.416,-276.415 215.416,-256.415 126.584,-256.415"/>
<text text-anchor="middle" x="171" y="-262.415" font-family="Helvetica,sans-Serif" font-size="10.00">filespec_to_path</text>
</a>
</g>
</g>
<!-- Node1&#45;&gt;Node2 -->
<g id="edge1" class="edge"><title>Node1&#45;&gt;Node2</title>
<path fill="none" stroke="midnightblue" d="M89.7178,-253.466C98.3302,-254.855 107.459,-256.328 116.355,-257.763"/>
<polygon fill="midnightblue" stroke="midnightblue" points="115.829,-261.223 126.259,-259.36 116.944,-254.312 115.829,-261.223"/>
</g>
<!-- Node16 -->
<g id="node16" class="node"><title>Node16</title>
<g id="a_node16"><a xlink:href="file__system_8cpp.html#ab55def90234bb568598fb6b43242c5bd" target="_top" xlink:title="folder_current">
<polygon fill="white" stroke="black" points="132.15,-217.415 132.15,-237.415 209.85,-237.415 209.85,-217.415 132.15,-217.415"/>
<text text-anchor="middle" x="171" y="-223.415" font-family="Helvetica,sans-Serif" font-size="10.00">folder_current</text>
</a>
</g>
</g>
<!-- Node1&#45;&gt;Node16 -->
<g id="edge24" class="edge"><title>Node1&#45;&gt;Node16</title>
<path fill="none" stroke="midnightblue" d="M89.7178,-239.716C100.18,-238.113 111.405,-236.393 122.048,-234.763"/>
<polygon fill="midnightblue" stroke="midnightblue" points="122.674,-238.208 132.028,-233.233 121.614,-231.288 122.674,-238.208"/>
</g>
<!-- Node3 -->
<g id="node3" class="node"><title>Node3</title>
<g id="a_node3"><a xlink:href="file__system_8cpp.html#a62475ca973dfe0094c00d60286c7c286" target="_top" xlink:title="create_filespec">
<polygon fill="white" stroke="black" points="368.37,-314.415 368.37,-334.415 451.63,-334.415 451.63,-314.415 368.37,-314.415"/>
<text text-anchor="middle" x="410" y="-320.415" font-family="Helvetica,sans-Serif" font-size="10.00">create_filespec</text>
</a>
</g>
</g>
<!-- Node2&#45;&gt;Node3 -->
<g id="edge2" class="edge"><title>Node2&#45;&gt;Node3</title>
<path fill="none" stroke="midnightblue" d="M205.351,-276.493C219.659,-280.689 236.596,-285.488 252,-289.415 287.252,-298.403 327.283,-307.307 358.1,-313.885"/>
<polygon fill="midnightblue" stroke="midnightblue" points="357.668,-317.371 368.177,-316.023 359.121,-310.524 357.668,-317.371"/>
</g>
<!-- Node5 -->
<g id="node5" class="node"><title>Node5</title>
<g id="a_node5"><a xlink:href="file__system_8cpp.html#acf89fa1738d4f789e4cc5b9c3c3bec72" target="_top" xlink:title="filename_part">
<polygon fill="white" stroke="black" points="371.705,-275.415 371.705,-295.415 448.295,-295.415 448.295,-275.415 371.705,-275.415"/>
<text text-anchor="middle" x="410" y="-281.415" font-family="Helvetica,sans-Serif" font-size="10.00">filename_part</text>
</a>
</g>
</g>
<!-- Node2&#45;&gt;Node5 -->
<g id="edge4" class="edge"><title>Node2&#45;&gt;Node5</title>
<path fill="none" stroke="midnightblue" d="M215.469,-269.9C256.826,-273.215 318.896,-278.192 361.529,-281.609"/>
<polygon fill="midnightblue" stroke="midnightblue" points="361.407,-285.111 371.655,-282.421 361.967,-278.133 361.407,-285.111"/>
</g>
<!-- Node6 -->
<g id="node6" class="node"><title>Node6</title>
<g id="a_node6"><a xlink:href="file__system_8cpp.html#acb48f4675dcd897962719fcc704fa980" target="_top" xlink:title="folder_part">
<polygon fill="white" stroke="black" points="260.096,-236.415 260.096,-256.415 323.904,-256.415 323.904,-236.415 260.096,-236.415"/>
<text text-anchor="middle" x="292" y="-242.415" font-family="Helvetica,sans-Serif" font-size="10.00">folder_part</text>
</a>
</g>
</g>
<!-- Node2&#45;&gt;Node6 -->
<g id="edge6" class="edge"><title>Node2&#45;&gt;Node6</title>
<path fill="none" stroke="midnightblue" d="M215.635,-259.081C226.91,-257.186 239.004,-255.154 250.132,-253.284"/>
<polygon fill="midnightblue" stroke="midnightblue" points="250.746,-256.73 260.028,-251.62 249.586,-249.826 250.746,-256.73"/>
</g>
<!-- Node7 -->
<g id="node7" class="node"><title>Node7</title>
<g id="a_node7"><a xlink:href="file__system_8cpp.html#a43fc3ab8b60b46427572a1c6d14ce91d" target="_top" xlink:title="folder_to_path">
<polygon fill="white" stroke="black" points="252.03,-134.415 252.03,-154.415 331.97,-154.415 331.97,-134.415 252.03,-134.415"/>
<text text-anchor="middle" x="292" y="-140.415" font-family="Helvetica,sans-Serif" font-size="10.00">folder_to_path</text>
</a>
</g>
</g>
<!-- Node2&#45;&gt;Node7 -->
<g id="edge8" class="edge"><title>Node2&#45;&gt;Node7</title>
<path fill="none" stroke="midnightblue" d="M199.785,-256.395C205.468,-253.649 211.178,-250.328 216,-246.415 244.992,-222.889 268.53,-185.676 281.088,-163.297"/>
<polygon fill="midnightblue" stroke="midnightblue" points="284.209,-164.884 285.923,-154.429 278.063,-161.533 284.209,-164.884"/>
</g>
<!-- Node4 -->
<g id="node4" class="node"><title>Node4</title>
<g id="a_node4"><a xlink:href="file__system_8cpp.html#a99e06c76afffe1f1d77f01c905b1a5fd" target="_top" xlink:title="is_separator">
<polygon fill="white" stroke="black" points="749.485,-236.415 749.485,-256.415 820.515,-256.415 820.515,-236.415 749.485,-236.415"/>
<text text-anchor="middle" x="785" y="-242.415" font-family="Helvetica,sans-Serif" font-size="10.00">is_separator</text>
</a>
</g>
</g>
<!-- Node3&#45;&gt;Node4 -->
<g id="edge3" class="edge"><title>Node3&#45;&gt;Node4</title>
<path fill="none" stroke="midnightblue" d="M451.894,-320.922C509.092,-315.378 615.869,-302.627 704,-278.415 720.642,-273.843 738.533,-266.892 753.166,-260.636"/>
<polygon fill="midnightblue" stroke="midnightblue" points="754.964,-263.669 762.722,-256.453 752.157,-257.257 754.964,-263.669"/>
</g>
<!-- Node5&#45;&gt;Node4 -->
<g id="edge5" class="edge"><title>Node5&#45;&gt;Node4</title>
<path fill="none" stroke="midnightblue" d="M448.577,-283.272C504.438,-279.845 612.617,-272.286 704,-260.415 715.572,-258.912 728.022,-256.917 739.574,-254.907"/>
<polygon fill="midnightblue" stroke="midnightblue" points="740.218,-258.347 749.449,-253.147 738.99,-251.455 740.218,-258.347"/>
</g>
<!-- Node6&#45;&gt;Node4 -->
<g id="edge7" class="edge"><title>Node6&#45;&gt;Node4</title>
<path fill="none" stroke="midnightblue" d="M324.087,-246.415C408.19,-246.415 640.478,-246.415 738.945,-246.415"/>
<polygon fill="midnightblue" stroke="midnightblue" points="739.162,-249.915 749.162,-246.415 739.162,-242.915 739.162,-249.915"/>
</g>
<!-- Node8 -->
<g id="node8" class="node"><title>Node8</title>
<g id="a_node8"><a xlink:href="file__system_8cpp.html#a30c94ed8ef34b2bc1716be7b002b79a3" target="_top" xlink:title="full_path">
<polygon fill="white" stroke="black" points="383.096,-89.415 383.096,-109.415 436.904,-109.415 436.904,-89.415 383.096,-89.415"/>
<text text-anchor="middle" x="410" y="-95.415" font-family="Helvetica,sans-Serif" font-size="10.00">full_path</text>
</a>
</g>
</g>
<!-- Node7&#45;&gt;Node8 -->
<g id="edge9" class="edge"><title>Node7&#45;&gt;Node8</title>
<path fill="none" stroke="midnightblue" d="M319.033,-134.316C335.152,-128.063 356.062,-119.951 373.666,-113.122"/>
<polygon fill="midnightblue" stroke="midnightblue" points="374.997,-116.36 383.054,-109.48 372.465,-109.834 374.997,-116.36"/>
</g>
<!-- Node9 -->
<g id="node9" class="node"><title>Node9</title>
<g id="a_node9"><a xlink:href="classfile__specification.html#aefefc9da1b64f7ed66a436750a88ffa2" target="_top" xlink:title="file_specification\l::initialise_folder">
<polygon fill="white" stroke="black" points="614.313,-19.415 614.313,-51.415 703.687,-51.415 703.687,-19.415 614.313,-19.415"/>
<text text-anchor="start" x="622.313" y="-37.415" font-family="Helvetica,sans-Serif" font-size="10.00">file_specification</text>
<text text-anchor="middle" x="659" y="-25.415" font-family="Helvetica,sans-Serif" font-size="10.00">::initialise_folder</text>
</a>
</g>
</g>
<!-- Node8&#45;&gt;Node9 -->
<g id="edge10" class="edge"><title>Node8&#45;&gt;Node9</title>
<path fill="none" stroke="midnightblue" d="M423.152,-89.3001C437.601,-77.9075 462.926,-59.8814 488,-51.415 525.416,-38.7812 569.927,-34.9634 604.016,-34.2075"/>
<polygon fill="midnightblue" stroke="midnightblue" points="604.291,-37.7041 614.242,-34.0649 604.194,-30.7048 604.291,-37.7041"/>
</g>
<!-- Node11 -->
<g id="node11" class="node"><title>Node11</title>
<g id="a_node11"><a xlink:href="classfile__specification.html#a5b8f1026354ff32bfc183da3f38f5ce7" target="_top" xlink:title="file_specification\l::absolute">
<polygon fill="white" stroke="black" points="614.313,-70.415 614.313,-102.415 703.687,-102.415 703.687,-70.415 614.313,-70.415"/>
<text text-anchor="start" x="622.313" y="-88.415" font-family="Helvetica,sans-Serif" font-size="10.00">file_specification</text>
<text text-anchor="middle" x="659" y="-76.415" font-family="Helvetica,sans-Serif" font-size="10.00">::absolute</text>
</a>
</g>
</g>
<!-- Node8&#45;&gt;Node11 -->
<g id="edge13" class="edge"><title>Node8&#45;&gt;Node11</title>
<path fill="none" stroke="midnightblue" d="M437.11,-101.759C470.042,-104.286 528.367,-107.33 578,-102.415 586.51,-101.572 595.455,-100.237 604.158,-98.6889"/>
<polygon fill="midnightblue" stroke="midnightblue" points="605.044,-102.084 614.221,-96.7899 603.746,-95.2049 605.044,-102.084"/>
</g>
<!-- Node12 -->
<g id="node12" class="node"><title>Node12</title>
<g id="a_node12"><a xlink:href="classfile__specification.html#a18e9d7a9b9dd1214d09ab5e843ea7806" target="_top" xlink:title="file_specification\l::relative">
<polygon fill="white" stroke="black" points="740.313,-70.415 740.313,-102.415 829.687,-102.415 829.687,-70.415 740.313,-70.415"/>
<text text-anchor="start" x="748.313" y="-88.415" font-family="Helvetica,sans-Serif" font-size="10.00">file_specification</text>
<text text-anchor="middle" x="785" y="-76.415" font-family="Helvetica,sans-Serif" font-size="10.00">::relative</text>
</a>
</g>
</g>
<!-- Node8&#45;&gt;Node12 -->
<g id="edge20" class="edge"><title>Node8&#45;&gt;Node12</title>
<path fill="none" stroke="midnightblue" d="M419.297,-89.3607C432.279,-74.3605 458.936,-46.3939 488,-32.415 539.3,-7.74122 557.306,-14.547 614,-9.41503 653.837,-5.8089 668.485,8.98751 704,-9.41503 728.634,-22.1794 719.604,-41.6064 740,-60.415 741.468,-61.7684 743.017,-63.0847 744.623,-64.3601"/>
<polygon fill="midnightblue" stroke="midnightblue" points="742.836,-67.3862 753,-70.3769 746.92,-61.7006 742.836,-67.3862"/>
</g>
<!-- Node13 -->
<g id="node13" class="node"><title>Node13</title>
<g id="a_node13"><a xlink:href="classfile__specification.html#a518bc2d13c74b0e00131c87fdd294f2b" target="_top" xlink:title="file_specification\l::image">
<polygon fill="white" stroke="black" points="488.313,-151.415 488.313,-183.415 577.687,-183.415 577.687,-151.415 488.313,-151.415"/>
<text text-anchor="start" x="496.313" y="-169.415" font-family="Helvetica,sans-Serif" font-size="10.00">file_specification</text>
<text text-anchor="middle" x="533" y="-157.415" font-family="Helvetica,sans-Serif" font-size="10.00">::image</text>
</a>
</g>
</g>
<!-- Node8&#45;&gt;Node13 -->
<g id="edge15" class="edge"><title>Node8&#45;&gt;Node13</title>
<path fill="none" stroke="midnightblue" d="M428.854,-109.449C446.072,-119.125 472.666,-134.07 494.537,-146.362"/>
<polygon fill="midnightblue" stroke="midnightblue" points="492.84,-149.422 503.272,-151.27 496.269,-143.32 492.84,-149.422"/>
</g>
<!-- Node15 -->
<g id="node15" class="node"><title>Node15</title>
<g id="a_node15"><a xlink:href="classfile__specification.html#a1c51930e39fad4d827a81b5b12a72752" target="_top" xlink:title="file_specification\l::make_absolute">
<polygon fill="white" stroke="black" points="488.311,-61.415 488.311,-93.415 577.689,-93.415 577.689,-61.415 488.311,-61.415"/>
<text text-anchor="start" x="496.311" y="-79.415" font-family="Helvetica,sans-Serif" font-size="10.00">file_specification</text>
<text text-anchor="middle" x="533" y="-67.415" font-family="Helvetica,sans-Serif" font-size="10.00">::make_absolute</text>
</a>
</g>
</g>
<!-- Node8&#45;&gt;Node15 -->
<g id="edge21" class="edge"><title>Node8&#45;&gt;Node15</title>
<path fill="none" stroke="midnightblue" d="M436.958,-94.6955C448.915,-92.5213 463.581,-89.8549 477.78,-87.2732"/>
<polygon fill="midnightblue" stroke="midnightblue" points="478.779,-90.6491 487.991,-85.4166 477.527,-83.762 478.779,-90.6491"/>
</g>
<!-- Node9&#45;&gt;Node4 -->
<g id="edge11" class="edge"><title>Node9&#45;&gt;Node4</title>
<path fill="none" stroke="midnightblue" d="M693.929,-51.5684C697.606,-54.1938 701.07,-57.142 704,-60.415 748.832,-110.497 771.324,-189.537 779.837,-226.332"/>
<polygon fill="midnightblue" stroke="midnightblue" points="776.467,-227.305 782.039,-236.317 783.303,-225.797 776.467,-227.305"/>
</g>
<!-- Node10 -->
<g id="node10" class="node"><title>Node10</title>
<g id="a_node10"><a xlink:href="classfile__specification.html#ab6e2c3cc492528550d2c4021d3a1c225" target="_top" xlink:title="file_specification\l::path">
<polygon fill="white" stroke="black" points="740.313,-19.415 740.313,-51.415 829.687,-51.415 829.687,-19.415 740.313,-19.415"/>
<text text-anchor="start" x="748.313" y="-37.415" font-family="Helvetica,sans-Serif" font-size="10.00">file_specification</text>
<text text-anchor="middle" x="785" y="-25.415" font-family="Helvetica,sans-Serif" font-size="10.00">::path</text>
</a>
</g>
</g>
<!-- Node9&#45;&gt;Node10 -->
<g id="edge12" class="edge"><title>Node9&#45;&gt;Node10</title>
<path fill="none" stroke="midnightblue" d="M703.718,-35.415C712.238,-35.415 721.263,-35.415 730.068,-35.415"/>
<polygon fill="midnightblue" stroke="midnightblue" points="730.259,-38.9151 740.259,-35.415 730.259,-31.9151 730.259,-38.9151"/>
</g>
<!-- Node11&#45;&gt;Node12 -->
<g id="edge14" class="edge"><title>Node11&#45;&gt;Node12</title>
<path fill="none" stroke="midnightblue" d="M703.718,-86.415C712.238,-86.415 721.263,-86.415 730.068,-86.415"/>
<polygon fill="midnightblue" stroke="midnightblue" points="730.259,-89.9151 740.259,-86.415 730.259,-82.9151 730.259,-89.9151"/>
</g>
<!-- Node13&#45;&gt;Node4 -->
<g id="edge19" class="edge"><title>Node13&#45;&gt;Node4</title>
<path fill="none" stroke="midnightblue" d="M577.833,-181.266C624.278,-195.943 697.063,-218.943 742.573,-233.324"/>
<polygon fill="midnightblue" stroke="midnightblue" points="741.539,-236.668 752.129,-236.344 743.648,-229.993 741.539,-236.668"/>
</g>
<!-- Node13&#45;&gt;Node11 -->
<g id="edge16" class="edge"><title>Node13&#45;&gt;Node11</title>
<path fill="none" stroke="midnightblue" d="M556.847,-151.344C579.446,-135.459 611.08,-113.261 614,-111.415 615.931,-110.194 617.923,-108.964 619.945,-107.738"/>
<polygon fill="midnightblue" stroke="midnightblue" points="622.074,-110.545 628.896,-102.439 618.508,-104.522 622.074,-110.545"/>
</g>
<!-- Node13&#45;&gt;Node12 -->
<g id="edge18" class="edge"><title>Node13&#45;&gt;Node12</title>
<path fill="none" stroke="midnightblue" d="M577.895,-169.745C613.225,-170.062 663.489,-166.935 704,-150.415 726.3,-141.321 747.39,-123.944 762.311,-109.589"/>
<polygon fill="midnightblue" stroke="midnightblue" points="764.901,-111.95 769.526,-102.418 759.966,-106.985 764.901,-111.95"/>
</g>
<!-- Node14 -->
<g id="node14" class="node"><title>Node14</title>
<g id="a_node14"><a xlink:href="string__utilities_8hpp.html#a657118c43fe44a8454311075655ac9d4" target="_top" xlink:title="vector_to_string">
<polygon fill="white" stroke="black" points="615.426,-121.415 615.426,-141.415 702.574,-141.415 702.574,-121.415 615.426,-121.415"/>
<text text-anchor="middle" x="659" y="-127.415" font-family="Helvetica,sans-Serif" font-size="10.00">vector_to_string</text>
</a>
</g>
</g>
<!-- Node13&#45;&gt;Node14 -->
<g id="edge17" class="edge"><title>Node13&#45;&gt;Node14</title>
<path fill="none" stroke="midnightblue" d="M577.718,-154.723C589.259,-151.372 601.728,-147.752 613.319,-144.387"/>
<polygon fill="midnightblue" stroke="midnightblue" points="614.606,-147.658 623.234,-141.509 612.654,-140.935 614.606,-147.658"/>
</g>
<!-- Node15&#45;&gt;Node9 -->
<g id="edge23" class="edge"><title>Node15&#45;&gt;Node9</title>
<path fill="none" stroke="midnightblue" d="M577.718,-62.6074C586.423,-59.6589 595.656,-56.5316 604.642,-53.4879"/>
<polygon fill="midnightblue" stroke="midnightblue" points="605.91,-56.7537 614.259,-50.2305 603.665,-50.1236 605.91,-56.7537"/>
</g>
<!-- Node15&#45;&gt;Node11 -->
<g id="edge22" class="edge"><title>Node15&#45;&gt;Node11</title>
<path fill="none" stroke="midnightblue" d="M577.718,-80.5881C586.238,-81.2065 595.263,-81.8616 604.068,-82.5006"/>
<polygon fill="midnightblue" stroke="midnightblue" points="604.032,-86.0071 614.259,-83.2403 604.539,-79.0255 604.032,-86.0071"/>
</g>
</g>
</svg>
