<?xml version="1.0" encoding="UTF-8" standalone="no"?>
<!DOCTYPE svg PUBLIC "-//W3C//DTD SVG 1.1//EN"
 "http://www.w3.org/Graphics/SVG/1.1/DTD/svg11.dtd">
<!-- Generated by graphviz version 2.32.0 (20130916.1925)
 -->
<!-- Title: folder_empty Pages: 1 -->
<svg width="310pt" height="28pt"
 viewBox="0.00 0.00 310.00 28.00" xmlns="http://www.w3.org/2000/svg" xmlns:xlink="http://www.w3.org/1999/xlink">
<g id="graph0" class="graph" transform="scale(1 1) rotate(0) translate(4 24)">
<title>folder_empty</title>
<polygon fill="white" stroke="white" points="-4,5 -4,-24 307,-24 307,5 -4,5"/>
<!-- Node1 -->
<g id="node1" class="node"><title>Node1</title>
<polygon fill="#bfbfbf" stroke="black" points="0.0961914,-0 0.0961914,-20 73.9038,-20 73.9038,-0 0.0961914,-0"/>
<text text-anchor="middle" x="37" y="-6" font-family="Helvetica,sans-Serif" font-size="10.00">folder_empty</text>
</g>
<!-- Node2 -->
<g id="node2" class="node"><title>Node2</title>
<g id="a_node2"><a xlink:href="file__system_8cpp.html#a62475ca973dfe0094c00d60286c7c286" target="_top" xlink:title="create_filespec">
<polygon fill="white" stroke="black" points="110.37,-0 110.37,-20 193.63,-20 193.63,-0 110.37,-0"/>
<text text-anchor="middle" x="152" y="-6" font-family="Helvetica,sans-Serif" font-size="10.00">create_filespec</text>
</a>
</g>
</g>
<!-- Node1&#45;&gt;Node2 -->
<g id="edge1" class="edge"><title>Node1&#45;&gt;Node2</title>
<path fill="none" stroke="midnightblue" d="M74.0646,-10C82.3281,-10 91.2657,-10 100.024,-10"/>
<polygon fill="midnightblue" stroke="midnightblue" points="100.173,-13.5001 110.173,-10 100.173,-6.5001 100.173,-13.5001"/>
</g>
<!-- Node3 -->
<g id="node3" class="node"><title>Node3</title>
<g id="a_node3"><a xlink:href="file__system_8cpp.html#a99e06c76afffe1f1d77f01c905b1a5fd" target="_top" xlink:title="is_separator">
<polygon fill="white" stroke="black" points="230.485,-0 230.485,-20 301.515,-20 301.515,-0 230.485,-0"/>
<text text-anchor="middle" x="266" y="-6" font-family="Helvetica,sans-Serif" font-size="10.00">is_separator</text>
</a>
</g>
</g>
<!-- Node2&#45;&gt;Node3 -->
<g id="edge2" class="edge"><title>Node2&#45;&gt;Node3</title>
<path fill="none" stroke="midnightblue" d="M193.751,-10C202.383,-10 211.537,-10 220.306,-10"/>
<polygon fill="midnightblue" stroke="midnightblue" points="220.368,-13.5001 230.368,-10 220.368,-6.5001 220.368,-13.5001"/>
</g>
</g>
</svg>
