<?xml version="1.0" encoding="UTF-8" standalone="no"?>
<!DOCTYPE svg PUBLIC "-//W3C//DTD SVG 1.1//EN"
 "http://www.w3.org/Graphics/SVG/1.1/DTD/svg11.dtd">
<!-- Generated by graphviz version 2.32.0 (20130916.1925)
 -->
<!-- Title: to_string Pages: 1 -->
<!--zoomable 531 -->
<svg id="main" version="1.1" xmlns="http://www.w3.org/2000/svg" xmlns:xlink="http://www.w3.org/1999/xlink" xml:space="preserve" onload="init(evt)">
        <defs>
                <circle id="rim" cx="0" cy="0" r="7"/>
                <circle id="rim2" cx="0" cy="0" r="3.5"/>
                <g id="zoomPlus">
                        <use xlink:href="#rim" fill="#404040">
                                <set attributeName="fill" to="#808080" begin="zoomplus.mouseover" end="zoomplus.mouseout"/>
                        </use>
                        <path d="M-4,0h8M0,-4v8" fill="none" stroke="white" stroke-width="1.5" pointer-events="none"/>
                </g>
                <g id="zoomMin">
                        <use xlink:href="#rim" fill="#404040">
                                <set attributeName="fill" to="#808080" begin="zoomminus.mouseover" end="zoomminus.mouseout"/>
                        </use>
                        <path d="M-4,0h8" fill="none" stroke="white" stroke-width="1.5" pointer-events="none"/>
                </g>
                <g id="dirArrow">
                        <path fill="none" stroke="white" stroke-width="1.5" d="M0,-3.0v7 M-2.5,-0.5L0,-3.0L2.5,-0.5"/>
                </g>
               <g id="resetDef">
                       <use xlink:href="#rim2" fill="#404040">
                               <set attributeName="fill" to="#808080" begin="reset.mouseover" end="reset.mouseout"/>
                       </use>
               </g>
        </defs>

<script type="text/javascript">
var viewWidth = 1672;
var viewHeight = 531;
var sectionId = 'dynsection-13';
</script>
<script xlink:href="svgpan.js"/>
<svg id="graph" class="graph">
<g id="viewport">
<title>to_string</title>
<polygon fill="white" stroke="white" points="-4,5 -4,-527 1669,-527 1669,5 -4,5"/>
<!-- Node1 -->
<g id="node1" class="node"><title>Node1</title>
<polygon fill="#bfbfbf" stroke="black" points="-0.177246,-117 -0.177246,-137 54.1772,-137 54.1772,-117 -0.177246,-117"/>
<text text-anchor="middle" x="27" y="-123" font-family="Helvetica,sans-Serif" font-size="10.00">to_string</text>
</g>
<!-- Node2 -->
<g id="node2" class="node"><title>Node2</title>
<g id="a_node2"><a xlink:href="classinf.html#a55e154dd170524c10dfb58a3efdfe374" target="_top" xlink:title="inf::abs">
<polygon fill="white" stroke="black" points="200.879,-156 200.879,-176 249.121,-176 249.121,-156 200.879,-156"/>
<text text-anchor="middle" x="225" y="-162" font-family="Helvetica,sans-Serif" font-size="10.00">inf::abs</text>
</a>
</g>
</g>
<!-- Node1&#45;&gt;Node2 -->
<g id="edge1" class="edge"><title>Node1&#45;&gt;Node2</title>
<path fill="none" stroke="midnightblue" d="M54.1987,-133.145C65.231,-135.673 78.2196,-138.572 90,-141 124.171,-148.043 163.426,-155.265 190.577,-160.125"/>
<polygon fill="midnightblue" stroke="midnightblue" points="190.25,-163.621 200.709,-161.929 191.477,-156.73 190.25,-163.621"/>
</g>
<!-- Node3 -->
<g id="node3" class="node"><title>Node3</title>
<g id="a_node3"><a xlink:href="classinf.html#a384aa051f74e75c1c2cc5968e55fba23" target="_top" xlink:title="inf::negative">
<polygon fill="white" stroke="black" points="556.037,-231 556.037,-251 625.963,-251 625.963,-231 556.037,-231"/>
<text text-anchor="middle" x="591" y="-237" font-family="Helvetica,sans-Serif" font-size="10.00">inf::negative</text>
</a>
</g>
</g>
<!-- Node1&#45;&gt;Node3 -->
<g id="edge57" class="edge"><title>Node1&#45;&gt;Node3</title>
<path fill="none" stroke="midnightblue" d="M54.313,-127C91.9329,-127 163.26,-127 224,-127 224,-127 224,-127 356,-127 430.82,-127 455.335,-127.365 520,-165 544.556,-179.292 565.523,-204.992 577.941,-222.512"/>
<polygon fill="midnightblue" stroke="midnightblue" points="575.093,-224.549 583.629,-230.825 580.87,-220.596 575.093,-224.549"/>
</g>
<!-- Node5 -->
<g id="node5" class="node"><title>Node5</title>
<g id="a_node5"><a xlink:href="error__handler_8cpp.html#aac3be3c13a6d90b39f966b6e897c0744" target="_top" xlink:title="to_string">
<polygon fill="white" stroke="black" points="793.823,-444 793.823,-464 848.177,-464 848.177,-444 793.823,-444"/>
<text text-anchor="middle" x="821" y="-450" font-family="Helvetica,sans-Serif" font-size="10.00">to_string</text>
</a>
</g>
</g>
<!-- Node1&#45;&gt;Node5 -->
<g id="edge58" class="edge"><title>Node1&#45;&gt;Node5</title>
<path fill="none" stroke="midnightblue" d="M28.2754,-137.325C30.5028,-198.709 50.3846,-513 224,-513 224,-513 224,-513 592,-513 666.311,-513 687.96,-517.831 758,-493 772.899,-487.718 787.948,-478.369 799.488,-470.149"/>
<polygon fill="midnightblue" stroke="midnightblue" points="801.613,-472.932 807.569,-464.169 797.448,-467.305 801.613,-472.932"/>
</g>
<!-- Node31 -->
<g id="node31" class="node"><title>Node31</title>
<g id="a_node31"><a xlink:href="inf_8cpp.html#a2fc4d47989d719ee98b5b1d9f1f469e8" target="_top" xlink:title="divide">
<polygon fill="white" stroke="black" points="94.936,-252 94.936,-272 137.064,-272 137.064,-252 94.936,-252"/>
<text text-anchor="middle" x="116" y="-258" font-family="Helvetica,sans-Serif" font-size="10.00">divide</text>
</a>
</g>
</g>
<!-- Node1&#45;&gt;Node31 -->
<g id="edge42" class="edge"><title>Node1&#45;&gt;Node31</title>
<path fill="none" stroke="midnightblue" d="M34.5391,-137.147C49.0877,-159.722 84.3153,-214.386 102.961,-243.319"/>
<polygon fill="midnightblue" stroke="midnightblue" points="100.026,-245.226 108.385,-251.735 105.91,-241.434 100.026,-245.226"/>
</g>
<!-- Node35 -->
<g id="node35" class="node"><title>Node35</title>
<g id="a_node35"><a xlink:href="textio_8cpp.html#ad0a882910bc0d2f516a4d2aade1febac" target="_top" xlink:title="hex">
<polygon fill="white" stroke="black" points="99.9385,-78 99.9385,-98 132.062,-98 132.062,-78 99.9385,-78"/>
<text text-anchor="middle" x="116" y="-84" font-family="Helvetica,sans-Serif" font-size="10.00">hex</text>
</a>
</g>
</g>
<!-- Node1&#45;&gt;Node35 -->
<g id="edge54" class="edge"><title>Node1&#45;&gt;Node35</title>
<path fill="none" stroke="midnightblue" d="M50.4047,-116.957C62.6405,-111.472 77.8144,-104.669 90.3804,-99.0364"/>
<polygon fill="midnightblue" stroke="midnightblue" points="92.0995,-102.101 99.7929,-94.817 89.2361,-95.7138 92.0995,-102.101"/>
</g>
<!-- Node38 -->
<g id="node38" class="node"><title>Node38</title>
<g id="a_node38"><a xlink:href="string__utilities_8cpp.html#a53db00652dcb105ecc80cb1081bdb880" target="_top" xlink:title="to_uint">
<polygon fill="white" stroke="black" points="92.9878,-39 92.9878,-59 139.012,-59 139.012,-39 92.9878,-39"/>
<text text-anchor="middle" x="116" y="-45" font-family="Helvetica,sans-Serif" font-size="10.00">to_uint</text>
</a>
</g>
</g>
<!-- Node1&#45;&gt;Node38 -->
<g id="edge59" class="edge"><title>Node1&#45;&gt;Node38</title>
<path fill="none" stroke="midnightblue" d="M38.2036,-116.614C50.2309,-104.534 70.992,-84.1812 90,-68 90.9807,-67.1652 91.9933,-66.3226 93.0236,-65.4808"/>
<polygon fill="midnightblue" stroke="midnightblue" points="95.3325,-68.1177 101.031,-59.1856 91.0061,-62.6147 95.3325,-68.1177"/>
</g>
<!-- Node39 -->
<g id="node39" class="node"><title>Node39</title>
<g id="a_node39"><a xlink:href="classinf.html#add701530de8480512a2008dfa6d8704c" target="_top" xlink:title="inf::zero">
<polygon fill="white" stroke="black" points="90.2144,-0 90.2144,-20 141.786,-20 141.786,-0 90.2144,-0"/>
<text text-anchor="middle" x="116" y="-6" font-family="Helvetica,sans-Serif" font-size="10.00">inf::zero</text>
</a>
</g>
</g>
<!-- Node1&#45;&gt;Node39 -->
<g id="edge60" class="edge"><title>Node1&#45;&gt;Node39</title>
<path fill="none" stroke="midnightblue" d="M32.9328,-116.734C42.2842,-97.9396 64,-57.3319 90,-29 90.7372,-28.1967 91.5118,-27.4029 92.3134,-26.6221"/>
<polygon fill="midnightblue" stroke="midnightblue" points="94.6745,-29.208 99.9796,-20.037 90.1133,-23.898 94.6745,-29.208"/>
</g>
<!-- Node2&#45;&gt;Node3 -->
<g id="edge2" class="edge"><title>Node2&#45;&gt;Node3</title>
<path fill="none" stroke="midnightblue" d="M249.43,-163.563C300.488,-159.154 424.834,-153.343 520,-189 540.193,-196.566 559.586,-211.811 572.817,-223.847"/>
<polygon fill="midnightblue" stroke="midnightblue" points="570.538,-226.508 580.212,-230.829 575.344,-221.419 570.538,-226.508"/>
</g>
<!-- Node25 -->
<g id="node25" class="node"><title>Node25</title>
<g id="a_node25"><a xlink:href="classinf.html#a5aac9972fdbdfeec0c4d5ed36cfde321" target="_top" xlink:title="inf::negate">
<polygon fill="white" stroke="black" points="323.648,-271 323.648,-291 386.352,-291 386.352,-271 323.648,-271"/>
<text text-anchor="middle" x="355" y="-277" font-family="Helvetica,sans-Serif" font-size="10.00">inf::negate</text>
</a>
</g>
</g>
<!-- Node2&#45;&gt;Node25 -->
<g id="edge35" class="edge"><title>Node2&#45;&gt;Node25</title>
<path fill="none" stroke="midnightblue" d="M232.495,-176.195C245.029,-195.165 274.308,-236.206 308,-261 310.514,-262.85 313.226,-264.574 316.031,-266.171"/>
<polygon fill="midnightblue" stroke="midnightblue" points="314.68,-269.412 325.179,-270.839 317.862,-263.176 314.68,-269.412"/>
</g>
<!-- Node4 -->
<g id="node4" class="node"><title>Node4</title>
<g id="a_node4"><a xlink:href="classinf.html#ac5de125801f26784c0e5dd76e15873d4" target="_top" xlink:title="inf::bit">
<polygon fill="white" stroke="black" points="688.66,-386 688.66,-406 731.34,-406 731.34,-386 688.66,-386"/>
<text text-anchor="middle" x="710" y="-392" font-family="Helvetica,sans-Serif" font-size="10.00">inf::bit</text>
</a>
</g>
</g>
<!-- Node3&#45;&gt;Node4 -->
<g id="edge3" class="edge"><title>Node3&#45;&gt;Node4</title>
<path fill="none" stroke="midnightblue" d="M599.677,-251.17C619.101,-276.903 670.415,-344.883 695.207,-377.727"/>
<polygon fill="midnightblue" stroke="midnightblue" points="692.629,-380.121 701.447,-385.994 698.216,-375.904 692.629,-380.121"/>
</g>
<!-- Node24 -->
<g id="node24" class="node"><title>Node24</title>
<g id="a_node24"><a xlink:href="classinf.html#aa310951ab90f77e2807976a26390edf5" target="_top" xlink:title="inf::indexable_bits">
<polygon fill="white" stroke="black" points="661.973,-289 661.973,-309 758.027,-309 758.027,-289 661.973,-289"/>
<text text-anchor="middle" x="710" y="-295" font-family="Helvetica,sans-Serif" font-size="10.00">inf::indexable_bits</text>
</a>
</g>
</g>
<!-- Node3&#45;&gt;Node24 -->
<g id="edge34" class="edge"><title>Node3&#45;&gt;Node24</title>
<path fill="none" stroke="midnightblue" d="M612.38,-251.103C630.889,-260.278 658.415,-273.924 679.358,-284.306"/>
<polygon fill="midnightblue" stroke="midnightblue" points="677.947,-287.513 688.461,-288.818 681.056,-281.241 677.947,-287.513"/>
</g>
<!-- Node4&#45;&gt;Node5 -->
<g id="edge4" class="edge"><title>Node4&#45;&gt;Node5</title>
<path fill="none" stroke="midnightblue" d="M729.986,-406.103C747.074,-415.196 772.413,-428.678 791.856,-439.024"/>
<polygon fill="midnightblue" stroke="midnightblue" points="790.393,-442.211 800.865,-443.818 793.682,-436.031 790.393,-442.211"/>
</g>
<!-- Node5&#45;&gt;Node5 -->
<g id="edge33" class="edge"><title>Node5&#45;&gt;Node5</title>
<path fill="none" stroke="midnightblue" d="M803.779,-464.048C795.924,-472.771 801.664,-482 821,-482 833.085,-482 839.859,-478.395 841.323,-473.562"/>
<polygon fill="midnightblue" stroke="midnightblue" points="844.648,-472.47 838.221,-464.048 837.993,-474.64 844.648,-472.47"/>
</g>
<!-- Node6 -->
<g id="node6" class="node"><title>Node6</title>
<g id="a_node6"><a xlink:href="classerror__position.html#a3f7ed498a2a6aa5343334b17bbdf4bbf" target="_top" xlink:title="error_position::column">
<polygon fill="white" stroke="black" points="890.532,-503 890.532,-523 1005.47,-523 1005.47,-503 890.532,-503"/>
<text text-anchor="middle" x="948" y="-509" font-family="Helvetica,sans-Serif" font-size="10.00">error_position::column</text>
</a>
</g>
</g>
<!-- Node5&#45;&gt;Node6 -->
<g id="edge5" class="edge"><title>Node5&#45;&gt;Node6</title>
<path fill="none" stroke="midnightblue" d="M835.702,-464.052C847.897,-472.641 866.467,-484.864 884,-493 889.075,-495.355 894.501,-497.538 899.961,-499.529"/>
<polygon fill="midnightblue" stroke="midnightblue" points="899.163,-502.956 909.758,-502.903 901.442,-496.338 899.163,-502.956"/>
</g>
<!-- Node7 -->
<g id="node7" class="node"><title>Node7</title>
<g id="a_node7"><a xlink:href="classerror__position.html#ac4739e90b92106a85b0f8c76e9198daf" target="_top" xlink:title="error_position::filename">
<polygon fill="white" stroke="black" points="887.751,-464 887.751,-484 1008.25,-484 1008.25,-464 887.751,-464"/>
<text text-anchor="middle" x="948" y="-470" font-family="Helvetica,sans-Serif" font-size="10.00">error_position::filename</text>
</a>
</g>
</g>
<!-- Node5&#45;&gt;Node7 -->
<g id="edge6" class="edge"><title>Node5&#45;&gt;Node7</title>
<path fill="none" stroke="midnightblue" d="M848.204,-458.193C856.939,-459.59 867.12,-461.219 877.564,-462.89"/>
<polygon fill="midnightblue" stroke="midnightblue" points="877.191,-466.375 887.618,-464.499 878.297,-459.463 877.191,-466.375"/>
</g>
<!-- Node8 -->
<g id="node8" class="node"><title>Node8</title>
<g id="a_node8"><a xlink:href="file__system_8cpp.html#a6982b54d454c07cc3f770f67c5d0b5ef" target="_top" xlink:title="filespec_to_relative_path">
<polygon fill="white" stroke="black" points="884.685,-425 884.685,-445 1011.31,-445 1011.31,-425 884.685,-425"/>
<text text-anchor="middle" x="948" y="-431" font-family="Helvetica,sans-Serif" font-size="10.00">filespec_to_relative_path</text>
</a>
</g>
</g>
<!-- Node5&#45;&gt;Node8 -->
<g id="edge7" class="edge"><title>Node5&#45;&gt;Node8</title>
<path fill="none" stroke="midnightblue" d="M848.204,-450.017C856.038,-448.826 865.035,-447.459 874.342,-446.044"/>
<polygon fill="midnightblue" stroke="midnightblue" points="875.16,-449.46 884.521,-444.497 874.108,-442.539 875.16,-449.46"/>
</g>
<!-- Node23 -->
<g id="node23" class="node"><title>Node23</title>
<g id="a_node23"><a xlink:href="classerror__position.html#af47fc5beec407412df713d56814af6fe" target="_top" xlink:title="error_position::line">
<polygon fill="white" stroke="black" points="898.867,-386 898.867,-406 997.133,-406 997.133,-386 898.867,-386"/>
<text text-anchor="middle" x="948" y="-392" font-family="Helvetica,sans-Serif" font-size="10.00">error_position::line</text>
</a>
</g>
</g>
<!-- Node5&#45;&gt;Node23 -->
<g id="edge32" class="edge"><title>Node5&#45;&gt;Node23</title>
<path fill="none" stroke="midnightblue" d="M836.227,-443.898C848.45,-435.564 866.776,-423.871 884,-416 889.282,-413.586 894.938,-411.345 900.614,-409.303"/>
<polygon fill="midnightblue" stroke="midnightblue" points="901.787,-412.601 910.121,-406.058 899.526,-405.976 901.787,-412.601"/>
</g>
<!-- Node9 -->
<g id="node9" class="node"><title>Node9</title>
<g id="a_node9"><a xlink:href="file__system_8cpp.html#a62475ca973dfe0094c00d60286c7c286" target="_top" xlink:title="create_filespec">
<polygon fill="white" stroke="black" points="1202.37,-445 1202.37,-465 1285.63,-465 1285.63,-445 1202.37,-445"/>
<text text-anchor="middle" x="1244" y="-451" font-family="Helvetica,sans-Serif" font-size="10.00">create_filespec</text>
</a>
</g>
</g>
<!-- Node8&#45;&gt;Node9 -->
<g id="edge8" class="edge"><title>Node8&#45;&gt;Node9</title>
<path fill="none" stroke="midnightblue" d="M1011.35,-439.241C1065.01,-442.892 1141.5,-448.095 1191.68,-451.509"/>
<polygon fill="midnightblue" stroke="midnightblue" points="1191.76,-455.022 1201.98,-452.209 1192.24,-448.038 1191.76,-455.022"/>
</g>
<!-- Node11 -->
<g id="node11" class="node"><title>Node11</title>
<g id="a_node11"><a xlink:href="file__system_8cpp.html#acf89fa1738d4f789e4cc5b9c3c3bec72" target="_top" xlink:title="filename_part">
<polygon fill="white" stroke="black" points="1205.7,-406 1205.7,-426 1282.3,-426 1282.3,-406 1205.7,-406"/>
<text text-anchor="middle" x="1244" y="-412" font-family="Helvetica,sans-Serif" font-size="10.00">filename_part</text>
</a>
</g>
</g>
<!-- Node8&#45;&gt;Node11 -->
<g id="edge10" class="edge"><title>Node8&#45;&gt;Node11</title>
<path fill="none" stroke="midnightblue" d="M1011.35,-430.971C1066.27,-427.421 1145.1,-422.327 1195.17,-419.091"/>
<polygon fill="midnightblue" stroke="midnightblue" points="1195.65,-422.568 1205.4,-418.43 1195.2,-415.582 1195.65,-422.568"/>
</g>
<!-- Node12 -->
<g id="node12" class="node"><title>Node12</title>
<g id="a_node12"><a xlink:href="file__system_8cpp.html#acb48f4675dcd897962719fcc704fa980" target="_top" xlink:title="folder_part">
<polygon fill="white" stroke="black" points="1075.1,-483 1075.1,-503 1138.9,-503 1138.9,-483 1075.1,-483"/>
<text text-anchor="middle" x="1107" y="-489" font-family="Helvetica,sans-Serif" font-size="10.00">folder_part</text>
</a>
</g>
</g>
<!-- Node8&#45;&gt;Node12 -->
<g id="edge12" class="edge"><title>Node8&#45;&gt;Node12</title>
<path fill="none" stroke="midnightblue" d="M982.184,-445.01C991.849,-448.066 1002.39,-451.538 1012,-455 1032.54,-462.4 1055.24,-471.549 1073.19,-479.016"/>
<polygon fill="midnightblue" stroke="midnightblue" points="1072.05,-482.334 1082.63,-482.969 1074.76,-475.877 1072.05,-482.334"/>
</g>
<!-- Node13 -->
<g id="node13" class="node"><title>Node13</title>
<g id="a_node13"><a xlink:href="file__system_8cpp.html#a154091f28159afef5c72b12cee64a9a0" target="_top" xlink:title="folder_to_relative_path">
<polygon fill="white" stroke="black" points="1048.13,-285 1048.13,-305 1165.87,-305 1165.87,-285 1048.13,-285"/>
<text text-anchor="middle" x="1107" y="-291" font-family="Helvetica,sans-Serif" font-size="10.00">folder_to_relative_path</text>
</a>
</g>
</g>
<!-- Node8&#45;&gt;Node13 -->
<g id="edge14" class="edge"><title>Node8&#45;&gt;Node13</title>
<path fill="none" stroke="midnightblue" d="M992.635,-424.941C999.447,-422.323 1006.16,-419.057 1012,-415 1050.75,-388.101 1081.1,-340.492 1095.97,-314.048"/>
<polygon fill="midnightblue" stroke="midnightblue" points="1099.17,-315.49 1100.9,-305.036 1093.03,-312.132 1099.17,-315.49"/>
</g>
<!-- Node10 -->
<g id="node10" class="node"><title>Node10</title>
<g id="a_node10"><a xlink:href="file__system_8cpp.html#a99e06c76afffe1f1d77f01c905b1a5fd" target="_top" xlink:title="is_separator">
<polygon fill="white" stroke="black" points="1583.49,-408 1583.49,-428 1654.51,-428 1654.51,-408 1583.49,-408"/>
<text text-anchor="middle" x="1619" y="-414" font-family="Helvetica,sans-Serif" font-size="10.00">is_separator</text>
</a>
</g>
</g>
<!-- Node9&#45;&gt;Node10 -->
<g id="edge9" class="edge"><title>Node9&#45;&gt;Node10</title>
<path fill="none" stroke="midnightblue" d="M1285.87,-452.68C1342.59,-449.226 1448.33,-441.941 1538,-431 1549.56,-429.59 1562.01,-427.733 1573.56,-425.865"/>
<polygon fill="midnightblue" stroke="midnightblue" points="1574.14,-429.317 1583.43,-424.232 1573,-422.41 1574.14,-429.317"/>
</g>
<!-- Node11&#45;&gt;Node10 -->
<g id="edge11" class="edge"><title>Node11&#45;&gt;Node10</title>
<path fill="none" stroke="midnightblue" d="M1282.47,-416.201C1351.5,-416.571 1498.46,-417.359 1572.85,-417.758"/>
<polygon fill="midnightblue" stroke="midnightblue" points="1573.26,-421.26 1583.28,-417.814 1573.3,-414.26 1573.26,-421.26"/>
</g>
<!-- Node12&#45;&gt;Node10 -->
<g id="edge13" class="edge"><title>Node12&#45;&gt;Node10</title>
<path fill="none" stroke="midnightblue" d="M1138.97,-492.655C1210.35,-491.25 1391.52,-484.199 1538,-449 1554.71,-444.985 1572.61,-438.292 1587.23,-432.151"/>
<polygon fill="midnightblue" stroke="midnightblue" points="1588.98,-435.207 1596.77,-428.027 1586.2,-428.781 1588.98,-435.207"/>
</g>
<!-- Node14 -->
<g id="node14" class="node"><title>Node14</title>
<g id="a_node14"><a xlink:href="file__system_8cpp.html#a0a5c33c34c3c47d4e15e955b7ac25681" target="_top" xlink:title="relative_path">
<polygon fill="white" stroke="black" points="1207.37,-225 1207.37,-245 1280.63,-245 1280.63,-225 1207.37,-225"/>
<text text-anchor="middle" x="1244" y="-231" font-family="Helvetica,sans-Serif" font-size="10.00">relative_path</text>
</a>
</g>
</g>
<!-- Node13&#45;&gt;Node14 -->
<g id="edge15" class="edge"><title>Node13&#45;&gt;Node14</title>
<path fill="none" stroke="midnightblue" d="M1130.6,-284.957C1152.6,-275.18 1186.24,-260.225 1210.99,-249.226"/>
<polygon fill="midnightblue" stroke="midnightblue" points="1212.61,-252.335 1220.33,-245.075 1209.77,-245.939 1212.61,-252.335"/>
</g>
<!-- Node15 -->
<g id="node15" class="node"><title>Node15</title>
<g id="a_node15"><a xlink:href="classfile__specification.html#a518bc2d13c74b0e00131c87fdd294f2b" target="_top" xlink:title="file_specification\l::image">
<polygon fill="white" stroke="black" points="1322.31,-293 1322.31,-325 1411.69,-325 1411.69,-293 1322.31,-293"/>
<text text-anchor="start" x="1330.31" y="-311" font-family="Helvetica,sans-Serif" font-size="10.00">file_specification</text>
<text text-anchor="middle" x="1367" y="-299" font-family="Helvetica,sans-Serif" font-size="10.00">::image</text>
</a>
</g>
</g>
<!-- Node14&#45;&gt;Node15 -->
<g id="edge16" class="edge"><title>Node14&#45;&gt;Node15</title>
<path fill="none" stroke="midnightblue" d="M1260.86,-245.039C1276.38,-254.828 1300.72,-270.085 1322,-283 1324.49,-284.511 1327.06,-286.061 1329.66,-287.617"/>
<polygon fill="midnightblue" stroke="midnightblue" points="1328.1,-290.76 1338.48,-292.873 1331.68,-284.747 1328.1,-290.76"/>
</g>
<!-- Node17 -->
<g id="node17" class="node"><title>Node17</title>
<g id="a_node17"><a xlink:href="classfile__specification.html#a18e9d7a9b9dd1214d09ab5e843ea7806" target="_top" xlink:title="file_specification\l::relative">
<polygon fill="white" stroke="black" points="1574.31,-242 1574.31,-274 1663.69,-274 1663.69,-242 1574.31,-242"/>
<text text-anchor="start" x="1582.31" y="-260" font-family="Helvetica,sans-Serif" font-size="10.00">file_specification</text>
<text text-anchor="middle" x="1619" y="-248" font-family="Helvetica,sans-Serif" font-size="10.00">::relative</text>
</a>
</g>
</g>
<!-- Node14&#45;&gt;Node17 -->
<g id="edge31" class="edge"><title>Node14&#45;&gt;Node17</title>
<path fill="none" stroke="midnightblue" d="M1249.58,-224.95C1259.44,-204.711 1284.82,-159.486 1322,-142 1358.2,-124.976 1372.07,-139.632 1412,-142 1468.3,-145.339 1492.13,-124.192 1538,-157 1568.07,-178.51 1549.01,-204.753 1574,-232 1575.15,-233.259 1576.38,-234.475 1577.67,-235.648"/>
<polygon fill="midnightblue" stroke="midnightblue" points="1575.54,-238.421 1585.55,-241.893 1579.88,-232.937 1575.54,-238.421"/>
</g>
<!-- Node19 -->
<g id="node19" class="node"><title>Node19</title>
<g id="a_node19"><a xlink:href="classfile__specification.html#aefefc9da1b64f7ed66a436750a88ffa2" target="_top" xlink:title="file_specification\l::initialise_folder">
<polygon fill="white" stroke="black" points="1448.31,-191 1448.31,-223 1537.69,-223 1537.69,-191 1448.31,-191"/>
<text text-anchor="start" x="1456.31" y="-209" font-family="Helvetica,sans-Serif" font-size="10.00">file_specification</text>
<text text-anchor="middle" x="1493" y="-197" font-family="Helvetica,sans-Serif" font-size="10.00">::initialise_folder</text>
</a>
</g>
</g>
<!-- Node14&#45;&gt;Node19 -->
<g id="edge22" class="edge"><title>Node14&#45;&gt;Node19</title>
<path fill="none" stroke="midnightblue" d="M1280.65,-230.958C1321.85,-226.288 1390.09,-218.553 1437.85,-213.138"/>
<polygon fill="midnightblue" stroke="midnightblue" points="1438.47,-216.59 1448.02,-211.986 1437.68,-209.635 1438.47,-216.59"/>
</g>
<!-- Node21 -->
<g id="node21" class="node"><title>Node21</title>
<g id="a_node21"><a xlink:href="classfile__specification.html#a1c51930e39fad4d827a81b5b12a72752" target="_top" xlink:title="file_specification\l::make_absolute">
<polygon fill="white" stroke="black" points="1322.31,-242 1322.31,-274 1411.69,-274 1411.69,-242 1322.31,-242"/>
<text text-anchor="start" x="1330.31" y="-260" font-family="Helvetica,sans-Serif" font-size="10.00">file_specification</text>
<text text-anchor="middle" x="1367" y="-248" font-family="Helvetica,sans-Serif" font-size="10.00">::make_absolute</text>
</a>
</g>
</g>
<!-- Node14&#45;&gt;Node21 -->
<g id="edge25" class="edge"><title>Node14&#45;&gt;Node21</title>
<path fill="none" stroke="midnightblue" d="M1280.65,-241.776C1290.48,-243.644 1301.36,-245.713 1311.98,-247.731"/>
<polygon fill="midnightblue" stroke="midnightblue" points="1311.55,-251.213 1322.03,-249.642 1312.86,-244.336 1311.55,-251.213"/>
</g>
<!-- Node22 -->
<g id="node22" class="node"><title>Node22</title>
<g id="a_node22"><a xlink:href="classfile__specification.html#a37f966146802536ffdb2f154e3df928f" target="_top" xlink:title="file_specification\l::make_relative">
<polygon fill="white" stroke="black" points="1322.31,-152 1322.31,-184 1411.69,-184 1411.69,-152 1322.31,-152"/>
<text text-anchor="start" x="1330.31" y="-170" font-family="Helvetica,sans-Serif" font-size="10.00">file_specification</text>
<text text-anchor="middle" x="1367" y="-158" font-family="Helvetica,sans-Serif" font-size="10.00">::make_relative</text>
</a>
</g>
</g>
<!-- Node14&#45;&gt;Node22 -->
<g id="edge28" class="edge"><title>Node14&#45;&gt;Node22</title>
<path fill="none" stroke="midnightblue" d="M1263.11,-224.969C1280.19,-215.515 1306.32,-201.047 1327.97,-189.058"/>
<polygon fill="midnightblue" stroke="midnightblue" points="1329.88,-192 1336.94,-184.093 1326.49,-185.876 1329.88,-192"/>
</g>
<!-- Node15&#45;&gt;Node10 -->
<g id="edge21" class="edge"><title>Node15&#45;&gt;Node10</title>
<path fill="none" stroke="midnightblue" d="M1404.89,-325.083C1453.71,-346.369 1539.01,-383.561 1585.51,-403.836"/>
<polygon fill="midnightblue" stroke="midnightblue" points="1584.26,-407.105 1594.82,-407.894 1587.05,-400.689 1584.26,-407.105"/>
</g>
<!-- Node16 -->
<g id="node16" class="node"><title>Node16</title>
<g id="a_node16"><a xlink:href="classfile__specification.html#a5b8f1026354ff32bfc183da3f38f5ce7" target="_top" xlink:title="file_specification\l::absolute">
<polygon fill="white" stroke="black" points="1448.31,-242 1448.31,-274 1537.69,-274 1537.69,-242 1448.31,-242"/>
<text text-anchor="start" x="1456.31" y="-260" font-family="Helvetica,sans-Serif" font-size="10.00">file_specification</text>
<text text-anchor="middle" x="1493" y="-248" font-family="Helvetica,sans-Serif" font-size="10.00">::absolute</text>
</a>
</g>
</g>
<!-- Node15&#45;&gt;Node16 -->
<g id="edge17" class="edge"><title>Node15&#45;&gt;Node16</title>
<path fill="none" stroke="midnightblue" d="M1407.23,-292.863C1418.77,-288.12 1431.52,-282.874 1443.56,-277.924"/>
<polygon fill="midnightblue" stroke="midnightblue" points="1445.1,-281.072 1453.02,-274.032 1442.44,-274.599 1445.1,-281.072"/>
</g>
<!-- Node15&#45;&gt;Node17 -->
<g id="edge20" class="edge"><title>Node15&#45;&gt;Node17</title>
<path fill="none" stroke="midnightblue" d="M1411.88,-321.897C1446.98,-329.978 1496.94,-336.403 1538,-322 1560.87,-313.978 1582.06,-296.366 1596.87,-281.645"/>
<polygon fill="midnightblue" stroke="midnightblue" points="1599.57,-283.892 1604.02,-274.276 1594.54,-279.02 1599.57,-283.892"/>
</g>
<!-- Node18 -->
<g id="node18" class="node"><title>Node18</title>
<g id="a_node18"><a xlink:href="string__utilities_8hpp.html#a657118c43fe44a8454311075655ac9d4" target="_top" xlink:title="vector_to_string">
<polygon fill="white" stroke="black" points="1449.43,-293 1449.43,-313 1536.57,-313 1536.57,-293 1449.43,-293"/>
<text text-anchor="middle" x="1493" y="-299" font-family="Helvetica,sans-Serif" font-size="10.00">vector_to_string</text>
</a>
</g>
</g>
<!-- Node15&#45;&gt;Node18 -->
<g id="edge19" class="edge"><title>Node15&#45;&gt;Node18</title>
<path fill="none" stroke="midnightblue" d="M1411.72,-306.885C1420.53,-306.458 1429.89,-306.005 1438.98,-305.565"/>
<polygon fill="midnightblue" stroke="midnightblue" points="1439.28,-309.055 1449.09,-305.076 1438.94,-302.064 1439.28,-309.055"/>
</g>
<!-- Node16&#45;&gt;Node17 -->
<g id="edge18" class="edge"><title>Node16&#45;&gt;Node17</title>
<path fill="none" stroke="midnightblue" d="M1537.72,-258C1546.24,-258 1555.26,-258 1564.07,-258"/>
<polygon fill="midnightblue" stroke="midnightblue" points="1564.26,-261.5 1574.26,-258 1564.26,-254.5 1564.26,-261.5"/>
</g>
<!-- Node19&#45;&gt;Node10 -->
<g id="edge23" class="edge"><title>Node19&#45;&gt;Node10</title>
<path fill="none" stroke="midnightblue" d="M1527.03,-223.305C1531.04,-226.172 1534.83,-229.406 1538,-233 1582.25,-283.189 1605.03,-361.618 1613.73,-398.098"/>
<polygon fill="midnightblue" stroke="midnightblue" points="1610.35,-399.021 1615.98,-407.994 1617.17,-397.467 1610.35,-399.021"/>
</g>
<!-- Node20 -->
<g id="node20" class="node"><title>Node20</title>
<g id="a_node20"><a xlink:href="classfile__specification.html#ab6e2c3cc492528550d2c4021d3a1c225" target="_top" xlink:title="file_specification\l::path">
<polygon fill="white" stroke="black" points="1574.31,-191 1574.31,-223 1663.69,-223 1663.69,-191 1574.31,-191"/>
<text text-anchor="start" x="1582.31" y="-209" font-family="Helvetica,sans-Serif" font-size="10.00">file_specification</text>
<text text-anchor="middle" x="1619" y="-197" font-family="Helvetica,sans-Serif" font-size="10.00">::path</text>
</a>
</g>
</g>
<!-- Node19&#45;&gt;Node20 -->
<g id="edge24" class="edge"><title>Node19&#45;&gt;Node20</title>
<path fill="none" stroke="midnightblue" d="M1537.72,-207C1546.24,-207 1555.26,-207 1564.07,-207"/>
<polygon fill="midnightblue" stroke="midnightblue" points="1564.26,-210.5 1574.26,-207 1564.26,-203.5 1564.26,-210.5"/>
</g>
<!-- Node21&#45;&gt;Node16 -->
<g id="edge26" class="edge"><title>Node21&#45;&gt;Node16</title>
<path fill="none" stroke="midnightblue" d="M1411.72,-258C1420.24,-258 1429.26,-258 1438.07,-258"/>
<polygon fill="midnightblue" stroke="midnightblue" points="1438.26,-261.5 1448.26,-258 1438.26,-254.5 1438.26,-261.5"/>
</g>
<!-- Node21&#45;&gt;Node19 -->
<g id="edge27" class="edge"><title>Node21&#45;&gt;Node19</title>
<path fill="none" stroke="midnightblue" d="M1407.23,-241.863C1418.77,-237.12 1431.52,-231.874 1443.56,-226.924"/>
<polygon fill="midnightblue" stroke="midnightblue" points="1445.1,-230.072 1453.02,-223.032 1442.44,-223.599 1445.1,-230.072"/>
</g>
<!-- Node22&#45;&gt;Node17 -->
<g id="edge29" class="edge"><title>Node22&#45;&gt;Node17</title>
<path fill="none" stroke="midnightblue" d="M1411.8,-161.537C1448,-158.392 1499.51,-159.157 1538,-181 1562.13,-194.695 1553.6,-213.191 1574,-232 1575.47,-233.353 1577.02,-234.67 1578.62,-235.945"/>
<polygon fill="midnightblue" stroke="midnightblue" points="1576.84,-238.971 1587,-241.962 1580.92,-233.286 1576.84,-238.971"/>
</g>
<!-- Node22&#45;&gt;Node19 -->
<g id="edge30" class="edge"><title>Node22&#45;&gt;Node19</title>
<path fill="none" stroke="midnightblue" d="M1411.72,-181.75C1420.42,-184.488 1429.66,-187.392 1438.64,-190.218"/>
<polygon fill="midnightblue" stroke="midnightblue" points="1437.67,-193.581 1448.26,-193.243 1439.77,-186.904 1437.67,-193.581"/>
</g>
<!-- Node26 -->
<g id="node26" class="node"><title>Node26</title>
<g id="a_node26"><a xlink:href="classinf.html#aef39cc6679cc90549e51b80d33b9c472" target="_top" xlink:title="inf::invert">
<polygon fill="white" stroke="black" points="450.714,-270 450.714,-290 507.286,-290 507.286,-270 450.714,-270"/>
<text text-anchor="middle" x="479" y="-276" font-family="Helvetica,sans-Serif" font-size="10.00">inf::invert</text>
</a>
</g>
</g>
<!-- Node25&#45;&gt;Node26 -->
<g id="edge36" class="edge"><title>Node25&#45;&gt;Node26</title>
<path fill="none" stroke="midnightblue" d="M386.471,-280.75C402.719,-280.617 422.861,-280.452 440.11,-280.311"/>
<polygon fill="midnightblue" stroke="midnightblue" points="440.444,-283.808 450.415,-280.226 440.387,-276.808 440.444,-283.808"/>
</g>
<!-- Node27 -->
<g id="node27" class="node"><title>Node27</title>
<g id="a_node27"><a xlink:href="classinf.html#ab43e3c2bf3e60a02c99a8b55589a6143" target="_top" xlink:title="inf::operator+=">
<polygon fill="white" stroke="black" points="438.478,-309 438.478,-329 519.522,-329 519.522,-309 438.478,-309"/>
<text text-anchor="middle" x="479" y="-315" font-family="Helvetica,sans-Serif" font-size="10.00">inf::operator+=</text>
</a>
</g>
</g>
<!-- Node25&#45;&gt;Node27 -->
<g id="edge37" class="edge"><title>Node25&#45;&gt;Node27</title>
<path fill="none" stroke="midnightblue" d="M386.471,-290.491C401.433,-295.151 419.698,-300.84 435.964,-305.907"/>
<polygon fill="midnightblue" stroke="midnightblue" points="435.198,-309.334 445.786,-308.966 437.28,-302.651 435.198,-309.334"/>
</g>
<!-- Node29 -->
<g id="node29" class="node"><title>Node29</title>
<g id="a_node29"><a xlink:href="classinf.html#a3d93f2b8d84aae9a6d1f8e785358226d" target="_top" xlink:title="inf::inf">
<polygon fill="white" stroke="black" points="457.66,-348 457.66,-368 500.34,-368 500.34,-348 457.66,-348"/>
<text text-anchor="middle" x="479" y="-354" font-family="Helvetica,sans-Serif" font-size="10.00">inf::inf</text>
</a>
</g>
</g>
<!-- Node25&#45;&gt;Node29 -->
<g id="edge40" class="edge"><title>Node25&#45;&gt;Node29</title>
<path fill="none" stroke="midnightblue" d="M369.244,-291.094C385.137,-302.996 412.802,-323.048 438,-338 441.263,-339.936 444.739,-341.863 448.226,-343.712"/>
<polygon fill="midnightblue" stroke="midnightblue" points="446.852,-346.94 457.348,-348.38 450.041,-340.709 446.852,-346.94"/>
</g>
<!-- Node27&#45;&gt;Node3 -->
<g id="edge39" class="edge"><title>Node27&#45;&gt;Node3</title>
<path fill="none" stroke="midnightblue" d="M502.508,-308.871C508.352,-305.94 514.537,-302.562 520,-299 538.612,-286.865 557.923,-270.536 571.535,-258.296"/>
<polygon fill="midnightblue" stroke="midnightblue" points="574.196,-260.607 579.217,-251.278 569.474,-255.439 574.196,-260.607"/>
</g>
<!-- Node28 -->
<g id="node28" class="node"><title>Node28</title>
<g id="a_node28"><a xlink:href="os__fixes_8hpp.html#a418563f30bd2b652af3dc00761525380" target="_top" xlink:title="maximum">
<polygon fill="white" stroke="black" points="561.333,-308 561.333,-328 620.667,-328 620.667,-308 561.333,-308"/>
<text text-anchor="middle" x="591" y="-314" font-family="Helvetica,sans-Serif" font-size="10.00">maximum</text>
</a>
</g>
</g>
<!-- Node27&#45;&gt;Node28 -->
<g id="edge38" class="edge"><title>Node27&#45;&gt;Node28</title>
<path fill="none" stroke="midnightblue" d="M519.713,-318.639C529.852,-318.547 540.745,-318.448 550.856,-318.356"/>
<polygon fill="midnightblue" stroke="midnightblue" points="551.077,-321.854 561.045,-318.263 551.013,-314.854 551.077,-321.854"/>
</g>
<!-- Node30 -->
<g id="node30" class="node"><title>Node30</title>
<g id="a_node30"><a xlink:href="rc__polygon__edge_8h.html#a20b90bbf2be94c9dfdbadcdbe910eed4" target="_top" xlink:title="value_type">
<polygon fill="white" stroke="black" points="558.815,-347 558.815,-367 623.185,-367 623.185,-347 558.815,-347"/>
<text text-anchor="middle" x="591" y="-353" font-family="Helvetica,sans-Serif" font-size="10.00">value_type</text>
</a>
</g>
</g>
<!-- Node29&#45;&gt;Node30 -->
<g id="edge41" class="edge"><title>Node29&#45;&gt;Node30</title>
<path fill="none" stroke="midnightblue" d="M500.432,-357.814C513.786,-357.693 531.711,-357.53 548.017,-357.382"/>
<polygon fill="midnightblue" stroke="midnightblue" points="548.466,-360.878 558.434,-357.287 548.402,-353.878 548.466,-360.878"/>
</g>
<!-- Node31&#45;&gt;Node2 -->
<g id="edge43" class="edge"><title>Node31&#45;&gt;Node2</title>
<path fill="none" stroke="midnightblue" d="M123.92,-251.802C134.331,-237.014 155.244,-209.38 178,-191 182.419,-187.431 187.423,-184.114 192.461,-181.139"/>
<polygon fill="midnightblue" stroke="midnightblue" points="194.39,-184.073 201.451,-176.174 191.005,-177.945 194.39,-184.073"/>
</g>
<!-- Node31&#45;&gt;Node3 -->
<g id="edge48" class="edge"><title>Node31&#45;&gt;Node3</title>
<path fill="none" stroke="midnightblue" d="M137.2,-255.8C149.016,-252.317 164.266,-248.067 178,-245 275.63,-223.197 302.079,-218.227 402,-223 451.245,-225.352 507.499,-231.151 545.54,-235.536"/>
<polygon fill="midnightblue" stroke="midnightblue" points="545.426,-239.047 555.765,-236.731 546.239,-232.094 545.426,-239.047"/>
</g>
<!-- Node31&#45;&gt;Node5 -->
<g id="edge53" class="edge"><title>Node31&#45;&gt;Node5</title>
<path fill="none" stroke="midnightblue" d="M123.601,-272.049C148.738,-308.971 242.692,-435 354,-435 354,-435 354,-435 592,-435 659.845,-435 738.656,-443.458 783.596,-449.088"/>
<polygon fill="midnightblue" stroke="midnightblue" points="783.366,-452.587 793.728,-450.382 784.252,-445.643 783.366,-452.587"/>
</g>
<!-- Node31&#45;&gt;Node25 -->
<g id="edge47" class="edge"><title>Node31&#45;&gt;Node25</title>
<path fill="none" stroke="midnightblue" d="M137.206,-263.62C176.164,-266.743 262.327,-273.651 313.521,-277.755"/>
<polygon fill="midnightblue" stroke="midnightblue" points="313.329,-281.251 323.577,-278.561 313.889,-274.273 313.329,-281.251"/>
</g>
<!-- Node32 -->
<g id="node32" class="node"><title>Node32</title>
<g id="a_node32"><a xlink:href="classinf.html#a7740e9e1b85f5bb08fc4059d129519de" target="_top" xlink:title="inf::bits">
<polygon fill="white" stroke="black" points="567.16,-386 567.16,-406 614.84,-406 614.84,-386 567.16,-386"/>
<text text-anchor="middle" x="591" y="-392" font-family="Helvetica,sans-Serif" font-size="10.00">inf::bits</text>
</a>
</g>
</g>
<!-- Node31&#45;&gt;Node32 -->
<g id="edge44" class="edge"><title>Node31&#45;&gt;Node32</title>
<path fill="none" stroke="midnightblue" d="M137.178,-271.003C187.095,-292.878 320.814,-349.075 438,-377 478.266,-386.595 525.758,-391.546 556.804,-393.953"/>
<polygon fill="midnightblue" stroke="midnightblue" points="556.832,-397.465 567.06,-394.702 557.342,-390.483 556.832,-397.465"/>
</g>
<!-- Node33 -->
<g id="node33" class="node"><title>Node33</title>
<g id="a_node33"><a xlink:href="classinf.html#abadfb597b3021f1b2eca085851fa1b0b" target="_top" xlink:title="inf::resize">
<polygon fill="white" stroke="black" points="325.604,-232 325.604,-252 384.396,-252 384.396,-232 325.604,-232"/>
<text text-anchor="middle" x="355" y="-238" font-family="Helvetica,sans-Serif" font-size="10.00">inf::resize</text>
</a>
</g>
</g>
<!-- Node31&#45;&gt;Node33 -->
<g id="edge49" class="edge"><title>Node31&#45;&gt;Node33</title>
<path fill="none" stroke="midnightblue" d="M137.206,-260.295C176.688,-256.963 264.652,-249.54 315.566,-245.243"/>
<polygon fill="midnightblue" stroke="midnightblue" points="315.864,-248.731 325.534,-244.402 315.275,-241.756 315.864,-248.731"/>
</g>
<!-- Node34 -->
<g id="node34" class="node"><title>Node34</title>
<g id="a_node34"><a xlink:href="classinf.html#af6d82868c6e4e09dd89571ee20b3291d" target="_top" xlink:title="inf::set">
<polygon fill="white" stroke="black" points="687.271,-464 687.271,-484 732.729,-484 732.729,-464 687.271,-464"/>
<text text-anchor="middle" x="710" y="-470" font-family="Helvetica,sans-Serif" font-size="10.00">inf::set</text>
</a>
</g>
</g>
<!-- Node31&#45;&gt;Node34 -->
<g id="edge51" class="edge"><title>Node31&#45;&gt;Node34</title>
<path fill="none" stroke="midnightblue" d="M116.869,-272.097C117.055,-303.835 122.287,-402.237 178,-449 238.515,-499.795 274.993,-474 354,-474 354,-474 354,-474 480,-474 550.335,-474 632.822,-474 677.075,-474"/>
<polygon fill="midnightblue" stroke="midnightblue" points="677.213,-477.5 687.213,-474 677.213,-470.5 677.213,-477.5"/>
</g>
<!-- Node32&#45;&gt;Node4 -->
<g id="edge46" class="edge"><title>Node32&#45;&gt;Node4</title>
<path fill="none" stroke="midnightblue" d="M615.115,-396C633.18,-396 658.454,-396 678.229,-396"/>
<polygon fill="midnightblue" stroke="midnightblue" points="678.285,-399.5 688.285,-396 678.285,-392.5 678.285,-399.5"/>
</g>
<!-- Node32&#45;&gt;Node24 -->
<g id="edge45" class="edge"><title>Node32&#45;&gt;Node24</title>
<path fill="none" stroke="midnightblue" d="M610.817,-385.907C615.888,-382.927 621.275,-379.516 626,-376 650.662,-357.645 676.171,-332.976 692.286,-316.56"/>
<polygon fill="midnightblue" stroke="midnightblue" points="694.947,-318.843 699.397,-309.228 689.923,-313.969 694.947,-318.843"/>
</g>
<!-- Node33&#45;&gt;Node3 -->
<g id="edge50" class="edge"><title>Node33&#45;&gt;Node3</title>
<path fill="none" stroke="midnightblue" d="M384.693,-241.877C424.858,-241.706 498.216,-241.392 545.5,-241.19"/>
<polygon fill="midnightblue" stroke="midnightblue" points="545.77,-244.689 555.755,-241.146 545.74,-237.689 545.77,-244.689"/>
</g>
<!-- Node34&#45;&gt;Node5 -->
<g id="edge52" class="edge"><title>Node34&#45;&gt;Node5</title>
<path fill="none" stroke="midnightblue" d="M732.796,-470.001C747.304,-467.339 766.72,-463.776 783.548,-460.689"/>
<polygon fill="midnightblue" stroke="midnightblue" points="784.42,-464.087 793.624,-458.84 783.156,-457.202 784.42,-464.087"/>
</g>
<!-- Node36 -->
<g id="node36" class="node"><title>Node36</title>
<g id="a_node36"><a xlink:href="classotext.html#a8b6ef711a56f216ce27c867e9fc43065" target="_top" xlink:title="otext::set_integer\l_radix">
<polygon fill="white" stroke="black" points="178.643,-66 178.643,-98 271.357,-98 271.357,-66 178.643,-66"/>
<text text-anchor="start" x="186.643" y="-84" font-family="Helvetica,sans-Serif" font-size="10.00">otext::set_integer</text>
<text text-anchor="middle" x="225" y="-72" font-family="Helvetica,sans-Serif" font-size="10.00">_radix</text>
</a>
</g>
</g>
<!-- Node35&#45;&gt;Node36 -->
<g id="edge55" class="edge"><title>Node35&#45;&gt;Node36</title>
<path fill="none" stroke="midnightblue" d="M132.33,-87.1403C142.001,-86.5981 155.142,-85.8612 168.453,-85.1148"/>
<polygon fill="midnightblue" stroke="midnightblue" points="168.822,-88.5997 178.61,-84.5452 168.43,-81.6107 168.822,-88.5997"/>
</g>
<!-- Node37 -->
<g id="node37" class="node"><title>Node37</title>
<g id="a_node37"><a xlink:href="classobuff.html#a5d68caa655d1fb38e467ab5fabbaaa0d" target="_top" xlink:title="obuff::set_integer\l_radix">
<polygon fill="white" stroke="black" points="308.45,-66 308.45,-98 401.55,-98 401.55,-66 308.45,-66"/>
<text text-anchor="start" x="316.45" y="-84" font-family="Helvetica,sans-Serif" font-size="10.00">obuff::set_integer</text>
<text text-anchor="middle" x="355" y="-72" font-family="Helvetica,sans-Serif" font-size="10.00">_radix</text>
</a>
</g>
</g>
<!-- Node36&#45;&gt;Node37 -->
<g id="edge56" class="edge"><title>Node36&#45;&gt;Node37</title>
<path fill="none" stroke="midnightblue" d="M271.488,-82C280.062,-82 289.12,-82 297.972,-82"/>
<polygon fill="midnightblue" stroke="midnightblue" points="298.227,-85.5001 308.227,-82 298.227,-78.5001 298.227,-85.5001"/>
</g>
</g>
</svg>
        <g id="navigator" transform="translate(0 0)" fill="#404254">
                <rect fill="#f2f5e9" fill-opacity="0.5" stroke="#606060" stroke-width=".5" x="0" y="0" width="60" height="60"/>
                <use id="zoomplus" xlink:href="#zoomPlus" x="17" y="9" onmousedown="handleZoom(evt,'in')"/>
                <use id="zoomminus" xlink:href="#zoomMin" x="42" y="9" onmousedown="handleZoom(evt,'out')"/>
                <use id="reset" xlink:href="#resetDef" x="30" y="36" onmousedown="handleReset()"/>
                <g id="arrowUp" xlink:href="#dirArrow" transform="translate(30 24)" onmousedown="handlePan(0,-1)">
                  <use xlink:href="#rim" fill="#404040">
                        <set attributeName="fill" to="#808080" begin="arrowUp.mouseover" end="arrowUp.mouseout"/>
                  </use>
                  <path fill="none" stroke="white" stroke-width="1.5" d="M0,-3.0v7 M-2.5,-0.5L0,-3.0L2.5,-0.5"/>
                </g>
                <g id="arrowRight" xlink:href="#dirArrow" transform="rotate(90) translate(36 -43)" onmousedown="handlePan(1,0)">
                  <use xlink:href="#rim" fill="#404040">
                        <set attributeName="fill" to="#808080" begin="arrowRight.mouseover" end="arrowRight.mouseout"/>
                  </use>
                  <path fill="none" stroke="white" stroke-width="1.5" d="M0,-3.0v7 M-2.5,-0.5L0,-3.0L2.5,-0.5"/>
                </g>
                <g id="arrowDown" xlink:href="#dirArrow" transform="rotate(180) translate(-30 -48)" onmousedown="handlePan(0,1)">
                  <use xlink:href="#rim" fill="#404040">
                        <set attributeName="fill" to="#808080" begin="arrowDown.mouseover" end="arrowDown.mouseout"/>
                  </use>
                  <path fill="none" stroke="white" stroke-width="1.5" d="M0,-3.0v7 M-2.5,-0.5L0,-3.0L2.5,-0.5"/>
                </g>
                <g id="arrowLeft" xlink:href="#dirArrow" transform="rotate(270) translate(-36 17)" onmousedown="handlePan(-1,0)">
                  <use xlink:href="#rim" fill="#404040">
                        <set attributeName="fill" to="#808080" begin="arrowLeft.mouseover" end="arrowLeft.mouseout"/>
                  </use>
                  <path fill="none" stroke="white" stroke-width="1.5" d="M0,-3.0v7 M-2.5,-0.5L0,-3.0L2.5,-0.5"/>
                </g>
        </g>
        <svg viewBox="0 0 15 15" width="100%" height="30px" preserveAspectRatio="xMaxYMin meet">
         <g id="arrow_out" transform="scale(0.3 0.3)">
          <a xlink:href="inf_8cpp_aa81b03871a5fd8284fb70d6dcfde3dc6_cgraph_org.svg" target="_base">
           <rect id="button" ry="5" rx="5" y="6" x="6" height="38" width="38"
                fill="#f2f5e9" fill-opacity="0.5" stroke="#606060" stroke-width="1.0"/>
           <path id="arrow"
             d="M 11.500037,31.436501 C 11.940474,20.09759 22.043105,11.32322 32.158766,21.979434 L 37.068811,17.246167 C 37.068811,17.246167 37.088388,32 37.088388,32 L 22.160133,31.978069 C 22.160133,31.978069 26.997745,27.140456 26.997745,27.140456 C 18.528582,18.264221 13.291696,25.230495 11.500037,31.436501 z"
             style="fill:#404040;"/>
          </a>
         </g>
        </svg>
</svg>
