<?xml version="1.0" encoding="UTF-8" standalone="no"?>
<!DOCTYPE svg PUBLIC "-//W3C//DTD SVG 1.1//EN"
 "http://www.w3.org/Graphics/SVG/1.1/DTD/svg11.dtd">
<!-- Generated by graphviz version 2.32.0 (20130916.1925)
 -->
<!-- Title: src/visible/moc/moc_rc_choiceradiobutton.cpp Pages: 1 -->
<svg width="140pt" height="112pt"
 viewBox="0.00 0.00 140.00 112.00" xmlns="http://www.w3.org/2000/svg" xmlns:xlink="http://www.w3.org/1999/xlink">
<g id="graph0" class="graph" transform="scale(1 1) rotate(0) translate(4 108)">
<title>src/visible/moc/moc_rc_choiceradiobutton.cpp</title>
<polygon fill="white" stroke="white" points="-4,5 -4,-108 137,-108 137,5 -4,5"/>
<!-- Node1 -->
<g id="node1" class="node"><title>Node1</title>
<polygon fill="#bfbfbf" stroke="black" points="-0.649902,-71 -0.649902,-103 132.65,-103 132.65,-71 -0.649902,-71"/>
<text text-anchor="start" x="7.3501" y="-89" font-family="Helvetica,sans-Serif" font-size="10.00">src/visible/moc/moc</text>
<text text-anchor="middle" x="66" y="-77" font-family="Helvetica,sans-Serif" font-size="10.00">_rc_choiceradiobutton.cpp</text>
</g>
<!-- Node2 -->
<g id="node2" class="node"><title>Node2</title>
<polygon fill="white" stroke="#bfbfbf" points="11.5767,-1 11.5767,-33 120.423,-33 120.423,-1 11.5767,-1"/>
<text text-anchor="start" x="19.5767" y="-19" font-family="Helvetica,sans-Serif" font-size="10.00">../include/visUI/rc</text>
<text text-anchor="middle" x="66" y="-7" font-family="Helvetica,sans-Serif" font-size="10.00">_choiceradiobutton.h</text>
</g>
<!-- Node1&#45;&gt;Node2 -->
<g id="edge1" class="edge"><title>Node1&#45;&gt;Node2</title>
<path fill="none" stroke="midnightblue" d="M66,-70.9086C66,-62.8092 66,-52.6107 66,-43.3343"/>
<polygon fill="midnightblue" stroke="midnightblue" points="69.5001,-43.0492 66,-33.0492 62.5001,-43.0493 69.5001,-43.0492"/>
</g>
</g>
</svg>
