<?xml version="1.0" encoding="UTF-8" standalone="no"?>
<!DOCTYPE svg PUBLIC "-//W3C//DTD SVG 1.1//EN"
 "http://www.w3.org/Graphics/SVG/1.1/DTD/svg11.dtd">
<!-- Generated by graphviz version 2.32.0 (20130916.1925)
 -->
<!-- Title: mpeg2_accel Pages: 1 -->
<svg width="424pt" height="67pt"
 viewBox="0.00 0.00 424.00 67.00" xmlns="http://www.w3.org/2000/svg" xmlns:xlink="http://www.w3.org/1999/xlink">
<g id="graph0" class="graph" transform="scale(1 1) rotate(0) translate(4 63)">
<title>mpeg2_accel</title>
<polygon fill="white" stroke="white" points="-4,5 -4,-63 421,-63 421,5 -4,5"/>
<!-- Node1 -->
<g id="node1" class="node"><title>Node1</title>
<polygon fill="#bfbfbf" stroke="black" points="0.258789,-19 0.258789,-39 75.7412,-39 75.7412,-19 0.258789,-19"/>
<text text-anchor="middle" x="38" y="-25" font-family="Helvetica,sans-Serif" font-size="10.00">mpeg2_accel</text>
</g>
<!-- Node2 -->
<g id="node2" class="node"><title>Node2</title>
<g id="a_node2"><a xlink:href="classrc_m_p_e_g2_grabber.html#a80b63b1921f5a507ac4c88f233e9539b" target="_top" xlink:title="rcMPEG2Grabber::start">
<polygon fill="white" stroke="black" points="112.485,-19 112.485,-39 233.515,-39 233.515,-19 112.485,-19"/>
<text text-anchor="middle" x="173" y="-25" font-family="Helvetica,sans-Serif" font-size="10.00">rcMPEG2Grabber::start</text>
</a>
</g>
</g>
<!-- Node1&#45;&gt;Node2 -->
<g id="edge1" class="edge"><title>Node1&#45;&gt;Node2</title>
<path fill="none" stroke="midnightblue" d="M86.1602,-29C94.6734,-29 103.65,-29 112.461,-29"/>
<polygon fill="midnightblue" stroke="midnightblue" points="86.0479,-25.5001 76.0479,-29 86.0479,-32.5001 86.0479,-25.5001"/>
</g>
<!-- Node3 -->
<g id="node3" class="node"><title>Node3</title>
<g id="a_node3"><a xlink:href="bcnvrt__main_8cpp.html#a3c04138a5bfe5d72780bb7e82a18e627" target="_top" xlink:title="main">
<polygon fill="white" stroke="black" points="287.163,-39 287.163,-59 324.837,-59 324.837,-39 287.163,-39"/>
<text text-anchor="middle" x="306" y="-45" font-family="Helvetica,sans-Serif" font-size="10.00">main</text>
</a>
</g>
</g>
<!-- Node2&#45;&gt;Node3 -->
<g id="edge2" class="edge"><title>Node2&#45;&gt;Node3</title>
<path fill="none" stroke="midnightblue" d="M243.726,-39.6452C259.734,-42.0891 275.403,-44.4814 286.889,-46.235"/>
<polygon fill="midnightblue" stroke="midnightblue" points="244.163,-36.1715 233.75,-38.1221 243.107,-43.0913 244.163,-36.1715"/>
</g>
<!-- Node4 -->
<g id="node4" class="node"><title>Node4</title>
<g id="a_node4"><a xlink:href="visimatch_8cpp.html#ae0d7b28519100e4a3b9ee193dbfb41ae" target="_top" xlink:title="genRFYmov">
<polygon fill="white" stroke="black" points="270.212,-0 270.212,-20 341.788,-20 341.788,-0 270.212,-0"/>
<text text-anchor="middle" x="306" y="-6" font-family="Helvetica,sans-Serif" font-size="10.00">genRFYmov</text>
</a>
</g>
</g>
<!-- Node2&#45;&gt;Node4 -->
<g id="edge3" class="edge"><title>Node2&#45;&gt;Node4</title>
<path fill="none" stroke="midnightblue" d="M243.669,-18.8953C252.802,-17.5707 261.827,-16.2617 270.029,-15.0721"/>
<polygon fill="midnightblue" stroke="midnightblue" points="243.144,-15.4348 233.75,-20.334 244.149,-22.3623 243.144,-15.4348"/>
</g>
<!-- Node5 -->
<g id="node5" class="node"><title>Node5</title>
<g id="a_node5"><a xlink:href="visimatch_8cpp.html#a3c04138a5bfe5d72780bb7e82a18e627" target="_top" xlink:title="main">
<polygon fill="white" stroke="black" points="378.163,-0 378.163,-20 415.837,-20 415.837,-0 378.163,-0"/>
<text text-anchor="middle" x="397" y="-6" font-family="Helvetica,sans-Serif" font-size="10.00">main</text>
</a>
</g>
</g>
<!-- Node4&#45;&gt;Node5 -->
<g id="edge4" class="edge"><title>Node4&#45;&gt;Node5</title>
<path fill="none" stroke="midnightblue" d="M352.134,-10C361.24,-10 370.311,-10 377.82,-10"/>
<polygon fill="midnightblue" stroke="midnightblue" points="351.92,-6.5001 341.92,-10 351.92,-13.5001 351.92,-6.5001"/>
</g>
</g>
</svg>
