<?xml version="1.0" encoding="UTF-8" standalone="no"?>
<!DOCTYPE svg PUBLIC "-//W3C//DTD SVG 1.1//EN"
 "http://www.w3.org/Graphics/SVG/1.1/DTD/svg11.dtd">
<!-- Generated by graphviz version 2.32.0 (20130916.1925)
 -->
<!-- Title: NR::svbksb Pages: 1 -->
<svg width="192pt" height="67pt"
 viewBox="0.00 0.00 192.00 67.00" xmlns="http://www.w3.org/2000/svg" xmlns:xlink="http://www.w3.org/1999/xlink">
<g id="graph0" class="graph" transform="scale(1 1) rotate(0) translate(4 63)">
<title>NR::svbksb</title>
<polygon fill="white" stroke="white" points="-4,5 -4,-63 189,-63 189,5 -4,5"/>
<!-- Node1 -->
<g id="node1" class="node"><title>Node1</title>
<polygon fill="#bfbfbf" stroke="black" points="0.438477,-19 0.438477,-39 67.5615,-39 67.5615,-19 0.438477,-19"/>
<text text-anchor="middle" x="34" y="-25" font-family="Helvetica,sans-Serif" font-size="10.00">NR::svbksb</text>
</g>
<!-- Node2 -->
<g id="node2" class="node"><title>Node2</title>
<g id="a_node2"><a xlink:href="class_n_r_mat.html#a08e8b2a58a4a212ede7b6e09a4204cf9" target="_top" xlink:title="NRMat::ncols">
<polygon fill="white" stroke="black" points="105.993,-39 105.993,-59 182.007,-59 182.007,-39 105.993,-39"/>
<text text-anchor="middle" x="144" y="-45" font-family="Helvetica,sans-Serif" font-size="10.00">NRMat::ncols</text>
</a>
</g>
</g>
<!-- Node1&#45;&gt;Node2 -->
<g id="edge1" class="edge"><title>Node1&#45;&gt;Node2</title>
<path fill="none" stroke="midnightblue" d="M67.6966,-35.0549C76.5417,-36.6929 86.295,-38.4991 95.7661,-40.253"/>
<polygon fill="midnightblue" stroke="midnightblue" points="95.4061,-43.7457 105.876,-42.1252 96.6807,-36.8628 95.4061,-43.7457"/>
</g>
<!-- Node3 -->
<g id="node3" class="node"><title>Node3</title>
<g id="a_node3"><a xlink:href="class_n_r_mat.html#abf7c555641e77601bc37167a3abc7e6f" target="_top" xlink:title="NRMat::nrows">
<polygon fill="white" stroke="black" points="104.328,-0 104.328,-20 183.672,-20 183.672,-0 104.328,-0"/>
<text text-anchor="middle" x="144" y="-6" font-family="Helvetica,sans-Serif" font-size="10.00">NRMat::nrows</text>
</a>
</g>
</g>
<!-- Node1&#45;&gt;Node3 -->
<g id="edge2" class="edge"><title>Node1&#45;&gt;Node3</title>
<path fill="none" stroke="midnightblue" d="M67.6966,-23.2478C75.9966,-21.7876 85.0961,-20.1868 94.0119,-18.6183"/>
<polygon fill="midnightblue" stroke="midnightblue" points="94.7052,-22.0501 103.948,-16.8703 93.4923,-15.156 94.7052,-22.0501"/>
</g>
</g>
</svg>
