<?xml version="1.0" encoding="UTF-8" standalone="no"?>
<!DOCTYPE svg PUBLIC "-//W3C//DTD SVG 1.1//EN"
 "http://www.w3.org/Graphics/SVG/1.1/DTD/svg11.dtd">
<!-- Generated by graphviz version 2.32.0 (20130916.1925)
 -->
<!-- Title: NR::svdcmp Pages: 1 -->
<svg width="194pt" height="145pt"
 viewBox="0.00 0.00 194.00 145.00" xmlns="http://www.w3.org/2000/svg" xmlns:xlink="http://www.w3.org/1999/xlink">
<g id="graph0" class="graph" transform="scale(1 1) rotate(0) translate(4 141)">
<title>NR::svdcmp</title>
<polygon fill="white" stroke="white" points="-4,5 -4,-141 191,-141 191,5 -4,5"/>
<!-- Node1 -->
<g id="node1" class="node"><title>Node1</title>
<polygon fill="#bfbfbf" stroke="black" points="-0.226562,-58 -0.226562,-78 70.2266,-78 70.2266,-58 -0.226562,-58"/>
<text text-anchor="middle" x="35" y="-64" font-family="Helvetica,sans-Serif" font-size="10.00">NR::svdcmp</text>
</g>
<!-- Node2 -->
<g id="node2" class="node"><title>Node2</title>
<g id="a_node2"><a xlink:href="svdfit_8cpp.html#ae7df8c02cb434f753c222220a86f2bb2" target="_top" xlink:title="_pythag">
<polygon fill="white" stroke="black" points="120.207,-117 120.207,-137 171.793,-137 171.793,-117 120.207,-117"/>
<text text-anchor="middle" x="146" y="-123" font-family="Helvetica,sans-Serif" font-size="10.00">_pythag</text>
</a>
</g>
</g>
<!-- Node1&#45;&gt;Node2 -->
<g id="edge1" class="edge"><title>Node1&#45;&gt;Node2</title>
<path fill="none" stroke="midnightblue" d="M53.7452,-78.1085C67.84,-86.0837 88.0893,-97.4217 106,-107 109.28,-108.754 112.728,-110.567 116.162,-112.353"/>
<polygon fill="midnightblue" stroke="midnightblue" points="114.599,-115.485 125.091,-116.957 117.807,-109.263 114.599,-115.485"/>
</g>
<!-- Node3 -->
<g id="node3" class="node"><title>Node3</title>
<g id="a_node3"><a xlink:href="class_n_r_mat.html#a08e8b2a58a4a212ede7b6e09a4204cf9" target="_top" xlink:title="NRMat::ncols">
<polygon fill="white" stroke="black" points="107.993,-78 107.993,-98 184.007,-98 184.007,-78 107.993,-78"/>
<text text-anchor="middle" x="146" y="-84" font-family="Helvetica,sans-Serif" font-size="10.00">NRMat::ncols</text>
</a>
</g>
</g>
<!-- Node1&#45;&gt;Node3 -->
<g id="edge2" class="edge"><title>Node1&#45;&gt;Node3</title>
<path fill="none" stroke="midnightblue" d="M70.4883,-74.3281C79.0983,-75.9079 88.4822,-77.6298 97.5966,-79.3021"/>
<polygon fill="midnightblue" stroke="midnightblue" points="97.2496,-82.7968 107.717,-81.1591 98.513,-75.9118 97.2496,-82.7968"/>
</g>
<!-- Node4 -->
<g id="node4" class="node"><title>Node4</title>
<g id="a_node4"><a xlink:href="class_n_r_mat.html#abf7c555641e77601bc37167a3abc7e6f" target="_top" xlink:title="NRMat::nrows">
<polygon fill="white" stroke="black" points="106.328,-39 106.328,-59 185.672,-59 185.672,-39 106.328,-39"/>
<text text-anchor="middle" x="146" y="-45" font-family="Helvetica,sans-Serif" font-size="10.00">NRMat::nrows</text>
</a>
</g>
</g>
<!-- Node1&#45;&gt;Node4 -->
<g id="edge3" class="edge"><title>Node1&#45;&gt;Node4</title>
<path fill="none" stroke="midnightblue" d="M70.4883,-61.9883C78.6471,-60.5661 87.5008,-59.0228 96.1616,-57.5131"/>
<polygon fill="midnightblue" stroke="midnightblue" points="96.9366,-60.9309 106.187,-55.7656 95.7345,-54.0349 96.9366,-60.9309"/>
</g>
<!-- Node5 -->
<g id="node5" class="node"><title>Node5</title>
<g id="a_node5"><a xlink:href="nrutil__nr_8h.html#a73ed9c206e7e0031e9afbd17366ee779" target="_top" xlink:title="SIGN">
<polygon fill="white" stroke="black" points="125.776,-0 125.776,-20 166.224,-20 166.224,-0 125.776,-0"/>
<text text-anchor="middle" x="146" y="-6" font-family="Helvetica,sans-Serif" font-size="10.00">SIGN</text>
</a>
</g>
</g>
<!-- Node1&#45;&gt;Node5 -->
<g id="edge4" class="edge"><title>Node1&#45;&gt;Node5</title>
<path fill="none" stroke="midnightblue" d="M54.3595,-57.8806C68.4425,-50.1555 88.3896,-39.2938 106,-30 109.361,-28.2265 112.894,-26.3838 116.405,-24.5665"/>
<polygon fill="midnightblue" stroke="midnightblue" points="118.222,-27.5677 125.513,-19.88 115.019,-21.3434 118.222,-27.5677"/>
</g>
</g>
</svg>
