<?xml version="1.0" encoding="UTF-8" standalone="no"?>
<!DOCTYPE svg PUBLIC "-//W3C//DTD SVG 1.1//EN"
 "http://www.w3.org/Graphics/SVG/1.1/DTD/svg11.dtd">
<!-- Generated by graphviz version 2.32.0 (20130916.1925)
 -->
<!-- Title: NR::period Pages: 1 -->
<svg width="406pt" height="157pt"
 viewBox="0.00 0.00 406.00 157.00" xmlns="http://www.w3.org/2000/svg" xmlns:xlink="http://www.w3.org/1999/xlink">
<g id="graph0" class="graph" transform="scale(1 1) rotate(0) translate(4 153)">
<title>NR::period</title>
<polygon fill="white" stroke="white" points="-4,5 -4,-153 403,-153 403,5 -4,5"/>
<!-- Node1 -->
<g id="node1" class="node"><title>Node1</title>
<polygon fill="#bfbfbf" stroke="black" points="0.101074,-58 0.101074,-78 63.8989,-78 63.8989,-58 0.101074,-58"/>
<text text-anchor="middle" x="32" y="-64" font-family="Helvetica,sans-Serif" font-size="10.00">NR::period</text>
</g>
<!-- Node2 -->
<g id="node2" class="node"><title>Node2</title>
<g id="a_node2"><a xlink:href="classrc_movie_converter_to_q_t.html#ad76ebb33252df1ff7af4984a729c9dba" target="_top" xlink:title="rcMovieConverterToQT\l::addVideoSamplesToMedia">
<polygon fill="white" stroke="black" points="99.8271,-117 99.8271,-149 240.173,-149 240.173,-117 99.8271,-117"/>
<text text-anchor="start" x="107.827" y="-135" font-family="Helvetica,sans-Serif" font-size="10.00">rcMovieConverterToQT</text>
<text text-anchor="middle" x="170" y="-123" font-family="Helvetica,sans-Serif" font-size="10.00">::addVideoSamplesToMedia</text>
</a>
</g>
</g>
<!-- Node1&#45;&gt;Node2 -->
<g id="edge1" class="edge"><title>Node1&#45;&gt;Node2</title>
<path fill="none" stroke="midnightblue" d="M61.2513,-82.71C73.1501,-88.808 87.1853,-95.8741 100,-102 110.427,-106.984 121.838,-112.205 132.326,-116.911"/>
<polygon fill="midnightblue" stroke="midnightblue" points="62.7234,-79.5313 52.2307,-78.0634 59.5179,-85.7542 62.7234,-79.5313"/>
</g>
<!-- Node4 -->
<g id="node4" class="node"><title>Node4</title>
<g id="a_node4"><a xlink:href="classrc_opto_kinetic_image.html#a3fd72217752fe521e6e7aad3b3db8a52" target="_top" xlink:title="rcOptoKineticImage\l::gen1DCorrKineticImgs">
<polygon fill="white" stroke="black" points="275.924,-50 275.924,-82 398.076,-82 398.076,-50 275.924,-50"/>
<text text-anchor="start" x="283.924" y="-68" font-family="Helvetica,sans-Serif" font-size="10.00">rcOptoKineticImage</text>
<text text-anchor="middle" x="337" y="-56" font-family="Helvetica,sans-Serif" font-size="10.00">::gen1DCorrKineticImgs</text>
</a>
</g>
</g>
<!-- Node1&#45;&gt;Node4 -->
<g id="edge3" class="edge"><title>Node1&#45;&gt;Node4</title>
<path fill="none" stroke="midnightblue" d="M74.2824,-68.2528C116.063,-68.4492 182.523,-68.5987 240,-68 251.585,-67.8793 263.956,-67.6768 275.831,-67.4457"/>
<polygon fill="midnightblue" stroke="midnightblue" points="74.2298,-64.7526 64.2124,-68.2023 74.1946,-71.7525 74.2298,-64.7526"/>
</g>
<!-- Node5 -->
<g id="node5" class="node"><title>Node5</title>
<g id="a_node5"><a xlink:href="rc__kineticimage_8h.html#a6f1b044a62608c377b54b8d805a59d40" target="_top" xlink:title="genSynthSignal">
<polygon fill="white" stroke="black" points="126.973,-39 126.973,-59 213.027,-59 213.027,-39 126.973,-39"/>
<text text-anchor="middle" x="170" y="-45" font-family="Helvetica,sans-Serif" font-size="10.00">genSynthSignal</text>
</a>
</g>
</g>
<!-- Node1&#45;&gt;Node5 -->
<g id="edge4" class="edge"><title>Node1&#45;&gt;Node5</title>
<path fill="none" stroke="midnightblue" d="M74.2048,-62.2435C90.874,-59.9147 110.101,-57.2286 126.863,-54.8868"/>
<polygon fill="midnightblue" stroke="midnightblue" points="73.6207,-58.791 64.2011,-63.641 74.5893,-65.7236 73.6207,-58.791"/>
</g>
<!-- Node6 -->
<g id="node6" class="node"><title>Node6</title>
<g id="a_node6"><a xlink:href="batch__main_8cpp.html#a3c04138a5bfe5d72780bb7e82a18e627" target="_top" xlink:title="main">
<polygon fill="white" stroke="black" points="151.163,-0 151.163,-20 188.837,-20 188.837,-0 151.163,-0"/>
<text text-anchor="middle" x="170" y="-6" font-family="Helvetica,sans-Serif" font-size="10.00">main</text>
</a>
</g>
</g>
<!-- Node1&#45;&gt;Node6 -->
<g id="edge6" class="edge"><title>Node1&#45;&gt;Node6</title>
<path fill="none" stroke="midnightblue" d="M56.3155,-52.4202C68.8553,-44.5654 84.8241,-35.3792 100,-29 116.723,-21.9704 136.814,-16.7791 150.992,-13.6157"/>
<polygon fill="midnightblue" stroke="midnightblue" points="54.3816,-49.5024 47.8509,-57.8451 58.1588,-55.3959 54.3816,-49.5024"/>
</g>
<!-- Node3 -->
<g id="node3" class="node"><title>Node3</title>
<g id="a_node3"><a xlink:href="classrc_movie_converter_to_q_t.html#a166b19241ef0b0b93ba0210903f53969" target="_top" xlink:title="rcMovieConverterToQT\l::createQTMovie">
<polygon fill="white" stroke="black" points="277.32,-117 277.32,-149 396.68,-149 396.68,-117 277.32,-117"/>
<text text-anchor="start" x="285.32" y="-135" font-family="Helvetica,sans-Serif" font-size="10.00">rcMovieConverterToQT</text>
<text text-anchor="middle" x="337" y="-123" font-family="Helvetica,sans-Serif" font-size="10.00">::createQTMovie</text>
</a>
</g>
</g>
<!-- Node2&#45;&gt;Node3 -->
<g id="edge2" class="edge"><title>Node2&#45;&gt;Node3</title>
<path fill="none" stroke="midnightblue" d="M250.604,-133C259.594,-133 268.63,-133 277.284,-133"/>
<polygon fill="midnightblue" stroke="midnightblue" points="250.497,-129.5 240.497,-133 250.497,-136.5 250.497,-129.5"/>
</g>
<!-- Node5&#45;&gt;Node4 -->
<g id="edge5" class="edge"><title>Node5&#45;&gt;Node4</title>
<path fill="none" stroke="midnightblue" d="M223.168,-54.3749C239.842,-56.0928 258.437,-58.0087 275.644,-59.7815"/>
<polygon fill="midnightblue" stroke="midnightblue" points="223.369,-50.8772 213.063,-53.3338 222.652,-57.8403 223.369,-50.8772"/>
</g>
</g>
</svg>
