<?xml version="1.0" encoding="UTF-8" standalone="no"?>
<!DOCTYPE svg PUBLIC "-//W3C//DTD SVG 1.1//EN"
 "http://www.w3.org/Graphics/SVG/1.1/DTD/svg11.dtd">
<!-- Generated by graphviz version 2.32.0 (20130916.1925)
 -->
<!-- Title: pow Pages: 1 -->
<svg width="1790pt" height="515pt"
 viewBox="0.00 0.00 1790.00 515.41" xmlns="http://www.w3.org/2000/svg" xmlns:xlink="http://www.w3.org/1999/xlink">
<g id="graph0" class="graph" transform="scale(1 1) rotate(0) translate(4 511.415)">
<title>pow</title>
<polygon fill="white" stroke="white" points="-4,5 -4,-511.415 1787,-511.415 1787,5 -4,5"/>
<!-- Node1 -->
<g id="node1" class="node"><title>Node1</title>
<polygon fill="#bfbfbf" stroke="black" points="-0.172363,-231.415 -0.172363,-251.415 34.1724,-251.415 34.1724,-231.415 -0.172363,-231.415"/>
<text text-anchor="middle" x="17" y="-237.415" font-family="Helvetica,sans-Serif" font-size="10.00">pow</text>
</g>
<!-- Node2 -->
<g id="node2" class="node"><title>Node2</title>
<g id="a_node2"><a xlink:href="vbigdsp_8cpp.html#afc4785c346206680fc58b4fae0453329" target="_top" xlink:title="fft_scalar">
<polygon fill="white" stroke="black" points="113.802,-379.415 113.802,-399.415 170.198,-399.415 170.198,-379.415 113.802,-379.415"/>
<text text-anchor="middle" x="142" y="-385.415" font-family="Helvetica,sans-Serif" font-size="10.00">fft_scalar</text>
</a>
</g>
</g>
<!-- Node1&#45;&gt;Node2 -->
<g id="edge1" class="edge"><title>Node1&#45;&gt;Node2</title>
<path fill="none" stroke="midnightblue" d="M29.7813,-260.198C39.8269,-275.754 54.9868,-298.182 70,-316.415 89.6669,-340.298 115.624,-365.641 130.081,-379.288"/>
<polygon fill="midnightblue" stroke="midnightblue" points="32.562,-258.049 24.2344,-251.499 26.6598,-261.813 32.562,-258.049"/>
</g>
<!-- Node15 -->
<g id="node15" class="node"><title>Node15</title>
<g id="a_node15"><a xlink:href="classrc_mathematical_image.html#a69431fad140e3deaf8b338b28364322e" target="_top" xlink:title="rcMathematicalImage\l::mMakeImage">
<polygon fill="white" stroke="black" points="86.2046,-275.415 86.2046,-307.415 197.795,-307.415 197.795,-275.415 86.2046,-275.415"/>
<text text-anchor="start" x="94.2046" y="-293.415" font-family="Helvetica,sans-Serif" font-size="10.00">rcMathematicalImage</text>
<text text-anchor="middle" x="142" y="-281.415" font-family="Helvetica,sans-Serif" font-size="10.00">::mMakeImage</text>
</a>
</g>
</g>
<!-- Node1&#45;&gt;Node15 -->
<g id="edge14" class="edge"><title>Node1&#45;&gt;Node15</title>
<path fill="none" stroke="midnightblue" d="M43.9674,-251.97C60.6662,-258.759 82.6852,-267.709 101.526,-275.368"/>
<polygon fill="midnightblue" stroke="midnightblue" points="44.9153,-248.578 34.3335,-248.054 42.2793,-255.062 44.9153,-248.578"/>
</g>
<!-- Node24 -->
<g id="node24" class="node"><title>Node24</title>
<g id="a_node24"><a xlink:href="nrutil__nr_8h.html#abfb50e4e21c6ac2aa9c93ec44108a763" target="_top" xlink:title="pow">
<polygon fill="white" stroke="black" points="124.828,-231.415 124.828,-251.415 159.172,-251.415 159.172,-231.415 124.828,-231.415"/>
<text text-anchor="middle" x="142" y="-237.415" font-family="Helvetica,sans-Serif" font-size="10.00">pow</text>
</a>
</g>
</g>
<!-- Node1&#45;&gt;Node24 -->
<g id="edge23" class="edge"><title>Node1&#45;&gt;Node24</title>
<path fill="none" stroke="midnightblue" d="M44.6548,-241.415C68.9818,-241.415 104.165,-241.415 124.599,-241.415"/>
<polygon fill="midnightblue" stroke="midnightblue" points="44.3335,-237.915 34.3335,-241.415 44.3334,-244.915 44.3335,-237.915"/>
</g>
<!-- Node25 -->
<g id="node25" class="node"><title>Node25</title>
<g id="a_node25"><a xlink:href="tiffio_8h.html#af0d6569676fe4fb50149719a943a5dfb" target="_top" xlink:title="TIFFCIELabToRGBInit">
<polygon fill="white" stroke="black" points="432.985,-65.4146 432.985,-85.4146 549.015,-85.4146 549.015,-65.4146 432.985,-65.4146"/>
<text text-anchor="middle" x="491" y="-71.4146" font-family="Helvetica,sans-Serif" font-size="10.00">TIFFCIELabToRGBInit</text>
</a>
</g>
</g>
<!-- Node1&#45;&gt;Node25 -->
<g id="edge24" class="edge"><title>Node1&#45;&gt;Node25</title>
<path fill="none" stroke="midnightblue" d="M27.5303,-222.251C36.3807,-206.459 51.0397,-184.728 70,-172.415 183.913,-98.4357 347.418,-80.5987 432.935,-76.4822"/>
<polygon fill="midnightblue" stroke="midnightblue" points="24.3878,-220.706 22.7837,-231.179 30.5686,-223.992 24.3878,-220.706"/>
</g>
<!-- Node38 -->
<g id="node38" class="node"><title>Node38</title>
<g id="a_node38"><a xlink:href="tif__aux_8c.html#a248c1b93e7bfd6abd728d692483e441f" target="_top" xlink:title="TIFFDefaultTransferFunction">
<polygon fill="white" stroke="black" points="69.9961,-182.415 69.9961,-202.415 214.004,-202.415 214.004,-182.415 69.9961,-182.415"/>
<text text-anchor="middle" x="142" y="-188.415" font-family="Helvetica,sans-Serif" font-size="10.00">TIFFDefaultTransferFunction</text>
</a>
</g>
</g>
<!-- Node1&#45;&gt;Node38 -->
<g id="edge37" class="edge"><title>Node1&#45;&gt;Node38</title>
<path fill="none" stroke="midnightblue" d="M43.6475,-231.197C64.7701,-222.783 94.5627,-210.914 115.613,-202.528"/>
<polygon fill="midnightblue" stroke="midnightblue" points="42.3281,-227.955 34.3335,-234.908 44.9188,-234.458 42.3281,-227.955"/>
</g>
<!-- Node3 -->
<g id="node3" class="node"><title>Node3</title>
<g id="a_node3"><a xlink:href="vbigdsp_8cpp.html#ae0a38b013be66f0ff581e4b5e9d0f281" target="_top" xlink:title="fft_pingpong">
<polygon fill="white" stroke="black" points="282.563,-433.415 282.563,-453.415 353.437,-453.415 353.437,-433.415 282.563,-433.415"/>
<text text-anchor="middle" x="318" y="-439.415" font-family="Helvetica,sans-Serif" font-size="10.00">fft_pingpong</text>
</a>
</g>
</g>
<!-- Node2&#45;&gt;Node3 -->
<g id="edge2" class="edge"><title>Node2&#45;&gt;Node3</title>
<path fill="none" stroke="midnightblue" d="M179.858,-401.302C200.464,-407.904 226.628,-416.214 250,-423.415 260.673,-426.703 272.328,-430.211 282.88,-433.356"/>
<polygon fill="midnightblue" stroke="midnightblue" points="180.817,-397.934 170.225,-398.211 178.678,-404.6 180.817,-397.934"/>
</g>
<!-- Node4 -->
<g id="node4" class="node"><title>Node4</title>
<g id="a_node4"><a xlink:href="vbigdsp_8h.html#af2ab131969e2f007da33e60f2f54114b" target="_top" xlink:title="FFTComplex">
<polygon fill="white" stroke="black" points="454.108,-433.415 454.108,-453.415 527.892,-453.415 527.892,-433.415 454.108,-433.415"/>
<text text-anchor="middle" x="491" y="-439.415" font-family="Helvetica,sans-Serif" font-size="10.00">FFTComplex</text>
</a>
</g>
</g>
<!-- Node3&#45;&gt;Node4 -->
<g id="edge3" class="edge"><title>Node3&#45;&gt;Node4</title>
<path fill="none" stroke="midnightblue" d="M363.964,-443.415C392.058,-443.415 427.749,-443.415 453.974,-443.415"/>
<polygon fill="midnightblue" stroke="midnightblue" points="363.604,-439.915 353.604,-443.415 363.604,-446.915 363.604,-439.915"/>
</g>
<!-- Node5 -->
<g id="node5" class="node"><title>Node5</title>
<g id="a_node5"><a xlink:href="vbigdsp_8cpp.html#a38e87f9c7ae8534965b0ea707bdbf619" target="_top" xlink:title="fft_real_forward_scalar">
<polygon fill="white" stroke="black" points="603.231,-459.415 603.231,-479.415 720.769,-479.415 720.769,-459.415 603.231,-459.415"/>
<text text-anchor="middle" x="662" y="-465.415" font-family="Helvetica,sans-Serif" font-size="10.00">fft_real_forward_scalar</text>
</a>
</g>
</g>
<!-- Node4&#45;&gt;Node5 -->
<g id="edge4" class="edge"><title>Node4&#45;&gt;Node5</title>
<path fill="none" stroke="midnightblue" d="M538.367,-450.548C558.396,-453.629 582.043,-457.267 603.201,-460.522"/>
<polygon fill="midnightblue" stroke="midnightblue" points="538.671,-447.054 528.255,-448.992 537.606,-453.972 538.671,-447.054"/>
</g>
<!-- Node13 -->
<g id="node13" class="node"><title>Node13</title>
<g id="a_node13"><a xlink:href="vbigdsp_8cpp.html#a1a48211bf3e5130dc02c496e291712f6" target="_top" xlink:title="fft_real_inverse_scalar">
<polygon fill="white" stroke="black" points="603.785,-420.415 603.785,-440.415 720.215,-440.415 720.215,-420.415 603.785,-420.415"/>
<text text-anchor="middle" x="662" y="-426.415" font-family="Helvetica,sans-Serif" font-size="10.00">fft_real_inverse_scalar</text>
</a>
</g>
</g>
<!-- Node4&#45;&gt;Node13 -->
<g id="edge12" class="edge"><title>Node4&#45;&gt;Node13</title>
<path fill="none" stroke="midnightblue" d="M538.413,-439.844C558.538,-438.296 582.307,-436.468 603.532,-434.835"/>
<polygon fill="midnightblue" stroke="midnightblue" points="537.957,-436.369 528.255,-440.626 538.494,-443.348 537.957,-436.369"/>
</g>
<!-- Node6 -->
<g id="node6" class="node"><title>Node6</title>
<g id="a_node6"><a xlink:href="vbigdsp_8h.html#a149c566750d66eb4dc6b32c060ebba74" target="_top" xlink:title="FFTRealForward">
<polygon fill="white" stroke="black" points="770.217,-459.415 770.217,-479.415 861.783,-479.415 861.783,-459.415 770.217,-459.415"/>
<text text-anchor="middle" x="816" y="-465.415" font-family="Helvetica,sans-Serif" font-size="10.00">FFTRealForward</text>
</a>
</g>
</g>
<!-- Node5&#45;&gt;Node6 -->
<g id="edge5" class="edge"><title>Node5&#45;&gt;Node6</title>
<path fill="none" stroke="midnightblue" d="M730.935,-469.415C744.179,-469.415 757.754,-469.415 770.026,-469.415"/>
<polygon fill="midnightblue" stroke="midnightblue" points="730.898,-465.915 720.898,-469.415 730.898,-472.915 730.898,-465.915"/>
</g>
<!-- Node7 -->
<g id="node7" class="node"><title>Node7</title>
<g id="a_node7"><a xlink:href="rc__analysis_8h.html#ae51d37ad5797d5b59058fafde4fb4248" target="_top" xlink:title="rf1DFourierAnalysisVoxels">
<polygon fill="white" stroke="black" points="904.365,-481.415 904.365,-501.415 1037.64,-501.415 1037.64,-481.415 904.365,-481.415"/>
<text text-anchor="middle" x="971" y="-487.415" font-family="Helvetica,sans-Serif" font-size="10.00">rf1DFourierAnalysisVoxels</text>
</a>
</g>
</g>
<!-- Node6&#45;&gt;Node7 -->
<g id="edge6" class="edge"><title>Node6&#45;&gt;Node7</title>
<path fill="none" stroke="midnightblue" d="M872.247,-477.359C882.637,-478.853 893.595,-480.428 904.268,-481.963"/>
<polygon fill="midnightblue" stroke="midnightblue" points="872.474,-473.855 862.078,-475.896 871.478,-480.784 872.474,-473.855"/>
</g>
<!-- Node12 -->
<g id="node12" class="node"><title>Node12</title>
<g id="a_node12"><a xlink:href="classrc_opto_kinetic_image.html#a1d1715dc28a0eea84834c136e02c26c4" target="_top" xlink:title="rcOptoKineticImage\l::genDFT">
<polygon fill="white" stroke="black" points="919.091,-430.415 919.091,-462.415 1022.91,-462.415 1022.91,-430.415 919.091,-430.415"/>
<text text-anchor="start" x="927.091" y="-448.415" font-family="Helvetica,sans-Serif" font-size="10.00">rcOptoKineticImage</text>
<text text-anchor="middle" x="971" y="-436.415" font-family="Helvetica,sans-Serif" font-size="10.00">::genDFT</text>
</a>
</g>
</g>
<!-- Node6&#45;&gt;Node12 -->
<g id="edge11" class="edge"><title>Node6&#45;&gt;Node12</title>
<path fill="none" stroke="midnightblue" d="M872.403,-461.086C887.644,-458.795 904.097,-456.322 919.073,-454.07"/>
<polygon fill="midnightblue" stroke="midnightblue" points="871.446,-457.691 862.078,-462.638 872.487,-464.613 871.446,-457.691"/>
</g>
<!-- Node8 -->
<g id="node8" class="node"><title>Node8</title>
<g id="a_node8"><a xlink:href="classrc_opto_kinetic_image.html#ab8c6bd963086ef561d0f65ec8240e139" target="_top" xlink:title="rcOptoKineticImage\l::genFreqImg">
<polygon fill="white" stroke="black" points="1100.09,-475.415 1100.09,-507.415 1203.91,-507.415 1203.91,-475.415 1100.09,-475.415"/>
<text text-anchor="start" x="1108.09" y="-493.415" font-family="Helvetica,sans-Serif" font-size="10.00">rcOptoKineticImage</text>
<text text-anchor="middle" x="1152" y="-481.415" font-family="Helvetica,sans-Serif" font-size="10.00">::genFreqImg</text>
</a>
</g>
</g>
<!-- Node7&#45;&gt;Node8 -->
<g id="edge7" class="edge"><title>Node7&#45;&gt;Node8</title>
<path fill="none" stroke="midnightblue" d="M1047.88,-491.415C1065.45,-491.415 1083.74,-491.415 1099.95,-491.415"/>
<polygon fill="midnightblue" stroke="midnightblue" points="1047.64,-487.915 1037.64,-491.415 1047.64,-494.915 1047.64,-487.915"/>
</g>
<!-- Node9 -->
<g id="node9" class="node"><title>Node9</title>
<g id="a_node9"><a xlink:href="classrc_muscle_segmenter.html#a61c65559f55fd9fa632b96e09ef50b2e" target="_top" xlink:title="rcMuscleSegmenter::\lgenFrequencySegmentation">
<polygon fill="white" stroke="black" points="1266.18,-475.415 1266.18,-507.415 1407.82,-507.415 1407.82,-475.415 1266.18,-475.415"/>
<text text-anchor="start" x="1274.18" y="-493.415" font-family="Helvetica,sans-Serif" font-size="10.00">rcMuscleSegmenter::</text>
<text text-anchor="middle" x="1337" y="-481.415" font-family="Helvetica,sans-Serif" font-size="10.00">genFrequencySegmentation</text>
</a>
</g>
</g>
<!-- Node8&#45;&gt;Node9 -->
<g id="edge8" class="edge"><title>Node8&#45;&gt;Node9</title>
<path fill="none" stroke="midnightblue" d="M1214.14,-491.415C1230.82,-491.415 1249.02,-491.415 1266.15,-491.415"/>
<polygon fill="midnightblue" stroke="midnightblue" points="1213.98,-487.915 1203.98,-491.415 1213.98,-494.915 1213.98,-487.915"/>
</g>
<!-- Node10 -->
<g id="node10" class="node"><title>Node10</title>
<g id="a_node10"><a xlink:href="classrc_muscle_segmenter.html#a660d7b3d1c240efa0b725e0db65154e3" target="_top" xlink:title="rcMuscleSegmenter::\lfilterByActivity">
<polygon fill="white" stroke="black" points="1466.76,-475.415 1466.76,-507.415 1577.24,-507.415 1577.24,-475.415 1466.76,-475.415"/>
<text text-anchor="start" x="1474.76" y="-493.415" font-family="Helvetica,sans-Serif" font-size="10.00">rcMuscleSegmenter::</text>
<text text-anchor="middle" x="1522" y="-481.415" font-family="Helvetica,sans-Serif" font-size="10.00">filterByActivity</text>
</a>
</g>
</g>
<!-- Node9&#45;&gt;Node10 -->
<g id="edge9" class="edge"><title>Node9&#45;&gt;Node10</title>
<path fill="none" stroke="midnightblue" d="M1418.11,-491.415C1434.54,-491.415 1451.46,-491.415 1466.72,-491.415"/>
<polygon fill="midnightblue" stroke="midnightblue" points="1417.97,-487.915 1407.97,-491.415 1417.97,-494.915 1417.97,-487.915"/>
</g>
<!-- Node11 -->
<g id="node11" class="node"><title>Node11</title>
<g id="a_node11"><a xlink:href="classrc_engine_impl.html#a00ca0d227e480ddb5bd6be293b55d2c9" target="_top" xlink:title="rcEngineImpl::muscleTracker">
<polygon fill="white" stroke="black" points="1636.44,-481.415 1636.44,-501.415 1781.56,-501.415 1781.56,-481.415 1636.44,-481.415"/>
<text text-anchor="middle" x="1709" y="-487.415" font-family="Helvetica,sans-Serif" font-size="10.00">rcEngineImpl::muscleTracker</text>
</a>
</g>
</g>
<!-- Node10&#45;&gt;Node11 -->
<g id="edge10" class="edge"><title>Node10&#45;&gt;Node11</title>
<path fill="none" stroke="midnightblue" d="M1587.66,-491.415C1603.4,-491.415 1620.34,-491.415 1636.38,-491.415"/>
<polygon fill="midnightblue" stroke="midnightblue" points="1587.51,-487.915 1577.51,-491.415 1587.51,-494.915 1587.51,-487.915"/>
</g>
<!-- Node14 -->
<g id="node14" class="node"><title>Node14</title>
<g id="a_node14"><a xlink:href="vbigdsp_8h.html#a61beacf0495a1cf3b668929e73f585d8" target="_top" xlink:title="FFTRealInverse">
<polygon fill="white" stroke="black" points="772.158,-420.415 772.158,-440.415 859.842,-440.415 859.842,-420.415 772.158,-420.415"/>
<text text-anchor="middle" x="816" y="-426.415" font-family="Helvetica,sans-Serif" font-size="10.00">FFTRealInverse</text>
</a>
</g>
</g>
<!-- Node13&#45;&gt;Node14 -->
<g id="edge13" class="edge"><title>Node13&#45;&gt;Node14</title>
<path fill="none" stroke="midnightblue" d="M730.639,-430.415C744.745,-430.415 759.239,-430.415 772.147,-430.415"/>
<polygon fill="midnightblue" stroke="midnightblue" points="730.465,-426.915 720.465,-430.415 730.465,-433.915 730.465,-426.915"/>
</g>
<!-- Node16 -->
<g id="node16" class="node"><title>Node16</title>
<g id="a_node16"><a xlink:href="classrc_mathematical_image.html#a33e91c4fefb2f66806b266eec1fdd0ba" target="_top" xlink:title="rcMathematicalImage\l::gauss">
<polygon fill="white" stroke="black" points="262.205,-331.415 262.205,-363.415 373.795,-363.415 373.795,-331.415 262.205,-331.415"/>
<text text-anchor="start" x="270.205" y="-349.415" font-family="Helvetica,sans-Serif" font-size="10.00">rcMathematicalImage</text>
<text text-anchor="middle" x="318" y="-337.415" font-family="Helvetica,sans-Serif" font-size="10.00">::gauss</text>
</a>
</g>
</g>
<!-- Node15&#45;&gt;Node16 -->
<g id="edge15" class="edge"><title>Node15&#45;&gt;Node16</title>
<path fill="none" stroke="midnightblue" d="M202.64,-310.609C223.645,-317.369 247.018,-324.892 267.131,-331.365"/>
<polygon fill="midnightblue" stroke="midnightblue" points="203.453,-307.194 192.861,-307.462 201.308,-313.857 203.453,-307.194"/>
</g>
<!-- Node20 -->
<g id="node20" class="node"><title>Node20</title>
<g id="a_node20"><a xlink:href="classrc_mathematical_image.html#a09f001df7256d30c598de516606e89c5" target="_top" xlink:title="rcMathematicalImage\l::gabor">
<polygon fill="white" stroke="black" points="262.205,-280.415 262.205,-312.415 373.795,-312.415 373.795,-280.415 262.205,-280.415"/>
<text text-anchor="start" x="270.205" y="-298.415" font-family="Helvetica,sans-Serif" font-size="10.00">rcMathematicalImage</text>
<text text-anchor="middle" x="318" y="-286.415" font-family="Helvetica,sans-Serif" font-size="10.00">::gabor</text>
</a>
</g>
</g>
<!-- Node15&#45;&gt;Node20 -->
<g id="edge19" class="edge"><title>Node15&#45;&gt;Node20</title>
<path fill="none" stroke="midnightblue" d="M208.296,-293.291C225.983,-293.799 244.948,-294.344 262.005,-294.834"/>
<polygon fill="midnightblue" stroke="midnightblue" points="208.151,-289.785 198.055,-292.997 207.95,-296.783 208.151,-289.785"/>
</g>
<!-- Node21 -->
<g id="node21" class="node"><title>Node21</title>
<g id="a_node21"><a xlink:href="classrc_mathematical_image.html#afe68b885628b15330fb216c9881179da" target="_top" xlink:title="rcMathematicalImage::dOg">
<polygon fill="white" stroke="black" points="249.976,-241.415 249.976,-261.415 386.024,-261.415 386.024,-241.415 249.976,-241.415"/>
<text text-anchor="middle" x="318" y="-247.415" font-family="Helvetica,sans-Serif" font-size="10.00">rcMathematicalImage::dOg</text>
</a>
</g>
</g>
<!-- Node15&#45;&gt;Node21 -->
<g id="edge20" class="edge"><title>Node15&#45;&gt;Node21</title>
<path fill="none" stroke="midnightblue" d="M207.917,-276.491C229.732,-271.476 253.531,-266.005 273.317,-261.457"/>
<polygon fill="midnightblue" stroke="midnightblue" points="207.016,-273.107 198.055,-278.758 208.585,-279.929 207.016,-273.107"/>
</g>
<!-- Node22 -->
<g id="node22" class="node"><title>Node22</title>
<g id="a_node22"><a xlink:href="classrc_mathematical_image.html#aaa4e8a8c1c7a3cf7ee22963342eb1350" target="_top" xlink:title="rcMathematicalImage::lOg">
<polygon fill="white" stroke="black" points="251.646,-202.415 251.646,-222.415 384.354,-222.415 384.354,-202.415 251.646,-202.415"/>
<text text-anchor="middle" x="318" y="-208.415" font-family="Helvetica,sans-Serif" font-size="10.00">rcMathematicalImage::lOg</text>
</a>
</g>
</g>
<!-- Node15&#45;&gt;Node22 -->
<g id="edge21" class="edge"><title>Node15&#45;&gt;Node22</title>
<path fill="none" stroke="midnightblue" d="M194.136,-271.059C200.961,-267.776 207.753,-264.201 214,-260.415 231.57,-249.765 231.75,-240.852 250,-231.415 256.873,-227.86 264.498,-224.896 272.068,-222.448"/>
<polygon fill="midnightblue" stroke="midnightblue" points="192.466,-267.975 184.857,-275.348 195.403,-274.329 192.466,-267.975"/>
</g>
<!-- Node23 -->
<g id="node23" class="node"><title>Node23</title>
<g id="a_node23"><a xlink:href="classrc_mathematical_image.html#a79ab31a72a56757ed5a75385f654e616" target="_top" xlink:title="rcMathematicalImage\l::cone">
<polygon fill="white" stroke="black" points="262.205,-382.415 262.205,-414.415 373.795,-414.415 373.795,-382.415 262.205,-382.415"/>
<text text-anchor="start" x="270.205" y="-400.415" font-family="Helvetica,sans-Serif" font-size="10.00">rcMathematicalImage</text>
<text text-anchor="middle" x="318" y="-388.415" font-family="Helvetica,sans-Serif" font-size="10.00">::cone</text>
</a>
</g>
</g>
<!-- Node15&#45;&gt;Node23 -->
<g id="edge22" class="edge"><title>Node15&#45;&gt;Node23</title>
<path fill="none" stroke="midnightblue" d="M168.603,-314.048C189.442,-331.642 220.186,-355.774 250,-372.415 256.428,-376.002 263.452,-379.317 270.456,-382.295"/>
<polygon fill="midnightblue" stroke="midnightblue" points="170.728,-311.26 160.853,-307.42 166.178,-316.58 170.728,-311.26"/>
</g>
<!-- Node17 -->
<g id="node17" class="node"><title>Node17</title>
<g id="a_node17"><a xlink:href="classrc_gauss_kernel2_d.html#a070f777aa3df792c76e4d4511671fbed" target="_top" xlink:title="rcGaussKernel2D::rcGauss\lKernel2D">
<polygon fill="white" stroke="black" points="422.146,-382.415 422.146,-414.415 559.854,-414.415 559.854,-382.415 422.146,-382.415"/>
<text text-anchor="start" x="430.146" y="-400.415" font-family="Helvetica,sans-Serif" font-size="10.00">rcGaussKernel2D::rcGauss</text>
<text text-anchor="middle" x="491" y="-388.415" font-family="Helvetica,sans-Serif" font-size="10.00">Kernel2D</text>
</a>
</g>
</g>
<!-- Node16&#45;&gt;Node17 -->
<g id="edge16" class="edge"><title>Node16&#45;&gt;Node17</title>
<path fill="none" stroke="midnightblue" d="M382.731,-366.422C400.339,-371.674 419.266,-377.319 436.247,-382.383"/>
<polygon fill="midnightblue" stroke="midnightblue" points="383.689,-363.055 373.105,-363.551 381.688,-369.763 383.689,-363.055"/>
</g>
<!-- Node18 -->
<g id="node18" class="node"><title>Node18</title>
<g id="a_node18"><a xlink:href="classrc_visual_function.html#a81d62d2048dc44ec3538d22e02857121" target="_top" xlink:title="rcVisualFunction::create\lIrradianceModel">
<polygon fill="white" stroke="black" points="429.453,-331.415 429.453,-363.415 552.547,-363.415 552.547,-331.415 429.453,-331.415"/>
<text text-anchor="start" x="437.453" y="-349.415" font-family="Helvetica,sans-Serif" font-size="10.00">rcVisualFunction::create</text>
<text text-anchor="middle" x="491" y="-337.415" font-family="Helvetica,sans-Serif" font-size="10.00">IrradianceModel</text>
</a>
</g>
</g>
<!-- Node16&#45;&gt;Node18 -->
<g id="edge17" class="edge"><title>Node16&#45;&gt;Node18</title>
<path fill="none" stroke="midnightblue" d="M384.174,-347.415C399.037,-347.415 414.77,-347.415 429.432,-347.415"/>
<polygon fill="midnightblue" stroke="midnightblue" points="384.047,-343.915 374.047,-347.415 384.047,-350.915 384.047,-343.915"/>
</g>
<!-- Node19 -->
<g id="node19" class="node"><title>Node19</title>
<g id="a_node19"><a xlink:href="classrc_visual_function.html#ab5e34886e06cd4b26e1aa8a1f185f1bf" target="_top" xlink:title="rcVisualFunction::rcVisual\lFunction">
<polygon fill="white" stroke="black" points="596.654,-356.415 596.654,-388.415 727.346,-388.415 727.346,-356.415 596.654,-356.415"/>
<text text-anchor="start" x="604.654" y="-374.415" font-family="Helvetica,sans-Serif" font-size="10.00">rcVisualFunction::rcVisual</text>
<text text-anchor="middle" x="662" y="-362.415" font-family="Helvetica,sans-Serif" font-size="10.00">Function</text>
</a>
</g>
</g>
<!-- Node18&#45;&gt;Node19 -->
<g id="edge18" class="edge"><title>Node18&#45;&gt;Node19</title>
<path fill="none" stroke="midnightblue" d="M563.052,-357.925C574.104,-359.56 585.47,-361.242 596.37,-362.854"/>
<polygon fill="midnightblue" stroke="midnightblue" points="563.417,-354.441 553.013,-356.44 562.393,-361.366 563.417,-354.441"/>
</g>
<!-- Node26 -->
<g id="node26" class="node"><title>Node26</title>
<g id="a_node26"><a xlink:href="tif__getimage_8c.html#a9a38a2c43b427630eafa0ffeb60596b5" target="_top" xlink:title="initCIELabConversion">
<polygon fill="white" stroke="black" points="605.641,-46.4146 605.641,-66.4146 718.359,-66.4146 718.359,-46.4146 605.641,-46.4146"/>
<text text-anchor="middle" x="662" y="-52.4146" font-family="Helvetica,sans-Serif" font-size="10.00">initCIELabConversion</text>
</a>
</g>
</g>
<!-- Node25&#45;&gt;Node26 -->
<g id="edge25" class="edge"><title>Node25&#45;&gt;Node26</title>
<path fill="none" stroke="midnightblue" d="M559.184,-67.8614C574.562,-66.1325 590.741,-64.3136 605.561,-62.6475"/>
<polygon fill="midnightblue" stroke="midnightblue" points="558.762,-64.3867 549.216,-68.9821 559.544,-71.3429 558.762,-64.3867"/>
</g>
<!-- Node27 -->
<g id="node27" class="node"><title>Node27</title>
<g id="a_node27"><a xlink:href="tif__getimage_8c.html#aa1437f2670934aacc32b2d2c2429b154" target="_top" xlink:title="pickTileContigCase">
<polygon fill="white" stroke="black" points="765.109,-123.415 765.109,-143.415 866.891,-143.415 866.891,-123.415 765.109,-123.415"/>
<text text-anchor="middle" x="816" y="-129.415" font-family="Helvetica,sans-Serif" font-size="10.00">pickTileContigCase</text>
</a>
</g>
</g>
<!-- Node26&#45;&gt;Node27 -->
<g id="edge26" class="edge"><title>Node26&#45;&gt;Node27</title>
<path fill="none" stroke="midnightblue" d="M692.071,-71.1412C722.31,-86.4596 768.835,-110.029 795.124,-123.346"/>
<polygon fill="midnightblue" stroke="midnightblue" points="693.374,-67.8779 682.871,-66.481 690.21,-74.1224 693.374,-67.8779"/>
</g>
<!-- Node28 -->
<g id="node28" class="node"><title>Node28</title>
<g id="a_node28"><a xlink:href="tiffio_8h.html#acd3bb3a843674f44624f98f2d6f7785a" target="_top" xlink:title="TIFFRGBAImageBegin">
<polygon fill="white" stroke="black" points="911.594,-167.415 911.594,-187.415 1030.41,-187.415 1030.41,-167.415 911.594,-167.415"/>
<text text-anchor="middle" x="971" y="-173.415" font-family="Helvetica,sans-Serif" font-size="10.00">TIFFRGBAImageBegin</text>
</a>
</g>
</g>
<!-- Node27&#45;&gt;Node28 -->
<g id="edge27" class="edge"><title>Node27&#45;&gt;Node28</title>
<path fill="none" stroke="midnightblue" d="M861.79,-146.295C885.159,-153.016 913.325,-161.116 935.062,-167.367"/>
<polygon fill="midnightblue" stroke="midnightblue" points="862.679,-142.909 852.101,-143.509 860.744,-149.637 862.679,-142.909"/>
</g>
<!-- Node29 -->
<g id="node29" class="node"><title>Node29</title>
<g id="a_node29"><a xlink:href="tiffio_8h.html#a37f05a9b68bdc13fb34dc6d4182914d4" target="_top" xlink:title="TIFFReadRGBAImageOriented">
<polygon fill="white" stroke="black" points="1074.25,-167.415 1074.25,-187.415 1229.75,-187.415 1229.75,-167.415 1074.25,-167.415"/>
<text text-anchor="middle" x="1152" y="-173.415" font-family="Helvetica,sans-Serif" font-size="10.00">TIFFReadRGBAImageOriented</text>
</a>
</g>
</g>
<!-- Node28&#45;&gt;Node29 -->
<g id="edge28" class="edge"><title>Node28&#45;&gt;Node29</title>
<path fill="none" stroke="midnightblue" d="M1040.86,-177.415C1051.71,-177.415 1062.99,-177.415 1074.02,-177.415"/>
<polygon fill="midnightblue" stroke="midnightblue" points="1040.61,-173.915 1030.61,-177.415 1040.61,-180.915 1040.61,-173.915"/>
</g>
<!-- Node36 -->
<g id="node36" class="node"><title>Node36</title>
<g id="a_node36"><a xlink:href="tiffio_8h.html#a078cb3ec8bbc21b9d0b107241bdeb340" target="_top" xlink:title="TIFFReadRGBAStrip">
<polygon fill="white" stroke="black" points="1097.04,-128.415 1097.04,-148.415 1206.96,-148.415 1206.96,-128.415 1097.04,-128.415"/>
<text text-anchor="middle" x="1152" y="-134.415" font-family="Helvetica,sans-Serif" font-size="10.00">TIFFReadRGBAStrip</text>
</a>
</g>
</g>
<!-- Node28&#45;&gt;Node36 -->
<g id="edge35" class="edge"><title>Node28&#45;&gt;Node36</title>
<path fill="none" stroke="midnightblue" d="M1028.08,-165.196C1052.84,-159.8 1081.59,-153.537 1105.06,-148.424"/>
<polygon fill="midnightblue" stroke="midnightblue" points="1027.12,-161.822 1018.1,-167.371 1028.61,-168.662 1027.12,-161.822"/>
</g>
<!-- Node37 -->
<g id="node37" class="node"><title>Node37</title>
<g id="a_node37"><a xlink:href="tiffio_8h.html#a9cb0696bc0bde1de66286981e94def26" target="_top" xlink:title="TIFFReadRGBATile">
<polygon fill="white" stroke="black" points="1099.82,-206.415 1099.82,-226.415 1204.18,-226.415 1204.18,-206.415 1099.82,-206.415"/>
<text text-anchor="middle" x="1152" y="-212.415" font-family="Helvetica,sans-Serif" font-size="10.00">TIFFReadRGBATile</text>
</a>
</g>
</g>
<!-- Node28&#45;&gt;Node37 -->
<g id="edge36" class="edge"><title>Node28&#45;&gt;Node37</title>
<path fill="none" stroke="midnightblue" d="M1028.08,-189.633C1052.84,-195.029 1081.59,-201.293 1105.06,-206.405"/>
<polygon fill="midnightblue" stroke="midnightblue" points="1028.61,-186.167 1018.1,-187.458 1027.12,-193.007 1028.61,-186.167"/>
</g>
<!-- Node30 -->
<g id="node30" class="node"><title>Node30</title>
<g id="a_node30"><a xlink:href="tiffio_8h.html#a2992848d0612320b0aa5e7ef655a824e" target="_top" xlink:title="TIFFReadRGBAImage">
<polygon fill="white" stroke="black" points="1278.43,-167.415 1278.43,-187.415 1395.57,-187.415 1395.57,-167.415 1278.43,-167.415"/>
<text text-anchor="middle" x="1337" y="-173.415" font-family="Helvetica,sans-Serif" font-size="10.00">TIFFReadRGBAImage</text>
</a>
</g>
</g>
<!-- Node29&#45;&gt;Node30 -->
<g id="edge29" class="edge"><title>Node29&#45;&gt;Node30</title>
<path fill="none" stroke="midnightblue" d="M1240.15,-177.415C1253.1,-177.415 1266.17,-177.415 1278.31,-177.415"/>
<polygon fill="midnightblue" stroke="midnightblue" points="1239.81,-173.915 1229.81,-177.415 1239.81,-180.915 1239.81,-173.915"/>
</g>
<!-- Node31 -->
<g id="node31" class="node"><title>Node31</title>
<g id="a_node31"><a xlink:href="class_t_i_f_f_image_i_o.html#a65d99c4b2c48e346698c0ae5462f2b20" target="_top" xlink:title="TIFFImageIO::Read">
<polygon fill="white" stroke="black" points="1284.54,-212.415 1284.54,-232.415 1389.46,-232.415 1389.46,-212.415 1284.54,-212.415"/>
<text text-anchor="middle" x="1337" y="-218.415" font-family="Helvetica,sans-Serif" font-size="10.00">TIFFImageIO::Read</text>
</a>
</g>
</g>
<!-- Node29&#45;&gt;Node31 -->
<g id="edge30" class="edge"><title>Node29&#45;&gt;Node31</title>
<path fill="none" stroke="midnightblue" d="M1203.93,-189.939C1232.69,-197.009 1268.14,-205.727 1295.07,-212.349"/>
<polygon fill="midnightblue" stroke="midnightblue" points="1204.62,-186.503 1194.07,-187.514 1202.94,-193.3 1204.62,-186.503"/>
</g>
<!-- Node32 -->
<g id="node32" class="node"><title>Node32</title>
<g id="a_node32"><a xlink:href="class_t_i_f_f_image_i_o.html#a972c82b540defb6309ae7c051d1d3694" target="_top" xlink:title="TIFFImageIO::ReadPages">
<polygon fill="white" stroke="black" points="1455.36,-212.415 1455.36,-232.415 1588.64,-232.415 1588.64,-212.415 1455.36,-212.415"/>
<text text-anchor="middle" x="1522" y="-218.415" font-family="Helvetica,sans-Serif" font-size="10.00">TIFFImageIO::ReadPages</text>
</a>
</g>
</g>
<!-- Node31&#45;&gt;Node32 -->
<g id="edge31" class="edge"><title>Node31&#45;&gt;Node32</title>
<path fill="none" stroke="midnightblue" d="M1399.5,-222.415C1417.41,-222.415 1437.04,-222.415 1455.2,-222.415"/>
<polygon fill="midnightblue" stroke="midnightblue" points="1399.46,-218.915 1389.46,-222.415 1399.46,-225.915 1399.46,-218.915"/>
</g>
<!-- Node34 -->
<g id="node34" class="node"><title>Node34</title>
<g id="a_node34"><a xlink:href="class_t_i_f_f_image_i_o.html#a167f81244878f036d2f6bec094eefc84" target="_top" xlink:title="TIFFImageIO::ReadSinglePage">
<polygon fill="white" stroke="black" points="1443.97,-251.415 1443.97,-271.415 1600.03,-271.415 1600.03,-251.415 1443.97,-251.415"/>
<text text-anchor="middle" x="1522" y="-257.415" font-family="Helvetica,sans-Serif" font-size="10.00">TIFFImageIO::ReadSinglePage</text>
</a>
</g>
</g>
<!-- Node31&#45;&gt;Node34 -->
<g id="edge33" class="edge"><title>Node31&#45;&gt;Node34</title>
<path fill="none" stroke="midnightblue" d="M1395,-234.562C1420.39,-239.973 1449.94,-246.27 1474.03,-251.405"/>
<polygon fill="midnightblue" stroke="midnightblue" points="1395.64,-231.119 1385.13,-232.458 1394.18,-237.966 1395.64,-231.119"/>
</g>
<!-- Node33 -->
<g id="node33" class="node"><title>Node33</title>
<g id="a_node33"><a xlink:href="classrc_engine_impl.html#ac0162da8fe4f677ad6f3d04a465d50f0" target="_top" xlink:title="rcEngineImpl::loadMovie">
<polygon fill="white" stroke="black" points="1646.25,-222.415 1646.25,-242.415 1771.75,-242.415 1771.75,-222.415 1646.25,-222.415"/>
<text text-anchor="middle" x="1709" y="-228.415" font-family="Helvetica,sans-Serif" font-size="10.00">rcEngineImpl::loadMovie</text>
</a>
</g>
</g>
<!-- Node32&#45;&gt;Node33 -->
<g id="edge32" class="edge"><title>Node32&#45;&gt;Node33</title>
<path fill="none" stroke="midnightblue" d="M1598.96,-226.52C1614.67,-227.37 1631.04,-228.255 1646.18,-229.073"/>
<polygon fill="midnightblue" stroke="midnightblue" points="1598.92,-223.013 1588.74,-225.968 1598.54,-230.003 1598.92,-223.013"/>
</g>
<!-- Node35 -->
<g id="node35" class="node"><title>Node35</title>
<g id="a_node35"><a xlink:href="classrc_window.html#a5da06176e6878b676bbc534db6b09b7d" target="_top" xlink:title="rcWindow::rcWindow">
<polygon fill="white" stroke="black" points="1654.33,-280.415 1654.33,-300.415 1763.67,-300.415 1763.67,-280.415 1654.33,-280.415"/>
<text text-anchor="middle" x="1709" y="-286.415" font-family="Helvetica,sans-Serif" font-size="10.00">rcWindow::rcWindow</text>
</a>
</g>
</g>
<!-- Node34&#45;&gt;Node35 -->
<g id="edge34" class="edge"><title>Node34&#45;&gt;Node35</title>
<path fill="none" stroke="midnightblue" d="M1596.83,-272.988C1616,-275.993 1636.29,-279.174 1654.21,-281.983"/>
<polygon fill="midnightblue" stroke="midnightblue" points="1597.35,-269.526 1586.93,-271.435 1596.26,-276.442 1597.35,-269.526"/>
</g>
<!-- Node39 -->
<g id="node39" class="node"><title>Node39</title>
<g id="a_node39"><a xlink:href="tiffio_8h.html#a77331410fe61684d07ade11eeda17aae" target="_top" xlink:title="TIFFVGetFieldDefaulted">
<polygon fill="white" stroke="black" points="255.813,-163.415 255.813,-183.415 380.187,-183.415 380.187,-163.415 255.813,-163.415"/>
<text text-anchor="middle" x="318" y="-169.415" font-family="Helvetica,sans-Serif" font-size="10.00">TIFFVGetFieldDefaulted</text>
</a>
</g>
</g>
<!-- Node38&#45;&gt;Node39 -->
<g id="edge38" class="edge"><title>Node38&#45;&gt;Node39</title>
<path fill="none" stroke="midnightblue" d="M224.137,-183.555C234.745,-182.397 245.469,-181.225 255.676,-180.111"/>
<polygon fill="midnightblue" stroke="midnightblue" points="223.584,-180.094 214.023,-184.659 224.344,-187.053 223.584,-180.094"/>
</g>
<!-- Node40 -->
<g id="node40" class="node"><title>Node40</title>
<g id="a_node40"><a xlink:href="tiffio_8h.html#a01cc7328600faa97d8f29d79b5aca979" target="_top" xlink:title="TIFFGetFieldDefaulted">
<polygon fill="white" stroke="black" points="432.148,-163.415 432.148,-183.415 549.852,-183.415 549.852,-163.415 432.148,-163.415"/>
<text text-anchor="middle" x="491" y="-169.415" font-family="Helvetica,sans-Serif" font-size="10.00">TIFFGetFieldDefaulted</text>
</a>
</g>
</g>
<!-- Node39&#45;&gt;Node40 -->
<g id="edge39" class="edge"><title>Node39&#45;&gt;Node40</title>
<path fill="none" stroke="midnightblue" d="M390.27,-173.415C404.184,-173.415 418.615,-173.415 432.033,-173.415"/>
<polygon fill="midnightblue" stroke="midnightblue" points="390.252,-169.915 380.252,-173.415 390.252,-176.915 390.252,-169.915"/>
</g>
<!-- Node40&#45;&gt;Node26 -->
<g id="edge51" class="edge"><title>Node40&#45;&gt;Node26</title>
<path fill="none" stroke="midnightblue" d="M507.935,-155.949C527.162,-135.73 561.256,-102.512 596,-81.4146 605.921,-75.3903 617.542,-70.3686 628.193,-66.4447"/>
<polygon fill="midnightblue" stroke="midnightblue" points="505.376,-153.562 501.098,-163.255 510.486,-158.346 505.376,-153.562"/>
</g>
<!-- Node40&#45;&gt;Node28 -->
<g id="edge44" class="edge"><title>Node40&#45;&gt;Node28</title>
<path fill="none" stroke="midnightblue" d="M559.882,-183.647C571.89,-185.144 584.294,-186.49 596,-187.415 716.527,-196.933 747.379,-199.654 868,-191.415 882.088,-190.452 897.194,-188.751 911.349,-186.858"/>
<polygon fill="midnightblue" stroke="midnightblue" points="560.278,-180.169 549.912,-182.359 559.381,-187.111 560.278,-180.169"/>
</g>
<!-- Node40&#45;&gt;Node36 -->
<g id="edge52" class="edge"><title>Node40&#45;&gt;Node36</title>
<path fill="none" stroke="midnightblue" d="M508.611,-155.743C522.921,-140.151 543.771,-116.529 560,-94.4146 577.95,-69.9549 569.487,-51.1635 596,-36.4146 786.489,69.5504 1065.1,-85.7329 1134.76,-128.188"/>
<polygon fill="midnightblue" stroke="midnightblue" points="506.011,-153.4 501.784,-163.114 511.147,-158.156 506.011,-153.4"/>
</g>
<!-- Node40&#45;&gt;Node37 -->
<g id="edge53" class="edge"><title>Node40&#45;&gt;Node37</title>
<path fill="none" stroke="midnightblue" d="M509.181,-190.706C528.475,-208.945 561.612,-236.88 596,-250.415 784.638,-324.66 1037.26,-254.218 1121.95,-226.505"/>
<polygon fill="midnightblue" stroke="midnightblue" points="511.415,-187.996 501.797,-183.553 506.544,-193.024 511.415,-187.996"/>
</g>
<!-- Node41 -->
<g id="node41" class="node"><title>Node41</title>
<g id="a_node41"><a xlink:href="tiffio_8h.html#a5a687eb1fa6ca6d7a457559b322cf04a" target="_top" xlink:title="TIFFRGBAImageOK">
<polygon fill="white" stroke="black" points="917.158,-128.415 917.158,-148.415 1024.84,-148.415 1024.84,-128.415 917.158,-128.415"/>
<text text-anchor="middle" x="971" y="-134.415" font-family="Helvetica,sans-Serif" font-size="10.00">TIFFRGBAImageOK</text>
</a>
</g>
</g>
<!-- Node40&#45;&gt;Node41 -->
<g id="edge40" class="edge"><title>Node40&#45;&gt;Node41</title>
<path fill="none" stroke="midnightblue" d="M512.916,-157.245C532.968,-142.833 564.728,-122.767 596,-114.415 712.796,-83.2202 747.982,-98.9211 868,-113.415 891.712,-116.278 917.866,-122.757 937.753,-128.402"/>
<polygon fill="midnightblue" stroke="midnightblue" points="510.793,-154.462 504.823,-163.215 514.948,-160.095 510.793,-154.462"/>
</g>
<!-- Node42 -->
<g id="node42" class="node"><title>Node42</title>
<g id="a_node42"><a xlink:href="tif__getimage_8c.html#a5c4b515440d0ac5f91d5ae61e1c2eb1c" target="_top" xlink:title="gtStripContig">
<polygon fill="white" stroke="black" points="779.096,-162.415 779.096,-182.415 852.904,-182.415 852.904,-162.415 779.096,-162.415"/>
<text text-anchor="middle" x="816" y="-168.415" font-family="Helvetica,sans-Serif" font-size="10.00">gtStripContig</text>
</a>
</g>
</g>
<!-- Node40&#45;&gt;Node42 -->
<g id="edge45" class="edge"><title>Node40&#45;&gt;Node42</title>
<path fill="none" stroke="midnightblue" d="M560.134,-173.204C626.901,-172.997 726.096,-172.69 778.884,-172.526"/>
<polygon fill="midnightblue" stroke="midnightblue" points="560.108,-169.704 550.119,-173.235 560.13,-176.704 560.108,-169.704"/>
</g>
<!-- Node43 -->
<g id="node43" class="node"><title>Node43</title>
<g id="a_node43"><a xlink:href="tif__getimage_8c.html#a77889ae27269991a284dd36ef28cc1a8" target="_top" xlink:title="gtStripSeparate">
<polygon fill="white" stroke="black" points="773.256,-240.415 773.256,-260.415 858.744,-260.415 858.744,-240.415 773.256,-240.415"/>
<text text-anchor="middle" x="816" y="-246.415" font-family="Helvetica,sans-Serif" font-size="10.00">gtStripSeparate</text>
</a>
</g>
</g>
<!-- Node40&#45;&gt;Node43 -->
<g id="edge47" class="edge"><title>Node40&#45;&gt;Node43</title>
<path fill="none" stroke="midnightblue" d="M516.5,-188.759C536.957,-200.796 567.304,-216.893 596,-225.415 655.796,-243.171 728.23,-248.451 772.967,-249.944"/>
<polygon fill="midnightblue" stroke="midnightblue" points="518.213,-185.705 507.838,-183.556 514.608,-191.706 518.213,-185.705"/>
</g>
<!-- Node44 -->
<g id="node44" class="node"><title>Node44</title>
<g id="a_node44"><a xlink:href="tif__getimage_8c.html#adc8b390bb5b34fbb60965e2cbca73d8d" target="_top" xlink:title="initYCbCrConversion">
<polygon fill="white" stroke="black" points="607.315,-124.415 607.315,-144.415 716.685,-144.415 716.685,-124.415 607.315,-124.415"/>
<text text-anchor="middle" x="662" y="-130.415" font-family="Helvetica,sans-Serif" font-size="10.00">initYCbCrConversion</text>
</a>
</g>
</g>
<!-- Node40&#45;&gt;Node44 -->
<g id="edge49" class="edge"><title>Node40&#45;&gt;Node44</title>
<path fill="none" stroke="midnightblue" d="M545.573,-161.052C568.81,-155.689 595.668,-149.491 617.626,-144.424"/>
<polygon fill="midnightblue" stroke="midnightblue" points="544.479,-157.712 535.522,-163.371 546.053,-164.533 544.479,-157.712"/>
</g>
<!-- Node45 -->
<g id="node45" class="node"><title>Node45</title>
<g id="a_node45"><a xlink:href="class_t_i_f_f_reader_internal.html#af1d26c3cb421841e534dfa71dab023b9" target="_top" xlink:title="TIFFReaderInternal\l::Initialize">
<polygon fill="white" stroke="black" points="764.372,-318.415 764.372,-350.415 867.628,-350.415 867.628,-318.415 764.372,-318.415"/>
<text text-anchor="start" x="772.372" y="-336.415" font-family="Helvetica,sans-Serif" font-size="10.00">TIFFReaderInternal</text>
<text text-anchor="middle" x="816" y="-324.415" font-family="Helvetica,sans-Serif" font-size="10.00">::Initialize</text>
</a>
</g>
</g>
<!-- Node40&#45;&gt;Node45 -->
<g id="edge54" class="edge"><title>Node40&#45;&gt;Node45</title>
<path fill="none" stroke="midnightblue" d="M501.469,-192.955C516.841,-222.35 550.185,-277.284 596,-303.415 647.868,-332.998 717.527,-338.08 764.227,-337.511"/>
<polygon fill="midnightblue" stroke="midnightblue" points="504.429,-191.053 496.79,-183.711 498.184,-194.214 504.429,-191.053"/>
</g>
<!-- Node41&#45;&gt;Node29 -->
<g id="edge41" class="edge"><title>Node41&#45;&gt;Node29</title>
<path fill="none" stroke="midnightblue" d="M1028.08,-150.633C1052.84,-156.029 1081.59,-162.293 1105.06,-167.405"/>
<polygon fill="midnightblue" stroke="midnightblue" points="1028.61,-147.167 1018.1,-148.458 1027.12,-154.007 1028.61,-147.167"/>
</g>
<!-- Node41&#45;&gt;Node36 -->
<g id="edge42" class="edge"><title>Node41&#45;&gt;Node36</title>
<path fill="none" stroke="midnightblue" d="M1035.49,-138.415C1055.51,-138.415 1077.43,-138.415 1096.74,-138.415"/>
<polygon fill="midnightblue" stroke="midnightblue" points="1035.22,-134.915 1025.22,-138.415 1035.22,-141.915 1035.22,-134.915"/>
</g>
<!-- Node41&#45;&gt;Node37 -->
<g id="edge43" class="edge"><title>Node41&#45;&gt;Node37</title>
<path fill="none" stroke="midnightblue" d="M1028.58,-152.395C1031.85,-153.906 1035.02,-155.574 1038,-157.415 1058.08,-169.801 1053.76,-184.292 1074,-196.415 1081.82,-201.099 1090.73,-204.698 1099.64,-207.459"/>
<polygon fill="midnightblue" stroke="midnightblue" points="1029.74,-149.087 1019.16,-148.539 1027.09,-155.565 1029.74,-149.087"/>
</g>
<!-- Node42&#45;&gt;Node28 -->
<g id="edge46" class="edge"><title>Node42&#45;&gt;Node28</title>
<path fill="none" stroke="midnightblue" d="M863.424,-173.932C878.594,-174.427 895.64,-174.985 911.576,-175.505"/>
<polygon fill="midnightblue" stroke="midnightblue" points="863.368,-170.428 853.259,-173.6 863.139,-177.424 863.368,-170.428"/>
</g>
<!-- Node43&#45;&gt;Node28 -->
<g id="edge48" class="edge"><title>Node43&#45;&gt;Node28</title>
<path fill="none" stroke="midnightblue" d="M847.454,-235.884C877.493,-221.552 922.616,-200.023 948.907,-187.479"/>
<polygon fill="midnightblue" stroke="midnightblue" points="845.792,-232.799 838.274,-240.264 848.807,-239.117 845.792,-232.799"/>
</g>
<!-- Node44&#45;&gt;Node27 -->
<g id="edge50" class="edge"><title>Node44&#45;&gt;Node27</title>
<path fill="none" stroke="midnightblue" d="M727.052,-133.993C739.721,-133.91 752.843,-133.824 764.965,-133.744"/>
<polygon fill="midnightblue" stroke="midnightblue" points="726.994,-130.493 717.017,-134.059 727.04,-137.493 726.994,-130.493"/>
</g>
<!-- Node46 -->
<g id="node46" class="node"><title>Node46</title>
<g id="a_node46"><a xlink:href="class_t_i_f_f_reader_internal.html#adc7888a9bc3fe28248b49b8b204ae8ae" target="_top" xlink:title="TIFFReaderInternal\l::Open">
<polygon fill="white" stroke="black" points="1285.37,-294.415 1285.37,-326.415 1388.63,-326.415 1388.63,-294.415 1285.37,-294.415"/>
<text text-anchor="start" x="1293.37" y="-312.415" font-family="Helvetica,sans-Serif" font-size="10.00">TIFFReaderInternal</text>
<text text-anchor="middle" x="1337" y="-300.415" font-family="Helvetica,sans-Serif" font-size="10.00">::Open</text>
</a>
</g>
</g>
<!-- Node45&#45;&gt;Node46 -->
<g id="edge55" class="edge"><title>Node45&#45;&gt;Node46</title>
<path fill="none" stroke="midnightblue" d="M877.979,-331.595C981.326,-326.816 1189,-317.212 1285.09,-312.769"/>
<polygon fill="midnightblue" stroke="midnightblue" points="877.536,-328.111 867.709,-332.07 877.86,-335.104 877.536,-328.111"/>
</g>
<!-- Node47 -->
<g id="node47" class="node"><title>Node47</title>
<g id="a_node47"><a xlink:href="class_t_i_f_f_image_i_o.html#abec0d00f473debbd9d05f5a0e4820402" target="_top" xlink:title="TIFFImageIO::CanReadFile">
<polygon fill="white" stroke="black" points="1452.31,-290.415 1452.31,-310.415 1591.69,-310.415 1591.69,-290.415 1452.31,-290.415"/>
<text text-anchor="middle" x="1522" y="-296.415" font-family="Helvetica,sans-Serif" font-size="10.00">TIFFImageIO::CanReadFile</text>
</a>
</g>
</g>
<!-- Node46&#45;&gt;Node47 -->
<g id="edge56" class="edge"><title>Node46&#45;&gt;Node47</title>
<path fill="none" stroke="midnightblue" d="M1399.31,-307.064C1416.28,-306.137 1434.81,-305.125 1452.17,-304.176"/>
<polygon fill="midnightblue" stroke="midnightblue" points="1398.77,-303.589 1388.98,-307.629 1399.15,-310.578 1398.77,-303.589"/>
</g>
<!-- Node47&#45;&gt;Node33 -->
<g id="edge57" class="edge"><title>Node47&#45;&gt;Node33</title>
<path fill="none" stroke="midnightblue" d="M1576.79,-287.65C1584.64,-285.44 1592.57,-283.01 1600,-280.415 1631.57,-269.382 1666.72,-252.939 1688.1,-242.448"/>
<polygon fill="midnightblue" stroke="midnightblue" points="1575.68,-284.327 1566.95,-290.328 1577.51,-291.081 1575.68,-284.327"/>
</g>
<!-- Node47&#45;&gt;Node35 -->
<g id="edge58" class="edge"><title>Node47&#45;&gt;Node35</title>
<path fill="none" stroke="midnightblue" d="M1602.11,-296.138C1619.65,-295.19 1637.83,-294.207 1654.09,-293.329"/>
<polygon fill="midnightblue" stroke="midnightblue" points="1601.68,-292.656 1591.89,-296.691 1602.06,-299.646 1601.68,-292.656"/>
</g>
</g>
</svg>
