<?xml version="1.0" encoding="UTF-8" standalone="no"?>
<!DOCTYPE svg PUBLIC "-//W3C//DTD SVG 1.1//EN"
 "http://www.w3.org/Graphics/SVG/1.1/DTD/svg11.dtd">
<!-- Generated by graphviz version 2.32.0 (20130916.1925)
 -->
<!-- Title: dump_deque Pages: 1 -->
<!--zoomable 222 -->
<svg id="main" version="1.1" xmlns="http://www.w3.org/2000/svg" xmlns:xlink="http://www.w3.org/1999/xlink" xml:space="preserve" onload="init(evt)">
        <defs>
                <circle id="rim" cx="0" cy="0" r="7"/>
                <circle id="rim2" cx="0" cy="0" r="3.5"/>
                <g id="zoomPlus">
                        <use xlink:href="#rim" fill="#404040">
                                <set attributeName="fill" to="#808080" begin="zoomplus.mouseover" end="zoomplus.mouseout"/>
                        </use>
                        <path d="M-4,0h8M0,-4v8" fill="none" stroke="white" stroke-width="1.5" pointer-events="none"/>
                </g>
                <g id="zoomMin">
                        <use xlink:href="#rim" fill="#404040">
                                <set attributeName="fill" to="#808080" begin="zoomminus.mouseover" end="zoomminus.mouseout"/>
                        </use>
                        <path d="M-4,0h8" fill="none" stroke="white" stroke-width="1.5" pointer-events="none"/>
                </g>
                <g id="dirArrow">
                        <path fill="none" stroke="white" stroke-width="1.5" d="M0,-3.0v7 M-2.5,-0.5L0,-3.0L2.5,-0.5"/>
                </g>
               <g id="resetDef">
                       <use xlink:href="#rim2" fill="#404040">
                               <set attributeName="fill" to="#808080" begin="reset.mouseover" end="reset.mouseout"/>
                       </use>
               </g>
        </defs>

<script type="text/javascript">
var viewWidth = 616;
var viewHeight = 222;
var sectionId = 'dynsection-14';
</script>
<script xlink:href="svgpan.js"/>
<svg id="graph" class="graph">
<g id="viewport">
<title>dump_deque</title>
<polygon fill="white" stroke="white" points="-4,5 -4,-218 613,-218 613,5 -4,5"/>
<!-- Node1 -->
<g id="node1" class="node"><title>Node1</title>
<polygon fill="#bfbfbf" stroke="black" points="-0.191895,-90 -0.191895,-110 74.1919,-110 74.1919,-90 -0.191895,-90"/>
<text text-anchor="middle" x="37" y="-96" font-family="Helvetica,sans-Serif" font-size="10.00">dump_deque</text>
</g>
<!-- Node2 -->
<g id="node2" class="node"><title>Node2</title>
<g id="a_node2"><a xlink:href="visimatch_8cpp.html#a455a979b4529b4ab9bf44ef7f4c535eb" target="_top" xlink:title="dump">
<polygon fill="white" stroke="black" points="110.493,-90 110.493,-110 151.507,-110 151.507,-90 110.493,-90"/>
<text text-anchor="middle" x="131" y="-96" font-family="Helvetica,sans-Serif" font-size="10.00">dump</text>
</a>
</g>
</g>
<!-- Node1&#45;&gt;Node2 -->
<g id="edge1" class="edge"><title>Node1&#45;&gt;Node2</title>
<path fill="none" stroke="midnightblue" d="M84.5527,-100C93.6358,-100 102.69,-100 110.299,-100"/>
<polygon fill="midnightblue" stroke="midnightblue" points="84.3609,-96.5001 74.3608,-100 84.3608,-103.5 84.3609,-96.5001"/>
</g>
<!-- Node3 -->
<g id="node3" class="node"><title>Node3</title>
<g id="a_node3"><a xlink:href="classinf.html#a01c537a07a801ad2c1f7e4e16401896a" target="_top" xlink:title="inf::dump">
<polygon fill="white" stroke="black" points="217.434,-168 217.434,-188 274.566,-188 274.566,-168 217.434,-168"/>
<text text-anchor="middle" x="246" y="-174" font-family="Helvetica,sans-Serif" font-size="10.00">inf::dump</text>
</a>
</g>
</g>
<!-- Node2&#45;&gt;Node3 -->
<g id="edge2" class="edge"><title>Node2&#45;&gt;Node3</title>
<path fill="none" stroke="midnightblue" d="M145.969,-118.486C156.357,-131.126 171.534,-147.441 188,-158 196.916,-163.718 207.67,-168.037 217.422,-171.171"/>
<polygon fill="midnightblue" stroke="midnightblue" points="148.542,-116.098 139.585,-110.438 143.058,-120.448 148.542,-116.098"/>
</g>
<!-- Node4 -->
<g id="node4" class="node"><title>Node4</title>
<g id="a_node4"><a xlink:href="library__manager_8cpp.html#adbf0f3e9b6c1b913546bf07c2819e458" target="_top" xlink:title="write_context">
<polygon fill="white" stroke="black" points="208.542,-129 208.542,-149 283.458,-149 283.458,-129 208.542,-129"/>
<text text-anchor="middle" x="246" y="-135" font-family="Helvetica,sans-Serif" font-size="10.00">write_context</text>
</a>
</g>
</g>
<!-- Node2&#45;&gt;Node4 -->
<g id="edge3" class="edge"><title>Node2&#45;&gt;Node4</title>
<path fill="none" stroke="midnightblue" d="M161.495,-110.18C178.231,-115.956 199.101,-123.159 215.789,-128.918"/>
<polygon fill="midnightblue" stroke="midnightblue" points="162.278,-106.747 151.683,-106.793 159.994,-113.364 162.278,-106.747"/>
</g>
<!-- Node11 -->
<g id="node11" class="node"><title>Node11</title>
<g id="a_node11"><a xlink:href="library__manager_8hpp.html#a4311518b098c170a9a654089647c87e7" target="_top" xlink:title="dump">
<polygon fill="white" stroke="black" points="225.493,-90 225.493,-110 266.507,-110 266.507,-90 225.493,-90"/>
<text text-anchor="middle" x="246" y="-96" font-family="Helvetica,sans-Serif" font-size="10.00">dump</text>
</a>
</g>
</g>
<!-- Node2&#45;&gt;Node11 -->
<g id="edge10" class="edge"><title>Node2&#45;&gt;Node11</title>
<path fill="none" stroke="midnightblue" d="M161.829,-100C181.839,-100 207.641,-100 225.163,-100"/>
<polygon fill="midnightblue" stroke="midnightblue" points="161.683,-96.5001 151.683,-100 161.683,-103.5 161.683,-96.5001"/>
</g>
<!-- Node12 -->
<g id="node12" class="node"><title>Node12</title>
<g id="a_node12"><a xlink:href="classlm__unit.html#ac56f4305b294e90ad29709b6911f965c" target="_top" xlink:title="lm_unit::dump_header">
<polygon fill="white" stroke="black" points="188.247,-51 188.247,-71 303.753,-71 303.753,-51 188.247,-51"/>
<text text-anchor="middle" x="246" y="-57" font-family="Helvetica,sans-Serif" font-size="10.00">lm_unit::dump_header</text>
</a>
</g>
</g>
<!-- Node2&#45;&gt;Node12 -->
<g id="edge11" class="edge"><title>Node2&#45;&gt;Node12</title>
<path fill="none" stroke="midnightblue" d="M161.495,-89.8203C178.231,-84.0441 199.101,-76.8414 215.789,-71.0815"/>
<polygon fill="midnightblue" stroke="midnightblue" points="159.994,-86.6357 151.683,-93.2067 162.278,-93.2527 159.994,-86.6357"/>
</g>
<!-- Node14 -->
<g id="node14" class="node"><title>Node14</title>
<g id="a_node14"><a xlink:href="classrc_camera_mapper.html#a2124becc0391d389b0437c82e6d5b913" target="_top" xlink:title="rcCameraMapper::Fill\l_dcam_info">
<polygon fill="white" stroke="black" points="189.934,-0 189.934,-32 302.066,-32 302.066,-0 189.934,-0"/>
<text text-anchor="start" x="197.934" y="-18" font-family="Helvetica,sans-Serif" font-size="10.00">rcCameraMapper::Fill</text>
<text text-anchor="middle" x="246" y="-6" font-family="Helvetica,sans-Serif" font-size="10.00">_dcam_info</text>
</a>
</g>
</g>
<!-- Node2&#45;&gt;Node14 -->
<g id="edge13" class="edge"><title>Node2&#45;&gt;Node14</title>
<path fill="none" stroke="midnightblue" d="M146.275,-81.968C156.806,-69.5405 172.028,-53.2929 188,-42 193.151,-38.358 198.894,-35.0316 204.696,-32.0649"/>
<polygon fill="midnightblue" stroke="midnightblue" points="143.437,-79.9089 139.782,-89.8535 148.84,-84.3585 143.437,-79.9089"/>
</g>
<!-- Node5 -->
<g id="node5" class="node"><title>Node5</title>
<g id="a_node5"><a xlink:href="library__manager_8cpp.html#a29fa3599c06d92eefffafa23a533ed58" target="_top" xlink:title="create_library">
<polygon fill="white" stroke="black" points="353.709,-157 353.709,-177 430.291,-177 430.291,-157 353.709,-157"/>
<text text-anchor="middle" x="392" y="-163" font-family="Helvetica,sans-Serif" font-size="10.00">create_library</text>
</a>
</g>
</g>
<!-- Node4&#45;&gt;Node5 -->
<g id="edge4" class="edge"><title>Node4&#45;&gt;Node5</title>
<path fill="none" stroke="midnightblue" d="M293.576,-148.056C313.006,-151.835 335.27,-156.164 353.605,-159.729"/>
<polygon fill="midnightblue" stroke="midnightblue" points="294.194,-144.611 283.71,-146.138 292.858,-151.482 294.194,-144.611"/>
</g>
<!-- Node8 -->
<g id="node8" class="node"><title>Node8</title>
<g id="a_node8"><a xlink:href="classlm__library.html#a0b847ac1d6155add2ecdfd009f97567f" target="_top" xlink:title="lm_library::set_read\l_write">
<polygon fill="white" stroke="black" points="340.094,-106 340.094,-138 443.906,-138 443.906,-106 340.094,-106"/>
<text text-anchor="start" x="348.094" y="-124" font-family="Helvetica,sans-Serif" font-size="10.00">lm_library::set_read</text>
<text text-anchor="middle" x="392" y="-112" font-family="Helvetica,sans-Serif" font-size="10.00">_write</text>
</a>
</g>
</g>
<!-- Node4&#45;&gt;Node8 -->
<g id="edge7" class="edge"><title>Node4&#45;&gt;Node8</title>
<path fill="none" stroke="midnightblue" d="M293.653,-133.492C308.447,-131.746 324.876,-129.806 339.961,-128.025"/>
<polygon fill="midnightblue" stroke="midnightblue" points="293.231,-130.018 283.71,-134.666 294.051,-136.97 293.231,-130.018"/>
</g>
<!-- Node6 -->
<g id="node6" class="node"><title>Node6</title>
<g id="a_node6"><a xlink:href="classlm__library.html#a4efccb5e2f455c573592df7c31097892" target="_top" xlink:title="lm_library::create">
<polygon fill="white" stroke="black" points="497.655,-194 497.655,-214 590.345,-214 590.345,-194 497.655,-194"/>
<text text-anchor="middle" x="544" y="-200" font-family="Helvetica,sans-Serif" font-size="10.00">lm_library::create</text>
</a>
</g>
</g>
<!-- Node5&#45;&gt;Node6 -->
<g id="edge5" class="edge"><title>Node5&#45;&gt;Node6</title>
<path fill="none" stroke="midnightblue" d="M440.272,-178.661C460.202,-183.577 483.172,-189.242 502.331,-193.968"/>
<polygon fill="midnightblue" stroke="midnightblue" points="441.012,-175.238 430.464,-176.241 439.335,-182.034 441.012,-175.238"/>
</g>
<!-- Node7 -->
<g id="node7" class="node"><title>Node7</title>
<g id="a_node7"><a xlink:href="classlibrary__manager.html#aa0f9af009d4e4cbba74d88544e328323" target="_top" xlink:title="library_manager::create">
<polygon fill="white" stroke="black" points="483.197,-155 483.197,-175 604.803,-175 604.803,-155 483.197,-155"/>
<text text-anchor="middle" x="544" y="-161" font-family="Helvetica,sans-Serif" font-size="10.00">library_manager::create</text>
</a>
</g>
</g>
<!-- Node5&#45;&gt;Node7 -->
<g id="edge6" class="edge"><title>Node5&#45;&gt;Node7</title>
<path fill="none" stroke="midnightblue" d="M440.48,-166.367C453.976,-166.187 468.852,-165.989 482.988,-165.8"/>
<polygon fill="midnightblue" stroke="midnightblue" points="440.417,-162.867 430.464,-166.5 440.51,-169.867 440.417,-162.867"/>
</g>
<!-- Node9 -->
<g id="node9" class="node"><title>Node9</title>
<g id="a_node9"><a xlink:href="classlm__library.html#a44688991cb8ad3b0798f163a127ded51" target="_top" xlink:title="lm_library::set_writable">
<polygon fill="white" stroke="black" points="484.872,-115 484.872,-135 603.128,-135 603.128,-115 484.872,-115"/>
<text text-anchor="middle" x="544" y="-121" font-family="Helvetica,sans-Serif" font-size="10.00">lm_library::set_writable</text>
</a>
</g>
</g>
<!-- Node8&#45;&gt;Node9 -->
<g id="edge8" class="edge"><title>Node8&#45;&gt;Node9</title>
<path fill="none" stroke="midnightblue" d="M454.494,-123.23C464.516,-123.43 474.87,-123.637 484.81,-123.836"/>
<polygon fill="midnightblue" stroke="midnightblue" points="454.27,-119.725 444.202,-123.024 454.13,-126.723 454.27,-119.725"/>
</g>
<!-- Node10 -->
<g id="node10" class="node"><title>Node10</title>
<g id="a_node10"><a xlink:href="classlm__library.html#a42e42491593b717d6a0b311cdfb66b1f" target="_top" xlink:title="lm_library::set_read_only">
<polygon fill="white" stroke="black" points="480.141,-76 480.141,-96 607.859,-96 607.859,-76 480.141,-76"/>
<text text-anchor="middle" x="544" y="-82" font-family="Helvetica,sans-Serif" font-size="10.00">lm_library::set_read_only</text>
</a>
</g>
</g>
<!-- Node8&#45;&gt;Node10 -->
<g id="edge9" class="edge"><title>Node8&#45;&gt;Node10</title>
<path fill="none" stroke="midnightblue" d="M454.354,-107.275C470.03,-103.513 486.528,-99.5533 500.984,-96.0837"/>
<polygon fill="midnightblue" stroke="midnightblue" points="453.109,-103.974 444.202,-109.712 454.743,-110.781 453.109,-103.974"/>
</g>
<!-- Node13 -->
<g id="node13" class="node"><title>Node13</title>
<g id="a_node13"><a xlink:href="classlm__unit.html#a04607b36e59a5a216fb25b959e580cd3" target="_top" xlink:title="lm_unit::~lm_unit">
<polygon fill="white" stroke="black" points="346.065,-51 346.065,-71 437.935,-71 437.935,-51 346.065,-51"/>
<text text-anchor="middle" x="392" y="-57" font-family="Helvetica,sans-Serif" font-size="10.00">lm_unit::~lm_unit</text>
</a>
</g>
</g>
<!-- Node12&#45;&gt;Node13 -->
<g id="edge12" class="edge"><title>Node12&#45;&gt;Node13</title>
<path fill="none" stroke="midnightblue" d="M314.188,-61C324.985,-61 335.926,-61 346.036,-61"/>
<polygon fill="midnightblue" stroke="midnightblue" points="313.913,-57.5001 303.913,-61 313.913,-64.5001 313.913,-57.5001"/>
</g>
</g>
</svg>
        <g id="navigator" transform="translate(0 0)" fill="#404254">
                <rect fill="#f2f5e9" fill-opacity="0.5" stroke="#606060" stroke-width=".5" x="0" y="0" width="60" height="60"/>
                <use id="zoomplus" xlink:href="#zoomPlus" x="17" y="9" onmousedown="handleZoom(evt,'in')"/>
                <use id="zoomminus" xlink:href="#zoomMin" x="42" y="9" onmousedown="handleZoom(evt,'out')"/>
                <use id="reset" xlink:href="#resetDef" x="30" y="36" onmousedown="handleReset()"/>
                <g id="arrowUp" xlink:href="#dirArrow" transform="translate(30 24)" onmousedown="handlePan(0,-1)">
                  <use xlink:href="#rim" fill="#404040">
                        <set attributeName="fill" to="#808080" begin="arrowUp.mouseover" end="arrowUp.mouseout"/>
                  </use>
                  <path fill="none" stroke="white" stroke-width="1.5" d="M0,-3.0v7 M-2.5,-0.5L0,-3.0L2.5,-0.5"/>
                </g>
                <g id="arrowRight" xlink:href="#dirArrow" transform="rotate(90) translate(36 -43)" onmousedown="handlePan(1,0)">
                  <use xlink:href="#rim" fill="#404040">
                        <set attributeName="fill" to="#808080" begin="arrowRight.mouseover" end="arrowRight.mouseout"/>
                  </use>
                  <path fill="none" stroke="white" stroke-width="1.5" d="M0,-3.0v7 M-2.5,-0.5L0,-3.0L2.5,-0.5"/>
                </g>
                <g id="arrowDown" xlink:href="#dirArrow" transform="rotate(180) translate(-30 -48)" onmousedown="handlePan(0,1)">
                  <use xlink:href="#rim" fill="#404040">
                        <set attributeName="fill" to="#808080" begin="arrowDown.mouseover" end="arrowDown.mouseout"/>
                  </use>
                  <path fill="none" stroke="white" stroke-width="1.5" d="M0,-3.0v7 M-2.5,-0.5L0,-3.0L2.5,-0.5"/>
                </g>
                <g id="arrowLeft" xlink:href="#dirArrow" transform="rotate(270) translate(-36 17)" onmousedown="handlePan(-1,0)">
                  <use xlink:href="#rim" fill="#404040">
                        <set attributeName="fill" to="#808080" begin="arrowLeft.mouseover" end="arrowLeft.mouseout"/>
                  </use>
                  <path fill="none" stroke="white" stroke-width="1.5" d="M0,-3.0v7 M-2.5,-0.5L0,-3.0L2.5,-0.5"/>
                </g>
        </g>
        <svg viewBox="0 0 15 15" width="100%" height="30px" preserveAspectRatio="xMaxYMin meet">
         <g id="arrow_out" transform="scale(0.3 0.3)">
          <a xlink:href="persistent_8hpp_ad663f7090f251c9983d60cd899eed527_icgraph_org.svg" target="_base">
           <rect id="button" ry="5" rx="5" y="6" x="6" height="38" width="38"
                fill="#f2f5e9" fill-opacity="0.5" stroke="#606060" stroke-width="1.0"/>
           <path id="arrow"
             d="M 11.500037,31.436501 C 11.940474,20.09759 22.043105,11.32322 32.158766,21.979434 L 37.068811,17.246167 C 37.068811,17.246167 37.088388,32 37.088388,32 L 22.160133,31.978069 C 22.160133,31.978069 26.997745,27.140456 26.997745,27.140456 C 18.528582,18.264221 13.291696,25.230495 11.500037,31.436501 z"
             style="fill:#404040;"/>
          </a>
         </g>
        </svg>
</svg>
