<?xml version="1.0" encoding="UTF-8" standalone="no"?>
<!DOCTYPE svg PUBLIC "-//W3C//DTD SVG 1.1//EN"
 "http://www.w3.org/Graphics/SVG/1.1/DTD/svg11.dtd">
<!-- Generated by graphviz version 2.32.0 (20130916.1925)
 -->
<!-- Title: src/visible/qt/rc_settingwidget.cpp Pages: 1 -->
<svg width="992pt" height="854pt"
 viewBox="0.00 0.00 991.81 854.00" xmlns="http://www.w3.org/2000/svg" xmlns:xlink="http://www.w3.org/1999/xlink">
<g id="graph0" class="graph" transform="scale(1 1) rotate(0) translate(4 850)">
<title>src/visible/qt/rc_settingwidget.cpp</title>
<polygon fill="white" stroke="white" points="-4,5 -4,-850 988.814,-850 988.814,5 -4,5"/>
<!-- Node1 -->
<g id="node1" class="node"><title>Node1</title>
<polygon fill="#bfbfbf" stroke="black" points="554.337,-825 554.337,-845 719.292,-845 719.292,-825 554.337,-825"/>
<text text-anchor="middle" x="636.814" y="-831" font-family="Helvetica,sans-Serif" font-size="10.00">src/visible/qt/rc_settingwidget.cpp</text>
</g>
<!-- Node2 -->
<g id="node2" class="node"><title>Node2</title>
<g id="a_node2"><a xlink:href="rc__settingwidget_8h.html" target="_top" xlink:title="rc_settingwidget.h">
<polygon fill="white" stroke="black" points="512.514,-767 512.514,-787 609.115,-787 609.115,-767 512.514,-767"/>
<text text-anchor="middle" x="560.814" y="-773" font-family="Helvetica,sans-Serif" font-size="10.00">rc_settingwidget.h</text>
</a>
</g>
</g>
<!-- Node1&#45;&gt;Node2 -->
<g id="edge1" class="edge"><title>Node1&#45;&gt;Node2</title>
<path fill="none" stroke="midnightblue" d="M624.265,-824.753C612.644,-816.19 595.147,-803.298 581.468,-793.219"/>
<polygon fill="midnightblue" stroke="midnightblue" points="583.258,-790.19 573.131,-787.075 579.105,-795.825 583.258,-790.19"/>
</g>
<!-- Node44 -->
<g id="node44" class="node"><title>Node44</title>
<polygon fill="white" stroke="#bfbfbf" points="610.3,-709 610.3,-729 661.329,-729 661.329,-709 610.3,-709"/>
<text text-anchor="middle" x="635.814" y="-715" font-family="Helvetica,sans-Serif" font-size="10.00">qlabel.h</text>
</g>
<!-- Node1&#45;&gt;Node44 -->
<g id="edge83" class="edge"><title>Node1&#45;&gt;Node44</title>
<path fill="none" stroke="midnightblue" d="M636.733,-824.671C636.569,-806.041 636.199,-763.898 635.982,-739.143"/>
<polygon fill="midnightblue" stroke="midnightblue" points="639.482,-739.108 635.895,-729.139 632.483,-739.17 639.482,-739.108"/>
</g>
<!-- Node45 -->
<g id="node45" class="node"><title>Node45</title>
<polygon fill="white" stroke="#bfbfbf" points="679.521,-709 679.521,-729 736.107,-729 736.107,-709 679.521,-709"/>
<text text-anchor="middle" x="707.814" y="-715" font-family="Helvetica,sans-Serif" font-size="10.00">qlayout.h</text>
</g>
<!-- Node1&#45;&gt;Node45 -->
<g id="edge82" class="edge"><title>Node1&#45;&gt;Node45</title>
<path fill="none" stroke="midnightblue" d="M642.625,-824.671C654.437,-805.705 681.425,-762.371 696.715,-737.822"/>
<polygon fill="midnightblue" stroke="midnightblue" points="699.807,-739.478 702.122,-729.139 693.865,-735.777 699.807,-739.478"/>
</g>
<!-- Node47 -->
<g id="node47" class="node"><title>Node47</title>
<g id="a_node47"><a xlink:href="rc__appconstants_8h.html" target="_top" xlink:title="rc_appconstants.h">
<polygon fill="white" stroke="black" points="239.955,-767 239.955,-787 337.674,-787 337.674,-767 239.955,-767"/>
<text text-anchor="middle" x="288.814" y="-773" font-family="Helvetica,sans-Serif" font-size="10.00">rc_appconstants.h</text>
</a>
</g>
</g>
<!-- Node1&#45;&gt;Node47 -->
<g id="edge77" class="edge"><title>Node1&#45;&gt;Node47</title>
<path fill="none" stroke="midnightblue" d="M580.515,-824.94C516.606,-814.656 412.817,-797.954 347.81,-787.494"/>
<polygon fill="midnightblue" stroke="midnightblue" points="348.151,-784.004 337.722,-785.87 347.039,-790.915 348.151,-784.004"/>
</g>
<!-- Node50 -->
<g id="node50" class="node"><title>Node50</title>
<polygon fill="white" stroke="#bfbfbf" points="702.906,-767 702.906,-787 786.723,-787 786.723,-767 702.906,-767"/>
<text text-anchor="middle" x="744.814" y="-773" font-family="Helvetica,sans-Serif" font-size="10.00">Q3HBoxLayout</text>
</g>
<!-- Node1&#45;&gt;Node50 -->
<g id="edge84" class="edge"><title>Node1&#45;&gt;Node50</title>
<path fill="none" stroke="midnightblue" d="M654.648,-824.753C671.948,-815.783 698.413,-802.06 718.203,-791.799"/>
<polygon fill="midnightblue" stroke="midnightblue" points="720.046,-794.786 727.312,-787.075 716.824,-788.571 720.046,-794.786"/>
</g>
<!-- Node3 -->
<g id="node3" class="node"><title>Node3</title>
<g id="a_node3"><a xlink:href="rc__setting_8h.html" target="_top" xlink:title="rc_setting.h">
<polygon fill="white" stroke="black" points="352.967,-709 352.967,-729 420.662,-729 420.662,-709 352.967,-709"/>
<text text-anchor="middle" x="386.814" y="-715" font-family="Helvetica,sans-Serif" font-size="10.00">rc_setting.h</text>
</a>
</g>
</g>
<!-- Node2&#45;&gt;Node3 -->
<g id="edge2" class="edge"><title>Node2&#45;&gt;Node3</title>
<path fill="none" stroke="midnightblue" d="M532.471,-766.878C503.061,-757.413 456.911,-742.56 424.456,-732.115"/>
<polygon fill="midnightblue" stroke="midnightblue" points="425.449,-728.757 414.857,-729.025 423.304,-735.421 425.449,-728.757"/>
</g>
<!-- Node43 -->
<g id="node43" class="node"><title>Node43</title>
<polygon fill="white" stroke="#bfbfbf" points="533.411,-709 533.411,-729 592.218,-729 592.218,-709 533.411,-709"/>
<text text-anchor="middle" x="562.814" y="-715" font-family="Helvetica,sans-Serif" font-size="10.00">qwidget.h</text>
</g>
<!-- Node2&#45;&gt;Node43 -->
<g id="edge73" class="edge"><title>Node2&#45;&gt;Node43</title>
<path fill="none" stroke="midnightblue" d="M561.145,-766.753C561.413,-759.25 561.799,-748.424 562.133,-739.078"/>
<polygon fill="midnightblue" stroke="midnightblue" points="565.631,-739.194 562.49,-729.075 558.636,-738.944 565.631,-739.194"/>
</g>
<!-- Node2&#45;&gt;Node44 -->
<g id="edge74" class="edge"><title>Node2&#45;&gt;Node44</title>
<path fill="none" stroke="midnightblue" d="M573.199,-766.753C584.667,-758.19 601.933,-745.298 615.432,-735.219"/>
<polygon fill="midnightblue" stroke="midnightblue" points="617.741,-737.863 623.66,-729.075 613.553,-732.254 617.741,-737.863"/>
</g>
<!-- Node2&#45;&gt;Node45 -->
<g id="edge75" class="edge"><title>Node2&#45;&gt;Node45</title>
<path fill="none" stroke="midnightblue" d="M584.76,-766.878C609.105,-757.603 647.029,-743.156 674.342,-732.752"/>
<polygon fill="midnightblue" stroke="midnightblue" points="675.781,-735.949 683.879,-729.118 673.289,-729.407 675.781,-735.949"/>
</g>
<!-- Node46 -->
<g id="node46" class="node"><title>Node46</title>
<polygon fill="white" stroke="#bfbfbf" points="438.517,-709 438.517,-729 515.112,-729 515.112,-709 438.517,-709"/>
<text text-anchor="middle" x="476.814" y="-715" font-family="Helvetica,sans-Serif" font-size="10.00">Q3BoxLayout</text>
</g>
<!-- Node2&#45;&gt;Node46 -->
<g id="edge76" class="edge"><title>Node2&#45;&gt;Node46</title>
<path fill="none" stroke="midnightblue" d="M546.944,-766.753C533.855,-758.027 514.022,-744.805 498.783,-734.646"/>
<polygon fill="midnightblue" stroke="midnightblue" points="500.689,-731.71 490.427,-729.075 496.806,-737.534 500.689,-731.71"/>
</g>
<!-- Node4 -->
<g id="node4" class="node"><title>Node4</title>
<g id="a_node4"><a xlink:href="rc__value_8h.html" target="_top" xlink:title="rc_value.h">
<polygon fill="white" stroke="black" points="726.746,-651 726.746,-671 788.883,-671 788.883,-651 726.746,-651"/>
<text text-anchor="middle" x="757.814" y="-657" font-family="Helvetica,sans-Serif" font-size="10.00">rc_value.h</text>
</a>
</g>
</g>
<!-- Node3&#45;&gt;Node4 -->
<g id="edge3" class="edge"><title>Node3&#45;&gt;Node4</title>
<path fill="none" stroke="midnightblue" d="M421.024,-709.754C423.99,-709.127 426.951,-708.533 429.814,-708 532.153,-688.963 653.771,-673.848 716.228,-666.627"/>
<polygon fill="midnightblue" stroke="midnightblue" points="716.923,-670.07 726.459,-665.454 716.125,-663.116 716.923,-670.07"/>
</g>
<!-- Node41 -->
<g id="node41" class="node"><title>Node41</title>
<g id="a_node41"><a xlink:href="rc__uitypes_8h.html" target="_top" xlink:title="rc_uitypes.h">
<polygon fill="white" stroke="black" points="322.856,-593 322.856,-613 392.772,-613 392.772,-593 322.856,-593"/>
<text text-anchor="middle" x="357.814" y="-599" font-family="Helvetica,sans-Serif" font-size="10.00">rc_uitypes.h</text>
</a>
</g>
</g>
<!-- Node3&#45;&gt;Node41 -->
<g id="edge70" class="edge"><title>Node3&#45;&gt;Node41</title>
<path fill="none" stroke="midnightblue" d="M384.441,-708.671C379.702,-690.041 368.981,-647.898 362.684,-623.143"/>
<polygon fill="midnightblue" stroke="midnightblue" points="365.997,-621.968 360.139,-613.139 359.213,-623.694 365.997,-621.968"/>
</g>
<!-- Node42 -->
<g id="node42" class="node"><title>Node42</title>
<g id="a_node42"><a xlink:href="rc__atomic_8h.html" target="_top" xlink:title="rc_atomic.h">
<polygon fill="white" stroke="black" points="36.9721,-535 36.9721,-555 104.657,-555 104.657,-535 36.9721,-535"/>
<text text-anchor="middle" x="70.8144" y="-541" font-family="Helvetica,sans-Serif" font-size="10.00">rc_atomic.h</text>
</a>
</g>
</g>
<!-- Node3&#45;&gt;Node42 -->
<g id="edge71" class="edge"><title>Node3&#45;&gt;Node42</title>
<path fill="none" stroke="midnightblue" d="M370.27,-708.995C318.451,-680.789 159.023,-594.012 96.4238,-559.939"/>
<polygon fill="midnightblue" stroke="midnightblue" points="98.033,-556.83 87.5765,-555.124 94.6864,-562.979 98.033,-556.83"/>
</g>
<!-- Node5 -->
<g id="node5" class="node"><title>Node5</title>
<polygon fill="white" stroke="#bfbfbf" points="886.588,-59 886.588,-79 927.041,-79 927.041,-59 886.588,-59"/>
<text text-anchor="middle" x="906.814" y="-65" font-family="Helvetica,sans-Serif" font-size="10.00">string</text>
</g>
<!-- Node4&#45;&gt;Node5 -->
<g id="edge4" class="edge"><title>Node4&#45;&gt;Node5</title>
<path fill="none" stroke="midnightblue" d="M789.239,-658.343C851.337,-653.199 983.814,-632.133 983.814,-546 983.814,-546 983.814,-546 983.814,-184 983.814,-152.498 981.313,-142.195 963.814,-116 955.51,-103.568 942.811,-92.8527 931.505,-84.8995"/>
<polygon fill="midnightblue" stroke="midnightblue" points="933.111,-81.7637 922.848,-79.1333 929.231,-87.5897 933.111,-81.7637"/>
</g>
<!-- Node6 -->
<g id="node6" class="node"><title>Node6</title>
<polygon fill="white" stroke="#bfbfbf" points="716.642,-117 716.642,-137 770.987,-137 770.987,-117 716.642,-117"/>
<text text-anchor="middle" x="743.814" y="-123" font-family="Helvetica,sans-Serif" font-size="10.00">iostream</text>
</g>
<!-- Node4&#45;&gt;Node6 -->
<g id="edge5" class="edge"><title>Node4&#45;&gt;Node6</title>
<path fill="none" stroke="midnightblue" d="M765.121,-650.868C779.223,-632.294 808.814,-588.28 808.814,-546 808.814,-546 808.814,-546 808.814,-486 808.814,-346.023 806.047,-308.071 765.814,-174 762.956,-164.476 758.371,-154.453 754.124,-146.204"/>
<polygon fill="midnightblue" stroke="midnightblue" points="757.08,-144.311 749.251,-137.172 750.919,-147.635 757.08,-144.311"/>
</g>
<!-- Node7 -->
<g id="node7" class="node"><title>Node7</title>
<g id="a_node7"><a xlink:href="rc__exception_8h.html" target="_top" xlink:title="rc_exception.h">
<polygon fill="white" stroke="black" points="835.295,-175 835.295,-195 916.334,-195 916.334,-175 835.295,-175"/>
<text text-anchor="middle" x="875.814" y="-181" font-family="Helvetica,sans-Serif" font-size="10.00">rc_exception.h</text>
</a>
</g>
</g>
<!-- Node4&#45;&gt;Node7 -->
<g id="edge6" class="edge"><title>Node4&#45;&gt;Node7</title>
<path fill="none" stroke="midnightblue" d="M781.62,-650.971C817.888,-635.483 882.814,-600.19 882.814,-546 882.814,-546 882.814,-546 882.814,-300 882.814,-266.583 879.781,-227.759 877.708,-205.129"/>
<polygon fill="midnightblue" stroke="midnightblue" points="881.19,-204.774 876.758,-195.15 874.221,-205.436 881.19,-204.774"/>
</g>
<!-- Node12 -->
<g id="node12" class="node"><title>Node12</title>
<g id="a_node12"><a xlink:href="rc__rect_8h.html" target="_top" xlink:title="rc_rect.h">
<polygon fill="white" stroke="black" points="726.364,-413 726.364,-433 781.265,-433 781.265,-413 726.364,-413"/>
<text text-anchor="middle" x="753.814" y="-419" font-family="Helvetica,sans-Serif" font-size="10.00">rc_rect.h</text>
</a>
</g>
</g>
<!-- Node4&#45;&gt;Node12 -->
<g id="edge12" class="edge"><title>Node4&#45;&gt;Node12</title>
<path fill="none" stroke="midnightblue" d="M757.658,-650.749C757.065,-615.798 754.956,-491.351 754.14,-443.209"/>
<polygon fill="midnightblue" stroke="midnightblue" points="757.639,-443.127 753.97,-433.188 750.64,-443.245 757.639,-443.127"/>
</g>
<!-- Node25 -->
<g id="node25" class="node"><title>Node25</title>
<g id="a_node25"><a xlink:href="rc__affine_8h.html" target="_top" xlink:title="rc_affine.h">
<polygon fill="white" stroke="black" points="612.467,-593 612.467,-613 675.162,-613 675.162,-593 612.467,-593"/>
<text text-anchor="middle" x="643.814" y="-599" font-family="Helvetica,sans-Serif" font-size="10.00">rc_affine.h</text>
</a>
</g>
</g>
<!-- Node4&#45;&gt;Node25 -->
<g id="edge35" class="edge"><title>Node4&#45;&gt;Node25</title>
<path fill="none" stroke="midnightblue" d="M739.245,-650.878C720.861,-641.847 692.495,-627.913 671.462,-617.581"/>
<polygon fill="midnightblue" stroke="midnightblue" points="672.895,-614.386 662.376,-613.118 669.809,-620.669 672.895,-614.386"/>
</g>
<!-- Node4&#45;&gt;Node41 -->
<g id="edge68" class="edge"><title>Node4&#45;&gt;Node41</title>
<path fill="none" stroke="midnightblue" d="M726.427,-655.606C655.956,-645.74 484.943,-621.798 403.023,-610.329"/>
<polygon fill="midnightblue" stroke="midnightblue" points="403.405,-606.849 393.016,-608.928 402.434,-613.781 403.405,-606.849"/>
</g>
<!-- Node7&#45;&gt;Node6 -->
<g id="edge10" class="edge"><title>Node7&#45;&gt;Node6</title>
<path fill="none" stroke="midnightblue" d="M854.313,-174.878C832.643,-165.685 798.994,-151.409 774.519,-141.026"/>
<polygon fill="midnightblue" stroke="midnightblue" points="775.88,-137.802 765.307,-137.118 773.146,-144.246 775.88,-137.802"/>
</g>
<!-- Node8 -->
<g id="node8" class="node"><title>Node8</title>
<g id="a_node8"><a xlink:href="rc__platform_8h.html" target="_top" xlink:title="rc_platform.h">
<polygon fill="white" stroke="black" points="717.637,-59 717.637,-79 791.992,-79 791.992,-59 717.637,-59"/>
<text text-anchor="middle" x="754.814" y="-65" font-family="Helvetica,sans-Serif" font-size="10.00">rc_platform.h</text>
</a>
</g>
</g>
<!-- Node7&#45;&gt;Node8 -->
<g id="edge7" class="edge"><title>Node7&#45;&gt;Node8</title>
<path fill="none" stroke="midnightblue" d="M875.639,-174.949C874.898,-160.752 871.513,-133.107 856.814,-116 842.627,-99.4877 821.315,-88.6171 801.834,-81.6131"/>
<polygon fill="midnightblue" stroke="midnightblue" points="802.754,-78.2304 792.16,-78.3856 800.538,-84.8706 802.754,-78.2304"/>
</g>
<!-- Node10 -->
<g id="node10" class="node"><title>Node10</title>
<polygon fill="white" stroke="#bfbfbf" points="789.411,-117 789.411,-137 848.218,-137 848.218,-117 789.411,-117"/>
<text text-anchor="middle" x="818.814" y="-123" font-family="Helvetica,sans-Serif" font-size="10.00">exception</text>
</g>
<!-- Node7&#45;&gt;Node10 -->
<g id="edge9" class="edge"><title>Node7&#45;&gt;Node10</title>
<path fill="none" stroke="midnightblue" d="M866.402,-174.753C857.936,-166.435 845.31,-154.031 835.191,-144.089"/>
<polygon fill="midnightblue" stroke="midnightblue" points="837.638,-141.587 828.052,-137.075 832.732,-146.58 837.638,-141.587"/>
</g>
<!-- Node11 -->
<g id="node11" class="node"><title>Node11</title>
<polygon fill="white" stroke="#bfbfbf" points="904.034,-117 904.034,-137 955.595,-137 955.595,-117 904.034,-117"/>
<text text-anchor="middle" x="929.814" y="-123" font-family="Helvetica,sans-Serif" font-size="10.00">sstream</text>
</g>
<!-- Node7&#45;&gt;Node11 -->
<g id="edge11" class="edge"><title>Node7&#45;&gt;Node11</title>
<path fill="none" stroke="midnightblue" d="M884.731,-174.753C892.674,-166.516 904.479,-154.274 914.017,-144.382"/>
<polygon fill="midnightblue" stroke="midnightblue" points="916.641,-146.703 921.063,-137.075 911.603,-141.844 916.641,-146.703"/>
</g>
<!-- Node9 -->
<g id="node9" class="node"><title>Node9</title>
<polygon fill="white" stroke="#bfbfbf" points="682.61,-1 682.61,-21 827.019,-21 827.019,-1 682.61,-1"/>
<text text-anchor="middle" x="754.814" y="-7" font-family="Helvetica,sans-Serif" font-size="10.00">architecture/i386/alignment.h</text>
</g>
<!-- Node8&#45;&gt;Node9 -->
<g id="edge8" class="edge"><title>Node8&#45;&gt;Node9</title>
<path fill="none" stroke="midnightblue" d="M754.814,-58.7527C754.814,-51.2504 754.814,-40.4238 754.814,-31.0781"/>
<polygon fill="midnightblue" stroke="midnightblue" points="758.315,-31.0752 754.814,-21.0752 751.315,-31.0752 758.315,-31.0752"/>
</g>
<!-- Node13 -->
<g id="node13" class="node"><title>Node13</title>
<g id="a_node13"><a xlink:href="rc__types_8h.html" target="_top" xlink:title="rc_types.h">
<polygon fill="white" stroke="black" points="521.748,-117 521.748,-137 583.881,-137 583.881,-117 521.748,-117"/>
<text text-anchor="middle" x="552.814" y="-123" font-family="Helvetica,sans-Serif" font-size="10.00">rc_types.h</text>
</a>
</g>
</g>
<!-- Node12&#45;&gt;Node13 -->
<g id="edge13" class="edge"><title>Node12&#45;&gt;Node13</title>
<path fill="none" stroke="midnightblue" d="M747.578,-412.879C719.266,-371.466 602.566,-200.771 564.722,-145.416"/>
<polygon fill="midnightblue" stroke="midnightblue" points="567.511,-143.295 558.978,-137.015 561.732,-147.245 567.511,-143.295"/>
</g>
<!-- Node15 -->
<g id="node15" class="node"><title>Node15</title>
<g id="a_node15"><a xlink:href="rc__rectangle_8h.html" target="_top" xlink:title="rc_rectangle.h">
<polygon fill="white" stroke="black" points="539.13,-291 539.13,-311 618.499,-311 618.499,-291 539.13,-291"/>
<text text-anchor="middle" x="578.814" y="-297" font-family="Helvetica,sans-Serif" font-size="10.00">rc_rectangle.h</text>
</a>
</g>
</g>
<!-- Node12&#45;&gt;Node15 -->
<g id="edge17" class="edge"><title>Node12&#45;&gt;Node15</title>
<path fill="none" stroke="midnightblue" d="M732.688,-412.85C727.499,-410.607 721.957,-408.214 716.814,-406 679.507,-389.939 665.093,-394.655 632.814,-370 614.732,-356.188 599.2,-335.025 589.498,-319.98"/>
<polygon fill="midnightblue" stroke="midnightblue" points="592.243,-317.766 583.995,-311.116 586.295,-321.458 592.243,-317.766"/>
</g>
<!-- Node13&#45;&gt;Node5 -->
<g id="edge14" class="edge"><title>Node13&#45;&gt;Node5</title>
<path fill="none" stroke="midnightblue" d="M583.919,-121.079C651.203,-110.436 809.569,-85.3834 876.309,-74.8258"/>
<polygon fill="midnightblue" stroke="midnightblue" points="877.241,-78.2219 886.571,-73.2023 876.147,-71.3079 877.241,-78.2219"/>
</g>
<!-- Node13&#45;&gt;Node8 -->
<g id="edge16" class="edge"><title>Node13&#45;&gt;Node8</title>
<path fill="none" stroke="midnightblue" d="M583.934,-117.373C618.374,-107.825 674.075,-92.3833 712.469,-81.7393"/>
<polygon fill="midnightblue" stroke="midnightblue" points="713.619,-85.0527 722.32,-79.0083 711.749,-78.3071 713.619,-85.0527"/>
</g>
<!-- Node14 -->
<g id="node14" class="node"><title>Node14</title>
<polygon fill="white" stroke="#bfbfbf" points="527.029,-59 527.029,-79 578.6,-79 578.6,-59 527.029,-59"/>
<text text-anchor="middle" x="552.814" y="-65" font-family="Helvetica,sans-Serif" font-size="10.00">assert.h</text>
</g>
<!-- Node13&#45;&gt;Node14 -->
<g id="edge15" class="edge"><title>Node13&#45;&gt;Node14</title>
<path fill="none" stroke="midnightblue" d="M552.814,-116.753C552.814,-109.25 552.814,-98.4238 552.814,-89.0781"/>
<polygon fill="midnightblue" stroke="midnightblue" points="556.315,-89.0752 552.814,-79.0752 549.315,-89.0752 556.315,-89.0752"/>
</g>
<!-- Node15&#45;&gt;Node7 -->
<g id="edge33" class="edge"><title>Node15&#45;&gt;Node7</title>
<path fill="none" stroke="midnightblue" d="M618.691,-295.893C660.967,-290.439 728.939,-278.485 782.814,-254 811.921,-240.772 840.937,-217.552 858.628,-201.975"/>
<polygon fill="midnightblue" stroke="midnightblue" points="861.264,-204.312 866.354,-195.02 856.58,-199.11 861.264,-204.312"/>
</g>
<!-- Node15&#45;&gt;Node13 -->
<g id="edge20" class="edge"><title>Node15&#45;&gt;Node13</title>
<path fill="none" stroke="midnightblue" d="M578.567,-290.739C577.868,-269.766 575.339,-217.113 566.814,-174 565.013,-164.889 562.134,-155.01 559.453,-146.751"/>
<polygon fill="midnightblue" stroke="midnightblue" points="562.681,-145.371 556.151,-137.027 556.052,-147.621 562.681,-145.371"/>
</g>
<!-- Node16 -->
<g id="node16" class="node"><title>Node16</title>
<g id="a_node16"><a xlink:href="rc__pair_8h.html" target="_top" xlink:title="rc_pair.h">
<polygon fill="white" stroke="black" points="200.635,-175 200.635,-195 254.994,-195 254.994,-175 200.635,-175"/>
<text text-anchor="middle" x="227.814" y="-181" font-family="Helvetica,sans-Serif" font-size="10.00">rc_pair.h</text>
</a>
</g>
</g>
<!-- Node15&#45;&gt;Node16 -->
<g id="edge18" class="edge"><title>Node15&#45;&gt;Node16</title>
<path fill="none" stroke="midnightblue" d="M539.125,-293.617C500.56,-286.636 440.812,-273.741 391.814,-254 373.713,-246.707 371.492,-240.267 353.814,-232 324.763,-218.415 290.504,-206.134 265.048,-197.685"/>
<polygon fill="midnightblue" stroke="midnightblue" points="266.001,-194.314 255.408,-194.529 263.823,-200.967 266.001,-194.314"/>
</g>
<!-- Node17 -->
<g id="node17" class="node"><title>Node17</title>
<g id="a_node17"><a xlink:href="rc__vector2d_8h.html" target="_top" xlink:title="rc_vector2d.h">
<polygon fill="white" stroke="black" points="268.521,-233 268.521,-253 345.107,-253 345.107,-233 268.521,-233"/>
<text text-anchor="middle" x="306.814" y="-239" font-family="Helvetica,sans-Serif" font-size="10.00">rc_vector2d.h</text>
</a>
</g>
</g>
<!-- Node15&#45;&gt;Node17 -->
<g id="edge21" class="edge"><title>Node15&#45;&gt;Node17</title>
<path fill="none" stroke="midnightblue" d="M538.972,-291.797C490.277,-281.772 407.91,-264.814 355.505,-254.025"/>
<polygon fill="midnightblue" stroke="midnightblue" points="355.943,-250.541 345.442,-251.953 354.531,-257.398 355.943,-250.541"/>
</g>
<!-- Node19 -->
<g id="node19" class="node"><title>Node19</title>
<g id="a_node19"><a xlink:href="rc__math_8h.html" target="_top" xlink:title="rc_math.h">
<polygon fill="white" stroke="black" points="84.583,-175 84.583,-195 145.046,-195 145.046,-175 84.583,-175"/>
<text text-anchor="middle" x="114.814" y="-181" font-family="Helvetica,sans-Serif" font-size="10.00">rc_math.h</text>
</a>
</g>
</g>
<!-- Node15&#45;&gt;Node19 -->
<g id="edge32" class="edge"><title>Node15&#45;&gt;Node19</title>
<path fill="none" stroke="midnightblue" d="M538.884,-299.08C477.332,-296.601 356.289,-287.477 259.814,-254 241.378,-247.602 239.254,-240.758 221.814,-232 197.37,-219.724 168.88,-207.577 147.447,-198.85"/>
<polygon fill="midnightblue" stroke="midnightblue" points="148.719,-195.589 138.136,-195.093 146.1,-202.081 148.719,-195.589"/>
</g>
<!-- Node24 -->
<g id="node24" class="node"><title>Node24</title>
<polygon fill="white" stroke="#bfbfbf" points="654.911,-117 654.911,-137 698.718,-137 698.718,-117 654.911,-117"/>
<text text-anchor="middle" x="676.814" y="-123" font-family="Helvetica,sans-Serif" font-size="10.00">deque</text>
</g>
<!-- Node15&#45;&gt;Node24 -->
<g id="edge34" class="edge"><title>Node15&#45;&gt;Node24</title>
<path fill="none" stroke="midnightblue" d="M611.44,-290.931C652.227,-277.64 720.269,-248.55 749.814,-196 762.911,-172.706 733.705,-152.79 708.43,-140.642"/>
<polygon fill="midnightblue" stroke="midnightblue" points="709.584,-137.322 699.032,-136.375 706.691,-143.696 709.584,-137.322"/>
</g>
<!-- Node16&#45;&gt;Node13 -->
<g id="edge19" class="edge"><title>Node16&#45;&gt;Node13</title>
<path fill="none" stroke="midnightblue" d="M255.252,-176.034C258.132,-175.301 261.026,-174.607 263.814,-174 287.609,-168.819 437.871,-145.596 511.816,-134.262"/>
<polygon fill="midnightblue" stroke="midnightblue" points="512.368,-137.719 521.723,-132.745 511.308,-130.799 512.368,-137.719"/>
</g>
<!-- Node17&#45;&gt;Node7 -->
<g id="edge24" class="edge"><title>Node17&#45;&gt;Node7</title>
<path fill="none" stroke="midnightblue" d="M345.299,-237.288C359.864,-235.553 376.596,-233.618 391.814,-232 549.654,-215.217 736.775,-198.269 824.985,-190.454"/>
<polygon fill="midnightblue" stroke="midnightblue" points="825.336,-193.937 834.989,-189.57 824.72,-186.964 825.336,-193.937"/>
</g>
<!-- Node17&#45;&gt;Node13 -->
<g id="edge23" class="edge"><title>Node17&#45;&gt;Node13</title>
<path fill="none" stroke="midnightblue" d="M268.505,-234.311C225.67,-224.064 165.528,-203.701 191.814,-174 235.437,-124.71 420.592,-146.859 485.814,-138 494.1,-136.875 502.95,-135.603 511.413,-134.353"/>
<polygon fill="midnightblue" stroke="midnightblue" points="512.106,-137.789 521.48,-132.851 511.073,-130.865 512.106,-137.789"/>
</g>
<!-- Node17&#45;&gt;Node16 -->
<g id="edge25" class="edge"><title>Node17&#45;&gt;Node16</title>
<path fill="none" stroke="midnightblue" d="M293.769,-232.753C281.575,-224.109 263.155,-211.052 248.878,-200.931"/>
<polygon fill="midnightblue" stroke="midnightblue" points="250.799,-198.003 240.617,-195.075 246.751,-203.714 250.799,-198.003"/>
</g>
<!-- Node18 -->
<g id="node18" class="node"><title>Node18</title>
<polygon fill="white" stroke="#bfbfbf" points="272.529,-175 272.529,-195 319.1,-195 319.1,-175 272.529,-175"/>
<text text-anchor="middle" x="295.814" y="-181" font-family="Helvetica,sans-Serif" font-size="10.00">math.h</text>
</g>
<!-- Node17&#45;&gt;Node18 -->
<g id="edge22" class="edge"><title>Node17&#45;&gt;Node18</title>
<path fill="none" stroke="midnightblue" d="M304.998,-232.753C303.524,-225.25 301.398,-214.424 299.562,-205.078"/>
<polygon fill="midnightblue" stroke="midnightblue" points="302.959,-204.213 297.597,-195.075 296.09,-205.562 302.959,-204.213"/>
</g>
<!-- Node17&#45;&gt;Node19 -->
<g id="edge26" class="edge"><title>Node17&#45;&gt;Node19</title>
<path fill="none" stroke="midnightblue" d="M275.539,-232.878C242.612,-223.274 190.671,-208.125 154.791,-197.66"/>
<polygon fill="midnightblue" stroke="midnightblue" points="155.706,-194.281 145.126,-194.841 153.746,-201.001 155.706,-194.281"/>
</g>
<!-- Node23 -->
<g id="node23" class="node"><title>Node23</title>
<g id="a_node23"><a xlink:href="rc__macro_8h.html" target="_top" xlink:title="rc_macro.h">
<polygon fill="white" stroke="black" points="336.807,-175 336.807,-195 402.822,-195 402.822,-175 336.807,-175"/>
<text text-anchor="middle" x="369.814" y="-181" font-family="Helvetica,sans-Serif" font-size="10.00">rc_macro.h</text>
</a>
</g>
</g>
<!-- Node17&#45;&gt;Node23 -->
<g id="edge31" class="edge"><title>Node17&#45;&gt;Node23</title>
<path fill="none" stroke="midnightblue" d="M317.218,-232.753C326.667,-224.353 340.804,-211.787 352.042,-201.798"/>
<polygon fill="midnightblue" stroke="midnightblue" points="354.456,-204.335 359.605,-195.075 349.805,-199.103 354.456,-204.335"/>
</g>
<!-- Node19&#45;&gt;Node13 -->
<g id="edge27" class="edge"><title>Node19&#45;&gt;Node13</title>
<path fill="none" stroke="midnightblue" d="M145.498,-176.558C149.949,-175.615 154.488,-174.727 158.814,-174 303.002,-149.759 340.816,-156.795 485.814,-138 494.106,-136.925 502.96,-135.676 511.424,-134.432"/>
<polygon fill="midnightblue" stroke="midnightblue" points="512.117,-137.868 521.491,-132.93 511.083,-130.945 512.117,-137.868"/>
</g>
<!-- Node20 -->
<g id="node20" class="node"><title>Node20</title>
<g id="a_node20"><a xlink:href="rc__limits_8h.html" target="_top" xlink:title="rc_limits.h">
<polygon fill="white" stroke="black" points="49.312,-117 49.312,-137 110.317,-137 110.317,-117 49.312,-117"/>
<text text-anchor="middle" x="79.8144" y="-123" font-family="Helvetica,sans-Serif" font-size="10.00">rc_limits.h</text>
</a>
</g>
</g>
<!-- Node19&#45;&gt;Node20 -->
<g id="edge28" class="edge"><title>Node19&#45;&gt;Node20</title>
<path fill="none" stroke="midnightblue" d="M109.035,-174.753C104.091,-166.843 96.8377,-155.237 90.7946,-145.568"/>
<polygon fill="midnightblue" stroke="midnightblue" points="93.7545,-143.7 85.4864,-137.075 87.8185,-147.41 93.7545,-143.7"/>
</g>
<!-- Node22 -->
<g id="node22" class="node"><title>Node22</title>
<polygon fill="white" stroke="#bfbfbf" points="128.199,-117 128.199,-137 171.43,-137 171.43,-117 128.199,-117"/>
<text text-anchor="middle" x="149.814" y="-123" font-family="Helvetica,sans-Serif" font-size="10.00">cmath</text>
</g>
<!-- Node19&#45;&gt;Node22 -->
<g id="edge30" class="edge"><title>Node19&#45;&gt;Node22</title>
<path fill="none" stroke="midnightblue" d="M120.594,-174.753C125.538,-166.843 132.791,-155.237 138.834,-145.568"/>
<polygon fill="midnightblue" stroke="midnightblue" points="141.81,-147.41 144.142,-137.075 135.874,-143.7 141.81,-147.41"/>
</g>
<!-- Node21 -->
<g id="node21" class="node"><title>Node21</title>
<polygon fill="white" stroke="#bfbfbf" points="56.2578,-59 56.2578,-79 103.371,-79 103.371,-59 56.2578,-59"/>
<text text-anchor="middle" x="79.8144" y="-65" font-family="Helvetica,sans-Serif" font-size="10.00">limits.h</text>
</g>
<!-- Node20&#45;&gt;Node21 -->
<g id="edge29" class="edge"><title>Node20&#45;&gt;Node21</title>
<path fill="none" stroke="midnightblue" d="M79.8144,-116.753C79.8144,-109.25 79.8144,-98.4238 79.8144,-89.0781"/>
<polygon fill="midnightblue" stroke="midnightblue" points="83.3145,-89.0752 79.8144,-79.0752 76.3145,-89.0752 83.3145,-89.0752"/>
</g>
<!-- Node25&#45;&gt;Node12 -->
<g id="edge42" class="edge"><title>Node25&#45;&gt;Node12</title>
<path fill="none" stroke="midnightblue" d="M649.421,-592.928C666.702,-564.964 719.385,-479.713 742.613,-442.126"/>
<polygon fill="midnightblue" stroke="midnightblue" points="745.808,-443.614 748.088,-433.267 739.853,-439.934 745.808,-443.614"/>
</g>
<!-- Node26 -->
<g id="node26" class="node"><title>Node26</title>
<g id="a_node26"><a xlink:href="rc__xforms_8h.html" target="_top" xlink:title="rc_xforms.h">
<polygon fill="white" stroke="black" points="122.699,-349 122.699,-369 190.93,-369 190.93,-349 122.699,-349"/>
<text text-anchor="middle" x="156.814" y="-355" font-family="Helvetica,sans-Serif" font-size="10.00">rc_xforms.h</text>
</a>
</g>
</g>
<!-- Node25&#45;&gt;Node26 -->
<g id="edge36" class="edge"><title>Node25&#45;&gt;Node26</title>
<path fill="none" stroke="midnightblue" d="M612.391,-598.873C520.619,-589.123 255.647,-556.383 194.814,-498 162.051,-466.556 156.7,-409.684 156.32,-379.71"/>
<polygon fill="midnightblue" stroke="midnightblue" points="159.822,-379.337 156.379,-369.317 152.822,-379.297 159.822,-379.337"/>
</g>
<!-- Node29 -->
<g id="node29" class="node"><title>Node29</title>
<polygon fill="white" stroke="#bfbfbf" points="587.009,-413 587.009,-433 708.62,-433 708.62,-413 587.009,-413"/>
<text text-anchor="middle" x="647.814" y="-419" font-family="Helvetica,sans-Serif" font-size="10.00">Accelerate/Accelerate.h</text>
</g>
<!-- Node25&#45;&gt;Node29 -->
<g id="edge43" class="edge"><title>Node25&#45;&gt;Node29</title>
<path fill="none" stroke="midnightblue" d="M644.018,-592.928C644.639,-565.321 646.514,-481.88 647.374,-443.589"/>
<polygon fill="midnightblue" stroke="midnightblue" points="650.881,-443.343 647.606,-433.267 643.882,-443.186 650.881,-443.343"/>
</g>
<!-- Node30 -->
<g id="node30" class="node"><title>Node30</title>
<g id="a_node30"><a xlink:href="rc__graphics_8h.html" target="_top" xlink:title="rc_graphics.h">
<polygon fill="white" stroke="black" points="477.8,-535 477.8,-555 553.829,-555 553.829,-535 477.8,-535"/>
<text text-anchor="middle" x="515.814" y="-541" font-family="Helvetica,sans-Serif" font-size="10.00">rc_graphics.h</text>
</a>
</g>
</g>
<!-- Node25&#45;&gt;Node30 -->
<g id="edge44" class="edge"><title>Node25&#45;&gt;Node30</title>
<path fill="none" stroke="midnightblue" d="M622.964,-592.878C602.044,-583.725 569.61,-569.536 545.904,-559.164"/>
<polygon fill="midnightblue" stroke="midnightblue" points="547.22,-555.92 536.656,-555.118 544.414,-562.333 547.22,-555.92"/>
</g>
<!-- Node26&#45;&gt;Node19 -->
<g id="edge37" class="edge"><title>Node26&#45;&gt;Node19</title>
<path fill="none" stroke="midnightblue" d="M144.909,-348.905C135.021,-340.544 121.664,-327.172 115.814,-312 102.098,-276.422 106.597,-230.88 110.864,-205.436"/>
<polygon fill="midnightblue" stroke="midnightblue" points="114.368,-205.737 112.743,-195.268 107.484,-204.465 114.368,-205.737"/>
</g>
<!-- Node27 -->
<g id="node27" class="node"><title>Node27</title>
<g id="a_node27"><a xlink:href="rc__matrix_8h.html" target="_top" xlink:title="rc_matrix.h">
<polygon fill="white" stroke="black" points="125.088,-291 125.088,-311 190.541,-311 190.541,-291 125.088,-291"/>
<text text-anchor="middle" x="157.814" y="-297" font-family="Helvetica,sans-Serif" font-size="10.00">rc_matrix.h</text>
</a>
</g>
</g>
<!-- Node26&#45;&gt;Node27 -->
<g id="edge38" class="edge"><title>Node26&#45;&gt;Node27</title>
<path fill="none" stroke="midnightblue" d="M156.98,-348.753C157.114,-341.25 157.307,-330.424 157.474,-321.078"/>
<polygon fill="midnightblue" stroke="midnightblue" points="160.973,-321.136 157.652,-311.075 153.974,-321.011 160.973,-321.136"/>
</g>
<!-- Node27&#45;&gt;Node16 -->
<g id="edge39" class="edge"><title>Node27&#45;&gt;Node16</title>
<path fill="none" stroke="midnightblue" d="M153.945,-290.949C148.724,-277.233 141.223,-250.79 151.814,-232 160.406,-216.757 176.309,-205.99 191.356,-198.725"/>
<polygon fill="midnightblue" stroke="midnightblue" points="192.823,-201.904 200.541,-194.646 189.981,-195.506 192.823,-201.904"/>
</g>
<!-- Node27&#45;&gt;Node17 -->
<g id="edge40" class="edge"><title>Node27&#45;&gt;Node17</title>
<path fill="none" stroke="midnightblue" d="M182.085,-290.878C206.762,-281.603 245.202,-267.156 272.886,-256.752"/>
<polygon fill="midnightblue" stroke="midnightblue" points="274.424,-259.913 282.554,-253.118 271.962,-253.36 274.424,-259.913"/>
</g>
<!-- Node28 -->
<g id="node28" class="node"><title>Node28</title>
<polygon fill="white" stroke="#bfbfbf" points="160.753,-233 160.753,-253 212.876,-253 212.876,-233 160.753,-233"/>
<text text-anchor="middle" x="186.814" y="-239" font-family="Helvetica,sans-Serif" font-size="10.00">ostream</text>
</g>
<!-- Node27&#45;&gt;Node28 -->
<g id="edge41" class="edge"><title>Node27&#45;&gt;Node28</title>
<path fill="none" stroke="midnightblue" d="M162.603,-290.753C166.615,-283.006 172.462,-271.714 177.406,-262.169"/>
<polygon fill="midnightblue" stroke="midnightblue" points="180.624,-263.565 182.115,-253.075 174.408,-260.346 180.624,-263.565"/>
</g>
<!-- Node30&#45;&gt;Node12 -->
<g id="edge50" class="edge"><title>Node30&#45;&gt;Node12</title>
<path fill="none" stroke="midnightblue" d="M533.703,-534.98C575.053,-514.132 677.468,-462.494 726.63,-437.707"/>
<polygon fill="midnightblue" stroke="midnightblue" points="728.365,-440.752 735.718,-433.124 725.213,-434.501 728.365,-440.752"/>
</g>
<!-- Node30&#45;&gt;Node17 -->
<g id="edge51" class="edge"><title>Node30&#45;&gt;Node17</title>
<path fill="none" stroke="midnightblue" d="M477.712,-544.148C411.868,-542.021 278.94,-526.647 227.814,-440 191.05,-377.692 257.797,-295.081 290.403,-260.413"/>
<polygon fill="midnightblue" stroke="midnightblue" points="293.095,-262.664 297.515,-253.035 288.055,-257.805 293.095,-262.664"/>
</g>
<!-- Node31 -->
<g id="node31" class="node"><title>Node31</title>
<g id="a_node31"><a xlink:href="rc__style_8h.html" target="_top" xlink:title="rc_style.h">
<polygon fill="white" stroke="black" points="341.418,-477 341.418,-497 400.211,-497 400.211,-477 341.418,-477"/>
<text text-anchor="middle" x="370.814" y="-483" font-family="Helvetica,sans-Serif" font-size="10.00">rc_style.h</text>
</a>
</g>
</g>
<!-- Node30&#45;&gt;Node31 -->
<g id="edge45" class="edge"><title>Node30&#45;&gt;Node31</title>
<path fill="none" stroke="midnightblue" d="M492.195,-534.878C468.18,-525.603 430.773,-511.156 403.832,-500.752"/>
<polygon fill="midnightblue" stroke="midnightblue" points="405.013,-497.456 394.424,-497.118 402.491,-503.986 405.013,-497.456"/>
</g>
<!-- Node34 -->
<g id="node34" class="node"><title>Node34</title>
<g id="a_node34"><a xlink:href="rc__window_8h.html" target="_top" xlink:title="rc_window.h">
<polygon fill="white" stroke="black" points="480.297,-477 480.297,-497 551.332,-497 551.332,-477 480.297,-477"/>
<text text-anchor="middle" x="515.814" y="-483" font-family="Helvetica,sans-Serif" font-size="10.00">rc_window.h</text>
</a>
</g>
</g>
<!-- Node30&#45;&gt;Node34 -->
<g id="edge52" class="edge"><title>Node30&#45;&gt;Node34</title>
<path fill="none" stroke="midnightblue" d="M515.814,-534.753C515.814,-527.25 515.814,-516.424 515.814,-507.078"/>
<polygon fill="midnightblue" stroke="midnightblue" points="519.315,-507.075 515.814,-497.075 512.315,-507.075 519.315,-507.075"/>
</g>
<!-- Node32 -->
<g id="node32" class="node"><title>Node32</title>
<g id="a_node32"><a xlink:href="rc__line_8h.html" target="_top" xlink:title="rc_line.h">
<polygon fill="white" stroke="black" points="236.916,-413 236.916,-433 290.713,-433 290.713,-413 236.916,-413"/>
<text text-anchor="middle" x="263.814" y="-419" font-family="Helvetica,sans-Serif" font-size="10.00">rc_line.h</text>
</a>
</g>
</g>
<!-- Node31&#45;&gt;Node32 -->
<g id="edge46" class="edge"><title>Node31&#45;&gt;Node32</title>
<path fill="none" stroke="midnightblue" d="M355.026,-476.852C337.483,-466.686 308.932,-450.143 288.445,-438.272"/>
<polygon fill="midnightblue" stroke="midnightblue" points="290.075,-435.171 279.667,-433.186 286.565,-441.228 290.075,-435.171"/>
</g>
<!-- Node32&#45;&gt;Node13 -->
<g id="edge48" class="edge"><title>Node32&#45;&gt;Node13</title>
<path fill="none" stroke="midnightblue" d="M278.327,-412.871C315.329,-389.226 415.319,-323.011 486.814,-254 510.687,-230.957 518.589,-225.479 533.814,-196 541.804,-180.531 546.776,-161.296 549.62,-147.234"/>
<polygon fill="midnightblue" stroke="midnightblue" points="553.092,-147.706 551.462,-137.238 546.208,-146.438 553.092,-147.706"/>
</g>
<!-- Node32&#45;&gt;Node26 -->
<g id="edge47" class="edge"><title>Node32&#45;&gt;Node26</title>
<path fill="none" stroke="midnightblue" d="M248.026,-412.852C230.483,-402.686 201.932,-386.143 181.445,-374.272"/>
<polygon fill="midnightblue" stroke="midnightblue" points="183.075,-371.171 172.667,-369.186 179.565,-377.228 183.075,-371.171"/>
</g>
<!-- Node33 -->
<g id="node33" class="node"><title>Node33</title>
<polygon fill="white" stroke="#bfbfbf" points="537.199,-349 537.199,-369 580.43,-369 580.43,-349 537.199,-349"/>
<text text-anchor="middle" x="558.814" y="-355" font-family="Helvetica,sans-Serif" font-size="10.00">vector</text>
</g>
<!-- Node32&#45;&gt;Node33 -->
<g id="edge49" class="edge"><title>Node32&#45;&gt;Node33</title>
<path fill="none" stroke="midnightblue" d="M290.849,-416.014C304.851,-412.949 322.235,-409.2 337.814,-406 419.866,-389.148 441.286,-389.224 522.814,-370 524.274,-369.656 525.764,-369.292 527.267,-368.915"/>
<polygon fill="midnightblue" stroke="midnightblue" points="528.404,-372.235 537.184,-366.306 526.622,-365.466 528.404,-372.235"/>
</g>
<!-- Node34&#45;&gt;Node12 -->
<g id="edge63" class="edge"><title>Node34&#45;&gt;Node12</title>
<path fill="none" stroke="midnightblue" d="M551.57,-479.868C592.185,-472.432 660.172,-458.555 716.814,-440 719.558,-439.101 722.378,-438.077 725.178,-436.99"/>
<polygon fill="midnightblue" stroke="midnightblue" points="726.577,-440.2 734.486,-433.151 723.907,-433.729 726.577,-440.2"/>
</g>
<!-- Node34&#45;&gt;Node29 -->
<g id="edge65" class="edge"><title>Node34&#45;&gt;Node29</title>
<path fill="none" stroke="midnightblue" d="M535.008,-476.985C557.2,-466.561 593.936,-449.307 619.43,-437.332"/>
<polygon fill="midnightblue" stroke="midnightblue" points="621.034,-440.446 628.597,-433.026 618.058,-434.11 621.034,-440.446"/>
</g>
<!-- Node34&#45;&gt;Node33 -->
<g id="edge67" class="edge"><title>Node34&#45;&gt;Node33</title>
<path fill="none" stroke="midnightblue" d="M521.486,-476.8C526.864,-467.732 534.84,-453.335 539.814,-440 547.354,-419.787 552.613,-395.559 555.657,-379.101"/>
<polygon fill="midnightblue" stroke="midnightblue" points="559.132,-379.547 557.411,-369.093 552.237,-378.339 559.132,-379.547"/>
</g>
<!-- Node35 -->
<g id="node35" class="node"><title>Node35</title>
<g id="a_node35"><a xlink:href="rc__framebuf_8h.html" target="_top" xlink:title="rc_framebuf.h">
<polygon fill="white" stroke="red" points="400.967,-233 400.967,-253 478.662,-253 478.662,-233 400.967,-233"/>
<text text-anchor="middle" x="439.814" y="-239" font-family="Helvetica,sans-Serif" font-size="10.00">rc_framebuf.h</text>
</a>
</g>
</g>
<!-- Node34&#45;&gt;Node35 -->
<g id="edge53" class="edge"><title>Node34&#45;&gt;Node35</title>
<path fill="none" stroke="midnightblue" d="M479.967,-481.89C433.138,-475.698 355.061,-462.27 337.814,-440 290.901,-379.422 379.288,-294.056 420.403,-259.461"/>
<polygon fill="midnightblue" stroke="midnightblue" points="422.679,-262.121 428.168,-253.058 418.226,-256.72 422.679,-262.121"/>
</g>
<!-- Node39 -->
<g id="node39" class="node"><title>Node39</title>
<polygon fill="white" stroke="#bfbfbf" points="347.305,-413 347.305,-433 398.324,-433 398.324,-413 347.305,-413"/>
<text text-anchor="middle" x="372.814" y="-419" font-family="Helvetica,sans-Serif" font-size="10.00">iomanip</text>
</g>
<!-- Node34&#45;&gt;Node39 -->
<g id="edge64" class="edge"><title>Node34&#45;&gt;Node39</title>
<path fill="none" stroke="midnightblue" d="M493.816,-476.828C471.941,-467.662 437.459,-453.086 407.814,-440 405.778,-439.101 403.679,-438.165 401.569,-437.217"/>
<polygon fill="midnightblue" stroke="midnightblue" points="402.949,-434 392.396,-433.06 400.059,-440.376 402.949,-434"/>
</g>
<!-- Node40 -->
<g id="node40" class="node"><title>Node40</title>
<polygon fill="white" stroke="#bfbfbf" points="416.623,-407 416.623,-439 531.006,-439 531.006,-407 416.623,-407"/>
<text text-anchor="start" x="424.623" y="-425" font-family="Helvetica,sans-Serif" font-size="10.00">ApplicationServices</text>
<text text-anchor="middle" x="473.814" y="-413" font-family="Helvetica,sans-Serif" font-size="10.00">/ApplicationServices.h</text>
</g>
<!-- Node34&#45;&gt;Node40 -->
<g id="edge66" class="edge"><title>Node34&#45;&gt;Node40</title>
<path fill="none" stroke="midnightblue" d="M509.617,-476.852C504.464,-469.244 496.891,-458.065 490.035,-447.945"/>
<polygon fill="midnightblue" stroke="midnightblue" points="492.78,-445.757 484.274,-439.44 486.985,-449.683 492.78,-445.757"/>
</g>
<!-- Node35&#45;&gt;Node23 -->
<g id="edge61" class="edge"><title>Node35&#45;&gt;Node23</title>
<path fill="none" stroke="midnightblue" d="M428.255,-232.753C417.654,-224.272 401.743,-211.543 389.199,-201.507"/>
<polygon fill="midnightblue" stroke="midnightblue" points="391.154,-198.589 381.158,-195.075 386.781,-204.055 391.154,-198.589"/>
</g>
<!-- Node36 -->
<g id="node36" class="node"><title>Node36</title>
<g id="a_node36"><a xlink:href="rc__timestamp_8h.html" target="_top" xlink:title="rc_timestamp.h">
<polygon fill="white" stroke="black" points="656.637,-175 656.637,-195 740.992,-195 740.992,-175 656.637,-175"/>
<text text-anchor="middle" x="698.814" y="-181" font-family="Helvetica,sans-Serif" font-size="10.00">rc_timestamp.h</text>
</a>
</g>
</g>
<!-- Node35&#45;&gt;Node36 -->
<g id="edge54" class="edge"><title>Node35&#45;&gt;Node36</title>
<path fill="none" stroke="midnightblue" d="M478.87,-233.556C523.688,-223.865 597.375,-207.933 646.969,-197.21"/>
<polygon fill="midnightblue" stroke="midnightblue" points="647.825,-200.606 656.859,-195.071 646.345,-193.764 647.825,-200.606"/>
</g>
<!-- Node37 -->
<g id="node37" class="node"><title>Node37</title>
<g id="a_node37"><a xlink:href="rc__thread_8h.html" target="_top" xlink:title="rc_thread.h">
<polygon fill="white" stroke="black" points="458.521,-175 458.521,-195 525.107,-195 525.107,-175 458.521,-175"/>
<text text-anchor="middle" x="491.814" y="-181" font-family="Helvetica,sans-Serif" font-size="10.00">rc_thread.h</text>
</a>
</g>
</g>
<!-- Node35&#45;&gt;Node37 -->
<g id="edge58" class="edge"><title>Node35&#45;&gt;Node37</title>
<path fill="none" stroke="midnightblue" d="M448.401,-232.753C455.973,-224.598 467.193,-212.516 476.329,-202.677"/>
<polygon fill="midnightblue" stroke="midnightblue" points="479.148,-204.785 483.387,-195.075 474.018,-200.022 479.148,-204.785"/>
</g>
<!-- Node38 -->
<g id="node38" class="node"><title>Node38</title>
<polygon fill="white" stroke="#bfbfbf" points="384.736,-117 384.736,-137 476.893,-137 476.893,-117 384.736,-117"/>
<text text-anchor="middle" x="430.814" y="-123" font-family="Helvetica,sans-Serif" font-size="10.00">boost/atomic.hpp</text>
</g>
<!-- Node35&#45;&gt;Node38 -->
<g id="edge62" class="edge"><title>Node35&#45;&gt;Node38</title>
<path fill="none" stroke="midnightblue" d="M439.078,-232.671C437.607,-214.041 434.28,-171.898 432.326,-147.143"/>
<polygon fill="midnightblue" stroke="midnightblue" points="435.812,-146.833 431.536,-137.139 428.834,-147.384 435.812,-146.833"/>
</g>
<!-- Node36&#45;&gt;Node6 -->
<g id="edge56" class="edge"><title>Node36&#45;&gt;Node6</title>
<path fill="none" stroke="midnightblue" d="M706.245,-174.753C712.733,-166.68 722.313,-154.757 730.176,-144.973"/>
<polygon fill="midnightblue" stroke="midnightblue" points="732.986,-147.063 736.522,-137.075 727.53,-142.678 732.986,-147.063"/>
</g>
<!-- Node36&#45;&gt;Node13 -->
<g id="edge55" class="edge"><title>Node36&#45;&gt;Node13</title>
<path fill="none" stroke="midnightblue" d="M675.032,-174.878C650.852,-165.603 613.187,-151.156 586.059,-140.752"/>
<polygon fill="midnightblue" stroke="midnightblue" points="587.177,-137.432 576.587,-137.118 584.67,-143.967 587.177,-137.432"/>
</g>
<!-- Node36&#45;&gt;Node24 -->
<g id="edge57" class="edge"><title>Node36&#45;&gt;Node24</title>
<path fill="none" stroke="midnightblue" d="M695.182,-174.753C692.17,-167.087 687.795,-155.952 684.071,-146.471"/>
<polygon fill="midnightblue" stroke="midnightblue" points="687.294,-145.103 680.38,-137.075 680.779,-147.663 687.294,-145.103"/>
</g>
<!-- Node37&#45;&gt;Node13 -->
<g id="edge59" class="edge"><title>Node37&#45;&gt;Node13</title>
<path fill="none" stroke="midnightblue" d="M501.887,-174.753C510.948,-166.435 524.459,-154.031 535.289,-144.089"/>
<polygon fill="midnightblue" stroke="midnightblue" points="537.929,-146.416 542.929,-137.075 533.195,-141.26 537.929,-146.416"/>
</g>
<!-- Node37&#45;&gt;Node38 -->
<g id="edge60" class="edge"><title>Node37&#45;&gt;Node38</title>
<path fill="none" stroke="midnightblue" d="M481.742,-174.753C472.681,-166.435 459.17,-154.031 448.34,-144.089"/>
<polygon fill="midnightblue" stroke="midnightblue" points="450.433,-141.26 440.7,-137.075 445.699,-146.416 450.433,-141.26"/>
</g>
<!-- Node41&#45;&gt;Node13 -->
<g id="edge69" class="edge"><title>Node41&#45;&gt;Node13</title>
<path fill="none" stroke="midnightblue" d="M325.316,-592.945C247.484,-569.064 56.8144,-496.618 56.8144,-360 56.8144,-360 56.8144,-360 56.8144,-242 56.8144,-210.62 51.6721,-194.046 75.8144,-174 146.181,-115.573 394.987,-148.756 485.814,-138 494.118,-137.017 502.976,-135.808 511.442,-134.576"/>
<polygon fill="midnightblue" stroke="midnightblue" points="512.134,-138.011 521.508,-133.074 511.101,-131.088 512.134,-138.011"/>
</g>
<!-- Node42&#45;&gt;Node38 -->
<g id="edge72" class="edge"><title>Node42&#45;&gt;Node38</title>
<path fill="none" stroke="midnightblue" d="M65.9241,-534.738C42.3982,-488.779 -54.0965,-283.079 42.8144,-174 64.4569,-149.64 272.203,-135.933 374.485,-130.611"/>
<polygon fill="midnightblue" stroke="midnightblue" points="374.83,-134.098 384.639,-130.092 374.473,-127.107 374.83,-134.098"/>
</g>
<!-- Node47&#45;&gt;Node41 -->
<g id="edge79" class="edge"><title>Node47&#45;&gt;Node41</title>
<path fill="none" stroke="midnightblue" d="M292.524,-766.753C303.428,-739.571 335.534,-659.538 350.268,-622.811"/>
<polygon fill="midnightblue" stroke="midnightblue" points="353.611,-623.877 354.086,-613.293 347.115,-621.271 353.611,-623.877"/>
</g>
<!-- Node48 -->
<g id="node48" class="node"><title>Node48</title>
<polygon fill="white" stroke="#bfbfbf" points="158.014,-651 158.014,-671 239.615,-671 239.615,-651 158.014,-651"/>
<text text-anchor="middle" x="198.814" y="-657" font-family="Helvetica,sans-Serif" font-size="10.00">qnamespace.h</text>
</g>
<!-- Node47&#45;&gt;Node48 -->
<g id="edge78" class="edge"><title>Node47&#45;&gt;Node48</title>
<path fill="none" stroke="midnightblue" d="M252.194,-766.877C233.089,-760.069 211.348,-748.635 199.814,-730 190.802,-715.44 191.681,-695.552 194.135,-681.047"/>
<polygon fill="midnightblue" stroke="midnightblue" points="197.578,-681.683 196.182,-671.181 190.724,-680.261 197.578,-681.683"/>
</g>
<!-- Node49 -->
<g id="node49" class="node"><title>Node49</title>
<g id="a_node49"><a xlink:href="rc__uiconstants_8h.html" target="_top" xlink:title="rc_uiconstants.h">
<polygon fill="white" stroke="black" points="208.406,-709 208.406,-729 297.223,-729 297.223,-709 208.406,-709"/>
<text text-anchor="middle" x="252.814" y="-715" font-family="Helvetica,sans-Serif" font-size="10.00">rc_uiconstants.h</text>
</a>
</g>
</g>
<!-- Node47&#45;&gt;Node49 -->
<g id="edge80" class="edge"><title>Node47&#45;&gt;Node49</title>
<path fill="none" stroke="midnightblue" d="M282.87,-766.753C277.785,-758.843 270.324,-747.237 264.108,-737.568"/>
<polygon fill="midnightblue" stroke="midnightblue" points="267,-735.594 258.648,-729.075 261.112,-739.38 267,-735.594"/>
</g>
<!-- Node49&#45;&gt;Node48 -->
<g id="edge81" class="edge"><title>Node49&#45;&gt;Node48</title>
<path fill="none" stroke="midnightblue" d="M243.897,-708.753C235.955,-700.516 224.15,-688.274 214.612,-678.382"/>
<polygon fill="midnightblue" stroke="midnightblue" points="217.026,-675.844 207.566,-671.075 211.987,-680.703 217.026,-675.844"/>
</g>
</g>
</svg>
