<?xml version="1.0" encoding="UTF-8" standalone="no"?>
<!DOCTYPE svg PUBLIC "-//W3C//DTD SVG 1.1//EN"
 "http://www.w3.org/Graphics/SVG/1.1/DTD/svg11.dtd">
<!-- Generated by graphviz version 2.32.0 (20130916.1925)
 -->
<!-- Title: focusCompare Pages: 1 -->
<svg width="850pt" height="169pt"
 viewBox="0.00 0.00 850.00 169.00" xmlns="http://www.w3.org/2000/svg" xmlns:xlink="http://www.w3.org/1999/xlink">
<g id="graph0" class="graph" transform="scale(1 1) rotate(0) translate(4 165)">
<title>focusCompare</title>
<polygon fill="white" stroke="white" points="-4,5 -4,-165 847,-165 847,5 -4,5"/>
<!-- Node1 -->
<g id="node1" class="node"><title>Node1</title>
<polygon fill="#bfbfbf" stroke="black" points="0.485352,-45 0.485352,-65 81.5146,-65 81.5146,-45 0.485352,-45"/>
<text text-anchor="middle" x="41" y="-51" font-family="Helvetica,sans-Serif" font-size="10.00">focusCompare</text>
</g>
<!-- Node2 -->
<g id="node2" class="node"><title>Node2</title>
<g id="a_node2"><a xlink:href="classrc_image_canvas_g_l.html#a85e0b816bc87a7c933361451e7768810" target="_top" xlink:title="rcImageCanvasGL::enableCell\lGroup">
<polygon fill="white" stroke="black" points="119.909,-90 119.909,-122 272.091,-122 272.091,-90 119.909,-90"/>
<text text-anchor="start" x="127.909" y="-108" font-family="Helvetica,sans-Serif" font-size="10.00">rcImageCanvasGL::enableCell</text>
<text text-anchor="middle" x="196" y="-96" font-family="Helvetica,sans-Serif" font-size="10.00">Group</text>
</a>
</g>
</g>
<!-- Node1&#45;&gt;Node2 -->
<g id="edge1" class="edge"><title>Node1&#45;&gt;Node2</title>
<path fill="none" stroke="midnightblue" d="M81.8831,-68.2944C101.732,-74.9106 125.884,-82.9615 146.767,-89.9223"/>
<polygon fill="midnightblue" stroke="midnightblue" points="82.8215,-64.9179 72.2279,-65.076 80.6079,-71.5587 82.8215,-64.9179"/>
</g>
<!-- Node7 -->
<g id="node7" class="node"><title>Node7</title>
<g id="a_node7"><a xlink:href="classrc_image_canvas_g_l.html#a20505dcee342d0b1a7a3e357f524d9ff" target="_top" xlink:title="rcImageCanvasGL::findClosest\lCellGroup">
<polygon fill="white" stroke="black" points="118.803,-39 118.803,-71 273.197,-71 273.197,-39 118.803,-39"/>
<text text-anchor="start" x="126.803" y="-57" font-family="Helvetica,sans-Serif" font-size="10.00">rcImageCanvasGL::findClosest</text>
<text text-anchor="middle" x="196" y="-45" font-family="Helvetica,sans-Serif" font-size="10.00">CellGroup</text>
</a>
</g>
</g>
<!-- Node1&#45;&gt;Node7 -->
<g id="edge6" class="edge"><title>Node1&#45;&gt;Node7</title>
<path fill="none" stroke="midnightblue" d="M91.9466,-55C100.499,-55 109.556,-55 118.612,-55"/>
<polygon fill="midnightblue" stroke="midnightblue" points="91.7996,-51.5001 81.7995,-55 91.7995,-58.5001 91.7996,-51.5001"/>
</g>
<!-- Node10 -->
<g id="node10" class="node"><title>Node10</title>
<g id="a_node10"><a xlink:href="classrc_monitor.html#a0ddaad1b9f1478578e9603b6f6ebf1f1" target="_top" xlink:title="rcMonitor::mouseReleaseEvent">
<polygon fill="white" stroke="black" points="118.247,-0 118.247,-20 273.753,-20 273.753,-0 118.247,-0"/>
<text text-anchor="middle" x="196" y="-6" font-family="Helvetica,sans-Serif" font-size="10.00">rcMonitor::mouseReleaseEvent</text>
</a>
</g>
</g>
<!-- Node1&#45;&gt;Node10 -->
<g id="edge9" class="edge"><title>Node1&#45;&gt;Node10</title>
<path fill="none" stroke="midnightblue" d="M79.1033,-41.5791C91.4085,-37.3235 105.226,-32.7533 118,-29 128.701,-25.856 140.338,-22.7994 151.249,-20.0897"/>
<polygon fill="midnightblue" stroke="midnightblue" points="77.8898,-38.2956 69.6077,-44.903 80.2025,-44.9025 77.8898,-38.2956"/>
</g>
<!-- Node3 -->
<g id="node3" class="node"><title>Node3</title>
<g id="a_node3"><a xlink:href="classrc_image_canvas_g_l.html#a99a6568df0e15227de9062331e1f2e0b" target="_top" xlink:title="rcImageCanvasGL::updateAnalysisRect">
<polygon fill="white" stroke="black" points="310.345,-141 310.345,-161 503.655,-161 503.655,-141 310.345,-141"/>
<text text-anchor="middle" x="407" y="-147" font-family="Helvetica,sans-Serif" font-size="10.00">rcImageCanvasGL::updateAnalysisRect</text>
</a>
</g>
</g>
<!-- Node2&#45;&gt;Node3 -->
<g id="edge2" class="edge"><title>Node2&#45;&gt;Node3</title>
<path fill="none" stroke="midnightblue" d="M278.734,-124.208C289.251,-126.514 299.877,-128.826 310,-131 325.313,-134.289 342.019,-137.797 357.138,-140.942"/>
<polygon fill="midnightblue" stroke="midnightblue" points="279.223,-120.732 268.704,-122.003 277.72,-127.569 279.223,-120.732"/>
</g>
<!-- Node6 -->
<g id="node6" class="node"><title>Node6</title>
<g id="a_node6"><a xlink:href="classrc_image_canvas_g_l.html#acb25a27713e20842e6bb0a741570480b" target="_top" xlink:title="rcImageCanvasGL::mouseRelease\lEvent">
<polygon fill="white" stroke="black" points="321.185,-90 321.185,-122 492.815,-122 492.815,-90 321.185,-90"/>
<text text-anchor="start" x="329.185" y="-108" font-family="Helvetica,sans-Serif" font-size="10.00">rcImageCanvasGL::mouseRelease</text>
<text text-anchor="middle" x="407" y="-96" font-family="Helvetica,sans-Serif" font-size="10.00">Event</text>
</a>
</g>
</g>
<!-- Node2&#45;&gt;Node6 -->
<g id="edge5" class="edge"><title>Node2&#45;&gt;Node6</title>
<path fill="none" stroke="midnightblue" d="M282.271,-106C295.005,-106 308.133,-106 320.864,-106"/>
<polygon fill="midnightblue" stroke="midnightblue" points="282.159,-102.5 272.159,-106 282.158,-109.5 282.159,-102.5"/>
</g>
<!-- Node4 -->
<g id="node4" class="node"><title>Node4</title>
<g id="a_node4"><a xlink:href="classrc_monitor.html#ae24f91aee12ee35053a43b405b0fd35c" target="_top" xlink:title="rcMonitor::updateAnalysisRect">
<polygon fill="white" stroke="black" points="544.192,-141 544.192,-161 695.808,-161 695.808,-141 544.192,-141"/>
<text text-anchor="middle" x="620" y="-147" font-family="Helvetica,sans-Serif" font-size="10.00">rcMonitor::updateAnalysisRect</text>
</a>
</g>
</g>
<!-- Node3&#45;&gt;Node4 -->
<g id="edge3" class="edge"><title>Node3&#45;&gt;Node4</title>
<path fill="none" stroke="midnightblue" d="M514.08,-151C524.242,-151 534.396,-151 544.166,-151"/>
<polygon fill="midnightblue" stroke="midnightblue" points="513.93,-147.5 503.93,-151 513.93,-154.5 513.93,-147.5"/>
</g>
<!-- Node5 -->
<g id="node5" class="node"><title>Node5</title>
<g id="a_node5"><a xlink:href="classrc_monitor.html#ac08d61628243cd2d0bf2f6388f42995b" target="_top" xlink:title="rcMonitor::rcMonitor">
<polygon fill="white" stroke="black" points="736.547,-141 736.547,-161 841.453,-161 841.453,-141 736.547,-141"/>
<text text-anchor="middle" x="789" y="-147" font-family="Helvetica,sans-Serif" font-size="10.00">rcMonitor::rcMonitor</text>
</a>
</g>
</g>
<!-- Node4&#45;&gt;Node5 -->
<g id="edge4" class="edge"><title>Node4&#45;&gt;Node5</title>
<path fill="none" stroke="midnightblue" d="M706.357,-151C716.528,-151 726.663,-151 736.158,-151"/>
<polygon fill="midnightblue" stroke="midnightblue" points="706.195,-147.5 696.195,-151 706.195,-154.5 706.195,-147.5"/>
</g>
<!-- Node8 -->
<g id="node8" class="node"><title>Node8</title>
<g id="a_node8"><a xlink:href="classrc_image_canvas_g_l.html#a81111b0e59530e373e19cc01144c0347" target="_top" xlink:title="rcImageCanvasGL::getTool\lTipText">
<polygon fill="white" stroke="black" points="338.414,-39 338.414,-71 475.586,-71 475.586,-39 338.414,-39"/>
<text text-anchor="start" x="346.414" y="-57" font-family="Helvetica,sans-Serif" font-size="10.00">rcImageCanvasGL::getTool</text>
<text text-anchor="middle" x="407" y="-45" font-family="Helvetica,sans-Serif" font-size="10.00">TipText</text>
</a>
</g>
</g>
<!-- Node7&#45;&gt;Node8 -->
<g id="edge7" class="edge"><title>Node7&#45;&gt;Node8</title>
<path fill="none" stroke="midnightblue" d="M283.397,-55C301.665,-55 320.695,-55 338.161,-55"/>
<polygon fill="midnightblue" stroke="midnightblue" points="283.341,-51.5001 273.341,-55 283.341,-58.5001 283.341,-51.5001"/>
</g>
<!-- Node9 -->
<g id="node9" class="node"><title>Node9</title>
<g id="a_node9"><a xlink:href="classrc_image_canvas_g_l.html#ab57b93a733a4e2b8703a4ee083d46737" target="_top" xlink:title="rcImageCanvasGL::mouseMove\lEvent">
<polygon fill="white" stroke="black" points="540.303,-39 540.303,-71 699.697,-71 699.697,-39 540.303,-39"/>
<text text-anchor="start" x="548.303" y="-57" font-family="Helvetica,sans-Serif" font-size="10.00">rcImageCanvasGL::mouseMove</text>
<text text-anchor="middle" x="620" y="-45" font-family="Helvetica,sans-Serif" font-size="10.00">Event</text>
</a>
</g>
</g>
<!-- Node8&#45;&gt;Node9 -->
<g id="edge8" class="edge"><title>Node8&#45;&gt;Node9</title>
<path fill="none" stroke="midnightblue" d="M485.879,-55C503.528,-55 522.287,-55 539.982,-55"/>
<polygon fill="midnightblue" stroke="midnightblue" points="485.632,-51.5001 475.632,-55 485.632,-58.5001 485.632,-51.5001"/>
</g>
</g>
</svg>
