<?xml version="1.0" encoding="UTF-8" standalone="no"?>
<!DOCTYPE svg PUBLIC "-//W3C//DTD SVG 1.1//EN"
 "http://www.w3.org/Graphics/SVG/1.1/DTD/svg11.dtd">
<!-- Generated by graphviz version 2.32.0 (20130916.1925)
 -->
<!-- Title: processExtension Pages: 1 -->
<svg width="810pt" height="311pt"
 viewBox="0.00 0.00 810.00 311.00" xmlns="http://www.w3.org/2000/svg" xmlns:xlink="http://www.w3.org/1999/xlink">
<g id="graph0" class="graph" transform="scale(1 1) rotate(0) translate(4 307)">
<title>processExtension</title>
<polygon fill="white" stroke="white" points="-4,5 -4,-307 807,-307 807,5 -4,5"/>
<!-- Node1 -->
<g id="node1" class="node"><title>Node1</title>
<polygon fill="#bfbfbf" stroke="black" points="0.534668,-145 0.534668,-165 95.4653,-165 95.4653,-145 0.534668,-145"/>
<text text-anchor="middle" x="48" y="-151" font-family="Helvetica,sans-Serif" font-size="10.00">processExtension</text>
</g>
<!-- Node2 -->
<g id="node2" class="node"><title>Node2</title>
<g id="a_node2"><a xlink:href="classrc_model_domain.html#a6562b10ffc6a1102c0210152912ed955" target="_top" xlink:title="rcModelDomain::requestSave">
<polygon fill="white" stroke="black" points="132.136,-145 132.136,-165 279.864,-165 279.864,-145 132.136,-145"/>
<text text-anchor="middle" x="206" y="-151" font-family="Helvetica,sans-Serif" font-size="10.00">rcModelDomain::requestSave</text>
</a>
</g>
</g>
<!-- Node1&#45;&gt;Node2 -->
<g id="edge1" class="edge"><title>Node1&#45;&gt;Node2</title>
<path fill="none" stroke="midnightblue" d="M105.926,-155C114.394,-155 123.22,-155 131.962,-155"/>
<polygon fill="midnightblue" stroke="midnightblue" points="105.805,-151.5 95.8051,-155 105.805,-158.5 105.805,-151.5"/>
</g>
<!-- Node3 -->
<g id="node3" class="node"><title>Node3</title>
<g id="a_node3"><a xlink:href="classrc_main_window.html#a8ebcb1170fcbe2d5f636f75c6b152304" target="_top" xlink:title="rcMainWindow::closeEvent">
<polygon fill="white" stroke="black" points="323.978,-283 323.978,-303 460.022,-303 460.022,-283 323.978,-283"/>
<text text-anchor="middle" x="392" y="-289" font-family="Helvetica,sans-Serif" font-size="10.00">rcMainWindow::closeEvent</text>
</a>
</g>
</g>
<!-- Node2&#45;&gt;Node3 -->
<g id="edge2" class="edge"><title>Node2&#45;&gt;Node3</title>
<path fill="none" stroke="midnightblue" d="M220.001,-173.191C238.609,-197.982 275.136,-242.233 316,-268 325.984,-274.296 337.725,-279.183 348.914,-282.897"/>
<polygon fill="midnightblue" stroke="midnightblue" points="222.726,-170.99 213.981,-165.009 217.088,-175.138 222.726,-170.99"/>
</g>
<!-- Node4 -->
<g id="node4" class="node"><title>Node4</title>
<g id="a_node4"><a xlink:href="classrc_menu_bar.html#abee8d9a54583563d1fbc7fe134c6021d" target="_top" xlink:title="rcMenuBar::doSave">
<polygon fill="white" stroke="black" points="522.811,-243 522.811,-263 627.189,-263 627.189,-243 522.811,-243"/>
<text text-anchor="middle" x="575" y="-249" font-family="Helvetica,sans-Serif" font-size="10.00">rcMenuBar::doSave</text>
</a>
</g>
</g>
<!-- Node2&#45;&gt;Node4 -->
<g id="edge3" class="edge"><title>Node2&#45;&gt;Node4</title>
<path fill="none" stroke="midnightblue" d="M234.701,-169.641C256.318,-180.524 287.384,-194.988 316,-204 386.014,-226.048 470.009,-239.745 522.706,-246.874"/>
<polygon fill="midnightblue" stroke="midnightblue" points="236.26,-166.508 225.763,-165.075 233.075,-172.741 236.26,-166.508"/>
</g>
<!-- Node6 -->
<g id="node6" class="node"><title>Node6</title>
<g id="a_node6"><a xlink:href="classrc_menu_bar.html#a064e86b24085db73fe4685786714e76b" target="_top" xlink:title="rcMenuBar::doExport">
<polygon fill="white" stroke="black" points="519.756,-204 519.756,-224 630.244,-224 630.244,-204 519.756,-204"/>
<text text-anchor="middle" x="575" y="-210" font-family="Helvetica,sans-Serif" font-size="10.00">rcMenuBar::doExport</text>
</a>
</g>
</g>
<!-- Node2&#45;&gt;Node6 -->
<g id="edge5" class="edge"><title>Node2&#45;&gt;Node6</title>
<path fill="none" stroke="midnightblue" d="M258.548,-167.258C276.649,-171.321 297.166,-175.655 316,-179 385.873,-191.41 467.08,-201.763 519.439,-207.914"/>
<polygon fill="midnightblue" stroke="midnightblue" points="259.293,-163.838 248.766,-165.037 257.743,-170.664 259.293,-163.838"/>
</g>
<!-- Node7 -->
<g id="node7" class="node"><title>Node7</title>
<g id="a_node7"><a xlink:href="classrc_menu_bar.html#a78438aa77dbc517408e842401249f491" target="_top" xlink:title="rcMenuBar::doExportMovie">
<polygon fill="white" stroke="black" points="506.419,-164 506.419,-184 643.581,-184 643.581,-164 506.419,-164"/>
<text text-anchor="middle" x="575" y="-170" font-family="Helvetica,sans-Serif" font-size="10.00">rcMenuBar::doExportMovie</text>
</a>
</g>
</g>
<!-- Node2&#45;&gt;Node7 -->
<g id="edge7" class="edge"><title>Node2&#45;&gt;Node7</title>
<path fill="none" stroke="midnightblue" d="M290.204,-159.308C355.474,-162.687 445.183,-167.331 506.146,-170.487"/>
<polygon fill="midnightblue" stroke="midnightblue" points="290.114,-155.798 279.946,-158.777 289.752,-162.789 290.114,-155.798"/>
</g>
<!-- Node8 -->
<g id="node8" class="node"><title>Node8</title>
<g id="a_node8"><a xlink:href="classrc_menu_bar.html#a810d4f2dfdbf54ad32f644b02ede8d51" target="_top" xlink:title="rcMenuBar::doExportNative\lMovie">
<polygon fill="white" stroke="black" points="322.584,-117 322.584,-149 461.416,-149 461.416,-117 322.584,-117"/>
<text text-anchor="start" x="330.584" y="-135" font-family="Helvetica,sans-Serif" font-size="10.00">rcMenuBar::doExportNative</text>
<text text-anchor="middle" x="392" y="-123" font-family="Helvetica,sans-Serif" font-size="10.00">Movie</text>
</a>
</g>
</g>
<!-- Node2&#45;&gt;Node8 -->
<g id="edge9" class="edge"><title>Node2&#45;&gt;Node8</title>
<path fill="none" stroke="midnightblue" d="M290.207,-145.051C300.939,-143.768 311.833,-142.466 322.296,-141.215"/>
<polygon fill="midnightblue" stroke="midnightblue" points="289.5,-141.611 279.986,-146.273 290.331,-148.561 289.5,-141.611"/>
</g>
<!-- Node9 -->
<g id="node9" class="node"><title>Node9</title>
<g id="a_node9"><a xlink:href="classrc_model_domain.html#a22a54929f87b20c0df71376866155aa1" target="_top" xlink:title="rcModelDomain::requestNew">
<polygon fill="white" stroke="black" points="319.53,-78 319.53,-98 464.47,-98 464.47,-78 319.53,-78"/>
<text text-anchor="middle" x="392" y="-84" font-family="Helvetica,sans-Serif" font-size="10.00">rcModelDomain::requestNew</text>
</a>
</g>
</g>
<!-- Node2&#45;&gt;Node9 -->
<g id="edge11" class="edge"><title>Node2&#45;&gt;Node9</title>
<path fill="none" stroke="midnightblue" d="M236.375,-140.465C258.015,-130.153 288.363,-116.511 316,-107 325.653,-103.678 336.184,-100.654 346.222,-98.0434"/>
<polygon fill="midnightblue" stroke="midnightblue" points="234.575,-137.447 227.086,-144.941 237.614,-143.753 234.575,-137.447"/>
</g>
<!-- Node10 -->
<g id="node10" class="node"><title>Node10</title>
<g id="a_node10"><a xlink:href="classrc_model_domain.html#a13bae0fdfe648f4b69bfbba62de82ea4" target="_top" xlink:title="rcModelDomain::requestOpen">
<polygon fill="white" stroke="black" points="317.301,-39 317.301,-59 466.699,-59 466.699,-39 317.301,-39"/>
<text text-anchor="middle" x="392" y="-45" font-family="Helvetica,sans-Serif" font-size="10.00">rcModelDomain::requestOpen</text>
</a>
</g>
</g>
<!-- Node2&#45;&gt;Node10 -->
<g id="edge12" class="edge"><title>Node2&#45;&gt;Node10</title>
<path fill="none" stroke="midnightblue" d="M223.648,-137.857C243.749,-118.139 279.433,-86.1564 316,-68 323.218,-64.4158 331.173,-61.468 339.122,-59.0552"/>
<polygon fill="midnightblue" stroke="midnightblue" points="221.1,-135.455 216.502,-145 226.049,-140.406 221.1,-135.455"/>
</g>
<!-- Node13 -->
<g id="node13" class="node"><title>Node13</title>
<g id="a_node13"><a xlink:href="classrc_model_domain.html#ae7809ec8b962a625f7f7614ec0b8ea49" target="_top" xlink:title="rcModelDomain::requestClose">
<polygon fill="white" stroke="black" points="316.749,-0 316.749,-20 467.251,-20 467.251,-0 316.749,-0"/>
<text text-anchor="middle" x="392" y="-6" font-family="Helvetica,sans-Serif" font-size="10.00">rcModelDomain::requestClose</text>
</a>
</g>
</g>
<!-- Node2&#45;&gt;Node13 -->
<g id="edge17" class="edge"><title>Node2&#45;&gt;Node13</title>
<path fill="none" stroke="midnightblue" d="M217.944,-136.243C235.171,-108.432 271.301,-56.5816 316,-29 321.83,-25.4027 328.313,-22.4846 334.959,-20.1179"/>
<polygon fill="midnightblue" stroke="midnightblue" points="214.83,-134.63 212.656,-144.999 220.822,-138.249 214.83,-134.63"/>
</g>
<!-- Node5 -->
<g id="node5" class="node"><title>Node5</title>
<g id="a_node5"><a xlink:href="classrc_menu_bar.html#ac519f881b1d9d23fbc907d1c50ea9651" target="_top" xlink:title="rcMenuBar::rcMenuBar">
<polygon fill="white" stroke="black" points="682.315,-143 682.315,-163 801.685,-163 801.685,-143 682.315,-143"/>
<text text-anchor="middle" x="742" y="-149" font-family="Helvetica,sans-Serif" font-size="10.00">rcMenuBar::rcMenuBar</text>
</a>
</g>
</g>
<!-- Node4&#45;&gt;Node5 -->
<g id="edge4" class="edge"><title>Node4&#45;&gt;Node5</title>
<path fill="none" stroke="midnightblue" d="M631.572,-239.502C636.562,-237.584 641.445,-235.424 646,-233 681.594,-214.056 715.878,-180.101 731.773,-163.174"/>
<polygon fill="midnightblue" stroke="midnightblue" points="630.177,-236.282 621.902,-242.898 632.497,-242.887 630.177,-236.282"/>
</g>
<!-- Node6&#45;&gt;Node5 -->
<g id="edge6" class="edge"><title>Node6&#45;&gt;Node5</title>
<path fill="none" stroke="midnightblue" d="M621.906,-200.996C629.984,-198.49 638.275,-195.776 646,-193 671.43,-183.861 699.912,-171.587 718.999,-163.055"/>
<polygon fill="midnightblue" stroke="midnightblue" points="620.763,-197.686 612.212,-203.94 622.797,-204.384 620.763,-197.686"/>
</g>
<!-- Node7&#45;&gt;Node5 -->
<g id="edge8" class="edge"><title>Node7&#45;&gt;Node5</title>
<path fill="none" stroke="midnightblue" d="M653.577,-164.127C663.215,-162.9 672.943,-161.662 682.232,-160.48"/>
<polygon fill="midnightblue" stroke="midnightblue" points="653.066,-160.663 643.588,-165.398 653.95,-167.607 653.066,-160.663"/>
</g>
<!-- Node8&#45;&gt;Node5 -->
<g id="edge10" class="edge"><title>Node8&#45;&gt;Node5</title>
<path fill="none" stroke="midnightblue" d="M471.791,-137.528C535.707,-141.202 624.389,-146.298 682.222,-149.622"/>
<polygon fill="midnightblue" stroke="midnightblue" points="471.938,-134.031 461.754,-136.951 471.536,-141.019 471.938,-134.031"/>
</g>
<!-- Node11 -->
<g id="node11" class="node"><title>Node11</title>
<g id="a_node11"><a xlink:href="classrc_menu_bar.html#a6c16d367445a29969c123644d9d92ede" target="_top" xlink:title="rcMenuBar::doOpen">
<polygon fill="white" stroke="black" points="521.976,-81 521.976,-101 628.024,-101 628.024,-81 521.976,-81"/>
<text text-anchor="middle" x="575" y="-87" font-family="Helvetica,sans-Serif" font-size="10.00">rcMenuBar::doOpen</text>
</a>
</g>
</g>
<!-- Node10&#45;&gt;Node11 -->
<g id="edge13" class="edge"><title>Node10&#45;&gt;Node11</title>
<path fill="none" stroke="midnightblue" d="M446.366,-61.3833C473.231,-67.6171 505.377,-75.0763 530.686,-80.9493"/>
<polygon fill="midnightblue" stroke="midnightblue" points="446.886,-57.9111 436.354,-59.06 445.304,-64.7299 446.886,-57.9111"/>
</g>
<!-- Node12 -->
<g id="node12" class="node"><title>Node12</title>
<g id="a_node12"><a xlink:href="classrc_menu_bar.html#a1c0076a5a7b2cff029d0db7976a8fdc8" target="_top" xlink:title="rcMenuBar::doOpenSettings">
<polygon fill="white" stroke="black" points="503.909,-40 503.909,-60 646.091,-60 646.091,-40 503.909,-40"/>
<text text-anchor="middle" x="575" y="-46" font-family="Helvetica,sans-Serif" font-size="10.00">rcMenuBar::doOpenSettings</text>
</a>
</g>
</g>
<!-- Node10&#45;&gt;Node12 -->
<g id="edge15" class="edge"><title>Node10&#45;&gt;Node12</title>
<path fill="none" stroke="midnightblue" d="M476.979,-49.464C485.972,-49.5137 495.052,-49.5638 503.86,-49.6125"/>
<polygon fill="midnightblue" stroke="midnightblue" points="476.9,-45.9636 466.881,-49.4082 476.861,-52.9635 476.9,-45.9636"/>
</g>
<!-- Node11&#45;&gt;Node5 -->
<g id="edge14" class="edge"><title>Node11&#45;&gt;Node5</title>
<path fill="none" stroke="midnightblue" d="M612.38,-104.67C643.122,-116.222 686.452,-132.503 714.134,-142.905"/>
<polygon fill="midnightblue" stroke="midnightblue" points="613.469,-101.341 602.877,-101.099 611.007,-107.893 613.469,-101.341"/>
</g>
<!-- Node12&#45;&gt;Node5 -->
<g id="edge16" class="edge"><title>Node12&#45;&gt;Node5</title>
<path fill="none" stroke="midnightblue" d="M629.42,-63.4343C635.16,-65.6341 640.798,-68.1461 646,-71 681.911,-90.701 716.312,-125.689 732.054,-142.887"/>
<polygon fill="midnightblue" stroke="midnightblue" points="630.316,-60.0393 619.722,-60.0217 627.993,-66.6425 630.316,-60.0393"/>
</g>
</g>
</svg>
