<?xml version="1.0" encoding="UTF-8" standalone="no"?>
<!DOCTYPE svg PUBLIC "-//W3C//DTD SVG 1.1//EN"
 "http://www.w3.org/Graphics/SVG/1.1/DTD/svg11.dtd">
<!-- Generated by graphviz version 2.32.0 (20130916.1925)
 -->
<!-- Title: include/visUI/rc_checkboxsettingwidget.h Pages: 1 -->
<svg width="564pt" height="100pt"
 viewBox="0.00 0.00 564.00 100.00" xmlns="http://www.w3.org/2000/svg" xmlns:xlink="http://www.w3.org/1999/xlink">
<g id="graph0" class="graph" transform="scale(1 1) rotate(0) translate(4 96)">
<title>include/visUI/rc_checkboxsettingwidget.h</title>
<polygon fill="white" stroke="white" points="-4,5 -4,-96 561,-96 561,5 -4,5"/>
<!-- Node1 -->
<g id="node1" class="node"><title>Node1</title>
<polygon fill="#bfbfbf" stroke="black" points="176.843,-71 176.843,-91 375.157,-91 375.157,-71 176.843,-71"/>
<text text-anchor="middle" x="276" y="-77" font-family="Helvetica,sans-Serif" font-size="10.00">include/visUI/rc_checkboxsettingwidget.h</text>
</g>
<!-- Node2 -->
<g id="node2" class="node"><title>Node2</title>
<g id="a_node2"><a xlink:href="moc__rc__checkboxsettingwidget_8cpp.html" target="_top" xlink:title="src/visible/moc/moc\l_rc_checkboxsettingwidget.cpp">
<polygon fill="white" stroke="black" points="-0.484863,-1 -0.484863,-33 154.485,-33 154.485,-1 -0.484863,-1"/>
<text text-anchor="start" x="7.51514" y="-19" font-family="Helvetica,sans-Serif" font-size="10.00">src/visible/moc/moc</text>
<text text-anchor="middle" x="77" y="-7" font-family="Helvetica,sans-Serif" font-size="10.00">_rc_checkboxsettingwidget.cpp</text>
</a>
</g>
</g>
<!-- Node1&#45;&gt;Node2 -->
<g id="edge1" class="edge"><title>Node1&#45;&gt;Node2</title>
<path fill="none" stroke="midnightblue" d="M237.176,-67.9042C205.159,-57.929 159.583,-43.7294 125.228,-33.0258"/>
<polygon fill="midnightblue" stroke="midnightblue" points="236.475,-71.3516 247.064,-70.9847 238.557,-64.6685 236.475,-71.3516"/>
</g>
<!-- Node3 -->
<g id="node3" class="node"><title>Node3</title>
<g id="a_node3"><a xlink:href="rc__checkboxsettingwidget_8cpp.html" target="_top" xlink:title="src/visible/qt/rc_checkboxsettingwidget.cpp">
<polygon fill="white" stroke="black" points="172.399,-7 172.399,-27 379.601,-27 379.601,-7 172.399,-7"/>
<text text-anchor="middle" x="276" y="-13" font-family="Helvetica,sans-Serif" font-size="10.00">src/visible/qt/rc_checkboxsettingwidget.cpp</text>
</a>
</g>
</g>
<!-- Node1&#45;&gt;Node3 -->
<g id="edge2" class="edge"><title>Node1&#45;&gt;Node3</title>
<path fill="none" stroke="midnightblue" d="M276,-60.7346C276,-49.5568 276,-35.991 276,-27.1858"/>
<polygon fill="midnightblue" stroke="midnightblue" points="272.5,-60.8517 276,-70.8517 279.5,-60.8517 272.5,-60.8517"/>
</g>
<!-- Node4 -->
<g id="node4" class="node"><title>Node4</title>
<g id="a_node4"><a xlink:href="rc__settingpage_8cpp.html" target="_top" xlink:title="src/visible/qt/rc_settingpage.cpp">
<polygon fill="white" stroke="black" points="397.853,-7 397.853,-27 556.147,-27 556.147,-7 397.853,-7"/>
<text text-anchor="middle" x="477" y="-13" font-family="Helvetica,sans-Serif" font-size="10.00">src/visible/qt/rc_settingpage.cpp</text>
</a>
</g>
</g>
<!-- Node1&#45;&gt;Node4 -->
<g id="edge3" class="edge"><title>Node1&#45;&gt;Node4</title>
<path fill="none" stroke="midnightblue" d="M315.143,-67.9261C354.019,-55.9343 412.74,-37.8216 447.738,-27.0262"/>
<polygon fill="midnightblue" stroke="midnightblue" points="313.751,-64.6926 305.227,-70.9847 315.815,-71.3816 313.751,-64.6926"/>
</g>
</g>
</svg>
