<?xml version="1.0" encoding="UTF-8" standalone="no"?>
<!DOCTYPE svg PUBLIC "-//W3C//DTD SVG 1.1//EN"
 "http://www.w3.org/Graphics/SVG/1.1/DTD/svg11.dtd">
<!-- Generated by graphviz version 2.32.0 (20130916.1925)
 -->
<!-- Title: rfPixel8Map Pages: 1 -->
<!--zoomable 223 -->
<svg id="main" version="1.1" xmlns="http://www.w3.org/2000/svg" xmlns:xlink="http://www.w3.org/1999/xlink" xml:space="preserve" onload="init(evt)">
        <defs>
                <circle id="rim" cx="0" cy="0" r="7"/>
                <circle id="rim2" cx="0" cy="0" r="3.5"/>
                <g id="zoomPlus">
                        <use xlink:href="#rim" fill="#404040">
                                <set attributeName="fill" to="#808080" begin="zoomplus.mouseover" end="zoomplus.mouseout"/>
                        </use>
                        <path d="M-4,0h8M0,-4v8" fill="none" stroke="white" stroke-width="1.5" pointer-events="none"/>
                </g>
                <g id="zoomMin">
                        <use xlink:href="#rim" fill="#404040">
                                <set attributeName="fill" to="#808080" begin="zoomminus.mouseover" end="zoomminus.mouseout"/>
                        </use>
                        <path d="M-4,0h8" fill="none" stroke="white" stroke-width="1.5" pointer-events="none"/>
                </g>
                <g id="dirArrow">
                        <path fill="none" stroke="white" stroke-width="1.5" d="M0,-3.0v7 M-2.5,-0.5L0,-3.0L2.5,-0.5"/>
                </g>
               <g id="resetDef">
                       <use xlink:href="#rim2" fill="#404040">
                               <set attributeName="fill" to="#808080" begin="reset.mouseover" end="reset.mouseout"/>
                       </use>
               </g>
        </defs>

<script type="text/javascript">
var viewWidth = 662;
var viewHeight = 223;
var sectionId = 'dynsection-15';
</script>
<script xlink:href="svgpan.js"/>
<svg id="graph" class="graph">
<g id="viewport">
<title>rfPixel8Map</title>
<polygon fill="white" stroke="white" points="-4,5 -4,-219 659,-219 659,5 -4,5"/>
<!-- Node1 -->
<g id="node1" class="node"><title>Node1</title>
<polygon fill="#bfbfbf" stroke="black" points="0.601074,-117 0.601074,-137 69.3989,-137 69.3989,-117 0.601074,-117"/>
<text text-anchor="middle" x="35" y="-123" font-family="Helvetica,sans-Serif" font-size="10.00">rfPixel8Map</text>
</g>
<!-- Node2 -->
<g id="node2" class="node"><title>Node2</title>
<g id="a_node2"><a xlink:href="classrc_basic_pixel_map.html#a09773179d5a1793e7eafd8e959197d14" target="_top" xlink:title="rcBasicPixelMap::areaFunc">
<polygon fill="white" stroke="black" points="106.143,-195 106.143,-215 243.857,-215 243.857,-195 106.143,-195"/>
<text text-anchor="middle" x="175" y="-201" font-family="Helvetica,sans-Serif" font-size="10.00">rcBasicPixelMap::areaFunc</text>
</a>
</g>
</g>
<!-- Node1&#45;&gt;Node2 -->
<g id="edge1" class="edge"><title>Node1&#45;&gt;Node2</title>
<path fill="none" stroke="midnightblue" d="M45.483,-137.07C58.131,-149.942 81.7569,-172.101 106,-185 110.568,-187.43 115.469,-189.602 120.472,-191.534"/>
<polygon fill="midnightblue" stroke="midnightblue" points="119.561,-194.924 130.156,-194.96 121.896,-188.325 119.561,-194.924"/>
</g>
<!-- Node3 -->
<g id="node3" class="node"><title>Node3</title>
<g id="a_node3"><a xlink:href="classrc_window.html#a9ab724dc45a3c3c2beee6c8ed558de1e" target="_top" xlink:title="rcWindow::depth">
<polygon fill="white" stroke="black" points="129.761,-156 129.761,-176 220.239,-176 220.239,-156 129.761,-156"/>
<text text-anchor="middle" x="175" y="-162" font-family="Helvetica,sans-Serif" font-size="10.00">rcWindow::depth</text>
</a>
</g>
</g>
<!-- Node1&#45;&gt;Node3 -->
<g id="edge2" class="edge"><title>Node1&#45;&gt;Node3</title>
<path fill="none" stroke="midnightblue" d="M69.406,-136.441C87.2031,-141.47 109.351,-147.73 128.678,-153.192"/>
<polygon fill="midnightblue" stroke="midnightblue" points="127.915,-156.613 138.49,-155.964 129.818,-149.877 127.915,-156.613"/>
</g>
<!-- Node4 -->
<g id="node4" class="node"><title>Node4</title>
<g id="a_node4"><a xlink:href="classrc_window.html#a3286f93b0d223617111f3ac62b854b2f" target="_top" xlink:title="rcWindow::isBound">
<polygon fill="white" stroke="black" points="286.205,-117 286.205,-137 387.795,-137 387.795,-117 286.205,-117"/>
<text text-anchor="middle" x="337" y="-123" font-family="Helvetica,sans-Serif" font-size="10.00">rcWindow::isBound</text>
</a>
</g>
</g>
<!-- Node1&#45;&gt;Node4 -->
<g id="edge3" class="edge"><title>Node1&#45;&gt;Node4</title>
<path fill="none" stroke="midnightblue" d="M69.5406,-127C119.436,-127 213.974,-127 275.978,-127"/>
<polygon fill="midnightblue" stroke="midnightblue" points="276.017,-130.5 286.017,-127 276.017,-123.5 276.017,-130.5"/>
</g>
<!-- Node5 -->
<g id="node5" class="node"><title>Node5</title>
<g id="a_node5"><a xlink:href="rc__simd__mac_8cpp.html#aa7d4bbaccb0fd2492887d7b3d1ba5183" target="_top" xlink:title="rfHasSIMD">
<polygon fill="white" stroke="black" points="142.554,-78 142.554,-98 207.446,-98 207.446,-78 142.554,-78"/>
<text text-anchor="middle" x="175" y="-84" font-family="Helvetica,sans-Serif" font-size="10.00">rfHasSIMD</text>
</a>
</g>
</g>
<!-- Node1&#45;&gt;Node5 -->
<g id="edge4" class="edge"><title>Node1&#45;&gt;Node5</title>
<path fill="none" stroke="midnightblue" d="M69.406,-117.559C88.3765,-112.198 112.29,-105.44 132.462,-99.739"/>
<polygon fill="midnightblue" stroke="midnightblue" points="133.653,-103.04 142.324,-96.952 131.749,-96.3035 133.653,-103.04"/>
</g>
<!-- Node6 -->
<g id="node6" class="node"><title>Node6</title>
<g id="a_node6"><a xlink:href="classrc_window.html#a2a036edf5b144800400615066e744e39" target="_top" xlink:title="rcWindow::vImage">
<polygon fill="white" stroke="black" points="125.877,-39 125.877,-59 224.123,-59 224.123,-39 125.877,-39"/>
<text text-anchor="middle" x="175" y="-45" font-family="Helvetica,sans-Serif" font-size="10.00">rcWindow::vImage</text>
</a>
</g>
</g>
<!-- Node1&#45;&gt;Node6 -->
<g id="edge5" class="edge"><title>Node1&#45;&gt;Node6</title>
<path fill="none" stroke="midnightblue" d="M45.42,-116.697C57.9999,-103.538 81.5523,-80.9272 106,-68 109.779,-66.0017 113.791,-64.1953 117.901,-62.5655"/>
<polygon fill="midnightblue" stroke="midnightblue" points="119.382,-65.7525 127.608,-59.0761 117.014,-59.1651 119.382,-65.7525"/>
</g>
<!-- Node6&#45;&gt;Node4 -->
<g id="edge6" class="edge"><title>Node6&#45;&gt;Node4</title>
<path fill="none" stroke="midnightblue" d="M224.226,-58.859C231.128,-61.2866 237.935,-64.2905 244,-68 264.124,-80.308 260.323,-93.9899 280,-107 283.297,-109.18 286.859,-111.155 290.535,-112.938"/>
<polygon fill="midnightblue" stroke="midnightblue" points="289.252,-116.196 299.818,-116.98 292.047,-109.778 289.252,-116.196"/>
</g>
<!-- Node7 -->
<g id="node7" class="node"><title>Node7</title>
<g id="a_node7"><a xlink:href="classrc_window.html#a5cddcde6594113f6d8bb2dfb1f498c0a" target="_top" xlink:title="rcWindow::rowUpdate">
<polygon fill="white" stroke="black" points="280.094,-78 280.094,-98 393.906,-98 393.906,-78 280.094,-78"/>
<text text-anchor="middle" x="337" y="-84" font-family="Helvetica,sans-Serif" font-size="10.00">rcWindow::rowUpdate</text>
</a>
</g>
</g>
<!-- Node6&#45;&gt;Node7 -->
<g id="edge7" class="edge"><title>Node6&#45;&gt;Node7</title>
<path fill="none" stroke="midnightblue" d="M217.204,-59.0435C237.92,-64.093 263.215,-70.2587 285.132,-75.6009"/>
<polygon fill="midnightblue" stroke="midnightblue" points="284.391,-79.0228 294.936,-77.9906 286.049,-72.2219 284.391,-79.0228"/>
</g>
<!-- Node8 -->
<g id="node8" class="node"><title>Node8</title>
<g id="a_node8"><a xlink:href="classrc_window.html#a8bad48552f0db28803089113326911de" target="_top" xlink:title="rcWindow::pelPointer">
<polygon fill="white" stroke="black" points="281.759,-39 281.759,-59 392.241,-59 392.241,-39 281.759,-39"/>
<text text-anchor="middle" x="337" y="-45" font-family="Helvetica,sans-Serif" font-size="10.00">rcWindow::pelPointer</text>
</a>
</g>
</g>
<!-- Node6&#45;&gt;Node8 -->
<g id="edge8" class="edge"><title>Node6&#45;&gt;Node8</title>
<path fill="none" stroke="midnightblue" d="M224.439,-49C239.228,-49 255.729,-49 271.41,-49"/>
<polygon fill="midnightblue" stroke="midnightblue" points="271.57,-52.5001 281.57,-49 271.57,-45.5001 271.57,-52.5001"/>
</g>
<!-- Node15 -->
<g id="node15" class="node"><title>Node15</title>
<g id="a_node15"><a xlink:href="classrc_window.html#a0ae0c2adbe34085eb07c93edd60b342a" target="_top" xlink:title="rcWindow::width">
<polygon fill="white" stroke="black" points="292.601,-0 292.601,-20 381.399,-20 381.399,-0 292.601,-0"/>
<text text-anchor="middle" x="337" y="-6" font-family="Helvetica,sans-Serif" font-size="10.00">rcWindow::width</text>
</a>
</g>
</g>
<!-- Node6&#45;&gt;Node15 -->
<g id="edge15" class="edge"><title>Node6&#45;&gt;Node15</title>
<path fill="none" stroke="midnightblue" d="M217.204,-38.9565C237.92,-33.907 263.215,-27.7413 285.132,-22.3991"/>
<polygon fill="midnightblue" stroke="midnightblue" points="286.049,-25.7781 294.936,-20.0094 284.391,-18.9772 286.049,-25.7781"/>
</g>
<!-- Node9 -->
<g id="node9" class="node"><title>Node9</title>
<g id="a_node9"><a xlink:href="classrc_frame.html#a8005eafc78f0008a7df596d55c2b23b9" target="_top" xlink:title="rcFrame::pelPointer">
<polygon fill="white" stroke="black" points="430.096,-78 430.096,-98 533.904,-98 533.904,-78 430.096,-78"/>
<text text-anchor="middle" x="482" y="-84" font-family="Helvetica,sans-Serif" font-size="10.00">rcFrame::pelPointer</text>
</a>
</g>
</g>
<!-- Node8&#45;&gt;Node9 -->
<g id="edge9" class="edge"><title>Node8&#45;&gt;Node9</title>
<path fill="none" stroke="midnightblue" d="M374.826,-59.0435C393.007,-64.002 415.135,-70.0369 434.475,-75.3114"/>
<polygon fill="midnightblue" stroke="midnightblue" points="433.73,-78.736 444.299,-77.9906 435.572,-71.9826 433.73,-78.736"/>
</g>
<!-- Node11 -->
<g id="node11" class="node"><title>Node11</title>
<g id="a_node11"><a xlink:href="classrc_rect.html#ac0f95519a41dcf7e33bec85ccb8e7aff" target="_top" xlink:title="rcRect::x">
<polygon fill="white" stroke="black" points="454.276,-39 454.276,-59 509.724,-59 509.724,-39 454.276,-39"/>
<text text-anchor="middle" x="482" y="-45" font-family="Helvetica,sans-Serif" font-size="10.00">rcRect::x</text>
</a>
</g>
</g>
<!-- Node8&#45;&gt;Node11 -->
<g id="edge11" class="edge"><title>Node8&#45;&gt;Node11</title>
<path fill="none" stroke="midnightblue" d="M392.47,-49C409.657,-49 428.238,-49 443.918,-49"/>
<polygon fill="midnightblue" stroke="midnightblue" points="444.257,-52.5001 454.257,-49 444.257,-45.5001 444.257,-52.5001"/>
</g>
<!-- Node13 -->
<g id="node13" class="node"><title>Node13</title>
<g id="a_node13"><a xlink:href="classrc_rect.html#a50236160751c949d8718f8d4d17f7923" target="_top" xlink:title="rcRect::y">
<polygon fill="white" stroke="black" points="454.276,-0 454.276,-20 509.724,-20 509.724,-0 454.276,-0"/>
<text text-anchor="middle" x="482" y="-6" font-family="Helvetica,sans-Serif" font-size="10.00">rcRect::y</text>
</a>
</g>
</g>
<!-- Node8&#45;&gt;Node13 -->
<g id="edge13" class="edge"><title>Node8&#45;&gt;Node13</title>
<path fill="none" stroke="midnightblue" d="M374.826,-38.9565C396.258,-33.1115 423.174,-25.7707 444.543,-19.9429"/>
<polygon fill="midnightblue" stroke="midnightblue" points="445.507,-23.3078 454.234,-17.2999 443.665,-16.5544 445.507,-23.3078"/>
</g>
<!-- Node10 -->
<g id="node10" class="node"><title>Node10</title>
<g id="a_node10"><a xlink:href="classrc_frame.html#aaef8303c840834284eb9c60d33bf40c1" target="_top" xlink:title="rcFrame::depth">
<polygon fill="white" stroke="black" points="570.099,-78 570.099,-98 653.901,-98 653.901,-78 570.099,-78"/>
<text text-anchor="middle" x="612" y="-84" font-family="Helvetica,sans-Serif" font-size="10.00">rcFrame::depth</text>
</a>
</g>
</g>
<!-- Node9&#45;&gt;Node10 -->
<g id="edge10" class="edge"><title>Node9&#45;&gt;Node10</title>
<path fill="none" stroke="midnightblue" d="M533.957,-88C542.482,-88 551.329,-88 559.859,-88"/>
<polygon fill="midnightblue" stroke="midnightblue" points="560.063,-91.5001 570.063,-88 560.063,-84.5001 560.063,-91.5001"/>
</g>
<!-- Node12 -->
<g id="node12" class="node"><title>Node12</title>
<g id="a_node12"><a xlink:href="classrc_pair.html#ad1a3cb1e7fdbe119ce1295514b1bb49d" target="_top" xlink:title="rcPair::x">
<polygon fill="white" stroke="black" points="585.665,-39 585.665,-59 638.335,-59 638.335,-39 585.665,-39"/>
<text text-anchor="middle" x="612" y="-45" font-family="Helvetica,sans-Serif" font-size="10.00">rcPair::x</text>
</a>
</g>
</g>
<!-- Node11&#45;&gt;Node12 -->
<g id="edge12" class="edge"><title>Node11&#45;&gt;Node12</title>
<path fill="none" stroke="midnightblue" d="M509.833,-49C528.898,-49 554.696,-49 575.469,-49"/>
<polygon fill="midnightblue" stroke="midnightblue" points="575.51,-52.5001 585.51,-49 575.51,-45.5001 575.51,-52.5001"/>
</g>
<!-- Node14 -->
<g id="node14" class="node"><title>Node14</title>
<g id="a_node14"><a xlink:href="classrc_pair.html#a87400f83938e920c405c40aa449d3607" target="_top" xlink:title="rcPair::y">
<polygon fill="white" stroke="black" points="585.665,-0 585.665,-20 638.335,-20 638.335,-0 585.665,-0"/>
<text text-anchor="middle" x="612" y="-6" font-family="Helvetica,sans-Serif" font-size="10.00">rcPair::y</text>
</a>
</g>
</g>
<!-- Node13&#45;&gt;Node14 -->
<g id="edge14" class="edge"><title>Node13&#45;&gt;Node14</title>
<path fill="none" stroke="midnightblue" d="M509.833,-10C528.898,-10 554.696,-10 575.469,-10"/>
<polygon fill="midnightblue" stroke="midnightblue" points="575.51,-13.5001 585.51,-10 575.51,-6.5001 575.51,-13.5001"/>
</g>
</g>
</svg>
        <g id="navigator" transform="translate(0 0)" fill="#404254">
                <rect fill="#f2f5e9" fill-opacity="0.5" stroke="#606060" stroke-width=".5" x="0" y="0" width="60" height="60"/>
                <use id="zoomplus" xlink:href="#zoomPlus" x="17" y="9" onmousedown="handleZoom(evt,'in')"/>
                <use id="zoomminus" xlink:href="#zoomMin" x="42" y="9" onmousedown="handleZoom(evt,'out')"/>
                <use id="reset" xlink:href="#resetDef" x="30" y="36" onmousedown="handleReset()"/>
                <g id="arrowUp" xlink:href="#dirArrow" transform="translate(30 24)" onmousedown="handlePan(0,-1)">
                  <use xlink:href="#rim" fill="#404040">
                        <set attributeName="fill" to="#808080" begin="arrowUp.mouseover" end="arrowUp.mouseout"/>
                  </use>
                  <path fill="none" stroke="white" stroke-width="1.5" d="M0,-3.0v7 M-2.5,-0.5L0,-3.0L2.5,-0.5"/>
                </g>
                <g id="arrowRight" xlink:href="#dirArrow" transform="rotate(90) translate(36 -43)" onmousedown="handlePan(1,0)">
                  <use xlink:href="#rim" fill="#404040">
                        <set attributeName="fill" to="#808080" begin="arrowRight.mouseover" end="arrowRight.mouseout"/>
                  </use>
                  <path fill="none" stroke="white" stroke-width="1.5" d="M0,-3.0v7 M-2.5,-0.5L0,-3.0L2.5,-0.5"/>
                </g>
                <g id="arrowDown" xlink:href="#dirArrow" transform="rotate(180) translate(-30 -48)" onmousedown="handlePan(0,1)">
                  <use xlink:href="#rim" fill="#404040">
                        <set attributeName="fill" to="#808080" begin="arrowDown.mouseover" end="arrowDown.mouseout"/>
                  </use>
                  <path fill="none" stroke="white" stroke-width="1.5" d="M0,-3.0v7 M-2.5,-0.5L0,-3.0L2.5,-0.5"/>
                </g>
                <g id="arrowLeft" xlink:href="#dirArrow" transform="rotate(270) translate(-36 17)" onmousedown="handlePan(-1,0)">
                  <use xlink:href="#rim" fill="#404040">
                        <set attributeName="fill" to="#808080" begin="arrowLeft.mouseover" end="arrowLeft.mouseout"/>
                  </use>
                  <path fill="none" stroke="white" stroke-width="1.5" d="M0,-3.0v7 M-2.5,-0.5L0,-3.0L2.5,-0.5"/>
                </g>
        </g>
        <svg viewBox="0 0 15 15" width="100%" height="30px" preserveAspectRatio="xMaxYMin meet">
         <g id="arrow_out" transform="scale(0.3 0.3)">
          <a xlink:href="rc__ip_8h_a84122b53b67ee80855b0e78a103ead30_cgraph_org.svg" target="_base">
           <rect id="button" ry="5" rx="5" y="6" x="6" height="38" width="38"
                fill="#f2f5e9" fill-opacity="0.5" stroke="#606060" stroke-width="1.0"/>
           <path id="arrow"
             d="M 11.500037,31.436501 C 11.940474,20.09759 22.043105,11.32322 32.158766,21.979434 L 37.068811,17.246167 C 37.068811,17.246167 37.088388,32 37.088388,32 L 22.160133,31.978069 C 22.160133,31.978069 26.997745,27.140456 26.997745,27.140456 C 18.528582,18.264221 13.291696,25.230495 11.500037,31.436501 z"
             style="fill:#404040;"/>
          </a>
         </g>
        </svg>
</svg>
