<?xml version="1.0" encoding="UTF-8" standalone="no"?>
<!DOCTYPE svg PUBLIC "-//W3C//DTD SVG 1.1//EN"
 "http://www.w3.org/Graphics/SVG/1.1/DTD/svg11.dtd">
<!-- Generated by graphviz version 2.32.0 (20130916.1925)
 -->
<!-- Title: bndry_fract Pages: 1 -->
<svg width="832pt" height="121pt"
 viewBox="0.00 0.00 832.00 121.00" xmlns="http://www.w3.org/2000/svg" xmlns:xlink="http://www.w3.org/1999/xlink">
<g id="graph0" class="graph" transform="scale(1 1) rotate(0) translate(4 117)">
<title>bndry_fract</title>
<polygon fill="white" stroke="white" points="-4,5 -4,-117 829,-117 829,5 -4,5"/>
<!-- Node1 -->
<g id="node1" class="node"><title>Node1</title>
<polygon fill="#bfbfbf" stroke="black" points="-0.012207,-39 -0.012207,-59 66.0122,-59 66.0122,-39 -0.012207,-39"/>
<text text-anchor="middle" x="33" y="-45" font-family="Helvetica,sans-Serif" font-size="10.00">bndry_fract</text>
</g>
<!-- Node2 -->
<g id="node2" class="node"><title>Node2</title>
<g id="a_node2"><a xlink:href="rc__fill_8h.html#a00254f8042116d7ae9165b9ec7784ea2" target="_top" xlink:title="rc_fill_poly">
<polygon fill="white" stroke="black" points="102.379,-39 102.379,-59 165.621,-59 165.621,-39 102.379,-39"/>
<text text-anchor="middle" x="134" y="-45" font-family="Helvetica,sans-Serif" font-size="10.00">rc_fill_poly</text>
</a>
</g>
</g>
<!-- Node1&#45;&gt;Node2 -->
<g id="edge1" class="edge"><title>Node1&#45;&gt;Node2</title>
<path fill="none" stroke="midnightblue" d="M76.2351,-49C85.0125,-49 94.1014,-49 102.365,-49"/>
<polygon fill="midnightblue" stroke="midnightblue" points="76.1425,-45.5001 66.1425,-49 76.1424,-52.5001 76.1425,-45.5001"/>
</g>
<!-- Node3 -->
<g id="node3" class="node"><title>Node3</title>
<g id="a_node3"><a xlink:href="rc__draw_8h.html#a72125d1915a0c243a770c6635ecbf584" target="_top" xlink:title="rcFillPolygon">
<polygon fill="white" stroke="black" points="202.379,-39 202.379,-59 275.621,-59 275.621,-39 202.379,-39"/>
<text text-anchor="middle" x="239" y="-45" font-family="Helvetica,sans-Serif" font-size="10.00">rcFillPolygon</text>
</a>
</g>
</g>
<!-- Node2&#45;&gt;Node3 -->
<g id="edge2" class="edge"><title>Node2&#45;&gt;Node3</title>
<path fill="none" stroke="midnightblue" d="M175.663,-49C184.442,-49 193.661,-49 202.236,-49"/>
<polygon fill="midnightblue" stroke="midnightblue" points="175.625,-45.5001 165.625,-49 175.624,-52.5001 175.625,-45.5001"/>
</g>
<!-- Node4 -->
<g id="node4" class="node"><title>Node4</title>
<g id="a_node4"><a xlink:href="classrc_muscle_segmenter.html#a61c65559f55fd9fa632b96e09ef50b2e" target="_top" xlink:title="rcMuscleSegmenter::\lgenFrequencySegmentation">
<polygon fill="white" stroke="black" points="312.18,-79 312.18,-111 453.82,-111 453.82,-79 312.18,-79"/>
<text text-anchor="start" x="320.18" y="-97" font-family="Helvetica,sans-Serif" font-size="10.00">rcMuscleSegmenter::</text>
<text text-anchor="middle" x="383" y="-85" font-family="Helvetica,sans-Serif" font-size="10.00">genFrequencySegmentation</text>
</a>
</g>
</g>
<!-- Node3&#45;&gt;Node4 -->
<g id="edge3" class="edge"><title>Node3&#45;&gt;Node4</title>
<path fill="none" stroke="midnightblue" d="M280.831,-62.2268C296.949,-67.4483 315.616,-73.4954 332.494,-78.9629"/>
<polygon fill="midnightblue" stroke="midnightblue" points="281.754,-58.8471 271.163,-59.0949 279.597,-65.5064 281.754,-58.8471"/>
</g>
<!-- Node7 -->
<g id="node7" class="node"><title>Node7</title>
<g id="a_node7"><a xlink:href="classrc_kinetoscope.html#a18739703ba714a3c04de5a56846bbd9d" target="_top" xlink:title="rcKinetoscope::preSegmented\lBodies">
<polygon fill="white" stroke="black" points="490.737,-30 490.737,-62 641.263,-62 641.263,-30 490.737,-30"/>
<text text-anchor="start" x="498.737" y="-48" font-family="Helvetica,sans-Serif" font-size="10.00">rcKinetoscope::preSegmented</text>
<text text-anchor="middle" x="566" y="-36" font-family="Helvetica,sans-Serif" font-size="10.00">Bodies</text>
</a>
</g>
</g>
<!-- Node3&#45;&gt;Node7 -->
<g id="edge6" class="edge"><title>Node3&#45;&gt;Node7</title>
<path fill="none" stroke="midnightblue" d="M285.863,-48.5767C339.066,-48.0855 427.533,-47.2689 490.61,-46.6867"/>
<polygon fill="midnightblue" stroke="midnightblue" points="285.678,-45.0781 275.71,-48.6704 285.742,-52.0778 285.678,-45.0781"/>
</g>
<!-- Node8 -->
<g id="node8" class="node"><title>Node8</title>
<g id="a_node8"><a xlink:href="classrc_shape.html#a121cd77a46ce4a89b92e6a2b5e1cfc00" target="_top" xlink:title="rcShape::setMask">
<polygon fill="white" stroke="black" points="334.983,-0 334.983,-20 431.017,-20 431.017,-0 334.983,-0"/>
<text text-anchor="middle" x="383" y="-6" font-family="Helvetica,sans-Serif" font-size="10.00">rcShape::setMask</text>
</a>
</g>
</g>
<!-- Node3&#45;&gt;Node8 -->
<g id="edge8" class="edge"><title>Node3&#45;&gt;Node8</title>
<path fill="none" stroke="midnightblue" d="M285.606,-36.4744C304.865,-31.1851 326.994,-25.1072 345.189,-20.1101"/>
<polygon fill="midnightblue" stroke="midnightblue" points="284.549,-33.1351 275.833,-39.1587 286.402,-39.8852 284.549,-33.1351"/>
</g>
<!-- Node5 -->
<g id="node5" class="node"><title>Node5</title>
<g id="a_node5"><a xlink:href="classrc_muscle_segmenter.html#a660d7b3d1c240efa0b725e0db65154e3" target="_top" xlink:title="rcMuscleSegmenter::\lfilterByActivity">
<polygon fill="white" stroke="black" points="510.761,-81 510.761,-113 621.239,-113 621.239,-81 510.761,-81"/>
<text text-anchor="start" x="518.761" y="-99" font-family="Helvetica,sans-Serif" font-size="10.00">rcMuscleSegmenter::</text>
<text text-anchor="middle" x="566" y="-87" font-family="Helvetica,sans-Serif" font-size="10.00">filterByActivity</text>
</a>
</g>
</g>
<!-- Node4&#45;&gt;Node5 -->
<g id="edge4" class="edge"><title>Node4&#45;&gt;Node5</title>
<path fill="none" stroke="midnightblue" d="M464.215,-95.8864C479.914,-96.0598 496.031,-96.2379 510.643,-96.3994"/>
<polygon fill="midnightblue" stroke="midnightblue" points="464.017,-92.3841 453.979,-95.7733 463.94,-99.3836 464.017,-92.3841"/>
</g>
<!-- Node6 -->
<g id="node6" class="node"><title>Node6</title>
<g id="a_node6"><a xlink:href="classrc_engine_impl.html#a00ca0d227e480ddb5bd6be293b55d2c9" target="_top" xlink:title="rcEngineImpl::muscleTracker">
<polygon fill="white" stroke="black" points="678.442,-61 678.442,-81 823.558,-81 823.558,-61 678.442,-61"/>
<text text-anchor="middle" x="751" y="-67" font-family="Helvetica,sans-Serif" font-size="10.00">rcEngineImpl::muscleTracker</text>
</a>
</g>
</g>
<!-- Node5&#45;&gt;Node6 -->
<g id="edge5" class="edge"><title>Node5&#45;&gt;Node6</title>
<path fill="none" stroke="midnightblue" d="M631.444,-87.8441C646.995,-85.6346 663.692,-83.2624 679.504,-81.0158"/>
<polygon fill="midnightblue" stroke="midnightblue" points="630.819,-84.3976 621.411,-89.2695 631.803,-91.328 630.819,-84.3976"/>
</g>
<!-- Node7&#45;&gt;Node6 -->
<g id="edge7" class="edge"><title>Node7&#45;&gt;Node6</title>
<path fill="none" stroke="midnightblue" d="M651.493,-57.5427C660.453,-58.7668 669.503,-60.0032 678.297,-61.2045"/>
<polygon fill="midnightblue" stroke="midnightblue" points="651.815,-54.0543 641.433,-56.1685 650.867,-60.9899 651.815,-54.0543"/>
</g>
</g>
</svg>
