<?xml version="1.0" encoding="UTF-8" standalone="no"?>
<!DOCTYPE svg PUBLIC "-//W3C//DTD SVG 1.1//EN"
 "http://www.w3.org/Graphics/SVG/1.1/DTD/svg11.dtd">
<!-- Generated by graphviz version 2.32.0 (20130916.1925)
 -->
<!-- Title: include/util/rc_stlplus.h Pages: 1 -->
<!--zoomable 204 -->
<svg id="main" version="1.1" xmlns="http://www.w3.org/2000/svg" xmlns:xlink="http://www.w3.org/1999/xlink" xml:space="preserve" onload="init(evt)">
        <defs>
                <circle id="rim" cx="0" cy="0" r="7"/>
                <circle id="rim2" cx="0" cy="0" r="3.5"/>
                <g id="zoomPlus">
                        <use xlink:href="#rim" fill="#404040">
                                <set attributeName="fill" to="#808080" begin="zoomplus.mouseover" end="zoomplus.mouseout"/>
                        </use>
                        <path d="M-4,0h8M0,-4v8" fill="none" stroke="white" stroke-width="1.5" pointer-events="none"/>
                </g>
                <g id="zoomMin">
                        <use xlink:href="#rim" fill="#404040">
                                <set attributeName="fill" to="#808080" begin="zoomminus.mouseover" end="zoomminus.mouseout"/>
                        </use>
                        <path d="M-4,0h8" fill="none" stroke="white" stroke-width="1.5" pointer-events="none"/>
                </g>
                <g id="dirArrow">
                        <path fill="none" stroke="white" stroke-width="1.5" d="M0,-3.0v7 M-2.5,-0.5L0,-3.0L2.5,-0.5"/>
                </g>
               <g id="resetDef">
                       <use xlink:href="#rim2" fill="#404040">
                               <set attributeName="fill" to="#808080" begin="reset.mouseover" end="reset.mouseout"/>
                       </use>
               </g>
        </defs>

<script type="text/javascript">
var viewWidth = 641;
var viewHeight = 204;
var sectionId = 'dynsection-0';
</script>
<script xlink:href="svgpan.js"/>
<svg id="graph" class="graph">
<g id="viewport">
<title>include/util/rc_stlplus.h</title>
<polygon fill="white" stroke="white" points="-4,5 -4,-200 638,-200 638,5 -4,5"/>
<!-- Node1 -->
<g id="node1" class="node"><title>Node1</title>
<polygon fill="#bfbfbf" stroke="black" points="292.697,-175 292.697,-195 409.303,-195 409.303,-175 292.697,-175"/>
<text text-anchor="middle" x="351" y="-181" font-family="Helvetica,sans-Serif" font-size="10.00">include/util/rc_stlplus.h</text>
</g>
<!-- Node2 -->
<g id="node2" class="node"><title>Node2</title>
<polygon fill="white" stroke="#bfbfbf" points="45.4902,-117 45.4902,-137 96.5098,-137 96.5098,-117 45.4902,-117"/>
<text text-anchor="middle" x="71" y="-123" font-family="Helvetica,sans-Serif" font-size="10.00">iomanip</text>
</g>
<!-- Node1&#45;&gt;Node2 -->
<g id="edge1" class="edge"><title>Node1&#45;&gt;Node2</title>
<path fill="none" stroke="midnightblue" d="M294.738,-174.962C247.118,-166.967 176.888,-154.367 106.477,-137.937"/>
<polygon fill="midnightblue" stroke="midnightblue" points="107.079,-134.483 96.5424,-135.594 105.472,-141.296 107.079,-134.483"/>
</g>
<!-- Node3 -->
<g id="node3" class="node"><title>Node3</title>
<polygon fill="white" stroke="#bfbfbf" points="219.384,-59 219.384,-79 262.616,-79 262.616,-59 219.384,-59"/>
<text text-anchor="middle" x="241" y="-65" font-family="Helvetica,sans-Serif" font-size="10.00">vector</text>
</g>
<!-- Node1&#45;&gt;Node3 -->
<g id="edge2" class="edge"><title>Node1&#45;&gt;Node3</title>
<path fill="none" stroke="midnightblue" d="M292.611,-177.757C267.16,-171.803 239.62,-160.271 224,-138 213.568,-123.126 221.085,-102.473 229.165,-87.8406"/>
<polygon fill="midnightblue" stroke="midnightblue" points="232.2,-89.5854 234.372,-79.2156 226.207,-85.9674 232.2,-89.5854"/>
</g>
<!-- Node4 -->
<g id="node4" class="node"><title>Node4</title>
<polygon fill="white" stroke="#bfbfbf" points="336.5,-117 336.5,-137 365.5,-137 365.5,-117 336.5,-117"/>
<text text-anchor="middle" x="350.611" y="-123" font-family="Helvetica,sans-Serif" font-size="10.00">list</text>
</g>
<!-- Node1&#45;&gt;Node4 -->
<g id="edge3" class="edge"><title>Node1&#45;&gt;Node4</title>
<path fill="none" stroke="midnightblue" d="M351,-174.753C351,-167.25 351,-156.424 351,-147.078"/>
<polygon fill="midnightblue" stroke="midnightblue" points="354.5,-147.075 351,-137.075 347.5,-147.075 354.5,-147.075"/>
</g>
<!-- Node5 -->
<g id="node5" class="node"><title>Node5</title>
<polygon fill="white" stroke="#bfbfbf" points="383.096,-117 383.096,-137 426.904,-137 426.904,-117 383.096,-117"/>
<text text-anchor="middle" x="405" y="-123" font-family="Helvetica,sans-Serif" font-size="10.00">deque</text>
</g>
<!-- Node1&#45;&gt;Node5 -->
<g id="edge4" class="edge"><title>Node1&#45;&gt;Node5</title>
<path fill="none" stroke="midnightblue" d="M359.917,-174.753C367.859,-166.516 379.665,-154.274 389.203,-144.382"/>
<polygon fill="midnightblue" stroke="midnightblue" points="391.827,-146.703 396.249,-137.075 386.788,-141.844 391.827,-146.703"/>
</g>
<!-- Node6 -->
<g id="node6" class="node"><title>Node6</title>
<polygon fill="white" stroke="#bfbfbf" points="444.828,-117 444.828,-137 499.172,-137 499.172,-117 444.828,-117"/>
<text text-anchor="middle" x="472" y="-123" font-family="Helvetica,sans-Serif" font-size="10.00">iostream</text>
</g>
<!-- Node1&#45;&gt;Node6 -->
<g id="edge5" class="edge"><title>Node1&#45;&gt;Node6</title>
<path fill="none" stroke="midnightblue" d="M370.71,-174.878C390.31,-165.807 420.602,-151.788 442.956,-141.442"/>
<polygon fill="midnightblue" stroke="midnightblue" points="444.693,-144.495 452.298,-137.118 441.753,-138.142 444.693,-144.495"/>
</g>
<!-- Node7 -->
<g id="node7" class="node"><title>Node7</title>
<polygon fill="white" stroke="#bfbfbf" points="517.438,-117 517.438,-137 564.562,-137 564.562,-117 517.438,-117"/>
<text text-anchor="middle" x="541" y="-123" font-family="Helvetica,sans-Serif" font-size="10.00">iterator</text>
</g>
<!-- Node1&#45;&gt;Node7 -->
<g id="edge6" class="edge"><title>Node1&#45;&gt;Node7</title>
<path fill="none" stroke="midnightblue" d="M382.302,-174.921C412.026,-166.279 458.216,-152.798 507.352,-138.175"/>
<polygon fill="midnightblue" stroke="midnightblue" points="508.631,-141.446 517.215,-135.236 506.632,-134.738 508.631,-141.446"/>
</g>
<!-- Node8 -->
<g id="node8" class="node"><title>Node8</title>
<g id="a_node8"><a xlink:href="rc__types_8h.html" target="_top" xlink:title="rc_types.h">
<polygon fill="white" stroke="black" points="114.934,-117 114.934,-137 177.066,-137 177.066,-117 114.934,-117"/>
<text text-anchor="middle" x="146" y="-123" font-family="Helvetica,sans-Serif" font-size="10.00">rc_types.h</text>
</a>
</g>
</g>
<!-- Node1&#45;&gt;Node8 -->
<g id="edge7" class="edge"><title>Node1&#45;&gt;Node8</title>
<path fill="none" stroke="midnightblue" d="M317.607,-174.878C281.988,-165.148 225.529,-149.725 187.179,-139.249"/>
<polygon fill="midnightblue" stroke="midnightblue" points="187.929,-135.826 177.36,-136.567 186.084,-142.578 187.929,-135.826"/>
</g>
<!-- Node13 -->
<g id="node13" class="node"><title>Node13</title>
<polygon fill="white" stroke="#bfbfbf" points="582.219,-117 582.219,-137 633.781,-137 633.781,-117 582.219,-117"/>
<text text-anchor="middle" x="608" y="-123" font-family="Helvetica,sans-Serif" font-size="10.00">sstream</text>
</g>
<!-- Node1&#45;&gt;Node13 -->
<g id="edge12" class="edge"><title>Node1&#45;&gt;Node13</title>
<path fill="none" stroke="midnightblue" d="M399.736,-174.977C442.668,-166.788 507.088,-153.914 572.057,-138.1"/>
<polygon fill="midnightblue" stroke="midnightblue" points="573.187,-141.426 582.063,-135.642 571.517,-134.628 573.187,-141.426"/>
</g>
<!-- Node14 -->
<g id="node14" class="node"><title>Node14</title>
<g id="a_node14"><a xlink:href="file__system_8hpp.html" target="_top" xlink:title="file_system.hpp">
<polygon fill="white" stroke="black" points="233.261,-117 233.261,-137 318.739,-137 318.739,-117 233.261,-117"/>
<text text-anchor="middle" x="276" y="-123" font-family="Helvetica,sans-Serif" font-size="10.00">file_system.hpp</text>
</a>
</g>
</g>
<!-- Node1&#45;&gt;Node14 -->
<g id="edge13" class="edge"><title>Node1&#45;&gt;Node14</title>
<path fill="none" stroke="midnightblue" d="M338.615,-174.753C327.148,-166.19 309.881,-153.298 296.382,-143.219"/>
<polygon fill="midnightblue" stroke="midnightblue" points="298.261,-140.254 288.154,-137.075 294.073,-145.863 298.261,-140.254"/>
</g>
<!-- Node9 -->
<g id="node9" class="node"><title>Node9</title>
<polygon fill="white" stroke="#bfbfbf" points="160.773,-59 160.773,-79 201.227,-79 201.227,-59 160.773,-59"/>
<text text-anchor="middle" x="181" y="-65" font-family="Helvetica,sans-Serif" font-size="10.00">string</text>
</g>
<!-- Node8&#45;&gt;Node9 -->
<g id="edge8" class="edge"><title>Node8&#45;&gt;Node9</title>
<path fill="none" stroke="midnightblue" d="M151.78,-116.753C156.723,-108.843 163.977,-97.2372 170.02,-87.5683"/>
<polygon fill="midnightblue" stroke="midnightblue" points="172.996,-89.4102 175.328,-79.0752 167.06,-85.7002 172.996,-89.4102"/>
</g>
<!-- Node10 -->
<g id="node10" class="node"><title>Node10</title>
<polygon fill="white" stroke="#bfbfbf" points="-0.785645,-59 -0.785645,-79 50.7856,-79 50.7856,-59 -0.785645,-59"/>
<text text-anchor="middle" x="25" y="-65" font-family="Helvetica,sans-Serif" font-size="10.00">assert.h</text>
</g>
<!-- Node8&#45;&gt;Node10 -->
<g id="edge9" class="edge"><title>Node8&#45;&gt;Node10</title>
<path fill="none" stroke="midnightblue" d="M126.29,-116.878C106.69,-107.807 76.3981,-93.7876 54.0439,-83.4418"/>
<polygon fill="midnightblue" stroke="midnightblue" points="55.2469,-80.1419 44.7016,-79.1181 52.3068,-86.4946 55.2469,-80.1419"/>
</g>
<!-- Node11 -->
<g id="node11" class="node"><title>Node11</title>
<g id="a_node11"><a xlink:href="rc__platform_8h.html" target="_top" xlink:title="rc_platform.h">
<polygon fill="white" stroke="black" points="68.8228,-59 68.8228,-79 143.177,-79 143.177,-59 68.8228,-59"/>
<text text-anchor="middle" x="106" y="-65" font-family="Helvetica,sans-Serif" font-size="10.00">rc_platform.h</text>
</a>
</g>
</g>
<!-- Node8&#45;&gt;Node11 -->
<g id="edge10" class="edge"><title>Node8&#45;&gt;Node11</title>
<path fill="none" stroke="midnightblue" d="M139.395,-116.753C133.687,-108.761 125.284,-96.9975 118.336,-87.2698"/>
<polygon fill="midnightblue" stroke="midnightblue" points="121.143,-85.1782 112.482,-79.0752 115.447,-89.2469 121.143,-85.1782"/>
</g>
<!-- Node12 -->
<g id="node12" class="node"><title>Node12</title>
<polygon fill="white" stroke="#bfbfbf" points="33.7959,-1 33.7959,-21 178.204,-21 178.204,-1 33.7959,-1"/>
<text text-anchor="middle" x="106" y="-7" font-family="Helvetica,sans-Serif" font-size="10.00">architecture/i386/alignment.h</text>
</g>
<!-- Node11&#45;&gt;Node12 -->
<g id="edge11" class="edge"><title>Node11&#45;&gt;Node12</title>
<path fill="none" stroke="midnightblue" d="M106,-58.7527C106,-51.2504 106,-40.4238 106,-31.0781"/>
<polygon fill="midnightblue" stroke="midnightblue" points="109.5,-31.0752 106,-21.0752 102.5,-31.0752 109.5,-31.0752"/>
</g>
<!-- Node14&#45;&gt;Node3 -->
<g id="edge17" class="edge"><title>Node14&#45;&gt;Node3</title>
<path fill="none" stroke="midnightblue" d="M270.22,-116.753C265.277,-108.843 258.023,-97.2372 251.98,-87.5683"/>
<polygon fill="midnightblue" stroke="midnightblue" points="254.94,-85.7002 246.672,-79.0752 249.004,-89.4102 254.94,-85.7002"/>
</g>
<!-- Node14&#45;&gt;Node9 -->
<g id="edge16" class="edge"><title>Node14&#45;&gt;Node9</title>
<path fill="none" stroke="midnightblue" d="M260.313,-116.753C245.372,-107.946 222.66,-94.5575 205.364,-84.3617"/>
<polygon fill="midnightblue" stroke="midnightblue" points="206.787,-81.1382 196.395,-79.0752 203.233,-87.1685 206.787,-81.1382"/>
</g>
<!-- Node15 -->
<g id="node15" class="node"><title>Node15</title>
<g id="a_node15"><a xlink:href="os__fixes_8hpp.html" target="_top" xlink:title="os_fixes.hpp">
<polygon fill="white" stroke="black" points="280.926,-59 280.926,-79 353.074,-79 353.074,-59 280.926,-59"/>
<text text-anchor="middle" x="317" y="-65" font-family="Helvetica,sans-Serif" font-size="10.00">os_fixes.hpp</text>
</a>
</g>
</g>
<!-- Node14&#45;&gt;Node15 -->
<g id="edge14" class="edge"><title>Node14&#45;&gt;Node15</title>
<path fill="none" stroke="midnightblue" d="M282.77,-116.753C288.621,-108.761 297.234,-96.9975 304.356,-87.2698"/>
<polygon fill="midnightblue" stroke="midnightblue" points="307.272,-89.2114 310.356,-79.0752 301.624,-85.0762 307.272,-89.2114"/>
</g>
<!-- Node17 -->
<g id="node17" class="node"><title>Node17</title>
<polygon fill="white" stroke="#bfbfbf" points="371.384,-59 371.384,-79 414.616,-79 414.616,-59 371.384,-59"/>
<text text-anchor="middle" x="393" y="-65" font-family="Helvetica,sans-Serif" font-size="10.00">time.h</text>
</g>
<!-- Node14&#45;&gt;Node17 -->
<g id="edge18" class="edge"><title>Node14&#45;&gt;Node17</title>
<path fill="none" stroke="midnightblue" d="M295.058,-116.878C314.011,-107.807 343.301,-93.7876 364.916,-83.4418"/>
<polygon fill="midnightblue" stroke="midnightblue" points="366.441,-86.5925 373.95,-79.1181 363.419,-80.2784 366.441,-86.5925"/>
</g>
<!-- Node16 -->
<g id="node16" class="node"><title>Node16</title>
<polygon fill="white" stroke="#bfbfbf" points="291.488,-1 291.488,-21 342.512,-21 342.512,-1 291.488,-1"/>
<text text-anchor="middle" x="317" y="-7" font-family="Helvetica,sans-Serif" font-size="10.00">unistd.h</text>
</g>
<!-- Node15&#45;&gt;Node16 -->
<g id="edge15" class="edge"><title>Node15&#45;&gt;Node16</title>
<path fill="none" stroke="midnightblue" d="M317,-58.7527C317,-51.2504 317,-40.4238 317,-31.0781"/>
<polygon fill="midnightblue" stroke="midnightblue" points="320.5,-31.0752 317,-21.0752 313.5,-31.0752 320.5,-31.0752"/>
</g>
</g>
</svg>
        <g id="navigator" transform="translate(0 0)" fill="#404254">
                <rect fill="#f2f5e9" fill-opacity="0.5" stroke="#606060" stroke-width=".5" x="0" y="0" width="60" height="60"/>
                <use id="zoomplus" xlink:href="#zoomPlus" x="17" y="9" onmousedown="handleZoom(evt,'in')"/>
                <use id="zoomminus" xlink:href="#zoomMin" x="42" y="9" onmousedown="handleZoom(evt,'out')"/>
                <use id="reset" xlink:href="#resetDef" x="30" y="36" onmousedown="handleReset()"/>
                <g id="arrowUp" xlink:href="#dirArrow" transform="translate(30 24)" onmousedown="handlePan(0,-1)">
                  <use xlink:href="#rim" fill="#404040">
                        <set attributeName="fill" to="#808080" begin="arrowUp.mouseover" end="arrowUp.mouseout"/>
                  </use>
                  <path fill="none" stroke="white" stroke-width="1.5" d="M0,-3.0v7 M-2.5,-0.5L0,-3.0L2.5,-0.5"/>
                </g>
                <g id="arrowRight" xlink:href="#dirArrow" transform="rotate(90) translate(36 -43)" onmousedown="handlePan(1,0)">
                  <use xlink:href="#rim" fill="#404040">
                        <set attributeName="fill" to="#808080" begin="arrowRight.mouseover" end="arrowRight.mouseout"/>
                  </use>
                  <path fill="none" stroke="white" stroke-width="1.5" d="M0,-3.0v7 M-2.5,-0.5L0,-3.0L2.5,-0.5"/>
                </g>
                <g id="arrowDown" xlink:href="#dirArrow" transform="rotate(180) translate(-30 -48)" onmousedown="handlePan(0,1)">
                  <use xlink:href="#rim" fill="#404040">
                        <set attributeName="fill" to="#808080" begin="arrowDown.mouseover" end="arrowDown.mouseout"/>
                  </use>
                  <path fill="none" stroke="white" stroke-width="1.5" d="M0,-3.0v7 M-2.5,-0.5L0,-3.0L2.5,-0.5"/>
                </g>
                <g id="arrowLeft" xlink:href="#dirArrow" transform="rotate(270) translate(-36 17)" onmousedown="handlePan(-1,0)">
                  <use xlink:href="#rim" fill="#404040">
                        <set attributeName="fill" to="#808080" begin="arrowLeft.mouseover" end="arrowLeft.mouseout"/>
                  </use>
                  <path fill="none" stroke="white" stroke-width="1.5" d="M0,-3.0v7 M-2.5,-0.5L0,-3.0L2.5,-0.5"/>
                </g>
        </g>
        <svg viewBox="0 0 15 15" width="100%" height="30px" preserveAspectRatio="xMaxYMin meet">
         <g id="arrow_out" transform="scale(0.3 0.3)">
          <a xlink:href="rc__stlplus_8h__incl_org.svg" target="_base">
           <rect id="button" ry="5" rx="5" y="6" x="6" height="38" width="38"
                fill="#f2f5e9" fill-opacity="0.5" stroke="#606060" stroke-width="1.0"/>
           <path id="arrow"
             d="M 11.500037,31.436501 C 11.940474,20.09759 22.043105,11.32322 32.158766,21.979434 L 37.068811,17.246167 C 37.068811,17.246167 37.088388,32 37.088388,32 L 22.160133,31.978069 C 22.160133,31.978069 26.997745,27.140456 26.997745,27.140456 C 18.528582,18.264221 13.291696,25.230495 11.500037,31.436501 z"
             style="fill:#404040;"/>
          </a>
         </g>
        </svg>
</svg>
