<?xml version="1.0" encoding="UTF-8" standalone="no"?>
<!DOCTYPE svg PUBLIC "-//W3C//DTD SVG 1.1//EN"
 "http://www.w3.org/Graphics/SVG/1.1/DTD/svg11.dtd">
<!-- Generated by graphviz version 2.32.0 (20130916.1925)
 -->
<!-- Title: cOffEndColor Pages: 1 -->
<svg width="398pt" height="28pt"
 viewBox="0.00 0.00 398.00 28.00" xmlns="http://www.w3.org/2000/svg" xmlns:xlink="http://www.w3.org/1999/xlink">
<g id="graph0" class="graph" transform="scale(1 1) rotate(0) translate(4 24)">
<title>cOffEndColor</title>
<polygon fill="white" stroke="white" points="-4,5 -4,-24 395,-24 395,5 -4,5"/>
<!-- Node1 -->
<g id="node1" class="node"><title>Node1</title>
<polygon fill="#bfbfbf" stroke="black" points="0.0756836,-0 0.0756836,-20 75.9243,-20 75.9243,-0 0.0756836,-0"/>
<text text-anchor="middle" x="38" y="-6" font-family="Helvetica,sans-Serif" font-size="10.00">cOffEndColor</text>
</g>
<!-- Node2 -->
<g id="node2" class="node"><title>Node2</title>
<g id="a_node2"><a xlink:href="classrc_timeline.html#a1ccc2d8b2395a4d1620ddc4fd97a0490" target="_top" xlink:title="rcTimeline::paintTimeline">
<polygon fill="white" stroke="black" points="111.792,-0 111.792,-20 238.208,-20 238.208,-0 111.792,-0"/>
<text text-anchor="middle" x="175" y="-6" font-family="Helvetica,sans-Serif" font-size="10.00">rcTimeline::paintTimeline</text>
</a>
</g>
</g>
<!-- Node1&#45;&gt;Node2 -->
<g id="edge1" class="edge"><title>Node1&#45;&gt;Node2</title>
<path fill="none" stroke="midnightblue" d="M86.3638,-10C94.5681,-10 103.209,-10 111.738,-10"/>
<polygon fill="midnightblue" stroke="midnightblue" points="86.2467,-6.5001 76.2467,-10 86.2467,-13.5001 86.2467,-6.5001"/>
</g>
<!-- Node3 -->
<g id="node3" class="node"><title>Node3</title>
<g id="a_node3"><a xlink:href="classrc_timeline.html#a7eee350d60e6b09f19e2701c109c7f56" target="_top" xlink:title="rcTimeline::paintEvent">
<polygon fill="white" stroke="black" points="274.718,-0 274.718,-20 389.282,-20 389.282,-0 274.718,-0"/>
<text text-anchor="middle" x="332" y="-6" font-family="Helvetica,sans-Serif" font-size="10.00">rcTimeline::paintEvent</text>
</a>
</g>
</g>
<!-- Node2&#45;&gt;Node3 -->
<g id="edge2" class="edge"><title>Node2&#45;&gt;Node3</title>
<path fill="none" stroke="midnightblue" d="M248.754,-10C257.46,-10 266.245,-10 274.67,-10"/>
<polygon fill="midnightblue" stroke="midnightblue" points="248.598,-6.5001 238.598,-10 248.598,-13.5001 248.598,-6.5001"/>
</g>
</g>
</svg>
