<?xml version="1.0" encoding="UTF-8" standalone="no"?>
<!DOCTYPE svg PUBLIC "-//W3C//DTD SVG 1.1//EN"
 "http://www.w3.org/Graphics/SVG/1.1/DTD/svg11.dtd">
<!-- Generated by graphviz version 2.32.0 (20130916.1925)
 -->
<!-- Title: rfRcWindow8to32 Pages: 1 -->
<svg width="488pt" height="242pt"
 viewBox="0.00 0.00 488.00 242.00" xmlns="http://www.w3.org/2000/svg" xmlns:xlink="http://www.w3.org/1999/xlink">
<g id="graph0" class="graph" transform="scale(1 1) rotate(0) translate(4 238)">
<title>rfRcWindow8to32</title>
<polygon fill="white" stroke="white" points="-4,5 -4,-238 485,-238 485,5 -4,5"/>
<!-- Node1 -->
<g id="node1" class="node"><title>Node1</title>
<polygon fill="#bfbfbf" stroke="black" points="0.539551,-116 0.539551,-136 95.4604,-136 95.4604,-116 0.539551,-116"/>
<text text-anchor="middle" x="48" y="-122" font-family="Helvetica,sans-Serif" font-size="10.00">rfRcWindow8to32</text>
</g>
<!-- Node2 -->
<g id="node2" class="node"><title>Node2</title>
<g id="a_node2"><a xlink:href="classrc_window.html#a9ab724dc45a3c3c2beee6c8ed558de1e" target="_top" xlink:title="rcWindow::depth">
<polygon fill="white" stroke="black" points="143.761,-214 143.761,-234 234.239,-234 234.239,-214 143.761,-214"/>
<text text-anchor="middle" x="189" y="-220" font-family="Helvetica,sans-Serif" font-size="10.00">rcWindow::depth</text>
</a>
</g>
</g>
<!-- Node1&#45;&gt;Node2 -->
<g id="edge1" class="edge"><title>Node1&#45;&gt;Node2</title>
<path fill="none" stroke="midnightblue" d="M57.1846,-136.004C71.0234,-152.334 100.619,-184.817 132,-204 135.617,-206.211 139.514,-208.227 143.509,-210.054"/>
<polygon fill="midnightblue" stroke="midnightblue" points="142.344,-213.361 152.921,-213.977 145.037,-206.899 142.344,-213.361"/>
</g>
<!-- Node3 -->
<g id="node3" class="node"><title>Node3</title>
<g id="a_node3"><a xlink:href="classrc_window.html#a21071d7c895af110edf6fb9e19342d6b" target="_top" xlink:title="rcWindow::frameBuf">
<polygon fill="white" stroke="black" points="135.988,-175 135.988,-195 242.012,-195 242.012,-175 135.988,-175"/>
<text text-anchor="middle" x="189" y="-181" font-family="Helvetica,sans-Serif" font-size="10.00">rcWindow::frameBuf</text>
</a>
</g>
</g>
<!-- Node1&#45;&gt;Node3 -->
<g id="edge2" class="edge"><title>Node1&#45;&gt;Node3</title>
<path fill="none" stroke="midnightblue" d="M68.8849,-136.004C85.55,-144.228 110.069,-155.956 132,-165 137.249,-167.165 142.828,-169.322 148.352,-171.376"/>
<polygon fill="midnightblue" stroke="midnightblue" points="147.559,-174.812 158.153,-174.94 149.951,-168.234 147.559,-174.812"/>
</g>
<!-- Node4 -->
<g id="node4" class="node"><title>Node4</title>
<g id="a_node4"><a xlink:href="classrc_frame.html#ac8264644f2c97390f190b792cf8c1c32" target="_top" xlink:title="rcFrame::getColor">
<polygon fill="white" stroke="black" points="140.712,-136 140.712,-156 237.288,-156 237.288,-136 140.712,-136"/>
<text text-anchor="middle" x="189" y="-142" font-family="Helvetica,sans-Serif" font-size="10.00">rcFrame::getColor</text>
</a>
</g>
</g>
<!-- Node1&#45;&gt;Node4 -->
<g id="edge3" class="edge"><title>Node1&#45;&gt;Node4</title>
<path fill="none" stroke="midnightblue" d="M95.6717,-132.715C106.774,-134.313 118.75,-136.036 130.281,-137.695"/>
<polygon fill="midnightblue" stroke="midnightblue" points="129.869,-141.172 140.266,-139.132 130.866,-134.243 129.869,-141.172"/>
</g>
<!-- Node5 -->
<g id="node5" class="node"><title>Node5</title>
<g id="a_node5"><a xlink:href="classrc_window.html#a958e7e0bd74b12cbcb44e73a2692400a" target="_top" xlink:title="rcWindow::height">
<polygon fill="white" stroke="black" points="142.65,-97 142.65,-117 235.35,-117 235.35,-97 142.65,-97"/>
<text text-anchor="middle" x="189" y="-103" font-family="Helvetica,sans-Serif" font-size="10.00">rcWindow::height</text>
</a>
</g>
</g>
<!-- Node1&#45;&gt;Node5 -->
<g id="edge4" class="edge"><title>Node1&#45;&gt;Node5</title>
<path fill="none" stroke="midnightblue" d="M95.6717,-119.62C107.502,-118.003 120.325,-116.251 132.544,-114.58"/>
<polygon fill="midnightblue" stroke="midnightblue" points="133.197,-118.024 142.63,-113.202 132.249,-111.088 133.197,-118.024"/>
</g>
<!-- Node6 -->
<g id="node6" class="node"><title>Node6</title>
<g id="a_node6"><a xlink:href="classrc_window.html#a232627a15bd75725861721177a38df82" target="_top" xlink:title="rcWindow::rowPointer">
<polygon fill="white" stroke="black" points="132.375,-58 132.375,-78 245.625,-78 245.625,-58 132.375,-58"/>
<text text-anchor="middle" x="189" y="-64" font-family="Helvetica,sans-Serif" font-size="10.00">rcWindow::rowPointer</text>
</a>
</g>
</g>
<!-- Node1&#45;&gt;Node6 -->
<g id="edge5" class="edge"><title>Node1&#45;&gt;Node6</title>
<path fill="none" stroke="midnightblue" d="M69.5904,-115.972C86.2551,-108.002 110.419,-96.7749 132,-88 137.453,-85.783 143.254,-83.5614 148.979,-81.4473"/>
<polygon fill="midnightblue" stroke="midnightblue" points="150.255,-84.7076 158.465,-78.0107 147.871,-78.1261 150.255,-84.7076"/>
</g>
<!-- Node13 -->
<g id="node13" class="node"><title>Node13</title>
<g id="a_node13"><a xlink:href="classrc_window.html#a0ae0c2adbe34085eb07c93edd60b342a" target="_top" xlink:title="rcWindow::width">
<polygon fill="white" stroke="black" points="144.601,-19 144.601,-39 233.399,-39 233.399,-19 144.601,-19"/>
<text text-anchor="middle" x="189" y="-25" font-family="Helvetica,sans-Serif" font-size="10.00">rcWindow::width</text>
</a>
</g>
</g>
<!-- Node1&#45;&gt;Node13 -->
<g id="edge12" class="edge"><title>Node1&#45;&gt;Node13</title>
<path fill="none" stroke="midnightblue" d="M57.4383,-115.87C71.4117,-99.6765 100.914,-67.8658 132,-49 135.624,-46.8006 139.526,-44.7923 143.524,-42.9702"/>
<polygon fill="midnightblue" stroke="midnightblue" points="145.051,-46.126 152.94,-39.0546 142.363,-39.6625 145.051,-46.126"/>
</g>
<!-- Node7 -->
<g id="node7" class="node"><title>Node7</title>
<g id="a_node7"><a xlink:href="classrc_frame.html#a401a851fcb8a4328949d38cb34b572f6" target="_top" xlink:title="rcFrame::rowPointer">
<polygon fill="white" stroke="black" points="282.712,-117 282.712,-137 389.288,-137 389.288,-117 282.712,-117"/>
<text text-anchor="middle" x="336" y="-123" font-family="Helvetica,sans-Serif" font-size="10.00">rcFrame::rowPointer</text>
</a>
</g>
</g>
<!-- Node6&#45;&gt;Node7 -->
<g id="edge6" class="edge"><title>Node6&#45;&gt;Node7</title>
<path fill="none" stroke="midnightblue" d="M220.535,-78.0168C228.886,-80.996 237.873,-84.4258 246,-88 262.561,-95.2832 265.505,-99.5696 282,-107 286.754,-109.141 291.812,-111.254 296.844,-113.257"/>
<polygon fill="midnightblue" stroke="midnightblue" points="295.813,-116.611 306.403,-116.954 298.339,-110.082 295.813,-116.611"/>
</g>
<!-- Node8 -->
<g id="node8" class="node"><title>Node8</title>
<g id="a_node8"><a xlink:href="classrc_rect.html#a50236160751c949d8718f8d4d17f7923" target="_top" xlink:title="rcRect::y">
<polygon fill="white" stroke="black" points="308.276,-78 308.276,-98 363.724,-98 363.724,-78 308.276,-78"/>
<text text-anchor="middle" x="336" y="-84" font-family="Helvetica,sans-Serif" font-size="10.00">rcRect::y</text>
</a>
</g>
</g>
<!-- Node6&#45;&gt;Node8 -->
<g id="edge7" class="edge"><title>Node6&#45;&gt;Node8</title>
<path fill="none" stroke="midnightblue" d="M245.646,-75.6753C263.204,-78.0971 282.158,-80.7114 298.072,-82.9064"/>
<polygon fill="midnightblue" stroke="midnightblue" points="297.661,-86.3828 308.045,-84.2821 298.617,-79.4485 297.661,-86.3828"/>
</g>
<!-- Node10 -->
<g id="node10" class="node"><title>Node10</title>
<g id="a_node10"><a xlink:href="classrc_rect.html#ac0f95519a41dcf7e33bec85ccb8e7aff" target="_top" xlink:title="rcRect::x">
<polygon fill="white" stroke="black" points="308.276,-39 308.276,-59 363.724,-59 363.724,-39 308.276,-39"/>
<text text-anchor="middle" x="336" y="-45" font-family="Helvetica,sans-Serif" font-size="10.00">rcRect::x</text>
</a>
</g>
</g>
<!-- Node6&#45;&gt;Node10 -->
<g id="edge9" class="edge"><title>Node6&#45;&gt;Node10</title>
<path fill="none" stroke="midnightblue" d="M245.646,-60.7084C263.204,-58.4078 282.158,-55.9242 298.072,-53.8389"/>
<polygon fill="midnightblue" stroke="midnightblue" points="298.585,-57.3017 308.045,-52.532 297.675,-50.361 298.585,-57.3017"/>
</g>
<!-- Node12 -->
<g id="node12" class="node"><title>Node12</title>
<g id="a_node12"><a xlink:href="classrc_frame.html#aaef8303c840834284eb9c60d33bf40c1" target="_top" xlink:title="rcFrame::depth">
<polygon fill="white" stroke="black" points="294.099,-0 294.099,-20 377.901,-20 377.901,-0 294.099,-0"/>
<text text-anchor="middle" x="336" y="-6" font-family="Helvetica,sans-Serif" font-size="10.00">rcFrame::depth</text>
</a>
</g>
</g>
<!-- Node6&#45;&gt;Node12 -->
<g id="edge11" class="edge"><title>Node6&#45;&gt;Node12</title>
<path fill="none" stroke="midnightblue" d="M220.193,-57.9685C228.625,-54.9642 237.739,-51.5252 246,-48 262.453,-40.979 265.61,-37.1673 282,-30 286.832,-27.8869 291.965,-25.7816 297.062,-23.7734"/>
<polygon fill="midnightblue" stroke="midnightblue" points="298.651,-26.9121 306.727,-20.0548 296.137,-20.3789 298.651,-26.9121"/>
</g>
<!-- Node9 -->
<g id="node9" class="node"><title>Node9</title>
<g id="a_node9"><a xlink:href="classrc_pair.html#a87400f83938e920c405c40aa449d3607" target="_top" xlink:title="rcPair::y">
<polygon fill="white" stroke="black" points="426.665,-78 426.665,-98 479.335,-98 479.335,-78 426.665,-78"/>
<text text-anchor="middle" x="453" y="-84" font-family="Helvetica,sans-Serif" font-size="10.00">rcPair::y</text>
</a>
</g>
</g>
<!-- Node8&#45;&gt;Node9 -->
<g id="edge8" class="edge"><title>Node8&#45;&gt;Node9</title>
<path fill="none" stroke="midnightblue" d="M363.962,-88C379.576,-88 399.422,-88 416.317,-88"/>
<polygon fill="midnightblue" stroke="midnightblue" points="416.391,-91.5001 426.391,-88 416.391,-84.5001 416.391,-91.5001"/>
</g>
<!-- Node11 -->
<g id="node11" class="node"><title>Node11</title>
<g id="a_node11"><a xlink:href="classrc_pair.html#ad1a3cb1e7fdbe119ce1295514b1bb49d" target="_top" xlink:title="rcPair::x">
<polygon fill="white" stroke="black" points="426.665,-39 426.665,-59 479.335,-59 479.335,-39 426.665,-39"/>
<text text-anchor="middle" x="453" y="-45" font-family="Helvetica,sans-Serif" font-size="10.00">rcPair::x</text>
</a>
</g>
</g>
<!-- Node10&#45;&gt;Node11 -->
<g id="edge10" class="edge"><title>Node10&#45;&gt;Node11</title>
<path fill="none" stroke="midnightblue" d="M363.962,-49C379.576,-49 399.422,-49 416.317,-49"/>
<polygon fill="midnightblue" stroke="midnightblue" points="416.391,-52.5001 426.391,-49 416.391,-45.5001 416.391,-52.5001"/>
</g>
</g>
</svg>
