<?xml version="1.0" encoding="UTF-8" standalone="no"?>
<!DOCTYPE svg PUBLIC "-//W3C//DTD SVG 1.1//EN"
 "http://www.w3.org/Graphics/SVG/1.1/DTD/svg11.dtd">
<!-- Generated by graphviz version 2.32.0 (20130916.1925)
 -->
<!-- Title: rfGetCameraCapabilities Pages: 1 -->
<svg width="498pt" height="67pt"
 viewBox="0.00 0.00 498.00 67.00" xmlns="http://www.w3.org/2000/svg" xmlns:xlink="http://www.w3.org/1999/xlink">
<g id="graph0" class="graph" transform="scale(1 1) rotate(0) translate(4 63)">
<title>rfGetCameraCapabilities</title>
<polygon fill="white" stroke="white" points="-4,5 -4,-63 495,-63 495,5 -4,5"/>
<!-- Node1 -->
<g id="node1" class="node"><title>Node1</title>
<polygon fill="#bfbfbf" stroke="black" points="0.256348,-19 0.256348,-39 125.744,-39 125.744,-19 0.256348,-19"/>
<text text-anchor="middle" x="63" y="-25" font-family="Helvetica,sans-Serif" font-size="10.00">rfGetCameraCapabilities</text>
</g>
<!-- Node2 -->
<g id="node2" class="node"><title>Node2</title>
<g id="a_node2"><a xlink:href="rc__dcam__capture_8cpp.html#a8fcb91e1b2e6adaad571752a59ac3dad" target="_top" xlink:title="InitializeMungData2">
<polygon fill="white" stroke="black" points="162.086,-19 162.086,-39 265.914,-39 265.914,-19 162.086,-19"/>
<text text-anchor="middle" x="214" y="-25" font-family="Helvetica,sans-Serif" font-size="10.00">InitializeMungData2</text>
</a>
</g>
</g>
<!-- Node1&#45;&gt;Node2 -->
<g id="edge1" class="edge"><title>Node1&#45;&gt;Node2</title>
<path fill="none" stroke="midnightblue" d="M136.092,-29C144.82,-29 153.593,-29 161.929,-29"/>
<polygon fill="midnightblue" stroke="midnightblue" points="135.895,-25.5001 125.895,-29 135.895,-32.5001 135.895,-25.5001"/>
</g>
<!-- Node3 -->
<g id="node3" class="node"><title>Node3</title>
<g id="a_node3"><a xlink:href="rc__dcam__capture_8h.html#aa3528bb0b33aa9119084d4b082f8c0aa" target="_top" xlink:title="rfDCAMVideoCapture">
<polygon fill="white" stroke="black" points="302.736,-39 302.736,-59 415.264,-59 415.264,-39 302.736,-39"/>
<text text-anchor="middle" x="359" y="-45" font-family="Helvetica,sans-Serif" font-size="10.00">rfDCAMVideoCapture</text>
</a>
</g>
</g>
<!-- Node2&#45;&gt;Node3 -->
<g id="edge2" class="edge"><title>Node2&#45;&gt;Node3</title>
<path fill="none" stroke="midnightblue" d="M276.251,-37.5666C284.9,-38.7763 293.754,-40.0146 302.292,-41.2086"/>
<polygon fill="midnightblue" stroke="midnightblue" points="276.611,-34.0829 266.222,-36.164 275.641,-41.0154 276.611,-34.0829"/>
</g>
<!-- Node5 -->
<g id="node5" class="node"><title>Node5</title>
<g id="a_node5"><a xlink:href="rc__qtime__capture_8h.html#adf4b66b022a2bc6ba21cddbc179756cb" target="_top" xlink:title="rfQTVideoCapture">
<polygon fill="white" stroke="black" points="310.514,-0 310.514,-20 407.486,-20 407.486,-0 310.514,-0"/>
<text text-anchor="middle" x="359" y="-6" font-family="Helvetica,sans-Serif" font-size="10.00">rfQTVideoCapture</text>
</a>
</g>
</g>
<!-- Node2&#45;&gt;Node5 -->
<g id="edge4" class="edge"><title>Node2&#45;&gt;Node5</title>
<path fill="none" stroke="midnightblue" d="M276.181,-20.871C287.655,-19.3465 299.491,-17.774 310.473,-16.3148"/>
<polygon fill="midnightblue" stroke="midnightblue" points="275.674,-17.4075 266.222,-22.1942 276.596,-24.3466 275.674,-17.4075"/>
</g>
<!-- Node4 -->
<g id="node4" class="node"><title>Node4</title>
<g id="a_node4"><a xlink:href="rc__dcam__main_8cpp.html#a3c04138a5bfe5d72780bb7e82a18e627" target="_top" xlink:title="main">
<polygon fill="white" stroke="black" points="452.163,-39 452.163,-59 489.837,-59 489.837,-39 452.163,-39"/>
<text text-anchor="middle" x="471" y="-45" font-family="Helvetica,sans-Serif" font-size="10.00">main</text>
</a>
</g>
</g>
<!-- Node3&#45;&gt;Node4 -->
<g id="edge3" class="edge"><title>Node3&#45;&gt;Node4</title>
<path fill="none" stroke="midnightblue" d="M425.526,-49C435.212,-49 444.445,-49 451.963,-49"/>
<polygon fill="midnightblue" stroke="midnightblue" points="425.322,-45.5001 415.322,-49 425.322,-52.5001 425.322,-45.5001"/>
</g>
<!-- Node6 -->
<g id="node6" class="node"><title>Node6</title>
<g id="a_node6"><a xlink:href="rc__qtime__main_8cpp.html#a3c04138a5bfe5d72780bb7e82a18e627" target="_top" xlink:title="main">
<polygon fill="white" stroke="black" points="452.163,-0 452.163,-20 489.837,-20 489.837,-0 452.163,-0"/>
<text text-anchor="middle" x="471" y="-6" font-family="Helvetica,sans-Serif" font-size="10.00">main</text>
</a>
</g>
</g>
<!-- Node5&#45;&gt;Node6 -->
<g id="edge5" class="edge"><title>Node5&#45;&gt;Node6</title>
<path fill="none" stroke="midnightblue" d="M417.663,-10C430.213,-10 442.578,-10 452.135,-10"/>
<polygon fill="midnightblue" stroke="midnightblue" points="417.608,-6.5001 407.608,-10 417.608,-13.5001 417.608,-6.5001"/>
</g>
</g>
</svg>
