<?xml version="1.0" encoding="UTF-8" standalone="no"?>
<!DOCTYPE svg PUBLIC "-//W3C//DTD SVG 1.1//EN"
 "http://www.w3.org/Graphics/SVG/1.1/DTD/svg11.dtd">
<!-- Generated by graphviz version 2.32.0 (20130916.1925)
 -->
<!-- Title: GetCameraProperty Pages: 1 -->
<!--zoomable 98 -->
<svg id="main" version="1.1" xmlns="http://www.w3.org/2000/svg" xmlns:xlink="http://www.w3.org/1999/xlink" xml:space="preserve" onload="init(evt)">
        <defs>
                <circle id="rim" cx="0" cy="0" r="7"/>
                <circle id="rim2" cx="0" cy="0" r="3.5"/>
                <g id="zoomPlus">
                        <use xlink:href="#rim" fill="#404040">
                                <set attributeName="fill" to="#808080" begin="zoomplus.mouseover" end="zoomplus.mouseout"/>
                        </use>
                        <path d="M-4,0h8M0,-4v8" fill="none" stroke="white" stroke-width="1.5" pointer-events="none"/>
                </g>
                <g id="zoomMin">
                        <use xlink:href="#rim" fill="#404040">
                                <set attributeName="fill" to="#808080" begin="zoomminus.mouseover" end="zoomminus.mouseout"/>
                        </use>
                        <path d="M-4,0h8" fill="none" stroke="white" stroke-width="1.5" pointer-events="none"/>
                </g>
                <g id="dirArrow">
                        <path fill="none" stroke="white" stroke-width="1.5" d="M0,-3.0v7 M-2.5,-0.5L0,-3.0L2.5,-0.5"/>
                </g>
               <g id="resetDef">
                       <use xlink:href="#rim2" fill="#404040">
                               <set attributeName="fill" to="#808080" begin="reset.mouseover" end="reset.mouseout"/>
                       </use>
               </g>
        </defs>

<script type="text/javascript">
var viewWidth = 796;
var viewHeight = 98;
var sectionId = 'dynsection-4';
</script>
<script xlink:href="svgpan.js"/>
<svg id="graph" class="graph">
<g id="viewport">
<title>GetCameraProperty</title>
<polygon fill="white" stroke="white" points="-4,5 -4,-94 793,-94 793,5 -4,5"/>
<!-- Node1 -->
<g id="node1" class="node"><title>Node1</title>
<polygon fill="#bfbfbf" stroke="black" points="0.26123,-41 0.26123,-61 105.739,-61 105.739,-41 0.26123,-41"/>
<text text-anchor="middle" x="53" y="-47" font-family="Helvetica,sans-Serif" font-size="10.00">GetCameraProperty</text>
</g>
<!-- Node2 -->
<g id="node2" class="node"><title>Node2</title>
<g id="a_node2"><a xlink:href="classrc_camera_mapper.html#a2124becc0391d389b0437c82e6d5b913" target="_top" xlink:title="rcCameraMapper::Fill\l_dcam_info">
<polygon fill="white" stroke="black" points="145.934,-58 145.934,-90 258.066,-90 258.066,-58 145.934,-58"/>
<text text-anchor="start" x="153.934" y="-76" font-family="Helvetica,sans-Serif" font-size="10.00">rcCameraMapper::Fill</text>
<text text-anchor="middle" x="202" y="-64" font-family="Helvetica,sans-Serif" font-size="10.00">_dcam_info</text>
</a>
</g>
</g>
<!-- Node1&#45;&gt;Node2 -->
<g id="edge1" class="edge"><title>Node1&#45;&gt;Node2</title>
<path fill="none" stroke="midnightblue" d="M115.717,-60.6564C125.736,-62.224 136.055,-63.8385 145.902,-65.3793"/>
<polygon fill="midnightblue" stroke="midnightblue" points="116.248,-57.1969 105.827,-59.1089 115.165,-64.1128 116.248,-57.1969"/>
</g>
<!-- Node3 -->
<g id="node3" class="node"><title>Node3</title>
<g id="a_node3"><a xlink:href="rc__dcam_8h.html#aa36bd157651ad33c1b8bb4105423d8b4" target="_top" xlink:title="rfGetCameraProperties">
<polygon fill="white" stroke="black" points="142.315,-19 142.315,-39 261.685,-39 261.685,-19 142.315,-19"/>
<text text-anchor="middle" x="202" y="-25" font-family="Helvetica,sans-Serif" font-size="10.00">rfGetCameraProperties</text>
</a>
</g>
</g>
<!-- Node1&#45;&gt;Node3 -->
<g id="edge2" class="edge"><title>Node1&#45;&gt;Node3</title>
<path fill="none" stroke="midnightblue" d="M115.893,-41.7372C124.58,-40.4371 133.489,-39.1037 142.118,-37.8123"/>
<polygon fill="midnightblue" stroke="midnightblue" points="115.198,-38.302 105.827,-43.2436 116.235,-45.2249 115.198,-38.302"/>
</g>
<!-- Node4 -->
<g id="node4" class="node"><title>Node4</title>
<g id="a_node4"><a xlink:href="rc__dcam_8h.html#a471b8dac84c06d5437ad0e873b84da77" target="_top" xlink:title="rfGetCameraCapabilities">
<polygon fill="white" stroke="black" points="298.256,-39 298.256,-59 423.744,-59 423.744,-39 298.256,-39"/>
<text text-anchor="middle" x="361" y="-45" font-family="Helvetica,sans-Serif" font-size="10.00">rfGetCameraCapabilities</text>
</a>
</g>
</g>
<!-- Node3&#45;&gt;Node4 -->
<g id="edge3" class="edge"><title>Node3&#45;&gt;Node4</title>
<path fill="none" stroke="midnightblue" d="M272.017,-37.7919C280.712,-38.8996 289.565,-40.0273 298.14,-41.1197"/>
<polygon fill="midnightblue" stroke="midnightblue" points="272.27,-34.296 261.908,-36.5042 271.385,-41.2399 272.27,-34.296"/>
</g>
<!-- Node10 -->
<g id="node10" class="node"><title>Node10</title>
<g id="a_node10"><a xlink:href="rc__dcam_8h.html#abdaac796c588bd54040222228f90bd0f" target="_top" xlink:title="rfGetCameraInformation">
<polygon fill="white" stroke="black" points="299.091,-0 299.091,-20 422.909,-20 422.909,-0 299.091,-0"/>
<text text-anchor="middle" x="361" y="-6" font-family="Helvetica,sans-Serif" font-size="10.00">rfGetCameraInformation</text>
</a>
</g>
</g>
<!-- Node3&#45;&gt;Node10 -->
<g id="edge9" class="edge"><title>Node3&#45;&gt;Node10</title>
<path fill="none" stroke="midnightblue" d="M271.952,-20.6555C280.935,-19.5684 290.087,-18.4608 298.928,-17.3908"/>
<polygon fill="midnightblue" stroke="midnightblue" points="271.415,-17.1949 261.908,-21.871 272.256,-24.1442 271.415,-17.1949"/>
</g>
<!-- Node5 -->
<g id="node5" class="node"><title>Node5</title>
<g id="a_node5"><a xlink:href="rc__dcam__capture_8cpp.html#a8fcb91e1b2e6adaad571752a59ac3dad" target="_top" xlink:title="InitializeMungData2">
<polygon fill="white" stroke="black" points="460.086,-19 460.086,-39 563.914,-39 563.914,-19 460.086,-19"/>
<text text-anchor="middle" x="512" y="-25" font-family="Helvetica,sans-Serif" font-size="10.00">InitializeMungData2</text>
</a>
</g>
</g>
<!-- Node4&#45;&gt;Node5 -->
<g id="edge4" class="edge"><title>Node4&#45;&gt;Node5</title>
<path fill="none" stroke="midnightblue" d="M433.808,-39.3614C442.63,-38.1772 451.502,-36.9863 459.929,-35.8551"/>
<polygon fill="midnightblue" stroke="midnightblue" points="433.34,-35.8926 423.895,-40.692 434.272,-42.8304 433.34,-35.8926"/>
</g>
<!-- Node6 -->
<g id="node6" class="node"><title>Node6</title>
<g id="a_node6"><a xlink:href="rc__dcam__capture_8h.html#aa3528bb0b33aa9119084d4b082f8c0aa" target="_top" xlink:title="rfDCAMVideoCapture">
<polygon fill="white" stroke="black" points="600.736,-39 600.736,-59 713.264,-59 713.264,-39 600.736,-39"/>
<text text-anchor="middle" x="657" y="-45" font-family="Helvetica,sans-Serif" font-size="10.00">rfDCAMVideoCapture</text>
</a>
</g>
</g>
<!-- Node5&#45;&gt;Node6 -->
<g id="edge5" class="edge"><title>Node5&#45;&gt;Node6</title>
<path fill="none" stroke="midnightblue" d="M574.251,-37.5666C582.9,-38.7763 591.754,-40.0146 600.292,-41.2086"/>
<polygon fill="midnightblue" stroke="midnightblue" points="574.611,-34.0829 564.222,-36.164 573.641,-41.0154 574.611,-34.0829"/>
</g>
<!-- Node8 -->
<g id="node8" class="node"><title>Node8</title>
<g id="a_node8"><a xlink:href="rc__qtime__capture_8h.html#adf4b66b022a2bc6ba21cddbc179756cb" target="_top" xlink:title="rfQTVideoCapture">
<polygon fill="white" stroke="black" points="608.514,-0 608.514,-20 705.486,-20 705.486,-0 608.514,-0"/>
<text text-anchor="middle" x="657" y="-6" font-family="Helvetica,sans-Serif" font-size="10.00">rfQTVideoCapture</text>
</a>
</g>
</g>
<!-- Node5&#45;&gt;Node8 -->
<g id="edge7" class="edge"><title>Node5&#45;&gt;Node8</title>
<path fill="none" stroke="midnightblue" d="M574.181,-20.871C585.655,-19.3465 597.491,-17.774 608.473,-16.3148"/>
<polygon fill="midnightblue" stroke="midnightblue" points="573.674,-17.4075 564.222,-22.1942 574.596,-24.3466 573.674,-17.4075"/>
</g>
<!-- Node7 -->
<g id="node7" class="node"><title>Node7</title>
<g id="a_node7"><a xlink:href="rc__dcam__main_8cpp.html#a3c04138a5bfe5d72780bb7e82a18e627" target="_top" xlink:title="main">
<polygon fill="white" stroke="black" points="750.163,-39 750.163,-59 787.837,-59 787.837,-39 750.163,-39"/>
<text text-anchor="middle" x="769" y="-45" font-family="Helvetica,sans-Serif" font-size="10.00">main</text>
</a>
</g>
</g>
<!-- Node6&#45;&gt;Node7 -->
<g id="edge6" class="edge"><title>Node6&#45;&gt;Node7</title>
<path fill="none" stroke="midnightblue" d="M723.526,-49C733.212,-49 742.445,-49 749.963,-49"/>
<polygon fill="midnightblue" stroke="midnightblue" points="723.322,-45.5001 713.322,-49 723.322,-52.5001 723.322,-45.5001"/>
</g>
<!-- Node9 -->
<g id="node9" class="node"><title>Node9</title>
<g id="a_node9"><a xlink:href="rc__qtime__main_8cpp.html#a3c04138a5bfe5d72780bb7e82a18e627" target="_top" xlink:title="main">
<polygon fill="white" stroke="black" points="750.163,-0 750.163,-20 787.837,-20 787.837,-0 750.163,-0"/>
<text text-anchor="middle" x="769" y="-6" font-family="Helvetica,sans-Serif" font-size="10.00">main</text>
</a>
</g>
</g>
<!-- Node8&#45;&gt;Node9 -->
<g id="edge8" class="edge"><title>Node8&#45;&gt;Node9</title>
<path fill="none" stroke="midnightblue" d="M715.663,-10C728.213,-10 740.578,-10 750.135,-10"/>
<polygon fill="midnightblue" stroke="midnightblue" points="715.608,-6.5001 705.608,-10 715.608,-13.5001 715.608,-6.5001"/>
</g>
<!-- Node10&#45;&gt;Node5 -->
<g id="edge10" class="edge"><title>Node10&#45;&gt;Node5</title>
<path fill="none" stroke="midnightblue" d="M433.139,-19.0714C442.138,-20.219 451.203,-21.3749 459.807,-22.4721"/>
<polygon fill="midnightblue" stroke="midnightblue" points="433.396,-15.576 423.034,-17.7828 432.511,-22.5197 433.396,-15.576"/>
</g>
</g>
</svg>
        <g id="navigator" transform="translate(0 0)" fill="#404254">
                <rect fill="#f2f5e9" fill-opacity="0.5" stroke="#606060" stroke-width=".5" x="0" y="0" width="60" height="60"/>
                <use id="zoomplus" xlink:href="#zoomPlus" x="17" y="9" onmousedown="handleZoom(evt,'in')"/>
                <use id="zoomminus" xlink:href="#zoomMin" x="42" y="9" onmousedown="handleZoom(evt,'out')"/>
                <use id="reset" xlink:href="#resetDef" x="30" y="36" onmousedown="handleReset()"/>
                <g id="arrowUp" xlink:href="#dirArrow" transform="translate(30 24)" onmousedown="handlePan(0,-1)">
                  <use xlink:href="#rim" fill="#404040">
                        <set attributeName="fill" to="#808080" begin="arrowUp.mouseover" end="arrowUp.mouseout"/>
                  </use>
                  <path fill="none" stroke="white" stroke-width="1.5" d="M0,-3.0v7 M-2.5,-0.5L0,-3.0L2.5,-0.5"/>
                </g>
                <g id="arrowRight" xlink:href="#dirArrow" transform="rotate(90) translate(36 -43)" onmousedown="handlePan(1,0)">
                  <use xlink:href="#rim" fill="#404040">
                        <set attributeName="fill" to="#808080" begin="arrowRight.mouseover" end="arrowRight.mouseout"/>
                  </use>
                  <path fill="none" stroke="white" stroke-width="1.5" d="M0,-3.0v7 M-2.5,-0.5L0,-3.0L2.5,-0.5"/>
                </g>
                <g id="arrowDown" xlink:href="#dirArrow" transform="rotate(180) translate(-30 -48)" onmousedown="handlePan(0,1)">
                  <use xlink:href="#rim" fill="#404040">
                        <set attributeName="fill" to="#808080" begin="arrowDown.mouseover" end="arrowDown.mouseout"/>
                  </use>
                  <path fill="none" stroke="white" stroke-width="1.5" d="M0,-3.0v7 M-2.5,-0.5L0,-3.0L2.5,-0.5"/>
                </g>
                <g id="arrowLeft" xlink:href="#dirArrow" transform="rotate(270) translate(-36 17)" onmousedown="handlePan(-1,0)">
                  <use xlink:href="#rim" fill="#404040">
                        <set attributeName="fill" to="#808080" begin="arrowLeft.mouseover" end="arrowLeft.mouseout"/>
                  </use>
                  <path fill="none" stroke="white" stroke-width="1.5" d="M0,-3.0v7 M-2.5,-0.5L0,-3.0L2.5,-0.5"/>
                </g>
        </g>
        <svg viewBox="0 0 15 15" width="100%" height="30px" preserveAspectRatio="xMaxYMin meet">
         <g id="arrow_out" transform="scale(0.3 0.3)">
          <a xlink:href="rc__dcam_8cpp_ac94c927dbd4df168f8aa9e6780a735cf_icgraph_org.svg" target="_base">
           <rect id="button" ry="5" rx="5" y="6" x="6" height="38" width="38"
                fill="#f2f5e9" fill-opacity="0.5" stroke="#606060" stroke-width="1.0"/>
           <path id="arrow"
             d="M 11.500037,31.436501 C 11.940474,20.09759 22.043105,11.32322 32.158766,21.979434 L 37.068811,17.246167 C 37.068811,17.246167 37.088388,32 37.088388,32 L 22.160133,31.978069 C 22.160133,31.978069 26.997745,27.140456 26.997745,27.140456 C 18.528582,18.264221 13.291696,25.230495 11.500037,31.436501 z"
             style="fill:#404040;"/>
          </a>
         </g>
        </svg>
</svg>
