<?xml version="1.0" encoding="UTF-8" standalone="no"?>
<!DOCTYPE svg PUBLIC "-//W3C//DTD SVG 1.1//EN"
 "http://www.w3.org/Graphics/SVG/1.1/DTD/svg11.dtd">
<!-- Generated by graphviz version 2.32.0 (20130916.1925)
 -->
<!-- Title: InitializeMungData2 Pages: 1 -->
<svg width="336pt" height="67pt"
 viewBox="0.00 0.00 336.00 67.00" xmlns="http://www.w3.org/2000/svg" xmlns:xlink="http://www.w3.org/1999/xlink">
<g id="graph0" class="graph" transform="scale(1 1) rotate(0) translate(4 63)">
<title>InitializeMungData2</title>
<polygon fill="white" stroke="white" points="-4,5 -4,-63 333,-63 333,5 -4,5"/>
<!-- Node1 -->
<g id="node1" class="node"><title>Node1</title>
<polygon fill="#bfbfbf" stroke="black" points="0.0864258,-19 0.0864258,-39 103.914,-39 103.914,-19 0.0864258,-19"/>
<text text-anchor="middle" x="52" y="-25" font-family="Helvetica,sans-Serif" font-size="10.00">InitializeMungData2</text>
</g>
<!-- Node2 -->
<g id="node2" class="node"><title>Node2</title>
<g id="a_node2"><a xlink:href="rc__dcam__capture_8h.html#aa3528bb0b33aa9119084d4b082f8c0aa" target="_top" xlink:title="rfDCAMVideoCapture">
<polygon fill="white" stroke="black" points="140.736,-39 140.736,-59 253.264,-59 253.264,-39 140.736,-39"/>
<text text-anchor="middle" x="197" y="-45" font-family="Helvetica,sans-Serif" font-size="10.00">rfDCAMVideoCapture</text>
</a>
</g>
</g>
<!-- Node1&#45;&gt;Node2 -->
<g id="edge1" class="edge"><title>Node1&#45;&gt;Node2</title>
<path fill="none" stroke="midnightblue" d="M114.251,-37.5666C122.9,-38.7763 131.754,-40.0146 140.292,-41.2086"/>
<polygon fill="midnightblue" stroke="midnightblue" points="114.611,-34.0829 104.222,-36.164 113.641,-41.0154 114.611,-34.0829"/>
</g>
<!-- Node4 -->
<g id="node4" class="node"><title>Node4</title>
<g id="a_node4"><a xlink:href="rc__qtime__capture_8h.html#adf4b66b022a2bc6ba21cddbc179756cb" target="_top" xlink:title="rfQTVideoCapture">
<polygon fill="white" stroke="black" points="148.514,-0 148.514,-20 245.486,-20 245.486,-0 148.514,-0"/>
<text text-anchor="middle" x="197" y="-6" font-family="Helvetica,sans-Serif" font-size="10.00">rfQTVideoCapture</text>
</a>
</g>
</g>
<!-- Node1&#45;&gt;Node4 -->
<g id="edge3" class="edge"><title>Node1&#45;&gt;Node4</title>
<path fill="none" stroke="midnightblue" d="M114.181,-20.871C125.655,-19.3465 137.491,-17.774 148.473,-16.3148"/>
<polygon fill="midnightblue" stroke="midnightblue" points="113.674,-17.4075 104.222,-22.1942 114.596,-24.3466 113.674,-17.4075"/>
</g>
<!-- Node3 -->
<g id="node3" class="node"><title>Node3</title>
<g id="a_node3"><a xlink:href="rc__dcam__main_8cpp.html#a3c04138a5bfe5d72780bb7e82a18e627" target="_top" xlink:title="main">
<polygon fill="white" stroke="black" points="290.163,-39 290.163,-59 327.837,-59 327.837,-39 290.163,-39"/>
<text text-anchor="middle" x="309" y="-45" font-family="Helvetica,sans-Serif" font-size="10.00">main</text>
</a>
</g>
</g>
<!-- Node2&#45;&gt;Node3 -->
<g id="edge2" class="edge"><title>Node2&#45;&gt;Node3</title>
<path fill="none" stroke="midnightblue" d="M263.526,-49C273.212,-49 282.445,-49 289.963,-49"/>
<polygon fill="midnightblue" stroke="midnightblue" points="263.322,-45.5001 253.322,-49 263.322,-52.5001 263.322,-45.5001"/>
</g>
<!-- Node5 -->
<g id="node5" class="node"><title>Node5</title>
<g id="a_node5"><a xlink:href="rc__qtime__main_8cpp.html#a3c04138a5bfe5d72780bb7e82a18e627" target="_top" xlink:title="main">
<polygon fill="white" stroke="black" points="290.163,-0 290.163,-20 327.837,-20 327.837,-0 290.163,-0"/>
<text text-anchor="middle" x="309" y="-6" font-family="Helvetica,sans-Serif" font-size="10.00">main</text>
</a>
</g>
</g>
<!-- Node4&#45;&gt;Node5 -->
<g id="edge4" class="edge"><title>Node4&#45;&gt;Node5</title>
<path fill="none" stroke="midnightblue" d="M255.663,-10C268.213,-10 280.578,-10 290.135,-10"/>
<polygon fill="midnightblue" stroke="midnightblue" points="255.608,-6.5001 245.608,-10 255.608,-13.5001 255.608,-6.5001"/>
</g>
</g>
</svg>
