<?xml version="1.0" encoding="UTF-8" standalone="no"?>
<!DOCTYPE svg PUBLIC "-//W3C//DTD SVG 1.1//EN"
 "http://www.w3.org/Graphics/SVG/1.1/DTD/svg11.dtd">
<!-- Generated by graphviz version 2.32.0 (20130916.1925)
 -->
<!-- Title: processControlRequests Pages: 1 -->
<svg width="562pt" height="85pt"
 viewBox="0.00 0.00 562.00 85.00" xmlns="http://www.w3.org/2000/svg" xmlns:xlink="http://www.w3.org/1999/xlink">
<g id="graph0" class="graph" transform="scale(1 1) rotate(0) translate(4 81)">
<title>processControlRequests</title>
<polygon fill="white" stroke="white" points="-4,5 -4,-81 559,-81 559,5 -4,5"/>
<!-- Node1 -->
<g id="node1" class="node"><title>Node1</title>
<polygon fill="#bfbfbf" stroke="black" points="0.251465,-12 0.251465,-32 125.749,-32 125.749,-12 0.251465,-12"/>
<text text-anchor="middle" x="63" y="-18" font-family="Helvetica,sans-Serif" font-size="10.00">processControlRequests</text>
</g>
<!-- Node2 -->
<g id="node2" class="node"><title>Node2</title>
<g id="a_node2"><a xlink:href="rc__qtime__capture_8cpp.html#a0f7777de36097860e028dd31602da6bc" target="_top" xlink:title="getCtrlInfo">
<polygon fill="white" stroke="black" points="166.934,-12 166.934,-32 229.066,-32 229.066,-12 166.934,-12"/>
<text text-anchor="middle" x="198" y="-18" font-family="Helvetica,sans-Serif" font-size="10.00">getCtrlInfo</text>
</a>
</g>
</g>
<!-- Node1&#45;&gt;Node2 -->
<g id="edge1" class="edge"><title>Node1&#45;&gt;Node2</title>
<path fill="none" stroke="midnightblue" d="M125.828,-22C136.289,-22 146.906,-22 156.635,-22"/>
<polygon fill="midnightblue" stroke="midnightblue" points="156.794,-25.5001 166.794,-22 156.794,-18.5001 156.794,-25.5001"/>
</g>
<!-- Node5 -->
<g id="node5" class="node"><title>Node5</title>
<g id="a_node5"><a xlink:href="rc__qtime__capture_8cpp.html#aecd46c0dee20411147c6e649f6978155" target="_top" xlink:title="releaseMemory">
<polygon fill="white" stroke="black" points="289.544,-6 289.544,-26 374.456,-26 374.456,-6 289.544,-6"/>
<text text-anchor="middle" x="332" y="-12" font-family="Helvetica,sans-Serif" font-size="10.00">releaseMemory</text>
</a>
</g>
</g>
<!-- Node1&#45;&gt;Node5 -->
<g id="edge6" class="edge"><title>Node1&#45;&gt;Node5</title>
<path fill="none" stroke="midnightblue" d="M103.772,-11.9899C121.474,-8.02675 142.65,-3.95434 162,-2 201.288,1.96804 245.798,-2.06481 279.274,-6.80403"/>
<polygon fill="midnightblue" stroke="midnightblue" points="278.885,-10.2846 289.291,-8.28942 279.912,-3.36034 278.885,-10.2846"/>
</g>
<!-- Node7 -->
<g id="node7" class="node"><title>Node7</title>
<g id="a_node7"><a xlink:href="rc__qtime__capture_8cpp.html#acf3706e184e5ca35f819ce9bebeed040" target="_top" xlink:title="writeAcqInfo">
<polygon fill="white" stroke="black" points="162.488,-51 162.488,-71 233.512,-71 233.512,-51 162.488,-51"/>
<text text-anchor="middle" x="198" y="-57" font-family="Helvetica,sans-Serif" font-size="10.00">writeAcqInfo</text>
</a>
</g>
</g>
<!-- Node1&#45;&gt;Node7 -->
<g id="edge7" class="edge"><title>Node1&#45;&gt;Node7</title>
<path fill="none" stroke="midnightblue" d="M98.2508,-32.0435C115.005,-36.9565 135.364,-42.9263 153.233,-48.166"/>
<polygon fill="midnightblue" stroke="midnightblue" points="152.284,-51.5352 162.865,-50.9906 154.254,-44.8181 152.284,-51.5352"/>
</g>
<!-- Node3 -->
<g id="node3" class="node"><title>Node3</title>
<g id="a_node3"><a xlink:href="classrc_shared_memory_user.html#a309c27a08f28eb26c2e0ee2744e2638c" target="_top" xlink:title="rcSharedMemoryUser\l::acquireSharedMemory">
<polygon fill="white" stroke="black" points="270.643,-45 270.643,-77 393.357,-77 393.357,-45 270.643,-45"/>
<text text-anchor="start" x="278.643" y="-63" font-family="Helvetica,sans-Serif" font-size="10.00">rcSharedMemoryUser</text>
<text text-anchor="middle" x="332" y="-51" font-family="Helvetica,sans-Serif" font-size="10.00">::acquireSharedMemory</text>
</a>
</g>
</g>
<!-- Node2&#45;&gt;Node3 -->
<g id="edge2" class="edge"><title>Node2&#45;&gt;Node3</title>
<path fill="none" stroke="midnightblue" d="M229.283,-30.9474C240.504,-34.2627 253.697,-38.1604 266.794,-42.0302"/>
<polygon fill="midnightblue" stroke="midnightblue" points="266.176,-45.4969 276.758,-44.9739 268.159,-38.7838 266.176,-45.4969"/>
</g>
<!-- Node2&#45;&gt;Node5 -->
<g id="edge4" class="edge"><title>Node2&#45;&gt;Node5</title>
<path fill="none" stroke="midnightblue" d="M229.283,-20.6235C244.033,-19.953 262.188,-19.1278 279.059,-18.361"/>
<polygon fill="midnightblue" stroke="midnightblue" points="279.524,-21.8435 289.355,-17.893 279.206,-14.8507 279.524,-21.8435"/>
</g>
<!-- Node4 -->
<g id="node4" class="node"><title>Node4</title>
<g id="a_node4"><a xlink:href="classrc_atomic_value.html#a8b62cd136f31322300507fbe894e6b70" target="_top" xlink:title="rcAtomicValue::getValue">
<polygon fill="white" stroke="black" points="429.986,-51 429.986,-71 554.014,-71 554.014,-51 429.986,-51"/>
<text text-anchor="middle" x="492" y="-57" font-family="Helvetica,sans-Serif" font-size="10.00">rcAtomicValue::getValue</text>
</a>
</g>
</g>
<!-- Node3&#45;&gt;Node4 -->
<g id="edge3" class="edge"><title>Node3&#45;&gt;Node4</title>
<path fill="none" stroke="midnightblue" d="M393.635,-61C402.142,-61 410.949,-61 419.633,-61"/>
<polygon fill="midnightblue" stroke="midnightblue" points="419.744,-64.5001 429.743,-61 419.743,-57.5001 419.744,-64.5001"/>
</g>
<!-- Node6 -->
<g id="node6" class="node"><title>Node6</title>
<g id="a_node6"><a xlink:href="classrc_shared_memory_user.html#a3a0bffc2983a0baa43440fe117fcb56a" target="_top" xlink:title="rcSharedMemoryUser\l::releaseSharedMemory">
<polygon fill="white" stroke="black" points="430.643,-0 430.643,-32 553.357,-32 553.357,-0 430.643,-0"/>
<text text-anchor="start" x="438.643" y="-18" font-family="Helvetica,sans-Serif" font-size="10.00">rcSharedMemoryUser</text>
<text text-anchor="middle" x="492" y="-6" font-family="Helvetica,sans-Serif" font-size="10.00">::releaseSharedMemory</text>
</a>
</g>
</g>
<!-- Node5&#45;&gt;Node6 -->
<g id="edge5" class="edge"><title>Node5&#45;&gt;Node6</title>
<path fill="none" stroke="midnightblue" d="M374.513,-16C388.538,-16 404.616,-16 420.257,-16"/>
<polygon fill="midnightblue" stroke="midnightblue" points="420.446,-19.5001 430.446,-16 420.446,-12.5001 420.446,-19.5001"/>
</g>
<!-- Node7&#45;&gt;Node3 -->
<g id="edge8" class="edge"><title>Node7&#45;&gt;Node3</title>
<path fill="none" stroke="midnightblue" d="M233.681,-61C241.984,-61 251.146,-61 260.43,-61"/>
<polygon fill="midnightblue" stroke="midnightblue" points="260.517,-64.5001 270.517,-61 260.517,-57.5001 260.517,-64.5001"/>
</g>
<!-- Node7&#45;&gt;Node5 -->
<g id="edge9" class="edge"><title>Node7&#45;&gt;Node5</title>
<path fill="none" stroke="midnightblue" d="M227.282,-50.8833C240.273,-46.277 255.895,-40.7949 270,-36 276.522,-33.7827 283.451,-31.4702 290.21,-29.2377"/>
<polygon fill="midnightblue" stroke="midnightblue" points="291.517,-32.4923 299.924,-26.0444 289.331,-25.8424 291.517,-32.4923"/>
</g>
</g>
</svg>
