<?xml version="1.0" encoding="UTF-8" standalone="no"?>
<!DOCTYPE svg PUBLIC "-//W3C//DTD SVG 1.1//EN"
 "http://www.w3.org/Graphics/SVG/1.1/DTD/svg11.dtd">
<!-- Generated by graphviz version 2.32.0 (20130916.1925)
 -->
<!-- Title: operator&lt;&lt; Pages: 1 -->
<svg width="882pt" height="656pt"
 viewBox="0.00 0.00 882.00 656.00" xmlns="http://www.w3.org/2000/svg" xmlns:xlink="http://www.w3.org/1999/xlink">
<g id="graph0" class="graph" transform="scale(1 1) rotate(0) translate(4 652)">
<title>operator&lt;&lt;</title>
<polygon fill="white" stroke="white" points="-4,5 -4,-652 879,-652 879,5 -4,5"/>
<!-- Node1 -->
<g id="node1" class="node"><title>Node1</title>
<polygon fill="#bfbfbf" stroke="black" points="0.537109,-329 0.537109,-349 65.4629,-349 65.4629,-329 0.537109,-329"/>
<text text-anchor="middle" x="33" y="-335" font-family="Helvetica,sans-Serif" font-size="10.00">operator&lt;&lt;</text>
</g>
<!-- Node2 -->
<g id="node2" class="node"><title>Node2</title>
<g id="a_node2"><a xlink:href="classrc_movie_file_exp_ext.html#a1ba8db8e6c30cfc6439b9f7e67fa3fef" target="_top" xlink:title="rcMovieFileExpExt::\lcellType">
<polygon fill="white" stroke="black" points="112.823,-616 112.823,-648 217.177,-648 217.177,-616 112.823,-616"/>
<text text-anchor="start" x="120.823" y="-634" font-family="Helvetica,sans-Serif" font-size="10.00">rcMovieFileExpExt::</text>
<text text-anchor="middle" x="165" y="-622" font-family="Helvetica,sans-Serif" font-size="10.00">cellType</text>
</a>
</g>
</g>
<!-- Node1&#45;&gt;Node2 -->
<g id="edge1" class="edge"><title>Node1&#45;&gt;Node2</title>
<path fill="none" stroke="midnightblue" d="M33.5639,-349.148C32.462,-387.669 33.5934,-526.663 102,-606 103.024,-607.188 104.112,-608.323 105.253,-609.407"/>
<polygon fill="midnightblue" stroke="midnightblue" points="103.438,-612.431 113.467,-615.849 107.758,-606.923 103.438,-612.431"/>
</g>
<!-- Node3 -->
<g id="node3" class="node"><title>Node3</title>
<g id="a_node3"><a xlink:href="classrc_movie_file_exp_ext.html#a01ea5d34c1a0121916cf667c9cbcf30a" target="_top" xlink:title="rcMovieFileExpExt::CO2">
<polygon fill="white" stroke="black" points="102.542,-577 102.542,-597 227.458,-597 227.458,-577 102.542,-577"/>
<text text-anchor="middle" x="165" y="-583" font-family="Helvetica,sans-Serif" font-size="10.00">rcMovieFileExpExt::CO2</text>
</a>
</g>
</g>
<!-- Node1&#45;&gt;Node3 -->
<g id="edge2" class="edge"><title>Node1&#45;&gt;Node3</title>
<path fill="none" stroke="midnightblue" d="M33.8924,-349.288C34.0945,-384.751 39.6148,-503.215 102,-567 103.638,-568.675 105.418,-570.21 107.305,-571.617"/>
<polygon fill="midnightblue" stroke="midnightblue" points="105.797,-574.796 116.16,-576.998 109.432,-568.814 105.797,-574.796"/>
</g>
<!-- Node4 -->
<g id="node4" class="node"><title>Node4</title>
<g id="a_node4"><a xlink:href="classrc_movie_file_exp_ext.html#a0afcd9b55e9d14fde7242d4dfcb1ea93" target="_top" xlink:title="rcMovieFileExpExt::\lcomment">
<polygon fill="white" stroke="black" points="112.823,-526 112.823,-558 217.177,-558 217.177,-526 112.823,-526"/>
<text text-anchor="start" x="120.823" y="-544" font-family="Helvetica,sans-Serif" font-size="10.00">rcMovieFileExpExt::</text>
<text text-anchor="middle" x="165" y="-532" font-family="Helvetica,sans-Serif" font-size="10.00">comment</text>
</a>
</g>
</g>
<!-- Node1&#45;&gt;Node4 -->
<g id="edge3" class="edge"><title>Node1&#45;&gt;Node4</title>
<path fill="none" stroke="midnightblue" d="M35.135,-349.285C38.943,-379.064 53.8637,-466.383 102,-516 103.402,-517.445 104.897,-518.814 106.465,-520.109"/>
<polygon fill="midnightblue" stroke="midnightblue" points="104.641,-523.105 114.833,-525.996 108.668,-517.38 104.641,-523.105"/>
</g>
<!-- Node5 -->
<g id="node5" class="node"><title>Node5</title>
<g id="a_node5"><a xlink:href="textio_8cpp.html#a905a4c61e365d406069f00eb68db1ca5" target="_top" xlink:title="endl">
<polygon fill="white" stroke="black" points="147.547,-487 147.547,-507 182.453,-507 182.453,-487 147.547,-487"/>
<text text-anchor="middle" x="165" y="-493" font-family="Helvetica,sans-Serif" font-size="10.00">endl</text>
</a>
</g>
</g>
<!-- Node1&#45;&gt;Node5 -->
<g id="edge4" class="edge"><title>Node1&#45;&gt;Node5</title>
<path fill="none" stroke="midnightblue" d="M36.1736,-349.359C42.0691,-374.898 60.7686,-441.381 102,-477 111.929,-485.578 125.592,-490.489 137.566,-493.294"/>
<polygon fill="midnightblue" stroke="midnightblue" points="137.028,-496.756 147.517,-495.257 138.383,-489.888 137.028,-496.756"/>
</g>
<!-- Node17 -->
<g id="node17" class="node"><title>Node17</title>
<g id="a_node17"><a xlink:href="classrc_movie_file_exp_ext.html#a7c5a5195df8aba3ddb6ad6c5adca03e0" target="_top" xlink:title="rcMovieFileExpExt::id">
<polygon fill="white" stroke="black" points="108.931,-448 108.931,-468 221.069,-468 221.069,-448 108.931,-448"/>
<text text-anchor="middle" x="165" y="-454" font-family="Helvetica,sans-Serif" font-size="10.00">rcMovieFileExpExt::id</text>
</a>
</g>
</g>
<!-- Node1&#45;&gt;Node17 -->
<g id="edge16" class="edge"><title>Node1&#45;&gt;Node17</title>
<path fill="none" stroke="midnightblue" d="M38.1896,-349.045C47.0087,-368.979 69.3985,-413.702 102,-438 104.806,-440.091 107.838,-441.969 111.003,-443.654"/>
<polygon fill="midnightblue" stroke="midnightblue" points="109.645,-446.882 120.189,-447.912 112.588,-440.531 109.645,-446.882"/>
</g>
<!-- Node18 -->
<g id="node18" class="node"><title>Node18</title>
<g id="a_node18"><a xlink:href="classrc_movie_file_exp_ext.html#ac30474e069ead6e7d441b8003d7b4bc6" target="_top" xlink:title="rcMovieFileExpExt::\limagingMode">
<polygon fill="white" stroke="black" points="112.823,-397 112.823,-429 217.177,-429 217.177,-397 112.823,-397"/>
<text text-anchor="start" x="120.823" y="-415" font-family="Helvetica,sans-Serif" font-size="10.00">rcMovieFileExpExt::</text>
<text text-anchor="middle" x="165" y="-403" font-family="Helvetica,sans-Serif" font-size="10.00">imagingMode</text>
</a>
</g>
</g>
<!-- Node1&#45;&gt;Node18 -->
<g id="edge17" class="edge"><title>Node1&#45;&gt;Node18</title>
<path fill="none" stroke="midnightblue" d="M46.4889,-349.074C59.731,-359.448 81.5223,-375.656 102,-387 105.462,-388.918 109.094,-390.784 112.791,-392.578"/>
<polygon fill="midnightblue" stroke="midnightblue" points="111.51,-395.842 122.054,-396.878 114.458,-389.492 111.51,-395.842"/>
</g>
<!-- Node19 -->
<g id="node19" class="node"><title>Node19</title>
<g id="a_node19"><a xlink:href="classrc_movie_file_exp_ext.html#a4bb3a60c8df7d75c492f98c185ed4015" target="_top" xlink:title="rcMovieFileExpExt::\llensMag">
<polygon fill="white" stroke="black" points="112.823,-346 112.823,-378 217.177,-378 217.177,-346 112.823,-346"/>
<text text-anchor="start" x="120.823" y="-364" font-family="Helvetica,sans-Serif" font-size="10.00">rcMovieFileExpExt::</text>
<text text-anchor="middle" x="165" y="-352" font-family="Helvetica,sans-Serif" font-size="10.00">lensMag</text>
</a>
</g>
</g>
<!-- Node1&#45;&gt;Node19 -->
<g id="edge18" class="edge"><title>Node1&#45;&gt;Node19</title>
<path fill="none" stroke="midnightblue" d="M65.4694,-344.568C76.6758,-346.55 89.7134,-348.857 102.565,-351.131"/>
<polygon fill="midnightblue" stroke="midnightblue" points="102.336,-354.644 112.793,-352.94 103.555,-347.751 102.336,-354.644"/>
</g>
<!-- Node20 -->
<g id="node20" class="node"><title>Node20</title>
<g id="a_node20"><a xlink:href="classrc_movie_file_exp_ext.html#af9ae87e6e448a862b6b0a4b8c7fccf01" target="_top" xlink:title="rcMovieFileExpExt::O2">
<polygon fill="white" stroke="black" points="106.153,-307 106.153,-327 223.847,-327 223.847,-307 106.153,-307"/>
<text text-anchor="middle" x="165" y="-313" font-family="Helvetica,sans-Serif" font-size="10.00">rcMovieFileExpExt::O2</text>
</a>
</g>
</g>
<!-- Node1&#45;&gt;Node20 -->
<g id="edge19" class="edge"><title>Node1&#45;&gt;Node20</title>
<path fill="none" stroke="midnightblue" d="M65.4694,-333.674C74.8471,-332.087 85.5072,-330.283 96.2672,-328.462"/>
<polygon fill="midnightblue" stroke="midnightblue" points="96.8674,-331.911 106.143,-326.791 95.6993,-325.009 96.8674,-331.911"/>
</g>
<!-- Node21 -->
<g id="node21" class="node"><title>Node21</title>
<g id="a_node21"><a xlink:href="classrc_movie_file_exp_ext.html#a3b1088c039c012d397df105142b7165d" target="_top" xlink:title="rcMovieFileExpExt::\lotherMag">
<polygon fill="white" stroke="black" points="112.823,-256 112.823,-288 217.177,-288 217.177,-256 112.823,-256"/>
<text text-anchor="start" x="120.823" y="-274" font-family="Helvetica,sans-Serif" font-size="10.00">rcMovieFileExpExt::</text>
<text text-anchor="middle" x="165" y="-262" font-family="Helvetica,sans-Serif" font-size="10.00">otherMag</text>
</a>
</g>
</g>
<!-- Node1&#45;&gt;Node21 -->
<g id="edge20" class="edge"><title>Node1&#45;&gt;Node21</title>
<path fill="none" stroke="midnightblue" d="M49.2991,-328.895C62.8471,-320.162 83.3166,-307.487 102,-298 105.805,-296.068 109.788,-294.157 113.82,-292.302"/>
<polygon fill="midnightblue" stroke="midnightblue" points="115.555,-295.36 123.258,-288.087 112.7,-288.969 115.555,-295.36"/>
</g>
<!-- Node22 -->
<g id="node22" class="node"><title>Node22</title>
<g id="a_node22"><a xlink:href="classrc_movie_file_exp_ext.html#aebb3c60d628a6c0c73964aab31edf92e" target="_top" xlink:title="rcMovieFileExpExt::\ltemperature">
<polygon fill="white" stroke="black" points="112.823,-205 112.823,-237 217.177,-237 217.177,-205 112.823,-205"/>
<text text-anchor="start" x="120.823" y="-223" font-family="Helvetica,sans-Serif" font-size="10.00">rcMovieFileExpExt::</text>
<text text-anchor="middle" x="165" y="-211" font-family="Helvetica,sans-Serif" font-size="10.00">temperature</text>
</a>
</g>
</g>
<!-- Node1&#45;&gt;Node22 -->
<g id="edge21" class="edge"><title>Node1&#45;&gt;Node22</title>
<path fill="none" stroke="midnightblue" d="M39.1549,-328.75C48.9962,-310.11 72.1638,-270.429 102,-247 104.088,-245.36 106.295,-243.806 108.583,-242.336"/>
<polygon fill="midnightblue" stroke="midnightblue" points="110.805,-245.096 117.729,-237.077 107.315,-239.028 110.805,-245.096"/>
</g>
<!-- Node23 -->
<g id="node23" class="node"><title>Node23</title>
<g id="a_node23"><a xlink:href="classrc_movie_file_exp_ext.html#a99e3fc69513168650d8f6b685595b95c" target="_top" xlink:title="rcMovieFileExpExt::\ltitle">
<polygon fill="white" stroke="black" points="112.823,-154 112.823,-186 217.177,-186 217.177,-154 112.823,-154"/>
<text text-anchor="start" x="120.823" y="-172" font-family="Helvetica,sans-Serif" font-size="10.00">rcMovieFileExpExt::</text>
<text text-anchor="middle" x="165" y="-160" font-family="Helvetica,sans-Serif" font-size="10.00">title</text>
</a>
</g>
</g>
<!-- Node1&#45;&gt;Node23 -->
<g id="edge22" class="edge"><title>Node1&#45;&gt;Node23</title>
<path fill="none" stroke="midnightblue" d="M36.1667,-328.867C42.1504,-303.2 61.2294,-234.906 102,-196 103.488,-194.58 105.066,-193.232 106.712,-191.953"/>
<polygon fill="midnightblue" stroke="midnightblue" points="109.07,-194.587 115.438,-186.12 105.179,-188.768 109.07,-194.587"/>
</g>
<!-- Node24 -->
<g id="node24" class="node"><title>Node24</title>
<g id="a_node24"><a xlink:href="classrc_movie_file_exp_ext.html#ac867b4ee5f5bc52873258751582f6b7f" target="_top" xlink:title="rcMovieFileExpExt::\ltreatment1">
<polygon fill="white" stroke="black" points="112.823,-103 112.823,-135 217.177,-135 217.177,-103 112.823,-103"/>
<text text-anchor="start" x="120.823" y="-121" font-family="Helvetica,sans-Serif" font-size="10.00">rcMovieFileExpExt::</text>
<text text-anchor="middle" x="165" y="-109" font-family="Helvetica,sans-Serif" font-size="10.00">treatment1</text>
</a>
</g>
</g>
<!-- Node1&#45;&gt;Node24 -->
<g id="edge23" class="edge"><title>Node1&#45;&gt;Node24</title>
<path fill="none" stroke="midnightblue" d="M34.7386,-328.659C37.5346,-296.977 50.1262,-200.08 102,-145 103.238,-143.686 104.552,-142.435 105.93,-141.246"/>
<polygon fill="midnightblue" stroke="midnightblue" points="108.382,-143.791 114.413,-135.08 104.266,-138.128 108.382,-143.791"/>
</g>
<!-- Node25 -->
<g id="node25" class="node"><title>Node25</title>
<g id="a_node25"><a xlink:href="classrc_movie_file_exp_ext.html#a8a0e76b66aad868a8d8ae8e5ecea94ae" target="_top" xlink:title="rcMovieFileExpExt::\ltreatment2">
<polygon fill="white" stroke="black" points="112.823,-52 112.823,-84 217.177,-84 217.177,-52 112.823,-52"/>
<text text-anchor="start" x="120.823" y="-70" font-family="Helvetica,sans-Serif" font-size="10.00">rcMovieFileExpExt::</text>
<text text-anchor="middle" x="165" y="-58" font-family="Helvetica,sans-Serif" font-size="10.00">treatment2</text>
</a>
</g>
</g>
<!-- Node1&#45;&gt;Node25 -->
<g id="edge24" class="edge"><title>Node1&#45;&gt;Node25</title>
<path fill="none" stroke="midnightblue" d="M33.8449,-328.931C33.8251,-292.518 38.5317,-166.04 102,-94 103.167,-92.6754 104.413,-91.4165 105.723,-90.2202"/>
<polygon fill="midnightblue" stroke="midnightblue" points="108.014,-92.8748 113.85,-84.0317 103.773,-87.3057 108.014,-92.8748"/>
</g>
<!-- Node26 -->
<g id="node26" class="node"><title>Node26</title>
<g id="a_node26"><a xlink:href="classrc_movie_file_exp_ext.html#af77fed832a92517a29fd7bc4d6844f46" target="_top" xlink:title="rcMovieFileExpExt::\luserName">
<polygon fill="white" stroke="black" points="112.823,-1 112.823,-33 217.177,-33 217.177,-1 112.823,-1"/>
<text text-anchor="start" x="120.823" y="-19" font-family="Helvetica,sans-Serif" font-size="10.00">rcMovieFileExpExt::</text>
<text text-anchor="middle" x="165" y="-7" font-family="Helvetica,sans-Serif" font-size="10.00">userName</text>
</a>
</g>
</g>
<!-- Node1&#45;&gt;Node26 -->
<g id="edge25" class="edge"><title>Node1&#45;&gt;Node26</title>
<path fill="none" stroke="midnightblue" d="M35.1039,-328.715C40.3241,-281.78 63.8816,-88.2774 102,-43 103.01,-41.8002 104.085,-40.6546 105.215,-39.5611"/>
<polygon fill="midnightblue" stroke="midnightblue" points="107.726,-42.0361 113.373,-33.0718 103.368,-36.5579 107.726,-42.0361"/>
</g>
<!-- Node6 -->
<g id="node6" class="node"><title>Node6</title>
<g id="a_node6"><a xlink:href="classotext.html#a5086c0fd5e3f551eae3027e5d23d3c30" target="_top" xlink:title="otext::put">
<polygon fill="white" stroke="black" points="264.431,-487 264.431,-507 321.569,-507 321.569,-487 264.431,-487"/>
<text text-anchor="middle" x="293" y="-493" font-family="Helvetica,sans-Serif" font-size="10.00">otext::put</text>
</a>
</g>
</g>
<!-- Node5&#45;&gt;Node6 -->
<g id="edge5" class="edge"><title>Node5&#45;&gt;Node6</title>
<path fill="none" stroke="midnightblue" d="M182.472,-497C200.486,-497 229.965,-497 253.805,-497"/>
<polygon fill="midnightblue" stroke="midnightblue" points="253.963,-500.5 263.963,-497 253.963,-493.5 253.963,-500.5"/>
</g>
<!-- Node7 -->
<g id="node7" class="node"><title>Node7</title>
<g id="a_node7"><a xlink:href="classotext.html#a2a2435d80cce60cb88360c7bfe3f8445" target="_top" xlink:title="otext::set_error">
<polygon fill="white" stroke="black" points="370.375,-585 370.375,-605 453.625,-605 453.625,-585 370.375,-585"/>
<text text-anchor="middle" x="412" y="-591" font-family="Helvetica,sans-Serif" font-size="10.00">otext::set_error</text>
</a>
</g>
</g>
<!-- Node6&#45;&gt;Node7 -->
<g id="edge6" class="edge"><title>Node6&#45;&gt;Node7</title>
<path fill="none" stroke="midnightblue" d="M299.8,-507.047C309.737,-523.439 331.526,-556.01 358,-575 360.843,-577.039 363.92,-578.898 367.11,-580.587"/>
<polygon fill="midnightblue" stroke="midnightblue" points="365.763,-583.822 376.302,-584.907 368.74,-577.486 365.763,-583.822"/>
</g>
<!-- Node11 -->
<g id="node11" class="node"><title>Node11</title>
<g id="a_node11"><a xlink:href="classobuff.html#a5bbb61ac15c672da7f7b2002bef6b128" target="_top" xlink:title="obuff::put">
<polygon fill="white" stroke="black" points="383.238,-546 383.238,-566 440.762,-566 440.762,-546 383.238,-546"/>
<text text-anchor="middle" x="412" y="-552" font-family="Helvetica,sans-Serif" font-size="10.00">obuff::put</text>
</a>
</g>
</g>
<!-- Node6&#45;&gt;Node11 -->
<g id="edge10" class="edge"><title>Node6&#45;&gt;Node11</title>
<path fill="none" stroke="midnightblue" d="M308.81,-507.119C321.502,-515.521 340.46,-527.439 358,-536 362.971,-538.426 368.317,-540.752 373.632,-542.904"/>
<polygon fill="midnightblue" stroke="midnightblue" points="372.491,-546.216 383.08,-546.575 375.026,-539.691 372.491,-546.216"/>
</g>
<!-- Node12 -->
<g id="node12" class="node"><title>Node12</title>
<g id="a_node12"><a xlink:href="classobuff.html#a069bcd2767c0d7c8e2bc8cd26d91e267" target="_top" xlink:title="obuff::increment">
<polygon fill="white" stroke="black" points="368.236,-507 368.236,-527 455.764,-527 455.764,-507 368.236,-507"/>
<text text-anchor="middle" x="412" y="-513" font-family="Helvetica,sans-Serif" font-size="10.00">obuff::increment</text>
</a>
</g>
</g>
<!-- Node6&#45;&gt;Node12 -->
<g id="edge11" class="edge"><title>Node6&#45;&gt;Node12</title>
<path fill="none" stroke="midnightblue" d="M321.727,-501.74C332.605,-503.599 345.467,-505.798 357.99,-507.938"/>
<polygon fill="midnightblue" stroke="midnightblue" points="357.47,-511.4 367.916,-509.635 358.649,-504.5 357.47,-511.4"/>
</g>
<!-- Node13 -->
<g id="node13" class="node"><title>Node13</title>
<g id="a_node13"><a xlink:href="classobuff.html#a0711113beee11f9793f5ba9e8e64c641" target="_top" xlink:title="obuff::newline_mode">
<polygon fill="white" stroke="black" points="357.945,-468 357.945,-488 466.055,-488 466.055,-468 357.945,-468"/>
<text text-anchor="middle" x="412" y="-474" font-family="Helvetica,sans-Serif" font-size="10.00">obuff::newline_mode</text>
</a>
</g>
</g>
<!-- Node6&#45;&gt;Node13 -->
<g id="edge12" class="edge"><title>Node6&#45;&gt;Node13</title>
<path fill="none" stroke="midnightblue" d="M321.727,-492.497C329.667,-491.208 338.665,-489.747 347.816,-488.261"/>
<polygon fill="midnightblue" stroke="midnightblue" points="348.454,-491.703 357.764,-486.645 347.332,-484.793 348.454,-491.703"/>
</g>
<!-- Node14 -->
<g id="node14" class="node"><title>Node14</title>
<g id="a_node14"><a xlink:href="classobuff.html#a51efd4e8e00303842fa762940aad86ec" target="_top" xlink:title="obuff::line_buffer">
<polygon fill="white" stroke="black" points="366.927,-429 366.927,-449 457.073,-449 457.073,-429 366.927,-429"/>
<text text-anchor="middle" x="412" y="-435" font-family="Helvetica,sans-Serif" font-size="10.00">obuff::line_buffer</text>
</a>
</g>
</g>
<!-- Node6&#45;&gt;Node14 -->
<g id="edge13" class="edge"><title>Node6&#45;&gt;Node14</title>
<path fill="none" stroke="midnightblue" d="M309.359,-486.843C322.068,-478.695 340.765,-467.29 358,-459 362.42,-456.874 367.13,-454.817 371.848,-452.883"/>
<polygon fill="midnightblue" stroke="midnightblue" points="373.432,-456.022 381.456,-449.104 370.869,-449.507 373.432,-456.022"/>
</g>
<!-- Node15 -->
<g id="node15" class="node"><title>Node15</title>
<g id="a_node15"><a xlink:href="classotext.html#ab52b059090ba70eeeac469f9051d3a22" target="_top" xlink:title="otext::flush">
<polygon fill="white" stroke="black" points="379.82,-390 379.82,-410 444.18,-410 444.18,-390 379.82,-390"/>
<text text-anchor="middle" x="412" y="-396" font-family="Helvetica,sans-Serif" font-size="10.00">otext::flush</text>
</a>
</g>
</g>
<!-- Node6&#45;&gt;Node15 -->
<g id="edge14" class="edge"><title>Node6&#45;&gt;Node15</title>
<path fill="none" stroke="midnightblue" d="M299.994,-486.823C310.05,-470.563 331.81,-438.661 358,-420 361.751,-417.328 365.903,-414.964 370.184,-412.885"/>
<polygon fill="midnightblue" stroke="midnightblue" points="371.872,-415.968 379.655,-408.78 369.088,-409.545 371.872,-415.968"/>
</g>
<!-- Node8 -->
<g id="node8" class="node"><title>Node8</title>
<g id="a_node8"><a xlink:href="classobuff.html#ae388e9608d1c873d1feaf621f4044c25" target="_top" xlink:title="obuff::set_error">
<polygon fill="white" stroke="black" points="502.182,-585 502.182,-605 585.818,-605 585.818,-585 502.182,-585"/>
<text text-anchor="middle" x="544" y="-591" font-family="Helvetica,sans-Serif" font-size="10.00">obuff::set_error</text>
</a>
</g>
</g>
<!-- Node7&#45;&gt;Node8 -->
<g id="edge7" class="edge"><title>Node7&#45;&gt;Node8</title>
<path fill="none" stroke="midnightblue" d="M453.776,-595C465.76,-595 479.026,-595 491.583,-595"/>
<polygon fill="midnightblue" stroke="midnightblue" points="491.922,-598.5 501.922,-595 491.922,-591.5 491.922,-598.5"/>
</g>
<!-- Node9 -->
<g id="node9" class="node"><title>Node9</title>
<g id="a_node9"><a xlink:href="class_t_c_p__client__data.html#a970f6bf6bb6e6166615813c5f7768381" target="_top" xlink:title="TCP_client_data::error">
<polygon fill="white" stroke="black" points="622.7,-585 622.7,-605 739.3,-605 739.3,-585 622.7,-585"/>
<text text-anchor="middle" x="681" y="-591" font-family="Helvetica,sans-Serif" font-size="10.00">TCP_client_data::error</text>
</a>
</g>
</g>
<!-- Node8&#45;&gt;Node9 -->
<g id="edge8" class="edge"><title>Node8&#45;&gt;Node9</title>
<path fill="none" stroke="midnightblue" d="M585.871,-595C594.216,-595 603.208,-595 612.206,-595"/>
<polygon fill="midnightblue" stroke="midnightblue" points="612.335,-598.5 622.335,-595 612.335,-591.5 612.335,-598.5"/>
</g>
<!-- Node10 -->
<g id="node10" class="node"><title>Node10</title>
<g id="a_node10"><a xlink:href="class_t_c_p__socket.html#adb70059ca46476efe0ced51ed377a975" target="_top" xlink:title="TCP_socket::error">
<polygon fill="white" stroke="black" points="776.434,-585 776.434,-605 873.566,-605 873.566,-585 776.434,-585"/>
<text text-anchor="middle" x="825" y="-591" font-family="Helvetica,sans-Serif" font-size="10.00">TCP_socket::error</text>
</a>
</g>
</g>
<!-- Node9&#45;&gt;Node10 -->
<g id="edge9" class="edge"><title>Node9&#45;&gt;Node10</title>
<path fill="none" stroke="midnightblue" d="M739.348,-595C748.089,-595 757.117,-595 765.875,-595"/>
<polygon fill="midnightblue" stroke="midnightblue" points="765.998,-598.5 775.998,-595 765.998,-591.5 765.998,-598.5"/>
</g>
<!-- Node16 -->
<g id="node16" class="node"><title>Node16</title>
<g id="a_node16"><a xlink:href="classobuff.html#a8fb8969c450f4fdc037f8c51d35c87c7" target="_top" xlink:title="obuff::flush">
<polygon fill="white" stroke="black" points="511.627,-390 511.627,-410 576.373,-410 576.373,-390 511.627,-390"/>
<text text-anchor="middle" x="544" y="-396" font-family="Helvetica,sans-Serif" font-size="10.00">obuff::flush</text>
</a>
</g>
</g>
<!-- Node15&#45;&gt;Node16 -->
<g id="edge15" class="edge"><title>Node15&#45;&gt;Node16</title>
<path fill="none" stroke="midnightblue" d="M444.469,-400C461.509,-400 482.782,-400 501.196,-400"/>
<polygon fill="midnightblue" stroke="midnightblue" points="501.37,-403.5 511.37,-400 501.37,-396.5 501.37,-403.5"/>
</g>
</g>
</svg>
