<?xml version="1.0" encoding="UTF-8" standalone="no"?>
<!DOCTYPE svg PUBLIC "-//W3C//DTD SVG 1.1//EN"
 "http://www.w3.org/Graphics/SVG/1.1/DTD/svg11.dtd">
<!-- Generated by graphviz version 2.32.0 (20130916.1925)
 -->
<!-- Title: rc_fill_poly Pages: 1 -->
<svg width="1282pt" height="508pt"
 viewBox="0.00 0.00 1282.00 508.00" xmlns="http://www.w3.org/2000/svg" xmlns:xlink="http://www.w3.org/1999/xlink">
<g id="graph0" class="graph" transform="scale(1 1) rotate(0) translate(4 504)">
<title>rc_fill_poly</title>
<polygon fill="white" stroke="white" points="-4,5 -4,-504 1279,-504 1279,5 -4,5"/>
<!-- Node1 -->
<g id="node1" class="node"><title>Node1</title>
<polygon fill="#bfbfbf" stroke="black" points="0.379395,-214 0.379395,-234 63.6206,-234 63.6206,-214 0.379395,-214"/>
<text text-anchor="middle" x="32" y="-220" font-family="Helvetica,sans-Serif" font-size="10.00">rc_fill_poly</text>
</g>
<!-- Node2 -->
<g id="node2" class="node"><title>Node2</title>
<g id="a_node2"><a xlink:href="rc__fill_8cpp.html#a4ccfc8f15382b152a75e72b6047efdff" target="_top" xlink:title="bndry_fract">
<polygon fill="white" stroke="black" points="123.988,-371 123.988,-391 190.012,-391 190.012,-371 123.988,-371"/>
<text text-anchor="middle" x="157" y="-377" font-family="Helvetica,sans-Serif" font-size="10.00">bndry_fract</text>
</a>
</g>
</g>
<!-- Node1&#45;&gt;Node2 -->
<g id="edge1" class="edge"><title>Node1&#45;&gt;Node2</title>
<path fill="none" stroke="midnightblue" d="M36.1141,-234.032C43.6941,-257.067 65.0853,-314.492 100,-350 106.216,-356.322 113.996,-361.714 121.763,-366.142"/>
<polygon fill="midnightblue" stroke="midnightblue" points="120.3,-369.327 130.778,-370.895 123.565,-363.135 120.3,-369.327"/>
</g>
<!-- Node4 -->
<g id="node4" class="node"><title>Node4</title>
<g id="a_node4"><a xlink:href="rc__fill_8cpp.html#a94235a51c6359ac0ea37baf89df53699" target="_top" xlink:title="clip_polygon_to_pel">
<polygon fill="white" stroke="black" points="104.798,-474 104.798,-494 209.202,-494 209.202,-474 104.798,-474"/>
<text text-anchor="middle" x="157" y="-480" font-family="Helvetica,sans-Serif" font-size="10.00">clip_polygon_to_pel</text>
</a>
</g>
</g>
<!-- Node1&#45;&gt;Node4 -->
<g id="edge3" class="edge"><title>Node1&#45;&gt;Node4</title>
<path fill="none" stroke="midnightblue" d="M33.1531,-234.124C34.1983,-269.086 42.0691,-386.399 100,-456 104.392,-461.276 110.025,-465.654 116.02,-469.254"/>
<polygon fill="midnightblue" stroke="midnightblue" points="114.483,-472.401 124.959,-473.988 117.759,-466.215 114.483,-472.401"/>
</g>
<!-- Node5 -->
<g id="node5" class="node"><title>Node5</title>
<g id="a_node5"><a xlink:href="rc__fill_8cpp.html#a76ab3fb5a70dcd3a1587154bbbf69d0d" target="_top" xlink:title="dump_poly">
<polygon fill="white" stroke="black" points="271.54,-480 271.54,-500 336.46,-500 336.46,-480 271.54,-480"/>
<text text-anchor="middle" x="304" y="-486" font-family="Helvetica,sans-Serif" font-size="10.00">dump_poly</text>
</a>
</g>
</g>
<!-- Node1&#45;&gt;Node5 -->
<g id="edge44" class="edge"><title>Node1&#45;&gt;Node5</title>
<path fill="none" stroke="midnightblue" d="M34.1374,-234.179C37.941,-263.659 52.7684,-350.168 100,-400 123.42,-424.709 211.148,-458.162 263.303,-476.533"/>
<polygon fill="midnightblue" stroke="midnightblue" points="262.322,-479.897 272.917,-479.89 264.63,-473.289 262.322,-479.897"/>
</g>
<!-- Node6 -->
<g id="node6" class="node"><title>Node6</title>
<g id="a_node6"><a xlink:href="visimatch_8cpp.html#abea96fc3f275f63d37b25085d6598bf4" target="_top" xlink:title="color">
<polygon fill="white" stroke="black" points="138.163,-321 138.163,-341 175.837,-341 175.837,-321 138.163,-321"/>
<text text-anchor="middle" x="157" y="-327" font-family="Helvetica,sans-Serif" font-size="10.00">color</text>
</a>
</g>
</g>
<!-- Node1&#45;&gt;Node6 -->
<g id="edge6" class="edge"><title>Node1&#45;&gt;Node6</title>
<path fill="none" stroke="midnightblue" d="M40.8788,-234.289C52.6611,-249.251 76.0587,-277.363 100,-297 108.93,-304.325 119.587,-311.188 129.196,-316.804"/>
<polygon fill="midnightblue" stroke="midnightblue" points="127.569,-319.905 137.996,-321.78 131.014,-313.811 127.569,-319.905"/>
</g>
<!-- Node30 -->
<g id="node30" class="node"><title>Node30</title>
<g id="a_node30"><a xlink:href="rc__fill_8cpp.html#ad19dfb6c3f3fbab67b8ec4b289fedd0a" target="_top" xlink:title="coords_to_poly">
<polygon fill="white" stroke="black" points="115.089,-234 115.089,-254 198.911,-254 198.911,-234 115.089,-234"/>
<text text-anchor="middle" x="157" y="-240" font-family="Helvetica,sans-Serif" font-size="10.00">coords_to_poly</text>
</a>
</g>
</g>
<!-- Node1&#45;&gt;Node30 -->
<g id="edge42" class="edge"><title>Node1&#45;&gt;Node30</title>
<path fill="none" stroke="midnightblue" d="M63.7208,-228.995C76.2031,-231.025 90.9645,-233.425 104.978,-235.704"/>
<polygon fill="midnightblue" stroke="midnightblue" points="104.575,-239.184 115.007,-237.334 105.698,-232.275 104.575,-239.184"/>
</g>
<!-- Node31 -->
<g id="node31" class="node"><title>Node31</title>
<g id="a_node31"><a xlink:href="rc__fill_8cpp.html#aaed887d1d4e6e704a268375735014d40" target="_top" xlink:title="polygon_area">
<polygon fill="white" stroke="black" points="265.697,-273 265.697,-293 342.303,-293 342.303,-273 265.697,-273"/>
<text text-anchor="middle" x="304" y="-279" font-family="Helvetica,sans-Serif" font-size="10.00">polygon_area</text>
</a>
</g>
</g>
<!-- Node1&#45;&gt;Node31 -->
<g id="edge53" class="edge"><title>Node1&#45;&gt;Node31</title>
<path fill="none" stroke="midnightblue" d="M46.5379,-234.247C59.5125,-243.472 80.0219,-256.541 100,-263 151.256,-279.57 213.27,-283.51 255.162,-283.979"/>
<polygon fill="midnightblue" stroke="midnightblue" points="255.343,-287.48 265.36,-284.029 255.378,-280.48 255.343,-287.48"/>
</g>
<!-- Node32 -->
<g id="node32" class="node"><title>Node32</title>
<g id="a_node32"><a xlink:href="classrc_window.html#aefce9967e3b610e442ec2392b06e147f" target="_top" xlink:title="rcWindow::getPixel">
<polygon fill="white" stroke="black" points="106.485,-156 106.485,-176 207.515,-176 207.515,-156 106.485,-156"/>
<text text-anchor="middle" x="157" y="-162" font-family="Helvetica,sans-Serif" font-size="10.00">rcWindow::getPixel</text>
</a>
</g>
</g>
<!-- Node1&#45;&gt;Node32 -->
<g id="edge45" class="edge"><title>Node1&#45;&gt;Node32</title>
<path fill="none" stroke="midnightblue" d="M48.8355,-213.982C62.1595,-205.808 81.8844,-194.297 100,-186 104.805,-183.8 109.927,-181.68 115.047,-179.696"/>
<polygon fill="midnightblue" stroke="midnightblue" points="116.657,-182.831 124.809,-176.063 114.216,-176.271 116.657,-182.831"/>
</g>
<!-- Node39 -->
<g id="node39" class="node"><title>Node39</title>
<g id="a_node39"><a xlink:href="classrc_window.html#a958e7e0bd74b12cbcb44e73a2692400a" target="_top" xlink:title="rcWindow::height">
<polygon fill="white" stroke="black" points="110.65,-78 110.65,-98 203.35,-98 203.35,-78 110.65,-78"/>
<text text-anchor="middle" x="157" y="-84" font-family="Helvetica,sans-Serif" font-size="10.00">rcWindow::height</text>
</a>
</g>
</g>
<!-- Node1&#45;&gt;Node39 -->
<g id="edge52" class="edge"><title>Node1&#45;&gt;Node39</title>
<path fill="none" stroke="midnightblue" d="M36.199,-213.717C43.6855,-191.293 64.4544,-137.638 100,-108 102.267,-106.11 104.727,-104.392 107.307,-102.832"/>
<polygon fill="midnightblue" stroke="midnightblue" points="109.163,-105.813 116.442,-98.1146 105.951,-99.5931 109.163,-105.813"/>
</g>
<!-- Node40 -->
<g id="node40" class="node"><title>Node40</title>
<g id="a_node40"><a xlink:href="classrc_window.html#a232627a15bd75725861721177a38df82" target="_top" xlink:title="rcWindow::rowPointer">
<polygon fill="white" stroke="black" points="100.375,-117 100.375,-137 213.625,-137 213.625,-117 100.375,-117"/>
<text text-anchor="middle" x="157" y="-123" font-family="Helvetica,sans-Serif" font-size="10.00">rcWindow::rowPointer</text>
</a>
</g>
</g>
<!-- Node1&#45;&gt;Node40 -->
<g id="edge54" class="edge"><title>Node1&#45;&gt;Node40</title>
<path fill="none" stroke="midnightblue" d="M39.3539,-213.781C49.991,-197.462 72.9227,-165.48 100,-147 103.08,-144.898 106.407,-142.99 109.848,-141.265"/>
<polygon fill="midnightblue" stroke="midnightblue" points="111.434,-144.39 119.136,-137.114 108.578,-137.999 111.434,-144.39"/>
</g>
<!-- Node43 -->
<g id="node43" class="node"><title>Node43</title>
<g id="a_node43"><a xlink:href="classrc_window.html#a5cddcde6594113f6d8bb2dfb1f498c0a" target="_top" xlink:title="rcWindow::rowUpdate">
<polygon fill="white" stroke="black" points="100.094,-39 100.094,-59 213.906,-59 213.906,-39 100.094,-39"/>
<text text-anchor="middle" x="157" y="-45" font-family="Helvetica,sans-Serif" font-size="10.00">rcWindow::rowUpdate</text>
</a>
</g>
</g>
<!-- Node1&#45;&gt;Node43 -->
<g id="edge59" class="edge"><title>Node1&#45;&gt;Node43</title>
<path fill="none" stroke="midnightblue" d="M34.4348,-213.993C38.8866,-186.59 54.9787,-109.616 100,-68 101.47,-66.6411 103.041,-65.3789 104.689,-64.2067"/>
<polygon fill="midnightblue" stroke="midnightblue" points="106.605,-67.1407 113.461,-59.0632 103.064,-61.1022 106.605,-67.1407"/>
</g>
<!-- Node44 -->
<g id="node44" class="node"><title>Node44</title>
<g id="a_node44"><a xlink:href="classrc_window.html#a36bd7fdef6e5edc028aceb8656944034" target="_top" xlink:title="rcWindow::setPixel">
<polygon fill="white" stroke="black" points="106.766,-195 106.766,-215 207.234,-215 207.234,-195 106.766,-195"/>
<text text-anchor="middle" x="157" y="-201" font-family="Helvetica,sans-Serif" font-size="10.00">rcWindow::setPixel</text>
</a>
</g>
</g>
<!-- Node1&#45;&gt;Node44 -->
<g id="edge60" class="edge"><title>Node1&#45;&gt;Node44</title>
<path fill="none" stroke="midnightblue" d="M63.7208,-219.255C73.7371,-217.707 85.221,-215.933 96.6084,-214.174"/>
<polygon fill="midnightblue" stroke="midnightblue" points="97.2028,-217.624 106.551,-212.638 96.1342,-210.706 97.2028,-217.624"/>
</g>
<!-- Node46 -->
<g id="node46" class="node"><title>Node46</title>
<g id="a_node46"><a xlink:href="classrc_window.html#a0ae0c2adbe34085eb07c93edd60b342a" target="_top" xlink:title="rcWindow::width">
<polygon fill="white" stroke="black" points="112.601,-0 112.601,-20 201.399,-20 201.399,-0 112.601,-0"/>
<text text-anchor="middle" x="157" y="-6" font-family="Helvetica,sans-Serif" font-size="10.00">rcWindow::width</text>
</a>
</g>
</g>
<!-- Node1&#45;&gt;Node46 -->
<g id="edge65" class="edge"><title>Node1&#45;&gt;Node46</title>
<path fill="none" stroke="midnightblue" d="M33.4637,-213.898C35.4706,-182.071 45.9814,-82.8108 100,-29 101.25,-27.7547 102.585,-26.5909 103.987,-25.5034"/>
<polygon fill="midnightblue" stroke="midnightblue" points="106.031,-28.3529 112.639,-20.0713 102.309,-22.4245 106.031,-28.3529"/>
</g>
<!-- Node3 -->
<g id="node3" class="node"><title>Node3</title>
<g id="a_node3"><a xlink:href="rc__fill_8cpp.html#a4541d0c7e87a39fd57e0751d61c18500" target="_top" xlink:title="trunc_form">
<polygon fill="white" stroke="black" points="394.104,-460 394.104,-480 457.896,-480 457.896,-460 394.104,-460"/>
<text text-anchor="middle" x="426" y="-466" font-family="Helvetica,sans-Serif" font-size="10.00">trunc_form</text>
</a>
</g>
</g>
<!-- Node2&#45;&gt;Node3 -->
<g id="edge2" class="edge"><title>Node2&#45;&gt;Node3</title>
<path fill="none" stroke="midnightblue" d="M173.319,-391.065C191.083,-402.315 221.572,-420.347 250,-431 294.304,-447.603 347.689,-458.238 383.754,-464.14"/>
<polygon fill="midnightblue" stroke="midnightblue" points="383.478,-467.64 393.903,-465.751 384.575,-460.726 383.478,-467.64"/>
</g>
<!-- Node4&#45;&gt;Node5 -->
<g id="edge4" class="edge"><title>Node4&#45;&gt;Node5</title>
<path fill="none" stroke="midnightblue" d="M209.53,-486.132C226.49,-486.834 245.126,-487.605 261.265,-488.273"/>
<polygon fill="midnightblue" stroke="midnightblue" points="261.331,-491.779 271.467,-488.695 261.621,-484.785 261.331,-491.779"/>
</g>
<!-- Node5&#45;&gt;Node3 -->
<g id="edge5" class="edge"><title>Node5&#45;&gt;Node3</title>
<path fill="none" stroke="midnightblue" d="M336.529,-484.745C351.111,-482.315 368.615,-479.398 384.19,-476.802"/>
<polygon fill="midnightblue" stroke="midnightblue" points="384.809,-480.247 394.097,-475.15 383.658,-473.342 384.809,-480.247"/>
</g>
<!-- Node7 -->
<g id="node7" class="node"><title>Node7</title>
<g id="a_node7"><a xlink:href="classcli__parser.html#a733b08825a9e869f56b5e8b1c85ba5c5" target="_top" xlink:title="cli_parser::size">
<polygon fill="white" stroke="black" points="262.655,-402 262.655,-422 345.345,-422 345.345,-402 262.655,-402"/>
<text text-anchor="middle" x="304" y="-408" font-family="Helvetica,sans-Serif" font-size="10.00">cli_parser::size</text>
</a>
</g>
</g>
<!-- Node6&#45;&gt;Node7 -->
<g id="edge7" class="edge"><title>Node6&#45;&gt;Node7</title>
<path fill="none" stroke="midnightblue" d="M175.913,-339.811C187.165,-345.612 201.803,-353.653 214,-362 231.188,-373.763 232.007,-381.511 250,-392 253.68,-394.145 257.632,-396.137 261.658,-397.966"/>
<polygon fill="midnightblue" stroke="midnightblue" points="260.521,-401.285 271.096,-401.933 263.234,-394.832 260.521,-401.285"/>
</g>
<!-- Node8 -->
<g id="node8" class="node"><title>Node8</title>
<g id="a_node8"><a xlink:href="classcli__parser.html#a183aac4f38a81619dc8c0a2b3e857557" target="_top" xlink:title="cli_parser::name">
<polygon fill="white" stroke="black" points="259.04,-363 259.04,-383 348.96,-383 348.96,-363 259.04,-363"/>
<text text-anchor="middle" x="304" y="-369" font-family="Helvetica,sans-Serif" font-size="10.00">cli_parser::name</text>
</a>
</g>
</g>
<!-- Node6&#45;&gt;Node8 -->
<g id="edge8" class="edge"><title>Node6&#45;&gt;Node8</title>
<path fill="none" stroke="midnightblue" d="M176.071,-336.234C196.558,-342.169 230.71,-352.061 258.431,-360.09"/>
<polygon fill="midnightblue" stroke="midnightblue" points="257.737,-363.533 268.316,-362.954 259.684,-356.809 257.737,-363.533"/>
</g>
<!-- Node28 -->
<g id="node28" class="node"><title>Node28</title>
<g id="a_node28"><a xlink:href="classcli__parser.html#a04a0d33d8cfd8978f5006abfad40387f" target="_top" xlink:title="cli_parser::switch\l_value">
<polygon fill="white" stroke="black" points="257.655,-312 257.655,-344 350.345,-344 350.345,-312 257.655,-312"/>
<text text-anchor="start" x="265.655" y="-330" font-family="Helvetica,sans-Serif" font-size="10.00">cli_parser::switch</text>
<text text-anchor="middle" x="304" y="-318" font-family="Helvetica,sans-Serif" font-size="10.00">_value</text>
</a>
</g>
</g>
<!-- Node6&#45;&gt;Node28 -->
<g id="edge39" class="edge"><title>Node6&#45;&gt;Node28</title>
<path fill="none" stroke="midnightblue" d="M176.071,-330.626C193.887,-330.258 222.035,-329.675 247.303,-329.152"/>
<polygon fill="midnightblue" stroke="midnightblue" points="247.622,-332.647 257.548,-328.94 247.477,-325.648 247.622,-332.647"/>
</g>
<!-- Node9 -->
<g id="node9" class="node"><title>Node9</title>
<g id="a_node9"><a xlink:href="error__handler_8cpp.html#aac3be3c13a6d90b39f966b6e897c0744" target="_top" xlink:title="to_string">
<polygon fill="white" stroke="black" points="398.823,-360 398.823,-380 453.177,-380 453.177,-360 398.823,-360"/>
<text text-anchor="middle" x="426" y="-366" font-family="Helvetica,sans-Serif" font-size="10.00">to_string</text>
</a>
</g>
</g>
<!-- Node8&#45;&gt;Node9 -->
<g id="edge9" class="edge"><title>Node8&#45;&gt;Node9</title>
<path fill="none" stroke="midnightblue" d="M349.002,-371.9C362.067,-371.573 376.223,-371.219 388.737,-370.907"/>
<polygon fill="midnightblue" stroke="midnightblue" points="388.893,-374.404 398.802,-370.655 388.718,-367.406 388.893,-374.404"/>
</g>
<!-- Node9&#45;&gt;Node9 -->
<g id="edge38" class="edge"><title>Node9&#45;&gt;Node9</title>
<path fill="none" stroke="midnightblue" d="M406.9,-380.048C398.188,-388.771 404.555,-398 426,-398 439.403,-398 446.917,-394.395 448.54,-389.562"/>
<polygon fill="midnightblue" stroke="midnightblue" points="451.791,-388.262 445.1,-380.048 445.208,-390.642 451.791,-388.262"/>
</g>
<!-- Node10 -->
<g id="node10" class="node"><title>Node10</title>
<g id="a_node10"><a xlink:href="classerror__position.html#a3f7ed498a2a6aa5343334b17bbdf4bbf" target="_top" xlink:title="error_position::column">
<polygon fill="white" stroke="black" points="500.532,-419 500.532,-439 615.468,-439 615.468,-419 500.532,-419"/>
<text text-anchor="middle" x="558" y="-425" font-family="Helvetica,sans-Serif" font-size="10.00">error_position::column</text>
</a>
</g>
</g>
<!-- Node9&#45;&gt;Node10 -->
<g id="edge10" class="edge"><title>Node9&#45;&gt;Node10</title>
<path fill="none" stroke="midnightblue" d="M442.191,-380.144C455.449,-388.675 475.421,-400.764 494,-409 499.377,-411.383 505.125,-413.614 510.882,-415.658"/>
<polygon fill="midnightblue" stroke="midnightblue" points="509.918,-419.026 520.512,-418.914 512.16,-412.395 509.918,-419.026"/>
</g>
<!-- Node11 -->
<g id="node11" class="node"><title>Node11</title>
<g id="a_node11"><a xlink:href="classerror__position.html#ac4739e90b92106a85b0f8c76e9198daf" target="_top" xlink:title="error_position::filename">
<polygon fill="white" stroke="black" points="497.751,-380 497.751,-400 618.249,-400 618.249,-380 497.751,-380"/>
<text text-anchor="middle" x="558" y="-386" font-family="Helvetica,sans-Serif" font-size="10.00">error_position::filename</text>
</a>
</g>
</g>
<!-- Node9&#45;&gt;Node11 -->
<g id="edge11" class="edge"><title>Node9&#45;&gt;Node11</title>
<path fill="none" stroke="midnightblue" d="M453.307,-374.047C463.335,-375.59 475.294,-377.43 487.466,-379.303"/>
<polygon fill="midnightblue" stroke="midnightblue" points="487.287,-382.816 497.703,-380.877 488.352,-375.897 487.287,-382.816"/>
</g>
<!-- Node12 -->
<g id="node12" class="node"><title>Node12</title>
<g id="a_node12"><a xlink:href="file__system_8cpp.html#a6982b54d454c07cc3f770f67c5d0b5ef" target="_top" xlink:title="filespec_to_relative_path">
<polygon fill="white" stroke="black" points="494.685,-341 494.685,-361 621.315,-361 621.315,-341 494.685,-341"/>
<text text-anchor="middle" x="558" y="-347" font-family="Helvetica,sans-Serif" font-size="10.00">filespec_to_relative_path</text>
</a>
</g>
</g>
<!-- Node9&#45;&gt;Node12 -->
<g id="edge12" class="edge"><title>Node9&#45;&gt;Node12</title>
<path fill="none" stroke="midnightblue" d="M453.307,-366.155C462.453,-364.818 473.205,-363.247 484.26,-361.631"/>
<polygon fill="midnightblue" stroke="midnightblue" points="485.071,-365.05 494.46,-360.14 484.059,-358.123 485.071,-365.05"/>
</g>
<!-- Node27 -->
<g id="node27" class="node"><title>Node27</title>
<g id="a_node27"><a xlink:href="classerror__position.html#af47fc5beec407412df713d56814af6fe" target="_top" xlink:title="error_position::line">
<polygon fill="white" stroke="black" points="508.867,-302 508.867,-322 607.133,-322 607.133,-302 508.867,-302"/>
<text text-anchor="middle" x="558" y="-308" font-family="Helvetica,sans-Serif" font-size="10.00">error_position::line</text>
</a>
</g>
</g>
<!-- Node9&#45;&gt;Node27 -->
<g id="edge37" class="edge"><title>Node9&#45;&gt;Node27</title>
<path fill="none" stroke="midnightblue" d="M442.493,-359.978C455.774,-351.693 475.617,-340.026 494,-332 499.457,-329.617 505.291,-327.379 511.123,-325.324"/>
<polygon fill="midnightblue" stroke="midnightblue" points="512.509,-328.551 520.872,-322.046 510.278,-321.916 512.509,-328.551"/>
</g>
<!-- Node13 -->
<g id="node13" class="node"><title>Node13</title>
<g id="a_node13"><a xlink:href="file__system_8cpp.html#a62475ca973dfe0094c00d60286c7c286" target="_top" xlink:title="create_filespec">
<polygon fill="white" stroke="black" points="812.37,-400 812.37,-420 895.63,-420 895.63,-400 812.37,-400"/>
<text text-anchor="middle" x="854" y="-406" font-family="Helvetica,sans-Serif" font-size="10.00">create_filespec</text>
</a>
</g>
</g>
<!-- Node12&#45;&gt;Node13 -->
<g id="edge13" class="edge"><title>Node12&#45;&gt;Node13</title>
<path fill="none" stroke="midnightblue" d="M597.904,-361.005C616.1,-365.537 638.099,-370.806 658,-375 706.763,-385.277 762.792,-395.132 802.242,-401.751"/>
<polygon fill="midnightblue" stroke="midnightblue" points="801.712,-405.211 812.152,-403.404 802.864,-398.307 801.712,-405.211"/>
</g>
<!-- Node15 -->
<g id="node15" class="node"><title>Node15</title>
<g id="a_node15"><a xlink:href="file__system_8cpp.html#acf89fa1738d4f789e4cc5b9c3c3bec72" target="_top" xlink:title="filename_part">
<polygon fill="white" stroke="black" points="815.705,-361 815.705,-381 892.295,-381 892.295,-361 815.705,-361"/>
<text text-anchor="middle" x="854" y="-367" font-family="Helvetica,sans-Serif" font-size="10.00">filename_part</text>
</a>
</g>
</g>
<!-- Node12&#45;&gt;Node15 -->
<g id="edge15" class="edge"><title>Node12&#45;&gt;Node15</title>
<path fill="none" stroke="midnightblue" d="M621.35,-355.241C676.27,-358.978 755.102,-364.34 805.172,-367.746"/>
<polygon fill="midnightblue" stroke="midnightblue" points="805.186,-371.255 815.401,-368.442 805.661,-364.271 805.186,-371.255"/>
</g>
<!-- Node16 -->
<g id="node16" class="node"><title>Node16</title>
<g id="a_node16"><a xlink:href="file__system_8cpp.html#acb48f4675dcd897962719fcc704fa980" target="_top" xlink:title="folder_part">
<polygon fill="white" stroke="black" points="685.096,-322 685.096,-342 748.904,-342 748.904,-322 685.096,-322"/>
<text text-anchor="middle" x="717" y="-328" font-family="Helvetica,sans-Serif" font-size="10.00">folder_part</text>
</a>
</g>
</g>
<!-- Node12&#45;&gt;Node16 -->
<g id="edge17" class="edge"><title>Node12&#45;&gt;Node16</title>
<path fill="none" stroke="midnightblue" d="M621.502,-343.436C639.319,-341.28 658.285,-338.985 674.513,-337.021"/>
<polygon fill="midnightblue" stroke="midnightblue" points="675.236,-340.459 684.743,-335.783 674.395,-333.51 675.236,-340.459"/>
</g>
<!-- Node17 -->
<g id="node17" class="node"><title>Node17</title>
<g id="a_node17"><a xlink:href="file__system_8cpp.html#a154091f28159afef5c72b12cee64a9a0" target="_top" xlink:title="folder_to_relative_path">
<polygon fill="white" stroke="black" points="658.131,-200 658.131,-220 775.869,-220 775.869,-200 658.131,-200"/>
<text text-anchor="middle" x="717" y="-206" font-family="Helvetica,sans-Serif" font-size="10.00">folder_to_relative_path</text>
</a>
</g>
</g>
<!-- Node12&#45;&gt;Node17 -->
<g id="edge19" class="edge"><title>Node12&#45;&gt;Node17</title>
<path fill="none" stroke="midnightblue" d="M602.649,-340.962C609.459,-338.34 616.164,-335.069 622,-331 660.891,-303.884 691.192,-255.875 706.013,-229.208"/>
<polygon fill="midnightblue" stroke="midnightblue" points="709.249,-230.583 710.921,-220.121 703.09,-227.256 709.249,-230.583"/>
</g>
<!-- Node14 -->
<g id="node14" class="node"><title>Node14</title>
<g id="a_node14"><a xlink:href="file__system_8cpp.html#a99e06c76afffe1f1d77f01c905b1a5fd" target="_top" xlink:title="is_separator">
<polygon fill="white" stroke="black" points="1193.49,-322 1193.49,-342 1264.51,-342 1264.51,-322 1193.49,-322"/>
<text text-anchor="middle" x="1229" y="-328" font-family="Helvetica,sans-Serif" font-size="10.00">is_separator</text>
</a>
</g>
</g>
<!-- Node13&#45;&gt;Node14 -->
<g id="edge14" class="edge"><title>Node13&#45;&gt;Node14</title>
<path fill="none" stroke="midnightblue" d="M895.894,-406.507C953.092,-400.963 1059.87,-388.212 1148,-364 1164.64,-359.428 1182.53,-352.477 1197.17,-346.221"/>
<polygon fill="midnightblue" stroke="midnightblue" points="1198.96,-349.254 1206.72,-342.038 1196.16,-342.842 1198.96,-349.254"/>
</g>
<!-- Node15&#45;&gt;Node14 -->
<g id="edge16" class="edge"><title>Node15&#45;&gt;Node14</title>
<path fill="none" stroke="midnightblue" d="M892.577,-368.857C948.438,-365.43 1056.62,-357.871 1148,-346 1159.57,-344.497 1172.02,-342.502 1183.57,-340.491"/>
<polygon fill="midnightblue" stroke="midnightblue" points="1184.22,-343.932 1193.45,-338.732 1182.99,-337.04 1184.22,-343.932"/>
</g>
<!-- Node16&#45;&gt;Node14 -->
<g id="edge18" class="edge"><title>Node16&#45;&gt;Node14</title>
<path fill="none" stroke="midnightblue" d="M749.135,-332C836.027,-332 1081.43,-332 1183.06,-332"/>
<polygon fill="midnightblue" stroke="midnightblue" points="1183.3,-335.5 1193.3,-332 1183.3,-328.5 1183.3,-335.5"/>
</g>
<!-- Node18 -->
<g id="node18" class="node"><title>Node18</title>
<g id="a_node18"><a xlink:href="file__system_8cpp.html#a0a5c33c34c3c47d4e15e955b7ac25681" target="_top" xlink:title="relative_path">
<polygon fill="white" stroke="black" points="817.37,-139 817.37,-159 890.63,-159 890.63,-139 817.37,-139"/>
<text text-anchor="middle" x="854" y="-145" font-family="Helvetica,sans-Serif" font-size="10.00">relative_path</text>
</a>
</g>
</g>
<!-- Node17&#45;&gt;Node18 -->
<g id="edge20" class="edge"><title>Node17&#45;&gt;Node18</title>
<path fill="none" stroke="midnightblue" d="M740.293,-199.927C762.375,-189.949 796.403,-174.573 821.294,-163.326"/>
<polygon fill="midnightblue" stroke="midnightblue" points="823.003,-166.395 830.674,-159.088 820.12,-160.016 823.003,-166.395"/>
</g>
<!-- Node19 -->
<g id="node19" class="node"><title>Node19</title>
<g id="a_node19"><a xlink:href="classfile__specification.html#a518bc2d13c74b0e00131c87fdd294f2b" target="_top" xlink:title="file_specification\l::image">
<polygon fill="white" stroke="black" points="932.313,-207 932.313,-239 1021.69,-239 1021.69,-207 932.313,-207"/>
<text text-anchor="start" x="940.313" y="-225" font-family="Helvetica,sans-Serif" font-size="10.00">file_specification</text>
<text text-anchor="middle" x="977" y="-213" font-family="Helvetica,sans-Serif" font-size="10.00">::image</text>
</a>
</g>
</g>
<!-- Node18&#45;&gt;Node19 -->
<g id="edge21" class="edge"><title>Node18&#45;&gt;Node19</title>
<path fill="none" stroke="midnightblue" d="M870.859,-159.039C886.38,-168.828 910.724,-184.085 932,-197 934.489,-198.511 937.062,-200.061 939.658,-201.617"/>
<polygon fill="midnightblue" stroke="midnightblue" points="938.096,-204.76 948.479,-206.873 941.68,-198.747 938.096,-204.76"/>
</g>
<!-- Node21 -->
<g id="node21" class="node"><title>Node21</title>
<g id="a_node21"><a xlink:href="classfile__specification.html#a18e9d7a9b9dd1214d09ab5e843ea7806" target="_top" xlink:title="file_specification\l::relative">
<polygon fill="white" stroke="black" points="1184.31,-60 1184.31,-92 1273.69,-92 1273.69,-60 1184.31,-60"/>
<text text-anchor="start" x="1192.31" y="-78" font-family="Helvetica,sans-Serif" font-size="10.00">file_specification</text>
<text text-anchor="middle" x="1229" y="-66" font-family="Helvetica,sans-Serif" font-size="10.00">::relative</text>
</a>
</g>
</g>
<!-- Node18&#45;&gt;Node21 -->
<g id="edge36" class="edge"><title>Node18&#45;&gt;Node21</title>
<path fill="none" stroke="midnightblue" d="M859.58,-138.95C869.437,-118.711 894.822,-73.4856 932,-56 1010.04,-19.2983 1112.61,-39.1588 1174.25,-57.2947"/>
<polygon fill="midnightblue" stroke="midnightblue" points="1173.56,-60.7447 1184.15,-60.2975 1175.59,-54.046 1173.56,-60.7447"/>
</g>
<!-- Node23 -->
<g id="node23" class="node"><title>Node23</title>
<g id="a_node23"><a xlink:href="classfile__specification.html#aefefc9da1b64f7ed66a436750a88ffa2" target="_top" xlink:title="file_specification\l::initialise_folder">
<polygon fill="white" stroke="black" points="1058.31,-105 1058.31,-137 1147.69,-137 1147.69,-105 1058.31,-105"/>
<text text-anchor="start" x="1066.31" y="-123" font-family="Helvetica,sans-Serif" font-size="10.00">file_specification</text>
<text text-anchor="middle" x="1103" y="-111" font-family="Helvetica,sans-Serif" font-size="10.00">::initialise_folder</text>
</a>
</g>
</g>
<!-- Node18&#45;&gt;Node23 -->
<g id="edge27" class="edge"><title>Node18&#45;&gt;Node23</title>
<path fill="none" stroke="midnightblue" d="M890.652,-144.958C931.85,-140.288 1000.09,-132.553 1047.85,-127.138"/>
<polygon fill="midnightblue" stroke="midnightblue" points="1048.47,-130.59 1058.02,-125.986 1047.68,-123.635 1048.47,-130.59"/>
</g>
<!-- Node25 -->
<g id="node25" class="node"><title>Node25</title>
<g id="a_node25"><a xlink:href="classfile__specification.html#a1c51930e39fad4d827a81b5b12a72752" target="_top" xlink:title="file_specification\l::make_absolute">
<polygon fill="white" stroke="black" points="932.311,-156 932.311,-188 1021.69,-188 1021.69,-156 932.311,-156"/>
<text text-anchor="start" x="940.311" y="-174" font-family="Helvetica,sans-Serif" font-size="10.00">file_specification</text>
<text text-anchor="middle" x="977" y="-162" font-family="Helvetica,sans-Serif" font-size="10.00">::make_absolute</text>
</a>
</g>
</g>
<!-- Node18&#45;&gt;Node25 -->
<g id="edge30" class="edge"><title>Node18&#45;&gt;Node25</title>
<path fill="none" stroke="midnightblue" d="M890.65,-155.776C900.476,-157.644 911.36,-159.713 921.975,-161.731"/>
<polygon fill="midnightblue" stroke="midnightblue" points="921.55,-165.213 932.027,-163.642 922.857,-158.336 921.55,-165.213"/>
</g>
<!-- Node26 -->
<g id="node26" class="node"><title>Node26</title>
<g id="a_node26"><a xlink:href="classfile__specification.html#a37f966146802536ffdb2f154e3df928f" target="_top" xlink:title="file_specification\l::make_relative">
<polygon fill="white" stroke="black" points="932.313,-66 932.313,-98 1021.69,-98 1021.69,-66 932.313,-66"/>
<text text-anchor="start" x="940.313" y="-84" font-family="Helvetica,sans-Serif" font-size="10.00">file_specification</text>
<text text-anchor="middle" x="977" y="-72" font-family="Helvetica,sans-Serif" font-size="10.00">::make_relative</text>
</a>
</g>
</g>
<!-- Node18&#45;&gt;Node26 -->
<g id="edge33" class="edge"><title>Node18&#45;&gt;Node26</title>
<path fill="none" stroke="midnightblue" d="M873.115,-138.969C890.19,-129.515 916.318,-115.047 937.97,-103.058"/>
<polygon fill="midnightblue" stroke="midnightblue" points="939.883,-106 946.936,-98.0934 936.492,-99.8757 939.883,-106"/>
</g>
<!-- Node19&#45;&gt;Node14 -->
<g id="edge26" class="edge"><title>Node19&#45;&gt;Node14</title>
<path fill="none" stroke="midnightblue" d="M1002.59,-239.018C1018.1,-248.722 1038.77,-260.935 1058,-270 1100.03,-289.809 1150.24,-307.424 1185.15,-318.768"/>
<polygon fill="midnightblue" stroke="midnightblue" points="1184.42,-322.211 1195.01,-321.94 1186.56,-315.547 1184.42,-322.211"/>
</g>
<!-- Node20 -->
<g id="node20" class="node"><title>Node20</title>
<g id="a_node20"><a xlink:href="classfile__specification.html#a5b8f1026354ff32bfc183da3f38f5ce7" target="_top" xlink:title="file_specification\l::absolute">
<polygon fill="white" stroke="black" points="1058.31,-156 1058.31,-188 1147.69,-188 1147.69,-156 1058.31,-156"/>
<text text-anchor="start" x="1066.31" y="-174" font-family="Helvetica,sans-Serif" font-size="10.00">file_specification</text>
<text text-anchor="middle" x="1103" y="-162" font-family="Helvetica,sans-Serif" font-size="10.00">::absolute</text>
</a>
</g>
</g>
<!-- Node19&#45;&gt;Node20 -->
<g id="edge22" class="edge"><title>Node19&#45;&gt;Node20</title>
<path fill="none" stroke="midnightblue" d="M1017.23,-206.863C1028.77,-202.12 1041.52,-196.874 1053.56,-191.924"/>
<polygon fill="midnightblue" stroke="midnightblue" points="1055.1,-195.072 1063.02,-188.032 1052.44,-188.599 1055.1,-195.072"/>
</g>
<!-- Node19&#45;&gt;Node21 -->
<g id="edge25" class="edge"><title>Node19&#45;&gt;Node21</title>
<path fill="none" stroke="midnightblue" d="M1015.23,-239.022C1052.69,-252.381 1110.18,-264.999 1148,-236 1196.94,-198.475 1146.69,-151.101 1184,-102 1184.79,-100.967 1185.62,-99.9668 1186.51,-98.9995"/>
<polygon fill="midnightblue" stroke="midnightblue" points="1188.94,-101.516 1194.03,-92.2191 1184.26,-96.3172 1188.94,-101.516"/>
</g>
<!-- Node22 -->
<g id="node22" class="node"><title>Node22</title>
<g id="a_node22"><a xlink:href="string__utilities_8hpp.html#a657118c43fe44a8454311075655ac9d4" target="_top" xlink:title="vector_to_string">
<polygon fill="white" stroke="black" points="1059.43,-207 1059.43,-227 1146.57,-227 1146.57,-207 1059.43,-207"/>
<text text-anchor="middle" x="1103" y="-213" font-family="Helvetica,sans-Serif" font-size="10.00">vector_to_string</text>
</a>
</g>
</g>
<!-- Node19&#45;&gt;Node22 -->
<g id="edge24" class="edge"><title>Node19&#45;&gt;Node22</title>
<path fill="none" stroke="midnightblue" d="M1021.72,-220.885C1030.53,-220.458 1039.89,-220.005 1048.98,-219.565"/>
<polygon fill="midnightblue" stroke="midnightblue" points="1049.28,-223.055 1059.09,-219.076 1048.94,-216.064 1049.28,-223.055"/>
</g>
<!-- Node20&#45;&gt;Node21 -->
<g id="edge23" class="edge"><title>Node20&#45;&gt;Node21</title>
<path fill="none" stroke="midnightblue" d="M1134.78,-155.713C1139.4,-152.738 1143.96,-149.468 1148,-146 1167.17,-129.542 1164.83,-118.458 1184,-102 1185.51,-100.7 1187.1,-99.427 1188.74,-98.1872"/>
<polygon fill="midnightblue" stroke="midnightblue" points="1191.01,-100.871 1197.22,-92.2867 1187.01,-95.1248 1191.01,-100.871"/>
</g>
<!-- Node23&#45;&gt;Node14 -->
<g id="edge28" class="edge"><title>Node23&#45;&gt;Node14</title>
<path fill="none" stroke="midnightblue" d="M1137.03,-137.305C1141.04,-140.172 1144.83,-143.406 1148,-147 1192.25,-197.189 1215.03,-275.618 1223.73,-312.098"/>
<polygon fill="midnightblue" stroke="midnightblue" points="1220.35,-313.021 1225.98,-321.994 1227.17,-311.467 1220.35,-313.021"/>
</g>
<!-- Node24 -->
<g id="node24" class="node"><title>Node24</title>
<g id="a_node24"><a xlink:href="classfile__specification.html#ab6e2c3cc492528550d2c4021d3a1c225" target="_top" xlink:title="file_specification\l::path">
<polygon fill="white" stroke="black" points="1184.31,-111 1184.31,-143 1273.69,-143 1273.69,-111 1184.31,-111"/>
<text text-anchor="start" x="1192.31" y="-129" font-family="Helvetica,sans-Serif" font-size="10.00">file_specification</text>
<text text-anchor="middle" x="1229" y="-117" font-family="Helvetica,sans-Serif" font-size="10.00">::path</text>
</a>
</g>
</g>
<!-- Node23&#45;&gt;Node24 -->
<g id="edge29" class="edge"><title>Node23&#45;&gt;Node24</title>
<path fill="none" stroke="midnightblue" d="M1147.72,-123.115C1156.24,-123.528 1165.26,-123.964 1174.07,-124.39"/>
<polygon fill="midnightblue" stroke="midnightblue" points="1174.1,-127.896 1184.26,-124.884 1174.44,-120.904 1174.1,-127.896"/>
</g>
<!-- Node25&#45;&gt;Node20 -->
<g id="edge31" class="edge"><title>Node25&#45;&gt;Node20</title>
<path fill="none" stroke="midnightblue" d="M1021.72,-172C1030.24,-172 1039.26,-172 1048.07,-172"/>
<polygon fill="midnightblue" stroke="midnightblue" points="1048.26,-175.5 1058.26,-172 1048.26,-168.5 1048.26,-175.5"/>
</g>
<!-- Node25&#45;&gt;Node23 -->
<g id="edge32" class="edge"><title>Node25&#45;&gt;Node23</title>
<path fill="none" stroke="midnightblue" d="M1017.23,-155.863C1028.77,-151.12 1041.52,-145.874 1053.56,-140.924"/>
<polygon fill="midnightblue" stroke="midnightblue" points="1055.1,-144.072 1063.02,-137.032 1052.44,-137.599 1055.1,-144.072"/>
</g>
<!-- Node26&#45;&gt;Node21 -->
<g id="edge34" class="edge"><title>Node26&#45;&gt;Node21</title>
<path fill="none" stroke="midnightblue" d="M1021.83,-80.948C1064.19,-79.9315 1128.44,-78.3894 1173.94,-77.2973"/>
<polygon fill="midnightblue" stroke="midnightblue" points="1174.3,-80.7898 1184.22,-77.0508 1174.14,-73.7918 1174.3,-80.7898"/>
</g>
<!-- Node26&#45;&gt;Node23 -->
<g id="edge35" class="edge"><title>Node26&#45;&gt;Node23</title>
<path fill="none" stroke="midnightblue" d="M1021.72,-95.7499C1030.42,-98.4878 1039.66,-101.392 1048.64,-104.218"/>
<polygon fill="midnightblue" stroke="midnightblue" points="1047.67,-107.581 1058.26,-107.243 1049.77,-100.904 1047.67,-107.581"/>
</g>
<!-- Node28&#45;&gt;Node9 -->
<g id="edge40" class="edge"><title>Node28&#45;&gt;Node9</title>
<path fill="none" stroke="midnightblue" d="M350.367,-343.878C363.123,-348.343 376.818,-353.136 388.95,-357.383"/>
<polygon fill="midnightblue" stroke="midnightblue" points="388.124,-360.802 398.719,-360.802 390.436,-354.195 388.124,-360.802"/>
</g>
<!-- Node29 -->
<g id="node29" class="node"><title>Node29</title>
<g id="a_node29"><a xlink:href="string__utilities_8cpp.html#a981da2fc3da4b4974d8acb6d0593ed6a" target="_top" xlink:title="lowercase">
<polygon fill="white" stroke="black" points="395.49,-318 395.49,-338 456.51,-338 456.51,-318 395.49,-318"/>
<text text-anchor="middle" x="426" y="-324" font-family="Helvetica,sans-Serif" font-size="10.00">lowercase</text>
</a>
</g>
</g>
<!-- Node28&#45;&gt;Node29 -->
<g id="edge41" class="edge"><title>Node28&#45;&gt;Node29</title>
<path fill="none" stroke="midnightblue" d="M350.367,-328C361.734,-328 373.847,-328 384.936,-328"/>
<polygon fill="midnightblue" stroke="midnightblue" points="385.195,-331.5 395.195,-328 385.195,-324.5 385.195,-331.5"/>
</g>
<!-- Node30&#45;&gt;Node31 -->
<g id="edge43" class="edge"><title>Node30&#45;&gt;Node31</title>
<path fill="none" stroke="midnightblue" d="M195.341,-254.043C213.861,-259.025 236.42,-265.092 256.094,-270.384"/>
<polygon fill="midnightblue" stroke="midnightblue" points="255.22,-273.773 265.785,-272.991 257.038,-267.013 255.22,-273.773"/>
</g>
<!-- Node33 -->
<g id="node33" class="node"><title>Node33</title>
<g id="a_node33"><a xlink:href="classrc_window.html#a3286f93b0d223617111f3ac62b854b2f" target="_top" xlink:title="rcWindow::isBound">
<polygon fill="white" stroke="black" points="253.205,-195 253.205,-215 354.795,-215 354.795,-195 253.205,-195"/>
<text text-anchor="middle" x="304" y="-201" font-family="Helvetica,sans-Serif" font-size="10.00">rcWindow::isBound</text>
</a>
</g>
</g>
<!-- Node32&#45;&gt;Node33 -->
<g id="edge46" class="edge"><title>Node32&#45;&gt;Node33</title>
<path fill="none" stroke="midnightblue" d="M195.341,-176.043C213.861,-181.025 236.42,-187.092 256.094,-192.384"/>
<polygon fill="midnightblue" stroke="midnightblue" points="255.22,-195.773 265.785,-194.991 257.038,-189.013 255.22,-195.773"/>
</g>
<!-- Node34 -->
<g id="node34" class="node"><title>Node34</title>
<g id="a_node34"><a xlink:href="classrc_frame.html#afe29820f04ff401b75e23226cbec4c03" target="_top" xlink:title="rcFrame::getPixel">
<polygon fill="white" stroke="black" points="256.823,-156 256.823,-176 351.177,-176 351.177,-156 256.823,-156"/>
<text text-anchor="middle" x="304" y="-162" font-family="Helvetica,sans-Serif" font-size="10.00">rcFrame::getPixel</text>
</a>
</g>
</g>
<!-- Node32&#45;&gt;Node34 -->
<g id="edge47" class="edge"><title>Node32&#45;&gt;Node34</title>
<path fill="none" stroke="midnightblue" d="M207.901,-166C220.312,-166 233.704,-166 246.411,-166"/>
<polygon fill="midnightblue" stroke="midnightblue" points="246.423,-169.5 256.423,-166 246.423,-162.5 246.423,-169.5"/>
</g>
<!-- Node35 -->
<g id="node35" class="node"><title>Node35</title>
<g id="a_node35"><a xlink:href="classrc_rect.html#ac0f95519a41dcf7e33bec85ccb8e7aff" target="_top" xlink:title="rcRect::x">
<polygon fill="white" stroke="black" points="276.276,-117 276.276,-137 331.724,-137 331.724,-117 276.276,-117"/>
<text text-anchor="middle" x="304" y="-123" font-family="Helvetica,sans-Serif" font-size="10.00">rcRect::x</text>
</a>
</g>
</g>
<!-- Node32&#45;&gt;Node35 -->
<g id="edge48" class="edge"><title>Node32&#45;&gt;Node35</title>
<path fill="none" stroke="midnightblue" d="M195.341,-155.957C217.073,-150.111 244.365,-142.771 266.033,-136.943"/>
<polygon fill="midnightblue" stroke="midnightblue" points="267.112,-140.277 275.86,-134.3 265.294,-133.517 267.112,-140.277"/>
</g>
<!-- Node37 -->
<g id="node37" class="node"><title>Node37</title>
<g id="a_node37"><a xlink:href="classrc_rect.html#a50236160751c949d8718f8d4d17f7923" target="_top" xlink:title="rcRect::y">
<polygon fill="white" stroke="black" points="276.276,-78 276.276,-98 331.724,-98 331.724,-78 276.276,-78"/>
<text text-anchor="middle" x="304" y="-84" font-family="Helvetica,sans-Serif" font-size="10.00">rcRect::y</text>
</a>
</g>
</g>
<!-- Node32&#45;&gt;Node37 -->
<g id="edge50" class="edge"><title>Node32&#45;&gt;Node37</title>
<path fill="none" stroke="midnightblue" d="M194.142,-155.918C201.016,-153.23 207.946,-149.947 214,-146 233.489,-133.295 230.625,-120.878 250,-108 255.09,-104.617 260.831,-101.698 266.608,-99.2169"/>
<polygon fill="midnightblue" stroke="midnightblue" points="268.213,-102.348 276.256,-95.4505 265.667,-95.8271 268.213,-102.348"/>
</g>
<!-- Node36 -->
<g id="node36" class="node"><title>Node36</title>
<g id="a_node36"><a xlink:href="classrc_pair.html#ad1a3cb1e7fdbe119ce1295514b1bb49d" target="_top" xlink:title="rcPair::x">
<polygon fill="white" stroke="black" points="399.665,-117 399.665,-137 452.335,-137 452.335,-117 399.665,-117"/>
<text text-anchor="middle" x="426" y="-123" font-family="Helvetica,sans-Serif" font-size="10.00">rcPair::x</text>
</a>
</g>
</g>
<!-- Node35&#45;&gt;Node36 -->
<g id="edge49" class="edge"><title>Node35&#45;&gt;Node36</title>
<path fill="none" stroke="midnightblue" d="M331.93,-127C348.876,-127 370.941,-127 389.332,-127"/>
<polygon fill="midnightblue" stroke="midnightblue" points="389.393,-130.5 399.393,-127 389.393,-123.5 389.393,-130.5"/>
</g>
<!-- Node38 -->
<g id="node38" class="node"><title>Node38</title>
<g id="a_node38"><a xlink:href="classrc_pair.html#a87400f83938e920c405c40aa449d3607" target="_top" xlink:title="rcPair::y">
<polygon fill="white" stroke="black" points="399.665,-78 399.665,-98 452.335,-98 452.335,-78 399.665,-78"/>
<text text-anchor="middle" x="426" y="-84" font-family="Helvetica,sans-Serif" font-size="10.00">rcPair::y</text>
</a>
</g>
</g>
<!-- Node37&#45;&gt;Node38 -->
<g id="edge51" class="edge"><title>Node37&#45;&gt;Node38</title>
<path fill="none" stroke="midnightblue" d="M331.93,-88C348.876,-88 370.941,-88 389.332,-88"/>
<polygon fill="midnightblue" stroke="midnightblue" points="389.393,-91.5001 399.393,-88 389.393,-84.5001 389.393,-91.5001"/>
</g>
<!-- Node40&#45;&gt;Node35 -->
<g id="edge57" class="edge"><title>Node40&#45;&gt;Node35</title>
<path fill="none" stroke="midnightblue" d="M213.646,-127C231.037,-127 249.797,-127 265.616,-127"/>
<polygon fill="midnightblue" stroke="midnightblue" points="266.045,-130.5 276.045,-127 266.045,-123.5 266.045,-130.5"/>
</g>
<!-- Node40&#45;&gt;Node37 -->
<g id="edge56" class="edge"><title>Node40&#45;&gt;Node37</title>
<path fill="none" stroke="midnightblue" d="M195.341,-116.957C217.073,-111.111 244.365,-103.771 266.033,-97.9429"/>
<polygon fill="midnightblue" stroke="midnightblue" points="267.112,-101.277 275.86,-95.2999 265.294,-94.5174 267.112,-101.277"/>
</g>
<!-- Node41 -->
<g id="node41" class="node"><title>Node41</title>
<g id="a_node41"><a xlink:href="classrc_frame.html#a401a851fcb8a4328949d38cb34b572f6" target="_top" xlink:title="rcFrame::rowPointer">
<polygon fill="white" stroke="black" points="250.712,-0 250.712,-20 357.288,-20 357.288,-0 250.712,-0"/>
<text text-anchor="middle" x="304" y="-6" font-family="Helvetica,sans-Serif" font-size="10.00">rcFrame::rowPointer</text>
</a>
</g>
</g>
<!-- Node40&#45;&gt;Node41 -->
<g id="edge55" class="edge"><title>Node40&#45;&gt;Node41</title>
<path fill="none" stroke="midnightblue" d="M198.462,-116.999C204.107,-114.388 209.505,-111.11 214,-107 242.177,-81.2352 221.838,-54.7816 250,-29 251.487,-27.6387 253.078,-26.3734 254.748,-25.1974"/>
<polygon fill="midnightblue" stroke="midnightblue" points="256.74,-28.0877 263.622,-20.032 253.218,-22.038 256.74,-28.0877"/>
</g>
<!-- Node42 -->
<g id="node42" class="node"><title>Node42</title>
<g id="a_node42"><a xlink:href="classrc_frame.html#aaef8303c840834284eb9c60d33bf40c1" target="_top" xlink:title="rcFrame::depth">
<polygon fill="white" stroke="black" points="262.099,-39 262.099,-59 345.901,-59 345.901,-39 262.099,-39"/>
<text text-anchor="middle" x="304" y="-45" font-family="Helvetica,sans-Serif" font-size="10.00">rcFrame::depth</text>
</a>
</g>
</g>
<!-- Node40&#45;&gt;Node42 -->
<g id="edge58" class="edge"><title>Node40&#45;&gt;Node42</title>
<path fill="none" stroke="midnightblue" d="M194.182,-116.98C201.053,-114.287 207.972,-110.986 214,-107 233.677,-93.9899 230.331,-81.0219 250,-68 252.566,-66.3011 255.303,-64.7327 258.129,-63.2884"/>
<polygon fill="midnightblue" stroke="midnightblue" points="259.708,-66.4153 267.363,-59.0901 256.811,-60.0431 259.708,-66.4153"/>
</g>
<!-- Node44&#45;&gt;Node33 -->
<g id="edge61" class="edge"><title>Node44&#45;&gt;Node33</title>
<path fill="none" stroke="midnightblue" d="M207.495,-205C218.79,-205 230.916,-205 242.609,-205"/>
<polygon fill="midnightblue" stroke="midnightblue" points="242.742,-208.5 252.742,-205 242.742,-201.5 242.742,-208.5"/>
</g>
<!-- Node44&#45;&gt;Node35 -->
<g id="edge63" class="edge"><title>Node44&#45;&gt;Node35</title>
<path fill="none" stroke="midnightblue" d="M194.142,-194.918C201.016,-192.23 207.946,-188.947 214,-185 233.489,-172.295 230.625,-159.878 250,-147 255.09,-143.617 260.831,-140.698 266.608,-138.217"/>
<polygon fill="midnightblue" stroke="midnightblue" points="268.213,-141.348 276.256,-134.451 265.667,-134.827 268.213,-141.348"/>
</g>
<!-- Node44&#45;&gt;Node37 -->
<g id="edge64" class="edge"><title>Node44&#45;&gt;Node37</title>
<path fill="none" stroke="midnightblue" d="M198.444,-194.98C204.092,-192.371 209.495,-189.099 214,-185 241.942,-159.576 222.285,-133.672 250,-108 254.782,-103.57 260.641,-100.094 266.698,-97.3736"/>
<polygon fill="midnightblue" stroke="midnightblue" points="268.18,-100.554 276.254,-93.6936 265.664,-94.0213 268.18,-100.554"/>
</g>
<!-- Node45 -->
<g id="node45" class="node"><title>Node45</title>
<g id="a_node45"><a xlink:href="classrc_frame.html#a28af1b24a02c5946d1e8cd173ba177b3" target="_top" xlink:title="rcFrame::setPixel">
<polygon fill="white" stroke="black" points="257.104,-234 257.104,-254 350.896,-254 350.896,-234 257.104,-234"/>
<text text-anchor="middle" x="304" y="-240" font-family="Helvetica,sans-Serif" font-size="10.00">rcFrame::setPixel</text>
</a>
</g>
</g>
<!-- Node44&#45;&gt;Node45 -->
<g id="edge62" class="edge"><title>Node44&#45;&gt;Node45</title>
<path fill="none" stroke="midnightblue" d="M195.341,-215.043C213.861,-220.025 236.42,-226.092 256.094,-231.384"/>
<polygon fill="midnightblue" stroke="midnightblue" points="255.22,-234.773 265.785,-233.991 257.038,-228.013 255.22,-234.773"/>
</g>
</g>
</svg>
