<?xml version="1.0" encoding="UTF-8" standalone="no"?>
<!DOCTYPE svg PUBLIC "-//W3C//DTD SVG 1.1//EN"
 "http://www.w3.org/Graphics/SVG/1.1/DTD/svg11.dtd">
<!-- Generated by graphviz version 2.32.0 (20130916.1925)
 -->
<!-- Title: PseudoRotate Pages: 1 -->
<svg width="192pt" height="67pt"
 viewBox="0.00 0.00 192.00 67.00" xmlns="http://www.w3.org/2000/svg" xmlns:xlink="http://www.w3.org/1999/xlink">
<g id="graph0" class="graph" transform="scale(1 1) rotate(0) translate(4 63)">
<title>PseudoRotate</title>
<polygon fill="white" stroke="white" points="-4,5 -4,-63 189,-63 189,5 -4,5"/>
<!-- Node1 -->
<g id="node1" class="node"><title>Node1</title>
<polygon fill="#bfbfbf" stroke="black" points="0.310547,-19 0.310547,-39 79.6895,-39 79.6895,-19 0.310547,-19"/>
<text text-anchor="middle" x="40" y="-25" font-family="Helvetica,sans-Serif" font-size="10.00">PseudoRotate</text>
</g>
<!-- Node2 -->
<g id="node2" class="node"><title>Node2</title>
<g id="a_node2"><a xlink:href="rc__math_8h.html#af46cd3ab9067355ab140ebac37444b58" target="_top" xlink:title="rfFxRotate">
<polygon fill="white" stroke="black" points="118.66,-39 118.66,-59 181.34,-59 181.34,-39 118.66,-39"/>
<text text-anchor="middle" x="150" y="-45" font-family="Helvetica,sans-Serif" font-size="10.00">rfFxRotate</text>
</a>
</g>
</g>
<!-- Node1&#45;&gt;Node2 -->
<g id="edge1" class="edge"><title>Node1&#45;&gt;Node2</title>
<path fill="none" stroke="midnightblue" d="M89.9901,-38.0722C99.7129,-39.8728 109.654,-41.7137 118.539,-43.359"/>
<polygon fill="midnightblue" stroke="midnightblue" points="90.4606,-34.5999 79.9905,-36.2205 89.186,-41.4829 90.4606,-34.5999"/>
</g>
<!-- Node3 -->
<g id="node3" class="node"><title>Node3</title>
<g id="a_node3"><a xlink:href="rc__math_8h.html#abfdc17d4eecbbb09ae26fe47991f5471" target="_top" xlink:title="rfFxUnitVec">
<polygon fill="white" stroke="black" points="116.158,-0 116.158,-20 183.842,-20 183.842,-0 116.158,-0"/>
<text text-anchor="middle" x="150" y="-6" font-family="Helvetica,sans-Serif" font-size="10.00">rfFxUnitVec</text>
</a>
</g>
</g>
<!-- Node1&#45;&gt;Node3 -->
<g id="edge2" class="edge"><title>Node1&#45;&gt;Node3</title>
<path fill="none" stroke="midnightblue" d="M89.8878,-20.3994C98.7699,-18.8368 107.838,-17.2414 116.12,-15.7845"/>
<polygon fill="midnightblue" stroke="midnightblue" points="89.2328,-16.9608 79.9905,-22.1406 90.4457,-23.8549 89.2328,-16.9608"/>
</g>
</g>
</svg>
