<?xml version="1.0" encoding="UTF-8" standalone="no"?>
<!DOCTYPE svg PUBLIC "-//W3C//DTD SVG 1.1//EN"
 "http://www.w3.org/Graphics/SVG/1.1/DTD/svg11.dtd">
<!-- Generated by graphviz version 2.32.0 (20130916.1925)
 -->
<!-- Title: rfMedian3By3Depth8 Pages: 1 -->
<!--zoomable 208 -->
<svg id="main" version="1.1" xmlns="http://www.w3.org/2000/svg" xmlns:xlink="http://www.w3.org/1999/xlink" xml:space="preserve" onload="init(evt)">
        <defs>
                <circle id="rim" cx="0" cy="0" r="7"/>
                <circle id="rim2" cx="0" cy="0" r="3.5"/>
                <g id="zoomPlus">
                        <use xlink:href="#rim" fill="#404040">
                                <set attributeName="fill" to="#808080" begin="zoomplus.mouseover" end="zoomplus.mouseout"/>
                        </use>
                        <path d="M-4,0h8M0,-4v8" fill="none" stroke="white" stroke-width="1.5" pointer-events="none"/>
                </g>
                <g id="zoomMin">
                        <use xlink:href="#rim" fill="#404040">
                                <set attributeName="fill" to="#808080" begin="zoomminus.mouseover" end="zoomminus.mouseout"/>
                        </use>
                        <path d="M-4,0h8" fill="none" stroke="white" stroke-width="1.5" pointer-events="none"/>
                </g>
                <g id="dirArrow">
                        <path fill="none" stroke="white" stroke-width="1.5" d="M0,-3.0v7 M-2.5,-0.5L0,-3.0L2.5,-0.5"/>
                </g>
               <g id="resetDef">
                       <use xlink:href="#rim2" fill="#404040">
                               <set attributeName="fill" to="#808080" begin="reset.mouseover" end="reset.mouseout"/>
                       </use>
               </g>
        </defs>

<script type="text/javascript">
var viewWidth = 916;
var viewHeight = 208;
var sectionId = 'dynsection-5';
</script>
<script xlink:href="svgpan.js"/>
<svg id="graph" class="graph">
<g id="viewport">
<title>rfMedian3By3Depth8</title>
<polygon fill="white" stroke="white" points="-4,5 -4,-204 913,-204 913,5 -4,5"/>
<!-- Node1 -->
<g id="node1" class="node"><title>Node1</title>
<polygon fill="#bfbfbf" stroke="black" points="0.0273438,-102 0.0273438,-122 109.973,-122 109.973,-102 0.0273438,-102"/>
<text text-anchor="middle" x="55" y="-108" font-family="Helvetica,sans-Serif" font-size="10.00">rfMedian3By3Depth8</text>
</g>
<!-- Node2 -->
<g id="node2" class="node"><title>Node2</title>
<g id="a_node2"><a xlink:href="rc__ip_8h.html#a495e59a07b11b417a00198c9900654fe" target="_top" xlink:title="rfMedian">
<polygon fill="white" stroke="black" points="146.547,-102 146.547,-122 201.453,-122 201.453,-102 146.547,-102"/>
<text text-anchor="middle" x="174" y="-108" font-family="Helvetica,sans-Serif" font-size="10.00">rfMedian</text>
</a>
</g>
</g>
<!-- Node1&#45;&gt;Node2 -->
<g id="edge1" class="edge"><title>Node1&#45;&gt;Node2</title>
<path fill="none" stroke="midnightblue" d="M120.082,-112C129.302,-112 138.336,-112 146.255,-112"/>
<polygon fill="midnightblue" stroke="midnightblue" points="120.048,-108.5 110.048,-112 120.048,-115.5 120.048,-108.5"/>
</g>
<!-- Node3 -->
<g id="node3" class="node"><title>Node3</title>
<g id="a_node3"><a xlink:href="classrc_visual_function.html#a76bcc401f54c5578f2962cd77cb11a63" target="_top" xlink:title="rcVisualFunction::beatProcess">
<polygon fill="white" stroke="black" points="239.556,-180 239.556,-200 390.444,-200 390.444,-180 239.556,-180"/>
<text text-anchor="middle" x="315" y="-186" font-family="Helvetica,sans-Serif" font-size="10.00">rcVisualFunction::beatProcess</text>
</a>
</g>
</g>
<!-- Node2&#45;&gt;Node3 -->
<g id="edge2" class="edge"><title>Node2&#45;&gt;Node3</title>
<path fill="none" stroke="midnightblue" d="M192.227,-129.654C204.18,-141.062 220.959,-155.499 238,-165 249.04,-171.155 261.834,-176.093 273.741,-179.902"/>
<polygon fill="midnightblue" stroke="midnightblue" points="194.367,-126.849 184.78,-122.337 189.461,-131.842 194.367,-126.849"/>
</g>
<!-- Node5 -->
<g id="node5" class="node"><title>Node5</title>
<g id="a_node5"><a xlink:href="classrc_muscle_segmenter.html#a2e698fffa047b8425fae1f0eb2fbd577" target="_top" xlink:title="rcMuscleSegmenter::\lfilterBySize">
<polygon fill="white" stroke="black" points="615.761,-116 615.761,-148 726.239,-148 726.239,-116 615.761,-116"/>
<text text-anchor="start" x="623.761" y="-134" font-family="Helvetica,sans-Serif" font-size="10.00">rcMuscleSegmenter::</text>
<text text-anchor="middle" x="671" y="-122" font-family="Helvetica,sans-Serif" font-size="10.00">filterBySize</text>
</a>
</g>
</g>
<!-- Node2&#45;&gt;Node5 -->
<g id="edge4" class="edge"><title>Node2&#45;&gt;Node5</title>
<path fill="none" stroke="midnightblue" d="M211.36,-124.919C219.984,-127.435 229.228,-129.696 238,-131 372.645,-151.021 533.516,-143.156 615.745,-136.882"/>
<polygon fill="midnightblue" stroke="midnightblue" points="212.174,-121.507 201.586,-121.889 210.101,-128.193 212.174,-121.507"/>
</g>
<!-- Node7 -->
<g id="node7" class="node"><title>Node7</title>
<g id="a_node7"><a xlink:href="classrc_engine_impl.html#a2d5f7968c10d00be3ec63e9c1d2d3731" target="_top" xlink:title="rcEngineImpl::groupStatistics">
<polygon fill="white" stroke="black" points="242.249,-102 242.249,-122 387.751,-122 387.751,-102 242.249,-102"/>
<text text-anchor="middle" x="315" y="-108" font-family="Helvetica,sans-Serif" font-size="10.00">rcEngineImpl::groupStatistics</text>
</a>
</g>
</g>
<!-- Node2&#45;&gt;Node7 -->
<g id="edge6" class="edge"><title>Node2&#45;&gt;Node7</title>
<path fill="none" stroke="midnightblue" d="M211.653,-112C221.113,-112 231.628,-112 242.214,-112"/>
<polygon fill="midnightblue" stroke="midnightblue" points="211.472,-108.5 201.472,-112 211.472,-115.5 211.472,-108.5"/>
</g>
<!-- Node8 -->
<g id="node8" class="node"><title>Node8</title>
<g id="a_node8"><a xlink:href="classrc_kinetoscope.html#af573001b28a364609f2854f80d29f41d" target="_top" xlink:title="rcKinetoscope::keepPopulation\lMeasure">
<polygon fill="white" stroke="black" points="238.064,-51 238.064,-83 391.936,-83 391.936,-51 238.064,-51"/>
<text text-anchor="start" x="246.064" y="-69" font-family="Helvetica,sans-Serif" font-size="10.00">rcKinetoscope::keepPopulation</text>
<text text-anchor="middle" x="315" y="-57" font-family="Helvetica,sans-Serif" font-size="10.00">Measure</text>
</a>
</g>
</g>
<!-- Node2&#45;&gt;Node8 -->
<g id="edge7" class="edge"><title>Node2&#45;&gt;Node8</title>
<path fill="none" stroke="midnightblue" d="M211.156,-100.295C227.447,-95.0209 246.941,-88.7099 264.555,-83.0074"/>
<polygon fill="midnightblue" stroke="midnightblue" points="209.908,-97.02 201.472,-103.43 212.064,-103.68 209.908,-97.02"/>
</g>
<!-- Node11 -->
<g id="node11" class="node"><title>Node11</title>
<g id="a_node11"><a xlink:href="classrc_mutual_info_grouping.html#a1ea47fe6c2b9ef46c1fb92d239b85d23" target="_top" xlink:title="rcMutualInfoGrouping\l::rcMutualInfoGrouping">
<polygon fill="white" stroke="black" points="256.141,-0 256.141,-32 373.859,-32 373.859,-0 256.141,-0"/>
<text text-anchor="start" x="264.141" y="-18" font-family="Helvetica,sans-Serif" font-size="10.00">rcMutualInfoGrouping</text>
<text text-anchor="middle" x="315" y="-6" font-family="Helvetica,sans-Serif" font-size="10.00">::rcMutualInfoGrouping</text>
</a>
</g>
</g>
<!-- Node2&#45;&gt;Node11 -->
<g id="edge11" class="edge"><title>Node2&#45;&gt;Node11</title>
<path fill="none" stroke="midnightblue" d="M187.446,-93.5543C198.908,-77.8486 217.245,-55.711 238,-42 243.701,-38.2336 250.005,-34.9564 256.47,-32.1193"/>
<polygon fill="midnightblue" stroke="midnightblue" points="184.43,-91.7572 181.525,-101.946 190.15,-95.7928 184.43,-91.7572"/>
</g>
<!-- Node4 -->
<g id="node4" class="node"><title>Node4</title>
<g id="a_node4"><a xlink:href="classrc_visual_function.html#a653fd69af532714b01f9c0b5cabc96c6" target="_top" xlink:title="rcVisualFunction::reconcile">
<polygon fill="white" stroke="black" points="436.339,-180 436.339,-200 571.661,-200 571.661,-180 436.339,-180"/>
<text text-anchor="middle" x="504" y="-186" font-family="Helvetica,sans-Serif" font-size="10.00">rcVisualFunction::reconcile</text>
</a>
</g>
</g>
<!-- Node3&#45;&gt;Node4 -->
<g id="edge3" class="edge"><title>Node3&#45;&gt;Node4</title>
<path fill="none" stroke="midnightblue" d="M400.777,-190C412.612,-190 424.635,-190 436.079,-190"/>
<polygon fill="midnightblue" stroke="midnightblue" points="400.445,-186.5 390.445,-190 400.445,-193.5 400.445,-186.5"/>
</g>
<!-- Node6 -->
<g id="node6" class="node"><title>Node6</title>
<g id="a_node6"><a xlink:href="classrc_engine_impl.html#a00ca0d227e480ddb5bd6be293b55d2c9" target="_top" xlink:title="rcEngineImpl::muscleTracker">
<polygon fill="white" stroke="black" points="762.442,-97 762.442,-117 907.558,-117 907.558,-97 762.442,-97"/>
<text text-anchor="middle" x="835" y="-103" font-family="Helvetica,sans-Serif" font-size="10.00">rcEngineImpl::muscleTracker</text>
</a>
</g>
</g>
<!-- Node5&#45;&gt;Node6 -->
<g id="edge5" class="edge"><title>Node5&#45;&gt;Node6</title>
<path fill="none" stroke="midnightblue" d="M736.52,-122.043C747.237,-120.389 758.356,-118.673 769.083,-117.018"/>
<polygon fill="midnightblue" stroke="midnightblue" points="735.743,-118.622 726.394,-123.606 736.811,-125.54 735.743,-118.622"/>
</g>
<!-- Node9 -->
<g id="node9" class="node"><title>Node9</title>
<g id="a_node9"><a xlink:href="classrc_kinetoscope.html#ae0addfc3a10c4c69ba027d9bfc351217" target="_top" xlink:title="rcKinetoscope::stepContractile">
<polygon fill="white" stroke="black" points="428.188,-62 428.188,-82 579.812,-82 579.812,-62 428.188,-62"/>
<text text-anchor="middle" x="504" y="-68" font-family="Helvetica,sans-Serif" font-size="10.00">rcKinetoscope::stepContractile</text>
</a>
</g>
</g>
<!-- Node8&#45;&gt;Node9 -->
<g id="edge8" class="edge"><title>Node8&#45;&gt;Node9</title>
<path fill="none" stroke="midnightblue" d="M402.116,-69.3026C410.73,-69.5329 419.429,-69.7655 427.917,-69.9924"/>
<polygon fill="midnightblue" stroke="midnightblue" points="402.15,-65.8023 392.06,-69.0337 401.963,-72.7998 402.15,-65.8023"/>
</g>
<!-- Node10 -->
<g id="node10" class="node"><title>Node10</title>
<g id="a_node10"><a xlink:href="classrc_kinetoscope.html#a30274b84c57f86e667b614556f6c569b" target="_top" xlink:title="rcKinetoscope::step">
<polygon fill="white" stroke="black" points="619.086,-72 619.086,-92 722.914,-92 722.914,-72 619.086,-72"/>
<text text-anchor="middle" x="671" y="-78" font-family="Helvetica,sans-Serif" font-size="10.00">rcKinetoscope::step</text>
</a>
</g>
</g>
<!-- Node9&#45;&gt;Node10 -->
<g id="edge9" class="edge"><title>Node9&#45;&gt;Node10</title>
<path fill="none" stroke="midnightblue" d="M590.407,-77.1762C600.15,-77.7666 609.838,-78.3538 618.928,-78.9047"/>
<polygon fill="midnightblue" stroke="midnightblue" points="590.451,-73.6725 580.257,-76.561 590.027,-80.6597 590.451,-73.6725"/>
</g>
<!-- Node10&#45;&gt;Node6 -->
<g id="edge10" class="edge"><title>Node10&#45;&gt;Node6</title>
<path fill="none" stroke="midnightblue" d="M733.352,-91.4679C745.039,-93.2715 757.307,-95.1646 769.1,-96.9846"/>
<polygon fill="midnightblue" stroke="midnightblue" points="733.675,-87.9763 723.258,-89.9102 732.607,-94.8944 733.675,-87.9763"/>
</g>
</g>
</svg>
        <g id="navigator" transform="translate(0 0)" fill="#404254">
                <rect fill="#f2f5e9" fill-opacity="0.5" stroke="#606060" stroke-width=".5" x="0" y="0" width="60" height="60"/>
                <use id="zoomplus" xlink:href="#zoomPlus" x="17" y="9" onmousedown="handleZoom(evt,'in')"/>
                <use id="zoomminus" xlink:href="#zoomMin" x="42" y="9" onmousedown="handleZoom(evt,'out')"/>
                <use id="reset" xlink:href="#resetDef" x="30" y="36" onmousedown="handleReset()"/>
                <g id="arrowUp" xlink:href="#dirArrow" transform="translate(30 24)" onmousedown="handlePan(0,-1)">
                  <use xlink:href="#rim" fill="#404040">
                        <set attributeName="fill" to="#808080" begin="arrowUp.mouseover" end="arrowUp.mouseout"/>
                  </use>
                  <path fill="none" stroke="white" stroke-width="1.5" d="M0,-3.0v7 M-2.5,-0.5L0,-3.0L2.5,-0.5"/>
                </g>
                <g id="arrowRight" xlink:href="#dirArrow" transform="rotate(90) translate(36 -43)" onmousedown="handlePan(1,0)">
                  <use xlink:href="#rim" fill="#404040">
                        <set attributeName="fill" to="#808080" begin="arrowRight.mouseover" end="arrowRight.mouseout"/>
                  </use>
                  <path fill="none" stroke="white" stroke-width="1.5" d="M0,-3.0v7 M-2.5,-0.5L0,-3.0L2.5,-0.5"/>
                </g>
                <g id="arrowDown" xlink:href="#dirArrow" transform="rotate(180) translate(-30 -48)" onmousedown="handlePan(0,1)">
                  <use xlink:href="#rim" fill="#404040">
                        <set attributeName="fill" to="#808080" begin="arrowDown.mouseover" end="arrowDown.mouseout"/>
                  </use>
                  <path fill="none" stroke="white" stroke-width="1.5" d="M0,-3.0v7 M-2.5,-0.5L0,-3.0L2.5,-0.5"/>
                </g>
                <g id="arrowLeft" xlink:href="#dirArrow" transform="rotate(270) translate(-36 17)" onmousedown="handlePan(-1,0)">
                  <use xlink:href="#rim" fill="#404040">
                        <set attributeName="fill" to="#808080" begin="arrowLeft.mouseover" end="arrowLeft.mouseout"/>
                  </use>
                  <path fill="none" stroke="white" stroke-width="1.5" d="M0,-3.0v7 M-2.5,-0.5L0,-3.0L2.5,-0.5"/>
                </g>
        </g>
        <svg viewBox="0 0 15 15" width="100%" height="30px" preserveAspectRatio="xMaxYMin meet">
         <g id="arrow_out" transform="scale(0.3 0.3)">
          <a xlink:href="rc__median_8cpp_a44d9553ce9d251a1fd2c7632cbc41b0e_icgraph_org.svg" target="_base">
           <rect id="button" ry="5" rx="5" y="6" x="6" height="38" width="38"
                fill="#f2f5e9" fill-opacity="0.5" stroke="#606060" stroke-width="1.0"/>
           <path id="arrow"
             d="M 11.500037,31.436501 C 11.940474,20.09759 22.043105,11.32322 32.158766,21.979434 L 37.068811,17.246167 C 37.068811,17.246167 37.088388,32 37.088388,32 L 22.160133,31.978069 C 22.160133,31.978069 26.997745,27.140456 26.997745,27.140456 C 18.528582,18.264221 13.291696,25.230495 11.500037,31.436501 z"
             style="fill:#404040;"/>
          </a>
         </g>
        </svg>
</svg>
