<?xml version="1.0" encoding="UTF-8" standalone="no"?>
<!DOCTYPE svg PUBLIC "-//W3C//DTD SVG 1.1//EN"
 "http://www.w3.org/Graphics/SVG/1.1/DTD/svg11.dtd">
<!-- Generated by graphviz version 2.32.0 (20130916.1925)
 -->
<!-- Title: include/visiCore/rc_segmentimpl.h Pages: 1 -->
<svg width="823pt" height="322pt"
 viewBox="0.00 0.00 823.00 322.00" xmlns="http://www.w3.org/2000/svg" xmlns:xlink="http://www.w3.org/1999/xlink">
<g id="graph0" class="graph" transform="scale(1 1) rotate(0) translate(4 318)">
<title>include/visiCore/rc_segmentimpl.h</title>
<polygon fill="white" stroke="white" points="-4,5 -4,-318 820,-318 820,5 -4,5"/>
<!-- Node1 -->
<g id="node1" class="node"><title>Node1</title>
<polygon fill="#bfbfbf" stroke="black" points="323.153,-281 323.153,-313 420.847,-313 420.847,-281 323.153,-281"/>
<text text-anchor="start" x="331.153" y="-299" font-family="Helvetica,sans-Serif" font-size="10.00">include/visiCore/rc</text>
<text text-anchor="middle" x="372" y="-287" font-family="Helvetica,sans-Serif" font-size="10.00">_segmentimpl.h</text>
</g>
<!-- Node2 -->
<g id="node2" class="node"><title>Node2</title>
<g id="a_node2"><a xlink:href="rc__segmentimpl_8cpp.html" target="_top" xlink:title="src/visible/src/rc\l_segmentimpl.cpp">
<polygon fill="white" stroke="black" points="2.42383,-141 2.42383,-173 99.5762,-173 99.5762,-141 2.42383,-141"/>
<text text-anchor="start" x="10.4238" y="-159" font-family="Helvetica,sans-Serif" font-size="10.00">src/visible/src/rc</text>
<text text-anchor="middle" x="51" y="-147" font-family="Helvetica,sans-Serif" font-size="10.00">_segmentimpl.cpp</text>
</a>
</g>
</g>
<!-- Node1&#45;&gt;Node2 -->
<g id="edge1" class="edge"><title>Node1&#45;&gt;Node2</title>
<path fill="none" stroke="midnightblue" d="M316.775,-277.594C289.752,-268.199 256.898,-256.198 228,-244 174.649,-221.481 114.352,-191.08 79.6949,-173.108"/>
<polygon fill="midnightblue" stroke="midnightblue" points="315.855,-280.979 326.449,-280.933 318.138,-274.362 315.855,-280.979"/>
</g>
<!-- Node3 -->
<g id="node3" class="node"><title>Node3</title>
<g id="a_node3"><a xlink:href="rc__trackimpl_8h.html" target="_top" xlink:title="include/visiCore/rc\l_trackimpl.h">
<polygon fill="white" stroke="black" points="285.153,-211 285.153,-243 382.847,-243 382.847,-211 285.153,-211"/>
<text text-anchor="start" x="293.153" y="-229" font-family="Helvetica,sans-Serif" font-size="10.00">include/visiCore/rc</text>
<text text-anchor="middle" x="334" y="-217" font-family="Helvetica,sans-Serif" font-size="10.00">_trackimpl.h</text>
</a>
</g>
</g>
<!-- Node1&#45;&gt;Node3 -->
<g id="edge2" class="edge"><title>Node1&#45;&gt;Node3</title>
<path fill="none" stroke="midnightblue" d="M358.656,-272.122C353.253,-262.452 347.178,-251.581 342.41,-243.049"/>
<polygon fill="midnightblue" stroke="midnightblue" points="355.633,-273.887 363.567,-280.909 361.744,-270.472 355.633,-273.887"/>
</g>
<!-- Node10 -->
<g id="node10" class="node"><title>Node10</title>
<g id="a_node10"><a xlink:href="rc__graphicstrackimpl_8h.html" target="_top" xlink:title="include/visiCore/rc\l_graphicstrackimpl.h">
<polygon fill="white" stroke="black" points="117.148,-141 117.148,-173 224.852,-173 224.852,-141 117.148,-141"/>
<text text-anchor="start" x="125.148" y="-159" font-family="Helvetica,sans-Serif" font-size="10.00">include/visiCore/rc</text>
<text text-anchor="middle" x="171" y="-147" font-family="Helvetica,sans-Serif" font-size="10.00">_graphicstrackimpl.h</text>
</a>
</g>
</g>
<!-- Node1&#45;&gt;Node10 -->
<g id="edge24" class="edge"><title>Node1&#45;&gt;Node10</title>
<path fill="none" stroke="midnightblue" d="M331.083,-276.024C313.663,-266.967 293.393,-255.679 276,-244 242.744,-221.669 207.354,-191.072 187.328,-173.035"/>
<polygon fill="midnightblue" stroke="midnightblue" points="329.936,-279.369 340.432,-280.815 333.128,-273.139 329.936,-279.369"/>
</g>
<!-- Node12 -->
<g id="node12" class="node"><title>Node12</title>
<g id="a_node12"><a xlink:href="rc__positiontrackimpl_8h.html" target="_top" xlink:title="include/visiCore/rc\l_positiontrackimpl.h">
<polygon fill="white" stroke="black" points="358.813,-141 358.813,-173 463.187,-173 463.187,-141 358.813,-141"/>
<text text-anchor="start" x="366.813" y="-159" font-family="Helvetica,sans-Serif" font-size="10.00">include/visiCore/rc</text>
<text text-anchor="middle" x="411" y="-147" font-family="Helvetica,sans-Serif" font-size="10.00">_positiontrackimpl.h</text>
</a>
</g>
</g>
<!-- Node1&#45;&gt;Node12 -->
<g id="edge25" class="edge"><title>Node1&#45;&gt;Node12</title>
<path fill="none" stroke="midnightblue" d="M381.731,-271.277C384.915,-262.714 388.319,-253.005 391,-244 398.306,-219.465 404.591,-190.343 408.078,-173.06"/>
<polygon fill="midnightblue" stroke="midnightblue" points="378.434,-270.102 378.152,-280.693 384.977,-272.589 378.434,-270.102"/>
</g>
<!-- Node14 -->
<g id="node14" class="node"><title>Node14</title>
<g id="a_node14"><a xlink:href="rc__scalartrackimpl_8h.html" target="_top" xlink:title="include/visiCore/rc\l_scalartrackimpl.h">
<polygon fill="white" stroke="black" points="481.153,-141 481.153,-173 578.847,-173 578.847,-141 481.153,-141"/>
<text text-anchor="start" x="489.153" y="-159" font-family="Helvetica,sans-Serif" font-size="10.00">include/visiCore/rc</text>
<text text-anchor="middle" x="530" y="-147" font-family="Helvetica,sans-Serif" font-size="10.00">_scalartrackimpl.h</text>
</a>
</g>
</g>
<!-- Node1&#45;&gt;Node14 -->
<g id="edge26" class="edge"><title>Node1&#45;&gt;Node14</title>
<path fill="none" stroke="midnightblue" d="M396.896,-274.256C429.222,-246.022 484.807,-197.472 512.812,-173.013"/>
<polygon fill="midnightblue" stroke="midnightblue" points="394.439,-271.754 389.21,-280.969 399.044,-277.027 394.439,-271.754"/>
</g>
<!-- Node16 -->
<g id="node16" class="node"><title>Node16</title>
<g id="a_node16"><a xlink:href="rc__videotrackimpl_8h.html" target="_top" xlink:title="include/visiCore/rc\l_videotrackimpl.h">
<polygon fill="white" stroke="black" points="597.153,-141 597.153,-173 694.847,-173 694.847,-141 597.153,-141"/>
<text text-anchor="start" x="605.153" y="-159" font-family="Helvetica,sans-Serif" font-size="10.00">include/visiCore/rc</text>
<text text-anchor="middle" x="646" y="-147" font-family="Helvetica,sans-Serif" font-size="10.00">_videotrackimpl.h</text>
</a>
</g>
</g>
<!-- Node1&#45;&gt;Node16 -->
<g id="edge27" class="edge"><title>Node1&#45;&gt;Node16</title>
<path fill="none" stroke="midnightblue" d="M410.978,-276.369C466.3,-248.506 566.393,-198.094 616.192,-173.013"/>
<polygon fill="midnightblue" stroke="midnightblue" points="409.201,-273.345 401.844,-280.969 412.35,-279.597 409.201,-273.345"/>
</g>
<!-- Node3&#45;&gt;Node2 -->
<g id="edge3" class="edge"><title>Node3&#45;&gt;Node2</title>
<path fill="none" stroke="midnightblue" d="M274.872,-213.202C229.169,-203.114 164.396,-188.395 108,-174 105.311,-173.314 102.555,-172.594 99.7767,-171.856"/>
<polygon fill="midnightblue" stroke="midnightblue" points="274.384,-216.678 284.903,-215.409 275.889,-209.842 274.384,-216.678"/>
</g>
<!-- Node4 -->
<g id="node4" class="node"><title>Node4</title>
<g id="a_node4"><a xlink:href="rc__trackgroupimpl_8h.html" target="_top" xlink:title="include/visiCore/rc\l_trackgroupimpl.h">
<polygon fill="white" stroke="black" points="243.153,-141 243.153,-173 340.847,-173 340.847,-141 243.153,-141"/>
<text text-anchor="start" x="251.153" y="-159" font-family="Helvetica,sans-Serif" font-size="10.00">include/visiCore/rc</text>
<text text-anchor="middle" x="292" y="-147" font-family="Helvetica,sans-Serif" font-size="10.00">_trackgroupimpl.h</text>
</a>
</g>
</g>
<!-- Node3&#45;&gt;Node4 -->
<g id="edge4" class="edge"><title>Node3&#45;&gt;Node4</title>
<path fill="none" stroke="midnightblue" d="M319.252,-202.122C313.279,-192.452 306.565,-181.581 301.295,-173.049"/>
<polygon fill="midnightblue" stroke="midnightblue" points="316.446,-204.24 324.679,-210.909 322.402,-200.561 316.446,-204.24"/>
</g>
<!-- Node3&#45;&gt;Node10 -->
<g id="edge10" class="edge"><title>Node3&#45;&gt;Node10</title>
<path fill="none" stroke="midnightblue" d="M288.299,-206.934C262.612,-196.218 231.004,-183.032 207.074,-173.049"/>
<polygon fill="midnightblue" stroke="midnightblue" points="287.248,-210.289 297.825,-210.909 289.943,-203.828 287.248,-210.289"/>
</g>
<!-- Node3&#45;&gt;Node12 -->
<g id="edge13" class="edge"><title>Node3&#45;&gt;Node12</title>
<path fill="none" stroke="midnightblue" d="M358.691,-204.195C370.197,-194.034 383.601,-182.197 393.959,-173.049"/>
<polygon fill="midnightblue" stroke="midnightblue" points="356.268,-201.666 351.089,-210.909 360.901,-206.913 356.268,-201.666"/>
</g>
<!-- Node3&#45;&gt;Node14 -->
<g id="edge16" class="edge"><title>Node3&#45;&gt;Node14</title>
<path fill="none" stroke="midnightblue" d="M387.328,-207.499C418.499,-196.684 457.341,-183.208 486.623,-173.049"/>
<polygon fill="midnightblue" stroke="midnightblue" points="385.799,-204.324 377.499,-210.909 388.094,-210.937 385.799,-204.324"/>
</g>
<!-- Node3&#45;&gt;Node16 -->
<g id="edge20" class="edge"><title>Node3&#45;&gt;Node16</title>
<path fill="none" stroke="midnightblue" d="M393.114,-214.928C444.534,-205.04 520.953,-189.727 587,-174 590.304,-173.213 593.704,-172.373 597.124,-171.506"/>
<polygon fill="midnightblue" stroke="midnightblue" points="392.336,-211.513 383.173,-216.832 393.653,-218.388 392.336,-211.513"/>
</g>
<!-- Node5 -->
<g id="node5" class="node"><title>Node5</title>
<g id="a_node5"><a xlink:href="rc__trackgroupimpl_8cpp.html" target="_top" xlink:title="src/visible/src/rc\l_trackgroupimpl.cpp">
<polygon fill="white" stroke="black" points="251.978,-71 251.978,-103 358.022,-103 358.022,-71 251.978,-71"/>
<text text-anchor="start" x="259.978" y="-89" font-family="Helvetica,sans-Serif" font-size="10.00">src/visible/src/rc</text>
<text text-anchor="middle" x="305" y="-77" font-family="Helvetica,sans-Serif" font-size="10.00">_trackgroupimpl.cpp</text>
</a>
</g>
</g>
<!-- Node4&#45;&gt;Node5 -->
<g id="edge5" class="edge"><title>Node4&#45;&gt;Node5</title>
<path fill="none" stroke="midnightblue" d="M296.795,-130.92C298.584,-121.56 300.559,-111.229 302.123,-103.049"/>
<polygon fill="midnightblue" stroke="midnightblue" points="293.325,-130.429 294.885,-140.909 300.201,-131.744 293.325,-130.429"/>
</g>
<!-- Node6 -->
<g id="node6" class="node"><title>Node6</title>
<g id="a_node6"><a xlink:href="rc__experimentimpl_8h.html" target="_top" xlink:title="include/visiCore/rc\l_experimentimpl.h">
<polygon fill="white" stroke="black" points="136.148,-71 136.148,-103 233.852,-103 233.852,-71 136.148,-71"/>
<text text-anchor="start" x="144.148" y="-89" font-family="Helvetica,sans-Serif" font-size="10.00">include/visiCore/rc</text>
<text text-anchor="middle" x="185" y="-77" font-family="Helvetica,sans-Serif" font-size="10.00">_experimentimpl.h</text>
</a>
</g>
</g>
<!-- Node4&#45;&gt;Node6 -->
<g id="edge6" class="edge"><title>Node4&#45;&gt;Node6</title>
<path fill="none" stroke="midnightblue" d="M259.522,-135.36C243.139,-124.948 223.628,-112.549 208.68,-103.049"/>
<polygon fill="midnightblue" stroke="midnightblue" points="257.936,-138.499 268.253,-140.909 261.691,-132.591 257.936,-138.499"/>
</g>
<!-- Node7 -->
<g id="node7" class="node"><title>Node7</title>
<g id="a_node7"><a xlink:href="rc__experimentdomainimpl_8cpp.html" target="_top" xlink:title="src/visible/src/rc\l_experimentdomainimpl.cpp">
<polygon fill="white" stroke="black" points="184.468,-1 184.468,-33 325.532,-33 325.532,-1 184.468,-1"/>
<text text-anchor="start" x="192.468" y="-19" font-family="Helvetica,sans-Serif" font-size="10.00">src/visible/src/rc</text>
<text text-anchor="middle" x="255" y="-7" font-family="Helvetica,sans-Serif" font-size="10.00">_experimentdomainimpl.cpp</text>
</a>
</g>
</g>
<!-- Node6&#45;&gt;Node7 -->
<g id="edge7" class="edge"><title>Node6&#45;&gt;Node7</title>
<path fill="none" stroke="midnightblue" d="M207.749,-63.9014C218.141,-53.8062 230.182,-42.1089 239.508,-33.0492"/>
<polygon fill="midnightblue" stroke="midnightblue" points="205.269,-61.4302 200.535,-70.9086 210.147,-66.4512 205.269,-61.4302"/>
</g>
<!-- Node8 -->
<g id="node8" class="node"><title>Node8</title>
<g id="a_node8"><a xlink:href="rc__experimentimpl_8cpp.html" target="_top" xlink:title="src/visible/src/rc\l_experimentimpl.cpp">
<polygon fill="white" stroke="black" points="463.867,-1 463.867,-33 572.133,-33 572.133,-1 463.867,-1"/>
<text text-anchor="start" x="471.867" y="-19" font-family="Helvetica,sans-Serif" font-size="10.00">src/visible/src/rc</text>
<text text-anchor="middle" x="518" y="-7" font-family="Helvetica,sans-Serif" font-size="10.00">_experimentimpl.cpp</text>
</a>
</g>
</g>
<!-- Node6&#45;&gt;Node8 -->
<g id="edge8" class="edge"><title>Node6&#45;&gt;Node8</title>
<path fill="none" stroke="midnightblue" d="M243.965,-69.8774C325.985,-51.1046 410.224,-35.9885 463.718,-26.9063"/>
<polygon fill="midnightblue" stroke="midnightblue" points="242.931,-66.5238 233.975,-72.1847 244.507,-73.3443 242.931,-66.5238"/>
</g>
<!-- Node9 -->
<g id="node9" class="node"><title>Node9</title>
<g id="a_node9"><a xlink:href="rc__nativeimporter_8cpp.html" target="_top" xlink:title="src/visible/src/rc\l_nativeimporter.cpp">
<polygon fill="white" stroke="black" points="63.3623,-1 63.3623,-33 166.638,-33 166.638,-1 63.3623,-1"/>
<text text-anchor="start" x="71.3623" y="-19" font-family="Helvetica,sans-Serif" font-size="10.00">src/visible/src/rc</text>
<text text-anchor="middle" x="115" y="-7" font-family="Helvetica,sans-Serif" font-size="10.00">_nativeimporter.cpp</text>
</a>
</g>
</g>
<!-- Node6&#45;&gt;Node9 -->
<g id="edge9" class="edge"><title>Node6&#45;&gt;Node9</title>
<path fill="none" stroke="midnightblue" d="M162.251,-63.9014C151.859,-53.8062 139.818,-42.1089 130.492,-33.0492"/>
<polygon fill="midnightblue" stroke="midnightblue" points="159.853,-66.4512 169.465,-70.9086 164.731,-61.4302 159.853,-66.4512"/>
</g>
<!-- Node10&#45;&gt;Node5 -->
<g id="edge12" class="edge"><title>Node10&#45;&gt;Node5</title>
<path fill="none" stroke="midnightblue" d="M209.691,-136.366C230.601,-125.755 256.018,-112.857 275.344,-103.049"/>
<polygon fill="midnightblue" stroke="midnightblue" points="208.073,-133.262 200.739,-140.909 211.24,-139.504 208.073,-133.262"/>
</g>
<!-- Node11 -->
<g id="node11" class="node"><title>Node11</title>
<g id="a_node11"><a xlink:href="rc__graphicstrackimpl_8cpp.html" target="_top" xlink:title="src/visible/src/rc\l_graphicstrackimpl.cpp">
<polygon fill="white" stroke="black" points="-0.132812,-71 -0.132812,-103 118.133,-103 118.133,-71 -0.132812,-71"/>
<text text-anchor="start" x="7.86719" y="-89" font-family="Helvetica,sans-Serif" font-size="10.00">src/visible/src/rc</text>
<text text-anchor="middle" x="59" y="-77" font-family="Helvetica,sans-Serif" font-size="10.00">_graphicstrackimpl.cpp</text>
</a>
</g>
</g>
<!-- Node10&#45;&gt;Node11 -->
<g id="edge11" class="edge"><title>Node10&#45;&gt;Node11</title>
<path fill="none" stroke="midnightblue" d="M137.48,-135.649C120.234,-125.178 99.578,-112.637 83.7869,-103.049"/>
<polygon fill="midnightblue" stroke="midnightblue" points="135.779,-138.711 146.144,-140.909 139.412,-132.727 135.779,-138.711"/>
</g>
<!-- Node12&#45;&gt;Node5 -->
<g id="edge15" class="edge"><title>Node12&#45;&gt;Node5</title>
<path fill="none" stroke="midnightblue" d="M378.826,-135.36C362.595,-124.948 343.267,-112.549 328.459,-103.049"/>
<polygon fill="midnightblue" stroke="midnightblue" points="377.168,-138.455 387.475,-140.909 380.948,-132.563 377.168,-138.455"/>
</g>
<!-- Node13 -->
<g id="node13" class="node"><title>Node13</title>
<g id="a_node13"><a xlink:href="rc__positiontrackimpl_8cpp.html" target="_top" xlink:title="src/visible/src/rc\l_positiontrackimpl.cpp">
<polygon fill="white" stroke="black" points="375.532,-71 375.532,-103 490.468,-103 490.468,-71 375.532,-71"/>
<text text-anchor="start" x="383.532" y="-89" font-family="Helvetica,sans-Serif" font-size="10.00">src/visible/src/rc</text>
<text text-anchor="middle" x="433" y="-77" font-family="Helvetica,sans-Serif" font-size="10.00">_positiontrackimpl.cpp</text>
</a>
</g>
</g>
<!-- Node12&#45;&gt;Node13 -->
<g id="edge14" class="edge"><title>Node12&#45;&gt;Node13</title>
<path fill="none" stroke="midnightblue" d="M419.017,-131.221C422.07,-121.782 425.456,-111.317 428.131,-103.049"/>
<polygon fill="midnightblue" stroke="midnightblue" points="415.631,-130.317 415.883,-140.909 422.291,-132.472 415.631,-130.317"/>
</g>
<!-- Node14&#45;&gt;Node5 -->
<g id="edge19" class="edge"><title>Node14&#45;&gt;Node5</title>
<path fill="none" stroke="midnightblue" d="M470.977,-138.162C434.828,-127.237 389.08,-113.411 354.772,-103.042"/>
<polygon fill="midnightblue" stroke="midnightblue" points="470.316,-141.618 480.901,-141.161 472.341,-134.918 470.316,-141.618"/>
</g>
<!-- Node14&#45;&gt;Node8 -->
<g id="edge17" class="edge"><title>Node14&#45;&gt;Node8</title>
<path fill="none" stroke="midnightblue" d="M527.821,-130.939C525.335,-102.354 521.351,-56.5393 519.305,-33.0126"/>
<polygon fill="midnightblue" stroke="midnightblue" points="524.34,-131.31 528.693,-140.969 531.313,-130.703 524.34,-131.31"/>
</g>
<!-- Node15 -->
<g id="node15" class="node"><title>Node15</title>
<g id="a_node15"><a xlink:href="rc__scalartrackimpl_8cpp.html" target="_top" xlink:title="src/visible/src/rc\l_scalartrackimpl.cpp">
<polygon fill="white" stroke="black" points="546.429,-71 546.429,-103 653.571,-103 653.571,-71 546.429,-71"/>
<text text-anchor="start" x="554.429" y="-89" font-family="Helvetica,sans-Serif" font-size="10.00">src/visible/src/rc</text>
<text text-anchor="middle" x="600" y="-77" font-family="Helvetica,sans-Serif" font-size="10.00">_scalartrackimpl.cpp</text>
</a>
</g>
</g>
<!-- Node14&#45;&gt;Node15 -->
<g id="edge18" class="edge"><title>Node14&#45;&gt;Node15</title>
<path fill="none" stroke="midnightblue" d="M552.749,-133.901C563.141,-123.806 575.182,-112.109 584.508,-103.049"/>
<polygon fill="midnightblue" stroke="midnightblue" points="550.269,-131.43 545.535,-140.909 555.147,-136.451 550.269,-131.43"/>
</g>
<!-- Node16&#45;&gt;Node5 -->
<g id="edge22" class="edge"><title>Node16&#45;&gt;Node5</title>
<path fill="none" stroke="midnightblue" d="M587.302,-140.066C587.201,-140.044 587.1,-140.022 587,-140 490.171,-119.006 463.955,-124.4 367,-104 364.063,-103.382 361.056,-102.716 358.026,-102.02"/>
<polygon fill="midnightblue" stroke="midnightblue" points="586.307,-143.428 596.837,-142.263 587.878,-136.607 586.307,-143.428"/>
</g>
<!-- Node16&#45;&gt;Node8 -->
<g id="edge21" class="edge"><title>Node16&#45;&gt;Node8</title>
<path fill="none" stroke="midnightblue" d="M659.561,-131.661C667.845,-113.201 674.649,-88.0161 662,-70 641.839,-41.2849 604.184,-28.3571 572.436,-22.5703"/>
<polygon fill="midnightblue" stroke="midnightblue" points="656.301,-130.361 655.056,-140.882 662.59,-133.434 656.301,-130.361"/>
</g>
<!-- Node17 -->
<g id="node17" class="node"><title>Node17</title>
<g id="a_node17"><a xlink:href="rc__videotrackimpl_8cpp.html" target="_top" xlink:title="src/visible/src/rc\l_videotrackimpl.cpp">
<polygon fill="white" stroke="black" points="709.813,-71 709.813,-103 814.187,-103 814.187,-71 709.813,-71"/>
<text text-anchor="start" x="717.813" y="-89" font-family="Helvetica,sans-Serif" font-size="10.00">src/visible/src/rc</text>
<text text-anchor="middle" x="762" y="-77" font-family="Helvetica,sans-Serif" font-size="10.00">_videotrackimpl.cpp</text>
</a>
</g>
</g>
<!-- Node16&#45;&gt;Node17 -->
<g id="edge23" class="edge"><title>Node16&#45;&gt;Node17</title>
<path fill="none" stroke="midnightblue" d="M680.717,-135.649C698.579,-125.178 719.973,-112.637 736.328,-103.049"/>
<polygon fill="midnightblue" stroke="midnightblue" points="678.601,-132.832 671.744,-140.909 682.141,-138.871 678.601,-132.832"/>
</g>
</g>
</svg>
