<?xml version="1.0" encoding="UTF-8" standalone="no"?>
<!DOCTYPE svg PUBLIC "-//W3C//DTD SVG 1.1//EN"
 "http://www.w3.org/Graphics/SVG/1.1/DTD/svg11.dtd">
<!-- Generated by graphviz version 2.32.0 (20130916.1925)
 -->
<!-- Title: rfCellDensity Pages: 1 -->
<svg width="910pt" height="341pt"
 viewBox="0.00 0.00 910.00 341.00" xmlns="http://www.w3.org/2000/svg" xmlns:xlink="http://www.w3.org/1999/xlink">
<g id="graph0" class="graph" transform="scale(1 1) rotate(0) translate(4 337)">
<title>rfCellDensity</title>
<polygon fill="white" stroke="white" points="-4,5 -4,-337 907,-337 907,5 -4,5"/>
<!-- Node1 -->
<g id="node1" class="node"><title>Node1</title>
<polygon fill="#bfbfbf" stroke="black" points="0.660156,-176 0.660156,-196 73.3398,-196 73.3398,-176 0.660156,-176"/>
<text text-anchor="middle" x="37" y="-182" font-family="Helvetica,sans-Serif" font-size="10.00">rfCellDensity</text>
</g>
<!-- Node2 -->
<g id="node2" class="node"><title>Node2</title>
<g id="a_node2"><a xlink:href="rc__cell_8h.html#a08e8b34b9b449250b2b30382eb4dc61c" target="_top" xlink:title="rfCellCount">
<polygon fill="white" stroke="black" points="124.99,-215 124.99,-235 191.01,-235 191.01,-215 124.99,-215"/>
<text text-anchor="middle" x="158" y="-221" font-family="Helvetica,sans-Serif" font-size="10.00">rfCellCount</text>
</a>
</g>
</g>
<!-- Node1&#45;&gt;Node2 -->
<g id="edge1" class="edge"><title>Node1&#45;&gt;Node2</title>
<path fill="none" stroke="midnightblue" d="M68.6455,-196.043C83.3589,-200.866 101.178,-206.706 116.949,-211.874"/>
<polygon fill="midnightblue" stroke="midnightblue" points="115.866,-215.202 126.458,-214.991 118.046,-208.55 115.866,-215.202"/>
</g>
<!-- Node3 -->
<g id="node3" class="node"><title>Node3</title>
<g id="a_node3"><a xlink:href="rc__imageprocessing_8cpp.html#ab8b69ae38197fca9e9a7e5ffd016fdb7" target="_top" xlink:title="rfRcWindow32to8">
<polygon fill="white" stroke="black" points="110.54,-176 110.54,-196 205.46,-196 205.46,-176 110.54,-176"/>
<text text-anchor="middle" x="158" y="-182" font-family="Helvetica,sans-Serif" font-size="10.00">rfRcWindow32to8</text>
</a>
</g>
</g>
<!-- Node1&#45;&gt;Node3 -->
<g id="edge2" class="edge"><title>Node1&#45;&gt;Node3</title>
<path fill="none" stroke="midnightblue" d="M73.3817,-186C81.844,-186 91.0897,-186 100.248,-186"/>
<polygon fill="midnightblue" stroke="midnightblue" points="100.506,-189.5 110.506,-186 100.506,-182.5 100.506,-189.5"/>
</g>
<!-- Node23 -->
<g id="node23" class="node"><title>Node23</title>
<g id="a_node23"><a xlink:href="rc__polygon__edge_8h.html#a20b90bbf2be94c9dfdbadcdbe910eed4" target="_top" xlink:title="value_type">
<polygon fill="white" stroke="black" points="125.815,-137 125.815,-157 190.185,-157 190.185,-137 125.815,-137"/>
<text text-anchor="middle" x="158" y="-143" font-family="Helvetica,sans-Serif" font-size="10.00">value_type</text>
</a>
</g>
</g>
<!-- Node1&#45;&gt;Node23 -->
<g id="edge30" class="edge"><title>Node1&#45;&gt;Node23</title>
<path fill="none" stroke="midnightblue" d="M68.6455,-175.957C83.3589,-171.134 101.178,-165.294 116.949,-160.126"/>
<polygon fill="midnightblue" stroke="midnightblue" points="118.046,-163.45 126.458,-157.009 115.866,-156.798 118.046,-163.45"/>
</g>
<!-- Node4 -->
<g id="node4" class="node"><title>Node4</title>
<g id="a_node4"><a xlink:href="rc__ipconvert_8cpp.html#a53578da9a91b437436998cf197942548" target="_top" xlink:title="rfImageConvert32to8">
<polygon fill="white" stroke="black" points="242.03,-176 242.03,-196 351.97,-196 351.97,-176 242.03,-176"/>
<text text-anchor="middle" x="297" y="-182" font-family="Helvetica,sans-Serif" font-size="10.00">rfImageConvert32to8</text>
</a>
</g>
</g>
<!-- Node3&#45;&gt;Node4 -->
<g id="edge3" class="edge"><title>Node3&#45;&gt;Node4</title>
<path fill="none" stroke="midnightblue" d="M205.764,-186C214.122,-186 222.96,-186 231.707,-186"/>
<polygon fill="midnightblue" stroke="midnightblue" points="231.899,-189.5 241.899,-186 231.899,-182.5 231.899,-189.5"/>
</g>
<!-- Node5 -->
<g id="node5" class="node"><title>Node5</title>
<g id="a_node5"><a xlink:href="classrc_window.html#a0ae0c2adbe34085eb07c93edd60b342a" target="_top" xlink:title="rcWindow::width">
<polygon fill="white" stroke="black" points="536.601,-118 536.601,-138 625.399,-138 625.399,-118 536.601,-118"/>
<text text-anchor="middle" x="581" y="-124" font-family="Helvetica,sans-Serif" font-size="10.00">rcWindow::width</text>
</a>
</g>
</g>
<!-- Node4&#45;&gt;Node5 -->
<g id="edge4" class="edge"><title>Node4&#45;&gt;Node5</title>
<path fill="none" stroke="midnightblue" d="M346.799,-175.963C396.899,-165.659 474.655,-149.667 526.43,-139.018"/>
<polygon fill="midnightblue" stroke="midnightblue" points="527.333,-142.406 536.422,-136.963 525.922,-135.549 527.333,-142.406"/>
</g>
<!-- Node6 -->
<g id="node6" class="node"><title>Node6</title>
<g id="a_node6"><a xlink:href="classrc_window.html#a958e7e0bd74b12cbcb44e73a2692400a" target="_top" xlink:title="rcWindow::height">
<polygon fill="white" stroke="black" points="534.65,-313 534.65,-333 627.35,-333 627.35,-313 534.65,-313"/>
<text text-anchor="middle" x="581" y="-319" font-family="Helvetica,sans-Serif" font-size="10.00">rcWindow::height</text>
</a>
</g>
</g>
<!-- Node4&#45;&gt;Node6 -->
<g id="edge5" class="edge"><title>Node4&#45;&gt;Node6</title>
<path fill="none" stroke="midnightblue" d="M308.851,-196.164C325.011,-210.85 356.852,-238.096 388,-255 433.986,-279.957 490.953,-298.781 530.845,-310.224"/>
<polygon fill="midnightblue" stroke="midnightblue" points="530.028,-313.63 540.603,-312.973 531.927,-306.892 530.028,-313.63"/>
</g>
<!-- Node7 -->
<g id="node7" class="node"><title>Node7</title>
<g id="a_node7"><a xlink:href="classrc_window.html#a9ab724dc45a3c3c2beee6c8ed558de1e" target="_top" xlink:title="rcWindow::depth">
<polygon fill="white" stroke="black" points="535.761,-274 535.761,-294 626.239,-294 626.239,-274 535.761,-274"/>
<text text-anchor="middle" x="581" y="-280" font-family="Helvetica,sans-Serif" font-size="10.00">rcWindow::depth</text>
</a>
</g>
</g>
<!-- Node4&#45;&gt;Node7 -->
<g id="edge6" class="edge"><title>Node4&#45;&gt;Node7</title>
<path fill="none" stroke="midnightblue" d="M319.55,-196.14C337.613,-204.445 364.196,-216.216 388,-225 436.905,-243.047 494.163,-260.135 533.344,-271.231"/>
<polygon fill="midnightblue" stroke="midnightblue" points="532.573,-274.65 543.148,-273.989 534.469,-267.911 532.573,-274.65"/>
</g>
<!-- Node8 -->
<g id="node8" class="node"><title>Node8</title>
<g id="a_node8"><a xlink:href="rc__ipconvert_8cpp.html#a67e3db4d85bf300c66cff707e1e773fd" target="_top" xlink:title="_rfRcWindow32to8">
<polygon fill="white" stroke="black" points="387.759,-196 387.759,-216 488.241,-216 488.241,-196 387.759,-196"/>
<text text-anchor="middle" x="438" y="-202" font-family="Helvetica,sans-Serif" font-size="10.00">_rfRcWindow32to8</text>
</a>
</g>
</g>
<!-- Node4&#45;&gt;Node8 -->
<g id="edge7" class="edge"><title>Node4&#45;&gt;Node8</title>
<path fill="none" stroke="midnightblue" d="M352.139,-193.79C360.376,-194.975 368.917,-196.204 377.266,-197.405"/>
<polygon fill="midnightblue" stroke="midnightblue" points="376.924,-200.892 387.321,-198.852 377.921,-193.963 376.924,-200.892"/>
</g>
<!-- Node9 -->
<g id="node9" class="node"><title>Node9</title>
<g id="a_node9"><a xlink:href="classrc_window.html#a169ec1b12c37c2a6ca29d1bff4d8ffea" target="_top" xlink:title="rcWindow::isGray">
<polygon fill="white" stroke="black" points="533.828,-157 533.828,-177 628.172,-177 628.172,-157 533.828,-157"/>
<text text-anchor="middle" x="581" y="-163" font-family="Helvetica,sans-Serif" font-size="10.00">rcWindow::isGray</text>
</a>
</g>
</g>
<!-- Node4&#45;&gt;Node9 -->
<g id="edge29" class="edge"><title>Node4&#45;&gt;Node9</title>
<path fill="none" stroke="midnightblue" d="M352.039,-182.359C401.264,-179.042 473.689,-174.163 523.63,-170.798"/>
<polygon fill="midnightblue" stroke="midnightblue" points="523.875,-174.29 533.617,-170.125 523.404,-167.305 523.875,-174.29"/>
</g>
<!-- Node18 -->
<g id="node18" class="node"><title>Node18</title>
<g id="a_node18"><a xlink:href="classrc_window.html#a2a036edf5b144800400615066e744e39" target="_top" xlink:title="rcWindow::vImage">
<polygon fill="white" stroke="black" points="388.877,-79 388.877,-99 487.123,-99 487.123,-79 388.877,-79"/>
<text text-anchor="middle" x="438" y="-85" font-family="Helvetica,sans-Serif" font-size="10.00">rcWindow::vImage</text>
</a>
</g>
</g>
<!-- Node4&#45;&gt;Node18 -->
<g id="edge20" class="edge"><title>Node4&#45;&gt;Node18</title>
<path fill="none" stroke="midnightblue" d="M309.43,-175.876C326.048,-161.419 358.16,-134.46 388,-115 393.962,-111.112 400.565,-107.302 406.943,-103.849"/>
<polygon fill="midnightblue" stroke="midnightblue" points="408.8,-106.827 416.024,-99.0777 405.544,-100.63 408.8,-106.827"/>
</g>
<!-- Node8&#45;&gt;Node5 -->
<g id="edge8" class="edge"><title>Node8&#45;&gt;Node5</title>
<path fill="none" stroke="midnightblue" d="M451.604,-195.867C467.659,-183.331 496.617,-161.941 524,-148 528.37,-145.775 533.046,-143.687 537.765,-141.763"/>
<polygon fill="midnightblue" stroke="midnightblue" points="539.347,-144.904 547.425,-138.048 536.835,-138.37 539.347,-144.904"/>
</g>
<!-- Node8&#45;&gt;Node6 -->
<g id="edge9" class="edge"><title>Node8&#45;&gt;Node6</title>
<path fill="none" stroke="midnightblue" d="M445.221,-216.015C457.787,-235.464 488.078,-278.576 524,-303 527.129,-305.128 530.511,-307.056 534.008,-308.799"/>
<polygon fill="midnightblue" stroke="midnightblue" points="532.881,-312.128 543.441,-312.987 535.722,-305.73 532.881,-312.128"/>
</g>
<!-- Node8&#45;&gt;Node7 -->
<g id="edge10" class="edge"><title>Node8&#45;&gt;Node7</title>
<path fill="none" stroke="midnightblue" d="M451.604,-216.133C467.659,-228.669 496.617,-250.059 524,-264 528.37,-266.225 533.046,-268.313 537.765,-270.237"/>
<polygon fill="midnightblue" stroke="midnightblue" points="536.835,-273.63 547.425,-273.952 539.347,-267.096 536.835,-273.63"/>
</g>
<!-- Node8&#45;&gt;Node9 -->
<g id="edge11" class="edge"><title>Node8&#45;&gt;Node9</title>
<path fill="none" stroke="midnightblue" d="M475.311,-195.957C493.238,-190.998 515.056,-184.963 534.126,-179.689"/>
<polygon fill="midnightblue" stroke="midnightblue" points="535.107,-183.049 543.812,-177.009 533.241,-176.302 535.107,-183.049"/>
</g>
<!-- Node10 -->
<g id="node10" class="node"><title>Node10</title>
<g id="a_node10"><a xlink:href="classrc_window.html#a232627a15bd75725861721177a38df82" target="_top" xlink:title="rcWindow::rowPointer">
<polygon fill="white" stroke="black" points="524.375,-235 524.375,-255 637.625,-255 637.625,-235 524.375,-235"/>
<text text-anchor="middle" x="581" y="-241" font-family="Helvetica,sans-Serif" font-size="10.00">rcWindow::rowPointer</text>
</a>
</g>
</g>
<!-- Node8&#45;&gt;Node10 -->
<g id="edge12" class="edge"><title>Node8&#45;&gt;Node10</title>
<path fill="none" stroke="midnightblue" d="M475.311,-216.043C493.238,-221.002 515.056,-227.037 534.126,-232.311"/>
<polygon fill="midnightblue" stroke="midnightblue" points="533.241,-235.698 543.812,-234.991 535.107,-228.951 533.241,-235.698"/>
</g>
<!-- Node17 -->
<g id="node17" class="node"><title>Node17</title>
<g id="a_node17"><a xlink:href="rc__framebuf_8h.html#a08ad8739ff3070208312c101816cd53f" target="_top" xlink:title="rfGray">
<polygon fill="white" stroke="black" points="559.111,-196 559.111,-216 602.889,-216 602.889,-196 559.111,-196"/>
<text text-anchor="middle" x="581" y="-202" font-family="Helvetica,sans-Serif" font-size="10.00">rfGray</text>
</a>
</g>
</g>
<!-- Node8&#45;&gt;Node17 -->
<g id="edge19" class="edge"><title>Node8&#45;&gt;Node17</title>
<path fill="none" stroke="midnightblue" d="M488.315,-206C508.308,-206 530.806,-206 548.512,-206"/>
<polygon fill="midnightblue" stroke="midnightblue" points="548.853,-209.5 558.853,-206 548.853,-202.5 548.853,-209.5"/>
</g>
<!-- Node11 -->
<g id="node11" class="node"><title>Node11</title>
<g id="a_node11"><a xlink:href="classrc_frame.html#a401a851fcb8a4328949d38cb34b572f6" target="_top" xlink:title="rcFrame::rowPointer">
<polygon fill="white" stroke="black" points="674.712,-235 674.712,-255 781.288,-255 781.288,-235 674.712,-235"/>
<text text-anchor="middle" x="728" y="-241" font-family="Helvetica,sans-Serif" font-size="10.00">rcFrame::rowPointer</text>
</a>
</g>
</g>
<!-- Node10&#45;&gt;Node11 -->
<g id="edge13" class="edge"><title>Node10&#45;&gt;Node11</title>
<path fill="none" stroke="midnightblue" d="M637.646,-245C646.371,-245 655.441,-245 664.312,-245"/>
<polygon fill="midnightblue" stroke="midnightblue" points="664.6,-248.5 674.6,-245 664.6,-241.5 664.6,-248.5"/>
</g>
<!-- Node12 -->
<g id="node12" class="node"><title>Node12</title>
<g id="a_node12"><a xlink:href="classrc_rect.html#a50236160751c949d8718f8d4d17f7923" target="_top" xlink:title="rcRect::y">
<polygon fill="white" stroke="black" points="700.276,-128 700.276,-148 755.724,-148 755.724,-128 700.276,-128"/>
<text text-anchor="middle" x="728" y="-134" font-family="Helvetica,sans-Serif" font-size="10.00">rcRect::y</text>
</a>
</g>
</g>
<!-- Node10&#45;&gt;Node12 -->
<g id="edge14" class="edge"><title>Node10&#45;&gt;Node12</title>
<path fill="none" stroke="midnightblue" d="M618.926,-234.975C625.588,-232.304 632.24,-229.012 638,-225 658.452,-210.754 656.339,-199.588 674,-182 683.7,-172.34 695.322,-162.522 705.208,-154.618"/>
<polygon fill="midnightblue" stroke="midnightblue" points="707.655,-157.147 713.357,-148.217 703.331,-151.642 707.655,-157.147"/>
</g>
<!-- Node14 -->
<g id="node14" class="node"><title>Node14</title>
<g id="a_node14"><a xlink:href="classrc_rect.html#ac0f95519a41dcf7e33bec85ccb8e7aff" target="_top" xlink:title="rcRect::x">
<polygon fill="white" stroke="black" points="700.276,-84 700.276,-104 755.724,-104 755.724,-84 700.276,-84"/>
<text text-anchor="middle" x="728" y="-90" font-family="Helvetica,sans-Serif" font-size="10.00">rcRect::x</text>
</a>
</g>
</g>
<!-- Node10&#45;&gt;Node14 -->
<g id="edge16" class="edge"><title>Node10&#45;&gt;Node14</title>
<path fill="none" stroke="midnightblue" d="M623.707,-234.996C628.983,-232.394 633.944,-229.12 638,-225 672.905,-189.545 640.868,-156.118 674,-119 678.643,-113.799 684.598,-109.59 690.83,-106.217"/>
<polygon fill="midnightblue" stroke="midnightblue" points="692.502,-109.298 700.039,-101.852 689.503,-102.972 692.502,-109.298"/>
</g>
<!-- Node16 -->
<g id="node16" class="node"><title>Node16</title>
<g id="a_node16"><a xlink:href="classrc_frame.html#aaef8303c840834284eb9c60d33bf40c1" target="_top" xlink:title="rcFrame::depth">
<polygon fill="white" stroke="black" points="818.099,-25 818.099,-45 901.901,-45 901.901,-25 818.099,-25"/>
<text text-anchor="middle" x="860" y="-31" font-family="Helvetica,sans-Serif" font-size="10.00">rcFrame::depth</text>
</a>
</g>
</g>
<!-- Node10&#45;&gt;Node16 -->
<g id="edge18" class="edge"><title>Node10&#45;&gt;Node16</title>
<path fill="none" stroke="midnightblue" d="M629.538,-234.961C674.236,-223.264 740.337,-199.824 782,-157 809.755,-128.472 795.339,-107.721 818,-75 823.821,-66.5948 831.58,-58.4892 838.78,-51.7982"/>
<polygon fill="midnightblue" stroke="midnightblue" points="841.113,-54.4079 846.257,-45.1458 836.459,-49.1783 841.113,-54.4079"/>
</g>
<!-- Node13 -->
<g id="node13" class="node"><title>Node13</title>
<g id="a_node13"><a xlink:href="classrc_pair.html#a87400f83938e920c405c40aa449d3607" target="_top" xlink:title="rcPair::y">
<polygon fill="white" stroke="black" points="833.665,-128 833.665,-148 886.335,-148 886.335,-128 833.665,-128"/>
<text text-anchor="middle" x="860" y="-134" font-family="Helvetica,sans-Serif" font-size="10.00">rcPair::y</text>
</a>
</g>
</g>
<!-- Node12&#45;&gt;Node13 -->
<g id="edge15" class="edge"><title>Node12&#45;&gt;Node13</title>
<path fill="none" stroke="midnightblue" d="M755.936,-138C775.404,-138 801.907,-138 823.161,-138"/>
<polygon fill="midnightblue" stroke="midnightblue" points="823.425,-141.5 833.425,-138 823.425,-134.5 823.425,-141.5"/>
</g>
<!-- Node15 -->
<g id="node15" class="node"><title>Node15</title>
<g id="a_node15"><a xlink:href="classrc_pair.html#ad1a3cb1e7fdbe119ce1295514b1bb49d" target="_top" xlink:title="rcPair::x">
<polygon fill="white" stroke="black" points="833.665,-84 833.665,-104 886.335,-104 886.335,-84 833.665,-84"/>
<text text-anchor="middle" x="860" y="-90" font-family="Helvetica,sans-Serif" font-size="10.00">rcPair::x</text>
</a>
</g>
</g>
<!-- Node14&#45;&gt;Node15 -->
<g id="edge17" class="edge"><title>Node14&#45;&gt;Node15</title>
<path fill="none" stroke="midnightblue" d="M755.936,-94C775.404,-94 801.907,-94 823.161,-94"/>
<polygon fill="midnightblue" stroke="midnightblue" points="823.425,-97.5001 833.425,-94 823.425,-90.5001 823.425,-97.5001"/>
</g>
<!-- Node18&#45;&gt;Node5 -->
<g id="edge28" class="edge"><title>Node18&#45;&gt;Node5</title>
<path fill="none" stroke="midnightblue" d="M475.311,-99.0435C493.238,-104.002 515.056,-110.037 534.126,-115.311"/>
<polygon fill="midnightblue" stroke="midnightblue" points="533.241,-118.698 543.812,-117.991 535.107,-111.951 533.241,-118.698"/>
</g>
<!-- Node19 -->
<g id="node19" class="node"><title>Node19</title>
<g id="a_node19"><a xlink:href="classrc_window.html#a3286f93b0d223617111f3ac62b854b2f" target="_top" xlink:title="rcWindow::isBound">
<polygon fill="white" stroke="black" points="530.205,-79 530.205,-99 631.795,-99 631.795,-79 530.205,-79"/>
<text text-anchor="middle" x="581" y="-85" font-family="Helvetica,sans-Serif" font-size="10.00">rcWindow::isBound</text>
</a>
</g>
</g>
<!-- Node18&#45;&gt;Node19 -->
<g id="edge21" class="edge"><title>Node18&#45;&gt;Node19</title>
<path fill="none" stroke="midnightblue" d="M487.13,-89C497.649,-89 508.91,-89 519.833,-89"/>
<polygon fill="midnightblue" stroke="midnightblue" points="520.166,-92.5001 530.166,-89 520.166,-85.5001 520.166,-92.5001"/>
</g>
<!-- Node20 -->
<g id="node20" class="node"><title>Node20</title>
<g id="a_node20"><a xlink:href="classrc_window.html#a5cddcde6594113f6d8bb2dfb1f498c0a" target="_top" xlink:title="rcWindow::rowUpdate">
<polygon fill="white" stroke="black" points="524.094,-40 524.094,-60 637.906,-60 637.906,-40 524.094,-40"/>
<text text-anchor="middle" x="581" y="-46" font-family="Helvetica,sans-Serif" font-size="10.00">rcWindow::rowUpdate</text>
</a>
</g>
</g>
<!-- Node18&#45;&gt;Node20 -->
<g id="edge22" class="edge"><title>Node18&#45;&gt;Node20</title>
<path fill="none" stroke="midnightblue" d="M475.311,-78.9565C493.238,-73.998 515.056,-67.9631 534.126,-62.6886"/>
<polygon fill="midnightblue" stroke="midnightblue" points="535.107,-66.0487 543.812,-60.0094 533.241,-59.302 535.107,-66.0487"/>
</g>
<!-- Node21 -->
<g id="node21" class="node"><title>Node21</title>
<g id="a_node21"><a xlink:href="classrc_window.html#a8bad48552f0db28803089113326911de" target="_top" xlink:title="rcWindow::pelPointer">
<polygon fill="white" stroke="black" points="525.759,-1 525.759,-21 636.241,-21 636.241,-1 525.759,-1"/>
<text text-anchor="middle" x="581" y="-7" font-family="Helvetica,sans-Serif" font-size="10.00">rcWindow::pelPointer</text>
</a>
</g>
</g>
<!-- Node18&#45;&gt;Node21 -->
<g id="edge23" class="edge"><title>Node18&#45;&gt;Node21</title>
<path fill="none" stroke="midnightblue" d="M451.604,-78.8671C467.659,-66.3309 496.617,-44.941 524,-31 528.37,-28.7752 533.046,-26.6875 537.765,-24.7625"/>
<polygon fill="midnightblue" stroke="midnightblue" points="539.347,-27.904 547.425,-21.0482 536.835,-21.3704 539.347,-27.904"/>
</g>
<!-- Node21&#45;&gt;Node12 -->
<g id="edge27" class="edge"><title>Node21&#45;&gt;Node12</title>
<path fill="none" stroke="midnightblue" d="M622.817,-21.0602C628.349,-23.6594 633.619,-26.9182 638,-31 667.121,-58.1325 646.239,-84.4775 674,-113 678.815,-117.947 684.802,-122.028 691,-125.355"/>
<polygon fill="midnightblue" stroke="midnightblue" points="689.588,-128.559 700.122,-129.702 692.6,-122.24 689.588,-128.559"/>
</g>
<!-- Node21&#45;&gt;Node14 -->
<g id="edge26" class="edge"><title>Node21&#45;&gt;Node14</title>
<path fill="none" stroke="midnightblue" d="M614.915,-21.0657C622.661,-23.8925 630.764,-27.2375 638,-31 663.173,-44.0894 689.376,-63.4457 706.774,-77.2446"/>
<polygon fill="midnightblue" stroke="midnightblue" points="705.037,-80.3394 715.018,-83.8914 709.43,-74.89 705.037,-80.3394"/>
</g>
<!-- Node22 -->
<g id="node22" class="node"><title>Node22</title>
<g id="a_node22"><a xlink:href="classrc_frame.html#a8005eafc78f0008a7df596d55c2b23b9" target="_top" xlink:title="rcFrame::pelPointer">
<polygon fill="white" stroke="black" points="676.096,-6 676.096,-26 779.904,-26 779.904,-6 676.096,-6"/>
<text text-anchor="middle" x="728" y="-12" font-family="Helvetica,sans-Serif" font-size="10.00">rcFrame::pelPointer</text>
</a>
</g>
</g>
<!-- Node21&#45;&gt;Node22 -->
<g id="edge24" class="edge"><title>Node21&#45;&gt;Node22</title>
<path fill="none" stroke="midnightblue" d="M636.405,-12.876C645.948,-13.2051 655.938,-13.5496 665.653,-13.8846"/>
<polygon fill="midnightblue" stroke="midnightblue" points="665.534,-17.3825 675.649,-14.2293 665.775,-10.3866 665.534,-17.3825"/>
</g>
<!-- Node22&#45;&gt;Node16 -->
<g id="edge25" class="edge"><title>Node22&#45;&gt;Node16</title>
<path fill="none" stroke="midnightblue" d="M780.006,-23.4548C789.102,-24.7842 798.582,-26.1697 807.687,-27.5004"/>
<polygon fill="midnightblue" stroke="midnightblue" points="807.366,-30.9905 817.767,-28.9736 808.378,-24.0641 807.366,-30.9905"/>
</g>
</g>
</svg>
