<?xml version="1.0" encoding="UTF-8" standalone="no"?>
<!DOCTYPE svg PUBLIC "-//W3C//DTD SVG 1.1//EN"
 "http://www.w3.org/Graphics/SVG/1.1/DTD/svg11.dtd">
<!-- Generated by graphviz version 2.32.0 (20130916.1925)
 -->
<!-- Title: rfCorrelateWindow Pages: 1 -->
<svg width="278pt" height="592pt"
 viewBox="0.00 0.00 278.00 592.00" xmlns="http://www.w3.org/2000/svg" xmlns:xlink="http://www.w3.org/1999/xlink">
<g id="graph0" class="graph" transform="scale(1 1) rotate(0) translate(4 588)">
<title>rfCorrelateWindow</title>
<polygon fill="white" stroke="white" points="-4,5 -4,-588 275,-588 275,5 -4,5"/>
<!-- Node1 -->
<g id="node1" class="node"><title>Node1</title>
<polygon fill="#bfbfbf" stroke="black" points="0.598633,-270 0.598633,-290 99.4014,-290 99.4014,-270 0.598633,-270"/>
<text text-anchor="middle" x="50" y="-276" font-family="Helvetica,sans-Serif" font-size="10.00">rfCorrelateWindow</text>
</g>
<!-- Node2 -->
<g id="node2" class="node"><title>Node2</title>
<g id="a_node2"><a xlink:href="classrc_correlation_window.html#ac3afa77b273905656c0fc4f7888a7541" target="_top" xlink:title="rcCorrelationWindow\l::depth">
<polygon fill="white" stroke="black" points="148.596,-552 148.596,-584 257.404,-584 257.404,-552 148.596,-552"/>
<text text-anchor="start" x="156.596" y="-570" font-family="Helvetica,sans-Serif" font-size="10.00">rcCorrelationWindow</text>
<text text-anchor="middle" x="203" y="-558" font-family="Helvetica,sans-Serif" font-size="10.00">::depth</text>
</a>
</g>
</g>
<!-- Node1&#45;&gt;Node2 -->
<g id="edge1" class="edge"><title>Node1&#45;&gt;Node2</title>
<path fill="none" stroke="midnightblue" d="M51.3178,-290.056C53.0578,-328.207 64.2616,-465.704 136,-542 137.36,-543.447 138.811,-544.814 140.336,-546.107"/>
<polygon fill="midnightblue" stroke="midnightblue" points="138.33,-548.976 148.495,-551.967 142.414,-543.291 138.33,-548.976"/>
</g>
<!-- Node3 -->
<g id="node3" class="node"><title>Node3</title>
<g id="a_node3"><a xlink:href="classrc_correlation_window.html#a084f852521e2153663bef7e38455238b" target="_top" xlink:title="rcCorrelationWindow\l::height">
<polygon fill="white" stroke="black" points="148.596,-501 148.596,-533 257.404,-533 257.404,-501 148.596,-501"/>
<text text-anchor="start" x="156.596" y="-519" font-family="Helvetica,sans-Serif" font-size="10.00">rcCorrelationWindow</text>
<text text-anchor="middle" x="203" y="-507" font-family="Helvetica,sans-Serif" font-size="10.00">::height</text>
</a>
</g>
</g>
<!-- Node1&#45;&gt;Node3 -->
<g id="edge2" class="edge"><title>Node1&#45;&gt;Node3</title>
<path fill="none" stroke="midnightblue" d="M52.2688,-290.368C56.9186,-324.022 76.0103,-431.469 136,-491 137.442,-492.431 138.973,-493.786 140.575,-495.068"/>
<polygon fill="midnightblue" stroke="midnightblue" points="138.862,-498.137 149.092,-500.893 142.813,-492.359 138.862,-498.137"/>
</g>
<!-- Node4 -->
<g id="node4" class="node"><title>Node4</title>
<g id="a_node4"><a xlink:href="classrc_basic_corr_row_func.html#a15fb622244c32813f2fe695665583b75" target="_top" xlink:title="rcBasicCorrRowFunc\l::prolog">
<polygon fill="white" stroke="black" points="147.769,-450 147.769,-482 258.231,-482 258.231,-450 147.769,-450"/>
<text text-anchor="start" x="155.769" y="-468" font-family="Helvetica,sans-Serif" font-size="10.00">rcBasicCorrRowFunc</text>
<text text-anchor="middle" x="203" y="-456" font-family="Helvetica,sans-Serif" font-size="10.00">::prolog</text>
</a>
</g>
</g>
<!-- Node1&#45;&gt;Node4 -->
<g id="edge3" class="edge"><title>Node1&#45;&gt;Node4</title>
<path fill="none" stroke="midnightblue" d="M53.6971,-290.17C61.5858,-318.035 87.1976,-396.425 136,-440 137.717,-441.533 139.534,-442.98 141.429,-444.347"/>
<polygon fill="midnightblue" stroke="midnightblue" points="139.829,-447.475 150.158,-449.834 143.554,-441.549 139.829,-447.475"/>
</g>
<!-- Node5 -->
<g id="node5" class="node"><title>Node5</title>
<g id="a_node5"><a xlink:href="classrc_correlation_window.html#a49a7cce1e36532fd77d515fafe4746d7" target="_top" xlink:title="rcCorrelationWindow\l::rowPointer">
<polygon fill="white" stroke="black" points="148.596,-399 148.596,-431 257.404,-431 257.404,-399 148.596,-399"/>
<text text-anchor="start" x="156.596" y="-417" font-family="Helvetica,sans-Serif" font-size="10.00">rcCorrelationWindow</text>
<text text-anchor="middle" x="203" y="-405" font-family="Helvetica,sans-Serif" font-size="10.00">::rowPointer</text>
</a>
</g>
</g>
<!-- Node1&#45;&gt;Node5 -->
<g id="edge4" class="edge"><title>Node1&#45;&gt;Node5</title>
<path fill="none" stroke="midnightblue" d="M56.4297,-290.19C68.2111,-311.406 98.1342,-360.697 136,-389 138.437,-390.821 141.018,-392.533 143.693,-394.14"/>
<polygon fill="midnightblue" stroke="midnightblue" points="142.034,-397.222 152.493,-398.918 145.375,-391.071 142.034,-397.222"/>
</g>
<!-- Node6 -->
<g id="node6" class="node"><title>Node6</title>
<g id="a_node6"><a xlink:href="classrc_correlation_window.html#a0766e39a8ced5118417c36ccae2e5c36" target="_top" xlink:title="rcCorrelationWindow\l::rowUpdate">
<polygon fill="white" stroke="black" points="148.596,-348 148.596,-380 257.404,-380 257.404,-348 148.596,-348"/>
<text text-anchor="start" x="156.596" y="-366" font-family="Helvetica,sans-Serif" font-size="10.00">rcCorrelationWindow</text>
<text text-anchor="middle" x="203" y="-354" font-family="Helvetica,sans-Serif" font-size="10.00">::rowUpdate</text>
</a>
</g>
</g>
<!-- Node1&#45;&gt;Node6 -->
<g id="edge5" class="edge"><title>Node1&#45;&gt;Node6</title>
<path fill="none" stroke="midnightblue" d="M63.9607,-290.208C80.1466,-302.627 109.003,-323.703 136,-338 139.901,-340.066 144.004,-342.063 148.175,-343.97"/>
<polygon fill="midnightblue" stroke="midnightblue" points="146.8,-347.189 157.364,-347.993 149.607,-340.776 146.8,-347.189"/>
</g>
<!-- Node7 -->
<g id="node7" class="node"><title>Node7</title>
<g id="a_node7"><a xlink:href="classrc_corr.html#a6a411e77bdca04cb76f1e6046033e6d6" target="_top" xlink:title="rcCorr::Si">
<polygon fill="white" stroke="black" points="173.889,-309 173.889,-329 232.111,-329 232.111,-309 173.889,-309"/>
<text text-anchor="middle" x="203" y="-315" font-family="Helvetica,sans-Serif" font-size="10.00">rcCorr::Si</text>
</a>
</g>
</g>
<!-- Node1&#45;&gt;Node7 -->
<g id="edge6" class="edge"><title>Node1&#45;&gt;Node7</title>
<path fill="none" stroke="midnightblue" d="M89.8863,-290.043C112.62,-295.915 141.196,-303.296 163.809,-309.136"/>
<polygon fill="midnightblue" stroke="midnightblue" points="163.179,-312.588 173.736,-311.7 164.929,-305.811 163.179,-312.588"/>
</g>
<!-- Node8 -->
<g id="node8" class="node"><title>Node8</title>
<g id="a_node8"><a xlink:href="classrc_corr.html#aa3feed8c918f9624d984c8a82c866216" target="_top" xlink:title="rcCorr::Sii">
<polygon fill="white" stroke="black" points="172.778,-270 172.778,-290 233.222,-290 233.222,-270 172.778,-270"/>
<text text-anchor="middle" x="203" y="-276" font-family="Helvetica,sans-Serif" font-size="10.00">rcCorr::Sii</text>
</a>
</g>
</g>
<!-- Node1&#45;&gt;Node8 -->
<g id="edge7" class="edge"><title>Node1&#45;&gt;Node8</title>
<path fill="none" stroke="midnightblue" d="M99.6085,-280C119.831,-280 143.015,-280 162.202,-280"/>
<polygon fill="midnightblue" stroke="midnightblue" points="162.406,-283.5 172.406,-280 162.406,-276.5 162.406,-283.5"/>
</g>
<!-- Node9 -->
<g id="node9" class="node"><title>Node9</title>
<g id="a_node9"><a xlink:href="classrc_corr.html#aa14711c7545d1fdada2fd57ff22534b8" target="_top" xlink:title="rcCorr::Sm">
<polygon fill="white" stroke="black" points="170.835,-231 170.835,-251 235.165,-251 235.165,-231 170.835,-231"/>
<text text-anchor="middle" x="203" y="-237" font-family="Helvetica,sans-Serif" font-size="10.00">rcCorr::Sm</text>
</a>
</g>
</g>
<!-- Node1&#45;&gt;Node9 -->
<g id="edge8" class="edge"><title>Node1&#45;&gt;Node9</title>
<path fill="none" stroke="midnightblue" d="M89.8863,-269.957C111.559,-264.359 138.542,-257.39 160.605,-251.691"/>
<polygon fill="midnightblue" stroke="midnightblue" points="161.553,-255.062 170.36,-249.172 159.802,-248.284 161.553,-255.062"/>
</g>
<!-- Node10 -->
<g id="node10" class="node"><title>Node10</title>
<g id="a_node10"><a xlink:href="classrc_corr.html#a96287be1f75b092e7e6a1c5a98b9622d" target="_top" xlink:title="rcCorr::Smm">
<polygon fill="white" stroke="black" points="166.67,-192 166.67,-212 239.33,-212 239.33,-192 166.67,-192"/>
<text text-anchor="middle" x="203" y="-198" font-family="Helvetica,sans-Serif" font-size="10.00">rcCorr::Smm</text>
</a>
</g>
</g>
<!-- Node1&#45;&gt;Node10 -->
<g id="edge9" class="edge"><title>Node1&#45;&gt;Node10</title>
<path fill="none" stroke="midnightblue" d="M63.2203,-269.872C79.106,-257.142 108.123,-235.346 136,-222 142.608,-218.837 149.827,-216.043 156.988,-213.623"/>
<polygon fill="midnightblue" stroke="midnightblue" points="158.182,-216.916 166.655,-210.554 156.065,-210.244 158.182,-216.916"/>
</g>
<!-- Node11 -->
<g id="node11" class="node"><title>Node11</title>
<g id="a_node11"><a xlink:href="classrc_correlation_window.html#ada848e7d33dcc3bdc2947c165ab3bbc8" target="_top" xlink:title="rcCorrelationWindow::sum">
<polygon fill="white" stroke="black" points="136.372,-153 136.372,-173 269.628,-173 269.628,-153 136.372,-153"/>
<text text-anchor="middle" x="203" y="-159" font-family="Helvetica,sans-Serif" font-size="10.00">rcCorrelationWindow::sum</text>
</a>
</g>
</g>
<!-- Node1&#45;&gt;Node11 -->
<g id="edge10" class="edge"><title>Node1&#45;&gt;Node11</title>
<path fill="none" stroke="midnightblue" d="M57.1181,-269.83C69.5032,-250.108 99.4931,-206.541 136,-183 139.509,-180.737 143.287,-178.72 147.196,-176.923"/>
<polygon fill="midnightblue" stroke="midnightblue" points="148.559,-180.147 156.487,-173.118 145.906,-173.669 148.559,-180.147"/>
</g>
<!-- Node12 -->
<g id="node12" class="node"><title>Node12</title>
<g id="a_node12"><a xlink:href="classrc_correlation_window.html#a7b548263ac73059d90b3a94601781209" target="_top" xlink:title="rcCorrelationWindow\l::sumSquares">
<polygon fill="white" stroke="black" points="148.596,-102 148.596,-134 257.404,-134 257.404,-102 148.596,-102"/>
<text text-anchor="start" x="156.596" y="-120" font-family="Helvetica,sans-Serif" font-size="10.00">rcCorrelationWindow</text>
<text text-anchor="middle" x="203" y="-108" font-family="Helvetica,sans-Serif" font-size="10.00">::sumSquares</text>
</a>
</g>
</g>
<!-- Node1&#45;&gt;Node12 -->
<g id="edge11" class="edge"><title>Node1&#45;&gt;Node12</title>
<path fill="none" stroke="midnightblue" d="M54.6908,-269.941C64.2825,-245.116 92.3282,-180.319 136,-144 137.988,-142.346 140.095,-140.789 142.286,-139.323"/>
<polygon fill="midnightblue" stroke="midnightblue" points="144.267,-142.218 151.092,-134.115 140.703,-136.193 144.267,-142.218"/>
</g>
<!-- Node13 -->
<g id="node13" class="node"><title>Node13</title>
<g id="a_node13"><a xlink:href="classrc_correlation_window.html#a7e0f2b36450b948c43e75b4926068fc2" target="_top" xlink:title="rcCorrelationWindow\l::sumValid">
<polygon fill="white" stroke="black" points="148.596,-51 148.596,-83 257.404,-83 257.404,-51 148.596,-51"/>
<text text-anchor="start" x="156.596" y="-69" font-family="Helvetica,sans-Serif" font-size="10.00">rcCorrelationWindow</text>
<text text-anchor="middle" x="203" y="-57" font-family="Helvetica,sans-Serif" font-size="10.00">::sumValid</text>
</a>
</g>
</g>
<!-- Node1&#45;&gt;Node13 -->
<g id="edge12" class="edge"><title>Node1&#45;&gt;Node13</title>
<path fill="none" stroke="midnightblue" d="M52.812,-269.941C58.8653,-239.142 81.1857,-145.069 136,-93 137.632,-91.4494 139.368,-89.9877 141.184,-88.6101"/>
<polygon fill="midnightblue" stroke="midnightblue" points="143.15,-91.5065 149.59,-83.0936 139.309,-85.6542 143.15,-91.5065"/>
</g>
<!-- Node14 -->
<g id="node14" class="node"><title>Node14</title>
<g id="a_node14"><a xlink:href="classrc_correlation_window.html#a86bbfec192bdeee062c63474f4ce8ecc" target="_top" xlink:title="rcCorrelationWindow\l::width">
<polygon fill="white" stroke="black" points="148.596,-0 148.596,-32 257.404,-32 257.404,-0 148.596,-0"/>
<text text-anchor="start" x="156.596" y="-18" font-family="Helvetica,sans-Serif" font-size="10.00">rcCorrelationWindow</text>
<text text-anchor="middle" x="203" y="-6" font-family="Helvetica,sans-Serif" font-size="10.00">::width</text>
</a>
</g>
</g>
<!-- Node1&#45;&gt;Node14 -->
<g id="edge13" class="edge"><title>Node1&#45;&gt;Node14</title>
<path fill="none" stroke="midnightblue" d="M51.7059,-269.874C54.7464,-233.849 69.7706,-110.4 136,-42 137.381,-40.5733 138.851,-39.2232 140.391,-37.9457"/>
<polygon fill="midnightblue" stroke="midnightblue" points="142.459,-40.7702 148.611,-32.1446 138.423,-35.051 142.459,-40.7702"/>
</g>
</g>
</svg>
