<?xml version="1.0" encoding="UTF-8" standalone="no"?>
<!DOCTYPE svg PUBLIC "-//W3C//DTD SVG 1.1//EN"
 "http://www.w3.org/Graphics/SVG/1.1/DTD/svg11.dtd">
<!-- Generated by graphviz version 2.32.0 (20130916.1925)
 -->
<!-- Title: rfComponentPolygons Pages: 1 -->
<svg width="802pt" height="81pt"
 viewBox="0.00 0.00 802.00 81.19" xmlns="http://www.w3.org/2000/svg" xmlns:xlink="http://www.w3.org/1999/xlink">
<g id="graph0" class="graph" transform="scale(1 1) rotate(0) translate(4 77.1923)">
<title>rfComponentPolygons</title>
<polygon fill="white" stroke="white" points="-4,5 -4,-77.1923 799,-77.1923 799,5 -4,5"/>
<!-- Node1 -->
<g id="node1" class="node"><title>Node1</title>
<polygon fill="#bfbfbf" stroke="black" points="0.527344,-39 0.527344,-59 115.473,-59 115.473,-39 0.527344,-39"/>
<text text-anchor="middle" x="58" y="-45" font-family="Helvetica,sans-Serif" font-size="10.00">rfComponentPolygons</text>
</g>
<!-- Node2 -->
<g id="node2" class="node"><title>Node2</title>
<g id="a_node2"><a xlink:href="classrc_kinetoscope.html#a9e34ed1b237aa970f30995cb75245233" target="_top" xlink:title="rcKinetoscope::connected\lFunctions">
<polygon fill="white" stroke="black" points="152.463,-33 152.463,-65 283.537,-65 283.537,-33 152.463,-33"/>
<text text-anchor="start" x="160.463" y="-51" font-family="Helvetica,sans-Serif" font-size="10.00">rcKinetoscope::connected</text>
<text text-anchor="middle" x="218" y="-39" font-family="Helvetica,sans-Serif" font-size="10.00">Functions</text>
</a>
</g>
</g>
<!-- Node1&#45;&gt;Node2 -->
<g id="edge1" class="edge"><title>Node1&#45;&gt;Node2</title>
<path fill="none" stroke="midnightblue" d="M125.755,-49C134.512,-49 143.475,-49 152.199,-49"/>
<polygon fill="midnightblue" stroke="midnightblue" points="125.595,-45.5001 115.595,-49 125.595,-52.5001 125.595,-45.5001"/>
</g>
<!-- Node3 -->
<g id="node3" class="node"><title>Node3</title>
<g id="a_node3"><a xlink:href="classrc_kinetoscope.html#a30274b84c57f86e667b614556f6c569b" target="_top" xlink:title="rcKinetoscope::step">
<polygon fill="white" stroke="black" points="508.086,-39 508.086,-59 611.914,-59 611.914,-39 508.086,-39"/>
<text text-anchor="middle" x="560" y="-45" font-family="Helvetica,sans-Serif" font-size="10.00">rcKinetoscope::step</text>
</a>
</g>
</g>
<!-- Node2&#45;&gt;Node3 -->
<g id="edge2" class="edge"><title>Node2&#45;&gt;Node3</title>
<path fill="none" stroke="midnightblue" d="M293.617,-64.6448C302.475,-66.0246 311.416,-67.1997 320,-68 387.264,-74.2718 404.834,-75.2487 472,-68 488.447,-66.225 506.344,-62.6145 521.606,-59.013"/>
<polygon fill="midnightblue" stroke="midnightblue" points="294.11,-61.179 283.675,-63.0091 292.974,-68.0861 294.11,-61.179"/>
</g>
<!-- Node5 -->
<g id="node5" class="node"><title>Node5</title>
<g id="a_node5"><a xlink:href="classrc_kinetoscope.html#ae0addfc3a10c4c69ba027d9bfc351217" target="_top" xlink:title="rcKinetoscope::stepContractile">
<polygon fill="white" stroke="black" points="320.188,-39 320.188,-59 471.812,-59 471.812,-39 320.188,-39"/>
<text text-anchor="middle" x="396" y="-45" font-family="Helvetica,sans-Serif" font-size="10.00">rcKinetoscope::stepContractile</text>
</a>
</g>
</g>
<!-- Node2&#45;&gt;Node5 -->
<g id="edge4" class="edge"><title>Node2&#45;&gt;Node5</title>
<path fill="none" stroke="midnightblue" d="M294.069,-49C302.7,-49 311.501,-49 320.129,-49"/>
<polygon fill="midnightblue" stroke="midnightblue" points="294.036,-45.5001 284.036,-49 294.036,-52.5001 294.036,-45.5001"/>
</g>
<!-- Node6 -->
<g id="node6" class="node"><title>Node6</title>
<g id="a_node6"><a xlink:href="classrc_kinetoscope.html#a431144623d201c5aeb857893d8460ca2" target="_top" xlink:title="rcKinetoscope::stepEpi">
<polygon fill="white" stroke="black" points="336.86,-0 336.86,-20 455.14,-20 455.14,-0 336.86,-0"/>
<text text-anchor="middle" x="396" y="-6" font-family="Helvetica,sans-Serif" font-size="10.00">rcKinetoscope::stepEpi</text>
</a>
</g>
</g>
<!-- Node2&#45;&gt;Node6 -->
<g id="edge6" class="edge"><title>Node2&#45;&gt;Node6</title>
<path fill="none" stroke="midnightblue" d="M293.875,-32.4085C312.872,-28.1989 332.704,-23.8043 349.721,-20.0334"/>
<polygon fill="midnightblue" stroke="midnightblue" points="293.042,-29.008 284.036,-34.5886 294.556,-35.8422 293.042,-29.008"/>
</g>
<!-- Node4 -->
<g id="node4" class="node"><title>Node4</title>
<g id="a_node4"><a xlink:href="classrc_engine_impl.html#a00ca0d227e480ddb5bd6be293b55d2c9" target="_top" xlink:title="rcEngineImpl::muscleTracker">
<polygon fill="white" stroke="black" points="648.442,-39 648.442,-59 793.558,-59 793.558,-39 648.442,-39"/>
<text text-anchor="middle" x="721" y="-45" font-family="Helvetica,sans-Serif" font-size="10.00">rcEngineImpl::muscleTracker</text>
</a>
</g>
</g>
<!-- Node3&#45;&gt;Node4 -->
<g id="edge3" class="edge"><title>Node3&#45;&gt;Node4</title>
<path fill="none" stroke="midnightblue" d="M622.383,-49C630.886,-49 639.682,-49 648.351,-49"/>
<polygon fill="midnightblue" stroke="midnightblue" points="622.184,-45.5001 612.184,-49 622.184,-52.5001 622.184,-45.5001"/>
</g>
<!-- Node5&#45;&gt;Node3 -->
<g id="edge5" class="edge"><title>Node5&#45;&gt;Node3</title>
<path fill="none" stroke="midnightblue" d="M481.92,-49C490.848,-49 499.713,-49 508.079,-49"/>
<polygon fill="midnightblue" stroke="midnightblue" points="481.835,-45.5001 471.835,-49 481.835,-52.5001 481.835,-45.5001"/>
</g>
<!-- Node6&#45;&gt;Node3 -->
<g id="edge7" class="edge"><title>Node6&#45;&gt;Node3</title>
<path fill="none" stroke="midnightblue" d="M448.653,-22.4351C470.86,-27.781 496.468,-33.9461 517.422,-38.9906"/>
<polygon fill="midnightblue" stroke="midnightblue" points="449.26,-18.9813 438.719,-20.0435 447.622,-25.7869 449.26,-18.9813"/>
</g>
</g>
</svg>
