<?xml version="1.0" encoding="UTF-8" standalone="no"?>
<!DOCTYPE svg PUBLIC "-//W3C//DTD SVG 1.1//EN"
 "http://www.w3.org/Graphics/SVG/1.1/DTD/svg11.dtd">
<!-- Generated by graphviz version 2.32.0 (20130916.1925)
 -->
<!-- Title: src/util/code/rc_security.cpp Pages: 1 -->
<svg width="1218pt" height="274pt"
 viewBox="0.00 0.00 1218.00 274.00" xmlns="http://www.w3.org/2000/svg" xmlns:xlink="http://www.w3.org/1999/xlink">
<g id="graph0" class="graph" transform="scale(1 1) rotate(0) translate(4 270)">
<title>src/util/code/rc_security.cpp</title>
<polygon fill="white" stroke="white" points="-4,5 -4,-270 1215,-270 1215,5 -4,5"/>
<!-- Node1 -->
<g id="node1" class="node"><title>Node1</title>
<polygon fill="#bfbfbf" stroke="black" points="334.679,-245 334.679,-265 473.321,-265 473.321,-245 334.679,-245"/>
<text text-anchor="middle" x="404" y="-251" font-family="Helvetica,sans-Serif" font-size="10.00">src/util/code/rc_security.cpp</text>
</g>
<!-- Node2 -->
<g id="node2" class="node"><title>Node2</title>
<polygon fill="white" stroke="#bfbfbf" points="-0.512207,-181 -0.512207,-201 50.5122,-201 50.5122,-181 -0.512207,-181"/>
<text text-anchor="middle" x="25" y="-187" font-family="Helvetica,sans-Serif" font-size="10.00">unistd.h</text>
</g>
<!-- Node1&#45;&gt;Node2 -->
<g id="edge1" class="edge"><title>Node1&#45;&gt;Node2</title>
<path fill="none" stroke="midnightblue" d="M334.53,-249.584C265.315,-244.02 156.461,-232.104 65,-208 61.5691,-207.096 58.0362,-205.977 54.557,-204.755"/>
<polygon fill="midnightblue" stroke="midnightblue" points="55.6138,-201.412 45.0228,-201.127 53.1242,-207.955 55.6138,-201.412"/>
</g>
<!-- Node3 -->
<g id="node3" class="node"><title>Node3</title>
<polygon fill="white" stroke="#bfbfbf" points="67.8276,-117 67.8276,-137 122.172,-137 122.172,-117 67.8276,-117"/>
<text text-anchor="middle" x="95" y="-123" font-family="Helvetica,sans-Serif" font-size="10.00">iostream</text>
</g>
<!-- Node1&#45;&gt;Node3 -->
<g id="edge2" class="edge"><title>Node1&#45;&gt;Node3</title>
<path fill="none" stroke="midnightblue" d="M334.616,-253.459C254.124,-251.21 128.525,-242.142 98,-208 83.3473,-191.611 85.656,-164.935 89.5602,-146.939"/>
<polygon fill="midnightblue" stroke="midnightblue" points="93.0085,-147.578 92.0599,-137.026 86.221,-145.867 93.0085,-147.578"/>
</g>
<!-- Node4 -->
<g id="node4" class="node"><title>Node4</title>
<polygon fill="white" stroke="#bfbfbf" points="107.165,-181 107.165,-201 164.835,-201 164.835,-181 107.165,-181"/>
<text text-anchor="middle" x="136" y="-187" font-family="Helvetica,sans-Serif" font-size="10.00">strstream</text>
</g>
<!-- Node1&#45;&gt;Node4 -->
<g id="edge3" class="edge"><title>Node1&#45;&gt;Node4</title>
<path fill="none" stroke="midnightblue" d="M339.855,-244.965C292.985,-237.466 228.237,-225.229 173,-208 170.181,-207.121 167.287,-206.097 164.418,-205"/>
<polygon fill="midnightblue" stroke="midnightblue" points="165.491,-201.657 154.911,-201.092 162.83,-208.131 165.491,-201.657"/>
</g>
<!-- Node5 -->
<g id="node5" class="node"><title>Node5</title>
<g id="a_node5"><a xlink:href="rc__exception_8h.html" target="_top" xlink:title="rc_exception.h">
<polygon fill="white" stroke="black" points="182.48,-181 182.48,-201 263.52,-201 263.52,-181 182.48,-181"/>
<text text-anchor="middle" x="223" y="-187" font-family="Helvetica,sans-Serif" font-size="10.00">rc_exception.h</text>
</a>
</g>
</g>
<!-- Node1&#45;&gt;Node5 -->
<g id="edge4" class="edge"><title>Node1&#45;&gt;Node5</title>
<path fill="none" stroke="midnightblue" d="M377.681,-244.985C346.448,-234.286 294.202,-216.39 259.181,-204.394"/>
<polygon fill="midnightblue" stroke="midnightblue" points="259.945,-200.956 249.351,-201.026 257.677,-207.578 259.945,-200.956"/>
</g>
<!-- Node10 -->
<g id="node10" class="node"><title>Node10</title>
<g id="a_node10"><a xlink:href="rc__thread_8h.html" target="_top" xlink:title="rc_thread.h">
<polygon fill="white" stroke="black" points="370.707,-181 370.707,-201 437.293,-201 437.293,-181 370.707,-181"/>
<text text-anchor="middle" x="404" y="-187" font-family="Helvetica,sans-Serif" font-size="10.00">rc_thread.h</text>
</a>
</g>
</g>
<!-- Node1&#45;&gt;Node10 -->
<g id="edge10" class="edge"><title>Node1&#45;&gt;Node10</title>
<path fill="none" stroke="midnightblue" d="M404,-244.852C404,-236.06 404,-222.498 404,-211.313"/>
<polygon fill="midnightblue" stroke="midnightblue" points="407.5,-211.186 404,-201.186 400.5,-211.186 407.5,-211.186"/>
</g>
<!-- Node15 -->
<g id="node15" class="node"><title>Node15</title>
<g id="a_node15"><a xlink:href="rc__security_8h.html" target="_top" xlink:title="rc_security.h">
<polygon fill="white" stroke="black" points="281.026,-181 281.026,-201 352.974,-201 352.974,-181 281.026,-181"/>
<text text-anchor="middle" x="317" y="-187" font-family="Helvetica,sans-Serif" font-size="10.00">rc_security.h</text>
</a>
</g>
</g>
<!-- Node1&#45;&gt;Node15 -->
<g id="edge16" class="edge"><title>Node1&#45;&gt;Node15</title>
<path fill="none" stroke="midnightblue" d="M391.163,-244.852C377.284,-234.961 354.933,-219.033 338.391,-207.244"/>
<polygon fill="midnightblue" stroke="midnightblue" points="340.065,-204.139 329.89,-201.186 336.002,-209.84 340.065,-204.139"/>
</g>
<!-- Node16 -->
<g id="node16" class="node"><title>Node16</title>
<polygon fill="white" stroke="#bfbfbf" points="455.727,-181 455.727,-201 626.273,-201 626.273,-181 455.727,-181"/>
<text text-anchor="middle" x="541" y="-187" font-family="Helvetica,sans-Serif" font-size="10.00">CoreFoundation/CoreFoundation.h</text>
</g>
<!-- Node1&#45;&gt;Node16 -->
<g id="edge18" class="edge"><title>Node1&#45;&gt;Node16</title>
<path fill="none" stroke="midnightblue" d="M423.921,-244.985C447.054,-234.516 485.417,-217.154 511.89,-205.174"/>
<polygon fill="midnightblue" stroke="midnightblue" points="513.388,-208.338 521.055,-201.026 510.501,-201.961 513.388,-208.338"/>
</g>
<!-- Node17 -->
<g id="node17" class="node"><title>Node17</title>
<polygon fill="white" stroke="#bfbfbf" points="644.542,-181 644.542,-201 729.458,-201 729.458,-181 644.542,-181"/>
<text text-anchor="middle" x="687" y="-187" font-family="Helvetica,sans-Serif" font-size="10.00">IOKit/IOKitLib.h</text>
</g>
<!-- Node1&#45;&gt;Node17 -->
<g id="edge19" class="edge"><title>Node1&#45;&gt;Node17</title>
<path fill="none" stroke="midnightblue" d="M457.56,-244.933C504.602,-236.59 574.739,-223.229 635,-208 639.73,-206.805 644.669,-205.44 649.539,-204.023"/>
<polygon fill="midnightblue" stroke="midnightblue" points="650.779,-207.306 659.351,-201.08 648.767,-200.601 650.779,-207.306"/>
</g>
<!-- Node18 -->
<g id="node18" class="node"><title>Node18</title>
<polygon fill="white" stroke="#bfbfbf" points="747.421,-175 747.421,-207 874.579,-207 874.579,-175 747.421,-175"/>
<text text-anchor="start" x="755.421" y="-193" font-family="Helvetica,sans-Serif" font-size="10.00">IOKit/network/IOEthernet</text>
<text text-anchor="middle" x="811" y="-181" font-family="Helvetica,sans-Serif" font-size="10.00">Interface.h</text>
</g>
<!-- Node1&#45;&gt;Node18 -->
<g id="edge20" class="edge"><title>Node1&#45;&gt;Node18</title>
<path fill="none" stroke="midnightblue" d="M473.336,-246.07C538.814,-238.212 639.961,-225.127 737.34,-208.034"/>
<polygon fill="midnightblue" stroke="midnightblue" points="738.122,-211.45 747.358,-206.259 736.9,-204.557 738.122,-211.45"/>
</g>
<!-- Node19 -->
<g id="node19" class="node"><title>Node19</title>
<polygon fill="white" stroke="#bfbfbf" points="892.36,-181 892.36,-201 1065.64,-201 1065.64,-181 892.36,-181"/>
<text text-anchor="middle" x="979" y="-187" font-family="Helvetica,sans-Serif" font-size="10.00">IOKit/network/IONetworkInterface.h</text>
</g>
<!-- Node1&#45;&gt;Node19 -->
<g id="edge21" class="edge"><title>Node1&#45;&gt;Node19</title>
<path fill="none" stroke="midnightblue" d="M473.58,-248.841C566.945,-241.571 737.836,-227.044 883,-208 894.532,-206.487 906.803,-204.631 918.583,-202.726"/>
<polygon fill="midnightblue" stroke="midnightblue" points="919.479,-206.125 928.777,-201.046 918.341,-199.218 919.479,-206.125"/>
</g>
<!-- Node20 -->
<g id="node20" class="node"><title>Node20</title>
<polygon fill="white" stroke="#bfbfbf" points="1083.42,-175 1083.42,-207 1210.58,-207 1210.58,-175 1083.42,-175"/>
<text text-anchor="start" x="1091.42" y="-193" font-family="Helvetica,sans-Serif" font-size="10.00">IOKit/network/IOEthernet</text>
<text text-anchor="middle" x="1147" y="-181" font-family="Helvetica,sans-Serif" font-size="10.00">Controller.h</text>
</g>
<!-- Node1&#45;&gt;Node20 -->
<g id="edge22" class="edge"><title>Node1&#45;&gt;Node20</title>
<path fill="none" stroke="midnightblue" d="M473.801,-252.587C594.22,-249.408 848.839,-239.436 1073.4,-207.937"/>
<polygon fill="midnightblue" stroke="midnightblue" points="1073.99,-211.389 1083.4,-206.518 1073.01,-204.458 1073.99,-211.389"/>
</g>
<!-- Node5&#45;&gt;Node3 -->
<g id="edge8" class="edge"><title>Node5&#45;&gt;Node3</title>
<path fill="none" stroke="midnightblue" d="M204.388,-180.985C182.964,-170.607 147.559,-153.458 122.851,-141.49"/>
<polygon fill="midnightblue" stroke="midnightblue" points="124.16,-138.236 113.635,-137.026 121.109,-144.535 124.16,-138.236"/>
</g>
<!-- Node6 -->
<g id="node6" class="node"><title>Node6</title>
<g id="a_node6"><a xlink:href="rc__platform_8h.html" target="_top" xlink:title="rc_platform.h">
<polygon fill="white" stroke="black" points="185.823,-59 185.823,-79 260.177,-79 260.177,-59 185.823,-59"/>
<text text-anchor="middle" x="223" y="-65" font-family="Helvetica,sans-Serif" font-size="10.00">rc_platform.h</text>
</a>
</g>
</g>
<!-- Node5&#45;&gt;Node6 -->
<g id="edge5" class="edge"><title>Node5&#45;&gt;Node6</title>
<path fill="none" stroke="midnightblue" d="M210.904,-180.803C199.688,-171.443 183.747,-155.809 177,-138 173.536,-128.856 173.258,-125.033 177,-116 182.014,-103.895 191.931,-93.3137 201.277,-85.3619"/>
<polygon fill="midnightblue" stroke="midnightblue" points="203.542,-88.0326 209.206,-79.0784 199.195,-82.5465 203.542,-88.0326"/>
</g>
<!-- Node8 -->
<g id="node8" class="node"><title>Node8</title>
<polygon fill="white" stroke="#bfbfbf" points="185.596,-117 185.596,-137 244.404,-137 244.404,-117 185.596,-117"/>
<text text-anchor="middle" x="215" y="-123" font-family="Helvetica,sans-Serif" font-size="10.00">exception</text>
</g>
<!-- Node5&#45;&gt;Node8 -->
<g id="edge7" class="edge"><title>Node5&#45;&gt;Node8</title>
<path fill="none" stroke="midnightblue" d="M221.82,-180.852C220.685,-172.06 218.935,-158.498 217.492,-147.313"/>
<polygon fill="midnightblue" stroke="midnightblue" points="220.936,-146.656 216.185,-137.186 213.994,-147.552 220.936,-146.656"/>
</g>
<!-- Node9 -->
<g id="node9" class="node"><title>Node9</title>
<polygon fill="white" stroke="#bfbfbf" points="262.219,-117 262.219,-137 313.781,-137 313.781,-117 262.219,-117"/>
<text text-anchor="middle" x="288" y="-123" font-family="Helvetica,sans-Serif" font-size="10.00">sstream</text>
</g>
<!-- Node5&#45;&gt;Node9 -->
<g id="edge9" class="edge"><title>Node5&#45;&gt;Node9</title>
<path fill="none" stroke="midnightblue" d="M232.591,-180.852C242.672,-171.236 258.737,-155.913 270.978,-144.236"/>
<polygon fill="midnightblue" stroke="midnightblue" points="273.549,-146.621 278.37,-137.186 268.718,-141.555 273.549,-146.621"/>
</g>
<!-- Node7 -->
<g id="node7" class="node"><title>Node7</title>
<polygon fill="white" stroke="#bfbfbf" points="150.796,-1 150.796,-21 295.204,-21 295.204,-1 150.796,-1"/>
<text text-anchor="middle" x="223" y="-7" font-family="Helvetica,sans-Serif" font-size="10.00">architecture/i386/alignment.h</text>
</g>
<!-- Node6&#45;&gt;Node7 -->
<g id="edge6" class="edge"><title>Node6&#45;&gt;Node7</title>
<path fill="none" stroke="midnightblue" d="M223,-58.7527C223,-51.2504 223,-40.4238 223,-31.0781"/>
<polygon fill="midnightblue" stroke="midnightblue" points="226.5,-31.0752 223,-21.0752 219.5,-31.0752 226.5,-31.0752"/>
</g>
<!-- Node11 -->
<g id="node11" class="node"><title>Node11</title>
<g id="a_node11"><a xlink:href="rc__types_8h.html" target="_top" xlink:title="rc_types.h">
<polygon fill="white" stroke="black" points="331.934,-117 331.934,-137 394.066,-137 394.066,-117 331.934,-117"/>
<text text-anchor="middle" x="363" y="-123" font-family="Helvetica,sans-Serif" font-size="10.00">rc_types.h</text>
</a>
</g>
</g>
<!-- Node10&#45;&gt;Node11 -->
<g id="edge11" class="edge"><title>Node10&#45;&gt;Node11</title>
<path fill="none" stroke="midnightblue" d="M397.95,-180.852C391.834,-171.602 382.225,-157.072 374.629,-145.586"/>
<polygon fill="midnightblue" stroke="midnightblue" points="377.51,-143.596 369.075,-137.186 371.671,-147.458 377.51,-143.596"/>
</g>
<!-- Node14 -->
<g id="node14" class="node"><title>Node14</title>
<polygon fill="white" stroke="#bfbfbf" points="411.921,-117 411.921,-137 504.079,-137 504.079,-117 411.921,-117"/>
<text text-anchor="middle" x="458" y="-123" font-family="Helvetica,sans-Serif" font-size="10.00">boost/atomic.hpp</text>
</g>
<!-- Node10&#45;&gt;Node14 -->
<g id="edge15" class="edge"><title>Node10&#45;&gt;Node14</title>
<path fill="none" stroke="midnightblue" d="M411.968,-180.852C420.183,-171.419 433.182,-156.495 443.274,-144.907"/>
<polygon fill="midnightblue" stroke="midnightblue" points="446.071,-147.025 449.999,-137.186 440.792,-142.428 446.071,-147.025"/>
</g>
<!-- Node11&#45;&gt;Node6 -->
<g id="edge14" class="edge"><title>Node11&#45;&gt;Node6</title>
<path fill="none" stroke="midnightblue" d="M340.195,-116.878C317.11,-107.644 281.208,-93.283 255.222,-82.8887"/>
<polygon fill="midnightblue" stroke="midnightblue" points="256.38,-79.5824 245.795,-79.1181 253.78,-86.0817 256.38,-79.5824"/>
</g>
<!-- Node12 -->
<g id="node12" class="node"><title>Node12</title>
<polygon fill="white" stroke="#bfbfbf" points="310.773,-59 310.773,-79 351.227,-79 351.227,-59 310.773,-59"/>
<text text-anchor="middle" x="331" y="-65" font-family="Helvetica,sans-Serif" font-size="10.00">string</text>
</g>
<!-- Node11&#45;&gt;Node12 -->
<g id="edge12" class="edge"><title>Node11&#45;&gt;Node12</title>
<path fill="none" stroke="midnightblue" d="M357.716,-116.753C353.242,-108.924 346.701,-97.4761 341.21,-87.8679"/>
<polygon fill="midnightblue" stroke="midnightblue" points="344.186,-86.0211 336.186,-79.0752 338.108,-89.4941 344.186,-86.0211"/>
</g>
<!-- Node13 -->
<g id="node13" class="node"><title>Node13</title>
<polygon fill="white" stroke="#bfbfbf" points="369.214,-59 369.214,-79 420.786,-79 420.786,-59 369.214,-59"/>
<text text-anchor="middle" x="395" y="-65" font-family="Helvetica,sans-Serif" font-size="10.00">assert.h</text>
</g>
<!-- Node11&#45;&gt;Node13 -->
<g id="edge13" class="edge"><title>Node11&#45;&gt;Node13</title>
<path fill="none" stroke="midnightblue" d="M368.284,-116.753C372.758,-108.924 379.299,-97.4761 384.79,-87.8679"/>
<polygon fill="midnightblue" stroke="midnightblue" points="387.892,-89.4941 389.814,-79.0752 381.814,-86.0211 387.892,-89.4941"/>
</g>
<!-- Node15&#45;&gt;Node11 -->
<g id="edge17" class="edge"><title>Node15&#45;&gt;Node11</title>
<path fill="none" stroke="midnightblue" d="M323.787,-180.852C330.718,-171.511 341.644,-156.784 350.205,-145.246"/>
<polygon fill="midnightblue" stroke="midnightblue" points="353.037,-147.302 356.185,-137.186 347.415,-143.131 353.037,-147.302"/>
</g>
</g>
</svg>
