<?xml version="1.0" encoding="UTF-8" standalone="no"?>
<!DOCTYPE svg PUBLIC "-//W3C//DTD SVG 1.1//EN"
 "http://www.w3.org/Graphics/SVG/1.1/DTD/svg11.dtd">
<!-- Generated by graphviz version 2.32.0 (20130916.1925)
 -->
<!-- Title: include/visiCore/rc_csvexporter.h Pages: 1 -->
<svg width="225pt" height="112pt"
 viewBox="0.00 0.00 225.00 112.00" xmlns="http://www.w3.org/2000/svg" xmlns:xlink="http://www.w3.org/1999/xlink">
<g id="graph0" class="graph" transform="scale(1 1) rotate(0) translate(4 108)">
<title>include/visiCore/rc_csvexporter.h</title>
<polygon fill="white" stroke="white" points="-4,5 -4,-108 222,-108 222,5 -4,5"/>
<!-- Node1 -->
<g id="node1" class="node"><title>Node1</title>
<polygon fill="#bfbfbf" stroke="black" points="55.1528,-71 55.1528,-103 152.847,-103 152.847,-71 55.1528,-71"/>
<text text-anchor="start" x="63.1528" y="-89" font-family="Helvetica,sans-Serif" font-size="10.00">include/visiCore/rc</text>
<text text-anchor="middle" x="104" y="-77" font-family="Helvetica,sans-Serif" font-size="10.00">_csvexporter.h</text>
</g>
<!-- Node2 -->
<g id="node2" class="node"><title>Node2</title>
<g id="a_node2"><a xlink:href="rc__csvexporter_8cpp.html" target="_top" xlink:title="src/visible/src/rc\l_csvexporter.cpp">
<polygon fill="white" stroke="black" points="-0.800293,-1 -0.800293,-33 90.8003,-33 90.8003,-1 -0.800293,-1"/>
<text text-anchor="start" x="7.19971" y="-19" font-family="Helvetica,sans-Serif" font-size="10.00">src/visible/src/rc</text>
<text text-anchor="middle" x="45" y="-7" font-family="Helvetica,sans-Serif" font-size="10.00">_csvexporter.cpp</text>
</a>
</g>
</g>
<!-- Node1&#45;&gt;Node2 -->
<g id="edge1" class="edge"><title>Node1&#45;&gt;Node2</title>
<path fill="none" stroke="midnightblue" d="M84.3145,-63.3116C75.6738,-53.3529 65.7654,-41.933 58.0574,-33.0492"/>
<polygon fill="midnightblue" stroke="midnightblue" points="81.7088,-65.6491 90.906,-70.9086 86.9961,-61.0616 81.7088,-65.6491"/>
</g>
<!-- Node3 -->
<g id="node3" class="node"><title>Node3</title>
<g id="a_node3"><a xlink:href="rc__experimentimpl_8cpp.html" target="_top" xlink:title="src/visible/src/rc\l_experimentimpl.cpp">
<polygon fill="white" stroke="black" points="108.867,-1 108.867,-33 217.133,-33 217.133,-1 108.867,-1"/>
<text text-anchor="start" x="116.867" y="-19" font-family="Helvetica,sans-Serif" font-size="10.00">src/visible/src/rc</text>
<text text-anchor="middle" x="163" y="-7" font-family="Helvetica,sans-Serif" font-size="10.00">_experimentimpl.cpp</text>
</a>
</g>
</g>
<!-- Node1&#45;&gt;Node3 -->
<g id="edge2" class="edge"><title>Node1&#45;&gt;Node3</title>
<path fill="none" stroke="midnightblue" d="M123.686,-63.3116C132.326,-53.3529 142.235,-41.933 149.943,-33.0492"/>
<polygon fill="midnightblue" stroke="midnightblue" points="121.004,-61.0616 117.094,-70.9086 126.291,-65.6491 121.004,-61.0616"/>
</g>
</g>
</svg>
