<?xml version="1.0" encoding="UTF-8" standalone="no"?>
<!DOCTYPE svg PUBLIC "-//W3C//DTD SVG 1.1//EN"
 "http://www.w3.org/Graphics/SVG/1.1/DTD/svg11.dtd">
<!-- Generated by graphviz version 2.32.0 (20130916.1925)
 -->
<!-- Title: VDGETSHUTTER Pages: 1 -->
<svg width="640pt" height="67pt"
 viewBox="0.00 0.00 640.00 67.00" xmlns="http://www.w3.org/2000/svg" xmlns:xlink="http://www.w3.org/1999/xlink">
<g id="graph0" class="graph" transform="scale(1 1) rotate(0) translate(4 63)">
<title>VDGETSHUTTER</title>
<polygon fill="white" stroke="white" points="-4,5 -4,-63 637,-63 637,5 -4,5"/>
<!-- Node1 -->
<g id="node1" class="node"><title>Node1</title>
<polygon fill="#bfbfbf" stroke="black" points="0.165039,-19 0.165039,-39 97.835,-39 97.835,-19 0.165039,-19"/>
<text text-anchor="middle" x="49" y="-25" font-family="Helvetica,sans-Serif" font-size="10.00">VDGETSHUTTER</text>
</g>
<!-- Node2 -->
<g id="node2" class="node"><title>Node2</title>
<g id="a_node2"><a xlink:href="rc__dcam__capture_8cpp.html#a8fcb91e1b2e6adaad571752a59ac3dad" target="_top" xlink:title="InitializeMungData2">
<polygon fill="white" stroke="black" points="304.086,-19 304.086,-39 407.914,-39 407.914,-19 304.086,-19"/>
<text text-anchor="middle" x="356" y="-25" font-family="Helvetica,sans-Serif" font-size="10.00">InitializeMungData2</text>
</a>
</g>
</g>
<!-- Node1&#45;&gt;Node2 -->
<g id="edge1" class="edge"><title>Node1&#45;&gt;Node2</title>
<path fill="none" stroke="midnightblue" d="M108.216,-29C164.825,-29 249.96,-29 303.983,-29"/>
<polygon fill="midnightblue" stroke="midnightblue" points="107.992,-25.5001 97.9918,-29 107.992,-32.5001 107.992,-25.5001"/>
</g>
<!-- Node7 -->
<g id="node7" class="node"><title>Node7</title>
<g id="a_node7"><a xlink:href="rc__dcam__capture_8cpp.html#ad35f20ca73f5feeaba8b27476b80536e" target="_top" xlink:title="VDGETVIDEODEFAULTS">
<polygon fill="white" stroke="black" points="134.743,-0 134.743,-20 267.257,-20 267.257,-0 134.743,-0"/>
<text text-anchor="middle" x="201" y="-6" font-family="Helvetica,sans-Serif" font-size="10.00">VDGETVIDEODEFAULTS</text>
</a>
</g>
</g>
<!-- Node1&#45;&gt;Node7 -->
<g id="edge6" class="edge"><title>Node1&#45;&gt;Node7</title>
<path fill="none" stroke="midnightblue" d="M107.922,-21.6633C116.634,-20.5597 125.671,-19.415 134.528,-18.2931"/>
<polygon fill="midnightblue" stroke="midnightblue" points="107.354,-18.2071 97.8734,-22.936 108.234,-25.1516 107.354,-18.2071"/>
</g>
<!-- Node3 -->
<g id="node3" class="node"><title>Node3</title>
<g id="a_node3"><a xlink:href="rc__dcam__capture_8h.html#aa3528bb0b33aa9119084d4b082f8c0aa" target="_top" xlink:title="rfDCAMVideoCapture">
<polygon fill="white" stroke="black" points="444.736,-39 444.736,-59 557.264,-59 557.264,-39 444.736,-39"/>
<text text-anchor="middle" x="501" y="-45" font-family="Helvetica,sans-Serif" font-size="10.00">rfDCAMVideoCapture</text>
</a>
</g>
</g>
<!-- Node2&#45;&gt;Node3 -->
<g id="edge2" class="edge"><title>Node2&#45;&gt;Node3</title>
<path fill="none" stroke="midnightblue" d="M418.251,-37.5666C426.9,-38.7763 435.754,-40.0146 444.292,-41.2086"/>
<polygon fill="midnightblue" stroke="midnightblue" points="418.611,-34.0829 408.222,-36.164 417.641,-41.0154 418.611,-34.0829"/>
</g>
<!-- Node5 -->
<g id="node5" class="node"><title>Node5</title>
<g id="a_node5"><a xlink:href="rc__qtime__capture_8h.html#adf4b66b022a2bc6ba21cddbc179756cb" target="_top" xlink:title="rfQTVideoCapture">
<polygon fill="white" stroke="black" points="452.514,-0 452.514,-20 549.486,-20 549.486,-0 452.514,-0"/>
<text text-anchor="middle" x="501" y="-6" font-family="Helvetica,sans-Serif" font-size="10.00">rfQTVideoCapture</text>
</a>
</g>
</g>
<!-- Node2&#45;&gt;Node5 -->
<g id="edge4" class="edge"><title>Node2&#45;&gt;Node5</title>
<path fill="none" stroke="midnightblue" d="M418.181,-20.871C429.655,-19.3465 441.491,-17.774 452.473,-16.3148"/>
<polygon fill="midnightblue" stroke="midnightblue" points="417.674,-17.4075 408.222,-22.1942 418.596,-24.3466 417.674,-17.4075"/>
</g>
<!-- Node4 -->
<g id="node4" class="node"><title>Node4</title>
<g id="a_node4"><a xlink:href="rc__dcam__main_8cpp.html#a3c04138a5bfe5d72780bb7e82a18e627" target="_top" xlink:title="main">
<polygon fill="white" stroke="black" points="594.163,-39 594.163,-59 631.837,-59 631.837,-39 594.163,-39"/>
<text text-anchor="middle" x="613" y="-45" font-family="Helvetica,sans-Serif" font-size="10.00">main</text>
</a>
</g>
</g>
<!-- Node3&#45;&gt;Node4 -->
<g id="edge3" class="edge"><title>Node3&#45;&gt;Node4</title>
<path fill="none" stroke="midnightblue" d="M567.526,-49C577.212,-49 586.445,-49 593.963,-49"/>
<polygon fill="midnightblue" stroke="midnightblue" points="567.322,-45.5001 557.322,-49 567.322,-52.5001 567.322,-45.5001"/>
</g>
<!-- Node6 -->
<g id="node6" class="node"><title>Node6</title>
<g id="a_node6"><a xlink:href="rc__qtime__main_8cpp.html#a3c04138a5bfe5d72780bb7e82a18e627" target="_top" xlink:title="main">
<polygon fill="white" stroke="black" points="594.163,-0 594.163,-20 631.837,-20 631.837,-0 594.163,-0"/>
<text text-anchor="middle" x="613" y="-6" font-family="Helvetica,sans-Serif" font-size="10.00">main</text>
</a>
</g>
</g>
<!-- Node5&#45;&gt;Node6 -->
<g id="edge5" class="edge"><title>Node5&#45;&gt;Node6</title>
<path fill="none" stroke="midnightblue" d="M559.663,-10C572.213,-10 584.578,-10 594.135,-10"/>
<polygon fill="midnightblue" stroke="midnightblue" points="559.608,-6.5001 549.608,-10 559.608,-13.5001 559.608,-6.5001"/>
</g>
<!-- Node7&#45;&gt;Node2 -->
<g id="edge7" class="edge"><title>Node7&#45;&gt;Node2</title>
<path fill="none" stroke="midnightblue" d="M277.384,-19.3614C286.32,-20.4711 295.277,-21.5834 303.766,-22.6376"/>
<polygon fill="midnightblue" stroke="midnightblue" points="277.685,-15.872 267.33,-18.1128 276.822,-22.8186 277.685,-15.872"/>
</g>
</g>
</svg>
