<?xml version="1.0" encoding="UTF-8" standalone="no"?>
<!DOCTYPE svg PUBLIC "-//W3C//DTD SVG 1.1//EN"
 "http://www.w3.org/Graphics/SVG/1.1/DTD/svg11.dtd">
<!-- Generated by graphviz version 2.32.0 (20130916.1925)
 -->
<!-- Title: src/visual/code/rc_moviefileformat.cpp Pages: 1 -->
<svg width="946pt" height="506pt"
 viewBox="0.00 0.00 946.43 506.00" xmlns="http://www.w3.org/2000/svg" xmlns:xlink="http://www.w3.org/1999/xlink">
<g id="graph0" class="graph" transform="scale(1 1) rotate(0) translate(4 502)">
<title>src/visual/code/rc_moviefileformat.cpp</title>
<polygon fill="white" stroke="white" points="-4,5 -4,-502 943.425,-502 943.425,5 -4,5"/>
<!-- Node1 -->
<g id="node1" class="node"><title>Node1</title>
<polygon fill="#bfbfbf" stroke="black" points="785.295,-465 785.295,-497 893.555,-497 893.555,-465 785.295,-465"/>
<text text-anchor="start" x="793.295" y="-483" font-family="Helvetica,sans-Serif" font-size="10.00">src/visual/code/rc</text>
<text text-anchor="middle" x="839.425" y="-471" font-family="Helvetica,sans-Serif" font-size="10.00">_moviefileformat.cpp</text>
</g>
<!-- Node2 -->
<g id="node2" class="node"><title>Node2</title>
<g id="a_node2"><a xlink:href="rc__moviefileformat_8h.html" target="_top" xlink:title="rc_moviefileformat.h">
<polygon fill="white" stroke="black" points="637.41,-407 637.41,-427 743.44,-427 743.44,-407 637.41,-407"/>
<text text-anchor="middle" x="690.425" y="-413" font-family="Helvetica,sans-Serif" font-size="10.00">rc_moviefileformat.h</text>
</a>
</g>
</g>
<!-- Node1&#45;&gt;Node2 -->
<g id="edge1" class="edge"><title>Node1&#45;&gt;Node2</title>
<path fill="none" stroke="midnightblue" d="M803.356,-464.992C778.376,-454.597 745.458,-440.899 721.611,-430.977"/>
<polygon fill="midnightblue" stroke="midnightblue" points="722.893,-427.719 712.315,-427.109 720.203,-434.182 722.893,-427.719"/>
</g>
<!-- Node29 -->
<g id="node29" class="node"><title>Node29</title>
<g id="a_node29"><a xlink:href="rc__systeminfo_8h.html" target="_top" xlink:title="rc_systeminfo.h">
<polygon fill="white" stroke="black" points="813.413,-291 813.413,-311 899.437,-311 899.437,-291 813.413,-291"/>
<text text-anchor="middle" x="856.425" y="-297" font-family="Helvetica,sans-Serif" font-size="10.00">rc_systeminfo.h</text>
</a>
</g>
</g>
<!-- Node1&#45;&gt;Node29 -->
<g id="edge43" class="edge"><title>Node1&#45;&gt;Node29</title>
<path fill="none" stroke="midnightblue" d="M840.874,-464.824C843.961,-432.506 851.178,-356.937 854.584,-321.277"/>
<polygon fill="midnightblue" stroke="midnightblue" points="858.079,-321.494 855.546,-311.207 851.111,-320.829 858.079,-321.494"/>
</g>
<!-- Node30 -->
<g id="node30" class="node"><title>Node30</title>
<polygon fill="white" stroke="#bfbfbf" points="867.861,-407 867.861,-427 924.989,-427 924.989,-407 867.861,-407"/>
<text text-anchor="middle" x="896.425" y="-413" font-family="Helvetica,sans-Serif" font-size="10.00">algorithm</text>
</g>
<!-- Node1&#45;&gt;Node30 -->
<g id="edge45" class="edge"><title>Node1&#45;&gt;Node30</title>
<path fill="none" stroke="midnightblue" d="M853.223,-464.992C861.582,-455.9 872.263,-444.281 880.914,-434.872"/>
<polygon fill="midnightblue" stroke="midnightblue" points="883.692,-437.021 887.884,-427.29 878.539,-432.283 883.692,-437.021"/>
</g>
<!-- Node3 -->
<g id="node3" class="node"><title>Node3</title>
<g id="a_node3"><a xlink:href="rc__types_8h.html" target="_top" xlink:title="rc_types.h">
<polygon fill="white" stroke="black" points="634.359,-117 634.359,-137 696.491,-137 696.491,-117 634.359,-117"/>
<text text-anchor="middle" x="665.425" y="-123" font-family="Helvetica,sans-Serif" font-size="10.00">rc_types.h</text>
</a>
</g>
</g>
<!-- Node2&#45;&gt;Node3 -->
<g id="edge2" class="edge"><title>Node2&#45;&gt;Node3</title>
<path fill="none" stroke="midnightblue" d="M706.112,-406.936C733.095,-390.036 785.425,-350.95 785.425,-302 785.425,-302 785.425,-302 785.425,-242 785.425,-210.62 786.83,-197.839 766.425,-174 750.958,-155.93 726.921,-144.591 706.177,-137.693"/>
<polygon fill="midnightblue" stroke="midnightblue" points="707.203,-134.347 696.616,-134.74 705.138,-141.035 707.203,-134.347"/>
</g>
<!-- Node8 -->
<g id="node8" class="node"><title>Node8</title>
<g id="a_node8"><a xlink:href="rc__framebuf_8h.html" target="_top" xlink:title="rc_framebuf.h">
<polygon fill="white" stroke="black" points="205.578,-233 205.578,-253 283.272,-253 283.272,-233 205.578,-233"/>
<text text-anchor="middle" x="244.425" y="-239" font-family="Helvetica,sans-Serif" font-size="10.00">rc_framebuf.h</text>
</a>
</g>
</g>
<!-- Node2&#45;&gt;Node8 -->
<g id="edge7" class="edge"><title>Node2&#45;&gt;Node8</title>
<path fill="none" stroke="midnightblue" d="M664.775,-406.849C639.265,-397.697 599.044,-383.133 564.425,-370 458.572,-329.845 333.97,-280.049 276.466,-256.924"/>
<polygon fill="midnightblue" stroke="midnightblue" points="277.436,-253.541 266.852,-253.054 274.822,-260.035 277.436,-253.541"/>
</g>
<!-- Node16 -->
<g id="node16" class="node"><title>Node16</title>
<g id="a_node16"><a xlink:href="rc__rect_8h.html" target="_top" xlink:title="rc_rect.h">
<polygon fill="white" stroke="black" points="572.974,-349 572.974,-369 627.876,-369 627.876,-349 572.974,-349"/>
<text text-anchor="middle" x="600.425" y="-355" font-family="Helvetica,sans-Serif" font-size="10.00">rc_rect.h</text>
</a>
</g>
</g>
<!-- Node2&#45;&gt;Node16 -->
<g id="edge18" class="edge"><title>Node2&#45;&gt;Node16</title>
<path fill="none" stroke="midnightblue" d="M675.563,-406.753C661.409,-397.946 639.892,-384.558 623.506,-374.362"/>
<polygon fill="midnightblue" stroke="midnightblue" points="625.35,-371.387 615.01,-369.075 621.652,-377.33 625.35,-371.387"/>
</g>
<!-- Node28 -->
<g id="node28" class="node"><title>Node28</title>
<polygon fill="white" stroke="#bfbfbf" points="668.809,-349 668.809,-369 712.041,-369 712.041,-349 668.809,-349"/>
<text text-anchor="middle" x="690.425" y="-355" font-family="Helvetica,sans-Serif" font-size="10.00">vector</text>
</g>
<!-- Node2&#45;&gt;Node28 -->
<g id="edge42" class="edge"><title>Node2&#45;&gt;Node28</title>
<path fill="none" stroke="midnightblue" d="M690.425,-406.753C690.425,-399.25 690.425,-388.424 690.425,-379.078"/>
<polygon fill="midnightblue" stroke="midnightblue" points="693.925,-379.075 690.425,-369.075 686.925,-379.075 693.925,-379.075"/>
</g>
<!-- Node4 -->
<g id="node4" class="node"><title>Node4</title>
<polygon fill="white" stroke="#bfbfbf" points="613.198,-59 613.198,-79 653.652,-79 653.652,-59 613.198,-59"/>
<text text-anchor="middle" x="633.425" y="-65" font-family="Helvetica,sans-Serif" font-size="10.00">string</text>
</g>
<!-- Node3&#45;&gt;Node4 -->
<g id="edge3" class="edge"><title>Node3&#45;&gt;Node4</title>
<path fill="none" stroke="midnightblue" d="M660.141,-116.753C655.667,-108.924 649.126,-97.4761 643.635,-87.8679"/>
<polygon fill="midnightblue" stroke="midnightblue" points="646.611,-86.0211 638.611,-79.0752 640.533,-89.4941 646.611,-86.0211"/>
</g>
<!-- Node5 -->
<g id="node5" class="node"><title>Node5</title>
<polygon fill="white" stroke="#bfbfbf" points="671.639,-59 671.639,-79 723.211,-79 723.211,-59 671.639,-59"/>
<text text-anchor="middle" x="697.425" y="-65" font-family="Helvetica,sans-Serif" font-size="10.00">assert.h</text>
</g>
<!-- Node3&#45;&gt;Node5 -->
<g id="edge4" class="edge"><title>Node3&#45;&gt;Node5</title>
<path fill="none" stroke="midnightblue" d="M670.709,-116.753C675.183,-108.924 681.724,-97.4761 687.215,-87.8679"/>
<polygon fill="midnightblue" stroke="midnightblue" points="690.317,-89.4941 692.239,-79.0752 684.239,-86.0211 690.317,-89.4941"/>
</g>
<!-- Node6 -->
<g id="node6" class="node"><title>Node6</title>
<g id="a_node6"><a xlink:href="rc__platform_8h.html" target="_top" xlink:title="rc_platform.h">
<polygon fill="white" stroke="black" points="502.248,-59 502.248,-79 576.602,-79 576.602,-59 502.248,-59"/>
<text text-anchor="middle" x="539.425" y="-65" font-family="Helvetica,sans-Serif" font-size="10.00">rc_platform.h</text>
</a>
</g>
</g>
<!-- Node3&#45;&gt;Node6 -->
<g id="edge5" class="edge"><title>Node3&#45;&gt;Node6</title>
<path fill="none" stroke="midnightblue" d="M644.901,-116.878C624.399,-107.766 592.664,-93.6617 569.356,-83.3028"/>
<polygon fill="midnightblue" stroke="midnightblue" points="570.5,-79.9812 559.941,-79.1181 567.657,-86.3779 570.5,-79.9812"/>
</g>
<!-- Node7 -->
<g id="node7" class="node"><title>Node7</title>
<polygon fill="white" stroke="#bfbfbf" points="467.221,-1 467.221,-21 611.629,-21 611.629,-1 467.221,-1"/>
<text text-anchor="middle" x="539.425" y="-7" font-family="Helvetica,sans-Serif" font-size="10.00">architecture/i386/alignment.h</text>
</g>
<!-- Node6&#45;&gt;Node7 -->
<g id="edge6" class="edge"><title>Node6&#45;&gt;Node7</title>
<path fill="none" stroke="midnightblue" d="M539.425,-58.7527C539.425,-51.2504 539.425,-40.4238 539.425,-31.0781"/>
<polygon fill="midnightblue" stroke="midnightblue" points="542.925,-31.0752 539.425,-21.0752 535.925,-31.0752 542.925,-31.0752"/>
</g>
<!-- Node9 -->
<g id="node9" class="node"><title>Node9</title>
<g id="a_node9"><a xlink:href="rc__timestamp_8h.html" target="_top" xlink:title="rc_timestamp.h">
<polygon fill="white" stroke="black" points="155.248,-175 155.248,-195 239.602,-195 239.602,-175 155.248,-175"/>
<text text-anchor="middle" x="197.425" y="-181" font-family="Helvetica,sans-Serif" font-size="10.00">rc_timestamp.h</text>
</a>
</g>
</g>
<!-- Node8&#45;&gt;Node9 -->
<g id="edge8" class="edge"><title>Node8&#45;&gt;Node9</title>
<path fill="none" stroke="midnightblue" d="M236.664,-232.753C229.888,-224.68 219.882,-212.757 211.67,-202.973"/>
<polygon fill="midnightblue" stroke="midnightblue" points="214.151,-200.485 205.042,-195.075 208.79,-204.985 214.151,-200.485"/>
</g>
<!-- Node12 -->
<g id="node12" class="node"><title>Node12</title>
<g id="a_node12"><a xlink:href="rc__thread_8h.html" target="_top" xlink:title="rc_thread.h">
<polygon fill="white" stroke="black" points="257.132,-175 257.132,-195 323.718,-195 323.718,-175 257.132,-175"/>
<text text-anchor="middle" x="290.425" y="-181" font-family="Helvetica,sans-Serif" font-size="10.00">rc_thread.h</text>
</a>
</g>
</g>
<!-- Node8&#45;&gt;Node12 -->
<g id="edge12" class="edge"><title>Node8&#45;&gt;Node12</title>
<path fill="none" stroke="midnightblue" d="M252.021,-232.753C258.653,-224.68 268.446,-212.757 276.483,-202.973"/>
<polygon fill="midnightblue" stroke="midnightblue" points="279.328,-205.024 282.97,-195.075 273.918,-200.581 279.328,-205.024"/>
</g>
<!-- Node13 -->
<g id="node13" class="node"><title>Node13</title>
<polygon fill="white" stroke="#bfbfbf" points="129.346,-117 129.346,-137 221.504,-137 221.504,-117 129.346,-117"/>
<text text-anchor="middle" x="175.425" y="-123" font-family="Helvetica,sans-Serif" font-size="10.00">boost/atomic.hpp</text>
</g>
<!-- Node8&#45;&gt;Node13 -->
<g id="edge17" class="edge"><title>Node8&#45;&gt;Node13</title>
<path fill="none" stroke="midnightblue" d="M205.382,-240.059C145.762,-236.186 36.3994,-225.195 12.425,-196 6.21975,-188.444 6.52423,-181.797 12.425,-174 25.4577,-156.78 77.1986,-144.177 118.937,-136.562"/>
<polygon fill="midnightblue" stroke="midnightblue" points="119.79,-139.965 129.03,-134.78 118.573,-133.072 119.79,-139.965"/>
</g>
<!-- Node14 -->
<g id="node14" class="node"><title>Node14</title>
<g id="a_node14"><a xlink:href="rc__macro_8h.html" target="_top" xlink:title="rc_macro.h">
<polygon fill="white" stroke="black" points="341.418,-175 341.418,-195 407.432,-195 407.432,-175 341.418,-175"/>
<text text-anchor="middle" x="374.425" y="-181" font-family="Helvetica,sans-Serif" font-size="10.00">rc_macro.h</text>
</a>
</g>
</g>
<!-- Node8&#45;&gt;Node14 -->
<g id="edge15" class="edge"><title>Node8&#45;&gt;Node14</title>
<path fill="none" stroke="midnightblue" d="M265.601,-232.878C286.848,-223.725 319.789,-209.536 343.865,-199.164"/>
<polygon fill="midnightblue" stroke="midnightblue" points="345.459,-202.289 353.258,-195.118 342.689,-195.86 345.459,-202.289"/>
</g>
<!-- Node15 -->
<g id="node15" class="node"><title>Node15</title>
<polygon fill="white" stroke="#bfbfbf" points="21.1125,-175 21.1125,-195 137.738,-195 137.738,-175 21.1125,-175"/>
<text text-anchor="middle" x="79.425" y="-181" font-family="Helvetica,sans-Serif" font-size="10.00">boost/intrusive_ptr.hpp</text>
</g>
<!-- Node8&#45;&gt;Node15 -->
<g id="edge16" class="edge"><title>Node8&#45;&gt;Node15</title>
<path fill="none" stroke="midnightblue" d="M217.548,-232.878C189.779,-223.453 146.273,-208.688 115.518,-198.25"/>
<polygon fill="midnightblue" stroke="midnightblue" points="116.612,-194.925 106.017,-195.025 114.362,-201.554 116.612,-194.925"/>
</g>
<!-- Node9&#45;&gt;Node3 -->
<g id="edge9" class="edge"><title>Node9&#45;&gt;Node3</title>
<path fill="none" stroke="midnightblue" d="M239.676,-175.418C242.632,-174.909 245.57,-174.43 248.425,-174 398.685,-151.359 437.514,-155.786 588.425,-138 600.007,-136.635 612.556,-135.05 624.094,-133.551"/>
<polygon fill="midnightblue" stroke="midnightblue" points="624.889,-136.976 634.35,-132.206 623.979,-130.036 624.889,-136.976"/>
</g>
<!-- Node10 -->
<g id="node10" class="node"><title>Node10</title>
<polygon fill="white" stroke="#bfbfbf" points="255.253,-117 255.253,-137 309.597,-137 309.597,-117 255.253,-117"/>
<text text-anchor="middle" x="282.425" y="-123" font-family="Helvetica,sans-Serif" font-size="10.00">iostream</text>
</g>
<!-- Node9&#45;&gt;Node10 -->
<g id="edge10" class="edge"><title>Node9&#45;&gt;Node10</title>
<path fill="none" stroke="midnightblue" d="M211.461,-174.753C224.705,-166.027 244.774,-152.805 260.195,-142.646"/>
<polygon fill="midnightblue" stroke="midnightblue" points="262.225,-145.5 268.65,-137.075 258.374,-139.654 262.225,-145.5"/>
</g>
<!-- Node11 -->
<g id="node11" class="node"><title>Node11</title>
<polygon fill="white" stroke="#bfbfbf" points="35.5212,-117 35.5212,-137 79.3288,-137 79.3288,-117 35.5212,-117"/>
<text text-anchor="middle" x="57.425" y="-123" font-family="Helvetica,sans-Serif" font-size="10.00">deque</text>
</g>
<!-- Node9&#45;&gt;Node11 -->
<g id="edge11" class="edge"><title>Node9&#45;&gt;Node11</title>
<path fill="none" stroke="midnightblue" d="M174.62,-174.878C151.398,-165.589 115.205,-151.112 89.1837,-140.703"/>
<polygon fill="midnightblue" stroke="midnightblue" points="90.3418,-137.397 79.7572,-136.933 87.7421,-143.897 90.3418,-137.397"/>
</g>
<!-- Node12&#45;&gt;Node3 -->
<g id="edge13" class="edge"><title>Node12&#45;&gt;Node3</title>
<path fill="none" stroke="midnightblue" d="M323.833,-175.738C326.732,-175.115 329.626,-174.525 332.425,-174 360.582,-168.716 541.446,-144.476 624.201,-133.468"/>
<polygon fill="midnightblue" stroke="midnightblue" points="624.809,-136.918 634.261,-132.13 623.887,-129.979 624.809,-136.918"/>
</g>
<!-- Node12&#45;&gt;Node13 -->
<g id="edge14" class="edge"><title>Node12&#45;&gt;Node13</title>
<path fill="none" stroke="midnightblue" d="M271.692,-174.878C253.148,-165.847 224.532,-151.913 203.315,-141.581"/>
<polygon fill="midnightblue" stroke="midnightblue" points="204.673,-138.349 194.15,-137.118 201.608,-144.643 204.673,-138.349"/>
</g>
<!-- Node16&#45;&gt;Node3 -->
<g id="edge19" class="edge"><title>Node16&#45;&gt;Node3</title>
<path fill="none" stroke="midnightblue" d="M585.283,-348.809C573.59,-340.746 558.285,-327.848 551.425,-312 534.051,-271.859 529.25,-241.028 581.425,-174 593.036,-159.084 610.9,-148.344 627.174,-141.013"/>
<polygon fill="midnightblue" stroke="midnightblue" points="628.653,-144.188 636.513,-137.084 625.938,-137.736 628.653,-144.188"/>
</g>
<!-- Node17 -->
<g id="node17" class="node"><title>Node17</title>
<g id="a_node17"><a xlink:href="rc__rectangle_8h.html" target="_top" xlink:title="rc_rectangle.h">
<polygon fill="white" stroke="black" points="560.74,-291 560.74,-311 640.11,-311 640.11,-291 560.74,-291"/>
<text text-anchor="middle" x="600.425" y="-297" font-family="Helvetica,sans-Serif" font-size="10.00">rc_rectangle.h</text>
</a>
</g>
</g>
<!-- Node16&#45;&gt;Node17 -->
<g id="edge20" class="edge"><title>Node16&#45;&gt;Node17</title>
<path fill="none" stroke="midnightblue" d="M600.425,-348.753C600.425,-341.25 600.425,-330.424 600.425,-321.078"/>
<polygon fill="midnightblue" stroke="midnightblue" points="603.925,-321.075 600.425,-311.075 596.925,-321.075 603.925,-321.075"/>
</g>
<!-- Node17&#45;&gt;Node3 -->
<g id="edge23" class="edge"><title>Node17&#45;&gt;Node3</title>
<path fill="none" stroke="midnightblue" d="M596.652,-290.721C588.381,-268.804 571.033,-212.766 592.425,-174 600.5,-159.368 615.4,-148.753 629.644,-141.433"/>
<polygon fill="midnightblue" stroke="midnightblue" points="631.287,-144.528 638.831,-137.089 628.294,-138.199 631.287,-144.528"/>
</g>
<!-- Node17&#45;&gt;Node11 -->
<g id="edge41" class="edge"><title>Node17&#45;&gt;Node11</title>
<path fill="none" stroke="midnightblue" d="M560.411,-299.773C437.697,-298.109 70.9572,-285.6 4.42502,-196 -9.41097,-177.367 12.9566,-156.359 32.7477,-142.689"/>
<polygon fill="midnightblue" stroke="midnightblue" points="34.7869,-145.538 41.239,-137.134 30.9546,-139.68 34.7869,-145.538"/>
</g>
<!-- Node18 -->
<g id="node18" class="node"><title>Node18</title>
<g id="a_node18"><a xlink:href="rc__pair_8h.html" target="_top" xlink:title="rc_pair.h">
<polygon fill="white" stroke="black" points="703.245,-175 703.245,-195 757.605,-195 757.605,-175 703.245,-175"/>
<text text-anchor="middle" x="730.425" y="-181" font-family="Helvetica,sans-Serif" font-size="10.00">rc_pair.h</text>
</a>
</g>
</g>
<!-- Node17&#45;&gt;Node18 -->
<g id="edge21" class="edge"><title>Node17&#45;&gt;Node18</title>
<path fill="none" stroke="midnightblue" d="M627.284,-290.925C646.584,-283.374 672.292,-271.09 690.425,-254 705.326,-239.956 716.465,-219.124 723.154,-204.222"/>
<polygon fill="midnightblue" stroke="midnightblue" points="726.379,-205.582 727.065,-195.009 719.935,-202.846 726.379,-205.582"/>
</g>
<!-- Node19 -->
<g id="node19" class="node"><title>Node19</title>
<g id="a_node19"><a xlink:href="rc__vector2d_8h.html" target="_top" xlink:title="rc_vector2d.h">
<polygon fill="white" stroke="black" points="605.132,-233 605.132,-253 681.718,-253 681.718,-233 605.132,-233"/>
<text text-anchor="middle" x="643.425" y="-239" font-family="Helvetica,sans-Serif" font-size="10.00">rc_vector2d.h</text>
</a>
</g>
</g>
<!-- Node17&#45;&gt;Node19 -->
<g id="edge24" class="edge"><title>Node17&#45;&gt;Node19</title>
<path fill="none" stroke="midnightblue" d="M607.526,-290.753C613.662,-282.761 622.695,-270.998 630.164,-261.27"/>
<polygon fill="midnightblue" stroke="midnightblue" points="633.142,-263.138 636.457,-253.075 627.59,-258.875 633.142,-263.138"/>
</g>
<!-- Node21 -->
<g id="node21" class="node"><title>Node21</title>
<g id="a_node21"><a xlink:href="rc__exception_8h.html" target="_top" xlink:title="rc_exception.h">
<polygon fill="white" stroke="black" points="425.905,-175 425.905,-195 506.945,-195 506.945,-175 425.905,-175"/>
<text text-anchor="middle" x="466.425" y="-181" font-family="Helvetica,sans-Serif" font-size="10.00">rc_exception.h</text>
</a>
</g>
</g>
<!-- Node17&#45;&gt;Node21 -->
<g id="edge40" class="edge"><title>Node17&#45;&gt;Node21</title>
<path fill="none" stroke="midnightblue" d="M589.459,-290.671C566.574,-271.202 513.505,-226.053 485.123,-201.907"/>
<polygon fill="midnightblue" stroke="midnightblue" points="487.052,-198.953 477.168,-195.139 482.516,-204.285 487.052,-198.953"/>
</g>
<!-- Node24 -->
<g id="node24" class="node"><title>Node24</title>
<g id="a_node24"><a xlink:href="rc__math_8h.html" target="_top" xlink:title="rc_math.h">
<polygon fill="white" stroke="black" points="851.194,-175 851.194,-195 911.656,-195 911.656,-175 851.194,-175"/>
<text text-anchor="middle" x="881.425" y="-181" font-family="Helvetica,sans-Serif" font-size="10.00">rc_math.h</text>
</a>
</g>
</g>
<!-- Node17&#45;&gt;Node24 -->
<g id="edge39" class="edge"><title>Node17&#45;&gt;Node24</title>
<path fill="none" stroke="midnightblue" d="M622.945,-290.864C672.806,-270.635 792.626,-222.025 849.901,-198.789"/>
<polygon fill="midnightblue" stroke="midnightblue" points="851.237,-202.024 859.187,-195.022 848.605,-195.538 851.237,-202.024"/>
</g>
<!-- Node18&#45;&gt;Node3 -->
<g id="edge22" class="edge"><title>Node18&#45;&gt;Node3</title>
<path fill="none" stroke="midnightblue" d="M719.692,-174.753C709.942,-166.353 695.357,-153.787 683.761,-143.798"/>
<polygon fill="midnightblue" stroke="midnightblue" points="685.819,-140.951 675.959,-137.075 681.25,-146.254 685.819,-140.951"/>
</g>
<!-- Node19&#45;&gt;Node3 -->
<g id="edge26" class="edge"><title>Node19&#45;&gt;Node3</title>
<path fill="none" stroke="midnightblue" d="M646.406,-232.931C649.334,-223.722 653.741,-209.004 656.425,-196 659.772,-179.781 662.138,-161.118 663.602,-147.451"/>
<polygon fill="midnightblue" stroke="midnightblue" points="667.104,-147.61 664.621,-137.31 660.139,-146.91 667.104,-147.61"/>
</g>
<!-- Node19&#45;&gt;Node14 -->
<g id="edge38" class="edge"><title>Node19&#45;&gt;Node14</title>
<path fill="none" stroke="midnightblue" d="M604.783,-234.582C561.574,-226.197 489.264,-211.893 417.928,-196.282"/>
<polygon fill="midnightblue" stroke="midnightblue" points="418.391,-192.8 407.872,-194.071 416.887,-199.637 418.391,-192.8"/>
</g>
<!-- Node19&#45;&gt;Node18 -->
<g id="edge32" class="edge"><title>Node19&#45;&gt;Node18</title>
<path fill="none" stroke="midnightblue" d="M657.791,-232.753C671.347,-224.027 691.889,-210.805 707.672,-200.646"/>
<polygon fill="midnightblue" stroke="midnightblue" points="709.812,-203.431 716.326,-195.075 706.023,-197.545 709.812,-203.431"/>
</g>
<!-- Node20 -->
<g id="node20" class="node"><title>Node20</title>
<polygon fill="white" stroke="#bfbfbf" points="601.139,-175 601.139,-195 647.711,-195 647.711,-175 601.139,-175"/>
<text text-anchor="middle" x="624.425" y="-181" font-family="Helvetica,sans-Serif" font-size="10.00">math.h</text>
</g>
<!-- Node19&#45;&gt;Node20 -->
<g id="edge25" class="edge"><title>Node19&#45;&gt;Node20</title>
<path fill="none" stroke="midnightblue" d="M640.288,-232.753C637.714,-225.169 633.989,-214.188 630.795,-204.774"/>
<polygon fill="midnightblue" stroke="midnightblue" points="634.032,-203.42 627.504,-195.075 627.403,-205.67 634.032,-203.42"/>
</g>
<!-- Node19&#45;&gt;Node21 -->
<g id="edge27" class="edge"><title>Node19&#45;&gt;Node21</title>
<path fill="none" stroke="midnightblue" d="M614.593,-232.878C584.676,-223.413 537.73,-208.56 504.716,-198.115"/>
<polygon fill="midnightblue" stroke="midnightblue" points="505.541,-194.705 494.951,-195.025 503.43,-201.379 505.541,-194.705"/>
</g>
<!-- Node19&#45;&gt;Node24 -->
<g id="edge33" class="edge"><title>Node19&#45;&gt;Node24</title>
<path fill="none" stroke="midnightblue" d="M681.928,-232.94C725.624,-222.659 796.577,-205.964 841.038,-195.503"/>
<polygon fill="midnightblue" stroke="midnightblue" points="841.988,-198.875 850.92,-193.178 840.384,-192.061 841.988,-198.875"/>
</g>
<!-- Node21&#45;&gt;Node6 -->
<g id="edge28" class="edge"><title>Node21&#45;&gt;Node6</title>
<path fill="none" stroke="midnightblue" d="M472.399,-174.671C484.544,-155.705 512.293,-112.371 528.013,-87.8218"/>
<polygon fill="midnightblue" stroke="midnightblue" points="531.127,-89.4482 533.573,-79.1394 525.232,-85.6733 531.127,-89.4482"/>
</g>
<!-- Node21&#45;&gt;Node10 -->
<g id="edge30" class="edge"><title>Node21&#45;&gt;Node10</title>
<path fill="none" stroke="midnightblue" d="M436.453,-174.878C404.477,-165.146 353.788,-149.719 319.367,-139.243"/>
<polygon fill="midnightblue" stroke="midnightblue" points="320.268,-135.859 309.682,-136.296 318.23,-142.556 320.268,-135.859"/>
</g>
<!-- Node22 -->
<g id="node22" class="node"><title>Node22</title>
<polygon fill="white" stroke="#bfbfbf" points="521.021,-117 521.021,-137 579.829,-137 579.829,-117 521.021,-117"/>
<text text-anchor="middle" x="550.425" y="-123" font-family="Helvetica,sans-Serif" font-size="10.00">exception</text>
</g>
<!-- Node21&#45;&gt;Node22 -->
<g id="edge29" class="edge"><title>Node21&#45;&gt;Node22</title>
<path fill="none" stroke="midnightblue" d="M480.296,-174.753C493.384,-166.027 513.217,-152.805 528.456,-142.646"/>
<polygon fill="midnightblue" stroke="midnightblue" points="530.433,-145.534 536.812,-137.075 526.55,-139.71 530.433,-145.534"/>
</g>
<!-- Node23 -->
<g id="node23" class="node"><title>Node23</title>
<polygon fill="white" stroke="#bfbfbf" points="413.644,-117 413.644,-137 465.206,-137 465.206,-117 413.644,-117"/>
<text text-anchor="middle" x="439.425" y="-123" font-family="Helvetica,sans-Serif" font-size="10.00">sstream</text>
</g>
<!-- Node21&#45;&gt;Node23 -->
<g id="edge31" class="edge"><title>Node21&#45;&gt;Node23</title>
<path fill="none" stroke="midnightblue" d="M461.967,-174.753C458.231,-167.006 452.787,-155.714 448.185,-146.169"/>
<polygon fill="midnightblue" stroke="midnightblue" points="451.296,-144.563 443.801,-137.075 444.991,-147.603 451.296,-144.563"/>
</g>
<!-- Node24&#45;&gt;Node3 -->
<g id="edge34" class="edge"><title>Node24&#45;&gt;Node3</title>
<path fill="none" stroke="midnightblue" d="M850.936,-176.095C813.227,-166.319 748.873,-149.635 706.75,-138.714"/>
<polygon fill="midnightblue" stroke="midnightblue" points="707.369,-135.259 696.811,-136.137 705.612,-142.035 707.369,-135.259"/>
</g>
<!-- Node25 -->
<g id="node25" class="node"><title>Node25</title>
<g id="a_node25"><a xlink:href="rc__limits_8h.html" target="_top" xlink:title="rc_limits.h">
<polygon fill="white" stroke="black" points="815.923,-117 815.923,-137 876.927,-137 876.927,-117 815.923,-117"/>
<text text-anchor="middle" x="846.425" y="-123" font-family="Helvetica,sans-Serif" font-size="10.00">rc_limits.h</text>
</a>
</g>
</g>
<!-- Node24&#45;&gt;Node25 -->
<g id="edge35" class="edge"><title>Node24&#45;&gt;Node25</title>
<path fill="none" stroke="midnightblue" d="M875.645,-174.753C870.702,-166.843 863.448,-155.237 857.405,-145.568"/>
<polygon fill="midnightblue" stroke="midnightblue" points="860.365,-143.7 852.097,-137.075 854.429,-147.41 860.365,-143.7"/>
</g>
<!-- Node27 -->
<g id="node27" class="node"><title>Node27</title>
<polygon fill="white" stroke="#bfbfbf" points="894.809,-117 894.809,-137 938.041,-137 938.041,-117 894.809,-117"/>
<text text-anchor="middle" x="916.425" y="-123" font-family="Helvetica,sans-Serif" font-size="10.00">cmath</text>
</g>
<!-- Node24&#45;&gt;Node27 -->
<g id="edge37" class="edge"><title>Node24&#45;&gt;Node27</title>
<path fill="none" stroke="midnightblue" d="M887.205,-174.753C892.148,-166.843 899.402,-155.237 905.445,-145.568"/>
<polygon fill="midnightblue" stroke="midnightblue" points="908.421,-147.41 910.753,-137.075 902.485,-143.7 908.421,-147.41"/>
</g>
<!-- Node26 -->
<g id="node26" class="node"><title>Node26</title>
<polygon fill="white" stroke="#bfbfbf" points="822.868,-59 822.868,-79 869.982,-79 869.982,-59 822.868,-59"/>
<text text-anchor="middle" x="846.425" y="-65" font-family="Helvetica,sans-Serif" font-size="10.00">limits.h</text>
</g>
<!-- Node25&#45;&gt;Node26 -->
<g id="edge36" class="edge"><title>Node25&#45;&gt;Node26</title>
<path fill="none" stroke="midnightblue" d="M846.425,-116.753C846.425,-109.25 846.425,-98.4238 846.425,-89.0781"/>
<polygon fill="midnightblue" stroke="midnightblue" points="849.925,-89.0752 846.425,-79.0752 842.925,-89.0752 849.925,-89.0752"/>
</g>
<!-- Node29&#45;&gt;Node3 -->
<g id="edge44" class="edge"><title>Node29&#45;&gt;Node3</title>
<path fill="none" stroke="midnightblue" d="M854.874,-290.935C850.48,-267.996 835.827,-207.127 799.425,-174 773.714,-150.602 735.548,-139.019 706.518,-133.336"/>
<polygon fill="midnightblue" stroke="midnightblue" points="707.127,-129.89 696.665,-131.563 705.887,-136.779 707.127,-129.89"/>
</g>
</g>
</svg>
