<?xml version="1.0" encoding="UTF-8" standalone="no"?>
<!DOCTYPE svg PUBLIC "-//W3C//DTD SVG 1.1//EN"
 "http://www.w3.org/Graphics/SVG/1.1/DTD/svg11.dtd">
<!-- Generated by graphviz version 2.32.0 (20130916.1925)
 -->
<!-- Title: src/util/code/rc_resource_ctrl.cpp Pages: 1 -->
<!--zoomable 274 -->
<svg id="main" version="1.1" xmlns="http://www.w3.org/2000/svg" xmlns:xlink="http://www.w3.org/1999/xlink" xml:space="preserve" onload="init(evt)">
        <defs>
                <circle id="rim" cx="0" cy="0" r="7"/>
                <circle id="rim2" cx="0" cy="0" r="3.5"/>
                <g id="zoomPlus">
                        <use xlink:href="#rim" fill="#404040">
                                <set attributeName="fill" to="#808080" begin="zoomplus.mouseover" end="zoomplus.mouseout"/>
                        </use>
                        <path d="M-4,0h8M0,-4v8" fill="none" stroke="white" stroke-width="1.5" pointer-events="none"/>
                </g>
                <g id="zoomMin">
                        <use xlink:href="#rim" fill="#404040">
                                <set attributeName="fill" to="#808080" begin="zoomminus.mouseover" end="zoomminus.mouseout"/>
                        </use>
                        <path d="M-4,0h8" fill="none" stroke="white" stroke-width="1.5" pointer-events="none"/>
                </g>
                <g id="dirArrow">
                        <path fill="none" stroke="white" stroke-width="1.5" d="M0,-3.0v7 M-2.5,-0.5L0,-3.0L2.5,-0.5"/>
                </g>
               <g id="resetDef">
                       <use xlink:href="#rim2" fill="#404040">
                               <set attributeName="fill" to="#808080" begin="reset.mouseover" end="reset.mouseout"/>
                       </use>
               </g>
        </defs>

<script type="text/javascript">
var viewWidth = 1054;
var viewHeight = 274;
var sectionId = 'dynsection-0';
</script>
<script xlink:href="svgpan.js"/>
<svg id="graph" class="graph">
<g id="viewport">
<title>src/util/code/rc_resource_ctrl.cpp</title>
<polygon fill="white" stroke="white" points="-4,5 -4,-270 1051,-270 1051,5 -4,5"/>
<!-- Node1 -->
<g id="node1" class="node"><title>Node1</title>
<polygon fill="#bfbfbf" stroke="black" points="448.535,-233 448.535,-265 573.465,-265 573.465,-233 448.535,-233"/>
<text text-anchor="start" x="456.535" y="-251" font-family="Helvetica,sans-Serif" font-size="10.00">src/util/code/rc_resource</text>
<text text-anchor="middle" x="511" y="-239" font-family="Helvetica,sans-Serif" font-size="10.00">_ctrl.cpp</text>
</g>
<!-- Node2 -->
<g id="node2" class="node"><title>Node2</title>
<g id="a_node2"><a xlink:href="rc__types_8h.html" target="_top" xlink:title="rc_types.h">
<polygon fill="white" stroke="black" points="57.9336,-117 57.9336,-137 120.066,-137 120.066,-117 57.9336,-117"/>
<text text-anchor="middle" x="89" y="-123" font-family="Helvetica,sans-Serif" font-size="10.00">rc_types.h</text>
</a>
</g>
</g>
<!-- Node1&#45;&gt;Node2 -->
<g id="edge1" class="edge"><title>Node1&#45;&gt;Node2</title>
<path fill="none" stroke="midnightblue" d="M448.198,-242.899C362.506,-235.204 213.992,-219.037 165,-196 139.855,-184.177 116.978,-161.294 103.038,-145.355"/>
<polygon fill="midnightblue" stroke="midnightblue" points="105.383,-142.708 96.2551,-137.329 100.036,-147.226 105.383,-142.708"/>
</g>
<!-- Node4 -->
<g id="node4" class="node"><title>Node4</title>
<polygon fill="white" stroke="#bfbfbf" points="-0.785645,-59 -0.785645,-79 50.7856,-79 50.7856,-59 -0.785645,-59"/>
<text text-anchor="middle" x="25" y="-65" font-family="Helvetica,sans-Serif" font-size="10.00">assert.h</text>
</g>
<!-- Node1&#45;&gt;Node4 -->
<g id="edge20" class="edge"><title>Node1&#45;&gt;Node4</title>
<path fill="none" stroke="midnightblue" d="M448.441,-248.705C370.775,-247.536 235.543,-238.715 129,-196 88.2372,-179.657 75.2759,-173.189 49,-138 38.1366,-123.452 31.8791,-103.562 28.4955,-89.0533"/>
<polygon fill="midnightblue" stroke="midnightblue" points="31.9055,-88.2603 26.4395,-79.1843 25.0526,-89.688 31.9055,-88.2603"/>
</g>
<!-- Node7 -->
<g id="node7" class="node"><title>Node7</title>
<g id="a_node7"><a xlink:href="rc__resource__ctrl_8h.html" target="_top" xlink:title="rc_resource_ctrl.h">
<polygon fill="white" stroke="black" points="187.985,-175 187.985,-195 284.015,-195 284.015,-175 187.985,-175"/>
<text text-anchor="middle" x="236" y="-181" font-family="Helvetica,sans-Serif" font-size="10.00">rc_resource_ctrl.h</text>
</a>
</g>
</g>
<!-- Node1&#45;&gt;Node7 -->
<g id="edge6" class="edge"><title>Node1&#45;&gt;Node7</title>
<path fill="none" stroke="midnightblue" d="M448.254,-233.854C399.03,-222.756 331.443,-207.518 285.871,-197.244"/>
<polygon fill="midnightblue" stroke="midnightblue" points="286.451,-193.787 275.926,-195.002 284.912,-200.615 286.451,-193.787"/>
</g>
<!-- Node8 -->
<g id="node8" class="node"><title>Node8</title>
<polygon fill="white" stroke="#bfbfbf" points="137.99,-117 137.99,-137 204.01,-137 204.01,-117 137.99,-117"/>
<text text-anchor="middle" x="171" y="-123" font-family="Helvetica,sans-Serif" font-size="10.00">sys/types.h</text>
</g>
<!-- Node1&#45;&gt;Node8 -->
<g id="edge14" class="edge"><title>Node1&#45;&gt;Node8</title>
<path fill="none" stroke="midnightblue" d="M448.429,-246.915C362.686,-244.026 215.159,-233.569 179,-196 166.795,-183.319 166.032,-162.56 167.558,-147.309"/>
<polygon fill="midnightblue" stroke="midnightblue" points="171.029,-147.759 168.943,-137.371 164.096,-146.793 171.029,-147.759"/>
</g>
<!-- Node9 -->
<g id="node9" class="node"><title>Node9</title>
<polygon fill="white" stroke="#bfbfbf" points="307.495,-117 307.495,-137 368.505,-137 368.505,-117 307.495,-117"/>
<text text-anchor="middle" x="338" y="-123" font-family="Helvetica,sans-Serif" font-size="10.00">sys/sem.h</text>
</g>
<!-- Node1&#45;&gt;Node9 -->
<g id="edge13" class="edge"><title>Node1&#45;&gt;Node9</title>
<path fill="none" stroke="midnightblue" d="M448.236,-238.05C402.198,-229.32 345.32,-215.043 331,-196 320.554,-182.109 324.351,-161.856 329.513,-147.067"/>
<polygon fill="midnightblue" stroke="midnightblue" points="332.9,-148.02 333.329,-137.433 326.392,-145.442 332.9,-148.02"/>
</g>
<!-- Node12 -->
<g id="node12" class="node"><title>Node12</title>
<polygon fill="white" stroke="#bfbfbf" points="340.495,-175 340.495,-195 401.505,-195 401.505,-175 340.495,-175"/>
<text text-anchor="middle" x="371" y="-181" font-family="Helvetica,sans-Serif" font-size="10.00">sys/shm.h</text>
</g>
<!-- Node1&#45;&gt;Node12 -->
<g id="edge12" class="edge"><title>Node1&#45;&gt;Node12</title>
<path fill="none" stroke="midnightblue" d="M477.11,-232.992C453.847,-222.689 423.258,-209.143 400.902,-199.242"/>
<polygon fill="midnightblue" stroke="midnightblue" points="402.129,-195.958 391.568,-195.109 399.294,-202.358 402.129,-195.958"/>
</g>
<!-- Node13 -->
<g id="node13" class="node"><title>Node13</title>
<polygon fill="white" stroke="#bfbfbf" points="419.488,-175 419.488,-195 470.512,-195 470.512,-175 419.488,-175"/>
<text text-anchor="middle" x="445" y="-181" font-family="Helvetica,sans-Serif" font-size="10.00">unistd.h</text>
</g>
<!-- Node1&#45;&gt;Node13 -->
<g id="edge15" class="edge"><title>Node1&#45;&gt;Node13</title>
<path fill="none" stroke="midnightblue" d="M495.023,-232.992C485.15,-223.716 472.476,-211.811 462.356,-202.304"/>
<polygon fill="midnightblue" stroke="midnightblue" points="464.575,-199.586 454.89,-195.29 459.782,-204.688 464.575,-199.586"/>
</g>
<!-- Node14 -->
<g id="node14" class="node"><title>Node14</title>
<polygon fill="white" stroke="#bfbfbf" points="488.269,-175 488.269,-195 533.731,-195 533.731,-175 488.269,-175"/>
<text text-anchor="middle" x="511" y="-181" font-family="Helvetica,sans-Serif" font-size="10.00">stdio.h</text>
</g>
<!-- Node1&#45;&gt;Node14 -->
<g id="edge16" class="edge"><title>Node1&#45;&gt;Node14</title>
<path fill="none" stroke="midnightblue" d="M511,-232.992C511,-224.726 511,-214.373 511,-205.489"/>
<polygon fill="midnightblue" stroke="midnightblue" points="514.5,-205.29 511,-195.29 507.5,-205.29 514.5,-205.29"/>
</g>
<!-- Node15 -->
<g id="node15" class="node"><title>Node15</title>
<polygon fill="white" stroke="#bfbfbf" points="552.158,-175 552.158,-195 599.842,-195 599.842,-175 552.158,-175"/>
<text text-anchor="middle" x="576" y="-181" font-family="Helvetica,sans-Serif" font-size="10.00">stdlib.h</text>
</g>
<!-- Node1&#45;&gt;Node15 -->
<g id="edge17" class="edge"><title>Node1&#45;&gt;Node15</title>
<path fill="none" stroke="midnightblue" d="M526.735,-232.992C536.459,-223.716 548.94,-211.811 558.907,-202.304"/>
<polygon fill="midnightblue" stroke="midnightblue" points="561.44,-204.725 566.26,-195.29 556.608,-199.66 561.44,-204.725"/>
</g>
<!-- Node16 -->
<g id="node16" class="node"><title>Node16</title>
<polygon fill="white" stroke="#bfbfbf" points="617.604,-175 617.604,-195 666.396,-195 666.396,-175 617.604,-175"/>
<text text-anchor="middle" x="642" y="-181" font-family="Helvetica,sans-Serif" font-size="10.00">string.h</text>
</g>
<!-- Node1&#45;&gt;Node16 -->
<g id="edge18" class="edge"><title>Node1&#45;&gt;Node16</title>
<path fill="none" stroke="midnightblue" d="M542.711,-232.992C564.283,-222.782 592.589,-209.385 613.456,-199.509"/>
<polygon fill="midnightblue" stroke="midnightblue" points="615.213,-202.55 622.754,-195.109 612.218,-196.223 615.213,-202.55"/>
</g>
<!-- Node17 -->
<g id="node17" class="node"><title>Node17</title>
<polygon fill="white" stroke="#bfbfbf" points="684.158,-175 684.158,-195 731.842,-195 731.842,-175 684.158,-175"/>
<text text-anchor="middle" x="708" y="-181" font-family="Helvetica,sans-Serif" font-size="10.00">errno.h</text>
</g>
<!-- Node1&#45;&gt;Node17 -->
<g id="edge19" class="edge"><title>Node1&#45;&gt;Node17</title>
<path fill="none" stroke="midnightblue" d="M558.688,-232.992C594.446,-221.738 642.506,-206.612 674.328,-196.597"/>
<polygon fill="midnightblue" stroke="midnightblue" points="675.565,-199.877 684.053,-193.537 673.464,-193.2 675.565,-199.877"/>
</g>
<!-- Node18 -->
<g id="node18" class="node"><title>Node18</title>
<g id="a_node18"><a xlink:href="rc__assemblyfcts_8h.html" target="_top" xlink:title="rc_assemblyfcts.h">
<polygon fill="white" stroke="black" points="749.988,-175 749.988,-195 846.012,-195 846.012,-175 749.988,-175"/>
<text text-anchor="middle" x="798" y="-181" font-family="Helvetica,sans-Serif" font-size="10.00">rc_assemblyfcts.h</text>
</a>
</g>
</g>
<!-- Node1&#45;&gt;Node18 -->
<g id="edge21" class="edge"><title>Node1&#45;&gt;Node18</title>
<path fill="none" stroke="midnightblue" d="M573.629,-234.47C625.367,-223.294 697.929,-207.618 746.378,-197.152"/>
<polygon fill="midnightblue" stroke="midnightblue" points="747.299,-200.534 756.335,-195.001 745.821,-193.691 747.299,-200.534"/>
</g>
<!-- Node19 -->
<g id="node19" class="node"><title>Node19</title>
<polygon fill="white" stroke="#bfbfbf" points="863.931,-175 863.931,-195 906.069,-195 906.069,-175 863.931,-175"/>
<text text-anchor="middle" x="885" y="-181" font-family="Helvetica,sans-Serif" font-size="10.00">new.h</text>
</g>
<!-- Node1&#45;&gt;Node19 -->
<g id="edge22" class="edge"><title>Node1&#45;&gt;Node19</title>
<path fill="none" stroke="midnightblue" d="M573.766,-241.789C641.035,-234.399 750.962,-220.214 853.888,-195.939"/>
<polygon fill="midnightblue" stroke="midnightblue" points="854.916,-199.292 863.826,-193.559 853.285,-192.485 854.916,-199.292"/>
</g>
<!-- Node20 -->
<g id="node20" class="node"><title>Node20</title>
<polygon fill="white" stroke="#bfbfbf" points="923.766,-175 923.766,-195 974.234,-195 974.234,-175 923.766,-175"/>
<text text-anchor="middle" x="949" y="-181" font-family="Helvetica,sans-Serif" font-size="10.00">signal.h</text>
</g>
<!-- Node1&#45;&gt;Node20 -->
<g id="edge23" class="edge"><title>Node1&#45;&gt;Node20</title>
<path fill="none" stroke="midnightblue" d="M573.801,-243.015C651.581,-236.154 788.176,-221.855 913.348,-196.091"/>
<polygon fill="midnightblue" stroke="midnightblue" points="914.417,-199.444 923.49,-193.973 912.986,-192.591 914.417,-199.444"/>
</g>
<!-- Node21 -->
<g id="node21" class="node"><title>Node21</title>
<polygon fill="white" stroke="#bfbfbf" points="991.828,-175 991.828,-195 1046.17,-195 1046.17,-175 991.828,-175"/>
<text text-anchor="middle" x="1019" y="-181" font-family="Helvetica,sans-Serif" font-size="10.00">iostream</text>
</g>
<!-- Node1&#45;&gt;Node21 -->
<g id="edge24" class="edge"><title>Node1&#45;&gt;Node21</title>
<path fill="none" stroke="midnightblue" d="M573.708,-244.319C662.632,-238.388 830.486,-224.568 981.658,-196.007"/>
<polygon fill="midnightblue" stroke="midnightblue" points="982.428,-199.423 991.591,-194.104 981.111,-192.548 982.428,-199.423"/>
</g>
<!-- Node3 -->
<g id="node3" class="node"><title>Node3</title>
<polygon fill="white" stroke="#bfbfbf" points="68.7734,-59 68.7734,-79 109.227,-79 109.227,-59 68.7734,-59"/>
<text text-anchor="middle" x="89" y="-65" font-family="Helvetica,sans-Serif" font-size="10.00">string</text>
</g>
<!-- Node2&#45;&gt;Node3 -->
<g id="edge2" class="edge"><title>Node2&#45;&gt;Node3</title>
<path fill="none" stroke="midnightblue" d="M89,-116.753C89,-109.25 89,-98.4238 89,-89.0781"/>
<polygon fill="midnightblue" stroke="midnightblue" points="92.5001,-89.0752 89,-79.0752 85.5001,-89.0752 92.5001,-89.0752"/>
</g>
<!-- Node2&#45;&gt;Node4 -->
<g id="edge3" class="edge"><title>Node2&#45;&gt;Node4</title>
<path fill="none" stroke="midnightblue" d="M78.4317,-116.753C68.8324,-108.353 54.4713,-95.7874 43.0544,-85.7976"/>
<polygon fill="midnightblue" stroke="midnightblue" points="45.2022,-83.0262 35.3716,-79.0752 40.5927,-88.2943 45.2022,-83.0262"/>
</g>
<!-- Node5 -->
<g id="node5" class="node"><title>Node5</title>
<g id="a_node5"><a xlink:href="rc__platform_8h.html" target="_top" xlink:title="rc_platform.h">
<polygon fill="white" stroke="black" points="126.823,-59 126.823,-79 201.177,-79 201.177,-59 126.823,-59"/>
<text text-anchor="middle" x="164" y="-65" font-family="Helvetica,sans-Serif" font-size="10.00">rc_platform.h</text>
</a>
</g>
</g>
<!-- Node2&#45;&gt;Node5 -->
<g id="edge4" class="edge"><title>Node2&#45;&gt;Node5</title>
<path fill="none" stroke="midnightblue" d="M101.385,-116.753C112.852,-108.19 130.119,-95.2978 143.618,-85.2186"/>
<polygon fill="midnightblue" stroke="midnightblue" points="145.927,-87.8626 151.846,-79.0752 141.739,-82.2536 145.927,-87.8626"/>
</g>
<!-- Node6 -->
<g id="node6" class="node"><title>Node6</title>
<polygon fill="white" stroke="#bfbfbf" points="91.7959,-1 91.7959,-21 236.204,-21 236.204,-1 91.7959,-1"/>
<text text-anchor="middle" x="164" y="-7" font-family="Helvetica,sans-Serif" font-size="10.00">architecture/i386/alignment.h</text>
</g>
<!-- Node5&#45;&gt;Node6 -->
<g id="edge5" class="edge"><title>Node5&#45;&gt;Node6</title>
<path fill="none" stroke="midnightblue" d="M164,-58.7527C164,-51.2504 164,-40.4238 164,-31.0781"/>
<polygon fill="midnightblue" stroke="midnightblue" points="167.5,-31.0752 164,-21.0752 160.5,-31.0752 167.5,-31.0752"/>
</g>
<!-- Node7&#45;&gt;Node2 -->
<g id="edge9" class="edge"><title>Node7&#45;&gt;Node2</title>
<path fill="none" stroke="midnightblue" d="M212.055,-174.878C187.709,-165.603 149.786,-151.156 122.473,-140.752"/>
<polygon fill="midnightblue" stroke="midnightblue" points="123.526,-137.407 112.935,-137.118 121.034,-143.949 123.526,-137.407"/>
</g>
<!-- Node7&#45;&gt;Node8 -->
<g id="edge7" class="edge"><title>Node7&#45;&gt;Node8</title>
<path fill="none" stroke="midnightblue" d="M225.267,-174.753C215.517,-166.353 200.932,-153.787 189.336,-143.798"/>
<polygon fill="midnightblue" stroke="midnightblue" points="191.394,-140.951 181.534,-137.075 186.825,-146.254 191.394,-140.951"/>
</g>
<!-- Node7&#45;&gt;Node9 -->
<g id="edge8" class="edge"><title>Node7&#45;&gt;Node9</title>
<path fill="none" stroke="midnightblue" d="M252.843,-174.753C269.108,-165.823 293.949,-152.185 312.612,-141.939"/>
<polygon fill="midnightblue" stroke="midnightblue" points="314.389,-144.956 321.47,-137.075 311.02,-138.82 314.389,-144.956"/>
</g>
<!-- Node10 -->
<g id="node10" class="node"><title>Node10</title>
<g id="a_node10"><a xlink:href="rc__atomic_8h.html" target="_top" xlink:title="rc_atomic.h">
<polygon fill="white" stroke="black" points="222.158,-117 222.158,-137 289.842,-137 289.842,-117 222.158,-117"/>
<text text-anchor="middle" x="256" y="-123" font-family="Helvetica,sans-Serif" font-size="10.00">rc_atomic.h</text>
</a>
</g>
</g>
<!-- Node7&#45;&gt;Node10 -->
<g id="edge10" class="edge"><title>Node7&#45;&gt;Node10</title>
<path fill="none" stroke="midnightblue" d="M239.303,-174.753C242.011,-167.169 245.933,-156.188 249.295,-146.774"/>
<polygon fill="midnightblue" stroke="midnightblue" points="252.692,-147.67 252.759,-137.075 246.099,-145.315 252.692,-147.67"/>
</g>
<!-- Node11 -->
<g id="node11" class="node"><title>Node11</title>
<polygon fill="white" stroke="#bfbfbf" points="218.921,-59 218.921,-79 311.079,-79 311.079,-59 218.921,-59"/>
<text text-anchor="middle" x="265" y="-65" font-family="Helvetica,sans-Serif" font-size="10.00">boost/atomic.hpp</text>
</g>
<!-- Node10&#45;&gt;Node11 -->
<g id="edge11" class="edge"><title>Node10&#45;&gt;Node11</title>
<path fill="none" stroke="midnightblue" d="M257.486,-116.753C258.692,-109.25 260.432,-98.4238 261.934,-89.0781"/>
<polygon fill="midnightblue" stroke="midnightblue" points="265.41,-89.5039 263.541,-79.0752 258.499,-88.3931 265.41,-89.5039"/>
</g>
</g>
</svg>
        <g id="navigator" transform="translate(0 0)" fill="#404254">
                <rect fill="#f2f5e9" fill-opacity="0.5" stroke="#606060" stroke-width=".5" x="0" y="0" width="60" height="60"/>
                <use id="zoomplus" xlink:href="#zoomPlus" x="17" y="9" onmousedown="handleZoom(evt,'in')"/>
                <use id="zoomminus" xlink:href="#zoomMin" x="42" y="9" onmousedown="handleZoom(evt,'out')"/>
                <use id="reset" xlink:href="#resetDef" x="30" y="36" onmousedown="handleReset()"/>
                <g id="arrowUp" xlink:href="#dirArrow" transform="translate(30 24)" onmousedown="handlePan(0,-1)">
                  <use xlink:href="#rim" fill="#404040">
                        <set attributeName="fill" to="#808080" begin="arrowUp.mouseover" end="arrowUp.mouseout"/>
                  </use>
                  <path fill="none" stroke="white" stroke-width="1.5" d="M0,-3.0v7 M-2.5,-0.5L0,-3.0L2.5,-0.5"/>
                </g>
                <g id="arrowRight" xlink:href="#dirArrow" transform="rotate(90) translate(36 -43)" onmousedown="handlePan(1,0)">
                  <use xlink:href="#rim" fill="#404040">
                        <set attributeName="fill" to="#808080" begin="arrowRight.mouseover" end="arrowRight.mouseout"/>
                  </use>
                  <path fill="none" stroke="white" stroke-width="1.5" d="M0,-3.0v7 M-2.5,-0.5L0,-3.0L2.5,-0.5"/>
                </g>
                <g id="arrowDown" xlink:href="#dirArrow" transform="rotate(180) translate(-30 -48)" onmousedown="handlePan(0,1)">
                  <use xlink:href="#rim" fill="#404040">
                        <set attributeName="fill" to="#808080" begin="arrowDown.mouseover" end="arrowDown.mouseout"/>
                  </use>
                  <path fill="none" stroke="white" stroke-width="1.5" d="M0,-3.0v7 M-2.5,-0.5L0,-3.0L2.5,-0.5"/>
                </g>
                <g id="arrowLeft" xlink:href="#dirArrow" transform="rotate(270) translate(-36 17)" onmousedown="handlePan(-1,0)">
                  <use xlink:href="#rim" fill="#404040">
                        <set attributeName="fill" to="#808080" begin="arrowLeft.mouseover" end="arrowLeft.mouseout"/>
                  </use>
                  <path fill="none" stroke="white" stroke-width="1.5" d="M0,-3.0v7 M-2.5,-0.5L0,-3.0L2.5,-0.5"/>
                </g>
        </g>
        <svg viewBox="0 0 15 15" width="100%" height="30px" preserveAspectRatio="xMaxYMin meet">
         <g id="arrow_out" transform="scale(0.3 0.3)">
          <a xlink:href="rc__resource__ctrl_8cpp__incl_org.svg" target="_base">
           <rect id="button" ry="5" rx="5" y="6" x="6" height="38" width="38"
                fill="#f2f5e9" fill-opacity="0.5" stroke="#606060" stroke-width="1.0"/>
           <path id="arrow"
             d="M 11.500037,31.436501 C 11.940474,20.09759 22.043105,11.32322 32.158766,21.979434 L 37.068811,17.246167 C 37.068811,17.246167 37.088388,32 37.088388,32 L 22.160133,31.978069 C 22.160133,31.978069 26.997745,27.140456 26.997745,27.140456 C 18.528582,18.264221 13.291696,25.230495 11.500037,31.436501 z"
             style="fill:#404040;"/>
          </a>
         </g>
        </svg>
</svg>
