<?xml version="1.0" encoding="UTF-8" standalone="no"?>
<!DOCTYPE svg PUBLIC "-//W3C//DTD SVG 1.1//EN"
 "http://www.w3.org/Graphics/SVG/1.1/DTD/svg11.dtd">
<!-- Generated by graphviz version 2.32.0 (20130916.1925)
 -->
<!-- Title: include/util/rc_lsfit.h Pages: 1 -->
<svg width="526pt" height="494pt"
 viewBox="0.00 0.00 526.00 494.00" xmlns="http://www.w3.org/2000/svg" xmlns:xlink="http://www.w3.org/1999/xlink">
<g id="graph0" class="graph" transform="scale(1 1) rotate(0) translate(4 490)">
<title>include/util/rc_lsfit.h</title>
<polygon fill="white" stroke="white" points="-4,5 -4,-490 523,-490 523,5 -4,5"/>
<!-- Node1 -->
<g id="node1" class="node"><title>Node1</title>
<polygon fill="#bfbfbf" stroke="black" points="237.37,-465 237.37,-485 340.63,-485 340.63,-465 237.37,-465"/>
<text text-anchor="middle" x="289" y="-471" font-family="Helvetica,sans-Serif" font-size="10.00">include/util/rc_lsfit.h</text>
</g>
<!-- Node2 -->
<g id="node2" class="node"><title>Node2</title>
<g id="a_node2"><a xlink:href="rc__vector2d_8h.html" target="_top" xlink:title="rc_vector2d.h">
<polygon fill="white" stroke="black" points="155.707,-233 155.707,-253 232.293,-253 232.293,-233 155.707,-233"/>
<text text-anchor="middle" x="194" y="-239" font-family="Helvetica,sans-Serif" font-size="10.00">rc_vector2d.h</text>
</a>
</g>
</g>
<!-- Node1&#45;&gt;Node2 -->
<g id="edge1" class="edge"><title>Node1&#45;&gt;Node2</title>
<path fill="none" stroke="midnightblue" d="M279.927,-464.879C271.633,-456.095 259.544,-442.097 252,-428 222.041,-372.018 204.647,-298.049 197.638,-263.43"/>
<polygon fill="midnightblue" stroke="midnightblue" points="201.007,-262.425 195.655,-253.281 194.137,-263.767 201.007,-262.425"/>
</g>
<!-- Node19 -->
<g id="node19" class="node"><title>Node19</title>
<g id="a_node19"><a xlink:href="rc__fit_8h.html" target="_top" xlink:title="rc_fit.h">
<polygon fill="white" stroke="black" points="265.995,-407 265.995,-427 312.005,-427 312.005,-407 265.995,-407"/>
<text text-anchor="middle" x="289" y="-413" font-family="Helvetica,sans-Serif" font-size="10.00">rc_fit.h</text>
</a>
</g>
</g>
<!-- Node1&#45;&gt;Node19 -->
<g id="edge21" class="edge"><title>Node1&#45;&gt;Node19</title>
<path fill="none" stroke="midnightblue" d="M289,-464.753C289,-457.25 289,-446.424 289,-437.078"/>
<polygon fill="midnightblue" stroke="midnightblue" points="292.5,-437.075 289,-427.075 285.5,-437.075 292.5,-437.075"/>
</g>
<!-- Node21 -->
<g id="node21" class="node"><title>Node21</title>
<g id="a_node21"><a xlink:href="rc__matrix_8h.html" target="_top" xlink:title="rc_matrix.h">
<polygon fill="white" stroke="black" points="274.273,-291 274.273,-311 339.727,-311 339.727,-291 274.273,-291"/>
<text text-anchor="middle" x="307" y="-297" font-family="Helvetica,sans-Serif" font-size="10.00">rc_matrix.h</text>
</a>
</g>
</g>
<!-- Node1&#45;&gt;Node21 -->
<g id="edge24" class="edge"><title>Node1&#45;&gt;Node21</title>
<path fill="none" stroke="midnightblue" d="M279.943,-464.72C272.153,-456.038 261.483,-442.295 257,-428 254.074,-418.67 254.827,-415.533 257,-406 264.345,-373.771 282.993,-339.883 295.322,-319.864"/>
<polygon fill="midnightblue" stroke="midnightblue" points="298.403,-321.541 300.79,-311.218 292.487,-317.799 298.403,-321.541"/>
</g>
<!-- Node23 -->
<g id="node23" class="node"><title>Node23</title>
<g id="a_node23"><a xlink:href="rc__xforms_8h.html" target="_top" xlink:title="rc_xforms.h">
<polygon fill="white" stroke="black" points="394.884,-349 394.884,-369 463.116,-369 463.116,-349 394.884,-349"/>
<text text-anchor="middle" x="429" y="-355" font-family="Helvetica,sans-Serif" font-size="10.00">rc_xforms.h</text>
</a>
</g>
</g>
<!-- Node1&#45;&gt;Node23 -->
<g id="edge28" class="edge"><title>Node1&#45;&gt;Node23</title>
<path fill="none" stroke="midnightblue" d="M327.609,-464.978C350.157,-458.046 377.848,-446.453 397,-428 410.912,-414.596 419.436,-393.95 424.15,-378.923"/>
<polygon fill="midnightblue" stroke="midnightblue" points="427.558,-379.735 426.933,-369.158 420.826,-377.816 427.558,-379.735"/>
</g>
<!-- Node24 -->
<g id="node24" class="node"><title>Node24</title>
<g id="a_node24"><a xlink:href="rc__line_8h.html" target="_top" xlink:title="rc_line.h">
<polygon fill="white" stroke="black" points="335.101,-407 335.101,-427 388.899,-427 388.899,-407 335.101,-407"/>
<text text-anchor="middle" x="362" y="-413" font-family="Helvetica,sans-Serif" font-size="10.00">rc_line.h</text>
</a>
</g>
</g>
<!-- Node1&#45;&gt;Node24 -->
<g id="edge31" class="edge"><title>Node1&#45;&gt;Node24</title>
<path fill="none" stroke="midnightblue" d="M301.054,-464.753C312.216,-456.19 329.023,-443.298 342.161,-433.219"/>
<polygon fill="midnightblue" stroke="midnightblue" points="344.366,-435.939 350.17,-427.075 340.105,-430.385 344.366,-435.939"/>
</g>
<!-- Node3 -->
<g id="node3" class="node"><title>Node3</title>
<polygon fill="white" stroke="#bfbfbf" points="221.714,-175 221.714,-195 268.286,-195 268.286,-175 221.714,-175"/>
<text text-anchor="middle" x="245" y="-181" font-family="Helvetica,sans-Serif" font-size="10.00">math.h</text>
</g>
<!-- Node2&#45;&gt;Node3 -->
<g id="edge2" class="edge"><title>Node2&#45;&gt;Node3</title>
<path fill="none" stroke="midnightblue" d="M202.422,-232.753C209.848,-224.598 220.852,-212.516 229.812,-202.677"/>
<polygon fill="midnightblue" stroke="midnightblue" points="232.589,-204.825 236.735,-195.075 227.414,-200.112 232.589,-204.825"/>
</g>
<!-- Node4 -->
<g id="node4" class="node"><title>Node4</title>
<g id="a_node4"><a xlink:href="rc__types_8h.html" target="_top" xlink:title="rc_types.h">
<polygon fill="white" stroke="black" points="281.934,-117 281.934,-137 344.066,-137 344.066,-117 281.934,-117"/>
<text text-anchor="middle" x="313" y="-123" font-family="Helvetica,sans-Serif" font-size="10.00">rc_types.h</text>
</a>
</g>
</g>
<!-- Node2&#45;&gt;Node4 -->
<g id="edge3" class="edge"><title>Node2&#45;&gt;Node4</title>
<path fill="none" stroke="midnightblue" d="M194.191,-232.962C194.953,-218.783 198.366,-191.162 213,-174 228.131,-156.255 251.559,-144.975 271.936,-138.029"/>
<polygon fill="midnightblue" stroke="midnightblue" points="273.166,-141.311 281.645,-134.958 271.055,-134.637 273.166,-141.311"/>
</g>
<!-- Node9 -->
<g id="node9" class="node"><title>Node9</title>
<g id="a_node9"><a xlink:href="rc__exception_8h.html" target="_top" xlink:title="rc_exception.h">
<polygon fill="white" stroke="black" points="84.4805,-175 84.4805,-195 165.52,-195 165.52,-175 84.4805,-175"/>
<text text-anchor="middle" x="125" y="-181" font-family="Helvetica,sans-Serif" font-size="10.00">rc_exception.h</text>
</a>
</g>
</g>
<!-- Node2&#45;&gt;Node9 -->
<g id="edge8" class="edge"><title>Node2&#45;&gt;Node9</title>
<path fill="none" stroke="midnightblue" d="M182.606,-232.753C172.156,-224.272 156.473,-211.543 144.107,-201.507"/>
<polygon fill="midnightblue" stroke="midnightblue" points="146.152,-198.659 136.182,-195.075 141.741,-204.095 146.152,-198.659"/>
</g>
<!-- Node13 -->
<g id="node13" class="node"><title>Node13</title>
<g id="a_node13"><a xlink:href="rc__pair_8h.html" target="_top" xlink:title="rc_pair.h">
<polygon fill="white" stroke="black" points="285.82,-175 285.82,-195 340.18,-195 340.18,-175 285.82,-175"/>
<text text-anchor="middle" x="313" y="-181" font-family="Helvetica,sans-Serif" font-size="10.00">rc_pair.h</text>
</a>
</g>
</g>
<!-- Node2&#45;&gt;Node13 -->
<g id="edge13" class="edge"><title>Node2&#45;&gt;Node13</title>
<path fill="none" stroke="midnightblue" d="M213.384,-232.878C232.661,-223.807 262.451,-209.788 284.436,-199.442"/>
<polygon fill="midnightblue" stroke="midnightblue" points="286.066,-202.543 293.624,-195.118 283.086,-196.209 286.066,-202.543"/>
</g>
<!-- Node14 -->
<g id="node14" class="node"><title>Node14</title>
<g id="a_node14"><a xlink:href="rc__math_8h.html" target="_top" xlink:title="rc_math.h">
<polygon fill="white" stroke="black" points="395.769,-175 395.769,-195 456.231,-195 456.231,-175 395.769,-175"/>
<text text-anchor="middle" x="426" y="-181" font-family="Helvetica,sans-Serif" font-size="10.00">rc_math.h</text>
</a>
</g>
</g>
<!-- Node2&#45;&gt;Node14 -->
<g id="edge15" class="edge"><title>Node2&#45;&gt;Node14</title>
<path fill="none" stroke="midnightblue" d="M231.533,-232.94C273.799,-222.738 342.23,-206.22 385.628,-195.745"/>
<polygon fill="midnightblue" stroke="midnightblue" points="386.657,-199.097 395.556,-193.348 385.014,-192.293 386.657,-199.097"/>
</g>
<!-- Node18 -->
<g id="node18" class="node"><title>Node18</title>
<g id="a_node18"><a xlink:href="rc__macro_8h.html" target="_top" xlink:title="rc_macro.h">
<polygon fill="white" stroke="black" points="-0.00732422,-175 -0.00732422,-195 66.0073,-195 66.0073,-175 -0.00732422,-175"/>
<text text-anchor="middle" x="33" y="-181" font-family="Helvetica,sans-Serif" font-size="10.00">rc_macro.h</text>
</a>
</g>
</g>
<!-- Node2&#45;&gt;Node18 -->
<g id="edge20" class="edge"><title>Node2&#45;&gt;Node18</title>
<path fill="none" stroke="midnightblue" d="M167.774,-232.878C140.796,-223.494 98.5945,-208.815 68.6089,-198.386"/>
<polygon fill="midnightblue" stroke="midnightblue" points="69.5426,-195.005 58.9478,-195.025 67.2429,-201.616 69.5426,-195.005"/>
</g>
<!-- Node5 -->
<g id="node5" class="node"><title>Node5</title>
<polygon fill="white" stroke="#bfbfbf" points="283.773,-59 283.773,-79 324.227,-79 324.227,-59 283.773,-59"/>
<text text-anchor="middle" x="304" y="-65" font-family="Helvetica,sans-Serif" font-size="10.00">string</text>
</g>
<!-- Node4&#45;&gt;Node5 -->
<g id="edge4" class="edge"><title>Node4&#45;&gt;Node5</title>
<path fill="none" stroke="midnightblue" d="M311.514,-116.753C310.308,-109.25 308.568,-98.4238 307.066,-89.0781"/>
<polygon fill="midnightblue" stroke="midnightblue" points="310.501,-88.3931 305.459,-79.0752 303.59,-89.5039 310.501,-88.3931"/>
</g>
<!-- Node6 -->
<g id="node6" class="node"><title>Node6</title>
<polygon fill="white" stroke="#bfbfbf" points="342.214,-59 342.214,-79 393.786,-79 393.786,-59 342.214,-59"/>
<text text-anchor="middle" x="368" y="-65" font-family="Helvetica,sans-Serif" font-size="10.00">assert.h</text>
</g>
<!-- Node4&#45;&gt;Node6 -->
<g id="edge5" class="edge"><title>Node4&#45;&gt;Node6</title>
<path fill="none" stroke="midnightblue" d="M322.082,-116.753C330.171,-108.516 342.195,-96.2738 351.91,-86.3824"/>
<polygon fill="midnightblue" stroke="midnightblue" points="354.577,-88.6622 359.087,-79.0752 349.583,-83.7572 354.577,-88.6622"/>
</g>
<!-- Node7 -->
<g id="node7" class="node"><title>Node7</title>
<g id="a_node7"><a xlink:href="rc__platform_8h.html" target="_top" xlink:title="rc_platform.h">
<polygon fill="white" stroke="black" points="191.823,-59 191.823,-79 266.177,-79 266.177,-59 191.823,-59"/>
<text text-anchor="middle" x="229" y="-65" font-family="Helvetica,sans-Serif" font-size="10.00">rc_platform.h</text>
</a>
</g>
</g>
<!-- Node4&#45;&gt;Node7 -->
<g id="edge6" class="edge"><title>Node4&#45;&gt;Node7</title>
<path fill="none" stroke="midnightblue" d="M299.129,-116.753C286.041,-108.027 266.208,-94.8051 250.969,-84.6458"/>
<polygon fill="midnightblue" stroke="midnightblue" points="252.875,-81.7101 242.613,-79.0752 248.992,-87.5344 252.875,-81.7101"/>
</g>
<!-- Node8 -->
<g id="node8" class="node"><title>Node8</title>
<polygon fill="white" stroke="#bfbfbf" points="156.796,-1 156.796,-21 301.204,-21 301.204,-1 156.796,-1"/>
<text text-anchor="middle" x="229" y="-7" font-family="Helvetica,sans-Serif" font-size="10.00">architecture/i386/alignment.h</text>
</g>
<!-- Node7&#45;&gt;Node8 -->
<g id="edge7" class="edge"><title>Node7&#45;&gt;Node8</title>
<path fill="none" stroke="midnightblue" d="M229,-58.7527C229,-51.2504 229,-40.4238 229,-31.0781"/>
<polygon fill="midnightblue" stroke="midnightblue" points="232.5,-31.0752 229,-21.0752 225.5,-31.0752 232.5,-31.0752"/>
</g>
<!-- Node9&#45;&gt;Node7 -->
<g id="edge9" class="edge"><title>Node9&#45;&gt;Node7</title>
<path fill="none" stroke="midnightblue" d="M153.317,-174.923C171.661,-167.668 194.714,-155.742 209,-138 220.193,-124.099 225.123,-104.124 227.294,-89.4185"/>
<polygon fill="midnightblue" stroke="midnightblue" points="230.781,-89.7286 228.474,-79.3881 223.829,-88.9106 230.781,-89.7286"/>
</g>
<!-- Node10 -->
<g id="node10" class="node"><title>Node10</title>
<polygon fill="white" stroke="#bfbfbf" points="-0.403809,-117 -0.403809,-137 58.4038,-137 58.4038,-117 -0.403809,-117"/>
<text text-anchor="middle" x="29" y="-123" font-family="Helvetica,sans-Serif" font-size="10.00">exception</text>
</g>
<!-- Node9&#45;&gt;Node10 -->
<g id="edge10" class="edge"><title>Node9&#45;&gt;Node10</title>
<path fill="none" stroke="midnightblue" d="M109.148,-174.753C94.0497,-165.946 71.0986,-152.558 53.6201,-142.362"/>
<polygon fill="midnightblue" stroke="midnightblue" points="54.9588,-139.091 44.5575,-137.075 51.4317,-145.137 54.9588,-139.091"/>
</g>
<!-- Node11 -->
<g id="node11" class="node"><title>Node11</title>
<polygon fill="white" stroke="#bfbfbf" points="76.8276,-117 76.8276,-137 131.172,-137 131.172,-117 76.8276,-117"/>
<text text-anchor="middle" x="104" y="-123" font-family="Helvetica,sans-Serif" font-size="10.00">iostream</text>
</g>
<!-- Node9&#45;&gt;Node11 -->
<g id="edge11" class="edge"><title>Node9&#45;&gt;Node11</title>
<path fill="none" stroke="midnightblue" d="M121.532,-174.753C118.658,-167.087 114.482,-155.952 110.927,-146.471"/>
<polygon fill="midnightblue" stroke="midnightblue" points="114.192,-145.21 107.403,-137.075 107.637,-147.667 114.192,-145.21"/>
</g>
<!-- Node12 -->
<g id="node12" class="node"><title>Node12</title>
<polygon fill="white" stroke="#bfbfbf" points="149.219,-117 149.219,-137 200.781,-137 200.781,-117 149.219,-117"/>
<text text-anchor="middle" x="175" y="-123" font-family="Helvetica,sans-Serif" font-size="10.00">sstream</text>
</g>
<!-- Node9&#45;&gt;Node12 -->
<g id="edge12" class="edge"><title>Node9&#45;&gt;Node12</title>
<path fill="none" stroke="midnightblue" d="M133.256,-174.753C140.537,-166.598 151.325,-154.516 160.11,-144.677"/>
<polygon fill="midnightblue" stroke="midnightblue" points="162.848,-146.866 166.897,-137.075 157.626,-142.204 162.848,-146.866"/>
</g>
<!-- Node13&#45;&gt;Node4 -->
<g id="edge14" class="edge"><title>Node13&#45;&gt;Node4</title>
<path fill="none" stroke="midnightblue" d="M313,-174.753C313,-167.25 313,-156.424 313,-147.078"/>
<polygon fill="midnightblue" stroke="midnightblue" points="316.5,-147.075 313,-137.075 309.5,-147.075 316.5,-147.075"/>
</g>
<!-- Node14&#45;&gt;Node4 -->
<g id="edge16" class="edge"><title>Node14&#45;&gt;Node4</title>
<path fill="none" stroke="midnightblue" d="M407.593,-174.878C389.371,-165.847 361.253,-151.913 340.405,-141.581"/>
<polygon fill="midnightblue" stroke="midnightblue" points="341.913,-138.423 331.399,-137.118 338.805,-144.695 341.913,-138.423"/>
</g>
<!-- Node15 -->
<g id="node15" class="node"><title>Node15</title>
<g id="a_node15"><a xlink:href="rc__limits_8h.html" target="_top" xlink:title="rc_limits.h">
<polygon fill="white" stroke="black" points="395.498,-117 395.498,-137 456.502,-137 456.502,-117 395.498,-117"/>
<text text-anchor="middle" x="426" y="-123" font-family="Helvetica,sans-Serif" font-size="10.00">rc_limits.h</text>
</a>
</g>
</g>
<!-- Node14&#45;&gt;Node15 -->
<g id="edge17" class="edge"><title>Node14&#45;&gt;Node15</title>
<path fill="none" stroke="midnightblue" d="M426,-174.753C426,-167.25 426,-156.424 426,-147.078"/>
<polygon fill="midnightblue" stroke="midnightblue" points="429.5,-147.075 426,-137.075 422.5,-147.075 429.5,-147.075"/>
</g>
<!-- Node17 -->
<g id="node17" class="node"><title>Node17</title>
<polygon fill="white" stroke="#bfbfbf" points="474.384,-117 474.384,-137 517.616,-137 517.616,-117 474.384,-117"/>
<text text-anchor="middle" x="496" y="-123" font-family="Helvetica,sans-Serif" font-size="10.00">cmath</text>
</g>
<!-- Node14&#45;&gt;Node17 -->
<g id="edge19" class="edge"><title>Node14&#45;&gt;Node17</title>
<path fill="none" stroke="midnightblue" d="M437.559,-174.753C448.16,-166.272 464.071,-153.543 476.616,-143.507"/>
<polygon fill="midnightblue" stroke="midnightblue" points="479.034,-146.055 484.656,-137.075 474.661,-140.589 479.034,-146.055"/>
</g>
<!-- Node16 -->
<g id="node16" class="node"><title>Node16</title>
<polygon fill="white" stroke="#bfbfbf" points="411.443,-59 411.443,-79 458.557,-79 458.557,-59 411.443,-59"/>
<text text-anchor="middle" x="435" y="-65" font-family="Helvetica,sans-Serif" font-size="10.00">limits.h</text>
</g>
<!-- Node15&#45;&gt;Node16 -->
<g id="edge18" class="edge"><title>Node15&#45;&gt;Node16</title>
<path fill="none" stroke="midnightblue" d="M427.486,-116.753C428.692,-109.25 430.432,-98.4238 431.934,-89.0781"/>
<polygon fill="midnightblue" stroke="midnightblue" points="435.41,-89.5039 433.541,-79.0752 428.499,-88.3931 435.41,-89.5039"/>
</g>
<!-- Node19&#45;&gt;Node2 -->
<g id="edge22" class="edge"><title>Node19&#45;&gt;Node2</title>
<path fill="none" stroke="midnightblue" d="M283.892,-406.753C268.815,-379.454 224.295,-298.85 204.13,-262.341"/>
<polygon fill="midnightblue" stroke="midnightblue" points="207.031,-260.355 199.133,-253.293 200.904,-263.739 207.031,-260.355"/>
</g>
<!-- Node20 -->
<g id="node20" class="node"><title>Node20</title>
<polygon fill="white" stroke="#bfbfbf" points="295.384,-349 295.384,-369 338.616,-369 338.616,-349 295.384,-349"/>
<text text-anchor="middle" x="317" y="-355" font-family="Helvetica,sans-Serif" font-size="10.00">vector</text>
</g>
<!-- Node19&#45;&gt;Node20 -->
<g id="edge23" class="edge"><title>Node19&#45;&gt;Node20</title>
<path fill="none" stroke="midnightblue" d="M293.624,-406.753C297.497,-399.006 303.143,-387.714 307.916,-378.169"/>
<polygon fill="midnightblue" stroke="midnightblue" points="311.121,-379.585 312.462,-369.075 304.86,-376.454 311.121,-379.585"/>
</g>
<!-- Node21&#45;&gt;Node2 -->
<g id="edge26" class="edge"><title>Node21&#45;&gt;Node2</title>
<path fill="none" stroke="midnightblue" d="M288.593,-290.878C270.371,-281.847 242.253,-267.913 221.405,-257.581"/>
<polygon fill="midnightblue" stroke="midnightblue" points="222.913,-254.423 212.399,-253.118 219.805,-260.695 222.913,-254.423"/>
</g>
<!-- Node21&#45;&gt;Node13 -->
<g id="edge25" class="edge"><title>Node21&#45;&gt;Node13</title>
<path fill="none" stroke="midnightblue" d="M307.952,-290.847C308.879,-281.572 310.256,-266.804 311,-254 311.953,-237.603 312.461,-218.955 312.726,-205.34"/>
<polygon fill="midnightblue" stroke="midnightblue" points="316.227,-205.304 312.896,-195.246 309.228,-205.186 316.227,-205.304"/>
</g>
<!-- Node22 -->
<g id="node22" class="node"><title>Node22</title>
<polygon fill="white" stroke="#bfbfbf" points="249.938,-233 249.938,-253 302.062,-253 302.062,-233 249.938,-233"/>
<text text-anchor="middle" x="276" y="-239" font-family="Helvetica,sans-Serif" font-size="10.00">ostream</text>
</g>
<!-- Node21&#45;&gt;Node22 -->
<g id="edge27" class="edge"><title>Node21&#45;&gt;Node22</title>
<path fill="none" stroke="midnightblue" d="M301.881,-290.753C297.547,-282.924 291.21,-271.476 285.891,-261.868"/>
<polygon fill="midnightblue" stroke="midnightblue" points="288.929,-260.129 281.024,-253.075 282.805,-263.519 288.929,-260.129"/>
</g>
<!-- Node23&#45;&gt;Node14 -->
<g id="edge29" class="edge"><title>Node23&#45;&gt;Node14</title>
<path fill="none" stroke="midnightblue" d="M428.839,-348.753C428.369,-321.804 426.993,-242.908 426.345,-205.766"/>
<polygon fill="midnightblue" stroke="midnightblue" points="429.836,-205.231 426.162,-195.293 422.837,-205.353 429.836,-205.231"/>
</g>
<!-- Node23&#45;&gt;Node21 -->
<g id="edge30" class="edge"><title>Node23&#45;&gt;Node21</title>
<path fill="none" stroke="midnightblue" d="M409.127,-348.878C389.276,-339.766 358.549,-325.662 335.981,-315.303"/>
<polygon fill="midnightblue" stroke="midnightblue" points="337.413,-312.109 326.864,-311.118 334.493,-318.471 337.413,-312.109"/>
</g>
<!-- Node24&#45;&gt;Node4 -->
<g id="edge33" class="edge"><title>Node24&#45;&gt;Node4</title>
<path fill="none" stroke="midnightblue" d="M363.419,-406.814C368.111,-373.928 381.065,-259.486 349,-174 344.886,-163.033 337.157,-152.599 329.911,-144.448"/>
<polygon fill="midnightblue" stroke="midnightblue" points="332.395,-141.981 322.979,-137.125 327.311,-146.793 332.395,-141.981"/>
</g>
<!-- Node24&#45;&gt;Node20 -->
<g id="edge34" class="edge"><title>Node24&#45;&gt;Node20</title>
<path fill="none" stroke="midnightblue" d="M354.569,-406.753C348.082,-398.68 338.501,-386.757 330.639,-376.973"/>
<polygon fill="midnightblue" stroke="midnightblue" points="333.285,-374.678 324.293,-369.075 327.828,-379.063 333.285,-374.678"/>
</g>
<!-- Node24&#45;&gt;Node23 -->
<g id="edge32" class="edge"><title>Node24&#45;&gt;Node23</title>
<path fill="none" stroke="midnightblue" d="M373.064,-406.753C383.21,-398.272 398.44,-385.543 410.447,-375.507"/>
<polygon fill="midnightblue" stroke="midnightblue" points="412.714,-378.174 418.142,-369.075 408.225,-372.803 412.714,-378.174"/>
</g>
</g>
</svg>
