<?xml version="1.0" encoding="UTF-8" standalone="no"?>
<!DOCTYPE svg PUBLIC "-//W3C//DTD SVG 1.1//EN"
 "http://www.w3.org/Graphics/SVG/1.1/DTD/svg11.dtd">
<!-- Generated by graphviz version 2.32.0 (20130916.1925)
 -->
<!-- Title: VDGETGAIN Pages: 1 -->
<!--zoomable 223 -->
<svg id="main" version="1.1" xmlns="http://www.w3.org/2000/svg" xmlns:xlink="http://www.w3.org/1999/xlink" xml:space="preserve" onload="init(evt)">
        <defs>
                <circle id="rim" cx="0" cy="0" r="7"/>
                <circle id="rim2" cx="0" cy="0" r="3.5"/>
                <g id="zoomPlus">
                        <use xlink:href="#rim" fill="#404040">
                                <set attributeName="fill" to="#808080" begin="zoomplus.mouseover" end="zoomplus.mouseout"/>
                        </use>
                        <path d="M-4,0h8M0,-4v8" fill="none" stroke="white" stroke-width="1.5" pointer-events="none"/>
                </g>
                <g id="zoomMin">
                        <use xlink:href="#rim" fill="#404040">
                                <set attributeName="fill" to="#808080" begin="zoomminus.mouseover" end="zoomminus.mouseout"/>
                        </use>
                        <path d="M-4,0h8" fill="none" stroke="white" stroke-width="1.5" pointer-events="none"/>
                </g>
                <g id="dirArrow">
                        <path fill="none" stroke="white" stroke-width="1.5" d="M0,-3.0v7 M-2.5,-0.5L0,-3.0L2.5,-0.5"/>
                </g>
               <g id="resetDef">
                       <use xlink:href="#rim2" fill="#404040">
                               <set attributeName="fill" to="#808080" begin="reset.mouseover" end="reset.mouseout"/>
                       </use>
               </g>
        </defs>

<script type="text/javascript">
var viewWidth = 802;
var viewHeight = 223;
var sectionId = 'dynsection-27';
</script>
<script xlink:href="svgpan.js"/>
<svg id="graph" class="graph">
<g id="viewport">
<title>VDGETGAIN</title>
<polygon fill="white" stroke="white" points="-4,5 -4,-219 799,-219 799,5 -4,5"/>
<!-- Node1 -->
<g id="node1" class="node"><title>Node1</title>
<polygon fill="#bfbfbf" stroke="black" points="0.551758,-97 0.551758,-117 75.4482,-117 75.4482,-97 0.551758,-97"/>
<text text-anchor="middle" x="38" y="-103" font-family="Helvetica,sans-Serif" font-size="10.00">VDGETGAIN</text>
</g>
<!-- Node2 -->
<g id="node2" class="node"><title>Node2</title>
<g id="a_node2"><a xlink:href="textio_8cpp.html#a905a4c61e365d406069f00eb68db1ca5" target="_top" xlink:title="endl">
<polygon fill="white" stroke="black" points="112.547,-97 112.547,-117 147.453,-117 147.453,-97 112.547,-97"/>
<text text-anchor="middle" x="130" y="-103" font-family="Helvetica,sans-Serif" font-size="10.00">endl</text>
</a>
</g>
</g>
<!-- Node1&#45;&gt;Node2 -->
<g id="edge1" class="edge"><title>Node1&#45;&gt;Node2</title>
<path fill="none" stroke="midnightblue" d="M75.6064,-107C84.4043,-107 93.646,-107 101.921,-107"/>
<polygon fill="midnightblue" stroke="midnightblue" points="102.125,-110.5 112.125,-107 102.124,-103.5 102.125,-110.5"/>
</g>
<!-- Node3 -->
<g id="node3" class="node"><title>Node3</title>
<g id="a_node3"><a xlink:href="classotext.html#a5086c0fd5e3f551eae3027e5d23d3c30" target="_top" xlink:title="otext::put">
<polygon fill="white" stroke="black" points="184.431,-97 184.431,-117 241.569,-117 241.569,-97 184.431,-97"/>
<text text-anchor="middle" x="213" y="-103" font-family="Helvetica,sans-Serif" font-size="10.00">otext::put</text>
</a>
</g>
</g>
<!-- Node2&#45;&gt;Node3 -->
<g id="edge2" class="edge"><title>Node2&#45;&gt;Node3</title>
<path fill="none" stroke="midnightblue" d="M147.783,-107C155.46,-107 164.891,-107 174.138,-107"/>
<polygon fill="midnightblue" stroke="midnightblue" points="174.397,-110.5 184.397,-107 174.397,-103.5 174.397,-110.5"/>
</g>
<!-- Node4 -->
<g id="node4" class="node"><title>Node4</title>
<g id="a_node4"><a xlink:href="classotext.html#a2a2435d80cce60cb88360c7bfe3f8445" target="_top" xlink:title="otext::set_error">
<polygon fill="white" stroke="black" points="290.375,-195 290.375,-215 373.625,-215 373.625,-195 290.375,-195"/>
<text text-anchor="middle" x="332" y="-201" font-family="Helvetica,sans-Serif" font-size="10.00">otext::set_error</text>
</a>
</g>
</g>
<!-- Node3&#45;&gt;Node4 -->
<g id="edge3" class="edge"><title>Node3&#45;&gt;Node4</title>
<path fill="none" stroke="midnightblue" d="M219.8,-117.047C229.737,-133.439 251.526,-166.01 278,-185 280.843,-187.039 283.92,-188.898 287.11,-190.587"/>
<polygon fill="midnightblue" stroke="midnightblue" points="285.763,-193.822 296.302,-194.907 288.74,-187.486 285.763,-193.822"/>
</g>
<!-- Node8 -->
<g id="node8" class="node"><title>Node8</title>
<g id="a_node8"><a xlink:href="classobuff.html#a5bbb61ac15c672da7f7b2002bef6b128" target="_top" xlink:title="obuff::put">
<polygon fill="white" stroke="black" points="303.238,-156 303.238,-176 360.762,-176 360.762,-156 303.238,-156"/>
<text text-anchor="middle" x="332" y="-162" font-family="Helvetica,sans-Serif" font-size="10.00">obuff::put</text>
</a>
</g>
</g>
<!-- Node3&#45;&gt;Node8 -->
<g id="edge7" class="edge"><title>Node3&#45;&gt;Node8</title>
<path fill="none" stroke="midnightblue" d="M228.81,-117.119C241.502,-125.521 260.46,-137.439 278,-146 282.971,-148.426 288.317,-150.752 293.632,-152.904"/>
<polygon fill="midnightblue" stroke="midnightblue" points="292.491,-156.216 303.08,-156.575 295.026,-149.691 292.491,-156.216"/>
</g>
<!-- Node9 -->
<g id="node9" class="node"><title>Node9</title>
<g id="a_node9"><a xlink:href="classobuff.html#a069bcd2767c0d7c8e2bc8cd26d91e267" target="_top" xlink:title="obuff::increment">
<polygon fill="white" stroke="black" points="288.236,-117 288.236,-137 375.764,-137 375.764,-117 288.236,-117"/>
<text text-anchor="middle" x="332" y="-123" font-family="Helvetica,sans-Serif" font-size="10.00">obuff::increment</text>
</a>
</g>
</g>
<!-- Node3&#45;&gt;Node9 -->
<g id="edge8" class="edge"><title>Node3&#45;&gt;Node9</title>
<path fill="none" stroke="midnightblue" d="M241.727,-111.74C252.605,-113.599 265.467,-115.798 277.99,-117.938"/>
<polygon fill="midnightblue" stroke="midnightblue" points="277.47,-121.4 287.916,-119.635 278.649,-114.5 277.47,-121.4"/>
</g>
<!-- Node10 -->
<g id="node10" class="node"><title>Node10</title>
<g id="a_node10"><a xlink:href="classobuff.html#a0711113beee11f9793f5ba9e8e64c641" target="_top" xlink:title="obuff::newline_mode">
<polygon fill="white" stroke="black" points="277.945,-78 277.945,-98 386.055,-98 386.055,-78 277.945,-78"/>
<text text-anchor="middle" x="332" y="-84" font-family="Helvetica,sans-Serif" font-size="10.00">obuff::newline_mode</text>
</a>
</g>
</g>
<!-- Node3&#45;&gt;Node10 -->
<g id="edge9" class="edge"><title>Node3&#45;&gt;Node10</title>
<path fill="none" stroke="midnightblue" d="M241.727,-102.497C249.667,-101.208 258.665,-99.7467 267.816,-98.2606"/>
<polygon fill="midnightblue" stroke="midnightblue" points="268.454,-101.703 277.764,-96.6452 267.332,-94.7935 268.454,-101.703"/>
</g>
<!-- Node11 -->
<g id="node11" class="node"><title>Node11</title>
<g id="a_node11"><a xlink:href="classobuff.html#a51efd4e8e00303842fa762940aad86ec" target="_top" xlink:title="obuff::line_buffer">
<polygon fill="white" stroke="black" points="286.927,-39 286.927,-59 377.073,-59 377.073,-39 286.927,-39"/>
<text text-anchor="middle" x="332" y="-45" font-family="Helvetica,sans-Serif" font-size="10.00">obuff::line_buffer</text>
</a>
</g>
</g>
<!-- Node3&#45;&gt;Node11 -->
<g id="edge10" class="edge"><title>Node3&#45;&gt;Node11</title>
<path fill="none" stroke="midnightblue" d="M229.359,-96.8431C242.068,-88.6951 260.765,-77.2897 278,-69 282.42,-66.8739 287.13,-64.8171 291.848,-62.8832"/>
<polygon fill="midnightblue" stroke="midnightblue" points="293.432,-66.0216 301.456,-59.1038 290.869,-59.5075 293.432,-66.0216"/>
</g>
<!-- Node12 -->
<g id="node12" class="node"><title>Node12</title>
<g id="a_node12"><a xlink:href="classotext.html#ab52b059090ba70eeeac469f9051d3a22" target="_top" xlink:title="otext::flush">
<polygon fill="white" stroke="black" points="299.82,-0 299.82,-20 364.18,-20 364.18,-0 299.82,-0"/>
<text text-anchor="middle" x="332" y="-6" font-family="Helvetica,sans-Serif" font-size="10.00">otext::flush</text>
</a>
</g>
</g>
<!-- Node3&#45;&gt;Node12 -->
<g id="edge11" class="edge"><title>Node3&#45;&gt;Node12</title>
<path fill="none" stroke="midnightblue" d="M219.765,-96.9037C229.651,-80.4404 251.369,-47.7698 278,-29 281.741,-26.363 285.888,-24.055 290.165,-22.0438"/>
<polygon fill="midnightblue" stroke="midnightblue" points="291.746,-25.177 299.633,-18.1028 289.056,-18.7145 291.746,-25.177"/>
</g>
<!-- Node5 -->
<g id="node5" class="node"><title>Node5</title>
<g id="a_node5"><a xlink:href="classobuff.html#ae388e9608d1c873d1feaf621f4044c25" target="_top" xlink:title="obuff::set_error">
<polygon fill="white" stroke="black" points="422.182,-195 422.182,-215 505.818,-215 505.818,-195 422.182,-195"/>
<text text-anchor="middle" x="464" y="-201" font-family="Helvetica,sans-Serif" font-size="10.00">obuff::set_error</text>
</a>
</g>
</g>
<!-- Node4&#45;&gt;Node5 -->
<g id="edge4" class="edge"><title>Node4&#45;&gt;Node5</title>
<path fill="none" stroke="midnightblue" d="M373.776,-205C385.76,-205 399.026,-205 411.583,-205"/>
<polygon fill="midnightblue" stroke="midnightblue" points="411.922,-208.5 421.922,-205 411.922,-201.5 411.922,-208.5"/>
</g>
<!-- Node6 -->
<g id="node6" class="node"><title>Node6</title>
<g id="a_node6"><a xlink:href="class_t_c_p__client__data.html#a970f6bf6bb6e6166615813c5f7768381" target="_top" xlink:title="TCP_client_data::error">
<polygon fill="white" stroke="black" points="542.7,-195 542.7,-215 659.3,-215 659.3,-195 542.7,-195"/>
<text text-anchor="middle" x="601" y="-201" font-family="Helvetica,sans-Serif" font-size="10.00">TCP_client_data::error</text>
</a>
</g>
</g>
<!-- Node5&#45;&gt;Node6 -->
<g id="edge5" class="edge"><title>Node5&#45;&gt;Node6</title>
<path fill="none" stroke="midnightblue" d="M505.871,-205C514.216,-205 523.208,-205 532.206,-205"/>
<polygon fill="midnightblue" stroke="midnightblue" points="532.335,-208.5 542.335,-205 532.335,-201.5 532.335,-208.5"/>
</g>
<!-- Node7 -->
<g id="node7" class="node"><title>Node7</title>
<g id="a_node7"><a xlink:href="class_t_c_p__socket.html#adb70059ca46476efe0ced51ed377a975" target="_top" xlink:title="TCP_socket::error">
<polygon fill="white" stroke="black" points="696.434,-195 696.434,-215 793.566,-215 793.566,-195 696.434,-195"/>
<text text-anchor="middle" x="745" y="-201" font-family="Helvetica,sans-Serif" font-size="10.00">TCP_socket::error</text>
</a>
</g>
</g>
<!-- Node6&#45;&gt;Node7 -->
<g id="edge6" class="edge"><title>Node6&#45;&gt;Node7</title>
<path fill="none" stroke="midnightblue" d="M659.348,-205C668.089,-205 677.117,-205 685.875,-205"/>
<polygon fill="midnightblue" stroke="midnightblue" points="685.998,-208.5 695.998,-205 685.998,-201.5 685.998,-208.5"/>
</g>
<!-- Node13 -->
<g id="node13" class="node"><title>Node13</title>
<g id="a_node13"><a xlink:href="classobuff.html#a8fb8969c450f4fdc037f8c51d35c87c7" target="_top" xlink:title="obuff::flush">
<polygon fill="white" stroke="black" points="431.627,-0 431.627,-20 496.373,-20 496.373,-0 431.627,-0"/>
<text text-anchor="middle" x="464" y="-6" font-family="Helvetica,sans-Serif" font-size="10.00">obuff::flush</text>
</a>
</g>
</g>
<!-- Node12&#45;&gt;Node13 -->
<g id="edge12" class="edge"><title>Node12&#45;&gt;Node13</title>
<path fill="none" stroke="midnightblue" d="M364.469,-10C381.509,-10 402.782,-10 421.196,-10"/>
<polygon fill="midnightblue" stroke="midnightblue" points="421.37,-13.5001 431.37,-10 421.37,-6.5001 421.37,-13.5001"/>
</g>
</g>
</svg>
        <g id="navigator" transform="translate(0 0)" fill="#404254">
                <rect fill="#f2f5e9" fill-opacity="0.5" stroke="#606060" stroke-width=".5" x="0" y="0" width="60" height="60"/>
                <use id="zoomplus" xlink:href="#zoomPlus" x="17" y="9" onmousedown="handleZoom(evt,'in')"/>
                <use id="zoomminus" xlink:href="#zoomMin" x="42" y="9" onmousedown="handleZoom(evt,'out')"/>
                <use id="reset" xlink:href="#resetDef" x="30" y="36" onmousedown="handleReset()"/>
                <g id="arrowUp" xlink:href="#dirArrow" transform="translate(30 24)" onmousedown="handlePan(0,-1)">
                  <use xlink:href="#rim" fill="#404040">
                        <set attributeName="fill" to="#808080" begin="arrowUp.mouseover" end="arrowUp.mouseout"/>
                  </use>
                  <path fill="none" stroke="white" stroke-width="1.5" d="M0,-3.0v7 M-2.5,-0.5L0,-3.0L2.5,-0.5"/>
                </g>
                <g id="arrowRight" xlink:href="#dirArrow" transform="rotate(90) translate(36 -43)" onmousedown="handlePan(1,0)">
                  <use xlink:href="#rim" fill="#404040">
                        <set attributeName="fill" to="#808080" begin="arrowRight.mouseover" end="arrowRight.mouseout"/>
                  </use>
                  <path fill="none" stroke="white" stroke-width="1.5" d="M0,-3.0v7 M-2.5,-0.5L0,-3.0L2.5,-0.5"/>
                </g>
                <g id="arrowDown" xlink:href="#dirArrow" transform="rotate(180) translate(-30 -48)" onmousedown="handlePan(0,1)">
                  <use xlink:href="#rim" fill="#404040">
                        <set attributeName="fill" to="#808080" begin="arrowDown.mouseover" end="arrowDown.mouseout"/>
                  </use>
                  <path fill="none" stroke="white" stroke-width="1.5" d="M0,-3.0v7 M-2.5,-0.5L0,-3.0L2.5,-0.5"/>
                </g>
                <g id="arrowLeft" xlink:href="#dirArrow" transform="rotate(270) translate(-36 17)" onmousedown="handlePan(-1,0)">
                  <use xlink:href="#rim" fill="#404040">
                        <set attributeName="fill" to="#808080" begin="arrowLeft.mouseover" end="arrowLeft.mouseout"/>
                  </use>
                  <path fill="none" stroke="white" stroke-width="1.5" d="M0,-3.0v7 M-2.5,-0.5L0,-3.0L2.5,-0.5"/>
                </g>
        </g>
        <svg viewBox="0 0 15 15" width="100%" height="30px" preserveAspectRatio="xMaxYMin meet">
         <g id="arrow_out" transform="scale(0.3 0.3)">
          <a xlink:href="rc__dcam__capture_8cpp_a0a0cb522ae509f2b3e86b57b6005ca06_cgraph_org.svg" target="_base">
           <rect id="button" ry="5" rx="5" y="6" x="6" height="38" width="38"
                fill="#f2f5e9" fill-opacity="0.5" stroke="#606060" stroke-width="1.0"/>
           <path id="arrow"
             d="M 11.500037,31.436501 C 11.940474,20.09759 22.043105,11.32322 32.158766,21.979434 L 37.068811,17.246167 C 37.068811,17.246167 37.088388,32 37.088388,32 L 22.160133,31.978069 C 22.160133,31.978069 26.997745,27.140456 26.997745,27.140456 C 18.528582,18.264221 13.291696,25.230495 11.500037,31.436501 z"
             style="fill:#404040;"/>
          </a>
         </g>
        </svg>
</svg>
