<?xml version="1.0" encoding="UTF-8" standalone="no"?>
<!DOCTYPE svg PUBLIC "-//W3C//DTD SVG 1.1//EN"
 "http://www.w3.org/Graphics/SVG/1.1/DTD/svg11.dtd">
<!-- Generated by graphviz version 2.32.0 (20130916.1925)
 -->
<!-- Title: src/analysis/code/rc_cubic.cpp Pages: 1 -->
<!--zoomable 518 -->
<svg id="main" version="1.1" xmlns="http://www.w3.org/2000/svg" xmlns:xlink="http://www.w3.org/1999/xlink" xml:space="preserve" onload="init(evt)">
        <defs>
                <circle id="rim" cx="0" cy="0" r="7"/>
                <circle id="rim2" cx="0" cy="0" r="3.5"/>
                <g id="zoomPlus">
                        <use xlink:href="#rim" fill="#404040">
                                <set attributeName="fill" to="#808080" begin="zoomplus.mouseover" end="zoomplus.mouseout"/>
                        </use>
                        <path d="M-4,0h8M0,-4v8" fill="none" stroke="white" stroke-width="1.5" pointer-events="none"/>
                </g>
                <g id="zoomMin">
                        <use xlink:href="#rim" fill="#404040">
                                <set attributeName="fill" to="#808080" begin="zoomminus.mouseover" end="zoomminus.mouseout"/>
                        </use>
                        <path d="M-4,0h8" fill="none" stroke="white" stroke-width="1.5" pointer-events="none"/>
                </g>
                <g id="dirArrow">
                        <path fill="none" stroke="white" stroke-width="1.5" d="M0,-3.0v7 M-2.5,-0.5L0,-3.0L2.5,-0.5"/>
                </g>
               <g id="resetDef">
                       <use xlink:href="#rim2" fill="#404040">
                               <set attributeName="fill" to="#808080" begin="reset.mouseover" end="reset.mouseout"/>
                       </use>
               </g>
        </defs>

<script type="text/javascript">
var viewWidth = 899;
var viewHeight = 518;
var sectionId = 'dynsection-0';
</script>
<script xlink:href="svgpan.js"/>
<svg id="graph" class="graph">
<g id="viewport">
<title>src/analysis/code/rc_cubic.cpp</title>
<polygon fill="white" stroke="white" points="-4,5 -4,-514 896.396,-514 896.396,5 -4,5"/>
<!-- Node1 -->
<g id="node1" class="node"><title>Node1</title>
<polygon fill="#bfbfbf" stroke="black" points="134.096,-477 134.096,-509 237.904,-509 237.904,-477 134.096,-477"/>
<text text-anchor="start" x="142.096" y="-495" font-family="Helvetica,sans-Serif" font-size="10.00">src/analysis/code/rc</text>
<text text-anchor="middle" x="186" y="-483" font-family="Helvetica,sans-Serif" font-size="10.00">_cubic.cpp</text>
</g>
<!-- Node2 -->
<g id="node2" class="node"><title>Node2</title>
<g id="a_node2"><a xlink:href="rc__math_8h.html" target="_top" xlink:title="rc_math.h">
<polygon fill="white" stroke="black" points="25.7686,-175 25.7686,-195 86.2314,-195 86.2314,-175 25.7686,-175"/>
<text text-anchor="middle" x="56" y="-181" font-family="Helvetica,sans-Serif" font-size="10.00">rc_math.h</text>
</a>
</g>
</g>
<!-- Node1&#45;&gt;Node2 -->
<g id="edge1" class="edge"><title>Node1&#45;&gt;Node2</title>
<path fill="none" stroke="midnightblue" d="M143.589,-476.832C99.8554,-458.147 38,-421.848 38,-366 38,-366 38,-366 38,-300 38,-266.232 45.8007,-227.519 51.1315,-205.006"/>
<polygon fill="midnightblue" stroke="midnightblue" points="54.5821,-205.631 53.5724,-195.085 47.7848,-203.959 54.5821,-205.631"/>
</g>
<!-- Node11 -->
<g id="node11" class="node"><title>Node11</title>
<g id="a_node11"><a xlink:href="rc__window_8h.html" target="_top" xlink:title="rc_window.h">
<polygon fill="white" stroke="black" points="299.483,-419 299.483,-439 370.517,-439 370.517,-419 299.483,-419"/>
<text text-anchor="middle" x="335" y="-425" font-family="Helvetica,sans-Serif" font-size="10.00">rc_window.h</text>
</a>
</g>
</g>
<!-- Node1&#45;&gt;Node11 -->
<g id="edge10" class="edge"><title>Node1&#45;&gt;Node11</title>
<path fill="none" stroke="midnightblue" d="M222.069,-476.992C247.049,-466.597 279.967,-452.899 303.814,-442.977"/>
<polygon fill="midnightblue" stroke="midnightblue" points="305.222,-446.182 313.11,-439.109 302.532,-439.719 305.222,-446.182"/>
</g>
<!-- Node3 -->
<g id="node3" class="node"><title>Node3</title>
<g id="a_node3"><a xlink:href="rc__types_8h.html" target="_top" xlink:title="rc_types.h">
<polygon fill="white" stroke="black" points="222.934,-117 222.934,-137 285.066,-137 285.066,-117 222.934,-117"/>
<text text-anchor="middle" x="254" y="-123" font-family="Helvetica,sans-Serif" font-size="10.00">rc_types.h</text>
</a>
</g>
</g>
<!-- Node2&#45;&gt;Node3 -->
<g id="edge2" class="edge"><title>Node2&#45;&gt;Node3</title>
<path fill="none" stroke="midnightblue" d="M86.5036,-175.373C120.46,-165.769 175.504,-150.201 213.158,-139.551"/>
<polygon fill="midnightblue" stroke="midnightblue" points="214.138,-142.911 222.808,-136.822 212.233,-136.176 214.138,-142.911"/>
</g>
<!-- Node8 -->
<g id="node8" class="node"><title>Node8</title>
<g id="a_node8"><a xlink:href="rc__limits_8h.html" target="_top" xlink:title="rc_limits.h">
<polygon fill="white" stroke="black" points="60.4976,-117 60.4976,-137 121.502,-137 121.502,-117 60.4976,-117"/>
<text text-anchor="middle" x="91" y="-123" font-family="Helvetica,sans-Serif" font-size="10.00">rc_limits.h</text>
</a>
</g>
</g>
<!-- Node2&#45;&gt;Node8 -->
<g id="edge7" class="edge"><title>Node2&#45;&gt;Node8</title>
<path fill="none" stroke="midnightblue" d="M61.7795,-174.753C66.7233,-166.843 73.9767,-155.237 80.0198,-145.568"/>
<polygon fill="midnightblue" stroke="midnightblue" points="82.996,-147.41 85.328,-137.075 77.06,-143.7 82.996,-147.41"/>
</g>
<!-- Node10 -->
<g id="node10" class="node"><title>Node10</title>
<polygon fill="white" stroke="#bfbfbf" points="-0.615723,-117 -0.615723,-137 42.6157,-137 42.6157,-117 -0.615723,-117"/>
<text text-anchor="middle" x="21" y="-123" font-family="Helvetica,sans-Serif" font-size="10.00">cmath</text>
</g>
<!-- Node2&#45;&gt;Node10 -->
<g id="edge9" class="edge"><title>Node2&#45;&gt;Node10</title>
<path fill="none" stroke="midnightblue" d="M50.2205,-174.753C45.2767,-166.843 38.0233,-155.237 31.9802,-145.568"/>
<polygon fill="midnightblue" stroke="midnightblue" points="34.94,-143.7 26.672,-137.075 29.004,-147.41 34.94,-143.7"/>
</g>
<!-- Node4 -->
<g id="node4" class="node"><title>Node4</title>
<polygon fill="white" stroke="#bfbfbf" points="169.773,-59 169.773,-79 210.227,-79 210.227,-59 169.773,-59"/>
<text text-anchor="middle" x="190" y="-65" font-family="Helvetica,sans-Serif" font-size="10.00">string</text>
</g>
<!-- Node3&#45;&gt;Node4 -->
<g id="edge3" class="edge"><title>Node3&#45;&gt;Node4</title>
<path fill="none" stroke="midnightblue" d="M243.432,-116.753C233.832,-108.353 219.471,-95.7874 208.054,-85.7976"/>
<polygon fill="midnightblue" stroke="midnightblue" points="210.202,-83.0262 200.372,-79.0752 205.593,-88.2943 210.202,-83.0262"/>
</g>
<!-- Node5 -->
<g id="node5" class="node"><title>Node5</title>
<polygon fill="white" stroke="#bfbfbf" points="228.214,-59 228.214,-79 279.786,-79 279.786,-59 228.214,-59"/>
<text text-anchor="middle" x="254" y="-65" font-family="Helvetica,sans-Serif" font-size="10.00">assert.h</text>
</g>
<!-- Node3&#45;&gt;Node5 -->
<g id="edge4" class="edge"><title>Node3&#45;&gt;Node5</title>
<path fill="none" stroke="midnightblue" d="M254,-116.753C254,-109.25 254,-98.4238 254,-89.0781"/>
<polygon fill="midnightblue" stroke="midnightblue" points="257.5,-89.0752 254,-79.0752 250.5,-89.0752 257.5,-89.0752"/>
</g>
<!-- Node6 -->
<g id="node6" class="node"><title>Node6</title>
<g id="a_node6"><a xlink:href="rc__platform_8h.html" target="_top" xlink:title="rc_platform.h">
<polygon fill="white" stroke="black" points="298.823,-59 298.823,-79 373.177,-79 373.177,-59 298.823,-59"/>
<text text-anchor="middle" x="336" y="-65" font-family="Helvetica,sans-Serif" font-size="10.00">rc_platform.h</text>
</a>
</g>
</g>
<!-- Node3&#45;&gt;Node6 -->
<g id="edge5" class="edge"><title>Node3&#45;&gt;Node6</title>
<path fill="none" stroke="midnightblue" d="M267.541,-116.753C280.198,-108.109 299.317,-95.0518 314.136,-84.9314"/>
<polygon fill="midnightblue" stroke="midnightblue" points="316.427,-87.6052 322.711,-79.0752 312.479,-81.8245 316.427,-87.6052"/>
</g>
<!-- Node7 -->
<g id="node7" class="node"><title>Node7</title>
<polygon fill="white" stroke="#bfbfbf" points="263.796,-1 263.796,-21 408.204,-21 408.204,-1 263.796,-1"/>
<text text-anchor="middle" x="336" y="-7" font-family="Helvetica,sans-Serif" font-size="10.00">architecture/i386/alignment.h</text>
</g>
<!-- Node6&#45;&gt;Node7 -->
<g id="edge6" class="edge"><title>Node6&#45;&gt;Node7</title>
<path fill="none" stroke="midnightblue" d="M336,-58.7527C336,-51.2504 336,-40.4238 336,-31.0781"/>
<polygon fill="midnightblue" stroke="midnightblue" points="339.5,-31.0752 336,-21.0752 332.5,-31.0752 339.5,-31.0752"/>
</g>
<!-- Node9 -->
<g id="node9" class="node"><title>Node9</title>
<polygon fill="white" stroke="#bfbfbf" points="67.4434,-59 67.4434,-79 114.557,-79 114.557,-59 67.4434,-59"/>
<text text-anchor="middle" x="91" y="-65" font-family="Helvetica,sans-Serif" font-size="10.00">limits.h</text>
</g>
<!-- Node8&#45;&gt;Node9 -->
<g id="edge8" class="edge"><title>Node8&#45;&gt;Node9</title>
<path fill="none" stroke="midnightblue" d="M91,-116.753C91,-109.25 91,-98.4238 91,-89.0781"/>
<polygon fill="midnightblue" stroke="midnightblue" points="94.5001,-89.0752 91,-79.0752 87.5001,-89.0752 94.5001,-89.0752"/>
</g>
<!-- Node12 -->
<g id="node12" class="node"><title>Node12</title>
<g id="a_node12"><a xlink:href="rc__framebuf_8h.html" target="_top" xlink:title="rc_framebuf.h">
<polygon fill="white" stroke="black" points="613.153,-233 613.153,-253 690.847,-253 690.847,-233 613.153,-233"/>
<text text-anchor="middle" x="652" y="-239" font-family="Helvetica,sans-Serif" font-size="10.00">rc_framebuf.h</text>
</a>
</g>
</g>
<!-- Node11&#45;&gt;Node12 -->
<g id="edge11" class="edge"><title>Node11&#45;&gt;Node12</title>
<path fill="none" stroke="midnightblue" d="M370.628,-426.029C434.198,-421.837 563.732,-410.023 598,-382 634.732,-351.962 646.566,-293.576 650.311,-263.28"/>
<polygon fill="midnightblue" stroke="midnightblue" points="653.81,-263.476 651.386,-253.162 646.849,-262.737 653.81,-263.476"/>
</g>
<!-- Node20 -->
<g id="node20" class="node"><title>Node20</title>
<g id="a_node20"><a xlink:href="rc__rect_8h.html" target="_top" xlink:title="rc_rect.h">
<polygon fill="white" stroke="black" points="132.549,-355 132.549,-375 187.451,-375 187.451,-355 132.549,-355"/>
<text text-anchor="middle" x="160" y="-361" font-family="Helvetica,sans-Serif" font-size="10.00">rc_rect.h</text>
</a>
</g>
</g>
<!-- Node11&#45;&gt;Node20 -->
<g id="edge22" class="edge"><title>Node11&#45;&gt;Node20</title>
<path fill="none" stroke="midnightblue" d="M304.872,-418.972C276.511,-410.253 232.986,-396.299 196,-382 193.739,-381.126 191.415,-380.187 189.087,-379.219"/>
<polygon fill="midnightblue" stroke="midnightblue" points="190.228,-375.899 179.659,-375.157 187.458,-382.328 190.228,-375.899"/>
</g>
<!-- Node28 -->
<g id="node28" class="node"><title>Node28</title>
<polygon fill="white" stroke="#bfbfbf" points="205.49,-355 205.49,-375 256.51,-375 256.51,-355 205.49,-355"/>
<text text-anchor="middle" x="231" y="-361" font-family="Helvetica,sans-Serif" font-size="10.00">iomanip</text>
</g>
<!-- Node11&#45;&gt;Node28 -->
<g id="edge42" class="edge"><title>Node11&#45;&gt;Node28</title>
<path fill="none" stroke="midnightblue" d="M319.654,-418.852C302.68,-408.732 275.103,-392.292 255.209,-380.432"/>
<polygon fill="midnightblue" stroke="midnightblue" points="256.79,-377.3 246.409,-375.186 253.206,-383.313 256.79,-377.3"/>
</g>
<!-- Node29 -->
<g id="node29" class="node"><title>Node29</title>
<polygon fill="white" stroke="#bfbfbf" points="274.195,-355 274.195,-375 395.805,-375 395.805,-355 274.195,-355"/>
<text text-anchor="middle" x="335" y="-361" font-family="Helvetica,sans-Serif" font-size="10.00">Accelerate/Accelerate.h</text>
</g>
<!-- Node11&#45;&gt;Node29 -->
<g id="edge43" class="edge"><title>Node11&#45;&gt;Node29</title>
<path fill="none" stroke="midnightblue" d="M335,-418.852C335,-410.06 335,-396.498 335,-385.313"/>
<polygon fill="midnightblue" stroke="midnightblue" points="338.5,-385.186 335,-375.186 331.5,-385.186 338.5,-385.186"/>
</g>
<!-- Node30 -->
<g id="node30" class="node"><title>Node30</title>
<polygon fill="white" stroke="#bfbfbf" points="413.808,-349 413.808,-381 528.192,-381 528.192,-349 413.808,-349"/>
<text text-anchor="start" x="421.808" y="-367" font-family="Helvetica,sans-Serif" font-size="10.00">ApplicationServices</text>
<text text-anchor="middle" x="471" y="-355" font-family="Helvetica,sans-Serif" font-size="10.00">/ApplicationServices.h</text>
</g>
<!-- Node11&#45;&gt;Node30 -->
<g id="edge44" class="edge"><title>Node11&#45;&gt;Node30</title>
<path fill="none" stroke="midnightblue" d="M354.776,-418.985C374.112,-410.17 404.166,-396.468 428.868,-385.207"/>
<polygon fill="midnightblue" stroke="midnightblue" points="430.393,-388.359 438.04,-381.026 427.489,-381.989 430.393,-388.359"/>
</g>
<!-- Node31 -->
<g id="node31" class="node"><title>Node31</title>
<polygon fill="white" stroke="#bfbfbf" points="546.384,-355 546.384,-375 589.616,-375 589.616,-355 546.384,-355"/>
<text text-anchor="middle" x="568" y="-361" font-family="Helvetica,sans-Serif" font-size="10.00">vector</text>
</g>
<!-- Node11&#45;&gt;Node31 -->
<g id="edge45" class="edge"><title>Node11&#45;&gt;Node31</title>
<path fill="none" stroke="midnightblue" d="M370.811,-422.658C411.809,-415.904 480.58,-402.607 537,-382 538.92,-381.299 540.873,-380.504 542.816,-379.653"/>
<polygon fill="midnightblue" stroke="midnightblue" points="544.772,-382.596 552.259,-375.099 541.731,-376.291 544.772,-382.596"/>
</g>
<!-- Node13 -->
<g id="node13" class="node"><title>Node13</title>
<g id="a_node13"><a xlink:href="rc__timestamp_8h.html" target="_top" xlink:title="rc_timestamp.h">
<polygon fill="white" stroke="black" points="621.823,-175 621.823,-195 706.177,-195 706.177,-175 621.823,-175"/>
<text text-anchor="middle" x="664" y="-181" font-family="Helvetica,sans-Serif" font-size="10.00">rc_timestamp.h</text>
</a>
</g>
</g>
<!-- Node12&#45;&gt;Node13 -->
<g id="edge12" class="edge"><title>Node12&#45;&gt;Node13</title>
<path fill="none" stroke="midnightblue" d="M653.982,-232.753C655.589,-225.25 657.909,-214.424 659.912,-205.078"/>
<polygon fill="midnightblue" stroke="midnightblue" points="663.382,-205.587 662.055,-195.075 656.538,-204.12 663.382,-205.587"/>
</g>
<!-- Node16 -->
<g id="node16" class="node"><title>Node16</title>
<g id="a_node16"><a xlink:href="rc__thread_8h.html" target="_top" xlink:title="rc_thread.h">
<polygon fill="white" stroke="black" points="537.707,-175 537.707,-195 604.293,-195 604.293,-175 537.707,-175"/>
<text text-anchor="middle" x="571" y="-181" font-family="Helvetica,sans-Serif" font-size="10.00">rc_thread.h</text>
</a>
</g>
</g>
<!-- Node12&#45;&gt;Node16 -->
<g id="edge16" class="edge"><title>Node12&#45;&gt;Node16</title>
<path fill="none" stroke="midnightblue" d="M638.624,-232.753C626.122,-224.109 607.236,-211.052 592.597,-200.931"/>
<polygon fill="midnightblue" stroke="midnightblue" points="594.343,-197.883 584.127,-195.075 590.362,-203.641 594.343,-197.883"/>
</g>
<!-- Node17 -->
<g id="node17" class="node"><title>Node17</title>
<polygon fill="white" stroke="#bfbfbf" points="660.921,-117 660.921,-137 753.079,-137 753.079,-117 660.921,-117"/>
<text text-anchor="middle" x="707" y="-123" font-family="Helvetica,sans-Serif" font-size="10.00">boost/atomic.hpp</text>
</g>
<!-- Node12&#45;&gt;Node17 -->
<g id="edge21" class="edge"><title>Node12&#45;&gt;Node17</title>
<path fill="none" stroke="midnightblue" d="M673.171,-232.958C687.859,-225.423 706.29,-213.145 715,-196 722.723,-180.799 719.28,-161.284 714.759,-147.062"/>
<polygon fill="midnightblue" stroke="midnightblue" points="717.95,-145.592 711.259,-137.377 711.366,-147.972 717.95,-145.592"/>
</g>
<!-- Node18 -->
<g id="node18" class="node"><title>Node18</title>
<g id="a_node18"><a xlink:href="rc__macro_8h.html" target="_top" xlink:title="rc_macro.h">
<polygon fill="white" stroke="black" points="453.993,-175 453.993,-195 520.007,-195 520.007,-175 453.993,-175"/>
<text text-anchor="middle" x="487" y="-181" font-family="Helvetica,sans-Serif" font-size="10.00">rc_macro.h</text>
</a>
</g>
</g>
<!-- Node12&#45;&gt;Node18 -->
<g id="edge19" class="edge"><title>Node12&#45;&gt;Node18</title>
<path fill="none" stroke="midnightblue" d="M625.123,-232.878C597.354,-223.453 553.848,-208.688 523.093,-198.25"/>
<polygon fill="midnightblue" stroke="midnightblue" points="524.187,-194.925 513.592,-195.025 521.937,-201.554 524.187,-194.925"/>
</g>
<!-- Node19 -->
<g id="node19" class="node"><title>Node19</title>
<polygon fill="white" stroke="#bfbfbf" points="761.688,-175 761.688,-195 878.312,-195 878.312,-175 761.688,-175"/>
<text text-anchor="middle" x="820" y="-181" font-family="Helvetica,sans-Serif" font-size="10.00">boost/intrusive_ptr.hpp</text>
</g>
<!-- Node12&#45;&gt;Node19 -->
<g id="edge20" class="edge"><title>Node12&#45;&gt;Node19</title>
<path fill="none" stroke="midnightblue" d="M679.366,-232.878C707.64,-223.453 751.937,-208.688 783.25,-198.25"/>
<polygon fill="midnightblue" stroke="midnightblue" points="784.544,-201.508 792.924,-195.025 782.33,-194.867 784.544,-201.508"/>
</g>
<!-- Node13&#45;&gt;Node3 -->
<g id="edge13" class="edge"><title>Node13&#45;&gt;Node3</title>
<path fill="none" stroke="midnightblue" d="M621.738,-175.49C618.785,-174.964 615.85,-174.462 613,-174 498.482,-155.457 362.423,-139.735 295.454,-132.409"/>
<polygon fill="midnightblue" stroke="midnightblue" points="295.633,-128.908 285.314,-131.307 294.877,-135.867 295.633,-128.908"/>
</g>
<!-- Node14 -->
<g id="node14" class="node"><title>Node14</title>
<polygon fill="white" stroke="#bfbfbf" points="562.828,-117 562.828,-137 617.172,-137 617.172,-117 562.828,-117"/>
<text text-anchor="middle" x="590" y="-123" font-family="Helvetica,sans-Serif" font-size="10.00">iostream</text>
</g>
<!-- Node13&#45;&gt;Node14 -->
<g id="edge14" class="edge"><title>Node13&#45;&gt;Node14</title>
<path fill="none" stroke="midnightblue" d="M651.78,-174.753C640.466,-166.19 623.429,-153.298 610.11,-143.219"/>
<polygon fill="midnightblue" stroke="midnightblue" points="612.078,-140.319 601.992,-137.075 607.854,-145.901 612.078,-140.319"/>
</g>
<!-- Node15 -->
<g id="node15" class="node"><title>Node15</title>
<polygon fill="white" stroke="#bfbfbf" points="827.096,-117 827.096,-137 870.904,-137 870.904,-117 827.096,-117"/>
<text text-anchor="middle" x="849" y="-123" font-family="Helvetica,sans-Serif" font-size="10.00">deque</text>
</g>
<!-- Node13&#45;&gt;Node15 -->
<g id="edge15" class="edge"><title>Node13&#45;&gt;Node15</title>
<path fill="none" stroke="midnightblue" d="M694.135,-174.878C728.056,-164.61 782.919,-148.003 817.421,-137.559"/>
<polygon fill="midnightblue" stroke="midnightblue" points="818.446,-140.906 827.003,-134.659 816.418,-134.206 818.446,-140.906"/>
</g>
<!-- Node16&#45;&gt;Node3 -->
<g id="edge17" class="edge"><title>Node16&#45;&gt;Node3</title>
<path fill="none" stroke="midnightblue" d="M537.575,-175.825C534.68,-175.183 531.792,-174.565 529,-174 446.714,-157.342 349.701,-142.142 295.684,-134.07"/>
<polygon fill="midnightblue" stroke="midnightblue" points="295.877,-130.56 285.471,-132.552 294.848,-137.484 295.877,-130.56"/>
</g>
<!-- Node16&#45;&gt;Node17 -->
<g id="edge18" class="edge"><title>Node16&#45;&gt;Node17</title>
<path fill="none" stroke="midnightblue" d="M593.153,-174.878C615.48,-165.685 650.148,-151.409 675.365,-141.026"/>
<polygon fill="midnightblue" stroke="midnightblue" points="676.942,-144.162 684.856,-137.118 674.277,-137.689 676.942,-144.162"/>
</g>
<!-- Node20&#45;&gt;Node3 -->
<g id="edge23" class="edge"><title>Node20&#45;&gt;Node3</title>
<path fill="none" stroke="midnightblue" d="M156.924,-354.763C147.803,-325.551 123.776,-233.59 161,-174 172.511,-155.572 193.821,-144.298 213.141,-137.527"/>
<polygon fill="midnightblue" stroke="midnightblue" points="214.247,-140.847 222.706,-134.467 212.115,-134.18 214.247,-140.847"/>
</g>
<!-- Node21 -->
<g id="node21" class="node"><title>Node21</title>
<g id="a_node21"><a xlink:href="rc__rectangle_8h.html" target="_top" xlink:title="rc_rectangle.h">
<polygon fill="white" stroke="black" points="209.315,-291 209.315,-311 288.685,-311 288.685,-291 209.315,-291"/>
<text text-anchor="middle" x="249" y="-297" font-family="Helvetica,sans-Serif" font-size="10.00">rc_rectangle.h</text>
</a>
</g>
</g>
<!-- Node20&#45;&gt;Node21 -->
<g id="edge24" class="edge"><title>Node20&#45;&gt;Node21</title>
<path fill="none" stroke="midnightblue" d="M173.132,-354.852C187.461,-344.87 210.619,-328.737 227.586,-316.918"/>
<polygon fill="midnightblue" stroke="midnightblue" points="229.609,-319.774 235.814,-311.186 225.608,-314.03 229.609,-319.774"/>
</g>
<!-- Node21&#45;&gt;Node2 -->
<g id="edge39" class="edge"><title>Node21&#45;&gt;Node2</title>
<path fill="none" stroke="midnightblue" d="M220.518,-290.859C197.407,-282.825 164.439,-269.942 138,-254 113.454,-239.199 88.574,-217.396 72.7611,-202.494"/>
<polygon fill="midnightblue" stroke="midnightblue" points="75.0082,-199.8 65.3683,-195.404 70.163,-204.852 75.0082,-199.8"/>
</g>
<!-- Node21&#45;&gt;Node3 -->
<g id="edge27" class="edge"><title>Node21&#45;&gt;Node3</title>
<path fill="none" stroke="midnightblue" d="M235.686,-290.914C207.181,-270.3 144.883,-218.334 171,-174 180.297,-158.218 197.173,-147.468 213.293,-140.356"/>
<polygon fill="midnightblue" stroke="midnightblue" points="214.675,-143.573 222.633,-136.578 212.05,-137.083 214.675,-143.573"/>
</g>
<!-- Node21&#45;&gt;Node15 -->
<g id="edge41" class="edge"><title>Node21&#45;&gt;Node15</title>
<path fill="none" stroke="midnightblue" d="M289.126,-300.323C417.774,-300.377 815.695,-292.619 887,-196 899.378,-179.228 883.075,-158.002 868.142,-143.765"/>
<polygon fill="midnightblue" stroke="midnightblue" points="870.398,-141.088 860.616,-137.018 865.725,-146.3 870.398,-141.088"/>
</g>
<!-- Node22 -->
<g id="node22" class="node"><title>Node22</title>
<g id="a_node22"><a xlink:href="rc__pair_8h.html" target="_top" xlink:title="rc_pair.h">
<polygon fill="white" stroke="black" points="281.82,-175 281.82,-195 336.18,-195 336.18,-175 281.82,-175"/>
<text text-anchor="middle" x="309" y="-181" font-family="Helvetica,sans-Serif" font-size="10.00">rc_pair.h</text>
</a>
</g>
</g>
<!-- Node21&#45;&gt;Node22 -->
<g id="edge25" class="edge"><title>Node21&#45;&gt;Node22</title>
<path fill="none" stroke="midnightblue" d="M261.905,-290.964C272.763,-282.641 287.794,-269.292 296,-254 304.072,-238.958 307.189,-219.675 308.364,-205.488"/>
<polygon fill="midnightblue" stroke="midnightblue" points="311.865,-205.566 308.948,-195.381 304.877,-205.162 311.865,-205.566"/>
</g>
<!-- Node23 -->
<g id="node23" class="node"><title>Node23</title>
<g id="a_node23"><a xlink:href="rc__vector2d_8h.html" target="_top" xlink:title="rc_vector2d.h">
<polygon fill="white" stroke="black" points="210.707,-233 210.707,-253 287.293,-253 287.293,-233 210.707,-233"/>
<text text-anchor="middle" x="249" y="-239" font-family="Helvetica,sans-Serif" font-size="10.00">rc_vector2d.h</text>
</a>
</g>
</g>
<!-- Node21&#45;&gt;Node23 -->
<g id="edge28" class="edge"><title>Node21&#45;&gt;Node23</title>
<path fill="none" stroke="midnightblue" d="M249,-290.753C249,-283.25 249,-272.424 249,-263.078"/>
<polygon fill="midnightblue" stroke="midnightblue" points="252.5,-263.075 249,-253.075 245.5,-263.075 252.5,-263.075"/>
</g>
<!-- Node25 -->
<g id="node25" class="node"><title>Node25</title>
<g id="a_node25"><a xlink:href="rc__exception_8h.html" target="_top" xlink:title="rc_exception.h">
<polygon fill="white" stroke="black" points="354.48,-175 354.48,-195 435.52,-195 435.52,-175 354.48,-175"/>
<text text-anchor="middle" x="395" y="-181" font-family="Helvetica,sans-Serif" font-size="10.00">rc_exception.h</text>
</a>
</g>
</g>
<!-- Node21&#45;&gt;Node25 -->
<g id="edge40" class="edge"><title>Node21&#45;&gt;Node25</title>
<path fill="none" stroke="midnightblue" d="M262.428,-290.975C275.737,-281.92 296.596,-267.427 314,-254 336.283,-236.809 360.921,-215.826 377.105,-201.755"/>
<polygon fill="midnightblue" stroke="midnightblue" points="379.513,-204.299 384.741,-195.083 374.907,-199.027 379.513,-204.299"/>
</g>
<!-- Node22&#45;&gt;Node3 -->
<g id="edge26" class="edge"><title>Node22&#45;&gt;Node3</title>
<path fill="none" stroke="midnightblue" d="M299.918,-174.753C291.829,-166.516 279.805,-154.274 270.09,-144.382"/>
<polygon fill="midnightblue" stroke="midnightblue" points="272.417,-141.757 262.913,-137.075 267.423,-146.662 272.417,-141.757"/>
</g>
<!-- Node23&#45;&gt;Node2 -->
<g id="edge37" class="edge"><title>Node23&#45;&gt;Node2</title>
<path fill="none" stroke="midnightblue" d="M217.562,-232.878C184.463,-223.274 132.251,-208.125 96.1844,-197.66"/>
<polygon fill="midnightblue" stroke="midnightblue" points="97.0483,-194.266 86.4691,-194.841 95.0977,-200.989 97.0483,-194.266"/>
</g>
<!-- Node23&#45;&gt;Node3 -->
<g id="edge30" class="edge"><title>Node23&#45;&gt;Node3</title>
<path fill="none" stroke="midnightblue" d="M249.409,-232.671C250.226,-214.041 252.075,-171.898 253.16,-147.143"/>
<polygon fill="midnightblue" stroke="midnightblue" points="256.658,-147.283 253.599,-137.139 249.664,-146.976 256.658,-147.283"/>
</g>
<!-- Node23&#45;&gt;Node18 -->
<g id="edge38" class="edge"><title>Node23&#45;&gt;Node18</title>
<path fill="none" stroke="midnightblue" d="M287.503,-232.94C330.344,-222.86 399.388,-206.615 443.975,-196.124"/>
<polygon fill="midnightblue" stroke="midnightblue" points="444.993,-199.48 453.925,-193.782 443.389,-192.666 444.993,-199.48"/>
</g>
<!-- Node23&#45;&gt;Node22 -->
<g id="edge36" class="edge"><title>Node23&#45;&gt;Node22</title>
<path fill="none" stroke="midnightblue" d="M258.908,-232.753C267.82,-224.435 281.11,-212.031 291.762,-202.089"/>
<polygon fill="midnightblue" stroke="midnightblue" points="294.354,-204.457 299.277,-195.075 289.578,-199.34 294.354,-204.457"/>
</g>
<!-- Node24 -->
<g id="node24" class="node"><title>Node24</title>
<polygon fill="white" stroke="#bfbfbf" points="179.714,-175 179.714,-195 226.286,-195 226.286,-175 179.714,-175"/>
<text text-anchor="middle" x="203" y="-181" font-family="Helvetica,sans-Serif" font-size="10.00">math.h</text>
</g>
<!-- Node23&#45;&gt;Node24 -->
<g id="edge29" class="edge"><title>Node23&#45;&gt;Node24</title>
<path fill="none" stroke="midnightblue" d="M241.404,-232.753C234.773,-224.68 224.979,-212.757 216.942,-202.973"/>
<polygon fill="midnightblue" stroke="midnightblue" points="219.507,-200.581 210.455,-195.075 214.098,-205.024 219.507,-200.581"/>
</g>
<!-- Node23&#45;&gt;Node25 -->
<g id="edge31" class="edge"><title>Node23&#45;&gt;Node25</title>
<path fill="none" stroke="midnightblue" d="M272.782,-232.878C296.962,-223.603 334.628,-209.156 361.755,-198.752"/>
<polygon fill="midnightblue" stroke="midnightblue" points="363.145,-201.967 371.228,-195.118 360.638,-195.432 363.145,-201.967"/>
</g>
<!-- Node25&#45;&gt;Node6 -->
<g id="edge32" class="edge"><title>Node25&#45;&gt;Node6</title>
<path fill="none" stroke="midnightblue" d="M385.005,-174.67C376.213,-165.955 363.654,-152.191 356,-138 347.703,-122.617 342.456,-103.372 339.429,-89.2854"/>
<polygon fill="midnightblue" stroke="midnightblue" points="342.823,-88.4044 337.461,-79.2665 335.954,-89.7535 342.823,-88.4044"/>
</g>
<!-- Node25&#45;&gt;Node14 -->
<g id="edge34" class="edge"><title>Node25&#45;&gt;Node14</title>
<path fill="none" stroke="midnightblue" d="M426.764,-174.878C461.29,-164.963 516.402,-149.136 552.894,-138.656"/>
<polygon fill="midnightblue" stroke="midnightblue" points="554.014,-141.976 562.66,-135.852 552.082,-135.248 554.014,-141.976"/>
</g>
<!-- Node26 -->
<g id="node26" class="node"><title>Node26</title>
<polygon fill="white" stroke="#bfbfbf" points="364.596,-117 364.596,-137 423.404,-137 423.404,-117 364.596,-117"/>
<text text-anchor="middle" x="394" y="-123" font-family="Helvetica,sans-Serif" font-size="10.00">exception</text>
</g>
<!-- Node25&#45;&gt;Node26 -->
<g id="edge33" class="edge"><title>Node25&#45;&gt;Node26</title>
<path fill="none" stroke="midnightblue" d="M394.835,-174.753C394.701,-167.25 394.508,-156.424 394.341,-147.078"/>
<polygon fill="midnightblue" stroke="midnightblue" points="397.84,-147.011 394.162,-137.075 390.841,-147.136 397.84,-147.011"/>
</g>
<!-- Node27 -->
<g id="node27" class="node"><title>Node27</title>
<polygon fill="white" stroke="#bfbfbf" points="441.219,-117 441.219,-137 492.781,-137 492.781,-117 441.219,-117"/>
<text text-anchor="middle" x="467" y="-123" font-family="Helvetica,sans-Serif" font-size="10.00">sstream</text>
</g>
<!-- Node25&#45;&gt;Node27 -->
<g id="edge35" class="edge"><title>Node25&#45;&gt;Node27</title>
<path fill="none" stroke="midnightblue" d="M406.889,-174.753C417.898,-166.19 434.474,-153.298 447.433,-143.219"/>
<polygon fill="midnightblue" stroke="midnightblue" points="449.587,-145.977 455.332,-137.075 445.29,-140.452 449.587,-145.977"/>
</g>
</g>
</svg>
        <g id="navigator" transform="translate(0 0)" fill="#404254">
                <rect fill="#f2f5e9" fill-opacity="0.5" stroke="#606060" stroke-width=".5" x="0" y="0" width="60" height="60"/>
                <use id="zoomplus" xlink:href="#zoomPlus" x="17" y="9" onmousedown="handleZoom(evt,'in')"/>
                <use id="zoomminus" xlink:href="#zoomMin" x="42" y="9" onmousedown="handleZoom(evt,'out')"/>
                <use id="reset" xlink:href="#resetDef" x="30" y="36" onmousedown="handleReset()"/>
                <g id="arrowUp" xlink:href="#dirArrow" transform="translate(30 24)" onmousedown="handlePan(0,-1)">
                  <use xlink:href="#rim" fill="#404040">
                        <set attributeName="fill" to="#808080" begin="arrowUp.mouseover" end="arrowUp.mouseout"/>
                  </use>
                  <path fill="none" stroke="white" stroke-width="1.5" d="M0,-3.0v7 M-2.5,-0.5L0,-3.0L2.5,-0.5"/>
                </g>
                <g id="arrowRight" xlink:href="#dirArrow" transform="rotate(90) translate(36 -43)" onmousedown="handlePan(1,0)">
                  <use xlink:href="#rim" fill="#404040">
                        <set attributeName="fill" to="#808080" begin="arrowRight.mouseover" end="arrowRight.mouseout"/>
                  </use>
                  <path fill="none" stroke="white" stroke-width="1.5" d="M0,-3.0v7 M-2.5,-0.5L0,-3.0L2.5,-0.5"/>
                </g>
                <g id="arrowDown" xlink:href="#dirArrow" transform="rotate(180) translate(-30 -48)" onmousedown="handlePan(0,1)">
                  <use xlink:href="#rim" fill="#404040">
                        <set attributeName="fill" to="#808080" begin="arrowDown.mouseover" end="arrowDown.mouseout"/>
                  </use>
                  <path fill="none" stroke="white" stroke-width="1.5" d="M0,-3.0v7 M-2.5,-0.5L0,-3.0L2.5,-0.5"/>
                </g>
                <g id="arrowLeft" xlink:href="#dirArrow" transform="rotate(270) translate(-36 17)" onmousedown="handlePan(-1,0)">
                  <use xlink:href="#rim" fill="#404040">
                        <set attributeName="fill" to="#808080" begin="arrowLeft.mouseover" end="arrowLeft.mouseout"/>
                  </use>
                  <path fill="none" stroke="white" stroke-width="1.5" d="M0,-3.0v7 M-2.5,-0.5L0,-3.0L2.5,-0.5"/>
                </g>
        </g>
        <svg viewBox="0 0 15 15" width="100%" height="30px" preserveAspectRatio="xMaxYMin meet">
         <g id="arrow_out" transform="scale(0.3 0.3)">
          <a xlink:href="rc__cubic_8cpp__incl_org.svg" target="_base">
           <rect id="button" ry="5" rx="5" y="6" x="6" height="38" width="38"
                fill="#f2f5e9" fill-opacity="0.5" stroke="#606060" stroke-width="1.0"/>
           <path id="arrow"
             d="M 11.500037,31.436501 C 11.940474,20.09759 22.043105,11.32322 32.158766,21.979434 L 37.068811,17.246167 C 37.068811,17.246167 37.088388,32 37.088388,32 L 22.160133,31.978069 C 22.160133,31.978069 26.997745,27.140456 26.997745,27.140456 C 18.528582,18.264221 13.291696,25.230495 11.500037,31.436501 z"
             style="fill:#404040;"/>
          </a>
         </g>
        </svg>
</svg>
