<?xml version="1.0" encoding="UTF-8" standalone="no"?>
<!DOCTYPE svg PUBLIC "-//W3C//DTD SVG 1.1//EN"
 "http://www.w3.org/Graphics/SVG/1.1/DTD/svg11.dtd">
<!-- Generated by graphviz version 2.32.0 (20130916.1925)
 -->
<!-- Title: include/visUI/rc_trackrender.h Pages: 1 -->
<svg width="323pt" height="88pt"
 viewBox="0.00 0.00 323.00 88.00" xmlns="http://www.w3.org/2000/svg" xmlns:xlink="http://www.w3.org/1999/xlink">
<g id="graph0" class="graph" transform="scale(1 1) rotate(0) translate(4 84)">
<title>include/visUI/rc_trackrender.h</title>
<polygon fill="white" stroke="white" points="-4,5 -4,-84 320,-84 320,5 -4,5"/>
<!-- Node1 -->
<g id="node1" class="node"><title>Node1</title>
<polygon fill="#bfbfbf" stroke="black" points="79.1357,-59 79.1357,-79 226.864,-79 226.864,-59 79.1357,-59"/>
<text text-anchor="middle" x="153" y="-65" font-family="Helvetica,sans-Serif" font-size="10.00">include/visUI/rc_trackrender.h</text>
</g>
<!-- Node2 -->
<g id="node2" class="node"><title>Node2</title>
<g id="a_node2"><a xlink:href="rc__timeline_8cpp.html" target="_top" xlink:title="src/visible/qt/rc_timeline.cpp">
<polygon fill="white" stroke="black" points="-0.521973,-1 -0.521973,-21 140.522,-21 140.522,-1 -0.521973,-1"/>
<text text-anchor="middle" x="70" y="-7" font-family="Helvetica,sans-Serif" font-size="10.00">src/visible/qt/rc_timeline.cpp</text>
</a>
</g>
</g>
<!-- Node1&#45;&gt;Node2 -->
<g id="edge1" class="edge"><title>Node1&#45;&gt;Node2</title>
<path fill="none" stroke="midnightblue" d="M130.994,-53.1528C115.877,-42.9534 96.2948,-29.7411 83.4507,-21.0752"/>
<polygon fill="midnightblue" stroke="midnightblue" points="129.047,-56.0611 139.294,-58.7527 132.962,-50.2583 129.047,-56.0611"/>
</g>
<!-- Node3 -->
<g id="node3" class="node"><title>Node3</title>
<g id="a_node3"><a xlink:href="rc__trackrender_8cpp.html" target="_top" xlink:title="src/visible/qt/rc_trackrender.cpp">
<polygon fill="white" stroke="black" points="158.692,-1 158.692,-21 315.308,-21 315.308,-1 158.692,-1"/>
<text text-anchor="middle" x="237" y="-7" font-family="Helvetica,sans-Serif" font-size="10.00">src/visible/qt/rc_trackrender.cpp</text>
</a>
</g>
</g>
<!-- Node1&#45;&gt;Node3 -->
<g id="edge2" class="edge"><title>Node1&#45;&gt;Node3</title>
<path fill="none" stroke="midnightblue" d="M175.271,-53.1528C190.57,-42.9534 210.388,-29.7411 223.387,-21.0752"/>
<polygon fill="midnightblue" stroke="midnightblue" points="173.25,-50.2935 166.871,-58.7527 177.133,-56.1179 173.25,-50.2935"/>
</g>
</g>
</svg>
