<?xml version="1.0" encoding="UTF-8" standalone="no"?>
<!DOCTYPE svg PUBLIC "-//W3C//DTD SVG 1.1//EN"
 "http://www.w3.org/Graphics/SVG/1.1/DTD/svg11.dtd">
<!-- Generated by graphviz version 2.32.0 (20130916.1925)
 -->
<!-- Title: src/visual/code/rc_affine.cpp Pages: 1 -->
<svg width="966pt" height="692pt"
 viewBox="0.00 0.00 966.33 692.00" xmlns="http://www.w3.org/2000/svg" xmlns:xlink="http://www.w3.org/1999/xlink">
<g id="graph0" class="graph" transform="scale(1 1) rotate(0) translate(4 688)">
<title>src/visual/code/rc_affine.cpp</title>
<polygon fill="white" stroke="white" points="-4,5 -4,-688 963.332,-688 963.332,5 -4,5"/>
<!-- Node1 -->
<g id="node1" class="node"><title>Node1</title>
<polygon fill="#bfbfbf" stroke="black" points="207.454,-651 207.454,-683 300.7,-683 300.7,-651 207.454,-651"/>
<text text-anchor="start" x="215.454" y="-669" font-family="Helvetica,sans-Serif" font-size="10.00">src/visual/code/rc</text>
<text text-anchor="middle" x="254.077" y="-657" font-family="Helvetica,sans-Serif" font-size="10.00">_affine.cpp</text>
</g>
<!-- Node2 -->
<g id="node2" class="node"><title>Node2</title>
<g id="a_node2"><a xlink:href="rc__affine_8h.html" target="_top" xlink:title="rc_affine.h">
<polygon fill="white" stroke="black" points="476.73,-593 476.73,-613 539.424,-613 539.424,-593 476.73,-593"/>
<text text-anchor="middle" x="508.077" y="-599" font-family="Helvetica,sans-Serif" font-size="10.00">rc_affine.h</text>
</a>
</g>
</g>
<!-- Node1&#45;&gt;Node2 -->
<g id="edge1" class="edge"><title>Node1&#45;&gt;Node2</title>
<path fill="none" stroke="midnightblue" d="M300.961,-654.556C348.536,-642.943 421.464,-625.142 466.884,-614.055"/>
<polygon fill="midnightblue" stroke="midnightblue" points="467.81,-617.432 476.695,-611.66 466.15,-610.632 467.81,-617.432"/>
</g>
<!-- Node19 -->
<g id="node19" class="node"><title>Node19</title>
<polygon fill="white" stroke="#bfbfbf" points="262.905,-117 262.905,-137 317.25,-137 317.25,-117 262.905,-117"/>
<text text-anchor="middle" x="290.077" y="-123" font-family="Helvetica,sans-Serif" font-size="10.00">iostream</text>
</g>
<!-- Node1&#45;&gt;Node19 -->
<g id="edge62" class="edge"><title>Node1&#45;&gt;Node19</title>
<path fill="none" stroke="midnightblue" d="M207.378,-664.25C134.275,-658.736 1.07729,-636.3 1.07729,-546 1.07729,-546 1.07729,-546 1.07729,-242 1.07729,-210.62 -3.23187,-195.009 20.0773,-174 53.6192,-143.768 186.004,-133.075 252.107,-129.569"/>
<polygon fill="midnightblue" stroke="midnightblue" points="252.689,-133.045 262.502,-129.049 252.339,-126.053 252.689,-133.045"/>
</g>
<!-- Node3 -->
<g id="node3" class="node"><title>Node3</title>
<g id="a_node3"><a xlink:href="rc__xforms_8h.html" target="_top" xlink:title="rc_xforms.h">
<polygon fill="white" stroke="black" points="745.962,-355 745.962,-375 814.193,-375 814.193,-355 745.962,-355"/>
<text text-anchor="middle" x="780.077" y="-361" font-family="Helvetica,sans-Serif" font-size="10.00">rc_xforms.h</text>
</a>
</g>
</g>
<!-- Node2&#45;&gt;Node3 -->
<g id="edge2" class="edge"><title>Node2&#45;&gt;Node3</title>
<path fill="none" stroke="midnightblue" d="M539.765,-594.78C585.824,-582.663 671,-553.881 719.077,-498 748.598,-463.687 766.69,-412.688 774.881,-385.208"/>
<polygon fill="midnightblue" stroke="midnightblue" points="778.331,-385.87 777.707,-375.294 771.6,-383.951 778.331,-385.87"/>
</g>
<!-- Node23 -->
<g id="node23" class="node"><title>Node23</title>
<g id="a_node23"><a xlink:href="rc__rect_8h.html" target="_top" xlink:title="rc_rect.h">
<polygon fill="white" stroke="black" points="513.627,-355 513.627,-375 568.528,-375 568.528,-355 513.627,-355"/>
<text text-anchor="middle" x="541.077" y="-361" font-family="Helvetica,sans-Serif" font-size="10.00">rc_rect.h</text>
</a>
</g>
</g>
<!-- Node2&#45;&gt;Node23 -->
<g id="edge27" class="edge"><title>Node2&#45;&gt;Node23</title>
<path fill="none" stroke="midnightblue" d="M509.371,-592.749C514.258,-557.798 531.66,-433.351 538.391,-385.209"/>
<polygon fill="midnightblue" stroke="midnightblue" points="541.874,-385.576 539.793,-375.188 534.941,-384.606 541.874,-385.576"/>
</g>
<!-- Node26 -->
<g id="node26" class="node"><title>Node26</title>
<polygon fill="white" stroke="#bfbfbf" points="134.272,-355 134.272,-375 255.882,-375 255.882,-355 134.272,-355"/>
<text text-anchor="middle" x="195.077" y="-361" font-family="Helvetica,sans-Serif" font-size="10.00">Accelerate/Accelerate.h</text>
</g>
<!-- Node2&#45;&gt;Node26 -->
<g id="edge36" class="edge"><title>Node2&#45;&gt;Node26</title>
<path fill="none" stroke="midnightblue" d="M495.807,-592.749C448.182,-556.839 275.26,-426.457 215.533,-381.424"/>
<polygon fill="midnightblue" stroke="midnightblue" points="217.354,-378.413 207.262,-375.188 213.14,-384.003 217.354,-378.413"/>
</g>
<!-- Node27 -->
<g id="node27" class="node"><title>Node27</title>
<g id="a_node27"><a xlink:href="rc__graphics_8h.html" target="_top" xlink:title="rc_graphics.h">
<polygon fill="white" stroke="black" points="546.063,-535 546.063,-555 622.092,-555 622.092,-535 546.063,-535"/>
<text text-anchor="middle" x="584.077" y="-541" font-family="Helvetica,sans-Serif" font-size="10.00">rc_graphics.h</text>
</a>
</g>
</g>
<!-- Node2&#45;&gt;Node27 -->
<g id="edge37" class="edge"><title>Node2&#45;&gt;Node27</title>
<path fill="none" stroke="midnightblue" d="M520.627,-592.753C532.248,-584.19 549.745,-571.298 563.423,-561.219"/>
<polygon fill="midnightblue" stroke="midnightblue" points="565.787,-563.825 571.761,-555.075 561.634,-558.19 565.787,-563.825"/>
</g>
<!-- Node4 -->
<g id="node4" class="node"><title>Node4</title>
<g id="a_node4"><a xlink:href="rc__math_8h.html" target="_top" xlink:title="rc_math.h">
<polygon fill="white" stroke="black" points="859.846,-175 859.846,-195 920.309,-195 920.309,-175 859.846,-175"/>
<text text-anchor="middle" x="890.077" y="-181" font-family="Helvetica,sans-Serif" font-size="10.00">rc_math.h</text>
</a>
</g>
</g>
<!-- Node3&#45;&gt;Node4 -->
<g id="edge3" class="edge"><title>Node3&#45;&gt;Node4</title>
<path fill="none" stroke="midnightblue" d="M811.011,-354.922C852.46,-340.897 924.357,-309.594 955.077,-254 967.087,-232.265 941.9,-212.361 919.466,-199.779"/>
<polygon fill="midnightblue" stroke="midnightblue" points="920.93,-196.594 910.454,-195.011 917.656,-202.781 920.93,-196.594"/>
</g>
<!-- Node13 -->
<g id="node13" class="node"><title>Node13</title>
<g id="a_node13"><a xlink:href="rc__matrix_8h.html" target="_top" xlink:title="rc_matrix.h">
<polygon fill="white" stroke="black" points="782.351,-291 782.351,-311 847.804,-311 847.804,-291 782.351,-291"/>
<text text-anchor="middle" x="815.077" y="-297" font-family="Helvetica,sans-Serif" font-size="10.00">rc_matrix.h</text>
</a>
</g>
</g>
<!-- Node3&#45;&gt;Node13 -->
<g id="edge12" class="edge"><title>Node3&#45;&gt;Node13</title>
<path fill="none" stroke="midnightblue" d="M785.242,-354.852C790.411,-345.694 798.504,-331.359 804.957,-319.928"/>
<polygon fill="midnightblue" stroke="midnightblue" points="808.024,-321.615 809.892,-311.186 801.928,-318.174 808.024,-321.615"/>
</g>
<!-- Node5 -->
<g id="node5" class="node"><title>Node5</title>
<g id="a_node5"><a xlink:href="rc__types_8h.html" target="_top" xlink:title="rc_types.h">
<polygon fill="white" stroke="black" points="617.011,-117 617.011,-137 679.144,-137 679.144,-117 617.011,-117"/>
<text text-anchor="middle" x="648.077" y="-123" font-family="Helvetica,sans-Serif" font-size="10.00">rc_types.h</text>
</a>
</g>
</g>
<!-- Node4&#45;&gt;Node5 -->
<g id="edge4" class="edge"><title>Node4&#45;&gt;Node5</title>
<path fill="none" stroke="midnightblue" d="M859.441,-176.058C856.616,-175.352 853.795,-174.656 851.077,-174 795.217,-160.512 730.424,-146.031 689.351,-136.995"/>
<polygon fill="midnightblue" stroke="midnightblue" points="689.958,-133.545 679.44,-134.819 688.456,-140.382 689.958,-133.545"/>
</g>
<!-- Node10 -->
<g id="node10" class="node"><title>Node10</title>
<g id="a_node10"><a xlink:href="rc__limits_8h.html" target="_top" xlink:title="rc_limits.h">
<polygon fill="white" stroke="black" points="894.575,-117 894.575,-137 955.58,-137 955.58,-117 894.575,-117"/>
<text text-anchor="middle" x="925.077" y="-123" font-family="Helvetica,sans-Serif" font-size="10.00">rc_limits.h</text>
</a>
</g>
</g>
<!-- Node4&#45;&gt;Node10 -->
<g id="edge9" class="edge"><title>Node4&#45;&gt;Node10</title>
<path fill="none" stroke="midnightblue" d="M895.857,-174.753C900.801,-166.843 908.054,-155.237 914.097,-145.568"/>
<polygon fill="midnightblue" stroke="midnightblue" points="917.073,-147.41 919.405,-137.075 911.137,-143.7 917.073,-147.41"/>
</g>
<!-- Node12 -->
<g id="node12" class="node"><title>Node12</title>
<polygon fill="white" stroke="#bfbfbf" points="833.462,-117 833.462,-137 876.693,-137 876.693,-117 833.462,-117"/>
<text text-anchor="middle" x="855.077" y="-123" font-family="Helvetica,sans-Serif" font-size="10.00">cmath</text>
</g>
<!-- Node4&#45;&gt;Node12 -->
<g id="edge11" class="edge"><title>Node4&#45;&gt;Node12</title>
<path fill="none" stroke="midnightblue" d="M884.298,-174.753C879.354,-166.843 872.101,-155.237 866.057,-145.568"/>
<polygon fill="midnightblue" stroke="midnightblue" points="869.017,-143.7 860.749,-137.075 863.081,-147.41 869.017,-143.7"/>
</g>
<!-- Node6 -->
<g id="node6" class="node"><title>Node6</title>
<polygon fill="white" stroke="#bfbfbf" points="612.851,-59 612.851,-79 653.304,-79 653.304,-59 612.851,-59"/>
<text text-anchor="middle" x="633.077" y="-65" font-family="Helvetica,sans-Serif" font-size="10.00">string</text>
</g>
<!-- Node5&#45;&gt;Node6 -->
<g id="edge5" class="edge"><title>Node5&#45;&gt;Node6</title>
<path fill="none" stroke="midnightblue" d="M645.6,-116.753C643.569,-109.169 640.628,-98.1881 638.106,-88.7739"/>
<polygon fill="midnightblue" stroke="midnightblue" points="641.476,-87.8291 635.508,-79.0752 634.715,-89.6403 641.476,-87.8291"/>
</g>
<!-- Node7 -->
<g id="node7" class="node"><title>Node7</title>
<polygon fill="white" stroke="#bfbfbf" points="671.292,-59 671.292,-79 722.863,-79 722.863,-59 671.292,-59"/>
<text text-anchor="middle" x="697.077" y="-65" font-family="Helvetica,sans-Serif" font-size="10.00">assert.h</text>
</g>
<!-- Node5&#45;&gt;Node7 -->
<g id="edge6" class="edge"><title>Node5&#45;&gt;Node7</title>
<path fill="none" stroke="midnightblue" d="M656.169,-116.753C663.304,-108.598 673.876,-96.5158 682.485,-86.6769"/>
<polygon fill="midnightblue" stroke="midnightblue" points="685.185,-88.9058 689.136,-79.0752 679.917,-84.2962 685.185,-88.9058"/>
</g>
<!-- Node8 -->
<g id="node8" class="node"><title>Node8</title>
<g id="a_node8"><a xlink:href="rc__platform_8h.html" target="_top" xlink:title="rc_platform.h">
<polygon fill="white" stroke="black" points="490.9,-59 490.9,-79 565.255,-79 565.255,-59 490.9,-59"/>
<text text-anchor="middle" x="528.077" y="-65" font-family="Helvetica,sans-Serif" font-size="10.00">rc_platform.h</text>
</a>
</g>
</g>
<!-- Node5&#45;&gt;Node8 -->
<g id="edge7" class="edge"><title>Node5&#45;&gt;Node8</title>
<path fill="none" stroke="midnightblue" d="M628.53,-116.878C609.092,-107.807 579.051,-93.7876 556.881,-83.4418"/>
<polygon fill="midnightblue" stroke="midnightblue" points="558.158,-80.1754 547.616,-79.1181 555.198,-86.5187 558.158,-80.1754"/>
</g>
<!-- Node9 -->
<g id="node9" class="node"><title>Node9</title>
<polygon fill="white" stroke="#bfbfbf" points="455.873,-1 455.873,-21 600.281,-21 600.281,-1 455.873,-1"/>
<text text-anchor="middle" x="528.077" y="-7" font-family="Helvetica,sans-Serif" font-size="10.00">architecture/i386/alignment.h</text>
</g>
<!-- Node8&#45;&gt;Node9 -->
<g id="edge8" class="edge"><title>Node8&#45;&gt;Node9</title>
<path fill="none" stroke="midnightblue" d="M528.077,-58.7527C528.077,-51.2504 528.077,-40.4238 528.077,-31.0781"/>
<polygon fill="midnightblue" stroke="midnightblue" points="531.577,-31.0752 528.077,-21.0752 524.577,-31.0752 531.577,-31.0752"/>
</g>
<!-- Node11 -->
<g id="node11" class="node"><title>Node11</title>
<polygon fill="white" stroke="#bfbfbf" points="901.521,-59 901.521,-79 948.634,-79 948.634,-59 901.521,-59"/>
<text text-anchor="middle" x="925.077" y="-65" font-family="Helvetica,sans-Serif" font-size="10.00">limits.h</text>
</g>
<!-- Node10&#45;&gt;Node11 -->
<g id="edge10" class="edge"><title>Node10&#45;&gt;Node11</title>
<path fill="none" stroke="midnightblue" d="M925.077,-116.753C925.077,-109.25 925.077,-98.4238 925.077,-89.0781"/>
<polygon fill="midnightblue" stroke="midnightblue" points="928.577,-89.0752 925.077,-79.0752 921.577,-89.0752 928.577,-89.0752"/>
</g>
<!-- Node14 -->
<g id="node14" class="node"><title>Node14</title>
<g id="a_node14"><a xlink:href="rc__pair_8h.html" target="_top" xlink:title="rc_pair.h">
<polygon fill="white" stroke="black" points="787.898,-175 787.898,-195 842.257,-195 842.257,-175 787.898,-175"/>
<text text-anchor="middle" x="815.077" y="-181" font-family="Helvetica,sans-Serif" font-size="10.00">rc_pair.h</text>
</a>
</g>
</g>
<!-- Node13&#45;&gt;Node14 -->
<g id="edge13" class="edge"><title>Node13&#45;&gt;Node14</title>
<path fill="none" stroke="midnightblue" d="M815.077,-290.671C815.077,-272.041 815.077,-229.898 815.077,-205.143"/>
<polygon fill="midnightblue" stroke="midnightblue" points="818.577,-205.139 815.077,-195.139 811.577,-205.139 818.577,-205.139"/>
</g>
<!-- Node15 -->
<g id="node15" class="node"><title>Node15</title>
<g id="a_node15"><a xlink:href="rc__vector2d_8h.html" target="_top" xlink:title="rc_vector2d.h">
<polygon fill="white" stroke="black" points="685.784,-233 685.784,-253 762.37,-253 762.37,-233 685.784,-233"/>
<text text-anchor="middle" x="724.077" y="-239" font-family="Helvetica,sans-Serif" font-size="10.00">rc_vector2d.h</text>
</a>
</g>
</g>
<!-- Node13&#45;&gt;Node15 -->
<g id="edge15" class="edge"><title>Node13&#45;&gt;Node15</title>
<path fill="none" stroke="midnightblue" d="M800.05,-290.753C785.739,-281.946 763.983,-268.558 747.415,-258.362"/>
<polygon fill="midnightblue" stroke="midnightblue" points="749.175,-255.335 738.824,-253.075 745.507,-261.297 749.175,-255.335"/>
</g>
<!-- Node22 -->
<g id="node22" class="node"><title>Node22</title>
<polygon fill="white" stroke="#bfbfbf" points="894.016,-233 894.016,-253 946.139,-253 946.139,-233 894.016,-233"/>
<text text-anchor="middle" x="920.077" y="-239" font-family="Helvetica,sans-Serif" font-size="10.00">ostream</text>
</g>
<!-- Node13&#45;&gt;Node22 -->
<g id="edge26" class="edge"><title>Node13&#45;&gt;Node22</title>
<path fill="none" stroke="midnightblue" d="M832.416,-290.753C849.235,-281.783 874.965,-268.06 894.205,-257.799"/>
<polygon fill="midnightblue" stroke="midnightblue" points="895.885,-260.869 903.061,-253.075 892.591,-254.693 895.885,-260.869"/>
</g>
<!-- Node14&#45;&gt;Node5 -->
<g id="edge14" class="edge"><title>Node14&#45;&gt;Node5</title>
<path fill="none" stroke="midnightblue" d="M787.874,-174.878C759.769,-165.453 715.735,-150.688 684.608,-140.25"/>
<polygon fill="midnightblue" stroke="midnightblue" points="685.586,-136.886 674.992,-137.025 683.36,-143.523 685.586,-136.886"/>
</g>
<!-- Node15&#45;&gt;Node4 -->
<g id="edge24" class="edge"><title>Node15&#45;&gt;Node4</title>
<path fill="none" stroke="midnightblue" d="M751.118,-232.878C779.055,-223.453 822.824,-208.688 853.765,-198.25"/>
<polygon fill="midnightblue" stroke="midnightblue" points="854.967,-201.538 863.324,-195.025 852.73,-194.906 854.967,-201.538"/>
</g>
<!-- Node15&#45;&gt;Node5 -->
<g id="edge17" class="edge"><title>Node15&#45;&gt;Node5</title>
<path fill="none" stroke="midnightblue" d="M717.858,-232.671C705.158,-213.621 676.069,-169.987 659.742,-145.497"/>
<polygon fill="midnightblue" stroke="midnightblue" points="662.629,-143.518 654.17,-137.139 656.805,-147.401 662.629,-143.518"/>
</g>
<!-- Node15&#45;&gt;Node14 -->
<g id="edge23" class="edge"><title>Node15&#45;&gt;Node14</title>
<path fill="none" stroke="midnightblue" d="M739.104,-232.753C753.416,-223.946 775.171,-210.558 791.739,-200.362"/>
<polygon fill="midnightblue" stroke="midnightblue" points="793.648,-203.297 800.33,-195.075 789.979,-197.335 793.648,-203.297"/>
</g>
<!-- Node16 -->
<g id="node16" class="node"><title>Node16</title>
<polygon fill="white" stroke="#bfbfbf" points="723.792,-175 723.792,-195 770.363,-195 770.363,-175 723.792,-175"/>
<text text-anchor="middle" x="747.077" y="-181" font-family="Helvetica,sans-Serif" font-size="10.00">math.h</text>
</g>
<!-- Node15&#45;&gt;Node16 -->
<g id="edge16" class="edge"><title>Node15&#45;&gt;Node16</title>
<path fill="none" stroke="midnightblue" d="M727.875,-232.753C731.024,-225.087 735.597,-213.952 739.491,-204.471"/>
<polygon fill="midnightblue" stroke="midnightblue" points="742.788,-205.655 743.35,-195.075 736.313,-202.996 742.788,-205.655"/>
</g>
<!-- Node17 -->
<g id="node17" class="node"><title>Node17</title>
<g id="a_node17"><a xlink:href="rc__exception_8h.html" target="_top" xlink:title="rc_exception.h">
<polygon fill="white" stroke="black" points="472.558,-175 472.558,-195 553.597,-195 553.597,-175 472.558,-175"/>
<text text-anchor="middle" x="513.077" y="-181" font-family="Helvetica,sans-Serif" font-size="10.00">rc_exception.h</text>
</a>
</g>
</g>
<!-- Node15&#45;&gt;Node17 -->
<g id="edge18" class="edge"><title>Node15&#45;&gt;Node17</title>
<path fill="none" stroke="midnightblue" d="M689.707,-232.878C653.505,-223.27 596.386,-208.11 556.954,-197.645"/>
<polygon fill="midnightblue" stroke="midnightblue" points="557.647,-194.208 547.083,-195.025 555.851,-200.973 557.647,-194.208"/>
</g>
<!-- Node21 -->
<g id="node21" class="node"><title>Node21</title>
<g id="a_node21"><a xlink:href="rc__macro_8h.html" target="_top" xlink:title="rc_macro.h">
<polygon fill="white" stroke="black" points="388.07,-175 388.07,-195 454.085,-195 454.085,-175 388.07,-175"/>
<text text-anchor="middle" x="421.077" y="-181" font-family="Helvetica,sans-Serif" font-size="10.00">rc_macro.h</text>
</a>
</g>
</g>
<!-- Node15&#45;&gt;Node21 -->
<g id="edge25" class="edge"><title>Node15&#45;&gt;Node21</title>
<path fill="none" stroke="midnightblue" d="M685.467,-235.93C636.352,-228.047 548.701,-213.441 464.492,-196.208"/>
<polygon fill="midnightblue" stroke="midnightblue" points="465.009,-192.741 454.508,-194.148 463.595,-199.596 465.009,-192.741"/>
</g>
<!-- Node17&#45;&gt;Node8 -->
<g id="edge19" class="edge"><title>Node17&#45;&gt;Node8</title>
<path fill="none" stroke="midnightblue" d="M514.305,-174.671C516.756,-156.041 522.301,-113.898 525.559,-89.1428"/>
<polygon fill="midnightblue" stroke="midnightblue" points="529.04,-89.5106 526.875,-79.1394 522.1,-88.5973 529.04,-89.5106"/>
</g>
<!-- Node18 -->
<g id="node18" class="node"><title>Node18</title>
<polygon fill="white" stroke="#bfbfbf" points="540.673,-117 540.673,-137 599.481,-137 599.481,-117 540.673,-117"/>
<text text-anchor="middle" x="570.077" y="-123" font-family="Helvetica,sans-Serif" font-size="10.00">exception</text>
</g>
<!-- Node17&#45;&gt;Node18 -->
<g id="edge20" class="edge"><title>Node17&#45;&gt;Node18</title>
<path fill="none" stroke="midnightblue" d="M522.49,-174.753C530.956,-166.435 543.581,-154.031 553.701,-144.089"/>
<polygon fill="midnightblue" stroke="midnightblue" points="556.16,-146.58 560.84,-137.075 551.254,-141.587 556.16,-146.58"/>
</g>
<!-- Node17&#45;&gt;Node19 -->
<g id="edge21" class="edge"><title>Node17&#45;&gt;Node19</title>
<path fill="none" stroke="midnightblue" d="M475.61,-174.985C440.061,-166.375 384.891,-152.87 327.515,-138.073"/>
<polygon fill="midnightblue" stroke="midnightblue" points="328.097,-134.608 317.539,-135.493 326.344,-141.385 328.097,-134.608"/>
</g>
<!-- Node20 -->
<g id="node20" class="node"><title>Node20</title>
<polygon fill="white" stroke="#bfbfbf" points="433.297,-117 433.297,-137 484.858,-137 484.858,-117 433.297,-117"/>
<text text-anchor="middle" x="459.077" y="-123" font-family="Helvetica,sans-Serif" font-size="10.00">sstream</text>
</g>
<!-- Node17&#45;&gt;Node20 -->
<g id="edge22" class="edge"><title>Node17&#45;&gt;Node20</title>
<path fill="none" stroke="midnightblue" d="M504.16,-174.753C496.218,-166.516 484.413,-154.274 474.875,-144.382"/>
<polygon fill="midnightblue" stroke="midnightblue" points="477.289,-141.844 467.828,-137.075 472.25,-146.703 477.289,-141.844"/>
</g>
<!-- Node23&#45;&gt;Node5 -->
<g id="edge28" class="edge"><title>Node23&#45;&gt;Node5</title>
<path fill="none" stroke="midnightblue" d="M539.391,-354.638C537.188,-340.348 534.35,-312.393 541.077,-290 559.007,-230.321 606.844,-172.351 632.041,-144.746"/>
<polygon fill="midnightblue" stroke="midnightblue" points="634.826,-146.891 639.075,-137.186 629.701,-142.123 634.826,-146.891"/>
</g>
<!-- Node24 -->
<g id="node24" class="node"><title>Node24</title>
<g id="a_node24"><a xlink:href="rc__rectangle_8h.html" target="_top" xlink:title="rc_rectangle.h">
<polygon fill="white" stroke="black" points="550.393,-291 550.393,-311 629.762,-311 629.762,-291 550.393,-291"/>
<text text-anchor="middle" x="590.077" y="-297" font-family="Helvetica,sans-Serif" font-size="10.00">rc_rectangle.h</text>
</a>
</g>
</g>
<!-- Node23&#45;&gt;Node24 -->
<g id="edge29" class="edge"><title>Node23&#45;&gt;Node24</title>
<path fill="none" stroke="midnightblue" d="M548.307,-354.852C555.69,-345.511 567.329,-330.784 576.448,-319.246"/>
<polygon fill="midnightblue" stroke="midnightblue" points="579.363,-321.202 582.818,-311.186 573.871,-316.861 579.363,-321.202"/>
</g>
<!-- Node24&#45;&gt;Node4 -->
<g id="edge33" class="edge"><title>Node24&#45;&gt;Node4</title>
<path fill="none" stroke="midnightblue" d="M630.1,-295.818C672.542,-290.302 740.814,-278.297 795.077,-254 824.667,-240.751 854.343,-217.536 872.461,-201.966"/>
<polygon fill="midnightblue" stroke="midnightblue" points="875.173,-204.243 880.376,-195.014 870.553,-198.984 875.173,-204.243"/>
</g>
<!-- Node24&#45;&gt;Node5 -->
<g id="edge31" class="edge"><title>Node24&#45;&gt;Node5</title>
<path fill="none" stroke="midnightblue" d="M593.196,-290.753C602.362,-263.571 629.349,-183.538 641.734,-146.811"/>
<polygon fill="midnightblue" stroke="midnightblue" points="645.065,-147.887 644.944,-137.293 638.432,-145.651 645.065,-147.887"/>
</g>
<!-- Node24&#45;&gt;Node14 -->
<g id="edge30" class="edge"><title>Node24&#45;&gt;Node14</title>
<path fill="none" stroke="midnightblue" d="M629.937,-298.176C669.145,-294.595 729.069,-284.16 771.077,-254 788.339,-241.606 800.554,-220.148 807.665,-204.646"/>
<polygon fill="midnightblue" stroke="midnightblue" points="811.055,-205.621 811.772,-195.051 804.62,-202.867 811.055,-205.621"/>
</g>
<!-- Node24&#45;&gt;Node15 -->
<g id="edge32" class="edge"><title>Node24&#45;&gt;Node15</title>
<path fill="none" stroke="midnightblue" d="M611.905,-290.878C633.903,-281.685 668.062,-267.409 692.907,-257.026"/>
<polygon fill="midnightblue" stroke="midnightblue" points="694.382,-260.203 702.259,-253.118 691.683,-253.745 694.382,-260.203"/>
</g>
<!-- Node24&#45;&gt;Node17 -->
<g id="edge34" class="edge"><title>Node24&#45;&gt;Node17</title>
<path fill="none" stroke="midnightblue" d="M586.834,-290.679C581.853,-277.071 571.476,-251.288 558.077,-232 550.465,-221.041 540.16,-210.295 531.333,-201.949"/>
<polygon fill="midnightblue" stroke="midnightblue" points="533.501,-199.189 523.761,-195.021 528.776,-204.354 533.501,-199.189"/>
</g>
<!-- Node25 -->
<g id="node25" class="node"><title>Node25</title>
<polygon fill="white" stroke="#bfbfbf" points="336.173,-117 336.173,-137 379.981,-137 379.981,-117 336.173,-117"/>
<text text-anchor="middle" x="358.077" y="-123" font-family="Helvetica,sans-Serif" font-size="10.00">deque</text>
</g>
<!-- Node24&#45;&gt;Node25 -->
<g id="edge35" class="edge"><title>Node24&#45;&gt;Node25</title>
<path fill="none" stroke="midnightblue" d="M551.143,-290.905C503.779,-277.854 424.529,-249.29 379.077,-196 367.321,-182.216 362.142,-161.915 359.864,-147.083"/>
<polygon fill="midnightblue" stroke="midnightblue" points="363.319,-146.505 358.625,-137.006 356.371,-147.359 363.319,-146.505"/>
</g>
<!-- Node27&#45;&gt;Node15 -->
<g id="edge44" class="edge"><title>Node27&#45;&gt;Node15</title>
<path fill="none" stroke="midnightblue" d="M620.552,-534.949C641.476,-528.026 666.751,-516.452 683.077,-498 704.126,-474.211 705.077,-461.765 705.077,-430 705.077,-430 705.077,-430 705.077,-364 705.077,-327.946 713.548,-286.54 719.177,-263.003"/>
<polygon fill="midnightblue" stroke="midnightblue" points="722.584,-263.805 721.593,-253.257 715.79,-262.121 722.584,-263.805"/>
</g>
<!-- Node27&#45;&gt;Node23 -->
<g id="edge43" class="edge"><title>Node27&#45;&gt;Node23</title>
<path fill="none" stroke="midnightblue" d="M581.886,-534.928C575.188,-507.202 554.886,-423.16 545.69,-385.096"/>
<polygon fill="midnightblue" stroke="midnightblue" points="549.066,-384.165 543.316,-375.267 542.262,-385.809 549.066,-384.165"/>
</g>
<!-- Node28 -->
<g id="node28" class="node"><title>Node28</title>
<g id="a_node28"><a xlink:href="rc__style_8h.html" target="_top" xlink:title="rc_style.h">
<polygon fill="white" stroke="black" points="615.681,-477 615.681,-497 674.474,-497 674.474,-477 615.681,-477"/>
<text text-anchor="middle" x="645.077" y="-483" font-family="Helvetica,sans-Serif" font-size="10.00">rc_style.h</text>
</a>
</g>
</g>
<!-- Node27&#45;&gt;Node28 -->
<g id="edge38" class="edge"><title>Node27&#45;&gt;Node28</title>
<path fill="none" stroke="midnightblue" d="M594.15,-534.753C603.211,-526.435 616.722,-514.031 627.551,-504.089"/>
<polygon fill="midnightblue" stroke="midnightblue" points="630.192,-506.416 635.192,-497.075 625.458,-501.26 630.192,-506.416"/>
</g>
<!-- Node31 -->
<g id="node31" class="node"><title>Node31</title>
<g id="a_node31"><a xlink:href="rc__window_8h.html" target="_top" xlink:title="rc_window.h">
<polygon fill="white" stroke="black" points="402.56,-419 402.56,-439 473.594,-439 473.594,-419 402.56,-419"/>
<text text-anchor="middle" x="438.077" y="-425" font-family="Helvetica,sans-Serif" font-size="10.00">rc_window.h</text>
</a>
</g>
</g>
<!-- Node27&#45;&gt;Node31 -->
<g id="edge45" class="edge"><title>Node27&#45;&gt;Node31</title>
<path fill="none" stroke="midnightblue" d="M572.376,-534.864C547.388,-515.352 488.583,-469.436 457.74,-445.353"/>
<polygon fill="midnightblue" stroke="midnightblue" points="459.87,-442.576 449.834,-439.18 455.562,-448.093 459.87,-442.576"/>
</g>
<!-- Node29 -->
<g id="node29" class="node"><title>Node29</title>
<g id="a_node29"><a xlink:href="rc__line_8h.html" target="_top" xlink:title="rc_line.h">
<polygon fill="white" stroke="black" points="619.178,-419 619.178,-439 672.976,-439 672.976,-419 619.178,-419"/>
<text text-anchor="middle" x="646.077" y="-425" font-family="Helvetica,sans-Serif" font-size="10.00">rc_line.h</text>
</a>
</g>
</g>
<!-- Node28&#45;&gt;Node29 -->
<g id="edge39" class="edge"><title>Node28&#45;&gt;Node29</title>
<path fill="none" stroke="midnightblue" d="M645.242,-476.753C645.376,-469.25 645.57,-458.424 645.737,-449.078"/>
<polygon fill="midnightblue" stroke="midnightblue" points="649.236,-449.136 645.915,-439.075 642.237,-449.011 649.236,-449.136"/>
</g>
<!-- Node29&#45;&gt;Node3 -->
<g id="edge40" class="edge"><title>Node29&#45;&gt;Node3</title>
<path fill="none" stroke="midnightblue" d="M665.562,-418.985C688.09,-408.561 725.382,-391.307 751.263,-379.332"/>
<polygon fill="midnightblue" stroke="midnightblue" points="752.963,-382.402 760.569,-375.026 750.024,-376.049 752.963,-382.402"/>
</g>
<!-- Node29&#45;&gt;Node5 -->
<g id="edge41" class="edge"><title>Node29&#45;&gt;Node5</title>
<path fill="none" stroke="midnightblue" d="M647.549,-418.859C650.753,-398.132 658.077,-345.948 658.077,-302 658.077,-302 658.077,-302 658.077,-242 658.077,-208.518 653.744,-169.714 650.782,-147.106"/>
<polygon fill="midnightblue" stroke="midnightblue" points="654.242,-146.575 649.426,-137.138 647.306,-147.518 654.242,-146.575"/>
</g>
<!-- Node30 -->
<g id="node30" class="node"><title>Node30</title>
<polygon fill="white" stroke="#bfbfbf" points="586.462,-355 586.462,-375 629.693,-375 629.693,-355 586.462,-355"/>
<text text-anchor="middle" x="608.077" y="-361" font-family="Helvetica,sans-Serif" font-size="10.00">vector</text>
</g>
<!-- Node29&#45;&gt;Node30 -->
<g id="edge42" class="edge"><title>Node29&#45;&gt;Node30</title>
<path fill="none" stroke="midnightblue" d="M640.47,-418.852C634.857,-409.694 626.072,-395.359 619.065,-383.928"/>
<polygon fill="midnightblue" stroke="midnightblue" points="621.917,-381.883 613.707,-375.186 615.949,-385.541 621.917,-381.883"/>
</g>
<!-- Node31&#45;&gt;Node23 -->
<g id="edge57" class="edge"><title>Node31&#45;&gt;Node23</title>
<path fill="none" stroke="midnightblue" d="M453.275,-418.852C470.087,-408.732 497.399,-392.292 517.101,-380.432"/>
<polygon fill="midnightblue" stroke="midnightblue" points="519.054,-383.342 525.817,-375.186 515.444,-377.344 519.054,-383.342"/>
</g>
<!-- Node31&#45;&gt;Node26 -->
<g id="edge59" class="edge"><title>Node31&#45;&gt;Node26</title>
<path fill="none" stroke="midnightblue" d="M402.743,-418.985C359.821,-408.033 287.342,-389.541 240.362,-377.554"/>
<polygon fill="midnightblue" stroke="midnightblue" points="241.009,-374.107 230.454,-375.026 239.278,-380.89 241.009,-374.107"/>
</g>
<!-- Node31&#45;&gt;Node30 -->
<g id="edge61" class="edge"><title>Node31&#45;&gt;Node30</title>
<path fill="none" stroke="midnightblue" d="M470.064,-418.973C498.579,-410.561 541.226,-397.074 577.077,-382 578.878,-381.243 580.717,-380.423 582.556,-379.567"/>
<polygon fill="midnightblue" stroke="midnightblue" points="584.15,-382.684 591.574,-375.125 581.057,-376.404 584.15,-382.684"/>
</g>
<!-- Node32 -->
<g id="node32" class="node"><title>Node32</title>
<g id="a_node32"><a xlink:href="rc__framebuf_8h.html" target="_top" xlink:title="rc_framebuf.h">
<polygon fill="white" stroke="black" points="205.23,-233 205.23,-253 282.924,-253 282.924,-233 205.23,-233"/>
<text text-anchor="middle" x="244.077" y="-239" font-family="Helvetica,sans-Serif" font-size="10.00">rc_framebuf.h</text>
</a>
</g>
</g>
<!-- Node31&#45;&gt;Node32 -->
<g id="edge46" class="edge"><title>Node31&#45;&gt;Node32</title>
<path fill="none" stroke="midnightblue" d="M423.258,-418.972C409.43,-410.252 388.518,-396.298 372.077,-382 326.467,-342.332 279.939,-287.938 257.634,-260.811"/>
<polygon fill="midnightblue" stroke="midnightblue" points="260.308,-258.551 251.275,-253.014 254.884,-262.976 260.308,-258.551"/>
</g>
<!-- Node37 -->
<g id="node37" class="node"><title>Node37</title>
<polygon fill="white" stroke="#bfbfbf" points="273.568,-355 273.568,-375 324.587,-375 324.587,-355 273.568,-355"/>
<text text-anchor="middle" x="299.077" y="-361" font-family="Helvetica,sans-Serif" font-size="10.00">iomanip</text>
</g>
<!-- Node31&#45;&gt;Node37 -->
<g id="edge58" class="edge"><title>Node31&#45;&gt;Node37</title>
<path fill="none" stroke="midnightblue" d="M417.865,-418.985C394.394,-408.516 355.472,-391.154 328.612,-379.174"/>
<polygon fill="midnightblue" stroke="midnightblue" points="329.872,-375.903 319.313,-375.026 327.02,-382.296 329.872,-375.903"/>
</g>
<!-- Node38 -->
<g id="node38" class="node"><title>Node38</title>
<polygon fill="white" stroke="#bfbfbf" points="380.885,-349 380.885,-381 495.269,-381 495.269,-349 380.885,-349"/>
<text text-anchor="start" x="388.885" y="-367" font-family="Helvetica,sans-Serif" font-size="10.00">ApplicationServices</text>
<text text-anchor="middle" x="438.077" y="-355" font-family="Helvetica,sans-Serif" font-size="10.00">/ApplicationServices.h</text>
</g>
<!-- Node31&#45;&gt;Node38 -->
<g id="edge60" class="edge"><title>Node31&#45;&gt;Node38</title>
<path fill="none" stroke="midnightblue" d="M438.077,-418.852C438.077,-411.629 438.077,-401.185 438.077,-391.486"/>
<polygon fill="midnightblue" stroke="midnightblue" points="441.577,-391.44 438.077,-381.44 434.577,-391.44 441.577,-391.44"/>
</g>
<!-- Node32&#45;&gt;Node21 -->
<g id="edge54" class="edge"><title>Node32&#45;&gt;Node21</title>
<path fill="none" stroke="midnightblue" d="M272.909,-232.878C302.827,-223.413 349.772,-208.56 382.787,-198.115"/>
<polygon fill="midnightblue" stroke="midnightblue" points="384.072,-201.379 392.551,-195.025 381.961,-194.705 384.072,-201.379"/>
</g>
<!-- Node33 -->
<g id="node33" class="node"><title>Node33</title>
<g id="a_node33"><a xlink:href="rc__timestamp_8h.html" target="_top" xlink:title="rc_timestamp.h">
<polygon fill="white" stroke="black" points="247.9,-175 247.9,-195 332.255,-195 332.255,-175 247.9,-175"/>
<text text-anchor="middle" x="290.077" y="-181" font-family="Helvetica,sans-Serif" font-size="10.00">rc_timestamp.h</text>
</a>
</g>
</g>
<!-- Node32&#45;&gt;Node33 -->
<g id="edge47" class="edge"><title>Node32&#45;&gt;Node33</title>
<path fill="none" stroke="midnightblue" d="M251.673,-232.753C258.305,-224.68 268.098,-212.757 276.135,-202.973"/>
<polygon fill="midnightblue" stroke="midnightblue" points="278.98,-205.024 282.623,-195.075 273.571,-200.581 278.98,-205.024"/>
</g>
<!-- Node34 -->
<g id="node34" class="node"><title>Node34</title>
<g id="a_node34"><a xlink:href="rc__thread_8h.html" target="_top" xlink:title="rc_thread.h">
<polygon fill="white" stroke="black" points="163.784,-175 163.784,-195 230.37,-195 230.37,-175 163.784,-175"/>
<text text-anchor="middle" x="197.077" y="-181" font-family="Helvetica,sans-Serif" font-size="10.00">rc_thread.h</text>
</a>
</g>
</g>
<!-- Node32&#45;&gt;Node34 -->
<g id="edge51" class="edge"><title>Node32&#45;&gt;Node34</title>
<path fill="none" stroke="midnightblue" d="M236.316,-232.753C229.541,-224.68 219.534,-212.757 211.322,-202.973"/>
<polygon fill="midnightblue" stroke="midnightblue" points="213.804,-200.485 204.694,-195.075 208.442,-204.985 213.804,-200.485"/>
</g>
<!-- Node35 -->
<g id="node35" class="node"><title>Node35</title>
<polygon fill="white" stroke="#bfbfbf" points="33.9987,-117 33.9987,-137 126.156,-137 126.156,-117 33.9987,-117"/>
<text text-anchor="middle" x="80.0773" y="-123" font-family="Helvetica,sans-Serif" font-size="10.00">boost/atomic.hpp</text>
</g>
<!-- Node32&#45;&gt;Node35 -->
<g id="edge56" class="edge"><title>Node32&#45;&gt;Node35</title>
<path fill="none" stroke="midnightblue" d="M204.948,-239.744C147.064,-235.499 42.9724,-224.075 20.0773,-196 4.4414,-176.827 30.6084,-155.57 53.1499,-142.012"/>
<polygon fill="midnightblue" stroke="midnightblue" points="54.8897,-145.049 61.8286,-137.043 51.4114,-138.975 54.8897,-145.049"/>
</g>
<!-- Node36 -->
<g id="node36" class="node"><title>Node36</title>
<polygon fill="white" stroke="#bfbfbf" points="28.7648,-175 28.7648,-195 145.39,-195 145.39,-175 28.7648,-175"/>
<text text-anchor="middle" x="87.0773" y="-181" font-family="Helvetica,sans-Serif" font-size="10.00">boost/intrusive_ptr.hpp</text>
</g>
<!-- Node32&#45;&gt;Node36 -->
<g id="edge55" class="edge"><title>Node32&#45;&gt;Node36</title>
<path fill="none" stroke="midnightblue" d="M218.503,-232.878C192.195,-223.494 151.042,-208.815 121.801,-198.386"/>
<polygon fill="midnightblue" stroke="midnightblue" points="122.975,-195.088 112.38,-195.025 120.623,-201.682 122.975,-195.088"/>
</g>
<!-- Node33&#45;&gt;Node5 -->
<g id="edge48" class="edge"><title>Node33&#45;&gt;Node5</title>
<path fill="none" stroke="midnightblue" d="M332.488,-179.252C391.757,-172.312 502.882,-158.199 606.682,-138.124"/>
<polygon fill="midnightblue" stroke="midnightblue" points="607.56,-141.519 616.702,-136.163 606.216,-134.649 607.56,-141.519"/>
</g>
<!-- Node33&#45;&gt;Node19 -->
<g id="edge49" class="edge"><title>Node33&#45;&gt;Node19</title>
<path fill="none" stroke="midnightblue" d="M290.077,-174.753C290.077,-167.25 290.077,-156.424 290.077,-147.078"/>
<polygon fill="midnightblue" stroke="midnightblue" points="293.577,-147.075 290.077,-137.075 286.577,-147.075 293.577,-147.075"/>
</g>
<!-- Node33&#45;&gt;Node25 -->
<g id="edge50" class="edge"><title>Node33&#45;&gt;Node25</title>
<path fill="none" stroke="midnightblue" d="M301.306,-174.753C311.604,-166.272 327.061,-153.543 339.247,-143.507"/>
<polygon fill="midnightblue" stroke="midnightblue" points="341.563,-146.134 347.057,-137.075 337.113,-140.731 341.563,-146.134"/>
</g>
<!-- Node34&#45;&gt;Node5 -->
<g id="edge52" class="edge"><title>Node34&#45;&gt;Node5</title>
<path fill="none" stroke="midnightblue" d="M230.464,-175.616C233.367,-175.02 236.268,-174.469 239.077,-174 398.43,-147.384 443.937,-165.326 606.85,-137.991"/>
<polygon fill="midnightblue" stroke="midnightblue" points="607.46,-141.437 616.728,-136.303 606.281,-134.537 607.46,-141.437"/>
</g>
<!-- Node34&#45;&gt;Node35 -->
<g id="edge53" class="edge"><title>Node34&#45;&gt;Node35</title>
<path fill="none" stroke="midnightblue" d="M178.019,-174.878C159.067,-165.807 129.776,-151.788 108.161,-141.442"/>
<polygon fill="midnightblue" stroke="midnightblue" points="109.659,-138.278 99.1276,-137.118 106.637,-144.592 109.659,-138.278"/>
</g>
</g>
</svg>
