<?xml version="1.0" encoding="UTF-8" standalone="no"?>
<!DOCTYPE svg PUBLIC "-//W3C//DTD SVG 1.1//EN"
 "http://www.w3.org/Graphics/SVG/1.1/DTD/svg11.dtd">
<!-- Generated by graphviz version 2.32.0 (20130916.1925)
 -->
<!-- Title: coords_to_poly Pages: 1 -->
<!--zoomable 121 -->
<svg id="main" version="1.1" xmlns="http://www.w3.org/2000/svg" xmlns:xlink="http://www.w3.org/1999/xlink" xml:space="preserve" onload="init(evt)">
        <defs>
                <circle id="rim" cx="0" cy="0" r="7"/>
                <circle id="rim2" cx="0" cy="0" r="3.5"/>
                <g id="zoomPlus">
                        <use xlink:href="#rim" fill="#404040">
                                <set attributeName="fill" to="#808080" begin="zoomplus.mouseover" end="zoomplus.mouseout"/>
                        </use>
                        <path d="M-4,0h8M0,-4v8" fill="none" stroke="white" stroke-width="1.5" pointer-events="none"/>
                </g>
                <g id="zoomMin">
                        <use xlink:href="#rim" fill="#404040">
                                <set attributeName="fill" to="#808080" begin="zoomminus.mouseover" end="zoomminus.mouseout"/>
                        </use>
                        <path d="M-4,0h8" fill="none" stroke="white" stroke-width="1.5" pointer-events="none"/>
                </g>
                <g id="dirArrow">
                        <path fill="none" stroke="white" stroke-width="1.5" d="M0,-3.0v7 M-2.5,-0.5L0,-3.0L2.5,-0.5"/>
                </g>
               <g id="resetDef">
                       <use xlink:href="#rim2" fill="#404040">
                               <set attributeName="fill" to="#808080" begin="reset.mouseover" end="reset.mouseout"/>
                       </use>
               </g>
        </defs>

<script type="text/javascript">
var viewWidth = 850;
var viewHeight = 121;
var sectionId = 'dynsection-6';
</script>
<script xlink:href="svgpan.js"/>
<svg id="graph" class="graph">
<g id="viewport">
<title>coords_to_poly</title>
<polygon fill="white" stroke="white" points="-4,5 -4,-117 847,-117 847,5 -4,5"/>
<!-- Node1 -->
<g id="node1" class="node"><title>Node1</title>
<polygon fill="#bfbfbf" stroke="black" points="0.0888672,-39 0.0888672,-59 83.9111,-59 83.9111,-39 0.0888672,-39"/>
<text text-anchor="middle" x="42" y="-45" font-family="Helvetica,sans-Serif" font-size="10.00">coords_to_poly</text>
</g>
<!-- Node2 -->
<g id="node2" class="node"><title>Node2</title>
<g id="a_node2"><a xlink:href="rc__fill_8h.html#a00254f8042116d7ae9165b9ec7784ea2" target="_top" xlink:title="rc_fill_poly">
<polygon fill="white" stroke="black" points="120.379,-39 120.379,-59 183.621,-59 183.621,-39 120.379,-39"/>
<text text-anchor="middle" x="152" y="-45" font-family="Helvetica,sans-Serif" font-size="10.00">rc_fill_poly</text>
</a>
</g>
</g>
<!-- Node1&#45;&gt;Node2 -->
<g id="edge1" class="edge"><title>Node1&#45;&gt;Node2</title>
<path fill="none" stroke="midnightblue" d="M94.3524,-49C103.138,-49 112.017,-49 120.056,-49"/>
<polygon fill="midnightblue" stroke="midnightblue" points="94.1383,-45.5001 84.1383,-49 94.1382,-52.5001 94.1383,-45.5001"/>
</g>
<!-- Node3 -->
<g id="node3" class="node"><title>Node3</title>
<g id="a_node3"><a xlink:href="rc__draw_8h.html#a72125d1915a0c243a770c6635ecbf584" target="_top" xlink:title="rcFillPolygon">
<polygon fill="white" stroke="black" points="220.379,-39 220.379,-59 293.621,-59 293.621,-39 220.379,-39"/>
<text text-anchor="middle" x="257" y="-45" font-family="Helvetica,sans-Serif" font-size="10.00">rcFillPolygon</text>
</a>
</g>
</g>
<!-- Node2&#45;&gt;Node3 -->
<g id="edge2" class="edge"><title>Node2&#45;&gt;Node3</title>
<path fill="none" stroke="midnightblue" d="M193.663,-49C202.442,-49 211.661,-49 220.236,-49"/>
<polygon fill="midnightblue" stroke="midnightblue" points="193.625,-45.5001 183.625,-49 193.624,-52.5001 193.625,-45.5001"/>
</g>
<!-- Node4 -->
<g id="node4" class="node"><title>Node4</title>
<g id="a_node4"><a xlink:href="classrc_muscle_segmenter.html#a61c65559f55fd9fa632b96e09ef50b2e" target="_top" xlink:title="rcMuscleSegmenter::\lgenFrequencySegmentation">
<polygon fill="white" stroke="black" points="330.18,-79 330.18,-111 471.82,-111 471.82,-79 330.18,-79"/>
<text text-anchor="start" x="338.18" y="-97" font-family="Helvetica,sans-Serif" font-size="10.00">rcMuscleSegmenter::</text>
<text text-anchor="middle" x="401" y="-85" font-family="Helvetica,sans-Serif" font-size="10.00">genFrequencySegmentation</text>
</a>
</g>
</g>
<!-- Node3&#45;&gt;Node4 -->
<g id="edge3" class="edge"><title>Node3&#45;&gt;Node4</title>
<path fill="none" stroke="midnightblue" d="M298.831,-62.2268C314.949,-67.4483 333.616,-73.4954 350.494,-78.9629"/>
<polygon fill="midnightblue" stroke="midnightblue" points="299.754,-58.8471 289.163,-59.0949 297.597,-65.5064 299.754,-58.8471"/>
</g>
<!-- Node7 -->
<g id="node7" class="node"><title>Node7</title>
<g id="a_node7"><a xlink:href="classrc_kinetoscope.html#a18739703ba714a3c04de5a56846bbd9d" target="_top" xlink:title="rcKinetoscope::preSegmented\lBodies">
<polygon fill="white" stroke="black" points="508.737,-30 508.737,-62 659.263,-62 659.263,-30 508.737,-30"/>
<text text-anchor="start" x="516.737" y="-48" font-family="Helvetica,sans-Serif" font-size="10.00">rcKinetoscope::preSegmented</text>
<text text-anchor="middle" x="584" y="-36" font-family="Helvetica,sans-Serif" font-size="10.00">Bodies</text>
</a>
</g>
</g>
<!-- Node3&#45;&gt;Node7 -->
<g id="edge6" class="edge"><title>Node3&#45;&gt;Node7</title>
<path fill="none" stroke="midnightblue" d="M303.863,-48.5767C357.066,-48.0855 445.533,-47.2689 508.61,-46.6867"/>
<polygon fill="midnightblue" stroke="midnightblue" points="303.678,-45.0781 293.71,-48.6704 303.742,-52.0778 303.678,-45.0781"/>
</g>
<!-- Node8 -->
<g id="node8" class="node"><title>Node8</title>
<g id="a_node8"><a xlink:href="classrc_shape.html#a121cd77a46ce4a89b92e6a2b5e1cfc00" target="_top" xlink:title="rcShape::setMask">
<polygon fill="white" stroke="black" points="352.983,-0 352.983,-20 449.017,-20 449.017,-0 352.983,-0"/>
<text text-anchor="middle" x="401" y="-6" font-family="Helvetica,sans-Serif" font-size="10.00">rcShape::setMask</text>
</a>
</g>
</g>
<!-- Node3&#45;&gt;Node8 -->
<g id="edge8" class="edge"><title>Node3&#45;&gt;Node8</title>
<path fill="none" stroke="midnightblue" d="M303.606,-36.4744C322.865,-31.1851 344.994,-25.1072 363.189,-20.1101"/>
<polygon fill="midnightblue" stroke="midnightblue" points="302.549,-33.1351 293.833,-39.1587 304.402,-39.8852 302.549,-33.1351"/>
</g>
<!-- Node5 -->
<g id="node5" class="node"><title>Node5</title>
<g id="a_node5"><a xlink:href="classrc_muscle_segmenter.html#a660d7b3d1c240efa0b725e0db65154e3" target="_top" xlink:title="rcMuscleSegmenter::\lfilterByActivity">
<polygon fill="white" stroke="black" points="528.761,-81 528.761,-113 639.239,-113 639.239,-81 528.761,-81"/>
<text text-anchor="start" x="536.761" y="-99" font-family="Helvetica,sans-Serif" font-size="10.00">rcMuscleSegmenter::</text>
<text text-anchor="middle" x="584" y="-87" font-family="Helvetica,sans-Serif" font-size="10.00">filterByActivity</text>
</a>
</g>
</g>
<!-- Node4&#45;&gt;Node5 -->
<g id="edge4" class="edge"><title>Node4&#45;&gt;Node5</title>
<path fill="none" stroke="midnightblue" d="M482.215,-95.8864C497.914,-96.0598 514.031,-96.2379 528.643,-96.3994"/>
<polygon fill="midnightblue" stroke="midnightblue" points="482.017,-92.3841 471.979,-95.7733 481.94,-99.3836 482.017,-92.3841"/>
</g>
<!-- Node6 -->
<g id="node6" class="node"><title>Node6</title>
<g id="a_node6"><a xlink:href="classrc_engine_impl.html#a00ca0d227e480ddb5bd6be293b55d2c9" target="_top" xlink:title="rcEngineImpl::muscleTracker">
<polygon fill="white" stroke="black" points="696.442,-61 696.442,-81 841.558,-81 841.558,-61 696.442,-61"/>
<text text-anchor="middle" x="769" y="-67" font-family="Helvetica,sans-Serif" font-size="10.00">rcEngineImpl::muscleTracker</text>
</a>
</g>
</g>
<!-- Node5&#45;&gt;Node6 -->
<g id="edge5" class="edge"><title>Node5&#45;&gt;Node6</title>
<path fill="none" stroke="midnightblue" d="M649.444,-87.8441C664.995,-85.6346 681.692,-83.2624 697.504,-81.0158"/>
<polygon fill="midnightblue" stroke="midnightblue" points="648.819,-84.3976 639.411,-89.2695 649.803,-91.328 648.819,-84.3976"/>
</g>
<!-- Node7&#45;&gt;Node6 -->
<g id="edge7" class="edge"><title>Node7&#45;&gt;Node6</title>
<path fill="none" stroke="midnightblue" d="M669.493,-57.5427C678.453,-58.7668 687.503,-60.0032 696.297,-61.2045"/>
<polygon fill="midnightblue" stroke="midnightblue" points="669.815,-54.0543 659.433,-56.1685 668.867,-60.9899 669.815,-54.0543"/>
</g>
</g>
</svg>
        <g id="navigator" transform="translate(0 0)" fill="#404254">
                <rect fill="#f2f5e9" fill-opacity="0.5" stroke="#606060" stroke-width=".5" x="0" y="0" width="60" height="60"/>
                <use id="zoomplus" xlink:href="#zoomPlus" x="17" y="9" onmousedown="handleZoom(evt,'in')"/>
                <use id="zoomminus" xlink:href="#zoomMin" x="42" y="9" onmousedown="handleZoom(evt,'out')"/>
                <use id="reset" xlink:href="#resetDef" x="30" y="36" onmousedown="handleReset()"/>
                <g id="arrowUp" xlink:href="#dirArrow" transform="translate(30 24)" onmousedown="handlePan(0,-1)">
                  <use xlink:href="#rim" fill="#404040">
                        <set attributeName="fill" to="#808080" begin="arrowUp.mouseover" end="arrowUp.mouseout"/>
                  </use>
                  <path fill="none" stroke="white" stroke-width="1.5" d="M0,-3.0v7 M-2.5,-0.5L0,-3.0L2.5,-0.5"/>
                </g>
                <g id="arrowRight" xlink:href="#dirArrow" transform="rotate(90) translate(36 -43)" onmousedown="handlePan(1,0)">
                  <use xlink:href="#rim" fill="#404040">
                        <set attributeName="fill" to="#808080" begin="arrowRight.mouseover" end="arrowRight.mouseout"/>
                  </use>
                  <path fill="none" stroke="white" stroke-width="1.5" d="M0,-3.0v7 M-2.5,-0.5L0,-3.0L2.5,-0.5"/>
                </g>
                <g id="arrowDown" xlink:href="#dirArrow" transform="rotate(180) translate(-30 -48)" onmousedown="handlePan(0,1)">
                  <use xlink:href="#rim" fill="#404040">
                        <set attributeName="fill" to="#808080" begin="arrowDown.mouseover" end="arrowDown.mouseout"/>
                  </use>
                  <path fill="none" stroke="white" stroke-width="1.5" d="M0,-3.0v7 M-2.5,-0.5L0,-3.0L2.5,-0.5"/>
                </g>
                <g id="arrowLeft" xlink:href="#dirArrow" transform="rotate(270) translate(-36 17)" onmousedown="handlePan(-1,0)">
                  <use xlink:href="#rim" fill="#404040">
                        <set attributeName="fill" to="#808080" begin="arrowLeft.mouseover" end="arrowLeft.mouseout"/>
                  </use>
                  <path fill="none" stroke="white" stroke-width="1.5" d="M0,-3.0v7 M-2.5,-0.5L0,-3.0L2.5,-0.5"/>
                </g>
        </g>
        <svg viewBox="0 0 15 15" width="100%" height="30px" preserveAspectRatio="xMaxYMin meet">
         <g id="arrow_out" transform="scale(0.3 0.3)">
          <a xlink:href="rc__fill_8cpp_ad19dfb6c3f3fbab67b8ec4b289fedd0a_icgraph_org.svg" target="_base">
           <rect id="button" ry="5" rx="5" y="6" x="6" height="38" width="38"
                fill="#f2f5e9" fill-opacity="0.5" stroke="#606060" stroke-width="1.0"/>
           <path id="arrow"
             d="M 11.500037,31.436501 C 11.940474,20.09759 22.043105,11.32322 32.158766,21.979434 L 37.068811,17.246167 C 37.068811,17.246167 37.088388,32 37.088388,32 L 22.160133,31.978069 C 22.160133,31.978069 26.997745,27.140456 26.997745,27.140456 C 18.528582,18.264221 13.291696,25.230495 11.500037,31.436501 z"
             style="fill:#404040;"/>
          </a>
         </g>
        </svg>
</svg>
