<?xml version="1.0" encoding="UTF-8" standalone="no"?>
<!DOCTYPE svg PUBLIC "-//W3C//DTD SVG 1.1//EN"
 "http://www.w3.org/Graphics/SVG/1.1/DTD/svg11.dtd">
<!-- Generated by graphviz version 2.32.0 (20130916.1925)
 -->
<!-- Title: rfImageConvertFloat8 Pages: 1 -->
<svg width="816pt" height="184pt"
 viewBox="0.00 0.00 816.00 184.00" xmlns="http://www.w3.org/2000/svg" xmlns:xlink="http://www.w3.org/1999/xlink">
<g id="graph0" class="graph" transform="scale(1 1) rotate(0) translate(4 180)">
<title>rfImageConvertFloat8</title>
<polygon fill="white" stroke="white" points="-4,5 -4,-180 813,-180 813,5 -4,5"/>
<!-- Node1 -->
<g id="node1" class="node"><title>Node1</title>
<polygon fill="#bfbfbf" stroke="black" points="0.645508,-97 0.645508,-117 113.354,-117 113.354,-97 0.645508,-97"/>
<text text-anchor="middle" x="57" y="-103" font-family="Helvetica,sans-Serif" font-size="10.00">rfImageConvertFloat8</text>
</g>
<!-- Node2 -->
<g id="node2" class="node"><title>Node2</title>
<g id="a_node2"><a xlink:href="classrc_window.html#a958e7e0bd74b12cbcb44e73a2692400a" target="_top" xlink:title="rcWindow::height">
<polygon fill="white" stroke="black" points="160.65,-156 160.65,-176 253.35,-176 253.35,-156 160.65,-156"/>
<text text-anchor="middle" x="207" y="-162" font-family="Helvetica,sans-Serif" font-size="10.00">rcWindow::height</text>
</a>
</g>
</g>
<!-- Node1&#45;&gt;Node2 -->
<g id="edge1" class="edge"><title>Node1&#45;&gt;Node2</title>
<path fill="none" stroke="midnightblue" d="M83.1062,-117.009C107.345,-126.671 144.251,-141.384 171.295,-152.165"/>
<polygon fill="midnightblue" stroke="midnightblue" points="170.185,-155.49 180.771,-155.942 172.778,-148.988 170.185,-155.49"/>
</g>
<!-- Node3 -->
<g id="node3" class="node"><title>Node3</title>
<g id="a_node3"><a xlink:href="classrc_window.html#a3286f93b0d223617111f3ac62b854b2f" target="_top" xlink:title="rcWindow::isBound">
<polygon fill="white" stroke="black" points="440.205,-117 440.205,-137 541.795,-137 541.795,-117 440.205,-117"/>
<text text-anchor="middle" x="491" y="-123" font-family="Helvetica,sans-Serif" font-size="10.00">rcWindow::isBound</text>
</a>
</g>
</g>
<!-- Node1&#45;&gt;Node3 -->
<g id="edge2" class="edge"><title>Node1&#45;&gt;Node3</title>
<path fill="none" stroke="midnightblue" d="M113.592,-109.574C194.97,-113.341 345.941,-120.331 429.838,-124.215"/>
<polygon fill="midnightblue" stroke="midnightblue" points="429.825,-127.718 439.976,-124.684 430.148,-120.725 429.825,-127.718"/>
</g>
<!-- Node4 -->
<g id="node4" class="node"><title>Node4</title>
<g id="a_node4"><a xlink:href="rc__ipconvert_8cpp.html#ac4bf90548ccbb5590ede53f8501d35cd" target="_top" xlink:title="rfImageConvertFloat8">
<polygon fill="white" stroke="black" points="150.646,-78 150.646,-98 263.354,-98 263.354,-78 150.646,-78"/>
<text text-anchor="middle" x="207" y="-84" font-family="Helvetica,sans-Serif" font-size="10.00">rfImageConvertFloat8</text>
</a>
</g>
</g>
<!-- Node1&#45;&gt;Node4 -->
<g id="edge3" class="edge"><title>Node1&#45;&gt;Node4</title>
<path fill="none" stroke="midnightblue" d="M113.531,-99.871C122.232,-98.754 131.296,-97.5903 140.201,-96.4472"/>
<polygon fill="midnightblue" stroke="midnightblue" points="140.685,-99.9138 150.158,-95.1689 139.794,-92.9708 140.685,-99.9138"/>
</g>
<!-- Node14 -->
<g id="node14" class="node"><title>Node14</title>
<g id="a_node14"><a xlink:href="classrc_window.html#a0ae0c2adbe34085eb07c93edd60b342a" target="_top" xlink:title="rcWindow::width">
<polygon fill="white" stroke="black" points="446.601,-0 446.601,-20 535.399,-20 535.399,-0 446.601,-0"/>
<text text-anchor="middle" x="491" y="-6" font-family="Helvetica,sans-Serif" font-size="10.00">rcWindow::width</text>
</a>
</g>
</g>
<!-- Node1&#45;&gt;Node14 -->
<g id="edge16" class="edge"><title>Node1&#45;&gt;Node14</title>
<path fill="none" stroke="midnightblue" d="M79.2046,-96.9149C97.6249,-88.4207 125.172,-76.3529 150,-68 215.183,-46.0708 232.296,-42.0751 300,-30 345.517,-21.8821 397.798,-16.6749 435.982,-13.6155"/>
<polygon fill="midnightblue" stroke="midnightblue" points="436.662,-17.0733 446.361,-12.8089 436.119,-10.0944 436.662,-17.0733"/>
</g>
<!-- Node4&#45;&gt;Node3 -->
<g id="edge4" class="edge"><title>Node4&#45;&gt;Node3</title>
<path fill="none" stroke="midnightblue" d="M263.743,-95.0338C301.63,-99.8883 352.871,-106.598 398,-113 408.304,-114.462 419.247,-116.074 429.855,-117.669"/>
<polygon fill="midnightblue" stroke="midnightblue" points="429.481,-121.152 439.892,-119.187 430.528,-114.231 429.481,-121.152"/>
</g>
<!-- Node5 -->
<g id="node5" class="node"><title>Node5</title>
<g id="a_node5"><a xlink:href="classrc_window.html#a2a036edf5b144800400615066e744e39" target="_top" xlink:title="rcWindow::vImage">
<polygon fill="white" stroke="black" points="299.877,-40 299.877,-60 398.123,-60 398.123,-40 299.877,-40"/>
<text text-anchor="middle" x="349" y="-46" font-family="Helvetica,sans-Serif" font-size="10.00">rcWindow::vImage</text>
</a>
</g>
</g>
<!-- Node4&#45;&gt;Node5 -->
<g id="edge5" class="edge"><title>Node4&#45;&gt;Node5</title>
<path fill="none" stroke="midnightblue" d="M245.15,-77.9165C262.237,-73.2784 282.702,-67.7237 300.861,-62.7948"/>
<polygon fill="midnightblue" stroke="midnightblue" points="301.943,-66.128 310.677,-60.1307 300.109,-59.3724 301.943,-66.128"/>
</g>
<!-- Node5&#45;&gt;Node3 -->
<g id="edge6" class="edge"><title>Node5&#45;&gt;Node3</title>
<path fill="none" stroke="midnightblue" d="M372.161,-60.11C380.523,-64.2894 389.954,-69.455 398,-75 415.627,-87.1476 415.582,-96.0888 434,-107 437.697,-109.19 441.673,-111.197 445.738,-113.022"/>
<polygon fill="midnightblue" stroke="midnightblue" points="444.719,-116.387 455.299,-116.952 447.38,-109.913 444.719,-116.387"/>
</g>
<!-- Node6 -->
<g id="node6" class="node"><title>Node6</title>
<g id="a_node6"><a xlink:href="classrc_window.html#a5cddcde6594113f6d8bb2dfb1f498c0a" target="_top" xlink:title="rcWindow::rowUpdate">
<polygon fill="white" stroke="black" points="434.094,-78 434.094,-98 547.906,-98 547.906,-78 434.094,-78"/>
<text text-anchor="middle" x="491" y="-84" font-family="Helvetica,sans-Serif" font-size="10.00">rcWindow::rowUpdate</text>
</a>
</g>
</g>
<!-- Node5&#45;&gt;Node6 -->
<g id="edge7" class="edge"><title>Node5&#45;&gt;Node6</title>
<path fill="none" stroke="midnightblue" d="M387.15,-60.0835C404.237,-64.7216 424.702,-70.2763 442.861,-75.2052"/>
<polygon fill="midnightblue" stroke="midnightblue" points="442.109,-78.6276 452.677,-77.8693 443.943,-71.872 442.109,-78.6276"/>
</g>
<!-- Node7 -->
<g id="node7" class="node"><title>Node7</title>
<g id="a_node7"><a xlink:href="classrc_window.html#a8bad48552f0db28803089113326911de" target="_top" xlink:title="rcWindow::pelPointer">
<polygon fill="white" stroke="black" points="435.759,-39 435.759,-59 546.241,-59 546.241,-39 435.759,-39"/>
<text text-anchor="middle" x="491" y="-45" font-family="Helvetica,sans-Serif" font-size="10.00">rcWindow::pelPointer</text>
</a>
</g>
</g>
<!-- Node5&#45;&gt;Node7 -->
<g id="edge8" class="edge"><title>Node5&#45;&gt;Node7</title>
<path fill="none" stroke="midnightblue" d="M398.18,-49.6559C406.915,-49.5935 416.154,-49.5275 425.273,-49.4623"/>
<polygon fill="midnightblue" stroke="midnightblue" points="425.509,-52.9608 435.484,-49.3894 425.459,-45.961 425.509,-52.9608"/>
</g>
<!-- Node5&#45;&gt;Node14 -->
<g id="edge15" class="edge"><title>Node5&#45;&gt;Node14</title>
<path fill="none" stroke="midnightblue" d="M385.328,-39.9063C403.401,-34.7427 425.598,-28.4005 444.895,-22.8873"/>
<polygon fill="midnightblue" stroke="midnightblue" points="446.03,-26.2031 454.683,-20.0905 444.107,-19.4724 446.03,-26.2031"/>
</g>
<!-- Node8 -->
<g id="node8" class="node"><title>Node8</title>
<g id="a_node8"><a xlink:href="classrc_frame.html#a8005eafc78f0008a7df596d55c2b23b9" target="_top" xlink:title="rcFrame::pelPointer">
<polygon fill="white" stroke="black" points="584.096,-78 584.096,-98 687.904,-98 687.904,-78 584.096,-78"/>
<text text-anchor="middle" x="636" y="-84" font-family="Helvetica,sans-Serif" font-size="10.00">rcFrame::pelPointer</text>
</a>
</g>
</g>
<!-- Node7&#45;&gt;Node8 -->
<g id="edge9" class="edge"><title>Node7&#45;&gt;Node8</title>
<path fill="none" stroke="midnightblue" d="M528.826,-59.0435C547.007,-64.002 569.135,-70.0369 588.475,-75.3114"/>
<polygon fill="midnightblue" stroke="midnightblue" points="587.73,-78.736 598.299,-77.9906 589.572,-71.9826 587.73,-78.736"/>
</g>
<!-- Node10 -->
<g id="node10" class="node"><title>Node10</title>
<g id="a_node10"><a xlink:href="classrc_rect.html#ac0f95519a41dcf7e33bec85ccb8e7aff" target="_top" xlink:title="rcRect::x">
<polygon fill="white" stroke="black" points="608.276,-39 608.276,-59 663.724,-59 663.724,-39 608.276,-39"/>
<text text-anchor="middle" x="636" y="-45" font-family="Helvetica,sans-Serif" font-size="10.00">rcRect::x</text>
</a>
</g>
</g>
<!-- Node7&#45;&gt;Node10 -->
<g id="edge11" class="edge"><title>Node7&#45;&gt;Node10</title>
<path fill="none" stroke="midnightblue" d="M546.47,-49C563.657,-49 582.238,-49 597.918,-49"/>
<polygon fill="midnightblue" stroke="midnightblue" points="598.257,-52.5001 608.257,-49 598.257,-45.5001 598.257,-52.5001"/>
</g>
<!-- Node12 -->
<g id="node12" class="node"><title>Node12</title>
<g id="a_node12"><a xlink:href="classrc_rect.html#a50236160751c949d8718f8d4d17f7923" target="_top" xlink:title="rcRect::y">
<polygon fill="white" stroke="black" points="608.276,-0 608.276,-20 663.724,-20 663.724,-0 608.276,-0"/>
<text text-anchor="middle" x="636" y="-6" font-family="Helvetica,sans-Serif" font-size="10.00">rcRect::y</text>
</a>
</g>
</g>
<!-- Node7&#45;&gt;Node12 -->
<g id="edge13" class="edge"><title>Node7&#45;&gt;Node12</title>
<path fill="none" stroke="midnightblue" d="M528.826,-38.9565C550.258,-33.1115 577.174,-25.7707 598.543,-19.9429"/>
<polygon fill="midnightblue" stroke="midnightblue" points="599.507,-23.3078 608.234,-17.2999 597.665,-16.5544 599.507,-23.3078"/>
</g>
<!-- Node9 -->
<g id="node9" class="node"><title>Node9</title>
<g id="a_node9"><a xlink:href="classrc_frame.html#aaef8303c840834284eb9c60d33bf40c1" target="_top" xlink:title="rcFrame::depth">
<polygon fill="white" stroke="black" points="724.099,-78 724.099,-98 807.901,-98 807.901,-78 724.099,-78"/>
<text text-anchor="middle" x="766" y="-84" font-family="Helvetica,sans-Serif" font-size="10.00">rcFrame::depth</text>
</a>
</g>
</g>
<!-- Node8&#45;&gt;Node9 -->
<g id="edge10" class="edge"><title>Node8&#45;&gt;Node9</title>
<path fill="none" stroke="midnightblue" d="M687.957,-88C696.482,-88 705.329,-88 713.859,-88"/>
<polygon fill="midnightblue" stroke="midnightblue" points="714.063,-91.5001 724.063,-88 714.063,-84.5001 714.063,-91.5001"/>
</g>
<!-- Node11 -->
<g id="node11" class="node"><title>Node11</title>
<g id="a_node11"><a xlink:href="classrc_pair.html#ad1a3cb1e7fdbe119ce1295514b1bb49d" target="_top" xlink:title="rcPair::x">
<polygon fill="white" stroke="black" points="739.665,-39 739.665,-59 792.335,-59 792.335,-39 739.665,-39"/>
<text text-anchor="middle" x="766" y="-45" font-family="Helvetica,sans-Serif" font-size="10.00">rcPair::x</text>
</a>
</g>
</g>
<!-- Node10&#45;&gt;Node11 -->
<g id="edge12" class="edge"><title>Node10&#45;&gt;Node11</title>
<path fill="none" stroke="midnightblue" d="M663.833,-49C682.898,-49 708.696,-49 729.469,-49"/>
<polygon fill="midnightblue" stroke="midnightblue" points="729.51,-52.5001 739.51,-49 729.51,-45.5001 729.51,-52.5001"/>
</g>
<!-- Node13 -->
<g id="node13" class="node"><title>Node13</title>
<g id="a_node13"><a xlink:href="classrc_pair.html#a87400f83938e920c405c40aa449d3607" target="_top" xlink:title="rcPair::y">
<polygon fill="white" stroke="black" points="739.665,-0 739.665,-20 792.335,-20 792.335,-0 739.665,-0"/>
<text text-anchor="middle" x="766" y="-6" font-family="Helvetica,sans-Serif" font-size="10.00">rcPair::y</text>
</a>
</g>
</g>
<!-- Node12&#45;&gt;Node13 -->
<g id="edge14" class="edge"><title>Node12&#45;&gt;Node13</title>
<path fill="none" stroke="midnightblue" d="M663.833,-10C682.898,-10 708.696,-10 729.469,-10"/>
<polygon fill="midnightblue" stroke="midnightblue" points="729.51,-13.5001 739.51,-10 729.51,-6.5001 729.51,-13.5001"/>
</g>
</g>
</svg>
