<?xml version="1.0" encoding="UTF-8" standalone="no"?>
<!DOCTYPE svg PUBLIC "-//W3C//DTD SVG 1.1//EN"
 "http://www.w3.org/Graphics/SVG/1.1/DTD/svg11.dtd">
<!-- Generated by graphviz version 2.32.0 (20130916.1925)
 -->
<!-- Title: writeAcqInfo Pages: 1 -->
<svg width="702pt" height="88pt"
 viewBox="0.00 0.00 702.00 87.55" xmlns="http://www.w3.org/2000/svg" xmlns:xlink="http://www.w3.org/1999/xlink">
<g id="graph0" class="graph" transform="scale(1 1) rotate(0) translate(4 83.5535)">
<title>writeAcqInfo</title>
<polygon fill="white" stroke="white" points="-4,5 -4,-83.5535 699,-83.5535 699,5 -4,5"/>
<!-- Node1 -->
<g id="node1" class="node"><title>Node1</title>
<polygon fill="#bfbfbf" stroke="black" points="0.487793,-0.553537 0.487793,-20.5535 71.5122,-20.5535 71.5122,-0.553537 0.487793,-0.553537"/>
<text text-anchor="middle" x="36" y="-6.55354" font-family="Helvetica,sans-Serif" font-size="10.00">writeAcqInfo</text>
</g>
<!-- Node2 -->
<g id="node2" class="node"><title>Node2</title>
<g id="a_node2"><a xlink:href="rc__qtime__capture_8cpp.html#a8d0ba828ab3f434bcecd5c62a5f2b363" target="_top" xlink:title="processControlRequests">
<polygon fill="white" stroke="black" points="108.251,-20.5535 108.251,-40.5535 233.749,-40.5535 233.749,-20.5535 108.251,-20.5535"/>
<text text-anchor="middle" x="171" y="-26.5535" font-family="Helvetica,sans-Serif" font-size="10.00">processControlRequests</text>
</a>
</g>
</g>
<!-- Node1&#45;&gt;Node2 -->
<g id="edge1" class="edge"><title>Node1&#45;&gt;Node2</title>
<path fill="none" stroke="midnightblue" d="M81.6257,-17.2642C90.0997,-18.5385 99.1069,-19.8929 108.006,-21.2311"/>
<polygon fill="midnightblue" stroke="midnightblue" points="82.0063,-13.7821 71.597,-15.7561 80.9653,-20.7043 82.0063,-13.7821"/>
</g>
<!-- Node5 -->
<g id="node5" class="node"><title>Node5</title>
<g id="a_node5"><a xlink:href="rc__qtime__capture_8h.html#adf4b66b022a2bc6ba21cddbc179756cb" target="_top" xlink:title="rfQTVideoCapture">
<polygon fill="white" stroke="black" points="522.514,-20.5535 522.514,-40.5535 619.486,-40.5535 619.486,-20.5535 522.514,-20.5535"/>
<text text-anchor="middle" x="571" y="-26.5535" font-family="Helvetica,sans-Serif" font-size="10.00">rfQTVideoCapture</text>
</a>
</g>
</g>
<!-- Node1&#45;&gt;Node5 -->
<g id="edge8" class="edge"><title>Node1&#45;&gt;Node5</title>
<path fill="none" stroke="midnightblue" d="M81.8492,-7.1073C162.879,-1.64601 338.925,6.714 486,-10.5535 502.675,-12.5113 520.838,-16.5842 535.995,-20.5467"/>
<polygon fill="midnightblue" stroke="midnightblue" points="81.255,-3.63998 71.5208,-7.82279 81.7388,-10.6232 81.255,-3.63998"/>
</g>
<!-- Node3 -->
<g id="node3" class="node"><title>Node3</title>
<g id="a_node3"><a xlink:href="rc__qtime__capture_8cpp.html#a9f1dc7cfc889a86496a942ebb577c308" target="_top" xlink:title="MGIdleTimer">
<polygon fill="white" stroke="black" points="270.292,-59.5535 270.292,-79.5535 343.708,-79.5535 343.708,-59.5535 270.292,-59.5535"/>
<text text-anchor="middle" x="307" y="-65.5535" font-family="Helvetica,sans-Serif" font-size="10.00">MGIdleTimer</text>
</a>
</g>
</g>
<!-- Node2&#45;&gt;Node3 -->
<g id="edge2" class="edge"><title>Node2&#45;&gt;Node3</title>
<path fill="none" stroke="midnightblue" d="M216.221,-43.4238C234.236,-48.667 254.745,-54.636 271.609,-59.5441"/>
<polygon fill="midnightblue" stroke="midnightblue" points="217.088,-40.031 206.508,-40.597 215.132,-46.7521 217.088,-40.031"/>
</g>
<!-- Node7 -->
<g id="node7" class="node"><title>Node7</title>
<g id="a_node7"><a xlink:href="rc__qtime__capture_8cpp.html#a624fb0d42c16afe3ebc037ff4106afab" target="_top" xlink:title="MungGrabDataProc">
<polygon fill="white" stroke="black" points="380.535,-20.5535 380.535,-40.5535 485.465,-40.5535 485.465,-20.5535 380.535,-20.5535"/>
<text text-anchor="middle" x="433" y="-26.5535" font-family="Helvetica,sans-Serif" font-size="10.00">MungGrabDataProc</text>
</a>
</g>
</g>
<!-- Node2&#45;&gt;Node7 -->
<g id="edge6" class="edge"><title>Node2&#45;&gt;Node7</title>
<path fill="none" stroke="midnightblue" d="M244.112,-30.5535C287.292,-30.5535 341.179,-30.5535 380.158,-30.5535"/>
<polygon fill="midnightblue" stroke="midnightblue" points="243.946,-27.0536 233.946,-30.5535 243.946,-34.0536 243.946,-27.0536"/>
</g>
<!-- Node4 -->
<g id="node4" class="node"><title>Node4</title>
<g id="a_node4"><a xlink:href="rc__qtime__capture_8cpp.html#a2949d8b66a729bde282524f2fcc99e0e" target="_top" xlink:title="InstallEvenHandlers">
<polygon fill="white" stroke="black" points="380.532,-59.5535 380.532,-79.5535 485.468,-79.5535 485.468,-59.5535 380.532,-59.5535"/>
<text text-anchor="middle" x="433" y="-65.5535" font-family="Helvetica,sans-Serif" font-size="10.00">InstallEvenHandlers</text>
</a>
</g>
</g>
<!-- Node3&#45;&gt;Node4 -->
<g id="edge3" class="edge"><title>Node3&#45;&gt;Node4</title>
<path fill="none" stroke="midnightblue" d="M353.975,-69.5535C362.476,-69.5535 371.409,-69.5535 380.072,-69.5535"/>
<polygon fill="midnightblue" stroke="midnightblue" points="353.866,-66.0536 343.866,-69.5535 353.866,-73.0536 353.866,-66.0536"/>
</g>
<!-- Node4&#45;&gt;Node5 -->
<g id="edge4" class="edge"><title>Node4&#45;&gt;Node5</title>
<path fill="none" stroke="midnightblue" d="M478.881,-56.6832C497.165,-51.4401 517.98,-45.4711 535.095,-40.563"/>
<polygon fill="midnightblue" stroke="midnightblue" points="477.671,-53.3891 469.023,-59.5101 479.601,-60.1179 477.671,-53.3891"/>
</g>
<!-- Node6 -->
<g id="node6" class="node"><title>Node6</title>
<g id="a_node6"><a xlink:href="rc__qtime__main_8cpp.html#a3c04138a5bfe5d72780bb7e82a18e627" target="_top" xlink:title="main">
<polygon fill="white" stroke="black" points="656.163,-20.5535 656.163,-40.5535 693.837,-40.5535 693.837,-20.5535 656.163,-20.5535"/>
<text text-anchor="middle" x="675" y="-26.5535" font-family="Helvetica,sans-Serif" font-size="10.00">main</text>
</a>
</g>
</g>
<!-- Node5&#45;&gt;Node6 -->
<g id="edge5" class="edge"><title>Node5&#45;&gt;Node6</title>
<path fill="none" stroke="midnightblue" d="M629.959,-30.5535C639.341,-30.5535 648.402,-30.5535 655.842,-30.5535"/>
<polygon fill="midnightblue" stroke="midnightblue" points="629.715,-27.0536 619.715,-30.5535 629.715,-34.0536 629.715,-27.0536"/>
</g>
<!-- Node7&#45;&gt;Node5 -->
<g id="edge7" class="edge"><title>Node7&#45;&gt;Node5</title>
<path fill="none" stroke="midnightblue" d="M496.071,-30.5535C504.901,-30.5535 513.865,-30.5535 522.362,-30.5535"/>
<polygon fill="midnightblue" stroke="midnightblue" points="495.804,-27.0536 485.804,-30.5535 495.804,-34.0536 495.804,-27.0536"/>
</g>
</g>
</svg>
