<?xml version="1.0" encoding="UTF-8" standalone="no"?>
<!DOCTYPE svg PUBLIC "-//W3C//DTD SVG 1.1//EN"
 "http://www.w3.org/Graphics/SVG/1.1/DTD/svg11.dtd">
<!-- Generated by graphviz version 2.32.0 (20130916.1925)
 -->
<!-- Title: rfImagePairMaskNeq Pages: 1 -->
<svg width="502pt" height="203pt"
 viewBox="0.00 0.00 502.00 203.00" xmlns="http://www.w3.org/2000/svg" xmlns:xlink="http://www.w3.org/1999/xlink">
<g id="graph0" class="graph" transform="scale(1 1) rotate(0) translate(4 199)">
<title>rfImagePairMaskNeq</title>
<polygon fill="white" stroke="white" points="-4,5 -4,-199 499,-199 499,5 -4,5"/>
<!-- Node1 -->
<g id="node1" class="node"><title>Node1</title>
<polygon fill="#bfbfbf" stroke="black" points="0.0395508,-97 0.0395508,-117 109.96,-117 109.96,-97 0.0395508,-97"/>
<text text-anchor="middle" x="55" y="-103" font-family="Helvetica,sans-Serif" font-size="10.00">rfImagePairMaskNeq</text>
</g>
<!-- Node2 -->
<g id="node2" class="node"><title>Node2</title>
<g id="a_node2"><a xlink:href="classrc_window.html#a9ab724dc45a3c3c2beee6c8ed558de1e" target="_top" xlink:title="rcWindow::depth">
<polygon fill="white" stroke="black" points="157.761,-175 157.761,-195 248.239,-195 248.239,-175 157.761,-175"/>
<text text-anchor="middle" x="203" y="-181" font-family="Helvetica,sans-Serif" font-size="10.00">rcWindow::depth</text>
</a>
</g>
</g>
<!-- Node1&#45;&gt;Node2 -->
<g id="edge1" class="edge"><title>Node1&#45;&gt;Node2</title>
<path fill="none" stroke="midnightblue" d="M69.4469,-117.072C86.5508,-129.546 117.319,-150.871 146,-165 150.571,-167.252 155.461,-169.379 160.378,-171.346"/>
<polygon fill="midnightblue" stroke="midnightblue" points="159.196,-174.641 169.787,-174.92 161.682,-168.097 159.196,-174.641"/>
</g>
<!-- Node3 -->
<g id="node3" class="node"><title>Node3</title>
<g id="a_node3"><a xlink:href="classrc_window.html#a958e7e0bd74b12cbcb44e73a2692400a" target="_top" xlink:title="rcWindow::height">
<polygon fill="white" stroke="black" points="156.65,-136 156.65,-156 249.35,-156 249.35,-136 156.65,-136"/>
<text text-anchor="middle" x="203" y="-142" font-family="Helvetica,sans-Serif" font-size="10.00">rcWindow::height</text>
</a>
</g>
</g>
<!-- Node1&#45;&gt;Node3 -->
<g id="edge2" class="edge"><title>Node1&#45;&gt;Node3</title>
<path fill="none" stroke="midnightblue" d="M93.5986,-117.043C112.246,-122.025 134.961,-128.092 154.771,-133.384"/>
<polygon fill="midnightblue" stroke="midnightblue" points="153.964,-136.791 164.529,-135.991 155.771,-130.028 153.964,-136.791"/>
</g>
<!-- Node4 -->
<g id="node4" class="node"><title>Node4</title>
<g id="a_node4"><a xlink:href="classrc_window.html#a3286f93b0d223617111f3ac62b854b2f" target="_top" xlink:title="rcWindow::isBound">
<polygon fill="white" stroke="black" points="152.205,-97 152.205,-117 253.795,-117 253.795,-97 152.205,-97"/>
<text text-anchor="middle" x="203" y="-103" font-family="Helvetica,sans-Serif" font-size="10.00">rcWindow::isBound</text>
</a>
</g>
</g>
<!-- Node1&#45;&gt;Node4 -->
<g id="edge3" class="edge"><title>Node1&#45;&gt;Node4</title>
<path fill="none" stroke="midnightblue" d="M110.365,-107C120.58,-107 131.317,-107 141.701,-107"/>
<polygon fill="midnightblue" stroke="midnightblue" points="141.934,-110.5 151.934,-107 141.934,-103.5 141.934,-110.5"/>
</g>
<!-- Node5 -->
<g id="node5" class="node"><title>Node5</title>
<g id="a_node5"><a xlink:href="classrc_window.html#a232627a15bd75725861721177a38df82" target="_top" xlink:title="rcWindow::rowPointer">
<polygon fill="white" stroke="black" points="146.375,-58 146.375,-78 259.625,-78 259.625,-58 146.375,-58"/>
<text text-anchor="middle" x="203" y="-64" font-family="Helvetica,sans-Serif" font-size="10.00">rcWindow::rowPointer</text>
</a>
</g>
</g>
<!-- Node1&#45;&gt;Node5 -->
<g id="edge4" class="edge"><title>Node1&#45;&gt;Node5</title>
<path fill="none" stroke="midnightblue" d="M93.5986,-96.9565C112.246,-91.9753 134.961,-85.9077 154.771,-80.6161"/>
<polygon fill="midnightblue" stroke="midnightblue" points="155.771,-83.9717 164.529,-78.0094 153.964,-77.2088 155.771,-83.9717"/>
</g>
<!-- Node12 -->
<g id="node12" class="node"><title>Node12</title>
<g id="a_node12"><a xlink:href="classrc_window.html#a0ae0c2adbe34085eb07c93edd60b342a" target="_top" xlink:title="rcWindow::width">
<polygon fill="white" stroke="black" points="158.601,-19 158.601,-39 247.399,-39 247.399,-19 158.601,-19"/>
<text text-anchor="middle" x="203" y="-25" font-family="Helvetica,sans-Serif" font-size="10.00">rcWindow::width</text>
</a>
</g>
</g>
<!-- Node1&#45;&gt;Node12 -->
<g id="edge11" class="edge"><title>Node1&#45;&gt;Node12</title>
<path fill="none" stroke="midnightblue" d="M69.4469,-96.9279C86.5508,-84.4545 117.319,-63.1293 146,-49 150.571,-46.7481 155.461,-44.6211 160.378,-42.6544"/>
<polygon fill="midnightblue" stroke="midnightblue" points="161.682,-45.903 169.787,-39.0796 159.196,-39.3593 161.682,-45.903"/>
</g>
<!-- Node6 -->
<g id="node6" class="node"><title>Node6</title>
<g id="a_node6"><a xlink:href="classrc_frame.html#a401a851fcb8a4328949d38cb34b572f6" target="_top" xlink:title="rcFrame::rowPointer">
<polygon fill="white" stroke="black" points="296.712,-117 296.712,-137 403.288,-137 403.288,-117 296.712,-117"/>
<text text-anchor="middle" x="350" y="-123" font-family="Helvetica,sans-Serif" font-size="10.00">rcFrame::rowPointer</text>
</a>
</g>
</g>
<!-- Node5&#45;&gt;Node6 -->
<g id="edge5" class="edge"><title>Node5&#45;&gt;Node6</title>
<path fill="none" stroke="midnightblue" d="M234.535,-78.0168C242.886,-80.996 251.873,-84.4258 260,-88 276.561,-95.2832 279.505,-99.5696 296,-107 300.754,-109.141 305.812,-111.254 310.844,-113.257"/>
<polygon fill="midnightblue" stroke="midnightblue" points="309.813,-116.611 320.403,-116.954 312.339,-110.082 309.813,-116.611"/>
</g>
<!-- Node7 -->
<g id="node7" class="node"><title>Node7</title>
<g id="a_node7"><a xlink:href="classrc_rect.html#a50236160751c949d8718f8d4d17f7923" target="_top" xlink:title="rcRect::y">
<polygon fill="white" stroke="black" points="322.276,-78 322.276,-98 377.724,-98 377.724,-78 322.276,-78"/>
<text text-anchor="middle" x="350" y="-84" font-family="Helvetica,sans-Serif" font-size="10.00">rcRect::y</text>
</a>
</g>
</g>
<!-- Node5&#45;&gt;Node7 -->
<g id="edge6" class="edge"><title>Node5&#45;&gt;Node7</title>
<path fill="none" stroke="midnightblue" d="M259.646,-75.6753C277.204,-78.0971 296.158,-80.7114 312.072,-82.9064"/>
<polygon fill="midnightblue" stroke="midnightblue" points="311.661,-86.3828 322.045,-84.2821 312.617,-79.4485 311.661,-86.3828"/>
</g>
<!-- Node9 -->
<g id="node9" class="node"><title>Node9</title>
<g id="a_node9"><a xlink:href="classrc_rect.html#ac0f95519a41dcf7e33bec85ccb8e7aff" target="_top" xlink:title="rcRect::x">
<polygon fill="white" stroke="black" points="322.276,-39 322.276,-59 377.724,-59 377.724,-39 322.276,-39"/>
<text text-anchor="middle" x="350" y="-45" font-family="Helvetica,sans-Serif" font-size="10.00">rcRect::x</text>
</a>
</g>
</g>
<!-- Node5&#45;&gt;Node9 -->
<g id="edge8" class="edge"><title>Node5&#45;&gt;Node9</title>
<path fill="none" stroke="midnightblue" d="M259.646,-60.7084C277.204,-58.4078 296.158,-55.9242 312.072,-53.8389"/>
<polygon fill="midnightblue" stroke="midnightblue" points="312.585,-57.3017 322.045,-52.532 311.675,-50.361 312.585,-57.3017"/>
</g>
<!-- Node11 -->
<g id="node11" class="node"><title>Node11</title>
<g id="a_node11"><a xlink:href="classrc_frame.html#aaef8303c840834284eb9c60d33bf40c1" target="_top" xlink:title="rcFrame::depth">
<polygon fill="white" stroke="black" points="308.099,-0 308.099,-20 391.901,-20 391.901,-0 308.099,-0"/>
<text text-anchor="middle" x="350" y="-6" font-family="Helvetica,sans-Serif" font-size="10.00">rcFrame::depth</text>
</a>
</g>
</g>
<!-- Node5&#45;&gt;Node11 -->
<g id="edge10" class="edge"><title>Node5&#45;&gt;Node11</title>
<path fill="none" stroke="midnightblue" d="M234.193,-57.9685C242.625,-54.9642 251.739,-51.5252 260,-48 276.453,-40.979 279.61,-37.1673 296,-30 300.832,-27.8869 305.965,-25.7816 311.062,-23.7734"/>
<polygon fill="midnightblue" stroke="midnightblue" points="312.651,-26.9121 320.727,-20.0548 310.137,-20.3789 312.651,-26.9121"/>
</g>
<!-- Node8 -->
<g id="node8" class="node"><title>Node8</title>
<g id="a_node8"><a xlink:href="classrc_pair.html#a87400f83938e920c405c40aa449d3607" target="_top" xlink:title="rcPair::y">
<polygon fill="white" stroke="black" points="440.665,-78 440.665,-98 493.335,-98 493.335,-78 440.665,-78"/>
<text text-anchor="middle" x="467" y="-84" font-family="Helvetica,sans-Serif" font-size="10.00">rcPair::y</text>
</a>
</g>
</g>
<!-- Node7&#45;&gt;Node8 -->
<g id="edge7" class="edge"><title>Node7&#45;&gt;Node8</title>
<path fill="none" stroke="midnightblue" d="M377.962,-88C393.576,-88 413.422,-88 430.317,-88"/>
<polygon fill="midnightblue" stroke="midnightblue" points="430.391,-91.5001 440.391,-88 430.391,-84.5001 430.391,-91.5001"/>
</g>
<!-- Node10 -->
<g id="node10" class="node"><title>Node10</title>
<g id="a_node10"><a xlink:href="classrc_pair.html#ad1a3cb1e7fdbe119ce1295514b1bb49d" target="_top" xlink:title="rcPair::x">
<polygon fill="white" stroke="black" points="440.665,-39 440.665,-59 493.335,-59 493.335,-39 440.665,-39"/>
<text text-anchor="middle" x="467" y="-45" font-family="Helvetica,sans-Serif" font-size="10.00">rcPair::x</text>
</a>
</g>
</g>
<!-- Node9&#45;&gt;Node10 -->
<g id="edge9" class="edge"><title>Node9&#45;&gt;Node10</title>
<path fill="none" stroke="midnightblue" d="M377.962,-49C393.576,-49 413.422,-49 430.317,-49"/>
<polygon fill="midnightblue" stroke="midnightblue" points="430.391,-52.5001 440.391,-49 430.391,-45.5001 430.391,-52.5001"/>
</g>
</g>
</svg>
