<?xml version="1.0" encoding="UTF-8" standalone="no"?>
<!DOCTYPE svg PUBLIC "-//W3C//DTD SVG 1.1//EN"
 "http://www.w3.org/Graphics/SVG/1.1/DTD/svg11.dtd">
<!-- Generated by graphviz version 2.32.0 (20130916.1925)
 -->
<!-- Title: src/visible/qt/rc_playbacksettingwidget.cpp Pages: 1 -->
<svg width="1517pt" height="610pt"
 viewBox="0.00 0.00 1517.00 610.00" xmlns="http://www.w3.org/2000/svg" xmlns:xlink="http://www.w3.org/1999/xlink">
<g id="graph0" class="graph" transform="scale(1 1) rotate(0) translate(4 606)">
<title>src/visible/qt/rc_playbacksettingwidget.cpp</title>
<polygon fill="white" stroke="white" points="-4,5 -4,-606 1514,-606 1514,5 -4,5"/>
<!-- Node1 -->
<g id="node1" class="node"><title>Node1</title>
<polygon fill="#bfbfbf" stroke="black" points="306.789,-581 306.789,-601 511.211,-601 511.211,-581 306.789,-581"/>
<text text-anchor="middle" x="409" y="-587" font-family="Helvetica,sans-Serif" font-size="10.00">src/visible/qt/rc_playbacksettingwidget.cpp</text>
</g>
<!-- Node2 -->
<g id="node2" class="node"><title>Node2</title>
<polygon fill="white" stroke="#bfbfbf" points="-0.396484,-523 -0.396484,-543 48.3965,-543 48.3965,-523 -0.396484,-523"/>
<text text-anchor="middle" x="24" y="-529" font-family="Helvetica,sans-Serif" font-size="10.00">string.h</text>
</g>
<!-- Node1&#45;&gt;Node2 -->
<g id="edge1" class="edge"><title>Node1&#45;&gt;Node2</title>
<path fill="none" stroke="midnightblue" d="M308.062,-580.982C240.013,-573.915 148.158,-562.465 58.2203,-543.745"/>
<polygon fill="midnightblue" stroke="midnightblue" points="58.9055,-540.313 48.398,-541.67 57.4584,-547.162 58.9055,-540.313"/>
</g>
<!-- Node3 -->
<g id="node3" class="node"><title>Node3</title>
<polygon fill="white" stroke="#bfbfbf" points="66.877,-523 66.877,-543 115.123,-543 115.123,-523 66.877,-523"/>
<text text-anchor="middle" x="91" y="-529" font-family="Helvetica,sans-Serif" font-size="10.00">QLabel</text>
</g>
<!-- Node1&#45;&gt;Node3 -->
<g id="edge2" class="edge"><title>Node1&#45;&gt;Node3</title>
<path fill="none" stroke="midnightblue" d="M336.148,-580.987C280.625,-573.486 202.17,-561.536 125.267,-544.067"/>
<polygon fill="midnightblue" stroke="midnightblue" points="125.941,-540.631 115.41,-541.796 124.368,-547.452 125.941,-540.631"/>
</g>
<!-- Node4 -->
<g id="node4" class="node"><title>Node4</title>
<polygon fill="white" stroke="#bfbfbf" points="267.143,-465 267.143,-485 344.857,-485 344.857,-465 267.143,-465"/>
<text text-anchor="middle" x="306" y="-471" font-family="Helvetica,sans-Serif" font-size="10.00">qapplication.h</text>
</g>
<!-- Node1&#45;&gt;Node4 -->
<g id="edge3" class="edge"><title>Node1&#45;&gt;Node4</title>
<path fill="none" stroke="midnightblue" d="M459.582,-580.956C503.488,-570.88 556.468,-551.95 532,-522 530.587,-520.271 421.325,-498.6 355.26,-485.63"/>
<polygon fill="midnightblue" stroke="midnightblue" points="355.538,-482.117 345.051,-483.627 354.19,-488.986 355.538,-482.117"/>
</g>
<!-- Node5 -->
<g id="node5" class="node"><title>Node5</title>
<polygon fill="white" stroke="#bfbfbf" points="286.815,-523 286.815,-543 351.185,-543 351.185,-523 286.815,-523"/>
<text text-anchor="middle" x="319" y="-529" font-family="Helvetica,sans-Serif" font-size="10.00">qspinbox.h</text>
</g>
<!-- Node1&#45;&gt;Node5 -->
<g id="edge4" class="edge"><title>Node1&#45;&gt;Node5</title>
<path fill="none" stroke="midnightblue" d="M394.138,-580.753C379.984,-571.946 358.467,-558.558 342.081,-548.362"/>
<polygon fill="midnightblue" stroke="midnightblue" points="343.925,-545.387 333.585,-543.075 340.227,-551.33 343.925,-545.387"/>
</g>
<!-- Node6 -->
<g id="node6" class="node"><title>Node6</title>
<polygon fill="white" stroke="#bfbfbf" points="369.306,-523 369.306,-543 448.694,-543 448.694,-523 369.306,-523"/>
<text text-anchor="middle" x="409" y="-529" font-family="Helvetica,sans-Serif" font-size="10.00">qpushbutton.h</text>
</g>
<!-- Node1&#45;&gt;Node6 -->
<g id="edge5" class="edge"><title>Node1&#45;&gt;Node6</title>
<path fill="none" stroke="midnightblue" d="M409,-580.753C409,-573.25 409,-562.424 409,-553.078"/>
<polygon fill="midnightblue" stroke="midnightblue" points="412.5,-553.075 409,-543.075 405.5,-553.075 412.5,-553.075"/>
</g>
<!-- Node7 -->
<g id="node7" class="node"><title>Node7</title>
<polygon fill="white" stroke="#bfbfbf" points="466.707,-523 466.707,-543 523.293,-543 523.293,-523 466.707,-523"/>
<text text-anchor="middle" x="495" y="-529" font-family="Helvetica,sans-Serif" font-size="10.00">qtooltip.h</text>
</g>
<!-- Node1&#45;&gt;Node7 -->
<g id="edge6" class="edge"><title>Node1&#45;&gt;Node7</title>
<path fill="none" stroke="midnightblue" d="M423.201,-580.753C436.601,-572.027 456.907,-558.805 472.508,-548.646"/>
<polygon fill="midnightblue" stroke="midnightblue" points="474.593,-551.465 481.063,-543.075 470.773,-545.599 474.593,-551.465"/>
</g>
<!-- Node8 -->
<g id="node8" class="node"><title>Node8</title>
<g id="a_node8"><a xlink:href="rc__playbacksettingwidget_8h.html" target="_top" xlink:title="rc_playbacksettingwidget.h">
<polygon fill="white" stroke="black" points="132.966,-523 132.966,-543 269.034,-543 269.034,-523 132.966,-523"/>
<text text-anchor="middle" x="201" y="-529" font-family="Helvetica,sans-Serif" font-size="10.00">rc_playbacksettingwidget.h</text>
</a>
</g>
</g>
<!-- Node1&#45;&gt;Node8 -->
<g id="edge7" class="edge"><title>Node1&#45;&gt;Node8</title>
<path fill="none" stroke="midnightblue" d="M375.118,-580.878C339.507,-571.29 283.363,-556.175 244.5,-545.712"/>
<polygon fill="midnightblue" stroke="midnightblue" points="245.089,-542.245 234.523,-543.025 243.269,-549.005 245.089,-542.245"/>
</g>
<!-- Node27 -->
<g id="node27" class="node"><title>Node27</title>
<g id="a_node27"><a xlink:href="rc__modeldomain_8h.html" target="_top" xlink:title="rc_modeldomain.h">
<polygon fill="white" stroke="black" points="578.867,-523 578.867,-543 677.133,-543 677.133,-523 578.867,-523"/>
<text text-anchor="middle" x="628" y="-529" font-family="Helvetica,sans-Serif" font-size="10.00">rc_modeldomain.h</text>
</a>
</g>
</g>
<!-- Node1&#45;&gt;Node27 -->
<g id="edge32" class="edge"><title>Node1&#45;&gt;Node27</title>
<path fill="none" stroke="midnightblue" d="M444.674,-580.878C482.408,-571.229 542.036,-555.982 582.981,-545.512"/>
<polygon fill="midnightblue" stroke="midnightblue" points="583.883,-548.894 592.705,-543.025 582.149,-542.112 583.883,-548.894"/>
</g>
<!-- Node48 -->
<g id="node48" class="node"><title>Node48</title>
<g id="a_node48"><a xlink:href="rc__appconstants_8h.html" target="_top" xlink:title="rc_appconstants.h">
<polygon fill="white" stroke="black" points="1331.14,-523 1331.14,-543 1428.86,-543 1428.86,-523 1331.14,-523"/>
<text text-anchor="middle" x="1380" y="-529" font-family="Helvetica,sans-Serif" font-size="10.00">rc_appconstants.h</text>
</a>
</g>
</g>
<!-- Node1&#45;&gt;Node48 -->
<g id="edge73" class="edge"><title>Node1&#45;&gt;Node48</title>
<path fill="none" stroke="midnightblue" d="M511.536,-584.086C714.153,-572.401 1160.1,-546.682 1320.81,-537.414"/>
<polygon fill="midnightblue" stroke="midnightblue" points="1321.19,-540.897 1330.98,-536.827 1320.79,-533.909 1321.19,-540.897"/>
</g>
<!-- Node9 -->
<g id="node9" class="node"><title>Node9</title>
<g id="a_node9"><a xlink:href="rc__settingwidget_8h.html" target="_top" xlink:title="rc_settingwidget.h">
<polygon fill="white" stroke="black" points="152.7,-465 152.7,-485 249.3,-485 249.3,-465 152.7,-465"/>
<text text-anchor="middle" x="201" y="-471" font-family="Helvetica,sans-Serif" font-size="10.00">rc_settingwidget.h</text>
</a>
</g>
</g>
<!-- Node8&#45;&gt;Node9 -->
<g id="edge8" class="edge"><title>Node8&#45;&gt;Node9</title>
<path fill="none" stroke="midnightblue" d="M201,-522.753C201,-515.25 201,-504.424 201,-495.078"/>
<polygon fill="midnightblue" stroke="midnightblue" points="204.5,-495.075 201,-485.075 197.5,-495.075 204.5,-495.075"/>
</g>
<!-- Node10 -->
<g id="node10" class="node"><title>Node10</title>
<g id="a_node10"><a xlink:href="rc__setting_8h.html" target="_top" xlink:title="rc_setting.h">
<polygon fill="white" stroke="black" points="438.153,-349 438.153,-369 505.847,-369 505.847,-349 438.153,-349"/>
<text text-anchor="middle" x="472" y="-355" font-family="Helvetica,sans-Serif" font-size="10.00">rc_setting.h</text>
</a>
</g>
</g>
<!-- Node9&#45;&gt;Node10 -->
<g id="edge9" class="edge"><title>Node9&#45;&gt;Node10</title>
<path fill="none" stroke="midnightblue" d="M222.924,-464.859C245.132,-455.593 280.467,-440.832 311,-428 356.376,-408.93 408.893,-386.724 441.28,-373.013"/>
<polygon fill="midnightblue" stroke="midnightblue" points="442.811,-376.166 450.655,-369.044 440.082,-369.72 442.811,-376.166"/>
</g>
<!-- Node23 -->
<g id="node23" class="node"><title>Node23</title>
<polygon fill="white" stroke="#bfbfbf" points="99.5962,-407 99.5962,-427 158.404,-427 158.404,-407 99.5962,-407"/>
<text text-anchor="middle" x="129" y="-413" font-family="Helvetica,sans-Serif" font-size="10.00">qwidget.h</text>
</g>
<!-- Node9&#45;&gt;Node23 -->
<g id="edge28" class="edge"><title>Node9&#45;&gt;Node23</title>
<path fill="none" stroke="midnightblue" d="M189.111,-464.753C178.102,-456.19 161.526,-443.298 148.567,-433.219"/>
<polygon fill="midnightblue" stroke="midnightblue" points="150.71,-430.452 140.668,-427.075 146.413,-435.977 150.71,-430.452"/>
</g>
<!-- Node24 -->
<g id="node24" class="node"><title>Node24</title>
<polygon fill="white" stroke="#bfbfbf" points="176.485,-407 176.485,-427 227.515,-427 227.515,-407 176.485,-407"/>
<text text-anchor="middle" x="202" y="-413" font-family="Helvetica,sans-Serif" font-size="10.00">qlabel.h</text>
</g>
<!-- Node9&#45;&gt;Node24 -->
<g id="edge29" class="edge"><title>Node9&#45;&gt;Node24</title>
<path fill="none" stroke="midnightblue" d="M201.165,-464.753C201.299,-457.25 201.492,-446.424 201.659,-437.078"/>
<polygon fill="midnightblue" stroke="midnightblue" points="205.159,-437.136 201.838,-427.075 198.16,-437.011 205.159,-437.136"/>
</g>
<!-- Node25 -->
<g id="node25" class="node"><title>Node25</title>
<polygon fill="white" stroke="#bfbfbf" points="245.707,-407 245.707,-427 302.293,-427 302.293,-407 245.707,-407"/>
<text text-anchor="middle" x="274" y="-413" font-family="Helvetica,sans-Serif" font-size="10.00">qlayout.h</text>
</g>
<!-- Node9&#45;&gt;Node25 -->
<g id="edge30" class="edge"><title>Node9&#45;&gt;Node25</title>
<path fill="none" stroke="midnightblue" d="M213.054,-464.753C224.216,-456.19 241.023,-443.298 254.161,-433.219"/>
<polygon fill="midnightblue" stroke="midnightblue" points="256.366,-435.939 262.17,-427.075 252.105,-430.385 256.366,-435.939"/>
</g>
<!-- Node26 -->
<g id="node26" class="node"><title>Node26</title>
<polygon fill="white" stroke="#bfbfbf" points="4.70215,-407 4.70215,-427 81.2979,-427 81.2979,-407 4.70215,-407"/>
<text text-anchor="middle" x="43" y="-413" font-family="Helvetica,sans-Serif" font-size="10.00">Q3BoxLayout</text>
</g>
<!-- Node9&#45;&gt;Node26 -->
<g id="edge31" class="edge"><title>Node9&#45;&gt;Node26</title>
<path fill="none" stroke="midnightblue" d="M175.263,-464.878C148.787,-455.494 107.372,-440.815 77.9453,-430.386"/>
<polygon fill="midnightblue" stroke="midnightblue" points="79.059,-427.067 68.4643,-427.025 76.7205,-433.665 79.059,-427.067"/>
</g>
<!-- Node11 -->
<g id="node11" class="node"><title>Node11</title>
<g id="a_node11"><a xlink:href="rc__value_8h.html" target="_top" xlink:title="rc_value.h">
<polygon fill="white" stroke="black" points="512.931,-291 512.931,-311 575.069,-311 575.069,-291 512.931,-291"/>
<text text-anchor="middle" x="544" y="-297" font-family="Helvetica,sans-Serif" font-size="10.00">rc_value.h</text>
</a>
</g>
</g>
<!-- Node10&#45;&gt;Node11 -->
<g id="edge10" class="edge"><title>Node10&#45;&gt;Node11</title>
<path fill="none" stroke="midnightblue" d="M483.889,-348.753C494.898,-340.19 511.474,-327.298 524.433,-317.219"/>
<polygon fill="midnightblue" stroke="midnightblue" points="526.587,-319.977 532.332,-311.075 522.29,-314.452 526.587,-319.977"/>
</g>
<!-- Node21 -->
<g id="node21" class="node"><title>Node21</title>
<g id="a_node21"><a xlink:href="rc__uitypes_8h.html" target="_top" xlink:title="rc_uitypes.h">
<polygon fill="white" stroke="black" points="698.042,-233 698.042,-253 767.958,-253 767.958,-233 698.042,-233"/>
<text text-anchor="middle" x="733" y="-239" font-family="Helvetica,sans-Serif" font-size="10.00">rc_uitypes.h</text>
</a>
</g>
</g>
<!-- Node10&#45;&gt;Node21 -->
<g id="edge26" class="edge"><title>Node10&#45;&gt;Node21</title>
<path fill="none" stroke="midnightblue" d="M495.844,-348.873C518.688,-339.972 554.02,-325.797 584,-312 603.501,-303.025 607.588,-299.166 627,-290 651.743,-278.316 680.211,-266.024 701.411,-257.089"/>
<polygon fill="midnightblue" stroke="midnightblue" points="703.024,-260.208 710.892,-253.112 700.317,-253.752 703.024,-260.208"/>
</g>
<!-- Node22 -->
<g id="node22" class="node"><title>Node22</title>
<g id="a_node22"><a xlink:href="rc__atomic_8h.html" target="_top" xlink:title="rc_atomic.h">
<polygon fill="white" stroke="red" points="427.158,-291 427.158,-311 494.842,-311 494.842,-291 427.158,-291"/>
<text text-anchor="middle" x="461" y="-297" font-family="Helvetica,sans-Serif" font-size="10.00">rc_atomic.h</text>
</a>
</g>
</g>
<!-- Node10&#45;&gt;Node22 -->
<g id="edge27" class="edge"><title>Node10&#45;&gt;Node22</title>
<path fill="none" stroke="midnightblue" d="M470.184,-348.753C468.71,-341.25 466.583,-330.424 464.747,-321.078"/>
<polygon fill="midnightblue" stroke="midnightblue" points="468.145,-320.213 462.783,-311.075 461.276,-321.562 468.145,-320.213"/>
</g>
<!-- Node12 -->
<g id="node12" class="node"><title>Node12</title>
<polygon fill="white" stroke="#bfbfbf" points="516.773,-1 516.773,-21 557.227,-21 557.227,-1 516.773,-1"/>
<text text-anchor="middle" x="537" y="-7" font-family="Helvetica,sans-Serif" font-size="10.00">string</text>
</g>
<!-- Node11&#45;&gt;Node12 -->
<g id="edge11" class="edge"><title>Node11&#45;&gt;Node12</title>
<path fill="none" stroke="midnightblue" d="M512.537,-292.274C461.697,-279.777 366.391,-256.285 359,-254 288.33,-232.152 270.535,-226.177 203,-196 194.288,-192.107 184,-195.543 184,-186 184,-186 184,-186 184,-126 184,-58.4502 421.036,-25.0572 506.632,-15.2008"/>
<polygon fill="midnightblue" stroke="midnightblue" points="507.206,-18.6584 516.753,-14.0645 506.425,-11.7021 507.206,-18.6584"/>
</g>
<!-- Node13 -->
<g id="node13" class="node"><title>Node13</title>
<polygon fill="white" stroke="#bfbfbf" points="612.828,-175 612.828,-195 667.172,-195 667.172,-175 612.828,-175"/>
<text text-anchor="middle" x="640" y="-181" font-family="Helvetica,sans-Serif" font-size="10.00">iostream</text>
</g>
<!-- Node11&#45;&gt;Node13 -->
<g id="edge12" class="edge"><title>Node11&#45;&gt;Node13</title>
<path fill="none" stroke="midnightblue" d="M549.329,-290.719C557.319,-277.161 573.259,-251.441 590,-232 599.38,-221.107 611.161,-210.16 620.932,-201.679"/>
<polygon fill="midnightblue" stroke="midnightblue" points="623.214,-204.333 628.569,-195.191 618.681,-198.998 623.214,-204.333"/>
</g>
<!-- Node14 -->
<g id="node14" class="node"><title>Node14</title>
<g id="a_node14"><a xlink:href="rc__exception_8h.html" target="_top" xlink:title="rc_exception.h">
<polygon fill="white" stroke="red" points="599.48,-233 599.48,-253 680.52,-253 680.52,-233 599.48,-233"/>
<text text-anchor="middle" x="640" y="-239" font-family="Helvetica,sans-Serif" font-size="10.00">rc_exception.h</text>
</a>
</g>
</g>
<!-- Node11&#45;&gt;Node14 -->
<g id="edge13" class="edge"><title>Node11&#45;&gt;Node14</title>
<path fill="none" stroke="midnightblue" d="M559.852,-290.753C574.95,-281.946 597.901,-268.558 615.38,-258.362"/>
<polygon fill="midnightblue" stroke="midnightblue" points="617.568,-261.137 624.443,-253.075 614.041,-255.091 617.568,-261.137"/>
</g>
<!-- Node15 -->
<g id="node15" class="node"><title>Node15</title>
<g id="a_node15"><a xlink:href="rc__rect_8h.html" target="_top" xlink:title="rc_rect.h">
<polygon fill="white" stroke="red" points="420.549,-117 420.549,-137 475.451,-137 475.451,-117 420.549,-117"/>
<text text-anchor="middle" x="448" y="-123" font-family="Helvetica,sans-Serif" font-size="10.00">rc_rect.h</text>
</a>
</g>
</g>
<!-- Node11&#45;&gt;Node15 -->
<g id="edge15" class="edge"><title>Node11&#45;&gt;Node15</title>
<path fill="none" stroke="midnightblue" d="M549.1,-290.815C560.665,-268.624 586.008,-211.181 561,-174 544.302,-149.174 511.629,-137.74 485.694,-132.478"/>
<polygon fill="midnightblue" stroke="midnightblue" points="486.237,-129.019 475.774,-130.691 484.996,-135.908 486.237,-129.019"/>
</g>
<!-- Node17 -->
<g id="node17" class="node"><title>Node17</title>
<g id="a_node17"><a xlink:href="rc__affine_8h.html" target="_top" xlink:title="rc_affine.h">
<polygon fill="white" stroke="black" points="367.653,-233 367.653,-253 430.347,-253 430.347,-233 367.653,-233"/>
<text text-anchor="middle" x="399" y="-239" font-family="Helvetica,sans-Serif" font-size="10.00">rc_affine.h</text>
</a>
</g>
</g>
<!-- Node11&#45;&gt;Node17 -->
<g id="edge18" class="edge"><title>Node11&#45;&gt;Node17</title>
<path fill="none" stroke="midnightblue" d="M520.381,-290.878C496.366,-281.603 458.959,-267.156 432.017,-256.752"/>
<polygon fill="midnightblue" stroke="midnightblue" points="433.199,-253.456 422.609,-253.118 430.677,-259.986 433.199,-253.456"/>
</g>
<!-- Node11&#45;&gt;Node21 -->
<g id="edge24" class="edge"><title>Node11&#45;&gt;Node21</title>
<path fill="none" stroke="midnightblue" d="M574.787,-290.878C606.87,-281.372 657.293,-266.432 692.568,-255.98"/>
<polygon fill="midnightblue" stroke="midnightblue" points="693.946,-259.222 702.54,-253.025 691.957,-252.51 693.946,-259.222"/>
</g>
<!-- Node14&#45;&gt;Node13 -->
<g id="edge14" class="edge"><title>Node14&#45;&gt;Node13</title>
<path fill="none" stroke="midnightblue" d="M640,-232.753C640,-225.25 640,-214.424 640,-205.078"/>
<polygon fill="midnightblue" stroke="midnightblue" points="643.5,-205.075 640,-195.075 636.5,-205.075 643.5,-205.075"/>
</g>
<!-- Node16 -->
<g id="node16" class="node"><title>Node16</title>
<g id="a_node16"><a xlink:href="rc__types_8h.html" target="_top" xlink:title="rc_types.h">
<polygon fill="white" stroke="red" points="858.934,-59 858.934,-79 921.066,-79 921.066,-59 858.934,-59"/>
<text text-anchor="middle" x="890" y="-65" font-family="Helvetica,sans-Serif" font-size="10.00">rc_types.h</text>
</a>
</g>
</g>
<!-- Node15&#45;&gt;Node16 -->
<g id="edge16" class="edge"><title>Node15&#45;&gt;Node16</title>
<path fill="none" stroke="midnightblue" d="M475.649,-122.497C550.912,-112.961 759.766,-86.5002 848.865,-75.2116"/>
<polygon fill="midnightblue" stroke="midnightblue" points="849.389,-78.6733 858.87,-73.9441 848.509,-71.7288 849.389,-78.6733"/>
</g>
<!-- Node16&#45;&gt;Node12 -->
<g id="edge17" class="edge"><title>Node16&#45;&gt;Node12</title>
<path fill="none" stroke="midnightblue" d="M858.674,-63.0304C791.542,-52.3806 634.51,-27.4689 567.827,-16.8904"/>
<polygon fill="midnightblue" stroke="midnightblue" points="567.986,-13.3719 557.561,-15.2618 566.889,-20.2855 567.986,-13.3719"/>
</g>
<!-- Node17&#45;&gt;Node15 -->
<g id="edge20" class="edge"><title>Node17&#45;&gt;Node15</title>
<path fill="none" stroke="midnightblue" d="M379.077,-232.955C354.887,-220.674 319.166,-197.541 335,-174 351.698,-149.174 384.371,-137.74 410.306,-132.478"/>
<polygon fill="midnightblue" stroke="midnightblue" points="411.004,-135.908 420.226,-130.691 409.763,-129.019 411.004,-135.908"/>
</g>
<!-- Node18 -->
<g id="node18" class="node"><title>Node18</title>
<g id="a_node18"><a xlink:href="rc__xforms_8h.html" target="_top" xlink:title="rc_xforms.h">
<polygon fill="white" stroke="red" points="483.884,-175 483.884,-195 552.116,-195 552.116,-175 483.884,-175"/>
<text text-anchor="middle" x="518" y="-181" font-family="Helvetica,sans-Serif" font-size="10.00">rc_xforms.h</text>
</a>
</g>
</g>
<!-- Node17&#45;&gt;Node18 -->
<g id="edge19" class="edge"><title>Node17&#45;&gt;Node18</title>
<path fill="none" stroke="midnightblue" d="M418.384,-232.878C437.661,-223.807 467.451,-209.788 489.436,-199.442"/>
<polygon fill="midnightblue" stroke="midnightblue" points="491.066,-202.543 498.624,-195.118 488.086,-196.209 491.066,-202.543"/>
</g>
<!-- Node19 -->
<g id="node19" class="node"><title>Node19</title>
<polygon fill="white" stroke="#bfbfbf" points="344.195,-175 344.195,-195 465.805,-195 465.805,-175 344.195,-175"/>
<text text-anchor="middle" x="405" y="-181" font-family="Helvetica,sans-Serif" font-size="10.00">Accelerate/Accelerate.h</text>
</g>
<!-- Node17&#45;&gt;Node19 -->
<g id="edge21" class="edge"><title>Node17&#45;&gt;Node19</title>
<path fill="none" stroke="midnightblue" d="M399.991,-232.753C400.795,-225.25 401.955,-214.424 402.956,-205.078"/>
<polygon fill="midnightblue" stroke="midnightblue" points="406.442,-205.391 404.028,-195.075 399.482,-204.645 406.442,-205.391"/>
</g>
<!-- Node20 -->
<g id="node20" class="node"><title>Node20</title>
<g id="a_node20"><a xlink:href="rc__graphics_8h.html" target="_top" xlink:title="rc_graphics.h">
<polygon fill="white" stroke="red" points="211.985,-175 211.985,-195 288.015,-195 288.015,-175 211.985,-175"/>
<text text-anchor="middle" x="250" y="-181" font-family="Helvetica,sans-Serif" font-size="10.00">rc_graphics.h</text>
</a>
</g>
</g>
<!-- Node17&#45;&gt;Node20 -->
<g id="edge22" class="edge"><title>Node17&#45;&gt;Node20</title>
<path fill="none" stroke="midnightblue" d="M374.729,-232.878C350.052,-223.603 311.613,-209.156 283.928,-198.752"/>
<polygon fill="midnightblue" stroke="midnightblue" points="284.853,-195.36 274.261,-195.118 282.39,-201.913 284.853,-195.36"/>
</g>
<!-- Node20&#45;&gt;Node15 -->
<g id="edge23" class="edge"><title>Node20&#45;&gt;Node15</title>
<path fill="none" stroke="midnightblue" d="M282.253,-174.878C317.31,-164.963 373.27,-149.136 410.323,-138.656"/>
<polygon fill="midnightblue" stroke="midnightblue" points="411.569,-141.941 420.239,-135.852 409.664,-135.205 411.569,-141.941"/>
</g>
<!-- Node21&#45;&gt;Node16 -->
<g id="edge25" class="edge"><title>Node21&#45;&gt;Node16</title>
<path fill="none" stroke="midnightblue" d="M734.12,-232.773C737.35,-209.982 748.685,-150.39 782,-116 799.953,-97.4672 826.565,-86.0143 848.879,-79.1715"/>
<polygon fill="midnightblue" stroke="midnightblue" points="850.128,-82.4548 858.783,-76.343 848.206,-75.7239 850.128,-82.4548"/>
</g>
<!-- Node27&#45;&gt;Node4 -->
<g id="edge33" class="edge"><title>Node27&#45;&gt;Node4</title>
<path fill="none" stroke="midnightblue" d="M578.377,-523.776C524.364,-514.763 435.475,-499.752 359,-486 357.73,-485.772 356.443,-485.539 355.145,-485.303"/>
<polygon fill="midnightblue" stroke="midnightblue" points="355.529,-481.815 345.061,-483.448 354.263,-488.699 355.529,-481.815"/>
</g>
<!-- Node27&#45;&gt;Node17 -->
<g id="edge67" class="edge"><title>Node27&#45;&gt;Node17</title>
<path fill="none" stroke="midnightblue" d="M608.366,-522.972C565.627,-502.292 463.776,-447.252 411,-370 388.983,-337.772 391.742,-289.607 395.495,-263.136"/>
<polygon fill="midnightblue" stroke="midnightblue" points="398.955,-263.66 397.094,-253.229 392.045,-262.544 398.955,-263.66"/>
</g>
<!-- Node28 -->
<g id="node28" class="node"><title>Node28</title>
<polygon fill="white" stroke="#bfbfbf" points="599.707,-465 599.707,-485 656.293,-485 656.293,-465 599.707,-465"/>
<text text-anchor="middle" x="628" y="-471" font-family="Helvetica,sans-Serif" font-size="10.00">qobject.h</text>
</g>
<!-- Node27&#45;&gt;Node28 -->
<g id="edge34" class="edge"><title>Node27&#45;&gt;Node28</title>
<path fill="none" stroke="midnightblue" d="M628,-522.753C628,-515.25 628,-504.424 628,-495.078"/>
<polygon fill="midnightblue" stroke="midnightblue" points="631.5,-495.075 628,-485.075 624.5,-495.075 631.5,-495.075"/>
</g>
<!-- Node29 -->
<g id="node29" class="node"><title>Node29</title>
<polygon fill="white" stroke="#bfbfbf" points="674.099,-465 674.099,-485 757.901,-485 757.901,-465 674.099,-465"/>
<text text-anchor="middle" x="716" y="-471" font-family="Helvetica,sans-Serif" font-size="10.00">QCustomEvent</text>
</g>
<!-- Node27&#45;&gt;Node29 -->
<g id="edge35" class="edge"><title>Node27&#45;&gt;Node29</title>
<path fill="none" stroke="midnightblue" d="M642.531,-522.753C656.243,-514.027 677.021,-500.805 692.985,-490.646"/>
<polygon fill="midnightblue" stroke="midnightblue" points="695.181,-493.397 701.739,-485.075 691.423,-487.491 695.181,-493.397"/>
</g>
<!-- Node30 -->
<g id="node30" class="node"><title>Node30</title>
<g id="a_node30"><a xlink:href="rc__model_8h.html" target="_top" xlink:title="rc_model.h">
<polygon fill="white" stroke="black" points="578.266,-407 578.266,-427 643.734,-427 643.734,-407 578.266,-407"/>
<text text-anchor="middle" x="611" y="-413" font-family="Helvetica,sans-Serif" font-size="10.00">rc_model.h</text>
</a>
</g>
</g>
<!-- Node27&#45;&gt;Node30 -->
<g id="edge36" class="edge"><title>Node27&#45;&gt;Node30</title>
<path fill="none" stroke="midnightblue" d="M617.205,-522.668C608.249,-514.155 596.176,-500.693 591,-486 585.144,-469.375 592.102,-450.067 599.368,-436.282"/>
<polygon fill="midnightblue" stroke="midnightblue" points="602.563,-437.747 604.534,-427.338 596.502,-434.246 602.563,-437.747"/>
</g>
<!-- Node44 -->
<g id="node44" class="node"><title>Node44</title>
<g id="a_node44"><a xlink:href="rc__security_8h.html" target="_top" xlink:title="rc_security.h">
<polygon fill="white" stroke="black" points="1340.03,-117 1340.03,-137 1411.97,-137 1411.97,-117 1340.03,-117"/>
<text text-anchor="middle" x="1376" y="-123" font-family="Helvetica,sans-Serif" font-size="10.00">rc_security.h</text>
</a>
</g>
</g>
<!-- Node27&#45;&gt;Node44 -->
<g id="edge65" class="edge"><title>Node27&#45;&gt;Node44</title>
<path fill="none" stroke="midnightblue" d="M677.181,-531.341C844.595,-527.79 1382,-505.091 1382,-360 1382,-360 1382,-360 1382,-242 1382,-208.599 1379.4,-169.77 1377.62,-147.135"/>
<polygon fill="midnightblue" stroke="midnightblue" points="1381.11,-146.836 1376.81,-137.153 1374.13,-147.404 1381.11,-146.836"/>
</g>
<!-- Node45 -->
<g id="node45" class="node"><title>Node45</title>
<g id="a_node45"><a xlink:href="rc__customeventmanager_8h.html" target="_top" xlink:title="rc_customeventmanager.h">
<polygon fill="white" stroke="black" points="776.077,-465 776.077,-485 909.923,-485 909.923,-465 776.077,-465"/>
<text text-anchor="middle" x="843" y="-471" font-family="Helvetica,sans-Serif" font-size="10.00">rc_customeventmanager.h</text>
</a>
</g>
</g>
<!-- Node27&#45;&gt;Node45 -->
<g id="edge68" class="edge"><title>Node27&#45;&gt;Node45</title>
<path fill="none" stroke="midnightblue" d="M663.022,-522.878C699.989,-513.249 758.359,-498.046 798.548,-487.578"/>
<polygon fill="midnightblue" stroke="midnightblue" points="799.554,-490.933 808.349,-485.025 797.79,-484.159 799.554,-490.933"/>
</g>
<!-- Node30&#45;&gt;Node10 -->
<g id="edge39" class="edge"><title>Node30&#45;&gt;Node10</title>
<path fill="none" stroke="midnightblue" d="M588.358,-406.878C565.438,-397.644 529.792,-383.283 503.992,-372.889"/>
<polygon fill="midnightblue" stroke="midnightblue" points="505.216,-369.609 494.632,-369.118 502.6,-376.102 505.216,-369.609"/>
</g>
<!-- Node30&#45;&gt;Node11 -->
<g id="edge37" class="edge"><title>Node30&#45;&gt;Node11</title>
<path fill="none" stroke="midnightblue" d="M593.204,-406.86C579.82,-398.988 562.257,-386.321 553,-370 544.563,-355.124 542.76,-335.539 542.802,-321.21"/>
<polygon fill="midnightblue" stroke="midnightblue" points="546.306,-321.146 543.141,-311.035 539.31,-320.913 546.306,-321.146"/>
</g>
<!-- Node30&#45;&gt;Node17 -->
<g id="edge63" class="edge"><title>Node30&#45;&gt;Node17</title>
<path fill="none" stroke="midnightblue" d="M578.236,-411.821C531.661,-405.22 449.654,-390.942 429,-370 400.676,-341.282 397.316,-290.948 397.842,-263.389"/>
<polygon fill="midnightblue" stroke="midnightblue" points="401.35,-263.231 398.243,-253.102 394.356,-262.958 401.35,-263.231"/>
</g>
<!-- Node30&#45;&gt;Node20 -->
<g id="edge62" class="edge"><title>Node30&#45;&gt;Node20</title>
<path fill="none" stroke="midnightblue" d="M578.243,-414.606C536.637,-411.523 463.898,-401.638 411,-370 339.104,-326.999 282.372,-240.938 260.155,-203.77"/>
<polygon fill="midnightblue" stroke="midnightblue" points="263.116,-201.9 255.039,-195.042 257.077,-205.44 263.116,-201.9"/>
</g>
<!-- Node30&#45;&gt;Node21 -->
<g id="edge38" class="edge"><title>Node30&#45;&gt;Node21</title>
<path fill="none" stroke="midnightblue" d="M629.967,-406.858C643.603,-399.135 660.948,-386.663 669,-370 684.489,-337.946 648.308,-321.444 665,-290 672.548,-275.782 686.67,-265.156 700.098,-257.72"/>
<polygon fill="midnightblue" stroke="midnightblue" points="701.878,-260.741 709.193,-253.077 698.695,-254.507 701.878,-260.741"/>
</g>
<!-- Node31 -->
<g id="node31" class="node"><title>Node31</title>
<g id="a_node31"><a xlink:href="rc__timestamp_8h.html" target="_top" xlink:title="rc_timestamp.h">
<polygon fill="white" stroke="black" points="1155.82,-233 1155.82,-253 1240.18,-253 1240.18,-233 1155.82,-233"/>
<text text-anchor="middle" x="1198" y="-239" font-family="Helvetica,sans-Serif" font-size="10.00">rc_timestamp.h</text>
</a>
</g>
</g>
<!-- Node30&#45;&gt;Node31 -->
<g id="edge40" class="edge"><title>Node30&#45;&gt;Node31</title>
<path fill="none" stroke="midnightblue" d="M643.825,-412.227C744.827,-400.196 1049.31,-360.66 1135,-312 1156.76,-299.644 1175.33,-277.213 1186.55,-261.503"/>
<polygon fill="midnightblue" stroke="midnightblue" points="1189.51,-263.382 1192.28,-253.157 1183.74,-259.42 1189.51,-263.382"/>
</g>
<!-- Node33 -->
<g id="node33" class="node"><title>Node33</title>
<g id="a_node33"><a xlink:href="rc__xml_8h.html" target="_top" xlink:title="rc_xml.h">
<polygon fill="white" stroke="black" points="800.108,-349 800.108,-369 853.892,-369 853.892,-349 800.108,-349"/>
<text text-anchor="middle" x="827" y="-355" font-family="Helvetica,sans-Serif" font-size="10.00">rc_xml.h</text>
</a>
</g>
</g>
<!-- Node30&#45;&gt;Node33 -->
<g id="edge44" class="edge"><title>Node30&#45;&gt;Node33</title>
<path fill="none" stroke="midnightblue" d="M643.806,-407.495C683.191,-397.284 749.061,-380.206 790.159,-369.551"/>
<polygon fill="midnightblue" stroke="midnightblue" points="791.241,-372.887 800.043,-366.989 789.484,-366.111 791.241,-372.887"/>
</g>
<!-- Node41 -->
<g id="node41" class="node"><title>Node41</title>
<g id="a_node41"><a xlink:href="rc__persistencemanager_8h.html" target="_top" xlink:title="rc_persistencemanager.h">
<polygon fill="white" stroke="black" points="1187.85,-349 1187.85,-369 1316.15,-369 1316.15,-349 1187.85,-349"/>
<text text-anchor="middle" x="1252" y="-355" font-family="Helvetica,sans-Serif" font-size="10.00">rc_persistencemanager.h</text>
</a>
</g>
</g>
<!-- Node30&#45;&gt;Node41 -->
<g id="edge59" class="edge"><title>Node30&#45;&gt;Node41</title>
<path fill="none" stroke="midnightblue" d="M644.113,-413.107C743.03,-404.465 1038.09,-378.688 1177.49,-366.51"/>
<polygon fill="midnightblue" stroke="midnightblue" points="1178,-369.979 1187.65,-365.622 1177.39,-363.005 1178,-369.979"/>
</g>
<!-- Node43 -->
<g id="node43" class="node"><title>Node43</title>
<g id="a_node43"><a xlink:href="rc__polygongroup_8h.html" target="_top" xlink:title="rc_polygongroup.h">
<polygon fill="white" stroke="red" points="561.582,-349 561.582,-369 660.418,-369 660.418,-349 561.582,-349"/>
<text text-anchor="middle" x="611" y="-355" font-family="Helvetica,sans-Serif" font-size="10.00">rc_polygongroup.h</text>
</a>
</g>
</g>
<!-- Node30&#45;&gt;Node43 -->
<g id="edge64" class="edge"><title>Node30&#45;&gt;Node43</title>
<path fill="none" stroke="midnightblue" d="M611,-406.753C611,-399.25 611,-388.424 611,-379.078"/>
<polygon fill="midnightblue" stroke="midnightblue" points="614.5,-379.075 611,-369.075 607.5,-379.075 614.5,-379.075"/>
</g>
<!-- Node31&#45;&gt;Node13 -->
<g id="edge42" class="edge"><title>Node31&#45;&gt;Node13</title>
<path fill="none" stroke="midnightblue" d="M1155.77,-233.516C1152.47,-232.964 1149.19,-232.45 1146,-232 971.57,-207.361 761.351,-193.17 677.336,-188.12"/>
<polygon fill="midnightblue" stroke="midnightblue" points="677.451,-184.621 667.261,-187.523 677.036,-191.609 677.451,-184.621"/>
</g>
<!-- Node31&#45;&gt;Node16 -->
<g id="edge41" class="edge"><title>Node31&#45;&gt;Node16</title>
<path fill="none" stroke="midnightblue" d="M1197.83,-232.801C1197.06,-218.403 1193.52,-190.487 1178,-174 1111.7,-103.559 994.133,-80.7124 931.686,-73.3892"/>
<polygon fill="midnightblue" stroke="midnightblue" points="931.743,-69.8747 921.422,-72.2679 930.983,-76.8333 931.743,-69.8747"/>
</g>
<!-- Node32 -->
<g id="node32" class="node"><title>Node32</title>
<polygon fill="white" stroke="#bfbfbf" points="1126.1,-175 1126.1,-195 1169.9,-195 1169.9,-175 1126.1,-175"/>
<text text-anchor="middle" x="1148" y="-181" font-family="Helvetica,sans-Serif" font-size="10.00">deque</text>
</g>
<!-- Node31&#45;&gt;Node32 -->
<g id="edge43" class="edge"><title>Node31&#45;&gt;Node32</title>
<path fill="none" stroke="midnightblue" d="M1189.74,-232.753C1182.46,-224.598 1171.67,-212.516 1162.89,-202.677"/>
<polygon fill="midnightblue" stroke="midnightblue" points="1165.37,-200.204 1156.1,-195.075 1160.15,-204.866 1165.37,-200.204"/>
</g>
<!-- Node33&#45;&gt;Node16 -->
<g id="edge48" class="edge"><title>Node33&#45;&gt;Node16</title>
<path fill="none" stroke="midnightblue" d="M799.963,-351.395C767.207,-341.872 718.128,-321.846 733,-290 743.546,-267.417 759.674,-272.833 776,-254 823.292,-199.447 863.808,-123.142 881.083,-88.4603"/>
<polygon fill="midnightblue" stroke="midnightblue" points="884.411,-89.6221 885.679,-79.1034 878.129,-86.5356 884.411,-89.6221"/>
</g>
<!-- Node34 -->
<g id="node34" class="node"><title>Node34</title>
<polygon fill="white" stroke="#bfbfbf" points="834.33,-233 834.33,-253 883.67,-253 883.67,-233 834.33,-233"/>
<text text-anchor="middle" x="859" y="-239" font-family="Helvetica,sans-Serif" font-size="10.00">fstream</text>
</g>
<!-- Node33&#45;&gt;Node34 -->
<g id="edge45" class="edge"><title>Node33&#45;&gt;Node34</title>
<path fill="none" stroke="midnightblue" d="M799.882,-349.764C768.226,-338.683 722.419,-317.186 741,-290 750.796,-275.667 793.404,-261.514 824.618,-252.772"/>
<polygon fill="midnightblue" stroke="midnightblue" points="825.571,-256.14 834.296,-250.131 823.727,-249.387 825.571,-256.14"/>
</g>
<!-- Node35 -->
<g id="node35" class="node"><title>Node35</title>
<polygon fill="white" stroke="#bfbfbf" points="915.273,-233 915.273,-253 950.727,-253 950.727,-233 915.273,-233"/>
<text text-anchor="middle" x="933" y="-239" font-family="Helvetica,sans-Serif" font-size="10.00">map</text>
</g>
<!-- Node33&#45;&gt;Node35 -->
<g id="edge46" class="edge"><title>Node33&#45;&gt;Node35</title>
<path fill="none" stroke="midnightblue" d="M810.779,-348.84C789.868,-335.853 757.991,-311.297 774,-290 778.026,-284.644 860.612,-262.668 905.129,-251.138"/>
<polygon fill="midnightblue" stroke="midnightblue" points="906.232,-254.468 915.041,-248.58 904.483,-247.69 906.232,-254.468"/>
</g>
<!-- Node36 -->
<g id="node36" class="node"><title>Node36</title>
<polygon fill="white" stroke="#bfbfbf" points="1015.38,-233 1015.38,-253 1058.62,-253 1058.62,-233 1015.38,-233"/>
<text text-anchor="middle" x="1037" y="-239" font-family="Helvetica,sans-Serif" font-size="10.00">vector</text>
</g>
<!-- Node33&#45;&gt;Node36 -->
<g id="edge47" class="edge"><title>Node33&#45;&gt;Node36</title>
<path fill="none" stroke="midnightblue" d="M854.329,-357.704C917.452,-356.382 1070.41,-349.314 1102,-312 1118.56,-292.437 1090.38,-271.303 1066.1,-257.876"/>
<polygon fill="midnightblue" stroke="midnightblue" points="1067.56,-254.691 1057.09,-253.127 1064.3,-260.885 1067.56,-254.691"/>
</g>
<!-- Node37 -->
<g id="node37" class="node"><title>Node37</title>
<polygon fill="white" stroke="#bfbfbf" points="1076.49,-233 1076.49,-253 1137.51,-253 1137.51,-233 1076.49,-233"/>
<text text-anchor="middle" x="1107" y="-239" font-family="Helvetica,sans-Serif" font-size="10.00">rc_tree.hh</text>
</g>
<!-- Node33&#45;&gt;Node37 -->
<g id="edge49" class="edge"><title>Node33&#45;&gt;Node37</title>
<path fill="none" stroke="midnightblue" d="M853.947,-357.987C919.445,-357.325 1084.11,-351.666 1118,-312 1129.61,-298.407 1123.91,-277.499 1117.16,-262.456"/>
<polygon fill="midnightblue" stroke="midnightblue" points="1120.11,-260.529 1112.51,-253.141 1113.84,-263.652 1120.11,-260.529"/>
</g>
<!-- Node38 -->
<g id="node38" class="node"><title>Node38</title>
<g id="a_node38"><a xlink:href="rc__xmldefs_8h.html" target="_top" xlink:title="rc_xmldefs.h">
<polygon fill="white" stroke="black" points="889.658,-291 889.658,-311 962.342,-311 962.342,-291 889.658,-291"/>
<text text-anchor="middle" x="926" y="-297" font-family="Helvetica,sans-Serif" font-size="10.00">rc_xmldefs.h</text>
</a>
</g>
</g>
<!-- Node33&#45;&gt;Node38 -->
<g id="edge50" class="edge"><title>Node33&#45;&gt;Node38</title>
<path fill="none" stroke="midnightblue" d="M843.348,-348.753C859.062,-339.864 883.025,-326.309 901.11,-316.079"/>
<polygon fill="midnightblue" stroke="midnightblue" points="902.976,-319.045 909.956,-311.075 899.529,-312.952 902.976,-319.045"/>
</g>
<!-- Node39 -->
<g id="node39" class="node"><title>Node39</title>
<g id="a_node39"><a xlink:href="rc__xmldefs__v0_8h.html" target="_top" xlink:title="rc_xmldefs_v0.h">
<polygon fill="white" stroke="black" points="782.596,-291 782.596,-311 871.404,-311 871.404,-291 782.596,-291"/>
<text text-anchor="middle" x="827" y="-297" font-family="Helvetica,sans-Serif" font-size="10.00">rc_xmldefs_v0.h</text>
</a>
</g>
</g>
<!-- Node33&#45;&gt;Node39 -->
<g id="edge51" class="edge"><title>Node33&#45;&gt;Node39</title>
<path fill="none" stroke="midnightblue" d="M827,-348.753C827,-341.25 827,-330.424 827,-321.078"/>
<polygon fill="midnightblue" stroke="midnightblue" points="830.5,-321.075 827,-311.075 823.5,-321.075 830.5,-321.075"/>
</g>
<!-- Node40 -->
<g id="node40" class="node"><title>Node40</title>
<g id="a_node40"><a xlink:href="rc__xmlelem_8h.html" target="_top" xlink:title="rc_xmlelem.h">
<polygon fill="white" stroke="black" points="1018.27,-291 1018.27,-311 1093.73,-311 1093.73,-291 1018.27,-291"/>
<text text-anchor="middle" x="1056" y="-297" font-family="Helvetica,sans-Serif" font-size="10.00">rc_xmlelem.h</text>
</a>
</g>
</g>
<!-- Node33&#45;&gt;Node40 -->
<g id="edge52" class="edge"><title>Node33&#45;&gt;Node40</title>
<path fill="none" stroke="midnightblue" d="M854.169,-351.356C892.359,-342.017 962.463,-324.874 1009.16,-313.455"/>
<polygon fill="midnightblue" stroke="midnightblue" points="1010.15,-316.814 1019.04,-311.039 1008.49,-310.015 1010.15,-316.814"/>
</g>
<!-- Node40&#45;&gt;Node16 -->
<g id="edge56" class="edge"><title>Node40&#45;&gt;Node16</title>
<path fill="none" stroke="midnightblue" d="M1044.46,-290.897C1033.77,-282.125 1017.78,-268.135 1006,-254 959.572,-198.29 917.522,-122.617 899.409,-88.2836"/>
<polygon fill="midnightblue" stroke="midnightblue" points="902.494,-86.6291 894.764,-79.3835 896.289,-89.8681 902.494,-86.6291"/>
</g>
<!-- Node40&#45;&gt;Node31 -->
<g id="edge58" class="edge"><title>Node40&#45;&gt;Node31</title>
<path fill="none" stroke="midnightblue" d="M1079.13,-290.878C1102.55,-281.644 1138.96,-267.283 1165.32,-256.889"/>
<polygon fill="midnightblue" stroke="midnightblue" points="1166.86,-260.043 1174.88,-253.118 1164.29,-253.531 1166.86,-260.043"/>
</g>
<!-- Node40&#45;&gt;Node34 -->
<g id="edge53" class="edge"><title>Node40&#45;&gt;Node34</title>
<path fill="none" stroke="midnightblue" d="M1023.91,-290.878C988.133,-280.708 930.475,-264.318 893.681,-253.859"/>
<polygon fill="midnightblue" stroke="midnightblue" points="894.468,-250.444 883.892,-251.076 892.554,-257.177 894.468,-250.444"/>
</g>
<!-- Node40&#45;&gt;Node35 -->
<g id="edge54" class="edge"><title>Node40&#45;&gt;Node35</title>
<path fill="none" stroke="midnightblue" d="M1035.96,-290.878C1015.35,-281.495 983.118,-266.818 960.21,-256.388"/>
<polygon fill="midnightblue" stroke="midnightblue" points="961.576,-253.164 951.024,-252.206 958.675,-259.535 961.576,-253.164"/>
</g>
<!-- Node40&#45;&gt;Node36 -->
<g id="edge55" class="edge"><title>Node40&#45;&gt;Node36</title>
<path fill="none" stroke="midnightblue" d="M1052.86,-290.753C1050.29,-283.169 1046.56,-272.188 1043.37,-262.774"/>
<polygon fill="midnightblue" stroke="midnightblue" points="1046.61,-261.42 1040.08,-253.075 1039.98,-263.67 1046.61,-261.42"/>
</g>
<!-- Node40&#45;&gt;Node37 -->
<g id="edge57" class="edge"><title>Node40&#45;&gt;Node37</title>
<path fill="none" stroke="midnightblue" d="M1064.42,-290.753C1071.85,-282.598 1082.85,-270.516 1091.81,-260.677"/>
<polygon fill="midnightblue" stroke="midnightblue" points="1094.59,-262.825 1098.74,-253.075 1089.41,-258.112 1094.59,-262.825"/>
</g>
<!-- Node41&#45;&gt;Node16 -->
<g id="edge60" class="edge"><title>Node41&#45;&gt;Node16</title>
<path fill="none" stroke="midnightblue" d="M1260.66,-348.843C1268.56,-340.033 1280.03,-326.017 1287,-312 1300.97,-283.902 1306,-275.38 1306,-244 1306,-244 1306,-244 1306,-184 1306,-106.896 1036.82,-80.0718 931.519,-72.5285"/>
<polygon fill="midnightblue" stroke="midnightblue" points="931.486,-69.0178 921.268,-71.8182 931.002,-76.0011 931.486,-69.0178"/>
</g>
<!-- Node42 -->
<g id="node42" class="node"><title>Node42</title>
<polygon fill="white" stroke="#bfbfbf" points="1225.94,-291 1225.94,-311 1278.06,-311 1278.06,-291 1225.94,-291"/>
<text text-anchor="middle" x="1252" y="-297" font-family="Helvetica,sans-Serif" font-size="10.00">ostream</text>
</g>
<!-- Node41&#45;&gt;Node42 -->
<g id="edge61" class="edge"><title>Node41&#45;&gt;Node42</title>
<path fill="none" stroke="midnightblue" d="M1252,-348.753C1252,-341.25 1252,-330.424 1252,-321.078"/>
<polygon fill="midnightblue" stroke="midnightblue" points="1255.5,-321.075 1252,-311.075 1248.5,-321.075 1255.5,-321.075"/>
</g>
<!-- Node44&#45;&gt;Node16 -->
<g id="edge66" class="edge"><title>Node44&#45;&gt;Node16</title>
<path fill="none" stroke="midnightblue" d="M1339.91,-119.172C1333.3,-118.031 1326.45,-116.92 1320,-116 1177.85,-95.7296 1008.1,-80.0723 931.323,-73.449"/>
<polygon fill="midnightblue" stroke="midnightblue" points="931.383,-69.9414 921.12,-72.5749 930.785,-76.9158 931.383,-69.9414"/>
</g>
<!-- Node45&#45;&gt;Node30 -->
<g id="edge70" class="edge"><title>Node45&#45;&gt;Node30</title>
<path fill="none" stroke="midnightblue" d="M805.467,-464.94C764.032,-454.939 697.451,-438.867 653.961,-428.37"/>
<polygon fill="midnightblue" stroke="midnightblue" points="654.513,-424.903 643.971,-425.959 652.871,-431.707 654.513,-424.903"/>
</g>
<!-- Node45&#45;&gt;Node31 -->
<g id="edge69" class="edge"><title>Node45&#45;&gt;Node31</title>
<path fill="none" stroke="midnightblue" d="M910.039,-469.631C1029.98,-460.266 1273.58,-433.697 1325,-370 1361.21,-325.139 1278.14,-279.089 1229.73,-257.16"/>
<polygon fill="midnightblue" stroke="midnightblue" points="1231.11,-253.947 1220.55,-253.104 1228.28,-260.349 1231.11,-253.947"/>
</g>
<!-- Node46 -->
<g id="node46" class="node"><title>Node46</title>
<polygon fill="white" stroke="#bfbfbf" points="783.495,-407 783.495,-427 834.505,-427 834.505,-407 783.495,-407"/>
<text text-anchor="middle" x="809" y="-413" font-family="Helvetica,sans-Serif" font-size="10.00">QMutex</text>
</g>
<!-- Node45&#45;&gt;Node46 -->
<g id="edge71" class="edge"><title>Node45&#45;&gt;Node46</title>
<path fill="none" stroke="midnightblue" d="M837.386,-464.753C832.633,-456.924 825.682,-445.476 819.848,-435.868"/>
<polygon fill="midnightblue" stroke="midnightblue" points="822.692,-433.807 814.51,-427.075 816.708,-437.44 822.692,-433.807"/>
</g>
<!-- Node47 -->
<g id="node47" class="node"><title>Node47</title>
<polygon fill="white" stroke="#bfbfbf" points="852.325,-407 852.325,-427 901.675,-427 901.675,-407 852.325,-407"/>
<text text-anchor="middle" x="877" y="-413" font-family="Helvetica,sans-Serif" font-size="10.00">QEvent</text>
</g>
<!-- Node45&#45;&gt;Node47 -->
<g id="edge72" class="edge"><title>Node45&#45;&gt;Node47</title>
<path fill="none" stroke="midnightblue" d="M848.614,-464.753C853.367,-456.924 860.318,-445.476 866.152,-435.868"/>
<polygon fill="midnightblue" stroke="midnightblue" points="869.292,-437.44 871.49,-427.075 863.308,-433.807 869.292,-437.44"/>
</g>
<!-- Node48&#45;&gt;Node21 -->
<g id="edge75" class="edge"><title>Node48&#45;&gt;Node21</title>
<path fill="none" stroke="midnightblue" d="M1364.69,-522.894C1291.03,-479.089 976.448,-292.067 971,-290 906.665,-265.593 827.426,-253.598 778.563,-248.117"/>
<polygon fill="midnightblue" stroke="midnightblue" points="778.633,-244.605 768.316,-247.014 777.883,-251.564 778.633,-244.605"/>
</g>
<!-- Node49 -->
<g id="node49" class="node"><title>Node49</title>
<polygon fill="white" stroke="#bfbfbf" points="1428.2,-407 1428.2,-427 1509.8,-427 1509.8,-407 1428.2,-407"/>
<text text-anchor="middle" x="1469" y="-413" font-family="Helvetica,sans-Serif" font-size="10.00">qnamespace.h</text>
</g>
<!-- Node48&#45;&gt;Node49 -->
<g id="edge74" class="edge"><title>Node48&#45;&gt;Node49</title>
<path fill="none" stroke="midnightblue" d="M1416.73,-522.942C1435.87,-516.155 1457.6,-504.719 1469,-486 1477.9,-471.375 1476.72,-451.496 1474.02,-437.01"/>
<polygon fill="midnightblue" stroke="midnightblue" points="1477.41,-436.147 1471.8,-427.16 1470.58,-437.685 1477.41,-436.147"/>
</g>
<!-- Node50 -->
<g id="node50" class="node"><title>Node50</title>
<g id="a_node50"><a xlink:href="rc__uiconstants_8h.html" target="_top" xlink:title="rc_uiconstants.h">
<polygon fill="white" stroke="black" points="1371.59,-465 1371.59,-485 1460.41,-485 1460.41,-465 1371.59,-465"/>
<text text-anchor="middle" x="1416" y="-471" font-family="Helvetica,sans-Serif" font-size="10.00">rc_uiconstants.h</text>
</a>
</g>
</g>
<!-- Node48&#45;&gt;Node50 -->
<g id="edge76" class="edge"><title>Node48&#45;&gt;Node50</title>
<path fill="none" stroke="midnightblue" d="M1385.94,-522.753C1391.03,-514.843 1398.49,-503.237 1404.71,-493.568"/>
<polygon fill="midnightblue" stroke="midnightblue" points="1407.7,-495.38 1410.17,-485.075 1401.81,-491.594 1407.7,-495.38"/>
</g>
<!-- Node50&#45;&gt;Node49 -->
<g id="edge77" class="edge"><title>Node50&#45;&gt;Node49</title>
<path fill="none" stroke="midnightblue" d="M1424.75,-464.753C1432.55,-456.516 1444.13,-444.274 1453.5,-434.382"/>
<polygon fill="midnightblue" stroke="midnightblue" points="1456.08,-436.744 1460.41,-427.075 1451,-431.932 1456.08,-436.744"/>
</g>
</g>
</svg>
