<?xml version="1.0" encoding="UTF-8" standalone="no"?>
<!DOCTYPE svg PUBLIC "-//W3C//DTD SVG 1.1//EN"
 "http://www.w3.org/Graphics/SVG/1.1/DTD/svg11.dtd">
<!-- Generated by graphviz version 2.32.0 (20130916.1925)
 -->
<!-- Title: rfPixelExpand Pages: 1 -->
<!--zoomable 301 -->
<svg id="main" version="1.1" xmlns="http://www.w3.org/2000/svg" xmlns:xlink="http://www.w3.org/1999/xlink" xml:space="preserve" onload="init(evt)">
        <defs>
                <circle id="rim" cx="0" cy="0" r="7"/>
                <circle id="rim2" cx="0" cy="0" r="3.5"/>
                <g id="zoomPlus">
                        <use xlink:href="#rim" fill="#404040">
                                <set attributeName="fill" to="#808080" begin="zoomplus.mouseover" end="zoomplus.mouseout"/>
                        </use>
                        <path d="M-4,0h8M0,-4v8" fill="none" stroke="white" stroke-width="1.5" pointer-events="none"/>
                </g>
                <g id="zoomMin">
                        <use xlink:href="#rim" fill="#404040">
                                <set attributeName="fill" to="#808080" begin="zoomminus.mouseover" end="zoomminus.mouseout"/>
                        </use>
                        <path d="M-4,0h8" fill="none" stroke="white" stroke-width="1.5" pointer-events="none"/>
                </g>
                <g id="dirArrow">
                        <path fill="none" stroke="white" stroke-width="1.5" d="M0,-3.0v7 M-2.5,-0.5L0,-3.0L2.5,-0.5"/>
                </g>
               <g id="resetDef">
                       <use xlink:href="#rim2" fill="#404040">
                               <set attributeName="fill" to="#808080" begin="reset.mouseover" end="reset.mouseout"/>
                       </use>
               </g>
        </defs>

<script type="text/javascript">
var viewWidth = 610;
var viewHeight = 301;
var sectionId = 'dynsection-23';
</script>
<script xlink:href="svgpan.js"/>
<svg id="graph" class="graph">
<g id="viewport">
<title>rfPixelExpand</title>
<polygon fill="white" stroke="white" points="-4,5 -4,-297 607,-297 607,5 -4,5"/>
<!-- Node1 -->
<g id="node1" class="node"><title>Node1</title>
<polygon fill="#bfbfbf" stroke="black" points="0.150391,-156 0.150391,-176 77.8496,-176 77.8496,-156 0.150391,-156"/>
<text text-anchor="middle" x="39" y="-162" font-family="Helvetica,sans-Serif" font-size="10.00">rfPixelExpand</text>
</g>
<!-- Node2 -->
<g id="node2" class="node"><title>Node2</title>
<g id="a_node2"><a xlink:href="rc__moreip_8cpp.html#a330a7c1ecfdb250b97b778bc50ee39b7" target="_top" xlink:title="rfPixelExpand">
<polygon fill="white" stroke="black" points="114.15,-156 114.15,-176 191.85,-176 191.85,-156 114.15,-156"/>
<text text-anchor="middle" x="153" y="-162" font-family="Helvetica,sans-Serif" font-size="10.00">rfPixelExpand</text>
</a>
</g>
</g>
<!-- Node1&#45;&gt;Node2 -->
<g id="edge1" class="edge"><title>Node1&#45;&gt;Node2</title>
<path fill="none" stroke="midnightblue" d="M77.9181,-166C86.3108,-166 95.3105,-166 104.044,-166"/>
<polygon fill="midnightblue" stroke="midnightblue" points="104.121,-169.5 114.121,-166 104.121,-162.5 104.121,-169.5"/>
</g>
<!-- Node3 -->
<g id="node3" class="node"><title>Node3</title>
<g id="a_node3"><a xlink:href="classrc_window.html#a3286f93b0d223617111f3ac62b854b2f" target="_top" xlink:title="rcWindow::isBound">
<polygon fill="white" stroke="black" points="234.205,-273 234.205,-293 335.795,-293 335.795,-273 234.205,-273"/>
<text text-anchor="middle" x="285" y="-279" font-family="Helvetica,sans-Serif" font-size="10.00">rcWindow::isBound</text>
</a>
</g>
</g>
<!-- Node2&#45;&gt;Node3 -->
<g id="edge2" class="edge"><title>Node2&#45;&gt;Node3</title>
<path fill="none" stroke="midnightblue" d="M159.081,-176.047C169.433,-195.552 194.823,-238.756 228,-263 230.837,-265.073 233.909,-266.948 237.103,-268.641"/>
<polygon fill="midnightblue" stroke="midnightblue" points="235.796,-271.893 246.338,-272.946 238.753,-265.549 235.796,-271.893"/>
</g>
<!-- Node4 -->
<g id="node4" class="node"><title>Node4</title>
<g id="a_node4"><a xlink:href="classrc_window.html#a0ae0c2adbe34085eb07c93edd60b342a" target="_top" xlink:title="rcWindow::width">
<polygon fill="white" stroke="black" points="240.601,-234 240.601,-254 329.399,-254 329.399,-234 240.601,-234"/>
<text text-anchor="middle" x="285" y="-240" font-family="Helvetica,sans-Serif" font-size="10.00">rcWindow::width</text>
</a>
</g>
</g>
<!-- Node2&#45;&gt;Node4 -->
<g id="edge3" class="edge"><title>Node2&#45;&gt;Node4</title>
<path fill="none" stroke="midnightblue" d="M164.732,-176.257C178.461,-188.922 203.414,-210.444 228,-224 232.024,-226.219 236.343,-228.271 240.731,-230.147"/>
<polygon fill="midnightblue" stroke="midnightblue" points="239.775,-233.533 250.361,-233.969 242.358,-227.027 239.775,-233.533"/>
</g>
<!-- Node5 -->
<g id="node5" class="node"><title>Node5</title>
<g id="a_node5"><a xlink:href="classrc_window.html#a958e7e0bd74b12cbcb44e73a2692400a" target="_top" xlink:title="rcWindow::height">
<polygon fill="white" stroke="black" points="238.65,-195 238.65,-215 331.35,-215 331.35,-195 238.65,-195"/>
<text text-anchor="middle" x="285" y="-201" font-family="Helvetica,sans-Serif" font-size="10.00">rcWindow::height</text>
</a>
</g>
</g>
<!-- Node2&#45;&gt;Node5 -->
<g id="edge4" class="edge"><title>Node2&#45;&gt;Node5</title>
<path fill="none" stroke="midnightblue" d="M187.478,-176.043C203.703,-180.911 223.386,-186.816 240.734,-192.02"/>
<polygon fill="midnightblue" stroke="midnightblue" points="240.051,-195.469 250.635,-194.991 242.063,-188.765 240.051,-195.469"/>
</g>
<!-- Node6 -->
<g id="node6" class="node"><title>Node6</title>
<g id="a_node6"><a xlink:href="classrc_rectangle.html#a37c8043dcda3dc1076e57c4a1c219263" target="_top" xlink:title="rcRectangle::width">
<polygon fill="white" stroke="black" points="235.87,-156 235.87,-176 334.13,-176 334.13,-156 235.87,-156"/>
<text text-anchor="middle" x="285" y="-162" font-family="Helvetica,sans-Serif" font-size="10.00">rcRectangle::width</text>
</a>
</g>
</g>
<!-- Node2&#45;&gt;Node6 -->
<g id="edge5" class="edge"><title>Node2&#45;&gt;Node6</title>
<path fill="none" stroke="midnightblue" d="M191.951,-166C202.394,-166 213.971,-166 225.29,-166"/>
<polygon fill="midnightblue" stroke="midnightblue" points="225.574,-169.5 235.574,-166 225.574,-162.5 225.574,-169.5"/>
</g>
<!-- Node7 -->
<g id="node7" class="node"><title>Node7</title>
<g id="a_node7"><a xlink:href="classrc_rectangle.html#abe44205fccdffe80fbfdd4de79b406dc" target="_top" xlink:title="rcRectangle::height">
<polygon fill="white" stroke="black" points="233.919,-117 233.919,-137 336.081,-137 336.081,-117 233.919,-117"/>
<text text-anchor="middle" x="285" y="-123" font-family="Helvetica,sans-Serif" font-size="10.00">rcRectangle::height</text>
</a>
</g>
</g>
<!-- Node2&#45;&gt;Node7 -->
<g id="edge6" class="edge"><title>Node2&#45;&gt;Node7</title>
<path fill="none" stroke="midnightblue" d="M187.478,-155.957C203.703,-151.089 223.386,-145.184 240.734,-139.98"/>
<polygon fill="midnightblue" stroke="midnightblue" points="242.063,-143.235 250.635,-137.009 240.051,-136.531 242.063,-143.235"/>
</g>
<!-- Node8 -->
<g id="node8" class="node"><title>Node8</title>
<g id="a_node8"><a xlink:href="classrc_window.html#a5cddcde6594113f6d8bb2dfb1f498c0a" target="_top" xlink:title="rcWindow::rowUpdate">
<polygon fill="white" stroke="black" points="228.094,-78 228.094,-98 341.906,-98 341.906,-78 228.094,-78"/>
<text text-anchor="middle" x="285" y="-84" font-family="Helvetica,sans-Serif" font-size="10.00">rcWindow::rowUpdate</text>
</a>
</g>
</g>
<!-- Node2&#45;&gt;Node8 -->
<g id="edge7" class="edge"><title>Node2&#45;&gt;Node8</title>
<path fill="none" stroke="midnightblue" d="M164.732,-155.743C178.461,-143.078 203.414,-121.556 228,-108 232.024,-105.781 236.343,-103.729 240.731,-101.853"/>
<polygon fill="midnightblue" stroke="midnightblue" points="242.358,-104.973 250.361,-98.0307 239.775,-98.4665 242.358,-104.973"/>
</g>
<!-- Node9 -->
<g id="node9" class="node"><title>Node9</title>
<g id="a_node9"><a xlink:href="classrc_window.html#a8bad48552f0db28803089113326911de" target="_top" xlink:title="rcWindow::pelPointer">
<polygon fill="white" stroke="black" points="229.759,-39 229.759,-59 340.241,-59 340.241,-39 229.759,-39"/>
<text text-anchor="middle" x="285" y="-45" font-family="Helvetica,sans-Serif" font-size="10.00">rcWindow::pelPointer</text>
</a>
</g>
</g>
<!-- Node2&#45;&gt;Node9 -->
<g id="edge8" class="edge"><title>Node2&#45;&gt;Node9</title>
<path fill="none" stroke="midnightblue" d="M159.081,-155.953C169.433,-136.448 194.823,-93.2442 228,-69 230.837,-66.9272 233.909,-65.052 237.103,-63.3586"/>
<polygon fill="midnightblue" stroke="midnightblue" points="238.753,-66.4512 246.338,-59.0542 235.796,-60.1066 238.753,-66.4512"/>
</g>
<!-- Node10 -->
<g id="node10" class="node"><title>Node10</title>
<g id="a_node10"><a xlink:href="classrc_frame.html#a8005eafc78f0008a7df596d55c2b23b9" target="_top" xlink:title="rcFrame::pelPointer">
<polygon fill="white" stroke="black" points="378.096,-78 378.096,-98 481.904,-98 481.904,-78 378.096,-78"/>
<text text-anchor="middle" x="430" y="-84" font-family="Helvetica,sans-Serif" font-size="10.00">rcFrame::pelPointer</text>
</a>
</g>
</g>
<!-- Node9&#45;&gt;Node10 -->
<g id="edge9" class="edge"><title>Node9&#45;&gt;Node10</title>
<path fill="none" stroke="midnightblue" d="M322.826,-59.0435C341.007,-64.002 363.135,-70.0369 382.475,-75.3114"/>
<polygon fill="midnightblue" stroke="midnightblue" points="381.73,-78.736 392.299,-77.9906 383.572,-71.9826 381.73,-78.736"/>
</g>
<!-- Node12 -->
<g id="node12" class="node"><title>Node12</title>
<g id="a_node12"><a xlink:href="classrc_rect.html#ac0f95519a41dcf7e33bec85ccb8e7aff" target="_top" xlink:title="rcRect::x">
<polygon fill="white" stroke="black" points="402.276,-39 402.276,-59 457.724,-59 457.724,-39 402.276,-39"/>
<text text-anchor="middle" x="430" y="-45" font-family="Helvetica,sans-Serif" font-size="10.00">rcRect::x</text>
</a>
</g>
</g>
<!-- Node9&#45;&gt;Node12 -->
<g id="edge11" class="edge"><title>Node9&#45;&gt;Node12</title>
<path fill="none" stroke="midnightblue" d="M340.47,-49C357.657,-49 376.238,-49 391.918,-49"/>
<polygon fill="midnightblue" stroke="midnightblue" points="392.257,-52.5001 402.257,-49 392.257,-45.5001 392.257,-52.5001"/>
</g>
<!-- Node14 -->
<g id="node14" class="node"><title>Node14</title>
<g id="a_node14"><a xlink:href="classrc_rect.html#a50236160751c949d8718f8d4d17f7923" target="_top" xlink:title="rcRect::y">
<polygon fill="white" stroke="black" points="402.276,-0 402.276,-20 457.724,-20 457.724,-0 402.276,-0"/>
<text text-anchor="middle" x="430" y="-6" font-family="Helvetica,sans-Serif" font-size="10.00">rcRect::y</text>
</a>
</g>
</g>
<!-- Node9&#45;&gt;Node14 -->
<g id="edge13" class="edge"><title>Node9&#45;&gt;Node14</title>
<path fill="none" stroke="midnightblue" d="M322.826,-38.9565C344.258,-33.1115 371.174,-25.7707 392.543,-19.9429"/>
<polygon fill="midnightblue" stroke="midnightblue" points="393.507,-23.3078 402.234,-17.2999 391.665,-16.5544 393.507,-23.3078"/>
</g>
<!-- Node11 -->
<g id="node11" class="node"><title>Node11</title>
<g id="a_node11"><a xlink:href="classrc_frame.html#aaef8303c840834284eb9c60d33bf40c1" target="_top" xlink:title="rcFrame::depth">
<polygon fill="white" stroke="black" points="518.099,-78 518.099,-98 601.901,-98 601.901,-78 518.099,-78"/>
<text text-anchor="middle" x="560" y="-84" font-family="Helvetica,sans-Serif" font-size="10.00">rcFrame::depth</text>
</a>
</g>
</g>
<!-- Node10&#45;&gt;Node11 -->
<g id="edge10" class="edge"><title>Node10&#45;&gt;Node11</title>
<path fill="none" stroke="midnightblue" d="M481.957,-88C490.482,-88 499.329,-88 507.859,-88"/>
<polygon fill="midnightblue" stroke="midnightblue" points="508.063,-91.5001 518.063,-88 508.063,-84.5001 508.063,-91.5001"/>
</g>
<!-- Node13 -->
<g id="node13" class="node"><title>Node13</title>
<g id="a_node13"><a xlink:href="classrc_pair.html#ad1a3cb1e7fdbe119ce1295514b1bb49d" target="_top" xlink:title="rcPair::x">
<polygon fill="white" stroke="black" points="533.665,-39 533.665,-59 586.335,-59 586.335,-39 533.665,-39"/>
<text text-anchor="middle" x="560" y="-45" font-family="Helvetica,sans-Serif" font-size="10.00">rcPair::x</text>
</a>
</g>
</g>
<!-- Node12&#45;&gt;Node13 -->
<g id="edge12" class="edge"><title>Node12&#45;&gt;Node13</title>
<path fill="none" stroke="midnightblue" d="M457.833,-49C476.898,-49 502.696,-49 523.469,-49"/>
<polygon fill="midnightblue" stroke="midnightblue" points="523.51,-52.5001 533.51,-49 523.51,-45.5001 523.51,-52.5001"/>
</g>
<!-- Node15 -->
<g id="node15" class="node"><title>Node15</title>
<g id="a_node15"><a xlink:href="classrc_pair.html#a87400f83938e920c405c40aa449d3607" target="_top" xlink:title="rcPair::y">
<polygon fill="white" stroke="black" points="533.665,-0 533.665,-20 586.335,-20 586.335,-0 533.665,-0"/>
<text text-anchor="middle" x="560" y="-6" font-family="Helvetica,sans-Serif" font-size="10.00">rcPair::y</text>
</a>
</g>
</g>
<!-- Node14&#45;&gt;Node15 -->
<g id="edge14" class="edge"><title>Node14&#45;&gt;Node15</title>
<path fill="none" stroke="midnightblue" d="M457.833,-10C476.898,-10 502.696,-10 523.469,-10"/>
<polygon fill="midnightblue" stroke="midnightblue" points="523.51,-13.5001 533.51,-10 523.51,-6.5001 523.51,-13.5001"/>
</g>
</g>
</svg>
        <g id="navigator" transform="translate(0 0)" fill="#404254">
                <rect fill="#f2f5e9" fill-opacity="0.5" stroke="#606060" stroke-width=".5" x="0" y="0" width="60" height="60"/>
                <use id="zoomplus" xlink:href="#zoomPlus" x="17" y="9" onmousedown="handleZoom(evt,'in')"/>
                <use id="zoomminus" xlink:href="#zoomMin" x="42" y="9" onmousedown="handleZoom(evt,'out')"/>
                <use id="reset" xlink:href="#resetDef" x="30" y="36" onmousedown="handleReset()"/>
                <g id="arrowUp" xlink:href="#dirArrow" transform="translate(30 24)" onmousedown="handlePan(0,-1)">
                  <use xlink:href="#rim" fill="#404040">
                        <set attributeName="fill" to="#808080" begin="arrowUp.mouseover" end="arrowUp.mouseout"/>
                  </use>
                  <path fill="none" stroke="white" stroke-width="1.5" d="M0,-3.0v7 M-2.5,-0.5L0,-3.0L2.5,-0.5"/>
                </g>
                <g id="arrowRight" xlink:href="#dirArrow" transform="rotate(90) translate(36 -43)" onmousedown="handlePan(1,0)">
                  <use xlink:href="#rim" fill="#404040">
                        <set attributeName="fill" to="#808080" begin="arrowRight.mouseover" end="arrowRight.mouseout"/>
                  </use>
                  <path fill="none" stroke="white" stroke-width="1.5" d="M0,-3.0v7 M-2.5,-0.5L0,-3.0L2.5,-0.5"/>
                </g>
                <g id="arrowDown" xlink:href="#dirArrow" transform="rotate(180) translate(-30 -48)" onmousedown="handlePan(0,1)">
                  <use xlink:href="#rim" fill="#404040">
                        <set attributeName="fill" to="#808080" begin="arrowDown.mouseover" end="arrowDown.mouseout"/>
                  </use>
                  <path fill="none" stroke="white" stroke-width="1.5" d="M0,-3.0v7 M-2.5,-0.5L0,-3.0L2.5,-0.5"/>
                </g>
                <g id="arrowLeft" xlink:href="#dirArrow" transform="rotate(270) translate(-36 17)" onmousedown="handlePan(-1,0)">
                  <use xlink:href="#rim" fill="#404040">
                        <set attributeName="fill" to="#808080" begin="arrowLeft.mouseover" end="arrowLeft.mouseout"/>
                  </use>
                  <path fill="none" stroke="white" stroke-width="1.5" d="M0,-3.0v7 M-2.5,-0.5L0,-3.0L2.5,-0.5"/>
                </g>
        </g>
        <svg viewBox="0 0 15 15" width="100%" height="30px" preserveAspectRatio="xMaxYMin meet">
         <g id="arrow_out" transform="scale(0.3 0.3)">
          <a xlink:href="rc__ip_8h_af1423bdda3b016223a01d34b54f0aa44_cgraph_org.svg" target="_base">
           <rect id="button" ry="5" rx="5" y="6" x="6" height="38" width="38"
                fill="#f2f5e9" fill-opacity="0.5" stroke="#606060" stroke-width="1.0"/>
           <path id="arrow"
             d="M 11.500037,31.436501 C 11.940474,20.09759 22.043105,11.32322 32.158766,21.979434 L 37.068811,17.246167 C 37.068811,17.246167 37.088388,32 37.088388,32 L 22.160133,31.978069 C 22.160133,31.978069 26.997745,27.140456 26.997745,27.140456 C 18.528582,18.264221 13.291696,25.230495 11.500037,31.436501 z"
             style="fill:#404040;"/>
          </a>
         </g>
        </svg>
</svg>
