<?xml version="1.0" encoding="UTF-8" standalone="no"?>
<!DOCTYPE svg PUBLIC "-//W3C//DTD SVG 1.1//EN"
 "http://www.w3.org/Graphics/SVG/1.1/DTD/svg11.dtd">
<!-- Generated by graphviz version 2.32.0 (20130916.1925)
 -->
<!-- Title: sin Pages: 1 -->
<svg width="1816pt" height="859pt"
 viewBox="0.00 0.00 1816.00 859.00" xmlns="http://www.w3.org/2000/svg" xmlns:xlink="http://www.w3.org/1999/xlink">
<g id="graph0" class="graph" transform="scale(1 1) rotate(0) translate(4 855)">
<title>sin</title>
<polygon fill="white" stroke="white" points="-4,5 -4,-855 1813,-855 1813,5 -4,5"/>
<!-- Node1 -->
<g id="node1" class="node"><title>Node1</title>
<polygon fill="#bfbfbf" stroke="black" points="0.5,-430 0.5,-450 29.5,-450 29.5,-430 0.5,-430"/>
<text text-anchor="middle" x="15" y="-436" font-family="Helvetica,sans-Serif" font-size="10.00">sin</text>
</g>
<!-- Node2 -->
<g id="node2" class="node"><title>Node2</title>
<g id="a_node2"><a xlink:href="classrc_inf_line.html#a277c85e7b7a2d46f26d1199abf901b80" target="_top" xlink:title="rcInfLine::angle">
<polygon fill="white" stroke="black" points="108.811,-831 108.811,-851 193.189,-851 193.189,-831 108.811,-831"/>
<text text-anchor="middle" x="151" y="-837" font-family="Helvetica,sans-Serif" font-size="10.00">rcInfLine::angle</text>
</a>
</g>
</g>
<!-- Node1&#45;&gt;Node2 -->
<g id="edge1" class="edge"><title>Node1&#45;&gt;Node2</title>
<path fill="none" stroke="midnightblue" d="M15.7494,-460.632C15.3162,-532.061 17.6494,-767.38 66,-821 76.7418,-832.912 93.1788,-838.361 108.674,-840.668"/>
<polygon fill="midnightblue" stroke="midnightblue" points="19.2522,-460.316 15.84,-450.285 12.2524,-460.254 19.2522,-460.316"/>
</g>
<!-- Node3 -->
<g id="node3" class="node"><title>Node3</title>
<g id="a_node3"><a xlink:href="classrc_ellipse.html#aadca7c0645d1dfb1a53ccf1e38bb6b7a" target="_top" xlink:title="rcEllipse::boundingOrthRectangle">
<polygon fill="white" stroke="black" points="68.5127,-792 68.5127,-812 233.487,-812 233.487,-792 68.5127,-792"/>
<text text-anchor="middle" x="151" y="-798" font-family="Helvetica,sans-Serif" font-size="10.00">rcEllipse::boundingOrthRectangle</text>
</a>
</g>
</g>
<!-- Node1&#45;&gt;Node3 -->
<g id="edge2" class="edge"><title>Node1&#45;&gt;Node3</title>
<path fill="none" stroke="midnightblue" d="M16.0942,-460.638C16.8296,-527.195 22.6247,-734.602 66,-782 69.6434,-785.981 73.9232,-789.238 78.5884,-791.896"/>
<polygon fill="midnightblue" stroke="midnightblue" points="19.5909,-460.209 16.0094,-450.238 12.5911,-460.266 19.5909,-460.209"/>
</g>
<!-- Node4 -->
<g id="node4" class="node"><title>Node4</title>
<g id="a_node4"><a xlink:href="classrc_ls_fit.html#abe182b3764c6add96031583dc285f58a" target="_top" xlink:title="rcLsFit::error">
<polygon fill="white" stroke="black" points="114.665,-753 114.665,-773 187.335,-773 187.335,-753 114.665,-753"/>
<text text-anchor="middle" x="151" y="-759" font-family="Helvetica,sans-Serif" font-size="10.00">rcLsFit::error</text>
</a>
</g>
</g>
<!-- Node1&#45;&gt;Node4 -->
<g id="edge3" class="edge"><title>Node1&#45;&gt;Node4</title>
<path fill="none" stroke="midnightblue" d="M16.6809,-460.22C19.1104,-520.352 29.28,-696.46 66,-738 78.0926,-751.68 97.3055,-758.028 114.306,-760.912"/>
<polygon fill="midnightblue" stroke="midnightblue" points="20.174,-459.968 16.3025,-450.106 13.1789,-460.23 20.174,-459.968"/>
</g>
<!-- Node5 -->
<g id="node5" class="node"><title>Node5</title>
<g id="a_node5"><a xlink:href="vbigdsp_8cpp.html#a38e87f9c7ae8534965b0ea707bdbf619" target="_top" xlink:title="fft_real_forward_scalar">
<polygon fill="white" stroke="black" points="698.231,-628 698.231,-648 815.769,-648 815.769,-628 698.231,-628"/>
<text text-anchor="middle" x="757" y="-634" font-family="Helvetica,sans-Serif" font-size="10.00">fft_real_forward_scalar</text>
</a>
</g>
</g>
<!-- Node1&#45;&gt;Node5 -->
<g id="edge4" class="edge"><title>Node1&#45;&gt;Node5</title>
<path fill="none" stroke="midnightblue" d="M16.2248,-460.182C17.7924,-492.932 26.1104,-557.093 66,-588 161.819,-662.242 216.785,-608 338,-608 338,-608 338,-608 498,-608 568.571,-608 649.278,-619.212 701.355,-627.927"/>
<polygon fill="midnightblue" stroke="midnightblue" points="19.7179,-459.901 15.9111,-450.014 12.7212,-460.117 19.7179,-459.901"/>
</g>
<!-- Node13 -->
<g id="node13" class="node"><title>Node13</title>
<g id="a_node13"><a xlink:href="vbigdsp_8cpp.html#a1a48211bf3e5130dc02c496e291712f6" target="_top" xlink:title="fft_real_inverse_scalar">
<polygon fill="white" stroke="black" points="698.785,-673 698.785,-693 815.215,-693 815.215,-673 698.785,-673"/>
<text text-anchor="middle" x="757" y="-679" font-family="Helvetica,sans-Serif" font-size="10.00">fft_real_inverse_scalar</text>
</a>
</g>
</g>
<!-- Node1&#45;&gt;Node13 -->
<g id="edge12" class="edge"><title>Node1&#45;&gt;Node13</title>
<path fill="none" stroke="midnightblue" d="M17.4798,-460.446C21.5829,-510.885 34.9164,-639.108 66,-666 157.669,-745.309 216.785,-686 338,-686 338,-686 338,-686 498,-686 566.984,-686 646.336,-684.914 698.618,-684.049"/>
<polygon fill="midnightblue" stroke="midnightblue" points="20.945,-459.861 16.6849,-450.16 13.9659,-460.4 20.945,-459.861"/>
</g>
<!-- Node15 -->
<g id="node15" class="node"><title>Node15</title>
<g id="a_node15"><a xlink:href="vbigdsp_8cpp.html#aaced55c025b2c0495a617ad4feeaef87" target="_top" xlink:title="InitFFTSinCos">
<polygon fill="white" stroke="black" points="111.049,-637 111.049,-657 190.951,-657 190.951,-637 111.049,-637"/>
<text text-anchor="middle" x="151" y="-643" font-family="Helvetica,sans-Serif" font-size="10.00">InitFFTSinCos</text>
</a>
</g>
</g>
<!-- Node1&#45;&gt;Node15 -->
<g id="edge14" class="edge"><title>Node1&#45;&gt;Node15</title>
<path fill="none" stroke="midnightblue" d="M15.5639,-460.464C15.9184,-497.797 22.1651,-577.228 66,-622 77.709,-633.959 94.8646,-640.257 110.624,-643.55"/>
<polygon fill="midnightblue" stroke="midnightblue" points="19.0644,-460.329 15.608,-450.314 12.0645,-460.299 19.0644,-460.329"/>
</g>
<!-- Node19 -->
<g id="node19" class="node"><title>Node19</title>
<g id="a_node19"><a xlink:href="rc__utdrawutils_8h.html#ac4e20b2e5c3cbfd64224ff8e5b0747d6" target="_top" xlink:title="MakeSineTab">
<polygon fill="white" stroke="black" points="112.705,-559 112.705,-579 189.295,-579 189.295,-559 112.705,-559"/>
<text text-anchor="middle" x="151" y="-565" font-family="Helvetica,sans-Serif" font-size="10.00">MakeSineTab</text>
</a>
</g>
</g>
<!-- Node1&#45;&gt;Node19 -->
<g id="edge20" class="edge"><title>Node1&#45;&gt;Node19</title>
<path fill="none" stroke="midnightblue" d="M19.7052,-460.296C25.3086,-485.03 38.3667,-526.322 66,-549 78.9787,-559.652 96.6792,-564.811 112.486,-567.245"/>
<polygon fill="midnightblue" stroke="midnightblue" points="23.0758,-459.311 17.6296,-450.223 16.2198,-460.723 23.0758,-459.311"/>
</g>
<!-- Node20 -->
<g id="node20" class="node"><title>Node20</title>
<g id="a_node20"><a xlink:href="classrc2_xform.html#aa834d8d2a5e3a112d1c0ae5e4553c372" target="_top" xlink:title="rc2Xform::mapAngle">
<polygon fill="white" stroke="black" points="97.4263,-520 97.4263,-540 204.574,-540 204.574,-520 97.4263,-520"/>
<text text-anchor="middle" x="151" y="-526" font-family="Helvetica,sans-Serif" font-size="10.00">rc2Xform::mapAngle</text>
</a>
</g>
</g>
<!-- Node1&#45;&gt;Node20 -->
<g id="edge21" class="edge"><title>Node1&#45;&gt;Node20</title>
<path fill="none" stroke="midnightblue" d="M24.8,-459.142C33.1531,-475.161 47.2204,-497.368 66,-510 75.329,-516.275 86.4016,-520.59 97.3954,-523.555"/>
<polygon fill="midnightblue" stroke="midnightblue" points="27.9077,-457.53 20.3465,-450.109 21.6293,-460.626 27.9077,-457.53"/>
</g>
<!-- Node21 -->
<g id="node21" class="node"><title>Node21</title>
<g id="a_node21"><a xlink:href="classrc2d_vector.html#af44c80c352906ba710280532b5968d99" target="_top" xlink:title="rc2dVector\&lt; float \&gt;\l::rc2dVector">
<polygon fill="white" stroke="black" points="101.027,-469 101.027,-501 200.973,-501 200.973,-469 101.027,-469"/>
<text text-anchor="start" x="109.027" y="-487" font-family="Helvetica,sans-Serif" font-size="10.00">rc2dVector&lt; float &gt;</text>
<text text-anchor="middle" x="151" y="-475" font-family="Helvetica,sans-Serif" font-size="10.00">::rc2dVector</text>
</a>
</g>
</g>
<!-- Node1&#45;&gt;Node21 -->
<g id="edge22" class="edge"><title>Node1&#45;&gt;Node21</title>
<path fill="none" stroke="midnightblue" d="M39.409,-449.244C47.7594,-452.449 57.2611,-455.99 66,-459 77.2585,-462.877 89.4545,-466.805 100.971,-470.394"/>
<polygon fill="midnightblue" stroke="midnightblue" points="40.5119,-445.918 29.9231,-445.56 37.9778,-452.443 40.5119,-445.918"/>
</g>
<!-- Node22 -->
<g id="node22" class="node"><title>Node22</title>
<g id="a_node22"><a xlink:href="rc__draw_8h.html#ac7a13240630229d53492c3fad4e4d5a0" target="_top" xlink:title="rcDrawLine">
<polygon fill="white" stroke="black" points="117.714,-430 117.714,-450 184.286,-450 184.286,-430 117.714,-430"/>
<text text-anchor="middle" x="151" y="-436" font-family="Helvetica,sans-Serif" font-size="10.00">rcDrawLine</text>
</a>
</g>
</g>
<!-- Node1&#45;&gt;Node22 -->
<g id="edge23" class="edge"><title>Node1&#45;&gt;Node22</title>
<path fill="none" stroke="midnightblue" d="M40.1088,-440C61.7319,-440 93.6382,-440 117.508,-440"/>
<polygon fill="midnightblue" stroke="midnightblue" points="39.8357,-436.5 29.8356,-440 39.8356,-443.5 39.8357,-436.5"/>
</g>
<!-- Node23 -->
<g id="node23" class="node"><title>Node23</title>
<g id="a_node23"><a xlink:href="classrc_feature.html#a91791a541fc9dc68524bd026a567918c" target="_top" xlink:title="rcFeature::rcFeature">
<polygon fill="white" stroke="black" points="97.4287,-391 97.4287,-411 204.571,-411 204.571,-391 97.4287,-391"/>
<text text-anchor="middle" x="151" y="-397" font-family="Helvetica,sans-Serif" font-size="10.00">rcFeature::rcFeature</text>
</a>
</g>
</g>
<!-- Node1&#45;&gt;Node23 -->
<g id="edge24" class="edge"><title>Node1&#45;&gt;Node23</title>
<path fill="none" stroke="midnightblue" d="M39.3024,-430.429C47.6431,-427.194 57.1659,-423.718 66,-421 77.8925,-417.341 90.9034,-413.953 103.057,-411.044"/>
<polygon fill="midnightblue" stroke="midnightblue" points="37.8425,-427.242 29.8407,-434.187 40.4265,-433.748 37.8425,-427.242"/>
</g>
<!-- Node24 -->
<g id="node24" class="node"><title>Node24</title>
<g id="a_node24"><a xlink:href="classrc_line_segment.html#a02b96370b1fcac582e84d1103ed2473b" target="_top" xlink:title="rcLineSegment::rcLineSegment">
<polygon fill="white" stroke="black" points="72.9609,-352 72.9609,-372 229.039,-372 229.039,-352 72.9609,-352"/>
<text text-anchor="middle" x="151" y="-358" font-family="Helvetica,sans-Serif" font-size="10.00">rcLineSegment::rcLineSegment</text>
</a>
</g>
</g>
<!-- Node1&#45;&gt;Node24 -->
<g id="edge25" class="edge"><title>Node1&#45;&gt;Node24</title>
<path fill="none" stroke="midnightblue" d="M27.6971,-421.029C36.633,-408.116 50.0971,-391.675 66,-382 72.6598,-377.949 80.0798,-374.718 87.6765,-372.141"/>
<polygon fill="midnightblue" stroke="midnightblue" points="24.5912,-419.382 22.0206,-429.66 30.4397,-423.229 24.5912,-419.382"/>
</g>
<!-- Node25 -->
<g id="node25" class="node"><title>Node25</title>
<g id="a_node25"><a xlink:href="classrc_matrix_3_012_01_4.html#a600d8bf156aefd7a30e7249cf0c8d2c5" target="_top" xlink:title="rcMatrix\&lt; 2 \&gt;::rcMatrix">
<polygon fill="white" stroke="black" points="93.271,-313 93.271,-333 208.729,-333 208.729,-313 93.271,-313"/>
<text text-anchor="middle" x="151" y="-319" font-family="Helvetica,sans-Serif" font-size="10.00">rcMatrix&lt; 2 &gt;::rcMatrix</text>
</a>
</g>
</g>
<!-- Node1&#45;&gt;Node25 -->
<g id="edge26" class="edge"><title>Node1&#45;&gt;Node25</title>
<path fill="none" stroke="midnightblue" d="M20.8277,-420.283C27.3065,-398.086 41.0023,-362.574 66,-343 73.9081,-336.808 83.4305,-332.487 93.1806,-329.482"/>
<polygon fill="midnightblue" stroke="midnightblue" points="17.4368,-419.415 18.2091,-429.982 24.1948,-421.24 17.4368,-419.415"/>
</g>
<!-- Node26 -->
<g id="node26" class="node"><title>Node26</title>
<g id="a_node26"><a xlink:href="classrc_matrix__2d.html#a302b4cb16a05762aadd8c68bd524bff0" target="_top" xlink:title="rcMatrix_2d::rcMatrix_2d">
<polygon fill="white" stroke="black" points="87.9854,-274 87.9854,-294 214.015,-294 214.015,-274 87.9854,-274"/>
<text text-anchor="middle" x="151" y="-280" font-family="Helvetica,sans-Serif" font-size="10.00">rcMatrix_2d::rcMatrix_2d</text>
</a>
</g>
</g>
<!-- Node1&#45;&gt;Node26 -->
<g id="edge27" class="edge"><title>Node1&#45;&gt;Node26</title>
<path fill="none" stroke="midnightblue" d="M17.5993,-419.551C21.0688,-389.633 31.973,-334.214 66,-304 72.2774,-298.426 79.828,-294.334 87.7943,-291.341"/>
<polygon fill="midnightblue" stroke="midnightblue" points="14.1005,-419.368 16.601,-429.663 21.0666,-420.056 14.1005,-419.368"/>
</g>
<!-- Node27 -->
<g id="node27" class="node"><title>Node27</title>
<g id="a_node27"><a xlink:href="classrc_polygon.html#a0af0f7e800cc32f5dde741caeb230f9d" target="_top" xlink:title="rcPolygon::rcPolygon">
<polygon fill="white" stroke="black" points="95.7539,-235 95.7539,-255 206.246,-255 206.246,-235 95.7539,-235"/>
<text text-anchor="middle" x="151" y="-241" font-family="Helvetica,sans-Serif" font-size="10.00">rcPolygon::rcPolygon</text>
</a>
</g>
</g>
<!-- Node1&#45;&gt;Node27 -->
<g id="edge28" class="edge"><title>Node1&#45;&gt;Node27</title>
<path fill="none" stroke="midnightblue" d="M15.5167,-419.442C15.8373,-382.666 22.0893,-305.587 66,-264 74.1419,-256.289 84.7229,-251.465 95.6151,-248.499"/>
<polygon fill="midnightblue" stroke="midnightblue" points="12.0193,-419.891 15.5808,-429.869 19.0191,-419.848 12.0193,-419.891"/>
</g>
<!-- Node28 -->
<g id="node28" class="node"><title>Node28</title>
<g id="a_node28"><a xlink:href="classrc_sin_table.html#a258dd7960ce38990aaec2ef576482bfb" target="_top" xlink:title="rcSinTable::rcSinTable">
<polygon fill="white" stroke="black" points="93.5322,-196 93.5322,-216 208.468,-216 208.468,-196 93.5322,-196"/>
<text text-anchor="middle" x="151" y="-202" font-family="Helvetica,sans-Serif" font-size="10.00">rcSinTable::rcSinTable</text>
</a>
</g>
</g>
<!-- Node1&#45;&gt;Node28 -->
<g id="edge29" class="edge"><title>Node1&#45;&gt;Node28</title>
<path fill="none" stroke="midnightblue" d="M17.9787,-419.844C23.1056,-371.791 38.384,-252.449 66,-225 73.4231,-217.622 83.0672,-212.858 93.1627,-209.83"/>
<polygon fill="midnightblue" stroke="midnightblue" points="14.4816,-419.637 16.9402,-429.943 21.4449,-420.353 14.4816,-419.637"/>
</g>
<!-- Node29 -->
<g id="node29" class="node"><title>Node29</title>
<g id="a_node29"><a xlink:href="rc__analysis_8h.html#a5872e59343f1bf16ab5a397ff50245ca" target="_top" xlink:title="rf1Ddft">
<polygon fill="white" stroke="black" points="874.995,-714 874.995,-734 921.005,-734 921.005,-714 874.995,-714"/>
<text text-anchor="middle" x="898" y="-720" font-family="Helvetica,sans-Serif" font-size="10.00">rf1Ddft</text>
</a>
</g>
</g>
<!-- Node1&#45;&gt;Node29 -->
<g id="edge30" class="edge"><title>Node1&#45;&gt;Node29</title>
<path fill="none" stroke="midnightblue" d="M16.8643,-460.462C19.6666,-516.067 30.4854,-667.934 66,-700 156.076,-781.328 216.641,-724 338,-724 338,-724 338,-724 626,-724 718.451,-724 828.642,-724 874.869,-724"/>
<polygon fill="midnightblue" stroke="midnightblue" points="20.3448,-459.961 16.382,-450.135 13.3524,-460.288 20.3448,-459.961"/>
</g>
<!-- Node34 -->
<g id="node34" class="node"><title>Node34</title>
<g id="a_node34"><a xlink:href="classrc_ls_fit.html#aa45b577b5e86ef32954a5051b7896f4a" target="_top" xlink:title="rcLsFit::solve3p">
<polygon fill="white" stroke="black" points="107.988,-157 107.988,-177 194.012,-177 194.012,-157 107.988,-157"/>
<text text-anchor="middle" x="151" y="-163" font-family="Helvetica,sans-Serif" font-size="10.00">rcLsFit::solve3p</text>
</a>
</g>
</g>
<!-- Node1&#45;&gt;Node34 -->
<g id="edge38" class="edge"><title>Node1&#45;&gt;Node34</title>
<path fill="none" stroke="midnightblue" d="M17.192,-419.88C20.8068,-365.858 33.4594,-219.467 66,-186 76.8399,-174.851 92.7357,-169.625 107.79,-167.35"/>
<polygon fill="midnightblue" stroke="midnightblue" points="13.6946,-419.73 16.5539,-429.931 20.6805,-420.173 13.6946,-419.73"/>
</g>
<!-- Node35 -->
<g id="node35" class="node"><title>Node35</title>
<g id="a_node35"><a xlink:href="classrc_ellipse.html#ad98dff91324da99eedf1dd26fea30e10" target="_top" xlink:title="rcEllipse::unit">
<polygon fill="white" stroke="black" points="113.266,-118 113.266,-138 188.734,-138 188.734,-118 113.266,-118"/>
<text text-anchor="middle" x="151" y="-124" font-family="Helvetica,sans-Serif" font-size="10.00">rcEllipse::unit</text>
</a>
</g>
</g>
<!-- Node1&#45;&gt;Node35 -->
<g id="edge39" class="edge"><title>Node1&#45;&gt;Node35</title>
<path fill="none" stroke="midnightblue" d="M16.6228,-419.606C18.8743,-359.784 28.5624,-186.493 66,-147 78.035,-134.304 96.615,-129.244 113.244,-127.493"/>
<polygon fill="midnightblue" stroke="midnightblue" points="13.1218,-419.578 16.2747,-429.693 20.1176,-419.819 13.1218,-419.578"/>
</g>
<!-- Node37 -->
<g id="node37" class="node"><title>Node37</title>
<g id="a_node37"><a xlink:href="class_l_l_s_q.html#a83e18776ce1c392d23c147ef827ef9fb" target="_top" xlink:title="LLSQ::vector_fit">
<polygon fill="white" stroke="black" points="107.15,-79 107.15,-99 194.85,-99 194.85,-79 107.15,-79"/>
<text text-anchor="middle" x="151" y="-85" font-family="Helvetica,sans-Serif" font-size="10.00">LLSQ::vector_fit</text>
</a>
</g>
</g>
<!-- Node1&#45;&gt;Node37 -->
<g id="edge41" class="edge"><title>Node1&#45;&gt;Node37</title>
<path fill="none" stroke="midnightblue" d="M16.1714,-419.512C17.1468,-354.369 23.6017,-153.611 66,-108 76.4852,-96.7204 92.131,-91.4416 107.087,-89.1608"/>
<polygon fill="midnightblue" stroke="midnightblue" points="12.6693,-419.675 16.0484,-429.716 19.6688,-419.759 12.6693,-419.675"/>
</g>
<!-- Node38 -->
<g id="node38" class="node"><title>Node38</title>
<g id="a_node38"><a xlink:href="classrc_affine_window.html#a8948da1594b1d6712d422fb663accbd0" target="_top" xlink:title="rcAffineWindow::vImageTransform">
<polygon fill="white" stroke="black" points="66.4937,-40 66.4937,-60 235.506,-60 235.506,-40 66.4937,-40"/>
<text text-anchor="middle" x="151" y="-46" font-family="Helvetica,sans-Serif" font-size="10.00">rcAffineWindow::vImageTransform</text>
</a>
</g>
</g>
<!-- Node1&#45;&gt;Node38 -->
<g id="edge42" class="edge"><title>Node1&#45;&gt;Node38</title>
<path fill="none" stroke="midnightblue" d="M15.8111,-419.887C15.5828,-350.255 18.5121,-120.887 66,-69 69.2303,-65.4705 72.9654,-62.5265 77.0289,-60.0767"/>
<polygon fill="midnightblue" stroke="midnightblue" points="12.3116,-419.994 15.8715,-429.973 19.3115,-419.952 12.3116,-419.994"/>
</g>
<!-- Node6 -->
<g id="node6" class="node"><title>Node6</title>
<g id="a_node6"><a xlink:href="vbigdsp_8h.html#a149c566750d66eb4dc6b32c060ebba74" target="_top" xlink:title="FFTRealForward">
<polygon fill="white" stroke="black" points="852.217,-628 852.217,-648 943.783,-648 943.783,-628 852.217,-628"/>
<text text-anchor="middle" x="898" y="-634" font-family="Helvetica,sans-Serif" font-size="10.00">FFTRealForward</text>
</a>
</g>
</g>
<!-- Node5&#45;&gt;Node6 -->
<g id="edge5" class="edge"><title>Node5&#45;&gt;Node6</title>
<path fill="none" stroke="midnightblue" d="M826.39,-638C835.156,-638 843.945,-638 852.2,-638"/>
<polygon fill="midnightblue" stroke="midnightblue" points="826.143,-634.5 816.143,-638 826.143,-641.5 826.143,-634.5"/>
</g>
<!-- Node7 -->
<g id="node7" class="node"><title>Node7</title>
<g id="a_node7"><a xlink:href="classrc_opto_kinetic_image.html#a1d1715dc28a0eea84834c136e02c26c4" target="_top" xlink:title="rcOptoKineticImage\l::genDFT">
<polygon fill="white" stroke="black" points="995.091,-666 995.091,-698 1098.91,-698 1098.91,-666 995.091,-666"/>
<text text-anchor="start" x="1003.09" y="-684" font-family="Helvetica,sans-Serif" font-size="10.00">rcOptoKineticImage</text>
<text text-anchor="middle" x="1047" y="-672" font-family="Helvetica,sans-Serif" font-size="10.00">::genDFT</text>
</a>
</g>
</g>
<!-- Node6&#45;&gt;Node7 -->
<g id="edge6" class="edge"><title>Node6&#45;&gt;Node7</title>
<path fill="none" stroke="midnightblue" d="M942.593,-651.048C959,-655.959 977.804,-661.588 994.839,-666.686"/>
<polygon fill="midnightblue" stroke="midnightblue" points="943.308,-647.609 932.725,-648.094 941.301,-654.315 943.308,-647.609"/>
</g>
<!-- Node8 -->
<g id="node8" class="node"><title>Node8</title>
<g id="a_node8"><a xlink:href="rc__analysis_8h.html#ae51d37ad5797d5b59058fafde4fb4248" target="_top" xlink:title="rf1DFourierAnalysisVoxels">
<polygon fill="white" stroke="black" points="980.365,-627 980.365,-647 1113.64,-647 1113.64,-627 980.365,-627"/>
<text text-anchor="middle" x="1047" y="-633" font-family="Helvetica,sans-Serif" font-size="10.00">rf1DFourierAnalysisVoxels</text>
</a>
</g>
</g>
<!-- Node6&#45;&gt;Node8 -->
<g id="edge7" class="edge"><title>Node6&#45;&gt;Node8</title>
<path fill="none" stroke="midnightblue" d="M954.104,-637.625C962.638,-637.567 971.526,-637.507 980.266,-637.447"/>
<polygon fill="midnightblue" stroke="midnightblue" points="953.88,-634.126 943.904,-637.695 953.927,-641.126 953.88,-634.126"/>
</g>
<!-- Node9 -->
<g id="node9" class="node"><title>Node9</title>
<g id="a_node9"><a xlink:href="classrc_opto_kinetic_image.html#ab8c6bd963086ef561d0f65ec8240e139" target="_top" xlink:title="rcOptoKineticImage\l::genFreqImg">
<polygon fill="white" stroke="black" points="1174.09,-646 1174.09,-678 1277.91,-678 1277.91,-646 1174.09,-646"/>
<text text-anchor="start" x="1182.09" y="-664" font-family="Helvetica,sans-Serif" font-size="10.00">rcOptoKineticImage</text>
<text text-anchor="middle" x="1226" y="-652" font-family="Helvetica,sans-Serif" font-size="10.00">::genFreqImg</text>
</a>
</g>
</g>
<!-- Node8&#45;&gt;Node9 -->
<g id="edge8" class="edge"><title>Node8&#45;&gt;Node9</title>
<path fill="none" stroke="midnightblue" d="M1124.03,-647.738C1140.85,-650.114 1158.28,-652.576 1173.83,-654.773"/>
<polygon fill="midnightblue" stroke="midnightblue" points="1124.05,-644.207 1113.66,-646.274 1123.07,-651.138 1124.05,-644.207"/>
</g>
<!-- Node10 -->
<g id="node10" class="node"><title>Node10</title>
<g id="a_node10"><a xlink:href="classrc_muscle_segmenter.html#a61c65559f55fd9fa632b96e09ef50b2e" target="_top" xlink:title="rcMuscleSegmenter::\lgenFrequencySegmentation">
<polygon fill="white" stroke="black" points="1338.18,-666 1338.18,-698 1479.82,-698 1479.82,-666 1338.18,-666"/>
<text text-anchor="start" x="1346.18" y="-684" font-family="Helvetica,sans-Serif" font-size="10.00">rcMuscleSegmenter::</text>
<text text-anchor="middle" x="1409" y="-672" font-family="Helvetica,sans-Serif" font-size="10.00">genFrequencySegmentation</text>
</a>
</g>
</g>
<!-- Node9&#45;&gt;Node10 -->
<g id="edge9" class="edge"><title>Node9&#45;&gt;Node10</title>
<path fill="none" stroke="midnightblue" d="M1288.59,-668.806C1304.46,-670.559 1321.64,-672.458 1337.9,-674.255"/>
<polygon fill="midnightblue" stroke="midnightblue" points="1288.71,-665.297 1278.38,-667.678 1287.94,-672.255 1288.71,-665.297"/>
</g>
<!-- Node11 -->
<g id="node11" class="node"><title>Node11</title>
<g id="a_node11"><a xlink:href="classrc_muscle_segmenter.html#a660d7b3d1c240efa0b725e0db65154e3" target="_top" xlink:title="rcMuscleSegmenter::\lfilterByActivity">
<polygon fill="white" stroke="black" points="1515.76,-666 1515.76,-698 1626.24,-698 1626.24,-666 1515.76,-666"/>
<text text-anchor="start" x="1523.76" y="-684" font-family="Helvetica,sans-Serif" font-size="10.00">rcMuscleSegmenter::</text>
<text text-anchor="middle" x="1571" y="-672" font-family="Helvetica,sans-Serif" font-size="10.00">filterByActivity</text>
</a>
</g>
</g>
<!-- Node10&#45;&gt;Node11 -->
<g id="edge10" class="edge"><title>Node10&#45;&gt;Node11</title>
<path fill="none" stroke="midnightblue" d="M1490.28,-682C1498.91,-682 1507.54,-682 1515.75,-682"/>
<polygon fill="midnightblue" stroke="midnightblue" points="1490.18,-678.5 1480.18,-682 1490.18,-685.5 1490.18,-678.5"/>
</g>
<!-- Node12 -->
<g id="node12" class="node"><title>Node12</title>
<g id="a_node12"><a xlink:href="classrc_engine_impl.html#a00ca0d227e480ddb5bd6be293b55d2c9" target="_top" xlink:title="rcEngineImpl::muscleTracker">
<polygon fill="white" stroke="black" points="1662.44,-672 1662.44,-692 1807.56,-692 1807.56,-672 1662.44,-672"/>
<text text-anchor="middle" x="1735" y="-678" font-family="Helvetica,sans-Serif" font-size="10.00">rcEngineImpl::muscleTracker</text>
</a>
</g>
</g>
<!-- Node11&#45;&gt;Node12 -->
<g id="edge11" class="edge"><title>Node11&#45;&gt;Node12</title>
<path fill="none" stroke="midnightblue" d="M1636.53,-682C1644.97,-682 1653.65,-682 1662.2,-682"/>
<polygon fill="midnightblue" stroke="midnightblue" points="1636.39,-678.5 1626.39,-682 1636.39,-685.5 1636.39,-678.5"/>
</g>
<!-- Node14 -->
<g id="node14" class="node"><title>Node14</title>
<g id="a_node14"><a xlink:href="vbigdsp_8h.html#a61beacf0495a1cf3b668929e73f585d8" target="_top" xlink:title="FFTRealInverse">
<polygon fill="white" stroke="black" points="854.158,-673 854.158,-693 941.842,-693 941.842,-673 854.158,-673"/>
<text text-anchor="middle" x="898" y="-679" font-family="Helvetica,sans-Serif" font-size="10.00">FFTRealInverse</text>
</a>
</g>
</g>
<!-- Node13&#45;&gt;Node14 -->
<g id="edge13" class="edge"><title>Node13&#45;&gt;Node14</title>
<path fill="none" stroke="midnightblue" d="M825.371,-683C835.046,-683 844.777,-683 853.811,-683"/>
<polygon fill="midnightblue" stroke="midnightblue" points="825.339,-679.5 815.339,-683 825.339,-686.5 825.339,-679.5"/>
</g>
<!-- Node16 -->
<g id="node16" class="node"><title>Node16</title>
<g id="a_node16"><a xlink:href="vbigdsp_8cpp.html#afc4785c346206680fc58b4fae0453329" target="_top" xlink:title="fft_scalar">
<polygon fill="white" stroke="black" points="310.802,-637 310.802,-657 367.198,-657 367.198,-637 310.802,-637"/>
<text text-anchor="middle" x="339" y="-643" font-family="Helvetica,sans-Serif" font-size="10.00">fft_scalar</text>
</a>
</g>
</g>
<!-- Node15&#45;&gt;Node16 -->
<g id="edge15" class="edge"><title>Node15&#45;&gt;Node16</title>
<path fill="none" stroke="midnightblue" d="M201.039,-647C236.126,-647 282.058,-647 310.799,-647"/>
<polygon fill="midnightblue" stroke="midnightblue" points="200.992,-643.5 190.992,-647 200.992,-650.5 200.992,-643.5"/>
</g>
<!-- Node17 -->
<g id="node17" class="node"><title>Node17</title>
<g id="a_node17"><a xlink:href="vbigdsp_8cpp.html#ae0a38b013be66f0ff581e4b5e9d0f281" target="_top" xlink:title="fft_pingpong">
<polygon fill="white" stroke="black" points="461.563,-637 461.563,-657 532.437,-657 532.437,-637 461.563,-637"/>
<text text-anchor="middle" x="497" y="-643" font-family="Helvetica,sans-Serif" font-size="10.00">fft_pingpong</text>
</a>
</g>
</g>
<!-- Node16&#45;&gt;Node17 -->
<g id="edge16" class="edge"><title>Node16&#45;&gt;Node17</title>
<path fill="none" stroke="midnightblue" d="M377.572,-647C403.068,-647 436.528,-647 461.376,-647"/>
<polygon fill="midnightblue" stroke="midnightblue" points="377.531,-643.5 367.531,-647 377.531,-650.5 377.531,-643.5"/>
</g>
<!-- Node18 -->
<g id="node18" class="node"><title>Node18</title>
<g id="a_node18"><a xlink:href="vbigdsp_8h.html#af2ab131969e2f007da33e60f2f54114b" target="_top" xlink:title="FFTComplex">
<polygon fill="white" stroke="black" points="588.108,-637 588.108,-657 661.892,-657 661.892,-637 588.108,-637"/>
<text text-anchor="middle" x="625" y="-643" font-family="Helvetica,sans-Serif" font-size="10.00">FFTComplex</text>
</a>
</g>
</g>
<!-- Node17&#45;&gt;Node18 -->
<g id="edge17" class="edge"><title>Node17&#45;&gt;Node18</title>
<path fill="none" stroke="midnightblue" d="M543.19,-647C557.922,-647 574.071,-647 588.033,-647"/>
<polygon fill="midnightblue" stroke="midnightblue" points="542.764,-643.5 532.764,-647 542.764,-650.5 542.764,-643.5"/>
</g>
<!-- Node18&#45;&gt;Node5 -->
<g id="edge18" class="edge"><title>Node18&#45;&gt;Node5</title>
<path fill="none" stroke="midnightblue" d="M672.442,-643.785C680.74,-643.21 689.478,-642.605 698.051,-642.012"/>
<polygon fill="midnightblue" stroke="midnightblue" points="671.947,-640.311 662.212,-644.493 672.43,-647.294 671.947,-640.311"/>
</g>
<!-- Node18&#45;&gt;Node13 -->
<g id="edge19" class="edge"><title>Node18&#45;&gt;Node13</title>
<path fill="none" stroke="midnightblue" d="M672.162,-659.783C687.711,-664.089 704.835,-668.831 719.531,-672.901"/>
<polygon fill="midnightblue" stroke="midnightblue" points="672.784,-656.324 662.212,-657.028 670.915,-663.07 672.784,-656.324"/>
</g>
<!-- Node29&#45;&gt;Node7 -->
<g id="edge31" class="edge"><title>Node29&#45;&gt;Node7</title>
<path fill="none" stroke="midnightblue" d="M930.788,-714.918C949.482,-709.576 973.559,-702.697 994.865,-696.61"/>
<polygon fill="midnightblue" stroke="midnightblue" points="929.661,-711.6 921.007,-717.712 931.584,-718.33 929.661,-711.6"/>
</g>
<!-- Node30 -->
<g id="node30" class="node"><title>Node30</title>
<g id="a_node30"><a xlink:href="rc__analysis_8h.html#aba9fa9ef0666aeb4960a8a5f031fdce5" target="_top" xlink:title="rf1DFourierAnalysis">
<polygon fill="white" stroke="black" points="995.099,-717 995.099,-737 1098.9,-737 1098.9,-717 995.099,-717"/>
<text text-anchor="middle" x="1047" y="-723" font-family="Helvetica,sans-Serif" font-size="10.00">rf1DFourierAnalysis</text>
</a>
</g>
</g>
<!-- Node29&#45;&gt;Node30 -->
<g id="edge32" class="edge"><title>Node29&#45;&gt;Node30</title>
<path fill="none" stroke="midnightblue" d="M931.048,-724.654C949.705,-725.035 973.658,-725.524 994.865,-725.956"/>
<polygon fill="midnightblue" stroke="midnightblue" points="931.077,-721.154 921.007,-724.449 930.934,-728.153 931.077,-721.154"/>
</g>
<!-- Node30&#45;&gt;Node9 -->
<g id="edge37" class="edge"><title>Node30&#45;&gt;Node9</title>
<path fill="none" stroke="midnightblue" d="M1095.56,-713.785C1101.83,-711.696 1108.11,-709.419 1114,-707 1130.73,-700.123 1133.41,-695.206 1150,-688 1158.09,-684.487 1166.82,-681.106 1175.37,-678.009"/>
<polygon fill="midnightblue" stroke="midnightblue" points="1094.24,-710.531 1085.78,-716.908 1096.37,-717.199 1094.24,-710.531"/>
</g>
<!-- Node31 -->
<g id="node31" class="node"><title>Node31</title>
<g id="a_node31"><a xlink:href="classrc_visual_function.html#a76bcc401f54c5578f2962cd77cb11a63" target="_top" xlink:title="rcVisualFunction::beatProcess">
<polygon fill="white" stroke="black" points="1150.56,-736 1150.56,-756 1301.44,-756 1301.44,-736 1150.56,-736"/>
<text text-anchor="middle" x="1226" y="-742" font-family="Helvetica,sans-Serif" font-size="10.00">rcVisualFunction::beatProcess</text>
</a>
</g>
</g>
<!-- Node30&#45;&gt;Node31 -->
<g id="edge33" class="edge"><title>Node30&#45;&gt;Node31</title>
<path fill="none" stroke="midnightblue" d="M1109.19,-733.568C1122.52,-734.999 1136.77,-736.529 1150.55,-738.008"/>
<polygon fill="midnightblue" stroke="midnightblue" points="1109.51,-730.083 1099.2,-732.496 1108.77,-737.043 1109.51,-730.083"/>
</g>
<!-- Node33 -->
<g id="node33" class="node"><title>Node33</title>
<g id="a_node33"><a xlink:href="rc__kineticimage_8h.html#a37fdff5165799a39ff0e7807bf05a1a3" target="_top" xlink:title="calcMusclePeriod">
<polygon fill="white" stroke="black" points="1178.82,-697 1178.82,-717 1273.18,-717 1273.18,-697 1178.82,-697"/>
<text text-anchor="middle" x="1226" y="-703" font-family="Helvetica,sans-Serif" font-size="10.00">calcMusclePeriod</text>
</a>
</g>
</g>
<!-- Node30&#45;&gt;Node33 -->
<g id="edge35" class="edge"><title>Node30&#45;&gt;Node33</title>
<path fill="none" stroke="midnightblue" d="M1109.44,-720.058C1132.19,-717.487 1157.58,-714.618 1178.75,-712.226"/>
<polygon fill="midnightblue" stroke="midnightblue" points="1108.74,-716.614 1099.2,-721.215 1109.53,-723.57 1108.74,-716.614"/>
</g>
<!-- Node32 -->
<g id="node32" class="node"><title>Node32</title>
<g id="a_node32"><a xlink:href="classrc_visual_function.html#a653fd69af532714b01f9c0b5cabc96c6" target="_top" xlink:title="rcVisualFunction::reconcile">
<polygon fill="white" stroke="black" points="1341.34,-736 1341.34,-756 1476.66,-756 1476.66,-736 1341.34,-736"/>
<text text-anchor="middle" x="1409" y="-742" font-family="Helvetica,sans-Serif" font-size="10.00">rcVisualFunction::reconcile</text>
</a>
</g>
</g>
<!-- Node31&#45;&gt;Node32 -->
<g id="edge34" class="edge"><title>Node31&#45;&gt;Node32</title>
<path fill="none" stroke="midnightblue" d="M1311.9,-746C1321.78,-746 1331.75,-746 1341.33,-746"/>
<polygon fill="midnightblue" stroke="midnightblue" points="1311.66,-742.5 1301.66,-746 1311.66,-749.5 1311.66,-742.5"/>
</g>
<!-- Node33&#45;&gt;Node10 -->
<g id="edge36" class="edge"><title>Node33&#45;&gt;Node10</title>
<path fill="none" stroke="midnightblue" d="M1283.52,-699.193C1300.77,-696.811 1319.94,-694.162 1337.97,-691.672"/>
<polygon fill="midnightblue" stroke="midnightblue" points="1283.04,-695.726 1273.61,-700.562 1284,-702.661 1283.04,-695.726"/>
</g>
<!-- Node36 -->
<g id="node36" class="node"><title>Node36</title>
<g id="a_node36"><a xlink:href="classrc_ellipse.html#a4e6ccb9821df31bc8af82ed1edae3df6" target="_top" xlink:title="rcEllipse::contains">
<polygon fill="white" stroke="black" points="290.705,-118 290.705,-138 387.295,-138 387.295,-118 290.705,-118"/>
<text text-anchor="middle" x="339" y="-124" font-family="Helvetica,sans-Serif" font-size="10.00">rcEllipse::contains</text>
</a>
</g>
</g>
<!-- Node35&#45;&gt;Node36 -->
<g id="edge40" class="edge"><title>Node35&#45;&gt;Node36</title>
<path fill="none" stroke="midnightblue" d="M199.065,-128C227.009,-128 262.341,-128 290.382,-128"/>
<polygon fill="midnightblue" stroke="midnightblue" points="198.748,-124.5 188.748,-128 198.748,-131.5 198.748,-124.5"/>
</g>
<!-- Node39 -->
<g id="node39" class="node"><title>Node39</title>
<g id="a_node39"><a xlink:href="classrc_affine_window.html#a9aa4d64aeae21263e779235d0cedcf55" target="_top" xlink:title="rcAffineWindow::vAffineTo\lImage">
<polygon fill="white" stroke="black" points="272.921,-51 272.921,-83 405.079,-83 405.079,-51 272.921,-51"/>
<text text-anchor="start" x="280.921" y="-69" font-family="Helvetica,sans-Serif" font-size="10.00">rcAffineWindow::vAffineTo</text>
<text text-anchor="middle" x="339" y="-57" font-family="Helvetica,sans-Serif" font-size="10.00">Image</text>
</a>
</g>
</g>
<!-- Node38&#45;&gt;Node39 -->
<g id="edge43" class="edge"><title>Node38&#45;&gt;Node39</title>
<path fill="none" stroke="midnightblue" d="M245.985,-58.59C255.062,-59.4197 264.127,-60.2482 272.833,-61.0439"/>
<polygon fill="midnightblue" stroke="midnightblue" points="246.027,-55.0794 235.75,-57.6546 245.39,-62.0503 246.027,-55.0794"/>
</g>
<!-- Node40 -->
<g id="node40" class="node"><title>Node40</title>
<g id="a_node40"><a xlink:href="classrc_affine_window.html#a1bd6460d6e9216afb7cd897da375df2e" target="_top" xlink:title="rcAffineWindow::vImageTo\lAffine">
<polygon fill="white" stroke="black" points="271.811,-0 271.811,-32 406.189,-32 406.189,-0 271.811,-0"/>
<text text-anchor="start" x="279.811" y="-18" font-family="Helvetica,sans-Serif" font-size="10.00">rcAffineWindow::vImageTo</text>
<text text-anchor="middle" x="339" y="-6" font-family="Helvetica,sans-Serif" font-size="10.00">Affine</text>
</a>
</g>
</g>
<!-- Node38&#45;&gt;Node40 -->
<g id="edge44" class="edge"><title>Node38&#45;&gt;Node40</title>
<path fill="none" stroke="midnightblue" d="M217.038,-38.1114C234.756,-34.8725 253.968,-31.3608 271.752,-28.1098"/>
<polygon fill="midnightblue" stroke="midnightblue" points="216.008,-34.7416 206.8,-39.9828 217.267,-41.6275 216.008,-34.7416"/>
</g>
<!-- Node41 -->
<g id="node41" class="node"><title>Node41</title>
<g id="a_node41"><a xlink:href="classrc_def_generate_image.html#abaf414018792172efa91b653757bae81" target="_top" xlink:title="rcDefGenerateImage\l::genImage">
<polygon fill="white" stroke="black" points="442.311,-0 442.311,-32 551.689,-32 551.689,-0 442.311,-0"/>
<text text-anchor="start" x="450.311" y="-18" font-family="Helvetica,sans-Serif" font-size="10.00">rcDefGenerateImage</text>
<text text-anchor="middle" x="497" y="-6" font-family="Helvetica,sans-Serif" font-size="10.00">::genImage</text>
</a>
</g>
</g>
<!-- Node40&#45;&gt;Node41 -->
<g id="edge45" class="edge"><title>Node40&#45;&gt;Node41</title>
<path fill="none" stroke="midnightblue" d="M416.87,-16C425.31,-16 433.768,-16 441.848,-16"/>
<polygon fill="midnightblue" stroke="midnightblue" points="416.611,-12.5001 406.611,-16 416.611,-19.5001 416.611,-12.5001"/>
</g>
</g>
</svg>
