<?xml version="1.0" encoding="UTF-8" standalone="no"?>
<!DOCTYPE svg PUBLIC "-//W3C//DTD SVG 1.1//EN"
 "http://www.w3.org/Graphics/SVG/1.1/DTD/svg11.dtd">
<!-- Generated by graphviz version 2.32.0 (20130916.1925)
 -->
<!-- Title: rfPixelSample Pages: 1 -->
<svg width="500pt" height="262pt"
 viewBox="0.00 0.00 500.00 262.00" xmlns="http://www.w3.org/2000/svg" xmlns:xlink="http://www.w3.org/1999/xlink">
<g id="graph0" class="graph" transform="scale(1 1) rotate(0) translate(4 258)">
<title>rfPixelSample</title>
<polygon fill="white" stroke="white" points="-4,5 -4,-258 497,-258 497,5 -4,5"/>
<!-- Node1 -->
<g id="node1" class="node"><title>Node1</title>
<polygon fill="#bfbfbf" stroke="black" points="0.155273,-117 0.155273,-137 77.8447,-137 77.8447,-117 0.155273,-117"/>
<text text-anchor="middle" x="39" y="-123" font-family="Helvetica,sans-Serif" font-size="10.00">rfPixelSample</text>
</g>
<!-- Node2 -->
<g id="node2" class="node"><title>Node2</title>
<g id="a_node2"><a xlink:href="classrc_window.html#a958e7e0bd74b12cbcb44e73a2692400a" target="_top" xlink:title="rcWindow::height">
<polygon fill="white" stroke="black" points="124.65,-234 124.65,-254 217.35,-254 217.35,-234 124.65,-234"/>
<text text-anchor="middle" x="171" y="-240" font-family="Helvetica,sans-Serif" font-size="10.00">rcWindow::height</text>
</a>
</g>
</g>
<!-- Node1&#45;&gt;Node2 -->
<g id="edge1" class="edge"><title>Node1&#45;&gt;Node2</title>
<path fill="none" stroke="midnightblue" d="M45.0809,-137.047C55.433,-156.552 80.8225,-199.756 114,-224 116.837,-226.073 119.909,-227.948 123.103,-229.641"/>
<polygon fill="midnightblue" stroke="midnightblue" points="121.796,-232.893 132.338,-233.946 124.753,-226.549 121.796,-232.893"/>
</g>
<!-- Node3 -->
<g id="node3" class="node"><title>Node3</title>
<g id="a_node3"><a xlink:href="classrc_rectangle.html#abe44205fccdffe80fbfdd4de79b406dc" target="_top" xlink:title="rcRectangle::height">
<polygon fill="white" stroke="black" points="119.919,-195 119.919,-215 222.081,-215 222.081,-195 119.919,-195"/>
<text text-anchor="middle" x="171" y="-201" font-family="Helvetica,sans-Serif" font-size="10.00">rcRectangle::height</text>
</a>
</g>
</g>
<!-- Node1&#45;&gt;Node3 -->
<g id="edge2" class="edge"><title>Node1&#45;&gt;Node3</title>
<path fill="none" stroke="midnightblue" d="M50.732,-137.257C64.4605,-149.922 89.4138,-171.444 114,-185 118.024,-187.219 122.343,-189.271 126.731,-191.147"/>
<polygon fill="midnightblue" stroke="midnightblue" points="125.775,-194.533 136.361,-194.969 128.358,-188.027 125.775,-194.533"/>
</g>
<!-- Node4 -->
<g id="node4" class="node"><title>Node4</title>
<g id="a_node4"><a xlink:href="classrc_window.html#a3286f93b0d223617111f3ac62b854b2f" target="_top" xlink:title="rcWindow::isBound">
<polygon fill="white" stroke="black" points="120.205,-156 120.205,-176 221.795,-176 221.795,-156 120.205,-156"/>
<text text-anchor="middle" x="171" y="-162" font-family="Helvetica,sans-Serif" font-size="10.00">rcWindow::isBound</text>
</a>
</g>
</g>
<!-- Node1&#45;&gt;Node4 -->
<g id="edge3" class="edge"><title>Node1&#45;&gt;Node4</title>
<path fill="none" stroke="midnightblue" d="M73.4782,-137.043C89.7034,-141.911 109.386,-147.816 126.734,-153.02"/>
<polygon fill="midnightblue" stroke="midnightblue" points="126.051,-156.469 136.635,-155.991 128.063,-149.765 126.051,-156.469"/>
</g>
<!-- Node5 -->
<g id="node5" class="node"><title>Node5</title>
<g id="a_node5"><a xlink:href="classrc_window.html#a8bad48552f0db28803089113326911de" target="_top" xlink:title="rcWindow::pelPointer">
<polygon fill="white" stroke="black" points="115.759,-117 115.759,-137 226.241,-137 226.241,-117 115.759,-117"/>
<text text-anchor="middle" x="171" y="-123" font-family="Helvetica,sans-Serif" font-size="10.00">rcWindow::pelPointer</text>
</a>
</g>
</g>
<!-- Node1&#45;&gt;Node5 -->
<g id="edge4" class="edge"><title>Node1&#45;&gt;Node5</title>
<path fill="none" stroke="midnightblue" d="M77.9509,-127C86.5366,-127 95.8887,-127 105.234,-127"/>
<polygon fill="midnightblue" stroke="midnightblue" points="105.336,-130.5 115.336,-127 105.336,-123.5 105.336,-130.5"/>
</g>
<!-- Node12 -->
<g id="node12" class="node"><title>Node12</title>
<g id="a_node12"><a xlink:href="classrc_window.html#a232627a15bd75725861721177a38df82" target="_top" xlink:title="rcWindow::rowPointer">
<polygon fill="white" stroke="black" points="114.375,-78 114.375,-98 227.625,-98 227.625,-78 114.375,-78"/>
<text text-anchor="middle" x="171" y="-84" font-family="Helvetica,sans-Serif" font-size="10.00">rcWindow::rowPointer</text>
</a>
</g>
</g>
<!-- Node1&#45;&gt;Node12 -->
<g id="edge11" class="edge"><title>Node1&#45;&gt;Node12</title>
<path fill="none" stroke="midnightblue" d="M73.4782,-116.957C89.7034,-112.089 109.386,-106.184 126.734,-100.98"/>
<polygon fill="midnightblue" stroke="midnightblue" points="128.063,-104.235 136.635,-98.0094 126.051,-97.5306 128.063,-104.235"/>
</g>
<!-- Node14 -->
<g id="node14" class="node"><title>Node14</title>
<g id="a_node14"><a xlink:href="classrc_window.html#a0ae0c2adbe34085eb07c93edd60b342a" target="_top" xlink:title="rcWindow::width">
<polygon fill="white" stroke="black" points="126.601,-39 126.601,-59 215.399,-59 215.399,-39 126.601,-39"/>
<text text-anchor="middle" x="171" y="-45" font-family="Helvetica,sans-Serif" font-size="10.00">rcWindow::width</text>
</a>
</g>
</g>
<!-- Node1&#45;&gt;Node14 -->
<g id="edge16" class="edge"><title>Node1&#45;&gt;Node14</title>
<path fill="none" stroke="midnightblue" d="M50.732,-116.743C64.4605,-104.078 89.4138,-82.5562 114,-69 118.024,-66.781 122.343,-64.729 126.731,-62.853"/>
<polygon fill="midnightblue" stroke="midnightblue" points="128.358,-65.9728 136.361,-59.0307 125.775,-59.4665 128.358,-65.9728"/>
</g>
<!-- Node15 -->
<g id="node15" class="node"><title>Node15</title>
<g id="a_node15"><a xlink:href="classrc_rectangle.html#a37c8043dcda3dc1076e57c4a1c219263" target="_top" xlink:title="rcRectangle::width">
<polygon fill="white" stroke="black" points="121.87,-0 121.87,-20 220.13,-20 220.13,-0 121.87,-0"/>
<text text-anchor="middle" x="171" y="-6" font-family="Helvetica,sans-Serif" font-size="10.00">rcRectangle::width</text>
</a>
</g>
</g>
<!-- Node1&#45;&gt;Node15 -->
<g id="edge17" class="edge"><title>Node1&#45;&gt;Node15</title>
<path fill="none" stroke="midnightblue" d="M45.0193,-116.801C55.2633,-97.0103 80.4724,-53.2186 114,-29 116.341,-27.3092 118.843,-25.7606 121.443,-24.3434"/>
<polygon fill="midnightblue" stroke="midnightblue" points="123.033,-27.4632 130.568,-20.0151 120.033,-21.1386 123.033,-27.4632"/>
</g>
<!-- Node6 -->
<g id="node6" class="node"><title>Node6</title>
<g id="a_node6"><a xlink:href="classrc_frame.html#a8005eafc78f0008a7df596d55c2b23b9" target="_top" xlink:title="rcFrame::pelPointer">
<polygon fill="white" stroke="black" points="266.096,-156 266.096,-176 369.904,-176 369.904,-156 266.096,-156"/>
<text text-anchor="middle" x="318" y="-162" font-family="Helvetica,sans-Serif" font-size="10.00">rcFrame::pelPointer</text>
</a>
</g>
</g>
<!-- Node5&#45;&gt;Node6 -->
<g id="edge5" class="edge"><title>Node5&#45;&gt;Node6</title>
<path fill="none" stroke="midnightblue" d="M209.341,-137.043C227.861,-142.025 250.42,-148.092 270.094,-153.384"/>
<polygon fill="midnightblue" stroke="midnightblue" points="269.22,-156.773 279.785,-155.991 271.038,-150.013 269.22,-156.773"/>
</g>
<!-- Node8 -->
<g id="node8" class="node"><title>Node8</title>
<g id="a_node8"><a xlink:href="classrc_rect.html#ac0f95519a41dcf7e33bec85ccb8e7aff" target="_top" xlink:title="rcRect::x">
<polygon fill="white" stroke="black" points="290.276,-78 290.276,-98 345.724,-98 345.724,-78 290.276,-78"/>
<text text-anchor="middle" x="318" y="-84" font-family="Helvetica,sans-Serif" font-size="10.00">rcRect::x</text>
</a>
</g>
</g>
<!-- Node5&#45;&gt;Node8 -->
<g id="edge7" class="edge"><title>Node5&#45;&gt;Node8</title>
<path fill="none" stroke="midnightblue" d="M209.341,-116.957C231.073,-111.111 258.365,-103.771 280.033,-97.9429"/>
<polygon fill="midnightblue" stroke="midnightblue" points="281.112,-101.277 289.86,-95.2999 279.294,-94.5174 281.112,-101.277"/>
</g>
<!-- Node10 -->
<g id="node10" class="node"><title>Node10</title>
<g id="a_node10"><a xlink:href="classrc_rect.html#a50236160751c949d8718f8d4d17f7923" target="_top" xlink:title="rcRect::y">
<polygon fill="white" stroke="black" points="290.276,-117 290.276,-137 345.724,-137 345.724,-117 290.276,-117"/>
<text text-anchor="middle" x="318" y="-123" font-family="Helvetica,sans-Serif" font-size="10.00">rcRect::y</text>
</a>
</g>
</g>
<!-- Node5&#45;&gt;Node10 -->
<g id="edge9" class="edge"><title>Node5&#45;&gt;Node10</title>
<path fill="none" stroke="midnightblue" d="M226.405,-127C244.204,-127 263.557,-127 279.788,-127"/>
<polygon fill="midnightblue" stroke="midnightblue" points="279.956,-130.5 289.956,-127 279.956,-123.5 279.956,-130.5"/>
</g>
<!-- Node7 -->
<g id="node7" class="node"><title>Node7</title>
<g id="a_node7"><a xlink:href="classrc_frame.html#aaef8303c840834284eb9c60d33bf40c1" target="_top" xlink:title="rcFrame::depth">
<polygon fill="white" stroke="black" points="408.099,-39 408.099,-59 491.901,-59 491.901,-39 408.099,-39"/>
<text text-anchor="middle" x="450" y="-45" font-family="Helvetica,sans-Serif" font-size="10.00">rcFrame::depth</text>
</a>
</g>
</g>
<!-- Node6&#45;&gt;Node7 -->
<g id="edge6" class="edge"><title>Node6&#45;&gt;Node7</title>
<path fill="none" stroke="midnightblue" d="M356.745,-155.962C362.286,-153.346 367.599,-150.077 372,-146 399.715,-120.328 381.508,-95.9325 408,-69 409.579,-67.3944 411.314,-65.8987 413.149,-64.5083"/>
<polygon fill="midnightblue" stroke="midnightblue" points="415.126,-67.3991 421.677,-59.0725 411.363,-61.4964 415.126,-67.3991"/>
</g>
<!-- Node9 -->
<g id="node9" class="node"><title>Node9</title>
<g id="a_node9"><a xlink:href="classrc_pair.html#ad1a3cb1e7fdbe119ce1295514b1bb49d" target="_top" xlink:title="rcPair::x">
<polygon fill="white" stroke="black" points="423.665,-78 423.665,-98 476.335,-98 476.335,-78 423.665,-78"/>
<text text-anchor="middle" x="450" y="-84" font-family="Helvetica,sans-Serif" font-size="10.00">rcPair::x</text>
</a>
</g>
</g>
<!-- Node8&#45;&gt;Node9 -->
<g id="edge8" class="edge"><title>Node8&#45;&gt;Node9</title>
<path fill="none" stroke="midnightblue" d="M345.936,-88C365.404,-88 391.907,-88 413.161,-88"/>
<polygon fill="midnightblue" stroke="midnightblue" points="413.425,-91.5001 423.425,-88 413.425,-84.5001 413.425,-91.5001"/>
</g>
<!-- Node11 -->
<g id="node11" class="node"><title>Node11</title>
<g id="a_node11"><a xlink:href="classrc_pair.html#a87400f83938e920c405c40aa449d3607" target="_top" xlink:title="rcPair::y">
<polygon fill="white" stroke="black" points="423.665,-117 423.665,-137 476.335,-137 476.335,-117 423.665,-117"/>
<text text-anchor="middle" x="450" y="-123" font-family="Helvetica,sans-Serif" font-size="10.00">rcPair::y</text>
</a>
</g>
</g>
<!-- Node10&#45;&gt;Node11 -->
<g id="edge10" class="edge"><title>Node10&#45;&gt;Node11</title>
<path fill="none" stroke="midnightblue" d="M345.936,-127C365.404,-127 391.907,-127 413.161,-127"/>
<polygon fill="midnightblue" stroke="midnightblue" points="413.425,-130.5 423.425,-127 413.425,-123.5 413.425,-130.5"/>
</g>
<!-- Node12&#45;&gt;Node7 -->
<g id="edge15" class="edge"><title>Node12&#45;&gt;Node7</title>
<path fill="none" stroke="midnightblue" d="M216.298,-77.9549C231.378,-74.7747 248.371,-71.4528 264,-69 309.071,-61.9264 360.714,-56.5708 397.962,-53.1903"/>
<polygon fill="midnightblue" stroke="midnightblue" points="398.419,-56.6635 408.069,-52.2894 397.798,-49.6911 398.419,-56.6635"/>
</g>
<!-- Node12&#45;&gt;Node8 -->
<g id="edge14" class="edge"><title>Node12&#45;&gt;Node8</title>
<path fill="none" stroke="midnightblue" d="M227.646,-88C245.037,-88 263.797,-88 279.616,-88"/>
<polygon fill="midnightblue" stroke="midnightblue" points="280.045,-91.5001 290.045,-88 280.045,-84.5001 280.045,-91.5001"/>
</g>
<!-- Node12&#45;&gt;Node10 -->
<g id="edge13" class="edge"><title>Node12&#45;&gt;Node10</title>
<path fill="none" stroke="midnightblue" d="M209.341,-98.0435C231.073,-103.889 258.365,-111.229 280.033,-117.057"/>
<polygon fill="midnightblue" stroke="midnightblue" points="279.294,-120.483 289.86,-119.7 281.112,-113.723 279.294,-120.483"/>
</g>
<!-- Node13 -->
<g id="node13" class="node"><title>Node13</title>
<g id="a_node13"><a xlink:href="classrc_frame.html#a401a851fcb8a4328949d38cb34b572f6" target="_top" xlink:title="rcFrame::rowPointer">
<polygon fill="white" stroke="black" points="264.712,-0 264.712,-20 371.288,-20 371.288,-0 264.712,-0"/>
<text text-anchor="middle" x="318" y="-6" font-family="Helvetica,sans-Serif" font-size="10.00">rcFrame::rowPointer</text>
</a>
</g>
</g>
<!-- Node12&#45;&gt;Node13 -->
<g id="edge12" class="edge"><title>Node12&#45;&gt;Node13</title>
<path fill="none" stroke="midnightblue" d="M207.042,-77.9159C214.219,-75.1888 221.546,-71.8907 228,-68 246.589,-56.7944 245.981,-47.1002 264,-35 269.731,-31.1513 276.148,-27.5863 282.485,-24.4251"/>
<polygon fill="midnightblue" stroke="midnightblue" points="284.083,-27.541 291.621,-20.0965 281.086,-21.2151 284.083,-27.541"/>
</g>
</g>
</svg>
