<?xml version="1.0" encoding="UTF-8" standalone="no"?>
<!DOCTYPE svg PUBLIC "-//W3C//DTD SVG 1.1//EN"
 "http://www.w3.org/Graphics/SVG/1.1/DTD/svg11.dtd">
<!-- Generated by graphviz version 2.32.0 (20130916.1925)
 -->
<!-- Title: include/visUI/rc_about.h Pages: 1 -->
<svg width="221pt" height="88pt"
 viewBox="0.00 0.00 221.00 88.00" xmlns="http://www.w3.org/2000/svg" xmlns:xlink="http://www.w3.org/1999/xlink">
<g id="graph0" class="graph" transform="scale(1 1) rotate(0) translate(4 84)">
<title>include/visUI/rc_about.h</title>
<polygon fill="white" stroke="white" points="-4,5 -4,-84 218,-84 218,5 -4,5"/>
<!-- Node1 -->
<g id="node1" class="node"><title>Node1</title>
<polygon fill="#bfbfbf" stroke="black" points="46.6382,-59 46.6382,-79 169.362,-79 169.362,-59 46.6382,-59"/>
<text text-anchor="middle" x="108" y="-65" font-family="Helvetica,sans-Serif" font-size="10.00">include/visUI/rc_about.h</text>
</g>
<!-- Node2 -->
<g id="node2" class="node"><title>Node2</title>
<polygon fill="white" stroke="#bfbfbf" points="-0.958008,-1 -0.958008,-21 58.958,-21 58.958,-1 -0.958008,-1"/>
<text text-anchor="middle" x="29" y="-7" font-family="Helvetica,sans-Serif" font-size="10.00">qvariant.h</text>
</g>
<!-- Node1&#45;&gt;Node2 -->
<g id="edge1" class="edge"><title>Node1&#45;&gt;Node2</title>
<path fill="none" stroke="midnightblue" d="M94.9548,-58.7527C82.7606,-50.1087 64.341,-37.0518 50.0639,-26.9314"/>
<polygon fill="midnightblue" stroke="midnightblue" points="51.9848,-24.0029 41.8025,-21.0752 47.9367,-29.7137 51.9848,-24.0029"/>
</g>
<!-- Node3 -->
<g id="node3" class="node"><title>Node3</title>
<polygon fill="white" stroke="#bfbfbf" points="76.9312,-1 76.9312,-21 139.069,-21 139.069,-1 76.9312,-1"/>
<text text-anchor="middle" x="108" y="-7" font-family="Helvetica,sans-Serif" font-size="10.00">qpixmap.h</text>
</g>
<!-- Node1&#45;&gt;Node3 -->
<g id="edge2" class="edge"><title>Node1&#45;&gt;Node3</title>
<path fill="none" stroke="midnightblue" d="M108,-58.7527C108,-51.2504 108,-40.4238 108,-31.0781"/>
<polygon fill="midnightblue" stroke="midnightblue" points="111.5,-31.0752 108,-21.0752 104.5,-31.0752 111.5,-31.0752"/>
</g>
<!-- Node4 -->
<g id="node4" class="node"><title>Node4</title>
<polygon fill="white" stroke="#bfbfbf" points="156.705,-1 156.705,-21 213.295,-21 213.295,-1 156.705,-1"/>
<text text-anchor="middle" x="185" y="-7" font-family="Helvetica,sans-Serif" font-size="10.00">qdialog.h</text>
</g>
<!-- Node1&#45;&gt;Node4 -->
<g id="edge3" class="edge"><title>Node1&#45;&gt;Node4</title>
<path fill="none" stroke="midnightblue" d="M120.715,-58.7527C132.488,-50.1903 150.216,-37.2978 164.074,-27.2186"/>
<polygon fill="midnightblue" stroke="midnightblue" points="166.493,-29.7875 172.522,-21.0752 162.376,-24.1264 166.493,-29.7875"/>
</g>
</g>
</svg>
