<?xml version="1.0" encoding="UTF-8" standalone="no"?>
<!DOCTYPE svg PUBLIC "-//W3C//DTD SVG 1.1//EN"
 "http://www.w3.org/Graphics/SVG/1.1/DTD/svg11.dtd">
<!-- Generated by graphviz version 2.32.0 (20130916.1925)
 -->
<!-- Title: dump_poly Pages: 1 -->
<svg width="972pt" height="123pt"
 viewBox="0.00 0.00 972.00 123.00" xmlns="http://www.w3.org/2000/svg" xmlns:xlink="http://www.w3.org/1999/xlink">
<g id="graph0" class="graph" transform="scale(1 1) rotate(0) translate(4 119)">
<title>dump_poly</title>
<polygon fill="white" stroke="white" points="-4,5 -4,-119 969,-119 969,5 -4,5"/>
<!-- Node1 -->
<g id="node1" class="node"><title>Node1</title>
<polygon fill="#bfbfbf" stroke="black" points="0.539551,-39 0.539551,-59 65.4604,-59 65.4604,-39 0.539551,-39"/>
<text text-anchor="middle" x="33" y="-45" font-family="Helvetica,sans-Serif" font-size="10.00">dump_poly</text>
</g>
<!-- Node2 -->
<g id="node2" class="node"><title>Node2</title>
<g id="a_node2"><a xlink:href="rc__fill_8cpp.html#a94235a51c6359ac0ea37baf89df53699" target="_top" xlink:title="clip_polygon_to_pel">
<polygon fill="white" stroke="black" points="101.798,-59 101.798,-79 206.202,-79 206.202,-59 101.798,-59"/>
<text text-anchor="middle" x="154" y="-65" font-family="Helvetica,sans-Serif" font-size="10.00">clip_polygon_to_pel</text>
</a>
</g>
</g>
<!-- Node1&#45;&gt;Node2 -->
<g id="edge1" class="edge"><title>Node1&#45;&gt;Node2</title>
<path fill="none" stroke="midnightblue" d="M75.4943,-55.9738C83.8803,-57.3833 92.7932,-58.8812 101.475,-60.3404"/>
<polygon fill="midnightblue" stroke="midnightblue" points="76.0192,-52.513 65.5774,-54.3071 74.859,-59.4162 76.0192,-52.513"/>
</g>
<!-- Node3 -->
<g id="node3" class="node"><title>Node3</title>
<g id="a_node3"><a xlink:href="rc__fill_8h.html#a00254f8042116d7ae9165b9ec7784ea2" target="_top" xlink:title="rc_fill_poly">
<polygon fill="white" stroke="black" points="242.379,-39 242.379,-59 305.621,-59 305.621,-39 242.379,-39"/>
<text text-anchor="middle" x="274" y="-45" font-family="Helvetica,sans-Serif" font-size="10.00">rc_fill_poly</text>
</a>
</g>
</g>
<!-- Node1&#45;&gt;Node3 -->
<g id="edge10" class="edge"><title>Node1&#45;&gt;Node3</title>
<path fill="none" stroke="midnightblue" d="M76.0087,-49C123.577,-49 199.948,-49 242.268,-49"/>
<polygon fill="midnightblue" stroke="midnightblue" points="75.7374,-45.5001 65.7374,-49 75.7373,-52.5001 75.7374,-45.5001"/>
</g>
<!-- Node2&#45;&gt;Node3 -->
<g id="edge2" class="edge"><title>Node2&#45;&gt;Node3</title>
<path fill="none" stroke="midnightblue" d="M216.454,-58.5841C225.357,-57.0751 234.186,-55.5787 242.127,-54.2327"/>
<polygon fill="midnightblue" stroke="midnightblue" points="215.688,-55.1639 206.413,-60.2859 216.858,-62.0655 215.688,-55.1639"/>
</g>
<!-- Node4 -->
<g id="node4" class="node"><title>Node4</title>
<g id="a_node4"><a xlink:href="rc__draw_8h.html#a72125d1915a0c243a770c6635ecbf584" target="_top" xlink:title="rcFillPolygon">
<polygon fill="white" stroke="black" points="342.379,-39 342.379,-59 415.621,-59 415.621,-39 342.379,-39"/>
<text text-anchor="middle" x="379" y="-45" font-family="Helvetica,sans-Serif" font-size="10.00">rcFillPolygon</text>
</a>
</g>
</g>
<!-- Node3&#45;&gt;Node4 -->
<g id="edge3" class="edge"><title>Node3&#45;&gt;Node4</title>
<path fill="none" stroke="midnightblue" d="M315.663,-49C324.442,-49 333.661,-49 342.236,-49"/>
<polygon fill="midnightblue" stroke="midnightblue" points="315.625,-45.5001 305.625,-49 315.624,-52.5001 315.625,-45.5001"/>
</g>
<!-- Node5 -->
<g id="node5" class="node"><title>Node5</title>
<g id="a_node5"><a xlink:href="classrc_muscle_segmenter.html#a61c65559f55fd9fa632b96e09ef50b2e" target="_top" xlink:title="rcMuscleSegmenter::\lgenFrequencySegmentation">
<polygon fill="white" stroke="black" points="452.18,-81 452.18,-113 593.82,-113 593.82,-81 452.18,-81"/>
<text text-anchor="start" x="460.18" y="-99" font-family="Helvetica,sans-Serif" font-size="10.00">rcMuscleSegmenter::</text>
<text text-anchor="middle" x="523" y="-87" font-family="Helvetica,sans-Serif" font-size="10.00">genFrequencySegmentation</text>
</a>
</g>
</g>
<!-- Node4&#45;&gt;Node5 -->
<g id="edge4" class="edge"><title>Node4&#45;&gt;Node5</title>
<path fill="none" stroke="midnightblue" d="M419.45,-62.3351C436.565,-68.1205 456.75,-74.9438 474.666,-80.9998"/>
<polygon fill="midnightblue" stroke="midnightblue" points="420.362,-58.949 409.768,-59.0624 418.12,-65.5804 420.362,-58.949"/>
</g>
<!-- Node8 -->
<g id="node8" class="node"><title>Node8</title>
<g id="a_node8"><a xlink:href="classrc_kinetoscope.html#a18739703ba714a3c04de5a56846bbd9d" target="_top" xlink:title="rcKinetoscope::preSegmented\lBodies">
<polygon fill="white" stroke="black" points="630.737,-32 630.737,-64 781.263,-64 781.263,-32 630.737,-32"/>
<text text-anchor="start" x="638.737" y="-50" font-family="Helvetica,sans-Serif" font-size="10.00">rcKinetoscope::preSegmented</text>
<text text-anchor="middle" x="706" y="-38" font-family="Helvetica,sans-Serif" font-size="10.00">Bodies</text>
</a>
</g>
</g>
<!-- Node4&#45;&gt;Node8 -->
<g id="edge7" class="edge"><title>Node4&#45;&gt;Node8</title>
<path fill="none" stroke="midnightblue" d="M425.863,-48.8589C479.066,-48.6952 567.533,-48.423 630.61,-48.2289"/>
<polygon fill="midnightblue" stroke="midnightblue" points="425.7,-45.3593 415.71,-48.8901 425.721,-52.3592 425.7,-45.3593"/>
</g>
<!-- Node9 -->
<g id="node9" class="node"><title>Node9</title>
<g id="a_node9"><a xlink:href="classrc_shape.html#a121cd77a46ce4a89b92e6a2b5e1cfc00" target="_top" xlink:title="rcShape::setMask">
<polygon fill="white" stroke="black" points="474.983,-0 474.983,-20 571.017,-20 571.017,-0 474.983,-0"/>
<text text-anchor="middle" x="523" y="-6" font-family="Helvetica,sans-Serif" font-size="10.00">rcShape::setMask</text>
</a>
</g>
</g>
<!-- Node4&#45;&gt;Node9 -->
<g id="edge9" class="edge"><title>Node4&#45;&gt;Node9</title>
<path fill="none" stroke="midnightblue" d="M425.606,-36.4744C444.865,-31.1851 466.994,-25.1072 485.189,-20.1101"/>
<polygon fill="midnightblue" stroke="midnightblue" points="424.549,-33.1351 415.833,-39.1587 426.402,-39.8852 424.549,-33.1351"/>
</g>
<!-- Node6 -->
<g id="node6" class="node"><title>Node6</title>
<g id="a_node6"><a xlink:href="classrc_muscle_segmenter.html#a660d7b3d1c240efa0b725e0db65154e3" target="_top" xlink:title="rcMuscleSegmenter::\lfilterByActivity">
<polygon fill="white" stroke="black" points="650.761,-83 650.761,-115 761.239,-115 761.239,-83 650.761,-83"/>
<text text-anchor="start" x="658.761" y="-101" font-family="Helvetica,sans-Serif" font-size="10.00">rcMuscleSegmenter::</text>
<text text-anchor="middle" x="706" y="-89" font-family="Helvetica,sans-Serif" font-size="10.00">filterByActivity</text>
</a>
</g>
</g>
<!-- Node5&#45;&gt;Node6 -->
<g id="edge5" class="edge"><title>Node5&#45;&gt;Node6</title>
<path fill="none" stroke="midnightblue" d="M604.215,-97.8864C619.914,-98.0598 636.031,-98.2379 650.643,-98.3994"/>
<polygon fill="midnightblue" stroke="midnightblue" points="604.017,-94.3841 593.979,-97.7733 603.94,-101.384 604.017,-94.3841"/>
</g>
<!-- Node7 -->
<g id="node7" class="node"><title>Node7</title>
<g id="a_node7"><a xlink:href="classrc_engine_impl.html#a00ca0d227e480ddb5bd6be293b55d2c9" target="_top" xlink:title="rcEngineImpl::muscleTracker">
<polygon fill="white" stroke="black" points="818.442,-63 818.442,-83 963.558,-83 963.558,-63 818.442,-63"/>
<text text-anchor="middle" x="891" y="-69" font-family="Helvetica,sans-Serif" font-size="10.00">rcEngineImpl::muscleTracker</text>
</a>
</g>
</g>
<!-- Node6&#45;&gt;Node7 -->
<g id="edge6" class="edge"><title>Node6&#45;&gt;Node7</title>
<path fill="none" stroke="midnightblue" d="M771.444,-89.8441C786.995,-87.6346 803.692,-85.2624 819.504,-83.0158"/>
<polygon fill="midnightblue" stroke="midnightblue" points="770.819,-86.3976 761.411,-91.2695 771.803,-93.328 770.819,-86.3976"/>
</g>
<!-- Node8&#45;&gt;Node7 -->
<g id="edge8" class="edge"><title>Node8&#45;&gt;Node7</title>
<path fill="none" stroke="midnightblue" d="M791.493,-59.5427C800.453,-60.7668 809.503,-62.0032 818.297,-63.2045"/>
<polygon fill="midnightblue" stroke="midnightblue" points="791.815,-56.0543 781.433,-58.1685 790.867,-62.9899 791.815,-56.0543"/>
</g>
</g>
</svg>
