<?xml version="1.0" encoding="UTF-8" standalone="no"?>
<!DOCTYPE svg PUBLIC "-//W3C//DTD SVG 1.1//EN"
 "http://www.w3.org/Graphics/SVG/1.1/DTD/svg11.dtd">
<!-- Generated by graphviz version 2.32.0 (20130916.1925)
 -->
<!-- Title: RingBuffer_Write Pages: 1 -->
<svg width="662pt" height="67pt"
 viewBox="0.00 0.00 662.00 67.00" xmlns="http://www.w3.org/2000/svg" xmlns:xlink="http://www.w3.org/1999/xlink">
<g id="graph0" class="graph" transform="scale(1 1) rotate(0) translate(4 63)">
<title>RingBuffer_Write</title>
<polygon fill="white" stroke="white" points="-4,5 -4,-63 659,-63 659,5 -4,5"/>
<!-- Node1 -->
<g id="node1" class="node"><title>Node1</title>
<polygon fill="#bfbfbf" stroke="black" points="0.106934,-19 0.106934,-39 91.8931,-39 91.8931,-19 0.106934,-19"/>
<text text-anchor="middle" x="46" y="-25" font-family="Helvetica,sans-Serif" font-size="10.00">RingBuffer_Write</text>
</g>
<!-- Node2 -->
<g id="node2" class="node"><title>Node2</title>
<g id="a_node2"><a xlink:href="ringbuffer_8c.html#adb902dc2c7c8a8c8a4c5e315c4357246" target="_top" xlink:title="RingBuffer_AdvanceWriteIndex">
<polygon fill="white" stroke="black" points="128.417,-39 128.417,-59 283.583,-59 283.583,-39 128.417,-39"/>
<text text-anchor="middle" x="206" y="-45" font-family="Helvetica,sans-Serif" font-size="10.00">RingBuffer_AdvanceWriteIndex</text>
</a>
</g>
</g>
<!-- Node1&#45;&gt;Node2 -->
<g id="edge1" class="edge"><title>Node1&#45;&gt;Node2</title>
<path fill="none" stroke="midnightblue" d="M92.2765,-34.7312C100.492,-35.7711 109.307,-36.8869 118.255,-38.0196"/>
<polygon fill="midnightblue" stroke="midnightblue" points="118.03,-41.5189 128.39,-39.3025 118.909,-34.5744 118.03,-41.5189"/>
</g>
<!-- Node3 -->
<g id="node3" class="node"><title>Node3</title>
<g id="a_node3"><a xlink:href="ringbuffer_8c.html#a2b55f50da6a9380f5f838ca6b90a9ec4" target="_top" xlink:title="RingBuffer_GetWriteRegions">
<polygon fill="white" stroke="black" points="133.703,-0 133.703,-20 278.297,-20 278.297,-0 133.703,-0"/>
<text text-anchor="middle" x="206" y="-6" font-family="Helvetica,sans-Serif" font-size="10.00">RingBuffer_GetWriteRegions</text>
</a>
</g>
</g>
<!-- Node1&#45;&gt;Node3 -->
<g id="edge2" class="edge"><title>Node1&#45;&gt;Node3</title>
<path fill="none" stroke="midnightblue" d="M92.2765,-23.5554C102.02,-22.3837 112.606,-21.1106 123.259,-19.8296"/>
<polygon fill="midnightblue" stroke="midnightblue" points="123.957,-23.271 133.468,-18.602 123.121,-16.321 123.957,-23.271"/>
</g>
<!-- Node4 -->
<g id="node4" class="node"><title>Node4</title>
<g id="a_node4"><a xlink:href="ringbuffer_8c.html#a91c1b7c3b47dc12df82486e234251e89" target="_top" xlink:title="RingBuffer_GetWriteAvailable">
<polygon fill="white" stroke="black" points="319.845,-0 319.845,-20 468.155,-20 468.155,-0 319.845,-0"/>
<text text-anchor="middle" x="394" y="-6" font-family="Helvetica,sans-Serif" font-size="10.00">RingBuffer_GetWriteAvailable</text>
</a>
</g>
</g>
<!-- Node3&#45;&gt;Node4 -->
<g id="edge3" class="edge"><title>Node3&#45;&gt;Node4</title>
<path fill="none" stroke="midnightblue" d="M278.381,-10C288.523,-10 299.028,-10 309.377,-10"/>
<polygon fill="midnightblue" stroke="midnightblue" points="309.655,-13.5001 319.655,-10 309.655,-6.5001 309.655,-13.5001"/>
</g>
<!-- Node5 -->
<g id="node5" class="node"><title>Node5</title>
<g id="a_node5"><a xlink:href="ringbuffer_8c.html#ac59988c5961a99288adef3d759f697eb" target="_top" xlink:title="RingBuffer_GetReadAvailable">
<polygon fill="white" stroke="black" points="504.469,-0 504.469,-20 653.531,-20 653.531,-0 504.469,-0"/>
<text text-anchor="middle" x="579" y="-6" font-family="Helvetica,sans-Serif" font-size="10.00">RingBuffer_GetReadAvailable</text>
</a>
</g>
</g>
<!-- Node4&#45;&gt;Node5 -->
<g id="edge4" class="edge"><title>Node4&#45;&gt;Node5</title>
<path fill="none" stroke="midnightblue" d="M468.379,-10C476.884,-10 485.606,-10 494.236,-10"/>
<polygon fill="midnightblue" stroke="midnightblue" points="494.307,-13.5001 504.306,-10 494.306,-6.5001 494.307,-13.5001"/>
</g>
</g>
</svg>
