<?xml version="1.0" encoding="UTF-8" standalone="no"?>
<!DOCTYPE svg PUBLIC "-//W3C//DTD SVG 1.1//EN"
 "http://www.w3.org/Graphics/SVG/1.1/DTD/svg11.dtd">
<!-- Generated by graphviz version 2.32.0 (20130916.1925)
 -->
<!-- Title: include/stlplus/string_vectorio.cpp Pages: 1 -->
<!--zoomable 274 -->
<svg id="main" version="1.1" xmlns="http://www.w3.org/2000/svg" xmlns:xlink="http://www.w3.org/1999/xlink" xml:space="preserve" onload="init(evt)">
        <defs>
                <circle id="rim" cx="0" cy="0" r="7"/>
                <circle id="rim2" cx="0" cy="0" r="3.5"/>
                <g id="zoomPlus">
                        <use xlink:href="#rim" fill="#404040">
                                <set attributeName="fill" to="#808080" begin="zoomplus.mouseover" end="zoomplus.mouseout"/>
                        </use>
                        <path d="M-4,0h8M0,-4v8" fill="none" stroke="white" stroke-width="1.5" pointer-events="none"/>
                </g>
                <g id="zoomMin">
                        <use xlink:href="#rim" fill="#404040">
                                <set attributeName="fill" to="#808080" begin="zoomminus.mouseover" end="zoomminus.mouseout"/>
                        </use>
                        <path d="M-4,0h8" fill="none" stroke="white" stroke-width="1.5" pointer-events="none"/>
                </g>
                <g id="dirArrow">
                        <path fill="none" stroke="white" stroke-width="1.5" d="M0,-3.0v7 M-2.5,-0.5L0,-3.0L2.5,-0.5"/>
                </g>
               <g id="resetDef">
                       <use xlink:href="#rim2" fill="#404040">
                               <set attributeName="fill" to="#808080" begin="reset.mouseover" end="reset.mouseout"/>
                       </use>
               </g>
        </defs>

<script type="text/javascript">
var viewWidth = 569;
var viewHeight = 274;
var sectionId = 'dynsection-0';
</script>
<script xlink:href="svgpan.js"/>
<svg id="graph" class="graph">
<g id="viewport">
<title>include/stlplus/string_vectorio.cpp</title>
<polygon fill="white" stroke="white" points="-4,5 -4,-270 566,-270 566,5 -4,5"/>
<!-- Node1 -->
<g id="node1" class="node"><title>Node1</title>
<polygon fill="#bfbfbf" stroke="black" points="187.978,-233 187.978,-265 294.022,-265 294.022,-233 187.978,-233"/>
<text text-anchor="start" x="195.978" y="-251" font-family="Helvetica,sans-Serif" font-size="10.00">include/stlplus/string</text>
<text text-anchor="middle" x="241" y="-239" font-family="Helvetica,sans-Serif" font-size="10.00">_vectorio.cpp</text>
</g>
<!-- Node2 -->
<g id="node2" class="node"><title>Node2</title>
<g id="a_node2"><a xlink:href="os__fixes_8hpp.html" target="_top" xlink:title="os_fixes.hpp">
<polygon fill="white" stroke="black" points="229.926,-59 229.926,-79 302.074,-79 302.074,-59 229.926,-59"/>
<text text-anchor="middle" x="266" y="-65" font-family="Helvetica,sans-Serif" font-size="10.00">os_fixes.hpp</text>
</a>
</g>
</g>
<!-- Node1&#45;&gt;Node2 -->
<g id="edge1" class="edge"><title>Node1&#45;&gt;Node2</title>
<path fill="none" stroke="midnightblue" d="M243.131,-232.824C247.67,-200.506 258.284,-124.937 263.293,-89.277"/>
<polygon fill="midnightblue" stroke="midnightblue" points="266.782,-89.5965 264.707,-79.2068 259.85,-88.6228 266.782,-89.5965"/>
</g>
<!-- Node4 -->
<g id="node4" class="node"><title>Node4</title>
<g id="a_node4"><a xlink:href="string__vectorio_8hpp.html" target="_top" xlink:title="string_vectorio.hpp">
<polygon fill="white" stroke="black" points="112.754,-175 112.754,-195 213.246,-195 213.246,-175 112.754,-175"/>
<text text-anchor="middle" x="163" y="-181" font-family="Helvetica,sans-Serif" font-size="10.00">string_vectorio.hpp</text>
</a>
</g>
</g>
<!-- Node1&#45;&gt;Node4 -->
<g id="edge3" class="edge"><title>Node1&#45;&gt;Node4</title>
<path fill="none" stroke="midnightblue" d="M222.118,-232.992C210.218,-223.533 194.877,-211.338 182.805,-201.742"/>
<polygon fill="midnightblue" stroke="midnightblue" points="184.694,-198.773 174.688,-195.29 180.338,-204.253 184.694,-198.773"/>
</g>
<!-- Node9 -->
<g id="node9" class="node"><title>Node9</title>
<g id="a_node9"><a xlink:href="debug_8hpp.html" target="_top" xlink:title="debug.hpp">
<polygon fill="white" stroke="black" points="320.365,-175 320.365,-195 383.635,-195 383.635,-175 320.365,-175"/>
<text text-anchor="middle" x="352" y="-181" font-family="Helvetica,sans-Serif" font-size="10.00">debug.hpp</text>
</a>
</g>
</g>
<!-- Node1&#45;&gt;Node9 -->
<g id="edge12" class="edge"><title>Node1&#45;&gt;Node9</title>
<path fill="none" stroke="midnightblue" d="M267.87,-232.992C285.735,-223.013 309.05,-209.99 326.604,-200.185"/>
<polygon fill="midnightblue" stroke="midnightblue" points="328.669,-203.041 335.692,-195.109 325.255,-196.93 328.669,-203.041"/>
</g>
<!-- Node3 -->
<g id="node3" class="node"><title>Node3</title>
<polygon fill="white" stroke="#bfbfbf" points="240.488,-1 240.488,-21 291.512,-21 291.512,-1 240.488,-1"/>
<text text-anchor="middle" x="266" y="-7" font-family="Helvetica,sans-Serif" font-size="10.00">unistd.h</text>
</g>
<!-- Node2&#45;&gt;Node3 -->
<g id="edge2" class="edge"><title>Node2&#45;&gt;Node3</title>
<path fill="none" stroke="midnightblue" d="M266,-58.7527C266,-51.2504 266,-40.4238 266,-31.0781"/>
<polygon fill="midnightblue" stroke="midnightblue" points="269.5,-31.0752 266,-21.0752 262.5,-31.0752 269.5,-31.0752"/>
</g>
<!-- Node4&#45;&gt;Node2 -->
<g id="edge4" class="edge"><title>Node4&#45;&gt;Node2</title>
<path fill="none" stroke="midnightblue" d="M171.429,-174.671C188.792,-155.453 228.76,-111.217 250.772,-86.8542"/>
<polygon fill="midnightblue" stroke="midnightblue" points="253.635,-88.9058 257.742,-79.1394 248.441,-84.213 253.635,-88.9058"/>
</g>
<!-- Node5 -->
<g id="node5" class="node"><title>Node5</title>
<g id="a_node5"><a xlink:href="textio_8hpp.html" target="_top" xlink:title="textio.hpp">
<polygon fill="white" stroke="black" points="77.3179,-117 77.3179,-137 136.682,-137 136.682,-117 77.3179,-117"/>
<text text-anchor="middle" x="107" y="-123" font-family="Helvetica,sans-Serif" font-size="10.00">textio.hpp</text>
</a>
</g>
</g>
<!-- Node4&#45;&gt;Node5 -->
<g id="edge5" class="edge"><title>Node4&#45;&gt;Node5</title>
<path fill="none" stroke="midnightblue" d="M153.753,-174.753C145.516,-166.516 133.274,-154.274 123.382,-144.382"/>
<polygon fill="midnightblue" stroke="midnightblue" points="125.621,-141.671 116.075,-137.075 120.671,-146.621 125.621,-141.671"/>
</g>
<!-- Node7 -->
<g id="node7" class="node"><title>Node7</title>
<polygon fill="white" stroke="#bfbfbf" points="-0.615723,-59 -0.615723,-79 42.6157,-79 42.6157,-59 -0.615723,-59"/>
<text text-anchor="middle" x="21" y="-65" font-family="Helvetica,sans-Serif" font-size="10.00">vector</text>
</g>
<!-- Node4&#45;&gt;Node7 -->
<g id="edge11" class="edge"><title>Node4&#45;&gt;Node7</title>
<path fill="none" stroke="midnightblue" d="M135.442,-174.991C115.209,-167.406 87.8985,-155.051 68,-138 51.7082,-124.04 38.416,-103.194 30.176,-88.2659"/>
<polygon fill="midnightblue" stroke="midnightblue" points="33.0666,-86.2442 25.3038,-79.0338 26.8758,-89.5114 33.0666,-86.2442"/>
</g>
<!-- Node8 -->
<g id="node8" class="node"><title>Node8</title>
<polygon fill="white" stroke="#bfbfbf" points="171.773,-59 171.773,-79 212.227,-79 212.227,-59 171.773,-59"/>
<text text-anchor="middle" x="192" y="-65" font-family="Helvetica,sans-Serif" font-size="10.00">string</text>
</g>
<!-- Node4&#45;&gt;Node8 -->
<g id="edge10" class="edge"><title>Node4&#45;&gt;Node8</title>
<path fill="none" stroke="midnightblue" d="M165.373,-174.671C170.112,-156.041 180.833,-113.898 187.13,-89.1428"/>
<polygon fill="midnightblue" stroke="midnightblue" points="190.602,-89.6936 189.675,-79.1394 183.818,-87.9678 190.602,-89.6936"/>
</g>
<!-- Node5&#45;&gt;Node2 -->
<g id="edge6" class="edge"><title>Node5&#45;&gt;Node2</title>
<path fill="none" stroke="midnightblue" d="M132.9,-116.878C159.543,-107.494 201.22,-92.8155 230.833,-82.3857"/>
<polygon fill="midnightblue" stroke="midnightblue" points="232.105,-85.6486 240.375,-79.0253 229.78,-79.0461 232.105,-85.6486"/>
</g>
<!-- Node6 -->
<g id="node6" class="node"><title>Node6</title>
<g id="a_node6"><a xlink:href="format__types_8hpp.html" target="_top" xlink:title="format_types.hpp">
<polygon fill="white" stroke="black" points="60.3672,-59 60.3672,-79 153.633,-79 153.633,-59 60.3672,-59"/>
<text text-anchor="middle" x="107" y="-65" font-family="Helvetica,sans-Serif" font-size="10.00">format_types.hpp</text>
</a>
</g>
</g>
<!-- Node5&#45;&gt;Node6 -->
<g id="edge7" class="edge"><title>Node5&#45;&gt;Node6</title>
<path fill="none" stroke="midnightblue" d="M107,-116.753C107,-109.25 107,-98.4238 107,-89.0781"/>
<polygon fill="midnightblue" stroke="midnightblue" points="110.5,-89.0752 107,-79.0752 103.5,-89.0752 110.5,-89.0752"/>
</g>
<!-- Node5&#45;&gt;Node7 -->
<g id="edge8" class="edge"><title>Node5&#45;&gt;Node7</title>
<path fill="none" stroke="midnightblue" d="M92.7988,-116.753C79.3989,-108.027 59.0935,-94.8051 43.4917,-84.6458"/>
<polygon fill="midnightblue" stroke="midnightblue" points="45.2268,-81.599 34.9369,-79.0752 41.407,-87.465 45.2268,-81.599"/>
</g>
<!-- Node5&#45;&gt;Node8 -->
<g id="edge9" class="edge"><title>Node5&#45;&gt;Node8</title>
<path fill="none" stroke="midnightblue" d="M121.036,-116.753C134.28,-108.027 154.349,-94.8051 169.77,-84.6458"/>
<polygon fill="midnightblue" stroke="midnightblue" points="171.8,-87.4995 178.225,-79.0752 167.949,-81.6541 171.8,-87.4995"/>
</g>
<!-- Node9&#45;&gt;Node2 -->
<g id="edge13" class="edge"><title>Node9&#45;&gt;Node2</title>
<path fill="none" stroke="midnightblue" d="M344.962,-174.671C330.528,-155.537 297.384,-111.602 278.956,-87.1745"/>
<polygon fill="midnightblue" stroke="midnightblue" points="281.711,-85.0147 272.895,-79.1394 276.123,-89.2304 281.711,-85.0147"/>
</g>
<!-- Node9&#45;&gt;Node8 -->
<g id="edge19" class="edge"><title>Node9&#45;&gt;Node8</title>
<path fill="none" stroke="midnightblue" d="M339.177,-174.864C311.676,-155.269 246.797,-109.043 213.117,-85.0457"/>
<polygon fill="midnightblue" stroke="midnightblue" points="215.059,-82.1322 204.884,-79.1799 210.997,-87.8332 215.059,-82.1322"/>
</g>
<!-- Node10 -->
<g id="node10" class="node"><title>Node10</title>
<g id="a_node10"><a xlink:href="exceptions_8hpp.html" target="_top" xlink:title="exceptions.hpp">
<polygon fill="white" stroke="black" points="345.365,-117 345.365,-137 428.635,-137 428.635,-117 345.365,-117"/>
<text text-anchor="middle" x="387" y="-123" font-family="Helvetica,sans-Serif" font-size="10.00">exceptions.hpp</text>
</a>
</g>
</g>
<!-- Node9&#45;&gt;Node10 -->
<g id="edge14" class="edge"><title>Node9&#45;&gt;Node10</title>
<path fill="none" stroke="midnightblue" d="M357.78,-174.753C362.723,-166.843 369.977,-155.237 376.02,-145.568"/>
<polygon fill="midnightblue" stroke="midnightblue" points="378.996,-147.41 381.328,-137.075 373.06,-143.7 378.996,-147.41"/>
</g>
<!-- Node12 -->
<g id="node12" class="node"><title>Node12</title>
<polygon fill="white" stroke="#bfbfbf" points="446.214,-117 446.214,-137 497.786,-137 497.786,-117 446.214,-117"/>
<text text-anchor="middle" x="472" y="-123" font-family="Helvetica,sans-Serif" font-size="10.00">assert.h</text>
</g>
<!-- Node9&#45;&gt;Node12 -->
<g id="edge17" class="edge"><title>Node9&#45;&gt;Node12</title>
<path fill="none" stroke="midnightblue" d="M371.547,-174.878C390.985,-165.807 421.027,-151.788 443.196,-141.442"/>
<polygon fill="midnightblue" stroke="midnightblue" points="444.879,-144.519 452.461,-137.118 441.919,-138.175 444.879,-144.519"/>
</g>
<!-- Node13 -->
<g id="node13" class="node"><title>Node13</title>
<polygon fill="white" stroke="#bfbfbf" points="516.269,-117 516.269,-137 561.731,-137 561.731,-117 516.269,-117"/>
<text text-anchor="middle" x="539" y="-123" font-family="Helvetica,sans-Serif" font-size="10.00">stdio.h</text>
</g>
<!-- Node9&#45;&gt;Node13 -->
<g id="edge18" class="edge"><title>Node9&#45;&gt;Node13</title>
<path fill="none" stroke="midnightblue" d="M382.4,-174.958C413.47,-165.708 463.114,-150.903 506,-138 506.1,-137.97 506.201,-137.94 506.301,-137.909"/>
<polygon fill="midnightblue" stroke="midnightblue" points="507.362,-141.245 515.925,-135.005 505.34,-134.544 507.362,-141.245"/>
</g>
<!-- Node10&#45;&gt;Node2 -->
<g id="edge15" class="edge"><title>Node10&#45;&gt;Node2</title>
<path fill="none" stroke="midnightblue" d="M367.29,-116.878C347.69,-107.807 317.398,-93.7876 295.044,-83.4418"/>
<polygon fill="midnightblue" stroke="midnightblue" points="296.247,-80.1419 285.702,-79.1181 293.307,-86.4946 296.247,-80.1419"/>
</g>
<!-- Node11 -->
<g id="node11" class="node"><title>Node11</title>
<polygon fill="white" stroke="#bfbfbf" points="357.599,-59 357.599,-79 416.401,-79 416.401,-59 357.599,-59"/>
<text text-anchor="middle" x="387" y="-65" font-family="Helvetica,sans-Serif" font-size="10.00">stdexcept</text>
</g>
<!-- Node10&#45;&gt;Node11 -->
<g id="edge16" class="edge"><title>Node10&#45;&gt;Node11</title>
<path fill="none" stroke="midnightblue" d="M387,-116.753C387,-109.25 387,-98.4238 387,-89.0781"/>
<polygon fill="midnightblue" stroke="midnightblue" points="390.5,-89.0752 387,-79.0752 383.5,-89.0752 390.5,-89.0752"/>
</g>
</g>
</svg>
        <g id="navigator" transform="translate(0 0)" fill="#404254">
                <rect fill="#f2f5e9" fill-opacity="0.5" stroke="#606060" stroke-width=".5" x="0" y="0" width="60" height="60"/>
                <use id="zoomplus" xlink:href="#zoomPlus" x="17" y="9" onmousedown="handleZoom(evt,'in')"/>
                <use id="zoomminus" xlink:href="#zoomMin" x="42" y="9" onmousedown="handleZoom(evt,'out')"/>
                <use id="reset" xlink:href="#resetDef" x="30" y="36" onmousedown="handleReset()"/>
                <g id="arrowUp" xlink:href="#dirArrow" transform="translate(30 24)" onmousedown="handlePan(0,-1)">
                  <use xlink:href="#rim" fill="#404040">
                        <set attributeName="fill" to="#808080" begin="arrowUp.mouseover" end="arrowUp.mouseout"/>
                  </use>
                  <path fill="none" stroke="white" stroke-width="1.5" d="M0,-3.0v7 M-2.5,-0.5L0,-3.0L2.5,-0.5"/>
                </g>
                <g id="arrowRight" xlink:href="#dirArrow" transform="rotate(90) translate(36 -43)" onmousedown="handlePan(1,0)">
                  <use xlink:href="#rim" fill="#404040">
                        <set attributeName="fill" to="#808080" begin="arrowRight.mouseover" end="arrowRight.mouseout"/>
                  </use>
                  <path fill="none" stroke="white" stroke-width="1.5" d="M0,-3.0v7 M-2.5,-0.5L0,-3.0L2.5,-0.5"/>
                </g>
                <g id="arrowDown" xlink:href="#dirArrow" transform="rotate(180) translate(-30 -48)" onmousedown="handlePan(0,1)">
                  <use xlink:href="#rim" fill="#404040">
                        <set attributeName="fill" to="#808080" begin="arrowDown.mouseover" end="arrowDown.mouseout"/>
                  </use>
                  <path fill="none" stroke="white" stroke-width="1.5" d="M0,-3.0v7 M-2.5,-0.5L0,-3.0L2.5,-0.5"/>
                </g>
                <g id="arrowLeft" xlink:href="#dirArrow" transform="rotate(270) translate(-36 17)" onmousedown="handlePan(-1,0)">
                  <use xlink:href="#rim" fill="#404040">
                        <set attributeName="fill" to="#808080" begin="arrowLeft.mouseover" end="arrowLeft.mouseout"/>
                  </use>
                  <path fill="none" stroke="white" stroke-width="1.5" d="M0,-3.0v7 M-2.5,-0.5L0,-3.0L2.5,-0.5"/>
                </g>
        </g>
        <svg viewBox="0 0 15 15" width="100%" height="30px" preserveAspectRatio="xMaxYMin meet">
         <g id="arrow_out" transform="scale(0.3 0.3)">
          <a xlink:href="string__vectorio_8cpp__incl_org.svg" target="_base">
           <rect id="button" ry="5" rx="5" y="6" x="6" height="38" width="38"
                fill="#f2f5e9" fill-opacity="0.5" stroke="#606060" stroke-width="1.0"/>
           <path id="arrow"
             d="M 11.500037,31.436501 C 11.940474,20.09759 22.043105,11.32322 32.158766,21.979434 L 37.068811,17.246167 C 37.068811,17.246167 37.088388,32 37.088388,32 L 22.160133,31.978069 C 22.160133,31.978069 26.997745,27.140456 26.997745,27.140456 C 18.528582,18.264221 13.291696,25.230495 11.500037,31.436501 z"
             style="fill:#404040;"/>
          </a>
         </g>
        </svg>
</svg>
