<?xml version="1.0" encoding="UTF-8" standalone="no"?>
<!DOCTYPE svg PUBLIC "-//W3C//DTD SVG 1.1//EN"
 "http://www.w3.org/Graphics/SVG/1.1/DTD/svg11.dtd">
<!-- Generated by graphviz version 2.32.0 (20130916.1925)
 -->
<!-- Title: unsigned_greater_than Pages: 1 -->
<svg width="596pt" height="164pt"
 viewBox="0.00 0.00 596.00 164.00" xmlns="http://www.w3.org/2000/svg" xmlns:xlink="http://www.w3.org/1999/xlink">
<g id="graph0" class="graph" transform="scale(1 1) rotate(0) translate(4 160)">
<title>unsigned_greater_than</title>
<polygon fill="white" stroke="white" points="-4,5 -4,-160 593,-160 593,5 -4,5"/>
<!-- Node1 -->
<g id="node1" class="node"><title>Node1</title>
<polygon fill="#bfbfbf" stroke="black" points="0.569336,-58 0.569336,-78 119.431,-78 119.431,-58 0.569336,-58"/>
<text text-anchor="middle" x="60" y="-64" font-family="Helvetica,sans-Serif" font-size="10.00">unsigned_greater_than</text>
</g>
<!-- Node2 -->
<g id="node2" class="node"><title>Node2</title>
<g id="a_node2"><a xlink:href="string__arithmetic_8cpp.html#a26fc5f3b1ff43bdf390632ff091a3d87" target="_top" xlink:title="unsigned_less_than">
<polygon fill="white" stroke="black" points="156.52,-58 156.52,-78 261.48,-78 261.48,-58 156.52,-58"/>
<text text-anchor="middle" x="209" y="-64" font-family="Helvetica,sans-Serif" font-size="10.00">unsigned_less_than</text>
</a>
</g>
</g>
<!-- Node1&#45;&gt;Node2 -->
<g id="edge1" class="edge"><title>Node1&#45;&gt;Node2</title>
<path fill="none" stroke="midnightblue" d="M119.521,-68C128.268,-68 137.311,-68 146.125,-68"/>
<polygon fill="midnightblue" stroke="midnightblue" points="146.335,-71.5001 156.335,-68 146.335,-64.5001 146.335,-71.5001"/>
</g>
<!-- Node3 -->
<g id="node3" class="node"><title>Node3</title>
<g id="a_node3"><a xlink:href="string__arithmetic_8cpp.html#aa19eed0b96f17cfe786e83058b5ecffb" target="_top" xlink:title="is_negative">
<polygon fill="white" stroke="black" points="309.705,-97 309.705,-117 376.295,-117 376.295,-97 309.705,-97"/>
<text text-anchor="middle" x="343" y="-103" font-family="Helvetica,sans-Serif" font-size="10.00">is_negative</text>
</a>
</g>
</g>
<!-- Node2&#45;&gt;Node3 -->
<g id="edge2" class="edge"><title>Node2&#45;&gt;Node3</title>
<path fill="none" stroke="midnightblue" d="M243.993,-78.0435C261.009,-83.0708 281.769,-89.2045 299.795,-94.5304"/>
<polygon fill="midnightblue" stroke="midnightblue" points="298.905,-97.917 309.487,-97.394 300.889,-91.2039 298.905,-97.917"/>
</g>
<!-- Node4 -->
<g id="node4" class="node"><title>Node4</title>
<g id="a_node4"><a xlink:href="string__arithmetic_8cpp.html#a21df22820cbc1ab7c128f203d18c7104" target="_top" xlink:title="signed_subtract">
<polygon fill="white" stroke="black" points="299.7,-58 299.7,-78 386.3,-78 386.3,-58 299.7,-58"/>
<text text-anchor="middle" x="343" y="-64" font-family="Helvetica,sans-Serif" font-size="10.00">signed_subtract</text>
</a>
</g>
</g>
<!-- Node2&#45;&gt;Node4 -->
<g id="edge3" class="edge"><title>Node2&#45;&gt;Node4</title>
<path fill="none" stroke="midnightblue" d="M261.791,-68C270.817,-68 280.216,-68 289.267,-68"/>
<polygon fill="midnightblue" stroke="midnightblue" points="289.3,-71.5001 299.3,-68 289.3,-64.5001 289.3,-71.5001"/>
</g>
<!-- Node12 -->
<g id="node12" class="node"><title>Node12</title>
<g id="a_node12"><a xlink:href="string__arithmetic_8cpp.html#ac03b6b6ac3421fe0895d15048e0f1bd7" target="_top" xlink:title="unsigned_resize">
<polygon fill="white" stroke="black" points="298.586,-19 298.586,-39 387.414,-39 387.414,-19 298.586,-19"/>
<text text-anchor="middle" x="343" y="-25" font-family="Helvetica,sans-Serif" font-size="10.00">unsigned_resize</text>
</a>
</g>
</g>
<!-- Node2&#45;&gt;Node12 -->
<g id="edge11" class="edge"><title>Node2&#45;&gt;Node12</title>
<path fill="none" stroke="midnightblue" d="M243.993,-57.9565C260.468,-53.089 280.453,-47.1842 298.069,-41.9797"/>
<polygon fill="midnightblue" stroke="midnightblue" points="299.523,-45.1995 308.122,-39.0094 297.54,-38.4864 299.523,-45.1995"/>
</g>
<!-- Node5 -->
<g id="node5" class="node"><title>Node5</title>
<g id="a_node5"><a xlink:href="string__arithmetic_8cpp.html#a94695ea56cea67bf729e29e05a1a919e" target="_top" xlink:title="bit_carry">
<polygon fill="white" stroke="black" points="435.828,-117 435.828,-137 490.172,-137 490.172,-117 435.828,-117"/>
<text text-anchor="middle" x="463" y="-123" font-family="Helvetica,sans-Serif" font-size="10.00">bit_carry</text>
</a>
</g>
</g>
<!-- Node4&#45;&gt;Node5 -->
<g id="edge4" class="edge"><title>Node4&#45;&gt;Node5</title>
<path fill="none" stroke="midnightblue" d="M366.957,-78.1263C373.769,-81.2141 381.22,-84.6736 388,-88 404.242,-95.9689 407.995,-98.5647 424,-107 427.129,-108.649 430.403,-110.373 433.661,-112.089"/>
<polygon fill="midnightblue" stroke="midnightblue" points="432.187,-115.269 442.666,-116.83 435.448,-109.074 432.187,-115.269"/>
</g>
<!-- Node8 -->
<g id="node8" class="node"><title>Node8</title>
<g id="a_node8"><a xlink:href="string__arithmetic_8cpp.html#a1a22bf947511ecf8da04a7cead2979ad" target="_top" xlink:title="bit_not">
<polygon fill="white" stroke="black" points="439.988,-78 439.988,-98 486.012,-98 486.012,-78 439.988,-78"/>
<text text-anchor="middle" x="463" y="-84" font-family="Helvetica,sans-Serif" font-size="10.00">bit_not</text>
</a>
</g>
</g>
<!-- Node4&#45;&gt;Node8 -->
<g id="edge7" class="edge"><title>Node4&#45;&gt;Node8</title>
<path fill="none" stroke="midnightblue" d="M386.601,-75.2205C400.769,-77.6219 416.308,-80.2556 429.579,-82.5049"/>
<polygon fill="midnightblue" stroke="midnightblue" points="429.222,-85.9943 439.666,-84.2146 430.392,-79.0927 429.222,-85.9943"/>
</g>
<!-- Node9 -->
<g id="node9" class="node"><title>Node9</title>
<g id="a_node9"><a xlink:href="string__arithmetic_8cpp.html#a5908e619ca6762dbb4a713ef69a04ed7" target="_top" xlink:title="bit_sum">
<polygon fill="white" stroke="black" points="437.493,-39 437.493,-59 488.507,-59 488.507,-39 437.493,-39"/>
<text text-anchor="middle" x="463" y="-45" font-family="Helvetica,sans-Serif" font-size="10.00">bit_sum</text>
</a>
</g>
</g>
<!-- Node4&#45;&gt;Node9 -->
<g id="edge8" class="edge"><title>Node4&#45;&gt;Node9</title>
<path fill="none" stroke="midnightblue" d="M386.601,-61.1406C399.907,-58.998 414.422,-56.6609 427.132,-54.6144"/>
<polygon fill="midnightblue" stroke="midnightblue" points="428.001,-58.0196 437.317,-52.9743 426.888,-51.1086 428.001,-58.0196"/>
</g>
<!-- Node11 -->
<g id="node11" class="node"><title>Node11</title>
<g id="a_node11"><a xlink:href="string__arithmetic_8cpp.html#a81d7a054172ae982785819c0c51a87c5" target="_top" xlink:title="signed_resize">
<polygon fill="white" stroke="black" points="424.148,-0 424.148,-20 501.852,-20 501.852,-0 424.148,-0"/>
<text text-anchor="middle" x="463" y="-6" font-family="Helvetica,sans-Serif" font-size="10.00">signed_resize</text>
</a>
</g>
</g>
<!-- Node4&#45;&gt;Node11 -->
<g id="edge10" class="edge"><title>Node4&#45;&gt;Node11</title>
<path fill="none" stroke="midnightblue" d="M366.933,-57.8256C373.745,-54.7365 381.202,-51.2883 388,-48 403.317,-40.5914 420.208,-31.9537 433.981,-24.7874"/>
<polygon fill="midnightblue" stroke="midnightblue" points="435.719,-27.8283 442.96,-20.0943 432.477,-21.6246 435.719,-27.8283"/>
</g>
<!-- Node6 -->
<g id="node6" class="node"><title>Node6</title>
<g id="a_node6"><a xlink:href="string__arithmetic_8cpp.html#afe7cda5eba463b65d65687c2fd389fff" target="_top" xlink:title="bit_and">
<polygon fill="white" stroke="black" points="538.596,-136 538.596,-156 587.404,-156 587.404,-136 538.596,-136"/>
<text text-anchor="middle" x="563" y="-142" font-family="Helvetica,sans-Serif" font-size="10.00">bit_and</text>
</a>
</g>
</g>
<!-- Node5&#45;&gt;Node6 -->
<g id="edge5" class="edge"><title>Node5&#45;&gt;Node6</title>
<path fill="none" stroke="midnightblue" d="M490.262,-132.092C501.956,-134.359 515.87,-137.056 528.317,-139.47"/>
<polygon fill="midnightblue" stroke="midnightblue" points="527.864,-142.947 538.347,-141.414 529.196,-136.075 527.864,-142.947"/>
</g>
<!-- Node7 -->
<g id="node7" class="node"><title>Node7</title>
<g id="a_node7"><a xlink:href="string__arithmetic_8cpp.html#a3f0dedb0825234f431e364e025ff9452" target="_top" xlink:title="bit_or">
<polygon fill="white" stroke="black" points="542.493,-97 542.493,-117 583.507,-117 583.507,-97 542.493,-97"/>
<text text-anchor="middle" x="563" y="-103" font-family="Helvetica,sans-Serif" font-size="10.00">bit_or</text>
</a>
</g>
</g>
<!-- Node5&#45;&gt;Node7 -->
<g id="edge6" class="edge"><title>Node5&#45;&gt;Node7</title>
<path fill="none" stroke="midnightblue" d="M490.262,-121.64C503.147,-119.011 518.726,-115.831 532.07,-113.108"/>
<polygon fill="midnightblue" stroke="midnightblue" points="533.1,-116.47 542.198,-111.041 531.7,-109.612 533.1,-116.47"/>
</g>
<!-- Node10 -->
<g id="node10" class="node"><title>Node10</title>
<g id="a_node10"><a xlink:href="string__arithmetic_8cpp.html#aa479141a8083df6b46cd98c13609d224" target="_top" xlink:title="bit_xor">
<polygon fill="white" stroke="black" points="539.993,-39 539.993,-59 586.007,-59 586.007,-39 539.993,-39"/>
<text text-anchor="middle" x="563" y="-45" font-family="Helvetica,sans-Serif" font-size="10.00">bit_xor</text>
</a>
</g>
</g>
<!-- Node9&#45;&gt;Node10 -->
<g id="edge9" class="edge"><title>Node9&#45;&gt;Node10</title>
<path fill="none" stroke="midnightblue" d="M488.73,-49C501.168,-49 516.397,-49 529.743,-49"/>
<polygon fill="midnightblue" stroke="midnightblue" points="529.953,-52.5001 539.953,-49 529.953,-45.5001 529.953,-52.5001"/>
</g>
</g>
</svg>
