<?xml version="1.0" encoding="UTF-8" standalone="no"?>
<!DOCTYPE svg PUBLIC "-//W3C//DTD SVG 1.1//EN"
 "http://www.w3.org/Graphics/SVG/1.1/DTD/svg11.dtd">
<!-- Generated by graphviz version 2.32.0 (20130916.1925)
 -->
<!-- Title: unsigned_modulus Pages: 1 -->
<!--zoomable 301 -->
<svg id="main" version="1.1" xmlns="http://www.w3.org/2000/svg" xmlns:xlink="http://www.w3.org/1999/xlink" xml:space="preserve" onload="init(evt)">
        <defs>
                <circle id="rim" cx="0" cy="0" r="7"/>
                <circle id="rim2" cx="0" cy="0" r="3.5"/>
                <g id="zoomPlus">
                        <use xlink:href="#rim" fill="#404040">
                                <set attributeName="fill" to="#808080" begin="zoomplus.mouseover" end="zoomplus.mouseout"/>
                        </use>
                        <path d="M-4,0h8M0,-4v8" fill="none" stroke="white" stroke-width="1.5" pointer-events="none"/>
                </g>
                <g id="zoomMin">
                        <use xlink:href="#rim" fill="#404040">
                                <set attributeName="fill" to="#808080" begin="zoomminus.mouseover" end="zoomminus.mouseout"/>
                        </use>
                        <path d="M-4,0h8" fill="none" stroke="white" stroke-width="1.5" pointer-events="none"/>
                </g>
                <g id="dirArrow">
                        <path fill="none" stroke="white" stroke-width="1.5" d="M0,-3.0v7 M-2.5,-0.5L0,-3.0L2.5,-0.5"/>
                </g>
               <g id="resetDef">
                       <use xlink:href="#rim2" fill="#404040">
                               <set attributeName="fill" to="#808080" begin="reset.mouseover" end="reset.mouseout"/>
                       </use>
               </g>
        </defs>

<script type="text/javascript">
var viewWidth = 808;
var viewHeight = 301;
var sectionId = 'dynsection-81';
</script>
<script xlink:href="svgpan.js"/>
<svg id="graph" class="graph">
<g id="viewport">
<title>unsigned_modulus</title>
<polygon fill="white" stroke="white" points="-4,5 -4,-297 805,-297 805,5 -4,5"/>
<!-- Node1 -->
<g id="node1" class="node"><title>Node1</title>
<polygon fill="#bfbfbf" stroke="black" points="0.0249023,-58 0.0249023,-78 99.9751,-78 99.9751,-58 0.0249023,-58"/>
<text text-anchor="middle" x="50" y="-64" font-family="Helvetica,sans-Serif" font-size="10.00">unsigned_modulus</text>
</g>
<!-- Node2 -->
<g id="node2" class="node"><title>Node2</title>
<g id="a_node2"><a xlink:href="string__arithmetic_8cpp.html#ab3a186169c294aa027b67610566e1108" target="_top" xlink:title="unsigned_remainder">
<polygon fill="white" stroke="black" points="136.414,-58 136.414,-78 243.586,-78 243.586,-58 136.414,-58"/>
<text text-anchor="middle" x="190" y="-64" font-family="Helvetica,sans-Serif" font-size="10.00">unsigned_remainder</text>
</a>
</g>
</g>
<!-- Node1&#45;&gt;Node2 -->
<g id="edge1" class="edge"><title>Node1&#45;&gt;Node2</title>
<path fill="none" stroke="midnightblue" d="M100.042,-68C108.506,-68 117.408,-68 126.176,-68"/>
<polygon fill="midnightblue" stroke="midnightblue" points="126.373,-71.5001 136.373,-68 126.373,-64.5001 126.373,-71.5001"/>
</g>
<!-- Node3 -->
<g id="node3" class="node"><title>Node3</title>
<g id="a_node3"><a xlink:href="string__arithmetic_8cpp.html#afc453c238c64f9a65f4feba453f3ac49" target="_top" xlink:title="divrem">
<polygon fill="white" stroke="black" points="279.998,-78 279.998,-98 326.002,-98 326.002,-78 279.998,-78"/>
<text text-anchor="middle" x="303" y="-84" font-family="Helvetica,sans-Serif" font-size="10.00">divrem</text>
</a>
</g>
</g>
<!-- Node2&#45;&gt;Node3 -->
<g id="edge2" class="edge"><title>Node2&#45;&gt;Node3</title>
<path fill="none" stroke="midnightblue" d="M243.899,-77.5314C252.851,-79.1443 261.893,-80.7735 270.091,-82.2506"/>
<polygon fill="midnightblue" stroke="midnightblue" points="269.492,-85.6989 279.954,-84.0277 270.733,-78.8099 269.492,-85.6989"/>
</g>
<!-- Node14 -->
<g id="node14" class="node"><title>Node14</title>
<g id="a_node14"><a xlink:href="string__arithmetic_8cpp.html#ac03b6b6ac3421fe0895d15048e0f1bd7" target="_top" xlink:title="unsigned_resize">
<polygon fill="white" stroke="black" points="507.586,-39 507.586,-59 596.414,-59 596.414,-39 507.586,-39"/>
<text text-anchor="middle" x="552" y="-45" font-family="Helvetica,sans-Serif" font-size="10.00">unsigned_resize</text>
</a>
</g>
</g>
<!-- Node2&#45;&gt;Node14 -->
<g id="edge25" class="edge"><title>Node2&#45;&gt;Node14</title>
<path fill="none" stroke="midnightblue" d="M243.733,-65.2169C311.629,-61.6335 428.988,-55.4395 497.334,-51.8324"/>
<polygon fill="midnightblue" stroke="midnightblue" points="497.657,-55.3203 507.459,-51.298 497.288,-48.33 497.657,-55.3203"/>
</g>
<!-- Node4 -->
<g id="node4" class="node"><title>Node4</title>
<g id="a_node4"><a xlink:href="string__arithmetic_8cpp.html#a26fc5f3b1ff43bdf390632ff091a3d87" target="_top" xlink:title="unsigned_less_than">
<polygon fill="white" stroke="black" points="362.52,-117 362.52,-137 467.48,-137 467.48,-117 362.52,-117"/>
<text text-anchor="middle" x="415" y="-123" font-family="Helvetica,sans-Serif" font-size="10.00">unsigned_less_than</text>
</a>
</g>
</g>
<!-- Node3&#45;&gt;Node4 -->
<g id="edge3" class="edge"><title>Node3&#45;&gt;Node4</title>
<path fill="none" stroke="midnightblue" d="M326.26,-95.8922C340.534,-100.953 359.434,-107.654 376.036,-113.54"/>
<polygon fill="midnightblue" stroke="midnightblue" points="374.899,-116.85 385.493,-116.893 377.238,-110.253 374.899,-116.85"/>
</g>
<!-- Node15 -->
<g id="node15" class="node"><title>Node15</title>
<g id="a_node15"><a xlink:href="string__arithmetic_8cpp.html#a0e67532fe299ea837edda12a3f7e4bae" target="_top" xlink:title="unsigned_shift_left">
<polygon fill="white" stroke="black" points="365.303,-78 365.303,-98 464.697,-98 464.697,-78 365.303,-78"/>
<text text-anchor="middle" x="415" y="-84" font-family="Helvetica,sans-Serif" font-size="10.00">unsigned_shift_left</text>
</a>
</g>
</g>
<!-- Node3&#45;&gt;Node15 -->
<g id="edge14" class="edge"><title>Node3&#45;&gt;Node15</title>
<path fill="none" stroke="midnightblue" d="M326.26,-88C334.641,-88 344.616,-88 354.785,-88"/>
<polygon fill="midnightblue" stroke="midnightblue" points="354.967,-91.5001 364.967,-88 354.967,-84.5001 354.967,-91.5001"/>
</g>
<!-- Node17 -->
<g id="node17" class="node"><title>Node17</title>
<g id="a_node17"><a xlink:href="string__arithmetic_8cpp.html#a2b0af6b46b7ffeb12ba3a67141809cbc" target="_top" xlink:title="unsigned_shift_right">
<polygon fill="white" stroke="black" points="362.247,-0 362.247,-20 467.753,-20 467.753,-0 362.247,-0"/>
<text text-anchor="middle" x="415" y="-6" font-family="Helvetica,sans-Serif" font-size="10.00">unsigned_shift_right</text>
</a>
</g>
</g>
<!-- Node3&#45;&gt;Node17 -->
<g id="edge17" class="edge"><title>Node3&#45;&gt;Node17</title>
<path fill="none" stroke="midnightblue" d="M318.381,-77.8029C336.909,-64.6644 369.334,-41.6723 391.229,-26.1465"/>
<polygon fill="midnightblue" stroke="midnightblue" points="393.483,-28.839 399.616,-20.1996 389.434,-23.1289 393.483,-28.839"/>
</g>
<!-- Node19 -->
<g id="node19" class="node"><title>Node19</title>
<g id="a_node19"><a xlink:href="string__arithmetic_8cpp.html#a7270b346c83ab513309c9ee2e3cdd898" target="_top" xlink:title="unsigned_subtract">
<polygon fill="white" stroke="black" points="366.138,-156 366.138,-176 463.862,-176 463.862,-156 366.138,-156"/>
<text text-anchor="middle" x="415" y="-162" font-family="Helvetica,sans-Serif" font-size="10.00">unsigned_subtract</text>
</a>
</g>
</g>
<!-- Node3&#45;&gt;Node19 -->
<g id="edge20" class="edge"><title>Node3&#45;&gt;Node19</title>
<path fill="none" stroke="midnightblue" d="M312.002,-98.3249C322.34,-111.059 341.462,-132.653 362,-146 365.282,-148.133 368.826,-150.091 372.467,-151.877"/>
<polygon fill="midnightblue" stroke="midnightblue" points="371.065,-155.084 381.623,-155.961 373.916,-148.691 371.065,-155.084"/>
</g>
<!-- Node5 -->
<g id="node5" class="node"><title>Node5</title>
<g id="a_node5"><a xlink:href="string__arithmetic_8cpp.html#aa19eed0b96f17cfe786e83058b5ecffb" target="_top" xlink:title="is_negative">
<polygon fill="white" stroke="black" points="518.705,-117 518.705,-137 585.295,-137 585.295,-117 518.705,-117"/>
<text text-anchor="middle" x="552" y="-123" font-family="Helvetica,sans-Serif" font-size="10.00">is_negative</text>
</a>
</g>
</g>
<!-- Node4&#45;&gt;Node5 -->
<g id="edge4" class="edge"><title>Node4&#45;&gt;Node5</title>
<path fill="none" stroke="midnightblue" d="M467.808,-127C481.303,-127 495.683,-127 508.626,-127"/>
<polygon fill="midnightblue" stroke="midnightblue" points="508.653,-130.5 518.653,-127 508.653,-123.5 508.653,-130.5"/>
</g>
<!-- Node6 -->
<g id="node6" class="node"><title>Node6</title>
<g id="a_node6"><a xlink:href="string__arithmetic_8cpp.html#a21df22820cbc1ab7c128f203d18c7104" target="_top" xlink:title="signed_subtract">
<polygon fill="white" stroke="black" points="508.7,-195 508.7,-215 595.3,-215 595.3,-195 508.7,-195"/>
<text text-anchor="middle" x="552" y="-201" font-family="Helvetica,sans-Serif" font-size="10.00">signed_subtract</text>
</a>
</g>
</g>
<!-- Node4&#45;&gt;Node6 -->
<g id="edge5" class="edge"><title>Node4&#45;&gt;Node6</title>
<path fill="none" stroke="midnightblue" d="M447.657,-137.031C454.515,-139.625 461.62,-142.645 468,-146 490.841,-158.012 514.619,-175.507 530.84,-188.328"/>
<polygon fill="midnightblue" stroke="midnightblue" points="529.033,-191.367 539.02,-194.905 533.42,-185.911 529.033,-191.367"/>
</g>
<!-- Node4&#45;&gt;Node14 -->
<g id="edge13" class="edge"><title>Node4&#45;&gt;Node14</title>
<path fill="none" stroke="midnightblue" d="M449.043,-116.917C455.603,-114.204 462.238,-110.911 468,-107 487.518,-93.7532 484.595,-81.4122 504,-68 506.231,-66.4581 508.606,-65.0121 511.057,-63.6613"/>
<polygon fill="midnightblue" stroke="midnightblue" points="512.726,-66.7411 520.152,-59.1849 509.635,-60.4606 512.726,-66.7411"/>
</g>
<!-- Node7 -->
<g id="node7" class="node"><title>Node7</title>
<g id="a_node7"><a xlink:href="string__arithmetic_8cpp.html#a94695ea56cea67bf729e29e05a1a919e" target="_top" xlink:title="bit_carry">
<polygon fill="white" stroke="black" points="647.828,-156 647.828,-176 702.172,-176 702.172,-156 647.828,-156"/>
<text text-anchor="middle" x="675" y="-162" font-family="Helvetica,sans-Serif" font-size="10.00">bit_carry</text>
</a>
</g>
</g>
<!-- Node6&#45;&gt;Node7 -->
<g id="edge6" class="edge"><title>Node6&#45;&gt;Node7</title>
<path fill="none" stroke="midnightblue" d="M584.161,-194.957C600.55,-189.674 620.73,-183.17 637.81,-177.665"/>
<polygon fill="midnightblue" stroke="midnightblue" points="639.011,-180.955 647.455,-174.556 636.864,-174.292 639.011,-180.955"/>
</g>
<!-- Node10 -->
<g id="node10" class="node"><title>Node10</title>
<g id="a_node10"><a xlink:href="string__arithmetic_8cpp.html#a1a22bf947511ecf8da04a7cead2979ad" target="_top" xlink:title="bit_not">
<polygon fill="white" stroke="black" points="651.988,-273 651.988,-293 698.012,-293 698.012,-273 651.988,-273"/>
<text text-anchor="middle" x="675" y="-279" font-family="Helvetica,sans-Serif" font-size="10.00">bit_not</text>
</a>
</g>
</g>
<!-- Node6&#45;&gt;Node10 -->
<g id="edge9" class="edge"><title>Node6&#45;&gt;Node10</title>
<path fill="none" stroke="midnightblue" d="M566.452,-215.187C582.584,-227.217 610.629,-247.542 636,-263 638.801,-264.707 641.762,-266.418 644.745,-268.081"/>
<polygon fill="midnightblue" stroke="midnightblue" points="643.16,-271.203 653.622,-272.875 646.487,-265.043 643.16,-271.203"/>
</g>
<!-- Node11 -->
<g id="node11" class="node"><title>Node11</title>
<g id="a_node11"><a xlink:href="string__arithmetic_8cpp.html#a5908e619ca6762dbb4a713ef69a04ed7" target="_top" xlink:title="bit_sum">
<polygon fill="white" stroke="black" points="649.493,-234 649.493,-254 700.507,-254 700.507,-234 649.493,-234"/>
<text text-anchor="middle" x="675" y="-240" font-family="Helvetica,sans-Serif" font-size="10.00">bit_sum</text>
</a>
</g>
</g>
<!-- Node6&#45;&gt;Node11 -->
<g id="edge10" class="edge"><title>Node6&#45;&gt;Node11</title>
<path fill="none" stroke="midnightblue" d="M584.161,-215.043C601.135,-220.515 622.176,-227.297 639.627,-232.921"/>
<polygon fill="midnightblue" stroke="midnightblue" points="638.838,-236.344 649.43,-236.081 640.985,-229.682 638.838,-236.344"/>
</g>
<!-- Node13 -->
<g id="node13" class="node"><title>Node13</title>
<g id="a_node13"><a xlink:href="string__arithmetic_8cpp.html#a81d7a054172ae982785819c0c51a87c5" target="_top" xlink:title="signed_resize">
<polygon fill="white" stroke="black" points="636.148,-195 636.148,-215 713.852,-215 713.852,-195 636.148,-195"/>
<text text-anchor="middle" x="675" y="-201" font-family="Helvetica,sans-Serif" font-size="10.00">signed_resize</text>
</a>
</g>
</g>
<!-- Node6&#45;&gt;Node13 -->
<g id="edge12" class="edge"><title>Node6&#45;&gt;Node13</title>
<path fill="none" stroke="midnightblue" d="M595.32,-205C605.132,-205 615.648,-205 625.696,-205"/>
<polygon fill="midnightblue" stroke="midnightblue" points="625.948,-208.5 635.948,-205 625.948,-201.5 625.948,-208.5"/>
</g>
<!-- Node8 -->
<g id="node8" class="node"><title>Node8</title>
<g id="a_node8"><a xlink:href="string__arithmetic_8cpp.html#afe7cda5eba463b65d65687c2fd389fff" target="_top" xlink:title="bit_and">
<polygon fill="white" stroke="black" points="750.596,-176 750.596,-196 799.404,-196 799.404,-176 750.596,-176"/>
<text text-anchor="middle" x="775" y="-182" font-family="Helvetica,sans-Serif" font-size="10.00">bit_and</text>
</a>
</g>
</g>
<!-- Node7&#45;&gt;Node8 -->
<g id="edge7" class="edge"><title>Node7&#45;&gt;Node8</title>
<path fill="none" stroke="midnightblue" d="M702.262,-171.36C713.956,-173.746 727.87,-176.586 740.317,-179.126"/>
<polygon fill="midnightblue" stroke="midnightblue" points="739.849,-182.603 750.347,-181.173 741.249,-175.744 739.849,-182.603"/>
</g>
<!-- Node9 -->
<g id="node9" class="node"><title>Node9</title>
<g id="a_node9"><a xlink:href="string__arithmetic_8cpp.html#a3f0dedb0825234f431e364e025ff9452" target="_top" xlink:title="bit_or">
<polygon fill="white" stroke="black" points="754.493,-137 754.493,-157 795.507,-157 795.507,-137 754.493,-137"/>
<text text-anchor="middle" x="775" y="-143" font-family="Helvetica,sans-Serif" font-size="10.00">bit_or</text>
</a>
</g>
</g>
<!-- Node7&#45;&gt;Node9 -->
<g id="edge8" class="edge"><title>Node7&#45;&gt;Node9</title>
<path fill="none" stroke="midnightblue" d="M702.262,-160.908C715.147,-158.41 730.726,-155.39 744.07,-152.803"/>
<polygon fill="midnightblue" stroke="midnightblue" points="745.047,-156.179 754.198,-150.839 743.714,-149.307 745.047,-156.179"/>
</g>
<!-- Node12 -->
<g id="node12" class="node"><title>Node12</title>
<g id="a_node12"><a xlink:href="string__arithmetic_8cpp.html#aa479141a8083df6b46cd98c13609d224" target="_top" xlink:title="bit_xor">
<polygon fill="white" stroke="black" points="751.993,-234 751.993,-254 798.007,-254 798.007,-234 751.993,-234"/>
<text text-anchor="middle" x="775" y="-240" font-family="Helvetica,sans-Serif" font-size="10.00">bit_xor</text>
</a>
</g>
</g>
<!-- Node11&#45;&gt;Node12 -->
<g id="edge11" class="edge"><title>Node11&#45;&gt;Node12</title>
<path fill="none" stroke="midnightblue" d="M700.73,-244C713.168,-244 728.397,-244 741.743,-244"/>
<polygon fill="midnightblue" stroke="midnightblue" points="741.953,-247.5 751.953,-244 741.953,-240.5 741.953,-247.5"/>
</g>
<!-- Node15&#45;&gt;Node14 -->
<g id="edge16" class="edge"><title>Node15&#45;&gt;Node14</title>
<path fill="none" stroke="midnightblue" d="M450.766,-77.9565C467.772,-73.0435 488.437,-67.0737 506.575,-61.834"/>
<polygon fill="midnightblue" stroke="midnightblue" points="507.716,-65.1474 516.352,-59.0094 505.773,-58.4224 507.716,-65.1474"/>
</g>
<!-- Node16 -->
<g id="node16" class="node"><title>Node16</title>
<g id="a_node16"><a xlink:href="string__arithmetic_8cpp.html#adabd8a461950d5edbb4a3f9ada13c874" target="_top" xlink:title="bitwise_shift_left">
<polygon fill="white" stroke="black" points="507.315,-78 507.315,-98 596.685,-98 596.685,-78 507.315,-78"/>
<text text-anchor="middle" x="552" y="-84" font-family="Helvetica,sans-Serif" font-size="10.00">bitwise_shift_left</text>
</a>
</g>
</g>
<!-- Node15&#45;&gt;Node16 -->
<g id="edge15" class="edge"><title>Node15&#45;&gt;Node16</title>
<path fill="none" stroke="midnightblue" d="M464.738,-88C475.269,-88 486.462,-88 497.175,-88"/>
<polygon fill="midnightblue" stroke="midnightblue" points="497.263,-91.5001 507.263,-88 497.263,-84.5001 497.263,-91.5001"/>
</g>
<!-- Node17&#45;&gt;Node14 -->
<g id="edge19" class="edge"><title>Node17&#45;&gt;Node14</title>
<path fill="none" stroke="midnightblue" d="M450.766,-20.0435C467.772,-24.9565 488.437,-30.9263 506.575,-36.166"/>
<polygon fill="midnightblue" stroke="midnightblue" points="505.773,-39.5776 516.352,-38.9906 507.716,-32.8526 505.773,-39.5776"/>
</g>
<!-- Node18 -->
<g id="node18" class="node"><title>Node18</title>
<g id="a_node18"><a xlink:href="string__arithmetic_8cpp.html#aa4b688b0d66e2a5e233df63057cf00a8" target="_top" xlink:title="bitwise_shift_right">
<polygon fill="white" stroke="black" points="504.259,-0 504.259,-20 599.741,-20 599.741,-0 504.259,-0"/>
<text text-anchor="middle" x="552" y="-6" font-family="Helvetica,sans-Serif" font-size="10.00">bitwise_shift_right</text>
</a>
</g>
</g>
<!-- Node17&#45;&gt;Node18 -->
<g id="edge18" class="edge"><title>Node17&#45;&gt;Node18</title>
<path fill="none" stroke="midnightblue" d="M467.808,-10C476.359,-10 485.266,-10 493.937,-10"/>
<polygon fill="midnightblue" stroke="midnightblue" points="493.973,-13.5001 503.973,-10 493.973,-6.5001 493.973,-13.5001"/>
</g>
<!-- Node19&#45;&gt;Node7 -->
<g id="edge21" class="edge"><title>Node19&#45;&gt;Node7</title>
<path fill="none" stroke="midnightblue" d="M463.923,-166C514.216,-166 592.157,-166 637.623,-166"/>
<polygon fill="midnightblue" stroke="midnightblue" points="637.628,-169.5 647.628,-166 637.628,-162.5 637.628,-169.5"/>
</g>
<!-- Node19&#45;&gt;Node10 -->
<g id="edge22" class="edge"><title>Node19&#45;&gt;Node10</title>
<path fill="none" stroke="midnightblue" d="M423.721,-176.19C437.678,-193.828 468.93,-229.894 504,-248 548.162,-270.8 605.986,-278.749 641.536,-281.52"/>
<polygon fill="midnightblue" stroke="midnightblue" points="641.597,-285.032 651.813,-282.224 642.076,-278.048 641.597,-285.032"/>
</g>
<!-- Node19&#45;&gt;Node11 -->
<g id="edge23" class="edge"><title>Node19&#45;&gt;Node11</title>
<path fill="none" stroke="midnightblue" d="M427.547,-176.218C443.499,-189.686 473.748,-212.96 504,-224 548.653,-240.296 603.874,-244.036 639.024,-244.548"/>
<polygon fill="midnightblue" stroke="midnightblue" points="639.232,-248.05 649.254,-244.614 639.277,-241.05 639.232,-248.05"/>
</g>
<!-- Node19&#45;&gt;Node14 -->
<g id="edge24" class="edge"><title>Node19&#45;&gt;Node14</title>
<path fill="none" stroke="midnightblue" d="M453.055,-155.887C458.488,-153.281 463.694,-150.034 468,-146 495.864,-119.897 476.359,-94.339 504,-68 505.27,-66.7895 506.628,-65.6523 508.051,-64.5843"/>
<polygon fill="midnightblue" stroke="midnightblue" points="510.107,-67.4285 516.777,-59.1964 506.429,-61.4726 510.107,-67.4285"/>
</g>
</g>
</svg>
        <g id="navigator" transform="translate(0 0)" fill="#404254">
                <rect fill="#f2f5e9" fill-opacity="0.5" stroke="#606060" stroke-width=".5" x="0" y="0" width="60" height="60"/>
                <use id="zoomplus" xlink:href="#zoomPlus" x="17" y="9" onmousedown="handleZoom(evt,'in')"/>
                <use id="zoomminus" xlink:href="#zoomMin" x="42" y="9" onmousedown="handleZoom(evt,'out')"/>
                <use id="reset" xlink:href="#resetDef" x="30" y="36" onmousedown="handleReset()"/>
                <g id="arrowUp" xlink:href="#dirArrow" transform="translate(30 24)" onmousedown="handlePan(0,-1)">
                  <use xlink:href="#rim" fill="#404040">
                        <set attributeName="fill" to="#808080" begin="arrowUp.mouseover" end="arrowUp.mouseout"/>
                  </use>
                  <path fill="none" stroke="white" stroke-width="1.5" d="M0,-3.0v7 M-2.5,-0.5L0,-3.0L2.5,-0.5"/>
                </g>
                <g id="arrowRight" xlink:href="#dirArrow" transform="rotate(90) translate(36 -43)" onmousedown="handlePan(1,0)">
                  <use xlink:href="#rim" fill="#404040">
                        <set attributeName="fill" to="#808080" begin="arrowRight.mouseover" end="arrowRight.mouseout"/>
                  </use>
                  <path fill="none" stroke="white" stroke-width="1.5" d="M0,-3.0v7 M-2.5,-0.5L0,-3.0L2.5,-0.5"/>
                </g>
                <g id="arrowDown" xlink:href="#dirArrow" transform="rotate(180) translate(-30 -48)" onmousedown="handlePan(0,1)">
                  <use xlink:href="#rim" fill="#404040">
                        <set attributeName="fill" to="#808080" begin="arrowDown.mouseover" end="arrowDown.mouseout"/>
                  </use>
                  <path fill="none" stroke="white" stroke-width="1.5" d="M0,-3.0v7 M-2.5,-0.5L0,-3.0L2.5,-0.5"/>
                </g>
                <g id="arrowLeft" xlink:href="#dirArrow" transform="rotate(270) translate(-36 17)" onmousedown="handlePan(-1,0)">
                  <use xlink:href="#rim" fill="#404040">
                        <set attributeName="fill" to="#808080" begin="arrowLeft.mouseover" end="arrowLeft.mouseout"/>
                  </use>
                  <path fill="none" stroke="white" stroke-width="1.5" d="M0,-3.0v7 M-2.5,-0.5L0,-3.0L2.5,-0.5"/>
                </g>
        </g>
        <svg viewBox="0 0 15 15" width="100%" height="30px" preserveAspectRatio="xMaxYMin meet">
         <g id="arrow_out" transform="scale(0.3 0.3)">
          <a xlink:href="string__arithmetic_8hpp_ad4d3d4da04a2430d6ddb04b46fb583c3_cgraph_org.svg" target="_base">
           <rect id="button" ry="5" rx="5" y="6" x="6" height="38" width="38"
                fill="#f2f5e9" fill-opacity="0.5" stroke="#606060" stroke-width="1.0"/>
           <path id="arrow"
             d="M 11.500037,31.436501 C 11.940474,20.09759 22.043105,11.32322 32.158766,21.979434 L 37.068811,17.246167 C 37.068811,17.246167 37.088388,32 37.088388,32 L 22.160133,31.978069 C 22.160133,31.978069 26.997745,27.140456 26.997745,27.140456 C 18.528582,18.264221 13.291696,25.230495 11.500037,31.436501 z"
             style="fill:#404040;"/>
          </a>
         </g>
        </svg>
</svg>
