<?xml version="1.0" encoding="UTF-8" standalone="no"?>
<!DOCTYPE svg PUBLIC "-//W3C//DTD SVG 1.1//EN"
 "http://www.w3.org/Graphics/SVG/1.1/DTD/svg11.dtd">
<!-- Generated by graphviz version 2.32.0 (20130916.1925)
 -->
<!-- Title: signed_resize Pages: 1 -->
<svg width="794pt" height="884pt"
 viewBox="0.00 0.00 794.00 884.22" xmlns="http://www.w3.org/2000/svg" xmlns:xlink="http://www.w3.org/1999/xlink">
<g id="graph0" class="graph" transform="scale(1 1) rotate(0) translate(4 880.218)">
<title>signed_resize</title>
<polygon fill="white" stroke="white" points="-4,5 -4,-880.218 791,-880.218 791,5 -4,5"/>
<!-- Node1 -->
<g id="node1" class="node"><title>Node1</title>
<polygon fill="#bfbfbf" stroke="black" points="0.147949,-477 0.147949,-497 77.8521,-497 77.8521,-477 0.147949,-477"/>
<text text-anchor="middle" x="39" y="-483" font-family="Helvetica,sans-Serif" font-size="10.00">signed_resize</text>
</g>
<!-- Node2 -->
<g id="node2" class="node"><title>Node2</title>
<g id="a_node2"><a xlink:href="string__arithmetic_8hpp.html#a1f4624df79dda05c230d1540b69ea565" target="_top" xlink:title="inf_to_signed">
<polygon fill="white" stroke="black" points="259.254,-711 259.254,-731 334.746,-731 334.746,-711 259.254,-711"/>
<text text-anchor="middle" x="297" y="-717" font-family="Helvetica,sans-Serif" font-size="10.00">inf_to_signed</text>
</a>
</g>
</g>
<!-- Node1&#45;&gt;Node2 -->
<g id="edge1" class="edge"><title>Node1&#45;&gt;Node2</title>
<path fill="none" stroke="midnightblue" d="M40.982,-507.45C44.1481,-548.909 57.5213,-642.912 114,-690 154.744,-723.969 218.872,-726.973 259.122,-724.852"/>
<polygon fill="midnightblue" stroke="midnightblue" points="44.4735,-507.205 40.3431,-497.448 37.4878,-507.651 44.4735,-507.205"/>
</g>
<!-- Node3 -->
<g id="node3" class="node"><title>Node3</title>
<g id="a_node3"><a xlink:href="string__arithmetic_8hpp.html#a06390d0cd7a69f65eb556a8371c5d1b8" target="_top" xlink:title="long_to_signed">
<polygon fill="white" stroke="black" points="255.082,-672 255.082,-692 338.918,-692 338.918,-672 255.082,-672"/>
<text text-anchor="middle" x="297" y="-678" font-family="Helvetica,sans-Serif" font-size="10.00">long_to_signed</text>
</a>
</g>
</g>
<!-- Node1&#45;&gt;Node3 -->
<g id="edge2" class="edge"><title>Node1&#45;&gt;Node3</title>
<path fill="none" stroke="midnightblue" d="M42.0285,-507.178C46.9557,-544.545 63.1705,-624.148 114,-662 154.537,-692.187 214.927,-692.592 254.872,-688.564"/>
<polygon fill="midnightblue" stroke="midnightblue" points="45.4793,-506.553 40.836,-497.03 38.5272,-507.371 45.4793,-506.553"/>
</g>
<!-- Node4 -->
<g id="node4" class="node"><title>Node4</title>
<g id="a_node4"><a xlink:href="string__arithmetic_8hpp.html#af518e5e03c09204d61158fd4ff5deede" target="_top" xlink:title="signed_abs">
<polygon fill="white" stroke="black" points="412.424,-731 412.424,-751 479.576,-751 479.576,-731 412.424,-731"/>
<text text-anchor="middle" x="446" y="-737" font-family="Helvetica,sans-Serif" font-size="10.00">signed_abs</text>
</a>
</g>
</g>
<!-- Node1&#45;&gt;Node4 -->
<g id="edge3" class="edge"><title>Node1&#45;&gt;Node4</title>
<path fill="none" stroke="midnightblue" d="M42.8441,-507.083C51.1764,-563.049 77.2785,-718.898 114,-753 191.323,-824.807 246.381,-798.955 350,-779 377.56,-773.692 407.288,-760.461 426.01,-751.109"/>
<polygon fill="midnightblue" stroke="midnightblue" points="46.2819,-506.402 41.3773,-497.01 39.355,-507.41 46.2819,-506.402"/>
</g>
<!-- Node5 -->
<g id="node5" class="node"><title>Node5</title>
<g id="a_node5"><a xlink:href="string__arithmetic_8hpp.html#aadea3688ea789af8751de7438de2b81a" target="_top" xlink:title="signed_divide">
<polygon fill="white" stroke="black" points="557.421,-750 557.421,-770 634.579,-770 634.579,-750 557.421,-750"/>
<text text-anchor="middle" x="596" y="-756" font-family="Helvetica,sans-Serif" font-size="10.00">signed_divide</text>
</a>
</g>
</g>
<!-- Node1&#45;&gt;Node5 -->
<g id="edge13" class="edge"><title>Node1&#45;&gt;Node5</title>
<path fill="none" stroke="midnightblue" d="M41.9412,-507.189C48.2983,-568.766 70.617,-752.297 114,-790 251.199,-909.236 501.94,-804.492 574.705,-770.05"/>
<polygon fill="midnightblue" stroke="midnightblue" points="45.4173,-506.774 40.9385,-497.173 38.4522,-507.471 45.4173,-506.774"/>
</g>
<!-- Node6 -->
<g id="node6" class="node"><title>Node6</title>
<g id="a_node6"><a xlink:href="string__arithmetic_8hpp.html#a045a224c929ce31ed52a22c98778f8db" target="_top" xlink:title="signed_remainder">
<polygon fill="white" stroke="black" points="547.976,-594 547.976,-614 644.024,-614 644.024,-594 547.976,-594"/>
<text text-anchor="middle" x="596" y="-600" font-family="Helvetica,sans-Serif" font-size="10.00">signed_remainder</text>
</a>
</g>
</g>
<!-- Node1&#45;&gt;Node6 -->
<g id="edge31" class="edge"><title>Node1&#45;&gt;Node6</title>
<path fill="none" stroke="midnightblue" d="M48.2141,-506.396C59.2917,-529.738 81.4571,-567.809 114,-584 115.467,-584.73 348.362,-584.933 350,-585 418.842,-587.811 498.331,-594.637 547.635,-599.294"/>
<polygon fill="midnightblue" stroke="midnightblue" points="51.3312,-504.795 44.0269,-497.12 44.9511,-507.675 51.3312,-504.795"/>
</g>
<!-- Node7 -->
<g id="node7" class="node"><title>Node7</title>
<g id="a_node7"><a xlink:href="string__arithmetic_8hpp.html#a2e8b975956735b659e2ce6940a1b19a5" target="_top" xlink:title="signed_modulus">
<polygon fill="white" stroke="black" points="691.586,-594 691.586,-614 780.414,-614 780.414,-594 691.586,-594"/>
<text text-anchor="middle" x="736" y="-600" font-family="Helvetica,sans-Serif" font-size="10.00">signed_modulus</text>
</a>
</g>
</g>
<!-- Node1&#45;&gt;Node7 -->
<g id="edge17" class="edge"><title>Node1&#45;&gt;Node7</title>
<path fill="none" stroke="midnightblue" d="M41.7006,-507.549C47.5934,-573.816 69.2702,-780.278 114,-827 171.851,-887.427 212.345,-875 296,-875 296,-875 296,-875 447,-875 546.802,-875 579.063,-849.202 650,-779 700.416,-729.107 725.316,-643.31 732.636,-614.088"/>
<polygon fill="midnightblue" stroke="midnightblue" points="45.154,-506.857 40.8083,-497.194 38.1798,-507.458 45.154,-506.857"/>
</g>
<!-- Node8 -->
<g id="node8" class="node"><title>Node8</title>
<g id="a_node8"><a xlink:href="string__arithmetic_8hpp.html#a9fd55ffe6cdb372c87b5eca6113ea6af" target="_top" xlink:title="signed_add">
<polygon fill="white" stroke="black" points="127.143,-399 127.143,-419 194.857,-419 194.857,-399 127.143,-399"/>
<text text-anchor="middle" x="161" y="-405" font-family="Helvetica,sans-Serif" font-size="10.00">signed_add</text>
</a>
</g>
</g>
<!-- Node1&#45;&gt;Node8 -->
<g id="edge7" class="edge"><title>Node1&#45;&gt;Node8</title>
<path fill="none" stroke="midnightblue" d="M59.0754,-469.827C73.4668,-457.439 94.0736,-440.876 114,-429 120.134,-425.344 127.058,-421.979 133.637,-419.092"/>
<polygon fill="midnightblue" stroke="midnightblue" points="56.5907,-467.35 51.3723,-476.571 61.2018,-472.617 56.5907,-467.35"/>
</g>
<!-- Node9 -->
<g id="node9" class="node"><title>Node9</title>
<g id="a_node9"><a xlink:href="string__arithmetic_8hpp.html#a3330004ebec2ed1bce81c84710f91e1e" target="_top" xlink:title="signed_multiply">
<polygon fill="white" stroke="black" points="254.537,-321 254.537,-341 339.463,-341 339.463,-321 254.537,-321"/>
<text text-anchor="middle" x="297" y="-327" font-family="Helvetica,sans-Serif" font-size="10.00">signed_multiply</text>
</a>
</g>
</g>
<!-- Node1&#45;&gt;Node9 -->
<g id="edge18" class="edge"><title>Node1&#45;&gt;Node9</title>
<path fill="none" stroke="midnightblue" d="M44.5925,-467.052C52.7862,-436.423 73.0475,-378.477 114,-351 155.574,-323.106 214.882,-321.964 254.367,-325.215"/>
<polygon fill="midnightblue" stroke="midnightblue" points="41.137,-466.443 42.1037,-476.993 47.9275,-468.143 41.137,-466.443"/>
</g>
<!-- Node11 -->
<g id="node11" class="node"><title>Node11</title>
<g id="a_node11"><a xlink:href="string__arithmetic_8hpp.html#aeb8b4ac2bac4a911ada4b1b8823475b3" target="_top" xlink:title="signed_exponent">
<polygon fill="white" stroke="black" points="399.912,-360 399.912,-380 492.088,-380 492.088,-360 399.912,-360"/>
<text text-anchor="middle" x="446" y="-366" font-family="Helvetica,sans-Serif" font-size="10.00">signed_exponent</text>
</a>
</g>
</g>
<!-- Node1&#45;&gt;Node11 -->
<g id="edge16" class="edge"><title>Node1&#45;&gt;Node11</title>
<path fill="none" stroke="midnightblue" d="M88.0209,-484.731C121.971,-482.296 168.317,-477.28 208,-467 292.139,-445.203 385.986,-400.128 425.644,-380.04"/>
<polygon fill="midnightblue" stroke="midnightblue" points="87.6481,-481.248 77.9037,-485.408 88.1149,-488.233 87.6481,-481.248"/>
</g>
<!-- Node12 -->
<g id="node12" class="node"><title>Node12</title>
<g id="a_node12"><a xlink:href="string__arithmetic_8hpp.html#a5629ae7b0c031fd1a904b45b668f5f6e" target="_top" xlink:title="signed_and">
<polygon fill="white" stroke="black" points="127.143,-516 127.143,-536 194.857,-536 194.857,-516 127.143,-516"/>
<text text-anchor="middle" x="161" y="-522" font-family="Helvetica,sans-Serif" font-size="10.00">signed_and</text>
</a>
</g>
</g>
<!-- Node1&#45;&gt;Node12 -->
<g id="edge12" class="edge"><title>Node1&#45;&gt;Node12</title>
<path fill="none" stroke="midnightblue" d="M80.4994,-500.162C96.4128,-505.334 114.379,-511.173 129.202,-515.991"/>
<polygon fill="midnightblue" stroke="midnightblue" points="81.4952,-496.806 70.903,-497.043 79.3315,-503.463 81.4952,-496.806"/>
</g>
<!-- Node13 -->
<g id="node13" class="node"><title>Node13</title>
<g id="a_node13"><a xlink:href="string__arithmetic_8hpp.html#a82b5c1c7ad131e0a7d4bf6f6f911ba5e" target="_top" xlink:title="signed_equality">
<polygon fill="white" stroke="black" points="118.251,-555 118.251,-575 203.749,-575 203.749,-555 118.251,-555"/>
<text text-anchor="middle" x="161" y="-561" font-family="Helvetica,sans-Serif" font-size="10.00">signed_equality</text>
</a>
</g>
</g>
<!-- Node1&#45;&gt;Node13 -->
<g id="edge14" class="edge"><title>Node1&#45;&gt;Node13</title>
<path fill="none" stroke="midnightblue" d="M59.0754,-504.173C73.4668,-516.561 94.0736,-533.124 114,-545 120.134,-548.656 127.058,-552.021 133.637,-554.908"/>
<polygon fill="midnightblue" stroke="midnightblue" points="61.2018,-501.383 51.3723,-497.429 56.5907,-506.65 61.2018,-501.383"/>
</g>
<!-- Node15 -->
<g id="node15" class="node"><title>Node15</title>
<g id="a_node15"><a xlink:href="string__arithmetic_8hpp.html#ac7d341f252a5f1e26e7c25d490ec0e2a" target="_top" xlink:title="signed_nand">
<polygon fill="white" stroke="black" points="124.362,-438 124.362,-458 197.638,-458 197.638,-438 124.362,-438"/>
<text text-anchor="middle" x="161" y="-444" font-family="Helvetica,sans-Serif" font-size="10.00">signed_nand</text>
</a>
</g>
</g>
<!-- Node1&#45;&gt;Node15 -->
<g id="edge19" class="edge"><title>Node1&#45;&gt;Node15</title>
<path fill="none" stroke="midnightblue" d="M80.4994,-473.838C96.4128,-468.666 114.379,-462.827 129.202,-458.009"/>
<polygon fill="midnightblue" stroke="midnightblue" points="79.3315,-470.537 70.903,-476.957 81.4952,-477.194 79.3315,-470.537"/>
</g>
<!-- Node16 -->
<g id="node16" class="node"><title>Node16</title>
<g id="a_node16"><a xlink:href="string__arithmetic_8hpp.html#abdb3e6cdf4e154978f6407f1b3ef41f0" target="_top" xlink:title="signed_negate">
<polygon fill="white" stroke="black" points="256.192,-750 256.192,-770 337.808,-770 337.808,-750 256.192,-750"/>
<text text-anchor="middle" x="297" y="-756" font-family="Helvetica,sans-Serif" font-size="10.00">signed_negate</text>
</a>
</g>
</g>
<!-- Node1&#45;&gt;Node16 -->
<g id="edge20" class="edge"><title>Node1&#45;&gt;Node16</title>
<path fill="none" stroke="midnightblue" d="M40.0726,-507.324C41.3999,-552.701 51.2894,-662.762 114,-720 152.709,-755.331 215.309,-761.965 256.062,-762.072"/>
<polygon fill="midnightblue" stroke="midnightblue" points="43.5709,-507.188 39.8927,-497.252 36.572,-507.313 43.5709,-507.188"/>
</g>
<!-- Node17 -->
<g id="node17" class="node"><title>Node17</title>
<g id="a_node17"><a xlink:href="string__arithmetic_8hpp.html#a983cc6659ec17db99c3cc055fc00f9c2" target="_top" xlink:title="signed_nor">
<polygon fill="white" stroke="black" points="128.259,-360 128.259,-380 193.741,-380 193.741,-360 128.259,-360"/>
<text text-anchor="middle" x="161" y="-366" font-family="Helvetica,sans-Serif" font-size="10.00">signed_nor</text>
</a>
</g>
</g>
<!-- Node1&#45;&gt;Node17 -->
<g id="edge24" class="edge"><title>Node1&#45;&gt;Node17</title>
<path fill="none" stroke="midnightblue" d="M50.4339,-468.032C63.0478,-446.6 86.095,-411.864 114,-390 118.935,-386.133 124.733,-382.859 130.518,-380.151"/>
<polygon fill="midnightblue" stroke="midnightblue" points="47.318,-466.43 45.3926,-476.849 53.3948,-469.905 47.318,-466.43"/>
</g>
<!-- Node18 -->
<g id="node18" class="node"><title>Node18</title>
<g id="a_node18"><a xlink:href="string__arithmetic_8hpp.html#a0e9204497bf84b6e1e015fc6b32d9f9d" target="_top" xlink:title="signed_not">
<polygon fill="white" stroke="black" points="128.535,-633 128.535,-653 193.465,-653 193.465,-633 128.535,-633"/>
<text text-anchor="middle" x="161" y="-639" font-family="Helvetica,sans-Serif" font-size="10.00">signed_not</text>
</a>
</g>
</g>
<!-- Node1&#45;&gt;Node18 -->
<g id="edge25" class="edge"><title>Node1&#45;&gt;Node18</title>
<path fill="none" stroke="midnightblue" d="M46.9894,-506.471C57.7401,-534.161 80.6469,-585.189 114,-618 120.091,-623.992 127.911,-628.954 135.369,-632.835"/>
<polygon fill="midnightblue" stroke="midnightblue" points="50.2585,-505.221 43.4679,-497.088 43.7048,-507.68 50.2585,-505.221"/>
</g>
<!-- Node21 -->
<g id="node21" class="node"><title>Node21</title>
<g id="a_node21"><a xlink:href="string__arithmetic_8hpp.html#add125343b859081bd88819d1c18a2a11" target="_top" xlink:title="signed_or">
<polygon fill="white" stroke="black" points="131.04,-282 131.04,-302 190.96,-302 190.96,-282 131.04,-282"/>
<text text-anchor="middle" x="161" y="-288" font-family="Helvetica,sans-Serif" font-size="10.00">signed_or</text>
</a>
</g>
</g>
<!-- Node1&#45;&gt;Node21 -->
<g id="edge30" class="edge"><title>Node1&#45;&gt;Node21</title>
<path fill="none" stroke="midnightblue" d="M44.1598,-467.155C52.242,-432.829 72.9884,-361.756 114,-317 119.649,-310.835 127.179,-305.872 134.508,-302.044"/>
<polygon fill="midnightblue" stroke="midnightblue" points="40.741,-466.406 41.9711,-476.929 47.5718,-467.936 40.741,-466.406"/>
</g>
<!-- Node22 -->
<g id="node22" class="node"><title>Node22</title>
<g id="a_node22"><a xlink:href="string__arithmetic_8hpp.html#a8949f0ff3c6ca6109dbd14ce0d92d0c7" target="_top" xlink:title="signed_shift_left">
<polygon fill="white" stroke="black" points="116.865,-243 116.865,-263 205.135,-263 205.135,-243 116.865,-243"/>
<text text-anchor="middle" x="161" y="-249" font-family="Helvetica,sans-Serif" font-size="10.00">signed_shift_left</text>
</a>
</g>
</g>
<!-- Node1&#45;&gt;Node22 -->
<g id="edge32" class="edge"><title>Node1&#45;&gt;Node22</title>
<path fill="none" stroke="midnightblue" d="M41.4889,-466.99C45.6153,-425.361 60.7063,-328.603 114,-272 117.317,-268.477 121.384,-265.586 125.714,-263.22"/>
<polygon fill="midnightblue" stroke="midnightblue" points="38.0002,-466.709 40.6094,-476.977 44.9732,-467.323 38.0002,-466.709"/>
</g>
<!-- Node23 -->
<g id="node23" class="node"><title>Node23</title>
<g id="a_node23"><a xlink:href="string__arithmetic_8hpp.html#aa1f6c0920f5f3b52c6b8f96238137d7e" target="_top" xlink:title="signed_shift_right">
<polygon fill="white" stroke="black" points="113.808,-204 113.808,-224 208.192,-224 208.192,-204 113.808,-204"/>
<text text-anchor="middle" x="161" y="-210" font-family="Helvetica,sans-Serif" font-size="10.00">signed_shift_right</text>
</a>
</g>
</g>
<!-- Node1&#45;&gt;Node23 -->
<g id="edge34" class="edge"><title>Node1&#45;&gt;Node23</title>
<path fill="none" stroke="midnightblue" d="M40.2322,-466.658C41.8481,-419.571 52.2243,-301.85 114,-233 117.231,-229.399 121.25,-226.463 125.557,-224.076"/>
<polygon fill="midnightblue" stroke="midnightblue" points="36.7299,-466.716 39.9873,-476.798 43.7279,-466.886 36.7299,-466.716"/>
</g>
<!-- Node24 -->
<g id="node24" class="node"><title>Node24</title>
<g id="a_node24"><a xlink:href="string__arithmetic_8hpp.html#a6cc51691f9a2dc1555deb66cc3038625" target="_top" xlink:title="signed_subtract">
<polygon fill="white" stroke="black" points="117.7,-165 117.7,-185 204.3,-185 204.3,-165 117.7,-165"/>
<text text-anchor="middle" x="161" y="-171" font-family="Helvetica,sans-Serif" font-size="10.00">signed_subtract</text>
</a>
</g>
</g>
<!-- Node1&#45;&gt;Node24 -->
<g id="edge35" class="edge"><title>Node1&#45;&gt;Node24</title>
<path fill="none" stroke="midnightblue" d="M39.267,-466.782C38.4862,-414.919 43.4705,-275.52 114,-194 117.053,-190.471 120.865,-187.586 124.979,-185.23"/>
<polygon fill="midnightblue" stroke="midnightblue" points="35.773,-467.073 39.5173,-476.984 42.7709,-466.901 35.773,-467.073"/>
</g>
<!-- Node37 -->
<g id="node37" class="node"><title>Node37</title>
<g id="a_node37"><a xlink:href="string__arithmetic_8hpp.html#aa9988c86be39fe45a731c19aef49624f" target="_top" xlink:title="signed_xnor">
<polygon fill="white" stroke="black" points="125.759,-126 125.759,-146 196.241,-146 196.241,-126 125.759,-126"/>
<text text-anchor="middle" x="161" y="-132" font-family="Helvetica,sans-Serif" font-size="10.00">signed_xnor</text>
</a>
</g>
</g>
<!-- Node1&#45;&gt;Node37 -->
<g id="edge53" class="edge"><title>Node1&#45;&gt;Node37</title>
<path fill="none" stroke="midnightblue" d="M42.07,-466.732C49.0204,-402.254 73.3949,-203.286 114,-155 117.114,-151.297 121.067,-148.304 125.343,-145.889"/>
<polygon fill="midnightblue" stroke="midnightblue" points="38.5732,-466.518 41.0068,-476.829 45.5348,-467.251 38.5732,-466.518"/>
</g>
<!-- Node38 -->
<g id="node38" class="node"><title>Node38</title>
<g id="a_node38"><a xlink:href="string__arithmetic_8hpp.html#ab3dcaac25a124fe9bccba0cfd5e2cd09" target="_top" xlink:title="signed_xor">
<polygon fill="white" stroke="black" points="128.54,-87 128.54,-107 193.46,-107 193.46,-87 128.54,-87"/>
<text text-anchor="middle" x="161" y="-93" font-family="Helvetica,sans-Serif" font-size="10.00">signed_xor</text>
</a>
</g>
</g>
<!-- Node1&#45;&gt;Node38 -->
<g id="edge54" class="edge"><title>Node1&#45;&gt;Node38</title>
<path fill="none" stroke="midnightblue" d="M41.5583,-466.649C47.2477,-397.195 68.9638,-170.791 114,-116 117.841,-111.327 123.02,-107.79 128.519,-105.115"/>
<polygon fill="midnightblue" stroke="midnightblue" points="38.0603,-466.486 40.7558,-476.732 45.0382,-467.041 38.0603,-466.486"/>
</g>
<!-- Node4&#45;&gt;Node5 -->
<g id="edge4" class="edge"><title>Node4&#45;&gt;Node5</title>
<path fill="none" stroke="midnightblue" d="M489.928,-746.511C511.234,-749.246 536.739,-752.521 557.285,-755.158"/>
<polygon fill="midnightblue" stroke="midnightblue" points="490.21,-743.019 479.846,-745.217 489.319,-749.962 490.21,-743.019"/>
</g>
<!-- Node4&#45;&gt;Node6 -->
<g id="edge5" class="edge"><title>Node4&#45;&gt;Node6</title>
<path fill="none" stroke="midnightblue" d="M465.739,-723.653C497.071,-694.651 559.115,-637.218 584.149,-614.044"/>
<polygon fill="midnightblue" stroke="midnightblue" points="463.085,-721.341 458.124,-730.703 467.84,-726.478 463.085,-721.341"/>
</g>
<!-- Node6&#45;&gt;Node7 -->
<g id="edge6" class="edge"><title>Node6&#45;&gt;Node7</title>
<path fill="none" stroke="midnightblue" d="M654.343,-604C666.717,-604 679.607,-604 691.357,-604"/>
<polygon fill="midnightblue" stroke="midnightblue" points="654.106,-600.5 644.106,-604 654.106,-607.5 654.106,-600.5"/>
</g>
<!-- Node8&#45;&gt;Node7 -->
<g id="edge11" class="edge"><title>Node8&#45;&gt;Node7</title>
<path fill="none" stroke="midnightblue" d="M201.148,-422.323C309.246,-459.11 610.16,-561.515 705.577,-593.987"/>
<polygon fill="midnightblue" stroke="midnightblue" points="202.195,-418.982 191.6,-419.073 199.94,-425.609 202.195,-418.982"/>
</g>
<!-- Node8&#45;&gt;Node9 -->
<g id="edge8" class="edge"><title>Node8&#45;&gt;Node9</title>
<path fill="none" stroke="midnightblue" d="M196.384,-394.832C200.349,-392.969 204.296,-391.006 208,-389 235.512,-374.097 265.534,-353.225 282.437,-341.008"/>
<polygon fill="midnightblue" stroke="midnightblue" points="194.879,-391.671 187.202,-398.974 197.757,-398.052 194.879,-391.671"/>
</g>
<!-- Node10 -->
<g id="node10" class="node"><title>Node10</title>
<g id="a_node10"><a xlink:href="string__arithmetic_8hpp.html#ad0516fe3afc0dfb4884ab079d65a8572" target="_top" xlink:title="unsigned_exponent">
<polygon fill="white" stroke="black" points="394.35,-321 394.35,-341 497.65,-341 497.65,-321 394.35,-321"/>
<text text-anchor="middle" x="446" y="-327" font-family="Helvetica,sans-Serif" font-size="10.00">unsigned_exponent</text>
</a>
</g>
</g>
<!-- Node9&#45;&gt;Node10 -->
<g id="edge9" class="edge"><title>Node9&#45;&gt;Node10</title>
<path fill="none" stroke="midnightblue" d="M349.963,-331C364.357,-331 379.96,-331 394.282,-331"/>
<polygon fill="midnightblue" stroke="midnightblue" points="349.731,-327.5 339.731,-331 349.731,-334.5 349.731,-327.5"/>
</g>
<!-- Node9&#45;&gt;Node11 -->
<g id="edge10" class="edge"><title>Node9&#45;&gt;Node11</title>
<path fill="none" stroke="midnightblue" d="M345.689,-343.652C365.648,-348.947 388.515,-355.014 407.272,-359.991"/>
<polygon fill="midnightblue" stroke="midnightblue" points="346.419,-340.225 335.856,-341.043 344.624,-346.991 346.419,-340.225"/>
</g>
<!-- Node14 -->
<g id="node14" class="node"><title>Node14</title>
<g id="a_node14"><a xlink:href="string__arithmetic_8hpp.html#aeb299bff986565d0e9446f41089df75b" target="_top" xlink:title="signed_inequality">
<polygon fill="white" stroke="black" points="250.36,-516 250.36,-536 343.64,-536 343.64,-516 250.36,-516"/>
<text text-anchor="middle" x="297" y="-522" font-family="Helvetica,sans-Serif" font-size="10.00">signed_inequality</text>
</a>
</g>
</g>
<!-- Node13&#45;&gt;Node14 -->
<g id="edge15" class="edge"><title>Node13&#45;&gt;Node14</title>
<path fill="none" stroke="midnightblue" d="M206.221,-552.13C224.236,-546.887 244.745,-540.918 261.609,-536.009"/>
<polygon fill="midnightblue" stroke="midnightblue" points="205.132,-548.801 196.508,-554.957 207.088,-555.523 205.132,-548.801"/>
</g>
<!-- Node16&#45;&gt;Node4 -->
<g id="edge21" class="edge"><title>Node16&#45;&gt;Node4</title>
<path fill="none" stroke="midnightblue" d="M348.295,-753.499C369.465,-750.763 393.497,-747.657 412.307,-745.226"/>
<polygon fill="midnightblue" stroke="midnightblue" points="347.637,-750.055 338.168,-754.808 348.535,-756.997 347.637,-750.055"/>
</g>
<!-- Node16&#45;&gt;Node5 -->
<g id="edge22" class="edge"><title>Node16&#45;&gt;Node5</title>
<path fill="none" stroke="midnightblue" d="M348.262,-760C407.284,-760 503.854,-760 556.986,-760"/>
<polygon fill="midnightblue" stroke="midnightblue" points="348.055,-756.5 338.055,-760 348.055,-763.5 348.055,-756.5"/>
</g>
<!-- Node16&#45;&gt;Node6 -->
<g id="edge23" class="edge"><title>Node16&#45;&gt;Node6</title>
<path fill="none" stroke="midnightblue" d="M336.015,-746.088C340.766,-744.142 345.525,-742.09 350,-740 395.951,-718.537 529.569,-641.822 577.572,-614.092"/>
<polygon fill="midnightblue" stroke="midnightblue" points="334.374,-742.974 326.367,-749.912 336.953,-749.481 334.374,-742.974"/>
</g>
<!-- Node18&#45;&gt;Node2 -->
<g id="edge29" class="edge"><title>Node18&#45;&gt;Node2</title>
<path fill="none" stroke="midnightblue" d="M182.265,-659.495C198.321,-672.017 221.688,-689.059 244,-701 250.908,-704.697 258.65,-708.057 266.007,-710.922"/>
<polygon fill="midnightblue" stroke="midnightblue" points="184.162,-656.533 174.151,-653.065 179.814,-662.019 184.162,-656.533"/>
</g>
<!-- Node18&#45;&gt;Node3 -->
<g id="edge28" class="edge"><title>Node18&#45;&gt;Node3</title>
<path fill="none" stroke="midnightblue" d="M203.402,-655.05C221.919,-660.439 243.507,-666.722 261.178,-671.865"/>
<polygon fill="midnightblue" stroke="midnightblue" points="204.336,-651.676 193.756,-652.242 202.38,-658.398 204.336,-651.676"/>
</g>
<!-- Node19 -->
<g id="node19" class="node"><title>Node19</title>
<g id="a_node19"><a xlink:href="string__arithmetic_8hpp.html#aa2a61c5c6b7a719e3abc9ba565bf7d1f" target="_top" xlink:title="signed_to_long">
<polygon fill="white" stroke="black" points="255.082,-594 255.082,-614 338.918,-614 338.918,-594 255.082,-594"/>
<text text-anchor="middle" x="297" y="-600" font-family="Helvetica,sans-Serif" font-size="10.00">signed_to_long</text>
</a>
</g>
</g>
<!-- Node18&#45;&gt;Node19 -->
<g id="edge26" class="edge"><title>Node18&#45;&gt;Node19</title>
<path fill="none" stroke="midnightblue" d="M203.402,-630.95C221.919,-625.561 243.507,-619.278 261.178,-614.135"/>
<polygon fill="midnightblue" stroke="midnightblue" points="202.38,-627.602 193.756,-633.758 204.336,-634.324 202.38,-627.602"/>
</g>
<!-- Node20 -->
<g id="node20" class="node"><title>Node20</title>
<g id="a_node20"><a xlink:href="string__arithmetic_8hpp.html#acd0ad29ff6c029f1f82df01bad62a3c7" target="_top" xlink:title="signed_to_inf">
<polygon fill="white" stroke="black" points="259.254,-633 259.254,-653 334.746,-653 334.746,-633 259.254,-633"/>
<text text-anchor="middle" x="297" y="-639" font-family="Helvetica,sans-Serif" font-size="10.00">signed_to_inf</text>
</a>
</g>
</g>
<!-- Node18&#45;&gt;Node20 -->
<g id="edge27" class="edge"><title>Node18&#45;&gt;Node20</title>
<path fill="none" stroke="midnightblue" d="M203.842,-643C221.592,-643 242.098,-643 259.254,-643"/>
<polygon fill="midnightblue" stroke="midnightblue" points="203.756,-639.5 193.756,-643 203.756,-646.5 203.756,-639.5"/>
</g>
<!-- Node22&#45;&gt;Node9 -->
<g id="edge33" class="edge"><title>Node22&#45;&gt;Node9</title>
<path fill="none" stroke="midnightblue" d="M199.694,-267.388C202.561,-268.837 205.362,-270.378 208,-272 225.986,-283.06 226.602,-291.036 244,-303 253.716,-309.681 265.196,-316.01 274.895,-320.955"/>
<polygon fill="midnightblue" stroke="midnightblue" points="200.975,-264.124 190.432,-263.077 198.021,-270.47 200.975,-264.124"/>
</g>
<!-- Node24&#45;&gt;Node9 -->
<g id="edge51" class="edge"><title>Node24&#45;&gt;Node9</title>
<path fill="none" stroke="midnightblue" d="M204.703,-190.862C205.867,-191.848 206.97,-192.893 208,-194 242.74,-231.363 211.214,-263.911 244,-303 250.457,-310.699 259.591,-316.606 268.406,-320.966"/>
<polygon fill="midnightblue" stroke="midnightblue" points="206.567,-187.897 196.326,-185.182 202.639,-193.691 206.567,-187.897"/>
</g>
<!-- Node24&#45;&gt;Node10 -->
<g id="edge46" class="edge"><title>Node24&#45;&gt;Node10</title>
<path fill="none" stroke="midnightblue" d="M197.821,-189.064C201.3,-190.647 204.743,-192.304 208,-194 224.84,-202.77 227.662,-207.326 244,-217 290.21,-244.361 307.023,-242.799 350,-275 368.108,-288.568 366.782,-299.055 386,-311 392.43,-314.997 399.755,-318.303 407.005,-320.998"/>
<polygon fill="midnightblue" stroke="midnightblue" points="199.204,-185.848 188.638,-185.066 196.41,-192.267 199.204,-185.848"/>
</g>
<!-- Node24&#45;&gt;Node11 -->
<g id="edge52" class="edge"><title>Node24&#45;&gt;Node11</title>
<path fill="none" stroke="midnightblue" d="M203.224,-190.23C204.902,-191.403 206.505,-192.658 208,-194 232.864,-216.321 219.78,-236.982 244,-260 281.897,-296.015 307.97,-279.908 350,-311 368.964,-325.029 366.218,-337.15 386,-350 392.168,-354.006 399.221,-357.296 406.256,-359.966"/>
<polygon fill="midnightblue" stroke="midnightblue" points="204.743,-187.064 194.345,-185.031 201.205,-193.104 204.743,-187.064"/>
</g>
<!-- Node25 -->
<g id="node25" class="node"><title>Node25</title>
<g id="a_node25"><a xlink:href="string__arithmetic_8hpp.html#a26fc5f3b1ff43bdf390632ff091a3d87" target="_top" xlink:title="unsigned_less_than">
<polygon fill="white" stroke="black" points="244.52,-90 244.52,-110 349.48,-110 349.48,-90 244.52,-90"/>
<text text-anchor="middle" x="297" y="-96" font-family="Helvetica,sans-Serif" font-size="10.00">unsigned_less_than</text>
</a>
</g>
</g>
<!-- Node24&#45;&gt;Node25 -->
<g id="edge36" class="edge"><title>Node24&#45;&gt;Node25</title>
<path fill="none" stroke="midnightblue" d="M196.336,-160.743C200.31,-158.896 204.272,-156.962 208,-155 234.786,-140.906 264.314,-121.624 281.449,-110.033"/>
<polygon fill="midnightblue" stroke="midnightblue" points="194.836,-157.58 187.146,-164.868 197.702,-163.967 194.836,-157.58"/>
</g>
<!-- Node33 -->
<g id="node33" class="node"><title>Node33</title>
<g id="a_node33"><a xlink:href="string__arithmetic_8hpp.html#a6123c4f7339667a75b7e7492d8582778" target="_top" xlink:title="signed_less_than">
<polygon fill="white" stroke="black" points="250.082,-188 250.082,-208 343.918,-208 343.918,-188 250.082,-188"/>
<text text-anchor="middle" x="297" y="-194" font-family="Helvetica,sans-Serif" font-size="10.00">signed_less_than</text>
</a>
</g>
</g>
<!-- Node24&#45;&gt;Node33 -->
<g id="edge47" class="edge"><title>Node24&#45;&gt;Node33</title>
<path fill="none" stroke="midnightblue" d="M214.43,-183.999C226.069,-185.997 238.324,-188.1 249.697,-190.052"/>
<polygon fill="midnightblue" stroke="midnightblue" points="214.846,-180.52 204.398,-182.277 213.662,-187.419 214.846,-180.52"/>
</g>
<!-- Node26 -->
<g id="node26" class="node"><title>Node26</title>
<g id="a_node26"><a xlink:href="string__arithmetic_8hpp.html#a0e8d68da57b2e5a1da2a6bf3073cbc0b" target="_top" xlink:title="unsigned_less_than\l_or_equal">
<polygon fill="white" stroke="black" points="393.52,-39 393.52,-71 498.48,-71 498.48,-39 393.52,-39"/>
<text text-anchor="start" x="401.52" y="-57" font-family="Helvetica,sans-Serif" font-size="10.00">unsigned_less_than</text>
<text text-anchor="middle" x="446" y="-45" font-family="Helvetica,sans-Serif" font-size="10.00">_or_equal</text>
</a>
</g>
</g>
<!-- Node25&#45;&gt;Node26 -->
<g id="edge37" class="edge"><title>Node25&#45;&gt;Node26</title>
<path fill="none" stroke="midnightblue" d="M340.858,-86.8801C357.285,-81.8515 376.199,-76.0615 393.363,-70.8072"/>
<polygon fill="midnightblue" stroke="midnightblue" points="339.527,-83.6272 330.99,-89.9011 341.576,-90.3206 339.527,-83.6272"/>
</g>
<!-- Node27 -->
<g id="node27" class="node"><title>Node27</title>
<g id="a_node27"><a xlink:href="string__arithmetic_8hpp.html#a74f395b776c00da6bcafa29579ed2638" target="_top" xlink:title="unsigned_greater_than">
<polygon fill="white" stroke="black" points="386.569,-0 386.569,-20 505.431,-20 505.431,-0 386.569,-0"/>
<text text-anchor="middle" x="446" y="-6" font-family="Helvetica,sans-Serif" font-size="10.00">unsigned_greater_than</text>
</a>
</g>
</g>
<!-- Node25&#45;&gt;Node27 -->
<g id="edge38" class="edge"><title>Node25&#45;&gt;Node27</title>
<path fill="none" stroke="midnightblue" d="M315.327,-82.7484C332.132,-66.8552 358.985,-43.5908 386,-29 392.438,-25.5225 399.619,-22.5519 406.694,-20.0642"/>
<polygon fill="midnightblue" stroke="midnightblue" points="312.694,-80.4257 307.928,-89.8881 317.555,-85.463 312.694,-80.4257"/>
</g>
<!-- Node28 -->
<g id="node28" class="node"><title>Node28</title>
<g id="a_node28"><a xlink:href="string__arithmetic_8hpp.html#a2509ef306357f9b0958747ad45b1a34d" target="_top" xlink:title="unsigned_greater_than\l_or_equal">
<polygon fill="white" stroke="black" points="386.569,-129 386.569,-161 505.431,-161 505.431,-129 386.569,-129"/>
<text text-anchor="start" x="394.569" y="-147" font-family="Helvetica,sans-Serif" font-size="10.00">unsigned_greater_than</text>
<text text-anchor="middle" x="446" y="-135" font-family="Helvetica,sans-Serif" font-size="10.00">_or_equal</text>
</a>
</g>
</g>
<!-- Node25&#45;&gt;Node28 -->
<g id="edge39" class="edge"><title>Node25&#45;&gt;Node28</title>
<path fill="none" stroke="midnightblue" d="M340.717,-113.077C356.903,-118.031 375.519,-123.73 392.502,-128.929"/>
<polygon fill="midnightblue" stroke="midnightblue" points="341.576,-109.679 330.99,-110.099 339.527,-116.373 341.576,-109.679"/>
</g>
<!-- Node29 -->
<g id="node29" class="node"><title>Node29</title>
<g id="a_node29"><a xlink:href="string__arithmetic_8cpp.html#afc453c238c64f9a65f4feba453f3ac49" target="_top" xlink:title="divrem">
<polygon fill="white" stroke="black" points="422.998,-90 422.998,-110 469.002,-110 469.002,-90 422.998,-90"/>
<text text-anchor="middle" x="446" y="-96" font-family="Helvetica,sans-Serif" font-size="10.00">divrem</text>
</a>
</g>
</g>
<!-- Node25&#45;&gt;Node29 -->
<g id="edge40" class="edge"><title>Node25&#45;&gt;Node29</title>
<path fill="none" stroke="midnightblue" d="M359.936,-100C382.229,-100 405.978,-100 422.7,-100"/>
<polygon fill="midnightblue" stroke="midnightblue" points="359.827,-96.5001 349.827,-100 359.827,-103.5 359.827,-96.5001"/>
</g>
<!-- Node29&#45;&gt;Node5 -->
<g id="edge41" class="edge"><title>Node29&#45;&gt;Node5</title>
<path fill="none" stroke="midnightblue" d="M479.165,-103.277C489.266,-105.95 499.474,-110.682 506,-119 575.311,-207.34 517.472,-513.426 542,-623 553.03,-672.276 578.703,-727.282 589.77,-749.678"/>
<polygon fill="midnightblue" stroke="midnightblue" points="479.739,-99.8218 469.239,-101.233 478.328,-106.678 479.739,-99.8218"/>
</g>
<!-- Node29&#45;&gt;Node6 -->
<g id="edge42" class="edge"><title>Node29&#45;&gt;Node6</title>
<path fill="none" stroke="midnightblue" d="M478.885,-103.763C488.871,-106.48 499.079,-111.115 506,-119 571.507,-193.634 591.377,-531.319 594.527,-593.979"/>
<polygon fill="midnightblue" stroke="midnightblue" points="479.617,-100.34 469.102,-101.636 478.13,-107.181 479.617,-100.34"/>
</g>
<!-- Node30 -->
<g id="node30" class="node"><title>Node30</title>
<g id="a_node30"><a xlink:href="string__arithmetic_8hpp.html#a92fd10d164e4f857f9aba03b019161f8" target="_top" xlink:title="unsigned_divide">
<polygon fill="white" stroke="black" points="551.86,-110 551.86,-130 640.14,-130 640.14,-110 551.86,-110"/>
<text text-anchor="middle" x="596" y="-116" font-family="Helvetica,sans-Serif" font-size="10.00">unsigned_divide</text>
</a>
</g>
</g>
<!-- Node29&#45;&gt;Node30 -->
<g id="edge43" class="edge"><title>Node29&#45;&gt;Node30</title>
<path fill="none" stroke="midnightblue" d="M479.295,-104.364C500.561,-107.238 528.65,-111.034 551.827,-114.166"/>
<polygon fill="midnightblue" stroke="midnightblue" points="479.536,-100.865 469.157,-102.994 478.598,-107.802 479.536,-100.865"/>
</g>
<!-- Node31 -->
<g id="node31" class="node"><title>Node31</title>
<g id="a_node31"><a xlink:href="string__arithmetic_8hpp.html#a57dd0f52a3fa28aaa04a0de120f9011b" target="_top" xlink:title="unsigned_remainder">
<polygon fill="white" stroke="black" points="542.414,-71 542.414,-91 649.586,-91 649.586,-71 542.414,-71"/>
<text text-anchor="middle" x="596" y="-77" font-family="Helvetica,sans-Serif" font-size="10.00">unsigned_remainder</text>
</a>
</g>
</g>
<!-- Node29&#45;&gt;Node31 -->
<g id="edge44" class="edge"><title>Node29&#45;&gt;Node31</title>
<path fill="none" stroke="midnightblue" d="M479.089,-95.8805C497.531,-93.5129 521.155,-90.4801 542.258,-87.7709"/>
<polygon fill="midnightblue" stroke="midnightblue" points="478.63,-92.4106 469.157,-97.1555 479.521,-99.3536 478.63,-92.4106"/>
</g>
<!-- Node32 -->
<g id="node32" class="node"><title>Node32</title>
<g id="a_node32"><a xlink:href="string__arithmetic_8hpp.html#ad4d3d4da04a2430d6ddb04b46fb583c3" target="_top" xlink:title="unsigned_modulus">
<polygon fill="white" stroke="black" points="686.025,-71 686.025,-91 785.975,-91 785.975,-71 686.025,-71"/>
<text text-anchor="middle" x="736" y="-77" font-family="Helvetica,sans-Serif" font-size="10.00">unsigned_modulus</text>
</a>
</g>
</g>
<!-- Node31&#45;&gt;Node32 -->
<g id="edge45" class="edge"><title>Node31&#45;&gt;Node32</title>
<path fill="none" stroke="midnightblue" d="M660.239,-81C668.743,-81 677.364,-81 685.581,-81"/>
<polygon fill="midnightblue" stroke="midnightblue" points="659.96,-77.5001 649.96,-81 659.96,-84.5001 659.96,-77.5001"/>
</g>
<!-- Node34 -->
<g id="node34" class="node"><title>Node34</title>
<g id="a_node34"><a xlink:href="string__arithmetic_8hpp.html#a1985142fd0973e8d8d9f11560701cc0e" target="_top" xlink:title="signed_less_than_or\l_equal">
<polygon fill="white" stroke="black" points="391.855,-180 391.855,-212 500.145,-212 500.145,-180 391.855,-180"/>
<text text-anchor="start" x="399.855" y="-198" font-family="Helvetica,sans-Serif" font-size="10.00">signed_less_than_or</text>
<text text-anchor="middle" x="446" y="-186" font-family="Helvetica,sans-Serif" font-size="10.00">_equal</text>
</a>
</g>
</g>
<!-- Node33&#45;&gt;Node34 -->
<g id="edge48" class="edge"><title>Node33&#45;&gt;Node34</title>
<path fill="none" stroke="midnightblue" d="M354.224,-197.235C366.496,-197.068 379.449,-196.892 391.607,-196.726"/>
<polygon fill="midnightblue" stroke="midnightblue" points="354.06,-193.737 344.108,-197.373 354.155,-200.736 354.06,-193.737"/>
</g>
<!-- Node35 -->
<g id="node35" class="node"><title>Node35</title>
<g id="a_node35"><a xlink:href="string__arithmetic_8hpp.html#a9e4cd602ba051bf2f4a83e8f83169787" target="_top" xlink:title="signed_greater_than">
<polygon fill="white" stroke="black" points="392.131,-282 392.131,-302 499.869,-302 499.869,-282 392.131,-282"/>
<text text-anchor="middle" x="446" y="-288" font-family="Helvetica,sans-Serif" font-size="10.00">signed_greater_than</text>
</a>
</g>
</g>
<!-- Node33&#45;&gt;Node35 -->
<g id="edge49" class="edge"><title>Node33&#45;&gt;Node35</title>
<path fill="none" stroke="midnightblue" d="M328.504,-213.139C335.892,-217.455 343.521,-222.497 350,-228 369.257,-244.358 365.231,-257.609 386,-272 391.778,-276.004 398.426,-279.264 405.129,-281.9"/>
<polygon fill="midnightblue" stroke="midnightblue" points="329.821,-209.868 319.378,-208.081 326.428,-215.99 329.821,-209.868"/>
</g>
<!-- Node36 -->
<g id="node36" class="node"><title>Node36</title>
<g id="a_node36"><a xlink:href="string__arithmetic_8hpp.html#a16c654ac23c1583f0cb49cb5df08fca1" target="_top" xlink:title="signed_greater_than\l_or_equal">
<polygon fill="white" stroke="black" points="392.131,-231 392.131,-263 499.869,-263 499.869,-231 392.131,-231"/>
<text text-anchor="start" x="400.131" y="-249" font-family="Helvetica,sans-Serif" font-size="10.00">signed_greater_than</text>
<text text-anchor="middle" x="446" y="-237" font-family="Helvetica,sans-Serif" font-size="10.00">_or_equal</text>
</a>
</g>
</g>
<!-- Node33&#45;&gt;Node36 -->
<g id="edge50" class="edge"><title>Node33&#45;&gt;Node36</title>
<path fill="none" stroke="midnightblue" d="M337.836,-211.279C356.081,-217.36 377.856,-224.619 396.997,-230.999"/>
<polygon fill="midnightblue" stroke="midnightblue" points="338.696,-207.876 328.102,-208.034 336.482,-214.517 338.696,-207.876"/>
</g>
</g>
</svg>
