<?xml version="1.0" encoding="UTF-8" standalone="no"?>
<!DOCTYPE svg PUBLIC "-//W3C//DTD SVG 1.1//EN"
 "http://www.w3.org/Graphics/SVG/1.1/DTD/svg11.dtd">
<!-- Generated by graphviz version 2.32.0 (20130916.1925)
 -->
<!-- Title: signed_less_than Pages: 1 -->
<svg width="426pt" height="145pt"
 viewBox="0.00 0.00 426.00 145.00" xmlns="http://www.w3.org/2000/svg" xmlns:xlink="http://www.w3.org/1999/xlink">
<g id="graph0" class="graph" transform="scale(1 1) rotate(0) translate(4 141)">
<title>signed_less_than</title>
<polygon fill="white" stroke="white" points="-4,5 -4,-141 423,-141 423,5 -4,5"/>
<!-- Node1 -->
<g id="node1" class="node"><title>Node1</title>
<polygon fill="#bfbfbf" stroke="black" points="0.081543,-77 0.081543,-97 93.9185,-97 93.9185,-77 0.081543,-77"/>
<text text-anchor="middle" x="47" y="-83" font-family="Helvetica,sans-Serif" font-size="10.00">signed_less_than</text>
</g>
<!-- Node2 -->
<g id="node2" class="node"><title>Node2</title>
<g id="a_node2"><a xlink:href="string__arithmetic_8cpp.html#aa19eed0b96f17cfe786e83058b5ecffb" target="_top" xlink:title="is_negative">
<polygon fill="white" stroke="black" points="140.705,-97 140.705,-117 207.295,-117 207.295,-97 140.705,-97"/>
<text text-anchor="middle" x="174" y="-103" font-family="Helvetica,sans-Serif" font-size="10.00">is_negative</text>
</a>
</g>
</g>
<!-- Node1&#45;&gt;Node2 -->
<g id="edge1" class="edge"><title>Node1&#45;&gt;Node2</title>
<path fill="none" stroke="midnightblue" d="M94.1902,-94.3904C106.132,-96.3011 118.927,-98.3483 130.661,-100.226"/>
<polygon fill="midnightblue" stroke="midnightblue" points="130.223,-103.7 140.651,-101.824 131.329,-96.7881 130.223,-103.7"/>
</g>
<!-- Node3 -->
<g id="node3" class="node"><title>Node3</title>
<g id="a_node3"><a xlink:href="string__arithmetic_8cpp.html#a21df22820cbc1ab7c128f203d18c7104" target="_top" xlink:title="signed_subtract">
<polygon fill="white" stroke="black" points="130.7,-58 130.7,-78 217.3,-78 217.3,-58 130.7,-58"/>
<text text-anchor="middle" x="174" y="-64" font-family="Helvetica,sans-Serif" font-size="10.00">signed_subtract</text>
</a>
</g>
</g>
<!-- Node1&#45;&gt;Node3 -->
<g id="edge2" class="edge"><title>Node1&#45;&gt;Node3</title>
<path fill="none" stroke="midnightblue" d="M94.1902,-79.9791C102.688,-78.6874 111.618,-77.33 120.291,-76.0118"/>
<polygon fill="midnightblue" stroke="midnightblue" points="120.951,-79.4518 130.311,-74.4887 119.899,-72.5313 120.951,-79.4518"/>
</g>
<!-- Node4 -->
<g id="node4" class="node"><title>Node4</title>
<g id="a_node4"><a xlink:href="string__arithmetic_8cpp.html#a81d7a054172ae982785819c0c51a87c5" target="_top" xlink:title="signed_resize">
<polygon fill="white" stroke="black" points="254.148,-117 254.148,-137 331.852,-137 331.852,-117 254.148,-117"/>
<text text-anchor="middle" x="293" y="-123" font-family="Helvetica,sans-Serif" font-size="10.00">signed_resize</text>
</a>
</g>
</g>
<!-- Node3&#45;&gt;Node4 -->
<g id="edge3" class="edge"><title>Node3&#45;&gt;Node4</title>
<path fill="none" stroke="midnightblue" d="M197.42,-78.1686C204.077,-81.2576 211.362,-84.7071 218,-88 234.207,-96.0397 237.995,-98.5647 254,-107 257.129,-108.649 260.403,-110.373 263.661,-112.089"/>
<polygon fill="midnightblue" stroke="midnightblue" points="262.187,-115.269 272.666,-116.83 265.448,-109.074 262.187,-115.269"/>
</g>
<!-- Node5 -->
<g id="node5" class="node"><title>Node5</title>
<g id="a_node5"><a xlink:href="string__arithmetic_8cpp.html#a5908e619ca6762dbb4a713ef69a04ed7" target="_top" xlink:title="bit_sum">
<polygon fill="white" stroke="black" points="267.493,-78 267.493,-98 318.507,-98 318.507,-78 267.493,-78"/>
<text text-anchor="middle" x="293" y="-84" font-family="Helvetica,sans-Serif" font-size="10.00">bit_sum</text>
</a>
</g>
</g>
<!-- Node3&#45;&gt;Node5 -->
<g id="edge4" class="edge"><title>Node3&#45;&gt;Node5</title>
<path fill="none" stroke="midnightblue" d="M217.571,-75.277C230.638,-77.5108 244.854,-79.9408 257.327,-82.0729"/>
<polygon fill="midnightblue" stroke="midnightblue" points="256.883,-85.5479 267.33,-83.783 258.063,-78.648 256.883,-85.5479"/>
</g>
<!-- Node7 -->
<g id="node7" class="node"><title>Node7</title>
<g id="a_node7"><a xlink:href="string__arithmetic_8cpp.html#a94695ea56cea67bf729e29e05a1a919e" target="_top" xlink:title="bit_carry">
<polygon fill="white" stroke="black" points="265.828,-39 265.828,-59 320.172,-59 320.172,-39 265.828,-39"/>
<text text-anchor="middle" x="293" y="-45" font-family="Helvetica,sans-Serif" font-size="10.00">bit_carry</text>
</a>
</g>
</g>
<!-- Node3&#45;&gt;Node7 -->
<g id="edge6" class="edge"><title>Node3&#45;&gt;Node7</title>
<path fill="none" stroke="midnightblue" d="M217.571,-61.0868C230.002,-59.068 243.473,-56.8805 255.493,-54.9284"/>
<polygon fill="midnightblue" stroke="midnightblue" points="256.311,-58.3415 265.621,-53.2838 255.189,-51.432 256.311,-58.3415"/>
</g>
<!-- Node10 -->
<g id="node10" class="node"><title>Node10</title>
<g id="a_node10"><a xlink:href="string__arithmetic_8cpp.html#a1a22bf947511ecf8da04a7cead2979ad" target="_top" xlink:title="bit_not">
<polygon fill="white" stroke="black" points="269.988,-0 269.988,-20 316.012,-20 316.012,-0 269.988,-0"/>
<text text-anchor="middle" x="293" y="-6" font-family="Helvetica,sans-Serif" font-size="10.00">bit_not</text>
</a>
</g>
</g>
<!-- Node3&#45;&gt;Node10 -->
<g id="edge9" class="edge"><title>Node3&#45;&gt;Node10</title>
<path fill="none" stroke="midnightblue" d="M195.38,-57.8972C213.889,-48.7218 241.415,-35.0762 262.358,-24.6943"/>
<polygon fill="midnightblue" stroke="midnightblue" points="264.056,-27.759 271.461,-20.1817 260.947,-21.4874 264.056,-27.759"/>
</g>
<!-- Node6 -->
<g id="node6" class="node"><title>Node6</title>
<g id="a_node6"><a xlink:href="string__arithmetic_8cpp.html#aa479141a8083df6b46cd98c13609d224" target="_top" xlink:title="bit_xor">
<polygon fill="white" stroke="black" points="369.993,-78 369.993,-98 416.007,-98 416.007,-78 369.993,-78"/>
<text text-anchor="middle" x="393" y="-84" font-family="Helvetica,sans-Serif" font-size="10.00">bit_xor</text>
</a>
</g>
</g>
<!-- Node5&#45;&gt;Node6 -->
<g id="edge5" class="edge"><title>Node5&#45;&gt;Node6</title>
<path fill="none" stroke="midnightblue" d="M318.73,-88C331.168,-88 346.397,-88 359.743,-88"/>
<polygon fill="midnightblue" stroke="midnightblue" points="359.953,-91.5001 369.953,-88 359.953,-84.5001 359.953,-91.5001"/>
</g>
<!-- Node8 -->
<g id="node8" class="node"><title>Node8</title>
<g id="a_node8"><a xlink:href="string__arithmetic_8cpp.html#afe7cda5eba463b65d65687c2fd389fff" target="_top" xlink:title="bit_and">
<polygon fill="white" stroke="black" points="368.596,-39 368.596,-59 417.404,-59 417.404,-39 368.596,-39"/>
<text text-anchor="middle" x="393" y="-45" font-family="Helvetica,sans-Serif" font-size="10.00">bit_and</text>
</a>
</g>
</g>
<!-- Node7&#45;&gt;Node8 -->
<g id="edge7" class="edge"><title>Node7&#45;&gt;Node8</title>
<path fill="none" stroke="midnightblue" d="M320.262,-49C331.956,-49 345.87,-49 358.317,-49"/>
<polygon fill="midnightblue" stroke="midnightblue" points="358.347,-52.5001 368.347,-49 358.347,-45.5001 358.347,-52.5001"/>
</g>
<!-- Node9 -->
<g id="node9" class="node"><title>Node9</title>
<g id="a_node9"><a xlink:href="string__arithmetic_8cpp.html#a3f0dedb0825234f431e364e025ff9452" target="_top" xlink:title="bit_or">
<polygon fill="white" stroke="black" points="372.493,-0 372.493,-20 413.507,-20 413.507,-0 372.493,-0"/>
<text text-anchor="middle" x="393" y="-6" font-family="Helvetica,sans-Serif" font-size="10.00">bit_or</text>
</a>
</g>
</g>
<!-- Node7&#45;&gt;Node9 -->
<g id="edge8" class="edge"><title>Node7&#45;&gt;Node9</title>
<path fill="none" stroke="midnightblue" d="M319.237,-38.9565C332.563,-33.6535 348.982,-27.1193 362.849,-21.6008"/>
<polygon fill="midnightblue" stroke="midnightblue" points="364.418,-24.7437 372.415,-17.7941 361.829,-18.2398 364.418,-24.7437"/>
</g>
</g>
</svg>
