<?xml version="1.0" encoding="UTF-8" standalone="no"?>
<!DOCTYPE svg PUBLIC "-//W3C//DTD SVG 1.1//EN"
 "http://www.w3.org/Graphics/SVG/1.1/DTD/svg11.dtd">
<!-- Generated by graphviz version 2.32.0 (20130916.1925)
 -->
<!-- Title: trim Pages: 1 -->
<svg width="1028pt" height="798pt"
 viewBox="0.00 0.00 1028.00 797.61" xmlns="http://www.w3.org/2000/svg" xmlns:xlink="http://www.w3.org/1999/xlink">
<g id="graph0" class="graph" transform="scale(1 1) rotate(0) translate(4 793.611)">
<title>trim</title>
<polygon fill="white" stroke="white" points="-4,5 -4,-793.611 1025,-793.611 1025,5 -4,5"/>
<!-- Node1 -->
<g id="node1" class="node"><title>Node1</title>
<polygon fill="#bfbfbf" stroke="black" points="0.669922,-426 0.669922,-446 33.3301,-446 33.3301,-426 0.669922,-426"/>
<text text-anchor="middle" x="17" y="-432" font-family="Helvetica,sans-Serif" font-size="10.00">trim</text>
</g>
<!-- Node2 -->
<g id="node2" class="node"><title>Node2</title>
<g id="a_node2"><a xlink:href="tcp_8cpp.html#ab932f3e7890ed088ca90870c290fb2da" target="_top" xlink:title="error_string">
<polygon fill="white" stroke="black" points="82.436,-465 82.436,-485 149.564,-485 149.564,-465 82.436,-465"/>
<text text-anchor="middle" x="116" y="-471" font-family="Helvetica,sans-Serif" font-size="10.00">error_string</text>
</a>
</g>
</g>
<!-- Node1&#45;&gt;Node2 -->
<g id="edge1" class="edge"><title>Node1&#45;&gt;Node2</title>
<path fill="none" stroke="midnightblue" d="M42.9117,-446.016C57.3679,-451.828 75.52,-459.127 89.9925,-464.945"/>
<polygon fill="midnightblue" stroke="midnightblue" points="44.1686,-442.749 33.5847,-442.266 41.5572,-449.244 44.1686,-442.749"/>
</g>
<!-- Node48 -->
<g id="node48" class="node"><title>Node48</title>
<g id="a_node48"><a xlink:href="classini__file.html#a2f1a805d0c24494001d979e3ac613b24" target="_top" xlink:title="ini_file::read_file">
<polygon fill="white" stroke="black" points="71.8672,-426 71.8672,-446 160.133,-446 160.133,-426 71.8672,-426"/>
<text text-anchor="middle" x="116" y="-432" font-family="Helvetica,sans-Serif" font-size="10.00">ini_file::read_file</text>
</a>
</g>
</g>
<!-- Node1&#45;&gt;Node48 -->
<g id="edge59" class="edge"><title>Node1&#45;&gt;Node48</title>
<path fill="none" stroke="midnightblue" d="M43.732,-436C52.3584,-436 62.2278,-436 71.8166,-436"/>
<polygon fill="midnightblue" stroke="midnightblue" points="43.5848,-432.5 33.5847,-436 43.5847,-439.5 43.5848,-432.5"/>
</g>
<!-- Node50 -->
<g id="node50" class="node"><title>Node50</title>
<g id="a_node50"><a xlink:href="classrc_rectangle.html#ae67082b95b9fe21026ad57fea4e009c8" target="_top" xlink:title="rcRectangle::trim">
<polygon fill="white" stroke="black" points="70.2119,-387 70.2119,-407 161.788,-407 161.788,-387 70.2119,-387"/>
<text text-anchor="middle" x="116" y="-393" font-family="Helvetica,sans-Serif" font-size="10.00">rcRectangle::trim</text>
</a>
</g>
</g>
<!-- Node1&#45;&gt;Node50 -->
<g id="edge61" class="edge"><title>Node1&#45;&gt;Node50</title>
<path fill="none" stroke="midnightblue" d="M42.9117,-425.984C57.3679,-420.172 75.52,-412.873 89.9925,-407.055"/>
<polygon fill="midnightblue" stroke="midnightblue" points="41.5572,-422.756 33.5847,-429.734 44.1686,-429.251 41.5572,-422.756"/>
</g>
<!-- Node3 -->
<g id="node3" class="node"><title>Node3</title>
<g id="a_node3"><a xlink:href="class_t_c_p__socket.html#a6aa627297e2a1b6c82d89f875b8cbf2b" target="_top" xlink:title="TCP_socket::set_error">
<polygon fill="white" stroke="black" points="197.983,-465 197.983,-485 314.017,-485 314.017,-465 197.983,-465"/>
<text text-anchor="middle" x="256" y="-471" font-family="Helvetica,sans-Serif" font-size="10.00">TCP_socket::set_error</text>
</a>
</g>
</g>
<!-- Node2&#45;&gt;Node3 -->
<g id="edge2" class="edge"><title>Node2&#45;&gt;Node3</title>
<path fill="none" stroke="midnightblue" d="M159.92,-475C171.96,-475 185.243,-475 197.966,-475"/>
<polygon fill="midnightblue" stroke="midnightblue" points="159.704,-471.5 149.704,-475 159.704,-478.5 159.704,-471.5"/>
</g>
<!-- Node4 -->
<g id="node4" class="node"><title>Node4</title>
<g id="a_node4"><a xlink:href="class_t_c_p__socket.html#a5809cfb26cfe02840cacc4ecd537004d" target="_top" xlink:title="TCP_socket::TCP_socket">
<polygon fill="white" stroke="black" points="349.759,-704 349.759,-724 480.241,-724 480.241,-704 349.759,-704"/>
<text text-anchor="middle" x="415" y="-710" font-family="Helvetica,sans-Serif" font-size="10.00">TCP_socket::TCP_socket</text>
</a>
</g>
</g>
<!-- Node3&#45;&gt;Node4 -->
<g id="edge3" class="edge"><title>Node3&#45;&gt;Node4</title>
<path fill="none" stroke="midnightblue" d="M260.39,-495.075C268.447,-536.812 292.537,-633.656 350,-689 356.702,-695.455 365.261,-700.297 373.924,-703.91"/>
<polygon fill="midnightblue" stroke="midnightblue" points="263.801,-494.27 258.565,-485.06 256.915,-495.525 263.801,-494.27"/>
</g>
<!-- Node5 -->
<g id="node5" class="node"><title>Node5</title>
<g id="a_node5"><a xlink:href="class_t_c_p__socket.html#ab43b33c79ae69cc02fb760049f13cb40" target="_top" xlink:title="TCP_socket::~TCP_socket">
<polygon fill="white" stroke="black" points="521.839,-712 521.839,-732 658.161,-732 658.161,-712 521.839,-712"/>
<text text-anchor="middle" x="590" y="-718" font-family="Helvetica,sans-Serif" font-size="10.00">TCP_socket::~TCP_socket</text>
</a>
</g>
</g>
<!-- Node3&#45;&gt;Node5 -->
<g id="edge4" class="edge"><title>Node3&#45;&gt;Node5</title>
<path fill="none" stroke="midnightblue" d="M265.28,-494.726C278.779,-524.616 308.274,-581.346 350,-614 398.383,-651.864 429.244,-626.382 480,-661 500.034,-674.664 495.439,-689.143 516,-702 522.574,-706.111 529.995,-709.389 537.523,-712"/>
<polygon fill="midnightblue" stroke="midnightblue" points="268.395,-493.114 261.179,-485.357 261.983,-495.921 268.395,-493.114"/>
</g>
<!-- Node6 -->
<g id="node6" class="node"><title>Node6</title>
<g id="a_node6"><a xlink:href="class_t_c_p__socket.html#a20f24fc4da3b1d802338b7074dd62fdd" target="_top" xlink:title="TCP_socket::initialise">
<polygon fill="white" stroke="black" points="534.205,-634 534.205,-654 645.795,-654 645.795,-634 534.205,-634"/>
<text text-anchor="middle" x="590" y="-640" font-family="Helvetica,sans-Serif" font-size="10.00">TCP_socket::initialise</text>
</a>
</g>
</g>
<!-- Node3&#45;&gt;Node6 -->
<g id="edge5" class="edge"><title>Node3&#45;&gt;Node6</title>
<path fill="none" stroke="midnightblue" d="M268.707,-493.704C284.362,-517.159 314.32,-556.959 350,-579 381.553,-598.491 479.1,-621.228 539.377,-633.986"/>
<polygon fill="midnightblue" stroke="midnightblue" points="271.456,-491.51 263.074,-485.03 265.585,-495.323 271.456,-491.51"/>
</g>
<!-- Node11 -->
<g id="node11" class="node"><title>Node11</title>
<g id="a_node11"><a xlink:href="class_t_c_p__socket.html#a4a6f8268fbffc3d04360c87e4e0caee6" target="_top" xlink:title="TCP_socket::send_ready">
<polygon fill="white" stroke="black" points="350.86,-381 350.86,-401 479.14,-401 479.14,-381 350.86,-381"/>
<text text-anchor="middle" x="415" y="-387" font-family="Helvetica,sans-Serif" font-size="10.00">TCP_socket::send_ready</text>
</a>
</g>
</g>
<!-- Node3&#45;&gt;Node11 -->
<g id="edge10" class="edge"><title>Node3&#45;&gt;Node11</title>
<path fill="none" stroke="midnightblue" d="M303.438,-460.915C307.122,-459.141 310.693,-457.173 314,-455 333.713,-442.045 330.516,-429.298 350,-416 359.064,-409.813 369.879,-404.845 380.016,-401.017"/>
<polygon fill="midnightblue" stroke="midnightblue" points="301.921,-457.758 294.129,-464.937 304.697,-464.184 301.921,-457.758"/>
</g>
<!-- Node12 -->
<g id="node12" class="node"><title>Node12</title>
<g id="a_node12"><a xlink:href="class_t_c_p__socket.html#a9ecb9e72cd8c466969cb32a553739ccd" target="_top" xlink:title="TCP_socket::send">
<polygon fill="white" stroke="black" points="541.148,-382 541.148,-402 638.852,-402 638.852,-382 541.148,-382"/>
<text text-anchor="middle" x="590" y="-388" font-family="Helvetica,sans-Serif" font-size="10.00">TCP_socket::send</text>
</a>
</g>
</g>
<!-- Node3&#45;&gt;Node12 -->
<g id="edge22" class="edge"><title>Node3&#45;&gt;Node12</title>
<path fill="none" stroke="midnightblue" d="M301.553,-462.169C316.874,-457.856 334.157,-453.102 350,-449 417.517,-431.518 496.28,-413.116 544.384,-402.1"/>
<polygon fill="midnightblue" stroke="midnightblue" points="300.472,-458.837 291.803,-464.928 302.378,-465.573 300.472,-458.837"/>
</g>
<!-- Node22 -->
<g id="node22" class="node"><title>Node22</title>
<g id="a_node22"><a xlink:href="class_t_c_p__socket.html#a26e302c0fd1bdf535338b5208e6d6a27" target="_top" xlink:title="TCP_socket::receive\l_ready">
<polygon fill="white" stroke="black" points="360.872,-170 360.872,-202 469.128,-202 469.128,-170 360.872,-170"/>
<text text-anchor="start" x="368.872" y="-188" font-family="Helvetica,sans-Serif" font-size="10.00">TCP_socket::receive</text>
<text text-anchor="middle" x="415" y="-176" font-family="Helvetica,sans-Serif" font-size="10.00">_ready</text>
</a>
</g>
</g>
<!-- Node3&#45;&gt;Node22 -->
<g id="edge23" class="edge"><title>Node3&#45;&gt;Node22</title>
<path fill="none" stroke="midnightblue" d="M309.59,-459.253C311.166,-457.947 312.645,-456.532 314,-455 363.722,-398.773 321.934,-359.614 350,-290 363.476,-256.574 387.277,-221.68 401.747,-202.008"/>
<polygon fill="midnightblue" stroke="midnightblue" points="307.427,-456.487 301.018,-464.923 311.289,-462.325 307.427,-456.487"/>
</g>
<!-- Node23 -->
<g id="node23" class="node"><title>Node23</title>
<g id="a_node23"><a xlink:href="class_t_c_p__socket.html#a93d798ea548168ae973e626042f51673" target="_top" xlink:title="TCP_socket::receive">
<polygon fill="white" stroke="black" points="535.872,-198 535.872,-218 644.128,-218 644.128,-198 535.872,-198"/>
<text text-anchor="middle" x="590" y="-204" font-family="Helvetica,sans-Serif" font-size="10.00">TCP_socket::receive</text>
</a>
</g>
</g>
<!-- Node3&#45;&gt;Node23 -->
<g id="edge35" class="edge"><title>Node3&#45;&gt;Node23</title>
<path fill="none" stroke="midnightblue" d="M307.813,-459.897C310.01,-458.414 312.089,-456.786 314,-455 343.673,-427.264 324.19,-402.363 350,-371 412.552,-294.989 519.419,-239.822 566.076,-218.138"/>
<polygon fill="midnightblue" stroke="midnightblue" points="305.863,-456.978 298.864,-464.933 309.296,-463.079 305.863,-456.978"/>
</g>
<!-- Node34 -->
<g id="node34" class="node"><title>Node34</title>
<g id="a_node34"><a xlink:href="class_t_c_p__socket.html#a784ca7a3cb43891c3f8068030d5457e8" target="_top" xlink:title="TCP_socket::close">
<polygon fill="white" stroke="black" points="365.318,-550 365.318,-570 464.682,-570 464.682,-550 365.318,-550"/>
<text text-anchor="middle" x="415" y="-556" font-family="Helvetica,sans-Serif" font-size="10.00">TCP_socket::close</text>
</a>
</g>
</g>
<!-- Node3&#45;&gt;Node34 -->
<g id="edge36" class="edge"><title>Node3&#45;&gt;Node34</title>
<path fill="none" stroke="midnightblue" d="M284.434,-489.853C316.273,-507.09 367.911,-535.047 395.398,-549.929"/>
<polygon fill="midnightblue" stroke="midnightblue" points="286.087,-486.768 275.626,-485.084 282.754,-492.923 286.087,-486.768"/>
</g>
<!-- Node45 -->
<g id="node45" class="node"><title>Node45</title>
<g id="a_node45"><a xlink:href="class_t_c_p__connection__data.html#a4b32b78dea5bdbc1f0a6f7975e379a99" target="_top" xlink:title="TCP_connection_data\l::set_error">
<polygon fill="white" stroke="black" points="357.522,-119 357.522,-151 472.478,-151 472.478,-119 357.522,-119"/>
<text text-anchor="start" x="365.522" y="-137" font-family="Helvetica,sans-Serif" font-size="10.00">TCP_connection_data</text>
<text text-anchor="middle" x="415" y="-125" font-family="Helvetica,sans-Serif" font-size="10.00">::set_error</text>
</a>
</g>
</g>
<!-- Node3&#45;&gt;Node45 -->
<g id="edge53" class="edge"><title>Node3&#45;&gt;Node45</title>
<path fill="none" stroke="midnightblue" d="M310.314,-458.925C311.635,-457.711 312.87,-456.405 314,-455 396.785,-352.079 269.026,-264.352 350,-160 352.633,-156.607 355.79,-153.674 359.274,-151.139"/>
<polygon fill="midnightblue" stroke="midnightblue" points="308.03,-456.257 301.942,-464.928 312.108,-461.945 308.03,-456.257"/>
</g>
<!-- Node46 -->
<g id="node46" class="node"><title>Node46</title>
<g id="a_node46"><a xlink:href="class_t_c_p__server__data.html#a50b754077634bdb430927f18cb891e07" target="_top" xlink:title="TCP_server_data::set\l_error">
<polygon fill="white" stroke="black" points="533.367,-751 533.367,-783 646.633,-783 646.633,-751 533.367,-751"/>
<text text-anchor="start" x="541.367" y="-769" font-family="Helvetica,sans-Serif" font-size="10.00">TCP_server_data::set</text>
<text text-anchor="middle" x="590" y="-757" font-family="Helvetica,sans-Serif" font-size="10.00">_error</text>
</a>
</g>
</g>
<!-- Node3&#45;&gt;Node46 -->
<g id="edge54" class="edge"><title>Node3&#45;&gt;Node46</title>
<path fill="none" stroke="midnightblue" d="M262.097,-495.054C272.413,-531.611 299.221,-609.251 350,-652 396.45,-691.104 430.401,-658.977 480,-694 501.494,-709.177 494.734,-725.505 516,-741 521.219,-744.803 527.048,-748.093 533.073,-750.931"/>
<polygon fill="midnightblue" stroke="midnightblue" points="265.399,-493.856 259.417,-485.112 258.64,-495.678 265.399,-493.856"/>
</g>
<!-- Node47 -->
<g id="node47" class="node"><title>Node47</title>
<g id="a_node47"><a xlink:href="class_t_c_p__client__data.html#a1e689bb9f992a7424abec2c02354e06f" target="_top" xlink:title="TCP_client_data::set\l_error">
<polygon fill="white" stroke="black" points="360.586,-459 360.586,-491 469.414,-491 469.414,-459 360.586,-459"/>
<text text-anchor="start" x="368.586" y="-477" font-family="Helvetica,sans-Serif" font-size="10.00">TCP_client_data::set</text>
<text text-anchor="middle" x="415" y="-465" font-family="Helvetica,sans-Serif" font-size="10.00">_error</text>
</a>
</g>
</g>
<!-- Node3&#45;&gt;Node47 -->
<g id="edge57" class="edge"><title>Node3&#45;&gt;Node47</title>
<path fill="none" stroke="midnightblue" d="M324.218,-475C336.368,-475 348.886,-475 360.576,-475"/>
<polygon fill="midnightblue" stroke="midnightblue" points="324.125,-471.5 314.125,-475 324.125,-478.5 324.125,-471.5"/>
</g>
<!-- Node7 -->
<g id="node7" class="node"><title>Node7</title>
<g id="a_node7"><a xlink:href="class_t_c_p__server__data.html#af6b23301f5372ad134e11dceb7d609d9" target="_top" xlink:title="TCP_server_data::initialise">
<polygon fill="white" stroke="black" points="700.251,-693 700.251,-713 835.749,-713 835.749,-693 700.251,-693"/>
<text text-anchor="middle" x="768" y="-699" font-family="Helvetica,sans-Serif" font-size="10.00">TCP_server_data::initialise</text>
</a>
</g>
</g>
<!-- Node6&#45;&gt;Node7 -->
<g id="edge6" class="edge"><title>Node6&#45;&gt;Node7</title>
<path fill="none" stroke="midnightblue" d="M646.688,-656.922C652.601,-658.759 658.47,-660.786 664,-663 680.992,-669.804 683.131,-675.896 700,-683 708.95,-686.769 718.849,-690.136 728.23,-692.983"/>
<polygon fill="midnightblue" stroke="midnightblue" points="647.326,-653.462 636.746,-654.011 645.36,-660.18 647.326,-653.462"/>
</g>
<!-- Node9 -->
<g id="node9" class="node"><title>Node9</title>
<g id="a_node9"><a xlink:href="class_t_c_p__client__data.html#ab387413f41d44ede03e6d823b53ad68a" target="_top" xlink:title="TCP_client_data::initialise">
<polygon fill="white" stroke="black" points="702.471,-462 702.471,-482 833.529,-482 833.529,-462 702.471,-462"/>
<text text-anchor="middle" x="768" y="-468" font-family="Helvetica,sans-Serif" font-size="10.00">TCP_client_data::initialise</text>
</a>
</g>
</g>
<!-- Node6&#45;&gt;Node9 -->
<g id="edge8" class="edge"><title>Node6&#45;&gt;Node9</title>
<path fill="none" stroke="midnightblue" d="M654.982,-631.124C658.246,-629.078 661.289,-626.719 664,-624 707.235,-580.632 656.958,-534.561 700,-491 703.569,-487.388 707.771,-484.449 712.301,-482.061"/>
<polygon fill="midnightblue" stroke="midnightblue" points="653.164,-628.124 645.902,-635.839 656.39,-634.336 653.164,-628.124"/>
</g>
<!-- Node8 -->
<g id="node8" class="node"><title>Node8</title>
<g id="a_node8"><a xlink:href="class_t_c_p__server.html#a0d91804b7d07c1718c6d07a561a73ac9" target="_top" xlink:title="TCP_server::initialise">
<polygon fill="white" stroke="red" points="890.764,-693 890.764,-713 1001.24,-713 1001.24,-693 890.764,-693"/>
<text text-anchor="middle" x="946" y="-699" font-family="Helvetica,sans-Serif" font-size="10.00">TCP_server::initialise</text>
</a>
</g>
</g>
<!-- Node7&#45;&gt;Node8 -->
<g id="edge7" class="edge"><title>Node7&#45;&gt;Node8</title>
<path fill="none" stroke="midnightblue" d="M846.075,-703C861.064,-703 876.483,-703 890.554,-703"/>
<polygon fill="midnightblue" stroke="midnightblue" points="845.789,-699.5 835.789,-703 845.789,-706.5 845.789,-699.5"/>
</g>
<!-- Node10 -->
<g id="node10" class="node"><title>Node10</title>
<g id="a_node10"><a xlink:href="class_t_c_p__client.html#ac05952b87a054b90890f02268f08c118" target="_top" xlink:title="TCP_client::initialise">
<polygon fill="white" stroke="red" points="892.983,-462 892.983,-482 999.017,-482 999.017,-462 892.983,-462"/>
<text text-anchor="middle" x="946" y="-468" font-family="Helvetica,sans-Serif" font-size="10.00">TCP_client::initialise</text>
</a>
</g>
</g>
<!-- Node9&#45;&gt;Node10 -->
<g id="edge9" class="edge"><title>Node9&#45;&gt;Node10</title>
<path fill="none" stroke="midnightblue" d="M843.729,-472C860.266,-472 877.443,-472 892.851,-472"/>
<polygon fill="midnightblue" stroke="midnightblue" points="843.537,-468.5 833.537,-472 843.536,-475.5 843.537,-468.5"/>
</g>
<!-- Node11&#45;&gt;Node9 -->
<g id="edge18" class="edge"><title>Node11&#45;&gt;Node9</title>
<path fill="none" stroke="midnightblue" d="M469.265,-403.292C538.768,-419.331 659.083,-447.096 723.432,-461.946"/>
<polygon fill="midnightblue" stroke="midnightblue" points="469.922,-399.852 459.392,-401.013 468.348,-406.672 469.922,-399.852"/>
</g>
<!-- Node11&#45;&gt;Node12 -->
<g id="edge11" class="edge"><title>Node11&#45;&gt;Node12</title>
<path fill="none" stroke="midnightblue" d="M489.578,-391.425C506.979,-391.526 525.094,-391.631 541.02,-391.723"/>
<polygon fill="midnightblue" stroke="midnightblue" points="489.457,-387.925 479.436,-391.367 489.416,-394.925 489.457,-387.925"/>
</g>
<!-- Node17 -->
<g id="node17" class="node"><title>Node17</title>
<g id="a_node17"><a xlink:href="class_t_c_p__connection__data.html#abdb02dc5d5dbe8e6648ebd3c04ba1300" target="_top" xlink:title="TCP_connection_data\l::send_ready">
<polygon fill="white" stroke="black" points="532.522,-330 532.522,-362 647.478,-362 647.478,-330 532.522,-330"/>
<text text-anchor="start" x="540.522" y="-348" font-family="Helvetica,sans-Serif" font-size="10.00">TCP_connection_data</text>
<text text-anchor="middle" x="590" y="-336" font-family="Helvetica,sans-Serif" font-size="10.00">::send_ready</text>
</a>
</g>
</g>
<!-- Node11&#45;&gt;Node17 -->
<g id="edge16" class="edge"><title>Node11&#45;&gt;Node17</title>
<path fill="none" stroke="midnightblue" d="M464.516,-378.38C485.563,-372.906 510.353,-366.457 532.248,-360.762"/>
<polygon fill="midnightblue" stroke="midnightblue" points="463.621,-374.996 454.825,-380.901 465.384,-381.771 463.621,-374.996"/>
</g>
<!-- Node19 -->
<g id="node19" class="node"><title>Node19</title>
<g id="a_node19"><a xlink:href="class_t_c_p__client__data.html#a4cc1fed37699026ba222149356f1ffe7" target="_top" xlink:title="TCP_client_data::send\l_ready">
<polygon fill="white" stroke="black" points="531.414,-276 531.414,-308 648.586,-308 648.586,-276 531.414,-276"/>
<text text-anchor="start" x="539.414" y="-294" font-family="Helvetica,sans-Serif" font-size="10.00">TCP_client_data::send</text>
<text text-anchor="middle" x="590" y="-282" font-family="Helvetica,sans-Serif" font-size="10.00">_ready</text>
</a>
</g>
</g>
<!-- Node11&#45;&gt;Node19 -->
<g id="edge19" class="edge"><title>Node11&#45;&gt;Node19</title>
<path fill="none" stroke="midnightblue" d="M435.83,-374.638C455.335,-359.111 486.409,-335.853 516,-320 524.136,-315.641 533.101,-311.622 541.879,-308.07"/>
<polygon fill="midnightblue" stroke="midnightblue" points="433.56,-371.973 427.973,-380.975 437.954,-377.422 433.56,-371.973"/>
</g>
<!-- Node13 -->
<g id="node13" class="node"><title>Node13</title>
<g id="a_node13"><a xlink:href="class_t_c_p__connection__data.html#a3af1620d1ec5c6a66f407f82c004d030" target="_top" xlink:title="TCP_connection_data\l::send">
<polygon fill="white" stroke="black" points="710.522,-411 710.522,-443 825.478,-443 825.478,-411 710.522,-411"/>
<text text-anchor="start" x="718.522" y="-429" font-family="Helvetica,sans-Serif" font-size="10.00">TCP_connection_data</text>
<text text-anchor="middle" x="768" y="-417" font-family="Helvetica,sans-Serif" font-size="10.00">::send</text>
</a>
</g>
</g>
<!-- Node12&#45;&gt;Node13 -->
<g id="edge12" class="edge"><title>Node12&#45;&gt;Node13</title>
<path fill="none" stroke="midnightblue" d="M649.137,-403.561C668.783,-407.468 690.683,-411.823 710.222,-415.709"/>
<polygon fill="midnightblue" stroke="midnightblue" points="649.583,-400.082 639.093,-401.564 648.218,-406.947 649.583,-400.082"/>
</g>
<!-- Node15 -->
<g id="node15" class="node"><title>Node15</title>
<g id="a_node15"><a xlink:href="class_t_c_p__client__data.html#a3f05f06c99a02da27bb79aedab339c13" target="_top" xlink:title="TCP_client_data::send">
<polygon fill="white" stroke="black" points="709.414,-372 709.414,-392 826.586,-392 826.586,-372 709.414,-372"/>
<text text-anchor="middle" x="768" y="-378" font-family="Helvetica,sans-Serif" font-size="10.00">TCP_client_data::send</text>
</a>
</g>
</g>
<!-- Node12&#45;&gt;Node15 -->
<g id="edge14" class="edge"><title>Node12&#45;&gt;Node15</title>
<path fill="none" stroke="midnightblue" d="M649.261,-388.69C668.555,-387.593 690.01,-386.374 709.264,-385.28"/>
<polygon fill="midnightblue" stroke="midnightblue" points="648.878,-385.206 639.093,-389.267 649.275,-392.194 648.878,-385.206"/>
</g>
<!-- Node14 -->
<g id="node14" class="node"><title>Node14</title>
<g id="a_node14"><a xlink:href="class_t_c_p__connection.html#a1dd3d31e97343a77fe80b103b278e8e0" target="_top" xlink:title="TCP_connection::send">
<polygon fill="white" stroke="black" points="887.414,-417 887.414,-437 1004.59,-437 1004.59,-417 887.414,-417"/>
<text text-anchor="middle" x="946" y="-423" font-family="Helvetica,sans-Serif" font-size="10.00">TCP_connection::send</text>
</a>
</g>
</g>
<!-- Node13&#45;&gt;Node14 -->
<g id="edge13" class="edge"><title>Node13&#45;&gt;Node14</title>
<path fill="none" stroke="midnightblue" d="M836.001,-427C852.882,-427 870.858,-427 887.242,-427"/>
<polygon fill="midnightblue" stroke="midnightblue" points="835.656,-423.5 825.656,-427 835.656,-430.5 835.656,-423.5"/>
</g>
<!-- Node16 -->
<g id="node16" class="node"><title>Node16</title>
<g id="a_node16"><a xlink:href="class_t_c_p__client.html#a908824784778da9ec7f4a9da2b1219a9" target="_top" xlink:title="TCP_client::send">
<polygon fill="white" stroke="black" points="899.926,-372 899.926,-392 992.074,-392 992.074,-372 899.926,-372"/>
<text text-anchor="middle" x="946" y="-378" font-family="Helvetica,sans-Serif" font-size="10.00">TCP_client::send</text>
</a>
</g>
</g>
<!-- Node15&#45;&gt;Node16 -->
<g id="edge15" class="edge"><title>Node15&#45;&gt;Node16</title>
<path fill="none" stroke="midnightblue" d="M836.83,-382C857.922,-382 880.649,-382 899.801,-382"/>
<polygon fill="midnightblue" stroke="midnightblue" points="836.629,-378.5 826.629,-382 836.629,-385.5 836.629,-378.5"/>
</g>
<!-- Node18 -->
<g id="node18" class="node"><title>Node18</title>
<g id="a_node18"><a xlink:href="class_t_c_p__connection.html#af271ab65b76b9ad2d9d073388ae02245" target="_top" xlink:title="TCP_connection::send\l_ready">
<polygon fill="white" stroke="black" points="709.414,-321 709.414,-353 826.586,-353 826.586,-321 709.414,-321"/>
<text text-anchor="start" x="717.414" y="-339" font-family="Helvetica,sans-Serif" font-size="10.00">TCP_connection::send</text>
<text text-anchor="middle" x="768" y="-327" font-family="Helvetica,sans-Serif" font-size="10.00">_ready</text>
</a>
</g>
</g>
<!-- Node17&#45;&gt;Node18 -->
<g id="edge17" class="edge"><title>Node17&#45;&gt;Node18</title>
<path fill="none" stroke="midnightblue" d="M658.001,-342.574C674.882,-341.711 692.858,-340.791 709.242,-339.954"/>
<polygon fill="midnightblue" stroke="midnightblue" points="657.464,-339.097 647.656,-343.103 657.822,-346.087 657.464,-339.097"/>
</g>
<!-- Node20 -->
<g id="node20" class="node"><title>Node20</title>
<g id="a_node20"><a xlink:href="class_t_c_p__client.html#a5304fb400aff37d6bc0ed1e418aa8ad1" target="_top" xlink:title="TCP_client::connected">
<polygon fill="white" stroke="black" points="709.695,-282 709.695,-302 826.305,-302 826.305,-282 709.695,-282"/>
<text text-anchor="middle" x="768" y="-288" font-family="Helvetica,sans-Serif" font-size="10.00">TCP_client::connected</text>
</a>
</g>
</g>
<!-- Node19&#45;&gt;Node20 -->
<g id="edge20" class="edge"><title>Node19&#45;&gt;Node20</title>
<path fill="none" stroke="midnightblue" d="M658.888,-292C675.614,-292 693.364,-292 709.542,-292"/>
<polygon fill="midnightblue" stroke="midnightblue" points="658.629,-288.5 648.629,-292 658.629,-295.5 658.629,-288.5"/>
</g>
<!-- Node21 -->
<g id="node21" class="node"><title>Node21</title>
<g id="a_node21"><a xlink:href="class_t_c_p__client.html#adb8d358d5bd01749fcaf045cee6da8f4" target="_top" xlink:title="TCP_client::send_ready">
<polygon fill="white" stroke="black" points="706.638,-243 706.638,-263 829.362,-263 829.362,-243 706.638,-243"/>
<text text-anchor="middle" x="768" y="-249" font-family="Helvetica,sans-Serif" font-size="10.00">TCP_client::send_ready</text>
</a>
</g>
</g>
<!-- Node19&#45;&gt;Node21 -->
<g id="edge21" class="edge"><title>Node19&#45;&gt;Node21</title>
<path fill="none" stroke="midnightblue" d="M658.542,-277.033C679.716,-272.341 702.562,-267.279 721.801,-263.016"/>
<polygon fill="midnightblue" stroke="midnightblue" points="657.635,-273.649 648.629,-279.23 659.149,-280.484 657.635,-273.649"/>
</g>
<!-- Node22&#45;&gt;Node23 -->
<g id="edge24" class="edge"><title>Node22&#45;&gt;Node23</title>
<path fill="none" stroke="midnightblue" d="M479.434,-194.067C497.97,-196.424 518.031,-198.975 535.859,-201.242"/>
<polygon fill="midnightblue" stroke="midnightblue" points="479.679,-190.57 469.317,-192.78 478.796,-197.514 479.679,-190.57"/>
</g>
<!-- Node28 -->
<g id="node28" class="node"><title>Node28</title>
<g id="a_node28"><a xlink:href="class_t_c_p__connection__data.html#a7074fce7cd94249f6a2cc68b5eeccf86" target="_top" xlink:title="TCP_connection_data\l::receive_ready">
<polygon fill="white" stroke="black" points="532.522,-79 532.522,-111 647.478,-111 647.478,-79 532.522,-79"/>
<text text-anchor="start" x="540.522" y="-97" font-family="Helvetica,sans-Serif" font-size="10.00">TCP_connection_data</text>
<text text-anchor="middle" x="590" y="-85" font-family="Helvetica,sans-Serif" font-size="10.00">::receive_ready</text>
</a>
</g>
</g>
<!-- Node22&#45;&gt;Node28 -->
<g id="edge29" class="edge"><title>Node22&#45;&gt;Node28</title>
<path fill="none" stroke="midnightblue" d="M469.872,-165.479C473.355,-163.736 476.76,-161.907 480,-160 497.706,-149.578 498.682,-142.055 516,-131 527.435,-123.701 540.559,-116.814 552.498,-111.056"/>
<polygon fill="midnightblue" stroke="midnightblue" points="468.087,-162.451 460.535,-169.883 471.073,-168.783 468.087,-162.451"/>
</g>
<!-- Node30 -->
<g id="node30" class="node"><title>Node30</title>
<g id="a_node30"><a xlink:href="class_t_c_p__server__data.html#ada0534f87ea96784ce06e3f19b4ad020" target="_top" xlink:title="TCP_server_data::connection\l_ready">
<polygon fill="white" stroke="black" points="515.853,-6 515.853,-38 664.147,-38 664.147,-6 515.853,-6"/>
<text text-anchor="start" x="523.853" y="-24" font-family="Helvetica,sans-Serif" font-size="10.00">TCP_server_data::connection</text>
<text text-anchor="middle" x="590" y="-12" font-family="Helvetica,sans-Serif" font-size="10.00">_ready</text>
</a>
</g>
</g>
<!-- Node22&#45;&gt;Node30 -->
<g id="edge31" class="edge"><title>Node22&#45;&gt;Node30</title>
<path fill="none" stroke="midnightblue" d="M475.474,-164.087C477.061,-162.799 478.576,-161.438 480,-160 510.614,-129.104 488.39,-102.607 516,-69 526.429,-56.305 541.212,-45.8999 554.749,-38.1363"/>
<polygon fill="midnightblue" stroke="midnightblue" points="473.25,-161.37 467.021,-169.941 477.235,-167.125 473.25,-161.37"/>
</g>
<!-- Node32 -->
<g id="node32" class="node"><title>Node32</title>
<g id="a_node32"><a xlink:href="class_t_c_p__client__data.html#a28f8758291bb86e98daff169ff97e5ad" target="_top" xlink:title="TCP_client_data::receive\l_ready">
<polygon fill="white" stroke="black" points="526.138,-141 526.138,-173 653.862,-173 653.862,-141 526.138,-141"/>
<text text-anchor="start" x="534.138" y="-159" font-family="Helvetica,sans-Serif" font-size="10.00">TCP_client_data::receive</text>
<text text-anchor="middle" x="590" y="-147" font-family="Helvetica,sans-Serif" font-size="10.00">_ready</text>
</a>
</g>
</g>
<!-- Node22&#45;&gt;Node32 -->
<g id="edge33" class="edge"><title>Node22&#45;&gt;Node32</title>
<path fill="none" stroke="midnightblue" d="M479.579,-175.342C494.67,-172.813 510.764,-170.115 525.835,-167.588"/>
<polygon fill="midnightblue" stroke="midnightblue" points="478.601,-171.957 469.317,-177.062 479.758,-178.861 478.601,-171.957"/>
</g>
<!-- Node24 -->
<g id="node24" class="node"><title>Node24</title>
<g id="a_node24"><a xlink:href="class_t_c_p__connection__data.html#a5d8b363a86c7c73872f3523616737890" target="_top" xlink:title="TCP_connection_data\l::receive">
<polygon fill="white" stroke="black" points="710.522,-192 710.522,-224 825.478,-224 825.478,-192 710.522,-192"/>
<text text-anchor="start" x="718.522" y="-210" font-family="Helvetica,sans-Serif" font-size="10.00">TCP_connection_data</text>
<text text-anchor="middle" x="768" y="-198" font-family="Helvetica,sans-Serif" font-size="10.00">::receive</text>
</a>
</g>
</g>
<!-- Node23&#45;&gt;Node24 -->
<g id="edge25" class="edge"><title>Node23&#45;&gt;Node24</title>
<path fill="none" stroke="midnightblue" d="M654.511,-208C672.721,-208 692.451,-208 710.228,-208"/>
<polygon fill="midnightblue" stroke="midnightblue" points="654.283,-204.5 644.283,-208 654.283,-211.5 654.283,-204.5"/>
</g>
<!-- Node26 -->
<g id="node26" class="node"><title>Node26</title>
<g id="a_node26"><a xlink:href="class_t_c_p__client__data.html#a1b1bb29cb272e2cbf4a7b0cb7011d296" target="_top" xlink:title="TCP_client_data::receive">
<polygon fill="white" stroke="black" points="704.138,-153 704.138,-173 831.862,-173 831.862,-153 704.138,-153"/>
<text text-anchor="middle" x="768" y="-159" font-family="Helvetica,sans-Serif" font-size="10.00">TCP_client_data::receive</text>
</a>
</g>
</g>
<!-- Node23&#45;&gt;Node26 -->
<g id="edge27" class="edge"><title>Node23&#45;&gt;Node26</title>
<path fill="none" stroke="midnightblue" d="M640.348,-195.382C667.935,-188.329 701.846,-179.659 727.634,-173.065"/>
<polygon fill="midnightblue" stroke="midnightblue" points="639.319,-192.033 630.498,-197.901 641.053,-198.815 639.319,-192.033"/>
</g>
<!-- Node25 -->
<g id="node25" class="node"><title>Node25</title>
<g id="a_node25"><a xlink:href="class_t_c_p__connection.html#ad5dfbda91187ab5a1a402cf45340b7e0" target="_top" xlink:title="TCP_connection::receive">
<polygon fill="white" stroke="black" points="882.138,-198 882.138,-218 1009.86,-218 1009.86,-198 882.138,-198"/>
<text text-anchor="middle" x="946" y="-204" font-family="Helvetica,sans-Serif" font-size="10.00">TCP_connection::receive</text>
</a>
</g>
</g>
<!-- Node24&#45;&gt;Node25 -->
<g id="edge26" class="edge"><title>Node24&#45;&gt;Node25</title>
<path fill="none" stroke="midnightblue" d="M835.962,-208C851.087,-208 867.092,-208 882.044,-208"/>
<polygon fill="midnightblue" stroke="midnightblue" points="835.656,-204.5 825.656,-208 835.656,-211.5 835.656,-204.5"/>
</g>
<!-- Node27 -->
<g id="node27" class="node"><title>Node27</title>
<g id="a_node27"><a xlink:href="class_t_c_p__client.html#a9953b6a9c8b175b9ccc5ca7ecbd7947e" target="_top" xlink:title="TCP_client::receive">
<polygon fill="white" stroke="black" points="894.65,-153 894.65,-173 997.35,-173 997.35,-153 894.65,-153"/>
<text text-anchor="middle" x="946" y="-159" font-family="Helvetica,sans-Serif" font-size="10.00">TCP_client::receive</text>
</a>
</g>
</g>
<!-- Node26&#45;&gt;Node27 -->
<g id="edge28" class="edge"><title>Node26&#45;&gt;Node27</title>
<path fill="none" stroke="midnightblue" d="M842.278,-163C859.857,-163 878.243,-163 894.521,-163"/>
<polygon fill="midnightblue" stroke="midnightblue" points="842.043,-159.5 832.043,-163 842.043,-166.5 842.043,-159.5"/>
</g>
<!-- Node29 -->
<g id="node29" class="node"><title>Node29</title>
<g id="a_node29"><a xlink:href="class_t_c_p__connection.html#ad608d33400f9cb9a066d6abe7a13d123" target="_top" xlink:title="TCP_connection::receive\l_ready">
<polygon fill="white" stroke="black" points="704.138,-51 704.138,-83 831.862,-83 831.862,-51 704.138,-51"/>
<text text-anchor="start" x="712.138" y="-69" font-family="Helvetica,sans-Serif" font-size="10.00">TCP_connection::receive</text>
<text text-anchor="middle" x="768" y="-57" font-family="Helvetica,sans-Serif" font-size="10.00">_ready</text>
</a>
</g>
</g>
<!-- Node28&#45;&gt;Node29 -->
<g id="edge30" class="edge"><title>Node28&#45;&gt;Node29</title>
<path fill="none" stroke="midnightblue" d="M657.962,-84.3469C673.087,-81.9407 689.092,-79.3945 704.044,-77.0157"/>
<polygon fill="midnightblue" stroke="midnightblue" points="656.982,-80.9587 647.656,-85.9865 658.082,-87.8718 656.982,-80.9587"/>
</g>
<!-- Node31 -->
<g id="node31" class="node"><title>Node31</title>
<g id="a_node31"><a xlink:href="class_t_c_p__server.html#ac35461802062e75aa9d3f65e7e64d19d" target="_top" xlink:title="TCP_server::connection\l_ready">
<polygon fill="white" stroke="black" points="706.365,-0 706.365,-32 829.635,-32 829.635,-0 706.365,-0"/>
<text text-anchor="start" x="714.365" y="-18" font-family="Helvetica,sans-Serif" font-size="10.00">TCP_server::connection</text>
<text text-anchor="middle" x="768" y="-6" font-family="Helvetica,sans-Serif" font-size="10.00">_ready</text>
</a>
</g>
</g>
<!-- Node30&#45;&gt;Node31 -->
<g id="edge32" class="edge"><title>Node30&#45;&gt;Node31</title>
<path fill="none" stroke="midnightblue" d="M674.576,-19.1508C685.276,-18.7861 696.062,-18.4183 706.302,-18.0693"/>
<polygon fill="midnightblue" stroke="midnightblue" points="674.24,-15.6601 664.365,-19.4989 674.479,-22.6561 674.24,-15.6601"/>
</g>
<!-- Node33 -->
<g id="node33" class="node"><title>Node33</title>
<g id="a_node33"><a xlink:href="class_t_c_p__client.html#ae8c5007290e7be06bc19e6d7afd25b63" target="_top" xlink:title="TCP_client::receive\l_ready">
<polygon fill="white" stroke="black" points="716.65,-102 716.65,-134 819.35,-134 819.35,-102 716.65,-102"/>
<text text-anchor="start" x="724.65" y="-120" font-family="Helvetica,sans-Serif" font-size="10.00">TCP_client::receive</text>
<text text-anchor="middle" x="768" y="-108" font-family="Helvetica,sans-Serif" font-size="10.00">_ready</text>
</a>
</g>
</g>
<!-- Node32&#45;&gt;Node33 -->
<g id="edge34" class="edge"><title>Node32&#45;&gt;Node33</title>
<path fill="none" stroke="midnightblue" d="M664.278,-140.762C681.857,-136.867 700.243,-132.793 716.521,-129.186"/>
<polygon fill="midnightblue" stroke="midnightblue" points="663.049,-137.45 654.043,-143.03 664.563,-144.284 663.049,-137.45"/>
</g>
<!-- Node34&#45;&gt;Node5 -->
<g id="edge37" class="edge"><title>Node34&#45;&gt;Node5</title>
<path fill="none" stroke="midnightblue" d="M436.554,-576.716C450.168,-588.57 467.714,-605.438 480,-623 502.117,-654.617 486.621,-676.987 516,-702 520.803,-706.089 526.371,-709.348 532.248,-711.944"/>
<polygon fill="midnightblue" stroke="midnightblue" points="438.556,-573.825 428.668,-570.021 434.026,-579.161 438.556,-573.825"/>
</g>
<!-- Node34&#45;&gt;Node6 -->
<g id="edge41" class="edge"><title>Node34&#45;&gt;Node6</title>
<path fill="none" stroke="midnightblue" d="M459.612,-573.942C466.709,-577.069 473.768,-580.747 480,-585 499.484,-598.298 495.845,-611.743 516,-624 522.736,-628.097 530.325,-631.372 537.997,-633.985"/>
<polygon fill="midnightblue" stroke="midnightblue" points="460.565,-570.551 449.984,-570.017 457.923,-577.034 460.565,-570.551"/>
</g>
<!-- Node34&#45;&gt;Node23 -->
<g id="edge42" class="edge"><title>Node34&#45;&gt;Node23</title>
<path fill="none" stroke="midnightblue" d="M440.006,-543.843C453.985,-533.104 470.648,-517.74 480,-500 529.07,-406.919 463.167,-356.998 516,-266 528.516,-244.442 552.391,-227.832 569.429,-218.019"/>
<polygon fill="midnightblue" stroke="midnightblue" points="437.729,-541.173 431.738,-549.912 441.871,-546.816 437.729,-541.173"/>
</g>
<!-- Node35 -->
<g id="node35" class="node"><title>Node35</title>
<g id="a_node35"><a xlink:href="class_t_c_p__socket.html#a8c7a3e5004f50fc8edc485385a94082d" target="_top" xlink:title="TCP_socket::set">
<polygon fill="white" stroke="black" points="545.32,-595 545.32,-615 634.68,-615 634.68,-595 545.32,-595"/>
<text text-anchor="middle" x="590" y="-601" font-family="Helvetica,sans-Serif" font-size="10.00">TCP_socket::set</text>
</a>
</g>
</g>
<!-- Node34&#45;&gt;Node35 -->
<g id="edge38" class="edge"><title>Node34&#45;&gt;Node35</title>
<path fill="none" stroke="midnightblue" d="M464.507,-572.618C491.624,-579.671 524.957,-588.341 550.305,-594.935"/>
<polygon fill="midnightblue" stroke="midnightblue" points="465.384,-569.229 454.825,-570.099 463.621,-576.004 465.384,-569.229"/>
</g>
<!-- Node38 -->
<g id="node38" class="node"><title>Node38</title>
<g id="a_node38"><a xlink:href="class_t_c_p__connection__data.html#aa55187d3ad30e032d2a2c2ce2a6ba2aa" target="_top" xlink:title="TCP_connection_data\l::close">
<polygon fill="white" stroke="black" points="532.522,-544 532.522,-576 647.478,-576 647.478,-544 532.522,-544"/>
<text text-anchor="start" x="540.522" y="-562" font-family="Helvetica,sans-Serif" font-size="10.00">TCP_connection_data</text>
<text text-anchor="middle" x="590" y="-550" font-family="Helvetica,sans-Serif" font-size="10.00">::close</text>
</a>
</g>
</g>
<!-- Node34&#45;&gt;Node38 -->
<g id="edge43" class="edge"><title>Node34&#45;&gt;Node38</title>
<path fill="none" stroke="midnightblue" d="M475.187,-560C493.711,-560 514.097,-560 532.436,-560"/>
<polygon fill="midnightblue" stroke="midnightblue" points="475.112,-556.5 465.112,-560 475.112,-563.5 475.112,-556.5"/>
</g>
<!-- Node41 -->
<g id="node41" class="node"><title>Node41</title>
<g id="a_node41"><a xlink:href="class_t_c_p__server__data.html#a1eaff7c56f5613d8f421a528f8067ab7" target="_top" xlink:title="TCP_server_data::close">
<polygon fill="white" stroke="black" points="528.365,-673 528.365,-693 651.635,-693 651.635,-673 528.365,-673"/>
<text text-anchor="middle" x="590" y="-679" font-family="Helvetica,sans-Serif" font-size="10.00">TCP_server_data::close</text>
</a>
</g>
</g>
<!-- Node34&#45;&gt;Node41 -->
<g id="edge47" class="edge"><title>Node34&#45;&gt;Node41</title>
<path fill="none" stroke="midnightblue" d="M434.004,-577.157C446.99,-589.668 464.83,-607.136 480,-623 496.53,-640.286 495.643,-650.444 516,-663 522.599,-667.07 530.033,-670.327 537.568,-672.928"/>
<polygon fill="midnightblue" stroke="midnightblue" points="436.253,-574.464 426.613,-570.067 431.407,-579.515 436.253,-574.464"/>
</g>
<!-- Node43 -->
<g id="node43" class="node"><title>Node43</title>
<g id="a_node43"><a xlink:href="class_t_c_p__client__data.html#a250df8ee0a1cb3a243156e8fe19cbf1e" target="_top" xlink:title="TCP_client_data::close">
<polygon fill="white" stroke="red" points="530.584,-505 530.584,-525 649.416,-525 649.416,-505 530.584,-505"/>
<text text-anchor="middle" x="590" y="-511" font-family="Helvetica,sans-Serif" font-size="10.00">TCP_client_data::close</text>
</a>
</g>
</g>
<!-- Node34&#45;&gt;Node43 -->
<g id="edge50" class="edge"><title>Node34&#45;&gt;Node43</title>
<path fill="none" stroke="midnightblue" d="M464.507,-547.382C491.624,-540.329 524.957,-531.659 550.305,-525.065"/>
<polygon fill="midnightblue" stroke="midnightblue" points="463.621,-543.996 454.825,-549.901 465.384,-550.771 463.621,-543.996"/>
</g>
<!-- Node36 -->
<g id="node36" class="node"><title>Node36</title>
<g id="a_node36"><a xlink:href="class_t_c_p__connection__data.html#a622196c7d9a49cf4da1ca2113c8284f2" target="_top" xlink:title="TCP_connection_data\l::initialise">
<polygon fill="white" stroke="black" points="710.522,-642 710.522,-674 825.478,-674 825.478,-642 710.522,-642"/>
<text text-anchor="start" x="718.522" y="-660" font-family="Helvetica,sans-Serif" font-size="10.00">TCP_connection_data</text>
<text text-anchor="middle" x="768" y="-648" font-family="Helvetica,sans-Serif" font-size="10.00">::initialise</text>
</a>
</g>
</g>
<!-- Node35&#45;&gt;Node36 -->
<g id="edge39" class="edge"><title>Node35&#45;&gt;Node36</title>
<path fill="none" stroke="midnightblue" d="M641.496,-617.691C649.06,-619.723 656.751,-621.863 664,-624 682.604,-629.486 702.911,-636.061 720.54,-641.961"/>
<polygon fill="midnightblue" stroke="midnightblue" points="642.234,-614.266 631.671,-615.092 640.443,-621.034 642.234,-614.266"/>
</g>
<!-- Node37 -->
<g id="node37" class="node"><title>Node37</title>
<g id="a_node37"><a xlink:href="class_t_c_p__server__data.html#a004eca7522f8ebfe804d8e7988225304" target="_top" xlink:title="TCP_server_data::connection">
<polygon fill="white" stroke="red" points="871.853,-651 871.853,-671 1020.15,-671 1020.15,-651 871.853,-651"/>
<text text-anchor="middle" x="946" y="-657" font-family="Helvetica,sans-Serif" font-size="10.00">TCP_server_data::connection</text>
</a>
</g>
</g>
<!-- Node36&#45;&gt;Node37 -->
<g id="edge40" class="edge"><title>Node36&#45;&gt;Node37</title>
<path fill="none" stroke="midnightblue" d="M835.811,-659.139C847.55,-659.339 859.823,-659.548 871.726,-659.751"/>
<polygon fill="midnightblue" stroke="midnightblue" points="835.715,-655.637 825.656,-658.966 835.595,-662.636 835.715,-655.637"/>
</g>
<!-- Node38&#45;&gt;Node36 -->
<g id="edge45" class="edge"><title>Node38&#45;&gt;Node36</title>
<path fill="none" stroke="midnightblue" d="M656.634,-580.254C659.187,-581.733 661.655,-583.313 664,-585 685.361,-600.364 678.953,-616.209 700,-632 704.99,-635.744 710.587,-639.017 716.363,-641.861"/>
<polygon fill="midnightblue" stroke="midnightblue" points="658.165,-577.106 647.677,-575.605 654.94,-583.318 658.165,-577.106"/>
</g>
<!-- Node39 -->
<g id="node39" class="node"><title>Node39</title>
<g id="a_node39"><a xlink:href="class_t_c_p__connection__data.html#a3b91152216b653639f07d4892b0ce4f1" target="_top" xlink:title="TCP_connection_data\l::~TCP_connection_data">
<polygon fill="white" stroke="black" points="704.824,-591 704.824,-623 831.176,-623 831.176,-591 704.824,-591"/>
<text text-anchor="start" x="712.824" y="-609" font-family="Helvetica,sans-Serif" font-size="10.00">TCP_connection_data</text>
<text text-anchor="middle" x="768" y="-597" font-family="Helvetica,sans-Serif" font-size="10.00">::~TCP_connection_data</text>
</a>
</g>
</g>
<!-- Node38&#45;&gt;Node39 -->
<g id="edge44" class="edge"><title>Node38&#45;&gt;Node39</title>
<path fill="none" stroke="midnightblue" d="M657.573,-577.778C673.747,-582.097 690.949,-586.691 706.808,-590.926"/>
<polygon fill="midnightblue" stroke="midnightblue" points="658.221,-574.328 647.656,-575.13 656.415,-581.091 658.221,-574.328"/>
</g>
<!-- Node40 -->
<g id="node40" class="node"><title>Node40</title>
<g id="a_node40"><a xlink:href="class_t_c_p__connection.html#a64d4727a2d036fbb2edf7fea52c89609" target="_top" xlink:title="TCP_connection::close">
<polygon fill="white" stroke="black" points="708.584,-552 708.584,-572 827.416,-572 827.416,-552 708.584,-552"/>
<text text-anchor="middle" x="768" y="-558" font-family="Helvetica,sans-Serif" font-size="10.00">TCP_connection::close</text>
</a>
</g>
</g>
<!-- Node38&#45;&gt;Node40 -->
<g id="edge46" class="edge"><title>Node38&#45;&gt;Node40</title>
<path fill="none" stroke="midnightblue" d="M657.841,-560.76C674.456,-560.948 692.142,-561.149 708.331,-561.333"/>
<polygon fill="midnightblue" stroke="midnightblue" points="657.695,-557.258 647.656,-560.644 657.616,-564.257 657.695,-557.258"/>
</g>
<!-- Node41&#45;&gt;Node7 -->
<g id="edge48" class="edge"><title>Node41&#45;&gt;Node7</title>
<path fill="none" stroke="midnightblue" d="M662.007,-691.069C674.562,-692.496 687.596,-693.977 700.034,-695.39"/>
<polygon fill="midnightblue" stroke="midnightblue" points="662.394,-687.59 652.062,-689.939 661.603,-694.546 662.394,-687.59"/>
</g>
<!-- Node42 -->
<g id="node42" class="node"><title>Node42</title>
<g id="a_node42"><a xlink:href="class_t_c_p__server.html#a965b79c926ad740bff52388a55ed0a1e" target="_top" xlink:title="TCP_server::close">
<polygon fill="white" stroke="black" points="718.877,-732 718.877,-752 817.123,-752 817.123,-732 718.877,-732"/>
<text text-anchor="middle" x="768" y="-738" font-family="Helvetica,sans-Serif" font-size="10.00">TCP_server::close</text>
</a>
</g>
</g>
<!-- Node41&#45;&gt;Node42 -->
<g id="edge49" class="edge"><title>Node41&#45;&gt;Node42</title>
<path fill="none" stroke="midnightblue" d="M646.688,-695.922C652.601,-697.759 658.47,-699.786 664,-702 680.992,-708.804 683.131,-714.896 700,-722 708.95,-725.769 718.849,-729.136 728.23,-731.983"/>
<polygon fill="midnightblue" stroke="midnightblue" points="647.326,-692.462 636.746,-693.011 645.36,-699.18 647.326,-692.462"/>
</g>
<!-- Node43&#45;&gt;Node9 -->
<g id="edge52" class="edge"><title>Node43&#45;&gt;Node9</title>
<path fill="none" stroke="midnightblue" d="M642.185,-502.495C668.842,-495.982 700.998,-488.126 725.994,-482.018"/>
<polygon fill="midnightblue" stroke="midnightblue" points="641.148,-499.145 632.264,-504.918 642.809,-505.945 641.148,-499.145"/>
</g>
<!-- Node44 -->
<g id="node44" class="node"><title>Node44</title>
<g id="a_node44"><a xlink:href="class_t_c_p__client__data.html#abd7d9de83daa548827556dd5a3ec0ec3" target="_top" xlink:title="TCP_client_data::~TCP\l_client_data">
<polygon fill="white" stroke="black" points="707.336,-501 707.336,-533 828.664,-533 828.664,-501 707.336,-501"/>
<text text-anchor="start" x="715.336" y="-519" font-family="Helvetica,sans-Serif" font-size="10.00">TCP_client_data::~TCP</text>
<text text-anchor="middle" x="768" y="-507" font-family="Helvetica,sans-Serif" font-size="10.00">_client_data</text>
</a>
</g>
</g>
<!-- Node43&#45;&gt;Node44 -->
<g id="edge51" class="edge"><title>Node43&#45;&gt;Node44</title>
<path fill="none" stroke="midnightblue" d="M659.745,-515.781C675.396,-515.959 691.902,-516.147 707.148,-516.32"/>
<polygon fill="midnightblue" stroke="midnightblue" points="659.645,-512.28 649.605,-515.666 659.565,-519.279 659.645,-512.28"/>
</g>
<!-- Node46&#45;&gt;Node7 -->
<g id="edge55" class="edge"><title>Node46&#45;&gt;Node7</title>
<path fill="none" stroke="midnightblue" d="M648.687,-747.328C653.903,-745.287 659.073,-743.164 664,-741 680.564,-733.724 683.205,-728.727 700,-722 708.418,-718.628 717.654,-715.601 726.506,-713.007"/>
<polygon fill="midnightblue" stroke="midnightblue" points="647.391,-744.077 639.291,-750.906 649.882,-750.619 647.391,-744.077"/>
</g>
<!-- Node46&#45;&gt;Node37 -->
<g id="edge56" class="edge"><title>Node46&#45;&gt;Node37</title>
<path fill="none" stroke="midnightblue" d="M656.713,-783.127C709.516,-792.177 783.307,-795.631 836,-761 867.907,-740.03 843.184,-708.048 872,-683 877.794,-677.963 884.71,-674.08 891.942,-671.085"/>
<polygon fill="midnightblue" stroke="midnightblue" points="657.242,-779.666 646.777,-781.316 655.987,-786.553 657.242,-779.666"/>
</g>
<!-- Node47&#45;&gt;Node9 -->
<g id="edge58" class="edge"><title>Node47&#45;&gt;Node9</title>
<path fill="none" stroke="midnightblue" d="M479.909,-474.454C542.984,-473.915 638.92,-473.095 702.277,-472.553"/>
<polygon fill="midnightblue" stroke="midnightblue" points="479.661,-470.956 469.691,-474.541 479.721,-477.955 479.661,-470.956"/>
</g>
<!-- Node49 -->
<g id="node49" class="node"><title>Node49</title>
<g id="a_node49"><a xlink:href="classini__file.html#a93b558c428dbeea78090450849ae08bd" target="_top" xlink:title="ini_file::ini_file">
<polygon fill="white" stroke="black" points="216.872,-426 216.872,-446 295.128,-446 295.128,-426 216.872,-426"/>
<text text-anchor="middle" x="256" y="-432" font-family="Helvetica,sans-Serif" font-size="10.00">ini_file::ini_file</text>
</a>
</g>
</g>
<!-- Node48&#45;&gt;Node49 -->
<g id="edge60" class="edge"><title>Node48&#45;&gt;Node49</title>
<path fill="none" stroke="midnightblue" d="M170.671,-436C185.975,-436 202.338,-436 216.539,-436"/>
<polygon fill="midnightblue" stroke="midnightblue" points="170.285,-432.5 160.285,-436 170.285,-439.5 170.285,-432.5"/>
</g>
</g>
</svg>
