<?xml version="1.0" encoding="UTF-8" standalone="no"?>
<!DOCTYPE svg PUBLIC "-//W3C//DTD SVG 1.1//EN"
 "http://www.w3.org/Graphics/SVG/1.1/DTD/svg11.dtd">
<!-- Generated by graphviz version 2.32.0 (20130916.1925)
 -->
<!-- Title: signed_greater_than_or_equal Pages: 1 -->
<!--zoomable 145 -->
<svg id="main" version="1.1" xmlns="http://www.w3.org/2000/svg" xmlns:xlink="http://www.w3.org/1999/xlink" xml:space="preserve" onload="init(evt)">
        <defs>
                <circle id="rim" cx="0" cy="0" r="7"/>
                <circle id="rim2" cx="0" cy="0" r="3.5"/>
                <g id="zoomPlus">
                        <use xlink:href="#rim" fill="#404040">
                                <set attributeName="fill" to="#808080" begin="zoomplus.mouseover" end="zoomplus.mouseout"/>
                        </use>
                        <path d="M-4,0h8M0,-4v8" fill="none" stroke="white" stroke-width="1.5" pointer-events="none"/>
                </g>
                <g id="zoomMin">
                        <use xlink:href="#rim" fill="#404040">
                                <set attributeName="fill" to="#808080" begin="zoomminus.mouseover" end="zoomminus.mouseout"/>
                        </use>
                        <path d="M-4,0h8" fill="none" stroke="white" stroke-width="1.5" pointer-events="none"/>
                </g>
                <g id="dirArrow">
                        <path fill="none" stroke="white" stroke-width="1.5" d="M0,-3.0v7 M-2.5,-0.5L0,-3.0L2.5,-0.5"/>
                </g>
               <g id="resetDef">
                       <use xlink:href="#rim2" fill="#404040">
                               <set attributeName="fill" to="#808080" begin="reset.mouseover" end="reset.mouseout"/>
                       </use>
               </g>
        </defs>

<script type="text/javascript">
var viewWidth = 570;
var viewHeight = 145;
var sectionId = 'dynsection-49';
</script>
<script xlink:href="svgpan.js"/>
<svg id="graph" class="graph">
<g id="viewport">
<title>signed_greater_than_or_equal</title>
<polygon fill="white" stroke="white" points="-4,5 -4,-141 567,-141 567,5 -4,5"/>
<!-- Node1 -->
<g id="node1" class="node"><title>Node1</title>
<polygon fill="#bfbfbf" stroke="black" points="0.130859,-32 0.130859,-64 107.869,-64 107.869,-32 0.130859,-32"/>
<text text-anchor="start" x="8.13086" y="-50" font-family="Helvetica,sans-Serif" font-size="10.00">signed_greater_than</text>
<text text-anchor="middle" x="54" y="-38" font-family="Helvetica,sans-Serif" font-size="10.00">_or_equal</text>
</g>
<!-- Node2 -->
<g id="node2" class="node"><title>Node2</title>
<g id="a_node2"><a xlink:href="string__arithmetic_8cpp.html#a6123c4f7339667a75b7e7492d8582778" target="_top" xlink:title="signed_less_than">
<polygon fill="white" stroke="black" points="144.082,-38 144.082,-58 237.918,-58 237.918,-38 144.082,-38"/>
<text text-anchor="middle" x="191" y="-44" font-family="Helvetica,sans-Serif" font-size="10.00">signed_less_than</text>
</a>
</g>
</g>
<!-- Node1&#45;&gt;Node2 -->
<g id="edge1" class="edge"><title>Node1&#45;&gt;Node2</title>
<path fill="none" stroke="midnightblue" d="M107.968,-48C116.371,-48 125.089,-48 133.567,-48"/>
<polygon fill="midnightblue" stroke="midnightblue" points="133.753,-51.5001 143.753,-48 133.753,-44.5001 133.753,-51.5001"/>
</g>
<!-- Node3 -->
<g id="node3" class="node"><title>Node3</title>
<g id="a_node3"><a xlink:href="string__arithmetic_8cpp.html#a21df22820cbc1ab7c128f203d18c7104" target="_top" xlink:title="signed_subtract">
<polygon fill="white" stroke="black" points="274.7,-58 274.7,-78 361.3,-78 361.3,-58 274.7,-58"/>
<text text-anchor="middle" x="318" y="-64" font-family="Helvetica,sans-Serif" font-size="10.00">signed_subtract</text>
</a>
</g>
</g>
<!-- Node2&#45;&gt;Node3 -->
<g id="edge2" class="edge"><title>Node2&#45;&gt;Node3</title>
<path fill="none" stroke="midnightblue" d="M238.19,-55.3904C246.688,-56.7501 255.618,-58.1789 264.291,-59.5665"/>
<polygon fill="midnightblue" stroke="midnightblue" points="263.884,-63.0459 274.311,-61.1698 264.99,-56.1338 263.884,-63.0459"/>
</g>
<!-- Node11 -->
<g id="node11" class="node"><title>Node11</title>
<g id="a_node11"><a xlink:href="string__arithmetic_8cpp.html#aa19eed0b96f17cfe786e83058b5ecffb" target="_top" xlink:title="is_negative">
<polygon fill="white" stroke="black" points="284.705,-19 284.705,-39 351.295,-39 351.295,-19 284.705,-19"/>
<text text-anchor="middle" x="318" y="-25" font-family="Helvetica,sans-Serif" font-size="10.00">is_negative</text>
</a>
</g>
</g>
<!-- Node2&#45;&gt;Node11 -->
<g id="edge10" class="edge"><title>Node2&#45;&gt;Node11</title>
<path fill="none" stroke="midnightblue" d="M238.19,-40.9791C250.132,-39.164 262.927,-37.2191 274.661,-35.4356"/>
<polygon fill="midnightblue" stroke="midnightblue" points="275.29,-38.8802 284.651,-33.9171 274.238,-31.9597 275.29,-38.8802"/>
</g>
<!-- Node4 -->
<g id="node4" class="node"><title>Node4</title>
<g id="a_node4"><a xlink:href="string__arithmetic_8cpp.html#a81d7a054172ae982785819c0c51a87c5" target="_top" xlink:title="signed_resize">
<polygon fill="white" stroke="black" points="398.148,-117 398.148,-137 475.852,-137 475.852,-117 398.148,-117"/>
<text text-anchor="middle" x="437" y="-123" font-family="Helvetica,sans-Serif" font-size="10.00">signed_resize</text>
</a>
</g>
</g>
<!-- Node3&#45;&gt;Node4 -->
<g id="edge3" class="edge"><title>Node3&#45;&gt;Node4</title>
<path fill="none" stroke="midnightblue" d="M338.847,-78.0085C357.505,-87.417 385.657,-101.613 406.861,-112.306"/>
<polygon fill="midnightblue" stroke="midnightblue" points="405.55,-115.565 416.055,-116.942 408.702,-109.315 405.55,-115.565"/>
</g>
<!-- Node5 -->
<g id="node5" class="node"><title>Node5</title>
<g id="a_node5"><a xlink:href="string__arithmetic_8cpp.html#a5908e619ca6762dbb4a713ef69a04ed7" target="_top" xlink:title="bit_sum">
<polygon fill="white" stroke="black" points="411.493,-78 411.493,-98 462.507,-98 462.507,-78 411.493,-78"/>
<text text-anchor="middle" x="437" y="-84" font-family="Helvetica,sans-Serif" font-size="10.00">bit_sum</text>
</a>
</g>
</g>
<!-- Node3&#45;&gt;Node5 -->
<g id="edge4" class="edge"><title>Node3&#45;&gt;Node5</title>
<path fill="none" stroke="midnightblue" d="M361.571,-75.277C374.638,-77.5108 388.854,-79.9408 401.327,-82.0729"/>
<polygon fill="midnightblue" stroke="midnightblue" points="400.883,-85.5479 411.33,-83.783 402.063,-78.648 400.883,-85.5479"/>
</g>
<!-- Node7 -->
<g id="node7" class="node"><title>Node7</title>
<g id="a_node7"><a xlink:href="string__arithmetic_8cpp.html#a94695ea56cea67bf729e29e05a1a919e" target="_top" xlink:title="bit_carry">
<polygon fill="white" stroke="black" points="409.828,-39 409.828,-59 464.172,-59 464.172,-39 409.828,-39"/>
<text text-anchor="middle" x="437" y="-45" font-family="Helvetica,sans-Serif" font-size="10.00">bit_carry</text>
</a>
</g>
</g>
<!-- Node3&#45;&gt;Node7 -->
<g id="edge6" class="edge"><title>Node3&#45;&gt;Node7</title>
<path fill="none" stroke="midnightblue" d="M361.571,-61.0868C374.002,-59.068 387.473,-56.8805 399.493,-54.9284"/>
<polygon fill="midnightblue" stroke="midnightblue" points="400.311,-58.3415 409.621,-53.2838 399.189,-51.432 400.311,-58.3415"/>
</g>
<!-- Node10 -->
<g id="node10" class="node"><title>Node10</title>
<g id="a_node10"><a xlink:href="string__arithmetic_8cpp.html#a1a22bf947511ecf8da04a7cead2979ad" target="_top" xlink:title="bit_not">
<polygon fill="white" stroke="black" points="413.988,-0 413.988,-20 460.012,-20 460.012,-0 413.988,-0"/>
<text text-anchor="middle" x="437" y="-6" font-family="Helvetica,sans-Serif" font-size="10.00">bit_not</text>
</a>
</g>
</g>
<!-- Node3&#45;&gt;Node10 -->
<g id="edge9" class="edge"><title>Node3&#45;&gt;Node10</title>
<path fill="none" stroke="midnightblue" d="M340.954,-57.9898C347.728,-54.8469 355.196,-51.3279 362,-48 377.284,-40.5246 394.173,-31.8817 407.953,-24.729"/>
<polygon fill="midnightblue" stroke="midnightblue" points="409.686,-27.7724 416.938,-20.0479 406.452,-21.5644 409.686,-27.7724"/>
</g>
<!-- Node6 -->
<g id="node6" class="node"><title>Node6</title>
<g id="a_node6"><a xlink:href="string__arithmetic_8cpp.html#aa479141a8083df6b46cd98c13609d224" target="_top" xlink:title="bit_xor">
<polygon fill="white" stroke="black" points="513.993,-78 513.993,-98 560.007,-98 560.007,-78 513.993,-78"/>
<text text-anchor="middle" x="537" y="-84" font-family="Helvetica,sans-Serif" font-size="10.00">bit_xor</text>
</a>
</g>
</g>
<!-- Node5&#45;&gt;Node6 -->
<g id="edge5" class="edge"><title>Node5&#45;&gt;Node6</title>
<path fill="none" stroke="midnightblue" d="M462.73,-88C475.168,-88 490.397,-88 503.743,-88"/>
<polygon fill="midnightblue" stroke="midnightblue" points="503.953,-91.5001 513.953,-88 503.953,-84.5001 503.953,-91.5001"/>
</g>
<!-- Node8 -->
<g id="node8" class="node"><title>Node8</title>
<g id="a_node8"><a xlink:href="string__arithmetic_8cpp.html#afe7cda5eba463b65d65687c2fd389fff" target="_top" xlink:title="bit_and">
<polygon fill="white" stroke="black" points="512.596,-39 512.596,-59 561.404,-59 561.404,-39 512.596,-39"/>
<text text-anchor="middle" x="537" y="-45" font-family="Helvetica,sans-Serif" font-size="10.00">bit_and</text>
</a>
</g>
</g>
<!-- Node7&#45;&gt;Node8 -->
<g id="edge7" class="edge"><title>Node7&#45;&gt;Node8</title>
<path fill="none" stroke="midnightblue" d="M464.262,-49C475.956,-49 489.87,-49 502.317,-49"/>
<polygon fill="midnightblue" stroke="midnightblue" points="502.347,-52.5001 512.347,-49 502.347,-45.5001 502.347,-52.5001"/>
</g>
<!-- Node9 -->
<g id="node9" class="node"><title>Node9</title>
<g id="a_node9"><a xlink:href="string__arithmetic_8cpp.html#a3f0dedb0825234f431e364e025ff9452" target="_top" xlink:title="bit_or">
<polygon fill="white" stroke="black" points="516.493,-0 516.493,-20 557.507,-20 557.507,-0 516.493,-0"/>
<text text-anchor="middle" x="537" y="-6" font-family="Helvetica,sans-Serif" font-size="10.00">bit_or</text>
</a>
</g>
</g>
<!-- Node7&#45;&gt;Node9 -->
<g id="edge8" class="edge"><title>Node7&#45;&gt;Node9</title>
<path fill="none" stroke="midnightblue" d="M463.237,-38.9565C476.563,-33.6535 492.982,-27.1193 506.849,-21.6008"/>
<polygon fill="midnightblue" stroke="midnightblue" points="508.418,-24.7437 516.415,-17.7941 505.829,-18.2398 508.418,-24.7437"/>
</g>
</g>
</svg>
        <g id="navigator" transform="translate(0 0)" fill="#404254">
                <rect fill="#f2f5e9" fill-opacity="0.5" stroke="#606060" stroke-width=".5" x="0" y="0" width="60" height="60"/>
                <use id="zoomplus" xlink:href="#zoomPlus" x="17" y="9" onmousedown="handleZoom(evt,'in')"/>
                <use id="zoomminus" xlink:href="#zoomMin" x="42" y="9" onmousedown="handleZoom(evt,'out')"/>
                <use id="reset" xlink:href="#resetDef" x="30" y="36" onmousedown="handleReset()"/>
                <g id="arrowUp" xlink:href="#dirArrow" transform="translate(30 24)" onmousedown="handlePan(0,-1)">
                  <use xlink:href="#rim" fill="#404040">
                        <set attributeName="fill" to="#808080" begin="arrowUp.mouseover" end="arrowUp.mouseout"/>
                  </use>
                  <path fill="none" stroke="white" stroke-width="1.5" d="M0,-3.0v7 M-2.5,-0.5L0,-3.0L2.5,-0.5"/>
                </g>
                <g id="arrowRight" xlink:href="#dirArrow" transform="rotate(90) translate(36 -43)" onmousedown="handlePan(1,0)">
                  <use xlink:href="#rim" fill="#404040">
                        <set attributeName="fill" to="#808080" begin="arrowRight.mouseover" end="arrowRight.mouseout"/>
                  </use>
                  <path fill="none" stroke="white" stroke-width="1.5" d="M0,-3.0v7 M-2.5,-0.5L0,-3.0L2.5,-0.5"/>
                </g>
                <g id="arrowDown" xlink:href="#dirArrow" transform="rotate(180) translate(-30 -48)" onmousedown="handlePan(0,1)">
                  <use xlink:href="#rim" fill="#404040">
                        <set attributeName="fill" to="#808080" begin="arrowDown.mouseover" end="arrowDown.mouseout"/>
                  </use>
                  <path fill="none" stroke="white" stroke-width="1.5" d="M0,-3.0v7 M-2.5,-0.5L0,-3.0L2.5,-0.5"/>
                </g>
                <g id="arrowLeft" xlink:href="#dirArrow" transform="rotate(270) translate(-36 17)" onmousedown="handlePan(-1,0)">
                  <use xlink:href="#rim" fill="#404040">
                        <set attributeName="fill" to="#808080" begin="arrowLeft.mouseover" end="arrowLeft.mouseout"/>
                  </use>
                  <path fill="none" stroke="white" stroke-width="1.5" d="M0,-3.0v7 M-2.5,-0.5L0,-3.0L2.5,-0.5"/>
                </g>
        </g>
        <svg viewBox="0 0 15 15" width="100%" height="30px" preserveAspectRatio="xMaxYMin meet">
         <g id="arrow_out" transform="scale(0.3 0.3)">
          <a xlink:href="string__arithmetic_8cpp_a16c654ac23c1583f0cb49cb5df08fca1_cgraph_org.svg" target="_base">
           <rect id="button" ry="5" rx="5" y="6" x="6" height="38" width="38"
                fill="#f2f5e9" fill-opacity="0.5" stroke="#606060" stroke-width="1.0"/>
           <path id="arrow"
             d="M 11.500037,31.436501 C 11.940474,20.09759 22.043105,11.32322 32.158766,21.979434 L 37.068811,17.246167 C 37.068811,17.246167 37.088388,32 37.088388,32 L 22.160133,31.978069 C 22.160133,31.978069 26.997745,27.140456 26.997745,27.140456 C 18.528582,18.264221 13.291696,25.230495 11.500037,31.436501 z"
             style="fill:#404040;"/>
          </a>
         </g>
        </svg>
</svg>
