<?xml version="1.0" encoding="UTF-8" standalone="no"?>
<!DOCTYPE svg PUBLIC "-//W3C//DTD SVG 1.1//EN"
 "http://www.w3.org/Graphics/SVG/1.1/DTD/svg11.dtd">
<!-- Generated by graphviz version 2.32.0 (20130916.1925)
 -->
<!-- Title: to_string Pages: 1 -->
<svg width="1054pt" height="394pt"
 viewBox="0.00 0.00 1054.00 393.95" xmlns="http://www.w3.org/2000/svg" xmlns:xlink="http://www.w3.org/1999/xlink">
<g id="graph0" class="graph" transform="scale(1 1) rotate(0) translate(4 389.947)">
<title>to_string</title>
<polygon fill="white" stroke="white" points="-4,5 -4,-389.947 1051,-389.947 1051,5 -4,5"/>
<!-- Node1 -->
<g id="node1" class="node"><title>Node1</title>
<polygon fill="#bfbfbf" stroke="black" points="-0.177246,-225.947 -0.177246,-245.947 54.1772,-245.947 54.1772,-225.947 -0.177246,-225.947"/>
<text text-anchor="middle" x="27" y="-231.947" font-family="Helvetica,sans-Serif" font-size="10.00">to_string</text>
</g>
<!-- Node2 -->
<g id="node2" class="node"><title>Node2</title>
<g id="a_node2"><a xlink:href="string__utilities_8cpp.html#ae661a7e0c9c01a8893584d5f2943dccd" target="_top" xlink:title="uimage">
<polygon fill="white" stroke="black" points="90.6011,-225.947 90.6011,-245.947 139.399,-245.947 139.399,-225.947 90.6011,-225.947"/>
<text text-anchor="middle" x="115" y="-231.947" font-family="Helvetica,sans-Serif" font-size="10.00">uimage</text>
</a>
</g>
</g>
<!-- Node1&#45;&gt;Node2 -->
<g id="edge1" class="edge"><title>Node1&#45;&gt;Node2</title>
<path fill="none" stroke="midnightblue" d="M54.2701,-235.947C62.4877,-235.947 71.6711,-235.947 80.325,-235.947"/>
<polygon fill="midnightblue" stroke="midnightblue" points="80.5179,-239.447 90.5179,-235.947 80.5178,-232.447 80.5179,-239.447"/>
</g>
<!-- Node3 -->
<g id="node3" class="node"><title>Node3</title>
<g id="a_node3"><a xlink:href="error__handler_8cpp.html#aac3be3c13a6d90b39f966b6e897c0744" target="_top" xlink:title="to_string">
<polygon fill="white" stroke="black" points="175.823,-286.947 175.823,-306.947 230.177,-306.947 230.177,-286.947 175.823,-286.947"/>
<text text-anchor="middle" x="203" y="-292.947" font-family="Helvetica,sans-Serif" font-size="10.00">to_string</text>
</a>
</g>
</g>
<!-- Node2&#45;&gt;Node3 -->
<g id="edge2" class="edge"><title>Node2&#45;&gt;Node3</title>
<path fill="none" stroke="midnightblue" d="M130.201,-246.02C143.521,-255.468 163.665,-269.756 179.229,-280.795"/>
<polygon fill="midnightblue" stroke="midnightblue" points="177.596,-283.928 187.778,-286.859 181.646,-278.219 177.596,-283.928"/>
</g>
<!-- Node22 -->
<g id="node22" class="node"><title>Node22</title>
<g id="a_node22"><a xlink:href="textio_8cpp.html#ad0a882910bc0d2f516a4d2aade1febac" target="_top" xlink:title="hex">
<polygon fill="white" stroke="black" points="186.938,-225.947 186.938,-245.947 219.062,-245.947 219.062,-225.947 186.938,-225.947"/>
<text text-anchor="middle" x="203" y="-231.947" font-family="Helvetica,sans-Serif" font-size="10.00">hex</text>
</a>
</g>
</g>
<!-- Node2&#45;&gt;Node22 -->
<g id="edge32" class="edge"><title>Node2&#45;&gt;Node22</title>
<path fill="none" stroke="midnightblue" d="M139.5,-235.947C151.075,-235.947 165.042,-235.947 176.834,-235.947"/>
<polygon fill="midnightblue" stroke="midnightblue" points="176.922,-239.447 186.922,-235.947 176.921,-232.447 176.922,-239.447"/>
</g>
<!-- Node25 -->
<g id="node25" class="node"><title>Node25</title>
<g id="a_node25"><a xlink:href="string__utilities_8cpp.html#a53db00652dcb105ecc80cb1081bdb880" target="_top" xlink:title="to_uint">
<polygon fill="white" stroke="black" points="179.988,-186.947 179.988,-206.947 226.012,-206.947 226.012,-186.947 179.988,-186.947"/>
<text text-anchor="middle" x="203" y="-192.947" font-family="Helvetica,sans-Serif" font-size="10.00">to_uint</text>
</a>
</g>
</g>
<!-- Node2&#45;&gt;Node25 -->
<g id="edge35" class="edge"><title>Node2&#45;&gt;Node25</title>
<path fill="none" stroke="midnightblue" d="M138.147,-225.903C148.078,-221.4 159.967,-216.008 170.78,-211.105"/>
<polygon fill="midnightblue" stroke="midnightblue" points="172.266,-214.274 179.928,-206.956 169.375,-207.899 172.266,-214.274"/>
</g>
<!-- Node3&#45;&gt;Node3 -->
<g id="edge31" class="edge"><title>Node3&#45;&gt;Node3</title>
<path fill="none" stroke="midnightblue" d="M189.223,-306.994C182.939,-315.718 187.531,-324.947 203,-324.947 212.426,-324.947 217.814,-321.52 219.162,-316.869"/>
<polygon fill="midnightblue" stroke="midnightblue" points="222.527,-315.893 216.777,-306.994 215.723,-317.537 222.527,-315.893"/>
</g>
<!-- Node4 -->
<g id="node4" class="node"><title>Node4</title>
<g id="a_node4"><a xlink:href="classerror__position.html#a3f7ed498a2a6aa5343334b17bbdf4bbf" target="_top" xlink:title="error_position::column">
<polygon fill="white" stroke="black" points="272.532,-364.947 272.532,-384.947 387.468,-384.947 387.468,-364.947 272.532,-364.947"/>
<text text-anchor="middle" x="330" y="-370.947" font-family="Helvetica,sans-Serif" font-size="10.00">error_position::column</text>
</a>
</g>
</g>
<!-- Node3&#45;&gt;Node4 -->
<g id="edge3" class="edge"><title>Node3&#45;&gt;Node4</title>
<path fill="none" stroke="midnightblue" d="M212.196,-306.998C223.179,-319.85 243.868,-341.987 266,-354.947 269.95,-357.26 274.199,-359.338 278.558,-361.198"/>
<polygon fill="midnightblue" stroke="midnightblue" points="277.611,-364.584 288.201,-364.927 280.137,-358.055 277.611,-364.584"/>
</g>
<!-- Node5 -->
<g id="node5" class="node"><title>Node5</title>
<g id="a_node5"><a xlink:href="classerror__position.html#ac4739e90b92106a85b0f8c76e9198daf" target="_top" xlink:title="error_position::filename">
<polygon fill="white" stroke="black" points="269.751,-325.947 269.751,-345.947 390.249,-345.947 390.249,-325.947 269.751,-325.947"/>
<text text-anchor="middle" x="330" y="-331.947" font-family="Helvetica,sans-Serif" font-size="10.00">error_position::filename</text>
</a>
</g>
</g>
<!-- Node3&#45;&gt;Node5 -->
<g id="edge4" class="edge"><title>Node3&#45;&gt;Node5</title>
<path fill="none" stroke="midnightblue" d="M230.204,-305.122C246.589,-310.234 268.066,-316.935 286.809,-322.783"/>
<polygon fill="midnightblue" stroke="midnightblue" points="286.016,-326.202 296.605,-325.84 288.101,-319.52 286.016,-326.202"/>
</g>
<!-- Node6 -->
<g id="node6" class="node"><title>Node6</title>
<g id="a_node6"><a xlink:href="file__system_8cpp.html#a6982b54d454c07cc3f770f67c5d0b5ef" target="_top" xlink:title="filespec_to_relative_path">
<polygon fill="white" stroke="black" points="266.685,-286.947 266.685,-306.947 393.315,-306.947 393.315,-286.947 266.685,-286.947"/>
<text text-anchor="middle" x="330" y="-292.947" font-family="Helvetica,sans-Serif" font-size="10.00">filespec_to_relative_path</text>
</a>
</g>
</g>
<!-- Node3&#45;&gt;Node6 -->
<g id="edge5" class="edge"><title>Node3&#45;&gt;Node6</title>
<path fill="none" stroke="midnightblue" d="M230.204,-296.947C238.038,-296.947 247.035,-296.947 256.342,-296.947"/>
<polygon fill="midnightblue" stroke="midnightblue" points="256.521,-300.447 266.521,-296.947 256.521,-293.447 256.521,-300.447"/>
</g>
<!-- Node21 -->
<g id="node21" class="node"><title>Node21</title>
<g id="a_node21"><a xlink:href="classerror__position.html#af47fc5beec407412df713d56814af6fe" target="_top" xlink:title="error_position::line">
<polygon fill="white" stroke="black" points="280.867,-247.947 280.867,-267.947 379.133,-267.947 379.133,-247.947 280.867,-247.947"/>
<text text-anchor="middle" x="330" y="-253.947" font-family="Helvetica,sans-Serif" font-size="10.00">error_position::line</text>
</a>
</g>
</g>
<!-- Node3&#45;&gt;Node21 -->
<g id="edge30" class="edge"><title>Node3&#45;&gt;Node21</title>
<path fill="none" stroke="midnightblue" d="M230.211,-288.369C241.245,-284.79 254.232,-280.619 266,-276.947 272.226,-275.004 278.809,-272.983 285.279,-271.014"/>
<polygon fill="midnightblue" stroke="midnightblue" points="286.731,-274.232 295.287,-267.984 284.702,-267.532 286.731,-274.232"/>
</g>
<!-- Node7 -->
<g id="node7" class="node"><title>Node7</title>
<g id="a_node7"><a xlink:href="file__system_8cpp.html#a62475ca973dfe0094c00d60286c7c286" target="_top" xlink:title="create_filespec">
<polygon fill="white" stroke="black" points="584.37,-364.947 584.37,-384.947 667.63,-384.947 667.63,-364.947 584.37,-364.947"/>
<text text-anchor="middle" x="626" y="-370.947" font-family="Helvetica,sans-Serif" font-size="10.00">create_filespec</text>
</a>
</g>
</g>
<!-- Node6&#45;&gt;Node7 -->
<g id="edge6" class="edge"><title>Node6&#45;&gt;Node7</title>
<path fill="none" stroke="midnightblue" d="M369.497,-306.987C377.714,-309.562 386.248,-312.573 394,-315.947 410.984,-323.339 412.666,-330.417 430,-336.947 477.21,-354.731 534.13,-364.598 574.253,-369.789"/>
<polygon fill="midnightblue" stroke="midnightblue" points="573.976,-373.282 584.331,-371.041 574.839,-366.335 573.976,-373.282"/>
</g>
<!-- Node9 -->
<g id="node9" class="node"><title>Node9</title>
<g id="a_node9"><a xlink:href="file__system_8cpp.html#acf89fa1738d4f789e4cc5b9c3c3bec72" target="_top" xlink:title="filename_part">
<polygon fill="white" stroke="black" points="587.705,-325.947 587.705,-345.947 664.295,-345.947 664.295,-325.947 587.705,-325.947"/>
<text text-anchor="middle" x="626" y="-331.947" font-family="Helvetica,sans-Serif" font-size="10.00">filename_part</text>
</a>
</g>
</g>
<!-- Node6&#45;&gt;Node9 -->
<g id="edge8" class="edge"><title>Node6&#45;&gt;Node9</title>
<path fill="none" stroke="midnightblue" d="M378.694,-306.974C394.923,-310.153 413.204,-313.479 430,-315.947 480.071,-323.305 537.772,-328.863 577.341,-332.23"/>
<polygon fill="midnightblue" stroke="midnightblue" points="577.24,-335.734 587.497,-333.08 577.823,-328.758 577.24,-335.734"/>
</g>
<!-- Node10 -->
<g id="node10" class="node"><title>Node10</title>
<g id="a_node10"><a xlink:href="file__system_8cpp.html#acb48f4675dcd897962719fcc704fa980" target="_top" xlink:title="folder_part">
<polygon fill="white" stroke="black" points="457.096,-286.947 457.096,-306.947 520.904,-306.947 520.904,-286.947 457.096,-286.947"/>
<text text-anchor="middle" x="489" y="-292.947" font-family="Helvetica,sans-Serif" font-size="10.00">folder_part</text>
</a>
</g>
</g>
<!-- Node6&#45;&gt;Node10 -->
<g id="edge10" class="edge"><title>Node6&#45;&gt;Node10</title>
<path fill="none" stroke="midnightblue" d="M393.502,-296.947C411.319,-296.947 430.285,-296.947 446.513,-296.947"/>
<polygon fill="midnightblue" stroke="midnightblue" points="446.743,-300.447 456.743,-296.947 446.743,-293.447 446.743,-300.447"/>
</g>
<!-- Node11 -->
<g id="node11" class="node"><title>Node11</title>
<g id="a_node11"><a xlink:href="file__system_8cpp.html#a154091f28159afef5c72b12cee64a9a0" target="_top" xlink:title="folder_to_relative_path">
<polygon fill="white" stroke="black" points="430.131,-247.947 430.131,-267.947 547.869,-267.947 547.869,-247.947 430.131,-247.947"/>
<text text-anchor="middle" x="489" y="-253.947" font-family="Helvetica,sans-Serif" font-size="10.00">folder_to_relative_path</text>
</a>
</g>
</g>
<!-- Node6&#45;&gt;Node11 -->
<g id="edge12" class="edge"><title>Node6&#45;&gt;Node11</title>
<path fill="none" stroke="midnightblue" d="M371.431,-286.903C391.667,-281.877 416.356,-275.744 437.795,-270.418"/>
<polygon fill="midnightblue" stroke="midnightblue" points="438.844,-273.764 447.706,-267.956 437.157,-266.97 438.844,-273.764"/>
</g>
<!-- Node8 -->
<g id="node8" class="node"><title>Node8</title>
<g id="a_node8"><a xlink:href="file__system_8cpp.html#a99e06c76afffe1f1d77f01c905b1a5fd" target="_top" xlink:title="is_separator">
<polygon fill="white" stroke="black" points="965.485,-286.947 965.485,-306.947 1036.51,-306.947 1036.51,-286.947 965.485,-286.947"/>
<text text-anchor="middle" x="1001" y="-292.947" font-family="Helvetica,sans-Serif" font-size="10.00">is_separator</text>
</a>
</g>
</g>
<!-- Node7&#45;&gt;Node8 -->
<g id="edge7" class="edge"><title>Node7&#45;&gt;Node8</title>
<path fill="none" stroke="midnightblue" d="M667.933,-371.766C725.175,-366.621 832.004,-354.472 920,-329.947 937.096,-325.182 955.448,-317.788 970.257,-311.206"/>
<polygon fill="midnightblue" stroke="midnightblue" points="971.775,-314.361 979.428,-307.034 968.876,-307.989 971.775,-314.361"/>
</g>
<!-- Node9&#45;&gt;Node8 -->
<g id="edge9" class="edge"><title>Node9&#45;&gt;Node8</title>
<path fill="none" stroke="midnightblue" d="M664.577,-333.804C720.438,-330.377 828.617,-322.818 920,-310.947 931.572,-309.444 944.022,-307.449 955.574,-305.438"/>
<polygon fill="midnightblue" stroke="midnightblue" points="956.218,-308.879 965.449,-303.679 954.99,-301.987 956.218,-308.879"/>
</g>
<!-- Node10&#45;&gt;Node8 -->
<g id="edge11" class="edge"><title>Node10&#45;&gt;Node8</title>
<path fill="none" stroke="midnightblue" d="M521.135,-296.947C608.027,-296.947 853.431,-296.947 955.06,-296.947"/>
<polygon fill="midnightblue" stroke="midnightblue" points="955.297,-300.447 965.297,-296.947 955.297,-293.447 955.297,-300.447"/>
</g>
<!-- Node12 -->
<g id="node12" class="node"><title>Node12</title>
<g id="a_node12"><a xlink:href="file__system_8cpp.html#a0a5c33c34c3c47d4e15e955b7ac25681" target="_top" xlink:title="relative_path">
<polygon fill="white" stroke="black" points="589.37,-104.947 589.37,-124.947 662.63,-124.947 662.63,-104.947 589.37,-104.947"/>
<text text-anchor="middle" x="626" y="-110.947" font-family="Helvetica,sans-Serif" font-size="10.00">relative_path</text>
</a>
</g>
</g>
<!-- Node11&#45;&gt;Node12 -->
<g id="edge13" class="edge"><title>Node11&#45;&gt;Node12</title>
<path fill="none" stroke="midnightblue" d="M530.838,-247.851C536.959,-245.243 542.914,-241.991 548,-237.947 582.991,-210.124 606.469,-161.776 617.583,-134.725"/>
<polygon fill="midnightblue" stroke="midnightblue" points="620.936,-135.762 621.353,-125.175 614.425,-133.191 620.936,-135.762"/>
</g>
<!-- Node13 -->
<g id="node13" class="node"><title>Node13</title>
<g id="a_node13"><a xlink:href="classfile__specification.html#a518bc2d13c74b0e00131c87fdd294f2b" target="_top" xlink:title="file_specification\l::image">
<polygon fill="white" stroke="black" points="704.313,-171.947 704.313,-203.947 793.687,-203.947 793.687,-171.947 704.313,-171.947"/>
<text text-anchor="start" x="712.313" y="-189.947" font-family="Helvetica,sans-Serif" font-size="10.00">file_specification</text>
<text text-anchor="middle" x="749" y="-177.947" font-family="Helvetica,sans-Serif" font-size="10.00">::image</text>
</a>
</g>
</g>
<!-- Node12&#45;&gt;Node13 -->
<g id="edge14" class="edge"><title>Node12&#45;&gt;Node13</title>
<path fill="none" stroke="midnightblue" d="M643.481,-125.1C659.044,-134.666 683.055,-149.367 704,-161.947 706.496,-163.446 709.075,-164.988 711.674,-166.537"/>
<polygon fill="midnightblue" stroke="midnightblue" points="710.117,-169.683 720.503,-171.78 713.692,-163.664 710.117,-169.683"/>
</g>
<!-- Node15 -->
<g id="node15" class="node"><title>Node15</title>
<g id="a_node15"><a xlink:href="classfile__specification.html#a18e9d7a9b9dd1214d09ab5e843ea7806" target="_top" xlink:title="file_specification\l::relative">
<polygon fill="white" stroke="black" points="956.313,-24.9468 956.313,-56.9468 1045.69,-56.9468 1045.69,-24.9468 956.313,-24.9468"/>
<text text-anchor="start" x="964.313" y="-42.9468" font-family="Helvetica,sans-Serif" font-size="10.00">file_specification</text>
<text text-anchor="middle" x="1001" y="-30.9468" font-family="Helvetica,sans-Serif" font-size="10.00">::relative</text>
</a>
</g>
</g>
<!-- Node12&#45;&gt;Node15 -->
<g id="edge29" class="edge"><title>Node12&#45;&gt;Node15</title>
<path fill="none" stroke="midnightblue" d="M631.548,-104.793C641.347,-84.3426 666.63,-38.6423 704,-20.9468 781.94,15.9596 884.543,-3.96395 946.211,-22.168"/>
<polygon fill="midnightblue" stroke="midnightblue" points="945.532,-25.6199 956.118,-25.1821 947.57,-18.9229 945.532,-25.6199"/>
</g>
<!-- Node17 -->
<g id="node17" class="node"><title>Node17</title>
<g id="a_node17"><a xlink:href="classfile__specification.html#aefefc9da1b64f7ed66a436750a88ffa2" target="_top" xlink:title="file_specification\l::initialise_folder">
<polygon fill="white" stroke="black" points="830.313,-69.9468 830.313,-101.947 919.687,-101.947 919.687,-69.9468 830.313,-69.9468"/>
<text text-anchor="start" x="838.313" y="-87.9468" font-family="Helvetica,sans-Serif" font-size="10.00">file_specification</text>
<text text-anchor="middle" x="875" y="-75.9468" font-family="Helvetica,sans-Serif" font-size="10.00">::initialise_folder</text>
</a>
</g>
</g>
<!-- Node12&#45;&gt;Node17 -->
<g id="edge20" class="edge"><title>Node12&#45;&gt;Node17</title>
<path fill="none" stroke="midnightblue" d="M662.652,-110.761C703.85,-105.924 772.089,-97.9121 819.851,-92.3044"/>
<polygon fill="midnightblue" stroke="midnightblue" points="820.492,-95.7533 830.015,-91.111 819.675,-88.801 820.492,-95.7533"/>
</g>
<!-- Node19 -->
<g id="node19" class="node"><title>Node19</title>
<g id="a_node19"><a xlink:href="classfile__specification.html#a1c51930e39fad4d827a81b5b12a72752" target="_top" xlink:title="file_specification\l::make_absolute">
<polygon fill="white" stroke="black" points="704.311,-120.947 704.311,-152.947 793.689,-152.947 793.689,-120.947 704.311,-120.947"/>
<text text-anchor="start" x="712.311" y="-138.947" font-family="Helvetica,sans-Serif" font-size="10.00">file_specification</text>
<text text-anchor="middle" x="749" y="-126.947" font-family="Helvetica,sans-Serif" font-size="10.00">::make_absolute</text>
</a>
</g>
</g>
<!-- Node12&#45;&gt;Node19 -->
<g id="edge23" class="edge"><title>Node12&#45;&gt;Node19</title>
<path fill="none" stroke="midnightblue" d="M662.65,-121.429C672.476,-123.215 683.36,-125.194 693.975,-127.124"/>
<polygon fill="midnightblue" stroke="midnightblue" points="693.563,-130.606 704.027,-128.952 694.815,-123.719 693.563,-130.606"/>
</g>
<!-- Node20 -->
<g id="node20" class="node"><title>Node20</title>
<g id="a_node20"><a xlink:href="classfile__specification.html#a37f966146802536ffdb2f154e3df928f" target="_top" xlink:title="file_specification\l::make_relative">
<polygon fill="white" stroke="black" points="704.313,-30.9468 704.313,-62.9468 793.687,-62.9468 793.687,-30.9468 704.313,-30.9468"/>
<text text-anchor="start" x="712.313" y="-48.9468" font-family="Helvetica,sans-Serif" font-size="10.00">file_specification</text>
<text text-anchor="middle" x="749" y="-36.9468" font-family="Helvetica,sans-Serif" font-size="10.00">::make_relative</text>
</a>
</g>
</g>
<!-- Node12&#45;&gt;Node20 -->
<g id="edge26" class="edge"><title>Node12&#45;&gt;Node20</title>
<path fill="none" stroke="midnightblue" d="M644.854,-104.913C662.072,-95.237 688.666,-80.2917 710.537,-68.0001"/>
<polygon fill="midnightblue" stroke="midnightblue" points="712.269,-71.0419 719.272,-63.0915 708.84,-64.9395 712.269,-71.0419"/>
</g>
<!-- Node13&#45;&gt;Node8 -->
<g id="edge19" class="edge"><title>Node13&#45;&gt;Node8</title>
<path fill="none" stroke="midnightblue" d="M774.588,-203.965C790.098,-213.669 810.766,-225.881 830,-234.947 872.029,-254.756 922.237,-272.371 957.145,-283.714"/>
<polygon fill="midnightblue" stroke="midnightblue" points="956.422,-287.158 967.013,-286.887 958.564,-280.494 956.422,-287.158"/>
</g>
<!-- Node14 -->
<g id="node14" class="node"><title>Node14</title>
<g id="a_node14"><a xlink:href="classfile__specification.html#a5b8f1026354ff32bfc183da3f38f5ce7" target="_top" xlink:title="file_specification\l::absolute">
<polygon fill="white" stroke="black" points="830.313,-120.947 830.313,-152.947 919.687,-152.947 919.687,-120.947 830.313,-120.947"/>
<text text-anchor="start" x="838.313" y="-138.947" font-family="Helvetica,sans-Serif" font-size="10.00">file_specification</text>
<text text-anchor="middle" x="875" y="-126.947" font-family="Helvetica,sans-Serif" font-size="10.00">::absolute</text>
</a>
</g>
</g>
<!-- Node13&#45;&gt;Node14 -->
<g id="edge15" class="edge"><title>Node13&#45;&gt;Node14</title>
<path fill="none" stroke="midnightblue" d="M789.234,-171.81C800.768,-167.067 813.521,-161.821 825.558,-156.87"/>
<polygon fill="midnightblue" stroke="midnightblue" points="827.104,-160.019 835.021,-152.979 824.441,-153.545 827.104,-160.019"/>
</g>
<!-- Node13&#45;&gt;Node15 -->
<g id="edge18" class="edge"><title>Node13&#45;&gt;Node15</title>
<path fill="none" stroke="midnightblue" d="M787.245,-203.984C824.713,-217.354 882.209,-229.981 920,-200.947 969.242,-163.115 918.058,-115.103 956,-65.9468 956.564,-65.2165 957.155,-64.5041 957.771,-63.8093"/>
<polygon fill="midnightblue" stroke="midnightblue" points="960.16,-66.3671 965.164,-57.0281 955.429,-61.2086 960.16,-66.3671"/>
</g>
<!-- Node16 -->
<g id="node16" class="node"><title>Node16</title>
<g id="a_node16"><a xlink:href="string__utilities_8hpp.html#a657118c43fe44a8454311075655ac9d4" target="_top" xlink:title="vector_to_string">
<polygon fill="white" stroke="black" points="831.426,-171.947 831.426,-191.947 918.574,-191.947 918.574,-171.947 831.426,-171.947"/>
<text text-anchor="middle" x="875" y="-177.947" font-family="Helvetica,sans-Serif" font-size="10.00">vector_to_string</text>
</a>
</g>
</g>
<!-- Node13&#45;&gt;Node16 -->
<g id="edge17" class="edge"><title>Node13&#45;&gt;Node16</title>
<path fill="none" stroke="midnightblue" d="M793.718,-185.831C802.533,-185.405 811.889,-184.952 820.983,-184.512"/>
<polygon fill="midnightblue" stroke="midnightblue" points="821.275,-188.002 831.094,-184.023 820.937,-181.01 821.275,-188.002"/>
</g>
<!-- Node14&#45;&gt;Node15 -->
<g id="edge16" class="edge"><title>Node14&#45;&gt;Node15</title>
<path fill="none" stroke="midnightblue" d="M906.812,-120.699C911.427,-117.719 915.98,-114.437 920,-110.947 939.342,-94.1571 936.516,-82.5714 956,-65.9468 957.287,-64.849 958.628,-63.775 960.01,-62.7273"/>
<polygon fill="midnightblue" stroke="midnightblue" points="962.012,-65.5985 968.249,-57.0338 958.032,-59.8399 962.012,-65.5985"/>
</g>
<!-- Node17&#45;&gt;Node8 -->
<g id="edge21" class="edge"><title>Node17&#45;&gt;Node8</title>
<path fill="none" stroke="midnightblue" d="M909.929,-102.1C913.606,-104.726 917.07,-107.674 920,-110.947 964.832,-161.029 987.324,-240.069 995.837,-276.864"/>
<polygon fill="midnightblue" stroke="midnightblue" points="992.467,-277.837 998.039,-286.848 999.303,-276.329 992.467,-277.837"/>
</g>
<!-- Node18 -->
<g id="node18" class="node"><title>Node18</title>
<g id="a_node18"><a xlink:href="classfile__specification.html#ab6e2c3cc492528550d2c4021d3a1c225" target="_top" xlink:title="file_specification\l::path">
<polygon fill="white" stroke="black" points="956.313,-75.9468 956.313,-107.947 1045.69,-107.947 1045.69,-75.9468 956.313,-75.9468"/>
<text text-anchor="start" x="964.313" y="-93.9468" font-family="Helvetica,sans-Serif" font-size="10.00">file_specification</text>
<text text-anchor="middle" x="1001" y="-81.9468" font-family="Helvetica,sans-Serif" font-size="10.00">::path</text>
</a>
</g>
</g>
<!-- Node17&#45;&gt;Node18 -->
<g id="edge22" class="edge"><title>Node17&#45;&gt;Node18</title>
<path fill="none" stroke="midnightblue" d="M919.718,-88.0622C928.238,-88.4744 937.263,-88.9112 946.068,-89.3372"/>
<polygon fill="midnightblue" stroke="midnightblue" points="946.102,-92.8428 956.259,-89.8303 946.44,-85.851 946.102,-92.8428"/>
</g>
<!-- Node19&#45;&gt;Node14 -->
<g id="edge24" class="edge"><title>Node19&#45;&gt;Node14</title>
<path fill="none" stroke="midnightblue" d="M793.718,-136.947C802.238,-136.947 811.263,-136.947 820.068,-136.947"/>
<polygon fill="midnightblue" stroke="midnightblue" points="820.259,-140.447 830.259,-136.947 820.259,-133.447 820.259,-140.447"/>
</g>
<!-- Node19&#45;&gt;Node17 -->
<g id="edge25" class="edge"><title>Node19&#45;&gt;Node17</title>
<path fill="none" stroke="midnightblue" d="M789.234,-120.81C800.768,-116.067 813.521,-110.821 825.558,-105.87"/>
<polygon fill="midnightblue" stroke="midnightblue" points="827.104,-109.019 835.021,-101.979 824.441,-102.545 827.104,-109.019"/>
</g>
<!-- Node20&#45;&gt;Node15 -->
<g id="edge27" class="edge"><title>Node20&#45;&gt;Node15</title>
<path fill="none" stroke="midnightblue" d="M793.833,-45.8948C836.186,-44.8784 900.441,-43.3362 945.945,-42.2441"/>
<polygon fill="midnightblue" stroke="midnightblue" points="946.304,-45.7366 956.218,-41.9976 946.136,-38.7386 946.304,-45.7366"/>
</g>
<!-- Node20&#45;&gt;Node17 -->
<g id="edge28" class="edge"><title>Node20&#45;&gt;Node17</title>
<path fill="none" stroke="midnightblue" d="M793.718,-60.6968C802.423,-63.4346 811.656,-66.3386 820.642,-69.1648"/>
<polygon fill="midnightblue" stroke="midnightblue" points="819.67,-72.528 830.259,-72.1896 821.77,-65.8505 819.67,-72.528"/>
</g>
<!-- Node23 -->
<g id="node23" class="node"><title>Node23</title>
<g id="a_node23"><a xlink:href="classotext.html#a8b6ef711a56f216ce27c867e9fc43065" target="_top" xlink:title="otext::set_integer\l_radix">
<polygon fill="white" stroke="black" points="283.643,-196.947 283.643,-228.947 376.357,-228.947 376.357,-196.947 283.643,-196.947"/>
<text text-anchor="start" x="291.643" y="-214.947" font-family="Helvetica,sans-Serif" font-size="10.00">otext::set_integer</text>
<text text-anchor="middle" x="330" y="-202.947" font-family="Helvetica,sans-Serif" font-size="10.00">_radix</text>
</a>
</g>
</g>
<!-- Node22&#45;&gt;Node23 -->
<g id="edge33" class="edge"><title>Node22&#45;&gt;Node23</title>
<path fill="none" stroke="midnightblue" d="M219.327,-233.127C232.935,-230.623 253.676,-226.806 273.472,-223.164"/>
<polygon fill="midnightblue" stroke="midnightblue" points="274.184,-226.592 283.386,-221.34 272.917,-219.707 274.184,-226.592"/>
</g>
<!-- Node24 -->
<g id="node24" class="node"><title>Node24</title>
<g id="a_node24"><a xlink:href="classobuff.html#a5d68caa655d1fb38e467ab5fabbaaa0d" target="_top" xlink:title="obuff::set_integer\l_radix">
<polygon fill="white" stroke="black" points="442.45,-196.947 442.45,-228.947 535.55,-228.947 535.55,-196.947 442.45,-196.947"/>
<text text-anchor="start" x="450.45" y="-214.947" font-family="Helvetica,sans-Serif" font-size="10.00">obuff::set_integer</text>
<text text-anchor="middle" x="489" y="-202.947" font-family="Helvetica,sans-Serif" font-size="10.00">_radix</text>
</a>
</g>
</g>
<!-- Node23&#45;&gt;Node24 -->
<g id="edge34" class="edge"><title>Node23&#45;&gt;Node24</title>
<path fill="none" stroke="midnightblue" d="M376.411,-212.947C393.828,-212.947 413.906,-212.947 432.187,-212.947"/>
<polygon fill="midnightblue" stroke="midnightblue" points="432.419,-216.447 442.419,-212.947 432.419,-209.447 432.419,-216.447"/>
</g>
</g>
</svg>
