<?xml version="1.0" encoding="UTF-8" standalone="no"?>
<!DOCTYPE svg PUBLIC "-//W3C//DTD SVG 1.1//EN"
 "http://www.w3.org/Graphics/SVG/1.1/DTD/svg11.dtd">
<!-- Generated by graphviz version 2.32.0 (20130916.1925)
 -->
<!-- Title: skipwhite Pages: 1 -->
<svg width="288pt" height="28pt"
 viewBox="0.00 0.00 288.00 28.00" xmlns="http://www.w3.org/2000/svg" xmlns:xlink="http://www.w3.org/1999/xlink">
<g id="graph0" class="graph" transform="scale(1 1) rotate(0) translate(4 24)">
<title>skipwhite</title>
<polygon fill="white" stroke="white" points="-4,5 -4,-24 285,-24 285,5 -4,5"/>
<!-- Node1 -->
<g id="node1" class="node"><title>Node1</title>
<polygon fill="#bfbfbf" stroke="black" points="0.436035,-0 0.436035,-20 57.564,-20 57.564,-0 0.436035,-0"/>
<text text-anchor="middle" x="29" y="-6" font-family="Helvetica,sans-Serif" font-size="10.00">skipwhite</text>
</g>
<!-- Node2 -->
<g id="node2" class="node"><title>Node2</title>
<g id="a_node2"><a xlink:href="textio_8cpp.html#a47d6fa76227d95d3bb473bd7e67b078f" target="_top" xlink:title="get_token">
<polygon fill="white" stroke="black" points="94.0371,-0 94.0371,-20 153.963,-20 153.963,-0 94.0371,-0"/>
<text text-anchor="middle" x="124" y="-6" font-family="Helvetica,sans-Serif" font-size="10.00">get_token</text>
</a>
</g>
</g>
<!-- Node1&#45;&gt;Node2 -->
<g id="edge1" class="edge"><title>Node1&#45;&gt;Node2</title>
<path fill="none" stroke="midnightblue" d="M67.6765,-10C76.454,-10 85.6669,-10 94.0015,-10"/>
<polygon fill="midnightblue" stroke="midnightblue" points="67.6513,-6.5001 57.6513,-10 67.6512,-13.5001 67.6513,-6.5001"/>
</g>
<!-- Node3 -->
<g id="node3" class="node"><title>Node3</title>
<g id="a_node3"><a xlink:href="classitext.html#ae16b1e0bfc667d9f5feb706438326240" target="_top" xlink:title="itext::operator\&gt;\&gt;">
<polygon fill="white" stroke="black" points="190.589,-0 190.589,-20 279.411,-20 279.411,-0 190.589,-0"/>
<text text-anchor="middle" x="235" y="-6" font-family="Helvetica,sans-Serif" font-size="10.00">itext::operator&gt;&gt;</text>
</a>
</g>
</g>
<!-- Node2&#45;&gt;Node3 -->
<g id="edge2" class="edge"><title>Node2&#45;&gt;Node3</title>
<path fill="none" stroke="midnightblue" d="M164.224,-10C172.702,-10 181.717,-10 190.352,-10"/>
<polygon fill="midnightblue" stroke="midnightblue" points="164.21,-6.5001 154.21,-10 164.21,-13.5001 164.21,-6.5001"/>
</g>
</g>
</svg>
