<?xml version="1.0" encoding="UTF-8" standalone="no"?>
<!DOCTYPE svg PUBLIC "-//W3C//DTD SVG 1.1//EN"
 "http://www.w3.org/Graphics/SVG/1.1/DTD/svg11.dtd">
<!-- Generated by graphviz version 2.32.0 (20130916.1925)
 -->
<!-- Title: skipendl Pages: 1 -->
<svg width="302pt" height="145pt"
 viewBox="0.00 0.00 302.00 145.00" xmlns="http://www.w3.org/2000/svg" xmlns:xlink="http://www.w3.org/1999/xlink">
<g id="graph0" class="graph" transform="scale(1 1) rotate(0) translate(4 141)">
<title>skipendl</title>
<polygon fill="white" stroke="white" points="-4,5 -4,-141 299,-141 299,5 -4,5"/>
<!-- Node1 -->
<g id="node1" class="node"><title>Node1</title>
<polygon fill="#bfbfbf" stroke="black" points="0.655273,-38 0.655273,-58 53.3447,-58 53.3447,-38 0.655273,-38"/>
<text text-anchor="middle" x="27" y="-44" font-family="Helvetica,sans-Serif" font-size="10.00">skipendl</text>
</g>
<!-- Node2 -->
<g id="node2" class="node"><title>Node2</title>
<g id="a_node2"><a xlink:href="classitext.html#aaee598f762de2ee4100c1a4c89f7ea44" target="_top" xlink:title="itext::get">
<polygon fill="white" stroke="black" points="94.1011,-58 94.1011,-78 147.899,-78 147.899,-58 94.1011,-58"/>
<text text-anchor="middle" x="121" y="-64" font-family="Helvetica,sans-Serif" font-size="10.00">itext::get</text>
</a>
</g>
</g>
<!-- Node1&#45;&gt;Node2 -->
<g id="edge1" class="edge"><title>Node1&#45;&gt;Node2</title>
<path fill="none" stroke="midnightblue" d="M53.6271,-53.5711C63.0379,-55.6169 73.8742,-57.9727 84.0259,-60.1795"/>
<polygon fill="midnightblue" stroke="midnightblue" points="83.3558,-63.6155 93.8711,-62.3198 84.8428,-56.7753 83.3558,-63.6155"/>
</g>
<!-- Node7 -->
<g id="node7" class="node"><title>Node7</title>
<g id="a_node7"><a xlink:href="classitext.html#a38bd74dce665f9902b0be3ebc89fa236" target="_top" xlink:title="itext::peek">
<polygon fill="white" stroke="black" points="90.2095,-19 90.2095,-39 151.791,-39 151.791,-19 90.2095,-19"/>
<text text-anchor="middle" x="121" y="-25" font-family="Helvetica,sans-Serif" font-size="10.00">itext::peek</text>
</a>
</g>
</g>
<!-- Node1&#45;&gt;Node7 -->
<g id="edge6" class="edge"><title>Node1&#45;&gt;Node7</title>
<path fill="none" stroke="midnightblue" d="M53.6271,-42.7074C61.8167,-41.0161 71.0858,-39.1018 80.0438,-37.2518"/>
<polygon fill="midnightblue" stroke="midnightblue" points="80.8659,-40.656 89.9514,-35.2057 79.4501,-33.8006 80.8659,-40.656"/>
</g>
<!-- Node3 -->
<g id="node3" class="node"><title>Node3</title>
<g id="a_node3"><a xlink:href="classibuff.html#afddfd5bdd2219ccd01dd176e5cd57369" target="_top" xlink:title="ibuff::get">
<polygon fill="white" stroke="black" points="213.908,-117 213.908,-137 268.092,-137 268.092,-117 213.908,-117"/>
<text text-anchor="middle" x="241" y="-123" font-family="Helvetica,sans-Serif" font-size="10.00">ibuff::get</text>
</a>
</g>
</g>
<!-- Node2&#45;&gt;Node3 -->
<g id="edge2" class="edge"><title>Node2&#45;&gt;Node3</title>
<path fill="none" stroke="midnightblue" d="M137.332,-78.0517C150.457,-86.4127 170.027,-98.3084 188,-107 193.116,-109.474 198.622,-111.866 204.07,-114.083"/>
<polygon fill="midnightblue" stroke="midnightblue" points="203.13,-117.473 213.718,-117.865 205.685,-110.956 203.13,-117.473"/>
</g>
<!-- Node4 -->
<g id="node4" class="node"><title>Node4</title>
<g id="a_node4"><a xlink:href="classibuff.html#a34316b72de5ddac433ef6d29d7c00eb4" target="_top" xlink:title="ibuff::newline_mode">
<polygon fill="white" stroke="black" points="188.615,-39 188.615,-59 293.385,-59 293.385,-39 188.615,-39"/>
<text text-anchor="middle" x="241" y="-45" font-family="Helvetica,sans-Serif" font-size="10.00">ibuff::newline_mode</text>
</a>
</g>
</g>
<!-- Node2&#45;&gt;Node4 -->
<g id="edge3" class="edge"><title>Node2&#45;&gt;Node4</title>
<path fill="none" stroke="midnightblue" d="M148.188,-63.7833C157.141,-62.3417 167.572,-60.6621 178.126,-58.9628"/>
<polygon fill="midnightblue" stroke="midnightblue" points="178.922,-62.3798 188.238,-57.3345 177.809,-55.4688 178.922,-62.3798"/>
</g>
<!-- Node5 -->
<g id="node5" class="node"><title>Node5</title>
<g id="a_node5"><a xlink:href="classibuff.html#af83bd07bbed7b837d08c8bafdfbd3e87" target="_top" xlink:title="ibuff::peek">
<polygon fill="white" stroke="black" points="210.017,-0 210.017,-20 271.983,-20 271.983,-0 210.017,-0"/>
<text text-anchor="middle" x="241" y="-6" font-family="Helvetica,sans-Serif" font-size="10.00">ibuff::peek</text>
</a>
</g>
</g>
<!-- Node2&#45;&gt;Node5 -->
<g id="edge4" class="edge"><title>Node2&#45;&gt;Node5</title>
<path fill="none" stroke="midnightblue" d="M137.897,-57.9124C151.037,-49.8047 170.336,-38.4196 188,-30 192.458,-27.8749 197.207,-25.8019 201.953,-23.8446"/>
<polygon fill="midnightblue" stroke="midnightblue" points="203.597,-26.9575 211.596,-20.0103 201.011,-20.4528 203.597,-26.9575"/>
</g>
<!-- Node6 -->
<g id="node6" class="node"><title>Node6</title>
<g id="a_node6"><a xlink:href="classibuff.html#aecdbe63ee9b456ffac55153b8aaeec79" target="_top" xlink:title="ibuff::increment">
<polygon fill="white" stroke="black" points="198.906,-78 198.906,-98 283.094,-98 283.094,-78 198.906,-78"/>
<text text-anchor="middle" x="241" y="-84" font-family="Helvetica,sans-Serif" font-size="10.00">ibuff::increment</text>
</a>
</g>
</g>
<!-- Node2&#45;&gt;Node6 -->
<g id="edge5" class="edge"><title>Node2&#45;&gt;Node6</title>
<path fill="none" stroke="midnightblue" d="M148.188,-72.4386C160.099,-74.4574 174.626,-76.9196 188.577,-79.2843"/>
<polygon fill="midnightblue" stroke="midnightblue" points="188.145,-82.7609 198.589,-80.9813 189.315,-75.8593 188.145,-82.7609"/>
</g>
<!-- Node7&#45;&gt;Node4 -->
<g id="edge8" class="edge"><title>Node7&#45;&gt;Node4</title>
<path fill="none" stroke="midnightblue" d="M152.082,-34.0986C160.205,-35.4754 169.3,-37.017 178.477,-38.5724"/>
<polygon fill="midnightblue" stroke="midnightblue" points="177.98,-42.038 188.425,-40.2584 179.15,-35.1364 177.98,-42.038"/>
</g>
<!-- Node7&#45;&gt;Node5 -->
<g id="edge7" class="edge"><title>Node7&#45;&gt;Node5</title>
<path fill="none" stroke="midnightblue" d="M152.082,-24.1563C166.645,-21.8114 184.331,-18.9636 200.012,-16.4388"/>
<polygon fill="midnightblue" stroke="midnightblue" points="200.657,-19.8801 209.973,-14.8348 199.544,-12.9691 200.657,-19.8801"/>
</g>
</g>
</svg>
