<?xml version="1.0" encoding="UTF-8" standalone="no"?>
<!DOCTYPE svg PUBLIC "-//W3C//DTD SVG 1.1//EN"
 "http://www.w3.org/Graphics/SVG/1.1/DTD/svg11.dtd">
<!-- Generated by graphviz version 2.32.0 (20130916.1925)
 -->
<!-- Title: include/stlplus/textio.hpp Pages: 1 -->
<svg width="311pt" height="146pt"
 viewBox="0.00 0.00 311.00 146.00" xmlns="http://www.w3.org/2000/svg" xmlns:xlink="http://www.w3.org/1999/xlink">
<g id="graph0" class="graph" transform="scale(1 1) rotate(0) translate(4 142)">
<title>include/stlplus/textio.hpp</title>
<polygon fill="white" stroke="white" points="-4,5 -4,-142 308,-142 308,5 -4,5"/>
<!-- Node1 -->
<g id="node1" class="node"><title>Node1</title>
<polygon fill="#bfbfbf" stroke="black" points="117.522,-117 117.522,-137 242.478,-137 242.478,-117 117.522,-117"/>
<text text-anchor="middle" x="180" y="-123" font-family="Helvetica,sans-Serif" font-size="10.00">include/stlplus/textio.hpp</text>
</g>
<!-- Node2 -->
<g id="node2" class="node"><title>Node2</title>
<g id="a_node2"><a xlink:href="os__fixes_8hpp.html" target="_top" xlink:title="os_fixes.hpp">
<polygon fill="white" stroke="black" points="-0.0737305,-59 -0.0737305,-79 72.0737,-79 72.0737,-59 -0.0737305,-59"/>
<text text-anchor="middle" x="36" y="-65" font-family="Helvetica,sans-Serif" font-size="10.00">os_fixes.hpp</text>
</a>
</g>
</g>
<!-- Node1&#45;&gt;Node2 -->
<g id="edge1" class="edge"><title>Node1&#45;&gt;Node2</title>
<path fill="none" stroke="midnightblue" d="M156.543,-116.878C132.695,-107.603 95.5451,-93.1564 68.7896,-82.7515"/>
<polygon fill="midnightblue" stroke="midnightblue" points="70.0352,-79.4806 59.4465,-79.1181 67.498,-86.0046 70.0352,-79.4806"/>
</g>
<!-- Node4 -->
<g id="node4" class="node"><title>Node4</title>
<g id="a_node4"><a xlink:href="format__types_8hpp.html" target="_top" xlink:title="format_types.hpp">
<polygon fill="white" stroke="black" points="90.3672,-59 90.3672,-79 183.633,-79 183.633,-59 90.3672,-59"/>
<text text-anchor="middle" x="137" y="-65" font-family="Helvetica,sans-Serif" font-size="10.00">format_types.hpp</text>
</a>
</g>
</g>
<!-- Node1&#45;&gt;Node4 -->
<g id="edge3" class="edge"><title>Node1&#45;&gt;Node4</title>
<path fill="none" stroke="midnightblue" d="M172.899,-116.753C166.763,-108.761 157.73,-96.9975 150.261,-87.2698"/>
<polygon fill="midnightblue" stroke="midnightblue" points="152.835,-84.8751 143.968,-79.0752 147.283,-89.1383 152.835,-84.8751"/>
</g>
<!-- Node5 -->
<g id="node5" class="node"><title>Node5</title>
<polygon fill="white" stroke="#bfbfbf" points="201.384,-59 201.384,-79 244.616,-79 244.616,-59 201.384,-59"/>
<text text-anchor="middle" x="223" y="-65" font-family="Helvetica,sans-Serif" font-size="10.00">vector</text>
</g>
<!-- Node1&#45;&gt;Node5 -->
<g id="edge4" class="edge"><title>Node1&#45;&gt;Node5</title>
<path fill="none" stroke="midnightblue" d="M187.101,-116.753C193.237,-108.761 202.27,-96.9975 209.739,-87.2698"/>
<polygon fill="midnightblue" stroke="midnightblue" points="212.717,-89.1383 216.032,-79.0752 207.165,-84.8751 212.717,-89.1383"/>
</g>
<!-- Node6 -->
<g id="node6" class="node"><title>Node6</title>
<polygon fill="white" stroke="#bfbfbf" points="262.773,-59 262.773,-79 303.227,-79 303.227,-59 262.773,-59"/>
<text text-anchor="middle" x="283" y="-65" font-family="Helvetica,sans-Serif" font-size="10.00">string</text>
</g>
<!-- Node1&#45;&gt;Node6 -->
<g id="edge5" class="edge"><title>Node1&#45;&gt;Node6</title>
<path fill="none" stroke="midnightblue" d="M197.008,-116.753C213.432,-107.823 238.517,-94.1848 257.363,-83.9388"/>
<polygon fill="midnightblue" stroke="midnightblue" points="259.194,-86.9267 266.308,-79.0752 255.851,-80.7769 259.194,-86.9267"/>
</g>
<!-- Node3 -->
<g id="node3" class="node"><title>Node3</title>
<polygon fill="white" stroke="#bfbfbf" points="10.4878,-1 10.4878,-21 61.5122,-21 61.5122,-1 10.4878,-1"/>
<text text-anchor="middle" x="36" y="-7" font-family="Helvetica,sans-Serif" font-size="10.00">unistd.h</text>
</g>
<!-- Node2&#45;&gt;Node3 -->
<g id="edge2" class="edge"><title>Node2&#45;&gt;Node3</title>
<path fill="none" stroke="midnightblue" d="M36,-58.7527C36,-51.2504 36,-40.4238 36,-31.0781"/>
<polygon fill="midnightblue" stroke="midnightblue" points="39.5001,-31.0752 36,-21.0752 32.5001,-31.0752 39.5001,-31.0752"/>
</g>
</g>
</svg>
