<?xml version="1.0" encoding="UTF-8" standalone="no"?>
<!DOCTYPE svg PUBLIC "-//W3C//DTD SVG 1.1//EN"
 "http://www.w3.org/Graphics/SVG/1.1/DTD/svg11.dtd">
<!-- Generated by graphviz version 2.32.0 (20130916.1925)
 -->
<!-- Title: TIFFGrowStrips Pages: 1 -->
<!--zoomable 145 -->
<svg id="main" version="1.1" xmlns="http://www.w3.org/2000/svg" xmlns:xlink="http://www.w3.org/1999/xlink" xml:space="preserve" onload="init(evt)">
        <defs>
                <circle id="rim" cx="0" cy="0" r="7"/>
                <circle id="rim2" cx="0" cy="0" r="3.5"/>
                <g id="zoomPlus">
                        <use xlink:href="#rim" fill="#404040">
                                <set attributeName="fill" to="#808080" begin="zoomplus.mouseover" end="zoomplus.mouseout"/>
                        </use>
                        <path d="M-4,0h8M0,-4v8" fill="none" stroke="white" stroke-width="1.5" pointer-events="none"/>
                </g>
                <g id="zoomMin">
                        <use xlink:href="#rim" fill="#404040">
                                <set attributeName="fill" to="#808080" begin="zoomminus.mouseover" end="zoomminus.mouseout"/>
                        </use>
                        <path d="M-4,0h8" fill="none" stroke="white" stroke-width="1.5" pointer-events="none"/>
                </g>
                <g id="dirArrow">
                        <path fill="none" stroke="white" stroke-width="1.5" d="M0,-3.0v7 M-2.5,-0.5L0,-3.0L2.5,-0.5"/>
                </g>
               <g id="resetDef">
                       <use xlink:href="#rim2" fill="#404040">
                               <set attributeName="fill" to="#808080" begin="reset.mouseover" end="reset.mouseout"/>
                       </use>
               </g>
        </defs>

<script type="text/javascript">
var viewWidth = 716;
var viewHeight = 145;
var sectionId = 'dynsection-6';
</script>
<script xlink:href="svgpan.js"/>
<svg id="graph" class="graph">
<g id="viewport">
<title>TIFFGrowStrips</title>
<polygon fill="white" stroke="white" points="-4,5 -4,-141 713,-141 713,5 -4,5"/>
<!-- Node1 -->
<g id="node1" class="node"><title>Node1</title>
<polygon fill="#bfbfbf" stroke="black" points="0.72168,-78 0.72168,-98 87.2783,-98 87.2783,-78 0.72168,-78"/>
<text text-anchor="middle" x="44" y="-84" font-family="Helvetica,sans-Serif" font-size="10.00">TIFFGrowStrips</text>
</g>
<!-- Node2 -->
<g id="node2" class="node"><title>Node2</title>
<g id="a_node2"><a xlink:href="tiffio_8h.html#a97ab5cd747490e96fc3902ab4eaaca77" target="_top" xlink:title="TIFFWriteEncodedStrip">
<polygon fill="white" stroke="black" points="123.852,-117 123.852,-137 244.148,-137 244.148,-117 123.852,-117"/>
<text text-anchor="middle" x="184" y="-123" font-family="Helvetica,sans-Serif" font-size="10.00">TIFFWriteEncodedStrip</text>
</a>
</g>
</g>
<!-- Node1&#45;&gt;Node2 -->
<g id="edge1" class="edge"><title>Node1&#45;&gt;Node2</title>
<path fill="none" stroke="midnightblue" d="M90.2836,-100.798C108.898,-106.058 130.134,-112.06 147.582,-116.991"/>
<polygon fill="midnightblue" stroke="midnightblue" points="91.1134,-97.395 80.5384,-98.0435 89.2097,-104.131 91.1134,-97.395"/>
</g>
<!-- Node3 -->
<g id="node3" class="node"><title>Node3</title>
<g id="a_node3"><a xlink:href="tiffio_8h.html#a7dcab5b4d2f3edac171e1392fb938061" target="_top" xlink:title="TIFFWriteRawStrip">
<polygon fill="white" stroke="black" points="133.588,-78 133.588,-98 234.412,-98 234.412,-78 133.588,-78"/>
<text text-anchor="middle" x="184" y="-84" font-family="Helvetica,sans-Serif" font-size="10.00">TIFFWriteRawStrip</text>
</a>
</g>
</g>
<!-- Node1&#45;&gt;Node3 -->
<g id="edge2" class="edge"><title>Node1&#45;&gt;Node3</title>
<path fill="none" stroke="midnightblue" d="M97.5707,-88C109.232,-88 121.557,-88 133.107,-88"/>
<polygon fill="midnightblue" stroke="midnightblue" points="97.5306,-84.5001 87.5306,-88 97.5306,-91.5001 97.5306,-84.5001"/>
</g>
<!-- Node4 -->
<g id="node4" class="node"><title>Node4</title>
<g id="a_node4"><a xlink:href="tiffio_8h.html#aeb8ced7ec5236ab9b4f5db5ec3c200ad" target="_top" xlink:title="TIFFWriteScanline">
<polygon fill="white" stroke="black" points="134.691,-39 134.691,-59 233.309,-59 233.309,-39 134.691,-39"/>
<text text-anchor="middle" x="184" y="-45" font-family="Helvetica,sans-Serif" font-size="10.00">TIFFWriteScanline</text>
</a>
</g>
</g>
<!-- Node1&#45;&gt;Node4 -->
<g id="edge3" class="edge"><title>Node1&#45;&gt;Node4</title>
<path fill="none" stroke="midnightblue" d="M90.2836,-75.2025C108.898,-69.9419 130.134,-63.9403 147.582,-59.0094"/>
<polygon fill="midnightblue" stroke="midnightblue" points="89.2097,-71.8688 80.5384,-77.9565 91.1134,-78.605 89.2097,-71.8688"/>
</g>
<!-- Node5 -->
<g id="node5" class="node"><title>Node5</title>
<g id="a_node5"><a xlink:href="classrc_window.html#adf6ca47beb76a8bfdc73369f80dd003d" target="_top" xlink:title="rcWindow::tiff">
<polygon fill="white" stroke="black" points="280.083,-39 280.083,-59 355.917,-59 355.917,-39 280.083,-39"/>
<text text-anchor="middle" x="318" y="-45" font-family="Helvetica,sans-Serif" font-size="10.00">rcWindow::tiff</text>
</a>
</g>
</g>
<!-- Node4&#45;&gt;Node5 -->
<g id="edge4" class="edge"><title>Node4&#45;&gt;Node5</title>
<path fill="none" stroke="midnightblue" d="M243.603,-49C255.89,-49 268.523,-49 279.769,-49"/>
<polygon fill="midnightblue" stroke="midnightblue" points="243.402,-45.5001 233.402,-49 243.402,-52.5001 243.402,-45.5001"/>
</g>
<!-- Node6 -->
<g id="node6" class="node"><title>Node6</title>
<g id="a_node6"><a xlink:href="classrc_visual_function.html#a1df64c3605f3a0a4670118911ac783b1" target="_top" xlink:title="rcVisualFunction::cardiac\lMeasure">
<polygon fill="white" stroke="black" points="401.231,-78 401.231,-110 528.769,-110 528.769,-78 401.231,-78"/>
<text text-anchor="start" x="409.231" y="-96" font-family="Helvetica,sans-Serif" font-size="10.00">rcVisualFunction::cardiac</text>
<text text-anchor="middle" x="465" y="-84" font-family="Helvetica,sans-Serif" font-size="10.00">Measure</text>
</a>
</g>
</g>
<!-- Node5&#45;&gt;Node6 -->
<g id="edge5" class="edge"><title>Node5&#45;&gt;Node6</title>
<path fill="none" stroke="midnightblue" d="M361.136,-62.0766C377.101,-67.0314 395.464,-72.7302 412.216,-77.9292"/>
<polygon fill="midnightblue" stroke="midnightblue" points="362.129,-58.7202 351.541,-59.0989 360.054,-65.4057 362.129,-58.7202"/>
</g>
<!-- Node8 -->
<g id="node8" class="node"><title>Node8</title>
<g id="a_node8"><a xlink:href="classrc_engine_impl.html#a00ca0d227e480ddb5bd6be293b55d2c9" target="_top" xlink:title="rcEngineImpl::muscleTracker">
<polygon fill="white" stroke="black" points="392.442,-39 392.442,-59 537.558,-59 537.558,-39 392.442,-39"/>
<text text-anchor="middle" x="465" y="-45" font-family="Helvetica,sans-Serif" font-size="10.00">rcEngineImpl::muscleTracker</text>
</a>
</g>
</g>
<!-- Node5&#45;&gt;Node8 -->
<g id="edge7" class="edge"><title>Node5&#45;&gt;Node8</title>
<path fill="none" stroke="midnightblue" d="M365.979,-49C374.436,-49 383.423,-49 392.392,-49"/>
<polygon fill="midnightblue" stroke="midnightblue" points="365.965,-45.5001 355.965,-49 365.965,-52.5001 365.965,-45.5001"/>
</g>
<!-- Node9 -->
<g id="node9" class="node"><title>Node9</title>
<g id="a_node9"><a xlink:href="rc__edge_8h.html#a11fbb1eb0376dd39a4be2ea72b7ef156" target="_top" xlink:title="rfDirectionSignal">
<polygon fill="white" stroke="black" points="420.318,-0 420.318,-20 509.682,-20 509.682,-0 420.318,-0"/>
<text text-anchor="middle" x="465" y="-6" font-family="Helvetica,sans-Serif" font-size="10.00">rfDirectionSignal</text>
</a>
</g>
</g>
<!-- Node5&#45;&gt;Node9 -->
<g id="edge8" class="edge"><title>Node5&#45;&gt;Node9</title>
<path fill="none" stroke="midnightblue" d="M365.669,-36.4476C385.378,-31.1467 408.015,-25.0579 426.599,-20.0597"/>
<polygon fill="midnightblue" stroke="midnightblue" points="364.713,-33.0804 355.965,-39.0577 366.531,-39.8402 364.713,-33.0804"/>
</g>
<!-- Node7 -->
<g id="node7" class="node"><title>Node7</title>
<g id="a_node7"><a xlink:href="classrc_visual_function.html#ac3135ba614a9ba5080e78c3f2f426312" target="_top" xlink:title="rcVisualFunction::measure">
<polygon fill="white" stroke="black" points="573.896,-84 573.896,-104 708.104,-104 708.104,-84 573.896,-84"/>
<text text-anchor="middle" x="641" y="-90" font-family="Helvetica,sans-Serif" font-size="10.00">rcVisualFunction::measure</text>
</a>
</g>
</g>
<!-- Node6&#45;&gt;Node7 -->
<g id="edge6" class="edge"><title>Node6&#45;&gt;Node7</title>
<path fill="none" stroke="midnightblue" d="M538.873,-94C550.44,-94 562.349,-94 573.753,-94"/>
<polygon fill="midnightblue" stroke="midnightblue" points="538.818,-90.5001 528.818,-94 538.818,-97.5001 538.818,-90.5001"/>
</g>
</g>
</svg>
        <g id="navigator" transform="translate(0 0)" fill="#404254">
                <rect fill="#f2f5e9" fill-opacity="0.5" stroke="#606060" stroke-width=".5" x="0" y="0" width="60" height="60"/>
                <use id="zoomplus" xlink:href="#zoomPlus" x="17" y="9" onmousedown="handleZoom(evt,'in')"/>
                <use id="zoomminus" xlink:href="#zoomMin" x="42" y="9" onmousedown="handleZoom(evt,'out')"/>
                <use id="reset" xlink:href="#resetDef" x="30" y="36" onmousedown="handleReset()"/>
                <g id="arrowUp" xlink:href="#dirArrow" transform="translate(30 24)" onmousedown="handlePan(0,-1)">
                  <use xlink:href="#rim" fill="#404040">
                        <set attributeName="fill" to="#808080" begin="arrowUp.mouseover" end="arrowUp.mouseout"/>
                  </use>
                  <path fill="none" stroke="white" stroke-width="1.5" d="M0,-3.0v7 M-2.5,-0.5L0,-3.0L2.5,-0.5"/>
                </g>
                <g id="arrowRight" xlink:href="#dirArrow" transform="rotate(90) translate(36 -43)" onmousedown="handlePan(1,0)">
                  <use xlink:href="#rim" fill="#404040">
                        <set attributeName="fill" to="#808080" begin="arrowRight.mouseover" end="arrowRight.mouseout"/>
                  </use>
                  <path fill="none" stroke="white" stroke-width="1.5" d="M0,-3.0v7 M-2.5,-0.5L0,-3.0L2.5,-0.5"/>
                </g>
                <g id="arrowDown" xlink:href="#dirArrow" transform="rotate(180) translate(-30 -48)" onmousedown="handlePan(0,1)">
                  <use xlink:href="#rim" fill="#404040">
                        <set attributeName="fill" to="#808080" begin="arrowDown.mouseover" end="arrowDown.mouseout"/>
                  </use>
                  <path fill="none" stroke="white" stroke-width="1.5" d="M0,-3.0v7 M-2.5,-0.5L0,-3.0L2.5,-0.5"/>
                </g>
                <g id="arrowLeft" xlink:href="#dirArrow" transform="rotate(270) translate(-36 17)" onmousedown="handlePan(-1,0)">
                  <use xlink:href="#rim" fill="#404040">
                        <set attributeName="fill" to="#808080" begin="arrowLeft.mouseover" end="arrowLeft.mouseout"/>
                  </use>
                  <path fill="none" stroke="white" stroke-width="1.5" d="M0,-3.0v7 M-2.5,-0.5L0,-3.0L2.5,-0.5"/>
                </g>
        </g>
        <svg viewBox="0 0 15 15" width="100%" height="30px" preserveAspectRatio="xMaxYMin meet">
         <g id="arrow_out" transform="scale(0.3 0.3)">
          <a xlink:href="tif__write_8c_a9566917f4b4c4398b084f7171a503f67_icgraph_org.svg" target="_base">
           <rect id="button" ry="5" rx="5" y="6" x="6" height="38" width="38"
                fill="#f2f5e9" fill-opacity="0.5" stroke="#606060" stroke-width="1.0"/>
           <path id="arrow"
             d="M 11.500037,31.436501 C 11.940474,20.09759 22.043105,11.32322 32.158766,21.979434 L 37.068811,17.246167 C 37.068811,17.246167 37.088388,32 37.088388,32 L 22.160133,31.978069 C 22.160133,31.978069 26.997745,27.140456 26.997745,27.140456 C 18.528582,18.264221 13.291696,25.230495 11.500037,31.436501 z"
             style="fill:#404040;"/>
          </a>
         </g>
        </svg>
</svg>
