<?xml version="1.0" encoding="UTF-8" standalone="no"?>
<!DOCTYPE svg PUBLIC "-//W3C//DTD SVG 1.1//EN"
 "http://www.w3.org/Graphics/SVG/1.1/DTD/svg11.dtd">
<!-- Generated by graphviz version 2.32.0 (20130916.1925)
 -->
<!-- Title: TIFFWriteShortTable Pages: 1 -->
<svg width="1760pt" height="260pt"
 viewBox="0.00 0.00 1760.00 260.00" xmlns="http://www.w3.org/2000/svg" xmlns:xlink="http://www.w3.org/1999/xlink">
<g id="graph0" class="graph" transform="scale(1 1) rotate(0) translate(4 256)">
<title>TIFFWriteShortTable</title>
<polygon fill="white" stroke="white" points="-4,5 -4,-256 1757,-256 1757,5 -4,5"/>
<!-- Node1 -->
<g id="node1" class="node"><title>Node1</title>
<polygon fill="#bfbfbf" stroke="black" points="-0.0327148,-156 -0.0327148,-176 108.033,-176 108.033,-156 -0.0327148,-156"/>
<text text-anchor="middle" x="54" y="-162" font-family="Helvetica,sans-Serif" font-size="10.00">TIFFWriteShortTable</text>
</g>
<!-- Node2 -->
<g id="node2" class="node"><title>Node2</title>
<g id="a_node2"><a xlink:href="tif__dirwrite_8c.html#a99ebbf4b3b0fd87a64d558757cf03635" target="_top" xlink:title="_TIFFWriteDirectory">
<polygon fill="white" stroke="black" points="316.088,-156 316.088,-176 421.912,-176 421.912,-156 316.088,-156"/>
<text text-anchor="middle" x="369" y="-162" font-family="Helvetica,sans-Serif" font-size="10.00">_TIFFWriteDirectory</text>
</a>
</g>
</g>
<!-- Node1&#45;&gt;Node2 -->
<g id="edge1" class="edge"><title>Node1&#45;&gt;Node2</title>
<path fill="none" stroke="midnightblue" d="M118.268,-166C176.431,-166 261.632,-166 315.948,-166"/>
<polygon fill="midnightblue" stroke="midnightblue" points="118.096,-162.5 108.096,-166 118.096,-169.5 118.096,-162.5"/>
</g>
<!-- Node24 -->
<g id="node24" class="node"><title>Node24</title>
<g id="a_node24"><a xlink:href="tif__dirwrite_8c.html#a45e31f39bddf37d9620ea43dcebb62ea" target="_top" xlink:title="TIFFWriteTransferFunction">
<polygon fill="white" stroke="black" points="144.261,-137 144.261,-157 279.739,-157 279.739,-137 144.261,-137"/>
<text text-anchor="middle" x="212" y="-143" font-family="Helvetica,sans-Serif" font-size="10.00">TIFFWriteTransferFunction</text>
</a>
</g>
</g>
<!-- Node1&#45;&gt;Node24 -->
<g id="edge26" class="edge"><title>Node1&#45;&gt;Node24</title>
<path fill="none" stroke="midnightblue" d="M118.452,-158.272C126.935,-157.239 135.657,-156.176 144.196,-155.136"/>
<polygon fill="midnightblue" stroke="midnightblue" points="117.753,-154.831 108.25,-159.514 118.6,-161.78 117.753,-154.831"/>
</g>
<!-- Node3 -->
<g id="node3" class="node"><title>Node3</title>
<g id="a_node3"><a xlink:href="tiffio_8h.html#abb5ff4e7abc98286d574600a9a8d0b5f" target="_top" xlink:title="TIFFCheckpointDirectory">
<polygon fill="white" stroke="black" points="458.431,-176 458.431,-196 585.569,-196 585.569,-176 458.431,-176"/>
<text text-anchor="middle" x="522" y="-182" font-family="Helvetica,sans-Serif" font-size="10.00">TIFFCheckpointDirectory</text>
</a>
</g>
</g>
<!-- Node2&#45;&gt;Node3 -->
<g id="edge2" class="edge"><title>Node2&#45;&gt;Node3</title>
<path fill="none" stroke="midnightblue" d="M431.997,-174.211C440.662,-175.359 449.573,-176.539 458.252,-177.689"/>
<polygon fill="midnightblue" stroke="midnightblue" points="432.339,-170.726 421.966,-172.883 431.419,-177.666 432.339,-170.726"/>
</g>
<!-- Node4 -->
<g id="node4" class="node"><title>Node4</title>
<g id="a_node4"><a xlink:href="tiffio_8h.html#a81556034d0f25ab8e5a780a20a2754af" target="_top" xlink:title="TIFFWriteDirectory">
<polygon fill="white" stroke="black" points="471.869,-137 471.869,-157 572.131,-157 572.131,-137 471.869,-137"/>
<text text-anchor="middle" x="522" y="-143" font-family="Helvetica,sans-Serif" font-size="10.00">TIFFWriteDirectory</text>
</a>
</g>
</g>
<!-- Node2&#45;&gt;Node4 -->
<g id="edge3" class="edge"><title>Node2&#45;&gt;Node4</title>
<path fill="none" stroke="midnightblue" d="M431.96,-158.204C445.212,-156.536 459.041,-154.796 471.738,-153.199"/>
<polygon fill="midnightblue" stroke="midnightblue" points="431.45,-154.74 421.966,-159.461 432.324,-161.685 431.45,-154.74"/>
</g>
<!-- Node5 -->
<g id="node5" class="node"><title>Node5</title>
<g id="a_node5"><a xlink:href="tiffio_8h.html#aca3453296ad6a9dc3cbbead4e1bc2792" target="_top" xlink:title="TIFFFlush">
<polygon fill="white" stroke="black" points="647.222,-157 647.222,-177 708.778,-177 708.778,-157 647.222,-157"/>
<text text-anchor="middle" x="678" y="-163" font-family="Helvetica,sans-Serif" font-size="10.00">TIFFFlush</text>
</a>
</g>
</g>
<!-- Node4&#45;&gt;Node5 -->
<g id="edge4" class="edge"><title>Node4&#45;&gt;Node5</title>
<path fill="none" stroke="midnightblue" d="M582.175,-154.685C604.375,-157.568 628.668,-160.723 647.108,-163.118"/>
<polygon fill="midnightblue" stroke="midnightblue" points="582.517,-151.2 572.15,-153.383 581.616,-158.142 582.517,-151.2"/>
</g>
<!-- Node23 -->
<g id="node23" class="node"><title>Node23</title>
<g id="a_node23"><a xlink:href="tiffio_8h.html#a030e9a2ded6444dde1fd9b8164664b8c" target="_top" xlink:title="TIFFRewriteDirectory">
<polygon fill="white" stroke="black" points="622.498,-118 622.498,-138 733.502,-138 733.502,-118 622.498,-118"/>
<text text-anchor="middle" x="678" y="-124" font-family="Helvetica,sans-Serif" font-size="10.00">TIFFRewriteDirectory</text>
</a>
</g>
</g>
<!-- Node4&#45;&gt;Node23 -->
<g id="edge25" class="edge"><title>Node4&#45;&gt;Node23</title>
<path fill="none" stroke="midnightblue" d="M582.115,-139.707C595.373,-138.071 609.38,-136.343 622.443,-134.731"/>
<polygon fill="midnightblue" stroke="midnightblue" points="581.646,-136.238 572.15,-140.936 582.503,-143.185 581.646,-136.238"/>
</g>
<!-- Node6 -->
<g id="node6" class="node"><title>Node6</title>
<g id="a_node6"><a xlink:href="tiffio_8h.html#aceb629aa7034d6d0304207556be3ce17" target="_top" xlink:title="TIFFCleanup">
<polygon fill="white" stroke="black" points="769.823,-157 769.823,-177 844.177,-177 844.177,-157 769.823,-157"/>
<text text-anchor="middle" x="807" y="-163" font-family="Helvetica,sans-Serif" font-size="10.00">TIFFCleanup</text>
</a>
</g>
</g>
<!-- Node5&#45;&gt;Node6 -->
<g id="edge5" class="edge"><title>Node5&#45;&gt;Node6</title>
<path fill="none" stroke="midnightblue" d="M719.345,-167C735.53,-167 754.041,-167 769.787,-167"/>
<polygon fill="midnightblue" stroke="midnightblue" points="719.097,-163.5 709.097,-167 719.097,-170.5 719.097,-163.5"/>
</g>
<!-- Node7 -->
<g id="node7" class="node"><title>Node7</title>
<g id="a_node7"><a xlink:href="tiffio_8h.html#a165611e0432d36de8bcf57f35e161bd3" target="_top" xlink:title="TIFFClientOpen">
<polygon fill="white" stroke="black" points="880.434,-177 880.434,-197 967.566,-197 967.566,-177 880.434,-177"/>
<text text-anchor="middle" x="924" y="-183" font-family="Helvetica,sans-Serif" font-size="10.00">TIFFClientOpen</text>
</a>
</g>
</g>
<!-- Node6&#45;&gt;Node7 -->
<g id="edge6" class="edge"><title>Node6&#45;&gt;Node7</title>
<path fill="none" stroke="midnightblue" d="M854.306,-175.053C862.935,-176.554 871.913,-178.115 880.423,-179.595"/>
<polygon fill="midnightblue" stroke="midnightblue" points="854.839,-171.593 844.387,-173.328 853.639,-178.49 854.839,-171.593"/>
</g>
<!-- Node19 -->
<g id="node19" class="node"><title>Node19</title>
<g id="a_node19"><a xlink:href="tiffio_8h.html#a3fefdfb6b9f9316edb732a85934efd90" target="_top" xlink:title="TIFFClose">
<polygon fill="white" stroke="black" points="1009.67,-138 1009.67,-158 1072.33,-158 1072.33,-138 1009.67,-138"/>
<text text-anchor="middle" x="1041" y="-144" font-family="Helvetica,sans-Serif" font-size="10.00">TIFFClose</text>
</a>
</g>
</g>
<!-- Node6&#45;&gt;Node19 -->
<g id="edge18" class="edge"><title>Node6&#45;&gt;Node19</title>
<path fill="none" stroke="midnightblue" d="M854.294,-163.209C900.434,-159.43 969.961,-153.736 1009.55,-150.494"/>
<polygon fill="midnightblue" stroke="midnightblue" points="853.931,-159.727 844.25,-164.031 854.502,-166.703 853.931,-159.727"/>
</g>
<!-- Node8 -->
<g id="node8" class="node"><title>Node8</title>
<g id="a_node8"><a xlink:href="tiffio_8h.html#adca230876d2f7fdec1ff6c7fdb7898a8" target="_top" xlink:title="TIFFFdOpen">
<polygon fill="white" stroke="black" points="1004.38,-177 1004.38,-197 1077.62,-197 1077.62,-177 1004.38,-177"/>
<text text-anchor="middle" x="1041" y="-183" font-family="Helvetica,sans-Serif" font-size="10.00">TIFFFdOpen</text>
</a>
</g>
</g>
<!-- Node7&#45;&gt;Node8 -->
<g id="edge7" class="edge"><title>Node7&#45;&gt;Node8</title>
<path fill="none" stroke="midnightblue" d="M977.829,-187C986.79,-187 995.905,-187 1004.29,-187"/>
<polygon fill="midnightblue" stroke="midnightblue" points="977.822,-183.5 967.822,-187 977.822,-190.5 977.822,-183.5"/>
</g>
<!-- Node9 -->
<g id="node9" class="node"><title>Node9</title>
<g id="a_node9"><a xlink:href="tiffio_8h.html#ac3dd18826e617eb451c74f33a32fcb10" target="_top" xlink:title="TIFFOpen">
<polygon fill="white" stroke="black" points="1135.22,-177 1135.22,-197 1196.78,-197 1196.78,-177 1135.22,-177"/>
<text text-anchor="middle" x="1166" y="-183" font-family="Helvetica,sans-Serif" font-size="10.00">TIFFOpen</text>
</a>
</g>
</g>
<!-- Node8&#45;&gt;Node9 -->
<g id="edge8" class="edge"><title>Node8&#45;&gt;Node9</title>
<path fill="none" stroke="midnightblue" d="M1088,-187C1103.74,-187 1120.93,-187 1135.07,-187"/>
<polygon fill="midnightblue" stroke="midnightblue" points="1087.91,-183.5 1077.91,-187 1087.91,-190.5 1087.91,-183.5"/>
</g>
<!-- Node10 -->
<g id="node10" class="node"><title>Node10</title>
<g id="a_node10"><a xlink:href="class_t_i_f_f_reader_internal.html#adc7888a9bc3fe28248b49b8b204ae8ae" target="_top" xlink:title="TIFFReaderInternal\l::Open">
<polygon fill="white" stroke="black" points="1275.37,-129 1275.37,-161 1378.63,-161 1378.63,-129 1275.37,-129"/>
<text text-anchor="start" x="1283.37" y="-147" font-family="Helvetica,sans-Serif" font-size="10.00">TIFFReaderInternal</text>
<text text-anchor="middle" x="1327" y="-135" font-family="Helvetica,sans-Serif" font-size="10.00">::Open</text>
</a>
</g>
</g>
<!-- Node9&#45;&gt;Node10 -->
<g id="edge9" class="edge"><title>Node9&#45;&gt;Node10</title>
<path fill="none" stroke="midnightblue" d="M1206.67,-176.521C1227.43,-171.036 1253.08,-164.261 1275.28,-158.399"/>
<polygon fill="midnightblue" stroke="midnightblue" points="1205.68,-173.162 1196.91,-179.1 1207.47,-179.93 1205.68,-173.162"/>
</g>
<!-- Node14 -->
<g id="node14" class="node"><title>Node14</title>
<g id="a_node14"><a xlink:href="classrc_window.html#adf6ca47beb76a8bfdc73369f80dd003d" target="_top" xlink:title="rcWindow::tiff">
<polygon fill="white" stroke="black" points="1289.08,-180 1289.08,-200 1364.92,-200 1364.92,-180 1289.08,-180"/>
<text text-anchor="middle" x="1327" y="-186" font-family="Helvetica,sans-Serif" font-size="10.00">rcWindow::tiff</text>
</a>
</g>
</g>
<!-- Node9&#45;&gt;Node14 -->
<g id="edge13" class="edge"><title>Node9&#45;&gt;Node14</title>
<path fill="none" stroke="midnightblue" d="M1207.2,-187.759C1232.33,-188.233 1264.45,-188.839 1288.95,-189.301"/>
<polygon fill="midnightblue" stroke="midnightblue" points="1206.97,-184.254 1196.91,-187.564 1206.84,-191.252 1206.97,-184.254"/>
</g>
<!-- Node11 -->
<g id="node11" class="node"><title>Node11</title>
<g id="a_node11"><a xlink:href="class_t_i_f_f_image_i_o.html#abec0d00f473debbd9d05f5a0e4820402" target="_top" xlink:title="TIFFImageIO::CanReadFile">
<polygon fill="white" stroke="black" points="1439.31,-96 1439.31,-116 1578.69,-116 1578.69,-96 1439.31,-96"/>
<text text-anchor="middle" x="1509" y="-102" font-family="Helvetica,sans-Serif" font-size="10.00">TIFFImageIO::CanReadFile</text>
</a>
</g>
</g>
<!-- Node10&#45;&gt;Node11 -->
<g id="edge10" class="edge"><title>Node10&#45;&gt;Node11</title>
<path fill="none" stroke="midnightblue" d="M1389.07,-131.768C1412.82,-126.621 1439.58,-120.823 1461.7,-116.032"/>
<polygon fill="midnightblue" stroke="midnightblue" points="1388.13,-128.39 1379.1,-133.928 1389.61,-135.232 1388.13,-128.39"/>
</g>
<!-- Node12 -->
<g id="node12" class="node"><title>Node12</title>
<g id="a_node12"><a xlink:href="classrc_engine_impl.html#ac0162da8fe4f677ad6f3d04a465d50f0" target="_top" xlink:title="rcEngineImpl::loadMovie">
<polygon fill="white" stroke="black" points="1622.25,-116 1622.25,-136 1747.75,-136 1747.75,-116 1622.25,-116"/>
<text text-anchor="middle" x="1685" y="-122" font-family="Helvetica,sans-Serif" font-size="10.00">rcEngineImpl::loadMovie</text>
</a>
</g>
</g>
<!-- Node11&#45;&gt;Node12 -->
<g id="edge11" class="edge"><title>Node11&#45;&gt;Node12</title>
<path fill="none" stroke="midnightblue" d="M1588.95,-115.074C1600.11,-116.357 1611.45,-117.661 1622.22,-118.899"/>
<polygon fill="midnightblue" stroke="midnightblue" points="1589.1,-111.569 1578.77,-113.905 1588.3,-118.524 1589.1,-111.569"/>
</g>
<!-- Node13 -->
<g id="node13" class="node"><title>Node13</title>
<g id="a_node13"><a xlink:href="classrc_window.html#a5da06176e6878b676bbc534db6b09b7d" target="_top" xlink:title="rcWindow::rcWindow">
<polygon fill="white" stroke="black" points="1630.33,-77 1630.33,-97 1739.67,-97 1739.67,-77 1630.33,-77"/>
<text text-anchor="middle" x="1685" y="-83" font-family="Helvetica,sans-Serif" font-size="10.00">rcWindow::rcWindow</text>
</a>
</g>
</g>
<!-- Node11&#45;&gt;Node13 -->
<g id="edge12" class="edge"><title>Node11&#45;&gt;Node13</title>
<path fill="none" stroke="midnightblue" d="M1588.88,-97.3867C1602.86,-95.8599 1617.13,-94.3023 1630.21,-92.8735"/>
<polygon fill="midnightblue" stroke="midnightblue" points="1588.33,-93.9258 1578.77,-98.4907 1589.09,-100.884 1588.33,-93.9258"/>
</g>
<!-- Node15 -->
<g id="node15" class="node"><title>Node15</title>
<g id="a_node15"><a xlink:href="classrc_visual_function.html#a1df64c3605f3a0a4670118911ac783b1" target="_top" xlink:title="rcVisualFunction::cardiac\lMeasure">
<polygon fill="white" stroke="black" points="1445.23,-219 1445.23,-251 1572.77,-251 1572.77,-219 1445.23,-219"/>
<text text-anchor="start" x="1453.23" y="-237" font-family="Helvetica,sans-Serif" font-size="10.00">rcVisualFunction::cardiac</text>
<text text-anchor="middle" x="1509" y="-225" font-family="Helvetica,sans-Serif" font-size="10.00">Measure</text>
</a>
</g>
</g>
<!-- Node14&#45;&gt;Node15 -->
<g id="edge14" class="edge"><title>Node14&#45;&gt;Node15</title>
<path fill="none" stroke="midnightblue" d="M1375.08,-201.771C1396.41,-207.102 1421.93,-213.481 1444.88,-219.219"/>
<polygon fill="midnightblue" stroke="midnightblue" points="1375.85,-198.354 1365.3,-199.324 1374.15,-205.145 1375.85,-198.354"/>
</g>
<!-- Node17 -->
<g id="node17" class="node"><title>Node17</title>
<g id="a_node17"><a xlink:href="classrc_engine_impl.html#a00ca0d227e480ddb5bd6be293b55d2c9" target="_top" xlink:title="rcEngineImpl::muscleTracker">
<polygon fill="white" stroke="black" points="1436.44,-180 1436.44,-200 1581.56,-200 1581.56,-180 1436.44,-180"/>
<text text-anchor="middle" x="1509" y="-186" font-family="Helvetica,sans-Serif" font-size="10.00">rcEngineImpl::muscleTracker</text>
</a>
</g>
</g>
<!-- Node14&#45;&gt;Node17 -->
<g id="edge16" class="edge"><title>Node14&#45;&gt;Node17</title>
<path fill="none" stroke="midnightblue" d="M1375.54,-190C1394.11,-190 1415.8,-190 1436.19,-190"/>
<polygon fill="midnightblue" stroke="midnightblue" points="1375.3,-186.5 1365.3,-190 1375.3,-193.5 1375.3,-186.5"/>
</g>
<!-- Node18 -->
<g id="node18" class="node"><title>Node18</title>
<g id="a_node18"><a xlink:href="rc__edge_8h.html#a11fbb1eb0376dd39a4be2ea72b7ef156" target="_top" xlink:title="rfDirectionSignal">
<polygon fill="white" stroke="black" points="1464.32,-141 1464.32,-161 1553.68,-161 1553.68,-141 1464.32,-141"/>
<text text-anchor="middle" x="1509" y="-147" font-family="Helvetica,sans-Serif" font-size="10.00">rfDirectionSignal</text>
</a>
</g>
</g>
<!-- Node14&#45;&gt;Node18 -->
<g id="edge17" class="edge"><title>Node14&#45;&gt;Node18</title>
<path fill="none" stroke="midnightblue" d="M1375.09,-179.796C1402.62,-173.833 1437.13,-166.355 1464.09,-160.514"/>
<polygon fill="midnightblue" stroke="midnightblue" points="1374.33,-176.381 1365.3,-181.919 1375.81,-183.222 1374.33,-176.381"/>
</g>
<!-- Node16 -->
<g id="node16" class="node"><title>Node16</title>
<g id="a_node16"><a xlink:href="classrc_visual_function.html#ac3135ba614a9ba5080e78c3f2f426312" target="_top" xlink:title="rcVisualFunction::measure">
<polygon fill="white" stroke="black" points="1617.9,-225 1617.9,-245 1752.1,-245 1752.1,-225 1617.9,-225"/>
<text text-anchor="middle" x="1685" y="-231" font-family="Helvetica,sans-Serif" font-size="10.00">rcVisualFunction::measure</text>
</a>
</g>
</g>
<!-- Node15&#45;&gt;Node16 -->
<g id="edge15" class="edge"><title>Node15&#45;&gt;Node16</title>
<path fill="none" stroke="midnightblue" d="M1582.87,-235C1594.44,-235 1606.35,-235 1617.75,-235"/>
<polygon fill="midnightblue" stroke="midnightblue" points="1582.82,-231.5 1572.82,-235 1582.82,-238.5 1582.82,-231.5"/>
</g>
<!-- Node19&#45;&gt;Node14 -->
<g id="edge24" class="edge"><title>Node19&#45;&gt;Node14</title>
<path fill="none" stroke="midnightblue" d="M1082.7,-151.205C1118.48,-154.304 1171.87,-159.618 1218,-167 1241.66,-170.787 1267.97,-176.359 1288.69,-181.07"/>
<polygon fill="midnightblue" stroke="midnightblue" points="1082.91,-147.71 1072.65,-150.352 1082.32,-154.685 1082.91,-147.71"/>
</g>
<!-- Node20 -->
<g id="node20" class="node"><title>Node20</title>
<g id="a_node20"><a xlink:href="class_t_i_f_f_reader_internal.html#aaa46d9e82420cfadfe323b1026cac726" target="_top" xlink:title="TIFFReaderInternal\l::Clean">
<polygon fill="white" stroke="black" points="1114.37,-84 1114.37,-116 1217.63,-116 1217.63,-84 1114.37,-84"/>
<text text-anchor="start" x="1122.37" y="-102" font-family="Helvetica,sans-Serif" font-size="10.00">TIFFReaderInternal</text>
<text text-anchor="middle" x="1166" y="-90" font-family="Helvetica,sans-Serif" font-size="10.00">::Clean</text>
</a>
</g>
</g>
<!-- Node19&#45;&gt;Node20 -->
<g id="edge19" class="edge"><title>Node19&#45;&gt;Node20</title>
<path fill="none" stroke="midnightblue" d="M1077.38,-134.193C1091.86,-128.541 1108.72,-121.963 1123.76,-116.094"/>
<polygon fill="midnightblue" stroke="midnightblue" points="1075.83,-131.042 1067.78,-137.938 1078.37,-137.563 1075.83,-131.042"/>
</g>
<!-- Node20&#45;&gt;Node10 -->
<g id="edge21" class="edge"><title>Node20&#45;&gt;Node10</title>
<path fill="none" stroke="midnightblue" d="M1227.4,-117.094C1243.16,-121.554 1259.98,-126.316 1275.19,-130.62"/>
<polygon fill="midnightblue" stroke="midnightblue" points="1228.32,-113.718 1217.75,-114.362 1226.41,-120.453 1228.32,-113.718"/>
</g>
<!-- Node20&#45;&gt;Node11 -->
<g id="edge23" class="edge"><title>Node20&#45;&gt;Node11</title>
<path fill="none" stroke="midnightblue" d="M1228.02,-101.074C1287.3,-102.117 1377.18,-103.698 1439.03,-104.786"/>
<polygon fill="midnightblue" stroke="midnightblue" points="1227.74,-97.5683 1217.68,-100.892 1227.62,-104.567 1227.74,-97.5683"/>
</g>
<!-- Node21 -->
<g id="node21" class="node"><title>Node21</title>
<g id="a_node21"><a xlink:href="class_t_i_f_f_reader_internal.html#a37acb14f97aa8a07dd8875ed13bc21ba" target="_top" xlink:title="TIFFReaderInternal\l::TIFFReaderInternal">
<polygon fill="white" stroke="black" points="1272.59,-0 1272.59,-32 1381.41,-32 1381.41,-0 1272.59,-0"/>
<text text-anchor="start" x="1280.59" y="-18" font-family="Helvetica,sans-Serif" font-size="10.00">TIFFReaderInternal</text>
<text text-anchor="middle" x="1327" y="-6" font-family="Helvetica,sans-Serif" font-size="10.00">::TIFFReaderInternal</text>
</a>
</g>
</g>
<!-- Node20&#45;&gt;Node21 -->
<g id="edge20" class="edge"><title>Node20&#45;&gt;Node21</title>
<path fill="none" stroke="midnightblue" d="M1195.61,-77.7956C1212.04,-65.7735 1233.44,-51.3151 1254,-41 1260.39,-37.7955 1267.28,-34.8305 1274.19,-32.1466"/>
<polygon fill="midnightblue" stroke="midnightblue" points="1193.43,-75.0499 1187.5,-83.8255 1197.61,-80.6672 1193.43,-75.0499"/>
</g>
<!-- Node22 -->
<g id="node22" class="node"><title>Node22</title>
<g id="a_node22"><a xlink:href="class_t_i_f_f_image_i_o.html#a3ad4dcd4aad49fe2ea0c85ce5edac4da" target="_top" xlink:title="TIFFImageIO::~TIFFImageIO">
<polygon fill="white" stroke="black" points="1253.85,-51 1253.85,-71 1400.15,-71 1400.15,-51 1253.85,-51"/>
<text text-anchor="middle" x="1327" y="-57" font-family="Helvetica,sans-Serif" font-size="10.00">TIFFImageIO::~TIFFImageIO</text>
</a>
</g>
</g>
<!-- Node20&#45;&gt;Node22 -->
<g id="edge22" class="edge"><title>Node20&#45;&gt;Node22</title>
<path fill="none" stroke="midnightblue" d="M1227.61,-85.133C1246.8,-80.4268 1267.54,-75.3384 1285.02,-71.0528"/>
<polygon fill="midnightblue" stroke="midnightblue" points="1226.62,-81.7714 1217.75,-87.5529 1228.29,-88.5699 1226.62,-81.7714"/>
</g>
<!-- Node24&#45;&gt;Node2 -->
<g id="edge27" class="edge"><title>Node24&#45;&gt;Node2</title>
<path fill="none" stroke="midnightblue" d="M290.217,-156.465C298.872,-157.526 307.532,-158.588 315.765,-159.597"/>
<polygon fill="midnightblue" stroke="midnightblue" points="290.435,-152.966 280.084,-155.223 289.584,-159.914 290.435,-152.966"/>
</g>
</g>
</svg>
