<?xml version="1.0" encoding="UTF-8" standalone="no"?>
<!DOCTYPE svg PUBLIC "-//W3C//DTD SVG 1.1//EN"
 "http://www.w3.org/Graphics/SVG/1.1/DTD/svg11.dtd">
<!-- Generated by graphviz version 2.32.0 (20130916.1925)
 -->
<!-- Title: src/util/code/tif_unix.c Pages: 1 -->
<!--zoomable 262 -->
<svg id="main" version="1.1" xmlns="http://www.w3.org/2000/svg" xmlns:xlink="http://www.w3.org/1999/xlink" xml:space="preserve" onload="init(evt)">
        <defs>
                <circle id="rim" cx="0" cy="0" r="7"/>
                <circle id="rim2" cx="0" cy="0" r="3.5"/>
                <g id="zoomPlus">
                        <use xlink:href="#rim" fill="#404040">
                                <set attributeName="fill" to="#808080" begin="zoomplus.mouseover" end="zoomplus.mouseout"/>
                        </use>
                        <path d="M-4,0h8M0,-4v8" fill="none" stroke="white" stroke-width="1.5" pointer-events="none"/>
                </g>
                <g id="zoomMin">
                        <use xlink:href="#rim" fill="#404040">
                                <set attributeName="fill" to="#808080" begin="zoomminus.mouseover" end="zoomminus.mouseout"/>
                        </use>
                        <path d="M-4,0h8" fill="none" stroke="white" stroke-width="1.5" pointer-events="none"/>
                </g>
                <g id="dirArrow">
                        <path fill="none" stroke="white" stroke-width="1.5" d="M0,-3.0v7 M-2.5,-0.5L0,-3.0L2.5,-0.5"/>
                </g>
               <g id="resetDef">
                       <use xlink:href="#rim2" fill="#404040">
                               <set attributeName="fill" to="#808080" begin="reset.mouseover" end="reset.mouseout"/>
                       </use>
               </g>
        </defs>

<script type="text/javascript">
var viewWidth = 540;
var viewHeight = 262;
var sectionId = 'dynsection-0';
</script>
<script xlink:href="svgpan.js"/>
<svg id="graph" class="graph">
<g id="viewport">
<title>src/util/code/tif_unix.c</title>
<polygon fill="white" stroke="white" points="-4,5 -4,-258 537.422,-258 537.422,5 -4,5"/>
<!-- Node1 -->
<g id="node1" class="node"><title>Node1</title>
<polygon fill="#bfbfbf" stroke="black" points="0.624213,-233 0.624213,-253 112.22,-253 112.22,-233 0.624213,-233"/>
<text text-anchor="middle" x="56.4221" y="-239" font-family="Helvetica,sans-Serif" font-size="10.00">src/util/code/tif_unix.c</text>
</g>
<!-- Node2 -->
<g id="node2" class="node"><title>Node2</title>
<g id="a_node2"><a xlink:href="tif__config_8h.html" target="_top" xlink:title="tif_config.h">
<polygon fill="white" stroke="black" points="312.24,-1 312.24,-21 376.604,-21 376.604,-1 312.24,-1"/>
<text text-anchor="middle" x="344.422" y="-7" font-family="Helvetica,sans-Serif" font-size="10.00">tif_config.h</text>
</a>
</g>
</g>
<!-- Node1&#45;&gt;Node2 -->
<g id="edge1" class="edge"><title>Node1&#45;&gt;Node2</title>
<path fill="none" stroke="midnightblue" d="M43.3491,-232.728C32.8592,-224.443 18.8595,-211.276 12.4221,-196 -1.38972,-163.225 -5.24852,-147.928 10.4221,-116 28.9879,-78.1726 46.8954,-75.0675 85.4221,-58 157.058,-26.2649 249.001,-16.4058 301.859,-13.3544"/>
<polygon fill="midnightblue" stroke="midnightblue" points="302.088,-16.8473 311.892,-12.8305 301.723,-9.85687 302.088,-16.8473"/>
</g>
<!-- Node3 -->
<g id="node3" class="node"><title>Node3</title>
<polygon fill="white" stroke="#bfbfbf" points="94.3557,-59 94.3557,-79 146.488,-79 146.488,-59 94.3557,-59"/>
<text text-anchor="middle" x="120.422" y="-65" font-family="Helvetica,sans-Serif" font-size="10.00">stdarg.h</text>
</g>
<!-- Node1&#45;&gt;Node3 -->
<g id="edge2" class="edge"><title>Node1&#45;&gt;Node3</title>
<path fill="none" stroke="midnightblue" d="M47.0872,-232.774C39.0567,-224.129 28.056,-210.409 23.4221,-196 12.5366,-162.152 4.41541,-146.049 23.4221,-116 36.7536,-94.9232 62.6495,-83.3122 84.3329,-77.03"/>
<polygon fill="midnightblue" stroke="midnightblue" points="85.4659,-80.3513 94.2514,-74.4298 83.6907,-73.5801 85.4659,-80.3513"/>
</g>
<!-- Node4 -->
<g id="node4" class="node"><title>Node4</title>
<polygon fill="white" stroke="#bfbfbf" points="32.5798,-175 32.5798,-195 80.2643,-195 80.2643,-175 32.5798,-175"/>
<text text-anchor="middle" x="56.4221" y="-181" font-family="Helvetica,sans-Serif" font-size="10.00">stdlib.h</text>
</g>
<!-- Node1&#45;&gt;Node4 -->
<g id="edge3" class="edge"><title>Node1&#45;&gt;Node4</title>
<path fill="none" stroke="midnightblue" d="M56.4221,-232.753C56.4221,-225.25 56.4221,-214.424 56.4221,-205.078"/>
<polygon fill="midnightblue" stroke="midnightblue" points="59.9222,-205.075 56.4221,-195.075 52.9222,-205.075 59.9222,-205.075"/>
</g>
<!-- Node5 -->
<g id="node5" class="node"><title>Node5</title>
<polygon fill="white" stroke="#bfbfbf" points="98.3039,-175 98.3039,-195 156.54,-195 156.54,-175 98.3039,-175"/>
<text text-anchor="middle" x="127.422" y="-181" font-family="Helvetica,sans-Serif" font-size="10.00">sys/stat.h</text>
</g>
<!-- Node1&#45;&gt;Node5 -->
<g id="edge4" class="edge"><title>Node1&#45;&gt;Node5</title>
<path fill="none" stroke="midnightblue" d="M68.1463,-232.753C78.8988,-224.272 95.0372,-211.543 107.761,-201.507"/>
<polygon fill="midnightblue" stroke="midnightblue" points="110.232,-204.016 115.916,-195.075 105.897,-198.52 110.232,-204.016"/>
</g>
<!-- Node6 -->
<g id="node6" class="node"><title>Node6</title>
<g id="a_node6"><a xlink:href="tiffiop_8h.html" target="_top" xlink:title="tiffiop.h">
<polygon fill="white" stroke="black" points="255.301,-175 255.301,-195 303.543,-195 303.543,-175 255.301,-175"/>
<text text-anchor="middle" x="279.422" y="-181" font-family="Helvetica,sans-Serif" font-size="10.00">tiffiop.h</text>
</a>
</g>
</g>
<!-- Node1&#45;&gt;Node6 -->
<g id="edge5" class="edge"><title>Node1&#45;&gt;Node6</title>
<path fill="none" stroke="midnightblue" d="M92.7472,-232.878C134.958,-222.278 204.074,-204.922 245.314,-194.565"/>
<polygon fill="midnightblue" stroke="midnightblue" points="246.319,-197.922 255.165,-192.091 244.614,-191.132 246.319,-197.922"/>
</g>
<!-- Node6&#45;&gt;Node2 -->
<g id="edge6" class="edge"><title>Node6&#45;&gt;Node2</title>
<path fill="none" stroke="midnightblue" d="M303.627,-180.75C344.8,-174.67 425.653,-160.156 442.422,-138 450.416,-127.438 460.998,-88.366 441.422,-58 429.185,-39.0184 406.801,-27.7001 386.617,-21.0431"/>
<polygon fill="midnightblue" stroke="midnightblue" points="387.523,-17.6609 376.939,-18.1364 385.509,-24.3651 387.523,-17.6609"/>
</g>
<!-- Node7 -->
<g id="node7" class="node"><title>Node7</title>
<polygon fill="white" stroke="#bfbfbf" points="489.082,-117 489.082,-137 531.762,-137 531.762,-117 489.082,-117"/>
<text text-anchor="middle" x="510.422" y="-123" font-family="Helvetica,sans-Serif" font-size="10.00">fcntl.h</text>
</g>
<!-- Node6&#45;&gt;Node7 -->
<g id="edge7" class="edge"><title>Node6&#45;&gt;Node7</title>
<path fill="none" stroke="midnightblue" d="M303.653,-178.704C340.765,-170.506 413.856,-154.01 475.422,-138 476.661,-137.678 477.922,-137.344 479.195,-137.003"/>
<polygon fill="midnightblue" stroke="midnightblue" points="480.287,-140.332 488.995,-134.297 478.424,-133.585 480.287,-140.332"/>
</g>
<!-- Node8 -->
<g id="node8" class="node"><title>Node8</title>
<polygon fill="white" stroke="#bfbfbf" points="32.4123,-117 32.4123,-137 98.4318,-137 98.4318,-117 32.4123,-117"/>
<text text-anchor="middle" x="65.4221" y="-123" font-family="Helvetica,sans-Serif" font-size="10.00">sys/types.h</text>
</g>
<!-- Node6&#45;&gt;Node8 -->
<g id="edge8" class="edge"><title>Node6&#45;&gt;Node8</title>
<path fill="none" stroke="midnightblue" d="M255.29,-177.685C219.695,-168.37 152.575,-150.806 108.428,-139.254"/>
<polygon fill="midnightblue" stroke="midnightblue" points="109.116,-135.816 98.5561,-136.671 107.344,-142.588 109.116,-135.816"/>
</g>
<!-- Node9 -->
<g id="node9" class="node"><title>Node9</title>
<polygon fill="white" stroke="#bfbfbf" points="116.026,-117 116.026,-137 164.819,-137 164.819,-117 116.026,-117"/>
<text text-anchor="middle" x="140.422" y="-123" font-family="Helvetica,sans-Serif" font-size="10.00">string.h</text>
</g>
<!-- Node6&#45;&gt;Node9 -->
<g id="edge9" class="edge"><title>Node6&#45;&gt;Node9</title>
<path fill="none" stroke="midnightblue" d="M256.78,-174.878C233.86,-165.644 198.214,-151.283 172.414,-140.889"/>
<polygon fill="midnightblue" stroke="midnightblue" points="173.638,-137.609 163.054,-137.118 171.022,-144.102 173.638,-137.609"/>
</g>
<!-- Node10 -->
<g id="node10" class="node"><title>Node10</title>
<polygon fill="white" stroke="#bfbfbf" points="182.636,-117 182.636,-137 234.208,-137 234.208,-117 182.636,-117"/>
<text text-anchor="middle" x="208.422" y="-123" font-family="Helvetica,sans-Serif" font-size="10.00">assert.h</text>
</g>
<!-- Node6&#45;&gt;Node10 -->
<g id="edge10" class="edge"><title>Node6&#45;&gt;Node10</title>
<path fill="none" stroke="midnightblue" d="M267.698,-174.753C256.945,-166.272 240.807,-153.543 228.083,-143.507"/>
<polygon fill="midnightblue" stroke="midnightblue" points="229.947,-140.52 219.928,-137.075 225.612,-146.016 229.947,-140.52"/>
</g>
<!-- Node11 -->
<g id="node11" class="node"><title>Node11</title>
<polygon fill="white" stroke="#bfbfbf" points="252.245,-117 252.245,-137 306.599,-137 306.599,-117 252.245,-117"/>
<text text-anchor="middle" x="279.422" y="-123" font-family="Helvetica,sans-Serif" font-size="10.00">search.h</text>
</g>
<!-- Node6&#45;&gt;Node11 -->
<g id="edge11" class="edge"><title>Node6&#45;&gt;Node11</title>
<path fill="none" stroke="midnightblue" d="M279.422,-174.753C279.422,-167.25 279.422,-156.424 279.422,-147.078"/>
<polygon fill="midnightblue" stroke="midnightblue" points="282.922,-147.075 279.422,-137.075 275.922,-147.075 282.922,-147.075"/>
</g>
<!-- Node12 -->
<g id="node12" class="node"><title>Node12</title>
<g id="a_node12"><a xlink:href="tiffio_8h.html" target="_top" xlink:title="tiffio.h">
<polygon fill="white" stroke="black" points="325.082,-117 325.082,-137 367.762,-137 367.762,-117 325.082,-117"/>
<text text-anchor="middle" x="346.422" y="-123" font-family="Helvetica,sans-Serif" font-size="10.00">tiffio.h</text>
</a>
</g>
</g>
<!-- Node6&#45;&gt;Node12 -->
<g id="edge12" class="edge"><title>Node6&#45;&gt;Node12</title>
<path fill="none" stroke="midnightblue" d="M290.486,-174.753C300.633,-166.272 315.862,-153.543 327.869,-143.507"/>
<polygon fill="midnightblue" stroke="midnightblue" points="330.136,-146.174 335.564,-137.075 325.647,-140.803 330.136,-146.174"/>
</g>
<!-- Node16 -->
<g id="node16" class="node"><title>Node16</title>
<g id="a_node16"><a xlink:href="tif__dir_8h.html" target="_top" xlink:title="tif_dir.h">
<polygon fill="white" stroke="black" points="385.299,-117 385.299,-137 433.545,-137 433.545,-117 385.299,-117"/>
<text text-anchor="middle" x="409.422" y="-123" font-family="Helvetica,sans-Serif" font-size="10.00">tif_dir.h</text>
</a>
</g>
</g>
<!-- Node6&#45;&gt;Node16 -->
<g id="edge18" class="edge"><title>Node6&#45;&gt;Node16</title>
<path fill="none" stroke="midnightblue" d="M300.598,-174.878C321.845,-165.725 354.786,-151.536 378.862,-141.164"/>
<polygon fill="midnightblue" stroke="midnightblue" points="380.456,-144.289 388.255,-137.118 377.686,-137.86 380.456,-144.289"/>
</g>
<!-- Node12&#45;&gt;Node3 -->
<g id="edge17" class="edge"><title>Node12&#45;&gt;Node3</title>
<path fill="none" stroke="midnightblue" d="M324.809,-118.783C321.672,-117.807 318.473,-116.85 315.422,-116 260.52,-100.696 196.011,-86.1375 156.686,-77.6401"/>
<polygon fill="midnightblue" stroke="midnightblue" points="157.284,-74.1888 146.772,-75.5111 155.814,-81.0327 157.284,-74.1888"/>
</g>
<!-- Node13 -->
<g id="node13" class="node"><title>Node13</title>
<g id="a_node13"><a xlink:href="tiff_8h.html" target="_top" xlink:title="tiff.h">
<polygon fill="white" stroke="black" points="327.062,-59 327.062,-79 361.782,-79 361.782,-59 327.062,-59"/>
<text text-anchor="middle" x="344.422" y="-65" font-family="Helvetica,sans-Serif" font-size="10.00">tiff.h</text>
</a>
</g>
</g>
<!-- Node12&#45;&gt;Node13 -->
<g id="edge13" class="edge"><title>Node12&#45;&gt;Node13</title>
<path fill="none" stroke="midnightblue" d="M346.092,-116.753C345.824,-109.25 345.437,-98.4238 345.103,-89.0781"/>
<polygon fill="midnightblue" stroke="midnightblue" points="348.601,-88.9439 344.746,-79.0752 341.605,-89.1938 348.601,-88.9439"/>
</g>
<!-- Node14 -->
<g id="node14" class="node"><title>Node14</title>
<g id="a_node14"><a xlink:href="tiffvers_8h.html" target="_top" xlink:title="tiffvers.h">
<polygon fill="white" stroke="black" points="379.616,-59 379.616,-79 433.228,-79 433.228,-59 379.616,-59"/>
<text text-anchor="middle" x="406.422" y="-65" font-family="Helvetica,sans-Serif" font-size="10.00">tiffvers.h</text>
</a>
</g>
</g>
<!-- Node12&#45;&gt;Node14 -->
<g id="edge15" class="edge"><title>Node12&#45;&gt;Node14</title>
<path fill="none" stroke="midnightblue" d="M356.33,-116.753C365.242,-108.435 378.532,-96.031 389.184,-86.0893"/>
<polygon fill="midnightblue" stroke="midnightblue" points="391.776,-88.4571 396.699,-79.0752 387,-83.3397 391.776,-88.4571"/>
</g>
<!-- Node15 -->
<g id="node15" class="node"><title>Node15</title>
<polygon fill="white" stroke="#bfbfbf" points="263.691,-59 263.691,-79 309.154,-79 309.154,-59 263.691,-59"/>
<text text-anchor="middle" x="286.422" y="-65" font-family="Helvetica,sans-Serif" font-size="10.00">stdio.h</text>
</g>
<!-- Node12&#45;&gt;Node15 -->
<g id="edge16" class="edge"><title>Node12&#45;&gt;Node15</title>
<path fill="none" stroke="midnightblue" d="M336.514,-116.753C327.602,-108.435 314.312,-96.031 303.661,-86.0893"/>
<polygon fill="midnightblue" stroke="midnightblue" points="305.844,-83.3397 296.145,-79.0752 301.068,-88.4571 305.844,-83.3397"/>
</g>
<!-- Node13&#45;&gt;Node2 -->
<g id="edge14" class="edge"><title>Node13&#45;&gt;Node2</title>
<path fill="none" stroke="midnightblue" d="M344.422,-58.7527C344.422,-51.2504 344.422,-40.4238 344.422,-31.0781"/>
<polygon fill="midnightblue" stroke="midnightblue" points="347.922,-31.0752 344.422,-21.0752 340.922,-31.0752 347.922,-31.0752"/>
</g>
</g>
</svg>
        <g id="navigator" transform="translate(0 0)" fill="#404254">
                <rect fill="#f2f5e9" fill-opacity="0.5" stroke="#606060" stroke-width=".5" x="0" y="0" width="60" height="60"/>
                <use id="zoomplus" xlink:href="#zoomPlus" x="17" y="9" onmousedown="handleZoom(evt,'in')"/>
                <use id="zoomminus" xlink:href="#zoomMin" x="42" y="9" onmousedown="handleZoom(evt,'out')"/>
                <use id="reset" xlink:href="#resetDef" x="30" y="36" onmousedown="handleReset()"/>
                <g id="arrowUp" xlink:href="#dirArrow" transform="translate(30 24)" onmousedown="handlePan(0,-1)">
                  <use xlink:href="#rim" fill="#404040">
                        <set attributeName="fill" to="#808080" begin="arrowUp.mouseover" end="arrowUp.mouseout"/>
                  </use>
                  <path fill="none" stroke="white" stroke-width="1.5" d="M0,-3.0v7 M-2.5,-0.5L0,-3.0L2.5,-0.5"/>
                </g>
                <g id="arrowRight" xlink:href="#dirArrow" transform="rotate(90) translate(36 -43)" onmousedown="handlePan(1,0)">
                  <use xlink:href="#rim" fill="#404040">
                        <set attributeName="fill" to="#808080" begin="arrowRight.mouseover" end="arrowRight.mouseout"/>
                  </use>
                  <path fill="none" stroke="white" stroke-width="1.5" d="M0,-3.0v7 M-2.5,-0.5L0,-3.0L2.5,-0.5"/>
                </g>
                <g id="arrowDown" xlink:href="#dirArrow" transform="rotate(180) translate(-30 -48)" onmousedown="handlePan(0,1)">
                  <use xlink:href="#rim" fill="#404040">
                        <set attributeName="fill" to="#808080" begin="arrowDown.mouseover" end="arrowDown.mouseout"/>
                  </use>
                  <path fill="none" stroke="white" stroke-width="1.5" d="M0,-3.0v7 M-2.5,-0.5L0,-3.0L2.5,-0.5"/>
                </g>
                <g id="arrowLeft" xlink:href="#dirArrow" transform="rotate(270) translate(-36 17)" onmousedown="handlePan(-1,0)">
                  <use xlink:href="#rim" fill="#404040">
                        <set attributeName="fill" to="#808080" begin="arrowLeft.mouseover" end="arrowLeft.mouseout"/>
                  </use>
                  <path fill="none" stroke="white" stroke-width="1.5" d="M0,-3.0v7 M-2.5,-0.5L0,-3.0L2.5,-0.5"/>
                </g>
        </g>
        <svg viewBox="0 0 15 15" width="100%" height="30px" preserveAspectRatio="xMaxYMin meet">
         <g id="arrow_out" transform="scale(0.3 0.3)">
          <a xlink:href="tif__unix_8c__incl_org.svg" target="_base">
           <rect id="button" ry="5" rx="5" y="6" x="6" height="38" width="38"
                fill="#f2f5e9" fill-opacity="0.5" stroke="#606060" stroke-width="1.0"/>
           <path id="arrow"
             d="M 11.500037,31.436501 C 11.940474,20.09759 22.043105,11.32322 32.158766,21.979434 L 37.068811,17.246167 C 37.068811,17.246167 37.088388,32 37.088388,32 L 22.160133,31.978069 C 22.160133,31.978069 26.997745,27.140456 26.997745,27.140456 C 18.528582,18.264221 13.291696,25.230495 11.500037,31.436501 z"
             style="fill:#404040;"/>
          </a>
         </g>
        </svg>
</svg>
