<?xml version="1.0" encoding="UTF-8" standalone="no"?>
<!DOCTYPE svg PUBLIC "-//W3C//DTD SVG 1.1//EN"
 "http://www.w3.org/Graphics/SVG/1.1/DTD/svg11.dtd">
<!-- Generated by graphviz version 2.32.0 (20130916.1925)
 -->
<!-- Title: TIFFAppendToStrip Pages: 1 -->
<!--zoomable 340 -->
<svg id="main" version="1.1" xmlns="http://www.w3.org/2000/svg" xmlns:xlink="http://www.w3.org/1999/xlink" xml:space="preserve" onload="init(evt)">
        <defs>
                <circle id="rim" cx="0" cy="0" r="7"/>
                <circle id="rim2" cx="0" cy="0" r="3.5"/>
                <g id="zoomPlus">
                        <use xlink:href="#rim" fill="#404040">
                                <set attributeName="fill" to="#808080" begin="zoomplus.mouseover" end="zoomplus.mouseout"/>
                        </use>
                        <path d="M-4,0h8M0,-4v8" fill="none" stroke="white" stroke-width="1.5" pointer-events="none"/>
                </g>
                <g id="zoomMin">
                        <use xlink:href="#rim" fill="#404040">
                                <set attributeName="fill" to="#808080" begin="zoomminus.mouseover" end="zoomminus.mouseout"/>
                        </use>
                        <path d="M-4,0h8" fill="none" stroke="white" stroke-width="1.5" pointer-events="none"/>
                </g>
                <g id="dirArrow">
                        <path fill="none" stroke="white" stroke-width="1.5" d="M0,-3.0v7 M-2.5,-0.5L0,-3.0L2.5,-0.5"/>
                </g>
               <g id="resetDef">
                       <use xlink:href="#rim2" fill="#404040">
                               <set attributeName="fill" to="#808080" begin="reset.mouseover" end="reset.mouseout"/>
                       </use>
               </g>
        </defs>

<script type="text/javascript">
var viewWidth = 1764;
var viewHeight = 340;
var sectionId = 'dynsection-2';
</script>
<script xlink:href="svgpan.js"/>
<svg id="graph" class="graph">
<g id="viewport">
<title>TIFFAppendToStrip</title>
<polygon fill="white" stroke="white" points="-4,5 -4,-335.884 1761,-335.884 1761,5 -4,5"/>
<!-- Node1 -->
<g id="node1" class="node"><title>Node1</title>
<polygon fill="#bfbfbf" stroke="black" points="-0.0786133,-78 -0.0786133,-98 102.079,-98 102.079,-78 -0.0786133,-78"/>
<text text-anchor="middle" x="51" y="-84" font-family="Helvetica,sans-Serif" font-size="10.00">TIFFAppendToStrip</text>
</g>
<!-- Node2 -->
<g id="node2" class="node"><title>Node2</title>
<g id="a_node2"><a xlink:href="tiffiop_8h.html#ad566483ad104674190a4047213c1b064" target="_top" xlink:title="TIFFFlushData1">
<polygon fill="white" stroke="black" points="153.879,-156 153.879,-176 242.121,-176 242.121,-156 153.879,-156"/>
<text text-anchor="middle" x="198" y="-162" font-family="Helvetica,sans-Serif" font-size="10.00">TIFFFlushData1</text>
</a>
</g>
</g>
<!-- Node1&#45;&gt;Node2 -->
<g id="edge1" class="edge"><title>Node1&#45;&gt;Node2</title>
<path fill="none" stroke="midnightblue" d="M72.7785,-104.335C89.6239,-116.992 114.366,-134.288 138,-146 145.656,-149.794 154.205,-153.151 162.367,-155.979"/>
<polygon fill="midnightblue" stroke="midnightblue" points="74.8087,-101.481 64.7369,-98.1934 70.5599,-107.045 74.8087,-101.481"/>
</g>
<!-- Node29 -->
<g id="node29" class="node"><title>Node29</title>
<g id="a_node29"><a xlink:href="tiffio_8h.html#a97ab5cd747490e96fc3902ab4eaaca77" target="_top" xlink:title="TIFFWriteEncodedStrip">
<polygon fill="white" stroke="black" points="137.852,-117 137.852,-137 258.148,-137 258.148,-117 137.852,-117"/>
<text text-anchor="middle" x="198" y="-123" font-family="Helvetica,sans-Serif" font-size="10.00">TIFFWriteEncodedStrip</text>
</a>
</g>
</g>
<!-- Node1&#45;&gt;Node29 -->
<g id="edge33" class="edge"><title>Node1&#45;&gt;Node29</title>
<path fill="none" stroke="midnightblue" d="M99.0405,-100.652C118.728,-105.947 141.284,-112.014 159.785,-116.991"/>
<polygon fill="midnightblue" stroke="midnightblue" points="99.907,-97.261 89.3411,-98.0435 98.0888,-104.021 99.907,-97.261"/>
</g>
<!-- Node30 -->
<g id="node30" class="node"><title>Node30</title>
<g id="a_node30"><a xlink:href="tiffio_8h.html#a301bdc95aa25e1f6e7683d31aa45a4af" target="_top" xlink:title="TIFFWriteEncodedTile">
<polygon fill="white" stroke="black" points="140.259,-78 140.259,-98 255.741,-98 255.741,-78 140.259,-78"/>
<text text-anchor="middle" x="198" y="-84" font-family="Helvetica,sans-Serif" font-size="10.00">TIFFWriteEncodedTile</text>
</a>
</g>
</g>
<!-- Node1&#45;&gt;Node30 -->
<g id="edge34" class="edge"><title>Node1&#45;&gt;Node30</title>
<path fill="none" stroke="midnightblue" d="M112.48,-88C121.618,-88 131.018,-88 140.077,-88"/>
<polygon fill="midnightblue" stroke="midnightblue" points="112.307,-84.5001 102.307,-88 112.307,-91.5001 112.307,-84.5001"/>
</g>
<!-- Node32 -->
<g id="node32" class="node"><title>Node32</title>
<g id="a_node32"><a xlink:href="tiffio_8h.html#a7dcab5b4d2f3edac171e1392fb938061" target="_top" xlink:title="TIFFWriteRawStrip">
<polygon fill="white" stroke="black" points="147.588,-39 147.588,-59 248.412,-59 248.412,-39 147.588,-39"/>
<text text-anchor="middle" x="198" y="-45" font-family="Helvetica,sans-Serif" font-size="10.00">TIFFWriteRawStrip</text>
</a>
</g>
</g>
<!-- Node1&#45;&gt;Node32 -->
<g id="edge36" class="edge"><title>Node1&#45;&gt;Node32</title>
<path fill="none" stroke="midnightblue" d="M99.0405,-75.3477C118.728,-70.0526 141.284,-63.9857 159.785,-59.0094"/>
<polygon fill="midnightblue" stroke="midnightblue" points="98.0888,-71.9792 89.3411,-77.9565 99.907,-78.739 98.0888,-71.9792"/>
</g>
<!-- Node33 -->
<g id="node33" class="node"><title>Node33</title>
<g id="a_node33"><a xlink:href="tiffio_8h.html#a4796bbad735a0903f6d27d7553e75dc2" target="_top" xlink:title="TIFFWriteRawTile">
<polygon fill="white" stroke="black" points="149.995,-0 149.995,-20 246.005,-20 246.005,-0 149.995,-0"/>
<text text-anchor="middle" x="198" y="-6" font-family="Helvetica,sans-Serif" font-size="10.00">TIFFWriteRawTile</text>
</a>
</g>
</g>
<!-- Node1&#45;&gt;Node33 -->
<g id="edge37" class="edge"><title>Node1&#45;&gt;Node33</title>
<path fill="none" stroke="midnightblue" d="M72.1019,-71.7092C88.9025,-58.7263 113.918,-40.8244 138,-29 144.955,-25.5852 152.665,-22.5882 160.154,-20.0443"/>
<polygon fill="midnightblue" stroke="midnightblue" points="69.8102,-69.0587 64.1136,-77.9917 74.1376,-74.5609 69.8102,-69.0587"/>
</g>
<!-- Node3 -->
<g id="node3" class="node"><title>Node3</title>
<g id="a_node3"><a xlink:href="tif__dirwrite_8c.html#a99ebbf4b3b0fd87a64d558757cf03635" target="_top" xlink:title="_TIFFWriteDirectory">
<polygon fill="white" stroke="black" points="294.088,-195 294.088,-215 399.912,-215 399.912,-195 294.088,-195"/>
<text text-anchor="middle" x="347" y="-201" font-family="Helvetica,sans-Serif" font-size="10.00">_TIFFWriteDirectory</text>
</a>
</g>
</g>
<!-- Node2&#45;&gt;Node3 -->
<g id="edge2" class="edge"><title>Node2&#45;&gt;Node3</title>
<path fill="none" stroke="midnightblue" d="M246.689,-178.652C266.648,-183.947 289.515,-190.014 308.272,-194.991"/>
<polygon fill="midnightblue" stroke="midnightblue" points="247.419,-175.225 236.856,-176.043 245.624,-181.991 247.419,-175.225"/>
</g>
<!-- Node25 -->
<g id="node25" class="node"><title>Node25</title>
<g id="a_node25"><a xlink:href="tif__dumpmode_8c.html#a8da96281382ec286e6744c9687a3996d" target="_top" xlink:title="DumpModeEncode">
<polygon fill="white" stroke="black" points="296.197,-117 296.197,-137 397.803,-137 397.803,-117 296.197,-117"/>
<text text-anchor="middle" x="347" y="-123" font-family="Helvetica,sans-Serif" font-size="10.00">DumpModeEncode</text>
</a>
</g>
</g>
<!-- Node2&#45;&gt;Node25 -->
<g id="edge27" class="edge"><title>Node2&#45;&gt;Node25</title>
<path fill="none" stroke="midnightblue" d="M246.689,-153.348C266.648,-148.053 289.515,-141.986 308.272,-137.009"/>
<polygon fill="midnightblue" stroke="midnightblue" points="245.624,-150.009 236.856,-155.957 247.419,-156.775 245.624,-150.009"/>
</g>
<!-- Node27 -->
<g id="node27" class="node"><title>Node27</title>
<g id="a_node27"><a xlink:href="tiffio_8h.html#a210d459b798b25dcfa639e7c0999622d" target="_top" xlink:title="TIFFFlushData">
<polygon fill="white" stroke="black" points="458.66,-156 458.66,-176 541.34,-176 541.34,-156 458.66,-156"/>
<text text-anchor="middle" x="500" y="-162" font-family="Helvetica,sans-Serif" font-size="10.00">TIFFFlushData</text>
</a>
</g>
</g>
<!-- Node2&#45;&gt;Node27 -->
<g id="edge29" class="edge"><title>Node2&#45;&gt;Node27</title>
<path fill="none" stroke="midnightblue" d="M252.553,-166C311.633,-166 405.373,-166 458.594,-166"/>
<polygon fill="midnightblue" stroke="midnightblue" points="252.302,-162.5 242.302,-166 252.302,-169.5 252.302,-162.5"/>
</g>
<!-- Node4 -->
<g id="node4" class="node"><title>Node4</title>
<g id="a_node4"><a xlink:href="tiffio_8h.html#abb5ff4e7abc98286d574600a9a8d0b5f" target="_top" xlink:title="TIFFCheckpointDirectory">
<polygon fill="white" stroke="black" points="436.431,-234 436.431,-254 563.569,-254 563.569,-234 436.431,-234"/>
<text text-anchor="middle" x="500" y="-240" font-family="Helvetica,sans-Serif" font-size="10.00">TIFFCheckpointDirectory</text>
</a>
</g>
</g>
<!-- Node3&#45;&gt;Node4 -->
<g id="edge3" class="edge"><title>Node3&#45;&gt;Node4</title>
<path fill="none" stroke="midnightblue" d="M396.706,-217.58C417.274,-222.892 440.89,-228.992 460.246,-233.991"/>
<polygon fill="midnightblue" stroke="midnightblue" points="397.444,-214.155 386.886,-215.043 395.693,-220.933 397.444,-214.155"/>
</g>
<!-- Node5 -->
<g id="node5" class="node"><title>Node5</title>
<g id="a_node5"><a xlink:href="tiffio_8h.html#a81556034d0f25ab8e5a780a20a2754af" target="_top" xlink:title="TIFFWriteDirectory">
<polygon fill="white" stroke="black" points="449.869,-195 449.869,-215 550.131,-215 550.131,-195 449.869,-195"/>
<text text-anchor="middle" x="500" y="-201" font-family="Helvetica,sans-Serif" font-size="10.00">TIFFWriteDirectory</text>
</a>
</g>
</g>
<!-- Node3&#45;&gt;Node5 -->
<g id="edge4" class="edge"><title>Node3&#45;&gt;Node5</title>
<path fill="none" stroke="midnightblue" d="M410.35,-205C423.483,-205 437.165,-205 449.738,-205"/>
<polygon fill="midnightblue" stroke="midnightblue" points="409.966,-201.5 399.966,-205 409.966,-208.5 409.966,-201.5"/>
</g>
<!-- Node6 -->
<g id="node6" class="node"><title>Node6</title>
<g id="a_node6"><a xlink:href="tiffio_8h.html#aca3453296ad6a9dc3cbbead4e1bc2792" target="_top" xlink:title="TIFFFlush">
<polygon fill="white" stroke="black" points="625.222,-176 625.222,-196 686.778,-196 686.778,-176 625.222,-176"/>
<text text-anchor="middle" x="656" y="-182" font-family="Helvetica,sans-Serif" font-size="10.00">TIFFFlush</text>
</a>
</g>
</g>
<!-- Node5&#45;&gt;Node6 -->
<g id="edge5" class="edge"><title>Node5&#45;&gt;Node6</title>
<path fill="none" stroke="midnightblue" d="M560.175,-197.699C582.375,-194.96 606.668,-191.963 625.108,-189.688"/>
<polygon fill="midnightblue" stroke="midnightblue" points="559.646,-194.238 550.15,-198.936 560.503,-201.185 559.646,-194.238"/>
</g>
<!-- Node24 -->
<g id="node24" class="node"><title>Node24</title>
<g id="a_node24"><a xlink:href="tiffio_8h.html#a030e9a2ded6444dde1fd9b8164664b8c" target="_top" xlink:title="TIFFRewriteDirectory">
<polygon fill="white" stroke="black" points="600.498,-215 600.498,-235 711.502,-235 711.502,-215 600.498,-215"/>
<text text-anchor="middle" x="656" y="-221" font-family="Helvetica,sans-Serif" font-size="10.00">TIFFRewriteDirectory</text>
</a>
</g>
</g>
<!-- Node5&#45;&gt;Node24 -->
<g id="edge26" class="edge"><title>Node5&#45;&gt;Node24</title>
<path fill="none" stroke="midnightblue" d="M560.115,-212.677C573.373,-214.399 587.38,-216.218 600.443,-217.915"/>
<polygon fill="midnightblue" stroke="midnightblue" points="560.517,-209.2 550.15,-211.383 559.616,-216.142 560.517,-209.2"/>
</g>
<!-- Node7 -->
<g id="node7" class="node"><title>Node7</title>
<g id="a_node7"><a xlink:href="tiffio_8h.html#aceb629aa7034d6d0304207556be3ce17" target="_top" xlink:title="TIFFCleanup">
<polygon fill="white" stroke="black" points="760.823,-176 760.823,-196 835.177,-196 835.177,-176 760.823,-176"/>
<text text-anchor="middle" x="798" y="-182" font-family="Helvetica,sans-Serif" font-size="10.00">TIFFCleanup</text>
</a>
</g>
</g>
<!-- Node6&#45;&gt;Node7 -->
<g id="edge6" class="edge"><title>Node6&#45;&gt;Node7</title>
<path fill="none" stroke="midnightblue" d="M697.117,-186C717.192,-186 741.303,-186 760.806,-186"/>
<polygon fill="midnightblue" stroke="midnightblue" points="697.034,-182.5 687.034,-186 697.033,-189.5 697.034,-182.5"/>
</g>
<!-- Node8 -->
<g id="node8" class="node"><title>Node8</title>
<g id="a_node8"><a xlink:href="tiffio_8h.html#a165611e0432d36de8bcf57f35e161bd3" target="_top" xlink:title="TIFFClientOpen">
<polygon fill="white" stroke="black" points="884.434,-176 884.434,-196 971.566,-196 971.566,-176 884.434,-176"/>
<text text-anchor="middle" x="928" y="-182" font-family="Helvetica,sans-Serif" font-size="10.00">TIFFClientOpen</text>
</a>
</g>
</g>
<!-- Node7&#45;&gt;Node8 -->
<g id="edge7" class="edge"><title>Node7&#45;&gt;Node8</title>
<path fill="none" stroke="midnightblue" d="M845.653,-186C858.262,-186 871.843,-186 884.228,-186"/>
<polygon fill="midnightblue" stroke="midnightblue" points="845.337,-182.5 835.337,-186 845.337,-189.5 845.337,-182.5"/>
</g>
<!-- Node20 -->
<g id="node20" class="node"><title>Node20</title>
<g id="a_node20"><a xlink:href="tiffio_8h.html#a3fefdfb6b9f9316edb732a85934efd90" target="_top" xlink:title="TIFFClose">
<polygon fill="white" stroke="black" points="1013.67,-215 1013.67,-235 1076.33,-235 1076.33,-215 1013.67,-215"/>
<text text-anchor="middle" x="1045" y="-221" font-family="Helvetica,sans-Serif" font-size="10.00">TIFFClose</text>
</a>
</g>
</g>
<!-- Node7&#45;&gt;Node20 -->
<g id="edge19" class="edge"><title>Node7&#45;&gt;Node20</title>
<path fill="none" stroke="midnightblue" d="M845.063,-197.139C857.642,-199.95 871.304,-202.793 884,-205 928.818,-212.792 981.206,-218.75 1013.5,-222.063"/>
<polygon fill="midnightblue" stroke="midnightblue" points="845.775,-193.711 835.247,-194.904 844.221,-200.536 845.775,-193.711"/>
</g>
<!-- Node9 -->
<g id="node9" class="node"><title>Node9</title>
<g id="a_node9"><a xlink:href="tiffio_8h.html#adca230876d2f7fdec1ff6c7fdb7898a8" target="_top" xlink:title="TIFFFdOpen">
<polygon fill="white" stroke="black" points="1008.38,-176 1008.38,-196 1081.62,-196 1081.62,-176 1008.38,-176"/>
<text text-anchor="middle" x="1045" y="-182" font-family="Helvetica,sans-Serif" font-size="10.00">TIFFFdOpen</text>
</a>
</g>
</g>
<!-- Node8&#45;&gt;Node9 -->
<g id="edge8" class="edge"><title>Node8&#45;&gt;Node9</title>
<path fill="none" stroke="midnightblue" d="M981.829,-186C990.79,-186 999.905,-186 1008.29,-186"/>
<polygon fill="midnightblue" stroke="midnightblue" points="981.822,-182.5 971.822,-186 981.822,-189.5 981.822,-182.5"/>
</g>
<!-- Node10 -->
<g id="node10" class="node"><title>Node10</title>
<g id="a_node10"><a xlink:href="tiffio_8h.html#ac3dd18826e617eb451c74f33a32fcb10" target="_top" xlink:title="TIFFOpen">
<polygon fill="white" stroke="black" points="1139.22,-176 1139.22,-196 1200.78,-196 1200.78,-176 1139.22,-176"/>
<text text-anchor="middle" x="1170" y="-182" font-family="Helvetica,sans-Serif" font-size="10.00">TIFFOpen</text>
</a>
</g>
</g>
<!-- Node9&#45;&gt;Node10 -->
<g id="edge9" class="edge"><title>Node9&#45;&gt;Node10</title>
<path fill="none" stroke="midnightblue" d="M1092,-186C1107.74,-186 1124.93,-186 1139.07,-186"/>
<polygon fill="midnightblue" stroke="midnightblue" points="1091.91,-182.5 1081.91,-186 1091.91,-189.5 1091.91,-182.5"/>
</g>
<!-- Node11 -->
<g id="node11" class="node"><title>Node11</title>
<g id="a_node11"><a xlink:href="class_t_i_f_f_reader_internal.html#adc7888a9bc3fe28248b49b8b204ae8ae" target="_top" xlink:title="TIFFReaderInternal\l::Open">
<polygon fill="white" stroke="black" points="1279.37,-192 1279.37,-224 1382.63,-224 1382.63,-192 1279.37,-192"/>
<text text-anchor="start" x="1287.37" y="-210" font-family="Helvetica,sans-Serif" font-size="10.00">TIFFReaderInternal</text>
<text text-anchor="middle" x="1331" y="-198" font-family="Helvetica,sans-Serif" font-size="10.00">::Open</text>
</a>
</g>
</g>
<!-- Node10&#45;&gt;Node11 -->
<g id="edge10" class="edge"><title>Node10&#45;&gt;Node11</title>
<path fill="none" stroke="midnightblue" d="M1210.95,-191.528C1231.67,-194.394 1257.19,-197.925 1279.28,-200.982"/>
<polygon fill="midnightblue" stroke="midnightblue" points="1211.29,-188.042 1200.91,-190.138 1210.33,-194.976 1211.29,-188.042"/>
</g>
<!-- Node15 -->
<g id="node15" class="node"><title>Node15</title>
<g id="a_node15"><a xlink:href="classrc_window.html#adf6ca47beb76a8bfdc73369f80dd003d" target="_top" xlink:title="rcWindow::tiff">
<polygon fill="white" stroke="black" points="1293.08,-153 1293.08,-173 1368.92,-173 1368.92,-153 1293.08,-153"/>
<text text-anchor="middle" x="1331" y="-159" font-family="Helvetica,sans-Serif" font-size="10.00">rcWindow::tiff</text>
</a>
</g>
</g>
<!-- Node10&#45;&gt;Node15 -->
<g id="edge14" class="edge"><title>Node10&#45;&gt;Node15</title>
<path fill="none" stroke="midnightblue" d="M1210.87,-180.233C1236.04,-176.592 1268.34,-171.92 1292.95,-168.359"/>
<polygon fill="midnightblue" stroke="midnightblue" points="1210.3,-176.778 1200.91,-181.674 1211.3,-183.706 1210.3,-176.778"/>
</g>
<!-- Node12 -->
<g id="node12" class="node"><title>Node12</title>
<g id="a_node12"><a xlink:href="class_t_i_f_f_image_i_o.html#abec0d00f473debbd9d05f5a0e4820402" target="_top" xlink:title="TIFFImageIO::CanReadFile">
<polygon fill="white" stroke="black" points="1443.31,-282 1443.31,-302 1582.69,-302 1582.69,-282 1443.31,-282"/>
<text text-anchor="middle" x="1513" y="-288" font-family="Helvetica,sans-Serif" font-size="10.00">TIFFImageIO::CanReadFile</text>
</a>
</g>
</g>
<!-- Node11&#45;&gt;Node12 -->
<g id="edge11" class="edge"><title>Node11&#45;&gt;Node12</title>
<path fill="none" stroke="midnightblue" d="M1389.29,-227.821C1394.3,-229.816 1399.27,-231.888 1404,-234 1437.24,-248.829 1474.26,-269.726 1495.18,-281.968"/>
<polygon fill="midnightblue" stroke="midnightblue" points="1390.23,-224.431 1379.64,-224.089 1387.71,-230.96 1390.23,-224.431"/>
</g>
<!-- Node13 -->
<g id="node13" class="node"><title>Node13</title>
<g id="a_node13"><a xlink:href="classrc_engine_impl.html#ac0162da8fe4f677ad6f3d04a465d50f0" target="_top" xlink:title="rcEngineImpl::loadMovie">
<polygon fill="white" stroke="black" points="1626.25,-301 1626.25,-321 1751.75,-321 1751.75,-301 1626.25,-301"/>
<text text-anchor="middle" x="1689" y="-307" font-family="Helvetica,sans-Serif" font-size="10.00">rcEngineImpl::loadMovie</text>
</a>
</g>
</g>
<!-- Node12&#45;&gt;Node13 -->
<g id="edge12" class="edge"><title>Node12&#45;&gt;Node13</title>
<path fill="none" stroke="midnightblue" d="M1592.95,-300.621C1604.11,-301.839 1615.45,-303.078 1626.22,-304.254"/>
<polygon fill="midnightblue" stroke="midnightblue" points="1593.09,-297.116 1582.77,-299.509 1592.33,-304.074 1593.09,-297.116"/>
</g>
<!-- Node14 -->
<g id="node14" class="node"><title>Node14</title>
<g id="a_node14"><a xlink:href="classrc_window.html#a5da06176e6878b676bbc534db6b09b7d" target="_top" xlink:title="rcWindow::rcWindow">
<polygon fill="white" stroke="black" points="1634.33,-262 1634.33,-282 1743.67,-282 1743.67,-262 1634.33,-262"/>
<text text-anchor="middle" x="1689" y="-268" font-family="Helvetica,sans-Serif" font-size="10.00">rcWindow::rcWindow</text>
</a>
</g>
</g>
<!-- Node12&#45;&gt;Node14 -->
<g id="edge13" class="edge"><title>Node12&#45;&gt;Node14</title>
<path fill="none" stroke="midnightblue" d="M1592.88,-282.933C1606.86,-281.326 1621.13,-279.687 1634.21,-278.183"/>
<polygon fill="midnightblue" stroke="midnightblue" points="1592.3,-279.476 1582.77,-284.095 1593.1,-286.431 1592.3,-279.476"/>
</g>
<!-- Node16 -->
<g id="node16" class="node"><title>Node16</title>
<g id="a_node16"><a xlink:href="classrc_visual_function.html#a1df64c3605f3a0a4670118911ac783b1" target="_top" xlink:title="rcVisualFunction::cardiac\lMeasure">
<polygon fill="white" stroke="black" points="1449.23,-102 1449.23,-134 1576.77,-134 1576.77,-102 1449.23,-102"/>
<text text-anchor="start" x="1457.23" y="-120" font-family="Helvetica,sans-Serif" font-size="10.00">rcVisualFunction::cardiac</text>
<text text-anchor="middle" x="1513" y="-108" font-family="Helvetica,sans-Serif" font-size="10.00">Measure</text>
</a>
</g>
</g>
<!-- Node15&#45;&gt;Node16 -->
<g id="edge15" class="edge"><title>Node15&#45;&gt;Node16</title>
<path fill="none" stroke="midnightblue" d="M1379.08,-151.229C1400.41,-145.898 1425.93,-139.519 1448.88,-133.781"/>
<polygon fill="midnightblue" stroke="midnightblue" points="1378.15,-147.855 1369.3,-153.676 1379.85,-154.646 1378.15,-147.855"/>
</g>
<!-- Node18 -->
<g id="node18" class="node"><title>Node18</title>
<g id="a_node18"><a xlink:href="classrc_engine_impl.html#a00ca0d227e480ddb5bd6be293b55d2c9" target="_top" xlink:title="rcEngineImpl::muscleTracker">
<polygon fill="white" stroke="black" points="1440.44,-192 1440.44,-212 1585.56,-212 1585.56,-192 1440.44,-192"/>
<text text-anchor="middle" x="1513" y="-198" font-family="Helvetica,sans-Serif" font-size="10.00">rcEngineImpl::muscleTracker</text>
</a>
</g>
</g>
<!-- Node15&#45;&gt;Node18 -->
<g id="edge17" class="edge"><title>Node15&#45;&gt;Node18</title>
<path fill="none" stroke="midnightblue" d="M1379.19,-173.225C1405.92,-179.017 1439.22,-186.232 1465.79,-191.988"/>
<polygon fill="midnightblue" stroke="midnightblue" points="1379.81,-169.778 1369.3,-171.081 1378.33,-176.619 1379.81,-169.778"/>
</g>
<!-- Node19 -->
<g id="node19" class="node"><title>Node19</title>
<g id="a_node19"><a xlink:href="rc__edge_8h.html#a11fbb1eb0376dd39a4be2ea72b7ef156" target="_top" xlink:title="rfDirectionSignal">
<polygon fill="white" stroke="black" points="1468.32,-153 1468.32,-173 1557.68,-173 1557.68,-153 1468.32,-153"/>
<text text-anchor="middle" x="1513" y="-159" font-family="Helvetica,sans-Serif" font-size="10.00">rfDirectionSignal</text>
</a>
</g>
</g>
<!-- Node15&#45;&gt;Node19 -->
<g id="edge18" class="edge"><title>Node15&#45;&gt;Node19</title>
<path fill="none" stroke="midnightblue" d="M1379.46,-163C1406.92,-163 1441.25,-163 1468.09,-163"/>
<polygon fill="midnightblue" stroke="midnightblue" points="1379.3,-159.5 1369.3,-163 1379.3,-166.5 1379.3,-159.5"/>
</g>
<!-- Node17 -->
<g id="node17" class="node"><title>Node17</title>
<g id="a_node17"><a xlink:href="classrc_visual_function.html#ac3135ba614a9ba5080e78c3f2f426312" target="_top" xlink:title="rcVisualFunction::measure">
<polygon fill="white" stroke="black" points="1621.9,-108 1621.9,-128 1756.1,-128 1756.1,-108 1621.9,-108"/>
<text text-anchor="middle" x="1689" y="-114" font-family="Helvetica,sans-Serif" font-size="10.00">rcVisualFunction::measure</text>
</a>
</g>
</g>
<!-- Node16&#45;&gt;Node17 -->
<g id="edge16" class="edge"><title>Node16&#45;&gt;Node17</title>
<path fill="none" stroke="midnightblue" d="M1586.87,-118C1598.44,-118 1610.35,-118 1621.75,-118"/>
<polygon fill="midnightblue" stroke="midnightblue" points="1586.82,-114.5 1576.82,-118 1586.82,-121.5 1586.82,-114.5"/>
</g>
<!-- Node20&#45;&gt;Node15 -->
<g id="edge25" class="edge"><title>Node20&#45;&gt;Node15</title>
<path fill="none" stroke="midnightblue" d="M1086.68,-225.321C1123.07,-224.463 1177.4,-220.32 1222,-205 1239.73,-198.909 1240.8,-190.47 1258,-183 1269.07,-178.194 1281.59,-174.24 1293.06,-171.154"/>
<polygon fill="midnightblue" stroke="midnightblue" points="1086.39,-221.825 1076.45,-225.487 1086.51,-228.824 1086.39,-221.825"/>
</g>
<!-- Node21 -->
<g id="node21" class="node"><title>Node21</title>
<g id="a_node21"><a xlink:href="class_t_i_f_f_reader_internal.html#aaa46d9e82420cfadfe323b1026cac726" target="_top" xlink:title="TIFFReaderInternal\l::Clean">
<polygon fill="white" stroke="black" points="1118.37,-254 1118.37,-286 1221.63,-286 1221.63,-254 1118.37,-254"/>
<text text-anchor="start" x="1126.37" y="-272" font-family="Helvetica,sans-Serif" font-size="10.00">TIFFReaderInternal</text>
<text text-anchor="middle" x="1170" y="-260" font-family="Helvetica,sans-Serif" font-size="10.00">::Clean</text>
</a>
</g>
</g>
<!-- Node20&#45;&gt;Node21 -->
<g id="edge20" class="edge"><title>Node20&#45;&gt;Node21</title>
<path fill="none" stroke="midnightblue" d="M1083.28,-238.641C1096.46,-243.461 1111.4,-248.926 1125.07,-253.929"/>
<polygon fill="midnightblue" stroke="midnightblue" points="1084.2,-235.248 1073.6,-235.099 1081.79,-241.822 1084.2,-235.248"/>
</g>
<!-- Node21&#45;&gt;Node11 -->
<g id="edge22" class="edge"><title>Node21&#45;&gt;Node11</title>
<path fill="none" stroke="midnightblue" d="M1218.49,-249.887C1231.27,-244.601 1245.12,-238.986 1258,-234 1266.55,-230.689 1275.72,-227.274 1284.56,-224.051"/>
<polygon fill="midnightblue" stroke="midnightblue" points="1216.85,-246.778 1208.96,-253.849 1219.54,-253.242 1216.85,-246.778"/>
</g>
<!-- Node21&#45;&gt;Node12 -->
<g id="edge24" class="edge"><title>Node21&#45;&gt;Node12</title>
<path fill="none" stroke="midnightblue" d="M1198.7,-292.308C1214.94,-303.93 1236.45,-316.952 1258,-323 1338.63,-345.625 1438.23,-318.123 1485.15,-302.048"/>
<polygon fill="midnightblue" stroke="midnightblue" points="1200.38,-289.191 1190.26,-286.049 1196.21,-294.815 1200.38,-289.191"/>
</g>
<!-- Node22 -->
<g id="node22" class="node"><title>Node22</title>
<g id="a_node22"><a xlink:href="class_t_i_f_f_reader_internal.html#a37acb14f97aa8a07dd8875ed13bc21ba" target="_top" xlink:title="TIFFReaderInternal\l::TIFFReaderInternal">
<polygon fill="white" stroke="black" points="1276.59,-282 1276.59,-314 1385.41,-314 1385.41,-282 1276.59,-282"/>
<text text-anchor="start" x="1284.59" y="-300" font-family="Helvetica,sans-Serif" font-size="10.00">TIFFReaderInternal</text>
<text text-anchor="middle" x="1331" y="-288" font-family="Helvetica,sans-Serif" font-size="10.00">::TIFFReaderInternal</text>
</a>
</g>
</g>
<!-- Node21&#45;&gt;Node22 -->
<g id="edge21" class="edge"><title>Node21&#45;&gt;Node22</title>
<path fill="none" stroke="midnightblue" d="M1231.76,-280.7C1246.47,-283.291 1262.09,-286.042 1276.45,-288.569"/>
<polygon fill="midnightblue" stroke="midnightblue" points="1232.2,-277.224 1221.75,-278.936 1230.99,-284.118 1232.2,-277.224"/>
</g>
<!-- Node23 -->
<g id="node23" class="node"><title>Node23</title>
<g id="a_node23"><a xlink:href="class_t_i_f_f_image_i_o.html#a3ad4dcd4aad49fe2ea0c85ce5edac4da" target="_top" xlink:title="TIFFImageIO::~TIFFImageIO">
<polygon fill="white" stroke="black" points="1257.85,-243 1257.85,-263 1404.15,-263 1404.15,-243 1257.85,-243"/>
<text text-anchor="middle" x="1331" y="-249" font-family="Helvetica,sans-Serif" font-size="10.00">TIFFImageIO::~TIFFImageIO</text>
</a>
</g>
</g>
<!-- Node21&#45;&gt;Node23 -->
<g id="edge23" class="edge"><title>Node21&#45;&gt;Node23</title>
<path fill="none" stroke="midnightblue" d="M1231.88,-263.491C1240.33,-262.587 1249.08,-261.652 1257.71,-260.729"/>
<polygon fill="midnightblue" stroke="midnightblue" points="1231.32,-260.031 1221.75,-264.574 1232.06,-266.991 1231.32,-260.031"/>
</g>
<!-- Node26 -->
<g id="node26" class="node"><title>Node26</title>
<g id="a_node26"><a xlink:href="tiffiop_8h.html#ace93b434594b004ee12cfadd89e5df55" target="_top" xlink:title="TIFFInitDumpMode">
<polygon fill="white" stroke="black" points="448.934,-117 448.934,-137 551.066,-137 551.066,-117 448.934,-117"/>
<text text-anchor="middle" x="500" y="-123" font-family="Helvetica,sans-Serif" font-size="10.00">TIFFInitDumpMode</text>
</a>
</g>
</g>
<!-- Node25&#45;&gt;Node26 -->
<g id="edge28" class="edge"><title>Node25&#45;&gt;Node26</title>
<path fill="none" stroke="midnightblue" d="M408.056,-127C421.605,-127 435.846,-127 448.933,-127"/>
<polygon fill="midnightblue" stroke="midnightblue" points="407.862,-123.5 397.862,-127 407.861,-130.5 407.862,-123.5"/>
</g>
<!-- Node27&#45;&gt;Node6 -->
<g id="edge30" class="edge"><title>Node27&#45;&gt;Node6</title>
<path fill="none" stroke="midnightblue" d="M551.598,-172.571C575.897,-175.727 604.187,-179.401 625.027,-182.107"/>
<polygon fill="midnightblue" stroke="midnightblue" points="551.829,-169.072 541.462,-171.255 550.928,-176.014 551.829,-169.072"/>
</g>
<!-- Node28 -->
<g id="node28" class="node"><title>Node28</title>
<g id="a_node28"><a xlink:href="tiffio_8h.html#aeb8ced7ec5236ab9b4f5db5ec3c200ad" target="_top" xlink:title="TIFFWriteScanline">
<polygon fill="white" stroke="black" points="748.691,-137 748.691,-157 847.309,-157 847.309,-137 748.691,-137"/>
<text text-anchor="middle" x="798" y="-143" font-family="Helvetica,sans-Serif" font-size="10.00">TIFFWriteScanline</text>
</a>
</g>
</g>
<!-- Node27&#45;&gt;Node28 -->
<g id="edge31" class="edge"><title>Node27&#45;&gt;Node28</title>
<path fill="none" stroke="midnightblue" d="M551.782,-162.74C606.942,-159.2 694.413,-153.585 748.615,-150.106"/>
<polygon fill="midnightblue" stroke="midnightblue" points="551.292,-159.264 541.537,-163.398 551.741,-166.25 551.292,-159.264"/>
</g>
<!-- Node28&#45;&gt;Node15 -->
<g id="edge32" class="edge"><title>Node28&#45;&gt;Node15</title>
<path fill="none" stroke="midnightblue" d="M857.789,-148.771C967.898,-152.089 1202.27,-159.151 1293.03,-161.886"/>
<polygon fill="midnightblue" stroke="midnightblue" points="857.631,-145.265 847.53,-148.462 857.42,-152.262 857.631,-145.265"/>
</g>
<!-- Node31 -->
<g id="node31" class="node"><title>Node31</title>
<g id="a_node31"><a xlink:href="tiffio_8h.html#a6a6f378631870d532cfc3713a0cf80bb" target="_top" xlink:title="TIFFWriteTile">
<polygon fill="white" stroke="black" points="308.998,-78 308.998,-98 385.002,-98 385.002,-78 308.998,-78"/>
<text text-anchor="middle" x="347" y="-84" font-family="Helvetica,sans-Serif" font-size="10.00">TIFFWriteTile</text>
</a>
</g>
</g>
<!-- Node30&#45;&gt;Node31 -->
<g id="edge35" class="edge"><title>Node30&#45;&gt;Node31</title>
<path fill="none" stroke="midnightblue" d="M265.947,-88C280.68,-88 295.766,-88 308.814,-88"/>
<polygon fill="midnightblue" stroke="midnightblue" points="265.834,-84.5001 255.834,-88 265.834,-91.5001 265.834,-84.5001"/>
</g>
</g>
</svg>
        <g id="navigator" transform="translate(0 0)" fill="#404254">
                <rect fill="#f2f5e9" fill-opacity="0.5" stroke="#606060" stroke-width=".5" x="0" y="0" width="60" height="60"/>
                <use id="zoomplus" xlink:href="#zoomPlus" x="17" y="9" onmousedown="handleZoom(evt,'in')"/>
                <use id="zoomminus" xlink:href="#zoomMin" x="42" y="9" onmousedown="handleZoom(evt,'out')"/>
                <use id="reset" xlink:href="#resetDef" x="30" y="36" onmousedown="handleReset()"/>
                <g id="arrowUp" xlink:href="#dirArrow" transform="translate(30 24)" onmousedown="handlePan(0,-1)">
                  <use xlink:href="#rim" fill="#404040">
                        <set attributeName="fill" to="#808080" begin="arrowUp.mouseover" end="arrowUp.mouseout"/>
                  </use>
                  <path fill="none" stroke="white" stroke-width="1.5" d="M0,-3.0v7 M-2.5,-0.5L0,-3.0L2.5,-0.5"/>
                </g>
                <g id="arrowRight" xlink:href="#dirArrow" transform="rotate(90) translate(36 -43)" onmousedown="handlePan(1,0)">
                  <use xlink:href="#rim" fill="#404040">
                        <set attributeName="fill" to="#808080" begin="arrowRight.mouseover" end="arrowRight.mouseout"/>
                  </use>
                  <path fill="none" stroke="white" stroke-width="1.5" d="M0,-3.0v7 M-2.5,-0.5L0,-3.0L2.5,-0.5"/>
                </g>
                <g id="arrowDown" xlink:href="#dirArrow" transform="rotate(180) translate(-30 -48)" onmousedown="handlePan(0,1)">
                  <use xlink:href="#rim" fill="#404040">
                        <set attributeName="fill" to="#808080" begin="arrowDown.mouseover" end="arrowDown.mouseout"/>
                  </use>
                  <path fill="none" stroke="white" stroke-width="1.5" d="M0,-3.0v7 M-2.5,-0.5L0,-3.0L2.5,-0.5"/>
                </g>
                <g id="arrowLeft" xlink:href="#dirArrow" transform="rotate(270) translate(-36 17)" onmousedown="handlePan(-1,0)">
                  <use xlink:href="#rim" fill="#404040">
                        <set attributeName="fill" to="#808080" begin="arrowLeft.mouseover" end="arrowLeft.mouseout"/>
                  </use>
                  <path fill="none" stroke="white" stroke-width="1.5" d="M0,-3.0v7 M-2.5,-0.5L0,-3.0L2.5,-0.5"/>
                </g>
        </g>
        <svg viewBox="0 0 15 15" width="100%" height="30px" preserveAspectRatio="xMaxYMin meet">
         <g id="arrow_out" transform="scale(0.3 0.3)">
          <a xlink:href="tif__write_8c_a26e4e0756dea1aebc15c275e0714cef8_icgraph_org.svg" target="_base">
           <rect id="button" ry="5" rx="5" y="6" x="6" height="38" width="38"
                fill="#f2f5e9" fill-opacity="0.5" stroke="#606060" stroke-width="1.0"/>
           <path id="arrow"
             d="M 11.500037,31.436501 C 11.940474,20.09759 22.043105,11.32322 32.158766,21.979434 L 37.068811,17.246167 C 37.068811,17.246167 37.088388,32 37.088388,32 L 22.160133,31.978069 C 22.160133,31.978069 26.997745,27.140456 26.997745,27.140456 C 18.528582,18.264221 13.291696,25.230495 11.500037,31.436501 z"
             style="fill:#404040;"/>
          </a>
         </g>
        </svg>
</svg>
