<?xml version="1.0" encoding="UTF-8" standalone="no"?>
<!DOCTYPE svg PUBLIC "-//W3C//DTD SVG 1.1//EN"
 "http://www.w3.org/Graphics/SVG/1.1/DTD/svg11.dtd">
<!-- Generated by graphviz version 2.32.0 (20130916.1925)
 -->
<!-- Title: TIFFFetchData Pages: 1 -->
<svg width="1580pt" height="402pt"
 viewBox="0.00 0.00 1580.00 402.08" xmlns="http://www.w3.org/2000/svg" xmlns:xlink="http://www.w3.org/1999/xlink">
<g id="graph0" class="graph" transform="scale(1 1) rotate(0) translate(4 398.078)">
<title>TIFFFetchData</title>
<polygon fill="white" stroke="white" points="-4,5 -4,-398.078 1577,-398.078 1577,5 -4,5"/>
<!-- Node1 -->
<g id="node1" class="node"><title>Node1</title>
<polygon fill="#bfbfbf" stroke="black" points="0.381836,-218.078 0.381836,-238.078 83.6182,-238.078 83.6182,-218.078 0.381836,-218.078"/>
<text text-anchor="middle" x="42" y="-224.078" font-family="Helvetica,sans-Serif" font-size="10.00">TIFFFetchData</text>
</g>
<!-- Node2 -->
<g id="node2" class="node"><title>Node2</title>
<g id="a_node2"><a xlink:href="tif__dirread_8c.html#a37834ebcb9dcc5c547cfa0fbfb17ec96" target="_top" xlink:title="TIFFFetchByteArray">
<polygon fill="white" stroke="black" points="128.993,-179.078 128.993,-199.078 235.007,-199.078 235.007,-179.078 128.993,-179.078"/>
<text text-anchor="middle" x="182" y="-185.078" font-family="Helvetica,sans-Serif" font-size="10.00">TIFFFetchByteArray</text>
</a>
</g>
</g>
<!-- Node1&#45;&gt;Node2 -->
<g id="edge1" class="edge"><title>Node1&#45;&gt;Node2</title>
<path fill="none" stroke="midnightblue" d="M88.2836,-215.28C106.898,-210.02 128.134,-204.018 145.582,-199.087"/>
<polygon fill="midnightblue" stroke="midnightblue" points="87.2097,-211.947 78.5384,-218.035 89.1134,-218.683 87.2097,-211.947"/>
</g>
<!-- Node5 -->
<g id="node5" class="node"><title>Node5</title>
<g id="a_node5"><a xlink:href="tiffio_8h.html#ab5f774a4a20c860a3d28a42e8b7166b4" target="_top" xlink:title="TIFFReadDirectory">
<polygon fill="white" stroke="black" points="613.493,-121.078 613.493,-141.078 714.507,-141.078 714.507,-121.078 613.493,-121.078"/>
<text text-anchor="middle" x="664" y="-127.078" font-family="Helvetica,sans-Serif" font-size="10.00">TIFFReadDirectory</text>
</a>
</g>
</g>
<!-- Node1&#45;&gt;Node5 -->
<g id="edge55" class="edge"><title>Node1&#45;&gt;Node5</title>
<path fill="none" stroke="midnightblue" d="M48.6018,-208.2C58.1323,-178.115 80.4229,-121.33 120,-91.078 231.419,-5.91302 286.824,-31.3199 426,-14.078 487.75,-6.42802 509.686,12.3851 566,-14.078 614.477,-36.8581 647.066,-97.0799 658.482,-121.039"/>
<polygon fill="midnightblue" stroke="midnightblue" points="45.1897,-207.392 45.6594,-217.977 51.8928,-209.41 45.1897,-207.392"/>
</g>
<!-- Node25 -->
<g id="node25" class="node"><title>Node25</title>
<g id="a_node25"><a xlink:href="tif__dirread_8c.html#a29e964b0d03debc1489af672a20bac12" target="_top" xlink:title="TIFFFetchDoubleArray">
<polygon fill="white" stroke="black" points="123.153,-296.078 123.153,-316.078 240.847,-316.078 240.847,-296.078 123.153,-296.078"/>
<text text-anchor="middle" x="182" y="-302.078" font-family="Helvetica,sans-Serif" font-size="10.00">TIFFFetchDoubleArray</text>
</a>
</g>
</g>
<!-- Node1&#45;&gt;Node25 -->
<g id="edge27" class="edge"><title>Node1&#45;&gt;Node25</title>
<path fill="none" stroke="midnightblue" d="M62.1196,-245.322C77.0098,-258.018 98.6692,-274.94 120,-286.078 127.41,-289.947 135.713,-293.265 143.751,-296.024"/>
<polygon fill="midnightblue" stroke="midnightblue" points="64.027,-242.341 54.1883,-238.41 59.4282,-247.619 64.027,-242.341"/>
</g>
<!-- Node26 -->
<g id="node26" class="node"><title>Node26</title>
<g id="a_node26"><a xlink:href="tif__dirread_8c.html#a5ba65dc930b791217ca15cfa76e1583e" target="_top" xlink:title="TIFFFetchFloatArray">
<polygon fill="white" stroke="black" points="127.882,-374.078 127.882,-394.078 236.118,-394.078 236.118,-374.078 127.882,-374.078"/>
<text text-anchor="middle" x="182" y="-380.078" font-family="Helvetica,sans-Serif" font-size="10.00">TIFFFetchFloatArray</text>
</a>
</g>
</g>
<!-- Node1&#45;&gt;Node26 -->
<g id="edge30" class="edge"><title>Node1&#45;&gt;Node26</title>
<path fill="none" stroke="midnightblue" d="M49.057,-247.908C59.0734,-277.441 81.8616,-332.843 120,-364.078 125.001,-368.174 130.867,-371.44 136.949,-374.043"/>
<polygon fill="midnightblue" stroke="midnightblue" points="52.3527,-246.725 45.9399,-238.291 45.6938,-248.883 52.3527,-246.725"/>
</g>
<!-- Node27 -->
<g id="node27" class="node"><title>Node27</title>
<g id="a_node27"><a xlink:href="tif__dirread_8c.html#a5bbdba62505d7d379f45c64c4ac1edc7" target="_top" xlink:title="TIFFFetchLongArray">
<polygon fill="white" stroke="black" points="127.875,-101.078 127.875,-121.078 236.125,-121.078 236.125,-101.078 127.875,-101.078"/>
<text text-anchor="middle" x="182" y="-107.078" font-family="Helvetica,sans-Serif" font-size="10.00">TIFFFetchLongArray</text>
</a>
</g>
</g>
<!-- Node1&#45;&gt;Node27 -->
<g id="edge33" class="edge"><title>Node1&#45;&gt;Node27</title>
<path fill="none" stroke="midnightblue" d="M53.2038,-209.002C65.9797,-186.887 89.8913,-150.827 120,-130.078 125.206,-126.49 131.118,-123.558 137.163,-121.168"/>
<polygon fill="midnightblue" stroke="midnightblue" points="50.1049,-207.373 48.2795,-217.809 56.2147,-210.789 50.1049,-207.373"/>
</g>
<!-- Node30 -->
<g id="node30" class="node"><title>Node30</title>
<g id="a_node30"><a xlink:href="tif__dirread_8c.html#a729e093b898c3feda45499391184907c" target="_top" xlink:title="TIFFFetchRational">
<polygon fill="white" stroke="black" points="132.599,-257.078 132.599,-277.078 231.401,-277.078 231.401,-257.078 132.599,-257.078"/>
<text text-anchor="middle" x="182" y="-263.078" font-family="Helvetica,sans-Serif" font-size="10.00">TIFFFetchRational</text>
</a>
</g>
</g>
<!-- Node1&#45;&gt;Node30 -->
<g id="edge41" class="edge"><title>Node1&#45;&gt;Node30</title>
<path fill="none" stroke="midnightblue" d="M88.2836,-240.876C106.898,-246.136 128.134,-252.138 145.582,-257.069"/>
<polygon fill="midnightblue" stroke="midnightblue" points="89.1134,-237.473 78.5384,-238.121 87.2097,-244.209 89.1134,-237.473"/>
</g>
<!-- Node31 -->
<g id="node31" class="node"><title>Node31</title>
<g id="a_node31"><a xlink:href="tif__dirread_8c.html#af0bc99948eae3688d089651dd5c17882" target="_top" xlink:title="TIFFFetchRationalArray">
<polygon fill="white" stroke="black" points="120.653,-335.078 120.653,-355.078 243.347,-355.078 243.347,-335.078 120.653,-335.078"/>
<text text-anchor="middle" x="182" y="-341.078" font-family="Helvetica,sans-Serif" font-size="10.00">TIFFFetchRationalArray</text>
</a>
</g>
</g>
<!-- Node1&#45;&gt;Node31 -->
<g id="edge43" class="edge"><title>Node1&#45;&gt;Node31</title>
<path fill="none" stroke="midnightblue" d="M53.3049,-246.88C66.1781,-268.693 90.1832,-304.312 120,-325.078 125.762,-329.091 132.382,-332.34 139.089,-334.958"/>
<polygon fill="midnightblue" stroke="midnightblue" points="56.3413,-245.139 48.3385,-238.196 50.2648,-248.614 56.3413,-245.139"/>
</g>
<!-- Node32 -->
<g id="node32" class="node"><title>Node32</title>
<g id="a_node32"><a xlink:href="tif__dirread_8c.html#ad425533d8f6b4704b5648c14f16ce14d" target="_top" xlink:title="TIFFFetchShortArray">
<polygon fill="white" stroke="black" points="127.047,-140.078 127.047,-160.078 236.953,-160.078 236.953,-140.078 127.047,-140.078"/>
<text text-anchor="middle" x="182" y="-146.078" font-family="Helvetica,sans-Serif" font-size="10.00">TIFFFetchShortArray</text>
</a>
</g>
</g>
<!-- Node1&#45;&gt;Node32 -->
<g id="edge46" class="edge"><title>Node1&#45;&gt;Node32</title>
<path fill="none" stroke="midnightblue" d="M61.0917,-211.24C75.9475,-198.182 98.0449,-180.449 120,-169.078 126.698,-165.609 134.141,-162.643 141.462,-160.156"/>
<polygon fill="midnightblue" stroke="midnightblue" points="58.7299,-208.657 53.6303,-217.944 63.4082,-213.864 58.7299,-208.657"/>
</g>
<!-- Node34 -->
<g id="node34" class="node"><title>Node34</title>
<g id="a_node34"><a xlink:href="tif__dirread_8c.html#a5ebd28727b33b7e2c66c8359df383fa9" target="_top" xlink:title="TIFFFetchString">
<polygon fill="white" stroke="black" points="137.882,-218.078 137.882,-238.078 226.118,-238.078 226.118,-218.078 137.882,-218.078"/>
<text text-anchor="middle" x="182" y="-224.078" font-family="Helvetica,sans-Serif" font-size="10.00">TIFFFetchString</text>
</a>
</g>
</g>
<!-- Node1&#45;&gt;Node34 -->
<g id="edge53" class="edge"><title>Node1&#45;&gt;Node34</title>
<path fill="none" stroke="midnightblue" d="M93.9063,-228.078C108.309,-228.078 123.844,-228.078 137.75,-228.078"/>
<polygon fill="midnightblue" stroke="midnightblue" points="93.6582,-224.578 83.6582,-228.078 93.6581,-231.578 93.6582,-224.578"/>
</g>
<!-- Node3 -->
<g id="node3" class="node"><title>Node3</title>
<g id="a_node3"><a xlink:href="tif__dirread_8c.html#a4fbe0ea1105ba8bb93822622880173e9" target="_top" xlink:title="TIFFFetchAnyArray">
<polygon fill="white" stroke="black" points="283.382,-296.078 283.382,-316.078 386.618,-316.078 386.618,-296.078 283.382,-296.078"/>
<text text-anchor="middle" x="335" y="-302.078" font-family="Helvetica,sans-Serif" font-size="10.00">TIFFFetchAnyArray</text>
</a>
</g>
</g>
<!-- Node2&#45;&gt;Node3 -->
<g id="edge2" class="edge"><title>Node2&#45;&gt;Node3</title>
<path fill="none" stroke="midnightblue" d="M235.112,-203.191C238.2,-204.672 241.189,-206.297 244,-208.078 244.625,-208.474 301.962,-271.078 324.782,-296.007"/>
<polygon fill="midnightblue" stroke="midnightblue" points="236.206,-199.853 225.633,-199.17 233.472,-206.298 236.206,-199.853"/>
</g>
<!-- Node20 -->
<g id="node20" class="node"><title>Node20</title>
<g id="a_node20"><a xlink:href="tif__dirread_8c.html#a04526f5cd630d655c8d723d511d82731" target="_top" xlink:title="TIFFFetchNormalTag">
<polygon fill="white" stroke="black" points="279.769,-218.078 279.769,-238.078 390.231,-238.078 390.231,-218.078 279.769,-218.078"/>
<text text-anchor="middle" x="335" y="-224.078" font-family="Helvetica,sans-Serif" font-size="10.00">TIFFFetchNormalTag</text>
</a>
</g>
</g>
<!-- Node2&#45;&gt;Node20 -->
<g id="edge19" class="edge"><title>Node2&#45;&gt;Node20</title>
<path fill="none" stroke="midnightblue" d="M231.706,-201.658C252.274,-206.97 275.89,-213.07 295.246,-218.069"/>
<polygon fill="midnightblue" stroke="midnightblue" points="232.444,-198.233 221.886,-199.121 230.693,-205.011 232.444,-198.233"/>
</g>
<!-- Node24 -->
<g id="node24" class="node"><title>Node24</title>
<g id="a_node24"><a xlink:href="tif__dirread_8c.html#abc17480aa378a746623ecef2e7619400" target="_top" xlink:title="TIFFFetchShortPair">
<polygon fill="white" stroke="black" points="283.101,-179.078 283.101,-199.078 386.899,-199.078 386.899,-179.078 283.101,-179.078"/>
<text text-anchor="middle" x="335" y="-185.078" font-family="Helvetica,sans-Serif" font-size="10.00">TIFFFetchShortPair</text>
</a>
</g>
</g>
<!-- Node2&#45;&gt;Node24 -->
<g id="edge25" class="edge"><title>Node2&#45;&gt;Node24</title>
<path fill="none" stroke="midnightblue" d="M245.68,-189.078C258.102,-189.078 271.001,-189.078 282.978,-189.078"/>
<polygon fill="midnightblue" stroke="midnightblue" points="245.389,-185.578 235.389,-189.078 245.389,-192.578 245.389,-185.578"/>
</g>
<!-- Node4 -->
<g id="node4" class="node"><title>Node4</title>
<g id="a_node4"><a xlink:href="tif__dirread_8c.html#ac440f186c9c9450ae1d006817e80a6b8" target="_top" xlink:title="TIFFFetchPerSampleAnys">
<polygon fill="white" stroke="black" points="429.094,-296.078 429.094,-316.078 562.906,-316.078 562.906,-296.078 429.094,-296.078"/>
<text text-anchor="middle" x="496" y="-302.078" font-family="Helvetica,sans-Serif" font-size="10.00">TIFFFetchPerSampleAnys</text>
</a>
</g>
</g>
<!-- Node3&#45;&gt;Node4 -->
<g id="edge3" class="edge"><title>Node3&#45;&gt;Node4</title>
<path fill="none" stroke="midnightblue" d="M397.043,-306.078C407.52,-306.078 418.449,-306.078 429.048,-306.078"/>
<polygon fill="midnightblue" stroke="midnightblue" points="396.746,-302.578 386.746,-306.078 396.746,-309.578 396.746,-302.578"/>
</g>
<!-- Node4&#45;&gt;Node5 -->
<g id="edge4" class="edge"><title>Node4&#45;&gt;Node5</title>
<path fill="none" stroke="midnightblue" d="M557.125,-291.724C560.244,-290.045 563.229,-288.171 566,-286.078 592.851,-265.798 641.752,-172.809 657.768,-141.443"/>
<polygon fill="midnightblue" stroke="midnightblue" points="555.632,-288.558 548.046,-295.954 558.589,-294.903 555.632,-288.558"/>
</g>
<!-- Node6 -->
<g id="node6" class="node"><title>Node6</title>
<g id="a_node6"><a xlink:href="tiffio_8h.html#a165611e0432d36de8bcf57f35e161bd3" target="_top" xlink:title="TIFFClientOpen">
<polygon fill="white" stroke="black" points="773.434,-160.078 773.434,-180.078 860.566,-180.078 860.566,-160.078 773.434,-160.078"/>
<text text-anchor="middle" x="817" y="-166.078" font-family="Helvetica,sans-Serif" font-size="10.00">TIFFClientOpen</text>
</a>
</g>
</g>
<!-- Node5&#45;&gt;Node6 -->
<g id="edge5" class="edge"><title>Node5&#45;&gt;Node6</title>
<path fill="none" stroke="midnightblue" d="M713.706,-143.658C734.274,-148.97 757.89,-155.07 777.246,-160.069"/>
<polygon fill="midnightblue" stroke="midnightblue" points="714.444,-140.233 703.886,-141.121 712.693,-147.011 714.444,-140.233"/>
</g>
<!-- Node18 -->
<g id="node18" class="node"><title>Node18</title>
<g id="a_node18"><a xlink:href="tiffio_8h.html#a58cdb91e8e93b12c8002ade2e4072251" target="_top" xlink:title="TIFFSetDirectory">
<polygon fill="white" stroke="black" points="770.941,-121.078 770.941,-141.078 863.059,-141.078 863.059,-121.078 770.941,-121.078"/>
<text text-anchor="middle" x="817" y="-127.078" font-family="Helvetica,sans-Serif" font-size="10.00">TIFFSetDirectory</text>
</a>
</g>
</g>
<!-- Node5&#45;&gt;Node18 -->
<g id="edge17" class="edge"><title>Node5&#45;&gt;Node18</title>
<path fill="none" stroke="midnightblue" d="M725.211,-131.078C740.405,-131.078 756.461,-131.078 770.777,-131.078"/>
<polygon fill="midnightblue" stroke="midnightblue" points="724.862,-127.578 714.862,-131.078 724.861,-134.578 724.862,-127.578"/>
</g>
<!-- Node19 -->
<g id="node19" class="node"><title>Node19</title>
<g id="a_node19"><a xlink:href="tiffio_8h.html#a33628efcd540db4412ec3cd7761c3733" target="_top" xlink:title="TIFFSetSubDirectory">
<polygon fill="white" stroke="black" points="762.044,-82.078 762.044,-102.078 871.956,-102.078 871.956,-82.078 762.044,-82.078"/>
<text text-anchor="middle" x="817" y="-88.078" font-family="Helvetica,sans-Serif" font-size="10.00">TIFFSetSubDirectory</text>
</a>
</g>
</g>
<!-- Node5&#45;&gt;Node19 -->
<g id="edge18" class="edge"><title>Node5&#45;&gt;Node19</title>
<path fill="none" stroke="midnightblue" d="M713.706,-118.498C734.274,-113.186 757.89,-107.086 777.246,-102.087"/>
<polygon fill="midnightblue" stroke="midnightblue" points="712.693,-115.145 703.886,-121.035 714.444,-121.923 712.693,-115.145"/>
</g>
<!-- Node7 -->
<g id="node7" class="node"><title>Node7</title>
<g id="a_node7"><a xlink:href="tiffio_8h.html#adca230876d2f7fdec1ff6c7fdb7898a8" target="_top" xlink:title="TIFFFdOpen">
<polygon fill="white" stroke="black" points="908.382,-160.078 908.382,-180.078 981.618,-180.078 981.618,-160.078 908.382,-160.078"/>
<text text-anchor="middle" x="945" y="-166.078" font-family="Helvetica,sans-Serif" font-size="10.00">TIFFFdOpen</text>
</a>
</g>
</g>
<!-- Node6&#45;&gt;Node7 -->
<g id="edge6" class="edge"><title>Node6&#45;&gt;Node7</title>
<path fill="none" stroke="midnightblue" d="M870.995,-170.078C883.505,-170.078 896.555,-170.078 908.104,-170.078"/>
<polygon fill="midnightblue" stroke="midnightblue" points="870.658,-166.578 860.658,-170.078 870.658,-173.578 870.658,-166.578"/>
</g>
<!-- Node8 -->
<g id="node8" class="node"><title>Node8</title>
<g id="a_node8"><a xlink:href="tiffio_8h.html#ac3dd18826e617eb451c74f33a32fcb10" target="_top" xlink:title="TIFFOpen">
<polygon fill="white" stroke="black" points="1018.22,-160.078 1018.22,-180.078 1079.78,-180.078 1079.78,-160.078 1018.22,-160.078"/>
<text text-anchor="middle" x="1049" y="-166.078" font-family="Helvetica,sans-Serif" font-size="10.00">TIFFOpen</text>
</a>
</g>
</g>
<!-- Node7&#45;&gt;Node8 -->
<g id="edge7" class="edge"><title>Node7&#45;&gt;Node8</title>
<path fill="none" stroke="midnightblue" d="M991.884,-170.078C1000.72,-170.078 1009.75,-170.078 1017.93,-170.078"/>
<polygon fill="midnightblue" stroke="midnightblue" points="991.675,-166.578 981.675,-170.078 991.675,-173.578 991.675,-166.578"/>
</g>
<!-- Node9 -->
<g id="node9" class="node"><title>Node9</title>
<g id="a_node9"><a xlink:href="class_t_i_f_f_reader_internal.html#adc7888a9bc3fe28248b49b8b204ae8ae" target="_top" xlink:title="TIFFReaderInternal\l::Open">
<polygon fill="white" stroke="black" points="1116.37,-193.078 1116.37,-225.078 1219.63,-225.078 1219.63,-193.078 1116.37,-193.078"/>
<text text-anchor="start" x="1124.37" y="-211.078" font-family="Helvetica,sans-Serif" font-size="10.00">TIFFReaderInternal</text>
<text text-anchor="middle" x="1168" y="-199.078" font-family="Helvetica,sans-Serif" font-size="10.00">::Open</text>
</a>
</g>
</g>
<!-- Node8&#45;&gt;Node9 -->
<g id="edge8" class="edge"><title>Node8&#45;&gt;Node9</title>
<path fill="none" stroke="midnightblue" d="M1089.6,-183.278C1098.91,-186.382 1108.94,-189.724 1118.59,-192.941"/>
<polygon fill="midnightblue" stroke="midnightblue" points="1090.42,-179.862 1079.83,-180.02 1088.21,-186.503 1090.42,-179.862"/>
</g>
<!-- Node13 -->
<g id="node13" class="node"><title>Node13</title>
<g id="a_node13"><a xlink:href="classrc_window.html#adf6ca47beb76a8bfdc73369f80dd003d" target="_top" xlink:title="rcWindow::tiff">
<polygon fill="white" stroke="black" points="1130.08,-138.078 1130.08,-158.078 1205.92,-158.078 1205.92,-138.078 1130.08,-138.078"/>
<text text-anchor="middle" x="1168" y="-144.078" font-family="Helvetica,sans-Serif" font-size="10.00">rcWindow::tiff</text>
</a>
</g>
</g>
<!-- Node8&#45;&gt;Node13 -->
<g id="edge12" class="edge"><title>Node8&#45;&gt;Node13</title>
<path fill="none" stroke="midnightblue" d="M1089.82,-162.59C1102.72,-160.165 1116.97,-157.485 1129.68,-155.096"/>
<polygon fill="midnightblue" stroke="midnightblue" points="1089.01,-159.182 1079.83,-164.47 1090.3,-166.061 1089.01,-159.182"/>
</g>
<!-- Node10 -->
<g id="node10" class="node"><title>Node10</title>
<g id="a_node10"><a xlink:href="class_t_i_f_f_image_i_o.html#abec0d00f473debbd9d05f5a0e4820402" target="_top" xlink:title="TIFFImageIO::CanReadFile">
<polygon fill="white" stroke="black" points="1259.31,-208.078 1259.31,-228.078 1398.69,-228.078 1398.69,-208.078 1259.31,-208.078"/>
<text text-anchor="middle" x="1329" y="-214.078" font-family="Helvetica,sans-Serif" font-size="10.00">TIFFImageIO::CanReadFile</text>
</a>
</g>
</g>
<!-- Node9&#45;&gt;Node10 -->
<g id="edge9" class="edge"><title>Node9&#45;&gt;Node10</title>
<path fill="none" stroke="midnightblue" d="M1229.95,-212.528C1239.51,-213.069 1249.45,-213.632 1259.18,-214.182"/>
<polygon fill="midnightblue" stroke="midnightblue" points="1229.93,-209.021 1219.75,-211.95 1229.53,-216.01 1229.93,-209.021"/>
</g>
<!-- Node11 -->
<g id="node11" class="node"><title>Node11</title>
<g id="a_node11"><a xlink:href="classrc_engine_impl.html#ac0162da8fe4f677ad6f3d04a465d50f0" target="_top" xlink:title="rcEngineImpl::loadMovie">
<polygon fill="white" stroke="black" points="1442.25,-227.078 1442.25,-247.078 1567.75,-247.078 1567.75,-227.078 1442.25,-227.078"/>
<text text-anchor="middle" x="1505" y="-233.078" font-family="Helvetica,sans-Serif" font-size="10.00">rcEngineImpl::loadMovie</text>
</a>
</g>
</g>
<!-- Node10&#45;&gt;Node11 -->
<g id="edge10" class="edge"><title>Node10&#45;&gt;Node11</title>
<path fill="none" stroke="midnightblue" d="M1408.95,-226.699C1420.11,-227.917 1431.45,-229.156 1442.22,-230.332"/>
<polygon fill="midnightblue" stroke="midnightblue" points="1409.09,-223.194 1398.77,-225.587 1408.33,-230.152 1409.09,-223.194"/>
</g>
<!-- Node12 -->
<g id="node12" class="node"><title>Node12</title>
<g id="a_node12"><a xlink:href="classrc_window.html#a5da06176e6878b676bbc534db6b09b7d" target="_top" xlink:title="rcWindow::rcWindow">
<polygon fill="white" stroke="black" points="1450.33,-188.078 1450.33,-208.078 1559.67,-208.078 1559.67,-188.078 1450.33,-188.078"/>
<text text-anchor="middle" x="1505" y="-194.078" font-family="Helvetica,sans-Serif" font-size="10.00">rcWindow::rcWindow</text>
</a>
</g>
</g>
<!-- Node10&#45;&gt;Node12 -->
<g id="edge11" class="edge"><title>Node10&#45;&gt;Node12</title>
<path fill="none" stroke="midnightblue" d="M1408.88,-209.011C1422.86,-207.404 1437.13,-205.765 1450.21,-204.261"/>
<polygon fill="midnightblue" stroke="midnightblue" points="1408.3,-205.554 1398.77,-210.173 1409.1,-212.509 1408.3,-205.554"/>
</g>
<!-- Node14 -->
<g id="node14" class="node"><title>Node14</title>
<g id="a_node14"><a xlink:href="classrc_visual_function.html#a1df64c3605f3a0a4670118911ac783b1" target="_top" xlink:title="rcVisualFunction::cardiac\lMeasure">
<polygon fill="white" stroke="black" points="1265.23,-79.078 1265.23,-111.078 1392.77,-111.078 1392.77,-79.078 1265.23,-79.078"/>
<text text-anchor="start" x="1273.23" y="-97.078" font-family="Helvetica,sans-Serif" font-size="10.00">rcVisualFunction::cardiac</text>
<text text-anchor="middle" x="1329" y="-85.078" font-family="Helvetica,sans-Serif" font-size="10.00">Measure</text>
</a>
</g>
</g>
<!-- Node13&#45;&gt;Node14 -->
<g id="edge13" class="edge"><title>Node13&#45;&gt;Node14</title>
<path fill="none" stroke="midnightblue" d="M1209.05,-134.727C1230.51,-127.575 1257.1,-118.711 1279.7,-111.179"/>
<polygon fill="midnightblue" stroke="midnightblue" points="1207.66,-131.502 1199.28,-137.984 1209.87,-138.142 1207.66,-131.502"/>
</g>
<!-- Node16 -->
<g id="node16" class="node"><title>Node16</title>
<g id="a_node16"><a xlink:href="classrc_engine_impl.html#a00ca0d227e480ddb5bd6be293b55d2c9" target="_top" xlink:title="rcEngineImpl::muscleTracker">
<polygon fill="white" stroke="black" points="1256.44,-169.078 1256.44,-189.078 1401.56,-189.078 1401.56,-169.078 1256.44,-169.078"/>
<text text-anchor="middle" x="1329" y="-175.078" font-family="Helvetica,sans-Serif" font-size="10.00">rcEngineImpl::muscleTracker</text>
</a>
</g>
</g>
<!-- Node13&#45;&gt;Node16 -->
<g id="edge15" class="edge"><title>Node13&#45;&gt;Node16</title>
<path fill="none" stroke="midnightblue" d="M1216.19,-157.279C1235.18,-160.98 1257.12,-165.258 1276.51,-169.039"/>
<polygon fill="midnightblue" stroke="midnightblue" points="1216.76,-153.825 1206.28,-155.346 1215.42,-160.695 1216.76,-153.825"/>
</g>
<!-- Node17 -->
<g id="node17" class="node"><title>Node17</title>
<g id="a_node17"><a xlink:href="rc__edge_8h.html#a11fbb1eb0376dd39a4be2ea72b7ef156" target="_top" xlink:title="rfDirectionSignal">
<polygon fill="white" stroke="black" points="1284.32,-130.078 1284.32,-150.078 1373.68,-150.078 1373.68,-130.078 1284.32,-130.078"/>
<text text-anchor="middle" x="1329" y="-136.078" font-family="Helvetica,sans-Serif" font-size="10.00">rfDirectionSignal</text>
</a>
</g>
</g>
<!-- Node13&#45;&gt;Node17 -->
<g id="edge16" class="edge"><title>Node13&#45;&gt;Node17</title>
<path fill="none" stroke="midnightblue" d="M1216.48,-145.689C1237.96,-144.608 1263.17,-143.34 1284.19,-142.282"/>
<polygon fill="midnightblue" stroke="midnightblue" points="1216.09,-142.204 1206.28,-146.202 1216.44,-149.195 1216.09,-142.204"/>
</g>
<!-- Node15 -->
<g id="node15" class="node"><title>Node15</title>
<g id="a_node15"><a xlink:href="classrc_visual_function.html#ac3135ba614a9ba5080e78c3f2f426312" target="_top" xlink:title="rcVisualFunction::measure">
<polygon fill="white" stroke="black" points="1437.9,-85.078 1437.9,-105.078 1572.1,-105.078 1572.1,-85.078 1437.9,-85.078"/>
<text text-anchor="middle" x="1505" y="-91.078" font-family="Helvetica,sans-Serif" font-size="10.00">rcVisualFunction::measure</text>
</a>
</g>
</g>
<!-- Node14&#45;&gt;Node15 -->
<g id="edge14" class="edge"><title>Node14&#45;&gt;Node15</title>
<path fill="none" stroke="midnightblue" d="M1402.87,-95.078C1414.44,-95.078 1426.35,-95.078 1437.75,-95.078"/>
<polygon fill="midnightblue" stroke="midnightblue" points="1402.82,-91.5781 1392.82,-95.078 1402.82,-98.5781 1402.82,-91.5781"/>
</g>
<!-- Node20&#45;&gt;Node5 -->
<g id="edge20" class="edge"><title>Node20&#45;&gt;Node5</title>
<path fill="none" stroke="midnightblue" d="M400.663,-225.423C447.782,-221.788 512.468,-213.22 566,-193.078 599.484,-180.479 633.567,-155.187 651.04,-141.112"/>
<polygon fill="midnightblue" stroke="midnightblue" points="400.309,-221.94 390.586,-226.147 400.811,-228.922 400.309,-221.94"/>
</g>
<!-- Node21 -->
<g id="node21" class="node"><title>Node21</title>
<g id="a_node21"><a xlink:href="tiffio_8h.html#ab3cb4edaf203fa41478bc4bfc6b227f7" target="_top" xlink:title="TIFFReadCustomDirectory">
<polygon fill="white" stroke="black" points="428.266,-257.078 428.266,-277.078 563.734,-277.078 563.734,-257.078 428.266,-257.078"/>
<text text-anchor="middle" x="496" y="-263.078" font-family="Helvetica,sans-Serif" font-size="10.00">TIFFReadCustomDirectory</text>
</a>
</g>
</g>
<!-- Node20&#45;&gt;Node21 -->
<g id="edge21" class="edge"><title>Node20&#45;&gt;Node21</title>
<path fill="none" stroke="midnightblue" d="M386.697,-240.513C408.492,-245.859 433.626,-252.024 454.192,-257.069"/>
<polygon fill="midnightblue" stroke="midnightblue" points="387.492,-237.105 376.946,-238.121 385.825,-243.903 387.492,-237.105"/>
</g>
<!-- Node23 -->
<g id="node23" class="node"><title>Node23</title>
<g id="a_node23"><a xlink:href="tif__dirread_8c.html#abc98a039cf0dded7164de706bc8706c0" target="_top" xlink:title="TIFFFetchRefBlackWhite">
<polygon fill="white" stroke="black" points="432.155,-102.078 432.155,-122.078 559.845,-122.078 559.845,-102.078 432.155,-102.078"/>
<text text-anchor="middle" x="496" y="-108.078" font-family="Helvetica,sans-Serif" font-size="10.00">TIFFFetchRefBlackWhite</text>
</a>
</g>
</g>
<!-- Node20&#45;&gt;Node23 -->
<g id="edge23" class="edge"><title>Node20&#45;&gt;Node23</title>
<path fill="none" stroke="midnightblue" d="M383.748,-212.961C385.967,-211.479 388.069,-209.855 390,-208.078 417.793,-182.491 397.132,-155.446 426,-131.078 430.273,-127.471 435.175,-124.546 440.354,-122.173"/>
<polygon fill="midnightblue" stroke="midnightblue" points="381.75,-210.067 374.731,-218.003 385.167,-216.177 381.75,-210.067"/>
</g>
<!-- Node22 -->
<g id="node22" class="node"><title>Node22</title>
<g id="a_node22"><a xlink:href="tiffio_8h.html#a8e1741c4dfa13bbb8432aaab1fc269e8" target="_top" xlink:title="TIFFReadEXIFDirectory">
<polygon fill="white" stroke="black" points="602.379,-257.078 602.379,-277.078 725.621,-277.078 725.621,-257.078 602.379,-257.078"/>
<text text-anchor="middle" x="664" y="-263.078" font-family="Helvetica,sans-Serif" font-size="10.00">TIFFReadEXIFDirectory</text>
</a>
</g>
</g>
<!-- Node21&#45;&gt;Node22 -->
<g id="edge22" class="edge"><title>Node21&#45;&gt;Node22</title>
<path fill="none" stroke="midnightblue" d="M574.164,-267.078C583.551,-267.078 593.038,-267.078 602.141,-267.078"/>
<polygon fill="midnightblue" stroke="midnightblue" points="574.04,-263.578 564.04,-267.078 574.04,-270.578 574.04,-263.578"/>
</g>
<!-- Node23&#45;&gt;Node5 -->
<g id="edge24" class="edge"><title>Node23&#45;&gt;Node5</title>
<path fill="none" stroke="midnightblue" d="M570.237,-120.461C584.816,-122.129 599.802,-123.845 613.363,-125.397"/>
<polygon fill="midnightblue" stroke="midnightblue" points="570.564,-116.975 560.231,-119.315 569.768,-123.93 570.564,-116.975"/>
</g>
<!-- Node24&#45;&gt;Node5 -->
<g id="edge26" class="edge"><title>Node24&#45;&gt;Node5</title>
<path fill="none" stroke="midnightblue" d="M397.211,-188.981C444.007,-187.721 509.815,-183.373 566,-170.078 593.73,-163.516 623.931,-150.334 643.142,-141.12"/>
<polygon fill="midnightblue" stroke="midnightblue" points="396.849,-185.489 386.932,-189.217 397.01,-192.487 396.849,-185.489"/>
</g>
<!-- Node25&#45;&gt;Node3 -->
<g id="edge28" class="edge"><title>Node25&#45;&gt;Node3</title>
<path fill="none" stroke="midnightblue" d="M251.221,-306.078C262.029,-306.078 273.039,-306.078 283.352,-306.078"/>
<polygon fill="midnightblue" stroke="midnightblue" points="250.949,-302.578 240.949,-306.078 250.949,-309.578 250.949,-302.578"/>
</g>
<!-- Node25&#45;&gt;Node20 -->
<g id="edge29" class="edge"><title>Node25&#45;&gt;Node20</title>
<path fill="none" stroke="midnightblue" d="M228.359,-292.649C233.712,-290.643 239.032,-288.445 244,-286.078 272.863,-272.326 303.569,-250.871 320.612,-238.272"/>
<polygon fill="midnightblue" stroke="midnightblue" points="227.018,-289.411 218.759,-296.048 229.354,-296.009 227.018,-289.411"/>
</g>
<!-- Node26&#45;&gt;Node3 -->
<g id="edge31" class="edge"><title>Node26&#45;&gt;Node3</title>
<path fill="none" stroke="midnightblue" d="M228.359,-370.649C233.712,-368.643 239.032,-366.445 244,-364.078 272.863,-350.326 303.569,-328.871 320.612,-316.272"/>
<polygon fill="midnightblue" stroke="midnightblue" points="227.018,-367.411 218.759,-374.048 229.354,-374.009 227.018,-367.411"/>
</g>
<!-- Node26&#45;&gt;Node20 -->
<g id="edge32" class="edge"><title>Node26&#45;&gt;Node20</title>
<path fill="none" stroke="midnightblue" d="M237.553,-368.967C239.832,-367.487 241.997,-365.862 244,-364.078 272.512,-338.685 258.724,-317.782 280,-286.078 292.42,-267.571 310.745,-249.261 322.528,-238.309"/>
<polygon fill="midnightblue" stroke="midnightblue" points="235.417,-366.144 228.297,-373.99 238.756,-372.296 235.417,-366.144"/>
</g>
<!-- Node27&#45;&gt;Node3 -->
<g id="edge34" class="edge"><title>Node27&#45;&gt;Node3</title>
<path fill="none" stroke="midnightblue" d="M240.061,-126.589C241.444,-127.674 242.762,-128.836 244,-130.078 282.404,-168.615 252.974,-199.859 280,-247.078 291.174,-266.601 309.83,-285.042 322.024,-295.952"/>
<polygon fill="midnightblue" stroke="midnightblue" points="241.845,-123.575 231.528,-121.162 238.088,-129.482 241.845,-123.575"/>
</g>
<!-- Node27&#45;&gt;Node20 -->
<g id="edge35" class="edge"><title>Node27&#45;&gt;Node20</title>
<path fill="none" stroke="midnightblue" d="M238.602,-125.96C240.497,-127.222 242.306,-128.592 244,-130.078 272.7,-155.259 251.974,-182.149 280,-208.078 284.403,-212.152 289.708,-215.414 295.251,-218.022"/>
<polygon fill="midnightblue" stroke="midnightblue" points="240.27,-122.883 229.83,-121.081 236.868,-129 240.27,-122.883"/>
</g>
<!-- Node27&#45;&gt;Node23 -->
<g id="edge40" class="edge"><title>Node27&#45;&gt;Node23</title>
<path fill="none" stroke="midnightblue" d="M232.544,-98.842C247.677,-95.6523 264.434,-92.6661 280,-91.078 328.636,-86.1161 341.349,-86.2606 390,-91.078 411.46,-93.2029 435.03,-97.7139 454.393,-102.012"/>
<polygon fill="midnightblue" stroke="midnightblue" points="231.383,-95.5131 222.361,-101.068 232.878,-102.352 231.383,-95.5131"/>
</g>
<!-- Node28 -->
<g id="node28" class="node"><title>Node28</title>
<g id="a_node28"><a xlink:href="tif__dirread_8c.html#a714e8c324ae8a726f79856584cd85a42" target="_top" xlink:title="TIFFFetchPerSampleLongs">
<polygon fill="white" stroke="black" points="426.586,-24.078 426.586,-44.078 565.414,-44.078 565.414,-24.078 426.586,-24.078"/>
<text text-anchor="middle" x="496" y="-30.078" font-family="Helvetica,sans-Serif" font-size="10.00">TIFFFetchPerSampleLongs</text>
</a>
</g>
</g>
<!-- Node27&#45;&gt;Node28 -->
<g id="edge36" class="edge"><title>Node27&#45;&gt;Node28</title>
<path fill="none" stroke="midnightblue" d="M227.79,-98.1777C244.175,-93.573 262.888,-88.4471 280,-84.078 338.11,-69.2408 405.522,-53.8583 449.145,-44.1422"/>
<polygon fill="midnightblue" stroke="midnightblue" points="226.594,-94.8783 217.923,-100.966 228.498,-101.614 226.594,-94.8783"/>
</g>
<!-- Node29 -->
<g id="node29" class="node"><title>Node29</title>
<g id="a_node29"><a xlink:href="tif__dirread_8c.html#acb80635cb796e6e7d5474aa43c8bacdb" target="_top" xlink:title="TIFFFetchStripThing">
<polygon fill="white" stroke="black" points="281.155,-101.078 281.155,-121.078 388.845,-121.078 388.845,-101.078 281.155,-101.078"/>
<text text-anchor="middle" x="335" y="-107.078" font-family="Helvetica,sans-Serif" font-size="10.00">TIFFFetchStripThing</text>
</a>
</g>
</g>
<!-- Node27&#45;&gt;Node29 -->
<g id="edge38" class="edge"><title>Node27&#45;&gt;Node29</title>
<path fill="none" stroke="midnightblue" d="M246.263,-111.078C257.82,-111.078 269.769,-111.078 280.989,-111.078"/>
<polygon fill="midnightblue" stroke="midnightblue" points="246.237,-107.578 236.237,-111.078 246.237,-114.578 246.237,-107.578"/>
</g>
<!-- Node28&#45;&gt;Node5 -->
<g id="edge37" class="edge"><title>Node28&#45;&gt;Node5</title>
<path fill="none" stroke="midnightblue" d="M540.463,-47.639C549.125,-50.9444 558.009,-54.7839 566,-59.078 599.623,-77.1451 634.465,-105.914 651.799,-121.037"/>
<polygon fill="midnightblue" stroke="midnightblue" points="541.432,-44.267 530.838,-44.1381 539.039,-50.8454 541.432,-44.267"/>
</g>
<!-- Node29&#45;&gt;Node5 -->
<g id="edge39" class="edge"><title>Node29&#45;&gt;Node5</title>
<path fill="none" stroke="midnightblue" d="M384.627,-98.884C397.952,-96.0718 412.457,-93.4919 426,-92.078 487.886,-85.6168 504.911,-80.2571 566,-92.078 594.512,-97.5951 625.275,-111.45 644.337,-121.066"/>
<polygon fill="midnightblue" stroke="midnightblue" points="383.719,-95.4999 374.703,-101.064 385.221,-102.337 383.719,-95.4999"/>
</g>
<!-- Node30&#45;&gt;Node20 -->
<g id="edge42" class="edge"><title>Node30&#45;&gt;Node20</title>
<path fill="none" stroke="midnightblue" d="M231.706,-254.498C252.274,-249.186 275.89,-243.086 295.246,-238.087"/>
<polygon fill="midnightblue" stroke="midnightblue" points="230.693,-251.145 221.886,-257.035 232.444,-257.923 230.693,-251.145"/>
</g>
<!-- Node31&#45;&gt;Node3 -->
<g id="edge44" class="edge"><title>Node31&#45;&gt;Node3</title>
<path fill="none" stroke="midnightblue" d="M231.706,-332.498C252.274,-327.186 275.89,-321.086 295.246,-316.087"/>
<polygon fill="midnightblue" stroke="midnightblue" points="230.693,-329.145 221.886,-335.035 232.444,-335.923 230.693,-329.145"/>
</g>
<!-- Node31&#45;&gt;Node20 -->
<g id="edge45" class="edge"><title>Node31&#45;&gt;Node20</title>
<path fill="none" stroke="midnightblue" d="M232.714,-331.204C236.651,-329.384 240.466,-327.348 244,-325.078 263.846,-312.327 263.963,-303.377 280,-286.078 295.527,-269.329 313.623,-249.914 324.427,-238.333"/>
<polygon fill="midnightblue" stroke="midnightblue" points="231.279,-328.01 223.38,-335.071 233.958,-334.477 231.279,-328.01"/>
</g>
<!-- Node32&#45;&gt;Node3 -->
<g id="edge48" class="edge"><title>Node32&#45;&gt;Node3</title>
<path fill="none" stroke="midnightblue" d="M238.602,-164.96C240.497,-166.222 242.306,-167.592 244,-169.078 272.7,-194.259 258.859,-215.284 280,-247.078 292.609,-266.041 311.224,-284.921 322.976,-296.042"/>
<polygon fill="midnightblue" stroke="midnightblue" points="240.27,-161.883 229.83,-160.081 236.868,-168 240.27,-161.883"/>
</g>
<!-- Node32&#45;&gt;Node20 -->
<g id="edge49" class="edge"><title>Node32&#45;&gt;Node20</title>
<path fill="none" stroke="midnightblue" d="M235.107,-164.199C238.196,-165.678 241.187,-167.3 244,-169.078 263.94,-181.681 260.399,-194.953 280,-208.078 285.898,-212.027 292.678,-215.324 299.397,-218.027"/>
<polygon fill="midnightblue" stroke="midnightblue" points="236.198,-160.861 225.625,-160.183 233.468,-167.306 236.198,-160.861"/>
</g>
<!-- Node32&#45;&gt;Node24 -->
<g id="edge47" class="edge"><title>Node32&#45;&gt;Node24</title>
<path fill="none" stroke="midnightblue" d="M231.706,-162.658C252.274,-167.97 275.89,-174.07 295.246,-179.069"/>
<polygon fill="midnightblue" stroke="midnightblue" points="232.444,-159.233 221.886,-160.121 230.693,-166.011 232.444,-159.233"/>
</g>
<!-- Node32&#45;&gt;Node29 -->
<g id="edge52" class="edge"><title>Node32&#45;&gt;Node29</title>
<path fill="none" stroke="midnightblue" d="M231.706,-137.498C252.274,-132.186 275.89,-126.086 295.246,-121.087"/>
<polygon fill="midnightblue" stroke="midnightblue" points="230.693,-134.145 221.886,-140.035 232.444,-140.923 230.693,-134.145"/>
</g>
<!-- Node33 -->
<g id="node33" class="node"><title>Node33</title>
<g id="a_node33"><a xlink:href="tif__dirread_8c.html#a3730286b50c8d853c3cc0aff020ea615" target="_top" xlink:title="TIFFFetchPerSampleShorts">
<polygon fill="white" stroke="black" points="425.759,-141.078 425.759,-161.078 566.241,-161.078 566.241,-141.078 425.759,-141.078"/>
<text text-anchor="middle" x="496" y="-147.078" font-family="Helvetica,sans-Serif" font-size="10.00">TIFFFetchPerSampleShorts</text>
</a>
</g>
</g>
<!-- Node32&#45;&gt;Node33 -->
<g id="edge50" class="edge"><title>Node32&#45;&gt;Node33</title>
<path fill="none" stroke="midnightblue" d="M247.091,-150.283C299.065,-150.45 372.193,-150.684 425.554,-150.855"/>
<polygon fill="midnightblue" stroke="midnightblue" points="247.001,-146.783 236.99,-150.251 246.979,-153.783 247.001,-146.783"/>
</g>
<!-- Node33&#45;&gt;Node5 -->
<g id="edge51" class="edge"><title>Node33&#45;&gt;Node5</title>
<path fill="none" stroke="midnightblue" d="M576.399,-141.512C588.876,-140.009 601.462,-138.492 613.026,-137.099"/>
<polygon fill="midnightblue" stroke="midnightblue" points="575.947,-138.041 566.437,-142.712 576.784,-144.991 575.947,-138.041"/>
</g>
<!-- Node34&#45;&gt;Node20 -->
<g id="edge54" class="edge"><title>Node34&#45;&gt;Node20</title>
<path fill="none" stroke="midnightblue" d="M236.287,-228.078C250.36,-228.078 265.563,-228.078 279.69,-228.078"/>
<polygon fill="midnightblue" stroke="midnightblue" points="236.271,-224.578 226.271,-228.078 236.271,-231.578 236.271,-224.578"/>
</g>
</g>
</svg>
