<?xml version="1.0" encoding="UTF-8" standalone="no"?>
<!DOCTYPE svg PUBLIC "-//W3C//DTD SVG 1.1//EN"
 "http://www.w3.org/Graphics/SVG/1.1/DTD/svg11.dtd">
<!-- Generated by graphviz version 2.32.0 (20130916.1925)
 -->
<!-- Title: TIFFCvtNativeToIEEEDouble Pages: 1 -->
<svg width="2084pt" height="260pt"
 viewBox="0.00 0.00 2084.00 260.00" xmlns="http://www.w3.org/2000/svg" xmlns:xlink="http://www.w3.org/1999/xlink">
<g id="graph0" class="graph" transform="scale(1 1) rotate(0) translate(4 256)">
<title>TIFFCvtNativeToIEEEDouble</title>
<polygon fill="white" stroke="white" points="-4,5 -4,-256 2081,-256 2081,5 -4,5"/>
<!-- Node1 -->
<g id="node1" class="node"><title>Node1</title>
<polygon fill="#bfbfbf" stroke="black" points="0.256348,-156 0.256348,-176 145.744,-176 145.744,-156 0.256348,-156"/>
<text text-anchor="middle" x="73" y="-162" font-family="Helvetica,sans-Serif" font-size="10.00">TIFFCvtNativeToIEEEDouble</text>
</g>
<!-- Node2 -->
<g id="node2" class="node"><title>Node2</title>
<g id="a_node2"><a xlink:href="tif__dirwrite_8c.html#a89f90713ceeddbb515020a1e13be2137" target="_top" xlink:title="TIFFWriteDoubleArray">
<polygon fill="white" stroke="black" points="182.081,-156 182.081,-176 297.919,-176 297.919,-156 182.081,-156"/>
<text text-anchor="middle" x="240" y="-162" font-family="Helvetica,sans-Serif" font-size="10.00">TIFFWriteDoubleArray</text>
</a>
</g>
</g>
<!-- Node1&#45;&gt;Node2 -->
<g id="edge1" class="edge"><title>Node1&#45;&gt;Node2</title>
<path fill="none" stroke="midnightblue" d="M156.126,-166C164.867,-166 173.613,-166 181.973,-166"/>
<polygon fill="midnightblue" stroke="midnightblue" points="155.891,-162.5 145.891,-166 155.891,-169.5 155.891,-162.5"/>
</g>
<!-- Node3 -->
<g id="node3" class="node"><title>Node3</title>
<g id="a_node3"><a xlink:href="tif__dirwrite_8c.html#a41ab3c75f4428de8ffb71cf8171fb94b" target="_top" xlink:title="TIFFWriteNormalTag">
<polygon fill="white" stroke="black" points="483.696,-176 483.696,-196 592.304,-196 592.304,-176 483.696,-176"/>
<text text-anchor="middle" x="538" y="-182" font-family="Helvetica,sans-Serif" font-size="10.00">TIFFWriteNormalTag</text>
</a>
</g>
</g>
<!-- Node2&#45;&gt;Node3 -->
<g id="edge2" class="edge"><title>Node2&#45;&gt;Node3</title>
<path fill="none" stroke="midnightblue" d="M308.08,-170.532C361.197,-174.121 434.394,-179.067 483.589,-182.391"/>
<polygon fill="midnightblue" stroke="midnightblue" points="308.285,-167.038 298.072,-169.856 307.813,-174.022 308.285,-167.038"/>
</g>
<!-- Node26 -->
<g id="node26" class="node"><title>Node26</title>
<g id="a_node26"><a xlink:href="tif__dirwrite_8c.html#a386948b27ff555ab7acaf238ccb1cf88" target="_top" xlink:title="TIFFWriteAnyArray">
<polygon fill="white" stroke="black" points="334.31,-137 334.31,-157 435.69,-157 435.69,-137 334.31,-137"/>
<text text-anchor="middle" x="385" y="-143" font-family="Helvetica,sans-Serif" font-size="10.00">TIFFWriteAnyArray</text>
</a>
</g>
</g>
<!-- Node2&#45;&gt;Node26 -->
<g id="edge28" class="edge"><title>Node2&#45;&gt;Node26</title>
<path fill="none" stroke="midnightblue" d="M307.867,-157.116C316.731,-155.938 325.69,-154.747 334.197,-153.617"/>
<polygon fill="midnightblue" stroke="midnightblue" points="307.38,-153.649 297.928,-158.436 308.302,-160.588 307.38,-153.649"/>
</g>
<!-- Node4 -->
<g id="node4" class="node"><title>Node4</title>
<g id="a_node4"><a xlink:href="tif__dirwrite_8c.html#a99ebbf4b3b0fd87a64d558757cf03635" target="_top" xlink:title="_TIFFWriteDirectory">
<polygon fill="white" stroke="black" points="640.088,-156 640.088,-176 745.912,-176 745.912,-156 640.088,-156"/>
<text text-anchor="middle" x="693" y="-162" font-family="Helvetica,sans-Serif" font-size="10.00">_TIFFWriteDirectory</text>
</a>
</g>
</g>
<!-- Node3&#45;&gt;Node4 -->
<g id="edge3" class="edge"><title>Node3&#45;&gt;Node4</title>
<path fill="none" stroke="midnightblue" d="M602.43,-177.709C614.959,-176.071 627.97,-174.37 640.064,-172.789"/>
<polygon fill="midnightblue" stroke="midnightblue" points="601.974,-174.238 592.512,-179.005 602.881,-181.179 601.974,-174.238"/>
</g>
<!-- Node5 -->
<g id="node5" class="node"><title>Node5</title>
<g id="a_node5"><a xlink:href="tiffio_8h.html#abb5ff4e7abc98286d574600a9a8d0b5f" target="_top" xlink:title="TIFFCheckpointDirectory">
<polygon fill="white" stroke="black" points="782.431,-176 782.431,-196 909.569,-196 909.569,-176 782.431,-176"/>
<text text-anchor="middle" x="846" y="-182" font-family="Helvetica,sans-Serif" font-size="10.00">TIFFCheckpointDirectory</text>
</a>
</g>
</g>
<!-- Node4&#45;&gt;Node5 -->
<g id="edge4" class="edge"><title>Node4&#45;&gt;Node5</title>
<path fill="none" stroke="midnightblue" d="M755.997,-174.211C764.662,-175.359 773.573,-176.539 782.252,-177.689"/>
<polygon fill="midnightblue" stroke="midnightblue" points="756.339,-170.726 745.966,-172.883 755.419,-177.666 756.339,-170.726"/>
</g>
<!-- Node6 -->
<g id="node6" class="node"><title>Node6</title>
<g id="a_node6"><a xlink:href="tiffio_8h.html#a81556034d0f25ab8e5a780a20a2754af" target="_top" xlink:title="TIFFWriteDirectory">
<polygon fill="white" stroke="black" points="795.869,-137 795.869,-157 896.131,-157 896.131,-137 795.869,-137"/>
<text text-anchor="middle" x="846" y="-143" font-family="Helvetica,sans-Serif" font-size="10.00">TIFFWriteDirectory</text>
</a>
</g>
</g>
<!-- Node4&#45;&gt;Node6 -->
<g id="edge5" class="edge"><title>Node4&#45;&gt;Node6</title>
<path fill="none" stroke="midnightblue" d="M755.96,-158.204C769.212,-156.536 783.041,-154.796 795.738,-153.199"/>
<polygon fill="midnightblue" stroke="midnightblue" points="755.45,-154.74 745.966,-159.461 756.324,-161.685 755.45,-154.74"/>
</g>
<!-- Node7 -->
<g id="node7" class="node"><title>Node7</title>
<g id="a_node7"><a xlink:href="tiffio_8h.html#aca3453296ad6a9dc3cbbead4e1bc2792" target="_top" xlink:title="TIFFFlush">
<polygon fill="white" stroke="black" points="971.222,-157 971.222,-177 1032.78,-177 1032.78,-157 971.222,-157"/>
<text text-anchor="middle" x="1002" y="-163" font-family="Helvetica,sans-Serif" font-size="10.00">TIFFFlush</text>
</a>
</g>
</g>
<!-- Node6&#45;&gt;Node7 -->
<g id="edge6" class="edge"><title>Node6&#45;&gt;Node7</title>
<path fill="none" stroke="midnightblue" d="M906.175,-154.685C928.375,-157.568 952.668,-160.723 971.108,-163.118"/>
<polygon fill="midnightblue" stroke="midnightblue" points="906.517,-151.2 896.15,-153.383 905.616,-158.142 906.517,-151.2"/>
</g>
<!-- Node25 -->
<g id="node25" class="node"><title>Node25</title>
<g id="a_node25"><a xlink:href="tiffio_8h.html#a030e9a2ded6444dde1fd9b8164664b8c" target="_top" xlink:title="TIFFRewriteDirectory">
<polygon fill="white" stroke="black" points="946.498,-118 946.498,-138 1057.5,-138 1057.5,-118 946.498,-118"/>
<text text-anchor="middle" x="1002" y="-124" font-family="Helvetica,sans-Serif" font-size="10.00">TIFFRewriteDirectory</text>
</a>
</g>
</g>
<!-- Node6&#45;&gt;Node25 -->
<g id="edge27" class="edge"><title>Node6&#45;&gt;Node25</title>
<path fill="none" stroke="midnightblue" d="M906.115,-139.707C919.373,-138.071 933.38,-136.343 946.443,-134.731"/>
<polygon fill="midnightblue" stroke="midnightblue" points="905.646,-136.238 896.15,-140.936 906.503,-143.185 905.646,-136.238"/>
</g>
<!-- Node8 -->
<g id="node8" class="node"><title>Node8</title>
<g id="a_node8"><a xlink:href="tiffio_8h.html#aceb629aa7034d6d0304207556be3ce17" target="_top" xlink:title="TIFFCleanup">
<polygon fill="white" stroke="black" points="1093.82,-157 1093.82,-177 1168.18,-177 1168.18,-157 1093.82,-157"/>
<text text-anchor="middle" x="1131" y="-163" font-family="Helvetica,sans-Serif" font-size="10.00">TIFFCleanup</text>
</a>
</g>
</g>
<!-- Node7&#45;&gt;Node8 -->
<g id="edge7" class="edge"><title>Node7&#45;&gt;Node8</title>
<path fill="none" stroke="midnightblue" d="M1043.35,-167C1059.53,-167 1078.04,-167 1093.79,-167"/>
<polygon fill="midnightblue" stroke="midnightblue" points="1043.1,-163.5 1033.1,-167 1043.1,-170.5 1043.1,-163.5"/>
</g>
<!-- Node9 -->
<g id="node9" class="node"><title>Node9</title>
<g id="a_node9"><a xlink:href="tiffio_8h.html#a165611e0432d36de8bcf57f35e161bd3" target="_top" xlink:title="TIFFClientOpen">
<polygon fill="white" stroke="black" points="1204.43,-177 1204.43,-197 1291.57,-197 1291.57,-177 1204.43,-177"/>
<text text-anchor="middle" x="1248" y="-183" font-family="Helvetica,sans-Serif" font-size="10.00">TIFFClientOpen</text>
</a>
</g>
</g>
<!-- Node8&#45;&gt;Node9 -->
<g id="edge8" class="edge"><title>Node8&#45;&gt;Node9</title>
<path fill="none" stroke="midnightblue" d="M1178.31,-175.053C1186.93,-176.554 1195.91,-178.115 1204.42,-179.595"/>
<polygon fill="midnightblue" stroke="midnightblue" points="1178.84,-171.593 1168.39,-173.328 1177.64,-178.49 1178.84,-171.593"/>
</g>
<!-- Node21 -->
<g id="node21" class="node"><title>Node21</title>
<g id="a_node21"><a xlink:href="tiffio_8h.html#a3fefdfb6b9f9316edb732a85934efd90" target="_top" xlink:title="TIFFClose">
<polygon fill="white" stroke="black" points="1333.67,-138 1333.67,-158 1396.33,-158 1396.33,-138 1333.67,-138"/>
<text text-anchor="middle" x="1365" y="-144" font-family="Helvetica,sans-Serif" font-size="10.00">TIFFClose</text>
</a>
</g>
</g>
<!-- Node8&#45;&gt;Node21 -->
<g id="edge20" class="edge"><title>Node8&#45;&gt;Node21</title>
<path fill="none" stroke="midnightblue" d="M1178.29,-163.209C1224.43,-159.43 1293.96,-153.736 1333.55,-150.494"/>
<polygon fill="midnightblue" stroke="midnightblue" points="1177.93,-159.727 1168.25,-164.031 1178.5,-166.703 1177.93,-159.727"/>
</g>
<!-- Node10 -->
<g id="node10" class="node"><title>Node10</title>
<g id="a_node10"><a xlink:href="tiffio_8h.html#adca230876d2f7fdec1ff6c7fdb7898a8" target="_top" xlink:title="TIFFFdOpen">
<polygon fill="white" stroke="black" points="1328.38,-177 1328.38,-197 1401.62,-197 1401.62,-177 1328.38,-177"/>
<text text-anchor="middle" x="1365" y="-183" font-family="Helvetica,sans-Serif" font-size="10.00">TIFFFdOpen</text>
</a>
</g>
</g>
<!-- Node9&#45;&gt;Node10 -->
<g id="edge9" class="edge"><title>Node9&#45;&gt;Node10</title>
<path fill="none" stroke="midnightblue" d="M1301.83,-187C1310.79,-187 1319.9,-187 1328.29,-187"/>
<polygon fill="midnightblue" stroke="midnightblue" points="1301.82,-183.5 1291.82,-187 1301.82,-190.5 1301.82,-183.5"/>
</g>
<!-- Node11 -->
<g id="node11" class="node"><title>Node11</title>
<g id="a_node11"><a xlink:href="tiffio_8h.html#ac3dd18826e617eb451c74f33a32fcb10" target="_top" xlink:title="TIFFOpen">
<polygon fill="white" stroke="black" points="1459.22,-177 1459.22,-197 1520.78,-197 1520.78,-177 1459.22,-177"/>
<text text-anchor="middle" x="1490" y="-183" font-family="Helvetica,sans-Serif" font-size="10.00">TIFFOpen</text>
</a>
</g>
</g>
<!-- Node10&#45;&gt;Node11 -->
<g id="edge10" class="edge"><title>Node10&#45;&gt;Node11</title>
<path fill="none" stroke="midnightblue" d="M1412,-187C1427.74,-187 1444.93,-187 1459.07,-187"/>
<polygon fill="midnightblue" stroke="midnightblue" points="1411.91,-183.5 1401.91,-187 1411.91,-190.5 1411.91,-183.5"/>
</g>
<!-- Node12 -->
<g id="node12" class="node"><title>Node12</title>
<g id="a_node12"><a xlink:href="class_t_i_f_f_reader_internal.html#adc7888a9bc3fe28248b49b8b204ae8ae" target="_top" xlink:title="TIFFReaderInternal\l::Open">
<polygon fill="white" stroke="black" points="1599.37,-129 1599.37,-161 1702.63,-161 1702.63,-129 1599.37,-129"/>
<text text-anchor="start" x="1607.37" y="-147" font-family="Helvetica,sans-Serif" font-size="10.00">TIFFReaderInternal</text>
<text text-anchor="middle" x="1651" y="-135" font-family="Helvetica,sans-Serif" font-size="10.00">::Open</text>
</a>
</g>
</g>
<!-- Node11&#45;&gt;Node12 -->
<g id="edge11" class="edge"><title>Node11&#45;&gt;Node12</title>
<path fill="none" stroke="midnightblue" d="M1530.67,-176.521C1551.43,-171.036 1577.08,-164.261 1599.28,-158.399"/>
<polygon fill="midnightblue" stroke="midnightblue" points="1529.68,-173.162 1520.91,-179.1 1531.47,-179.93 1529.68,-173.162"/>
</g>
<!-- Node16 -->
<g id="node16" class="node"><title>Node16</title>
<g id="a_node16"><a xlink:href="classrc_window.html#adf6ca47beb76a8bfdc73369f80dd003d" target="_top" xlink:title="rcWindow::tiff">
<polygon fill="white" stroke="black" points="1613.08,-180 1613.08,-200 1688.92,-200 1688.92,-180 1613.08,-180"/>
<text text-anchor="middle" x="1651" y="-186" font-family="Helvetica,sans-Serif" font-size="10.00">rcWindow::tiff</text>
</a>
</g>
</g>
<!-- Node11&#45;&gt;Node16 -->
<g id="edge15" class="edge"><title>Node11&#45;&gt;Node16</title>
<path fill="none" stroke="midnightblue" d="M1531.2,-187.759C1556.33,-188.233 1588.45,-188.839 1612.95,-189.301"/>
<polygon fill="midnightblue" stroke="midnightblue" points="1530.97,-184.254 1520.91,-187.564 1530.84,-191.252 1530.97,-184.254"/>
</g>
<!-- Node13 -->
<g id="node13" class="node"><title>Node13</title>
<g id="a_node13"><a xlink:href="class_t_i_f_f_image_i_o.html#abec0d00f473debbd9d05f5a0e4820402" target="_top" xlink:title="TIFFImageIO::CanReadFile">
<polygon fill="white" stroke="black" points="1763.31,-96 1763.31,-116 1902.69,-116 1902.69,-96 1763.31,-96"/>
<text text-anchor="middle" x="1833" y="-102" font-family="Helvetica,sans-Serif" font-size="10.00">TIFFImageIO::CanReadFile</text>
</a>
</g>
</g>
<!-- Node12&#45;&gt;Node13 -->
<g id="edge12" class="edge"><title>Node12&#45;&gt;Node13</title>
<path fill="none" stroke="midnightblue" d="M1713.07,-131.768C1736.82,-126.621 1763.58,-120.823 1785.7,-116.032"/>
<polygon fill="midnightblue" stroke="midnightblue" points="1712.13,-128.39 1703.1,-133.928 1713.61,-135.232 1712.13,-128.39"/>
</g>
<!-- Node14 -->
<g id="node14" class="node"><title>Node14</title>
<g id="a_node14"><a xlink:href="classrc_engine_impl.html#ac0162da8fe4f677ad6f3d04a465d50f0" target="_top" xlink:title="rcEngineImpl::loadMovie">
<polygon fill="white" stroke="black" points="1946.25,-116 1946.25,-136 2071.75,-136 2071.75,-116 1946.25,-116"/>
<text text-anchor="middle" x="2009" y="-122" font-family="Helvetica,sans-Serif" font-size="10.00">rcEngineImpl::loadMovie</text>
</a>
</g>
</g>
<!-- Node13&#45;&gt;Node14 -->
<g id="edge13" class="edge"><title>Node13&#45;&gt;Node14</title>
<path fill="none" stroke="midnightblue" d="M1912.95,-115.074C1924.11,-116.357 1935.45,-117.661 1946.22,-118.899"/>
<polygon fill="midnightblue" stroke="midnightblue" points="1913.1,-111.569 1902.77,-113.905 1912.3,-118.524 1913.1,-111.569"/>
</g>
<!-- Node15 -->
<g id="node15" class="node"><title>Node15</title>
<g id="a_node15"><a xlink:href="classrc_window.html#a5da06176e6878b676bbc534db6b09b7d" target="_top" xlink:title="rcWindow::rcWindow">
<polygon fill="white" stroke="black" points="1954.33,-77 1954.33,-97 2063.67,-97 2063.67,-77 1954.33,-77"/>
<text text-anchor="middle" x="2009" y="-83" font-family="Helvetica,sans-Serif" font-size="10.00">rcWindow::rcWindow</text>
</a>
</g>
</g>
<!-- Node13&#45;&gt;Node15 -->
<g id="edge14" class="edge"><title>Node13&#45;&gt;Node15</title>
<path fill="none" stroke="midnightblue" d="M1912.88,-97.3867C1926.86,-95.8599 1941.13,-94.3023 1954.21,-92.8735"/>
<polygon fill="midnightblue" stroke="midnightblue" points="1912.33,-93.9258 1902.77,-98.4907 1913.09,-100.884 1912.33,-93.9258"/>
</g>
<!-- Node17 -->
<g id="node17" class="node"><title>Node17</title>
<g id="a_node17"><a xlink:href="classrc_visual_function.html#a1df64c3605f3a0a4670118911ac783b1" target="_top" xlink:title="rcVisualFunction::cardiac\lMeasure">
<polygon fill="white" stroke="black" points="1769.23,-219 1769.23,-251 1896.77,-251 1896.77,-219 1769.23,-219"/>
<text text-anchor="start" x="1777.23" y="-237" font-family="Helvetica,sans-Serif" font-size="10.00">rcVisualFunction::cardiac</text>
<text text-anchor="middle" x="1833" y="-225" font-family="Helvetica,sans-Serif" font-size="10.00">Measure</text>
</a>
</g>
</g>
<!-- Node16&#45;&gt;Node17 -->
<g id="edge16" class="edge"><title>Node16&#45;&gt;Node17</title>
<path fill="none" stroke="midnightblue" d="M1699.08,-201.771C1720.41,-207.102 1745.93,-213.481 1768.88,-219.219"/>
<polygon fill="midnightblue" stroke="midnightblue" points="1699.85,-198.354 1689.3,-199.324 1698.15,-205.145 1699.85,-198.354"/>
</g>
<!-- Node19 -->
<g id="node19" class="node"><title>Node19</title>
<g id="a_node19"><a xlink:href="classrc_engine_impl.html#a00ca0d227e480ddb5bd6be293b55d2c9" target="_top" xlink:title="rcEngineImpl::muscleTracker">
<polygon fill="white" stroke="black" points="1760.44,-180 1760.44,-200 1905.56,-200 1905.56,-180 1760.44,-180"/>
<text text-anchor="middle" x="1833" y="-186" font-family="Helvetica,sans-Serif" font-size="10.00">rcEngineImpl::muscleTracker</text>
</a>
</g>
</g>
<!-- Node16&#45;&gt;Node19 -->
<g id="edge18" class="edge"><title>Node16&#45;&gt;Node19</title>
<path fill="none" stroke="midnightblue" d="M1699.54,-190C1718.11,-190 1739.8,-190 1760.19,-190"/>
<polygon fill="midnightblue" stroke="midnightblue" points="1699.3,-186.5 1689.3,-190 1699.3,-193.5 1699.3,-186.5"/>
</g>
<!-- Node20 -->
<g id="node20" class="node"><title>Node20</title>
<g id="a_node20"><a xlink:href="rc__edge_8h.html#a11fbb1eb0376dd39a4be2ea72b7ef156" target="_top" xlink:title="rfDirectionSignal">
<polygon fill="white" stroke="black" points="1788.32,-141 1788.32,-161 1877.68,-161 1877.68,-141 1788.32,-141"/>
<text text-anchor="middle" x="1833" y="-147" font-family="Helvetica,sans-Serif" font-size="10.00">rfDirectionSignal</text>
</a>
</g>
</g>
<!-- Node16&#45;&gt;Node20 -->
<g id="edge19" class="edge"><title>Node16&#45;&gt;Node20</title>
<path fill="none" stroke="midnightblue" d="M1699.09,-179.796C1726.62,-173.833 1761.13,-166.355 1788.09,-160.514"/>
<polygon fill="midnightblue" stroke="midnightblue" points="1698.33,-176.381 1689.3,-181.919 1699.81,-183.222 1698.33,-176.381"/>
</g>
<!-- Node18 -->
<g id="node18" class="node"><title>Node18</title>
<g id="a_node18"><a xlink:href="classrc_visual_function.html#ac3135ba614a9ba5080e78c3f2f426312" target="_top" xlink:title="rcVisualFunction::measure">
<polygon fill="white" stroke="black" points="1941.9,-225 1941.9,-245 2076.1,-245 2076.1,-225 1941.9,-225"/>
<text text-anchor="middle" x="2009" y="-231" font-family="Helvetica,sans-Serif" font-size="10.00">rcVisualFunction::measure</text>
</a>
</g>
</g>
<!-- Node17&#45;&gt;Node18 -->
<g id="edge17" class="edge"><title>Node17&#45;&gt;Node18</title>
<path fill="none" stroke="midnightblue" d="M1906.87,-235C1918.44,-235 1930.35,-235 1941.75,-235"/>
<polygon fill="midnightblue" stroke="midnightblue" points="1906.82,-231.5 1896.82,-235 1906.82,-238.5 1906.82,-231.5"/>
</g>
<!-- Node21&#45;&gt;Node16 -->
<g id="edge26" class="edge"><title>Node21&#45;&gt;Node16</title>
<path fill="none" stroke="midnightblue" d="M1406.7,-151.205C1442.48,-154.304 1495.87,-159.618 1542,-167 1565.66,-170.787 1591.97,-176.359 1612.69,-181.07"/>
<polygon fill="midnightblue" stroke="midnightblue" points="1406.91,-147.71 1396.65,-150.352 1406.32,-154.685 1406.91,-147.71"/>
</g>
<!-- Node22 -->
<g id="node22" class="node"><title>Node22</title>
<g id="a_node22"><a xlink:href="class_t_i_f_f_reader_internal.html#aaa46d9e82420cfadfe323b1026cac726" target="_top" xlink:title="TIFFReaderInternal\l::Clean">
<polygon fill="white" stroke="black" points="1438.37,-84 1438.37,-116 1541.63,-116 1541.63,-84 1438.37,-84"/>
<text text-anchor="start" x="1446.37" y="-102" font-family="Helvetica,sans-Serif" font-size="10.00">TIFFReaderInternal</text>
<text text-anchor="middle" x="1490" y="-90" font-family="Helvetica,sans-Serif" font-size="10.00">::Clean</text>
</a>
</g>
</g>
<!-- Node21&#45;&gt;Node22 -->
<g id="edge21" class="edge"><title>Node21&#45;&gt;Node22</title>
<path fill="none" stroke="midnightblue" d="M1401.38,-134.193C1415.86,-128.541 1432.72,-121.963 1447.76,-116.094"/>
<polygon fill="midnightblue" stroke="midnightblue" points="1399.83,-131.042 1391.78,-137.938 1402.37,-137.563 1399.83,-131.042"/>
</g>
<!-- Node22&#45;&gt;Node12 -->
<g id="edge23" class="edge"><title>Node22&#45;&gt;Node12</title>
<path fill="none" stroke="midnightblue" d="M1551.4,-117.094C1567.16,-121.554 1583.98,-126.316 1599.19,-130.62"/>
<polygon fill="midnightblue" stroke="midnightblue" points="1552.32,-113.718 1541.75,-114.362 1550.41,-120.453 1552.32,-113.718"/>
</g>
<!-- Node22&#45;&gt;Node13 -->
<g id="edge25" class="edge"><title>Node22&#45;&gt;Node13</title>
<path fill="none" stroke="midnightblue" d="M1552.02,-101.074C1611.3,-102.117 1701.18,-103.698 1763.03,-104.786"/>
<polygon fill="midnightblue" stroke="midnightblue" points="1551.74,-97.5683 1541.68,-100.892 1551.62,-104.567 1551.74,-97.5683"/>
</g>
<!-- Node23 -->
<g id="node23" class="node"><title>Node23</title>
<g id="a_node23"><a xlink:href="class_t_i_f_f_reader_internal.html#a37acb14f97aa8a07dd8875ed13bc21ba" target="_top" xlink:title="TIFFReaderInternal\l::TIFFReaderInternal">
<polygon fill="white" stroke="black" points="1596.59,-0 1596.59,-32 1705.41,-32 1705.41,-0 1596.59,-0"/>
<text text-anchor="start" x="1604.59" y="-18" font-family="Helvetica,sans-Serif" font-size="10.00">TIFFReaderInternal</text>
<text text-anchor="middle" x="1651" y="-6" font-family="Helvetica,sans-Serif" font-size="10.00">::TIFFReaderInternal</text>
</a>
</g>
</g>
<!-- Node22&#45;&gt;Node23 -->
<g id="edge22" class="edge"><title>Node22&#45;&gt;Node23</title>
<path fill="none" stroke="midnightblue" d="M1519.61,-77.7956C1536.04,-65.7735 1557.44,-51.3151 1578,-41 1584.39,-37.7955 1591.28,-34.8305 1598.19,-32.1466"/>
<polygon fill="midnightblue" stroke="midnightblue" points="1517.43,-75.0499 1511.5,-83.8255 1521.61,-80.6672 1517.43,-75.0499"/>
</g>
<!-- Node24 -->
<g id="node24" class="node"><title>Node24</title>
<g id="a_node24"><a xlink:href="class_t_i_f_f_image_i_o.html#a3ad4dcd4aad49fe2ea0c85ce5edac4da" target="_top" xlink:title="TIFFImageIO::~TIFFImageIO">
<polygon fill="white" stroke="black" points="1577.85,-51 1577.85,-71 1724.15,-71 1724.15,-51 1577.85,-51"/>
<text text-anchor="middle" x="1651" y="-57" font-family="Helvetica,sans-Serif" font-size="10.00">TIFFImageIO::~TIFFImageIO</text>
</a>
</g>
</g>
<!-- Node22&#45;&gt;Node24 -->
<g id="edge24" class="edge"><title>Node22&#45;&gt;Node24</title>
<path fill="none" stroke="midnightblue" d="M1551.61,-85.133C1570.8,-80.4268 1591.54,-75.3384 1609.02,-71.0528"/>
<polygon fill="midnightblue" stroke="midnightblue" points="1550.62,-81.7714 1541.75,-87.5529 1552.29,-88.5699 1550.62,-81.7714"/>
</g>
<!-- Node27 -->
<g id="node27" class="node"><title>Node27</title>
<g id="a_node27"><a xlink:href="tif__dirwrite_8c.html#a13c69d446f207c6cb44d6429432d3e50" target="_top" xlink:title="TIFFWritePerSampleAnys">
<polygon fill="white" stroke="black" points="472.021,-137 472.021,-157 603.979,-157 603.979,-137 472.021,-137"/>
<text text-anchor="middle" x="538" y="-143" font-family="Helvetica,sans-Serif" font-size="10.00">TIFFWritePerSampleAnys</text>
</a>
</g>
</g>
<!-- Node26&#45;&gt;Node27 -->
<g id="edge29" class="edge"><title>Node26&#45;&gt;Node27</title>
<path fill="none" stroke="midnightblue" d="M446.04,-147C454.519,-147 463.271,-147 471.841,-147"/>
<polygon fill="midnightblue" stroke="midnightblue" points="445.862,-143.5 435.862,-147 445.861,-150.5 445.862,-143.5"/>
</g>
<!-- Node27&#45;&gt;Node4 -->
<g id="edge30" class="edge"><title>Node27&#45;&gt;Node4</title>
<path fill="none" stroke="midnightblue" d="M614.396,-156.363C623,-157.431 631.623,-158.502 639.829,-159.521"/>
<polygon fill="midnightblue" stroke="midnightblue" points="614.685,-152.872 604.33,-155.113 613.822,-159.819 614.685,-152.872"/>
</g>
</g>
</svg>
