<?xml version="1.0" encoding="UTF-8" standalone="no"?>
<!DOCTYPE svg PUBLIC "-//W3C//DTD SVG 1.1//EN"
 "http://www.w3.org/Graphics/SVG/1.1/DTD/svg11.dtd">
<!-- Generated by graphviz version 2.32.0 (20130916.1925)
 -->
<!-- Title: TIFFFetchStripThing Pages: 1 -->
<svg width="814pt" height="354pt"
 viewBox="0.00 0.00 814.00 354.40" xmlns="http://www.w3.org/2000/svg" xmlns:xlink="http://www.w3.org/1999/xlink">
<g id="graph0" class="graph" transform="scale(1 1) rotate(0) translate(4 350.396)">
<title>TIFFFetchStripThing</title>
<polygon fill="white" stroke="white" points="-4,5 -4,-350.396 811,-350.396 811,5 -4,5"/>
<!-- Node1 -->
<g id="node1" class="node"><title>Node1</title>
<polygon fill="#bfbfbf" stroke="black" points="0.155273,-174 0.155273,-194 107.845,-194 107.845,-174 0.155273,-174"/>
<text text-anchor="middle" x="54" y="-180" font-family="Helvetica,sans-Serif" font-size="10.00">TIFFFetchStripThing</text>
</g>
<!-- Node2 -->
<g id="node2" class="node"><title>Node2</title>
<g id="a_node2"><a xlink:href="tif__aux_8c.html#a96a072a0d1fd5779a76f5f2e13953e2a" target="_top" xlink:title="_TIFFCheckMalloc">
<polygon fill="white" stroke="black" points="149.047,-233 149.047,-253 248.953,-253 248.953,-233 149.047,-233"/>
<text text-anchor="middle" x="199" y="-239" font-family="Helvetica,sans-Serif" font-size="10.00">_TIFFCheckMalloc</text>
</a>
</g>
</g>
<!-- Node1&#45;&gt;Node2 -->
<g id="edge1" class="edge"><title>Node1&#45;&gt;Node2</title>
<path fill="none" stroke="midnightblue" d="M77.1589,-194.139C95.0735,-202.232 121.006,-213.713 144,-223 149.214,-225.106 154.744,-227.252 160.199,-229.319"/>
<polygon fill="midnightblue" stroke="midnightblue" points="159.261,-232.705 169.854,-232.928 161.712,-226.148 159.261,-232.705"/>
</g>
<!-- Node5 -->
<g id="node5" class="node"><title>Node5</title>
<g id="a_node5"><a xlink:href="tif__apple_8c.html#adcb814cdc66530ea86553b6840c19819" target="_top" xlink:title="_TIFFfree">
<polygon fill="white" stroke="black" points="169.052,-116 169.052,-136 228.948,-136 228.948,-116 169.052,-116"/>
<text text-anchor="middle" x="199" y="-122" font-family="Helvetica,sans-Serif" font-size="10.00">_TIFFfree</text>
</a>
</g>
</g>
<!-- Node1&#45;&gt;Node5 -->
<g id="edge4" class="edge"><title>Node1&#45;&gt;Node5</title>
<path fill="none" stroke="midnightblue" d="M77.9226,-173.848C95.8217,-166.01 121.369,-155.016 144,-146 149.282,-143.896 154.883,-141.739 160.399,-139.657"/>
<polygon fill="midnightblue" stroke="midnightblue" points="162.006,-142.794 170.152,-136.019 159.559,-136.235 162.006,-142.794"/>
</g>
<!-- Node6 -->
<g id="node6" class="node"><title>Node6</title>
<g id="a_node6"><a xlink:href="tif__apple_8c.html#abbc4b30de2ac6b7eecdf9362bfa74c39" target="_top" xlink:title="_TIFFmemset">
<polygon fill="white" stroke="black" points="159.887,-77 159.887,-97 238.113,-97 238.113,-77 159.887,-77"/>
<text text-anchor="middle" x="199" y="-83" font-family="Helvetica,sans-Serif" font-size="10.00">_TIFFmemset</text>
</a>
</g>
</g>
<!-- Node1&#45;&gt;Node6 -->
<g id="edge5" class="edge"><title>Node1&#45;&gt;Node6</title>
<path fill="none" stroke="midnightblue" d="M64.168,-173.755C79.3196,-157.374 111.186,-125.181 144,-106 147.053,-104.216 150.3,-102.56 153.628,-101.032"/>
<polygon fill="midnightblue" stroke="midnightblue" points="155.252,-104.147 163.131,-97.0636 152.555,-97.688 155.252,-104.147"/>
</g>
<!-- Node7 -->
<g id="node7" class="node"><title>Node7</title>
<g id="a_node7"><a xlink:href="tif__dirread_8c.html#a9b8edd08e405feac3928a869d7cdc5cc" target="_top" xlink:title="CheckDirCount">
<polygon fill="white" stroke="black" points="157.099,-311 157.099,-331 240.901,-331 240.901,-311 157.099,-311"/>
<text text-anchor="middle" x="199" y="-317" font-family="Helvetica,sans-Serif" font-size="10.00">CheckDirCount</text>
</a>
</g>
</g>
<!-- Node1&#45;&gt;Node7 -->
<g id="edge6" class="edge"><title>Node1&#45;&gt;Node7</title>
<path fill="none" stroke="midnightblue" d="M65.7482,-194.297C90.1947,-217.718 150.164,-275.171 180.221,-303.967"/>
<polygon fill="midnightblue" stroke="midnightblue" points="177.873,-306.565 187.516,-310.956 182.716,-301.51 177.873,-306.565"/>
</g>
<!-- Node12 -->
<g id="node12" class="node"><title>Node12</title>
<g id="a_node12"><a xlink:href="tif__dirread_8c.html#a5bbdba62505d7d379f45c64c4ac1edc7" target="_top" xlink:title="TIFFFetchLongArray">
<polygon fill="white" stroke="black" points="144.875,-194 144.875,-214 253.125,-214 253.125,-194 144.875,-194"/>
<text text-anchor="middle" x="199" y="-200" font-family="Helvetica,sans-Serif" font-size="10.00">TIFFFetchLongArray</text>
</a>
</g>
</g>
<!-- Node1&#45;&gt;Node12 -->
<g id="edge12" class="edge"><title>Node1&#45;&gt;Node12</title>
<path fill="none" stroke="midnightblue" d="M108.248,-191.447C116.902,-192.658 125.939,-193.922 134.803,-195.161"/>
<polygon fill="midnightblue" stroke="midnightblue" points="134.319,-198.628 144.708,-196.547 135.289,-191.695 134.319,-198.628"/>
</g>
<!-- Node19 -->
<g id="node19" class="node"><title>Node19</title>
<g id="a_node19"><a xlink:href="tif__dirread_8c.html#ad425533d8f6b4704b5648c14f16ce14d" target="_top" xlink:title="TIFFFetchShortArray">
<polygon fill="white" stroke="black" points="144.047,-155 144.047,-175 253.953,-175 253.953,-155 144.047,-155"/>
<text text-anchor="middle" x="199" y="-161" font-family="Helvetica,sans-Serif" font-size="10.00">TIFFFetchShortArray</text>
</a>
</g>
</g>
<!-- Node1&#45;&gt;Node19 -->
<g id="edge22" class="edge"><title>Node1&#45;&gt;Node19</title>
<path fill="none" stroke="midnightblue" d="M108.248,-176.925C116.581,-175.818 125.268,-174.664 133.815,-173.528"/>
<polygon fill="midnightblue" stroke="midnightblue" points="134.301,-176.994 143.753,-172.208 133.379,-170.055 134.301,-176.994"/>
</g>
<!-- Node3 -->
<g id="node3" class="node"><title>Node3</title>
<g id="a_node3"><a xlink:href="tif__apple_8c.html#aaa739de67506b8254e9d150190425b4f" target="_top" xlink:title="_TIFFmalloc">
<polygon fill="white" stroke="black" points="298.219,-272 298.219,-292 369.781,-292 369.781,-272 298.219,-272"/>
<text text-anchor="middle" x="334" y="-278" font-family="Helvetica,sans-Serif" font-size="10.00">_TIFFmalloc</text>
</a>
</g>
</g>
<!-- Node2&#45;&gt;Node3 -->
<g id="edge2" class="edge"><title>Node2&#45;&gt;Node3</title>
<path fill="none" stroke="midnightblue" d="M234.251,-253.043C251.005,-257.956 271.364,-263.926 289.233,-269.166"/>
<polygon fill="midnightblue" stroke="midnightblue" points="288.284,-272.535 298.865,-271.991 290.254,-265.818 288.284,-272.535"/>
</g>
<!-- Node4 -->
<g id="node4" class="node"><title>Node4</title>
<g id="a_node4"><a xlink:href="tif__error_8c.html#a2e8b77a2d4e7b7283b55b963dd67ec31" target="_top" xlink:title="TIFFErrorExt">
<polygon fill="white" stroke="black" points="601.113,-233 601.113,-253 674.887,-253 674.887,-233 601.113,-233"/>
<text text-anchor="middle" x="638" y="-239" font-family="Helvetica,sans-Serif" font-size="10.00">TIFFErrorExt</text>
</a>
</g>
</g>
<!-- Node2&#45;&gt;Node4 -->
<g id="edge3" class="edge"><title>Node2&#45;&gt;Node4</title>
<path fill="none" stroke="midnightblue" d="M249.28,-243C334.476,-243 508.112,-243 590.986,-243"/>
<polygon fill="midnightblue" stroke="midnightblue" points="591.108,-246.5 601.108,-243 591.108,-239.5 591.108,-246.5"/>
</g>
<!-- Node8 -->
<g id="node8" class="node"><title>Node8</title>
<g id="a_node8"><a xlink:href="tif__dirinfo_8c.html#a30adfafbd54d531b3343751e2362dafe" target="_top" xlink:title="_TIFFFieldWithTag">
<polygon fill="white" stroke="black" points="427.769,-272 427.769,-292 528.231,-292 528.231,-272 427.769,-272"/>
<text text-anchor="middle" x="478" y="-278" font-family="Helvetica,sans-Serif" font-size="10.00">_TIFFFieldWithTag</text>
</a>
</g>
</g>
<!-- Node7&#45;&gt;Node8 -->
<g id="edge7" class="edge"><title>Node7&#45;&gt;Node8</title>
<path fill="none" stroke="midnightblue" d="M230.777,-331.039C266.699,-341.218 327.611,-353.674 378,-340 407.707,-331.939 437.622,-312.476 456.67,-298.314"/>
<polygon fill="midnightblue" stroke="midnightblue" points="459.042,-300.906 464.858,-292.051 454.789,-295.347 459.042,-300.906"/>
</g>
<!-- Node11 -->
<g id="node11" class="node"><title>Node11</title>
<g id="a_node11"><a xlink:href="tif__warning_8c.html#a638d746ae5f7d08283cdf0ce81a104be" target="_top" xlink:title="TIFFWarningExt">
<polygon fill="white" stroke="black" points="289.789,-311 289.789,-331 378.211,-331 378.211,-311 289.789,-311"/>
<text text-anchor="middle" x="334" y="-317" font-family="Helvetica,sans-Serif" font-size="10.00">TIFFWarningExt</text>
</a>
</g>
</g>
<!-- Node7&#45;&gt;Node11 -->
<g id="edge11" class="edge"><title>Node7&#45;&gt;Node11</title>
<path fill="none" stroke="midnightblue" d="M240.99,-321C253.155,-321 266.663,-321 279.499,-321"/>
<polygon fill="midnightblue" stroke="midnightblue" points="279.61,-324.5 289.61,-321 279.61,-317.5 279.61,-324.5"/>
</g>
<!-- Node8&#45;&gt;Node4 -->
<g id="edge10" class="edge"><title>Node8&#45;&gt;Node4</title>
<path fill="none" stroke="midnightblue" d="M519.689,-271.957C541.592,-266.55 568.679,-259.864 591.305,-254.279"/>
<polygon fill="midnightblue" stroke="midnightblue" points="592.156,-257.674 601.025,-251.88 590.478,-250.878 592.156,-257.674"/>
</g>
<!-- Node9 -->
<g id="node9" class="node"><title>Node9</title>
<g id="a_node9"><a xlink:href="tif__dirinfo_8c.html#a3317560b966ff5f4b7e378e8c6ca936a" target="_top" xlink:title="_TIFFFindFieldInfo">
<polygon fill="white" stroke="black" points="587.764,-272 587.764,-292 688.236,-292 688.236,-272 587.764,-272"/>
<text text-anchor="middle" x="638" y="-278" font-family="Helvetica,sans-Serif" font-size="10.00">_TIFFFindFieldInfo</text>
</a>
</g>
</g>
<!-- Node8&#45;&gt;Node9 -->
<g id="edge8" class="edge"><title>Node8&#45;&gt;Node9</title>
<path fill="none" stroke="midnightblue" d="M528.559,-282C544,-282 561.193,-282 577.255,-282"/>
<polygon fill="midnightblue" stroke="midnightblue" points="577.617,-285.5 587.617,-282 577.617,-278.5 577.617,-285.5"/>
</g>
<!-- Node10 -->
<g id="node10" class="node"><title>Node10</title>
<g id="a_node10"><a xlink:href="tif__dirinfo_8c.html#a365ced53b43ae215e93968db3ef3a29e" target="_top" xlink:title="tagCompare">
<polygon fill="white" stroke="black" points="734.485,-272 734.485,-292 805.515,-292 805.515,-272 734.485,-272"/>
<text text-anchor="middle" x="770" y="-278" font-family="Helvetica,sans-Serif" font-size="10.00">tagCompare</text>
</a>
</g>
</g>
<!-- Node9&#45;&gt;Node10 -->
<g id="edge9" class="edge"><title>Node9&#45;&gt;Node10</title>
<path fill="none" stroke="midnightblue" d="M688.518,-282C700.165,-282 712.515,-282 723.953,-282"/>
<polygon fill="midnightblue" stroke="midnightblue" points="724.154,-285.5 734.154,-282 724.154,-278.5 724.154,-285.5"/>
</g>
<!-- Node13 -->
<g id="node13" class="node"><title>Node13</title>
<g id="a_node13"><a xlink:href="tif__dirread_8c.html#a3a8b2608359688b663203e53c5b85f57" target="_top" xlink:title="TIFFFetchData">
<polygon fill="white" stroke="black" points="292.382,-155 292.382,-175 375.618,-175 375.618,-155 292.382,-155"/>
<text text-anchor="middle" x="334" y="-161" font-family="Helvetica,sans-Serif" font-size="10.00">TIFFFetchData</text>
</a>
</g>
</g>
<!-- Node12&#45;&gt;Node13 -->
<g id="edge13" class="edge"><title>Node12&#45;&gt;Node13</title>
<path fill="none" stroke="midnightblue" d="M234.251,-193.957C251.005,-189.044 271.364,-183.074 289.233,-177.834"/>
<polygon fill="midnightblue" stroke="midnightblue" points="290.254,-181.182 298.865,-175.009 288.284,-174.465 290.254,-181.182"/>
</g>
<!-- Node13&#45;&gt;Node4 -->
<g id="edge17" class="edge"><title>Node13&#45;&gt;Node4</title>
<path fill="none" stroke="midnightblue" d="M373.863,-175.037C429.583,-189.429 531.974,-215.874 591.267,-231.188"/>
<polygon fill="midnightblue" stroke="midnightblue" points="590.55,-234.618 601.108,-233.73 592.301,-227.84 590.55,-234.618"/>
</g>
<!-- Node13&#45;&gt;Node8 -->
<g id="edge14" class="edge"><title>Node13&#45;&gt;Node8</title>
<path fill="none" stroke="midnightblue" d="M347.602,-175.383C372.189,-195.642 426.757,-240.603 456.575,-265.171"/>
<polygon fill="midnightblue" stroke="midnightblue" points="454.686,-268.15 464.629,-271.807 459.137,-262.747 454.686,-268.15"/>
</g>
<!-- Node14 -->
<g id="node14" class="node"><title>Node14</title>
<g id="a_node14"><a xlink:href="tif__apple_8c.html#aacf23567597faf7b8f01f31f397217f0" target="_top" xlink:title="_TIFFmemcpy">
<polygon fill="white" stroke="black" points="437.776,-156 437.776,-176 518.224,-176 518.224,-156 437.776,-156"/>
<text text-anchor="middle" x="478" y="-162" font-family="Helvetica,sans-Serif" font-size="10.00">_TIFFmemcpy</text>
</a>
</g>
</g>
<!-- Node13&#45;&gt;Node14 -->
<g id="edge15" class="edge"><title>Node13&#45;&gt;Node14</title>
<path fill="none" stroke="midnightblue" d="M375.692,-165.287C391.844,-165.4 410.573,-165.532 427.502,-165.651"/>
<polygon fill="midnightblue" stroke="midnightblue" points="427.746,-169.153 437.771,-165.724 427.795,-162.153 427.746,-169.153"/>
</g>
<!-- Node15 -->
<g id="node15" class="node"><title>Node15</title>
<g id="a_node15"><a xlink:href="tif__dirinfo_8c.html#a2e6382d04dbf3af83901b2f032fa98e7" target="_top" xlink:title="TIFFDataWidth">
<polygon fill="white" stroke="black" points="436.106,-78 436.106,-98 519.894,-98 519.894,-78 436.106,-78"/>
<text text-anchor="middle" x="478" y="-84" font-family="Helvetica,sans-Serif" font-size="10.00">TIFFDataWidth</text>
</a>
</g>
</g>
<!-- Node13&#45;&gt;Node15 -->
<g id="edge16" class="edge"><title>Node13&#45;&gt;Node15</title>
<path fill="none" stroke="midnightblue" d="M346.223,-154.81C360.846,-142.014 387.665,-120.15 414,-107 418.018,-104.994 422.288,-103.156 426.637,-101.481"/>
<polygon fill="midnightblue" stroke="midnightblue" points="427.968,-104.723 436.219,-98.0757 425.624,-98.1268 427.968,-104.723"/>
</g>
<!-- Node16 -->
<g id="node16" class="node"><title>Node16</title>
<g id="a_node16"><a xlink:href="tif__swab_8c.html#a1cb63e1ce5f2a4895038fc97d9a28bcf" target="_top" xlink:title="TIFFSwabArrayOfDouble">
<polygon fill="white" stroke="black" points="413.872,-117 413.872,-137 542.128,-137 542.128,-117 413.872,-117"/>
<text text-anchor="middle" x="478" y="-123" font-family="Helvetica,sans-Serif" font-size="10.00">TIFFSwabArrayOfDouble</text>
</a>
</g>
</g>
<!-- Node13&#45;&gt;Node16 -->
<g id="edge18" class="edge"><title>Node13&#45;&gt;Node16</title>
<path fill="none" stroke="midnightblue" d="M372.681,-154.916C390.092,-150.257 410.962,-144.672 429.444,-139.726"/>
<polygon fill="midnightblue" stroke="midnightblue" points="430.388,-143.097 439.143,-137.131 428.578,-136.335 430.388,-143.097"/>
</g>
<!-- Node17 -->
<g id="node17" class="node"><title>Node17</title>
<g id="a_node17"><a xlink:href="tif__swab_8c.html#ada2d5ffd72c625fdfe338b9ac985197f" target="_top" xlink:title="TIFFSwabArrayOfLong">
<polygon fill="white" stroke="black" points="578.594,-78 578.594,-98 697.406,-98 697.406,-78 578.594,-78"/>
<text text-anchor="middle" x="638" y="-84" font-family="Helvetica,sans-Serif" font-size="10.00">TIFFSwabArrayOfLong</text>
</a>
</g>
</g>
<!-- Node13&#45;&gt;Node17 -->
<g id="edge20" class="edge"><title>Node13&#45;&gt;Node17</title>
<path fill="none" stroke="midnightblue" d="M339.497,-154.845C349.406,-133.907 375.356,-86.3657 414,-68 475.361,-38.8376 556.883,-58.8185 602.434,-74.4321"/>
<polygon fill="midnightblue" stroke="midnightblue" points="601.532,-77.8262 612.127,-77.8766 603.876,-71.2303 601.532,-77.8262"/>
</g>
<!-- Node18 -->
<g id="node18" class="node"><title>Node18</title>
<g id="a_node18"><a xlink:href="tif__swab_8c.html#af432e2c4c57173790c3ee3d6f0244871" target="_top" xlink:title="TIFFSwabArrayOfShort">
<polygon fill="white" stroke="black" points="417.766,-0 417.766,-20 538.234,-20 538.234,-0 417.766,-0"/>
<text text-anchor="middle" x="478" y="-6" font-family="Helvetica,sans-Serif" font-size="10.00">TIFFSwabArrayOfShort</text>
</a>
</g>
</g>
<!-- Node13&#45;&gt;Node18 -->
<g id="edge21" class="edge"><title>Node13&#45;&gt;Node18</title>
<path fill="none" stroke="midnightblue" d="M338.622,-154.682C347.617,-130.461 373.24,-69.419 414,-35 418.956,-30.815 424.699,-27.2731 430.66,-24.2914"/>
<polygon fill="midnightblue" stroke="midnightblue" points="432.427,-27.335 440.125,-20.0551 429.568,-20.9457 432.427,-27.335"/>
</g>
<!-- Node16&#45;&gt;Node17 -->
<g id="edge19" class="edge"><title>Node16&#45;&gt;Node17</title>
<path fill="none" stroke="midnightblue" d="M519.689,-116.957C540.054,-111.93 564.9,-105.797 586.475,-100.471"/>
<polygon fill="midnightblue" stroke="midnightblue" points="587.579,-103.804 596.449,-98.0094 585.902,-97.0079 587.579,-103.804"/>
</g>
<!-- Node19&#45;&gt;Node13 -->
<g id="edge23" class="edge"><title>Node19&#45;&gt;Node13</title>
<path fill="none" stroke="midnightblue" d="M254.096,-165C263.293,-165 272.817,-165 281.932,-165"/>
<polygon fill="midnightblue" stroke="midnightblue" points="282.01,-168.5 292.01,-165 282.01,-161.5 282.01,-168.5"/>
</g>
</g>
</svg>
