<?xml version="1.0" encoding="UTF-8" standalone="no"?>
<!DOCTYPE svg PUBLIC "-//W3C//DTD SVG 1.1//EN"
 "http://www.w3.org/Graphics/SVG/1.1/DTD/svg11.dtd">
<!-- Generated by graphviz version 2.32.0 (20130916.1925)
 -->
<!-- Title: checkInkNamesString Pages: 1 -->
<!--zoomable 322 -->
<svg id="main" version="1.1" xmlns="http://www.w3.org/2000/svg" xmlns:xlink="http://www.w3.org/1999/xlink" xml:space="preserve" onload="init(evt)">
        <defs>
                <circle id="rim" cx="0" cy="0" r="7"/>
                <circle id="rim2" cx="0" cy="0" r="3.5"/>
                <g id="zoomPlus">
                        <use xlink:href="#rim" fill="#404040">
                                <set attributeName="fill" to="#808080" begin="zoomplus.mouseover" end="zoomplus.mouseout"/>
                        </use>
                        <path d="M-4,0h8M0,-4v8" fill="none" stroke="white" stroke-width="1.5" pointer-events="none"/>
                </g>
                <g id="zoomMin">
                        <use xlink:href="#rim" fill="#404040">
                                <set attributeName="fill" to="#808080" begin="zoomminus.mouseover" end="zoomminus.mouseout"/>
                        </use>
                        <path d="M-4,0h8" fill="none" stroke="white" stroke-width="1.5" pointer-events="none"/>
                </g>
                <g id="dirArrow">
                        <path fill="none" stroke="white" stroke-width="1.5" d="M0,-3.0v7 M-2.5,-0.5L0,-3.0L2.5,-0.5"/>
                </g>
               <g id="resetDef">
                       <use xlink:href="#rim2" fill="#404040">
                               <set attributeName="fill" to="#808080" begin="reset.mouseover" end="reset.mouseout"/>
                       </use>
               </g>
        </defs>

<script type="text/javascript">
var viewWidth = 2010;
var viewHeight = 322;
var sectionId = 'dynsection-17';
</script>
<script xlink:href="svgpan.js"/>
<svg id="graph" class="graph">
<g id="viewport">
<title>checkInkNamesString</title>
<polygon fill="white" stroke="white" points="-4,5 -4,-318 2007,-318 2007,5 -4,5"/>
<!-- Node1 -->
<g id="node1" class="node"><title>Node1</title>
<polygon fill="#bfbfbf" stroke="black" points="0.369629,-158 0.369629,-178 113.63,-178 113.63,-158 0.369629,-158"/>
<text text-anchor="middle" x="57" y="-164" font-family="Helvetica,sans-Serif" font-size="10.00">checkInkNamesString</text>
</g>
<!-- Node2 -->
<g id="node2" class="node"><title>Node2</title>
<g id="a_node2"><a xlink:href="tif__dir_8c.html#ad11ea30066888dd2593ab20fc12047a8" target="_top" xlink:title="_TIFFVSetField">
<polygon fill="white" stroke="black" points="149.99,-158 149.99,-178 236.01,-178 236.01,-158 149.99,-158"/>
<text text-anchor="middle" x="193" y="-164" font-family="Helvetica,sans-Serif" font-size="10.00">_TIFFVSetField</text>
</a>
</g>
</g>
<!-- Node1&#45;&gt;Node2 -->
<g id="edge1" class="edge"><title>Node1&#45;&gt;Node2</title>
<path fill="none" stroke="midnightblue" d="M123.941,-168C132.735,-168 141.554,-168 149.791,-168"/>
<polygon fill="midnightblue" stroke="midnightblue" points="123.664,-164.5 113.664,-168 123.664,-171.5 123.664,-164.5"/>
</g>
<!-- Node3 -->
<g id="node3" class="node"><title>Node3</title>
<g id="a_node3"><a xlink:href="tiffiop_8h.html#abcbb0e129b454ba4b55f4f178adc9d6f" target="_top" xlink:title="TIFFDefaultDirectory">
<polygon fill="white" stroke="black" points="272.604,-158 272.604,-178 381.396,-178 381.396,-158 272.604,-158"/>
<text text-anchor="middle" x="327" y="-164" font-family="Helvetica,sans-Serif" font-size="10.00">TIFFDefaultDirectory</text>
</a>
</g>
</g>
<!-- Node2&#45;&gt;Node3 -->
<g id="edge2" class="edge"><title>Node2&#45;&gt;Node3</title>
<path fill="none" stroke="midnightblue" d="M246.312,-168C254.823,-168 263.652,-168 272.198,-168"/>
<polygon fill="midnightblue" stroke="midnightblue" points="246.129,-164.5 236.129,-168 246.129,-171.5 246.129,-164.5"/>
</g>
<!-- Node4 -->
<g id="node4" class="node"><title>Node4</title>
<g id="a_node4"><a xlink:href="tiffio_8h.html#a165611e0432d36de8bcf57f35e161bd3" target="_top" xlink:title="TIFFClientOpen">
<polygon fill="white" stroke="black" points="1130.43,-178 1130.43,-198 1217.57,-198 1217.57,-178 1130.43,-178"/>
<text text-anchor="middle" x="1174" y="-184" font-family="Helvetica,sans-Serif" font-size="10.00">TIFFClientOpen</text>
</a>
</g>
</g>
<!-- Node3&#45;&gt;Node4 -->
<g id="edge3" class="edge"><title>Node3&#45;&gt;Node4</title>
<path fill="none" stroke="midnightblue" d="M391.697,-174.968C449.997,-180.74 538.695,-188 616,-188 616,-188 616,-188 929,-188 999.531,-188 1081.53,-188 1130.25,-188"/>
<polygon fill="midnightblue" stroke="midnightblue" points="391.833,-171.464 381.533,-173.947 391.133,-178.429 391.833,-171.464"/>
</g>
<!-- Node16 -->
<g id="node16" class="node"><title>Node16</title>
<g id="a_node16"><a xlink:href="tiffio_8h.html#a06d307cb8d3179c1d3996783095c7c61" target="_top" xlink:title="TIFFCreateDirectory">
<polygon fill="white" stroke="black" points="418.438,-139 418.438,-159 525.562,-159 525.562,-139 418.438,-139"/>
<text text-anchor="middle" x="472" y="-145" font-family="Helvetica,sans-Serif" font-size="10.00">TIFFCreateDirectory</text>
</a>
</g>
</g>
<!-- Node3&#45;&gt;Node16 -->
<g id="edge15" class="edge"><title>Node3&#45;&gt;Node16</title>
<path fill="none" stroke="midnightblue" d="M391.82,-159.52C400.567,-158.358 409.469,-157.175 417.995,-156.043"/>
<polygon fill="midnightblue" stroke="midnightblue" points="391.107,-156.084 381.655,-160.871 392.029,-163.023 391.107,-156.084"/>
</g>
<!-- Node27 -->
<g id="node27" class="node"><title>Node27</title>
<g id="a_node27"><a xlink:href="tiffio_8h.html#ab5f774a4a20c860a3d28a42e8b7166b4" target="_top" xlink:title="TIFFReadDirectory">
<polygon fill="white" stroke="black" points="421.493,-236 421.493,-256 522.507,-256 522.507,-236 421.493,-236"/>
<text text-anchor="middle" x="472" y="-242" font-family="Helvetica,sans-Serif" font-size="10.00">TIFFReadDirectory</text>
</a>
</g>
</g>
<!-- Node3&#45;&gt;Node27 -->
<g id="edge30" class="edge"><title>Node3&#45;&gt;Node27</title>
<path fill="none" stroke="midnightblue" d="M355.405,-182.948C383.822,-198.448 427.484,-222.264 452.215,-235.753"/>
<polygon fill="midnightblue" stroke="midnightblue" points="356.857,-179.753 346.402,-178.037 353.505,-185.899 356.857,-179.753"/>
</g>
<!-- Node30 -->
<g id="node30" class="node"><title>Node30</title>
<g id="a_node30"><a xlink:href="tiffio_8h.html#ac0f7bfa0b6efc24ba7d5b3f40aea82a1" target="_top" xlink:title="TIFFUnlinkDirectory">
<polygon fill="white" stroke="black" points="419.552,-100 419.552,-120 524.448,-120 524.448,-100 419.552,-100"/>
<text text-anchor="middle" x="472" y="-106" font-family="Helvetica,sans-Serif" font-size="10.00">TIFFUnlinkDirectory</text>
</a>
</g>
</g>
<!-- Node3&#45;&gt;Node30 -->
<g id="edge34" class="edge"><title>Node3&#45;&gt;Node30</title>
<path fill="none" stroke="midnightblue" d="M359.564,-153.728C376.733,-146.115 398.408,-136.747 418,-129 425.726,-125.945 434.165,-122.824 441.991,-120.017"/>
<polygon fill="midnightblue" stroke="midnightblue" points="357.733,-150.712 350.025,-157.982 360.584,-157.105 357.733,-150.712"/>
</g>
<!-- Node5 -->
<g id="node5" class="node"><title>Node5</title>
<g id="a_node5"><a xlink:href="tiffio_8h.html#adca230876d2f7fdec1ff6c7fdb7898a8" target="_top" xlink:title="TIFFFdOpen">
<polygon fill="white" stroke="black" points="1254.38,-178 1254.38,-198 1327.62,-198 1327.62,-178 1254.38,-178"/>
<text text-anchor="middle" x="1291" y="-184" font-family="Helvetica,sans-Serif" font-size="10.00">TIFFFdOpen</text>
</a>
</g>
</g>
<!-- Node4&#45;&gt;Node5 -->
<g id="edge4" class="edge"><title>Node4&#45;&gt;Node5</title>
<path fill="none" stroke="midnightblue" d="M1227.83,-188C1236.79,-188 1245.9,-188 1254.29,-188"/>
<polygon fill="midnightblue" stroke="midnightblue" points="1227.82,-184.5 1217.82,-188 1227.82,-191.5 1227.82,-184.5"/>
</g>
<!-- Node6 -->
<g id="node6" class="node"><title>Node6</title>
<g id="a_node6"><a xlink:href="tiffio_8h.html#ac3dd18826e617eb451c74f33a32fcb10" target="_top" xlink:title="TIFFOpen">
<polygon fill="white" stroke="black" points="1385.22,-178 1385.22,-198 1446.78,-198 1446.78,-178 1385.22,-178"/>
<text text-anchor="middle" x="1416" y="-184" font-family="Helvetica,sans-Serif" font-size="10.00">TIFFOpen</text>
</a>
</g>
</g>
<!-- Node5&#45;&gt;Node6 -->
<g id="edge5" class="edge"><title>Node5&#45;&gt;Node6</title>
<path fill="none" stroke="midnightblue" d="M1338,-188C1353.74,-188 1370.93,-188 1385.07,-188"/>
<polygon fill="midnightblue" stroke="midnightblue" points="1337.91,-184.5 1327.91,-188 1337.91,-191.5 1337.91,-184.5"/>
</g>
<!-- Node7 -->
<g id="node7" class="node"><title>Node7</title>
<g id="a_node7"><a xlink:href="class_t_i_f_f_reader_internal.html#adc7888a9bc3fe28248b49b8b204ae8ae" target="_top" xlink:title="TIFFReaderInternal\l::Open">
<polygon fill="white" stroke="black" points="1525.37,-129 1525.37,-161 1628.63,-161 1628.63,-129 1525.37,-129"/>
<text text-anchor="start" x="1533.37" y="-147" font-family="Helvetica,sans-Serif" font-size="10.00">TIFFReaderInternal</text>
<text text-anchor="middle" x="1577" y="-135" font-family="Helvetica,sans-Serif" font-size="10.00">::Open</text>
</a>
</g>
</g>
<!-- Node6&#45;&gt;Node7 -->
<g id="edge6" class="edge"><title>Node6&#45;&gt;Node7</title>
<path fill="none" stroke="midnightblue" d="M1456.67,-177.272C1477.43,-171.656 1503.08,-164.719 1525.28,-158.718"/>
<polygon fill="midnightblue" stroke="midnightblue" points="1455.65,-173.923 1446.91,-179.912 1457.47,-180.68 1455.65,-173.923"/>
</g>
<!-- Node11 -->
<g id="node11" class="node"><title>Node11</title>
<g id="a_node11"><a xlink:href="classrc_window.html#adf6ca47beb76a8bfdc73369f80dd003d" target="_top" xlink:title="rcWindow::tiff">
<polygon fill="white" stroke="black" points="1539.08,-180 1539.08,-200 1614.92,-200 1614.92,-180 1539.08,-180"/>
<text text-anchor="middle" x="1577" y="-186" font-family="Helvetica,sans-Serif" font-size="10.00">rcWindow::tiff</text>
</a>
</g>
</g>
<!-- Node6&#45;&gt;Node11 -->
<g id="edge10" class="edge"><title>Node6&#45;&gt;Node11</title>
<path fill="none" stroke="midnightblue" d="M1457.2,-188.506C1482.33,-188.822 1514.45,-189.226 1538.95,-189.534"/>
<polygon fill="midnightblue" stroke="midnightblue" points="1456.95,-185.002 1446.91,-188.376 1456.86,-192.002 1456.95,-185.002"/>
</g>
<!-- Node8 -->
<g id="node8" class="node"><title>Node8</title>
<g id="a_node8"><a xlink:href="class_t_i_f_f_image_i_o.html#abec0d00f473debbd9d05f5a0e4820402" target="_top" xlink:title="TIFFImageIO::CanReadFile">
<polygon fill="white" stroke="black" points="1689.31,-96 1689.31,-116 1828.69,-116 1828.69,-96 1689.31,-96"/>
<text text-anchor="middle" x="1759" y="-102" font-family="Helvetica,sans-Serif" font-size="10.00">TIFFImageIO::CanReadFile</text>
</a>
</g>
</g>
<!-- Node7&#45;&gt;Node8 -->
<g id="edge7" class="edge"><title>Node7&#45;&gt;Node8</title>
<path fill="none" stroke="midnightblue" d="M1639.07,-131.768C1662.82,-126.621 1689.58,-120.823 1711.7,-116.032"/>
<polygon fill="midnightblue" stroke="midnightblue" points="1638.13,-128.39 1629.1,-133.928 1639.61,-135.232 1638.13,-128.39"/>
</g>
<!-- Node9 -->
<g id="node9" class="node"><title>Node9</title>
<g id="a_node9"><a xlink:href="classrc_engine_impl.html#ac0162da8fe4f677ad6f3d04a465d50f0" target="_top" xlink:title="rcEngineImpl::loadMovie">
<polygon fill="white" stroke="black" points="1872.25,-116 1872.25,-136 1997.75,-136 1997.75,-116 1872.25,-116"/>
<text text-anchor="middle" x="1935" y="-122" font-family="Helvetica,sans-Serif" font-size="10.00">rcEngineImpl::loadMovie</text>
</a>
</g>
</g>
<!-- Node8&#45;&gt;Node9 -->
<g id="edge8" class="edge"><title>Node8&#45;&gt;Node9</title>
<path fill="none" stroke="midnightblue" d="M1838.95,-115.074C1850.11,-116.357 1861.45,-117.661 1872.22,-118.899"/>
<polygon fill="midnightblue" stroke="midnightblue" points="1839.1,-111.569 1828.77,-113.905 1838.3,-118.524 1839.1,-111.569"/>
</g>
<!-- Node10 -->
<g id="node10" class="node"><title>Node10</title>
<g id="a_node10"><a xlink:href="classrc_window.html#a5da06176e6878b676bbc534db6b09b7d" target="_top" xlink:title="rcWindow::rcWindow">
<polygon fill="white" stroke="black" points="1880.33,-77 1880.33,-97 1989.67,-97 1989.67,-77 1880.33,-77"/>
<text text-anchor="middle" x="1935" y="-83" font-family="Helvetica,sans-Serif" font-size="10.00">rcWindow::rcWindow</text>
</a>
</g>
</g>
<!-- Node8&#45;&gt;Node10 -->
<g id="edge9" class="edge"><title>Node8&#45;&gt;Node10</title>
<path fill="none" stroke="midnightblue" d="M1838.88,-97.3867C1852.86,-95.8599 1867.13,-94.3023 1880.21,-92.8735"/>
<polygon fill="midnightblue" stroke="midnightblue" points="1838.33,-93.9258 1828.77,-98.4907 1839.09,-100.884 1838.33,-93.9258"/>
</g>
<!-- Node12 -->
<g id="node12" class="node"><title>Node12</title>
<g id="a_node12"><a xlink:href="classrc_visual_function.html#a1df64c3605f3a0a4670118911ac783b1" target="_top" xlink:title="rcVisualFunction::cardiac\lMeasure">
<polygon fill="white" stroke="black" points="1695.23,-219 1695.23,-251 1822.77,-251 1822.77,-219 1695.23,-219"/>
<text text-anchor="start" x="1703.23" y="-237" font-family="Helvetica,sans-Serif" font-size="10.00">rcVisualFunction::cardiac</text>
<text text-anchor="middle" x="1759" y="-225" font-family="Helvetica,sans-Serif" font-size="10.00">Measure</text>
</a>
</g>
</g>
<!-- Node11&#45;&gt;Node12 -->
<g id="edge11" class="edge"><title>Node11&#45;&gt;Node12</title>
<path fill="none" stroke="midnightblue" d="M1625.08,-201.771C1646.41,-207.102 1671.93,-213.481 1694.88,-219.219"/>
<polygon fill="midnightblue" stroke="midnightblue" points="1625.85,-198.354 1615.3,-199.324 1624.15,-205.145 1625.85,-198.354"/>
</g>
<!-- Node14 -->
<g id="node14" class="node"><title>Node14</title>
<g id="a_node14"><a xlink:href="classrc_engine_impl.html#a00ca0d227e480ddb5bd6be293b55d2c9" target="_top" xlink:title="rcEngineImpl::muscleTracker">
<polygon fill="white" stroke="black" points="1686.44,-180 1686.44,-200 1831.56,-200 1831.56,-180 1686.44,-180"/>
<text text-anchor="middle" x="1759" y="-186" font-family="Helvetica,sans-Serif" font-size="10.00">rcEngineImpl::muscleTracker</text>
</a>
</g>
</g>
<!-- Node11&#45;&gt;Node14 -->
<g id="edge13" class="edge"><title>Node11&#45;&gt;Node14</title>
<path fill="none" stroke="midnightblue" d="M1625.54,-190C1644.11,-190 1665.8,-190 1686.19,-190"/>
<polygon fill="midnightblue" stroke="midnightblue" points="1625.3,-186.5 1615.3,-190 1625.3,-193.5 1625.3,-186.5"/>
</g>
<!-- Node15 -->
<g id="node15" class="node"><title>Node15</title>
<g id="a_node15"><a xlink:href="rc__edge_8h.html#a11fbb1eb0376dd39a4be2ea72b7ef156" target="_top" xlink:title="rfDirectionSignal">
<polygon fill="white" stroke="black" points="1714.32,-141 1714.32,-161 1803.68,-161 1803.68,-141 1714.32,-141"/>
<text text-anchor="middle" x="1759" y="-147" font-family="Helvetica,sans-Serif" font-size="10.00">rfDirectionSignal</text>
</a>
</g>
</g>
<!-- Node11&#45;&gt;Node15 -->
<g id="edge14" class="edge"><title>Node11&#45;&gt;Node15</title>
<path fill="none" stroke="midnightblue" d="M1625.09,-179.796C1652.62,-173.833 1687.13,-166.355 1714.09,-160.514"/>
<polygon fill="midnightblue" stroke="midnightblue" points="1624.33,-176.381 1615.3,-181.919 1625.81,-183.222 1624.33,-176.381"/>
</g>
<!-- Node13 -->
<g id="node13" class="node"><title>Node13</title>
<g id="a_node13"><a xlink:href="classrc_visual_function.html#ac3135ba614a9ba5080e78c3f2f426312" target="_top" xlink:title="rcVisualFunction::measure">
<polygon fill="white" stroke="black" points="1867.9,-225 1867.9,-245 2002.1,-245 2002.1,-225 1867.9,-225"/>
<text text-anchor="middle" x="1935" y="-231" font-family="Helvetica,sans-Serif" font-size="10.00">rcVisualFunction::measure</text>
</a>
</g>
</g>
<!-- Node12&#45;&gt;Node13 -->
<g id="edge12" class="edge"><title>Node12&#45;&gt;Node13</title>
<path fill="none" stroke="midnightblue" d="M1832.87,-235C1844.44,-235 1856.35,-235 1867.75,-235"/>
<polygon fill="midnightblue" stroke="midnightblue" points="1832.82,-231.5 1822.82,-235 1832.82,-238.5 1832.82,-231.5"/>
</g>
<!-- Node17 -->
<g id="node17" class="node"><title>Node17</title>
<g id="a_node17"><a xlink:href="tif__dirwrite_8c.html#a99ebbf4b3b0fd87a64d558757cf03635" target="_top" xlink:title="_TIFFWriteDirectory">
<polygon fill="white" stroke="black" points="564.088,-139 564.088,-159 669.912,-159 669.912,-139 564.088,-139"/>
<text text-anchor="middle" x="617" y="-145" font-family="Helvetica,sans-Serif" font-size="10.00">_TIFFWriteDirectory</text>
</a>
</g>
</g>
<!-- Node16&#45;&gt;Node17 -->
<g id="edge16" class="edge"><title>Node16&#45;&gt;Node17</title>
<path fill="none" stroke="midnightblue" d="M535.872,-149C545.216,-149 554.76,-149 563.852,-149"/>
<polygon fill="midnightblue" stroke="midnightblue" points="535.842,-145.5 525.842,-149 535.842,-152.5 535.842,-145.5"/>
</g>
<!-- Node18 -->
<g id="node18" class="node"><title>Node18</title>
<g id="a_node18"><a xlink:href="tiffio_8h.html#a81556034d0f25ab8e5a780a20a2754af" target="_top" xlink:title="TIFFWriteDirectory">
<polygon fill="white" stroke="black" points="721.869,-100 721.869,-120 822.131,-120 822.131,-100 721.869,-100"/>
<text text-anchor="middle" x="772" y="-106" font-family="Helvetica,sans-Serif" font-size="10.00">TIFFWriteDirectory</text>
</a>
</g>
</g>
<!-- Node17&#45;&gt;Node18 -->
<g id="edge17" class="edge"><title>Node17&#45;&gt;Node18</title>
<path fill="none" stroke="midnightblue" d="M667.351,-136.42C688.192,-131.108 712.121,-125.008 731.732,-120.009"/>
<polygon fill="midnightblue" stroke="midnightblue" points="666.227,-133.095 657.401,-138.957 667.956,-139.878 666.227,-133.095"/>
</g>
<!-- Node26 -->
<g id="node26" class="node"><title>Node26</title>
<g id="a_node26"><a xlink:href="tiffio_8h.html#abb5ff4e7abc98286d574600a9a8d0b5f" target="_top" xlink:title="TIFFCheckpointDirectory">
<polygon fill="white" stroke="black" points="708.431,-139 708.431,-159 835.569,-159 835.569,-139 708.431,-139"/>
<text text-anchor="middle" x="772" y="-145" font-family="Helvetica,sans-Serif" font-size="10.00">TIFFCheckpointDirectory</text>
</a>
</g>
</g>
<!-- Node17&#45;&gt;Node26 -->
<g id="edge29" class="edge"><title>Node17&#45;&gt;Node26</title>
<path fill="none" stroke="midnightblue" d="M680.416,-149C689.572,-149 699.007,-149 708.171,-149"/>
<polygon fill="midnightblue" stroke="midnightblue" points="680.226,-145.5 670.226,-149 680.226,-152.5 680.226,-145.5"/>
</g>
<!-- Node19 -->
<g id="node19" class="node"><title>Node19</title>
<g id="a_node19"><a xlink:href="tiffio_8h.html#aca3453296ad6a9dc3cbbead4e1bc2792" target="_top" xlink:title="TIFFFlush">
<polygon fill="white" stroke="black" points="897.222,-100 897.222,-120 958.778,-120 958.778,-100 897.222,-100"/>
<text text-anchor="middle" x="928" y="-106" font-family="Helvetica,sans-Serif" font-size="10.00">TIFFFlush</text>
</a>
</g>
</g>
<!-- Node18&#45;&gt;Node19 -->
<g id="edge18" class="edge"><title>Node18&#45;&gt;Node19</title>
<path fill="none" stroke="midnightblue" d="M832.175,-110C854.375,-110 878.668,-110 897.108,-110"/>
<polygon fill="midnightblue" stroke="midnightblue" points="832.15,-106.5 822.15,-110 832.15,-113.5 832.15,-106.5"/>
</g>
<!-- Node25 -->
<g id="node25" class="node"><title>Node25</title>
<g id="a_node25"><a xlink:href="tiffio_8h.html#a030e9a2ded6444dde1fd9b8164664b8c" target="_top" xlink:title="TIFFRewriteDirectory">
<polygon fill="white" stroke="black" points="872.498,-139 872.498,-159 983.502,-159 983.502,-139 872.498,-139"/>
<text text-anchor="middle" x="928" y="-145" font-family="Helvetica,sans-Serif" font-size="10.00">TIFFRewriteDirectory</text>
</a>
</g>
</g>
<!-- Node18&#45;&gt;Node25 -->
<g id="edge28" class="edge"><title>Node18&#45;&gt;Node25</title>
<path fill="none" stroke="midnightblue" d="M822.388,-122.507C843.431,-127.837 867.646,-133.969 887.476,-138.991"/>
<polygon fill="midnightblue" stroke="midnightblue" points="823.212,-119.106 812.659,-120.043 821.494,-125.891 823.212,-119.106"/>
</g>
<!-- Node20 -->
<g id="node20" class="node"><title>Node20</title>
<g id="a_node20"><a xlink:href="tiffio_8h.html#aceb629aa7034d6d0304207556be3ce17" target="_top" xlink:title="TIFFCleanup">
<polygon fill="white" stroke="black" points="1019.82,-119 1019.82,-139 1094.18,-139 1094.18,-119 1019.82,-119"/>
<text text-anchor="middle" x="1057" y="-125" font-family="Helvetica,sans-Serif" font-size="10.00">TIFFCleanup</text>
</a>
</g>
</g>
<!-- Node19&#45;&gt;Node20 -->
<g id="edge19" class="edge"><title>Node19&#45;&gt;Node20</title>
<path fill="none" stroke="midnightblue" d="M969.345,-116.036C985.53,-118.457 1004.04,-121.227 1019.79,-123.582"/>
<polygon fill="midnightblue" stroke="midnightblue" points="969.505,-112.521 959.097,-114.503 968.469,-119.444 969.505,-112.521"/>
</g>
<!-- Node20&#45;&gt;Node4 -->
<g id="edge20" class="edge"><title>Node20&#45;&gt;Node4</title>
<path fill="none" stroke="midnightblue" d="M1086.53,-143.638C1107.35,-154.319 1135.03,-168.517 1153.4,-177.942"/>
<polygon fill="midnightblue" stroke="midnightblue" points="1088,-140.459 1077.51,-139.009 1084.81,-146.687 1088,-140.459"/>
</g>
<!-- Node21 -->
<g id="node21" class="node"><title>Node21</title>
<g id="a_node21"><a xlink:href="tiffio_8h.html#a3fefdfb6b9f9316edb732a85934efd90" target="_top" xlink:title="TIFFClose">
<polygon fill="white" stroke="black" points="1259.67,-119 1259.67,-139 1322.33,-139 1322.33,-119 1259.67,-119"/>
<text text-anchor="middle" x="1291" y="-125" font-family="Helvetica,sans-Serif" font-size="10.00">TIFFClose</text>
</a>
</g>
</g>
<!-- Node20&#45;&gt;Node21 -->
<g id="edge21" class="edge"><title>Node20&#45;&gt;Node21</title>
<path fill="none" stroke="midnightblue" d="M1104.29,-129C1150.43,-129 1219.96,-129 1259.55,-129"/>
<polygon fill="midnightblue" stroke="midnightblue" points="1104.25,-125.5 1094.25,-129 1104.25,-132.5 1104.25,-125.5"/>
</g>
<!-- Node21&#45;&gt;Node11 -->
<g id="edge27" class="edge"><title>Node21&#45;&gt;Node11</title>
<path fill="none" stroke="midnightblue" d="M1332.48,-137.696C1387.55,-149.523 1485.3,-170.518 1538.67,-181.982"/>
<polygon fill="midnightblue" stroke="midnightblue" points="1332.91,-134.206 1322.39,-135.528 1331.43,-141.05 1332.91,-134.206"/>
</g>
<!-- Node22 -->
<g id="node22" class="node"><title>Node22</title>
<g id="a_node22"><a xlink:href="class_t_i_f_f_reader_internal.html#aaa46d9e82420cfadfe323b1026cac726" target="_top" xlink:title="TIFFReaderInternal\l::Clean">
<polygon fill="white" stroke="black" points="1364.37,-84 1364.37,-116 1467.63,-116 1467.63,-84 1364.37,-84"/>
<text text-anchor="start" x="1372.37" y="-102" font-family="Helvetica,sans-Serif" font-size="10.00">TIFFReaderInternal</text>
<text text-anchor="middle" x="1416" y="-90" font-family="Helvetica,sans-Serif" font-size="10.00">::Clean</text>
</a>
</g>
</g>
<!-- Node21&#45;&gt;Node22 -->
<g id="edge22" class="edge"><title>Node21&#45;&gt;Node22</title>
<path fill="none" stroke="midnightblue" d="M1332.3,-119.499C1342.54,-117.084 1353.68,-114.458 1364.36,-111.939"/>
<polygon fill="midnightblue" stroke="midnightblue" points="1331.33,-116.13 1322.4,-121.831 1332.94,-122.943 1331.33,-116.13"/>
</g>
<!-- Node22&#45;&gt;Node7 -->
<g id="edge24" class="edge"><title>Node22&#45;&gt;Node7</title>
<path fill="none" stroke="midnightblue" d="M1477.4,-117.094C1493.16,-121.554 1509.98,-126.316 1525.19,-130.62"/>
<polygon fill="midnightblue" stroke="midnightblue" points="1478.32,-113.718 1467.75,-114.362 1476.41,-120.453 1478.32,-113.718"/>
</g>
<!-- Node22&#45;&gt;Node8 -->
<g id="edge26" class="edge"><title>Node22&#45;&gt;Node8</title>
<path fill="none" stroke="midnightblue" d="M1478.02,-101.074C1537.3,-102.117 1627.18,-103.698 1689.03,-104.786"/>
<polygon fill="midnightblue" stroke="midnightblue" points="1477.74,-97.5683 1467.68,-100.892 1477.62,-104.567 1477.74,-97.5683"/>
</g>
<!-- Node23 -->
<g id="node23" class="node"><title>Node23</title>
<g id="a_node23"><a xlink:href="class_t_i_f_f_reader_internal.html#a37acb14f97aa8a07dd8875ed13bc21ba" target="_top" xlink:title="TIFFReaderInternal\l::TIFFReaderInternal">
<polygon fill="white" stroke="black" points="1522.59,-0 1522.59,-32 1631.41,-32 1631.41,-0 1522.59,-0"/>
<text text-anchor="start" x="1530.59" y="-18" font-family="Helvetica,sans-Serif" font-size="10.00">TIFFReaderInternal</text>
<text text-anchor="middle" x="1577" y="-6" font-family="Helvetica,sans-Serif" font-size="10.00">::TIFFReaderInternal</text>
</a>
</g>
</g>
<!-- Node22&#45;&gt;Node23 -->
<g id="edge23" class="edge"><title>Node22&#45;&gt;Node23</title>
<path fill="none" stroke="midnightblue" d="M1445.61,-77.7956C1462.04,-65.7735 1483.44,-51.3151 1504,-41 1510.39,-37.7955 1517.28,-34.8305 1524.19,-32.1466"/>
<polygon fill="midnightblue" stroke="midnightblue" points="1443.43,-75.0499 1437.5,-83.8255 1447.61,-80.6672 1443.43,-75.0499"/>
</g>
<!-- Node24 -->
<g id="node24" class="node"><title>Node24</title>
<g id="a_node24"><a xlink:href="class_t_i_f_f_image_i_o.html#a3ad4dcd4aad49fe2ea0c85ce5edac4da" target="_top" xlink:title="TIFFImageIO::~TIFFImageIO">
<polygon fill="white" stroke="black" points="1503.85,-51 1503.85,-71 1650.15,-71 1650.15,-51 1503.85,-51"/>
<text text-anchor="middle" x="1577" y="-57" font-family="Helvetica,sans-Serif" font-size="10.00">TIFFImageIO::~TIFFImageIO</text>
</a>
</g>
</g>
<!-- Node22&#45;&gt;Node24 -->
<g id="edge25" class="edge"><title>Node22&#45;&gt;Node24</title>
<path fill="none" stroke="midnightblue" d="M1477.61,-85.133C1496.8,-80.4268 1517.54,-75.3384 1535.02,-71.0528"/>
<polygon fill="midnightblue" stroke="midnightblue" points="1476.62,-81.7714 1467.75,-87.5529 1478.29,-88.5699 1476.62,-81.7714"/>
</g>
<!-- Node27&#45;&gt;Node4 -->
<g id="edge31" class="edge"><title>Node27&#45;&gt;Node4</title>
<path fill="none" stroke="midnightblue" d="M532.829,-239.619C592.943,-233.766 688.284,-226 771,-226 771,-226 771,-226 929,-226 1001.67,-226 1085.07,-209.341 1133.14,-198.084"/>
<polygon fill="midnightblue" stroke="midnightblue" points="532.366,-236.148 522.759,-240.614 533.054,-243.114 532.366,-236.148"/>
</g>
<!-- Node28 -->
<g id="node28" class="node"><title>Node28</title>
<g id="a_node28"><a xlink:href="tiffio_8h.html#a58cdb91e8e93b12c8002ade2e4072251" target="_top" xlink:title="TIFFSetDirectory">
<polygon fill="white" stroke="black" points="570.941,-294 570.941,-314 663.059,-314 663.059,-294 570.941,-294"/>
<text text-anchor="middle" x="617" y="-300" font-family="Helvetica,sans-Serif" font-size="10.00">TIFFSetDirectory</text>
</a>
</g>
</g>
<!-- Node27&#45;&gt;Node28 -->
<g id="edge32" class="edge"><title>Node27&#45;&gt;Node28</title>
<path fill="none" stroke="midnightblue" d="M505.303,-260.242C522.126,-267.544 543.082,-276.463 562,-284 570.452,-287.367 579.718,-290.867 588.152,-293.981"/>
<polygon fill="midnightblue" stroke="midnightblue" points="506.488,-256.94 495.923,-256.152 503.69,-263.357 506.488,-256.94"/>
</g>
<!-- Node29 -->
<g id="node29" class="node"><title>Node29</title>
<g id="a_node29"><a xlink:href="tiffio_8h.html#a33628efcd540db4412ec3cd7761c3733" target="_top" xlink:title="TIFFSetSubDirectory">
<polygon fill="white" stroke="black" points="562.044,-255 562.044,-275 671.956,-275 671.956,-255 562.044,-255"/>
<text text-anchor="middle" x="617" y="-261" font-family="Helvetica,sans-Serif" font-size="10.00">TIFFSetSubDirectory</text>
</a>
</g>
</g>
<!-- Node27&#45;&gt;Node29 -->
<g id="edge33" class="edge"><title>Node27&#45;&gt;Node29</title>
<path fill="none" stroke="midnightblue" d="M532.82,-253.948C542.36,-255.216 552.185,-256.521 561.59,-257.771"/>
<polygon fill="midnightblue" stroke="midnightblue" points="532.987,-250.44 522.613,-252.592 532.065,-257.379 532.987,-250.44"/>
</g>
</g>
</svg>
        <g id="navigator" transform="translate(0 0)" fill="#404254">
                <rect fill="#f2f5e9" fill-opacity="0.5" stroke="#606060" stroke-width=".5" x="0" y="0" width="60" height="60"/>
                <use id="zoomplus" xlink:href="#zoomPlus" x="17" y="9" onmousedown="handleZoom(evt,'in')"/>
                <use id="zoomminus" xlink:href="#zoomMin" x="42" y="9" onmousedown="handleZoom(evt,'out')"/>
                <use id="reset" xlink:href="#resetDef" x="30" y="36" onmousedown="handleReset()"/>
                <g id="arrowUp" xlink:href="#dirArrow" transform="translate(30 24)" onmousedown="handlePan(0,-1)">
                  <use xlink:href="#rim" fill="#404040">
                        <set attributeName="fill" to="#808080" begin="arrowUp.mouseover" end="arrowUp.mouseout"/>
                  </use>
                  <path fill="none" stroke="white" stroke-width="1.5" d="M0,-3.0v7 M-2.5,-0.5L0,-3.0L2.5,-0.5"/>
                </g>
                <g id="arrowRight" xlink:href="#dirArrow" transform="rotate(90) translate(36 -43)" onmousedown="handlePan(1,0)">
                  <use xlink:href="#rim" fill="#404040">
                        <set attributeName="fill" to="#808080" begin="arrowRight.mouseover" end="arrowRight.mouseout"/>
                  </use>
                  <path fill="none" stroke="white" stroke-width="1.5" d="M0,-3.0v7 M-2.5,-0.5L0,-3.0L2.5,-0.5"/>
                </g>
                <g id="arrowDown" xlink:href="#dirArrow" transform="rotate(180) translate(-30 -48)" onmousedown="handlePan(0,1)">
                  <use xlink:href="#rim" fill="#404040">
                        <set attributeName="fill" to="#808080" begin="arrowDown.mouseover" end="arrowDown.mouseout"/>
                  </use>
                  <path fill="none" stroke="white" stroke-width="1.5" d="M0,-3.0v7 M-2.5,-0.5L0,-3.0L2.5,-0.5"/>
                </g>
                <g id="arrowLeft" xlink:href="#dirArrow" transform="rotate(270) translate(-36 17)" onmousedown="handlePan(-1,0)">
                  <use xlink:href="#rim" fill="#404040">
                        <set attributeName="fill" to="#808080" begin="arrowLeft.mouseover" end="arrowLeft.mouseout"/>
                  </use>
                  <path fill="none" stroke="white" stroke-width="1.5" d="M0,-3.0v7 M-2.5,-0.5L0,-3.0L2.5,-0.5"/>
                </g>
        </g>
        <svg viewBox="0 0 15 15" width="100%" height="30px" preserveAspectRatio="xMaxYMin meet">
         <g id="arrow_out" transform="scale(0.3 0.3)">
          <a xlink:href="tif__dir_8c_adea91597eaa2447764cbd454baed565d_icgraph_org.svg" target="_base">
           <rect id="button" ry="5" rx="5" y="6" x="6" height="38" width="38"
                fill="#f2f5e9" fill-opacity="0.5" stroke="#606060" stroke-width="1.0"/>
           <path id="arrow"
             d="M 11.500037,31.436501 C 11.940474,20.09759 22.043105,11.32322 32.158766,21.979434 L 37.068811,17.246167 C 37.068811,17.246167 37.088388,32 37.088388,32 L 22.160133,31.978069 C 22.160133,31.978069 26.997745,27.140456 26.997745,27.140456 C 18.528582,18.264221 13.291696,25.230495 11.500037,31.436501 z"
             style="fill:#404040;"/>
          </a>
         </g>
        </svg>
</svg>
