<?xml version="1.0" encoding="UTF-8" standalone="no"?>
<!DOCTYPE svg PUBLIC "-//W3C//DTD SVG 1.1//EN"
 "http://www.w3.org/Graphics/SVG/1.1/DTD/svg11.dtd">
<!-- Generated by graphviz version 2.32.0 (20130916.1925)
 -->
<!-- Title: _tiffCloseProc Pages: 1 -->
<svg width="786pt" height="193pt"
 viewBox="0.00 0.00 786.00 193.00" xmlns="http://www.w3.org/2000/svg" xmlns:xlink="http://www.w3.org/1999/xlink">
<g id="graph0" class="graph" transform="scale(1 1) rotate(0) translate(4 189)">
<title>_tiffCloseProc</title>
<polygon fill="white" stroke="white" points="-4,5 -4,-189 783,-189 783,5 -4,5"/>
<!-- Node1 -->
<g id="node1" class="node"><title>Node1</title>
<polygon fill="#bfbfbf" stroke="black" points="-0.0351562,-83 -0.0351562,-103 78.0352,-103 78.0352,-83 -0.0351562,-83"/>
<text text-anchor="middle" x="39" y="-89" font-family="Helvetica,sans-Serif" font-size="10.00">_tiffCloseProc</text>
</g>
<!-- Node2 -->
<g id="node2" class="node"><title>Node2</title>
<g id="a_node2"><a xlink:href="tiffio_8h.html#adca230876d2f7fdec1ff6c7fdb7898a8" target="_top" xlink:title="TIFFFdOpen">
<polygon fill="white" stroke="black" points="114.382,-83 114.382,-103 187.618,-103 187.618,-83 114.382,-83"/>
<text text-anchor="middle" x="151" y="-89" font-family="Helvetica,sans-Serif" font-size="10.00">TIFFFdOpen</text>
</a>
</g>
</g>
<!-- Node1&#45;&gt;Node2 -->
<g id="edge1" class="edge"><title>Node1&#45;&gt;Node2</title>
<path fill="none" stroke="midnightblue" d="M88.2191,-93C96.9199,-93 105.851,-93 114.122,-93"/>
<polygon fill="midnightblue" stroke="midnightblue" points="88.164,-89.5001 78.164,-93 88.1639,-96.5001 88.164,-89.5001"/>
</g>
<!-- Node3 -->
<g id="node3" class="node"><title>Node3</title>
<g id="a_node3"><a xlink:href="tiffio_8h.html#ac3dd18826e617eb451c74f33a32fcb10" target="_top" xlink:title="TIFFOpen">
<polygon fill="white" stroke="black" points="224.217,-83 224.217,-103 285.783,-103 285.783,-83 224.217,-83"/>
<text text-anchor="middle" x="255" y="-89" font-family="Helvetica,sans-Serif" font-size="10.00">TIFFOpen</text>
</a>
</g>
</g>
<!-- Node2&#45;&gt;Node3 -->
<g id="edge2" class="edge"><title>Node2&#45;&gt;Node3</title>
<path fill="none" stroke="midnightblue" d="M197.884,-93C206.716,-93 215.755,-93 223.927,-93"/>
<polygon fill="midnightblue" stroke="midnightblue" points="197.675,-89.5001 187.675,-93 197.675,-96.5001 197.675,-89.5001"/>
</g>
<!-- Node4 -->
<g id="node4" class="node"><title>Node4</title>
<g id="a_node4"><a xlink:href="class_t_i_f_f_reader_internal.html#adc7888a9bc3fe28248b49b8b204ae8ae" target="_top" xlink:title="TIFFReaderInternal\l::Open">
<polygon fill="white" stroke="black" points="322.372,-111 322.372,-143 425.628,-143 425.628,-111 322.372,-111"/>
<text text-anchor="start" x="330.372" y="-129" font-family="Helvetica,sans-Serif" font-size="10.00">TIFFReaderInternal</text>
<text text-anchor="middle" x="374" y="-117" font-family="Helvetica,sans-Serif" font-size="10.00">::Open</text>
</a>
</g>
</g>
<!-- Node3&#45;&gt;Node4 -->
<g id="edge3" class="edge"><title>Node3&#45;&gt;Node4</title>
<path fill="none" stroke="midnightblue" d="M295.578,-104.501C304.168,-106.997 313.367,-109.671 322.317,-112.272"/>
<polygon fill="midnightblue" stroke="midnightblue" points="296.406,-101.097 285.827,-101.668 294.453,-107.819 296.406,-101.097"/>
</g>
<!-- Node8 -->
<g id="node8" class="node"><title>Node8</title>
<g id="a_node8"><a xlink:href="classrc_window.html#adf6ca47beb76a8bfdc73369f80dd003d" target="_top" xlink:title="rcWindow::tiff">
<polygon fill="white" stroke="black" points="336.083,-50 336.083,-70 411.917,-70 411.917,-50 336.083,-50"/>
<text text-anchor="middle" x="374" y="-56" font-family="Helvetica,sans-Serif" font-size="10.00">rcWindow::tiff</text>
</a>
</g>
</g>
<!-- Node3&#45;&gt;Node8 -->
<g id="edge7" class="edge"><title>Node3&#45;&gt;Node8</title>
<path fill="none" stroke="midnightblue" d="M295.797,-81.7752C309.285,-77.971 324.255,-73.7487 337.395,-70.0425"/>
<polygon fill="midnightblue" stroke="midnightblue" points="294.501,-78.5041 285.827,-84.5873 296.401,-85.2412 294.501,-78.5041"/>
</g>
<!-- Node5 -->
<g id="node5" class="node"><title>Node5</title>
<g id="a_node5"><a xlink:href="class_t_i_f_f_image_i_o.html#abec0d00f473debbd9d05f5a0e4820402" target="_top" xlink:title="TIFFImageIO::CanReadFile">
<polygon fill="white" stroke="black" points="465.313,-129 465.313,-149 604.687,-149 604.687,-129 465.313,-129"/>
<text text-anchor="middle" x="535" y="-135" font-family="Helvetica,sans-Serif" font-size="10.00">TIFFImageIO::CanReadFile</text>
</a>
</g>
</g>
<!-- Node4&#45;&gt;Node5 -->
<g id="edge4" class="edge"><title>Node4&#45;&gt;Node5</title>
<path fill="none" stroke="midnightblue" d="M435.945,-131.6C445.508,-132.321 455.451,-133.072 465.176,-133.806"/>
<polygon fill="midnightblue" stroke="midnightblue" points="435.981,-128.092 425.746,-130.83 435.454,-135.073 435.981,-128.092"/>
</g>
<!-- Node6 -->
<g id="node6" class="node"><title>Node6</title>
<g id="a_node6"><a xlink:href="classrc_engine_impl.html#ac0162da8fe4f677ad6f3d04a465d50f0" target="_top" xlink:title="rcEngineImpl::loadMovie">
<polygon fill="white" stroke="black" points="648.251,-165 648.251,-185 773.749,-185 773.749,-165 648.251,-165"/>
<text text-anchor="middle" x="711" y="-171" font-family="Helvetica,sans-Serif" font-size="10.00">rcEngineImpl::loadMovie</text>
</a>
</g>
</g>
<!-- Node5&#45;&gt;Node6 -->
<g id="edge5" class="edge"><title>Node5&#45;&gt;Node6</title>
<path fill="none" stroke="midnightblue" d="M594.282,-151.058C616.105,-155.573 640.644,-160.65 661.49,-164.963"/>
<polygon fill="midnightblue" stroke="midnightblue" points="594.97,-147.627 584.469,-149.028 593.552,-154.482 594.97,-147.627"/>
</g>
<!-- Node7 -->
<g id="node7" class="node"><title>Node7</title>
<g id="a_node7"><a xlink:href="classrc_window.html#a5da06176e6878b676bbc534db6b09b7d" target="_top" xlink:title="rcWindow::rcWindow">
<polygon fill="white" stroke="black" points="656.325,-126 656.325,-146 765.675,-146 765.675,-126 656.325,-126"/>
<text text-anchor="middle" x="711" y="-132" font-family="Helvetica,sans-Serif" font-size="10.00">rcWindow::rcWindow</text>
</a>
</g>
</g>
<!-- Node5&#45;&gt;Node7 -->
<g id="edge6" class="edge"><title>Node5&#45;&gt;Node7</title>
<path fill="none" stroke="midnightblue" d="M614.88,-137.64C628.862,-137.399 643.126,-137.153 656.211,-136.927"/>
<polygon fill="midnightblue" stroke="midnightblue" points="614.708,-134.142 604.769,-137.814 614.828,-141.141 614.708,-134.142"/>
</g>
<!-- Node9 -->
<g id="node9" class="node"><title>Node9</title>
<g id="a_node9"><a xlink:href="classrc_visual_function.html#a1df64c3605f3a0a4670118911ac783b1" target="_top" xlink:title="rcVisualFunction::cardiac\lMeasure">
<polygon fill="white" stroke="black" points="471.231,-78 471.231,-110 598.769,-110 598.769,-78 471.231,-78"/>
<text text-anchor="start" x="479.231" y="-96" font-family="Helvetica,sans-Serif" font-size="10.00">rcVisualFunction::cardiac</text>
<text text-anchor="middle" x="535" y="-84" font-family="Helvetica,sans-Serif" font-size="10.00">Measure</text>
</a>
</g>
</g>
<!-- Node8&#45;&gt;Node9 -->
<g id="edge8" class="edge"><title>Node8&#45;&gt;Node9</title>
<path fill="none" stroke="midnightblue" d="M422.072,-70.0657C437.45,-73.3541 454.782,-77.0603 471.131,-80.5564"/>
<polygon fill="midnightblue" stroke="midnightblue" points="422.789,-66.64 412.278,-67.9715 421.325,-73.4853 422.789,-66.64"/>
</g>
<!-- Node11 -->
<g id="node11" class="node"><title>Node11</title>
<g id="a_node11"><a xlink:href="classrc_engine_impl.html#a00ca0d227e480ddb5bd6be293b55d2c9" target="_top" xlink:title="rcEngineImpl::muscleTracker">
<polygon fill="white" stroke="black" points="462.442,-39 462.442,-59 607.558,-59 607.558,-39 462.442,-39"/>
<text text-anchor="middle" x="535" y="-45" font-family="Helvetica,sans-Serif" font-size="10.00">rcEngineImpl::muscleTracker</text>
</a>
</g>
</g>
<!-- Node8&#45;&gt;Node11 -->
<g id="edge10" class="edge"><title>Node8&#45;&gt;Node11</title>
<path fill="none" stroke="midnightblue" d="M422.466,-56.7162C434.991,-55.8496 448.791,-54.8949 462.289,-53.9612"/>
<polygon fill="midnightblue" stroke="midnightblue" points="422.013,-53.2391 412.278,-57.421 422.496,-60.2224 422.013,-53.2391"/>
</g>
<!-- Node12 -->
<g id="node12" class="node"><title>Node12</title>
<g id="a_node12"><a xlink:href="rc__edge_8h.html#a11fbb1eb0376dd39a4be2ea72b7ef156" target="_top" xlink:title="rfDirectionSignal">
<polygon fill="white" stroke="black" points="490.318,-0 490.318,-20 579.682,-20 579.682,-0 490.318,-0"/>
<text text-anchor="middle" x="535" y="-6" font-family="Helvetica,sans-Serif" font-size="10.00">rfDirectionSignal</text>
</a>
</g>
</g>
<!-- Node8&#45;&gt;Node12 -->
<g id="edge11" class="edge"><title>Node8&#45;&gt;Node12</title>
<path fill="none" stroke="midnightblue" d="M411.207,-46.3285C426.745,-40.6626 445.163,-34.2112 462,-29 472.127,-25.8657 483.154,-22.7899 493.464,-20.0567"/>
<polygon fill="midnightblue" stroke="midnightblue" points="409.634,-43.178 401.459,-49.9173 412.052,-49.747 409.634,-43.178"/>
</g>
<!-- Node10 -->
<g id="node10" class="node"><title>Node10</title>
<g id="a_node10"><a xlink:href="classrc_visual_function.html#ac3135ba614a9ba5080e78c3f2f426312" target="_top" xlink:title="rcVisualFunction::measure">
<polygon fill="white" stroke="black" points="643.896,-84 643.896,-104 778.104,-104 778.104,-84 643.896,-84"/>
<text text-anchor="middle" x="711" y="-90" font-family="Helvetica,sans-Serif" font-size="10.00">rcVisualFunction::measure</text>
</a>
</g>
</g>
<!-- Node9&#45;&gt;Node10 -->
<g id="edge9" class="edge"><title>Node9&#45;&gt;Node10</title>
<path fill="none" stroke="midnightblue" d="M608.873,-94C620.44,-94 632.349,-94 643.753,-94"/>
<polygon fill="midnightblue" stroke="midnightblue" points="608.818,-90.5001 598.818,-94 608.818,-97.5001 608.818,-90.5001"/>
</g>
</g>
</svg>
