<?xml version="1.0" encoding="UTF-8" standalone="no"?>
<!DOCTYPE svg PUBLIC "-//W3C//DTD SVG 1.1//EN"
 "http://www.w3.org/Graphics/SVG/1.1/DTD/svg11.dtd">
<!-- Generated by graphviz version 2.32.0 (20130916.1925)
 -->
<!-- Title: TIFFFillTile Pages: 1 -->
<svg width="1314pt" height="144pt"
 viewBox="0.00 0.00 1314.00 144.00" xmlns="http://www.w3.org/2000/svg" xmlns:xlink="http://www.w3.org/1999/xlink">
<g id="graph0" class="graph" transform="scale(1 1) rotate(0) translate(4 140)">
<title>TIFFFillTile</title>
<polygon fill="white" stroke="white" points="-4,5 -4,-140 1311,-140 1311,5 -4,5"/>
<!-- Node1 -->
<g id="node1" class="node"><title>Node1</title>
<polygon fill="#bfbfbf" stroke="black" points="0.187988,-39 0.187988,-59 65.812,-59 65.812,-39 0.187988,-39"/>
<text text-anchor="middle" x="33" y="-45" font-family="Helvetica,sans-Serif" font-size="10.00">TIFFFillTile</text>
</g>
<!-- Node2 -->
<g id="node2" class="node"><title>Node2</title>
<g id="a_node2"><a xlink:href="tiffio_8h.html#aff82bac3b9f95d0b4793f50fb235407d" target="_top" xlink:title="TIFFReadEncodedTile">
<polygon fill="white" stroke="black" points="101.883,-39 101.883,-59 218.117,-59 218.117,-39 101.883,-39"/>
<text text-anchor="middle" x="160" y="-45" font-family="Helvetica,sans-Serif" font-size="10.00">TIFFReadEncodedTile</text>
</a>
</g>
</g>
<!-- Node1&#45;&gt;Node2 -->
<g id="edge1" class="edge"><title>Node1&#45;&gt;Node2</title>
<path fill="none" stroke="midnightblue" d="M75.9126,-49C84.1075,-49 92.834,-49 101.435,-49"/>
<polygon fill="midnightblue" stroke="midnightblue" points="75.8662,-45.5001 65.8662,-49 75.8662,-52.5001 75.8662,-45.5001"/>
</g>
<!-- Node3 -->
<g id="node3" class="node"><title>Node3</title>
<g id="a_node3"><a xlink:href="tiffio_8h.html#a26fc5ecc9015510d42df2eb706651638" target="_top" xlink:title="TIFFReadTile">
<polygon fill="white" stroke="black" points="254.622,-39 254.622,-59 331.378,-59 331.378,-39 254.622,-39"/>
<text text-anchor="middle" x="293" y="-45" font-family="Helvetica,sans-Serif" font-size="10.00">TIFFReadTile</text>
</a>
</g>
</g>
<!-- Node2&#45;&gt;Node3 -->
<g id="edge2" class="edge"><title>Node2&#45;&gt;Node3</title>
<path fill="none" stroke="midnightblue" d="M228.546,-49C237.493,-49 246.39,-49 254.566,-49"/>
<polygon fill="midnightblue" stroke="midnightblue" points="228.459,-45.5001 218.459,-49 228.458,-52.5001 228.459,-45.5001"/>
</g>
<!-- Node4 -->
<g id="node4" class="node"><title>Node4</title>
<g id="a_node4"><a xlink:href="tif__getimage_8c.html#a10d5db7bf3be3f719ba1a2d3bf1142c1" target="_top" xlink:title="gtTileContig">
<polygon fill="white" stroke="black" points="374.503,-59 374.503,-79 443.497,-79 443.497,-59 374.503,-59"/>
<text text-anchor="middle" x="409" y="-65" font-family="Helvetica,sans-Serif" font-size="10.00">gtTileContig</text>
</a>
</g>
</g>
<!-- Node3&#45;&gt;Node4 -->
<g id="edge3" class="edge"><title>Node3&#45;&gt;Node4</title>
<path fill="none" stroke="midnightblue" d="M341.544,-57.341C352.524,-59.2673 363.986,-61.2782 374.237,-63.0767"/>
<polygon fill="midnightblue" stroke="midnightblue" points="342.098,-53.8849 331.644,-55.6042 340.889,-60.7796 342.098,-53.8849"/>
</g>
<!-- Node15 -->
<g id="node15" class="node"><title>Node15</title>
<g id="a_node15"><a xlink:href="tif__getimage_8c.html#a5cb7dd9dbe477a05fc1037f31992dd06" target="_top" xlink:title="gtTileSeparate">
<polygon fill="white" stroke="black" points="368.664,-20 368.664,-40 449.336,-40 449.336,-20 368.664,-20"/>
<text text-anchor="middle" x="409" y="-26" font-family="Helvetica,sans-Serif" font-size="10.00">gtTileSeparate</text>
</a>
</g>
</g>
<!-- Node3&#45;&gt;Node15 -->
<g id="edge14" class="edge"><title>Node3&#45;&gt;Node15</title>
<path fill="none" stroke="midnightblue" d="M341.56,-41.0734C350.505,-39.5824 359.77,-38.0383 368.44,-36.5934"/>
<polygon fill="midnightblue" stroke="midnightblue" points="340.932,-37.6296 331.644,-42.726 342.083,-44.5343 340.932,-37.6296"/>
</g>
<!-- Node5 -->
<g id="node5" class="node"><title>Node5</title>
<g id="a_node5"><a xlink:href="tiffio_8h.html#acd3bb3a843674f44624f98f2d6f7785a" target="_top" xlink:title="TIFFRGBAImageBegin">
<polygon fill="white" stroke="black" points="486.594,-39 486.594,-59 605.406,-59 605.406,-39 486.594,-39"/>
<text text-anchor="middle" x="546" y="-45" font-family="Helvetica,sans-Serif" font-size="10.00">TIFFRGBAImageBegin</text>
</a>
</g>
</g>
<!-- Node4&#45;&gt;Node5 -->
<g id="edge4" class="edge"><title>Node4&#45;&gt;Node5</title>
<path fill="none" stroke="midnightblue" d="M453.817,-62.5086C464.248,-60.9632 475.544,-59.2898 486.515,-57.6644"/>
<polygon fill="midnightblue" stroke="midnightblue" points="453.097,-59.077 443.718,-64.0047 454.123,-66.0014 453.097,-59.077"/>
</g>
<!-- Node6 -->
<g id="node6" class="node"><title>Node6</title>
<g id="a_node6"><a xlink:href="tiffio_8h.html#a37f05a9b68bdc13fb34dc6d4182914d4" target="_top" xlink:title="TIFFReadRGBAImageOriented">
<polygon fill="white" stroke="black" points="642.251,-78 642.251,-98 797.749,-98 797.749,-78 642.251,-78"/>
<text text-anchor="middle" x="720" y="-84" font-family="Helvetica,sans-Serif" font-size="10.00">TIFFReadRGBAImageOriented</text>
</a>
</g>
</g>
<!-- Node5&#45;&gt;Node6 -->
<g id="edge5" class="edge"><title>Node5&#45;&gt;Node6</title>
<path fill="none" stroke="midnightblue" d="M601.206,-61.2908C624.928,-66.6698 652.408,-72.9006 674.856,-77.9906"/>
<polygon fill="midnightblue" stroke="midnightblue" points="601.821,-57.8415 591.294,-59.0435 600.273,-64.6682 601.821,-57.8415"/>
</g>
<!-- Node13 -->
<g id="node13" class="node"><title>Node13</title>
<g id="a_node13"><a xlink:href="tiffio_8h.html#a078cb3ec8bbc21b9d0b107241bdeb340" target="_top" xlink:title="TIFFReadRGBAStrip">
<polygon fill="white" stroke="black" points="665.044,-39 665.044,-59 774.956,-59 774.956,-39 665.044,-39"/>
<text text-anchor="middle" x="720" y="-45" font-family="Helvetica,sans-Serif" font-size="10.00">TIFFReadRGBAStrip</text>
</a>
</g>
</g>
<!-- Node5&#45;&gt;Node13 -->
<g id="edge12" class="edge"><title>Node5&#45;&gt;Node13</title>
<path fill="none" stroke="midnightblue" d="M615.754,-49C632.097,-49 649.308,-49 664.891,-49"/>
<polygon fill="midnightblue" stroke="midnightblue" points="615.712,-45.5001 605.712,-49 615.712,-52.5001 615.712,-45.5001"/>
</g>
<!-- Node14 -->
<g id="node14" class="node"><title>Node14</title>
<g id="a_node14"><a xlink:href="tiffio_8h.html#a9cb0696bc0bde1de66286981e94def26" target="_top" xlink:title="TIFFReadRGBATile">
<polygon fill="white" stroke="black" points="667.82,-0 667.82,-20 772.18,-20 772.18,-0 667.82,-0"/>
<text text-anchor="middle" x="720" y="-6" font-family="Helvetica,sans-Serif" font-size="10.00">TIFFReadRGBATile</text>
</a>
</g>
</g>
<!-- Node5&#45;&gt;Node14 -->
<g id="edge13" class="edge"><title>Node5&#45;&gt;Node14</title>
<path fill="none" stroke="midnightblue" d="M601.206,-36.7092C624.928,-31.3302 652.408,-25.0994 674.856,-20.0094"/>
<polygon fill="midnightblue" stroke="midnightblue" points="600.273,-33.3318 591.294,-38.9565 601.821,-40.1585 600.273,-33.3318"/>
</g>
<!-- Node7 -->
<g id="node7" class="node"><title>Node7</title>
<g id="a_node7"><a xlink:href="class_t_i_f_f_image_i_o.html#a65d99c4b2c48e346698c0ae5462f2b20" target="_top" xlink:title="TIFFImageIO::Read">
<polygon fill="white" stroke="black" points="840.542,-97 840.542,-117 945.458,-117 945.458,-97 840.542,-97"/>
<text text-anchor="middle" x="893" y="-103" font-family="Helvetica,sans-Serif" font-size="10.00">TIFFImageIO::Read</text>
</a>
</g>
</g>
<!-- Node6&#45;&gt;Node7 -->
<g id="edge6" class="edge"><title>Node6&#45;&gt;Node7</title>
<path fill="none" stroke="midnightblue" d="M808.126,-97.6806C819.168,-98.9075 830.174,-100.13 840.406,-101.267"/>
<polygon fill="midnightblue" stroke="midnightblue" points="808.321,-94.1809 797.996,-96.5551 807.548,-101.138 808.321,-94.1809"/>
</g>
<!-- Node12 -->
<g id="node12" class="node"><title>Node12</title>
<g id="a_node12"><a xlink:href="tiffio_8h.html#a2992848d0612320b0aa5e7ef655a824e" target="_top" xlink:title="TIFFReadRGBAImage">
<polygon fill="white" stroke="black" points="834.429,-58 834.429,-78 951.571,-78 951.571,-58 834.429,-58"/>
<text text-anchor="middle" x="893" y="-64" font-family="Helvetica,sans-Serif" font-size="10.00">TIFFReadRGBAImage</text>
</a>
</g>
</g>
<!-- Node6&#45;&gt;Node12 -->
<g id="edge11" class="edge"><title>Node6&#45;&gt;Node12</title>
<path fill="none" stroke="midnightblue" d="M808.063,-77.8172C816.989,-76.7732 825.893,-75.7318 834.385,-74.7386"/>
<polygon fill="midnightblue" stroke="midnightblue" points="807.522,-74.3566 797.996,-78.9946 808.335,-81.3092 807.522,-74.3566"/>
</g>
<!-- Node8 -->
<g id="node8" class="node"><title>Node8</title>
<g id="a_node8"><a xlink:href="class_t_i_f_f_image_i_o.html#a972c82b540defb6309ae7c051d1d3694" target="_top" xlink:title="TIFFImageIO::ReadPages">
<polygon fill="white" stroke="black" points="999.365,-116 999.365,-136 1132.64,-136 1132.64,-116 999.365,-116"/>
<text text-anchor="middle" x="1066" y="-122" font-family="Helvetica,sans-Serif" font-size="10.00">TIFFImageIO::ReadPages</text>
</a>
</g>
</g>
<!-- Node7&#45;&gt;Node8 -->
<g id="edge7" class="edge"><title>Node7&#45;&gt;Node8</title>
<path fill="none" stroke="midnightblue" d="M955.832,-113.87C969.909,-115.434 984.916,-117.102 999.154,-118.684"/>
<polygon fill="midnightblue" stroke="midnightblue" points="956.095,-110.378 945.77,-112.752 955.322,-117.335 956.095,-110.378"/>
</g>
<!-- Node10 -->
<g id="node10" class="node"><title>Node10</title>
<g id="a_node10"><a xlink:href="class_t_i_f_f_image_i_o.html#a167f81244878f036d2f6bec094eefc84" target="_top" xlink:title="TIFFImageIO::ReadSinglePage">
<polygon fill="white" stroke="black" points="987.966,-77 987.966,-97 1144.03,-97 1144.03,-77 987.966,-77"/>
<text text-anchor="middle" x="1066" y="-83" font-family="Helvetica,sans-Serif" font-size="10.00">TIFFImageIO::ReadSinglePage</text>
</a>
</g>
</g>
<!-- Node7&#45;&gt;Node10 -->
<g id="edge9" class="edge"><title>Node7&#45;&gt;Node10</title>
<path fill="none" stroke="midnightblue" d="M955.94,-99.7556C966.302,-98.5437 977.164,-97.2732 987.851,-96.0233"/>
<polygon fill="midnightblue" stroke="midnightblue" points="955.295,-96.307 945.77,-100.945 956.109,-103.26 955.295,-96.307"/>
</g>
<!-- Node9 -->
<g id="node9" class="node"><title>Node9</title>
<g id="a_node9"><a xlink:href="classrc_engine_impl.html#ac0162da8fe4f677ad6f3d04a465d50f0" target="_top" xlink:title="rcEngineImpl::loadMovie">
<polygon fill="white" stroke="black" points="1180.25,-116 1180.25,-136 1305.75,-136 1305.75,-116 1180.25,-116"/>
<text text-anchor="middle" x="1243" y="-122" font-family="Helvetica,sans-Serif" font-size="10.00">rcEngineImpl::loadMovie</text>
</a>
</g>
</g>
<!-- Node8&#45;&gt;Node9 -->
<g id="edge8" class="edge"><title>Node8&#45;&gt;Node9</title>
<path fill="none" stroke="midnightblue" d="M1142.96,-126C1155.34,-126 1168.03,-126 1180.02,-126"/>
<polygon fill="midnightblue" stroke="midnightblue" points="1142.66,-122.5 1132.66,-126 1142.66,-129.5 1142.66,-122.5"/>
</g>
<!-- Node11 -->
<g id="node11" class="node"><title>Node11</title>
<g id="a_node11"><a xlink:href="classrc_window.html#a5da06176e6878b676bbc534db6b09b7d" target="_top" xlink:title="rcWindow::rcWindow">
<polygon fill="white" stroke="black" points="1188.33,-77 1188.33,-97 1297.67,-97 1297.67,-77 1188.33,-77"/>
<text text-anchor="middle" x="1243" y="-83" font-family="Helvetica,sans-Serif" font-size="10.00">rcWindow::rcWindow</text>
</a>
</g>
</g>
<!-- Node10&#45;&gt;Node11 -->
<g id="edge10" class="edge"><title>Node10&#45;&gt;Node11</title>
<path fill="none" stroke="midnightblue" d="M1154.39,-87C1165.93,-87 1177.48,-87 1188.22,-87"/>
<polygon fill="midnightblue" stroke="midnightblue" points="1154.27,-83.5001 1144.27,-87 1154.27,-90.5001 1154.27,-83.5001"/>
</g>
<!-- Node15&#45;&gt;Node5 -->
<g id="edge15" class="edge"><title>Node15&#45;&gt;Node5</title>
<path fill="none" stroke="midnightblue" d="M459.475,-36.9631C468.253,-38.1986 477.471,-39.4959 486.472,-40.7627"/>
<polygon fill="midnightblue" stroke="midnightblue" points="459.801,-33.4746 449.41,-35.5467 458.825,-40.4063 459.801,-33.4746"/>
</g>
</g>
</svg>
