<?xml version="1.0" encoding="UTF-8" standalone="no"?>
<!DOCTYPE svg PUBLIC "-//W3C//DTD SVG 1.1//EN"
 "http://www.w3.org/Graphics/SVG/1.1/DTD/svg11.dtd">
<!-- Generated by graphviz version 2.32.0 (20130916.1925)
 -->
<!-- Title: initYCbCrConversion Pages: 1 -->
<svg width="866pt" height="407pt"
 viewBox="0.00 0.00 866.00 407.42" xmlns="http://www.w3.org/2000/svg" xmlns:xlink="http://www.w3.org/1999/xlink">
<g id="graph0" class="graph" transform="scale(1 1) rotate(0) translate(4 403.417)">
<title>initYCbCrConversion</title>
<polygon fill="white" stroke="white" points="-4,5 -4,-403.417 863,-403.417 863,5 -4,5"/>
<!-- Node1 -->
<g id="node1" class="node"><title>Node1</title>
<polygon fill="#bfbfbf" stroke="black" points="0.31543,-194 0.31543,-214 109.685,-214 109.685,-194 0.31543,-194"/>
<text text-anchor="middle" x="55" y="-200" font-family="Helvetica,sans-Serif" font-size="10.00">initYCbCrConversion</text>
</g>
<!-- Node2 -->
<g id="node2" class="node"><title>Node2</title>
<g id="a_node2"><a xlink:href="tif__apple_8c.html#aaa739de67506b8254e9d150190425b4f" target="_top" xlink:title="_TIFFmalloc">
<polygon fill="white" stroke="black" points="664.219,-263 664.219,-283 735.781,-283 735.781,-263 664.219,-263"/>
<text text-anchor="middle" x="700" y="-269" font-family="Helvetica,sans-Serif" font-size="10.00">_TIFFmalloc</text>
</a>
</g>
</g>
<!-- Node1&#45;&gt;Node2 -->
<g id="edge1" class="edge"><title>Node1&#45;&gt;Node2</title>
<path fill="none" stroke="midnightblue" d="M58.1658,-214.12C65.0041,-243.224 89.1408,-327.16 146,-360 325.495,-463.67 589.743,-334.213 672.937,-288.12"/>
<polygon fill="midnightblue" stroke="midnightblue" points="674.728,-291.129 681.733,-283.181 671.3,-285.025 674.728,-291.129"/>
</g>
<!-- Node3 -->
<g id="node3" class="node"><title>Node3</title>
<g id="a_node3"><a xlink:href="tif__getimage_8c.html#a8d6da20e0ce0cf75942b2498eff7dbaf" target="_top" xlink:title="putcontig8bitYCbCr11tile">
<polygon fill="white" stroke="black" points="147.059,-331 147.059,-351 272.941,-351 272.941,-331 147.059,-331"/>
<text text-anchor="middle" x="210" y="-337" font-family="Helvetica,sans-Serif" font-size="10.00">putcontig8bitYCbCr11tile</text>
</a>
</g>
</g>
<!-- Node1&#45;&gt;Node3 -->
<g id="edge2" class="edge"><title>Node1&#45;&gt;Node3</title>
<path fill="none" stroke="midnightblue" d="M61.0103,-214.124C72.705,-236.72 104.027,-291.586 146,-321 149.095,-323.169 152.437,-325.111 155.911,-326.849"/>
<polygon fill="midnightblue" stroke="midnightblue" points="154.771,-330.171 165.334,-330.986 157.584,-323.761 154.771,-330.171"/>
</g>
<!-- Node4 -->
<g id="node4" class="node"><title>Node4</title>
<g id="a_node4"><a xlink:href="tif__getimage_8c.html#aee47ad82a9f91aaa689ac5da1073321d" target="_top" xlink:title="putcontig8bitYCbCr21tile">
<polygon fill="white" stroke="black" points="146.69,-292 146.69,-312 273.31,-312 273.31,-292 146.69,-292"/>
<text text-anchor="middle" x="210" y="-298" font-family="Helvetica,sans-Serif" font-size="10.00">putcontig8bitYCbCr21tile</text>
</a>
</g>
</g>
<!-- Node1&#45;&gt;Node4 -->
<g id="edge3" class="edge"><title>Node1&#45;&gt;Node4</title>
<path fill="none" stroke="midnightblue" d="M64.9819,-214.09C80.1418,-230.543 112.45,-263.201 146,-282 150.161,-284.331 154.631,-286.433 159.201,-288.318"/>
<polygon fill="midnightblue" stroke="midnightblue" points="158.061,-291.629 168.653,-291.887 160.534,-285.08 158.061,-291.629"/>
</g>
<!-- Node5 -->
<g id="node5" class="node"><title>Node5</title>
<g id="a_node5"><a xlink:href="tif__getimage_8c.html#a5051185be40e247a9aec9763f1549eb7" target="_top" xlink:title="putcontig8bitYCbCr22tile">
<polygon fill="white" stroke="black" points="146.69,-253 146.69,-273 273.31,-273 273.31,-253 146.69,-253"/>
<text text-anchor="middle" x="210" y="-259" font-family="Helvetica,sans-Serif" font-size="10.00">putcontig8bitYCbCr22tile</text>
</a>
</g>
</g>
<!-- Node1&#45;&gt;Node5 -->
<g id="edge4" class="edge"><title>Node1&#45;&gt;Node5</title>
<path fill="none" stroke="midnightblue" d="M77.5711,-214.083C95.6471,-222.353 122.237,-234.106 146,-243 152.282,-245.351 158.98,-247.672 165.576,-249.852"/>
<polygon fill="midnightblue" stroke="midnightblue" points="164.516,-253.188 175.107,-252.935 166.67,-246.528 164.516,-253.188"/>
</g>
<!-- Node6 -->
<g id="node6" class="node"><title>Node6</title>
<g id="a_node6"><a xlink:href="tif__getimage_8c.html#a44902a05849026466d14d9e8eab20586" target="_top" xlink:title="putcontig8bitYCbCr41tile">
<polygon fill="white" stroke="black" points="146.69,-214 146.69,-234 273.31,-234 273.31,-214 146.69,-214"/>
<text text-anchor="middle" x="210" y="-220" font-family="Helvetica,sans-Serif" font-size="10.00">putcontig8bitYCbCr41tile</text>
</a>
</g>
</g>
<!-- Node1&#45;&gt;Node6 -->
<g id="edge5" class="edge"><title>Node1&#45;&gt;Node6</title>
<path fill="none" stroke="midnightblue" d="M109.942,-211.051C118.568,-212.179 127.615,-213.361 136.586,-214.534"/>
<polygon fill="midnightblue" stroke="midnightblue" points="136.288,-218.025 146.657,-215.851 137.195,-211.084 136.288,-218.025"/>
</g>
<!-- Node7 -->
<g id="node7" class="node"><title>Node7</title>
<g id="a_node7"><a xlink:href="tif__getimage_8c.html#af593d47e0afcb0aa920af93105282329" target="_top" xlink:title="putcontig8bitYCbCr42tile">
<polygon fill="white" stroke="black" points="146.69,-175 146.69,-195 273.31,-195 273.31,-175 146.69,-175"/>
<text text-anchor="middle" x="210" y="-181" font-family="Helvetica,sans-Serif" font-size="10.00">putcontig8bitYCbCr42tile</text>
</a>
</g>
</g>
<!-- Node1&#45;&gt;Node7 -->
<g id="edge6" class="edge"><title>Node1&#45;&gt;Node7</title>
<path fill="none" stroke="midnightblue" d="M109.942,-197.301C118.568,-196.23 127.615,-195.107 136.586,-193.993"/>
<polygon fill="midnightblue" stroke="midnightblue" points="137.165,-197.448 146.657,-192.742 136.302,-190.501 137.165,-197.448"/>
</g>
<!-- Node8 -->
<g id="node8" class="node"><title>Node8</title>
<g id="a_node8"><a xlink:href="tif__getimage_8c.html#af08aed35f4e8eda3498570b7d8f81357" target="_top" xlink:title="putcontig8bitYCbCr44tile">
<polygon fill="white" stroke="black" points="146.69,-136 146.69,-156 273.31,-156 273.31,-136 146.69,-136"/>
<text text-anchor="middle" x="210" y="-142" font-family="Helvetica,sans-Serif" font-size="10.00">putcontig8bitYCbCr44tile</text>
</a>
</g>
</g>
<!-- Node1&#45;&gt;Node8 -->
<g id="edge7" class="edge"><title>Node1&#45;&gt;Node8</title>
<path fill="none" stroke="midnightblue" d="M77.1752,-193.994C95.2369,-185.661 122.013,-173.781 146,-165 151.567,-162.962 157.465,-160.97 163.332,-159.088"/>
<polygon fill="midnightblue" stroke="midnightblue" points="164.608,-162.357 173.112,-156.038 162.523,-155.674 164.608,-162.357"/>
</g>
<!-- Node9 -->
<g id="node9" class="node"><title>Node9</title>
<g id="a_node9"><a xlink:href="tif__error_8c.html#a2e8b77a2d4e7b7283b55b963dd67ec31" target="_top" xlink:title="TIFFErrorExt">
<polygon fill="white" stroke="black" points="505.113,-97 505.113,-117 578.887,-117 578.887,-97 505.113,-97"/>
<text text-anchor="middle" x="542" y="-103" font-family="Helvetica,sans-Serif" font-size="10.00">TIFFErrorExt</text>
</a>
</g>
</g>
<!-- Node1&#45;&gt;Node9 -->
<g id="edge8" class="edge"><title>Node1&#45;&gt;Node9</title>
<path fill="none" stroke="midnightblue" d="M63.8131,-193.755C77.9568,-176.122 109.725,-140.534 146,-126 264.388,-78.5665 418.949,-89.9675 494.849,-99.7941"/>
<polygon fill="midnightblue" stroke="midnightblue" points="494.647,-103.298 505.025,-101.164 495.581,-96.361 494.647,-103.298"/>
</g>
<!-- Node10 -->
<g id="node10" class="node"><title>Node10</title>
<g id="a_node10"><a xlink:href="tif__aux_8c.html#a14379a10725055abd89dc9c78ec2597b" target="_top" xlink:title="TIFFGetFieldDefaulted">
<polygon fill="white" stroke="black" points="151.148,-58 151.148,-78 268.852,-78 268.852,-58 151.148,-58"/>
<text text-anchor="middle" x="210" y="-64" font-family="Helvetica,sans-Serif" font-size="10.00">TIFFGetFieldDefaulted</text>
</a>
</g>
</g>
<!-- Node1&#45;&gt;Node10 -->
<g id="edge9" class="edge"><title>Node1&#45;&gt;Node10</title>
<path fill="none" stroke="midnightblue" d="M61.6699,-193.967C74.2236,-172.58 106.413,-122.084 146,-93 151.671,-88.8339 158.129,-85.2501 164.699,-82.2037"/>
<polygon fill="midnightblue" stroke="midnightblue" points="166.485,-85.2478 174.324,-78.1199 163.751,-78.8038 166.485,-85.2478"/>
</g>
<!-- Node19 -->
<g id="node19" class="node"><title>Node19</title>
<g id="a_node19"><a xlink:href="tif__color_8c.html#ab3477a31111067eee0f1529702c7150c" target="_top" xlink:title="TIFFYCbCrToRGBInit">
<polygon fill="white" stroke="black" points="153.66,-19 153.66,-39 266.34,-39 266.34,-19 153.66,-19"/>
<text text-anchor="middle" x="210" y="-25" font-family="Helvetica,sans-Serif" font-size="10.00">TIFFYCbCrToRGBInit</text>
</a>
</g>
</g>
<!-- Node1&#45;&gt;Node19 -->
<g id="edge20" class="edge"><title>Node1&#45;&gt;Node19</title>
<path fill="none" stroke="midnightblue" d="M58.9301,-193.864C67.4729,-166.133 95.032,-88.3975 146,-48 147.998,-46.4167 150.126,-44.965 152.346,-43.6341"/>
<polygon fill="midnightblue" stroke="midnightblue" points="153.969,-46.7356 161.289,-39.0761 150.79,-40.499 153.969,-46.7356"/>
</g>
<!-- Node11 -->
<g id="node11" class="node"><title>Node11</title>
<g id="a_node11"><a xlink:href="tif__aux_8c.html#ae0a4f2a306b1b4fd1417c5e16d55c01f" target="_top" xlink:title="TIFFVGetFieldDefaulted">
<polygon fill="white" stroke="black" points="309.813,-58 309.813,-78 434.187,-78 434.187,-58 309.813,-58"/>
<text text-anchor="middle" x="372" y="-64" font-family="Helvetica,sans-Serif" font-size="10.00">TIFFVGetFieldDefaulted</text>
</a>
</g>
</g>
<!-- Node10&#45;&gt;Node11 -->
<g id="edge10" class="edge"><title>Node10&#45;&gt;Node11</title>
<path fill="none" stroke="midnightblue" d="M269.216,-68C279.067,-68 289.395,-68 299.538,-68"/>
<polygon fill="midnightblue" stroke="midnightblue" points="299.595,-71.5001 309.595,-68 299.595,-64.5001 299.595,-71.5001"/>
</g>
<!-- Node11&#45;&gt;Node9 -->
<g id="edge16" class="edge"><title>Node11&#45;&gt;Node9</title>
<path fill="none" stroke="midnightblue" d="M416.264,-78.0435C440.446,-83.6571 470.571,-90.6504 495.157,-96.3579"/>
<polygon fill="midnightblue" stroke="midnightblue" points="494.442,-99.7849 504.974,-98.6369 496.025,-92.9662 494.442,-99.7849"/>
</g>
<!-- Node12 -->
<g id="node12" class="node"><title>Node12</title>
<g id="a_node12"><a xlink:href="tif__aux_8c.html#a248c1b93e7bfd6abd728d692483e441f" target="_top" xlink:title="TIFFDefaultTransferFunction">
<polygon fill="white" stroke="black" points="469.996,-58 469.996,-78 614.004,-78 614.004,-58 469.996,-58"/>
<text text-anchor="middle" x="542" y="-64" font-family="Helvetica,sans-Serif" font-size="10.00">TIFFDefaultTransferFunction</text>
</a>
</g>
</g>
<!-- Node11&#45;&gt;Node12 -->
<g id="edge11" class="edge"><title>Node11&#45;&gt;Node12</title>
<path fill="none" stroke="midnightblue" d="M434.603,-68C442.725,-68 451.149,-68 459.539,-68"/>
<polygon fill="midnightblue" stroke="midnightblue" points="459.734,-71.5001 469.734,-68 459.734,-64.5001 459.734,-71.5001"/>
</g>
<!-- Node16 -->
<g id="node16" class="node"><title>Node16</title>
<g id="a_node16"><a xlink:href="tif__dir_8c.html#ab0eecdbdae2ee28066c5453fdd594027" target="_top" xlink:title="TIFFVGetField">
<polygon fill="white" stroke="black" points="501.217,-19 501.217,-39 582.783,-39 582.783,-19 501.217,-19"/>
<text text-anchor="middle" x="542" y="-25" font-family="Helvetica,sans-Serif" font-size="10.00">TIFFVGetField</text>
</a>
</g>
</g>
<!-- Node11&#45;&gt;Node16 -->
<g id="edge17" class="edge"><title>Node11&#45;&gt;Node16</title>
<path fill="none" stroke="midnightblue" d="M416.264,-57.9565C439.148,-52.6443 467.353,-46.0967 491.151,-40.5722"/>
<polygon fill="midnightblue" stroke="midnightblue" points="492.102,-43.9445 501.052,-38.2737 490.519,-37.1258 492.102,-43.9445"/>
</g>
<!-- Node12&#45;&gt;Node2 -->
<g id="edge13" class="edge"><title>Node12&#45;&gt;Node2</title>
<path fill="none" stroke="midnightblue" d="M599.608,-78.0517C604.801,-80.4353 609.712,-83.3753 614,-87 627.709,-98.5894 672.809,-207.957 691.144,-253.375"/>
<polygon fill="midnightblue" stroke="midnightblue" points="687.935,-254.776 694.914,-262.748 694.43,-252.164 687.935,-254.776"/>
</g>
<!-- Node13 -->
<g id="node13" class="node"><title>Node13</title>
<g id="a_node13"><a xlink:href="tif__apple_8c.html#adcb814cdc66530ea86553b6840c19819" target="_top" xlink:title="_TIFFfree">
<polygon fill="white" stroke="black" points="670.052,-117 670.052,-137 729.948,-137 729.948,-117 670.052,-117"/>
<text text-anchor="middle" x="700" y="-123" font-family="Helvetica,sans-Serif" font-size="10.00">_TIFFfree</text>
</a>
</g>
</g>
<!-- Node12&#45;&gt;Node13 -->
<g id="edge12" class="edge"><title>Node12&#45;&gt;Node13</title>
<path fill="none" stroke="midnightblue" d="M587.487,-78.105C596.4,-80.6296 605.601,-83.6035 614,-87 630.968,-93.8619 633.497,-99.083 650,-107 654.329,-109.077 658.931,-111.139 663.516,-113.106"/>
<polygon fill="midnightblue" stroke="midnightblue" points="662.232,-116.362 672.808,-116.984 664.928,-109.902 662.232,-116.362"/>
</g>
<!-- Node14 -->
<g id="node14" class="node"><title>Node14</title>
<g id="a_node14"><a xlink:href="tif__apple_8c.html#aacf23567597faf7b8f01f31f397217f0" target="_top" xlink:title="_TIFFmemcpy">
<polygon fill="white" stroke="black" points="659.776,-78 659.776,-98 740.224,-98 740.224,-78 659.776,-78"/>
<text text-anchor="middle" x="700" y="-84" font-family="Helvetica,sans-Serif" font-size="10.00">_TIFFmemcpy</text>
</a>
</g>
</g>
<!-- Node12&#45;&gt;Node14 -->
<g id="edge14" class="edge"><title>Node12&#45;&gt;Node14</title>
<path fill="none" stroke="midnightblue" d="M614.152,-77.1221C626.088,-78.6523 638.239,-80.2102 649.477,-81.6508"/>
<polygon fill="midnightblue" stroke="midnightblue" points="649.143,-85.1367 659.507,-82.9368 650.033,-78.1935 649.143,-85.1367"/>
</g>
<!-- Node15 -->
<g id="node15" class="node"><title>Node15</title>
<g id="a_node15"><a xlink:href="nrutil__nr_8h.html#a0c6419b6f375fd05c1cd758ca031974c" target="_top" xlink:title="pow">
<polygon fill="white" stroke="black" points="682.828,-39 682.828,-59 717.172,-59 717.172,-39 682.828,-39"/>
<text text-anchor="middle" x="700" y="-45" font-family="Helvetica,sans-Serif" font-size="10.00">pow</text>
</a>
</g>
</g>
<!-- Node12&#45;&gt;Node15 -->
<g id="edge15" class="edge"><title>Node12&#45;&gt;Node15</title>
<path fill="none" stroke="midnightblue" d="M614.152,-59.334C634.915,-56.8052 656.33,-54.197 672.451,-52.2335"/>
<polygon fill="midnightblue" stroke="midnightblue" points="673.19,-55.6695 682.693,-50.9861 672.343,-48.7209 673.19,-55.6695"/>
</g>
<!-- Node17 -->
<g id="node17" class="node"><title>Node17</title>
<g id="a_node17"><a xlink:href="tif__dirinfo_8c.html#a3317560b966ff5f4b7e378e8c6ca936a" target="_top" xlink:title="_TIFFFindFieldInfo">
<polygon fill="white" stroke="black" points="649.764,-0 649.764,-20 750.236,-20 750.236,-0 649.764,-0"/>
<text text-anchor="middle" x="700" y="-6" font-family="Helvetica,sans-Serif" font-size="10.00">_TIFFFindFieldInfo</text>
</a>
</g>
</g>
<!-- Node16&#45;&gt;Node17 -->
<g id="edge18" class="edge"><title>Node16&#45;&gt;Node17</title>
<path fill="none" stroke="midnightblue" d="M583.174,-24.107C600.315,-22.0193 620.672,-19.5399 639.503,-17.2465"/>
<polygon fill="midnightblue" stroke="midnightblue" points="639.976,-20.7147 649.48,-16.0313 639.13,-13.7661 639.976,-20.7147"/>
</g>
<!-- Node18 -->
<g id="node18" class="node"><title>Node18</title>
<g id="a_node18"><a xlink:href="tif__dirinfo_8c.html#a365ced53b43ae215e93968db3ef3a29e" target="_top" xlink:title="tagCompare">
<polygon fill="white" stroke="black" points="786.485,-0 786.485,-20 857.515,-20 857.515,-0 786.485,-0"/>
<text text-anchor="middle" x="822" y="-6" font-family="Helvetica,sans-Serif" font-size="10.00">tagCompare</text>
</a>
</g>
</g>
<!-- Node17&#45;&gt;Node18 -->
<g id="edge19" class="edge"><title>Node17&#45;&gt;Node18</title>
<path fill="none" stroke="midnightblue" d="M750.501,-10C758.945,-10 767.674,-10 775.993,-10"/>
<polygon fill="midnightblue" stroke="midnightblue" points="776.258,-13.5001 786.258,-10 776.258,-6.5001 776.258,-13.5001"/>
</g>
<!-- Node20 -->
<g id="node20" class="node"><title>Node20</title>
<g id="a_node20"><a xlink:href="tif__apple_8c.html#abbc4b30de2ac6b7eecdf9362bfa74c39" target="_top" xlink:title="_TIFFmemset">
<polygon fill="white" stroke="black" points="332.887,-19 332.887,-39 411.113,-39 411.113,-19 332.887,-19"/>
<text text-anchor="middle" x="372" y="-25" font-family="Helvetica,sans-Serif" font-size="10.00">_TIFFmemset</text>
</a>
</g>
</g>
<!-- Node19&#45;&gt;Node20 -->
<g id="edge21" class="edge"><title>Node19&#45;&gt;Node20</title>
<path fill="none" stroke="midnightblue" d="M266.511,-29C284.77,-29 304.912,-29 322.599,-29"/>
<polygon fill="midnightblue" stroke="midnightblue" points="322.697,-32.5001 332.697,-29 322.697,-25.5001 322.697,-32.5001"/>
</g>
</g>
</svg>
