<?xml version="1.0" encoding="UTF-8" standalone="no"?>
<!DOCTYPE svg PUBLIC "-//W3C//DTD SVG 1.1//EN"
 "http://www.w3.org/Graphics/SVG/1.1/DTD/svg11.dtd">
<!-- Generated by graphviz version 2.32.0 (20130916.1925)
 -->
<!-- Title: TIFFSetupShortPair Pages: 1 -->
<svg width="804pt" height="251pt"
 viewBox="0.00 0.00 804.00 251.00" xmlns="http://www.w3.org/2000/svg" xmlns:xlink="http://www.w3.org/1999/xlink">
<g id="graph0" class="graph" transform="scale(1 1) rotate(0) translate(4 247)">
<title>TIFFSetupShortPair</title>
<polygon fill="white" stroke="white" points="-4,5 -4,-247 801,-247 801,5 -4,5"/>
<!-- Node1 -->
<g id="node1" class="node"><title>Node1</title>
<polygon fill="#bfbfbf" stroke="black" points="0.539551,-184 0.539551,-204 105.46,-204 105.46,-184 0.539551,-184"/>
<text text-anchor="middle" x="53" y="-190" font-family="Helvetica,sans-Serif" font-size="10.00">TIFFSetupShortPair</text>
</g>
<!-- Node2 -->
<g id="node2" class="node"><title>Node2</title>
<g id="a_node2"><a xlink:href="tif__dir_8c.html#ac1ca0e4a5a3e8f3fa76e853dbe68c6b2" target="_top" xlink:title="TIFFGetField">
<polygon fill="white" stroke="black" points="158.552,-213 158.552,-233 233.448,-233 233.448,-213 158.552,-213"/>
<text text-anchor="middle" x="196" y="-219" font-family="Helvetica,sans-Serif" font-size="10.00">TIFFGetField</text>
</a>
</g>
</g>
<!-- Node1&#45;&gt;Node2 -->
<g id="edge1" class="edge"><title>Node1&#45;&gt;Node2</title>
<path fill="none" stroke="midnightblue" d="M102.919,-204.061C117.654,-207.092 133.78,-210.409 148.363,-213.408"/>
<polygon fill="midnightblue" stroke="midnightblue" points="147.675,-216.84 158.175,-215.426 149.086,-209.983 147.675,-216.84"/>
</g>
<!-- Node6 -->
<g id="node6" class="node"><title>Node6</title>
<g id="a_node6"><a xlink:href="tif__dirwrite_8c.html#a64b0471b19660f0c730947d3994f351a" target="_top" xlink:title="TIFFWriteShortArray">
<polygon fill="white" stroke="black" points="141.975,-155 141.975,-175 250.025,-175 250.025,-155 141.975,-155"/>
<text text-anchor="middle" x="196" y="-161" font-family="Helvetica,sans-Serif" font-size="10.00">TIFFWriteShortArray</text>
</a>
</g>
</g>
<!-- Node1&#45;&gt;Node6 -->
<g id="edge5" class="edge"><title>Node1&#45;&gt;Node6</title>
<path fill="none" stroke="midnightblue" d="M102.919,-183.939C113.637,-181.734 125.092,-179.378 136.152,-177.103"/>
<polygon fill="midnightblue" stroke="midnightblue" points="137.077,-180.487 146.167,-175.044 135.667,-173.63 137.077,-180.487"/>
</g>
<!-- Node3 -->
<g id="node3" class="node"><title>Node3</title>
<g id="a_node3"><a xlink:href="tif__dir_8c.html#ab0eecdbdae2ee28066c5453fdd594027" target="_top" xlink:title="TIFFVGetField">
<polygon fill="white" stroke="black" points="286.217,-223 286.217,-243 367.783,-243 367.783,-223 286.217,-223"/>
<text text-anchor="middle" x="327" y="-229" font-family="Helvetica,sans-Serif" font-size="10.00">TIFFVGetField</text>
</a>
</g>
</g>
<!-- Node2&#45;&gt;Node3 -->
<g id="edge2" class="edge"><title>Node2&#45;&gt;Node3</title>
<path fill="none" stroke="midnightblue" d="M233.621,-225.839C246.808,-226.861 261.92,-228.033 276.049,-229.128"/>
<polygon fill="midnightblue" stroke="midnightblue" points="275.881,-232.625 286.122,-229.909 276.423,-225.646 275.881,-232.625"/>
</g>
<!-- Node4 -->
<g id="node4" class="node"><title>Node4</title>
<g id="a_node4"><a xlink:href="tif__dirinfo_8c.html#a3317560b966ff5f4b7e378e8c6ca936a" target="_top" xlink:title="_TIFFFindFieldInfo">
<polygon fill="white" stroke="black" points="577.764,-213 577.764,-233 678.236,-233 678.236,-213 577.764,-213"/>
<text text-anchor="middle" x="628" y="-219" font-family="Helvetica,sans-Serif" font-size="10.00">_TIFFFindFieldInfo</text>
</a>
</g>
</g>
<!-- Node3&#45;&gt;Node4 -->
<g id="edge3" class="edge"><title>Node3&#45;&gt;Node4</title>
<path fill="none" stroke="midnightblue" d="M368.014,-231.662C419.129,-229.952 508.043,-226.978 567.21,-225"/>
<polygon fill="midnightblue" stroke="midnightblue" points="567.654,-228.487 577.531,-224.654 567.419,-221.491 567.654,-228.487"/>
</g>
<!-- Node5 -->
<g id="node5" class="node"><title>Node5</title>
<g id="a_node5"><a xlink:href="tif__dirinfo_8c.html#a365ced53b43ae215e93968db3ef3a29e" target="_top" xlink:title="tagCompare">
<polygon fill="white" stroke="black" points="724.485,-213 724.485,-233 795.515,-233 795.515,-213 724.485,-213"/>
<text text-anchor="middle" x="760" y="-219" font-family="Helvetica,sans-Serif" font-size="10.00">tagCompare</text>
</a>
</g>
</g>
<!-- Node4&#45;&gt;Node5 -->
<g id="edge4" class="edge"><title>Node4&#45;&gt;Node5</title>
<path fill="none" stroke="midnightblue" d="M678.518,-223C690.165,-223 702.515,-223 713.953,-223"/>
<polygon fill="midnightblue" stroke="midnightblue" points="714.154,-226.5 724.154,-223 714.154,-219.5 714.154,-226.5"/>
</g>
<!-- Node7 -->
<g id="node7" class="node"><title>Node7</title>
<g id="a_node7"><a xlink:href="tif__dirwrite_8c.html#a959ea1b6810897898f5e7d5a51981519" target="_top" xlink:title="TIFFWriteData">
<polygon fill="white" stroke="black" points="286.31,-116 286.31,-136 367.69,-136 367.69,-116 286.31,-116"/>
<text text-anchor="middle" x="327" y="-122" font-family="Helvetica,sans-Serif" font-size="10.00">TIFFWriteData</text>
</a>
</g>
</g>
<!-- Node6&#45;&gt;Node7 -->
<g id="edge6" class="edge"><title>Node6&#45;&gt;Node7</title>
<path fill="none" stroke="midnightblue" d="M230.221,-154.957C246.321,-150.089 265.852,-144.184 283.067,-138.98"/>
<polygon fill="midnightblue" stroke="midnightblue" points="284.333,-142.254 292.892,-136.009 282.307,-135.553 284.333,-142.254"/>
</g>
<!-- Node8 -->
<g id="node8" class="node"><title>Node8</title>
<g id="a_node8"><a xlink:href="tif__swab_8c.html#af432e2c4c57173790c3ee3d6f0244871" target="_top" xlink:title="TIFFSwabArrayOfShort">
<polygon fill="white" stroke="black" points="407.766,-155 407.766,-175 528.234,-175 528.234,-155 407.766,-155"/>
<text text-anchor="middle" x="468" y="-161" font-family="Helvetica,sans-Serif" font-size="10.00">TIFFSwabArrayOfShort</text>
</a>
</g>
</g>
<!-- Node7&#45;&gt;Node8 -->
<g id="edge7" class="edge"><title>Node7&#45;&gt;Node8</title>
<path fill="none" stroke="midnightblue" d="M363.796,-136.043C381.388,-140.979 402.78,-146.982 421.518,-152.239"/>
<polygon fill="midnightblue" stroke="midnightblue" points="420.752,-155.659 431.325,-154.991 422.643,-148.919 420.752,-155.659"/>
</g>
<!-- Node9 -->
<g id="node9" class="node"><title>Node9</title>
<g id="a_node9"><a xlink:href="tif__swab_8c.html#ada2d5ffd72c625fdfe338b9ac985197f" target="_top" xlink:title="TIFFSwabArrayOfLong">
<polygon fill="white" stroke="black" points="568.594,-58 568.594,-78 687.406,-78 687.406,-58 568.594,-58"/>
<text text-anchor="middle" x="628" y="-64" font-family="Helvetica,sans-Serif" font-size="10.00">TIFFSwabArrayOfLong</text>
</a>
</g>
</g>
<!-- Node7&#45;&gt;Node9 -->
<g id="edge8" class="edge"><title>Node7&#45;&gt;Node9</title>
<path fill="none" stroke="midnightblue" d="M367.705,-118.298C418.236,-108.496 506.065,-91.4589 565.342,-79.9603"/>
<polygon fill="midnightblue" stroke="midnightblue" points="566.18,-83.3631 575.331,-78.0228 564.847,-76.4912 566.18,-83.3631"/>
</g>
<!-- Node10 -->
<g id="node10" class="node"><title>Node10</title>
<g id="a_node10"><a xlink:href="tif__swab_8c.html#a1cb63e1ce5f2a4895038fc97d9a28bcf" target="_top" xlink:title="TIFFSwabArrayOfDouble">
<polygon fill="white" stroke="black" points="403.872,-0 403.872,-20 532.128,-20 532.128,-0 403.872,-0"/>
<text text-anchor="middle" x="468" y="-6" font-family="Helvetica,sans-Serif" font-size="10.00">TIFFSwabArrayOfDouble</text>
</a>
</g>
</g>
<!-- Node7&#45;&gt;Node10 -->
<g id="edge9" class="edge"><title>Node7&#45;&gt;Node10</title>
<path fill="none" stroke="midnightblue" d="M333.185,-115.808C343.758,-96.0489 369.735,-52.4194 404,-29 406.558,-27.2514 409.282,-25.6601 412.107,-24.2123"/>
<polygon fill="midnightblue" stroke="midnightblue" points="413.695,-27.3363 421.396,-20.0602 410.838,-20.9456 413.695,-27.3363"/>
</g>
<!-- Node11 -->
<g id="node11" class="node"><title>Node11</title>
<g id="a_node11"><a xlink:href="tif__dirinfo_8c.html#a2e6382d04dbf3af83901b2f032fa98e7" target="_top" xlink:title="TIFFDataWidth">
<polygon fill="white" stroke="black" points="426.106,-39 426.106,-59 509.894,-59 509.894,-39 426.106,-39"/>
<text text-anchor="middle" x="468" y="-45" font-family="Helvetica,sans-Serif" font-size="10.00">TIFFDataWidth</text>
</a>
</g>
</g>
<!-- Node7&#45;&gt;Node11 -->
<g id="edge11" class="edge"><title>Node7&#45;&gt;Node11</title>
<path fill="none" stroke="midnightblue" d="M340.888,-115.86C355.57,-104.628 380.57,-86.4643 404,-74 411.691,-69.9086 420.202,-66.0928 428.416,-62.7354"/>
<polygon fill="midnightblue" stroke="midnightblue" points="429.835,-65.9384 437.855,-59.0157 427.268,-59.4259 429.835,-65.9384"/>
</g>
<!-- Node12 -->
<g id="node12" class="node"><title>Node12</title>
<g id="a_node12"><a xlink:href="tif__error_8c.html#a2e8b77a2d4e7b7283b55b963dd67ec31" target="_top" xlink:title="TIFFErrorExt">
<polygon fill="white" stroke="black" points="591.113,-135 591.113,-155 664.887,-155 664.887,-135 591.113,-135"/>
<text text-anchor="middle" x="628" y="-141" font-family="Helvetica,sans-Serif" font-size="10.00">TIFFErrorExt</text>
</a>
</g>
</g>
<!-- Node7&#45;&gt;Node12 -->
<g id="edge12" class="edge"><title>Node7&#45;&gt;Node12</title>
<path fill="none" stroke="midnightblue" d="M367.705,-128.523C422.852,-132.027 522.423,-138.355 580.823,-142.066"/>
<polygon fill="midnightblue" stroke="midnightblue" points="580.676,-145.563 590.878,-142.705 581.12,-138.577 580.676,-145.563"/>
</g>
<!-- Node13 -->
<g id="node13" class="node"><title>Node13</title>
<g id="a_node13"><a xlink:href="tif__dirinfo_8c.html#a30adfafbd54d531b3343751e2362dafe" target="_top" xlink:title="_TIFFFieldWithTag">
<polygon fill="white" stroke="black" points="417.769,-194 417.769,-214 518.231,-214 518.231,-194 417.769,-194"/>
<text text-anchor="middle" x="468" y="-200" font-family="Helvetica,sans-Serif" font-size="10.00">_TIFFFieldWithTag</text>
</a>
</g>
</g>
<!-- Node7&#45;&gt;Node13 -->
<g id="edge13" class="edge"><title>Node7&#45;&gt;Node13</title>
<path fill="none" stroke="midnightblue" d="M338.997,-136.381C353.072,-149.173 378.673,-170.826 404,-184 408.591,-186.388 413.519,-188.555 418.523,-190.505"/>
<polygon fill="midnightblue" stroke="midnightblue" points="417.578,-193.885 428.172,-193.989 419.955,-187.301 417.578,-193.885"/>
</g>
<!-- Node10&#45;&gt;Node9 -->
<g id="edge10" class="edge"><title>Node10&#45;&gt;Node9</title>
<path fill="none" stroke="midnightblue" d="M504.515,-20.0559C513.536,-22.7891 523.172,-25.8651 532,-29 553.22,-36.5355 576.625,-46.1284 594.894,-53.9144"/>
<polygon fill="midnightblue" stroke="midnightblue" points="593.635,-57.1827 604.204,-57.9149 596.398,-50.7512 593.635,-57.1827"/>
</g>
<!-- Node13&#45;&gt;Node4 -->
<g id="edge14" class="edge"><title>Node13&#45;&gt;Node4</title>
<path fill="none" stroke="midnightblue" d="M518.559,-209.96C534,-211.816 551.193,-213.884 567.255,-215.815"/>
<polygon fill="midnightblue" stroke="midnightblue" points="567.271,-219.343 577.617,-217.062 568.107,-212.393 567.271,-219.343"/>
</g>
<!-- Node13&#45;&gt;Node12 -->
<g id="edge15" class="edge"><title>Node13&#45;&gt;Node12</title>
<path fill="none" stroke="midnightblue" d="M502.522,-193.92C512.098,-190.889 522.509,-187.448 532,-184 553.022,-176.363 576.255,-166.845 594.483,-159.124"/>
<polygon fill="midnightblue" stroke="midnightblue" points="595.959,-162.299 603.784,-155.156 593.213,-155.86 595.959,-162.299"/>
</g>
</g>
</svg>
