<?xml version="1.0" encoding="UTF-8" standalone="no"?>
<!DOCTYPE svg PUBLIC "-//W3C//DTD SVG 1.1//EN"
 "http://www.w3.org/Graphics/SVG/1.1/DTD/svg11.dtd">
<!-- Generated by graphviz version 2.32.0 (20130916.1925)
 -->
<!-- Title: _TIFFGetFieldInfo Pages: 1 -->
<!--zoomable 232 -->
<svg id="main" version="1.1" xmlns="http://www.w3.org/2000/svg" xmlns:xlink="http://www.w3.org/1999/xlink" xml:space="preserve" onload="init(evt)">
        <defs>
                <circle id="rim" cx="0" cy="0" r="7"/>
                <circle id="rim2" cx="0" cy="0" r="3.5"/>
                <g id="zoomPlus">
                        <use xlink:href="#rim" fill="#404040">
                                <set attributeName="fill" to="#808080" begin="zoomplus.mouseover" end="zoomplus.mouseout"/>
                        </use>
                        <path d="M-4,0h8M0,-4v8" fill="none" stroke="white" stroke-width="1.5" pointer-events="none"/>
                </g>
                <g id="zoomMin">
                        <use xlink:href="#rim" fill="#404040">
                                <set attributeName="fill" to="#808080" begin="zoomminus.mouseover" end="zoomminus.mouseout"/>
                        </use>
                        <path d="M-4,0h8" fill="none" stroke="white" stroke-width="1.5" pointer-events="none"/>
                </g>
                <g id="dirArrow">
                        <path fill="none" stroke="white" stroke-width="1.5" d="M0,-3.0v7 M-2.5,-0.5L0,-3.0L2.5,-0.5"/>
                </g>
               <g id="resetDef">
                       <use xlink:href="#rim2" fill="#404040">
                               <set attributeName="fill" to="#808080" begin="reset.mouseover" end="reset.mouseout"/>
                       </use>
               </g>
        </defs>

<script type="text/javascript">
var viewWidth = 1872;
var viewHeight = 232;
var sectionId = 'dynsection-5';
</script>
<script xlink:href="svgpan.js"/>
<svg id="graph" class="graph">
<g id="viewport">
<title>_TIFFGetFieldInfo</title>
<polygon fill="white" stroke="white" points="-4,5 -4,-227.863 1869,-227.863 1869,5 -4,5"/>
<!-- Node1 -->
<g id="node1" class="node"><title>Node1</title>
<polygon fill="#bfbfbf" stroke="black" points="0.431152,-100.863 0.431152,-120.863 97.5688,-120.863 97.5688,-100.863 0.431152,-100.863"/>
<text text-anchor="middle" x="49" y="-106.863" font-family="Helvetica,sans-Serif" font-size="10.00">_TIFFGetFieldInfo</text>
</g>
<!-- Node2 -->
<g id="node2" class="node"><title>Node2</title>
<g id="a_node2"><a xlink:href="tiffiop_8h.html#abcbb0e129b454ba4b55f4f178adc9d6f" target="_top" xlink:title="TIFFDefaultDirectory">
<polygon fill="white" stroke="black" points="134.604,-100.863 134.604,-120.863 243.396,-120.863 243.396,-100.863 134.604,-100.863"/>
<text text-anchor="middle" x="189" y="-106.863" font-family="Helvetica,sans-Serif" font-size="10.00">TIFFDefaultDirectory</text>
</a>
</g>
</g>
<!-- Node1&#45;&gt;Node2 -->
<g id="edge1" class="edge"><title>Node1&#45;&gt;Node2</title>
<path fill="none" stroke="midnightblue" d="M108.045,-110.863C116.83,-110.863 125.858,-110.863 134.541,-110.863"/>
<polygon fill="midnightblue" stroke="midnightblue" points="107.878,-107.363 97.8784,-110.863 107.878,-114.363 107.878,-107.363"/>
</g>
<!-- Node3 -->
<g id="node3" class="node"><title>Node3</title>
<g id="a_node3"><a xlink:href="tiffio_8h.html#a06d307cb8d3179c1d3996783095c7c61" target="_top" xlink:title="TIFFCreateDirectory">
<polygon fill="white" stroke="black" points="280.438,-159.863 280.438,-179.863 387.562,-179.863 387.562,-159.863 280.438,-159.863"/>
<text text-anchor="middle" x="334" y="-165.863" font-family="Helvetica,sans-Serif" font-size="10.00">TIFFCreateDirectory</text>
</a>
</g>
</g>
<!-- Node2&#45;&gt;Node3 -->
<g id="edge2" class="edge"><title>Node2&#45;&gt;Node3</title>
<path fill="none" stroke="midnightblue" d="M223.744,-124.786C249.81,-135.54 285.265,-150.168 308.623,-159.806"/>
<polygon fill="midnightblue" stroke="midnightblue" points="224.837,-121.45 214.258,-120.872 222.167,-127.921 224.837,-121.45"/>
</g>
<!-- Node22 -->
<g id="node22" class="node"><title>Node22</title>
<g id="a_node22"><a xlink:href="tiffio_8h.html#a165611e0432d36de8bcf57f35e161bd3" target="_top" xlink:title="TIFFClientOpen">
<polygon fill="white" stroke="black" points="992.434,-120.863 992.434,-140.863 1079.57,-140.863 1079.57,-120.863 992.434,-120.863"/>
<text text-anchor="middle" x="1036" y="-126.863" font-family="Helvetica,sans-Serif" font-size="10.00">TIFFClientOpen</text>
</a>
</g>
</g>
<!-- Node2&#45;&gt;Node22 -->
<g id="edge33" class="edge"><title>Node2&#45;&gt;Node22</title>
<path fill="none" stroke="midnightblue" d="M253.697,-117.831C311.997,-123.603 400.695,-130.863 478,-130.863 478,-130.863 478,-130.863 791,-130.863 861.531,-130.863 943.531,-130.863 992.245,-130.863"/>
<polygon fill="midnightblue" stroke="midnightblue" points="253.833,-114.328 243.533,-116.81 253.133,-121.292 253.833,-114.328"/>
</g>
<!-- Node26 -->
<g id="node26" class="node"><title>Node26</title>
<g id="a_node26"><a xlink:href="tiffio_8h.html#ac0f7bfa0b6efc24ba7d5b3f40aea82a1" target="_top" xlink:title="TIFFUnlinkDirectory">
<polygon fill="white" stroke="black" points="281.552,-42.8633 281.552,-62.8633 386.448,-62.8633 386.448,-42.8633 281.552,-42.8633"/>
<text text-anchor="middle" x="334" y="-48.8633" font-family="Helvetica,sans-Serif" font-size="10.00">TIFFUnlinkDirectory</text>
</a>
</g>
</g>
<!-- Node2&#45;&gt;Node26 -->
<g id="edge28" class="edge"><title>Node2&#45;&gt;Node26</title>
<path fill="none" stroke="midnightblue" d="M222.7,-96.6977C239.721,-89.4157 260.91,-80.4921 280,-72.8633 288.311,-69.5422 297.41,-66.0551 305.687,-62.9395"/>
<polygon fill="midnightblue" stroke="midnightblue" points="221.016,-93.6119 213.208,-100.773 223.777,-100.044 221.016,-93.6119"/>
</g>
<!-- Node27 -->
<g id="node27" class="node"><title>Node27</title>
<g id="a_node27"><a xlink:href="tiffio_8h.html#ab5f774a4a20c860a3d28a42e8b7166b4" target="_top" xlink:title="TIFFReadDirectory">
<polygon fill="white" stroke="black" points="283.493,-81.8633 283.493,-101.863 384.507,-101.863 384.507,-81.8633 283.493,-81.8633"/>
<text text-anchor="middle" x="334" y="-87.8633" font-family="Helvetica,sans-Serif" font-size="10.00">TIFFReadDirectory</text>
</a>
</g>
</g>
<!-- Node2&#45;&gt;Node27 -->
<g id="edge29" class="edge"><title>Node2&#45;&gt;Node27</title>
<path fill="none" stroke="midnightblue" d="M253.843,-102.381C263.719,-101.068 273.791,-99.7301 283.296,-98.4673"/>
<polygon fill="midnightblue" stroke="midnightblue" points="253.107,-98.9476 243.655,-103.734 254.029,-105.887 253.107,-98.9476"/>
</g>
<!-- Node4 -->
<g id="node4" class="node"><title>Node4</title>
<g id="a_node4"><a xlink:href="tif__dirwrite_8c.html#a99ebbf4b3b0fd87a64d558757cf03635" target="_top" xlink:title="_TIFFWriteDirectory">
<polygon fill="white" stroke="black" points="426.088,-159.863 426.088,-179.863 531.912,-179.863 531.912,-159.863 426.088,-159.863"/>
<text text-anchor="middle" x="479" y="-165.863" font-family="Helvetica,sans-Serif" font-size="10.00">_TIFFWriteDirectory</text>
</a>
</g>
</g>
<!-- Node3&#45;&gt;Node4 -->
<g id="edge3" class="edge"><title>Node3&#45;&gt;Node4</title>
<path fill="none" stroke="midnightblue" d="M397.872,-169.863C407.216,-169.863 416.76,-169.863 425.852,-169.863"/>
<polygon fill="midnightblue" stroke="midnightblue" points="397.842,-166.363 387.842,-169.863 397.842,-173.363 397.842,-166.363"/>
</g>
<!-- Node5 -->
<g id="node5" class="node"><title>Node5</title>
<g id="a_node5"><a xlink:href="tiffio_8h.html#a81556034d0f25ab8e5a780a20a2754af" target="_top" xlink:title="TIFFWriteDirectory">
<polygon fill="white" stroke="black" points="583.869,-198.863 583.869,-218.863 684.131,-218.863 684.131,-198.863 583.869,-198.863"/>
<text text-anchor="middle" x="634" y="-204.863" font-family="Helvetica,sans-Serif" font-size="10.00">TIFFWriteDirectory</text>
</a>
</g>
</g>
<!-- Node4&#45;&gt;Node5 -->
<g id="edge4" class="edge"><title>Node4&#45;&gt;Node5</title>
<path fill="none" stroke="midnightblue" d="M529.351,-182.443C550.192,-187.755 574.121,-193.855 593.732,-198.854"/>
<polygon fill="midnightblue" stroke="midnightblue" points="529.956,-178.985 519.401,-179.907 528.227,-185.768 529.956,-178.985"/>
</g>
<!-- Node25 -->
<g id="node25" class="node"><title>Node25</title>
<g id="a_node25"><a xlink:href="tiffio_8h.html#abb5ff4e7abc98286d574600a9a8d0b5f" target="_top" xlink:title="TIFFCheckpointDirectory">
<polygon fill="white" stroke="black" points="570.431,-159.863 570.431,-179.863 697.569,-179.863 697.569,-159.863 570.431,-159.863"/>
<text text-anchor="middle" x="634" y="-165.863" font-family="Helvetica,sans-Serif" font-size="10.00">TIFFCheckpointDirectory</text>
</a>
</g>
</g>
<!-- Node4&#45;&gt;Node25 -->
<g id="edge27" class="edge"><title>Node4&#45;&gt;Node25</title>
<path fill="none" stroke="midnightblue" d="M542.416,-169.863C551.572,-169.863 561.007,-169.863 570.171,-169.863"/>
<polygon fill="midnightblue" stroke="midnightblue" points="542.226,-166.363 532.226,-169.863 542.226,-173.363 542.226,-166.363"/>
</g>
<!-- Node6 -->
<g id="node6" class="node"><title>Node6</title>
<g id="a_node6"><a xlink:href="tiffio_8h.html#a030e9a2ded6444dde1fd9b8164664b8c" target="_top" xlink:title="TIFFRewriteDirectory">
<polygon fill="white" stroke="black" points="734.498,-198.863 734.498,-218.863 845.502,-218.863 845.502,-198.863 734.498,-198.863"/>
<text text-anchor="middle" x="790" y="-204.863" font-family="Helvetica,sans-Serif" font-size="10.00">TIFFRewriteDirectory</text>
</a>
</g>
</g>
<!-- Node5&#45;&gt;Node6 -->
<g id="edge5" class="edge"><title>Node5&#45;&gt;Node6</title>
<path fill="none" stroke="midnightblue" d="M694.505,-208.863C707.647,-208.863 721.508,-208.863 734.443,-208.863"/>
<polygon fill="midnightblue" stroke="midnightblue" points="694.15,-205.363 684.15,-208.863 694.15,-212.363 694.15,-205.363"/>
</g>
<!-- Node7 -->
<g id="node7" class="node"><title>Node7</title>
<g id="a_node7"><a xlink:href="tiffio_8h.html#aca3453296ad6a9dc3cbbead4e1bc2792" target="_top" xlink:title="TIFFFlush">
<polygon fill="white" stroke="black" points="759.222,-159.863 759.222,-179.863 820.778,-179.863 820.778,-159.863 759.222,-159.863"/>
<text text-anchor="middle" x="790" y="-165.863" font-family="Helvetica,sans-Serif" font-size="10.00">TIFFFlush</text>
</a>
</g>
</g>
<!-- Node5&#45;&gt;Node7 -->
<g id="edge6" class="edge"><title>Node5&#45;&gt;Node7</title>
<path fill="none" stroke="midnightblue" d="M684.55,-196.315C709.148,-190.085 738.047,-182.767 759.205,-177.409"/>
<polygon fill="midnightblue" stroke="midnightblue" points="683.494,-192.972 674.659,-198.82 685.212,-199.758 683.494,-192.972"/>
</g>
<!-- Node8 -->
<g id="node8" class="node"><title>Node8</title>
<g id="a_node8"><a xlink:href="tiffio_8h.html#aceb629aa7034d6d0304207556be3ce17" target="_top" xlink:title="TIFFCleanup">
<polygon fill="white" stroke="black" points="881.823,-159.863 881.823,-179.863 956.177,-179.863 956.177,-159.863 881.823,-159.863"/>
<text text-anchor="middle" x="919" y="-165.863" font-family="Helvetica,sans-Serif" font-size="10.00">TIFFCleanup</text>
</a>
</g>
</g>
<!-- Node7&#45;&gt;Node8 -->
<g id="edge7" class="edge"><title>Node7&#45;&gt;Node8</title>
<path fill="none" stroke="midnightblue" d="M831.345,-169.863C847.53,-169.863 866.041,-169.863 881.787,-169.863"/>
<polygon fill="midnightblue" stroke="midnightblue" points="831.097,-166.363 821.097,-169.863 831.097,-173.363 831.097,-166.363"/>
</g>
<!-- Node9 -->
<g id="node9" class="node"><title>Node9</title>
<g id="a_node9"><a xlink:href="tiffio_8h.html#a3fefdfb6b9f9316edb732a85934efd90" target="_top" xlink:title="TIFFClose">
<polygon fill="white" stroke="black" points="1121.67,-159.863 1121.67,-179.863 1184.33,-179.863 1184.33,-159.863 1121.67,-159.863"/>
<text text-anchor="middle" x="1153" y="-165.863" font-family="Helvetica,sans-Serif" font-size="10.00">TIFFClose</text>
</a>
</g>
</g>
<!-- Node8&#45;&gt;Node9 -->
<g id="edge8" class="edge"><title>Node8&#45;&gt;Node9</title>
<path fill="none" stroke="midnightblue" d="M966.294,-169.863C1012.43,-169.863 1081.96,-169.863 1121.55,-169.863"/>
<polygon fill="midnightblue" stroke="midnightblue" points="966.25,-166.363 956.25,-169.863 966.25,-173.363 966.25,-166.363"/>
</g>
<!-- Node8&#45;&gt;Node22 -->
<g id="edge22" class="edge"><title>Node8&#45;&gt;Node22</title>
<path fill="none" stroke="midnightblue" d="M959.244,-156.554C974.387,-151.419 991.414,-145.645 1005.49,-140.873"/>
<polygon fill="midnightblue" stroke="midnightblue" points="957.961,-153.294 949.615,-159.82 960.21,-159.923 957.961,-153.294"/>
</g>
<!-- Node10 -->
<g id="node10" class="node"><title>Node10</title>
<g id="a_node10"><a xlink:href="class_t_i_f_f_reader_internal.html#aaa46d9e82420cfadfe323b1026cac726" target="_top" xlink:title="TIFFReaderInternal\l::Clean">
<polygon fill="white" stroke="black" points="1226.37,-68.8633 1226.37,-100.863 1329.63,-100.863 1329.63,-68.8633 1226.37,-68.8633"/>
<text text-anchor="start" x="1234.37" y="-86.8633" font-family="Helvetica,sans-Serif" font-size="10.00">TIFFReaderInternal</text>
<text text-anchor="middle" x="1278" y="-74.8633" font-family="Helvetica,sans-Serif" font-size="10.00">::Clean</text>
</a>
</g>
</g>
<!-- Node9&#45;&gt;Node10 -->
<g id="edge9" class="edge"><title>Node9&#45;&gt;Node10</title>
<path fill="none" stroke="midnightblue" d="M1183.58,-154.419C1185.81,-152.96 1187.97,-151.435 1190,-149.863 1208.38,-135.604 1207.47,-125.936 1226,-111.863 1231.19,-107.924 1237.03,-104.245 1242.85,-100.947"/>
<polygon fill="midnightblue" stroke="midnightblue" points="1181.61,-151.518 1174.87,-159.685 1185.23,-157.509 1181.61,-151.518"/>
</g>
<!-- Node17 -->
<g id="node17" class="node"><title>Node17</title>
<g id="a_node17"><a xlink:href="classrc_window.html#adf6ca47beb76a8bfdc73369f80dd003d" target="_top" xlink:title="rcWindow::tiff">
<polygon fill="white" stroke="black" points="1401.08,-164.863 1401.08,-184.863 1476.92,-184.863 1476.92,-164.863 1401.08,-164.863"/>
<text text-anchor="middle" x="1439" y="-170.863" font-family="Helvetica,sans-Serif" font-size="10.00">rcWindow::tiff</text>
</a>
</g>
</g>
<!-- Node9&#45;&gt;Node17 -->
<g id="edge17" class="edge"><title>Node9&#45;&gt;Node17</title>
<path fill="none" stroke="midnightblue" d="M1194.48,-170.576C1249.55,-171.545 1347.3,-173.266 1400.67,-174.206"/>
<polygon fill="midnightblue" stroke="midnightblue" points="1194.45,-167.075 1184.39,-170.398 1194.33,-174.074 1194.45,-167.075"/>
</g>
<!-- Node11 -->
<g id="node11" class="node"><title>Node11</title>
<g id="a_node11"><a xlink:href="class_t_i_f_f_reader_internal.html#a37acb14f97aa8a07dd8875ed13bc21ba" target="_top" xlink:title="TIFFReaderInternal\l::TIFFReaderInternal">
<polygon fill="white" stroke="black" points="1384.59,-23.8633 1384.59,-55.8633 1493.41,-55.8633 1493.41,-23.8633 1384.59,-23.8633"/>
<text text-anchor="start" x="1392.59" y="-41.8633" font-family="Helvetica,sans-Serif" font-size="10.00">TIFFReaderInternal</text>
<text text-anchor="middle" x="1439" y="-29.8633" font-family="Helvetica,sans-Serif" font-size="10.00">::TIFFReaderInternal</text>
</a>
</g>
</g>
<!-- Node10&#45;&gt;Node11 -->
<g id="edge10" class="edge"><title>Node10&#45;&gt;Node11</title>
<path fill="none" stroke="midnightblue" d="M1339.76,-67.6671C1354.47,-63.5031 1370.09,-59.0821 1384.45,-55.0198"/>
<polygon fill="midnightblue" stroke="midnightblue" points="1338.41,-64.4102 1329.75,-70.5013 1340.32,-71.1457 1338.41,-64.4102"/>
</g>
<!-- Node12 -->
<g id="node12" class="node"><title>Node12</title>
<g id="a_node12"><a xlink:href="class_t_i_f_f_reader_internal.html#adc7888a9bc3fe28248b49b8b204ae8ae" target="_top" xlink:title="TIFFReaderInternal\l::Open">
<polygon fill="white" stroke="black" points="1387.37,-113.863 1387.37,-145.863 1490.63,-145.863 1490.63,-113.863 1387.37,-113.863"/>
<text text-anchor="start" x="1395.37" y="-131.863" font-family="Helvetica,sans-Serif" font-size="10.00">TIFFReaderInternal</text>
<text text-anchor="middle" x="1439" y="-119.863" font-family="Helvetica,sans-Serif" font-size="10.00">::Open</text>
</a>
</g>
</g>
<!-- Node10&#45;&gt;Node12 -->
<g id="edge11" class="edge"><title>Node10&#45;&gt;Node12</title>
<path fill="none" stroke="midnightblue" d="M1339.4,-101.957C1355.16,-106.417 1371.98,-111.179 1387.19,-115.483"/>
<polygon fill="midnightblue" stroke="midnightblue" points="1340.32,-98.5808 1329.75,-99.2253 1338.41,-105.316 1340.32,-98.5808"/>
</g>
<!-- Node13 -->
<g id="node13" class="node"><title>Node13</title>
<g id="a_node13"><a xlink:href="class_t_i_f_f_image_i_o.html#abec0d00f473debbd9d05f5a0e4820402" target="_top" xlink:title="TIFFImageIO::CanReadFile">
<polygon fill="white" stroke="black" points="1551.31,-21.8633 1551.31,-41.8633 1690.69,-41.8633 1690.69,-21.8633 1551.31,-21.8633"/>
<text text-anchor="middle" x="1621" y="-27.8633" font-family="Helvetica,sans-Serif" font-size="10.00">TIFFImageIO::CanReadFile</text>
</a>
</g>
</g>
<!-- Node10&#45;&gt;Node13 -->
<g id="edge16" class="edge"><title>Node10&#45;&gt;Node13</title>
<path fill="none" stroke="midnightblue" d="M1299.22,-61.3784C1315.35,-44.558 1339.56,-23.2816 1366,-13.8633 1442.42,13.3608 1539.79,-7.69177 1588.81,-21.7995"/>
<polygon fill="midnightblue" stroke="midnightblue" points="1296.63,-59.0223 1292.39,-68.7345 1301.76,-63.7824 1296.63,-59.0223"/>
</g>
<!-- Node16 -->
<g id="node16" class="node"><title>Node16</title>
<g id="a_node16"><a xlink:href="class_t_i_f_f_image_i_o.html#a3ad4dcd4aad49fe2ea0c85ce5edac4da" target="_top" xlink:title="TIFFImageIO::~TIFFImageIO">
<polygon fill="white" stroke="black" points="1365.85,-74.8633 1365.85,-94.8633 1512.15,-94.8633 1512.15,-74.8633 1365.85,-74.8633"/>
<text text-anchor="middle" x="1439" y="-80.8633" font-family="Helvetica,sans-Serif" font-size="10.00">TIFFImageIO::~TIFFImageIO</text>
</a>
</g>
</g>
<!-- Node10&#45;&gt;Node16 -->
<g id="edge15" class="edge"><title>Node10&#45;&gt;Node16</title>
<path fill="none" stroke="midnightblue" d="M1339.88,-84.8633C1348.33,-84.8633 1357.08,-84.8633 1365.71,-84.8633"/>
<polygon fill="midnightblue" stroke="midnightblue" points="1339.75,-81.3634 1329.75,-84.8633 1339.75,-88.3634 1339.75,-81.3634"/>
</g>
<!-- Node12&#45;&gt;Node13 -->
<g id="edge12" class="edge"><title>Node12&#45;&gt;Node13</title>
<path fill="none" stroke="midnightblue" d="M1498.81,-109.975C1503.33,-108.039 1507.77,-105.996 1512,-103.863 1548.42,-85.4904 1587.33,-57.1056 1607,-42.0508"/>
<polygon fill="midnightblue" stroke="midnightblue" points="1497.4,-106.769 1489.47,-113.795 1500.05,-113.248 1497.4,-106.769"/>
</g>
<!-- Node14 -->
<g id="node14" class="node"><title>Node14</title>
<g id="a_node14"><a xlink:href="classrc_engine_impl.html#ac0162da8fe4f677ad6f3d04a465d50f0" target="_top" xlink:title="rcEngineImpl::loadMovie">
<polygon fill="white" stroke="black" points="1734.25,-5.86327 1734.25,-25.8633 1859.75,-25.8633 1859.75,-5.86327 1734.25,-5.86327"/>
<text text-anchor="middle" x="1797" y="-11.8633" font-family="Helvetica,sans-Serif" font-size="10.00">rcEngineImpl::loadMovie</text>
</a>
</g>
</g>
<!-- Node13&#45;&gt;Node14 -->
<g id="edge13" class="edge"><title>Node13&#45;&gt;Node14</title>
<path fill="none" stroke="midnightblue" d="M1700.95,-24.6037C1712.11,-23.5774 1723.45,-22.5348 1734.22,-21.544"/>
<polygon fill="midnightblue" stroke="midnightblue" points="1700.41,-21.1386 1690.77,-25.5396 1701.05,-28.1092 1700.41,-21.1386"/>
</g>
<!-- Node15 -->
<g id="node15" class="node"><title>Node15</title>
<g id="a_node15"><a xlink:href="classrc_window.html#a5da06176e6878b676bbc534db6b09b7d" target="_top" xlink:title="rcWindow::rcWindow">
<polygon fill="white" stroke="black" points="1742.33,-44.8633 1742.33,-64.8633 1851.67,-64.8633 1851.67,-44.8633 1742.33,-44.8633"/>
<text text-anchor="middle" x="1797" y="-50.8633" font-family="Helvetica,sans-Serif" font-size="10.00">rcWindow::rcWindow</text>
</a>
</g>
</g>
<!-- Node13&#45;&gt;Node15 -->
<g id="edge14" class="edge"><title>Node13&#45;&gt;Node15</title>
<path fill="none" stroke="midnightblue" d="M1700.88,-42.2899C1714.86,-44.1381 1729.13,-46.0236 1742.21,-47.7533"/>
<polygon fill="midnightblue" stroke="midnightblue" points="1701.14,-38.7942 1690.77,-40.9535 1700.22,-45.7338 1701.14,-38.7942"/>
</g>
<!-- Node18 -->
<g id="node18" class="node"><title>Node18</title>
<g id="a_node18"><a xlink:href="classrc_visual_function.html#a1df64c3605f3a0a4670118911ac783b1" target="_top" xlink:title="rcVisualFunction::cardiac\lMeasure">
<polygon fill="white" stroke="black" points="1557.23,-113.863 1557.23,-145.863 1684.77,-145.863 1684.77,-113.863 1557.23,-113.863"/>
<text text-anchor="start" x="1565.23" y="-131.863" font-family="Helvetica,sans-Serif" font-size="10.00">rcVisualFunction::cardiac</text>
<text text-anchor="middle" x="1621" y="-119.863" font-family="Helvetica,sans-Serif" font-size="10.00">Measure</text>
</a>
</g>
</g>
<!-- Node17&#45;&gt;Node18 -->
<g id="edge18" class="edge"><title>Node17&#45;&gt;Node18</title>
<path fill="none" stroke="midnightblue" d="M1487.08,-163.092C1508.41,-157.762 1533.93,-151.382 1556.88,-145.644"/>
<polygon fill="midnightblue" stroke="midnightblue" points="1486.15,-159.718 1477.3,-165.539 1487.85,-166.509 1486.15,-159.718"/>
</g>
<!-- Node20 -->
<g id="node20" class="node"><title>Node20</title>
<g id="a_node20"><a xlink:href="classrc_engine_impl.html#a00ca0d227e480ddb5bd6be293b55d2c9" target="_top" xlink:title="rcEngineImpl::muscleTracker">
<polygon fill="white" stroke="black" points="1548.44,-203.863 1548.44,-223.863 1693.56,-223.863 1693.56,-203.863 1548.44,-203.863"/>
<text text-anchor="middle" x="1621" y="-209.863" font-family="Helvetica,sans-Serif" font-size="10.00">rcEngineImpl::muscleTracker</text>
</a>
</g>
</g>
<!-- Node17&#45;&gt;Node20 -->
<g id="edge20" class="edge"><title>Node17&#45;&gt;Node20</title>
<path fill="none" stroke="midnightblue" d="M1487.19,-185.088C1513.92,-190.88 1547.22,-198.095 1573.79,-203.851"/>
<polygon fill="midnightblue" stroke="midnightblue" points="1487.81,-181.641 1477.3,-182.944 1486.33,-188.482 1487.81,-181.641"/>
</g>
<!-- Node21 -->
<g id="node21" class="node"><title>Node21</title>
<g id="a_node21"><a xlink:href="rc__edge_8h.html#a11fbb1eb0376dd39a4be2ea72b7ef156" target="_top" xlink:title="rfDirectionSignal">
<polygon fill="white" stroke="black" points="1576.32,-164.863 1576.32,-184.863 1665.68,-184.863 1665.68,-164.863 1576.32,-164.863"/>
<text text-anchor="middle" x="1621" y="-170.863" font-family="Helvetica,sans-Serif" font-size="10.00">rfDirectionSignal</text>
</a>
</g>
</g>
<!-- Node17&#45;&gt;Node21 -->
<g id="edge21" class="edge"><title>Node17&#45;&gt;Node21</title>
<path fill="none" stroke="midnightblue" d="M1487.46,-174.863C1514.92,-174.863 1549.25,-174.863 1576.09,-174.863"/>
<polygon fill="midnightblue" stroke="midnightblue" points="1487.3,-171.363 1477.3,-174.863 1487.3,-178.363 1487.3,-171.363"/>
</g>
<!-- Node19 -->
<g id="node19" class="node"><title>Node19</title>
<g id="a_node19"><a xlink:href="classrc_visual_function.html#ac3135ba614a9ba5080e78c3f2f426312" target="_top" xlink:title="rcVisualFunction::measure">
<polygon fill="white" stroke="black" points="1729.9,-119.863 1729.9,-139.863 1864.1,-139.863 1864.1,-119.863 1729.9,-119.863"/>
<text text-anchor="middle" x="1797" y="-125.863" font-family="Helvetica,sans-Serif" font-size="10.00">rcVisualFunction::measure</text>
</a>
</g>
</g>
<!-- Node18&#45;&gt;Node19 -->
<g id="edge19" class="edge"><title>Node18&#45;&gt;Node19</title>
<path fill="none" stroke="midnightblue" d="M1694.87,-129.863C1706.44,-129.863 1718.35,-129.863 1729.75,-129.863"/>
<polygon fill="midnightblue" stroke="midnightblue" points="1694.82,-126.363 1684.82,-129.863 1694.82,-133.363 1694.82,-126.363"/>
</g>
<!-- Node23 -->
<g id="node23" class="node"><title>Node23</title>
<g id="a_node23"><a xlink:href="tiffio_8h.html#adca230876d2f7fdec1ff6c7fdb7898a8" target="_top" xlink:title="TIFFFdOpen">
<polygon fill="white" stroke="black" points="1116.38,-120.863 1116.38,-140.863 1189.62,-140.863 1189.62,-120.863 1116.38,-120.863"/>
<text text-anchor="middle" x="1153" y="-126.863" font-family="Helvetica,sans-Serif" font-size="10.00">TIFFFdOpen</text>
</a>
</g>
</g>
<!-- Node22&#45;&gt;Node23 -->
<g id="edge23" class="edge"><title>Node22&#45;&gt;Node23</title>
<path fill="none" stroke="midnightblue" d="M1089.83,-130.863C1098.79,-130.863 1107.9,-130.863 1116.29,-130.863"/>
<polygon fill="midnightblue" stroke="midnightblue" points="1089.82,-127.363 1079.82,-130.863 1089.82,-134.363 1089.82,-127.363"/>
</g>
<!-- Node24 -->
<g id="node24" class="node"><title>Node24</title>
<g id="a_node24"><a xlink:href="tiffio_8h.html#ac3dd18826e617eb451c74f33a32fcb10" target="_top" xlink:title="TIFFOpen">
<polygon fill="white" stroke="black" points="1247.22,-120.863 1247.22,-140.863 1308.78,-140.863 1308.78,-120.863 1247.22,-120.863"/>
<text text-anchor="middle" x="1278" y="-126.863" font-family="Helvetica,sans-Serif" font-size="10.00">TIFFOpen</text>
</a>
</g>
</g>
<!-- Node23&#45;&gt;Node24 -->
<g id="edge24" class="edge"><title>Node23&#45;&gt;Node24</title>
<path fill="none" stroke="midnightblue" d="M1200,-130.863C1215.74,-130.863 1232.93,-130.863 1247.07,-130.863"/>
<polygon fill="midnightblue" stroke="midnightblue" points="1199.91,-127.363 1189.91,-130.863 1199.91,-134.363 1199.91,-127.363"/>
</g>
<!-- Node24&#45;&gt;Node12 -->
<g id="edge25" class="edge"><title>Node24&#45;&gt;Node12</title>
<path fill="none" stroke="midnightblue" d="M1318.95,-130.612C1339.67,-130.482 1365.19,-130.321 1387.28,-130.182"/>
<polygon fill="midnightblue" stroke="midnightblue" points="1318.88,-127.112 1308.91,-130.675 1318.93,-134.112 1318.88,-127.112"/>
</g>
<!-- Node24&#45;&gt;Node17 -->
<g id="edge26" class="edge"><title>Node24&#45;&gt;Node17</title>
<path fill="none" stroke="midnightblue" d="M1318.64,-141.832C1344.14,-148.889 1377.02,-157.989 1401.82,-164.85"/>
<polygon fill="midnightblue" stroke="midnightblue" points="1319.48,-138.433 1308.91,-139.139 1317.61,-145.18 1319.48,-138.433"/>
</g>
<!-- Node27&#45;&gt;Node22 -->
<g id="edge32" class="edge"><title>Node27&#45;&gt;Node22</title>
<path fill="none" stroke="midnightblue" d="M378.034,-77.633C381.51,-75.8867 384.881,-73.9659 388,-71.8633 407.56,-58.6784 402.842,-43.2937 424,-32.8633 507.658,8.37893 539.728,-13.8633 633,-13.8633 633,-13.8633 633,-13.8633 791,-13.8633 889.187,-13.8633 989.684,-91.846 1023.28,-120.48"/>
<polygon fill="midnightblue" stroke="midnightblue" points="376.356,-74.5499 368.681,-81.8534 379.236,-80.9303 376.356,-74.5499"/>
</g>
<!-- Node28 -->
<g id="node28" class="node"><title>Node28</title>
<g id="a_node28"><a xlink:href="tiffio_8h.html#a58cdb91e8e93b12c8002ade2e4072251" target="_top" xlink:title="TIFFSetDirectory">
<polygon fill="white" stroke="black" points="432.941,-42.8633 432.941,-62.8633 525.059,-62.8633 525.059,-42.8633 432.941,-42.8633"/>
<text text-anchor="middle" x="479" y="-48.8633" font-family="Helvetica,sans-Serif" font-size="10.00">TIFFSetDirectory</text>
</a>
</g>
</g>
<!-- Node27&#45;&gt;Node28 -->
<g id="edge30" class="edge"><title>Node27&#45;&gt;Node28</title>
<path fill="none" stroke="midnightblue" d="M381.658,-79.1384C401.01,-73.8605 423.136,-67.8263 441.299,-62.8727"/>
<polygon fill="midnightblue" stroke="midnightblue" points="380.553,-75.8119 371.826,-81.8198 382.395,-82.5652 380.553,-75.8119"/>
</g>
<!-- Node29 -->
<g id="node29" class="node"><title>Node29</title>
<g id="a_node29"><a xlink:href="tiffio_8h.html#a33628efcd540db4412ec3cd7761c3733" target="_top" xlink:title="TIFFSetSubDirectory">
<polygon fill="white" stroke="black" points="424.044,-81.8633 424.044,-101.863 533.956,-101.863 533.956,-81.8633 424.044,-81.8633"/>
<text text-anchor="middle" x="479" y="-87.8633" font-family="Helvetica,sans-Serif" font-size="10.00">TIFFSetSubDirectory</text>
</a>
</g>
</g>
<!-- Node27&#45;&gt;Node29 -->
<g id="edge31" class="edge"><title>Node27&#45;&gt;Node29</title>
<path fill="none" stroke="midnightblue" d="M394.82,-91.8633C404.36,-91.8633 414.185,-91.8633 423.59,-91.8633"/>
<polygon fill="midnightblue" stroke="midnightblue" points="394.613,-88.3634 384.613,-91.8633 394.613,-95.3634 394.613,-88.3634"/>
</g>
</g>
</svg>
        <g id="navigator" transform="translate(0 0)" fill="#404254">
                <rect fill="#f2f5e9" fill-opacity="0.5" stroke="#606060" stroke-width=".5" x="0" y="0" width="60" height="60"/>
                <use id="zoomplus" xlink:href="#zoomPlus" x="17" y="9" onmousedown="handleZoom(evt,'in')"/>
                <use id="zoomminus" xlink:href="#zoomMin" x="42" y="9" onmousedown="handleZoom(evt,'out')"/>
                <use id="reset" xlink:href="#resetDef" x="30" y="36" onmousedown="handleReset()"/>
                <g id="arrowUp" xlink:href="#dirArrow" transform="translate(30 24)" onmousedown="handlePan(0,-1)">
                  <use xlink:href="#rim" fill="#404040">
                        <set attributeName="fill" to="#808080" begin="arrowUp.mouseover" end="arrowUp.mouseout"/>
                  </use>
                  <path fill="none" stroke="white" stroke-width="1.5" d="M0,-3.0v7 M-2.5,-0.5L0,-3.0L2.5,-0.5"/>
                </g>
                <g id="arrowRight" xlink:href="#dirArrow" transform="rotate(90) translate(36 -43)" onmousedown="handlePan(1,0)">
                  <use xlink:href="#rim" fill="#404040">
                        <set attributeName="fill" to="#808080" begin="arrowRight.mouseover" end="arrowRight.mouseout"/>
                  </use>
                  <path fill="none" stroke="white" stroke-width="1.5" d="M0,-3.0v7 M-2.5,-0.5L0,-3.0L2.5,-0.5"/>
                </g>
                <g id="arrowDown" xlink:href="#dirArrow" transform="rotate(180) translate(-30 -48)" onmousedown="handlePan(0,1)">
                  <use xlink:href="#rim" fill="#404040">
                        <set attributeName="fill" to="#808080" begin="arrowDown.mouseover" end="arrowDown.mouseout"/>
                  </use>
                  <path fill="none" stroke="white" stroke-width="1.5" d="M0,-3.0v7 M-2.5,-0.5L0,-3.0L2.5,-0.5"/>
                </g>
                <g id="arrowLeft" xlink:href="#dirArrow" transform="rotate(270) translate(-36 17)" onmousedown="handlePan(-1,0)">
                  <use xlink:href="#rim" fill="#404040">
                        <set attributeName="fill" to="#808080" begin="arrowLeft.mouseover" end="arrowLeft.mouseout"/>
                  </use>
                  <path fill="none" stroke="white" stroke-width="1.5" d="M0,-3.0v7 M-2.5,-0.5L0,-3.0L2.5,-0.5"/>
                </g>
        </g>
        <svg viewBox="0 0 15 15" width="100%" height="30px" preserveAspectRatio="xMaxYMin meet">
         <g id="arrow_out" transform="scale(0.3 0.3)">
          <a xlink:href="tif__dir_8h_aec98c8a03c6bfb9165d68be67a2125fc_icgraph_org.svg" target="_base">
           <rect id="button" ry="5" rx="5" y="6" x="6" height="38" width="38"
                fill="#f2f5e9" fill-opacity="0.5" stroke="#606060" stroke-width="1.0"/>
           <path id="arrow"
             d="M 11.500037,31.436501 C 11.940474,20.09759 22.043105,11.32322 32.158766,21.979434 L 37.068811,17.246167 C 37.068811,17.246167 37.088388,32 37.088388,32 L 22.160133,31.978069 C 22.160133,31.978069 26.997745,27.140456 26.997745,27.140456 C 18.528582,18.264221 13.291696,25.230495 11.500037,31.436501 z"
             style="fill:#404040;"/>
          </a>
         </g>
        </svg>
</svg>
