<?xml version="1.0" encoding="UTF-8" standalone="no"?>
<!DOCTYPE svg PUBLIC "-//W3C//DTD SVG 1.1//EN"
 "http://www.w3.org/Graphics/SVG/1.1/DTD/svg11.dtd">
<!-- Generated by graphviz version 2.32.0 (20130916.1925)
 -->
<!-- Title: EstimateStripByteCounts Pages: 1 -->
<svg width="490pt" height="222pt"
 viewBox="0.00 0.00 490.00 222.00" xmlns="http://www.w3.org/2000/svg" xmlns:xlink="http://www.w3.org/1999/xlink">
<g id="graph0" class="graph" transform="scale(1 1) rotate(0) translate(4 218)">
<title>EstimateStripByteCounts</title>
<polygon fill="white" stroke="white" points="-4,5 -4,-218 487,-218 487,5 -4,5"/>
<!-- Node1 -->
<g id="node1" class="node"><title>Node1</title>
<polygon fill="#bfbfbf" stroke="black" points="0.421387,-78 0.421387,-98 127.579,-98 127.579,-78 0.421387,-78"/>
<text text-anchor="middle" x="64" y="-84" font-family="Helvetica,sans-Serif" font-size="10.00">EstimateStripByteCounts</text>
</g>
<!-- Node2 -->
<g id="node2" class="node"><title>Node2</title>
<g id="a_node2"><a xlink:href="tif__aux_8c.html#a96a072a0d1fd5779a76f5f2e13953e2a" target="_top" xlink:title="_TIFFCheckMalloc">
<polygon fill="white" stroke="black" points="164.047,-156 164.047,-176 263.953,-176 263.953,-156 164.047,-156"/>
<text text-anchor="middle" x="214" y="-162" font-family="Helvetica,sans-Serif" font-size="10.00">_TIFFCheckMalloc</text>
</a>
</g>
</g>
<!-- Node1&#45;&gt;Node2 -->
<g id="edge1" class="edge"><title>Node1&#45;&gt;Node2</title>
<path fill="none" stroke="midnightblue" d="M83.5532,-98.0735C103.403,-108.818 135.838,-126.279 164,-141 170.369,-144.329 177.227,-147.861 183.737,-151.189"/>
<polygon fill="midnightblue" stroke="midnightblue" points="182.429,-154.451 192.928,-155.872 185.607,-148.214 182.429,-154.451"/>
</g>
<!-- Node4 -->
<g id="node4" class="node"><title>Node4</title>
<g id="a_node4"><a xlink:href="tif__error_8c.html#a2e8b77a2d4e7b7283b55b963dd67ec31" target="_top" xlink:title="TIFFErrorExt">
<polygon fill="white" stroke="black" points="408.113,-117 408.113,-137 481.887,-137 481.887,-117 408.113,-117"/>
<text text-anchor="middle" x="445" y="-123" font-family="Helvetica,sans-Serif" font-size="10.00">TIFFErrorExt</text>
</a>
</g>
</g>
<!-- Node1&#45;&gt;Node4 -->
<g id="edge6" class="edge"><title>Node1&#45;&gt;Node4</title>
<path fill="none" stroke="midnightblue" d="M111.152,-98.0311C127.746,-101.326 146.648,-104.723 164,-107 245.938,-117.751 342.179,-123.034 397.823,-125.377"/>
<polygon fill="midnightblue" stroke="midnightblue" points="397.927,-128.884 408.061,-125.793 398.212,-121.889 397.927,-128.884"/>
</g>
<!-- Node5 -->
<g id="node5" class="node"><title>Node5</title>
<g id="a_node5"><a xlink:href="tif__apple_8c.html#adcb814cdc66530ea86553b6840c19819" target="_top" xlink:title="_TIFFfree">
<polygon fill="white" stroke="black" points="184.052,-78 184.052,-98 243.948,-98 243.948,-78 184.052,-78"/>
<text text-anchor="middle" x="214" y="-84" font-family="Helvetica,sans-Serif" font-size="10.00">_TIFFfree</text>
</a>
</g>
</g>
<!-- Node1&#45;&gt;Node5 -->
<g id="edge4" class="edge"><title>Node1&#45;&gt;Node5</title>
<path fill="none" stroke="midnightblue" d="M127.765,-88C143.335,-88 159.584,-88 173.668,-88"/>
<polygon fill="midnightblue" stroke="midnightblue" points="173.97,-91.5001 183.97,-88 173.97,-84.5001 173.97,-91.5001"/>
</g>
<!-- Node6 -->
<g id="node6" class="node"><title>Node6</title>
<g id="a_node6"><a xlink:href="tif__dirinfo_8c.html#a2e6382d04dbf3af83901b2f032fa98e7" target="_top" xlink:title="TIFFDataWidth">
<polygon fill="white" stroke="black" points="172.106,-39 172.106,-59 255.894,-59 255.894,-39 172.106,-39"/>
<text text-anchor="middle" x="214" y="-45" font-family="Helvetica,sans-Serif" font-size="10.00">TIFFDataWidth</text>
</a>
</g>
</g>
<!-- Node1&#45;&gt;Node6 -->
<g id="edge5" class="edge"><title>Node1&#45;&gt;Node6</title>
<path fill="none" stroke="midnightblue" d="M103.114,-77.9565C122.017,-72.9753 145.043,-66.9077 165.124,-61.6161"/>
<polygon fill="midnightblue" stroke="midnightblue" points="166.237,-64.9421 175.015,-59.0094 164.454,-58.1732 166.237,-64.9421"/>
</g>
<!-- Node7 -->
<g id="node7" class="node"><title>Node7</title>
<g id="a_node7"><a xlink:href="tif__strip_8c.html#aef36f27f4a6a728488375ff085268850" target="_top" xlink:title="TIFFScanlineSize">
<polygon fill="white" stroke="black" points="166.542,-0 166.542,-20 261.458,-20 261.458,-0 166.542,-0"/>
<text text-anchor="middle" x="214" y="-6" font-family="Helvetica,sans-Serif" font-size="10.00">TIFFScanlineSize</text>
</a>
</g>
</g>
<!-- Node1&#45;&gt;Node7 -->
<g id="edge7" class="edge"><title>Node1&#45;&gt;Node7</title>
<path fill="none" stroke="midnightblue" d="M79.9906,-77.9835C99.0101,-65.5316 133.067,-44.0828 164,-29 167.588,-27.2505 171.381,-25.5441 175.203,-23.9171"/>
<polygon fill="midnightblue" stroke="midnightblue" points="176.73,-27.0744 184.668,-20.0571 174.087,-20.5927 176.73,-27.0744"/>
</g>
<!-- Node3 -->
<g id="node3" class="node"><title>Node3</title>
<g id="a_node3"><a xlink:href="tif__apple_8c.html#aaa739de67506b8254e9d150190425b4f" target="_top" xlink:title="_TIFFmalloc">
<polygon fill="white" stroke="black" points="300.219,-194 300.219,-214 371.781,-214 371.781,-194 300.219,-194"/>
<text text-anchor="middle" x="336" y="-200" font-family="Helvetica,sans-Serif" font-size="10.00">_TIFFmalloc</text>
</a>
</g>
</g>
<!-- Node2&#45;&gt;Node3 -->
<g id="edge2" class="edge"><title>Node2&#45;&gt;Node3</title>
<path fill="none" stroke="midnightblue" d="M246.843,-176.084C261.082,-180.593 278.058,-185.968 293.294,-190.793"/>
<polygon fill="midnightblue" stroke="midnightblue" points="292.418,-194.187 303.008,-193.869 294.532,-187.514 292.418,-194.187"/>
</g>
<!-- Node2&#45;&gt;Node4 -->
<g id="edge3" class="edge"><title>Node2&#45;&gt;Node4</title>
<path fill="none" stroke="midnightblue" d="M264.219,-158.604C295.196,-153.84 335.988,-147.366 372,-141 380.382,-139.518 389.296,-137.856 397.892,-136.208"/>
<polygon fill="midnightblue" stroke="midnightblue" points="398.634,-139.629 407.786,-134.292 397.303,-132.757 398.634,-139.629"/>
</g>
<!-- Node8 -->
<g id="node8" class="node"><title>Node8</title>
<g id="a_node8"><a xlink:href="tif__strip_8c.html#a3d2583ed5901992de25556d454e42054" target="_top" xlink:title="multiply">
<polygon fill="white" stroke="black" points="311.052,-39 311.052,-59 360.948,-59 360.948,-39 311.052,-39"/>
<text text-anchor="middle" x="336" y="-45" font-family="Helvetica,sans-Serif" font-size="10.00">multiply</text>
</a>
</g>
</g>
<!-- Node7&#45;&gt;Node8 -->
<g id="edge8" class="edge"><title>Node7&#45;&gt;Node8</title>
<path fill="none" stroke="midnightblue" d="M245.903,-20.0435C262.854,-25.5525 283.893,-32.3901 301.269,-38.0374"/>
<polygon fill="midnightblue" stroke="midnightblue" points="300.426,-41.4436 311.018,-41.2059 302.59,-34.7863 300.426,-41.4436"/>
</g>
<!-- Node8&#45;&gt;Node4 -->
<g id="edge9" class="edge"><title>Node8&#45;&gt;Node4</title>
<path fill="none" stroke="midnightblue" d="M350.988,-59.1971C369.012,-72.3356 400.552,-95.3277 421.85,-110.853"/>
<polygon fill="midnightblue" stroke="midnightblue" points="419.866,-113.738 430.008,-116.8 423.989,-108.081 419.866,-113.738"/>
</g>
</g>
</svg>
