<?xml version="1.0" encoding="UTF-8" standalone="no"?>
<!DOCTYPE svg PUBLIC "-//W3C//DTD SVG 1.1//EN"
 "http://www.w3.org/Graphics/SVG/1.1/DTD/svg11.dtd">
<!-- Generated by graphviz version 2.32.0 (20130916.1925)
 -->
<!-- Title: _TIFFSwab64BitData Pages: 1 -->
<svg width="440pt" height="28pt"
 viewBox="0.00 0.00 440.00 28.00" xmlns="http://www.w3.org/2000/svg" xmlns:xlink="http://www.w3.org/1999/xlink">
<g id="graph0" class="graph" transform="scale(1 1) rotate(0) translate(4 24)">
<title>_TIFFSwab64BitData</title>
<polygon fill="white" stroke="white" points="-4,5 -4,-24 437,-24 437,5 -4,5"/>
<!-- Node1 -->
<g id="node1" class="node"><title>Node1</title>
<polygon fill="#bfbfbf" stroke="black" points="0.202148,-0 0.202148,-20 111.798,-20 111.798,-0 0.202148,-0"/>
<text text-anchor="middle" x="56" y="-6" font-family="Helvetica,sans-Serif" font-size="10.00">_TIFFSwab64BitData</text>
</g>
<!-- Node2 -->
<g id="node2" class="node"><title>Node2</title>
<g id="a_node2"><a xlink:href="tif__swab_8c.html#a1cb63e1ce5f2a4895038fc97d9a28bcf" target="_top" xlink:title="TIFFSwabArrayOfDouble">
<polygon fill="white" stroke="black" points="147.872,-0 147.872,-20 276.128,-20 276.128,-0 147.872,-0"/>
<text text-anchor="middle" x="212" y="-6" font-family="Helvetica,sans-Serif" font-size="10.00">TIFFSwabArrayOfDouble</text>
</a>
</g>
</g>
<!-- Node1&#45;&gt;Node2 -->
<g id="edge1" class="edge"><title>Node1&#45;&gt;Node2</title>
<path fill="none" stroke="midnightblue" d="M112.163,-10C120.475,-10 129.157,-10 137.777,-10"/>
<polygon fill="midnightblue" stroke="midnightblue" points="137.84,-13.5001 147.84,-10 137.84,-6.5001 137.84,-13.5001"/>
</g>
<!-- Node3 -->
<g id="node3" class="node"><title>Node3</title>
<g id="a_node3"><a xlink:href="tif__swab_8c.html#ada2d5ffd72c625fdfe338b9ac985197f" target="_top" xlink:title="TIFFSwabArrayOfLong">
<polygon fill="white" stroke="black" points="312.594,-0 312.594,-20 431.406,-20 431.406,-0 312.594,-0"/>
<text text-anchor="middle" x="372" y="-6" font-family="Helvetica,sans-Serif" font-size="10.00">TIFFSwabArrayOfLong</text>
</a>
</g>
</g>
<!-- Node2&#45;&gt;Node3 -->
<g id="edge2" class="edge"><title>Node2&#45;&gt;Node3</title>
<path fill="none" stroke="midnightblue" d="M276.354,-10C284.932,-10 293.765,-10 302.428,-10"/>
<polygon fill="midnightblue" stroke="midnightblue" points="302.495,-13.5001 312.495,-10 302.495,-6.5001 302.495,-13.5001"/>
</g>
</g>
</svg>
