<?xml version="1.0" encoding="UTF-8" standalone="no"?>
<!DOCTYPE svg PUBLIC "-//W3C//DTD SVG 1.1//EN"
 "http://www.w3.org/Graphics/SVG/1.1/DTD/svg11.dtd">
<!-- Generated by graphviz version 2.32.0 (20130916.1925)
 -->
<!-- Title: _tiffCloseProc Pages: 1 -->
<svg width="266pt" height="28pt"
 viewBox="0.00 0.00 266.00 28.00" xmlns="http://www.w3.org/2000/svg" xmlns:xlink="http://www.w3.org/1999/xlink">
<g id="graph0" class="graph" transform="scale(1 1) rotate(0) translate(4 24)">
<title>_tiffCloseProc</title>
<polygon fill="white" stroke="white" points="-4,5 -4,-24 263,-24 263,5 -4,5"/>
<!-- Node1 -->
<g id="node1" class="node"><title>Node1</title>
<polygon fill="#bfbfbf" stroke="black" points="-0.0351562,-0 -0.0351562,-20 78.0352,-20 78.0352,-0 -0.0351562,-0"/>
<text text-anchor="middle" x="39" y="-6" font-family="Helvetica,sans-Serif" font-size="10.00">_tiffCloseProc</text>
</g>
<!-- Node2 -->
<g id="node2" class="node"><title>Node2</title>
<g id="a_node2"><a xlink:href="textio_8cpp.html#acf3fee36b85acdf7fae42a766218d233" target="_top" xlink:title="close">
<polygon fill="white" stroke="black" points="114.328,-0 114.328,-20 153.672,-20 153.672,-0 114.328,-0"/>
<text text-anchor="middle" x="134" y="-6" font-family="Helvetica,sans-Serif" font-size="10.00">close</text>
</a>
</g>
</g>
<!-- Node1&#45;&gt;Node2 -->
<g id="edge1" class="edge"><title>Node1&#45;&gt;Node2</title>
<path fill="none" stroke="midnightblue" d="M78.095,-10C86.7449,-10 95.7962,-10 103.997,-10"/>
<polygon fill="midnightblue" stroke="midnightblue" points="104.184,-13.5001 114.184,-10 104.184,-6.5001 104.184,-13.5001"/>
</g>
<!-- Node3 -->
<g id="node3" class="node"><title>Node3</title>
<g id="a_node3"><a xlink:href="classotext.html#ab8cc31aaff71191e9cb95a5330a7bc5f" target="_top" xlink:title="otext::close">
<polygon fill="white" stroke="black" points="190.709,-0 190.709,-20 257.291,-20 257.291,-0 190.709,-0"/>
<text text-anchor="middle" x="224" y="-6" font-family="Helvetica,sans-Serif" font-size="10.00">otext::close</text>
</a>
</g>
</g>
<!-- Node2&#45;&gt;Node3 -->
<g id="edge2" class="edge"><title>Node2&#45;&gt;Node3</title>
<path fill="none" stroke="midnightblue" d="M154.095,-10C161.807,-10 171.043,-10 180.208,-10"/>
<polygon fill="midnightblue" stroke="midnightblue" points="180.441,-13.5001 190.441,-10 180.441,-6.5001 180.441,-13.5001"/>
</g>
</g>
</svg>
