<?xml version="1.0" encoding="UTF-8" standalone="no"?>
<!DOCTYPE svg PUBLIC "-//W3C//DTD SVG 1.1//EN"
 "http://www.w3.org/Graphics/SVG/1.1/DTD/svg11.dtd">
<!-- Generated by graphviz version 2.32.0 (20130916.1925)
 -->
<!-- Title: TIFFFindCODEC Pages: 1 -->
<!--zoomable 456 -->
<svg id="main" version="1.1" xmlns="http://www.w3.org/2000/svg" xmlns:xlink="http://www.w3.org/1999/xlink" xml:space="preserve" onload="init(evt)">
        <defs>
                <circle id="rim" cx="0" cy="0" r="7"/>
                <circle id="rim2" cx="0" cy="0" r="3.5"/>
                <g id="zoomPlus">
                        <use xlink:href="#rim" fill="#404040">
                                <set attributeName="fill" to="#808080" begin="zoomplus.mouseover" end="zoomplus.mouseout"/>
                        </use>
                        <path d="M-4,0h8M0,-4v8" fill="none" stroke="white" stroke-width="1.5" pointer-events="none"/>
                </g>
                <g id="zoomMin">
                        <use xlink:href="#rim" fill="#404040">
                                <set attributeName="fill" to="#808080" begin="zoomminus.mouseover" end="zoomminus.mouseout"/>
                        </use>
                        <path d="M-4,0h8" fill="none" stroke="white" stroke-width="1.5" pointer-events="none"/>
                </g>
                <g id="dirArrow">
                        <path fill="none" stroke="white" stroke-width="1.5" d="M0,-3.0v7 M-2.5,-0.5L0,-3.0L2.5,-0.5"/>
                </g>
               <g id="resetDef">
                       <use xlink:href="#rim2" fill="#404040">
                               <set attributeName="fill" to="#808080" begin="reset.mouseover" end="reset.mouseout"/>
                       </use>
               </g>
        </defs>

<script type="text/javascript">
var viewWidth = 2638;
var viewHeight = 456;
var sectionId = 'dynsection-20';
</script>
<script xlink:href="svgpan.js"/>
<svg id="graph" class="graph">
<g id="viewport">
<title>TIFFFindCODEC</title>
<polygon fill="white" stroke="white" points="-4,5 -4,-452 2635,-452 2635,5 -4,5"/>
<!-- Node1 -->
<g id="node1" class="node"><title>Node1</title>
<polygon fill="#bfbfbf" stroke="black" points="0.665039,-253 0.665039,-273 93.335,-273 93.335,-253 0.665039,-253"/>
<text text-anchor="middle" x="47" y="-259" font-family="Helvetica,sans-Serif" font-size="10.00">TIFFFindCODEC</text>
</g>
<!-- Node2 -->
<g id="node2" class="node"><title>Node2</title>
<g id="a_node2"><a xlink:href="tif__codec_8c.html#a71b59200c896ba126951d635996d6acb" target="_top" xlink:title="_notConfigured">
<polygon fill="white" stroke="black" points="136.808,-428 136.808,-448 221.192,-448 221.192,-428 136.808,-428"/>
<text text-anchor="middle" x="179" y="-434" font-family="Helvetica,sans-Serif" font-size="10.00">_notConfigured</text>
</a>
</g>
</g>
<!-- Node1&#45;&gt;Node2 -->
<g id="edge1" class="edge"><title>Node1&#45;&gt;Node2</title>
<path fill="none" stroke="midnightblue" d="M54.5058,-282.712C65.6256,-313.828 90.9413,-374.719 130,-413 136.174,-419.051 144.109,-423.981 151.743,-427.815"/>
<polygon fill="midnightblue" stroke="midnightblue" points="57.7364,-281.344 51.1653,-273.034 51.1195,-283.628 57.7364,-281.344"/>
</g>
<!-- Node4 -->
<g id="node4" class="node"><title>Node4</title>
<g id="a_node4"><a xlink:href="tiffio_8h.html#a660ae862162b2565d451e7329c52ef0a" target="_top" xlink:title="TIFFIsCODECConfigured">
<polygon fill="white" stroke="black" points="419.042,-408 419.042,-428 548.958,-428 548.958,-408 419.042,-408"/>
<text text-anchor="middle" x="484" y="-414" font-family="Helvetica,sans-Serif" font-size="10.00">TIFFIsCODECConfigured</text>
</a>
</g>
</g>
<!-- Node1&#45;&gt;Node4 -->
<g id="edge5" class="edge"><title>Node1&#45;&gt;Node4</title>
<path fill="none" stroke="midnightblue" d="M68.689,-279.454C84.811,-291.818 108.068,-308.673 130,-321 186.572,-352.797 201.859,-360.296 264,-379 315.033,-394.36 374.685,-404.493 418.834,-410.571"/>
<polygon fill="midnightblue" stroke="midnightblue" points="70.5636,-276.478 60.5201,-273.104 66.2677,-282.005 70.5636,-276.478"/>
</g>
<!-- Node6 -->
<g id="node6" class="node"><title>Node6</title>
<g id="a_node6"><a xlink:href="tif__compress_8c.html#ab1aebdeb6ee181f773cfe548ed8a88c4" target="_top" xlink:title="TIFFNoDecode">
<polygon fill="white" stroke="black" points="136.823,-292 136.823,-312 221.177,-312 221.177,-292 136.823,-292"/>
<text text-anchor="middle" x="179" y="-298" font-family="Helvetica,sans-Serif" font-size="10.00">TIFFNoDecode</text>
</a>
</g>
</g>
<!-- Node1&#45;&gt;Node6 -->
<g id="edge6" class="edge"><title>Node1&#45;&gt;Node6</title>
<path fill="none" stroke="midnightblue" d="M91.3871,-276.016C108.746,-281.224 128.426,-287.128 144.635,-291.991"/>
<polygon fill="midnightblue" stroke="midnightblue" points="92.0622,-272.565 81.4782,-273.043 90.0508,-279.269 92.0622,-272.565"/>
</g>
<!-- Node9 -->
<g id="node9" class="node"><title>Node9</title>
<g id="a_node9"><a xlink:href="tiffiop_8h.html#a45fe74b6a22d18f1f9d00f9441b5538c" target="_top" xlink:title="TIFFSetCompressionScheme">
<polygon fill="white" stroke="black" points="594.146,-136 594.146,-156 741.854,-156 741.854,-136 594.146,-136"/>
<text text-anchor="middle" x="668" y="-142" font-family="Helvetica,sans-Serif" font-size="10.00">TIFFSetCompressionScheme</text>
</a>
</g>
</g>
<!-- Node1&#45;&gt;Node9 -->
<g id="edge57" class="edge"><title>Node1&#45;&gt;Node9</title>
<path fill="none" stroke="midnightblue" d="M67.9488,-246.752C104.234,-218.49 184.641,-161.697 264,-145 377.312,-121.159 512.546,-128.561 593.999,-136.775"/>
<polygon fill="midnightblue" stroke="midnightblue" points="65.7675,-244.015 60.0959,-252.964 70.1102,-249.505 65.7675,-244.015"/>
</g>
<!-- Node41 -->
<g id="node41" class="node"><title>Node41</title>
<g id="a_node41"><a xlink:href="tif__compress_8c.html#a782bba43c243c1893e6ed691cfe0cb2a" target="_top" xlink:title="TIFFNoEncode">
<polygon fill="white" stroke="black" points="137.099,-214 137.099,-234 220.901,-234 220.901,-214 137.099,-214"/>
<text text-anchor="middle" x="179" y="-220" font-family="Helvetica,sans-Serif" font-size="10.00">TIFFNoEncode</text>
</a>
</g>
</g>
<!-- Node1&#45;&gt;Node41 -->
<g id="edge49" class="edge"><title>Node1&#45;&gt;Node41</title>
<path fill="none" stroke="midnightblue" d="M91.3871,-249.984C108.746,-244.776 128.426,-238.872 144.635,-234.009"/>
<polygon fill="midnightblue" stroke="midnightblue" points="90.0508,-246.731 81.4782,-252.957 92.0622,-253.435 90.0508,-246.731"/>
</g>
<!-- Node45 -->
<g id="node45" class="node"><title>Node45</title>
<g id="a_node45"><a xlink:href="tiffio_8h.html#a8de66a84ca1cdf3e65bb3b6d78c90f01" target="_top" xlink:title="TIFFPrintDirectory">
<polygon fill="white" stroke="black" points="130.165,-77 130.165,-97 227.835,-97 227.835,-77 130.165,-77"/>
<text text-anchor="middle" x="179" y="-83" font-family="Helvetica,sans-Serif" font-size="10.00">TIFFPrintDirectory</text>
</a>
</g>
</g>
<!-- Node1&#45;&gt;Node45 -->
<g id="edge56" class="edge"><title>Node1&#45;&gt;Node45</title>
<path fill="none" stroke="midnightblue" d="M54.4712,-243.156C65.5433,-211.831 90.7945,-150.533 130,-112 136.165,-105.941 144.098,-101.008 151.732,-97.1743"/>
<polygon fill="midnightblue" stroke="midnightblue" points="51.0635,-242.305 51.1465,-252.899 57.6885,-244.565 51.0635,-242.305"/>
</g>
<!-- Node3 -->
<g id="node3" class="node"><title>Node3</title>
<g id="a_node3"><a xlink:href="tif__codec_8c.html#a7f64f89d3fb230bec84c0b34857b3c88" target="_top" xlink:title="NotConfigured">
<polygon fill="white" stroke="black" points="278.759,-428 278.759,-448 359.241,-448 359.241,-428 278.759,-428"/>
<text text-anchor="middle" x="319" y="-434" font-family="Helvetica,sans-Serif" font-size="10.00">NotConfigured</text>
</a>
</g>
</g>
<!-- Node2&#45;&gt;Node3 -->
<g id="edge2" class="edge"><title>Node2&#45;&gt;Node3</title>
<path fill="none" stroke="midnightblue" d="M231.42,-438C246.996,-438 263.853,-438 278.518,-438"/>
<polygon fill="midnightblue" stroke="midnightblue" points="231.405,-434.5 221.405,-438 231.405,-441.5 231.405,-434.5"/>
</g>
<!-- Node3&#45;&gt;Node4 -->
<g id="edge3" class="edge"><title>Node3&#45;&gt;Node4</title>
<path fill="none" stroke="midnightblue" d="M369.384,-431.941C384.943,-430.032 402.36,-427.894 418.794,-425.878"/>
<polygon fill="midnightblue" stroke="midnightblue" points="368.957,-428.467 359.458,-433.159 369.81,-435.415 368.957,-428.467"/>
</g>
<!-- Node5 -->
<g id="node5" class="node"><title>Node5</title>
<g id="a_node5"><a xlink:href="tiffio_8h.html#a1c3a1f3780ef1023bc843635155b1f64" target="_top" xlink:title="TIFFGetConfiguredCODECs">
<polygon fill="white" stroke="black" points="596.372,-408 596.372,-428 739.628,-428 739.628,-408 596.372,-408"/>
<text text-anchor="middle" x="668" y="-414" font-family="Helvetica,sans-Serif" font-size="10.00">TIFFGetConfiguredCODECs</text>
</a>
</g>
</g>
<!-- Node4&#45;&gt;Node5 -->
<g id="edge4" class="edge"><title>Node4&#45;&gt;Node5</title>
<path fill="none" stroke="midnightblue" d="M559.312,-418C571.53,-418 584.164,-418 596.291,-418"/>
<polygon fill="midnightblue" stroke="midnightblue" points="559.166,-414.5 549.166,-418 559.166,-421.5 559.166,-414.5"/>
</g>
<!-- Node7 -->
<g id="node7" class="node"><title>Node7</title>
<g id="a_node7"><a xlink:href="tiffiop_8h.html#ad6c1bfe31513161f665d22b633f30177" target="_top" xlink:title="_TIFFNoRowDecode">
<polygon fill="white" stroke="black" points="264.04,-350 264.04,-370 373.96,-370 373.96,-350 264.04,-350"/>
<text text-anchor="middle" x="319" y="-356" font-family="Helvetica,sans-Serif" font-size="10.00">_TIFFNoRowDecode</text>
</a>
</g>
</g>
<!-- Node6&#45;&gt;Node7 -->
<g id="edge7" class="edge"><title>Node6&#45;&gt;Node7</title>
<path fill="none" stroke="midnightblue" d="M210.533,-316.435C226.37,-323.763 246.099,-332.647 264,-340 272.323,-343.419 281.468,-346.906 289.828,-349.99"/>
<polygon fill="midnightblue" stroke="midnightblue" points="211.769,-313.149 201.226,-312.1 208.813,-319.495 211.769,-313.149"/>
</g>
<!-- Node39 -->
<g id="node39" class="node"><title>Node39</title>
<g id="a_node39"><a xlink:href="tiffiop_8h.html#abf3429946ccaee3fec577cfb31c8155a" target="_top" xlink:title="_TIFFNoStripDecode">
<polygon fill="white" stroke="black" points="263.761,-311 263.761,-331 374.239,-331 374.239,-311 263.761,-311"/>
<text text-anchor="middle" x="319" y="-317" font-family="Helvetica,sans-Serif" font-size="10.00">_TIFFNoStripDecode</text>
</a>
</g>
</g>
<!-- Node6&#45;&gt;Node39 -->
<g id="edge45" class="edge"><title>Node6&#45;&gt;Node39</title>
<path fill="none" stroke="midnightblue" d="M231.615,-309.106C242.053,-310.544 253.059,-312.059 263.59,-313.509"/>
<polygon fill="midnightblue" stroke="midnightblue" points="231.789,-305.597 221.405,-307.701 230.834,-312.532 231.789,-305.597"/>
</g>
<!-- Node40 -->
<g id="node40" class="node"><title>Node40</title>
<g id="a_node40"><a xlink:href="tiffiop_8h.html#aec0ec529cc938dad0374efb23c3194e5" target="_top" xlink:title="_TIFFNoTileDecode">
<polygon fill="white" stroke="black" points="266.168,-272 266.168,-292 371.832,-292 371.832,-272 266.168,-272"/>
<text text-anchor="middle" x="319" y="-278" font-family="Helvetica,sans-Serif" font-size="10.00">_TIFFNoTileDecode</text>
</a>
</g>
</g>
<!-- Node6&#45;&gt;Node40 -->
<g id="edge47" class="edge"><title>Node6&#45;&gt;Node40</title>
<path fill="none" stroke="midnightblue" d="M231.49,-294.538C242.715,-292.911 254.602,-291.188 265.853,-289.558"/>
<polygon fill="midnightblue" stroke="midnightblue" points="230.799,-291.101 221.405,-295.999 231.803,-298.029 230.799,-291.101"/>
</g>
<!-- Node8 -->
<g id="node8" class="node"><title>Node8</title>
<g id="a_node8"><a xlink:href="tif__open_8c.html#a7d1d89267e6f8a16da75ed4428a3c487" target="_top" xlink:title="_TIFFSetDefaultCompression\lState">
<polygon fill="white" stroke="black" points="409.865,-227 409.865,-259 558.135,-259 558.135,-227 409.865,-227"/>
<text text-anchor="start" x="417.865" y="-245" font-family="Helvetica,sans-Serif" font-size="10.00">_TIFFSetDefaultCompression</text>
<text text-anchor="middle" x="484" y="-233" font-family="Helvetica,sans-Serif" font-size="10.00">State</text>
</a>
</g>
</g>
<!-- Node7&#45;&gt;Node8 -->
<g id="edge8" class="edge"><title>Node7&#45;&gt;Node8</title>
<path fill="none" stroke="midnightblue" d="M362.518,-345.996C366.494,-344.171 370.385,-342.172 374,-340 412.001,-317.172 448.983,-280.226 468.582,-259.131"/>
<polygon fill="midnightblue" stroke="midnightblue" points="361.028,-342.825 353.172,-349.935 363.746,-349.276 361.028,-342.825"/>
</g>
<!-- Node8&#45;&gt;Node9 -->
<g id="edge9" class="edge"><title>Node8&#45;&gt;Node9</title>
<path fill="none" stroke="midnightblue" d="M524.35,-222.028C562.567,-201.66 618.952,-171.608 648.065,-156.092"/>
<polygon fill="midnightblue" stroke="midnightblue" points="522.232,-219.19 515.054,-226.982 525.525,-225.368 522.232,-219.19"/>
</g>
<!-- Node12 -->
<g id="node12" class="node"><title>Node12</title>
<g id="a_node12"><a xlink:href="tiffio_8h.html#a165611e0432d36de8bcf57f35e161bd3" target="_top" xlink:title="TIFFClientOpen">
<polygon fill="white" stroke="black" points="1758.43,-118 1758.43,-138 1845.57,-138 1845.57,-118 1758.43,-118"/>
<text text-anchor="middle" x="1802" y="-124" font-family="Helvetica,sans-Serif" font-size="10.00">TIFFClientOpen</text>
</a>
</g>
</g>
<!-- Node8&#45;&gt;Node12 -->
<g id="edge44" class="edge"><title>Node8&#45;&gt;Node12</title>
<path fill="none" stroke="midnightblue" d="M568.385,-243C636.163,-243 734.254,-243 820,-243 820,-243 820,-243 1557,-243 1654.88,-243 1755.57,-166.35 1789.24,-138.205"/>
<polygon fill="midnightblue" stroke="midnightblue" points="568.192,-239.5 558.192,-243 568.192,-246.5 568.192,-239.5"/>
</g>
<!-- Node10 -->
<g id="node10" class="node"><title>Node10</title>
<g id="a_node10"><a xlink:href="tif__dir_8c.html#ad11ea30066888dd2593ab20fc12047a8" target="_top" xlink:title="_TIFFVSetField">
<polygon fill="white" stroke="black" points="777.99,-136 777.99,-156 864.01,-156 864.01,-136 777.99,-136"/>
<text text-anchor="middle" x="821" y="-142" font-family="Helvetica,sans-Serif" font-size="10.00">_TIFFVSetField</text>
</a>
</g>
</g>
<!-- Node9&#45;&gt;Node10 -->
<g id="edge10" class="edge"><title>Node9&#45;&gt;Node10</title>
<path fill="none" stroke="midnightblue" d="M752.549,-146C761.258,-146 769.821,-146 777.77,-146"/>
<polygon fill="midnightblue" stroke="midnightblue" points="752.288,-142.5 742.288,-146 752.288,-149.5 752.288,-142.5"/>
</g>
<!-- Node11 -->
<g id="node11" class="node"><title>Node11</title>
<g id="a_node11"><a xlink:href="tiffiop_8h.html#abcbb0e129b454ba4b55f4f178adc9d6f" target="_top" xlink:title="TIFFDefaultDirectory">
<polygon fill="white" stroke="black" points="900.604,-136 900.604,-156 1009.4,-156 1009.4,-136 900.604,-136"/>
<text text-anchor="middle" x="955" y="-142" font-family="Helvetica,sans-Serif" font-size="10.00">TIFFDefaultDirectory</text>
</a>
</g>
</g>
<!-- Node10&#45;&gt;Node11 -->
<g id="edge11" class="edge"><title>Node10&#45;&gt;Node11</title>
<path fill="none" stroke="midnightblue" d="M874.312,-146C882.823,-146 891.652,-146 900.198,-146"/>
<polygon fill="midnightblue" stroke="midnightblue" points="874.129,-142.5 864.129,-146 874.129,-149.5 874.129,-142.5"/>
</g>
<!-- Node11&#45;&gt;Node12 -->
<g id="edge12" class="edge"><title>Node11&#45;&gt;Node12</title>
<path fill="none" stroke="midnightblue" d="M1019.71,-152.62C1078.01,-158.103 1166.71,-165 1244,-165 1244,-165 1244,-165 1557,-165 1629.19,-165 1712.06,-148.97 1760.27,-138.013"/>
<polygon fill="midnightblue" stroke="midnightblue" points="1019.83,-149.116 1009.54,-151.649 1019.16,-156.084 1019.83,-149.116"/>
</g>
<!-- Node24 -->
<g id="node24" class="node"><title>Node24</title>
<g id="a_node24"><a xlink:href="tiffio_8h.html#a06d307cb8d3179c1d3996783095c7c61" target="_top" xlink:title="TIFFCreateDirectory">
<polygon fill="white" stroke="black" points="1046.44,-39 1046.44,-59 1153.56,-59 1153.56,-39 1046.44,-39"/>
<text text-anchor="middle" x="1100" y="-45" font-family="Helvetica,sans-Serif" font-size="10.00">TIFFCreateDirectory</text>
</a>
</g>
</g>
<!-- Node11&#45;&gt;Node24 -->
<g id="edge24" class="edge"><title>Node11&#45;&gt;Node24</title>
<path fill="none" stroke="midnightblue" d="M979.239,-130.237C1008.85,-110.15 1059.18,-76.013 1084.1,-59.1062"/>
<polygon fill="midnightblue" stroke="midnightblue" points="977.076,-127.474 970.765,-135.985 981.005,-133.268 977.076,-127.474"/>
</g>
<!-- Node35 -->
<g id="node35" class="node"><title>Node35</title>
<g id="a_node35"><a xlink:href="tiffio_8h.html#ab5f774a4a20c860a3d28a42e8b7166b4" target="_top" xlink:title="TIFFReadDirectory">
<polygon fill="white" stroke="black" points="1049.49,-97 1049.49,-117 1150.51,-117 1150.51,-97 1049.49,-97"/>
<text text-anchor="middle" x="1100" y="-103" font-family="Helvetica,sans-Serif" font-size="10.00">TIFFReadDirectory</text>
</a>
</g>
</g>
<!-- Node11&#45;&gt;Node35 -->
<g id="edge39" class="edge"><title>Node11&#45;&gt;Node35</title>
<path fill="none" stroke="midnightblue" d="M1002.66,-133.275C1022.01,-127.997 1044.14,-121.963 1062.3,-117.009"/>
<polygon fill="midnightblue" stroke="midnightblue" points="1001.55,-129.949 992.826,-135.957 1003.39,-136.702 1001.55,-129.949"/>
</g>
<!-- Node38 -->
<g id="node38" class="node"><title>Node38</title>
<g id="a_node38"><a xlink:href="tiffio_8h.html#ac0f7bfa0b6efc24ba7d5b3f40aea82a1" target="_top" xlink:title="TIFFUnlinkDirectory">
<polygon fill="white" stroke="black" points="1047.55,-194 1047.55,-214 1152.45,-214 1152.45,-194 1047.55,-194"/>
<text text-anchor="middle" x="1100" y="-200" font-family="Helvetica,sans-Serif" font-size="10.00">TIFFUnlinkDirectory</text>
</a>
</g>
</g>
<!-- Node11&#45;&gt;Node38 -->
<g id="edge43" class="edge"><title>Node11&#45;&gt;Node38</title>
<path fill="none" stroke="midnightblue" d="M990.296,-159.91C1016.04,-170.351 1050.7,-184.41 1073.9,-193.818"/>
<polygon fill="midnightblue" stroke="midnightblue" points="991.491,-156.618 980.909,-156.103 988.86,-163.105 991.491,-156.618"/>
</g>
<!-- Node13 -->
<g id="node13" class="node"><title>Node13</title>
<g id="a_node13"><a xlink:href="tiffio_8h.html#adca230876d2f7fdec1ff6c7fdb7898a8" target="_top" xlink:title="TIFFFdOpen">
<polygon fill="white" stroke="black" points="1882.38,-118 1882.38,-138 1955.62,-138 1955.62,-118 1882.38,-118"/>
<text text-anchor="middle" x="1919" y="-124" font-family="Helvetica,sans-Serif" font-size="10.00">TIFFFdOpen</text>
</a>
</g>
</g>
<!-- Node12&#45;&gt;Node13 -->
<g id="edge13" class="edge"><title>Node12&#45;&gt;Node13</title>
<path fill="none" stroke="midnightblue" d="M1855.83,-128C1864.79,-128 1873.9,-128 1882.29,-128"/>
<polygon fill="midnightblue" stroke="midnightblue" points="1855.82,-124.5 1845.82,-128 1855.82,-131.5 1855.82,-124.5"/>
</g>
<!-- Node14 -->
<g id="node14" class="node"><title>Node14</title>
<g id="a_node14"><a xlink:href="tiffio_8h.html#ac3dd18826e617eb451c74f33a32fcb10" target="_top" xlink:title="TIFFOpen">
<polygon fill="white" stroke="black" points="2013.22,-118 2013.22,-138 2074.78,-138 2074.78,-118 2013.22,-118"/>
<text text-anchor="middle" x="2044" y="-124" font-family="Helvetica,sans-Serif" font-size="10.00">TIFFOpen</text>
</a>
</g>
</g>
<!-- Node13&#45;&gt;Node14 -->
<g id="edge14" class="edge"><title>Node13&#45;&gt;Node14</title>
<path fill="none" stroke="midnightblue" d="M1966,-128C1981.74,-128 1998.93,-128 2013.07,-128"/>
<polygon fill="midnightblue" stroke="midnightblue" points="1965.91,-124.5 1955.91,-128 1965.91,-131.5 1965.91,-124.5"/>
</g>
<!-- Node15 -->
<g id="node15" class="node"><title>Node15</title>
<g id="a_node15"><a xlink:href="class_t_i_f_f_reader_internal.html#adc7888a9bc3fe28248b49b8b204ae8ae" target="_top" xlink:title="TIFFReaderInternal\l::Open">
<polygon fill="white" stroke="black" points="2153.37,-115 2153.37,-147 2256.63,-147 2256.63,-115 2153.37,-115"/>
<text text-anchor="start" x="2161.37" y="-133" font-family="Helvetica,sans-Serif" font-size="10.00">TIFFReaderInternal</text>
<text text-anchor="middle" x="2205" y="-121" font-family="Helvetica,sans-Serif" font-size="10.00">::Open</text>
</a>
</g>
</g>
<!-- Node14&#45;&gt;Node15 -->
<g id="edge15" class="edge"><title>Node14&#45;&gt;Node15</title>
<path fill="none" stroke="midnightblue" d="M2084.95,-128.754C2105.67,-129.145 2131.19,-129.626 2153.28,-130.043"/>
<polygon fill="midnightblue" stroke="midnightblue" points="2084.97,-125.254 2074.91,-128.564 2084.84,-132.252 2084.97,-125.254"/>
</g>
<!-- Node19 -->
<g id="node19" class="node"><title>Node19</title>
<g id="a_node19"><a xlink:href="classrc_window.html#adf6ca47beb76a8bfdc73369f80dd003d" target="_top" xlink:title="rcWindow::tiff">
<polygon fill="white" stroke="black" points="2167.08,-76 2167.08,-96 2242.92,-96 2242.92,-76 2167.08,-76"/>
<text text-anchor="middle" x="2205" y="-82" font-family="Helvetica,sans-Serif" font-size="10.00">rcWindow::tiff</text>
</a>
</g>
</g>
<!-- Node14&#45;&gt;Node19 -->
<g id="edge19" class="edge"><title>Node14&#45;&gt;Node19</title>
<path fill="none" stroke="midnightblue" d="M2084.68,-117.505C2099.53,-113.58 2116.54,-109.084 2132,-105 2143.37,-101.996 2155.76,-98.7265 2167,-95.7603"/>
<polygon fill="midnightblue" stroke="midnightblue" points="2083.57,-114.179 2074.8,-120.119 2085.36,-120.947 2083.57,-114.179"/>
</g>
<!-- Node16 -->
<g id="node16" class="node"><title>Node16</title>
<g id="a_node16"><a xlink:href="class_t_i_f_f_image_i_o.html#abec0d00f473debbd9d05f5a0e4820402" target="_top" xlink:title="TIFFImageIO::CanReadFile">
<polygon fill="white" stroke="black" points="2317.31,-205 2317.31,-225 2456.69,-225 2456.69,-205 2317.31,-205"/>
<text text-anchor="middle" x="2387" y="-211" font-family="Helvetica,sans-Serif" font-size="10.00">TIFFImageIO::CanReadFile</text>
</a>
</g>
</g>
<!-- Node15&#45;&gt;Node16 -->
<g id="edge16" class="edge"><title>Node15&#45;&gt;Node16</title>
<path fill="none" stroke="midnightblue" d="M2265.21,-150.666C2269.57,-152.387 2273.87,-154.172 2278,-156 2311.6,-170.887 2348.8,-192.403 2369.6,-204.92"/>
<polygon fill="midnightblue" stroke="midnightblue" points="2266.2,-147.299 2255.61,-147.01 2263.71,-153.841 2266.2,-147.299"/>
</g>
<!-- Node17 -->
<g id="node17" class="node"><title>Node17</title>
<g id="a_node17"><a xlink:href="classrc_engine_impl.html#ac0162da8fe4f677ad6f3d04a465d50f0" target="_top" xlink:title="rcEngineImpl::loadMovie">
<polygon fill="white" stroke="black" points="2500.25,-224 2500.25,-244 2625.75,-244 2625.75,-224 2500.25,-224"/>
<text text-anchor="middle" x="2563" y="-230" font-family="Helvetica,sans-Serif" font-size="10.00">rcEngineImpl::loadMovie</text>
</a>
</g>
</g>
<!-- Node16&#45;&gt;Node17 -->
<g id="edge17" class="edge"><title>Node16&#45;&gt;Node17</title>
<path fill="none" stroke="midnightblue" d="M2466.95,-223.621C2478.11,-224.839 2489.45,-226.078 2500.22,-227.254"/>
<polygon fill="midnightblue" stroke="midnightblue" points="2467.09,-220.116 2456.77,-222.509 2466.33,-227.074 2467.09,-220.116"/>
</g>
<!-- Node18 -->
<g id="node18" class="node"><title>Node18</title>
<g id="a_node18"><a xlink:href="classrc_window.html#a5da06176e6878b676bbc534db6b09b7d" target="_top" xlink:title="rcWindow::rcWindow">
<polygon fill="white" stroke="black" points="2508.33,-185 2508.33,-205 2617.67,-205 2617.67,-185 2508.33,-185"/>
<text text-anchor="middle" x="2563" y="-191" font-family="Helvetica,sans-Serif" font-size="10.00">rcWindow::rcWindow</text>
</a>
</g>
</g>
<!-- Node16&#45;&gt;Node18 -->
<g id="edge18" class="edge"><title>Node16&#45;&gt;Node18</title>
<path fill="none" stroke="midnightblue" d="M2466.88,-205.933C2480.86,-204.326 2495.13,-202.687 2508.21,-201.183"/>
<polygon fill="midnightblue" stroke="midnightblue" points="2466.3,-202.476 2456.77,-207.095 2467.1,-209.431 2466.3,-202.476"/>
</g>
<!-- Node20 -->
<g id="node20" class="node"><title>Node20</title>
<g id="a_node20"><a xlink:href="classrc_visual_function.html#a1df64c3605f3a0a4670118911ac783b1" target="_top" xlink:title="rcVisualFunction::cardiac\lMeasure">
<polygon fill="white" stroke="black" points="2323.23,-25 2323.23,-57 2450.77,-57 2450.77,-25 2323.23,-25"/>
<text text-anchor="start" x="2331.23" y="-43" font-family="Helvetica,sans-Serif" font-size="10.00">rcVisualFunction::cardiac</text>
<text text-anchor="middle" x="2387" y="-31" font-family="Helvetica,sans-Serif" font-size="10.00">Measure</text>
</a>
</g>
</g>
<!-- Node19&#45;&gt;Node20 -->
<g id="edge20" class="edge"><title>Node19&#45;&gt;Node20</title>
<path fill="none" stroke="midnightblue" d="M2253.08,-74.229C2274.41,-68.8983 2299.93,-62.5186 2322.88,-56.7808"/>
<polygon fill="midnightblue" stroke="midnightblue" points="2252.15,-70.855 2243.3,-76.676 2253.85,-77.646 2252.15,-70.855"/>
</g>
<!-- Node22 -->
<g id="node22" class="node"><title>Node22</title>
<g id="a_node22"><a xlink:href="classrc_engine_impl.html#a00ca0d227e480ddb5bd6be293b55d2c9" target="_top" xlink:title="rcEngineImpl::muscleTracker">
<polygon fill="white" stroke="black" points="2314.44,-115 2314.44,-135 2459.56,-135 2459.56,-115 2314.44,-115"/>
<text text-anchor="middle" x="2387" y="-121" font-family="Helvetica,sans-Serif" font-size="10.00">rcEngineImpl::muscleTracker</text>
</a>
</g>
</g>
<!-- Node19&#45;&gt;Node22 -->
<g id="edge22" class="edge"><title>Node19&#45;&gt;Node22</title>
<path fill="none" stroke="midnightblue" d="M2253.19,-96.2249C2279.92,-102.017 2313.22,-109.232 2339.79,-114.988"/>
<polygon fill="midnightblue" stroke="midnightblue" points="2253.81,-92.7778 2243.3,-94.0808 2252.33,-99.6191 2253.81,-92.7778"/>
</g>
<!-- Node23 -->
<g id="node23" class="node"><title>Node23</title>
<g id="a_node23"><a xlink:href="rc__edge_8h.html#a11fbb1eb0376dd39a4be2ea72b7ef156" target="_top" xlink:title="rfDirectionSignal">
<polygon fill="white" stroke="black" points="2342.32,-76 2342.32,-96 2431.68,-96 2431.68,-76 2342.32,-76"/>
<text text-anchor="middle" x="2387" y="-82" font-family="Helvetica,sans-Serif" font-size="10.00">rfDirectionSignal</text>
</a>
</g>
</g>
<!-- Node19&#45;&gt;Node23 -->
<g id="edge23" class="edge"><title>Node19&#45;&gt;Node23</title>
<path fill="none" stroke="midnightblue" d="M2253.46,-86C2280.92,-86 2315.25,-86 2342.09,-86"/>
<polygon fill="midnightblue" stroke="midnightblue" points="2253.3,-82.5001 2243.3,-86 2253.3,-89.5001 2253.3,-82.5001"/>
</g>
<!-- Node21 -->
<g id="node21" class="node"><title>Node21</title>
<g id="a_node21"><a xlink:href="classrc_visual_function.html#ac3135ba614a9ba5080e78c3f2f426312" target="_top" xlink:title="rcVisualFunction::measure">
<polygon fill="white" stroke="black" points="2495.9,-31 2495.9,-51 2630.1,-51 2630.1,-31 2495.9,-31"/>
<text text-anchor="middle" x="2563" y="-37" font-family="Helvetica,sans-Serif" font-size="10.00">rcVisualFunction::measure</text>
</a>
</g>
</g>
<!-- Node20&#45;&gt;Node21 -->
<g id="edge21" class="edge"><title>Node20&#45;&gt;Node21</title>
<path fill="none" stroke="midnightblue" d="M2460.87,-41C2472.44,-41 2484.35,-41 2495.75,-41"/>
<polygon fill="midnightblue" stroke="midnightblue" points="2460.82,-37.5001 2450.82,-41 2460.82,-44.5001 2460.82,-37.5001"/>
</g>
<!-- Node25 -->
<g id="node25" class="node"><title>Node25</title>
<g id="a_node25"><a xlink:href="tif__dirwrite_8c.html#a99ebbf4b3b0fd87a64d558757cf03635" target="_top" xlink:title="_TIFFWriteDirectory">
<polygon fill="white" stroke="black" points="1192.09,-0 1192.09,-20 1297.91,-20 1297.91,-0 1192.09,-0"/>
<text text-anchor="middle" x="1245" y="-6" font-family="Helvetica,sans-Serif" font-size="10.00">_TIFFWriteDirectory</text>
</a>
</g>
</g>
<!-- Node24&#45;&gt;Node25 -->
<g id="edge25" class="edge"><title>Node24&#45;&gt;Node25</title>
<path fill="none" stroke="midnightblue" d="M1147.66,-36.2752C1167.01,-30.9972 1189.14,-24.963 1207.3,-20.0094"/>
<polygon fill="midnightblue" stroke="midnightblue" points="1146.55,-32.9486 1137.83,-38.9565 1148.39,-39.702 1146.55,-32.9486"/>
</g>
<!-- Node26 -->
<g id="node26" class="node"><title>Node26</title>
<g id="a_node26"><a xlink:href="tiffio_8h.html#a81556034d0f25ab8e5a780a20a2754af" target="_top" xlink:title="TIFFWriteDirectory">
<polygon fill="white" stroke="black" points="1349.87,-39 1349.87,-59 1450.13,-59 1450.13,-39 1349.87,-39"/>
<text text-anchor="middle" x="1400" y="-45" font-family="Helvetica,sans-Serif" font-size="10.00">TIFFWriteDirectory</text>
</a>
</g>
</g>
<!-- Node25&#45;&gt;Node26 -->
<g id="edge26" class="edge"><title>Node25&#45;&gt;Node26</title>
<path fill="none" stroke="midnightblue" d="M1295.35,-22.5798C1316.19,-27.892 1340.12,-33.9915 1359.73,-38.9906"/>
<polygon fill="midnightblue" stroke="midnightblue" points="1295.96,-19.122 1285.4,-20.0435 1294.23,-25.9051 1295.96,-19.122"/>
</g>
<!-- Node34 -->
<g id="node34" class="node"><title>Node34</title>
<g id="a_node34"><a xlink:href="tiffio_8h.html#abb5ff4e7abc98286d574600a9a8d0b5f" target="_top" xlink:title="TIFFCheckpointDirectory">
<polygon fill="white" stroke="black" points="1336.43,-0 1336.43,-20 1463.57,-20 1463.57,-0 1336.43,-0"/>
<text text-anchor="middle" x="1400" y="-6" font-family="Helvetica,sans-Serif" font-size="10.00">TIFFCheckpointDirectory</text>
</a>
</g>
</g>
<!-- Node25&#45;&gt;Node34 -->
<g id="edge38" class="edge"><title>Node25&#45;&gt;Node34</title>
<path fill="none" stroke="midnightblue" d="M1308.42,-10C1317.57,-10 1327.01,-10 1336.17,-10"/>
<polygon fill="midnightblue" stroke="midnightblue" points="1308.23,-6.5001 1298.23,-10 1308.23,-13.5001 1308.23,-6.5001"/>
</g>
<!-- Node27 -->
<g id="node27" class="node"><title>Node27</title>
<g id="a_node27"><a xlink:href="tiffio_8h.html#aca3453296ad6a9dc3cbbead4e1bc2792" target="_top" xlink:title="TIFFFlush">
<polygon fill="white" stroke="black" points="1525.22,-78 1525.22,-98 1586.78,-98 1586.78,-78 1525.22,-78"/>
<text text-anchor="middle" x="1556" y="-84" font-family="Helvetica,sans-Serif" font-size="10.00">TIFFFlush</text>
</a>
</g>
</g>
<!-- Node26&#45;&gt;Node27 -->
<g id="edge27" class="edge"><title>Node26&#45;&gt;Node27</title>
<path fill="none" stroke="midnightblue" d="M1450.55,-61.5483C1475.15,-67.7778 1504.05,-75.0964 1525.2,-80.4544"/>
<polygon fill="midnightblue" stroke="midnightblue" points="1451.21,-58.1056 1440.66,-59.0435 1449.49,-64.8914 1451.21,-58.1056"/>
</g>
<!-- Node33 -->
<g id="node33" class="node"><title>Node33</title>
<g id="a_node33"><a xlink:href="tiffio_8h.html#a030e9a2ded6444dde1fd9b8164664b8c" target="_top" xlink:title="TIFFRewriteDirectory">
<polygon fill="white" stroke="black" points="1500.5,-39 1500.5,-59 1611.5,-59 1611.5,-39 1500.5,-39"/>
<text text-anchor="middle" x="1556" y="-45" font-family="Helvetica,sans-Serif" font-size="10.00">TIFFRewriteDirectory</text>
</a>
</g>
</g>
<!-- Node26&#45;&gt;Node33 -->
<g id="edge37" class="edge"><title>Node26&#45;&gt;Node33</title>
<path fill="none" stroke="midnightblue" d="M1460.5,-49C1473.65,-49 1487.51,-49 1500.44,-49"/>
<polygon fill="midnightblue" stroke="midnightblue" points="1460.15,-45.5001 1450.15,-49 1460.15,-52.5001 1460.15,-45.5001"/>
</g>
<!-- Node28 -->
<g id="node28" class="node"><title>Node28</title>
<g id="a_node28"><a xlink:href="tiffio_8h.html#aceb629aa7034d6d0304207556be3ce17" target="_top" xlink:title="TIFFCleanup">
<polygon fill="white" stroke="black" points="1647.82,-78 1647.82,-98 1722.18,-98 1722.18,-78 1647.82,-78"/>
<text text-anchor="middle" x="1685" y="-84" font-family="Helvetica,sans-Serif" font-size="10.00">TIFFCleanup</text>
</a>
</g>
</g>
<!-- Node27&#45;&gt;Node28 -->
<g id="edge28" class="edge"><title>Node27&#45;&gt;Node28</title>
<path fill="none" stroke="midnightblue" d="M1597.35,-88C1613.53,-88 1632.04,-88 1647.79,-88"/>
<polygon fill="midnightblue" stroke="midnightblue" points="1597.1,-84.5001 1587.1,-88 1597.1,-91.5001 1597.1,-84.5001"/>
</g>
<!-- Node28&#45;&gt;Node12 -->
<g id="edge29" class="edge"><title>Node28&#45;&gt;Node12</title>
<path fill="none" stroke="midnightblue" d="M1724.82,-101.501C1740.25,-106.868 1757.69,-112.936 1771.99,-117.91"/>
<polygon fill="midnightblue" stroke="midnightblue" points="1725.61,-98.0732 1715.02,-98.0937 1723.31,-104.685 1725.61,-98.0732"/>
</g>
<!-- Node29 -->
<g id="node29" class="node"><title>Node29</title>
<g id="a_node29"><a xlink:href="tiffio_8h.html#a3fefdfb6b9f9316edb732a85934efd90" target="_top" xlink:title="TIFFClose">
<polygon fill="white" stroke="black" points="1887.67,-78 1887.67,-98 1950.33,-98 1950.33,-78 1887.67,-78"/>
<text text-anchor="middle" x="1919" y="-84" font-family="Helvetica,sans-Serif" font-size="10.00">TIFFClose</text>
</a>
</g>
</g>
<!-- Node28&#45;&gt;Node29 -->
<g id="edge30" class="edge"><title>Node28&#45;&gt;Node29</title>
<path fill="none" stroke="midnightblue" d="M1732.29,-88C1778.43,-88 1847.96,-88 1887.55,-88"/>
<polygon fill="midnightblue" stroke="midnightblue" points="1732.25,-84.5001 1722.25,-88 1732.25,-91.5001 1732.25,-84.5001"/>
</g>
<!-- Node29&#45;&gt;Node19 -->
<g id="edge36" class="edge"><title>Node29&#45;&gt;Node19</title>
<path fill="none" stroke="midnightblue" d="M1960.48,-87.7149C2015.55,-87.3271 2113.3,-86.6388 2166.67,-86.2629"/>
<polygon fill="midnightblue" stroke="midnightblue" points="1960.37,-84.2155 1950.39,-87.786 1960.42,-91.2154 1960.37,-84.2155"/>
</g>
<!-- Node30 -->
<g id="node30" class="node"><title>Node30</title>
<g id="a_node30"><a xlink:href="class_t_i_f_f_reader_internal.html#aaa46d9e82420cfadfe323b1026cac726" target="_top" xlink:title="TIFFReaderInternal\l::Clean">
<polygon fill="white" stroke="black" points="1992.37,-166 1992.37,-198 2095.63,-198 2095.63,-166 1992.37,-166"/>
<text text-anchor="start" x="2000.37" y="-184" font-family="Helvetica,sans-Serif" font-size="10.00">TIFFReaderInternal</text>
<text text-anchor="middle" x="2044" y="-172" font-family="Helvetica,sans-Serif" font-size="10.00">::Clean</text>
</a>
</g>
</g>
<!-- Node29&#45;&gt;Node30 -->
<g id="edge31" class="edge"><title>Node29&#45;&gt;Node30</title>
<path fill="none" stroke="midnightblue" d="M1949.6,-103.416C1951.83,-104.881 1953.98,-106.415 1956,-108 1974.54,-122.579 1974.16,-131.563 1992,-147 1999.8,-153.746 2008.92,-160.355 2017.27,-165.98"/>
<polygon fill="midnightblue" stroke="midnightblue" points="1951.26,-100.328 1940.9,-98.1368 1947.63,-106.314 1951.26,-100.328"/>
</g>
<!-- Node30&#45;&gt;Node15 -->
<g id="edge33" class="edge"><title>Node30&#45;&gt;Node15</title>
<path fill="none" stroke="midnightblue" d="M2105.17,-162.7C2121.28,-157.532 2138.52,-152.002 2154.02,-147.032"/>
<polygon fill="midnightblue" stroke="midnightblue" points="2103.76,-159.476 2095.31,-165.863 2105.9,-166.142 2103.76,-159.476"/>
</g>
<!-- Node30&#45;&gt;Node16 -->
<g id="edge35" class="edge"><title>Node30&#45;&gt;Node16</title>
<path fill="none" stroke="midnightblue" d="M2067.61,-204.999C2083.93,-219.87 2107.35,-237.91 2132,-246 2212.62,-272.459 2314.33,-242.18 2360.78,-225.098"/>
<polygon fill="midnightblue" stroke="midnightblue" points="2069.88,-202.322 2060.2,-198.01 2065.08,-207.416 2069.88,-202.322"/>
</g>
<!-- Node31 -->
<g id="node31" class="node"><title>Node31</title>
<g id="a_node31"><a xlink:href="class_t_i_f_f_reader_internal.html#a37acb14f97aa8a07dd8875ed13bc21ba" target="_top" xlink:title="TIFFReaderInternal\l::TIFFReaderInternal">
<polygon fill="white" stroke="black" points="2150.59,-166 2150.59,-198 2259.41,-198 2259.41,-166 2150.59,-166"/>
<text text-anchor="start" x="2158.59" y="-184" font-family="Helvetica,sans-Serif" font-size="10.00">TIFFReaderInternal</text>
<text text-anchor="middle" x="2205" y="-172" font-family="Helvetica,sans-Serif" font-size="10.00">::TIFFReaderInternal</text>
</a>
</g>
</g>
<!-- Node30&#45;&gt;Node31 -->
<g id="edge32" class="edge"><title>Node30&#45;&gt;Node31</title>
<path fill="none" stroke="midnightblue" d="M2105.76,-182C2120.47,-182 2136.09,-182 2150.45,-182"/>
<polygon fill="midnightblue" stroke="midnightblue" points="2105.75,-178.5 2095.75,-182 2105.75,-185.5 2105.75,-178.5"/>
</g>
<!-- Node32 -->
<g id="node32" class="node"><title>Node32</title>
<g id="a_node32"><a xlink:href="class_t_i_f_f_image_i_o.html#a3ad4dcd4aad49fe2ea0c85ce5edac4da" target="_top" xlink:title="TIFFImageIO::~TIFFImageIO">
<polygon fill="white" stroke="black" points="2131.85,-217 2131.85,-237 2278.15,-237 2278.15,-217 2131.85,-217"/>
<text text-anchor="middle" x="2205" y="-223" font-family="Helvetica,sans-Serif" font-size="10.00">TIFFImageIO::~TIFFImageIO</text>
</a>
</g>
</g>
<!-- Node30&#45;&gt;Node32 -->
<g id="edge34" class="edge"><title>Node30&#45;&gt;Node32</title>
<path fill="none" stroke="midnightblue" d="M2105.85,-199.56C2114.62,-202.07 2123.54,-204.609 2132,-207 2143.61,-210.281 2156.29,-213.817 2167.72,-216.991"/>
<polygon fill="midnightblue" stroke="midnightblue" points="2106.62,-196.14 2096.04,-196.749 2104.69,-202.869 2106.62,-196.14"/>
</g>
<!-- Node35&#45;&gt;Node12 -->
<g id="edge40" class="edge"><title>Node35&#45;&gt;Node12</title>
<path fill="none" stroke="midnightblue" d="M1160.83,-113.381C1220.94,-119.234 1316.28,-127 1399,-127 1399,-127 1399,-127 1557,-127 1627.53,-127 1709.53,-127.423 1758.25,-127.719"/>
<polygon fill="midnightblue" stroke="midnightblue" points="1161.05,-109.886 1150.76,-112.386 1160.37,-116.852 1161.05,-109.886"/>
</g>
<!-- Node36 -->
<g id="node36" class="node"><title>Node36</title>
<g id="a_node36"><a xlink:href="tiffio_8h.html#a58cdb91e8e93b12c8002ade2e4072251" target="_top" xlink:title="TIFFSetDirectory">
<polygon fill="white" stroke="black" points="1198.94,-78 1198.94,-98 1291.06,-98 1291.06,-78 1198.94,-78"/>
<text text-anchor="middle" x="1245" y="-84" font-family="Helvetica,sans-Serif" font-size="10.00">TIFFSetDirectory</text>
</a>
</g>
</g>
<!-- Node35&#45;&gt;Node36 -->
<g id="edge41" class="edge"><title>Node35&#45;&gt;Node36</title>
<path fill="none" stroke="midnightblue" d="M1160.69,-99.069C1173.43,-97.3758 1186.69,-95.6142 1198.79,-94.0074"/>
<polygon fill="midnightblue" stroke="midnightblue" points="1160.07,-95.6214 1150.61,-100.408 1160.99,-102.56 1160.07,-95.6214"/>
</g>
<!-- Node37 -->
<g id="node37" class="node"><title>Node37</title>
<g id="a_node37"><a xlink:href="tiffio_8h.html#a33628efcd540db4412ec3cd7761c3733" target="_top" xlink:title="TIFFSetSubDirectory">
<polygon fill="white" stroke="black" points="1190.04,-39 1190.04,-59 1299.96,-59 1299.96,-39 1190.04,-39"/>
<text text-anchor="middle" x="1245" y="-45" font-family="Helvetica,sans-Serif" font-size="10.00">TIFFSetSubDirectory</text>
</a>
</g>
</g>
<!-- Node35&#45;&gt;Node37 -->
<g id="edge42" class="edge"><title>Node35&#45;&gt;Node37</title>
<path fill="none" stroke="midnightblue" d="M1132.18,-92.6556C1149.15,-85.0222 1170.58,-75.6574 1190,-68 1197.77,-64.9371 1206.25,-61.8386 1214.14,-59.0576"/>
<polygon fill="midnightblue" stroke="midnightblue" points="1130.42,-89.6105 1122.75,-96.9241 1133.31,-95.9871 1130.42,-89.6105"/>
</g>
<!-- Node39&#45;&gt;Node8 -->
<g id="edge46" class="edge"><title>Node39&#45;&gt;Node8</title>
<path fill="none" stroke="midnightblue" d="M359.068,-307.242C364.134,-305.25 369.22,-303.145 374,-301 402.357,-288.273 433.56,-271.356 455.287,-259.079"/>
<polygon fill="midnightblue" stroke="midnightblue" points="357.534,-304.081 349.435,-310.912 360.026,-310.622 357.534,-304.081"/>
</g>
<!-- Node40&#45;&gt;Node8 -->
<g id="edge48" class="edge"><title>Node40&#45;&gt;Node8</title>
<path fill="none" stroke="midnightblue" d="M371.888,-269.585C385.865,-266.241 401.187,-262.575 415.867,-259.062"/>
<polygon fill="midnightblue" stroke="midnightblue" points="370.888,-266.226 361.977,-271.957 372.517,-273.033 370.888,-266.226"/>
</g>
<!-- Node42 -->
<g id="node42" class="node"><title>Node42</title>
<g id="a_node42"><a xlink:href="tiffiop_8h.html#a2f80de8ba37203d16454289f94067101" target="_top" xlink:title="_TIFFNoRowEncode">
<polygon fill="white" stroke="black" points="264.315,-233 264.315,-253 373.685,-253 373.685,-233 264.315,-233"/>
<text text-anchor="middle" x="319" y="-239" font-family="Helvetica,sans-Serif" font-size="10.00">_TIFFNoRowEncode</text>
</a>
</g>
</g>
<!-- Node41&#45;&gt;Node42 -->
<g id="edge50" class="edge"><title>Node41&#45;&gt;Node42</title>
<path fill="none" stroke="midnightblue" d="M231.11,-231.037C241.86,-232.517 253.233,-234.083 264.082,-235.577"/>
<polygon fill="midnightblue" stroke="midnightblue" points="231.415,-227.546 221.031,-229.649 230.46,-234.481 231.415,-227.546"/>
</g>
<!-- Node43 -->
<g id="node43" class="node"><title>Node43</title>
<g id="a_node43"><a xlink:href="tiffiop_8h.html#ad014085f4e3ac4aa01b09bfc81dad4cb" target="_top" xlink:title="_TIFFNoStripEncode">
<polygon fill="white" stroke="black" points="264.037,-194 264.037,-214 373.963,-214 373.963,-194 264.037,-194"/>
<text text-anchor="middle" x="319" y="-200" font-family="Helvetica,sans-Serif" font-size="10.00">_TIFFNoStripEncode</text>
</a>
</g>
</g>
<!-- Node41&#45;&gt;Node43 -->
<g id="edge52" class="edge"><title>Node41&#45;&gt;Node43</title>
<path fill="none" stroke="midnightblue" d="M231.049,-216.602C241.734,-215.053 253.036,-213.415 263.829,-211.851"/>
<polygon fill="midnightblue" stroke="midnightblue" points="230.425,-213.155 221.031,-218.053 231.43,-220.083 230.425,-213.155"/>
</g>
<!-- Node44 -->
<g id="node44" class="node"><title>Node44</title>
<g id="a_node44"><a xlink:href="tiffiop_8h.html#a8fbd40460bb20d0feeb874411b5f201a" target="_top" xlink:title="_TIFFNoTileEncode">
<polygon fill="white" stroke="black" points="266.444,-155 266.444,-175 371.556,-175 371.556,-155 266.444,-155"/>
<text text-anchor="middle" x="319" y="-161" font-family="Helvetica,sans-Serif" font-size="10.00">_TIFFNoTileEncode</text>
</a>
</g>
</g>
<!-- Node41&#45;&gt;Node44 -->
<g id="edge54" class="edge"><title>Node41&#45;&gt;Node44</title>
<path fill="none" stroke="midnightblue" d="M209.116,-209.198C225.127,-201.298 245.453,-191.654 264,-184 271.533,-180.891 279.781,-177.825 287.512,-175.092"/>
<polygon fill="midnightblue" stroke="midnightblue" points="207.15,-206.268 199.759,-213.859 210.271,-212.534 207.15,-206.268"/>
</g>
<!-- Node42&#45;&gt;Node8 -->
<g id="edge51" class="edge"><title>Node42&#45;&gt;Node8</title>
<path fill="none" stroke="midnightblue" d="M383.979,-243C392.432,-243 401.15,-243 409.744,-243"/>
<polygon fill="midnightblue" stroke="midnightblue" points="383.824,-239.5 373.824,-243 383.824,-246.5 383.824,-239.5"/>
</g>
<!-- Node43&#45;&gt;Node8 -->
<g id="edge53" class="edge"><title>Node43&#45;&gt;Node8</title>
<path fill="none" stroke="midnightblue" d="M371.888,-216.415C385.865,-219.759 401.187,-223.425 415.867,-226.938"/>
<polygon fill="midnightblue" stroke="midnightblue" points="372.517,-212.967 361.977,-214.043 370.888,-219.774 372.517,-212.967"/>
</g>
<!-- Node44&#45;&gt;Node8 -->
<g id="edge55" class="edge"><title>Node44&#45;&gt;Node8</title>
<path fill="none" stroke="midnightblue" d="M360.886,-178.612C365.351,-180.328 369.798,-182.137 374,-184 402.918,-196.818 434.566,-214.369 456.273,-226.991"/>
<polygon fill="midnightblue" stroke="midnightblue" points="361.762,-175.205 351.169,-175.025 359.338,-181.772 361.762,-175.205"/>
</g>
</g>
</svg>
        <g id="navigator" transform="translate(0 0)" fill="#404254">
                <rect fill="#f2f5e9" fill-opacity="0.5" stroke="#606060" stroke-width=".5" x="0" y="0" width="60" height="60"/>
                <use id="zoomplus" xlink:href="#zoomPlus" x="17" y="9" onmousedown="handleZoom(evt,'in')"/>
                <use id="zoomminus" xlink:href="#zoomMin" x="42" y="9" onmousedown="handleZoom(evt,'out')"/>
                <use id="reset" xlink:href="#resetDef" x="30" y="36" onmousedown="handleReset()"/>
                <g id="arrowUp" xlink:href="#dirArrow" transform="translate(30 24)" onmousedown="handlePan(0,-1)">
                  <use xlink:href="#rim" fill="#404040">
                        <set attributeName="fill" to="#808080" begin="arrowUp.mouseover" end="arrowUp.mouseout"/>
                  </use>
                  <path fill="none" stroke="white" stroke-width="1.5" d="M0,-3.0v7 M-2.5,-0.5L0,-3.0L2.5,-0.5"/>
                </g>
                <g id="arrowRight" xlink:href="#dirArrow" transform="rotate(90) translate(36 -43)" onmousedown="handlePan(1,0)">
                  <use xlink:href="#rim" fill="#404040">
                        <set attributeName="fill" to="#808080" begin="arrowRight.mouseover" end="arrowRight.mouseout"/>
                  </use>
                  <path fill="none" stroke="white" stroke-width="1.5" d="M0,-3.0v7 M-2.5,-0.5L0,-3.0L2.5,-0.5"/>
                </g>
                <g id="arrowDown" xlink:href="#dirArrow" transform="rotate(180) translate(-30 -48)" onmousedown="handlePan(0,1)">
                  <use xlink:href="#rim" fill="#404040">
                        <set attributeName="fill" to="#808080" begin="arrowDown.mouseover" end="arrowDown.mouseout"/>
                  </use>
                  <path fill="none" stroke="white" stroke-width="1.5" d="M0,-3.0v7 M-2.5,-0.5L0,-3.0L2.5,-0.5"/>
                </g>
                <g id="arrowLeft" xlink:href="#dirArrow" transform="rotate(270) translate(-36 17)" onmousedown="handlePan(-1,0)">
                  <use xlink:href="#rim" fill="#404040">
                        <set attributeName="fill" to="#808080" begin="arrowLeft.mouseover" end="arrowLeft.mouseout"/>
                  </use>
                  <path fill="none" stroke="white" stroke-width="1.5" d="M0,-3.0v7 M-2.5,-0.5L0,-3.0L2.5,-0.5"/>
                </g>
        </g>
        <svg viewBox="0 0 15 15" width="100%" height="30px" preserveAspectRatio="xMaxYMin meet">
         <g id="arrow_out" transform="scale(0.3 0.3)">
          <a xlink:href="tif__compress_8c_a7f233a5bea0e99a82aa46ca549887c33_icgraph_org.svg" target="_base">
           <rect id="button" ry="5" rx="5" y="6" x="6" height="38" width="38"
                fill="#f2f5e9" fill-opacity="0.5" stroke="#606060" stroke-width="1.0"/>
           <path id="arrow"
             d="M 11.500037,31.436501 C 11.940474,20.09759 22.043105,11.32322 32.158766,21.979434 L 37.068811,17.246167 C 37.068811,17.246167 37.088388,32 37.088388,32 L 22.160133,31.978069 C 22.160133,31.978069 26.997745,27.140456 26.997745,27.140456 C 18.528582,18.264221 13.291696,25.230495 11.500037,31.436501 z"
             style="fill:#404040;"/>
          </a>
         </g>
        </svg>
</svg>
