<?xml version="1.0" encoding="UTF-8" standalone="no"?>
<!DOCTYPE svg PUBLIC "-//W3C//DTD SVG 1.1//EN"
 "http://www.w3.org/Graphics/SVG/1.1/DTD/svg11.dtd">
<!-- Generated by graphviz version 2.32.0 (20130916.1925)
 -->
<!-- Title: gtTileSeparate Pages: 1 -->
<svg width="946pt" height="144pt"
 viewBox="0.00 0.00 946.00 144.00" xmlns="http://www.w3.org/2000/svg" xmlns:xlink="http://www.w3.org/1999/xlink">
<g id="graph0" class="graph" transform="scale(1 1) rotate(0) translate(4 140)">
<title>gtTileSeparate</title>
<polygon fill="white" stroke="white" points="-4,5 -4,-140 943,-140 943,5 -4,5"/>
<!-- Node1 -->
<g id="node1" class="node"><title>Node1</title>
<polygon fill="#bfbfbf" stroke="black" points="0.663574,-39 0.663574,-59 81.3364,-59 81.3364,-39 0.663574,-39"/>
<text text-anchor="middle" x="41" y="-45" font-family="Helvetica,sans-Serif" font-size="10.00">gtTileSeparate</text>
</g>
<!-- Node2 -->
<g id="node2" class="node"><title>Node2</title>
<g id="a_node2"><a xlink:href="tiffio_8h.html#acd3bb3a843674f44624f98f2d6f7785a" target="_top" xlink:title="TIFFRGBAImageBegin">
<polygon fill="white" stroke="black" points="118.594,-39 118.594,-59 237.406,-59 237.406,-39 118.594,-39"/>
<text text-anchor="middle" x="178" y="-45" font-family="Helvetica,sans-Serif" font-size="10.00">TIFFRGBAImageBegin</text>
</a>
</g>
</g>
<!-- Node1&#45;&gt;Node2 -->
<g id="edge1" class="edge"><title>Node1&#45;&gt;Node2</title>
<path fill="none" stroke="midnightblue" d="M91.4749,-49C100.253,-49 109.471,-49 118.472,-49"/>
<polygon fill="midnightblue" stroke="midnightblue" points="91.4105,-45.5001 81.4105,-49 91.4105,-52.5001 91.4105,-45.5001"/>
</g>
<!-- Node3 -->
<g id="node3" class="node"><title>Node3</title>
<g id="a_node3"><a xlink:href="tiffio_8h.html#a37f05a9b68bdc13fb34dc6d4182914d4" target="_top" xlink:title="TIFFReadRGBAImageOriented">
<polygon fill="white" stroke="black" points="274.251,-78 274.251,-98 429.749,-98 429.749,-78 274.251,-78"/>
<text text-anchor="middle" x="352" y="-84" font-family="Helvetica,sans-Serif" font-size="10.00">TIFFReadRGBAImageOriented</text>
</a>
</g>
</g>
<!-- Node2&#45;&gt;Node3 -->
<g id="edge2" class="edge"><title>Node2&#45;&gt;Node3</title>
<path fill="none" stroke="midnightblue" d="M233.206,-61.2908C256.928,-66.6698 284.408,-72.9006 306.856,-77.9906"/>
<polygon fill="midnightblue" stroke="midnightblue" points="233.821,-57.8415 223.294,-59.0435 232.273,-64.6682 233.821,-57.8415"/>
</g>
<!-- Node10 -->
<g id="node10" class="node"><title>Node10</title>
<g id="a_node10"><a xlink:href="tiffio_8h.html#a078cb3ec8bbc21b9d0b107241bdeb340" target="_top" xlink:title="TIFFReadRGBAStrip">
<polygon fill="white" stroke="black" points="297.044,-39 297.044,-59 406.956,-59 406.956,-39 297.044,-39"/>
<text text-anchor="middle" x="352" y="-45" font-family="Helvetica,sans-Serif" font-size="10.00">TIFFReadRGBAStrip</text>
</a>
</g>
</g>
<!-- Node2&#45;&gt;Node10 -->
<g id="edge9" class="edge"><title>Node2&#45;&gt;Node10</title>
<path fill="none" stroke="midnightblue" d="M247.754,-49C264.097,-49 281.308,-49 296.891,-49"/>
<polygon fill="midnightblue" stroke="midnightblue" points="247.712,-45.5001 237.712,-49 247.712,-52.5001 247.712,-45.5001"/>
</g>
<!-- Node11 -->
<g id="node11" class="node"><title>Node11</title>
<g id="a_node11"><a xlink:href="tiffio_8h.html#a9cb0696bc0bde1de66286981e94def26" target="_top" xlink:title="TIFFReadRGBATile">
<polygon fill="white" stroke="black" points="299.82,-0 299.82,-20 404.18,-20 404.18,-0 299.82,-0"/>
<text text-anchor="middle" x="352" y="-6" font-family="Helvetica,sans-Serif" font-size="10.00">TIFFReadRGBATile</text>
</a>
</g>
</g>
<!-- Node2&#45;&gt;Node11 -->
<g id="edge10" class="edge"><title>Node2&#45;&gt;Node11</title>
<path fill="none" stroke="midnightblue" d="M233.206,-36.7092C256.928,-31.3302 284.408,-25.0994 306.856,-20.0094"/>
<polygon fill="midnightblue" stroke="midnightblue" points="232.273,-33.3318 223.294,-38.9565 233.821,-40.1585 232.273,-33.3318"/>
</g>
<!-- Node4 -->
<g id="node4" class="node"><title>Node4</title>
<g id="a_node4"><a xlink:href="class_t_i_f_f_image_i_o.html#a65d99c4b2c48e346698c0ae5462f2b20" target="_top" xlink:title="TIFFImageIO::Read">
<polygon fill="white" stroke="black" points="472.542,-97 472.542,-117 577.458,-117 577.458,-97 472.542,-97"/>
<text text-anchor="middle" x="525" y="-103" font-family="Helvetica,sans-Serif" font-size="10.00">TIFFImageIO::Read</text>
</a>
</g>
</g>
<!-- Node3&#45;&gt;Node4 -->
<g id="edge3" class="edge"><title>Node3&#45;&gt;Node4</title>
<path fill="none" stroke="midnightblue" d="M440.126,-97.6806C451.168,-98.9075 462.174,-100.13 472.406,-101.267"/>
<polygon fill="midnightblue" stroke="midnightblue" points="440.321,-94.1809 429.996,-96.5551 439.548,-101.138 440.321,-94.1809"/>
</g>
<!-- Node9 -->
<g id="node9" class="node"><title>Node9</title>
<g id="a_node9"><a xlink:href="tiffio_8h.html#a2992848d0612320b0aa5e7ef655a824e" target="_top" xlink:title="TIFFReadRGBAImage">
<polygon fill="white" stroke="black" points="466.429,-58 466.429,-78 583.571,-78 583.571,-58 466.429,-58"/>
<text text-anchor="middle" x="525" y="-64" font-family="Helvetica,sans-Serif" font-size="10.00">TIFFReadRGBAImage</text>
</a>
</g>
</g>
<!-- Node3&#45;&gt;Node9 -->
<g id="edge8" class="edge"><title>Node3&#45;&gt;Node9</title>
<path fill="none" stroke="midnightblue" d="M440.063,-77.8172C448.989,-76.7732 457.893,-75.7318 466.385,-74.7386"/>
<polygon fill="midnightblue" stroke="midnightblue" points="439.522,-74.3566 429.996,-78.9946 440.335,-81.3092 439.522,-74.3566"/>
</g>
<!-- Node5 -->
<g id="node5" class="node"><title>Node5</title>
<g id="a_node5"><a xlink:href="class_t_i_f_f_image_i_o.html#a972c82b540defb6309ae7c051d1d3694" target="_top" xlink:title="TIFFImageIO::ReadPages">
<polygon fill="white" stroke="black" points="631.365,-116 631.365,-136 764.635,-136 764.635,-116 631.365,-116"/>
<text text-anchor="middle" x="698" y="-122" font-family="Helvetica,sans-Serif" font-size="10.00">TIFFImageIO::ReadPages</text>
</a>
</g>
</g>
<!-- Node4&#45;&gt;Node5 -->
<g id="edge4" class="edge"><title>Node4&#45;&gt;Node5</title>
<path fill="none" stroke="midnightblue" d="M587.832,-113.87C601.909,-115.434 616.916,-117.102 631.154,-118.684"/>
<polygon fill="midnightblue" stroke="midnightblue" points="588.095,-110.378 577.77,-112.752 587.322,-117.335 588.095,-110.378"/>
</g>
<!-- Node7 -->
<g id="node7" class="node"><title>Node7</title>
<g id="a_node7"><a xlink:href="class_t_i_f_f_image_i_o.html#a167f81244878f036d2f6bec094eefc84" target="_top" xlink:title="TIFFImageIO::ReadSinglePage">
<polygon fill="white" stroke="black" points="619.966,-77 619.966,-97 776.034,-97 776.034,-77 619.966,-77"/>
<text text-anchor="middle" x="698" y="-83" font-family="Helvetica,sans-Serif" font-size="10.00">TIFFImageIO::ReadSinglePage</text>
</a>
</g>
</g>
<!-- Node4&#45;&gt;Node7 -->
<g id="edge6" class="edge"><title>Node4&#45;&gt;Node7</title>
<path fill="none" stroke="midnightblue" d="M587.94,-99.7556C598.302,-98.5437 609.164,-97.2732 619.851,-96.0233"/>
<polygon fill="midnightblue" stroke="midnightblue" points="587.295,-96.307 577.77,-100.945 588.109,-103.26 587.295,-96.307"/>
</g>
<!-- Node6 -->
<g id="node6" class="node"><title>Node6</title>
<g id="a_node6"><a xlink:href="classrc_engine_impl.html#ac0162da8fe4f677ad6f3d04a465d50f0" target="_top" xlink:title="rcEngineImpl::loadMovie">
<polygon fill="white" stroke="black" points="812.251,-116 812.251,-136 937.749,-136 937.749,-116 812.251,-116"/>
<text text-anchor="middle" x="875" y="-122" font-family="Helvetica,sans-Serif" font-size="10.00">rcEngineImpl::loadMovie</text>
</a>
</g>
</g>
<!-- Node5&#45;&gt;Node6 -->
<g id="edge5" class="edge"><title>Node5&#45;&gt;Node6</title>
<path fill="none" stroke="midnightblue" d="M774.963,-126C787.342,-126 800.033,-126 812.024,-126"/>
<polygon fill="midnightblue" stroke="midnightblue" points="774.661,-122.5 764.661,-126 774.661,-129.5 774.661,-122.5"/>
</g>
<!-- Node8 -->
<g id="node8" class="node"><title>Node8</title>
<g id="a_node8"><a xlink:href="classrc_window.html#a5da06176e6878b676bbc534db6b09b7d" target="_top" xlink:title="rcWindow::rcWindow">
<polygon fill="white" stroke="black" points="820.325,-77 820.325,-97 929.675,-97 929.675,-77 820.325,-77"/>
<text text-anchor="middle" x="875" y="-83" font-family="Helvetica,sans-Serif" font-size="10.00">rcWindow::rcWindow</text>
</a>
</g>
</g>
<!-- Node7&#45;&gt;Node8 -->
<g id="edge7" class="edge"><title>Node7&#45;&gt;Node8</title>
<path fill="none" stroke="midnightblue" d="M786.39,-87C797.933,-87 809.478,-87 820.223,-87"/>
<polygon fill="midnightblue" stroke="midnightblue" points="786.267,-83.5001 776.267,-87 786.267,-90.5001 786.267,-83.5001"/>
</g>
</g>
</svg>
