<?xml version="1.0" encoding="UTF-8" standalone="no"?>
<!DOCTYPE svg PUBLIC "-//W3C//DTD SVG 1.1//EN"
 "http://www.w3.org/Graphics/SVG/1.1/DTD/svg11.dtd">
<!-- Generated by graphviz version 2.32.0 (20130916.1925)
 -->
<!-- Title: makebwmap Pages: 1 -->
<svg width="198pt" height="106pt"
 viewBox="0.00 0.00 198.00 106.00" xmlns="http://www.w3.org/2000/svg" xmlns:xlink="http://www.w3.org/1999/xlink">
<g id="graph0" class="graph" transform="scale(1 1) rotate(0) translate(4 102)">
<title>makebwmap</title>
<polygon fill="white" stroke="white" points="-4,5 -4,-102 195,-102 195,5 -4,5"/>
<!-- Node1 -->
<g id="node1" class="node"><title>Node1</title>
<polygon fill="#bfbfbf" stroke="black" points="0.655273,-39 0.655273,-59 73.3447,-59 73.3447,-39 0.655273,-39"/>
<text text-anchor="middle" x="37" y="-45" font-family="Helvetica,sans-Serif" font-size="10.00">makebwmap</text>
</g>
<!-- Node2 -->
<g id="node2" class="node"><title>Node2</title>
<g id="a_node2"><a xlink:href="tif__apple_8c.html#aaa739de67506b8254e9d150190425b4f" target="_top" xlink:title="_TIFFmalloc">
<polygon fill="white" stroke="black" points="114.219,-78 114.219,-98 185.781,-98 185.781,-78 114.219,-78"/>
<text text-anchor="middle" x="150" y="-84" font-family="Helvetica,sans-Serif" font-size="10.00">_TIFFmalloc</text>
</a>
</g>
</g>
<!-- Node1&#45;&gt;Node2 -->
<g id="edge1" class="edge"><title>Node1&#45;&gt;Node2</title>
<path fill="none" stroke="midnightblue" d="M66.5853,-59.0435C80.0506,-63.7745 96.3049,-69.4855 110.807,-74.5809"/>
<polygon fill="midnightblue" stroke="midnightblue" points="109.917,-77.9778 120.512,-77.9906 112.237,-71.3735 109.917,-77.9778"/>
</g>
<!-- Node3 -->
<g id="node3" class="node"><title>Node3</title>
<g id="a_node3"><a xlink:href="tif__error_8c.html#a2e8b77a2d4e7b7283b55b963dd67ec31" target="_top" xlink:title="TIFFErrorExt">
<polygon fill="white" stroke="black" points="113.113,-39 113.113,-59 186.887,-59 186.887,-39 113.113,-39"/>
<text text-anchor="middle" x="150" y="-45" font-family="Helvetica,sans-Serif" font-size="10.00">TIFFErrorExt</text>
</a>
</g>
</g>
<!-- Node1&#45;&gt;Node3 -->
<g id="edge2" class="edge"><title>Node1&#45;&gt;Node3</title>
<path fill="none" stroke="midnightblue" d="M73.4263,-49C82.75,-49 92.9473,-49 102.749,-49"/>
<polygon fill="midnightblue" stroke="midnightblue" points="102.766,-52.5001 112.766,-49 102.766,-45.5001 102.766,-52.5001"/>
</g>
<!-- Node4 -->
<g id="node4" class="node"><title>Node4</title>
<g id="a_node4"><a xlink:href="tif__open_8c.html#a98b1b431a075949047294f94a1555ec7" target="_top" xlink:title="TIFFFileName">
<polygon fill="white" stroke="black" points="110.054,-0 110.054,-20 189.946,-20 189.946,-0 110.054,-0"/>
<text text-anchor="middle" x="150" y="-6" font-family="Helvetica,sans-Serif" font-size="10.00">TIFFFileName</text>
</a>
</g>
</g>
<!-- Node1&#45;&gt;Node4 -->
<g id="edge3" class="edge"><title>Node1&#45;&gt;Node4</title>
<path fill="none" stroke="midnightblue" d="M66.5853,-38.9565C80.0506,-34.2255 96.3049,-28.5145 110.807,-23.4191"/>
<polygon fill="midnightblue" stroke="midnightblue" points="112.237,-26.6265 120.512,-20.0094 109.917,-20.0222 112.237,-26.6265"/>
</g>
</g>
</svg>
