<?xml version="1.0" encoding="UTF-8" standalone="no"?>
<!DOCTYPE svg PUBLIC "-//W3C//DTD SVG 1.1//EN"
 "http://www.w3.org/Graphics/SVG/1.1/DTD/svg11.dtd">
<!-- Generated by graphviz version 2.32.0 (20130916.1925)
 -->
<!-- Title: putRGBUAseparate16bittile Pages: 1 -->
<svg width="1154pt" height="144pt"
 viewBox="0.00 0.00 1154.00 144.00" xmlns="http://www.w3.org/2000/svg" xmlns:xlink="http://www.w3.org/1999/xlink">
<g id="graph0" class="graph" transform="scale(1 1) rotate(0) translate(4 140)">
<title>putRGBUAseparate16bittile</title>
<polygon fill="white" stroke="white" points="-4,5 -4,-140 1151,-140 1151,5 -4,5"/>
<!-- Node1 -->
<g id="node1" class="node"><title>Node1</title>
<polygon fill="#bfbfbf" stroke="black" points="0.57666,-39 0.57666,-59 139.423,-59 139.423,-39 0.57666,-39"/>
<text text-anchor="middle" x="70" y="-45" font-family="Helvetica,sans-Serif" font-size="10.00">putRGBUAseparate16bittile</text>
</g>
<!-- Node2 -->
<g id="node2" class="node"><title>Node2</title>
<g id="a_node2"><a xlink:href="tif__getimage_8c.html#a1dc4f67ed9fb6eee3f8e6757baac43e0" target="_top" xlink:title="pickTileSeparateCase">
<polygon fill="white" stroke="black" points="176.27,-39 176.27,-59 289.73,-59 289.73,-39 176.27,-39"/>
<text text-anchor="middle" x="233" y="-45" font-family="Helvetica,sans-Serif" font-size="10.00">pickTileSeparateCase</text>
</a>
</g>
</g>
<!-- Node1&#45;&gt;Node2 -->
<g id="edge1" class="edge"><title>Node1&#45;&gt;Node2</title>
<path fill="none" stroke="midnightblue" d="M149.76,-49C158.66,-49 167.59,-49 176.112,-49"/>
<polygon fill="midnightblue" stroke="midnightblue" points="149.746,-45.5001 139.745,-49 149.745,-52.5001 149.746,-45.5001"/>
</g>
<!-- Node3 -->
<g id="node3" class="node"><title>Node3</title>
<g id="a_node3"><a xlink:href="tiffio_8h.html#acd3bb3a843674f44624f98f2d6f7785a" target="_top" xlink:title="TIFFRGBAImageBegin">
<polygon fill="white" stroke="black" points="326.594,-39 326.594,-59 445.406,-59 445.406,-39 326.594,-39"/>
<text text-anchor="middle" x="386" y="-45" font-family="Helvetica,sans-Serif" font-size="10.00">TIFFRGBAImageBegin</text>
</a>
</g>
</g>
<!-- Node2&#45;&gt;Node3 -->
<g id="edge2" class="edge"><title>Node2&#45;&gt;Node3</title>
<path fill="none" stroke="midnightblue" d="M300.002,-49C308.787,-49 317.747,-49 326.395,-49"/>
<polygon fill="midnightblue" stroke="midnightblue" points="299.798,-45.5001 289.798,-49 299.798,-52.5001 299.798,-45.5001"/>
</g>
<!-- Node4 -->
<g id="node4" class="node"><title>Node4</title>
<g id="a_node4"><a xlink:href="tiffio_8h.html#a37f05a9b68bdc13fb34dc6d4182914d4" target="_top" xlink:title="TIFFReadRGBAImageOriented">
<polygon fill="white" stroke="black" points="482.251,-78 482.251,-98 637.749,-98 637.749,-78 482.251,-78"/>
<text text-anchor="middle" x="560" y="-84" font-family="Helvetica,sans-Serif" font-size="10.00">TIFFReadRGBAImageOriented</text>
</a>
</g>
</g>
<!-- Node3&#45;&gt;Node4 -->
<g id="edge3" class="edge"><title>Node3&#45;&gt;Node4</title>
<path fill="none" stroke="midnightblue" d="M441.206,-61.2908C464.928,-66.6698 492.408,-72.9006 514.856,-77.9906"/>
<polygon fill="midnightblue" stroke="midnightblue" points="441.821,-57.8415 431.294,-59.0435 440.273,-64.6682 441.821,-57.8415"/>
</g>
<!-- Node11 -->
<g id="node11" class="node"><title>Node11</title>
<g id="a_node11"><a xlink:href="tiffio_8h.html#a078cb3ec8bbc21b9d0b107241bdeb340" target="_top" xlink:title="TIFFReadRGBAStrip">
<polygon fill="white" stroke="black" points="505.044,-39 505.044,-59 614.956,-59 614.956,-39 505.044,-39"/>
<text text-anchor="middle" x="560" y="-45" font-family="Helvetica,sans-Serif" font-size="10.00">TIFFReadRGBAStrip</text>
</a>
</g>
</g>
<!-- Node3&#45;&gt;Node11 -->
<g id="edge10" class="edge"><title>Node3&#45;&gt;Node11</title>
<path fill="none" stroke="midnightblue" d="M455.754,-49C472.097,-49 489.308,-49 504.891,-49"/>
<polygon fill="midnightblue" stroke="midnightblue" points="455.712,-45.5001 445.712,-49 455.712,-52.5001 455.712,-45.5001"/>
</g>
<!-- Node12 -->
<g id="node12" class="node"><title>Node12</title>
<g id="a_node12"><a xlink:href="tiffio_8h.html#a9cb0696bc0bde1de66286981e94def26" target="_top" xlink:title="TIFFReadRGBATile">
<polygon fill="white" stroke="black" points="507.82,-0 507.82,-20 612.18,-20 612.18,-0 507.82,-0"/>
<text text-anchor="middle" x="560" y="-6" font-family="Helvetica,sans-Serif" font-size="10.00">TIFFReadRGBATile</text>
</a>
</g>
</g>
<!-- Node3&#45;&gt;Node12 -->
<g id="edge11" class="edge"><title>Node3&#45;&gt;Node12</title>
<path fill="none" stroke="midnightblue" d="M441.206,-36.7092C464.928,-31.3302 492.408,-25.0994 514.856,-20.0094"/>
<polygon fill="midnightblue" stroke="midnightblue" points="440.273,-33.3318 431.294,-38.9565 441.821,-40.1585 440.273,-33.3318"/>
</g>
<!-- Node5 -->
<g id="node5" class="node"><title>Node5</title>
<g id="a_node5"><a xlink:href="class_t_i_f_f_image_i_o.html#a65d99c4b2c48e346698c0ae5462f2b20" target="_top" xlink:title="TIFFImageIO::Read">
<polygon fill="white" stroke="black" points="680.542,-97 680.542,-117 785.458,-117 785.458,-97 680.542,-97"/>
<text text-anchor="middle" x="733" y="-103" font-family="Helvetica,sans-Serif" font-size="10.00">TIFFImageIO::Read</text>
</a>
</g>
</g>
<!-- Node4&#45;&gt;Node5 -->
<g id="edge4" class="edge"><title>Node4&#45;&gt;Node5</title>
<path fill="none" stroke="midnightblue" d="M648.126,-97.6806C659.168,-98.9075 670.174,-100.13 680.406,-101.267"/>
<polygon fill="midnightblue" stroke="midnightblue" points="648.321,-94.1809 637.996,-96.5551 647.548,-101.138 648.321,-94.1809"/>
</g>
<!-- Node10 -->
<g id="node10" class="node"><title>Node10</title>
<g id="a_node10"><a xlink:href="tiffio_8h.html#a2992848d0612320b0aa5e7ef655a824e" target="_top" xlink:title="TIFFReadRGBAImage">
<polygon fill="white" stroke="black" points="674.429,-58 674.429,-78 791.571,-78 791.571,-58 674.429,-58"/>
<text text-anchor="middle" x="733" y="-64" font-family="Helvetica,sans-Serif" font-size="10.00">TIFFReadRGBAImage</text>
</a>
</g>
</g>
<!-- Node4&#45;&gt;Node10 -->
<g id="edge9" class="edge"><title>Node4&#45;&gt;Node10</title>
<path fill="none" stroke="midnightblue" d="M648.063,-77.8172C656.989,-76.7732 665.893,-75.7318 674.385,-74.7386"/>
<polygon fill="midnightblue" stroke="midnightblue" points="647.522,-74.3566 637.996,-78.9946 648.335,-81.3092 647.522,-74.3566"/>
</g>
<!-- Node6 -->
<g id="node6" class="node"><title>Node6</title>
<g id="a_node6"><a xlink:href="class_t_i_f_f_image_i_o.html#a972c82b540defb6309ae7c051d1d3694" target="_top" xlink:title="TIFFImageIO::ReadPages">
<polygon fill="white" stroke="black" points="839.365,-116 839.365,-136 972.635,-136 972.635,-116 839.365,-116"/>
<text text-anchor="middle" x="906" y="-122" font-family="Helvetica,sans-Serif" font-size="10.00">TIFFImageIO::ReadPages</text>
</a>
</g>
</g>
<!-- Node5&#45;&gt;Node6 -->
<g id="edge5" class="edge"><title>Node5&#45;&gt;Node6</title>
<path fill="none" stroke="midnightblue" d="M795.832,-113.87C809.909,-115.434 824.916,-117.102 839.154,-118.684"/>
<polygon fill="midnightblue" stroke="midnightblue" points="796.095,-110.378 785.77,-112.752 795.322,-117.335 796.095,-110.378"/>
</g>
<!-- Node8 -->
<g id="node8" class="node"><title>Node8</title>
<g id="a_node8"><a xlink:href="class_t_i_f_f_image_i_o.html#a167f81244878f036d2f6bec094eefc84" target="_top" xlink:title="TIFFImageIO::ReadSinglePage">
<polygon fill="white" stroke="black" points="827.966,-77 827.966,-97 984.034,-97 984.034,-77 827.966,-77"/>
<text text-anchor="middle" x="906" y="-83" font-family="Helvetica,sans-Serif" font-size="10.00">TIFFImageIO::ReadSinglePage</text>
</a>
</g>
</g>
<!-- Node5&#45;&gt;Node8 -->
<g id="edge7" class="edge"><title>Node5&#45;&gt;Node8</title>
<path fill="none" stroke="midnightblue" d="M795.94,-99.7556C806.302,-98.5437 817.164,-97.2732 827.851,-96.0233"/>
<polygon fill="midnightblue" stroke="midnightblue" points="795.295,-96.307 785.77,-100.945 796.109,-103.26 795.295,-96.307"/>
</g>
<!-- Node7 -->
<g id="node7" class="node"><title>Node7</title>
<g id="a_node7"><a xlink:href="classrc_engine_impl.html#ac0162da8fe4f677ad6f3d04a465d50f0" target="_top" xlink:title="rcEngineImpl::loadMovie">
<polygon fill="white" stroke="black" points="1020.25,-116 1020.25,-136 1145.75,-136 1145.75,-116 1020.25,-116"/>
<text text-anchor="middle" x="1083" y="-122" font-family="Helvetica,sans-Serif" font-size="10.00">rcEngineImpl::loadMovie</text>
</a>
</g>
</g>
<!-- Node6&#45;&gt;Node7 -->
<g id="edge6" class="edge"><title>Node6&#45;&gt;Node7</title>
<path fill="none" stroke="midnightblue" d="M982.963,-126C995.342,-126 1008.03,-126 1020.02,-126"/>
<polygon fill="midnightblue" stroke="midnightblue" points="982.661,-122.5 972.661,-126 982.661,-129.5 982.661,-122.5"/>
</g>
<!-- Node9 -->
<g id="node9" class="node"><title>Node9</title>
<g id="a_node9"><a xlink:href="classrc_window.html#a5da06176e6878b676bbc534db6b09b7d" target="_top" xlink:title="rcWindow::rcWindow">
<polygon fill="white" stroke="black" points="1028.33,-77 1028.33,-97 1137.67,-97 1137.67,-77 1028.33,-77"/>
<text text-anchor="middle" x="1083" y="-83" font-family="Helvetica,sans-Serif" font-size="10.00">rcWindow::rcWindow</text>
</a>
</g>
</g>
<!-- Node8&#45;&gt;Node9 -->
<g id="edge8" class="edge"><title>Node8&#45;&gt;Node9</title>
<path fill="none" stroke="midnightblue" d="M994.39,-87C1005.93,-87 1017.48,-87 1028.22,-87"/>
<polygon fill="midnightblue" stroke="midnightblue" points="994.267,-83.5001 984.267,-87 994.267,-90.5001 994.267,-83.5001"/>
</g>
</g>
</svg>
