<?xml version="1.0" encoding="UTF-8" standalone="no"?>
<!DOCTYPE svg PUBLIC "-//W3C//DTD SVG 1.1//EN"
 "http://www.w3.org/Graphics/SVG/1.1/DTD/svg11.dtd">
<!-- Generated by graphviz version 2.32.0 (20130916.1925)
 -->
<!-- Title: TIFFFetchNormalTag Pages: 1 -->
<svg width="1296pt" height="219pt"
 viewBox="0.00 0.00 1296.00 219.00" xmlns="http://www.w3.org/2000/svg" xmlns:xlink="http://www.w3.org/1999/xlink">
<g id="graph0" class="graph" transform="scale(1 1) rotate(0) translate(4 215)">
<title>TIFFFetchNormalTag</title>
<polygon fill="white" stroke="white" points="-4,5 -4,-215 1293,-215 1293,5 -4,5"/>
<!-- Node1 -->
<g id="node1" class="node"><title>Node1</title>
<polygon fill="#bfbfbf" stroke="black" points="-0.231445,-39 -0.231445,-59 110.231,-59 110.231,-39 -0.231445,-39"/>
<text text-anchor="middle" x="55" y="-45" font-family="Helvetica,sans-Serif" font-size="10.00">TIFFFetchNormalTag</text>
</g>
<!-- Node2 -->
<g id="node2" class="node"><title>Node2</title>
<g id="a_node2"><a xlink:href="tif__dirread_8c.html#abc98a039cf0dded7164de706bc8706c0" target="_top" xlink:title="TIFFFetchRefBlackWhite">
<polygon fill="white" stroke="black" points="150.155,-78 150.155,-98 277.845,-98 277.845,-78 150.155,-78"/>
<text text-anchor="middle" x="214" y="-84" font-family="Helvetica,sans-Serif" font-size="10.00">TIFFFetchRefBlackWhite</text>
</a>
</g>
</g>
<!-- Node1&#45;&gt;Node2 -->
<g id="edge1" class="edge"><title>Node1&#45;&gt;Node2</title>
<path fill="none" stroke="midnightblue" d="M106.35,-61.5074C127.803,-66.8365 152.49,-72.9688 172.706,-77.9906"/>
<polygon fill="midnightblue" stroke="midnightblue" points="106.98,-58.0576 96.4314,-59.0435 105.293,-64.8511 106.98,-58.0576"/>
</g>
<!-- Node3 -->
<g id="node3" class="node"><title>Node3</title>
<g id="a_node3"><a xlink:href="tiffio_8h.html#ab5f774a4a20c860a3d28a42e8b7166b4" target="_top" xlink:title="TIFFReadDirectory">
<polygon fill="white" stroke="black" points="329.493,-58 329.493,-78 430.507,-78 430.507,-58 329.493,-58"/>
<text text-anchor="middle" x="380" y="-64" font-family="Helvetica,sans-Serif" font-size="10.00">TIFFReadDirectory</text>
</a>
</g>
</g>
<!-- Node1&#45;&gt;Node3 -->
<g id="edge19" class="edge"><title>Node1&#45;&gt;Node3</title>
<path fill="none" stroke="midnightblue" d="M120.413,-52.789C181.933,-56.4078 273.343,-61.7849 329.392,-65.0819"/>
<polygon fill="midnightblue" stroke="midnightblue" points="120.616,-49.295 110.427,-52.2016 120.204,-56.2829 120.616,-49.295"/>
</g>
<!-- Node18 -->
<g id="node18" class="node"><title>Node18</title>
<g id="a_node18"><a xlink:href="tiffio_8h.html#ab3cb4edaf203fa41478bc4bfc6b227f7" target="_top" xlink:title="TIFFReadCustomDirectory">
<polygon fill="white" stroke="black" points="146.266,-0 146.266,-20 281.734,-20 281.734,-0 146.266,-0"/>
<text text-anchor="middle" x="214" y="-6" font-family="Helvetica,sans-Serif" font-size="10.00">TIFFReadCustomDirectory</text>
</a>
</g>
</g>
<!-- Node1&#45;&gt;Node18 -->
<g id="edge17" class="edge"><title>Node1&#45;&gt;Node18</title>
<path fill="none" stroke="midnightblue" d="M106.35,-36.4926C127.803,-31.1635 152.49,-25.0312 172.706,-20.0094"/>
<polygon fill="midnightblue" stroke="midnightblue" points="105.293,-33.1489 96.4314,-38.9565 106.98,-39.9424 105.293,-33.1489"/>
</g>
<!-- Node2&#45;&gt;Node3 -->
<g id="edge2" class="edge"><title>Node2&#45;&gt;Node3</title>
<path fill="none" stroke="midnightblue" d="M288.051,-79.0914C302.058,-77.3832 316.417,-75.6321 329.468,-74.0405"/>
<polygon fill="midnightblue" stroke="midnightblue" points="287.44,-75.6398 277.938,-80.3247 288.288,-82.5883 287.44,-75.6398"/>
</g>
<!-- Node4 -->
<g id="node4" class="node"><title>Node4</title>
<g id="a_node4"><a xlink:href="tiffio_8h.html#a165611e0432d36de8bcf57f35e161bd3" target="_top" xlink:title="TIFFClientOpen">
<polygon fill="white" stroke="black" points="489.434,-97 489.434,-117 576.566,-117 576.566,-97 489.434,-97"/>
<text text-anchor="middle" x="533" y="-103" font-family="Helvetica,sans-Serif" font-size="10.00">TIFFClientOpen</text>
</a>
</g>
</g>
<!-- Node3&#45;&gt;Node4 -->
<g id="edge3" class="edge"><title>Node3&#45;&gt;Node4</title>
<path fill="none" stroke="midnightblue" d="M429.706,-80.5798C450.274,-85.892 473.89,-91.9915 493.246,-96.9906"/>
<polygon fill="midnightblue" stroke="midnightblue" points="430.444,-77.1555 419.886,-78.0435 428.693,-83.9331 430.444,-77.1555"/>
</g>
<!-- Node16 -->
<g id="node16" class="node"><title>Node16</title>
<g id="a_node16"><a xlink:href="tiffio_8h.html#a58cdb91e8e93b12c8002ade2e4072251" target="_top" xlink:title="TIFFSetDirectory">
<polygon fill="white" stroke="black" points="486.941,-58 486.941,-78 579.059,-78 579.059,-58 486.941,-58"/>
<text text-anchor="middle" x="533" y="-64" font-family="Helvetica,sans-Serif" font-size="10.00">TIFFSetDirectory</text>
</a>
</g>
</g>
<!-- Node3&#45;&gt;Node16 -->
<g id="edge15" class="edge"><title>Node3&#45;&gt;Node16</title>
<path fill="none" stroke="midnightblue" d="M441.211,-68C456.405,-68 472.461,-68 486.777,-68"/>
<polygon fill="midnightblue" stroke="midnightblue" points="440.862,-64.5001 430.862,-68 440.861,-71.5001 440.862,-64.5001"/>
</g>
<!-- Node17 -->
<g id="node17" class="node"><title>Node17</title>
<g id="a_node17"><a xlink:href="tiffio_8h.html#a33628efcd540db4412ec3cd7761c3733" target="_top" xlink:title="TIFFSetSubDirectory">
<polygon fill="white" stroke="black" points="478.044,-19 478.044,-39 587.956,-39 587.956,-19 478.044,-19"/>
<text text-anchor="middle" x="533" y="-25" font-family="Helvetica,sans-Serif" font-size="10.00">TIFFSetSubDirectory</text>
</a>
</g>
</g>
<!-- Node3&#45;&gt;Node17 -->
<g id="edge16" class="edge"><title>Node3&#45;&gt;Node17</title>
<path fill="none" stroke="midnightblue" d="M429.706,-55.4202C450.274,-50.108 473.89,-44.0085 493.246,-39.0094"/>
<polygon fill="midnightblue" stroke="midnightblue" points="428.693,-52.0669 419.886,-57.9565 430.444,-58.8445 428.693,-52.0669"/>
</g>
<!-- Node5 -->
<g id="node5" class="node"><title>Node5</title>
<g id="a_node5"><a xlink:href="tiffio_8h.html#adca230876d2f7fdec1ff6c7fdb7898a8" target="_top" xlink:title="TIFFFdOpen">
<polygon fill="white" stroke="black" points="624.382,-97 624.382,-117 697.618,-117 697.618,-97 624.382,-97"/>
<text text-anchor="middle" x="661" y="-103" font-family="Helvetica,sans-Serif" font-size="10.00">TIFFFdOpen</text>
</a>
</g>
</g>
<!-- Node4&#45;&gt;Node5 -->
<g id="edge4" class="edge"><title>Node4&#45;&gt;Node5</title>
<path fill="none" stroke="midnightblue" d="M586.995,-107C599.505,-107 612.555,-107 624.104,-107"/>
<polygon fill="midnightblue" stroke="midnightblue" points="586.658,-103.5 576.658,-107 586.658,-110.5 586.658,-103.5"/>
</g>
<!-- Node6 -->
<g id="node6" class="node"><title>Node6</title>
<g id="a_node6"><a xlink:href="tiffio_8h.html#ac3dd18826e617eb451c74f33a32fcb10" target="_top" xlink:title="TIFFOpen">
<polygon fill="white" stroke="black" points="734.217,-97 734.217,-117 795.783,-117 795.783,-97 734.217,-97"/>
<text text-anchor="middle" x="765" y="-103" font-family="Helvetica,sans-Serif" font-size="10.00">TIFFOpen</text>
</a>
</g>
</g>
<!-- Node5&#45;&gt;Node6 -->
<g id="edge5" class="edge"><title>Node5&#45;&gt;Node6</title>
<path fill="none" stroke="midnightblue" d="M707.884,-107C716.716,-107 725.755,-107 733.927,-107"/>
<polygon fill="midnightblue" stroke="midnightblue" points="707.675,-103.5 697.675,-107 707.675,-110.5 707.675,-103.5"/>
</g>
<!-- Node7 -->
<g id="node7" class="node"><title>Node7</title>
<g id="a_node7"><a xlink:href="class_t_i_f_f_reader_internal.html#adc7888a9bc3fe28248b49b8b204ae8ae" target="_top" xlink:title="TIFFReaderInternal\l::Open">
<polygon fill="white" stroke="black" points="832.372,-136 832.372,-168 935.628,-168 935.628,-136 832.372,-136"/>
<text text-anchor="start" x="840.372" y="-154" font-family="Helvetica,sans-Serif" font-size="10.00">TIFFReaderInternal</text>
<text text-anchor="middle" x="884" y="-142" font-family="Helvetica,sans-Serif" font-size="10.00">::Open</text>
</a>
</g>
</g>
<!-- Node6&#45;&gt;Node7 -->
<g id="edge6" class="edge"><title>Node6&#45;&gt;Node7</title>
<path fill="none" stroke="midnightblue" d="M801.835,-120.783C814.277,-125.568 828.336,-130.975 841.216,-135.929"/>
<polygon fill="midnightblue" stroke="midnightblue" points="802.847,-117.422 792.257,-117.099 800.334,-123.955 802.847,-117.422"/>
</g>
<!-- Node11 -->
<g id="node11" class="node"><title>Node11</title>
<g id="a_node11"><a xlink:href="classrc_window.html#adf6ca47beb76a8bfdc73369f80dd003d" target="_top" xlink:title="rcWindow::tiff">
<polygon fill="white" stroke="black" points="846.083,-75 846.083,-95 921.917,-95 921.917,-75 846.083,-75"/>
<text text-anchor="middle" x="884" y="-81" font-family="Helvetica,sans-Serif" font-size="10.00">rcWindow::tiff</text>
</a>
</g>
</g>
<!-- Node6&#45;&gt;Node11 -->
<g id="edge10" class="edge"><title>Node6&#45;&gt;Node11</title>
<path fill="none" stroke="midnightblue" d="M805.824,-99.5117C818.721,-97.0866 832.971,-94.4072 845.679,-92.0176"/>
<polygon fill="midnightblue" stroke="midnightblue" points="805.008,-96.1038 795.827,-101.392 806.301,-102.983 805.008,-96.1038"/>
</g>
<!-- Node8 -->
<g id="node8" class="node"><title>Node8</title>
<g id="a_node8"><a xlink:href="class_t_i_f_f_image_i_o.html#abec0d00f473debbd9d05f5a0e4820402" target="_top" xlink:title="TIFFImageIO::CanReadFile">
<polygon fill="white" stroke="black" points="975.313,-154 975.313,-174 1114.69,-174 1114.69,-154 975.313,-154"/>
<text text-anchor="middle" x="1045" y="-160" font-family="Helvetica,sans-Serif" font-size="10.00">TIFFImageIO::CanReadFile</text>
</a>
</g>
</g>
<!-- Node7&#45;&gt;Node8 -->
<g id="edge7" class="edge"><title>Node7&#45;&gt;Node8</title>
<path fill="none" stroke="midnightblue" d="M945.945,-156.6C955.508,-157.321 965.451,-158.072 975.176,-158.806"/>
<polygon fill="midnightblue" stroke="midnightblue" points="945.981,-153.092 935.746,-155.83 945.454,-160.073 945.981,-153.092"/>
</g>
<!-- Node9 -->
<g id="node9" class="node"><title>Node9</title>
<g id="a_node9"><a xlink:href="classrc_engine_impl.html#ac0162da8fe4f677ad6f3d04a465d50f0" target="_top" xlink:title="rcEngineImpl::loadMovie">
<polygon fill="white" stroke="black" points="1158.25,-190 1158.25,-210 1283.75,-210 1283.75,-190 1158.25,-190"/>
<text text-anchor="middle" x="1221" y="-196" font-family="Helvetica,sans-Serif" font-size="10.00">rcEngineImpl::loadMovie</text>
</a>
</g>
</g>
<!-- Node8&#45;&gt;Node9 -->
<g id="edge8" class="edge"><title>Node8&#45;&gt;Node9</title>
<path fill="none" stroke="midnightblue" d="M1104.28,-176.058C1126.1,-180.573 1150.64,-185.65 1171.49,-189.963"/>
<polygon fill="midnightblue" stroke="midnightblue" points="1104.97,-172.627 1094.47,-174.028 1103.55,-179.482 1104.97,-172.627"/>
</g>
<!-- Node10 -->
<g id="node10" class="node"><title>Node10</title>
<g id="a_node10"><a xlink:href="classrc_window.html#a5da06176e6878b676bbc534db6b09b7d" target="_top" xlink:title="rcWindow::rcWindow">
<polygon fill="white" stroke="black" points="1166.33,-151 1166.33,-171 1275.67,-171 1275.67,-151 1166.33,-151"/>
<text text-anchor="middle" x="1221" y="-157" font-family="Helvetica,sans-Serif" font-size="10.00">rcWindow::rcWindow</text>
</a>
</g>
</g>
<!-- Node8&#45;&gt;Node10 -->
<g id="edge9" class="edge"><title>Node8&#45;&gt;Node10</title>
<path fill="none" stroke="midnightblue" d="M1124.88,-162.64C1138.86,-162.399 1153.13,-162.153 1166.21,-161.927"/>
<polygon fill="midnightblue" stroke="midnightblue" points="1124.71,-159.142 1114.77,-162.814 1124.83,-166.141 1124.71,-159.142"/>
</g>
<!-- Node12 -->
<g id="node12" class="node"><title>Node12</title>
<g id="a_node12"><a xlink:href="classrc_visual_function.html#a1df64c3605f3a0a4670118911ac783b1" target="_top" xlink:title="rcVisualFunction::cardiac\lMeasure">
<polygon fill="white" stroke="black" points="981.231,-103 981.231,-135 1108.77,-135 1108.77,-103 981.231,-103"/>
<text text-anchor="start" x="989.231" y="-121" font-family="Helvetica,sans-Serif" font-size="10.00">rcVisualFunction::cardiac</text>
<text text-anchor="middle" x="1045" y="-109" font-family="Helvetica,sans-Serif" font-size="10.00">Measure</text>
</a>
</g>
</g>
<!-- Node11&#45;&gt;Node12 -->
<g id="edge11" class="edge"><title>Node11&#45;&gt;Node12</title>
<path fill="none" stroke="midnightblue" d="M932.072,-95.0657C947.45,-98.3541 964.782,-102.06 981.131,-105.556"/>
<polygon fill="midnightblue" stroke="midnightblue" points="932.789,-91.64 922.278,-92.9715 931.325,-98.4853 932.789,-91.64"/>
</g>
<!-- Node14 -->
<g id="node14" class="node"><title>Node14</title>
<g id="a_node14"><a xlink:href="classrc_engine_impl.html#a00ca0d227e480ddb5bd6be293b55d2c9" target="_top" xlink:title="rcEngineImpl::muscleTracker">
<polygon fill="white" stroke="black" points="972.442,-64 972.442,-84 1117.56,-84 1117.56,-64 972.442,-64"/>
<text text-anchor="middle" x="1045" y="-70" font-family="Helvetica,sans-Serif" font-size="10.00">rcEngineImpl::muscleTracker</text>
</a>
</g>
</g>
<!-- Node11&#45;&gt;Node14 -->
<g id="edge13" class="edge"><title>Node11&#45;&gt;Node14</title>
<path fill="none" stroke="midnightblue" d="M932.466,-81.7162C944.991,-80.8496 958.791,-79.8949 972.289,-78.9612"/>
<polygon fill="midnightblue" stroke="midnightblue" points="932.013,-78.2391 922.278,-82.421 932.496,-85.2224 932.013,-78.2391"/>
</g>
<!-- Node15 -->
<g id="node15" class="node"><title>Node15</title>
<g id="a_node15"><a xlink:href="rc__edge_8h.html#a11fbb1eb0376dd39a4be2ea72b7ef156" target="_top" xlink:title="rfDirectionSignal">
<polygon fill="white" stroke="black" points="1000.32,-25 1000.32,-45 1089.68,-45 1089.68,-25 1000.32,-25"/>
<text text-anchor="middle" x="1045" y="-31" font-family="Helvetica,sans-Serif" font-size="10.00">rfDirectionSignal</text>
</a>
</g>
</g>
<!-- Node11&#45;&gt;Node15 -->
<g id="edge14" class="edge"><title>Node11&#45;&gt;Node15</title>
<path fill="none" stroke="midnightblue" d="M921.207,-71.3285C936.745,-65.6626 955.163,-59.2112 972,-54 982.127,-50.8657 993.154,-47.7899 1003.46,-45.0567"/>
<polygon fill="midnightblue" stroke="midnightblue" points="919.634,-68.178 911.459,-74.9173 922.052,-74.747 919.634,-68.178"/>
</g>
<!-- Node13 -->
<g id="node13" class="node"><title>Node13</title>
<g id="a_node13"><a xlink:href="classrc_visual_function.html#ac3135ba614a9ba5080e78c3f2f426312" target="_top" xlink:title="rcVisualFunction::measure">
<polygon fill="white" stroke="black" points="1153.9,-109 1153.9,-129 1288.1,-129 1288.1,-109 1153.9,-109"/>
<text text-anchor="middle" x="1221" y="-115" font-family="Helvetica,sans-Serif" font-size="10.00">rcVisualFunction::measure</text>
</a>
</g>
</g>
<!-- Node12&#45;&gt;Node13 -->
<g id="edge12" class="edge"><title>Node12&#45;&gt;Node13</title>
<path fill="none" stroke="midnightblue" d="M1118.87,-119C1130.44,-119 1142.35,-119 1153.75,-119"/>
<polygon fill="midnightblue" stroke="midnightblue" points="1118.82,-115.5 1108.82,-119 1118.82,-122.5 1118.82,-115.5"/>
</g>
<!-- Node19 -->
<g id="node19" class="node"><title>Node19</title>
<g id="a_node19"><a xlink:href="tiffio_8h.html#a8e1741c4dfa13bbb8432aaab1fc269e8" target="_top" xlink:title="TIFFReadEXIFDirectory">
<polygon fill="white" stroke="black" points="318.379,-0 318.379,-20 441.621,-20 441.621,-0 318.379,-0"/>
<text text-anchor="middle" x="380" y="-6" font-family="Helvetica,sans-Serif" font-size="10.00">TIFFReadEXIFDirectory</text>
</a>
</g>
</g>
<!-- Node18&#45;&gt;Node19 -->
<g id="edge18" class="edge"><title>Node18&#45;&gt;Node19</title>
<path fill="none" stroke="midnightblue" d="M292.334,-10C301.032,-10 309.801,-10 318.246,-10"/>
<polygon fill="midnightblue" stroke="midnightblue" points="292.178,-6.5001 282.178,-10 292.178,-13.5001 292.178,-6.5001"/>
</g>
</g>
</svg>
