<?xml version="1.0" encoding="UTF-8" standalone="no"?>
<!DOCTYPE svg PUBLIC "-//W3C//DTD SVG 1.1//EN"
 "http://www.w3.org/Graphics/SVG/1.1/DTD/svg11.dtd">
<!-- Generated by graphviz version 2.32.0 (20130916.1925)
 -->
<!-- Title: TIFFNumberOfDirectories Pages: 1 -->
<svg width="414pt" height="145pt"
 viewBox="0.00 0.00 414.00 145.00" xmlns="http://www.w3.org/2000/svg" xmlns:xlink="http://www.w3.org/1999/xlink">
<g id="graph0" class="graph" transform="scale(1 1) rotate(0) translate(4 141)">
<title>TIFFNumberOfDirectories</title>
<polygon fill="white" stroke="white" points="-4,5 -4,-141 411,-141 411,5 -4,5"/>
<!-- Node1 -->
<g id="node1" class="node"><title>Node1</title>
<polygon fill="#bfbfbf" stroke="black" points="0.492676,-58 0.492676,-78 131.507,-78 131.507,-58 0.492676,-58"/>
<text text-anchor="middle" x="66" y="-64" font-family="Helvetica,sans-Serif" font-size="10.00">TIFFNumberOfDirectories</text>
</g>
<!-- Node2 -->
<g id="node2" class="node"><title>Node2</title>
<g id="a_node2"><a xlink:href="tif__dir_8c.html#aee1ccb8c1894edf32c7e236a92390ee2" target="_top" xlink:title="TIFFAdvanceDirectory">
<polygon fill="white" stroke="black" points="168.261,-58 168.261,-78 283.739,-78 283.739,-58 168.261,-58"/>
<text text-anchor="middle" x="226" y="-64" font-family="Helvetica,sans-Serif" font-size="10.00">TIFFAdvanceDirectory</text>
</a>
</g>
</g>
<!-- Node1&#45;&gt;Node2 -->
<g id="edge1" class="edge"><title>Node1&#45;&gt;Node2</title>
<path fill="none" stroke="midnightblue" d="M131.721,-68C140.419,-68 149.355,-68 158.09,-68"/>
<polygon fill="midnightblue" stroke="midnightblue" points="158.225,-71.5001 168.225,-68 158.225,-64.5001 158.225,-71.5001"/>
</g>
<!-- Node3 -->
<g id="node3" class="node"><title>Node3</title>
<g id="a_node3"><a xlink:href="tif__apple_8c.html#aacf23567597faf7b8f01f31f397217f0" target="_top" xlink:title="_TIFFmemcpy">
<polygon fill="white" stroke="black" points="322.776,-117 322.776,-137 403.224,-137 403.224,-117 322.776,-117"/>
<text text-anchor="middle" x="363" y="-123" font-family="Helvetica,sans-Serif" font-size="10.00">_TIFFmemcpy</text>
</a>
</g>
</g>
<!-- Node2&#45;&gt;Node3 -->
<g id="edge2" class="edge"><title>Node2&#45;&gt;Node3</title>
<path fill="none" stroke="midnightblue" d="M249.901,-78.0085C271.817,-87.5865 305.086,-102.126 329.692,-112.88"/>
<polygon fill="midnightblue" stroke="midnightblue" points="328.422,-116.145 338.987,-116.942 331.225,-109.731 328.422,-116.145"/>
</g>
<!-- Node4 -->
<g id="node4" class="node"><title>Node4</title>
<g id="a_node4"><a xlink:href="tif__error_8c.html#a2e8b77a2d4e7b7283b55b963dd67ec31" target="_top" xlink:title="TIFFErrorExt">
<polygon fill="white" stroke="black" points="326.113,-78 326.113,-98 399.887,-98 399.887,-78 326.113,-78"/>
<text text-anchor="middle" x="363" y="-84" font-family="Helvetica,sans-Serif" font-size="10.00">TIFFErrorExt</text>
</a>
</g>
</g>
<!-- Node2&#45;&gt;Node4 -->
<g id="edge3" class="edge"><title>Node2&#45;&gt;Node4</title>
<path fill="none" stroke="midnightblue" d="M283.861,-76.4238C294.562,-78.0091 305.629,-79.6487 315.949,-81.1776"/>
<polygon fill="midnightblue" stroke="midnightblue" points="315.574,-84.6602 325.979,-82.6636 316.6,-77.7358 315.574,-84.6602"/>
</g>
<!-- Node5 -->
<g id="node5" class="node"><title>Node5</title>
<g id="a_node5"><a xlink:href="tif__swab_8c.html#a26e1c7bc0c475467d88fc9d0f5f91247" target="_top" xlink:title="TIFFSwabLong">
<polygon fill="white" stroke="black" points="320.818,-39 320.818,-59 405.182,-59 405.182,-39 320.818,-39"/>
<text text-anchor="middle" x="363" y="-45" font-family="Helvetica,sans-Serif" font-size="10.00">TIFFSwabLong</text>
</a>
</g>
</g>
<!-- Node2&#45;&gt;Node5 -->
<g id="edge4" class="edge"><title>Node2&#45;&gt;Node5</title>
<path fill="none" stroke="midnightblue" d="M283.861,-59.9974C292.769,-58.7436 301.931,-57.4541 310.705,-56.2193"/>
<polygon fill="midnightblue" stroke="midnightblue" points="311.373,-59.6598 320.788,-54.8002 310.398,-52.7281 311.373,-59.6598"/>
</g>
<!-- Node6 -->
<g id="node6" class="node"><title>Node6</title>
<g id="a_node6"><a xlink:href="tif__swab_8c.html#a859450f1976e5192f9098261b63020ea" target="_top" xlink:title="TIFFSwabShort">
<polygon fill="white" stroke="black" points="319.99,-0 319.99,-20 406.01,-20 406.01,-0 319.99,-0"/>
<text text-anchor="middle" x="363" y="-6" font-family="Helvetica,sans-Serif" font-size="10.00">TIFFSwabShort</text>
</a>
</g>
</g>
<!-- Node2&#45;&gt;Node6 -->
<g id="edge5" class="edge"><title>Node2&#45;&gt;Node6</title>
<path fill="none" stroke="midnightblue" d="M250.515,-57.8972C272.256,-48.5565 304.781,-34.5831 329.096,-24.1363"/>
<polygon fill="midnightblue" stroke="midnightblue" points="330.495,-27.3449 338.301,-20.1817 327.732,-20.9133 330.495,-27.3449"/>
</g>
</g>
</svg>
