<?xml version="1.0" encoding="UTF-8" standalone="no"?>
<!DOCTYPE svg PUBLIC "-//W3C//DTD SVG 1.1//EN"
 "http://www.w3.org/Graphics/SVG/1.1/DTD/svg11.dtd">
<!-- Generated by graphviz version 2.32.0 (20130916.1925)
 -->
<!-- Title: TIFFFetchRational Pages: 1 -->
<svg width="656pt" height="281pt"
 viewBox="0.00 0.00 656.00 281.00" xmlns="http://www.w3.org/2000/svg" xmlns:xlink="http://www.w3.org/1999/xlink">
<g id="graph0" class="graph" transform="scale(1 1) rotate(0) translate(4 277)">
<title>TIFFFetchRational</title>
<polygon fill="white" stroke="white" points="-4,5 -4,-277 653,-277 653,5 -4,5"/>
<!-- Node1 -->
<g id="node1" class="node"><title>Node1</title>
<polygon fill="#bfbfbf" stroke="black" points="0.598633,-194 0.598633,-214 99.4014,-214 99.4014,-194 0.598633,-194"/>
<text text-anchor="middle" x="50" y="-200" font-family="Helvetica,sans-Serif" font-size="10.00">TIFFFetchRational</text>
</g>
<!-- Node2 -->
<g id="node2" class="node"><title>Node2</title>
<g id="a_node2"><a xlink:href="tif__dirread_8c.html#abdb0a593f75922d660cf8cbd8bd2547c" target="_top" xlink:title="cvtRational">
<polygon fill="white" stroke="black" points="145.266,-234 145.266,-254 210.734,-254 210.734,-234 145.266,-234"/>
<text text-anchor="middle" x="178" y="-240" font-family="Helvetica,sans-Serif" font-size="10.00">cvtRational</text>
</a>
</g>
</g>
<!-- Node1&#45;&gt;Node2 -->
<g id="edge1" class="edge"><title>Node1&#45;&gt;Node2</title>
<path fill="none" stroke="midnightblue" d="M82.7951,-214.094C98.7621,-219.163 118.307,-225.367 135.447,-230.808"/>
<polygon fill="midnightblue" stroke="midnightblue" points="134.625,-234.22 145.215,-233.91 136.743,-227.548 134.625,-234.22"/>
</g>
<!-- Node7 -->
<g id="node7" class="node"><title>Node7</title>
<g id="a_node7"><a xlink:href="tif__dirread_8c.html#a3a8b2608359688b663203e53c5b85f57" target="_top" xlink:title="TIFFFetchData">
<polygon fill="white" stroke="black" points="136.382,-136 136.382,-156 219.618,-156 219.618,-136 136.382,-136"/>
<text text-anchor="middle" x="178" y="-142" font-family="Helvetica,sans-Serif" font-size="10.00">TIFFFetchData</text>
</a>
</g>
</g>
<!-- Node1&#45;&gt;Node7 -->
<g id="edge7" class="edge"><title>Node1&#45;&gt;Node7</title>
<path fill="none" stroke="midnightblue" d="M72.9475,-193.897C93.0598,-184.639 123.059,-170.83 145.686,-160.415"/>
<polygon fill="midnightblue" stroke="midnightblue" points="147.261,-163.542 154.881,-156.182 144.334,-157.184 147.261,-163.542"/>
</g>
<!-- Node3 -->
<g id="node3" class="node"><title>Node3</title>
<g id="a_node3"><a xlink:href="tif__dirinfo_8c.html#a30adfafbd54d531b3343751e2362dafe" target="_top" xlink:title="_TIFFFieldWithTag">
<polygon fill="white" stroke="black" points="269.769,-234 269.769,-254 370.231,-254 370.231,-234 269.769,-234"/>
<text text-anchor="middle" x="320" y="-240" font-family="Helvetica,sans-Serif" font-size="10.00">_TIFFFieldWithTag</text>
</a>
</g>
</g>
<!-- Node2&#45;&gt;Node3 -->
<g id="edge2" class="edge"><title>Node2&#45;&gt;Node3</title>
<path fill="none" stroke="midnightblue" d="M210.768,-244C225.132,-244 242.594,-244 259.263,-244"/>
<polygon fill="midnightblue" stroke="midnightblue" points="259.504,-247.5 269.504,-244 259.504,-240.5 259.504,-247.5"/>
</g>
<!-- Node6 -->
<g id="node6" class="node"><title>Node6</title>
<g id="a_node6"><a xlink:href="tif__error_8c.html#a2e8b77a2d4e7b7283b55b963dd67ec31" target="_top" xlink:title="TIFFErrorExt">
<polygon fill="white" stroke="black" points="443.113,-214 443.113,-234 516.887,-234 516.887,-214 443.113,-214"/>
<text text-anchor="middle" x="480" y="-220" font-family="Helvetica,sans-Serif" font-size="10.00">TIFFErrorExt</text>
</a>
</g>
</g>
<!-- Node2&#45;&gt;Node6 -->
<g id="edge6" class="edge"><title>Node2&#45;&gt;Node6</title>
<path fill="none" stroke="midnightblue" d="M210.746,-253.385C251.461,-263.963 323.979,-277.867 384,-263 401.561,-258.65 403.381,-251.149 420,-244 425.346,-241.7 431.052,-239.484 436.73,-237.417"/>
<polygon fill="midnightblue" stroke="midnightblue" points="437.917,-240.71 446.19,-234.092 435.596,-234.106 437.917,-240.71"/>
</g>
<!-- Node4 -->
<g id="node4" class="node"><title>Node4</title>
<g id="a_node4"><a xlink:href="tif__dirinfo_8c.html#a3317560b966ff5f4b7e378e8c6ca936a" target="_top" xlink:title="_TIFFFindFieldInfo">
<polygon fill="white" stroke="black" points="429.764,-253 429.764,-273 530.236,-273 530.236,-253 429.764,-253"/>
<text text-anchor="middle" x="480" y="-259" font-family="Helvetica,sans-Serif" font-size="10.00">_TIFFFindFieldInfo</text>
</a>
</g>
</g>
<!-- Node3&#45;&gt;Node4 -->
<g id="edge3" class="edge"><title>Node3&#45;&gt;Node4</title>
<path fill="none" stroke="midnightblue" d="M370.559,-249.96C386,-251.816 403.193,-253.884 419.255,-255.815"/>
<polygon fill="midnightblue" stroke="midnightblue" points="419.271,-259.343 429.617,-257.062 420.107,-252.393 419.271,-259.343"/>
</g>
<!-- Node3&#45;&gt;Node6 -->
<g id="edge5" class="edge"><title>Node3&#45;&gt;Node6</title>
<path fill="none" stroke="midnightblue" d="M370.559,-237.727C390.351,-235.221 413.02,-232.352 432.497,-229.886"/>
<polygon fill="midnightblue" stroke="midnightblue" points="433.173,-233.329 442.654,-228.601 432.294,-226.384 433.173,-233.329"/>
</g>
<!-- Node5 -->
<g id="node5" class="node"><title>Node5</title>
<g id="a_node5"><a xlink:href="tif__dirinfo_8c.html#a365ced53b43ae215e93968db3ef3a29e" target="_top" xlink:title="tagCompare">
<polygon fill="white" stroke="black" points="576.485,-253 576.485,-273 647.515,-273 647.515,-253 576.485,-253"/>
<text text-anchor="middle" x="612" y="-259" font-family="Helvetica,sans-Serif" font-size="10.00">tagCompare</text>
</a>
</g>
</g>
<!-- Node4&#45;&gt;Node5 -->
<g id="edge4" class="edge"><title>Node4&#45;&gt;Node5</title>
<path fill="none" stroke="midnightblue" d="M530.518,-263C542.165,-263 554.515,-263 565.953,-263"/>
<polygon fill="midnightblue" stroke="midnightblue" points="566.154,-266.5 576.154,-263 566.154,-259.5 566.154,-266.5"/>
</g>
<!-- Node7&#45;&gt;Node3 -->
<g id="edge8" class="edge"><title>Node7&#45;&gt;Node3</title>
<path fill="none" stroke="midnightblue" d="M187.499,-156.25C200.746,-171.673 227.743,-200.958 256,-219 262.625,-223.23 270.082,-226.955 277.485,-230.15"/>
<polygon fill="midnightblue" stroke="midnightblue" points="276.186,-233.399 286.768,-233.912 278.815,-226.912 276.186,-233.399"/>
</g>
<!-- Node7&#45;&gt;Node6 -->
<g id="edge11" class="edge"><title>Node7&#45;&gt;Node6</title>
<path fill="none" stroke="midnightblue" d="M195.502,-156.173C210.685,-165.085 234.102,-177.719 256,-185 315.34,-204.729 387.058,-214.999 432.847,-219.947"/>
<polygon fill="midnightblue" stroke="midnightblue" points="432.749,-223.456 443.057,-221.009 433.472,-216.493 432.749,-223.456"/>
</g>
<!-- Node8 -->
<g id="node8" class="node"><title>Node8</title>
<g id="a_node8"><a xlink:href="tif__apple_8c.html#aacf23567597faf7b8f01f31f397217f0" target="_top" xlink:title="_TIFFmemcpy">
<polygon fill="white" stroke="black" points="279.776,-156 279.776,-176 360.224,-176 360.224,-156 279.776,-156"/>
<text text-anchor="middle" x="320" y="-162" font-family="Helvetica,sans-Serif" font-size="10.00">_TIFFmemcpy</text>
</a>
</g>
</g>
<!-- Node7&#45;&gt;Node8 -->
<g id="edge9" class="edge"><title>Node7&#45;&gt;Node8</title>
<path fill="none" stroke="midnightblue" d="M219.87,-151.839C235.51,-154.073 253.511,-156.644 269.846,-158.978"/>
<polygon fill="midnightblue" stroke="midnightblue" points="269.371,-162.446 279.765,-160.395 270.361,-155.516 269.371,-162.446"/>
</g>
<!-- Node9 -->
<g id="node9" class="node"><title>Node9</title>
<g id="a_node9"><a xlink:href="tif__dirinfo_8c.html#a2e6382d04dbf3af83901b2f032fa98e7" target="_top" xlink:title="TIFFDataWidth">
<polygon fill="white" stroke="black" points="278.106,-78 278.106,-98 361.894,-98 361.894,-78 278.106,-78"/>
<text text-anchor="middle" x="320" y="-84" font-family="Helvetica,sans-Serif" font-size="10.00">TIFFDataWidth</text>
</a>
</g>
</g>
<!-- Node7&#45;&gt;Node9 -->
<g id="edge10" class="edge"><title>Node7&#45;&gt;Node9</title>
<path fill="none" stroke="midnightblue" d="M196.633,-135.944C211.979,-127.469 234.994,-115.411 256,-107 261.104,-104.956 266.515,-103.01 271.938,-101.195"/>
<polygon fill="midnightblue" stroke="midnightblue" points="273.194,-104.468 281.648,-98.0812 271.056,-97.8027 273.194,-104.468"/>
</g>
<!-- Node10 -->
<g id="node10" class="node"><title>Node10</title>
<g id="a_node10"><a xlink:href="tif__swab_8c.html#a1cb63e1ce5f2a4895038fc97d9a28bcf" target="_top" xlink:title="TIFFSwabArrayOfDouble">
<polygon fill="white" stroke="black" points="255.872,-117 255.872,-137 384.128,-137 384.128,-117 255.872,-117"/>
<text text-anchor="middle" x="320" y="-123" font-family="Helvetica,sans-Serif" font-size="10.00">TIFFSwabArrayOfDouble</text>
</a>
</g>
</g>
<!-- Node7&#45;&gt;Node10 -->
<g id="edge12" class="edge"><title>Node7&#45;&gt;Node10</title>
<path fill="none" stroke="midnightblue" d="M219.87,-140.453C228.021,-139.347 236.813,-138.154 245.677,-136.951"/>
<polygon fill="midnightblue" stroke="midnightblue" points="246.246,-140.406 255.684,-135.593 245.304,-133.47 246.246,-140.406"/>
</g>
<!-- Node11 -->
<g id="node11" class="node"><title>Node11</title>
<g id="a_node11"><a xlink:href="tif__swab_8c.html#ada2d5ffd72c625fdfe338b9ac985197f" target="_top" xlink:title="TIFFSwabArrayOfLong">
<polygon fill="white" stroke="black" points="420.594,-78 420.594,-98 539.406,-98 539.406,-78 420.594,-78"/>
<text text-anchor="middle" x="480" y="-84" font-family="Helvetica,sans-Serif" font-size="10.00">TIFFSwabArrayOfLong</text>
</a>
</g>
</g>
<!-- Node7&#45;&gt;Node11 -->
<g id="edge14" class="edge"><title>Node7&#45;&gt;Node11</title>
<path fill="none" stroke="midnightblue" d="M185.064,-135.9C196.385,-118.155 222.643,-81.9432 256,-68 317.849,-42.1471 397.569,-60.2027 443.014,-74.7405"/>
<polygon fill="midnightblue" stroke="midnightblue" points="442.121,-78.1317 452.714,-77.9581 444.325,-71.4877 442.121,-78.1317"/>
</g>
<!-- Node12 -->
<g id="node12" class="node"><title>Node12</title>
<g id="a_node12"><a xlink:href="tif__swab_8c.html#af432e2c4c57173790c3ee3d6f0244871" target="_top" xlink:title="TIFFSwabArrayOfShort">
<polygon fill="white" stroke="black" points="259.766,-0 259.766,-20 380.234,-20 380.234,-0 259.766,-0"/>
<text text-anchor="middle" x="320" y="-6" font-family="Helvetica,sans-Serif" font-size="10.00">TIFFSwabArrayOfShort</text>
</a>
</g>
</g>
<!-- Node7&#45;&gt;Node12 -->
<g id="edge15" class="edge"><title>Node7&#45;&gt;Node12</title>
<path fill="none" stroke="midnightblue" d="M183.466,-135.935C193.458,-114.485 219.631,-63.8753 256,-35 261.325,-30.7722 267.456,-27.1793 273.757,-24.1501"/>
<polygon fill="midnightblue" stroke="midnightblue" points="275.268,-27.3098 283.038,-20.107 272.472,-20.8923 275.268,-27.3098"/>
</g>
<!-- Node10&#45;&gt;Node11 -->
<g id="edge13" class="edge"><title>Node10&#45;&gt;Node11</title>
<path fill="none" stroke="midnightblue" d="M361.689,-116.957C382.054,-111.93 406.9,-105.797 428.475,-100.471"/>
<polygon fill="midnightblue" stroke="midnightblue" points="429.579,-103.804 438.449,-98.0094 427.902,-97.0079 429.579,-103.804"/>
</g>
</g>
</svg>
