<?xml version="1.0" encoding="UTF-8" standalone="no"?>
<!DOCTYPE svg PUBLIC "-//W3C//DTD SVG 1.1//EN"
 "http://www.w3.org/Graphics/SVG/1.1/DTD/svg11.dtd">
<!-- Generated by graphviz version 2.32.0 (20130916.1925)
 -->
<!-- Title: TIFFVTileSize Pages: 1 -->
<svg width="1420pt" height="305pt"
 viewBox="0.00 0.00 1420.00 305.00" xmlns="http://www.w3.org/2000/svg" xmlns:xlink="http://www.w3.org/1999/xlink">
<g id="graph0" class="graph" transform="scale(1 1) rotate(0) translate(4 301)">
<title>TIFFVTileSize</title>
<polygon fill="white" stroke="white" points="-4,5 -4,-301 1417,-301 1417,5 -4,5"/>
<!-- Node1 -->
<g id="node1" class="node"><title>Node1</title>
<polygon fill="#bfbfbf" stroke="black" points="0.513184,-94 0.513184,-114 79.4868,-114 79.4868,-94 0.513184,-94"/>
<text text-anchor="middle" x="40" y="-100" font-family="Helvetica,sans-Serif" font-size="10.00">TIFFVTileSize</text>
</g>
<!-- Node2 -->
<g id="node2" class="node"><title>Node2</title>
<g id="a_node2"><a xlink:href="tif__dirread_8c.html#a5dabf5de7c059c06db92bbd2f525d714" target="_top" xlink:title="ChopUpSingleUncompressed\lStrip">
<polygon fill="white" stroke="black" points="116.131,-111 116.131,-143 263.869,-143 263.869,-111 116.131,-111"/>
<text text-anchor="start" x="124.131" y="-129" font-family="Helvetica,sans-Serif" font-size="10.00">ChopUpSingleUncompressed</text>
<text text-anchor="middle" x="190" y="-117" font-family="Helvetica,sans-Serif" font-size="10.00">Strip</text>
</a>
</g>
</g>
<!-- Node1&#45;&gt;Node2 -->
<g id="edge1" class="edge"><title>Node1&#45;&gt;Node2</title>
<path fill="none" stroke="midnightblue" d="M89.551,-111.545C98.0271,-112.862 107.01,-114.258 115.975,-115.651"/>
<polygon fill="midnightblue" stroke="midnightblue" points="89.9178,-108.06 79.4989,-109.983 88.8428,-114.977 89.9178,-108.06"/>
</g>
<!-- Node18 -->
<g id="node18" class="node"><title>Node18</title>
<g id="a_node18"><a xlink:href="tiffio_8h.html#a0de6b0f847d144783fee953289ee219d" target="_top" xlink:title="TIFFTileSize">
<polygon fill="white" stroke="black" points="153.848,-72 153.848,-92 226.152,-92 226.152,-72 153.848,-72"/>
<text text-anchor="middle" x="190" y="-78" font-family="Helvetica,sans-Serif" font-size="10.00">TIFFTileSize</text>
</a>
</g>
</g>
<!-- Node1&#45;&gt;Node18 -->
<g id="edge17" class="edge"><title>Node1&#45;&gt;Node18</title>
<path fill="none" stroke="midnightblue" d="M89.5019,-96.7903C110.458,-93.6752 134.522,-90.098 153.735,-87.242"/>
<polygon fill="midnightblue" stroke="midnightblue" points="88.8756,-93.3448 79.4989,-98.2772 89.9049,-100.269 88.8756,-93.3448"/>
</g>
<!-- Node3 -->
<g id="node3" class="node"><title>Node3</title>
<g id="a_node3"><a xlink:href="tiffio_8h.html#ab5f774a4a20c860a3d28a42e8b7166b4" target="_top" xlink:title="TIFFReadDirectory">
<polygon fill="white" stroke="black" points="300.493,-117 300.493,-137 401.507,-137 401.507,-117 300.493,-117"/>
<text text-anchor="middle" x="351" y="-123" font-family="Helvetica,sans-Serif" font-size="10.00">TIFFReadDirectory</text>
</a>
</g>
</g>
<!-- Node2&#45;&gt;Node3 -->
<g id="edge2" class="edge"><title>Node2&#45;&gt;Node3</title>
<path fill="none" stroke="midnightblue" d="M274.053,-127C282.969,-127 291.825,-127 300.172,-127"/>
<polygon fill="midnightblue" stroke="midnightblue" points="273.985,-123.5 263.985,-127 273.985,-130.5 273.985,-123.5"/>
</g>
<!-- Node4 -->
<g id="node4" class="node"><title>Node4</title>
<g id="a_node4"><a xlink:href="tiffio_8h.html#a165611e0432d36de8bcf57f35e161bd3" target="_top" xlink:title="TIFFClientOpen">
<polygon fill="white" stroke="black" points="454.434,-156 454.434,-176 541.566,-176 541.566,-156 454.434,-156"/>
<text text-anchor="middle" x="498" y="-162" font-family="Helvetica,sans-Serif" font-size="10.00">TIFFClientOpen</text>
</a>
</g>
</g>
<!-- Node3&#45;&gt;Node4 -->
<g id="edge3" class="edge"><title>Node3&#45;&gt;Node4</title>
<path fill="none" stroke="midnightblue" d="M399.04,-139.652C418.728,-144.947 441.284,-151.014 459.785,-155.991"/>
<polygon fill="midnightblue" stroke="midnightblue" points="399.907,-136.261 389.341,-137.043 398.089,-143.021 399.907,-136.261"/>
</g>
<!-- Node16 -->
<g id="node16" class="node"><title>Node16</title>
<g id="a_node16"><a xlink:href="tiffio_8h.html#a58cdb91e8e93b12c8002ade2e4072251" target="_top" xlink:title="TIFFSetDirectory">
<polygon fill="white" stroke="black" points="451.941,-117 451.941,-137 544.059,-137 544.059,-117 451.941,-117"/>
<text text-anchor="middle" x="498" y="-123" font-family="Helvetica,sans-Serif" font-size="10.00">TIFFSetDirectory</text>
</a>
</g>
</g>
<!-- Node3&#45;&gt;Node16 -->
<g id="edge15" class="edge"><title>Node3&#45;&gt;Node16</title>
<path fill="none" stroke="midnightblue" d="M411.961,-127C425.307,-127 439.238,-127 451.869,-127"/>
<polygon fill="midnightblue" stroke="midnightblue" points="411.901,-123.5 401.901,-127 411.901,-130.5 411.901,-123.5"/>
</g>
<!-- Node17 -->
<g id="node17" class="node"><title>Node17</title>
<g id="a_node17"><a xlink:href="tiffio_8h.html#a33628efcd540db4412ec3cd7761c3733" target="_top" xlink:title="TIFFSetSubDirectory">
<polygon fill="white" stroke="black" points="443.044,-78 443.044,-98 552.956,-98 552.956,-78 443.044,-78"/>
<text text-anchor="middle" x="498" y="-84" font-family="Helvetica,sans-Serif" font-size="10.00">TIFFSetSubDirectory</text>
</a>
</g>
</g>
<!-- Node3&#45;&gt;Node17 -->
<g id="edge16" class="edge"><title>Node3&#45;&gt;Node17</title>
<path fill="none" stroke="midnightblue" d="M399.04,-114.348C418.728,-109.053 441.284,-102.986 459.785,-98.0094"/>
<polygon fill="midnightblue" stroke="midnightblue" points="398.089,-110.979 389.341,-116.957 399.907,-117.739 398.089,-110.979"/>
</g>
<!-- Node5 -->
<g id="node5" class="node"><title>Node5</title>
<g id="a_node5"><a xlink:href="tiffio_8h.html#adca230876d2f7fdec1ff6c7fdb7898a8" target="_top" xlink:title="TIFFFdOpen">
<polygon fill="white" stroke="black" points="612.382,-156 612.382,-176 685.618,-176 685.618,-156 612.382,-156"/>
<text text-anchor="middle" x="649" y="-162" font-family="Helvetica,sans-Serif" font-size="10.00">TIFFFdOpen</text>
</a>
</g>
</g>
<!-- Node4&#45;&gt;Node5 -->
<g id="edge4" class="edge"><title>Node4&#45;&gt;Node5</title>
<path fill="none" stroke="midnightblue" d="M551.93,-166C571.962,-166 594.27,-166 612.343,-166"/>
<polygon fill="midnightblue" stroke="midnightblue" points="551.697,-162.5 541.697,-166 551.697,-169.5 551.697,-162.5"/>
</g>
<!-- Node6 -->
<g id="node6" class="node"><title>Node6</title>
<g id="a_node6"><a xlink:href="tiffio_8h.html#ac3dd18826e617eb451c74f33a32fcb10" target="_top" xlink:title="TIFFOpen">
<polygon fill="white" stroke="black" points="787.217,-156 787.217,-176 848.783,-176 848.783,-156 787.217,-156"/>
<text text-anchor="middle" x="818" y="-162" font-family="Helvetica,sans-Serif" font-size="10.00">TIFFOpen</text>
</a>
</g>
</g>
<!-- Node5&#45;&gt;Node6 -->
<g id="edge5" class="edge"><title>Node5&#45;&gt;Node6</title>
<path fill="none" stroke="midnightblue" d="M696.145,-166C725.183,-166 761.813,-166 787.093,-166"/>
<polygon fill="midnightblue" stroke="midnightblue" points="695.826,-162.5 685.826,-166 695.826,-169.5 695.826,-162.5"/>
</g>
<!-- Node7 -->
<g id="node7" class="node"><title>Node7</title>
<g id="a_node7"><a xlink:href="class_t_i_f_f_reader_internal.html#adc7888a9bc3fe28248b49b8b204ae8ae" target="_top" xlink:title="TIFFReaderInternal\l::Open">
<polygon fill="white" stroke="black" points="939.372,-146 939.372,-178 1042.63,-178 1042.63,-146 939.372,-146"/>
<text text-anchor="start" x="947.372" y="-164" font-family="Helvetica,sans-Serif" font-size="10.00">TIFFReaderInternal</text>
<text text-anchor="middle" x="991" y="-152" font-family="Helvetica,sans-Serif" font-size="10.00">::Open</text>
</a>
</g>
</g>
<!-- Node6&#45;&gt;Node7 -->
<g id="edge6" class="edge"><title>Node6&#45;&gt;Node7</title>
<path fill="none" stroke="midnightblue" d="M858.925,-165.066C882.844,-164.507 913.486,-163.79 939.128,-163.19"/>
<polygon fill="midnightblue" stroke="midnightblue" points="858.701,-161.57 848.786,-165.303 858.865,-168.568 858.701,-161.57"/>
</g>
<!-- Node11 -->
<g id="node11" class="node"><title>Node11</title>
<g id="a_node11"><a xlink:href="classrc_window.html#adf6ca47beb76a8bfdc73369f80dd003d" target="_top" xlink:title="rcWindow::tiff">
<polygon fill="white" stroke="black" points="953.083,-205 953.083,-225 1028.92,-225 1028.92,-205 953.083,-205"/>
<text text-anchor="middle" x="991" y="-211" font-family="Helvetica,sans-Serif" font-size="10.00">rcWindow::tiff</text>
</a>
</g>
</g>
<!-- Node6&#45;&gt;Node11 -->
<g id="edge10" class="edge"><title>Node6&#45;&gt;Node11</title>
<path fill="none" stroke="midnightblue" d="M858.632,-177.357C887.756,-185.702 926.966,-196.938 954.951,-204.957"/>
<polygon fill="midnightblue" stroke="midnightblue" points="859.363,-173.925 848.786,-174.535 857.435,-180.654 859.363,-173.925"/>
</g>
<!-- Node8 -->
<g id="node8" class="node"><title>Node8</title>
<g id="a_node8"><a xlink:href="class_t_i_f_f_image_i_o.html#abec0d00f473debbd9d05f5a0e4820402" target="_top" xlink:title="TIFFImageIO::CanReadFile">
<polygon fill="white" stroke="black" points="1094.31,-148 1094.31,-168 1233.69,-168 1233.69,-148 1094.31,-148"/>
<text text-anchor="middle" x="1164" y="-154" font-family="Helvetica,sans-Serif" font-size="10.00">TIFFImageIO::CanReadFile</text>
</a>
</g>
</g>
<!-- Node7&#45;&gt;Node8 -->
<g id="edge7" class="edge"><title>Node7&#45;&gt;Node8</title>
<path fill="none" stroke="midnightblue" d="M1052.9,-160.575C1066.31,-160.262 1080.61,-159.927 1094.31,-159.607"/>
<polygon fill="midnightblue" stroke="midnightblue" points="1052.76,-157.078 1042.84,-160.811 1052.92,-164.076 1052.76,-157.078"/>
</g>
<!-- Node9 -->
<g id="node9" class="node"><title>Node9</title>
<g id="a_node9"><a xlink:href="classrc_engine_impl.html#ac0162da8fe4f677ad6f3d04a465d50f0" target="_top" xlink:title="rcEngineImpl::loadMovie">
<polygon fill="white" stroke="black" points="1282.25,-80 1282.25,-100 1407.75,-100 1407.75,-80 1282.25,-80"/>
<text text-anchor="middle" x="1345" y="-86" font-family="Helvetica,sans-Serif" font-size="10.00">rcEngineImpl::loadMovie</text>
</a>
</g>
</g>
<!-- Node8&#45;&gt;Node9 -->
<g id="edge8" class="edge"><title>Node8&#45;&gt;Node9</title>
<path fill="none" stroke="midnightblue" d="M1219.14,-145.298C1226.88,-143.089 1234.69,-140.642 1242,-138 1272,-127.152 1305.15,-110.658 1325.27,-100.107"/>
<polygon fill="midnightblue" stroke="midnightblue" points="1218.13,-141.946 1209.41,-147.967 1219.98,-148.697 1218.13,-141.946"/>
</g>
<!-- Node10 -->
<g id="node10" class="node"><title>Node10</title>
<g id="a_node10"><a xlink:href="classrc_window.html#a5da06176e6878b676bbc534db6b09b7d" target="_top" xlink:title="rcWindow::rcWindow">
<polygon fill="white" stroke="black" points="1290.33,-138 1290.33,-158 1399.67,-158 1399.67,-138 1290.33,-138"/>
<text text-anchor="middle" x="1345" y="-144" font-family="Helvetica,sans-Serif" font-size="10.00">rcWindow::rcWindow</text>
</a>
</g>
</g>
<!-- Node8&#45;&gt;Node10 -->
<g id="edge9" class="edge"><title>Node8&#45;&gt;Node10</title>
<path fill="none" stroke="midnightblue" d="M1243.9,-153.592C1259.55,-152.718 1275.64,-151.819 1290.22,-151.005"/>
<polygon fill="midnightblue" stroke="midnightblue" points="1243.48,-150.11 1233.69,-154.162 1243.87,-157.099 1243.48,-150.11"/>
</g>
<!-- Node12 -->
<g id="node12" class="node"><title>Node12</title>
<g id="a_node12"><a xlink:href="classrc_visual_function.html#a1df64c3605f3a0a4670118911ac783b1" target="_top" xlink:title="rcVisualFunction::cardiac\lMeasure">
<polygon fill="white" stroke="black" points="1100.23,-265 1100.23,-297 1227.77,-297 1227.77,-265 1100.23,-265"/>
<text text-anchor="start" x="1108.23" y="-283" font-family="Helvetica,sans-Serif" font-size="10.00">rcVisualFunction::cardiac</text>
<text text-anchor="middle" x="1164" y="-271" font-family="Helvetica,sans-Serif" font-size="10.00">Measure</text>
</a>
</g>
</g>
<!-- Node11&#45;&gt;Node12 -->
<g id="edge11" class="edge"><title>Node11&#45;&gt;Node12</title>
<path fill="none" stroke="midnightblue" d="M1023.7,-229.208C1041.81,-237.143 1065.02,-247.009 1086,-255 1094.83,-258.365 1104.32,-261.75 1113.51,-264.914"/>
<polygon fill="midnightblue" stroke="midnightblue" points="1024.78,-225.856 1014.22,-225.023 1021.95,-232.261 1024.78,-225.856"/>
</g>
<!-- Node14 -->
<g id="node14" class="node"><title>Node14</title>
<g id="a_node14"><a xlink:href="classrc_engine_impl.html#a00ca0d227e480ddb5bd6be293b55d2c9" target="_top" xlink:title="rcEngineImpl::muscleTracker">
<polygon fill="white" stroke="black" points="1091.44,-226 1091.44,-246 1236.56,-246 1236.56,-226 1091.44,-226"/>
<text text-anchor="middle" x="1164" y="-232" font-family="Helvetica,sans-Serif" font-size="10.00">rcEngineImpl::muscleTracker</text>
</a>
</g>
</g>
<!-- Node11&#45;&gt;Node14 -->
<g id="edge13" class="edge"><title>Node11&#45;&gt;Node14</title>
<path fill="none" stroke="midnightblue" d="M1039.29,-220.807C1055.33,-222.778 1073.63,-225.025 1091.15,-227.177"/>
<polygon fill="midnightblue" stroke="midnightblue" points="1039.46,-217.302 1029.1,-219.557 1038.6,-224.25 1039.46,-217.302"/>
</g>
<!-- Node15 -->
<g id="node15" class="node"><title>Node15</title>
<g id="a_node15"><a xlink:href="rc__edge_8h.html#a11fbb1eb0376dd39a4be2ea72b7ef156" target="_top" xlink:title="rfDirectionSignal">
<polygon fill="white" stroke="black" points="1119.32,-187 1119.32,-207 1208.68,-207 1208.68,-187 1119.32,-187"/>
<text text-anchor="middle" x="1164" y="-193" font-family="Helvetica,sans-Serif" font-size="10.00">rfDirectionSignal</text>
</a>
</g>
</g>
<!-- Node11&#45;&gt;Node15 -->
<g id="edge14" class="edge"><title>Node11&#45;&gt;Node15</title>
<path fill="none" stroke="midnightblue" d="M1039.12,-210.04C1064.18,-207.402 1094.79,-204.18 1119.31,-201.599"/>
<polygon fill="midnightblue" stroke="midnightblue" points="1038.68,-206.567 1029.1,-211.094 1039.42,-213.528 1038.68,-206.567"/>
</g>
<!-- Node13 -->
<g id="node13" class="node"><title>Node13</title>
<g id="a_node13"><a xlink:href="classrc_visual_function.html#ac3135ba614a9ba5080e78c3f2f426312" target="_top" xlink:title="rcVisualFunction::measure">
<polygon fill="white" stroke="black" points="1277.9,-271 1277.9,-291 1412.1,-291 1412.1,-271 1277.9,-271"/>
<text text-anchor="middle" x="1345" y="-277" font-family="Helvetica,sans-Serif" font-size="10.00">rcVisualFunction::measure</text>
</a>
</g>
</g>
<!-- Node12&#45;&gt;Node13 -->
<g id="edge12" class="edge"><title>Node12&#45;&gt;Node13</title>
<path fill="none" stroke="midnightblue" d="M1238.2,-281C1251.26,-281 1264.8,-281 1277.65,-281"/>
<polygon fill="midnightblue" stroke="midnightblue" points="1237.86,-277.5 1227.86,-281 1237.86,-284.5 1237.86,-277.5"/>
</g>
<!-- Node18&#45;&gt;Node3 -->
<g id="edge31" class="edge"><title>Node18&#45;&gt;Node3</title>
<path fill="none" stroke="midnightblue" d="M236.155,-93.4591C245.385,-95.8838 255.02,-98.4748 264,-101 281.869,-106.024 301.708,-111.996 317.825,-116.948"/>
<polygon fill="midnightblue" stroke="midnightblue" points="236.908,-90.0386 226.349,-90.9044 235.143,-96.8125 236.908,-90.0386"/>
</g>
<!-- Node19 -->
<g id="node19" class="node"><title>Node19</title>
<g id="a_node19"><a xlink:href="tif__getimage_8c.html#a10d5db7bf3be3f719ba1a2d3bf1142c1" target="_top" xlink:title="gtTileContig">
<polygon fill="white" stroke="black" points="316.503,-78 316.503,-98 385.497,-98 385.497,-78 316.503,-78"/>
<text text-anchor="middle" x="351" y="-84" font-family="Helvetica,sans-Serif" font-size="10.00">gtTileContig</text>
</a>
</g>
</g>
<!-- Node18&#45;&gt;Node19 -->
<g id="edge18" class="edge"><title>Node18&#45;&gt;Node19</title>
<path fill="none" stroke="midnightblue" d="M236.458,-83.7154C261.946,-84.6772 293.188,-85.8562 316.444,-86.7337"/>
<polygon fill="midnightblue" stroke="midnightblue" points="236.412,-80.2113 226.287,-83.3316 236.148,-87.2063 236.412,-80.2113"/>
</g>
<!-- Node28 -->
<g id="node28" class="node"><title>Node28</title>
<g id="a_node28"><a xlink:href="tif__getimage_8c.html#a5cb7dd9dbe477a05fc1037f31992dd06" target="_top" xlink:title="gtTileSeparate">
<polygon fill="white" stroke="black" points="310.664,-39 310.664,-59 391.336,-59 391.336,-39 310.664,-39"/>
<text text-anchor="middle" x="351" y="-45" font-family="Helvetica,sans-Serif" font-size="10.00">gtTileSeparate</text>
</a>
</g>
</g>
<!-- Node18&#45;&gt;Node28 -->
<g id="edge29" class="edge"><title>Node18&#45;&gt;Node28</title>
<path fill="none" stroke="midnightblue" d="M236.337,-72.5904C259.777,-67.7256 288.109,-61.8453 310.623,-57.1725"/>
<polygon fill="midnightblue" stroke="midnightblue" points="235.367,-69.217 226.287,-74.6762 236.79,-76.071 235.367,-69.217"/>
</g>
<!-- Node29 -->
<g id="node29" class="node"><title>Node29</title>
<g id="a_node29"><a xlink:href="tiffio_8h.html#a97099944980dd2498d80a8067c5abfd1" target="_top" xlink:title="TIFFWriteCheck">
<polygon fill="white" stroke="black" points="306.699,-0 306.699,-20 395.301,-20 395.301,-0 306.699,-0"/>
<text text-anchor="middle" x="351" y="-6" font-family="Helvetica,sans-Serif" font-size="10.00">TIFFWriteCheck</text>
</a>
</g>
</g>
<!-- Node18&#45;&gt;Node29 -->
<g id="edge32" class="edge"><title>Node18&#45;&gt;Node29</title>
<path fill="none" stroke="midnightblue" d="M219.485,-67.2821C241.29,-56.2287 272.237,-40.9962 300,-29 307.161,-25.906 315.005,-22.7968 322.314,-20.0154"/>
<polygon fill="midnightblue" stroke="midnightblue" points="217.765,-64.2304 210.446,-71.8906 220.944,-70.4667 217.765,-64.2304"/>
</g>
<!-- Node20 -->
<g id="node20" class="node"><title>Node20</title>
<g id="a_node20"><a xlink:href="tiffio_8h.html#acd3bb3a843674f44624f98f2d6f7785a" target="_top" xlink:title="TIFFRGBAImageBegin">
<polygon fill="white" stroke="black" points="438.594,-39 438.594,-59 557.406,-59 557.406,-39 438.594,-39"/>
<text text-anchor="middle" x="498" y="-45" font-family="Helvetica,sans-Serif" font-size="10.00">TIFFRGBAImageBegin</text>
</a>
</g>
</g>
<!-- Node19&#45;&gt;Node20 -->
<g id="edge19" class="edge"><title>Node19&#45;&gt;Node20</title>
<path fill="none" stroke="midnightblue" d="M395.356,-76.3389C415.85,-70.8265 440.072,-64.3116 459.73,-59.0245"/>
<polygon fill="midnightblue" stroke="midnightblue" points="394.378,-72.9773 385.63,-78.9546 396.196,-79.7371 394.378,-72.9773"/>
</g>
<!-- Node21 -->
<g id="node21" class="node"><title>Node21</title>
<g id="a_node21"><a xlink:href="tiffio_8h.html#a37f05a9b68bdc13fb34dc6d4182914d4" target="_top" xlink:title="TIFFReadRGBAImageOriented">
<polygon fill="white" stroke="black" points="740.251,-78 740.251,-98 895.749,-98 895.749,-78 740.251,-78"/>
<text text-anchor="middle" x="818" y="-84" font-family="Helvetica,sans-Serif" font-size="10.00">TIFFReadRGBAImageOriented</text>
</a>
</g>
</g>
<!-- Node20&#45;&gt;Node21 -->
<g id="edge20" class="edge"><title>Node20&#45;&gt;Node21</title>
<path fill="none" stroke="midnightblue" d="M554.421,-61.1299C567.363,-63.6715 581.127,-66.141 594,-68 642.378,-74.9864 697.036,-79.935 740.131,-83.162"/>
<polygon fill="midnightblue" stroke="midnightblue" points="554.744,-57.6249 544.25,-59.0864 553.365,-64.4877 554.744,-57.6249"/>
</g>
<!-- Node26 -->
<g id="node26" class="node"><title>Node26</title>
<g id="a_node26"><a xlink:href="tiffio_8h.html#a078cb3ec8bbc21b9d0b107241bdeb340" target="_top" xlink:title="TIFFReadRGBAStrip">
<polygon fill="white" stroke="black" points="594.044,-39 594.044,-59 703.956,-59 703.956,-39 594.044,-39"/>
<text text-anchor="middle" x="649" y="-45" font-family="Helvetica,sans-Serif" font-size="10.00">TIFFReadRGBAStrip</text>
</a>
</g>
</g>
<!-- Node20&#45;&gt;Node26 -->
<g id="edge27" class="edge"><title>Node20&#45;&gt;Node26</title>
<path fill="none" stroke="midnightblue" d="M567.612,-49C576.326,-49 585.147,-49 593.597,-49"/>
<polygon fill="midnightblue" stroke="midnightblue" points="567.461,-45.5001 557.461,-49 567.461,-52.5001 567.461,-45.5001"/>
</g>
<!-- Node27 -->
<g id="node27" class="node"><title>Node27</title>
<g id="a_node27"><a xlink:href="tiffio_8h.html#a9cb0696bc0bde1de66286981e94def26" target="_top" xlink:title="TIFFReadRGBATile">
<polygon fill="white" stroke="black" points="596.82,-0 596.82,-20 701.18,-20 701.18,-0 596.82,-0"/>
<text text-anchor="middle" x="649" y="-6" font-family="Helvetica,sans-Serif" font-size="10.00">TIFFReadRGBATile</text>
</a>
</g>
</g>
<!-- Node20&#45;&gt;Node27 -->
<g id="edge28" class="edge"><title>Node20&#45;&gt;Node27</title>
<path fill="none" stroke="midnightblue" d="M547.061,-36.4202C567.357,-31.108 590.66,-25.0085 609.759,-20.0094"/>
<polygon fill="midnightblue" stroke="midnightblue" points="546.159,-33.0384 537.371,-38.9565 547.932,-39.8102 546.159,-33.0384"/>
</g>
<!-- Node22 -->
<g id="node22" class="node"><title>Node22</title>
<g id="a_node22"><a xlink:href="class_t_i_f_f_image_i_o.html#a65d99c4b2c48e346698c0ae5462f2b20" target="_top" xlink:title="TIFFImageIO::Read">
<polygon fill="white" stroke="black" points="938.542,-86 938.542,-106 1043.46,-106 1043.46,-86 938.542,-86"/>
<text text-anchor="middle" x="991" y="-92" font-family="Helvetica,sans-Serif" font-size="10.00">TIFFImageIO::Read</text>
</a>
</g>
</g>
<!-- Node21&#45;&gt;Node22 -->
<g id="edge21" class="edge"><title>Node21&#45;&gt;Node22</title>
<path fill="none" stroke="midnightblue" d="M906.126,-92.0761C917.168,-92.5926 928.174,-93.1075 938.406,-93.5863"/>
<polygon fill="midnightblue" stroke="midnightblue" points="906.149,-88.5734 895.996,-91.6021 905.821,-95.5657 906.149,-88.5734"/>
</g>
<!-- Node25 -->
<g id="node25" class="node"><title>Node25</title>
<g id="a_node25"><a xlink:href="tiffio_8h.html#a2992848d0612320b0aa5e7ef655a824e" target="_top" xlink:title="TIFFReadRGBAImage">
<polygon fill="white" stroke="black" points="932.429,-47 932.429,-67 1049.57,-67 1049.57,-47 932.429,-47"/>
<text text-anchor="middle" x="991" y="-53" font-family="Helvetica,sans-Serif" font-size="10.00">TIFFReadRGBAImage</text>
</a>
</g>
</g>
<!-- Node21&#45;&gt;Node25 -->
<g id="edge26" class="edge"><title>Node21&#45;&gt;Node25</title>
<path fill="none" stroke="midnightblue" d="M884.658,-76.097C901.199,-73.0985 918.788,-69.9098 934.76,-67.0143"/>
<polygon fill="midnightblue" stroke="midnightblue" points="883.734,-72.7075 874.519,-77.9352 884.983,-79.5952 883.734,-72.7075"/>
</g>
<!-- Node23 -->
<g id="node23" class="node"><title>Node23</title>
<g id="a_node23"><a xlink:href="class_t_i_f_f_image_i_o.html#a972c82b540defb6309ae7c051d1d3694" target="_top" xlink:title="TIFFImageIO::ReadPages">
<polygon fill="white" stroke="black" points="1097.36,-70 1097.36,-90 1230.64,-90 1230.64,-70 1097.36,-70"/>
<text text-anchor="middle" x="1164" y="-76" font-family="Helvetica,sans-Serif" font-size="10.00">TIFFImageIO::ReadPages</text>
</a>
</g>
</g>
<!-- Node22&#45;&gt;Node23 -->
<g id="edge22" class="edge"><title>Node22&#45;&gt;Node23</title>
<path fill="none" stroke="midnightblue" d="M1053.83,-90.2146C1067.91,-88.8974 1082.92,-87.4933 1097.15,-86.1611"/>
<polygon fill="midnightblue" stroke="midnightblue" points="1053.4,-86.7396 1043.77,-91.1561 1054.05,-93.7091 1053.4,-86.7396"/>
</g>
<!-- Node24 -->
<g id="node24" class="node"><title>Node24</title>
<g id="a_node24"><a xlink:href="class_t_i_f_f_image_i_o.html#a167f81244878f036d2f6bec094eefc84" target="_top" xlink:title="TIFFImageIO::ReadSinglePage">
<polygon fill="white" stroke="black" points="1085.97,-109 1085.97,-129 1242.03,-129 1242.03,-109 1085.97,-109"/>
<text text-anchor="middle" x="1164" y="-115" font-family="Helvetica,sans-Serif" font-size="10.00">TIFFImageIO::ReadSinglePage</text>
</a>
</g>
</g>
<!-- Node22&#45;&gt;Node24 -->
<g id="edge24" class="edge"><title>Node22&#45;&gt;Node24</title>
<path fill="none" stroke="midnightblue" d="M1053.87,-104.321C1065.07,-105.828 1076.86,-107.414 1088.38,-108.963"/>
<polygon fill="midnightblue" stroke="midnightblue" points="1054.15,-100.828 1043.77,-102.963 1053.21,-107.765 1054.15,-100.828"/>
</g>
<!-- Node23&#45;&gt;Node9 -->
<g id="edge23" class="edge"><title>Node23&#45;&gt;Node9</title>
<path fill="none" stroke="midnightblue" d="M1240.64,-84.2255C1254.51,-85.0004 1268.83,-85.8008 1282.24,-86.5497"/>
<polygon fill="midnightblue" stroke="midnightblue" points="1240.82,-80.7302 1230.64,-83.6668 1240.43,-87.7193 1240.82,-80.7302"/>
</g>
<!-- Node24&#45;&gt;Node10 -->
<g id="edge25" class="edge"><title>Node24&#45;&gt;Node10</title>
<path fill="none" stroke="midnightblue" d="M1237.15,-130.689C1254.87,-133.559 1273.53,-136.582 1290.2,-139.285"/>
<polygon fill="midnightblue" stroke="midnightblue" points="1237.28,-127.165 1226.85,-129.021 1236.16,-134.075 1237.28,-127.165"/>
</g>
<!-- Node28&#45;&gt;Node20 -->
<g id="edge30" class="edge"><title>Node28&#45;&gt;Node20</title>
<path fill="none" stroke="midnightblue" d="M401.728,-49C413.531,-49 426.23,-49 438.389,-49"/>
<polygon fill="midnightblue" stroke="midnightblue" points="401.622,-45.5001 391.622,-49 401.622,-52.5001 401.622,-45.5001"/>
</g>
</g>
</svg>
