<?xml version="1.0" encoding="UTF-8" standalone="no"?>
<!DOCTYPE svg PUBLIC "-//W3C//DTD SVG 1.1//EN"
 "http://www.w3.org/Graphics/SVG/1.1/DTD/svg11.dtd">
<!-- Generated by graphviz version 2.32.0 (20130916.1925)
 -->
<!-- Title: _TIFFsetNString Pages: 1 -->
<svg width="324pt" height="106pt"
 viewBox="0.00 0.00 324.00 106.00" xmlns="http://www.w3.org/2000/svg" xmlns:xlink="http://www.w3.org/1999/xlink">
<g id="graph0" class="graph" transform="scale(1 1) rotate(0) translate(4 102)">
<title>_TIFFsetNString</title>
<polygon fill="white" stroke="white" points="-4,5 -4,-102 321,-102 321,5 -4,5"/>
<!-- Node1 -->
<g id="node1" class="node"><title>Node1</title>
<polygon fill="#bfbfbf" stroke="black" points="0.325195,-39 0.325195,-59 89.6748,-59 89.6748,-39 0.325195,-39"/>
<text text-anchor="middle" x="45" y="-45" font-family="Helvetica,sans-Serif" font-size="10.00">_TIFFsetNString</text>
</g>
<!-- Node2 -->
<g id="node2" class="node"><title>Node2</title>
<g id="a_node2"><a xlink:href="tif__dir_8c.html#a54b13fdc94370e0e213bbc4083d5f18a" target="_top" xlink:title="setByteArray">
<polygon fill="white" stroke="black" points="126.379,-39 126.379,-59 199.621,-59 199.621,-39 126.379,-39"/>
<text text-anchor="middle" x="163" y="-45" font-family="Helvetica,sans-Serif" font-size="10.00">setByteArray</text>
</a>
</g>
</g>
<!-- Node1&#45;&gt;Node2 -->
<g id="edge1" class="edge"><title>Node1&#45;&gt;Node2</title>
<path fill="none" stroke="midnightblue" d="M89.8546,-49C98.3386,-49 107.253,-49 115.809,-49"/>
<polygon fill="midnightblue" stroke="midnightblue" points="116.015,-52.5001 126.015,-49 116.014,-45.5001 116.015,-52.5001"/>
</g>
<!-- Node3 -->
<g id="node3" class="node"><title>Node3</title>
<g id="a_node3"><a xlink:href="tif__apple_8c.html#adcb814cdc66530ea86553b6840c19819" target="_top" xlink:title="_TIFFfree">
<polygon fill="white" stroke="black" points="246.052,-78 246.052,-98 305.948,-98 305.948,-78 246.052,-78"/>
<text text-anchor="middle" x="276" y="-84" font-family="Helvetica,sans-Serif" font-size="10.00">_TIFFfree</text>
</a>
</g>
</g>
<!-- Node2&#45;&gt;Node3 -->
<g id="edge2" class="edge"><title>Node2&#45;&gt;Node3</title>
<path fill="none" stroke="midnightblue" d="M192.585,-59.0435C206.051,-63.7745 222.305,-69.4855 236.807,-74.5809"/>
<polygon fill="midnightblue" stroke="midnightblue" points="235.917,-77.9778 246.512,-77.9906 238.237,-71.3735 235.917,-77.9778"/>
</g>
<!-- Node4 -->
<g id="node4" class="node"><title>Node4</title>
<g id="a_node4"><a xlink:href="tif__apple_8c.html#aaa739de67506b8254e9d150190425b4f" target="_top" xlink:title="_TIFFmalloc">
<polygon fill="white" stroke="black" points="240.219,-39 240.219,-59 311.781,-59 311.781,-39 240.219,-39"/>
<text text-anchor="middle" x="276" y="-45" font-family="Helvetica,sans-Serif" font-size="10.00">_TIFFmalloc</text>
</a>
</g>
</g>
<!-- Node2&#45;&gt;Node4 -->
<g id="edge3" class="edge"><title>Node2&#45;&gt;Node4</title>
<path fill="none" stroke="midnightblue" d="M199.732,-49C209.328,-49 219.83,-49 229.864,-49"/>
<polygon fill="midnightblue" stroke="midnightblue" points="230.093,-52.5001 240.093,-49 230.093,-45.5001 230.093,-52.5001"/>
</g>
<!-- Node5 -->
<g id="node5" class="node"><title>Node5</title>
<g id="a_node5"><a xlink:href="tif__apple_8c.html#aacf23567597faf7b8f01f31f397217f0" target="_top" xlink:title="_TIFFmemcpy">
<polygon fill="white" stroke="black" points="235.776,-0 235.776,-20 316.224,-20 316.224,-0 235.776,-0"/>
<text text-anchor="middle" x="276" y="-6" font-family="Helvetica,sans-Serif" font-size="10.00">_TIFFmemcpy</text>
</a>
</g>
</g>
<!-- Node2&#45;&gt;Node5 -->
<g id="edge4" class="edge"><title>Node2&#45;&gt;Node5</title>
<path fill="none" stroke="midnightblue" d="M192.585,-38.9565C206.051,-34.2255 222.305,-28.5145 236.807,-23.4191"/>
<polygon fill="midnightblue" stroke="midnightblue" points="238.237,-26.6265 246.512,-20.0094 235.917,-20.0222 238.237,-26.6265"/>
</g>
</g>
</svg>
