<?xml version="1.0" encoding="UTF-8" standalone="no"?>
<!DOCTYPE svg PUBLIC "-//W3C//DTD SVG 1.1//EN"
 "http://www.w3.org/Graphics/SVG/1.1/DTD/svg11.dtd">
<!-- Generated by graphviz version 2.32.0 (20130916.1925)
 -->
<!-- Title: TIFFWriteInkNames Pages: 1 -->
<!--zoomable 223 -->
<svg id="main" version="1.1" xmlns="http://www.w3.org/2000/svg" xmlns:xlink="http://www.w3.org/1999/xlink" xml:space="preserve" onload="init(evt)">
        <defs>
                <circle id="rim" cx="0" cy="0" r="7"/>
                <circle id="rim2" cx="0" cy="0" r="3.5"/>
                <g id="zoomPlus">
                        <use xlink:href="#rim" fill="#404040">
                                <set attributeName="fill" to="#808080" begin="zoomplus.mouseover" end="zoomplus.mouseout"/>
                        </use>
                        <path d="M-4,0h8M0,-4v8" fill="none" stroke="white" stroke-width="1.5" pointer-events="none"/>
                </g>
                <g id="zoomMin">
                        <use xlink:href="#rim" fill="#404040">
                                <set attributeName="fill" to="#808080" begin="zoomminus.mouseover" end="zoomminus.mouseout"/>
                        </use>
                        <path d="M-4,0h8" fill="none" stroke="white" stroke-width="1.5" pointer-events="none"/>
                </g>
                <g id="dirArrow">
                        <path fill="none" stroke="white" stroke-width="1.5" d="M0,-3.0v7 M-2.5,-0.5L0,-3.0L2.5,-0.5"/>
                </g>
               <g id="resetDef">
                       <use xlink:href="#rim2" fill="#404040">
                               <set attributeName="fill" to="#808080" begin="reset.mouseover" end="reset.mouseout"/>
                       </use>
               </g>
        </defs>

<script type="text/javascript">
var viewWidth = 800;
var viewHeight = 223;
var sectionId = 'dynsection-25';
</script>
<script xlink:href="svgpan.js"/>
<svg id="graph" class="graph">
<g id="viewport">
<title>TIFFWriteInkNames</title>
<polygon fill="white" stroke="white" points="-4,5 -4,-219 797,-219 797,5 -4,5"/>
<!-- Node1 -->
<g id="node1" class="node"><title>Node1</title>
<polygon fill="#bfbfbf" stroke="black" points="0.36377,-116 0.36377,-136 105.636,-136 105.636,-116 0.36377,-116"/>
<text text-anchor="middle" x="53" y="-122" font-family="Helvetica,sans-Serif" font-size="10.00">TIFFWriteInkNames</text>
</g>
<!-- Node2 -->
<g id="node2" class="node"><title>Node2</title>
<g id="a_node2"><a xlink:href="tif__dirwrite_8c.html#a18f3239bc9822a303a041661a2418dd1" target="_top" xlink:title="TIFFWriteByteArray">
<polygon fill="white" stroke="black" points="141.92,-116 141.92,-136 246.08,-136 246.08,-116 141.92,-116"/>
<text text-anchor="middle" x="194" y="-122" font-family="Helvetica,sans-Serif" font-size="10.00">TIFFWriteByteArray</text>
</a>
</g>
</g>
<!-- Node1&#45;&gt;Node2 -->
<g id="edge1" class="edge"><title>Node1&#45;&gt;Node2</title>
<path fill="none" stroke="midnightblue" d="M105.758,-126C114.191,-126 122.997,-126 131.633,-126"/>
<polygon fill="midnightblue" stroke="midnightblue" points="131.661,-129.5 141.661,-126 131.661,-122.5 131.661,-129.5"/>
</g>
<!-- Node3 -->
<g id="node3" class="node"><title>Node3</title>
<g id="a_node3"><a xlink:href="tif__apple_8c.html#aacf23567597faf7b8f01f31f397217f0" target="_top" xlink:title="_TIFFmemcpy">
<polygon fill="white" stroke="black" points="282.776,-136 282.776,-156 363.224,-156 363.224,-136 282.776,-136"/>
<text text-anchor="middle" x="323" y="-142" font-family="Helvetica,sans-Serif" font-size="10.00">_TIFFmemcpy</text>
</a>
</g>
</g>
<!-- Node2&#45;&gt;Node3 -->
<g id="edge2" class="edge"><title>Node2&#45;&gt;Node3</title>
<path fill="none" stroke="midnightblue" d="M246.29,-134.077C254.998,-135.449 264.025,-136.87 272.682,-138.233"/>
<polygon fill="midnightblue" stroke="midnightblue" points="272.209,-141.702 282.632,-139.8 273.298,-134.787 272.209,-141.702"/>
</g>
<!-- Node4 -->
<g id="node4" class="node"><title>Node4</title>
<g id="a_node4"><a xlink:href="tif__dirwrite_8c.html#a959ea1b6810897898f5e7d5a51981519" target="_top" xlink:title="TIFFWriteData">
<polygon fill="white" stroke="black" points="282.31,-97 282.31,-117 363.69,-117 363.69,-97 282.31,-97"/>
<text text-anchor="middle" x="323" y="-103" font-family="Helvetica,sans-Serif" font-size="10.00">TIFFWriteData</text>
</a>
</g>
</g>
<!-- Node2&#45;&gt;Node4 -->
<g id="edge3" class="edge"><title>Node2&#45;&gt;Node4</title>
<path fill="none" stroke="midnightblue" d="M246.29,-118.327C254.806,-117.053 263.626,-115.733 272.107,-114.464"/>
<polygon fill="midnightblue" stroke="midnightblue" points="272.868,-117.89 282.24,-112.948 271.832,-110.967 272.868,-117.89"/>
</g>
<!-- Node5 -->
<g id="node5" class="node"><title>Node5</title>
<g id="a_node5"><a xlink:href="tif__dirinfo_8c.html#a30adfafbd54d531b3343751e2362dafe" target="_top" xlink:title="_TIFFFieldWithTag">
<polygon fill="white" stroke="black" points="413.769,-195 413.769,-215 514.231,-215 514.231,-195 413.769,-195"/>
<text text-anchor="middle" x="464" y="-201" font-family="Helvetica,sans-Serif" font-size="10.00">_TIFFFieldWithTag</text>
</a>
</g>
</g>
<!-- Node4&#45;&gt;Node5 -->
<g id="edge4" class="edge"><title>Node4&#45;&gt;Node5</title>
<path fill="none" stroke="midnightblue" d="M349.349,-117.216C354.51,-119.949 359.676,-123.216 364,-127 385.429,-145.753 377.786,-162.184 400,-180 405.304,-184.254 411.423,-187.861 417.72,-190.897"/>
<polygon fill="midnightblue" stroke="midnightblue" points="416.431,-194.153 426.997,-194.944 419.231,-187.737 416.431,-194.153"/>
</g>
<!-- Node8 -->
<g id="node8" class="node"><title>Node8</title>
<g id="a_node8"><a xlink:href="tif__error_8c.html#a2e8b77a2d4e7b7283b55b963dd67ec31" target="_top" xlink:title="TIFFErrorExt">
<polygon fill="white" stroke="black" points="587.113,-156 587.113,-176 660.887,-176 660.887,-156 587.113,-156"/>
<text text-anchor="middle" x="624" y="-162" font-family="Helvetica,sans-Serif" font-size="10.00">TIFFErrorExt</text>
</a>
</g>
</g>
<!-- Node4&#45;&gt;Node8 -->
<g id="edge9" class="edge"><title>Node4&#45;&gt;Node8</title>
<path fill="none" stroke="midnightblue" d="M344.393,-117.088C350.694,-120.234 357.647,-123.736 364,-127 380.092,-135.268 382.651,-140.869 400,-146 459.307,-163.539 531.033,-167.002 576.833,-167.111"/>
<polygon fill="midnightblue" stroke="midnightblue" points="577.056,-170.611 587.045,-167.081 577.035,-163.611 577.056,-170.611"/>
</g>
<!-- Node9 -->
<g id="node9" class="node"><title>Node9</title>
<g id="a_node9"><a xlink:href="tif__dirinfo_8c.html#a2e6382d04dbf3af83901b2f032fa98e7" target="_top" xlink:title="TIFFDataWidth">
<polygon fill="white" stroke="black" points="422.106,-117 422.106,-137 505.894,-137 505.894,-117 422.106,-117"/>
<text text-anchor="middle" x="464" y="-123" font-family="Helvetica,sans-Serif" font-size="10.00">TIFFDataWidth</text>
</a>
</g>
</g>
<!-- Node4&#45;&gt;Node9 -->
<g id="edge8" class="edge"><title>Node4&#45;&gt;Node9</title>
<path fill="none" stroke="midnightblue" d="M363.832,-112.731C378.704,-114.871 395.809,-117.332 411.578,-119.601"/>
<polygon fill="midnightblue" stroke="midnightblue" points="411.315,-123.099 421.711,-121.059 412.312,-116.171 411.315,-123.099"/>
</g>
<!-- Node10 -->
<g id="node10" class="node"><title>Node10</title>
<g id="a_node10"><a xlink:href="tif__swab_8c.html#a1cb63e1ce5f2a4895038fc97d9a28bcf" target="_top" xlink:title="TIFFSwabArrayOfDouble">
<polygon fill="white" stroke="black" points="399.872,-78 399.872,-98 528.128,-98 528.128,-78 399.872,-78"/>
<text text-anchor="middle" x="464" y="-84" font-family="Helvetica,sans-Serif" font-size="10.00">TIFFSwabArrayOfDouble</text>
</a>
</g>
</g>
<!-- Node4&#45;&gt;Node10 -->
<g id="edge10" class="edge"><title>Node4&#45;&gt;Node10</title>
<path fill="none" stroke="midnightblue" d="M363.832,-101.555C371.992,-100.44 380.824,-99.2327 389.739,-98.0141"/>
<polygon fill="midnightblue" stroke="midnightblue" points="390.374,-101.46 399.807,-96.6378 389.426,-94.5245 390.374,-101.46"/>
</g>
<!-- Node11 -->
<g id="node11" class="node"><title>Node11</title>
<g id="a_node11"><a xlink:href="tif__swab_8c.html#ada2d5ffd72c625fdfe338b9ac985197f" target="_top" xlink:title="TIFFSwabArrayOfLong">
<polygon fill="white" stroke="black" points="564.594,-59 564.594,-79 683.406,-79 683.406,-59 564.594,-59"/>
<text text-anchor="middle" x="624" y="-65" font-family="Helvetica,sans-Serif" font-size="10.00">TIFFSwabArrayOfLong</text>
</a>
</g>
</g>
<!-- Node4&#45;&gt;Node11 -->
<g id="edge12" class="edge"><title>Node4&#45;&gt;Node11</title>
<path fill="none" stroke="midnightblue" d="M338.593,-96.8306C353.313,-87.2411 377.079,-73.5377 400,-68 450.624,-55.7691 509.621,-56.6683 554.212,-60.2759"/>
<polygon fill="midnightblue" stroke="midnightblue" points="554.092,-63.7787 564.359,-61.1633 554.702,-56.8053 554.092,-63.7787"/>
</g>
<!-- Node12 -->
<g id="node12" class="node"><title>Node12</title>
<g id="a_node12"><a xlink:href="tif__swab_8c.html#af432e2c4c57173790c3ee3d6f0244871" target="_top" xlink:title="TIFFSwabArrayOfShort">
<polygon fill="white" stroke="black" points="403.766,-0 403.766,-20 524.234,-20 524.234,-0 403.766,-0"/>
<text text-anchor="middle" x="464" y="-6" font-family="Helvetica,sans-Serif" font-size="10.00">TIFFSwabArrayOfShort</text>
</a>
</g>
</g>
<!-- Node4&#45;&gt;Node12 -->
<g id="edge13" class="edge"><title>Node4&#45;&gt;Node12</title>
<path fill="none" stroke="midnightblue" d="M332.39,-96.8909C345.467,-81.6799 372.116,-52.7968 400,-35 406.626,-30.7712 414.083,-27.0471 421.487,-23.8523"/>
<polygon fill="midnightblue" stroke="midnightblue" points="422.816,-27.0901 430.769,-20.0905 420.187,-20.6026 422.816,-27.0901"/>
</g>
<!-- Node6 -->
<g id="node6" class="node"><title>Node6</title>
<g id="a_node6"><a xlink:href="tif__dirinfo_8c.html#a3317560b966ff5f4b7e378e8c6ca936a" target="_top" xlink:title="_TIFFFindFieldInfo">
<polygon fill="white" stroke="black" points="573.764,-195 573.764,-215 674.236,-215 674.236,-195 573.764,-195"/>
<text text-anchor="middle" x="624" y="-201" font-family="Helvetica,sans-Serif" font-size="10.00">_TIFFFindFieldInfo</text>
</a>
</g>
</g>
<!-- Node5&#45;&gt;Node6 -->
<g id="edge5" class="edge"><title>Node5&#45;&gt;Node6</title>
<path fill="none" stroke="midnightblue" d="M514.559,-205C530,-205 547.193,-205 563.255,-205"/>
<polygon fill="midnightblue" stroke="midnightblue" points="563.617,-208.5 573.617,-205 563.617,-201.5 563.617,-208.5"/>
</g>
<!-- Node5&#45;&gt;Node8 -->
<g id="edge7" class="edge"><title>Node5&#45;&gt;Node8</title>
<path fill="none" stroke="midnightblue" d="M505.689,-194.957C527.592,-189.55 554.679,-182.864 577.305,-177.279"/>
<polygon fill="midnightblue" stroke="midnightblue" points="578.156,-180.674 587.025,-174.88 576.478,-173.878 578.156,-180.674"/>
</g>
<!-- Node7 -->
<g id="node7" class="node"><title>Node7</title>
<g id="a_node7"><a xlink:href="tif__dirinfo_8c.html#a365ced53b43ae215e93968db3ef3a29e" target="_top" xlink:title="tagCompare">
<polygon fill="white" stroke="black" points="720.485,-195 720.485,-215 791.515,-215 791.515,-195 720.485,-195"/>
<text text-anchor="middle" x="756" y="-201" font-family="Helvetica,sans-Serif" font-size="10.00">tagCompare</text>
</a>
</g>
</g>
<!-- Node6&#45;&gt;Node7 -->
<g id="edge6" class="edge"><title>Node6&#45;&gt;Node7</title>
<path fill="none" stroke="midnightblue" d="M674.518,-205C686.165,-205 698.515,-205 709.953,-205"/>
<polygon fill="midnightblue" stroke="midnightblue" points="710.154,-208.5 720.154,-205 710.154,-201.5 710.154,-208.5"/>
</g>
<!-- Node10&#45;&gt;Node11 -->
<g id="edge11" class="edge"><title>Node10&#45;&gt;Node11</title>
<path fill="none" stroke="midnightblue" d="M528.354,-80.3815C536.932,-79.35 545.765,-78.2877 554.428,-77.2459"/>
<polygon fill="midnightblue" stroke="midnightblue" points="554.984,-80.7044 564.495,-76.0355 554.148,-73.7545 554.984,-80.7044"/>
</g>
</g>
</svg>
        <g id="navigator" transform="translate(0 0)" fill="#404254">
                <rect fill="#f2f5e9" fill-opacity="0.5" stroke="#606060" stroke-width=".5" x="0" y="0" width="60" height="60"/>
                <use id="zoomplus" xlink:href="#zoomPlus" x="17" y="9" onmousedown="handleZoom(evt,'in')"/>
                <use id="zoomminus" xlink:href="#zoomMin" x="42" y="9" onmousedown="handleZoom(evt,'out')"/>
                <use id="reset" xlink:href="#resetDef" x="30" y="36" onmousedown="handleReset()"/>
                <g id="arrowUp" xlink:href="#dirArrow" transform="translate(30 24)" onmousedown="handlePan(0,-1)">
                  <use xlink:href="#rim" fill="#404040">
                        <set attributeName="fill" to="#808080" begin="arrowUp.mouseover" end="arrowUp.mouseout"/>
                  </use>
                  <path fill="none" stroke="white" stroke-width="1.5" d="M0,-3.0v7 M-2.5,-0.5L0,-3.0L2.5,-0.5"/>
                </g>
                <g id="arrowRight" xlink:href="#dirArrow" transform="rotate(90) translate(36 -43)" onmousedown="handlePan(1,0)">
                  <use xlink:href="#rim" fill="#404040">
                        <set attributeName="fill" to="#808080" begin="arrowRight.mouseover" end="arrowRight.mouseout"/>
                  </use>
                  <path fill="none" stroke="white" stroke-width="1.5" d="M0,-3.0v7 M-2.5,-0.5L0,-3.0L2.5,-0.5"/>
                </g>
                <g id="arrowDown" xlink:href="#dirArrow" transform="rotate(180) translate(-30 -48)" onmousedown="handlePan(0,1)">
                  <use xlink:href="#rim" fill="#404040">
                        <set attributeName="fill" to="#808080" begin="arrowDown.mouseover" end="arrowDown.mouseout"/>
                  </use>
                  <path fill="none" stroke="white" stroke-width="1.5" d="M0,-3.0v7 M-2.5,-0.5L0,-3.0L2.5,-0.5"/>
                </g>
                <g id="arrowLeft" xlink:href="#dirArrow" transform="rotate(270) translate(-36 17)" onmousedown="handlePan(-1,0)">
                  <use xlink:href="#rim" fill="#404040">
                        <set attributeName="fill" to="#808080" begin="arrowLeft.mouseover" end="arrowLeft.mouseout"/>
                  </use>
                  <path fill="none" stroke="white" stroke-width="1.5" d="M0,-3.0v7 M-2.5,-0.5L0,-3.0L2.5,-0.5"/>
                </g>
        </g>
        <svg viewBox="0 0 15 15" width="100%" height="30px" preserveAspectRatio="xMaxYMin meet">
         <g id="arrow_out" transform="scale(0.3 0.3)">
          <a xlink:href="tif__dirwrite_8c_a3e9215803d7935d93e1d134ecd09cbb3_cgraph_org.svg" target="_base">
           <rect id="button" ry="5" rx="5" y="6" x="6" height="38" width="38"
                fill="#f2f5e9" fill-opacity="0.5" stroke="#606060" stroke-width="1.0"/>
           <path id="arrow"
             d="M 11.500037,31.436501 C 11.940474,20.09759 22.043105,11.32322 32.158766,21.979434 L 37.068811,17.246167 C 37.068811,17.246167 37.088388,32 37.088388,32 L 22.160133,31.978069 C 22.160133,31.978069 26.997745,27.140456 26.997745,27.140456 C 18.528582,18.264221 13.291696,25.230495 11.500037,31.436501 z"
             style="fill:#404040;"/>
          </a>
         </g>
        </svg>
</svg>
