<?xml version="1.0" encoding="UTF-8" standalone="no"?>
<!DOCTYPE svg PUBLIC "-//W3C//DTD SVG 1.1//EN"
 "http://www.w3.org/Graphics/SVG/1.1/DTD/svg11.dtd">
<!-- Generated by graphviz version 2.32.0 (20130916.1925)
 -->
<!-- Title: TIFFFetchLongArray Pages: 1 -->
<!--zoomable 262 -->
<svg id="main" version="1.1" xmlns="http://www.w3.org/2000/svg" xmlns:xlink="http://www.w3.org/1999/xlink" xml:space="preserve" onload="init(evt)">
        <defs>
                <circle id="rim" cx="0" cy="0" r="7"/>
                <circle id="rim2" cx="0" cy="0" r="3.5"/>
                <g id="zoomPlus">
                        <use xlink:href="#rim" fill="#404040">
                                <set attributeName="fill" to="#808080" begin="zoomplus.mouseover" end="zoomplus.mouseout"/>
                        </use>
                        <path d="M-4,0h8M0,-4v8" fill="none" stroke="white" stroke-width="1.5" pointer-events="none"/>
                </g>
                <g id="zoomMin">
                        <use xlink:href="#rim" fill="#404040">
                                <set attributeName="fill" to="#808080" begin="zoomminus.mouseover" end="zoomminus.mouseout"/>
                        </use>
                        <path d="M-4,0h8" fill="none" stroke="white" stroke-width="1.5" pointer-events="none"/>
                </g>
                <g id="dirArrow">
                        <path fill="none" stroke="white" stroke-width="1.5" d="M0,-3.0v7 M-2.5,-0.5L0,-3.0L2.5,-0.5"/>
                </g>
               <g id="resetDef">
                       <use xlink:href="#rim2" fill="#404040">
                               <set attributeName="fill" to="#808080" begin="reset.mouseover" end="reset.mouseout"/>
                       </use>
               </g>
        </defs>

<script type="text/javascript">
var viewWidth = 664;
var viewHeight = 262;
var sectionId = 'dynsection-25';
</script>
<script xlink:href="svgpan.js"/>
<svg id="graph" class="graph">
<g id="viewport">
<title>TIFFFetchLongArray</title>
<polygon fill="white" stroke="white" points="-4,5 -4,-258 661,-258 661,5 -4,5"/>
<!-- Node1 -->
<g id="node1" class="node"><title>Node1</title>
<polygon fill="#bfbfbf" stroke="black" points="-0.125488,-117 -0.125488,-137 108.125,-137 108.125,-117 -0.125488,-117"/>
<text text-anchor="middle" x="54" y="-123" font-family="Helvetica,sans-Serif" font-size="10.00">TIFFFetchLongArray</text>
</g>
<!-- Node2 -->
<g id="node2" class="node"><title>Node2</title>
<g id="a_node2"><a xlink:href="tif__dirread_8c.html#a3a8b2608359688b663203e53c5b85f57" target="_top" xlink:title="TIFFFetchData">
<polygon fill="white" stroke="black" points="144.382,-117 144.382,-137 227.618,-137 227.618,-117 144.382,-117"/>
<text text-anchor="middle" x="186" y="-123" font-family="Helvetica,sans-Serif" font-size="10.00">TIFFFetchData</text>
</a>
</g>
</g>
<!-- Node1&#45;&gt;Node2 -->
<g id="edge1" class="edge"><title>Node1&#45;&gt;Node2</title>
<path fill="none" stroke="midnightblue" d="M108.251,-127C116.825,-127 125.682,-127 134.197,-127"/>
<polygon fill="midnightblue" stroke="midnightblue" points="134.371,-130.5 144.371,-127 134.371,-123.5 134.371,-130.5"/>
</g>
<!-- Node3 -->
<g id="node3" class="node"><title>Node3</title>
<g id="a_node3"><a xlink:href="tif__dirinfo_8c.html#a30adfafbd54d531b3343751e2362dafe" target="_top" xlink:title="_TIFFFieldWithTag">
<polygon fill="white" stroke="black" points="277.769,-234 277.769,-254 378.231,-254 378.231,-234 277.769,-234"/>
<text text-anchor="middle" x="328" y="-240" font-family="Helvetica,sans-Serif" font-size="10.00">_TIFFFieldWithTag</text>
</a>
</g>
</g>
<!-- Node2&#45;&gt;Node3 -->
<g id="edge2" class="edge"><title>Node2&#45;&gt;Node3</title>
<path fill="none" stroke="midnightblue" d="M193.136,-137.274C204.765,-155.954 231.758,-195.696 264,-219 269.901,-223.265 276.63,-226.929 283.442,-230.033"/>
<polygon fill="midnightblue" stroke="midnightblue" points="282.136,-233.281 292.712,-233.923 284.845,-226.826 282.136,-233.281"/>
</g>
<!-- Node6 -->
<g id="node6" class="node"><title>Node6</title>
<g id="a_node6"><a xlink:href="tif__error_8c.html#a2e8b77a2d4e7b7283b55b963dd67ec31" target="_top" xlink:title="TIFFErrorExt">
<polygon fill="white" stroke="black" points="451.113,-195 451.113,-215 524.887,-215 524.887,-195 451.113,-195"/>
<text text-anchor="middle" x="488" y="-201" font-family="Helvetica,sans-Serif" font-size="10.00">TIFFErrorExt</text>
</a>
</g>
</g>
<!-- Node2&#45;&gt;Node6 -->
<g id="edge8" class="edge"><title>Node2&#45;&gt;Node6</title>
<path fill="none" stroke="midnightblue" d="M196.806,-137.352C210.425,-150.971 236.511,-174.417 264,-185 322.006,-207.333 394.554,-209.569 440.846,-208.102"/>
<polygon fill="midnightblue" stroke="midnightblue" points="441.024,-211.597 450.881,-207.712 440.752,-204.603 441.024,-211.597"/>
</g>
<!-- Node7 -->
<g id="node7" class="node"><title>Node7</title>
<g id="a_node7"><a xlink:href="tif__apple_8c.html#aacf23567597faf7b8f01f31f397217f0" target="_top" xlink:title="_TIFFmemcpy">
<polygon fill="white" stroke="black" points="287.776,-156 287.776,-176 368.224,-176 368.224,-156 287.776,-156"/>
<text text-anchor="middle" x="328" y="-162" font-family="Helvetica,sans-Serif" font-size="10.00">_TIFFmemcpy</text>
</a>
</g>
</g>
<!-- Node2&#45;&gt;Node7 -->
<g id="edge6" class="edge"><title>Node2&#45;&gt;Node7</title>
<path fill="none" stroke="midnightblue" d="M223.053,-137.043C240.772,-141.979 262.318,-147.982 281.19,-153.239"/>
<polygon fill="midnightblue" stroke="midnightblue" points="280.496,-156.679 291.069,-155.991 282.375,-149.935 280.496,-156.679"/>
</g>
<!-- Node8 -->
<g id="node8" class="node"><title>Node8</title>
<g id="a_node8"><a xlink:href="tif__dirinfo_8c.html#a2e6382d04dbf3af83901b2f032fa98e7" target="_top" xlink:title="TIFFDataWidth">
<polygon fill="white" stroke="black" points="286.106,-117 286.106,-137 369.894,-137 369.894,-117 286.106,-117"/>
<text text-anchor="middle" x="328" y="-123" font-family="Helvetica,sans-Serif" font-size="10.00">TIFFDataWidth</text>
</a>
</g>
</g>
<!-- Node2&#45;&gt;Node8 -->
<g id="edge7" class="edge"><title>Node2&#45;&gt;Node8</title>
<path fill="none" stroke="midnightblue" d="M227.87,-127C242.833,-127 259.957,-127 275.715,-127"/>
<polygon fill="midnightblue" stroke="midnightblue" points="275.837,-130.5 285.837,-127 275.837,-123.5 275.837,-130.5"/>
</g>
<!-- Node9 -->
<g id="node9" class="node"><title>Node9</title>
<g id="a_node9"><a xlink:href="tif__swab_8c.html#a1cb63e1ce5f2a4895038fc97d9a28bcf" target="_top" xlink:title="TIFFSwabArrayOfDouble">
<polygon fill="white" stroke="black" points="263.872,-78 263.872,-98 392.128,-98 392.128,-78 263.872,-78"/>
<text text-anchor="middle" x="328" y="-84" font-family="Helvetica,sans-Serif" font-size="10.00">TIFFSwabArrayOfDouble</text>
</a>
</g>
</g>
<!-- Node2&#45;&gt;Node9 -->
<g id="edge9" class="edge"><title>Node2&#45;&gt;Node9</title>
<path fill="none" stroke="midnightblue" d="M223.053,-116.957C240.772,-112.021 262.318,-106.018 281.19,-100.761"/>
<polygon fill="midnightblue" stroke="midnightblue" points="282.375,-104.065 291.069,-98.0094 280.496,-97.3214 282.375,-104.065"/>
</g>
<!-- Node10 -->
<g id="node10" class="node"><title>Node10</title>
<g id="a_node10"><a xlink:href="tif__swab_8c.html#ada2d5ffd72c625fdfe338b9ac985197f" target="_top" xlink:title="TIFFSwabArrayOfLong">
<polygon fill="white" stroke="black" points="428.594,-59 428.594,-79 547.406,-79 547.406,-59 428.594,-59"/>
<text text-anchor="middle" x="488" y="-65" font-family="Helvetica,sans-Serif" font-size="10.00">TIFFSwabArrayOfLong</text>
</a>
</g>
</g>
<!-- Node2&#45;&gt;Node10 -->
<g id="edge11" class="edge"><title>Node2&#45;&gt;Node10</title>
<path fill="none" stroke="midnightblue" d="M196.182,-116.587C209.474,-102.39 235.61,-77.6261 264,-68 314.96,-50.7208 376.318,-52.4989 421.762,-57.7343"/>
<polygon fill="midnightblue" stroke="midnightblue" points="421.435,-61.2204 431.789,-58.9748 422.294,-54.2734 421.435,-61.2204"/>
</g>
<!-- Node11 -->
<g id="node11" class="node"><title>Node11</title>
<g id="a_node11"><a xlink:href="tif__swab_8c.html#af432e2c4c57173790c3ee3d6f0244871" target="_top" xlink:title="TIFFSwabArrayOfShort">
<polygon fill="white" stroke="black" points="267.766,-0 267.766,-20 388.234,-20 388.234,-0 267.766,-0"/>
<text text-anchor="middle" x="328" y="-6" font-family="Helvetica,sans-Serif" font-size="10.00">TIFFSwabArrayOfShort</text>
</a>
</g>
</g>
<!-- Node2&#45;&gt;Node11 -->
<g id="edge12" class="edge"><title>Node2&#45;&gt;Node11</title>
<path fill="none" stroke="midnightblue" d="M193.136,-116.726C204.765,-98.0462 231.758,-58.3036 264,-35 269.901,-30.7349 276.63,-27.0711 283.442,-23.9671"/>
<polygon fill="midnightblue" stroke="midnightblue" points="284.845,-27.174 292.712,-20.0774 282.136,-20.7192 284.845,-27.174"/>
</g>
<!-- Node4 -->
<g id="node4" class="node"><title>Node4</title>
<g id="a_node4"><a xlink:href="tif__dirinfo_8c.html#a3317560b966ff5f4b7e378e8c6ca936a" target="_top" xlink:title="_TIFFFindFieldInfo">
<polygon fill="white" stroke="black" points="437.764,-234 437.764,-254 538.236,-254 538.236,-234 437.764,-234"/>
<text text-anchor="middle" x="488" y="-240" font-family="Helvetica,sans-Serif" font-size="10.00">_TIFFFindFieldInfo</text>
</a>
</g>
</g>
<!-- Node3&#45;&gt;Node4 -->
<g id="edge3" class="edge"><title>Node3&#45;&gt;Node4</title>
<path fill="none" stroke="midnightblue" d="M378.559,-244C394,-244 411.193,-244 427.255,-244"/>
<polygon fill="midnightblue" stroke="midnightblue" points="427.617,-247.5 437.617,-244 427.617,-240.5 427.617,-247.5"/>
</g>
<!-- Node3&#45;&gt;Node6 -->
<g id="edge5" class="edge"><title>Node3&#45;&gt;Node6</title>
<path fill="none" stroke="midnightblue" d="M369.689,-233.957C391.592,-228.55 418.679,-221.864 441.305,-216.279"/>
<polygon fill="midnightblue" stroke="midnightblue" points="442.156,-219.674 451.025,-213.88 440.478,-212.878 442.156,-219.674"/>
</g>
<!-- Node5 -->
<g id="node5" class="node"><title>Node5</title>
<g id="a_node5"><a xlink:href="tif__dirinfo_8c.html#a365ced53b43ae215e93968db3ef3a29e" target="_top" xlink:title="tagCompare">
<polygon fill="white" stroke="black" points="584.485,-234 584.485,-254 655.515,-254 655.515,-234 584.485,-234"/>
<text text-anchor="middle" x="620" y="-240" font-family="Helvetica,sans-Serif" font-size="10.00">tagCompare</text>
</a>
</g>
</g>
<!-- Node4&#45;&gt;Node5 -->
<g id="edge4" class="edge"><title>Node4&#45;&gt;Node5</title>
<path fill="none" stroke="midnightblue" d="M538.518,-244C550.165,-244 562.515,-244 573.953,-244"/>
<polygon fill="midnightblue" stroke="midnightblue" points="574.154,-247.5 584.154,-244 574.154,-240.5 574.154,-247.5"/>
</g>
<!-- Node9&#45;&gt;Node10 -->
<g id="edge10" class="edge"><title>Node9&#45;&gt;Node10</title>
<path fill="none" stroke="midnightblue" d="M392.354,-80.3815C400.932,-79.35 409.765,-78.2877 418.428,-77.2459"/>
<polygon fill="midnightblue" stroke="midnightblue" points="418.984,-80.7044 428.495,-76.0355 418.148,-73.7545 418.984,-80.7044"/>
</g>
</g>
</svg>
        <g id="navigator" transform="translate(0 0)" fill="#404254">
                <rect fill="#f2f5e9" fill-opacity="0.5" stroke="#606060" stroke-width=".5" x="0" y="0" width="60" height="60"/>
                <use id="zoomplus" xlink:href="#zoomPlus" x="17" y="9" onmousedown="handleZoom(evt,'in')"/>
                <use id="zoomminus" xlink:href="#zoomMin" x="42" y="9" onmousedown="handleZoom(evt,'out')"/>
                <use id="reset" xlink:href="#resetDef" x="30" y="36" onmousedown="handleReset()"/>
                <g id="arrowUp" xlink:href="#dirArrow" transform="translate(30 24)" onmousedown="handlePan(0,-1)">
                  <use xlink:href="#rim" fill="#404040">
                        <set attributeName="fill" to="#808080" begin="arrowUp.mouseover" end="arrowUp.mouseout"/>
                  </use>
                  <path fill="none" stroke="white" stroke-width="1.5" d="M0,-3.0v7 M-2.5,-0.5L0,-3.0L2.5,-0.5"/>
                </g>
                <g id="arrowRight" xlink:href="#dirArrow" transform="rotate(90) translate(36 -43)" onmousedown="handlePan(1,0)">
                  <use xlink:href="#rim" fill="#404040">
                        <set attributeName="fill" to="#808080" begin="arrowRight.mouseover" end="arrowRight.mouseout"/>
                  </use>
                  <path fill="none" stroke="white" stroke-width="1.5" d="M0,-3.0v7 M-2.5,-0.5L0,-3.0L2.5,-0.5"/>
                </g>
                <g id="arrowDown" xlink:href="#dirArrow" transform="rotate(180) translate(-30 -48)" onmousedown="handlePan(0,1)">
                  <use xlink:href="#rim" fill="#404040">
                        <set attributeName="fill" to="#808080" begin="arrowDown.mouseover" end="arrowDown.mouseout"/>
                  </use>
                  <path fill="none" stroke="white" stroke-width="1.5" d="M0,-3.0v7 M-2.5,-0.5L0,-3.0L2.5,-0.5"/>
                </g>
                <g id="arrowLeft" xlink:href="#dirArrow" transform="rotate(270) translate(-36 17)" onmousedown="handlePan(-1,0)">
                  <use xlink:href="#rim" fill="#404040">
                        <set attributeName="fill" to="#808080" begin="arrowLeft.mouseover" end="arrowLeft.mouseout"/>
                  </use>
                  <path fill="none" stroke="white" stroke-width="1.5" d="M0,-3.0v7 M-2.5,-0.5L0,-3.0L2.5,-0.5"/>
                </g>
        </g>
        <svg viewBox="0 0 15 15" width="100%" height="30px" preserveAspectRatio="xMaxYMin meet">
         <g id="arrow_out" transform="scale(0.3 0.3)">
          <a xlink:href="tif__dirread_8c_a5bbdba62505d7d379f45c64c4ac1edc7_cgraph_org.svg" target="_base">
           <rect id="button" ry="5" rx="5" y="6" x="6" height="38" width="38"
                fill="#f2f5e9" fill-opacity="0.5" stroke="#606060" stroke-width="1.0"/>
           <path id="arrow"
             d="M 11.500037,31.436501 C 11.940474,20.09759 22.043105,11.32322 32.158766,21.979434 L 37.068811,17.246167 C 37.068811,17.246167 37.088388,32 37.088388,32 L 22.160133,31.978069 C 22.160133,31.978069 26.997745,27.140456 26.997745,27.140456 C 18.528582,18.264221 13.291696,25.230495 11.500037,31.436501 z"
             style="fill:#404040;"/>
          </a>
         </g>
        </svg>
</svg>
