<?xml version="1.0" encoding="UTF-8" standalone="no"?>
<!DOCTYPE svg PUBLIC "-//W3C//DTD SVG 1.1//EN"
 "http://www.w3.org/Graphics/SVG/1.1/DTD/svg11.dtd">
<!-- Generated by graphviz version 2.32.0 (20130916.1925)
 -->
<!-- Title: TIFFReadCustomDirectory Pages: 1 -->
<svg width="1070pt" height="1015pt"
 viewBox="0.00 0.00 1070.00 1015.00" xmlns="http://www.w3.org/2000/svg" xmlns:xlink="http://www.w3.org/1999/xlink">
<g id="graph0" class="graph" transform="scale(1 1) rotate(0) translate(4 1011)">
<title>TIFFReadCustomDirectory</title>
<polygon fill="white" stroke="white" points="-4,5 -4,-1011 1067,-1011 1067,5 -4,5"/>
<!-- Node1 -->
<g id="node1" class="node"><title>Node1</title>
<polygon fill="#bfbfbf" stroke="black" points="0.266113,-396 0.266113,-416 135.734,-416 135.734,-396 0.266113,-396"/>
<text text-anchor="middle" x="68" y="-402" font-family="Helvetica,sans-Serif" font-size="10.00">TIFFReadCustomDirectory</text>
</g>
<!-- Node2 -->
<g id="node2" class="node"><title>Node2</title>
<g id="a_node2"><a xlink:href="tif__aux_8c.html#a96a072a0d1fd5779a76f5f2e13953e2a" target="_top" xlink:title="_TIFFCheckMalloc">
<polygon fill="white" stroke="black" points="511.047,-719 511.047,-739 610.953,-739 610.953,-719 511.047,-719"/>
<text text-anchor="middle" x="561" y="-725" font-family="Helvetica,sans-Serif" font-size="10.00">_TIFFCheckMalloc</text>
</a>
</g>
</g>
<!-- Node1&#45;&gt;Node2 -->
<g id="edge1" class="edge"><title>Node1&#45;&gt;Node2</title>
<path fill="none" stroke="midnightblue" d="M73.2159,-416.102C92.7817,-461.503 179.689,-647.512 318,-718 374.91,-747.003 449.469,-745.465 500.706,-739.416"/>
<polygon fill="midnightblue" stroke="midnightblue" points="501.152,-742.887 510.631,-738.153 500.269,-735.943 501.152,-742.887"/>
</g>
<!-- Node4 -->
<g id="node4" class="node"><title>Node4</title>
<g id="a_node4"><a xlink:href="tif__error_8c.html#a2e8b77a2d4e7b7283b55b963dd67ec31" target="_top" xlink:title="TIFFErrorExt">
<polygon fill="white" stroke="black" points="857.113,-680 857.113,-700 930.887,-700 930.887,-680 857.113,-680"/>
<text text-anchor="middle" x="894" y="-686" font-family="Helvetica,sans-Serif" font-size="10.00">TIFFErrorExt</text>
</a>
</g>
</g>
<!-- Node1&#45;&gt;Node4 -->
<g id="edge22" class="edge"><title>Node1&#45;&gt;Node4</title>
<path fill="none" stroke="midnightblue" d="M70.8223,-416.258C77.7712,-452.824 105.633,-578.722 172,-656 221.362,-713.477 245.249,-722.845 318,-744 522.949,-803.595 591.327,-782.31 798,-729 820.934,-723.084 845.647,-712.806 864.118,-704.286"/>
<polygon fill="midnightblue" stroke="midnightblue" points="865.611,-707.452 873.166,-700.024 862.628,-701.12 865.611,-707.452"/>
</g>
<!-- Node5 -->
<g id="node5" class="node"><title>Node5</title>
<g id="a_node5"><a xlink:href="tif__dirinfo_8c.html#a6c605fd5b88f8e31b39e286fb520d9f2" target="_top" xlink:title="_TIFFCreateAnonFieldInfo">
<polygon fill="white" stroke="black" points="317.806,-929 317.806,-949 452.194,-949 452.194,-929 317.806,-929"/>
<text text-anchor="middle" x="385" y="-935" font-family="Helvetica,sans-Serif" font-size="10.00">_TIFFCreateAnonFieldInfo</text>
</a>
</g>
</g>
<!-- Node1&#45;&gt;Node5 -->
<g id="edge4" class="edge"><title>Node1&#45;&gt;Node5</title>
<path fill="none" stroke="midnightblue" d="M69.551,-416.094C73.291,-480.717 97.1,-835.965 172,-907 207.529,-940.696 262.525,-948.211 307.598,-947.555"/>
<polygon fill="midnightblue" stroke="midnightblue" points="307.744,-951.052 317.642,-947.273 307.548,-944.055 307.744,-951.052"/>
</g>
<!-- Node7 -->
<g id="node7" class="node"><title>Node7</title>
<g id="a_node7"><a xlink:href="tif__apple_8c.html#adcb814cdc66530ea86553b6840c19819" target="_top" xlink:title="_TIFFfree">
<polygon fill="white" stroke="black" points="531.052,-851 531.052,-871 590.948,-871 590.948,-851 531.052,-851"/>
<text text-anchor="middle" x="561" y="-857" font-family="Helvetica,sans-Serif" font-size="10.00">_TIFFfree</text>
</a>
</g>
</g>
<!-- Node1&#45;&gt;Node7 -->
<g id="edge8" class="edge"><title>Node1&#45;&gt;Node7</title>
<path fill="none" stroke="midnightblue" d="M69.842,-416.279C74.9761,-476.221 104.127,-779.948 172,-837 223.879,-880.608 433.158,-870.565 520.942,-864.212"/>
<polygon fill="midnightblue" stroke="midnightblue" points="521.315,-867.694 531.027,-863.459 520.794,-860.713 521.315,-867.694"/>
</g>
<!-- Node8 -->
<g id="node8" class="node"><title>Node8</title>
<g id="a_node8"><a xlink:href="tif__apple_8c.html#aacf23567597faf7b8f01f31f397217f0" target="_top" xlink:title="_TIFFmemcpy">
<polygon fill="white" stroke="black" points="693.776,-309 693.776,-329 774.224,-329 774.224,-309 693.776,-309"/>
<text text-anchor="middle" x="734" y="-315" font-family="Helvetica,sans-Serif" font-size="10.00">_TIFFmemcpy</text>
</a>
</g>
</g>
<!-- Node1&#45;&gt;Node8 -->
<g id="edge9" class="edge"><title>Node1&#45;&gt;Node8</title>
<path fill="none" stroke="midnightblue" d="M71.3332,-395.925C79.2293,-364.273 108.1,-266.251 172,-221 225.726,-182.953 252.664,-204.074 318,-196 457.502,-178.761 508.728,-119.243 634,-183 646.663,-189.445 697.285,-264.684 720.835,-300.4"/>
<polygon fill="midnightblue" stroke="midnightblue" points="718.038,-302.515 726.454,-308.951 723.888,-298.671 718.038,-302.515"/>
</g>
<!-- Node9 -->
<g id="node9" class="node"><title>Node9</title>
<g id="a_node9"><a xlink:href="tif__dirinfo_8c.html#acd2a649e4ce2d80fb1e278d1e9fae7bf" target="_top" xlink:title="_TIFFSetupFieldInfo">
<polygon fill="white" stroke="black" points="331.424,-968 331.424,-988 438.576,-988 438.576,-968 331.424,-968"/>
<text text-anchor="middle" x="385" y="-974" font-family="Helvetica,sans-Serif" font-size="10.00">_TIFFSetupFieldInfo</text>
</a>
</g>
</g>
<!-- Node1&#45;&gt;Node9 -->
<g id="edge10" class="edge"><title>Node1&#45;&gt;Node9</title>
<path fill="none" stroke="midnightblue" d="M69.449,-416.286C72.6087,-483.759 93.7101,-862.735 172,-940 210.68,-978.173 273.769,-985.251 321.087,-984.236"/>
<polygon fill="midnightblue" stroke="midnightblue" points="321.357,-987.729 331.232,-983.891 321.119,-980.733 321.357,-987.729"/>
</g>
<!-- Node13 -->
<g id="node13" class="node"><title>Node13</title>
<g id="a_node13"><a xlink:href="tif__dirread_8c.html#a9b8edd08e405feac3928a869d7cdc5cc" target="_top" xlink:title="CheckDirCount">
<polygon fill="white" stroke="black" points="343.099,-231 343.099,-251 426.901,-251 426.901,-231 343.099,-231"/>
<text text-anchor="middle" x="385" y="-237" font-family="Helvetica,sans-Serif" font-size="10.00">CheckDirCount</text>
</a>
</g>
</g>
<!-- Node1&#45;&gt;Node13 -->
<g id="edge16" class="edge"><title>Node1&#45;&gt;Node13</title>
<path fill="none" stroke="midnightblue" d="M83.1977,-395.938C120.211,-370.1 223.363,-300.606 318,-260 322.808,-257.937 327.906,-256.023 333.054,-254.268"/>
<polygon fill="midnightblue" stroke="midnightblue" points="334.501,-257.48 342.953,-251.09 332.361,-250.815 334.501,-257.48"/>
</g>
<!-- Node14 -->
<g id="node14" class="node"><title>Node14</title>
<g id="a_node14"><a xlink:href="tif__warning_8c.html#a638d746ae5f7d08283cdf0ce81a104be" target="_top" xlink:title="TIFFWarningExt">
<polygon fill="white" stroke="black" points="516.789,-193 516.789,-213 605.211,-213 605.211,-193 516.789,-193"/>
<text text-anchor="middle" x="561" y="-199" font-family="Helvetica,sans-Serif" font-size="10.00">TIFFWarningExt</text>
</a>
</g>
</g>
<!-- Node1&#45;&gt;Node14 -->
<g id="edge78" class="edge"><title>Node1&#45;&gt;Node14</title>
<path fill="none" stroke="midnightblue" d="M74.5441,-395.665C88.0498,-371.408 125.018,-310.292 172,-276 272.539,-202.616 425.68,-196.611 506.205,-199.318"/>
<polygon fill="midnightblue" stroke="midnightblue" points="506.47,-202.832 516.601,-199.73 506.747,-195.837 506.47,-202.832"/>
</g>
<!-- Node17 -->
<g id="node17" class="node"><title>Node17</title>
<g id="a_node17"><a xlink:href="tif__dirread_8c.html#a04526f5cd630d655c8d723d511d82731" target="_top" xlink:title="TIFFFetchNormalTag">
<polygon fill="white" stroke="black" points="171.769,-465 171.769,-485 282.231,-485 282.231,-465 171.769,-465"/>
<text text-anchor="middle" x="227" y="-471" font-family="Helvetica,sans-Serif" font-size="10.00">TIFFFetchNormalTag</text>
</a>
</g>
</g>
<!-- Node1&#45;&gt;Node17 -->
<g id="edge23" class="edge"><title>Node1&#45;&gt;Node17</title>
<path fill="none" stroke="midnightblue" d="M91.8291,-416.033C118.688,-427.838 163.462,-447.515 193.831,-460.862"/>
<polygon fill="midnightblue" stroke="midnightblue" points="192.58,-464.135 203.143,-464.955 195.397,-457.727 192.58,-464.135"/>
</g>
<!-- Node21 -->
<g id="node21" class="node"><title>Node21</title>
<g id="a_node21"><a xlink:href="tif__swab_8c.html#af432e2c4c57173790c3ee3d6f0244871" target="_top" xlink:title="TIFFSwabArrayOfShort">
<polygon fill="white" stroke="black" points="673.766,-194 673.766,-214 794.234,-214 794.234,-194 673.766,-194"/>
<text text-anchor="middle" x="734" y="-200" font-family="Helvetica,sans-Serif" font-size="10.00">TIFFSwabArrayOfShort</text>
</a>
</g>
</g>
<!-- Node1&#45;&gt;Node21 -->
<g id="edge76" class="edge"><title>Node1&#45;&gt;Node21</title>
<path fill="none" stroke="midnightblue" d="M70.7476,-395.6C77.1553,-360.895 102.708,-248.209 172,-194 334.421,-66.9318 433.976,-100.827 634,-151 662.568,-158.166 691.895,-175.332 711.137,-188.199"/>
<polygon fill="midnightblue" stroke="midnightblue" points="709.254,-191.152 719.477,-193.933 713.219,-185.383 709.254,-191.152"/>
</g>
<!-- Node22 -->
<g id="node22" class="node"><title>Node22</title>
<g id="a_node22"><a xlink:href="tif__swab_8c.html#ada2d5ffd72c625fdfe338b9ac985197f" target="_top" xlink:title="TIFFSwabArrayOfLong">
<polygon fill="white" stroke="black" points="834.594,-406 834.594,-426 953.406,-426 953.406,-406 834.594,-406"/>
<text text-anchor="middle" x="894" y="-412" font-family="Helvetica,sans-Serif" font-size="10.00">TIFFSwabArrayOfLong</text>
</a>
</g>
</g>
<!-- Node1&#45;&gt;Node22 -->
<g id="edge75" class="edge"><title>Node1&#45;&gt;Node22</title>
<path fill="none" stroke="midnightblue" d="M69.331,-395.854C71.2555,-354.783 84.2899,-199.553 172,-126 245.347,-64.4918 288.276,-88 384,-88 384,-88 384,-88 562,-88 609.682,-88 761.777,-147.238 798,-184 858.7,-245.603 882.405,-351.346 889.976,-395.595"/>
<polygon fill="midnightblue" stroke="midnightblue" points="886.555,-396.366 891.6,-405.682 893.466,-395.253 886.555,-396.366"/>
</g>
<!-- Node39 -->
<g id="node39" class="node"><title>Node39</title>
<g id="a_node39"><a xlink:href="tif__dir_8c.html#a375ff8f5fbaebc45b24d39c5084fa1ab" target="_top" xlink:title="TIFFFreeDirectory">
<polygon fill="white" stroke="black" points="336.165,-890 336.165,-910 433.835,-910 433.835,-890 336.165,-890"/>
<text text-anchor="middle" x="385" y="-896" font-family="Helvetica,sans-Serif" font-size="10.00">TIFFFreeDirectory</text>
</a>
</g>
</g>
<!-- Node1&#45;&gt;Node39 -->
<g id="edge71" class="edge"><title>Node1&#45;&gt;Node39</title>
<path fill="none" stroke="midnightblue" d="M69.6845,-416.285C74.0825,-479.075 100.482,-810.221 172,-875 213.072,-912.202 278.492,-914.474 325.804,-909.929"/>
<polygon fill="midnightblue" stroke="midnightblue" points="326.346,-913.391 335.909,-908.83 325.589,-906.432 326.346,-913.391"/>
</g>
<!-- Node40 -->
<g id="node40" class="node"><title>Node40</title>
<g id="a_node40"><a xlink:href="tiffio_8h.html#ac1a3d0ff5d020b790d02861fdf3dd907" target="_top" xlink:title="TIFFMergeFieldInfo">
<polygon fill="white" stroke="black" points="175.099,-39 175.099,-59 278.901,-59 278.901,-39 175.099,-39"/>
<text text-anchor="middle" x="227" y="-45" font-family="Helvetica,sans-Serif" font-size="10.00">TIFFMergeFieldInfo</text>
</a>
</g>
</g>
<!-- Node1&#45;&gt;Node40 -->
<g id="edge74" class="edge"><title>Node1&#45;&gt;Node40</title>
<path fill="none" stroke="midnightblue" d="M69.2746,-395.92C70.9907,-352.03 83.3603,-175.264 172,-74 175.4,-70.1157 179.53,-66.7952 183.976,-63.9665"/>
<polygon fill="midnightblue" stroke="midnightblue" points="185.727,-66.9978 192.805,-59.1139 182.355,-60.8633 185.727,-66.9978"/>
</g>
<!-- Node41 -->
<g id="node41" class="node"><title>Node41</title>
<g id="a_node41"><a xlink:href="tif__swab_8c.html#a859450f1976e5192f9098261b63020ea" target="_top" xlink:title="TIFFSwabShort">
<polygon fill="white" stroke="black" points="183.99,-0 183.99,-20 270.01,-20 270.01,-0 183.99,-0"/>
<text text-anchor="middle" x="227" y="-6" font-family="Helvetica,sans-Serif" font-size="10.00">TIFFSwabShort</text>
</a>
</g>
</g>
<!-- Node1&#45;&gt;Node41 -->
<g id="edge77" class="edge"><title>Node1&#45;&gt;Node41</title>
<path fill="none" stroke="midnightblue" d="M68.5986,-395.99C67.2411,-348.205 67.7541,-140.993 172,-29 173.058,-27.8633 174.188,-26.7947 175.377,-25.7899"/>
<polygon fill="midnightblue" stroke="midnightblue" points="177.594,-28.5179 183.952,-20.043 173.697,-22.703 177.594,-28.5179"/>
</g>
<!-- Node3 -->
<g id="node3" class="node"><title>Node3</title>
<g id="a_node3"><a xlink:href="tif__apple_8c.html#aaa739de67506b8254e9d150190425b4f" target="_top" xlink:title="_TIFFmalloc">
<polygon fill="white" stroke="black" points="698.219,-909 698.219,-929 769.781,-929 769.781,-909 698.219,-909"/>
<text text-anchor="middle" x="734" y="-915" font-family="Helvetica,sans-Serif" font-size="10.00">_TIFFmalloc</text>
</a>
</g>
</g>
<!-- Node2&#45;&gt;Node3 -->
<g id="edge2" class="edge"><title>Node2&#45;&gt;Node3</title>
<path fill="none" stroke="midnightblue" d="M571.194,-739.215C598.913,-770.015 681.917,-862.241 717.032,-901.258"/>
<polygon fill="midnightblue" stroke="midnightblue" points="714.47,-903.643 723.761,-908.734 719.673,-898.96 714.47,-903.643"/>
</g>
<!-- Node2&#45;&gt;Node4 -->
<g id="edge3" class="edge"><title>Node2&#45;&gt;Node4</title>
<path fill="none" stroke="midnightblue" d="M610.996,-726.464C658.855,-723.607 733.676,-718.128 798,-709 814.119,-706.712 831.631,-703.438 847.177,-700.251"/>
<polygon fill="midnightblue" stroke="midnightblue" points="848.004,-703.654 857.075,-698.18 846.571,-696.802 848.004,-703.654"/>
</g>
<!-- Node5&#45;&gt;Node3 -->
<g id="edge5" class="edge"><title>Node5&#45;&gt;Node3</title>
<path fill="none" stroke="midnightblue" d="M452.495,-935.167C521.555,-931.187 627.723,-925.068 687.688,-921.612"/>
<polygon fill="midnightblue" stroke="midnightblue" points="688.189,-925.089 697.971,-921.019 687.787,-918.1 688.189,-925.089"/>
</g>
<!-- Node6 -->
<g id="node6" class="node"><title>Node6</title>
<g id="a_node6"><a xlink:href="tif__apple_8c.html#abbc4b30de2ac6b7eecdf9362bfa74c39" target="_top" xlink:title="_TIFFmemset">
<polygon fill="white" stroke="black" points="521.887,-890 521.887,-910 600.113,-910 600.113,-890 521.887,-890"/>
<text text-anchor="middle" x="561" y="-896" font-family="Helvetica,sans-Serif" font-size="10.00">_TIFFmemset</text>
</a>
</g>
</g>
<!-- Node5&#45;&gt;Node6 -->
<g id="edge6" class="edge"><title>Node5&#45;&gt;Node6</title>
<path fill="none" stroke="midnightblue" d="M430.809,-928.957C455.699,-923.378 486.669,-916.436 512.045,-910.748"/>
<polygon fill="midnightblue" stroke="midnightblue" points="512.836,-914.158 521.828,-908.556 511.305,-907.328 512.836,-914.158"/>
</g>
<!-- Node5&#45;&gt;Node7 -->
<g id="edge7" class="edge"><title>Node5&#45;&gt;Node7</title>
<path fill="none" stroke="midnightblue" d="M430.686,-928.92C438.096,-926.29 445.481,-923.027 452,-919 471.793,-906.774 468.066,-892.995 488,-881 497.958,-875.008 509.762,-870.761 520.902,-867.771"/>
<polygon fill="midnightblue" stroke="midnightblue" points="521.974,-871.113 530.874,-865.364 520.332,-864.308 521.974,-871.113"/>
</g>
<!-- Node9&#45;&gt;Node7 -->
<g id="edge11" class="edge"><title>Node9&#45;&gt;Node7</title>
<path fill="none" stroke="midnightblue" d="M435.972,-967.906C441.777,-965.322 447.294,-962.076 452,-958 480.554,-933.265 459.16,-905.401 488,-881 497.269,-873.158 509.383,-868.377 521.024,-865.466"/>
<polygon fill="midnightblue" stroke="midnightblue" points="521.981,-868.842 531.048,-863.361 520.542,-861.991 521.981,-868.842"/>
</g>
<!-- Node10 -->
<g id="node10" class="node"><title>Node10</title>
<g id="a_node10"><a xlink:href="tif__dirinfo_8c.html#a19cee75c53108db9e68f357ccebd08d5" target="_top" xlink:title="_TIFFMergeFieldInfo">
<polygon fill="white" stroke="black" points="506.318,-968 506.318,-988 615.682,-988 615.682,-968 506.318,-968"/>
<text text-anchor="middle" x="561" y="-974" font-family="Helvetica,sans-Serif" font-size="10.00">_TIFFMergeFieldInfo</text>
</a>
</g>
</g>
<!-- Node9&#45;&gt;Node10 -->
<g id="edge12" class="edge"><title>Node9&#45;&gt;Node10</title>
<path fill="none" stroke="midnightblue" d="M438.678,-978C456.822,-978 477.339,-978 496.269,-978"/>
<polygon fill="midnightblue" stroke="midnightblue" points="496.298,-981.5 506.298,-978 496.298,-974.5 496.298,-981.5"/>
</g>
<!-- Node10&#45;&gt;Node3 -->
<g id="edge14" class="edge"><title>Node10&#45;&gt;Node3</title>
<path fill="none" stroke="midnightblue" d="M591.008,-967.991C619.382,-958.202 662.78,-943.228 694.129,-932.412"/>
<polygon fill="midnightblue" stroke="midnightblue" points="695.538,-935.628 703.85,-929.058 693.255,-929.011 695.538,-935.628"/>
</g>
<!-- Node11 -->
<g id="node11" class="node"><title>Node11</title>
<g id="a_node11"><a xlink:href="tif__apple_8c.html#a6bb8a05190e8eefa70db67b4c20f2aeb" target="_top" xlink:title="_TIFFrealloc">
<polygon fill="white" stroke="black" points="697.938,-987 697.938,-1007 770.062,-1007 770.062,-987 697.938,-987"/>
<text text-anchor="middle" x="734" y="-993" font-family="Helvetica,sans-Serif" font-size="10.00">_TIFFrealloc</text>
</a>
</g>
</g>
<!-- Node10&#45;&gt;Node11 -->
<g id="edge13" class="edge"><title>Node10&#45;&gt;Node11</title>
<path fill="none" stroke="midnightblue" d="M616.105,-984.012C639.166,-986.574 665.764,-989.529 687.757,-991.973"/>
<polygon fill="midnightblue" stroke="midnightblue" points="687.502,-995.466 697.828,-993.092 688.276,-988.509 687.502,-995.466"/>
</g>
<!-- Node12 -->
<g id="node12" class="node"><title>Node12</title>
<g id="a_node12"><a xlink:href="tif__dirinfo_8c.html#a365ced53b43ae215e93968db3ef3a29e" target="_top" xlink:title="tagCompare">
<polygon fill="white" stroke="black" points="990.485,-794 990.485,-814 1061.51,-814 1061.51,-794 990.485,-794"/>
<text text-anchor="middle" x="1026" y="-800" font-family="Helvetica,sans-Serif" font-size="10.00">tagCompare</text>
</a>
</g>
</g>
<!-- Node10&#45;&gt;Node12 -->
<g id="edge15" class="edge"><title>Node10&#45;&gt;Node12</title>
<path fill="none" stroke="midnightblue" d="M615.916,-974.478C664.701,-969.99 737.896,-959.979 798,-938 879.172,-908.317 964.122,-849.501 1003.1,-820.691"/>
<polygon fill="midnightblue" stroke="midnightblue" points="1005.64,-823.16 1011.56,-814.372 1001.45,-817.551 1005.64,-823.16"/>
</g>
<!-- Node13&#45;&gt;Node14 -->
<g id="edge17" class="edge"><title>Node13&#45;&gt;Node14</title>
<path fill="none" stroke="midnightblue" d="M427.236,-231.995C451.012,-226.802 481.165,-220.217 506.723,-214.635"/>
<polygon fill="midnightblue" stroke="midnightblue" points="507.609,-218.024 516.632,-212.471 506.116,-211.185 507.609,-218.024"/>
</g>
<!-- Node15 -->
<g id="node15" class="node"><title>Node15</title>
<g id="a_node15"><a xlink:href="tif__dirinfo_8c.html#a30adfafbd54d531b3343751e2362dafe" target="_top" xlink:title="_TIFFFieldWithTag">
<polygon fill="white" stroke="black" points="683.769,-524 683.769,-544 784.231,-544 784.231,-524 683.769,-524"/>
<text text-anchor="middle" x="734" y="-530" font-family="Helvetica,sans-Serif" font-size="10.00">_TIFFFieldWithTag</text>
</a>
</g>
</g>
<!-- Node13&#45;&gt;Node15 -->
<g id="edge18" class="edge"><title>Node13&#45;&gt;Node15</title>
<path fill="none" stroke="midnightblue" d="M427.166,-238.566C481.893,-237.696 578.178,-244.776 634,-299 678.85,-342.566 644.919,-377.725 670,-435 683.192,-465.126 704.799,-496.625 718.962,-515.786"/>
<polygon fill="midnightblue" stroke="midnightblue" points="716.26,-518.017 725.067,-523.906 721.855,-513.81 716.26,-518.017"/>
</g>
<!-- Node15&#45;&gt;Node4 -->
<g id="edge21" class="edge"><title>Node15&#45;&gt;Node4</title>
<path fill="none" stroke="midnightblue" d="M775.566,-544.023C783.845,-547.623 791.882,-552.477 798,-559 833.478,-596.83 797.57,-633.086 834,-670 837.894,-673.945 842.593,-677.112 847.619,-679.655"/>
<polygon fill="midnightblue" stroke="midnightblue" points="846.343,-682.915 856.916,-683.59 849.071,-676.469 846.343,-682.915"/>
</g>
<!-- Node16 -->
<g id="node16" class="node"><title>Node16</title>
<g id="a_node16"><a xlink:href="tif__dirinfo_8c.html#a3317560b966ff5f4b7e378e8c6ca936a" target="_top" xlink:title="_TIFFFindFieldInfo">
<polygon fill="white" stroke="black" points="843.764,-641 843.764,-661 944.236,-661 944.236,-641 843.764,-641"/>
<text text-anchor="middle" x="894" y="-647" font-family="Helvetica,sans-Serif" font-size="10.00">_TIFFFindFieldInfo</text>
</a>
</g>
</g>
<!-- Node15&#45;&gt;Node16 -->
<g id="edge19" class="edge"><title>Node15&#45;&gt;Node16</title>
<path fill="none" stroke="midnightblue" d="M767.27,-544.029C777.513,-547.927 788.61,-552.934 798,-559 830.231,-579.821 860.867,-612.666 878.254,-632.962"/>
<polygon fill="midnightblue" stroke="midnightblue" points="875.747,-635.419 884.861,-640.821 881.105,-630.914 875.747,-635.419"/>
</g>
<!-- Node16&#45;&gt;Node12 -->
<g id="edge20" class="edge"><title>Node16&#45;&gt;Node12</title>
<path fill="none" stroke="midnightblue" d="M937.703,-661.102C943.573,-663.695 949.217,-666.941 954,-671 989.925,-701.483 1010.43,-754.854 1019.44,-783.856"/>
<polygon fill="midnightblue" stroke="midnightblue" points="1016.15,-785.078 1022.34,-793.679 1022.87,-783.097 1016.15,-785.078"/>
</g>
<!-- Node17&#45;&gt;Node2 -->
<g id="edge25" class="edge"><title>Node17&#45;&gt;Node2</title>
<path fill="none" stroke="midnightblue" d="M228.9,-485.09C232.574,-519.793 249.667,-635.058 318,-689 345.625,-710.807 438.47,-721.13 500.794,-725.707"/>
<polygon fill="midnightblue" stroke="midnightblue" points="500.681,-729.207 510.902,-726.419 501.173,-722.225 500.681,-729.207"/>
</g>
<!-- Node17&#45;&gt;Node7 -->
<g id="edge63" class="edge"><title>Node17&#45;&gt;Node7</title>
<path fill="none" stroke="midnightblue" d="M229.342,-485.482C234.46,-521.699 255.704,-643.421 318,-718 373.517,-784.463 468.349,-827.496 521.315,-847.646"/>
<polygon fill="midnightblue" stroke="midnightblue" points="520.106,-850.93 530.698,-851.142 522.55,-844.371 520.106,-850.93"/>
</g>
<!-- Node17&#45;&gt;Node13 -->
<g id="edge64" class="edge"><title>Node17&#45;&gt;Node13</title>
<path fill="none" stroke="midnightblue" d="M232.621,-464.855C242.134,-443.891 264.481,-394.219 282,-352 298.829,-311.445 285.547,-289.576 318,-260 322.46,-255.935 327.736,-252.735 333.331,-250.216"/>
<polygon fill="midnightblue" stroke="midnightblue" points="334.837,-253.39 342.961,-246.589 332.369,-246.839 334.837,-253.39"/>
</g>
<!-- Node17&#45;&gt;Node15 -->
<g id="edge24" class="edge"><title>Node17&#45;&gt;Node15</title>
<path fill="none" stroke="midnightblue" d="M233.528,-485.198C245.584,-506.217 276.52,-553.902 318,-572 380.686,-599.35 577.124,-565.578 675.571,-546.046"/>
<polygon fill="midnightblue" stroke="midnightblue" points="676.526,-549.425 685.644,-544.029 675.152,-542.561 676.526,-549.425"/>
</g>
<!-- Node18 -->
<g id="node18" class="node"><title>Node18</title>
<g id="a_node18"><a xlink:href="tif__dirread_8c.html#a37834ebcb9dcc5c547cfa0fbfb17ec96" target="_top" xlink:title="TIFFFetchByteArray">
<polygon fill="white" stroke="black" points="331.993,-387 331.993,-407 438.007,-407 438.007,-387 331.993,-387"/>
<text text-anchor="middle" x="385" y="-393" font-family="Helvetica,sans-Serif" font-size="10.00">TIFFFetchByteArray</text>
</a>
</g>
</g>
<!-- Node17&#45;&gt;Node18 -->
<g id="edge26" class="edge"><title>Node17&#45;&gt;Node18</title>
<path fill="none" stroke="midnightblue" d="M240.692,-464.892C257.495,-451.944 288.455,-429.56 318,-416 322.623,-413.878 327.537,-411.936 332.518,-410.173"/>
<polygon fill="midnightblue" stroke="midnightblue" points="333.721,-413.461 342.119,-407.001 331.526,-406.815 333.721,-413.461"/>
</g>
<!-- Node24 -->
<g id="node24" class="node"><title>Node24</title>
<g id="a_node24"><a xlink:href="tif__dirread_8c.html#ad425533d8f6b4704b5648c14f16ce14d" target="_top" xlink:title="TIFFFetchShortArray">
<polygon fill="white" stroke="black" points="330.047,-465 330.047,-485 439.953,-485 439.953,-465 330.047,-465"/>
<text text-anchor="middle" x="385" y="-471" font-family="Helvetica,sans-Serif" font-size="10.00">TIFFFetchShortArray</text>
</a>
</g>
</g>
<!-- Node17&#45;&gt;Node24 -->
<g id="edge36" class="edge"><title>Node17&#45;&gt;Node24</title>
<path fill="none" stroke="midnightblue" d="M282.561,-475C294.574,-475 307.404,-475 319.759,-475"/>
<polygon fill="midnightblue" stroke="midnightblue" points="319.996,-478.5 329.996,-475 319.996,-471.5 319.996,-478.5"/>
</g>
<!-- Node25 -->
<g id="node25" class="node"><title>Node25</title>
<g id="a_node25"><a xlink:href="tif__dirread_8c.html#a5bbdba62505d7d379f45c64c4ac1edc7" target="_top" xlink:title="TIFFFetchLongArray">
<polygon fill="white" stroke="black" points="330.875,-426 330.875,-446 439.125,-446 439.125,-426 330.875,-426"/>
<text text-anchor="middle" x="385" y="-432" font-family="Helvetica,sans-Serif" font-size="10.00">TIFFFetchLongArray</text>
</a>
</g>
</g>
<!-- Node17&#45;&gt;Node25 -->
<g id="edge38" class="edge"><title>Node17&#45;&gt;Node25</title>
<path fill="none" stroke="midnightblue" d="M268.174,-464.957C288.281,-459.93 312.813,-453.797 334.115,-448.471"/>
<polygon fill="midnightblue" stroke="midnightblue" points="335.11,-451.83 343.962,-446.009 333.412,-445.039 335.11,-451.83"/>
</g>
<!-- Node26 -->
<g id="node26" class="node"><title>Node26</title>
<g id="a_node26"><a xlink:href="tif__dirread_8c.html#af0bc99948eae3688d089651dd5c17882" target="_top" xlink:title="TIFFFetchRationalArray">
<polygon fill="white" stroke="black" points="323.653,-621 323.653,-641 446.347,-641 446.347,-621 323.653,-621"/>
<text text-anchor="middle" x="385" y="-627" font-family="Helvetica,sans-Serif" font-size="10.00">TIFFFetchRationalArray</text>
</a>
</g>
</g>
<!-- Node17&#45;&gt;Node26 -->
<g id="edge40" class="edge"><title>Node17&#45;&gt;Node26</title>
<path fill="none" stroke="midnightblue" d="M232.31,-485.073C243.163,-509.307 273.937,-571.416 318,-606 323.44,-610.27 329.689,-613.872 336.126,-616.893"/>
<polygon fill="midnightblue" stroke="midnightblue" points="335.046,-620.237 345.619,-620.914 337.776,-613.791 335.046,-620.237"/>
</g>
<!-- Node28 -->
<g id="node28" class="node"><title>Node28</title>
<g id="a_node28"><a xlink:href="tif__dirread_8c.html#a5ba65dc930b791217ca15cfa76e1583e" target="_top" xlink:title="TIFFFetchFloatArray">
<polygon fill="white" stroke="black" points="330.882,-309 330.882,-329 439.118,-329 439.118,-309 330.882,-309"/>
<text text-anchor="middle" x="385" y="-315" font-family="Helvetica,sans-Serif" font-size="10.00">TIFFFetchFloatArray</text>
</a>
</g>
</g>
<!-- Node17&#45;&gt;Node28 -->
<g id="edge48" class="edge"><title>Node17&#45;&gt;Node28</title>
<path fill="none" stroke="midnightblue" d="M231.7,-464.974C241.573,-439.638 271.031,-372.602 318,-338 320.218,-336.366 322.574,-334.872 325.024,-333.506"/>
<polygon fill="midnightblue" stroke="midnightblue" points="326.723,-336.573 334.233,-329.1 323.702,-330.259 326.723,-336.573"/>
</g>
<!-- Node30 -->
<g id="node30" class="node"><title>Node30</title>
<g id="a_node30"><a xlink:href="tif__dirread_8c.html#a29e964b0d03debc1489af672a20bac12" target="_top" xlink:title="TIFFFetchDoubleArray">
<polygon fill="white" stroke="black" points="326.153,-504 326.153,-524 443.847,-524 443.847,-504 326.153,-504"/>
<text text-anchor="middle" x="385" y="-510" font-family="Helvetica,sans-Serif" font-size="10.00">TIFFFetchDoubleArray</text>
</a>
</g>
</g>
<!-- Node17&#45;&gt;Node30 -->
<g id="edge51" class="edge"><title>Node17&#45;&gt;Node30</title>
<path fill="none" stroke="midnightblue" d="M268.174,-485.043C288.281,-490.07 312.813,-496.203 334.115,-501.529"/>
<polygon fill="midnightblue" stroke="midnightblue" points="333.412,-504.961 343.962,-503.991 335.11,-498.17 333.412,-504.961"/>
</g>
<!-- Node32 -->
<g id="node32" class="node"><title>Node32</title>
<g id="a_node32"><a xlink:href="tif__dirread_8c.html#a5ebd28727b33b7e2c66c8359df383fa9" target="_top" xlink:title="TIFFFetchString">
<polygon fill="white" stroke="black" points="340.882,-348 340.882,-368 429.118,-368 429.118,-348 340.882,-348"/>
<text text-anchor="middle" x="385" y="-354" font-family="Helvetica,sans-Serif" font-size="10.00">TIFFFetchString</text>
</a>
</g>
</g>
<!-- Node17&#45;&gt;Node32 -->
<g id="edge54" class="edge"><title>Node17&#45;&gt;Node32</title>
<path fill="none" stroke="midnightblue" d="M234.37,-464.996C247.526,-445.157 279.695,-400.702 318,-377 322.094,-374.467 326.538,-372.26 331.12,-370.34"/>
<polygon fill="midnightblue" stroke="midnightblue" points="332.503,-373.56 340.652,-366.788 330.059,-367 332.503,-373.56"/>
</g>
<!-- Node34 -->
<g id="node34" class="node"><title>Node34</title>
<g id="a_node34"><a xlink:href="tif__dir_8c.html#ab67cc9c8a198a63fb03c4425f9721244" target="_top" xlink:title="TIFFSetField">
<polygon fill="white" stroke="black" points="348.106,-660 348.106,-680 421.894,-680 421.894,-660 348.106,-660"/>
<text text-anchor="middle" x="385" y="-666" font-family="Helvetica,sans-Serif" font-size="10.00">TIFFSetField</text>
</a>
</g>
</g>
<!-- Node17&#45;&gt;Node34 -->
<g id="edge58" class="edge"><title>Node17&#45;&gt;Node34</title>
<path fill="none" stroke="midnightblue" d="M230.233,-485.042C237.395,-514.887 262.634,-603.836 318,-650 323.816,-654.85 330.787,-658.524 337.988,-661.307"/>
<polygon fill="midnightblue" stroke="midnightblue" points="337.268,-664.756 347.861,-664.577 339.469,-658.111 337.268,-664.756"/>
</g>
<!-- Node37 -->
<g id="node37" class="node"><title>Node37</title>
<g id="a_node37"><a xlink:href="tif__dirread_8c.html#a92a6ebeddd74b53c026ee8f967b0025e" target="_top" xlink:title="TIFFFetchFloat">
<polygon fill="white" stroke="black" points="342.828,-270 342.828,-290 427.172,-290 427.172,-270 342.828,-270"/>
<text text-anchor="middle" x="385" y="-276" font-family="Helvetica,sans-Serif" font-size="10.00">TIFFFetchFloat</text>
</a>
</g>
</g>
<!-- Node17&#45;&gt;Node37 -->
<g id="edge65" class="edge"><title>Node17&#45;&gt;Node37</title>
<path fill="none" stroke="midnightblue" d="M231.995,-464.708C245.4,-430.654 289.528,-322.461 318,-299 322.539,-295.26 327.78,-292.255 333.283,-289.842"/>
<polygon fill="midnightblue" stroke="midnightblue" points="334.574,-293.096 342.714,-286.314 332.121,-286.54 334.574,-293.096"/>
</g>
<!-- Node38 -->
<g id="node38" class="node"><title>Node38</title>
<g id="a_node38"><a xlink:href="tif__dirread_8c.html#a729e093b898c3feda45499391184907c" target="_top" xlink:title="TIFFFetchRational">
<polygon fill="white" stroke="black" points="335.599,-543 335.599,-563 434.401,-563 434.401,-543 335.599,-543"/>
<text text-anchor="middle" x="385" y="-549" font-family="Helvetica,sans-Serif" font-size="10.00">TIFFFetchRational</text>
</a>
</g>
</g>
<!-- Node17&#45;&gt;Node38 -->
<g id="edge68" class="edge"><title>Node17&#45;&gt;Node38</title>
<path fill="none" stroke="midnightblue" d="M241.043,-485.079C257.974,-497.756 288.814,-519.496 318,-533 323.29,-535.448 328.956,-537.688 334.662,-539.711"/>
<polygon fill="midnightblue" stroke="midnightblue" points="333.652,-543.063 344.245,-542.909 335.867,-536.423 333.652,-543.063"/>
</g>
<!-- Node19 -->
<g id="node19" class="node"><title>Node19</title>
<g id="a_node19"><a xlink:href="tif__dirread_8c.html#a3a8b2608359688b663203e53c5b85f57" target="_top" xlink:title="TIFFFetchData">
<polygon fill="white" stroke="black" points="519.382,-445 519.382,-465 602.618,-465 602.618,-445 519.382,-445"/>
<text text-anchor="middle" x="561" y="-451" font-family="Helvetica,sans-Serif" font-size="10.00">TIFFFetchData</text>
</a>
</g>
</g>
<!-- Node18&#45;&gt;Node19 -->
<g id="edge27" class="edge"><title>Node18&#45;&gt;Node19</title>
<path fill="none" stroke="midnightblue" d="M422.442,-407.024C432.091,-409.805 442.472,-412.912 452,-416 476.229,-423.853 503.175,-433.581 524.09,-441.358"/>
<polygon fill="midnightblue" stroke="midnightblue" points="522.947,-444.667 533.539,-444.89 525.398,-438.11 522.947,-444.667"/>
</g>
<!-- Node19&#45;&gt;Node4 -->
<g id="edge34" class="edge"><title>Node19&#45;&gt;Node4</title>
<path fill="none" stroke="midnightblue" d="M587.034,-465.055C601.902,-471.907 620.438,-482.079 634,-495 655.966,-515.928 646.015,-534.42 670,-553 717.118,-589.5 753.119,-553.781 798,-593 826.447,-617.858 805.853,-644.803 834,-670 837.928,-673.517 842.5,-676.419 847.328,-678.814"/>
<polygon fill="midnightblue" stroke="midnightblue" points="846.251,-682.159 856.825,-682.822 848.973,-675.709 846.251,-682.159"/>
</g>
<!-- Node19&#45;&gt;Node8 -->
<g id="edge29" class="edge"><title>Node19&#45;&gt;Node8</title>
<path fill="none" stroke="midnightblue" d="M584.375,-444.894C599.096,-437.77 618.444,-427.481 634,-416 666.671,-391.887 699.287,-357.416 717.725,-336.719"/>
<polygon fill="midnightblue" stroke="midnightblue" points="720.526,-338.833 724.501,-329.012 715.269,-334.211 720.526,-338.833"/>
</g>
<!-- Node19&#45;&gt;Node15 -->
<g id="edge35" class="edge"><title>Node19&#45;&gt;Node15</title>
<path fill="none" stroke="midnightblue" d="M583.657,-465.005C613.641,-478.858 667.962,-503.953 702.171,-519.757"/>
<polygon fill="midnightblue" stroke="midnightblue" points="700.703,-522.935 711.249,-523.951 703.639,-516.58 700.703,-522.935"/>
</g>
<!-- Node20 -->
<g id="node20" class="node"><title>Node20</title>
<g id="a_node20"><a xlink:href="tif__dirinfo_8c.html#a2e6382d04dbf3af83901b2f032fa98e7" target="_top" xlink:title="TIFFDataWidth">
<polygon fill="white" stroke="black" points="692.106,-602 692.106,-622 775.894,-622 775.894,-602 692.106,-602"/>
<text text-anchor="middle" x="734" y="-608" font-family="Helvetica,sans-Serif" font-size="10.00">TIFFDataWidth</text>
</a>
</g>
</g>
<!-- Node19&#45;&gt;Node20 -->
<g id="edge28" class="edge"><title>Node19&#45;&gt;Node20</title>
<path fill="none" stroke="midnightblue" d="M590.024,-465.131C604.794,-471.69 622.236,-481.542 634,-495 662.897,-528.058 639.027,-555.878 670,-587 674.148,-591.168 679.077,-594.661 684.324,-597.584"/>
<polygon fill="midnightblue" stroke="midnightblue" points="682.849,-600.759 693.372,-601.984 685.91,-594.463 682.849,-600.759"/>
</g>
<!-- Node19&#45;&gt;Node21 -->
<g id="edge30" class="edge"><title>Node19&#45;&gt;Node21</title>
<path fill="none" stroke="midnightblue" d="M592.216,-444.847C606.692,-438.589 623.188,-429.195 634,-416 668.482,-373.917 646.726,-348.177 670,-299 683.459,-270.561 704.499,-240.805 718.513,-222.337"/>
<polygon fill="midnightblue" stroke="midnightblue" points="721.428,-224.288 724.764,-214.232 715.885,-220.013 721.428,-224.288"/>
</g>
<!-- Node19&#45;&gt;Node22 -->
<g id="edge31" class="edge"><title>Node19&#45;&gt;Node22</title>
<path fill="none" stroke="midnightblue" d="M602.664,-452.952C649.82,-450.253 729.809,-444.677 798,-435 811.138,-433.136 825.2,-430.616 838.369,-428.022"/>
<polygon fill="midnightblue" stroke="midnightblue" points="839.124,-431.44 848.236,-426.033 837.741,-424.578 839.124,-431.44"/>
</g>
<!-- Node23 -->
<g id="node23" class="node"><title>Node23</title>
<g id="a_node23"><a xlink:href="tif__swab_8c.html#a1cb63e1ce5f2a4895038fc97d9a28bcf" target="_top" xlink:title="TIFFSwabArrayOfDouble">
<polygon fill="white" stroke="black" points="669.872,-406 669.872,-426 798.128,-426 798.128,-406 669.872,-406"/>
<text text-anchor="middle" x="734" y="-412" font-family="Helvetica,sans-Serif" font-size="10.00">TIFFSwabArrayOfDouble</text>
</a>
</g>
</g>
<!-- Node19&#45;&gt;Node23 -->
<g id="edge32" class="edge"><title>Node19&#45;&gt;Node23</title>
<path fill="none" stroke="midnightblue" d="M602.959,-445.659C625.798,-440.45 654.52,-433.899 679.159,-428.28"/>
<polygon fill="midnightblue" stroke="midnightblue" points="680.113,-431.652 689.084,-426.016 678.556,-424.827 680.113,-431.652"/>
</g>
<!-- Node23&#45;&gt;Node22 -->
<g id="edge33" class="edge"><title>Node23&#45;&gt;Node22</title>
<path fill="none" stroke="midnightblue" d="M798.354,-416C806.932,-416 815.765,-416 824.428,-416"/>
<polygon fill="midnightblue" stroke="midnightblue" points="824.495,-419.5 834.495,-416 824.495,-412.5 824.495,-419.5"/>
</g>
<!-- Node24&#45;&gt;Node19 -->
<g id="edge37" class="edge"><title>Node24&#45;&gt;Node19</title>
<path fill="none" stroke="midnightblue" d="M440.101,-468.782C462.148,-466.247 487.501,-463.333 509.199,-460.839"/>
<polygon fill="midnightblue" stroke="midnightblue" points="509.67,-464.308 519.205,-459.689 508.87,-457.354 509.67,-464.308"/>
</g>
<!-- Node25&#45;&gt;Node19 -->
<g id="edge39" class="edge"><title>Node25&#45;&gt;Node19</title>
<path fill="none" stroke="midnightblue" d="M439.151,-441.804C461.411,-444.235 487.173,-447.048 509.178,-449.45"/>
<polygon fill="midnightblue" stroke="midnightblue" points="509.001,-452.952 519.321,-450.558 509.76,-445.993 509.001,-452.952"/>
</g>
<!-- Node26&#45;&gt;Node2 -->
<g id="edge41" class="edge"><title>Node26&#45;&gt;Node2</title>
<path fill="none" stroke="midnightblue" d="M434.169,-641.071C440.532,-643.663 446.682,-646.917 452,-651 476.065,-669.476 463.721,-690.805 488,-709 492.112,-712.082 496.675,-714.688 501.452,-716.894"/>
<polygon fill="midnightblue" stroke="midnightblue" points="500.253,-720.184 510.837,-720.658 502.859,-713.687 500.253,-720.184"/>
</g>
<!-- Node26&#45;&gt;Node7 -->
<g id="edge47" class="edge"><title>Node26&#45;&gt;Node7</title>
<path fill="none" stroke="midnightblue" d="M436.96,-641.041C442.465,-643.636 447.64,-646.898 452,-651 485.495,-682.507 467.53,-706.823 488,-748 505.396,-782.995 530.968,-820.724 546.493,-842.528"/>
<polygon fill="midnightblue" stroke="midnightblue" points="543.795,-844.771 552.478,-850.843 549.476,-840.682 543.795,-844.771"/>
</g>
<!-- Node26&#45;&gt;Node19 -->
<g id="edge43" class="edge"><title>Node26&#45;&gt;Node19</title>
<path fill="none" stroke="midnightblue" d="M400.421,-620.859C414.938,-610.074 437.236,-591.857 452,-572 474.541,-541.684 462.235,-522.628 488,-495 497.87,-484.416 511.188,-475.95 523.686,-469.58"/>
<polygon fill="midnightblue" stroke="midnightblue" points="525.503,-472.591 533.013,-465.117 522.482,-466.276 525.503,-472.591"/>
</g>
<!-- Node26&#45;&gt;Node20 -->
<g id="edge42" class="edge"><title>Node26&#45;&gt;Node20</title>
<path fill="none" stroke="midnightblue" d="M446.541,-634.192C496.847,-636.08 570.242,-637.063 634,-631 649.721,-629.505 666.659,-626.703 682.004,-623.702"/>
<polygon fill="midnightblue" stroke="midnightblue" points="682.722,-627.128 691.828,-621.712 681.332,-620.267 682.722,-627.128"/>
</g>
<!-- Node27 -->
<g id="node27" class="node"><title>Node27</title>
<g id="a_node27"><a xlink:href="tif__dirread_8c.html#abdb0a593f75922d660cf8cbd8bd2547c" target="_top" xlink:title="cvtRational">
<polygon fill="white" stroke="black" points="528.266,-602 528.266,-622 593.734,-622 593.734,-602 528.266,-602"/>
<text text-anchor="middle" x="561" y="-608" font-family="Helvetica,sans-Serif" font-size="10.00">cvtRational</text>
</a>
</g>
</g>
<!-- Node26&#45;&gt;Node27 -->
<g id="edge44" class="edge"><title>Node26&#45;&gt;Node27</title>
<path fill="none" stroke="midnightblue" d="M446.368,-624.408C469.987,-621.829 496.504,-618.934 517.978,-616.589"/>
<polygon fill="midnightblue" stroke="midnightblue" points="518.518,-620.05 528.079,-615.486 517.759,-613.092 518.518,-620.05"/>
</g>
<!-- Node27&#45;&gt;Node4 -->
<g id="edge45" class="edge"><title>Node27&#45;&gt;Node4</title>
<path fill="none" stroke="midnightblue" d="M593.738,-619.479C652.531,-633.334 778.592,-663.04 846.837,-679.122"/>
<polygon fill="midnightblue" stroke="midnightblue" points="846.337,-682.6 856.873,-681.487 847.942,-675.786 846.337,-682.6"/>
</g>
<!-- Node27&#45;&gt;Node15 -->
<g id="edge46" class="edge"><title>Node27&#45;&gt;Node15</title>
<path fill="none" stroke="midnightblue" d="M593.957,-602.105C606.6,-597.881 621.153,-592.628 634,-587 659.745,-575.723 687.89,-560.339 707.568,-549.05"/>
<polygon fill="midnightblue" stroke="midnightblue" points="709.338,-552.069 716.236,-544.027 705.829,-546.012 709.338,-552.069"/>
</g>
<!-- Node28&#45;&gt;Node19 -->
<g id="edge50" class="edge"><title>Node28&#45;&gt;Node19</title>
<path fill="none" stroke="midnightblue" d="M437.64,-329.015C442.832,-331.4 447.748,-334.35 452,-338 480.971,-362.869 461.88,-388.152 488,-416 497.687,-426.328 510.737,-434.524 523.065,-440.682"/>
<polygon fill="midnightblue" stroke="midnightblue" points="521.744,-443.928 532.285,-444.996 524.711,-437.588 521.744,-443.928"/>
</g>
<!-- Node29 -->
<g id="node29" class="node"><title>Node29</title>
<g id="a_node29"><a xlink:href="tif__dirread_8c.html#a4e11c0f9d900ced70ca5deb2b76c8516" target="_top" xlink:title="TIFFCvtIEEEFloatToNative">
<polygon fill="white" stroke="black" points="492.985,-309 492.985,-329 629.015,-329 629.015,-309 492.985,-309"/>
<text text-anchor="middle" x="561" y="-315" font-family="Helvetica,sans-Serif" font-size="10.00">TIFFCvtIEEEFloatToNative</text>
</a>
</g>
</g>
<!-- Node28&#45;&gt;Node29 -->
<g id="edge49" class="edge"><title>Node28&#45;&gt;Node29</title>
<path fill="none" stroke="midnightblue" d="M439.151,-319C452.874,-319 467.929,-319 482.614,-319"/>
<polygon fill="midnightblue" stroke="midnightblue" points="482.7,-322.5 492.7,-319 482.7,-315.5 482.7,-322.5"/>
</g>
<!-- Node30&#45;&gt;Node19 -->
<g id="edge52" class="edge"><title>Node30&#45;&gt;Node19</title>
<path fill="none" stroke="midnightblue" d="M420.363,-503.958C430.579,-500.873 441.773,-497.394 452,-494 476.174,-485.979 503.12,-476.25 524.049,-468.515"/>
<polygon fill="midnightblue" stroke="midnightblue" points="525.348,-471.767 533.505,-465.006 522.912,-465.204 525.348,-471.767"/>
</g>
<!-- Node31 -->
<g id="node31" class="node"><title>Node31</title>
<g id="a_node31"><a xlink:href="tif__dirread_8c.html#ab42cb8bdcaa057e212188141a338aec0" target="_top" xlink:title="TIFFCvtIEEEDoubleToNative">
<polygon fill="white" stroke="black" points="488.256,-504 488.256,-524 633.744,-524 633.744,-504 488.256,-504"/>
<text text-anchor="middle" x="561" y="-510" font-family="Helvetica,sans-Serif" font-size="10.00">TIFFCvtIEEEDoubleToNative</text>
</a>
</g>
</g>
<!-- Node30&#45;&gt;Node31 -->
<g id="edge53" class="edge"><title>Node30&#45;&gt;Node31</title>
<path fill="none" stroke="midnightblue" d="M443.939,-514C454.874,-514 466.5,-514 478.008,-514"/>
<polygon fill="midnightblue" stroke="midnightblue" points="478.072,-517.5 488.072,-514 478.072,-510.5 478.072,-517.5"/>
</g>
<!-- Node32&#45;&gt;Node8 -->
<g id="edge56" class="edge"><title>Node32&#45;&gt;Node8</title>
<path fill="none" stroke="midnightblue" d="M429.164,-355.95C478.762,-353.264 562.521,-347.712 634,-338 650.217,-335.797 667.797,-332.668 683.58,-329.583"/>
<polygon fill="midnightblue" stroke="midnightblue" points="684.537,-332.961 693.659,-327.573 683.168,-326.097 684.537,-332.961"/>
</g>
<!-- Node32&#45;&gt;Node19 -->
<g id="edge57" class="edge"><title>Node32&#45;&gt;Node19</title>
<path fill="none" stroke="midnightblue" d="M429.34,-366.802C437.208,-369.406 445.1,-372.742 452,-377 472.075,-389.387 469.378,-401.52 488,-416 500.192,-425.479 515.001,-433.937 528.012,-440.532"/>
<polygon fill="midnightblue" stroke="midnightblue" points="526.585,-443.73 537.104,-444.993 529.669,-437.446 526.585,-443.73"/>
</g>
<!-- Node33 -->
<g id="node33" class="node"><title>Node33</title>
<g id="a_node33"><a xlink:href="tif__swab_8c.html#a26e1c7bc0c475467d88fc9d0f5f91247" target="_top" xlink:title="TIFFSwabLong">
<polygon fill="white" stroke="black" points="518.818,-387 518.818,-407 603.182,-407 603.182,-387 518.818,-387"/>
<text text-anchor="middle" x="561" y="-393" font-family="Helvetica,sans-Serif" font-size="10.00">TIFFSwabLong</text>
</a>
</g>
</g>
<!-- Node32&#45;&gt;Node33 -->
<g id="edge55" class="edge"><title>Node32&#45;&gt;Node33</title>
<path fill="none" stroke="midnightblue" d="M429.459,-367.741C453.541,-373.138 483.62,-379.88 508.833,-385.532"/>
<polygon fill="midnightblue" stroke="midnightblue" points="508.068,-388.947 518.591,-387.719 509.599,-382.116 508.068,-388.947"/>
</g>
<!-- Node35 -->
<g id="node35" class="node"><title>Node35</title>
<g id="a_node35"><a xlink:href="tif__dir_8c.html#a7faeeb72c084f9e488bfc124d0b67f16" target="_top" xlink:title="TIFFVSetField">
<polygon fill="white" stroke="black" points="520.771,-680 520.771,-700 601.229,-700 601.229,-680 520.771,-680"/>
<text text-anchor="middle" x="561" y="-686" font-family="Helvetica,sans-Serif" font-size="10.00">TIFFVSetField</text>
</a>
</g>
</g>
<!-- Node34&#45;&gt;Node35 -->
<g id="edge59" class="edge"><title>Node34&#45;&gt;Node35</title>
<path fill="none" stroke="midnightblue" d="M422.053,-674.144C447.674,-677.089 482.397,-681.08 510.596,-684.321"/>
<polygon fill="midnightblue" stroke="midnightblue" points="510.327,-687.813 520.661,-685.478 511.126,-680.859 510.327,-687.813"/>
</g>
<!-- Node36 -->
<g id="node36" class="node"><title>Node36</title>
<g id="a_node36"><a xlink:href="tif__dir_8c.html#a5c2dd017f3acbdceecf65f442192bb6d" target="_top" xlink:title="OkToChangeTag">
<polygon fill="white" stroke="black" points="688.754,-680 688.754,-700 779.246,-700 779.246,-680 688.754,-680"/>
<text text-anchor="middle" x="734" y="-686" font-family="Helvetica,sans-Serif" font-size="10.00">OkToChangeTag</text>
</a>
</g>
</g>
<!-- Node35&#45;&gt;Node36 -->
<g id="edge60" class="edge"><title>Node35&#45;&gt;Node36</title>
<path fill="none" stroke="midnightblue" d="M601.231,-690C624.11,-690 653.315,-690 678.412,-690"/>
<polygon fill="midnightblue" stroke="midnightblue" points="678.525,-693.5 688.525,-690 678.525,-686.5 678.525,-693.5"/>
</g>
<!-- Node36&#45;&gt;Node4 -->
<g id="edge62" class="edge"><title>Node36&#45;&gt;Node4</title>
<path fill="none" stroke="midnightblue" d="M779.432,-690C800.454,-690 825.543,-690 846.787,-690"/>
<polygon fill="midnightblue" stroke="midnightblue" points="846.872,-693.5 856.872,-690 846.872,-686.5 846.872,-693.5"/>
</g>
<!-- Node36&#45;&gt;Node16 -->
<g id="edge61" class="edge"><title>Node36&#45;&gt;Node16</title>
<path fill="none" stroke="midnightblue" d="M775.689,-679.957C796.054,-674.93 820.9,-668.797 842.475,-663.471"/>
<polygon fill="midnightblue" stroke="midnightblue" points="843.579,-666.804 852.449,-661.009 841.902,-660.008 843.579,-666.804"/>
</g>
<!-- Node37&#45;&gt;Node8 -->
<g id="edge66" class="edge"><title>Node37&#45;&gt;Node8</title>
<path fill="none" stroke="midnightblue" d="M427.414,-281.616C476.789,-283.901 561.716,-288.968 634,-299 650.242,-301.254 667.828,-304.53 683.61,-307.781"/>
<polygon fill="midnightblue" stroke="midnightblue" points="683.181,-311.267 693.687,-309.902 684.623,-304.417 683.181,-311.267"/>
</g>
<!-- Node37&#45;&gt;Node29 -->
<g id="edge67" class="edge"><title>Node37&#45;&gt;Node29</title>
<path fill="none" stroke="midnightblue" d="M427.236,-289.242C450.569,-294.472 480.042,-301.078 505.288,-306.737"/>
<polygon fill="midnightblue" stroke="midnightblue" points="504.57,-310.163 515.093,-308.935 506.101,-303.332 504.57,-310.163"/>
</g>
<!-- Node38&#45;&gt;Node19 -->
<g id="edge69" class="edge"><title>Node38&#45;&gt;Node19</title>
<path fill="none" stroke="midnightblue" d="M430.686,-542.92C438.096,-540.29 445.481,-537.027 452,-533 471.793,-520.774 469.618,-509.259 488,-495 500.456,-485.338 515.536,-476.58 528.67,-469.738"/>
<polygon fill="midnightblue" stroke="midnightblue" points="530.479,-472.746 537.825,-465.11 527.321,-466.499 530.479,-472.746"/>
</g>
<!-- Node38&#45;&gt;Node27 -->
<g id="edge70" class="edge"><title>Node38&#45;&gt;Node27</title>
<path fill="none" stroke="midnightblue" d="M415.517,-563.009C444.514,-572.841 488.931,-587.902 520.861,-598.729"/>
<polygon fill="midnightblue" stroke="midnightblue" points="519.744,-602.046 530.338,-601.942 521.992,-595.416 519.744,-602.046"/>
</g>
<!-- Node39&#45;&gt;Node6 -->
<g id="edge72" class="edge"><title>Node39&#45;&gt;Node6</title>
<path fill="none" stroke="midnightblue" d="M434.007,-900C458.212,-900 487.494,-900 511.735,-900"/>
<polygon fill="midnightblue" stroke="midnightblue" points="511.786,-903.5 521.786,-900 511.785,-896.5 511.786,-903.5"/>
</g>
<!-- Node39&#45;&gt;Node7 -->
<g id="edge73" class="edge"><title>Node39&#45;&gt;Node7</title>
<path fill="none" stroke="midnightblue" d="M430.809,-889.957C458.756,-883.693 494.366,-875.711 521.12,-869.714"/>
<polygon fill="midnightblue" stroke="midnightblue" points="521.913,-873.124 530.905,-867.521 520.382,-866.293 521.913,-873.124"/>
</g>
</g>
</svg>
