<?xml version="1.0" encoding="UTF-8" standalone="no"?>
<!DOCTYPE svg PUBLIC "-//W3C//DTD SVG 1.1//EN"
 "http://www.w3.org/Graphics/SVG/1.1/DTD/svg11.dtd">
<!-- Generated by graphviz version 2.32.0 (20130916.1925)
 -->
<!-- Title: TIFFGetConfiguredCODECs Pages: 1 -->
<svg width="684pt" height="203pt"
 viewBox="0.00 0.00 684.00 203.00" xmlns="http://www.w3.org/2000/svg" xmlns:xlink="http://www.w3.org/1999/xlink">
<g id="graph0" class="graph" transform="scale(1 1) rotate(0) translate(4 199)">
<title>TIFFGetConfiguredCODECs</title>
<polygon fill="white" stroke="white" points="-4,5 -4,-199 681,-199 681,5 -4,5"/>
<!-- Node1 -->
<g id="node1" class="node"><title>Node1</title>
<polygon fill="#bfbfbf" stroke="black" points="0.37207,-97 0.37207,-117 143.628,-117 143.628,-97 0.37207,-97"/>
<text text-anchor="middle" x="72" y="-103" font-family="Helvetica,sans-Serif" font-size="10.00">TIFFGetConfiguredCODECs</text>
</g>
<!-- Node2 -->
<g id="node2" class="node"><title>Node2</title>
<g id="a_node2"><a xlink:href="tif__apple_8c.html#adcb814cdc66530ea86553b6840c19819" target="_top" xlink:title="_TIFFfree">
<polygon fill="white" stroke="black" points="215.052,-175 215.052,-195 274.948,-195 274.948,-175 215.052,-175"/>
<text text-anchor="middle" x="245" y="-181" font-family="Helvetica,sans-Serif" font-size="10.00">_TIFFfree</text>
</a>
</g>
</g>
<!-- Node1&#45;&gt;Node2 -->
<g id="edge1" class="edge"><title>Node1&#45;&gt;Node2</title>
<path fill="none" stroke="midnightblue" d="M89.1875,-117.067C109.729,-129.534 146.523,-150.854 180,-165 188.015,-168.387 196.807,-171.501 205.237,-174.213"/>
<polygon fill="midnightblue" stroke="midnightblue" points="204.312,-177.591 214.9,-177.204 206.382,-170.904 204.312,-177.591"/>
</g>
<!-- Node3 -->
<g id="node3" class="node"><title>Node3</title>
<g id="a_node3"><a xlink:href="tif__apple_8c.html#aacf23567597faf7b8f01f31f397217f0" target="_top" xlink:title="_TIFFmemcpy">
<polygon fill="white" stroke="black" points="204.776,-136 204.776,-156 285.224,-156 285.224,-136 204.776,-136"/>
<text text-anchor="middle" x="245" y="-142" font-family="Helvetica,sans-Serif" font-size="10.00">_TIFFmemcpy</text>
</a>
</g>
</g>
<!-- Node1&#45;&gt;Node3 -->
<g id="edge2" class="edge"><title>Node1&#45;&gt;Node3</title>
<path fill="none" stroke="midnightblue" d="M117.037,-117.043C140.781,-122.459 170.154,-129.158 194.665,-134.748"/>
<polygon fill="midnightblue" stroke="midnightblue" points="193.964,-138.178 204.492,-136.989 195.521,-131.353 193.964,-138.178"/>
</g>
<!-- Node4 -->
<g id="node4" class="node"><title>Node4</title>
<g id="a_node4"><a xlink:href="tif__apple_8c.html#abbc4b30de2ac6b7eecdf9362bfa74c39" target="_top" xlink:title="_TIFFmemset">
<polygon fill="white" stroke="black" points="205.887,-97 205.887,-117 284.113,-117 284.113,-97 205.887,-97"/>
<text text-anchor="middle" x="245" y="-103" font-family="Helvetica,sans-Serif" font-size="10.00">_TIFFmemset</text>
</a>
</g>
</g>
<!-- Node1&#45;&gt;Node4 -->
<g id="edge3" class="edge"><title>Node1&#45;&gt;Node4</title>
<path fill="none" stroke="midnightblue" d="M144.034,-107C161.347,-107 179.475,-107 195.466,-107"/>
<polygon fill="midnightblue" stroke="midnightblue" points="195.636,-110.5 205.636,-107 195.636,-103.5 195.636,-110.5"/>
</g>
<!-- Node5 -->
<g id="node5" class="node"><title>Node5</title>
<g id="a_node5"><a xlink:href="tif__apple_8c.html#a6bb8a05190e8eefa70db67b4c20f2aeb" target="_top" xlink:title="_TIFFrealloc">
<polygon fill="white" stroke="black" points="208.938,-58 208.938,-78 281.062,-78 281.062,-58 208.938,-58"/>
<text text-anchor="middle" x="245" y="-64" font-family="Helvetica,sans-Serif" font-size="10.00">_TIFFrealloc</text>
</a>
</g>
</g>
<!-- Node1&#45;&gt;Node5 -->
<g id="edge4" class="edge"><title>Node1&#45;&gt;Node5</title>
<path fill="none" stroke="midnightblue" d="M117.037,-96.9565C142.085,-91.2437 173.398,-84.1021 198.66,-78.3408"/>
<polygon fill="midnightblue" stroke="midnightblue" points="199.753,-81.6814 208.724,-76.0454 198.196,-74.8567 199.753,-81.6814"/>
</g>
<!-- Node6 -->
<g id="node6" class="node"><title>Node6</title>
<g id="a_node6"><a xlink:href="tif__codec_8c.html#a09af2d3e1c230a0d78ebc531205d173a" target="_top" xlink:title="TIFFIsCODECConfigured">
<polygon fill="white" stroke="black" points="180.042,-19 180.042,-39 309.958,-39 309.958,-19 180.042,-19"/>
<text text-anchor="middle" x="245" y="-25" font-family="Helvetica,sans-Serif" font-size="10.00">TIFFIsCODECConfigured</text>
</a>
</g>
</g>
<!-- Node1&#45;&gt;Node6 -->
<g id="edge5" class="edge"><title>Node1&#45;&gt;Node6</title>
<path fill="none" stroke="midnightblue" d="M89.1875,-96.9334C109.729,-84.4656 146.523,-63.1463 180,-49 185.77,-46.5617 191.943,-44.2647 198.093,-42.1575"/>
<polygon fill="midnightblue" stroke="midnightblue" points="199.27,-45.4548 207.679,-39.0091 197.086,-38.8043 199.27,-45.4548"/>
</g>
<!-- Node7 -->
<g id="node7" class="node"><title>Node7</title>
<g id="a_node7"><a xlink:href="tif__compress_8c.html#a7f233a5bea0e99a82aa46ca549887c33" target="_top" xlink:title="TIFFFindCODEC">
<polygon fill="white" stroke="black" points="582.665,-39 582.665,-59 675.335,-59 675.335,-39 582.665,-39"/>
<text text-anchor="middle" x="629" y="-45" font-family="Helvetica,sans-Serif" font-size="10.00">TIFFFindCODEC</text>
</a>
</g>
</g>
<!-- Node6&#45;&gt;Node7 -->
<g id="edge6" class="edge"><title>Node6&#45;&gt;Node7</title>
<path fill="none" stroke="midnightblue" d="M310.369,-32.3701C383.785,-36.2139 502.632,-42.4362 572.247,-46.081"/>
<polygon fill="midnightblue" stroke="midnightblue" points="572.397,-49.5936 582.567,-46.6213 572.763,-42.6031 572.397,-49.5936"/>
</g>
<!-- Node8 -->
<g id="node8" class="node"><title>Node8</title>
<g id="a_node8"><a xlink:href="tif__codec_8c.html#a7f64f89d3fb230bec84c0b34857b3c88" target="_top" xlink:title="NotConfigured">
<polygon fill="white" stroke="black" points="345.759,-0 345.759,-20 426.241,-20 426.241,-0 345.759,-0"/>
<text text-anchor="middle" x="386" y="-6" font-family="Helvetica,sans-Serif" font-size="10.00">NotConfigured</text>
</a>
</g>
</g>
<!-- Node6&#45;&gt;Node8 -->
<g id="edge7" class="edge"><title>Node6&#45;&gt;Node8</title>
<path fill="none" stroke="midnightblue" d="M310.211,-20.223C318.713,-19.0608 327.322,-17.884 335.524,-16.7629"/>
<polygon fill="midnightblue" stroke="midnightblue" points="336.224,-20.1999 345.657,-15.3778 335.276,-13.2644 336.224,-20.1999"/>
</g>
<!-- Node9 -->
<g id="node9" class="node"><title>Node9</title>
<g id="a_node9"><a xlink:href="tif__codec_8c.html#a71b59200c896ba126951d635996d6acb" target="_top" xlink:title="_notConfigured">
<polygon fill="white" stroke="black" points="461.808,-0 461.808,-20 546.192,-20 546.192,-0 461.808,-0"/>
<text text-anchor="middle" x="504" y="-6" font-family="Helvetica,sans-Serif" font-size="10.00">_notConfigured</text>
</a>
</g>
</g>
<!-- Node8&#45;&gt;Node9 -->
<g id="edge8" class="edge"><title>Node8&#45;&gt;Node9</title>
<path fill="none" stroke="midnightblue" d="M426.272,-10C434.403,-10 443.084,-10 451.574,-10"/>
<polygon fill="midnightblue" stroke="midnightblue" points="451.786,-13.5001 461.786,-10 451.786,-6.5001 451.786,-13.5001"/>
</g>
<!-- Node9&#45;&gt;Node7 -->
<g id="edge9" class="edge"><title>Node9&#45;&gt;Node7</title>
<path fill="none" stroke="midnightblue" d="M536.676,-20.0435C551.884,-24.8655 570.302,-30.7055 586.603,-35.8742"/>
<polygon fill="midnightblue" stroke="midnightblue" points="585.842,-39.3044 596.432,-38.9906 587.957,-32.6318 585.842,-39.3044"/>
</g>
<!-- Node10 -->
<g id="node10" class="node"><title>Node10</title>
<g id="a_node10"><a xlink:href="tif__error_8c.html#a2e8b77a2d4e7b7283b55b963dd67ec31" target="_top" xlink:title="TIFFErrorExt">
<polygon fill="white" stroke="black" points="592.113,-0 592.113,-20 665.887,-20 665.887,-0 592.113,-0"/>
<text text-anchor="middle" x="629" y="-6" font-family="Helvetica,sans-Serif" font-size="10.00">TIFFErrorExt</text>
</a>
</g>
</g>
<!-- Node9&#45;&gt;Node10 -->
<g id="edge10" class="edge"><title>Node9&#45;&gt;Node10</title>
<path fill="none" stroke="midnightblue" d="M546.299,-10C557.743,-10 570.236,-10 581.933,-10"/>
<polygon fill="midnightblue" stroke="midnightblue" points="581.961,-13.5001 591.961,-10 581.961,-6.5001 581.961,-13.5001"/>
</g>
</g>
</svg>
