<?xml version="1.0" encoding="UTF-8" standalone="no"?>
<!DOCTYPE svg PUBLIC "-//W3C//DTD SVG 1.1//EN"
 "http://www.w3.org/Graphics/SVG/1.1/DTD/svg11.dtd">
<!-- Generated by graphviz version 2.32.0 (20130916.1925)
 -->
<!-- Title: _TIFFmemset Pages: 1 -->
<svg width="1960pt" height="784pt"
 viewBox="0.00 0.00 1960.00 784.00" xmlns="http://www.w3.org/2000/svg" xmlns:xlink="http://www.w3.org/1999/xlink">
<g id="graph0" class="graph" transform="scale(1 1) rotate(0) translate(4 780)">
<title>_TIFFmemset</title>
<polygon fill="white" stroke="white" points="-4,5 -4,-780 1957,-780 1957,5 -4,5"/>
<!-- Node1 -->
<g id="node1" class="node"><title>Node1</title>
<polygon fill="#bfbfbf" stroke="black" points="-0.113281,-311 -0.113281,-331 78.1133,-331 78.1133,-311 -0.113281,-311"/>
<text text-anchor="middle" x="39" y="-317" font-family="Helvetica,sans-Serif" font-size="10.00">_TIFFmemset</text>
</g>
<!-- Node2 -->
<g id="node2" class="node"><title>Node2</title>
<g id="a_node2"><a xlink:href="tif__dir_8h.html#a756ff6f35df8569e2d75bb9c2aa8bcae" target="_top" xlink:title="_TIFFCreateAnonFieldInfo">
<polygon fill="white" stroke="black" points="293.806,-698 293.806,-718 428.194,-718 428.194,-698 293.806,-698"/>
<text text-anchor="middle" x="361" y="-704" font-family="Helvetica,sans-Serif" font-size="10.00">_TIFFCreateAnonFieldInfo</text>
</a>
</g>
</g>
<!-- Node1&#45;&gt;Node2 -->
<g id="edge1" class="edge"><title>Node1&#45;&gt;Node2</title>
<path fill="none" stroke="midnightblue" d="M42.3583,-341.355C49.8493,-402.713 74.9345,-584.273 114,-627 160.042,-677.357 237.939,-696.475 293.746,-703.695"/>
<polygon fill="midnightblue" stroke="midnightblue" points="45.79,-340.574 41.1301,-331.059 38.8393,-341.403 45.79,-340.574"/>
</g>
<!-- Node9 -->
<g id="node9" class="node"><title>Node9</title>
<g id="a_node9"><a xlink:href="tiffio_8h.html#a165611e0432d36de8bcf57f35e161bd3" target="_top" xlink:title="TIFFClientOpen">
<polygon fill="white" stroke="black" points="1292.43,-469 1292.43,-489 1379.57,-489 1379.57,-469 1292.43,-469"/>
<text text-anchor="middle" x="1336" y="-475" font-family="Helvetica,sans-Serif" font-size="10.00">TIFFClientOpen</text>
</a>
</g>
</g>
<!-- Node1&#45;&gt;Node9 -->
<g id="edge46" class="edge"><title>Node1&#45;&gt;Node9</title>
<path fill="none" stroke="midnightblue" d="M73.3106,-334.714C130.773,-357.093 252.701,-399 360,-399 360,-399 360,-399 1062,-399 1160.28,-399 1270.73,-447.341 1315.04,-468.868"/>
<polygon fill="midnightblue" stroke="midnightblue" points="74.5869,-331.455 64.0003,-331.037 72.0161,-337.965 74.5869,-331.455"/>
</g>
<!-- Node17 -->
<g id="node17" class="node"><title>Node17</title>
<g id="a_node17"><a xlink:href="tif__dir_8c.html#ad11ea30066888dd2593ab20fc12047a8" target="_top" xlink:title="_TIFFVSetField">
<polygon fill="white" stroke="black" points="142.99,-467 142.99,-487 229.01,-487 229.01,-467 142.99,-467"/>
<text text-anchor="middle" x="186" y="-473" font-family="Helvetica,sans-Serif" font-size="10.00">_TIFFVSetField</text>
</a>
</g>
</g>
<!-- Node1&#45;&gt;Node17 -->
<g id="edge16" class="edge"><title>Node1&#45;&gt;Node17</title>
<path fill="none" stroke="midnightblue" d="M45.4367,-341.026C54.5645,-370.812 75.8272,-426.538 114,-457 122.308,-463.63 132.692,-468.063 142.933,-471.027"/>
<polygon fill="midnightblue" stroke="midnightblue" points="48.7676,-339.945 42.614,-331.321 42.0461,-341.9 48.7676,-339.945"/>
</g>
<!-- Node18 -->
<g id="node18" class="node"><title>Node18</title>
<g id="a_node18"><a xlink:href="tiffiop_8h.html#abcbb0e129b454ba4b55f4f178adc9d6f" target="_top" xlink:title="TIFFDefaultDirectory">
<polygon fill="white" stroke="black" points="306.604,-506 306.604,-526 415.396,-526 415.396,-506 306.604,-506"/>
<text text-anchor="middle" x="361" y="-512" font-family="Helvetica,sans-Serif" font-size="10.00">TIFFDefaultDirectory</text>
</a>
</g>
</g>
<!-- Node1&#45;&gt;Node18 -->
<g id="edge47" class="edge"><title>Node1&#45;&gt;Node18</title>
<path fill="none" stroke="midnightblue" d="M41.9294,-341.313C46.6907,-378.906 62.6394,-458.871 114,-496 170.95,-537.17 255.892,-533.799 309.588,-526.059"/>
<polygon fill="midnightblue" stroke="midnightblue" points="45.3769,-340.649 40.7841,-331.101 38.4205,-341.429 45.3769,-340.649"/>
</g>
<!-- Node29 -->
<g id="node29" class="node"><title>Node29</title>
<g id="a_node29"><a xlink:href="tif__getimage_8c.html#a5c4b515440d0ac5f91d5ae61e1c2eb1c" target="_top" xlink:title="gtStripContig">
<polygon fill="white" stroke="black" points="502.096,-117 502.096,-137 575.904,-137 575.904,-117 502.096,-117"/>
<text text-anchor="middle" x="539" y="-123" font-family="Helvetica,sans-Serif" font-size="10.00">gtStripContig</text>
</a>
</g>
</g>
<!-- Node1&#45;&gt;Node29 -->
<g id="edge33" class="edge"><title>Node1&#45;&gt;Node29</title>
<path fill="none" stroke="midnightblue" d="M42.1635,-300.737C47.2794,-264.009 63.7461,-187.01 114,-152 176.092,-108.743 411.172,-118.779 501.938,-124.458"/>
<polygon fill="midnightblue" stroke="midnightblue" points="38.6791,-300.395 40.9154,-310.751 45.6254,-301.261 38.6791,-300.395"/>
</g>
<!-- Node35 -->
<g id="node35" class="node"><title>Node35</title>
<g id="a_node35"><a xlink:href="tiffio_8h.html#a9cb0696bc0bde1de66286981e94def26" target="_top" xlink:title="TIFFReadRGBATile">
<polygon fill="white" stroke="black" points="835.82,-68 835.82,-88 940.18,-88 940.18,-68 835.82,-68"/>
<text text-anchor="middle" x="888" y="-74" font-family="Helvetica,sans-Serif" font-size="10.00">TIFFReadRGBATile</text>
</a>
</g>
</g>
<!-- Node1&#45;&gt;Node35 -->
<g id="edge62" class="edge"><title>Node1&#45;&gt;Node35</title>
<path fill="none" stroke="midnightblue" d="M39.5467,-300.727C39.7057,-254.012 47.2022,-138.485 114,-82 198.234,-10.7709 249.687,-49 360,-49 360,-49 360,-49 540,-49 645.339,-49 768.044,-62.4358 835.669,-71.0169"/>
<polygon fill="midnightblue" stroke="midnightblue" points="36.0474,-300.835 39.628,-310.807 43.0472,-300.779 36.0474,-300.835"/>
</g>
<!-- Node36 -->
<g id="node36" class="node"><title>Node36</title>
<g id="a_node36"><a xlink:href="tif__getimage_8c.html#a77889ae27269991a284dd36ef28cc1a8" target="_top" xlink:title="gtStripSeparate">
<polygon fill="white" stroke="black" points="496.256,-78 496.256,-98 581.744,-98 581.744,-78 496.256,-78"/>
<text text-anchor="middle" x="539" y="-84" font-family="Helvetica,sans-Serif" font-size="10.00">gtStripSeparate</text>
</a>
</g>
</g>
<!-- Node1&#45;&gt;Node36 -->
<g id="edge40" class="edge"><title>Node1&#45;&gt;Node36</title>
<path fill="none" stroke="midnightblue" d="M40.5789,-300.674C42.9857,-258.661 55.0067,-162.47 114,-118 173.296,-73.3017 401.397,-80.3409 496.252,-85.3962"/>
<polygon fill="midnightblue" stroke="midnightblue" points="37.0772,-300.637 40.1306,-310.783 44.0703,-300.948 37.0772,-300.637"/>
</g>
<!-- Node37 -->
<g id="node37" class="node"><title>Node37</title>
<g id="a_node37"><a xlink:href="tif__getimage_8c.html#a10d5db7bf3be3f719ba1a2d3bf1142c1" target="_top" xlink:title="gtTileContig">
<polygon fill="white" stroke="black" points="151.503,-253 151.503,-273 220.497,-273 220.497,-253 151.503,-253"/>
<text text-anchor="middle" x="186" y="-259" font-family="Helvetica,sans-Serif" font-size="10.00">gtTileContig</text>
</a>
</g>
</g>
<!-- Node1&#45;&gt;Node37 -->
<g id="edge42" class="edge"><title>Node1&#45;&gt;Node37</title>
<path fill="none" stroke="midnightblue" d="M74.7755,-307.09C100.879,-296.649 136.026,-282.59 159.546,-273.182"/>
<polygon fill="midnightblue" stroke="midnightblue" points="73.242,-303.934 65.2571,-310.897 75.8417,-310.433 73.242,-303.934"/>
</g>
<!-- Node38 -->
<g id="node38" class="node"><title>Node38</title>
<g id="a_node38"><a xlink:href="tif__getimage_8c.html#a5cb7dd9dbe477a05fc1037f31992dd06" target="_top" xlink:title="gtTileSeparate">
<polygon fill="white" stroke="black" points="145.664,-205 145.664,-225 226.336,-225 226.336,-205 145.664,-205"/>
<text text-anchor="middle" x="186" y="-211" font-family="Helvetica,sans-Serif" font-size="10.00">gtTileSeparate</text>
</a>
</g>
</g>
<!-- Node1&#45;&gt;Node38 -->
<g id="edge44" class="edge"><title>Node1&#45;&gt;Node38</title>
<path fill="none" stroke="midnightblue" d="M53.6957,-302.872C67.3883,-285.782 89.8357,-260.408 114,-244 125.676,-236.071 139.856,-229.737 152.464,-225.035"/>
<polygon fill="midnightblue" stroke="midnightblue" points="50.7722,-300.929 47.3707,-310.963 56.287,-305.241 50.7722,-300.929"/>
</g>
<!-- Node39 -->
<g id="node39" class="node"><title>Node39</title>
<g id="a_node39"><a xlink:href="tif__dirread_8c.html#acb80635cb796e6e7d5474aa43c8bacdb" target="_top" xlink:title="TIFFFetchStripThing">
<polygon fill="white" stroke="black" points="307.155,-659 307.155,-679 414.845,-679 414.845,-659 307.155,-659"/>
<text text-anchor="middle" x="361" y="-665" font-family="Helvetica,sans-Serif" font-size="10.00">TIFFFetchStripThing</text>
</a>
</g>
</g>
<!-- Node1&#45;&gt;Node39 -->
<g id="edge48" class="edge"><title>Node1&#45;&gt;Node39</title>
<path fill="none" stroke="midnightblue" d="M40.0983,-341.131C41.4133,-388.242 51.1667,-506.825 114,-575 164.738,-630.051 251.218,-653.136 306.956,-662.624"/>
<polygon fill="midnightblue" stroke="midnightblue" points="43.5956,-340.94 39.9201,-331.004 36.5967,-341.064 43.5956,-340.94"/>
</g>
<!-- Node40 -->
<g id="node40" class="node"><title>Node40</title>
<g id="a_node40"><a xlink:href="tiffio_8h.html#aa39b244bafce1c6ca9976f6513739349" target="_top" xlink:title="TIFFFreeDirectory">
<polygon fill="white" stroke="black" points="312.165,-601 312.165,-621 409.835,-621 409.835,-601 312.165,-601"/>
<text text-anchor="middle" x="361" y="-607" font-family="Helvetica,sans-Serif" font-size="10.00">TIFFFreeDirectory</text>
</a>
</g>
</g>
<!-- Node1&#45;&gt;Node40 -->
<g id="edge50" class="edge"><title>Node1&#45;&gt;Node40</title>
<path fill="none" stroke="midnightblue" d="M41.5669,-341.277C45.8009,-382.125 61.0236,-474.855 114,-527 168.033,-580.185 257.091,-599.741 311.934,-606.9"/>
<polygon fill="midnightblue" stroke="midnightblue" points="45.0422,-340.846 40.6419,-331.208 38.0716,-341.487 45.0422,-340.846"/>
</g>
<!-- Node41 -->
<g id="node41" class="node"><title>Node41</title>
<g id="a_node41"><a xlink:href="tiffio_8h.html#a1c3a1f3780ef1023bc843635155b1f64" target="_top" xlink:title="TIFFGetConfiguredCODECs">
<polygon fill="white" stroke="black" points="114.372,-0 114.372,-20 257.628,-20 257.628,-0 114.372,-0"/>
<text text-anchor="middle" x="186" y="-6" font-family="Helvetica,sans-Serif" font-size="10.00">TIFFGetConfiguredCODECs</text>
</a>
</g>
</g>
<!-- Node1&#45;&gt;Node41 -->
<g id="edge56" class="edge"><title>Node1&#45;&gt;Node41</title>
<path fill="none" stroke="midnightblue" d="M39.1744,-300.689C38.2166,-249.251 42.8961,-112.449 114,-35 120.01,-28.454 127.836,-23.6216 136.091,-20.0544"/>
<polygon fill="midnightblue" stroke="midnightblue" points="35.6799,-300.935 39.4622,-310.832 42.6771,-300.737 35.6799,-300.935"/>
</g>
<!-- Node42 -->
<g id="node42" class="node"><title>Node42</title>
<g id="a_node42"><a xlink:href="tif__write_8c.html#a9566917f4b4c4398b084f7171a503f67" target="_top" xlink:title="TIFFGrowStrips">
<polygon fill="white" stroke="black" points="142.722,-311 142.722,-331 229.278,-331 229.278,-311 142.722,-311"/>
<text text-anchor="middle" x="186" y="-317" font-family="Helvetica,sans-Serif" font-size="10.00">TIFFGrowStrips</text>
</a>
</g>
</g>
<!-- Node1&#45;&gt;Node42 -->
<g id="edge57" class="edge"><title>Node1&#45;&gt;Node42</title>
<path fill="none" stroke="midnightblue" d="M88.4956,-321C105.985,-321 125.576,-321 142.512,-321"/>
<polygon fill="midnightblue" stroke="midnightblue" points="88.4767,-317.5 78.4767,-321 88.4766,-324.5 88.4767,-317.5"/>
</g>
<!-- Node46 -->
<g id="node46" class="node"><title>Node46</title>
<g id="a_node46"><a xlink:href="tiffio_8h.html#a6ac3241395aab264ba384878eb4b6e42" target="_top" xlink:title="TIFFSetupStrips">
<polygon fill="white" stroke="black" points="141.601,-428 141.601,-448 230.399,-448 230.399,-428 141.601,-428"/>
<text text-anchor="middle" x="186" y="-434" font-family="Helvetica,sans-Serif" font-size="10.00">TIFFSetupStrips</text>
</a>
</g>
</g>
<!-- Node1&#45;&gt;Node46 -->
<g id="edge63" class="edge"><title>Node1&#45;&gt;Node46</title>
<path fill="none" stroke="midnightblue" d="M50.7669,-339.921C63.4264,-360.593 86.2692,-393.37 114,-413 122.96,-419.342 133.684,-424.214 144.05,-427.898"/>
<polygon fill="midnightblue" stroke="midnightblue" points="53.6525,-337.926 45.5395,-331.112 47.6324,-341.498 53.6525,-337.926"/>
</g>
<!-- Node48 -->
<g id="node48" class="node"><title>Node48</title>
<g id="a_node48"><a xlink:href="tiffio_8h.html#a22760f3f8bd23aeb8df4ed420121dc8e" target="_top" xlink:title="TIFFYCbCrToRGBInit">
<polygon fill="white" stroke="black" points="129.66,-161 129.66,-181 242.34,-181 242.34,-161 129.66,-161"/>
<text text-anchor="middle" x="186" y="-167" font-family="Helvetica,sans-Serif" font-size="10.00">TIFFYCbCrToRGBInit</text>
</a>
</g>
</g>
<!-- Node1&#45;&gt;Node48 -->
<g id="edge66" class="edge"><title>Node1&#45;&gt;Node48</title>
<path fill="none" stroke="midnightblue" d="M46.7034,-301.343C56.9999,-273.972 79.2412,-224.537 114,-196 121.878,-189.532 131.547,-184.685 141.184,-181.071"/>
<polygon fill="midnightblue" stroke="midnightblue" points="43.3296,-300.381 43.2331,-310.976 49.9153,-302.754 43.3296,-300.381"/>
</g>
<!-- Node3 -->
<g id="node3" class="node"><title>Node3</title>
<g id="a_node3"><a xlink:href="tif__dir_8h.html#a3b1b488954daa496526d76d99963ec1c" target="_top" xlink:title="_TIFFFindOrRegisterFieldInfo">
<polygon fill="white" stroke="black" points="464.591,-737 464.591,-757 613.409,-757 613.409,-737 464.591,-737"/>
<text text-anchor="middle" x="539" y="-743" font-family="Helvetica,sans-Serif" font-size="10.00">_TIFFFindOrRegisterFieldInfo</text>
</a>
</g>
</g>
<!-- Node2&#45;&gt;Node3 -->
<g id="edge2" class="edge"><title>Node2&#45;&gt;Node3</title>
<path fill="none" stroke="midnightblue" d="M417.141,-720.219C441.49,-725.614 469.757,-731.878 492.829,-736.991"/>
<polygon fill="midnightblue" stroke="midnightblue" points="417.845,-716.79 407.324,-718.043 416.33,-723.624 417.845,-716.79"/>
</g>
<!-- Node4 -->
<g id="node4" class="node"><title>Node4</title>
<g id="a_node4"><a xlink:href="tiffio_8h.html#ab3cb4edaf203fa41478bc4bfc6b227f7" target="_top" xlink:title="TIFFReadCustomDirectory">
<polygon fill="white" stroke="black" points="471.266,-698 471.266,-718 606.734,-718 606.734,-698 471.266,-698"/>
<text text-anchor="middle" x="539" y="-704" font-family="Helvetica,sans-Serif" font-size="10.00">TIFFReadCustomDirectory</text>
</a>
</g>
</g>
<!-- Node2&#45;&gt;Node4 -->
<g id="edge3" class="edge"><title>Node2&#45;&gt;Node4</title>
<path fill="none" stroke="midnightblue" d="M438.598,-708C449.451,-708 460.539,-708 471.187,-708"/>
<polygon fill="midnightblue" stroke="midnightblue" points="438.287,-704.5 428.287,-708 438.287,-711.5 438.287,-704.5"/>
</g>
<!-- Node6 -->
<g id="node6" class="node"><title>Node6</title>
<g id="a_node6"><a xlink:href="tiffio_8h.html#ab5f774a4a20c860a3d28a42e8b7166b4" target="_top" xlink:title="TIFFReadDirectory">
<polygon fill="white" stroke="black" points="488.493,-659 488.493,-679 589.507,-679 589.507,-659 488.493,-659"/>
<text text-anchor="middle" x="539" y="-665" font-family="Helvetica,sans-Serif" font-size="10.00">TIFFReadDirectory</text>
</a>
</g>
</g>
<!-- Node2&#45;&gt;Node6 -->
<g id="edge5" class="edge"><title>Node2&#45;&gt;Node6</title>
<path fill="none" stroke="midnightblue" d="M417.141,-695.781C441.49,-690.386 469.757,-684.122 492.829,-679.009"/>
<polygon fill="midnightblue" stroke="midnightblue" points="416.33,-692.376 407.324,-697.957 417.845,-699.21 416.33,-692.376"/>
</g>
<!-- Node5 -->
<g id="node5" class="node"><title>Node5</title>
<g id="a_node5"><a xlink:href="tiffio_8h.html#a8e1741c4dfa13bbb8432aaab1fc269e8" target="_top" xlink:title="TIFFReadEXIFDirectory">
<polygon fill="white" stroke="black" points="650.379,-756 650.379,-776 773.621,-776 773.621,-756 650.379,-756"/>
<text text-anchor="middle" x="712" y="-762" font-family="Helvetica,sans-Serif" font-size="10.00">TIFFReadEXIFDirectory</text>
</a>
</g>
</g>
<!-- Node4&#45;&gt;Node5 -->
<g id="edge4" class="edge"><title>Node4&#45;&gt;Node5</title>
<path fill="none" stroke="midnightblue" d="M592.843,-720.892C600.026,-723.047 607.245,-725.428 614,-728 630.718,-734.365 633.456,-739.195 650,-746 658.761,-749.604 668.429,-753.019 677.436,-755.974"/>
<polygon fill="midnightblue" stroke="midnightblue" points="593.695,-717.496 583.117,-718.097 591.761,-724.223 593.695,-717.496"/>
</g>
<!-- Node7 -->
<g id="node7" class="node"><title>Node7</title>
<g id="a_node7"><a xlink:href="tiffio_8h.html#a58cdb91e8e93b12c8002ade2e4072251" target="_top" xlink:title="TIFFSetDirectory">
<polygon fill="white" stroke="black" points="665.941,-717 665.941,-737 758.059,-737 758.059,-717 665.941,-717"/>
<text text-anchor="middle" x="712" y="-723" font-family="Helvetica,sans-Serif" font-size="10.00">TIFFSetDirectory</text>
</a>
</g>
</g>
<!-- Node6&#45;&gt;Node7 -->
<g id="edge6" class="edge"><title>Node6&#45;&gt;Node7</title>
<path fill="none" stroke="midnightblue" d="M592.843,-681.892C600.026,-684.047 607.245,-686.428 614,-689 630.718,-695.365 633.456,-700.195 650,-707 658.761,-710.604 668.429,-714.019 677.436,-716.974"/>
<polygon fill="midnightblue" stroke="midnightblue" points="593.695,-678.496 583.117,-679.097 591.761,-685.223 593.695,-678.496"/>
</g>
<!-- Node8 -->
<g id="node8" class="node"><title>Node8</title>
<g id="a_node8"><a xlink:href="tiffio_8h.html#a33628efcd540db4412ec3cd7761c3733" target="_top" xlink:title="TIFFSetSubDirectory">
<polygon fill="white" stroke="black" points="657.044,-678 657.044,-698 766.956,-698 766.956,-678 657.044,-678"/>
<text text-anchor="middle" x="712" y="-684" font-family="Helvetica,sans-Serif" font-size="10.00">TIFFSetSubDirectory</text>
</a>
</g>
</g>
<!-- Node6&#45;&gt;Node8 -->
<g id="edge7" class="edge"><title>Node6&#45;&gt;Node8</title>
<path fill="none" stroke="midnightblue" d="M599.993,-675.666C618.494,-677.722 638.749,-679.972 656.833,-681.981"/>
<polygon fill="midnightblue" stroke="midnightblue" points="600.245,-672.172 589.92,-674.547 599.472,-679.13 600.245,-672.172"/>
</g>
<!-- Node6&#45;&gt;Node9 -->
<g id="edge8" class="edge"><title>Node6&#45;&gt;Node9</title>
<path fill="none" stroke="midnightblue" d="M599.91,-663.447C669.029,-657.528 786.125,-649 887,-649 887,-649 887,-649 1062,-649 1183.72,-649 1296.1,-525.723 1326.79,-489.125"/>
<polygon fill="midnightblue" stroke="midnightblue" points="599.314,-659.985 589.653,-664.336 599.918,-666.959 599.314,-659.985"/>
</g>
<!-- Node10 -->
<g id="node10" class="node"><title>Node10</title>
<g id="a_node10"><a xlink:href="tiffio_8h.html#adca230876d2f7fdec1ff6c7fdb7898a8" target="_top" xlink:title="TIFFFdOpen">
<polygon fill="white" stroke="black" points="1416.38,-469 1416.38,-489 1489.62,-489 1489.62,-469 1416.38,-469"/>
<text text-anchor="middle" x="1453" y="-475" font-family="Helvetica,sans-Serif" font-size="10.00">TIFFFdOpen</text>
</a>
</g>
</g>
<!-- Node9&#45;&gt;Node10 -->
<g id="edge9" class="edge"><title>Node9&#45;&gt;Node10</title>
<path fill="none" stroke="midnightblue" d="M1389.83,-479C1398.79,-479 1407.9,-479 1416.29,-479"/>
<polygon fill="midnightblue" stroke="midnightblue" points="1389.82,-475.5 1379.82,-479 1389.82,-482.5 1389.82,-475.5"/>
</g>
<!-- Node11 -->
<g id="node11" class="node"><title>Node11</title>
<g id="a_node11"><a xlink:href="tiffio_8h.html#ac3dd18826e617eb451c74f33a32fcb10" target="_top" xlink:title="TIFFOpen">
<polygon fill="white" stroke="black" points="1547.22,-469 1547.22,-489 1608.78,-489 1608.78,-469 1547.22,-469"/>
<text text-anchor="middle" x="1578" y="-475" font-family="Helvetica,sans-Serif" font-size="10.00">TIFFOpen</text>
</a>
</g>
</g>
<!-- Node10&#45;&gt;Node11 -->
<g id="edge10" class="edge"><title>Node10&#45;&gt;Node11</title>
<path fill="none" stroke="midnightblue" d="M1500,-479C1515.74,-479 1532.93,-479 1547.07,-479"/>
<polygon fill="midnightblue" stroke="midnightblue" points="1499.91,-475.5 1489.91,-479 1499.91,-482.5 1499.91,-475.5"/>
</g>
<!-- Node12 -->
<g id="node12" class="node"><title>Node12</title>
<g id="a_node12"><a xlink:href="class_t_i_f_f_reader_internal.html#adc7888a9bc3fe28248b49b8b204ae8ae" target="_top" xlink:title="TIFFReaderInternal\l::Open">
<polygon fill="white" stroke="red" points="1666.37,-488 1666.37,-520 1769.63,-520 1769.63,-488 1666.37,-488"/>
<text text-anchor="start" x="1674.37" y="-506" font-family="Helvetica,sans-Serif" font-size="10.00">TIFFReaderInternal</text>
<text text-anchor="middle" x="1718" y="-494" font-family="Helvetica,sans-Serif" font-size="10.00">::Open</text>
</a>
</g>
</g>
<!-- Node11&#45;&gt;Node12 -->
<g id="edge11" class="edge"><title>Node11&#45;&gt;Node12</title>
<path fill="none" stroke="midnightblue" d="M1618.79,-486.208C1633.58,-488.888 1650.57,-491.966 1666.22,-494.8"/>
<polygon fill="midnightblue" stroke="midnightblue" points="1619.41,-482.763 1608.94,-484.425 1618.16,-489.651 1619.41,-482.763"/>
</g>
<!-- Node13 -->
<g id="node13" class="node"><title>Node13</title>
<g id="a_node13"><a xlink:href="classrc_window.html#adf6ca47beb76a8bfdc73369f80dd003d" target="_top" xlink:title="rcWindow::tiff">
<polygon fill="white" stroke="black" points="1680.08,-430 1680.08,-450 1755.92,-450 1755.92,-430 1680.08,-430"/>
<text text-anchor="middle" x="1718" y="-436" font-family="Helvetica,sans-Serif" font-size="10.00">rcWindow::tiff</text>
</a>
</g>
</g>
<!-- Node11&#45;&gt;Node13 -->
<g id="edge12" class="edge"><title>Node11&#45;&gt;Node13</title>
<path fill="none" stroke="midnightblue" d="M1618.61,-467.805C1638.45,-462.2 1662.26,-455.47 1681.49,-450.034"/>
<polygon fill="midnightblue" stroke="midnightblue" points="1617.62,-464.45 1608.94,-470.538 1619.52,-471.186 1617.62,-464.45"/>
</g>
<!-- Node14 -->
<g id="node14" class="node"><title>Node14</title>
<g id="a_node14"><a xlink:href="classrc_visual_function.html#a1df64c3605f3a0a4670118911ac783b1" target="_top" xlink:title="rcVisualFunction::cardiac\lMeasure">
<polygon fill="white" stroke="red" points="1815.23,-469 1815.23,-501 1942.77,-501 1942.77,-469 1815.23,-469"/>
<text text-anchor="start" x="1823.23" y="-487" font-family="Helvetica,sans-Serif" font-size="10.00">rcVisualFunction::cardiac</text>
<text text-anchor="middle" x="1879" y="-475" font-family="Helvetica,sans-Serif" font-size="10.00">Measure</text>
</a>
</g>
</g>
<!-- Node13&#45;&gt;Node14 -->
<g id="edge13" class="edge"><title>Node13&#45;&gt;Node14</title>
<path fill="none" stroke="midnightblue" d="M1764.71,-452.937C1782.33,-457.924 1802.67,-463.681 1821.22,-468.929"/>
<polygon fill="midnightblue" stroke="midnightblue" points="1765.26,-449.454 1754.68,-450.099 1763.35,-456.19 1765.26,-449.454"/>
</g>
<!-- Node15 -->
<g id="node15" class="node"><title>Node15</title>
<g id="a_node15"><a xlink:href="classrc_engine_impl.html#a00ca0d227e480ddb5bd6be293b55d2c9" target="_top" xlink:title="rcEngineImpl::muscleTracker">
<polygon fill="white" stroke="black" points="1806.44,-430 1806.44,-450 1951.56,-450 1951.56,-430 1806.44,-430"/>
<text text-anchor="middle" x="1879" y="-436" font-family="Helvetica,sans-Serif" font-size="10.00">rcEngineImpl::muscleTracker</text>
</a>
</g>
</g>
<!-- Node13&#45;&gt;Node15 -->
<g id="edge14" class="edge"><title>Node13&#45;&gt;Node15</title>
<path fill="none" stroke="midnightblue" d="M1766.47,-440C1778.99,-440 1792.79,-440 1806.29,-440"/>
<polygon fill="midnightblue" stroke="midnightblue" points="1766.28,-436.5 1756.28,-440 1766.28,-443.5 1766.28,-436.5"/>
</g>
<!-- Node16 -->
<g id="node16" class="node"><title>Node16</title>
<g id="a_node16"><a xlink:href="rc__edge_8h.html#a11fbb1eb0376dd39a4be2ea72b7ef156" target="_top" xlink:title="rfDirectionSignal">
<polygon fill="white" stroke="black" points="1834.32,-391 1834.32,-411 1923.68,-411 1923.68,-391 1834.32,-391"/>
<text text-anchor="middle" x="1879" y="-397" font-family="Helvetica,sans-Serif" font-size="10.00">rfDirectionSignal</text>
</a>
</g>
</g>
<!-- Node13&#45;&gt;Node16 -->
<g id="edge15" class="edge"><title>Node13&#45;&gt;Node16</title>
<path fill="none" stroke="midnightblue" d="M1766.29,-428.4C1788.79,-422.882 1815.43,-416.348 1837.05,-411.045"/>
<polygon fill="midnightblue" stroke="midnightblue" points="1765.16,-425.075 1756.28,-430.856 1766.82,-431.873 1765.16,-425.075"/>
</g>
<!-- Node17&#45;&gt;Node18 -->
<g id="edge17" class="edge"><title>Node17&#45;&gt;Node18</title>
<path fill="none" stroke="midnightblue" d="M239.103,-488.746C263.428,-494.229 292.089,-500.691 315.398,-505.945"/>
<polygon fill="midnightblue" stroke="midnightblue" points="239.845,-485.325 229.321,-486.54 238.306,-492.154 239.845,-485.325"/>
</g>
<!-- Node18&#45;&gt;Node6 -->
<g id="edge31" class="edge"><title>Node18&#45;&gt;Node6</title>
<path fill="none" stroke="midnightblue" d="M381.525,-532.973C418.214,-564.867 496.427,-632.86 526.179,-658.724"/>
<polygon fill="midnightblue" stroke="midnightblue" points="383.391,-529.958 373.548,-526.039 378.799,-535.241 383.391,-529.958"/>
</g>
<!-- Node18&#45;&gt;Node9 -->
<g id="edge32" class="edge"><title>Node18&#45;&gt;Node9</title>
<path fill="none" stroke="midnightblue" d="M415.033,-503.801C430.729,-500.538 447.997,-497.287 464,-495 573.03,-479.422 600.863,-475 711,-475 711,-475 711,-475 1062,-475 1143.29,-475 1238.19,-476.795 1291.98,-477.98"/>
<polygon fill="midnightblue" stroke="midnightblue" points="414.029,-500.436 404.974,-505.937 415.483,-507.283 414.029,-500.436"/>
</g>
<!-- Node19 -->
<g id="node19" class="node"><title>Node19</title>
<g id="a_node19"><a xlink:href="tiffio_8h.html#a06d307cb8d3179c1d3996783095c7c61" target="_top" xlink:title="TIFFCreateDirectory">
<polygon fill="white" stroke="black" points="485.438,-504 485.438,-524 592.562,-524 592.562,-504 485.438,-504"/>
<text text-anchor="middle" x="539" y="-510" font-family="Helvetica,sans-Serif" font-size="10.00">TIFFCreateDirectory</text>
</a>
</g>
</g>
<!-- Node18&#45;&gt;Node19 -->
<g id="edge18" class="edge"><title>Node18&#45;&gt;Node19</title>
<path fill="none" stroke="midnightblue" d="M425.778,-515.275C445.273,-515.054 466.488,-514.813 485.172,-514.6"/>
<polygon fill="midnightblue" stroke="midnightblue" points="425.722,-511.776 415.762,-515.389 425.801,-518.775 425.722,-511.776"/>
</g>
<!-- Node28 -->
<g id="node28" class="node"><title>Node28</title>
<g id="a_node28"><a xlink:href="tiffio_8h.html#ac0f7bfa0b6efc24ba7d5b3f40aea82a1" target="_top" xlink:title="TIFFUnlinkDirectory">
<polygon fill="white" stroke="black" points="486.552,-543 486.552,-563 591.448,-563 591.448,-543 486.552,-543"/>
<text text-anchor="middle" x="539" y="-549" font-family="Helvetica,sans-Serif" font-size="10.00">TIFFUnlinkDirectory</text>
</a>
</g>
</g>
<!-- Node18&#45;&gt;Node28 -->
<g id="edge30" class="edge"><title>Node18&#45;&gt;Node28</title>
<path fill="none" stroke="midnightblue" d="M419.567,-528.102C442.472,-532.917 468.514,-538.392 490.334,-542.979"/>
<polygon fill="midnightblue" stroke="midnightblue" points="420.134,-524.645 409.628,-526.013 418.694,-531.495 420.134,-524.645"/>
</g>
<!-- Node20 -->
<g id="node20" class="node"><title>Node20</title>
<g id="a_node20"><a xlink:href="tif__dirwrite_8c.html#a99ebbf4b3b0fd87a64d558757cf03635" target="_top" xlink:title="_TIFFWriteDirectory">
<polygon fill="white" stroke="black" points="659.088,-523 659.088,-543 764.912,-543 764.912,-523 659.088,-523"/>
<text text-anchor="middle" x="712" y="-529" font-family="Helvetica,sans-Serif" font-size="10.00">_TIFFWriteDirectory</text>
</a>
</g>
</g>
<!-- Node19&#45;&gt;Node20 -->
<g id="edge19" class="edge"><title>Node19&#45;&gt;Node20</title>
<path fill="none" stroke="midnightblue" d="M602.797,-520.977C621.296,-523.033 641.323,-525.258 659.061,-527.229"/>
<polygon fill="midnightblue" stroke="midnightblue" points="603.026,-517.481 592.701,-519.856 602.253,-524.439 603.026,-517.481"/>
</g>
<!-- Node21 -->
<g id="node21" class="node"><title>Node21</title>
<g id="a_node21"><a xlink:href="tiffio_8h.html#a81556034d0f25ab8e5a780a20a2754af" target="_top" xlink:title="TIFFWriteDirectory">
<polygon fill="white" stroke="black" points="837.869,-543 837.869,-563 938.131,-563 938.131,-543 837.869,-543"/>
<text text-anchor="middle" x="888" y="-549" font-family="Helvetica,sans-Serif" font-size="10.00">TIFFWriteDirectory</text>
</a>
</g>
</g>
<!-- Node20&#45;&gt;Node21 -->
<g id="edge20" class="edge"><title>Node20&#45;&gt;Node21</title>
<path fill="none" stroke="midnightblue" d="M775.408,-540.173C795.921,-542.531 818.421,-545.117 837.811,-547.346"/>
<polygon fill="midnightblue" stroke="midnightblue" points="775.54,-536.666 765.206,-539.001 774.741,-543.62 775.54,-536.666"/>
</g>
<!-- Node27 -->
<g id="node27" class="node"><title>Node27</title>
<g id="a_node27"><a xlink:href="tiffio_8h.html#abb5ff4e7abc98286d574600a9a8d0b5f" target="_top" xlink:title="TIFFCheckpointDirectory">
<polygon fill="white" stroke="black" points="824.431,-504 824.431,-524 951.569,-524 951.569,-504 824.431,-504"/>
<text text-anchor="middle" x="888" y="-510" font-family="Helvetica,sans-Serif" font-size="10.00">TIFFCheckpointDirectory</text>
</a>
</g>
</g>
<!-- Node20&#45;&gt;Node27 -->
<g id="edge29" class="edge"><title>Node20&#45;&gt;Node27</title>
<path fill="none" stroke="midnightblue" d="M775.464,-526.179C791.374,-524.442 808.476,-522.574 824.393,-520.836"/>
<polygon fill="midnightblue" stroke="midnightblue" points="774.767,-522.734 765.206,-527.299 775.527,-529.693 774.767,-522.734"/>
</g>
<!-- Node22 -->
<g id="node22" class="node"><title>Node22</title>
<g id="a_node22"><a xlink:href="tiffio_8h.html#a030e9a2ded6444dde1fd9b8164664b8c" target="_top" xlink:title="TIFFRewriteDirectory">
<polygon fill="white" stroke="black" points="1005.5,-504 1005.5,-524 1116.5,-524 1116.5,-504 1005.5,-504"/>
<text text-anchor="middle" x="1061" y="-510" font-family="Helvetica,sans-Serif" font-size="10.00">TIFFRewriteDirectory</text>
</a>
</g>
</g>
<!-- Node21&#45;&gt;Node22 -->
<g id="edge21" class="edge"><title>Node21&#45;&gt;Node22</title>
<path fill="none" stroke="midnightblue" d="M942.89,-540.709C966.475,-535.33 993.795,-529.099 1016.11,-524.009"/>
<polygon fill="midnightblue" stroke="midnightblue" points="942.008,-537.32 933.037,-542.957 943.565,-544.145 942.008,-537.32"/>
</g>
<!-- Node23 -->
<g id="node23" class="node"><title>Node23</title>
<g id="a_node23"><a xlink:href="tiffio_8h.html#aca3453296ad6a9dc3cbbead4e1bc2792" target="_top" xlink:title="TIFFFlush">
<polygon fill="white" stroke="black" points="1030.22,-543 1030.22,-563 1091.78,-563 1091.78,-543 1030.22,-543"/>
<text text-anchor="middle" x="1061" y="-549" font-family="Helvetica,sans-Serif" font-size="10.00">TIFFFlush</text>
</a>
</g>
</g>
<!-- Node21&#45;&gt;Node23 -->
<g id="edge22" class="edge"><title>Node21&#45;&gt;Node23</title>
<path fill="none" stroke="midnightblue" d="M948.796,-553C976.337,-553 1007.8,-553 1030.22,-553"/>
<polygon fill="midnightblue" stroke="midnightblue" points="948.46,-549.5 938.46,-553 948.46,-556.5 948.46,-549.5"/>
</g>
<!-- Node24 -->
<g id="node24" class="node"><title>Node24</title>
<g id="a_node24"><a xlink:href="tiffio_8h.html#aceb629aa7034d6d0304207556be3ce17" target="_top" xlink:title="TIFFCleanup">
<polygon fill="white" stroke="black" points="1168.82,-527 1168.82,-547 1243.18,-547 1243.18,-527 1168.82,-527"/>
<text text-anchor="middle" x="1206" y="-533" font-family="Helvetica,sans-Serif" font-size="10.00">TIFFCleanup</text>
</a>
</g>
</g>
<!-- Node23&#45;&gt;Node24 -->
<g id="edge23" class="edge"><title>Node23&#45;&gt;Node24</title>
<path fill="none" stroke="midnightblue" d="M1102.15,-548.508C1123.05,-546.169 1148.42,-543.331 1168.73,-541.059"/>
<polygon fill="midnightblue" stroke="midnightblue" points="1101.53,-545.056 1091.98,-549.646 1102.3,-552.012 1101.53,-545.056"/>
</g>
<!-- Node24&#45;&gt;Node9 -->
<g id="edge28" class="edge"><title>Node24&#45;&gt;Node9</title>
<path fill="none" stroke="midnightblue" d="M1238.62,-522.674C1261.56,-512.278 1292.04,-498.465 1312.53,-489.182"/>
<polygon fill="midnightblue" stroke="midnightblue" points="1236.96,-519.582 1229.3,-526.897 1239.85,-525.958 1236.96,-519.582"/>
</g>
<!-- Node25 -->
<g id="node25" class="node"><title>Node25</title>
<g id="a_node25"><a xlink:href="tiffio_8h.html#a3fefdfb6b9f9316edb732a85934efd90" target="_top" xlink:title="TIFFClose">
<polygon fill="white" stroke="black" points="1421.67,-514 1421.67,-534 1484.33,-534 1484.33,-514 1421.67,-514"/>
<text text-anchor="middle" x="1453" y="-520" font-family="Helvetica,sans-Serif" font-size="10.00">TIFFClose</text>
</a>
</g>
</g>
<!-- Node24&#45;&gt;Node25 -->
<g id="edge24" class="edge"><title>Node24&#45;&gt;Node25</title>
<path fill="none" stroke="midnightblue" d="M1253.51,-534.532C1302.87,-531.913 1379.42,-527.851 1421.58,-525.614"/>
<polygon fill="midnightblue" stroke="midnightblue" points="1253.21,-531.043 1243.41,-535.068 1253.59,-538.033 1253.21,-531.043"/>
</g>
<!-- Node25&#45;&gt;Node13 -->
<g id="edge27" class="edge"><title>Node25&#45;&gt;Node13</title>
<path fill="none" stroke="midnightblue" d="M1477.63,-507.902C1481.86,-504.753 1486.14,-501.377 1490,-498 1507.51,-482.678 1505.14,-470.294 1526,-460 1575.03,-435.805 1639.63,-434.402 1679.73,-436.518"/>
<polygon fill="midnightblue" stroke="midnightblue" points="1475.27,-505.293 1469.19,-513.973 1479.35,-510.977 1475.27,-505.293"/>
</g>
<!-- Node26 -->
<g id="node26" class="node"><title>Node26</title>
<g id="a_node26"><a xlink:href="class_t_i_f_f_reader_internal.html#aaa46d9e82420cfadfe323b1026cac726" target="_top" xlink:title="TIFFReaderInternal\l::Clean">
<polygon fill="white" stroke="red" points="1526.37,-508 1526.37,-540 1629.63,-540 1629.63,-508 1526.37,-508"/>
<text text-anchor="start" x="1534.37" y="-526" font-family="Helvetica,sans-Serif" font-size="10.00">TIFFReaderInternal</text>
<text text-anchor="middle" x="1578" y="-514" font-family="Helvetica,sans-Serif" font-size="10.00">::Clean</text>
</a>
</g>
</g>
<!-- Node25&#45;&gt;Node26 -->
<g id="edge25" class="edge"><title>Node25&#45;&gt;Node26</title>
<path fill="none" stroke="midnightblue" d="M1494.62,-524C1504.77,-524 1515.79,-524 1526.36,-524"/>
<polygon fill="midnightblue" stroke="midnightblue" points="1494.4,-520.5 1484.4,-524 1494.4,-527.5 1494.4,-520.5"/>
</g>
<!-- Node26&#45;&gt;Node12 -->
<g id="edge26" class="edge"><title>Node26&#45;&gt;Node12</title>
<path fill="none" stroke="midnightblue" d="M1640.12,-515.143C1648.84,-513.879 1657.72,-512.591 1666.22,-511.36"/>
<polygon fill="midnightblue" stroke="midnightblue" points="1639.39,-511.711 1629.99,-516.61 1640.39,-518.639 1639.39,-511.711"/>
</g>
<!-- Node30 -->
<g id="node30" class="node"><title>Node30</title>
<g id="a_node30"><a xlink:href="tiffio_8h.html#acd3bb3a843674f44624f98f2d6f7785a" target="_top" xlink:title="TIFFRGBAImageBegin">
<polygon fill="white" stroke="black" points="652.594,-136 652.594,-156 771.406,-156 771.406,-136 652.594,-136"/>
<text text-anchor="middle" x="712" y="-142" font-family="Helvetica,sans-Serif" font-size="10.00">TIFFRGBAImageBegin</text>
</a>
</g>
</g>
<!-- Node29&#45;&gt;Node30 -->
<g id="edge34" class="edge"><title>Node29&#45;&gt;Node30</title>
<path fill="none" stroke="midnightblue" d="M586.26,-132.14C606.686,-134.41 630.928,-137.103 652.585,-139.509"/>
<polygon fill="midnightblue" stroke="midnightblue" points="586.59,-128.655 576.265,-131.029 585.817,-135.612 586.59,-128.655"/>
</g>
<!-- Node31 -->
<g id="node31" class="node"><title>Node31</title>
<g id="a_node31"><a xlink:href="tiffio_8h.html#a37f05a9b68bdc13fb34dc6d4182914d4" target="_top" xlink:title="TIFFReadRGBAImageOriented">
<polygon fill="white" stroke="black" points="810.251,-156 810.251,-176 965.749,-176 965.749,-156 810.251,-156"/>
<text text-anchor="middle" x="888" y="-162" font-family="Helvetica,sans-Serif" font-size="10.00">TIFFReadRGBAImageOriented</text>
</a>
</g>
</g>
<!-- Node30&#45;&gt;Node31 -->
<g id="edge35" class="edge"><title>Node30&#45;&gt;Node31</title>
<path fill="none" stroke="midnightblue" d="M781.5,-153.874C790.916,-154.956 800.635,-156.073 810.188,-157.171"/>
<polygon fill="midnightblue" stroke="midnightblue" points="781.758,-150.38 771.424,-152.715 780.958,-157.334 781.758,-150.38"/>
</g>
<!-- Node34 -->
<g id="node34" class="node"><title>Node34</title>
<g id="a_node34"><a xlink:href="tiffio_8h.html#a078cb3ec8bbc21b9d0b107241bdeb340" target="_top" xlink:title="TIFFReadRGBAStrip">
<polygon fill="white" stroke="black" points="833.044,-117 833.044,-137 942.956,-137 942.956,-117 833.044,-117"/>
<text text-anchor="middle" x="888" y="-123" font-family="Helvetica,sans-Serif" font-size="10.00">TIFFReadRGBAStrip</text>
</a>
</g>
</g>
<!-- Node30&#45;&gt;Node34 -->
<g id="edge38" class="edge"><title>Node30&#45;&gt;Node34</title>
<path fill="none" stroke="midnightblue" d="M781.829,-138.484C798.78,-136.633 816.695,-134.677 832.841,-132.914"/>
<polygon fill="midnightblue" stroke="midnightblue" points="780.984,-135.056 771.424,-139.62 781.744,-142.014 780.984,-135.056"/>
</g>
<!-- Node30&#45;&gt;Node35 -->
<g id="edge39" class="edge"><title>Node30&#45;&gt;Node35</title>
<path fill="none" stroke="midnightblue" d="M747.153,-132.054C765.705,-124.533 789.068,-115.149 810,-107 826.506,-100.574 845.088,-93.5695 859.862,-88.0542"/>
<polygon fill="midnightblue" stroke="midnightblue" points="745.606,-128.905 737.659,-135.911 748.241,-135.39 745.606,-128.905"/>
</g>
<!-- Node32 -->
<g id="node32" class="node"><title>Node32</title>
<g id="a_node32"><a xlink:href="tiffio_8h.html#a2992848d0612320b0aa5e7ef655a824e" target="_top" xlink:title="TIFFReadRGBAImage">
<polygon fill="white" stroke="black" points="1002.43,-137 1002.43,-157 1119.57,-157 1119.57,-137 1002.43,-137"/>
<text text-anchor="middle" x="1061" y="-143" font-family="Helvetica,sans-Serif" font-size="10.00">TIFFReadRGBAImage</text>
</a>
</g>
</g>
<!-- Node31&#45;&gt;Node32 -->
<g id="edge36" class="edge"><title>Node31&#45;&gt;Node32</title>
<path fill="none" stroke="midnightblue" d="M976.063,-156.326C984.989,-155.335 993.893,-154.345 1002.38,-153.402"/>
<polygon fill="midnightblue" stroke="midnightblue" points="975.548,-152.862 965.996,-157.445 976.321,-159.819 975.548,-152.862"/>
</g>
<!-- Node33 -->
<g id="node33" class="node"><title>Node33</title>
<g id="a_node33"><a xlink:href="class_t_i_f_f_image_i_o.html#a65d99c4b2c48e346698c0ae5462f2b20" target="_top" xlink:title="TIFFImageIO::Read">
<polygon fill="white" stroke="red" points="1008.54,-176 1008.54,-196 1113.46,-196 1113.46,-176 1008.54,-176"/>
<text text-anchor="middle" x="1061" y="-182" font-family="Helvetica,sans-Serif" font-size="10.00">TIFFImageIO::Read</text>
</a>
</g>
</g>
<!-- Node31&#45;&gt;Node33 -->
<g id="edge37" class="edge"><title>Node31&#45;&gt;Node33</title>
<path fill="none" stroke="midnightblue" d="M976.126,-176.19C987.168,-177.482 998.174,-178.769 1008.41,-179.966"/>
<polygon fill="midnightblue" stroke="midnightblue" points="976.335,-172.691 965.996,-175.005 975.522,-179.643 976.335,-172.691"/>
</g>
<!-- Node36&#45;&gt;Node30 -->
<g id="edge41" class="edge"><title>Node36&#45;&gt;Node30</title>
<path fill="none" stroke="midnightblue" d="M591.598,-100.322C599.158,-102.395 606.814,-104.644 614,-107 639.871,-115.482 668.727,-127.413 688.187,-135.84"/>
<polygon fill="midnightblue" stroke="midnightblue" points="592.327,-96.8943 581.763,-97.7046 590.526,-103.659 592.327,-96.8943"/>
</g>
<!-- Node37&#45;&gt;Node30 -->
<g id="edge43" class="edge"><title>Node37&#45;&gt;Node30</title>
<path fill="none" stroke="midnightblue" d="M230.654,-260.117C324.841,-253.487 544.251,-235.726 614,-210 648.261,-197.363 682.565,-170.602 699.724,-156.007"/>
<polygon fill="midnightblue" stroke="midnightblue" points="230.337,-256.63 220.604,-260.815 230.822,-263.613 230.337,-256.63"/>
</g>
<!-- Node38&#45;&gt;Node30 -->
<g id="edge45" class="edge"><title>Node38&#45;&gt;Node30</title>
<path fill="none" stroke="midnightblue" d="M236.781,-216.479C317.207,-217.765 480.233,-215.787 614,-185 641.77,-178.609 671.962,-165.388 691.16,-156.119"/>
<polygon fill="midnightblue" stroke="midnightblue" points="236.52,-212.974 226.457,-216.288 236.391,-219.972 236.52,-212.974"/>
</g>
<!-- Node39&#45;&gt;Node6 -->
<g id="edge49" class="edge"><title>Node39&#45;&gt;Node6</title>
<path fill="none" stroke="midnightblue" d="M425.545,-669C446.167,-669 468.735,-669 488.206,-669"/>
<polygon fill="midnightblue" stroke="midnightblue" points="425.283,-665.5 415.283,-669 425.283,-672.5 425.283,-665.5"/>
</g>
<!-- Node40&#45;&gt;Node4 -->
<g id="edge54" class="edge"><title>Node40&#45;&gt;Node4</title>
<path fill="none" stroke="midnightblue" d="M391.369,-626.03C403.233,-632.683 416.75,-641.031 428,-650 446.191,-664.503 444.024,-676.075 464,-688 470.856,-692.093 478.563,-695.366 486.346,-697.979"/>
<polygon fill="midnightblue" stroke="midnightblue" points="392.739,-622.791 382.283,-621.078 389.389,-628.937 392.739,-622.791"/>
</g>
<!-- Node40&#45;&gt;Node6 -->
<g id="edge53" class="edge"><title>Node40&#45;&gt;Node6</title>
<path fill="none" stroke="midnightblue" d="M402.163,-624.236C434.144,-634.775 478.233,-649.304 507.4,-658.916"/>
<polygon fill="midnightblue" stroke="midnightblue" points="403.25,-620.909 392.657,-621.103 401.059,-627.557 403.25,-620.909"/>
</g>
<!-- Node40&#45;&gt;Node20 -->
<g id="edge55" class="edge"><title>Node40&#45;&gt;Node20</title>
<path fill="none" stroke="midnightblue" d="M420.024,-605.828C471.616,-600.334 548.762,-589.909 614,-572 640.955,-564.601 670.582,-551.99 689.911,-543.116"/>
<polygon fill="midnightblue" stroke="midnightblue" points="419.643,-602.349 410.057,-606.862 420.365,-609.311 419.643,-602.349"/>
</g>
<!-- Node40&#45;&gt;Node24 -->
<g id="edge51" class="edge"><title>Node40&#45;&gt;Node24</title>
<path fill="none" stroke="midnightblue" d="M420.035,-608.659C471.117,-606.552 547.507,-603.291 614,-600 838.958,-588.866 900.341,-621.799 1120,-572 1143.5,-566.672 1168.85,-555.452 1185.69,-547.145"/>
<polygon fill="midnightblue" stroke="midnightblue" points="419.697,-605.17 409.849,-609.077 419.984,-612.164 419.697,-605.17"/>
</g>
<!-- Node40&#45;&gt;Node28 -->
<g id="edge52" class="edge"><title>Node40&#45;&gt;Node28</title>
<path fill="none" stroke="midnightblue" d="M402.163,-597.764C434.144,-587.225 478.233,-572.696 507.4,-563.084"/>
<polygon fill="midnightblue" stroke="midnightblue" points="401.059,-594.443 392.657,-600.897 403.25,-601.091 401.059,-594.443"/>
</g>
<!-- Node43 -->
<g id="node43" class="node"><title>Node43</title>
<g id="a_node43"><a xlink:href="tiffio_8h.html#aeb8ced7ec5236ab9b4f5db5ec3c200ad" target="_top" xlink:title="TIFFWriteScanline">
<polygon fill="white" stroke="black" points="1156.69,-331 1156.69,-351 1255.31,-351 1255.31,-331 1156.69,-331"/>
<text text-anchor="middle" x="1206" y="-337" font-family="Helvetica,sans-Serif" font-size="10.00">TIFFWriteScanline</text>
</a>
</g>
</g>
<!-- Node42&#45;&gt;Node43 -->
<g id="edge58" class="edge"><title>Node42&#45;&gt;Node43</title>
<path fill="none" stroke="midnightblue" d="M239.536,-321C308.168,-321 432.074,-321 538,-321 538,-321 538,-321 889,-321 983.962,-321 1094.66,-330.107 1156.61,-336.03"/>
<polygon fill="midnightblue" stroke="midnightblue" points="239.413,-317.5 229.413,-321 239.413,-324.5 239.413,-317.5"/>
</g>
<!-- Node44 -->
<g id="node44" class="node"><title>Node44</title>
<g id="a_node44"><a xlink:href="tiffio_8h.html#a97ab5cd747490e96fc3902ab4eaaca77" target="_top" xlink:title="TIFFWriteEncodedStrip">
<polygon fill="white" stroke="black" points="300.852,-272 300.852,-292 421.148,-292 421.148,-272 300.852,-272"/>
<text text-anchor="middle" x="361" y="-278" font-family="Helvetica,sans-Serif" font-size="10.00">TIFFWriteEncodedStrip</text>
</a>
</g>
</g>
<!-- Node42&#45;&gt;Node44 -->
<g id="edge60" class="edge"><title>Node42&#45;&gt;Node44</title>
<path fill="none" stroke="midnightblue" d="M239.103,-309.254C263.428,-303.771 292.089,-297.309 315.398,-292.055"/>
<polygon fill="midnightblue" stroke="midnightblue" points="238.306,-305.846 229.321,-311.46 239.845,-312.675 238.306,-305.846"/>
</g>
<!-- Node45 -->
<g id="node45" class="node"><title>Node45</title>
<g id="a_node45"><a xlink:href="tiffio_8h.html#a7dcab5b4d2f3edac171e1392fb938061" target="_top" xlink:title="TIFFWriteRawStrip">
<polygon fill="white" stroke="black" points="310.588,-350 310.588,-370 411.412,-370 411.412,-350 310.588,-350"/>
<text text-anchor="middle" x="361" y="-356" font-family="Helvetica,sans-Serif" font-size="10.00">TIFFWriteRawStrip</text>
</a>
</g>
</g>
<!-- Node42&#45;&gt;Node45 -->
<g id="edge61" class="edge"><title>Node42&#45;&gt;Node45</title>
<path fill="none" stroke="midnightblue" d="M239.103,-332.746C263.428,-338.229 292.089,-344.691 315.398,-349.945"/>
<polygon fill="midnightblue" stroke="midnightblue" points="239.845,-329.325 229.321,-330.54 238.306,-336.154 239.845,-329.325"/>
</g>
<!-- Node43&#45;&gt;Node13 -->
<g id="edge59" class="edge"><title>Node43&#45;&gt;Node13</title>
<path fill="none" stroke="midnightblue" d="M1265.31,-352.32C1371.15,-372.864 1592.01,-415.737 1679.83,-432.784"/>
<polygon fill="midnightblue" stroke="midnightblue" points="1265.92,-348.873 1255.44,-350.403 1264.59,-355.744 1265.92,-348.873"/>
</g>
<!-- Node46&#45;&gt;Node27 -->
<g id="edge64" class="edge"><title>Node46&#45;&gt;Node27</title>
<path fill="none" stroke="midnightblue" d="M240.89,-448.435C257.842,-451.485 276.662,-454.631 294,-457 486.395,-483.286 715.544,-501.674 824.053,-509.611"/>
<polygon fill="midnightblue" stroke="midnightblue" points="241.072,-444.911 230.606,-446.557 239.814,-451.797 241.072,-444.911"/>
</g>
<!-- Node47 -->
<g id="node47" class="node"><title>Node47</title>
<g id="a_node47"><a xlink:href="tiffio_8h.html#a97099944980dd2498d80a8067c5abfd1" target="_top" xlink:title="TIFFWriteCheck">
<polygon fill="white" stroke="black" points="316.699,-428 316.699,-448 405.301,-448 405.301,-428 316.699,-428"/>
<text text-anchor="middle" x="361" y="-434" font-family="Helvetica,sans-Serif" font-size="10.00">TIFFWriteCheck</text>
</a>
</g>
</g>
<!-- Node46&#45;&gt;Node47 -->
<g id="edge65" class="edge"><title>Node46&#45;&gt;Node47</title>
<path fill="none" stroke="midnightblue" d="M240.832,-438C265.221,-438 293.673,-438 316.659,-438"/>
<polygon fill="midnightblue" stroke="midnightblue" points="240.655,-434.5 230.655,-438 240.655,-441.5 240.655,-434.5"/>
</g>
<!-- Node49 -->
<g id="node49" class="node"><title>Node49</title>
<g id="a_node49"><a xlink:href="tif__getimage_8c.html#adc8b390bb5b34fbb60965e2cbca73d8d" target="_top" xlink:title="initYCbCrConversion">
<polygon fill="white" stroke="black" points="306.315,-156 306.315,-176 415.685,-176 415.685,-156 306.315,-156"/>
<text text-anchor="middle" x="361" y="-162" font-family="Helvetica,sans-Serif" font-size="10.00">initYCbCrConversion</text>
</a>
</g>
</g>
<!-- Node48&#45;&gt;Node49 -->
<g id="edge67" class="edge"><title>Node48&#45;&gt;Node49</title>
<path fill="none" stroke="midnightblue" d="M252.893,-169.096C270.499,-168.587 289.314,-168.043 306.184,-167.555"/>
<polygon fill="midnightblue" stroke="midnightblue" points="252.585,-165.603 242.691,-169.39 252.788,-172.6 252.585,-165.603"/>
</g>
<!-- Node50 -->
<g id="node50" class="node"><title>Node50</title>
<g id="a_node50"><a xlink:href="tif__getimage_8c.html#aa1437f2670934aacc32b2d2c2429b154" target="_top" xlink:title="pickTileContigCase">
<polygon fill="white" stroke="black" points="488.109,-156 488.109,-176 589.891,-176 589.891,-156 488.109,-156"/>
<text text-anchor="middle" x="539" y="-162" font-family="Helvetica,sans-Serif" font-size="10.00">pickTileContigCase</text>
</a>
</g>
</g>
<!-- Node49&#45;&gt;Node50 -->
<g id="edge68" class="edge"><title>Node49&#45;&gt;Node50</title>
<path fill="none" stroke="midnightblue" d="M425.919,-166C446.321,-166 468.594,-166 487.871,-166"/>
<polygon fill="midnightblue" stroke="midnightblue" points="425.762,-162.5 415.762,-166 425.762,-169.5 425.762,-162.5"/>
</g>
<!-- Node50&#45;&gt;Node30 -->
<g id="edge69" class="edge"><title>Node50&#45;&gt;Node30</title>
<path fill="none" stroke="midnightblue" d="M600.278,-158.95C617.259,-156.964 635.698,-154.807 652.569,-152.834"/>
<polygon fill="midnightblue" stroke="midnightblue" points="599.446,-155.523 589.92,-160.161 600.259,-162.476 599.446,-155.523"/>
</g>
</g>
</svg>
