<?xml version="1.0" encoding="UTF-8" standalone="no"?>
<!DOCTYPE svg PUBLIC "-//W3C//DTD SVG 1.1//EN"
 "http://www.w3.org/Graphics/SVG/1.1/DTD/svg11.dtd">
<!-- Generated by graphviz version 2.32.0 (20130916.1925)
 -->
<!-- Title: fft_scalar Pages: 1 -->
<!--zoomable 95 -->
<svg id="main" version="1.1" xmlns="http://www.w3.org/2000/svg" xmlns:xlink="http://www.w3.org/1999/xlink" xml:space="preserve" onload="init(evt)">
        <defs>
                <circle id="rim" cx="0" cy="0" r="7"/>
                <circle id="rim2" cx="0" cy="0" r="3.5"/>
                <g id="zoomPlus">
                        <use xlink:href="#rim" fill="#404040">
                                <set attributeName="fill" to="#808080" begin="zoomplus.mouseover" end="zoomplus.mouseout"/>
                        </use>
                        <path d="M-4,0h8M0,-4v8" fill="none" stroke="white" stroke-width="1.5" pointer-events="none"/>
                </g>
                <g id="zoomMin">
                        <use xlink:href="#rim" fill="#404040">
                                <set attributeName="fill" to="#808080" begin="zoomminus.mouseover" end="zoomminus.mouseout"/>
                        </use>
                        <path d="M-4,0h8" fill="none" stroke="white" stroke-width="1.5" pointer-events="none"/>
                </g>
                <g id="dirArrow">
                        <path fill="none" stroke="white" stroke-width="1.5" d="M0,-3.0v7 M-2.5,-0.5L0,-3.0L2.5,-0.5"/>
                </g>
               <g id="resetDef">
                       <use xlink:href="#rim2" fill="#404040">
                               <set attributeName="fill" to="#808080" begin="reset.mouseover" end="reset.mouseout"/>
                       </use>
               </g>
        </defs>

<script type="text/javascript">
var viewWidth = 1380;
var viewHeight = 95;
var sectionId = 'dynsection-9';
</script>
<script xlink:href="svgpan.js"/>
<svg id="graph" class="graph">
<g id="viewport">
<title>fft_scalar</title>
<polygon fill="white" stroke="white" points="-4,5 -4,-91 1377,-91 1377,5 -4,5"/>
<!-- Node1 -->
<g id="node1" class="node"><title>Node1</title>
<polygon fill="#bfbfbf" stroke="black" points="-0.197754,-19 -0.197754,-39 56.1978,-39 56.1978,-19 -0.197754,-19"/>
<text text-anchor="middle" x="28" y="-25" font-family="Helvetica,sans-Serif" font-size="10.00">fft_scalar</text>
</g>
<!-- Node2 -->
<g id="node2" class="node"><title>Node2</title>
<g id="a_node2"><a xlink:href="vbigdsp_8cpp.html#ae0a38b013be66f0ff581e4b5e9d0f281" target="_top" xlink:title="fft_pingpong">
<polygon fill="white" stroke="black" points="92.5635,-19 92.5635,-39 163.437,-39 163.437,-19 92.5635,-19"/>
<text text-anchor="middle" x="128" y="-25" font-family="Helvetica,sans-Serif" font-size="10.00">fft_pingpong</text>
</a>
</g>
</g>
<!-- Node1&#45;&gt;Node2 -->
<g id="edge1" class="edge"><title>Node1&#45;&gt;Node2</title>
<path fill="none" stroke="midnightblue" d="M66.4233,-29C74.9898,-29 84.0569,-29 92.4941,-29"/>
<polygon fill="midnightblue" stroke="midnightblue" points="66.2985,-25.5001 56.2985,-29 66.2984,-32.5001 66.2985,-25.5001"/>
</g>
<!-- Node3 -->
<g id="node3" class="node"><title>Node3</title>
<g id="a_node3"><a xlink:href="vbigdsp_8h.html#af2ab131969e2f007da33e60f2f54114b" target="_top" xlink:title="FFTComplex">
<polygon fill="white" stroke="black" points="200.108,-19 200.108,-39 273.892,-39 273.892,-19 200.108,-19"/>
<text text-anchor="middle" x="237" y="-25" font-family="Helvetica,sans-Serif" font-size="10.00">FFTComplex</text>
</a>
</g>
</g>
<!-- Node2&#45;&gt;Node3 -->
<g id="edge2" class="edge"><title>Node2&#45;&gt;Node3</title>
<path fill="none" stroke="midnightblue" d="M173.507,-29C182.257,-29 191.338,-29 199.777,-29"/>
<polygon fill="midnightblue" stroke="midnightblue" points="173.444,-25.5001 163.444,-29 173.444,-32.5001 173.444,-25.5001"/>
</g>
<!-- Node4 -->
<g id="node4" class="node"><title>Node4</title>
<g id="a_node4"><a xlink:href="vbigdsp_8cpp.html#a38e87f9c7ae8534965b0ea707bdbf619" target="_top" xlink:title="fft_real_forward_scalar">
<polygon fill="white" stroke="black" points="310.231,-39 310.231,-59 427.769,-59 427.769,-39 310.231,-39"/>
<text text-anchor="middle" x="369" y="-45" font-family="Helvetica,sans-Serif" font-size="10.00">fft_real_forward_scalar</text>
</a>
</g>
</g>
<!-- Node3&#45;&gt;Node4 -->
<g id="edge3" class="edge"><title>Node3&#45;&gt;Node4</title>
<path fill="none" stroke="midnightblue" d="M284.166,-36.1024C292.546,-37.3917 301.383,-38.7513 310.051,-40.0848"/>
<polygon fill="midnightblue" stroke="midnightblue" points="284.628,-32.6325 274.212,-34.5711 283.564,-39.5511 284.628,-32.6325"/>
</g>
<!-- Node12 -->
<g id="node12" class="node"><title>Node12</title>
<g id="a_node12"><a xlink:href="vbigdsp_8cpp.html#a1a48211bf3e5130dc02c496e291712f6" target="_top" xlink:title="fft_real_inverse_scalar">
<polygon fill="white" stroke="black" points="310.785,-0 310.785,-20 427.215,-20 427.215,-0 310.785,-0"/>
<text text-anchor="middle" x="369" y="-6" font-family="Helvetica,sans-Serif" font-size="10.00">fft_real_inverse_scalar</text>
</a>
</g>
</g>
<!-- Node3&#45;&gt;Node12 -->
<g id="edge11" class="edge"><title>Node3&#45;&gt;Node12</title>
<path fill="none" stroke="midnightblue" d="M284.304,-22.2325C292.802,-20.9904 301.767,-19.6802 310.545,-18.3972"/>
<polygon fill="midnightblue" stroke="midnightblue" points="283.601,-18.798 274.212,-23.7074 284.613,-25.7244 283.601,-18.798"/>
</g>
<!-- Node5 -->
<g id="node5" class="node"><title>Node5</title>
<g id="a_node5"><a xlink:href="vbigdsp_8h.html#a149c566750d66eb4dc6b32c060ebba74" target="_top" xlink:title="FFTRealForward">
<polygon fill="white" stroke="black" points="464.217,-39 464.217,-59 555.783,-59 555.783,-39 464.217,-39"/>
<text text-anchor="middle" x="510" y="-45" font-family="Helvetica,sans-Serif" font-size="10.00">FFTRealForward</text>
</a>
</g>
</g>
<!-- Node4&#45;&gt;Node5 -->
<g id="edge4" class="edge"><title>Node4&#45;&gt;Node5</title>
<path fill="none" stroke="midnightblue" d="M438.39,-49C447.156,-49 455.945,-49 464.2,-49"/>
<polygon fill="midnightblue" stroke="midnightblue" points="438.143,-45.5001 428.143,-49 438.143,-52.5001 438.143,-45.5001"/>
</g>
<!-- Node6 -->
<g id="node6" class="node"><title>Node6</title>
<g id="a_node6"><a xlink:href="classrc_opto_kinetic_image.html#a1d1715dc28a0eea84834c136e02c26c4" target="_top" xlink:title="rcOptoKineticImage\l::genDFT">
<polygon fill="white" stroke="black" points="607.091,-55 607.091,-87 710.909,-87 710.909,-55 607.091,-55"/>
<text text-anchor="start" x="615.091" y="-73" font-family="Helvetica,sans-Serif" font-size="10.00">rcOptoKineticImage</text>
<text text-anchor="middle" x="659" y="-61" font-family="Helvetica,sans-Serif" font-size="10.00">::genDFT</text>
</a>
</g>
</g>
<!-- Node5&#45;&gt;Node6 -->
<g id="edge5" class="edge"><title>Node5&#45;&gt;Node6</title>
<path fill="none" stroke="midnightblue" d="M565.968,-57.2265C579.396,-59.2362 593.707,-61.378 606.944,-63.359"/>
<polygon fill="midnightblue" stroke="midnightblue" points="566.312,-53.739 555.904,-55.7203 565.275,-60.6619 566.312,-53.739"/>
</g>
<!-- Node7 -->
<g id="node7" class="node"><title>Node7</title>
<g id="a_node7"><a xlink:href="rc__analysis_8h.html#ae51d37ad5797d5b59058fafde4fb4248" target="_top" xlink:title="rf1DFourierAnalysisVoxels">
<polygon fill="white" stroke="black" points="592.365,-16 592.365,-36 725.635,-36 725.635,-16 592.365,-16"/>
<text text-anchor="middle" x="659" y="-22" font-family="Helvetica,sans-Serif" font-size="10.00">rf1DFourierAnalysisVoxels</text>
</a>
</g>
</g>
<!-- Node5&#45;&gt;Node7 -->
<g id="edge6" class="edge"><title>Node5&#45;&gt;Node7</title>
<path fill="none" stroke="midnightblue" d="M565.976,-40.3983C575.079,-38.9741 584.587,-37.4864 593.891,-36.0306"/>
<polygon fill="midnightblue" stroke="midnightblue" points="565.242,-36.9704 555.904,-41.9743 566.324,-43.8863 565.242,-36.9704"/>
</g>
<!-- Node8 -->
<g id="node8" class="node"><title>Node8</title>
<g id="a_node8"><a xlink:href="classrc_opto_kinetic_image.html#ab8c6bd963086ef561d0f65ec8240e139" target="_top" xlink:title="rcOptoKineticImage\l::genFreqImg">
<polygon fill="white" stroke="black" points="762.091,-10 762.091,-42 865.909,-42 865.909,-10 762.091,-10"/>
<text text-anchor="start" x="770.091" y="-28" font-family="Helvetica,sans-Serif" font-size="10.00">rcOptoKineticImage</text>
<text text-anchor="middle" x="814" y="-16" font-family="Helvetica,sans-Serif" font-size="10.00">::genFreqImg</text>
</a>
</g>
</g>
<!-- Node7&#45;&gt;Node8 -->
<g id="edge7" class="edge"><title>Node7&#45;&gt;Node8</title>
<path fill="none" stroke="midnightblue" d="M735.796,-26C744.701,-26 753.619,-26 762.067,-26"/>
<polygon fill="midnightblue" stroke="midnightblue" points="735.774,-22.5001 725.774,-26 735.774,-29.5001 735.774,-22.5001"/>
</g>
<!-- Node9 -->
<g id="node9" class="node"><title>Node9</title>
<g id="a_node9"><a xlink:href="classrc_muscle_segmenter.html#a61c65559f55fd9fa632b96e09ef50b2e" target="_top" xlink:title="rcMuscleSegmenter::\lgenFrequencySegmentation">
<polygon fill="white" stroke="black" points="902.18,-10 902.18,-42 1043.82,-42 1043.82,-10 902.18,-10"/>
<text text-anchor="start" x="910.18" y="-28" font-family="Helvetica,sans-Serif" font-size="10.00">rcMuscleSegmenter::</text>
<text text-anchor="middle" x="973" y="-16" font-family="Helvetica,sans-Serif" font-size="10.00">genFrequencySegmentation</text>
</a>
</g>
</g>
<!-- Node8&#45;&gt;Node9 -->
<g id="edge8" class="edge"><title>Node8&#45;&gt;Node9</title>
<path fill="none" stroke="midnightblue" d="M876.189,-26C884.704,-26 893.505,-26 902.163,-26"/>
<polygon fill="midnightblue" stroke="midnightblue" points="875.973,-22.5001 865.973,-26 875.973,-29.5001 875.973,-22.5001"/>
</g>
<!-- Node10 -->
<g id="node10" class="node"><title>Node10</title>
<g id="a_node10"><a xlink:href="classrc_muscle_segmenter.html#a660d7b3d1c240efa0b725e0db65154e3" target="_top" xlink:title="rcMuscleSegmenter::\lfilterByActivity">
<polygon fill="white" stroke="black" points="1079.76,-10 1079.76,-42 1190.24,-42 1190.24,-10 1079.76,-10"/>
<text text-anchor="start" x="1087.76" y="-28" font-family="Helvetica,sans-Serif" font-size="10.00">rcMuscleSegmenter::</text>
<text text-anchor="middle" x="1135" y="-16" font-family="Helvetica,sans-Serif" font-size="10.00">filterByActivity</text>
</a>
</g>
</g>
<!-- Node9&#45;&gt;Node10 -->
<g id="edge9" class="edge"><title>Node9&#45;&gt;Node10</title>
<path fill="none" stroke="midnightblue" d="M1054.28,-26C1062.91,-26 1071.54,-26 1079.75,-26"/>
<polygon fill="midnightblue" stroke="midnightblue" points="1054.18,-22.5001 1044.18,-26 1054.18,-29.5001 1054.18,-22.5001"/>
</g>
<!-- Node11 -->
<g id="node11" class="node"><title>Node11</title>
<g id="a_node11"><a xlink:href="classrc_engine_impl.html#a00ca0d227e480ddb5bd6be293b55d2c9" target="_top" xlink:title="rcEngineImpl::muscleTracker">
<polygon fill="white" stroke="black" points="1226.44,-16 1226.44,-36 1371.56,-36 1371.56,-16 1226.44,-16"/>
<text text-anchor="middle" x="1299" y="-22" font-family="Helvetica,sans-Serif" font-size="10.00">rcEngineImpl::muscleTracker</text>
</a>
</g>
</g>
<!-- Node10&#45;&gt;Node11 -->
<g id="edge10" class="edge"><title>Node10&#45;&gt;Node11</title>
<path fill="none" stroke="midnightblue" d="M1200.53,-26C1208.97,-26 1217.65,-26 1226.2,-26"/>
<polygon fill="midnightblue" stroke="midnightblue" points="1200.39,-22.5001 1190.39,-26 1200.39,-29.5001 1200.39,-22.5001"/>
</g>
<!-- Node13 -->
<g id="node13" class="node"><title>Node13</title>
<g id="a_node13"><a xlink:href="vbigdsp_8h.html#a61beacf0495a1cf3b668929e73f585d8" target="_top" xlink:title="FFTRealInverse">
<polygon fill="white" stroke="black" points="466.158,-0 466.158,-20 553.842,-20 553.842,-0 466.158,-0"/>
<text text-anchor="middle" x="510" y="-6" font-family="Helvetica,sans-Serif" font-size="10.00">FFTRealInverse</text>
</a>
</g>
</g>
<!-- Node12&#45;&gt;Node13 -->
<g id="edge12" class="edge"><title>Node12&#45;&gt;Node13</title>
<path fill="none" stroke="midnightblue" d="M437.371,-10C447.046,-10 456.777,-10 465.811,-10"/>
<polygon fill="midnightblue" stroke="midnightblue" points="437.339,-6.5001 427.339,-10 437.339,-13.5001 437.339,-6.5001"/>
</g>
</g>
</svg>
        <g id="navigator" transform="translate(0 0)" fill="#404254">
                <rect fill="#f2f5e9" fill-opacity="0.5" stroke="#606060" stroke-width=".5" x="0" y="0" width="60" height="60"/>
                <use id="zoomplus" xlink:href="#zoomPlus" x="17" y="9" onmousedown="handleZoom(evt,'in')"/>
                <use id="zoomminus" xlink:href="#zoomMin" x="42" y="9" onmousedown="handleZoom(evt,'out')"/>
                <use id="reset" xlink:href="#resetDef" x="30" y="36" onmousedown="handleReset()"/>
                <g id="arrowUp" xlink:href="#dirArrow" transform="translate(30 24)" onmousedown="handlePan(0,-1)">
                  <use xlink:href="#rim" fill="#404040">
                        <set attributeName="fill" to="#808080" begin="arrowUp.mouseover" end="arrowUp.mouseout"/>
                  </use>
                  <path fill="none" stroke="white" stroke-width="1.5" d="M0,-3.0v7 M-2.5,-0.5L0,-3.0L2.5,-0.5"/>
                </g>
                <g id="arrowRight" xlink:href="#dirArrow" transform="rotate(90) translate(36 -43)" onmousedown="handlePan(1,0)">
                  <use xlink:href="#rim" fill="#404040">
                        <set attributeName="fill" to="#808080" begin="arrowRight.mouseover" end="arrowRight.mouseout"/>
                  </use>
                  <path fill="none" stroke="white" stroke-width="1.5" d="M0,-3.0v7 M-2.5,-0.5L0,-3.0L2.5,-0.5"/>
                </g>
                <g id="arrowDown" xlink:href="#dirArrow" transform="rotate(180) translate(-30 -48)" onmousedown="handlePan(0,1)">
                  <use xlink:href="#rim" fill="#404040">
                        <set attributeName="fill" to="#808080" begin="arrowDown.mouseover" end="arrowDown.mouseout"/>
                  </use>
                  <path fill="none" stroke="white" stroke-width="1.5" d="M0,-3.0v7 M-2.5,-0.5L0,-3.0L2.5,-0.5"/>
                </g>
                <g id="arrowLeft" xlink:href="#dirArrow" transform="rotate(270) translate(-36 17)" onmousedown="handlePan(-1,0)">
                  <use xlink:href="#rim" fill="#404040">
                        <set attributeName="fill" to="#808080" begin="arrowLeft.mouseover" end="arrowLeft.mouseout"/>
                  </use>
                  <path fill="none" stroke="white" stroke-width="1.5" d="M0,-3.0v7 M-2.5,-0.5L0,-3.0L2.5,-0.5"/>
                </g>
        </g>
        <svg viewBox="0 0 15 15" width="100%" height="30px" preserveAspectRatio="xMaxYMin meet">
         <g id="arrow_out" transform="scale(0.3 0.3)">
          <a xlink:href="vbigdsp_8cpp_afc4785c346206680fc58b4fae0453329_icgraph_org.svg" target="_base">
           <rect id="button" ry="5" rx="5" y="6" x="6" height="38" width="38"
                fill="#f2f5e9" fill-opacity="0.5" stroke="#606060" stroke-width="1.0"/>
           <path id="arrow"
             d="M 11.500037,31.436501 C 11.940474,20.09759 22.043105,11.32322 32.158766,21.979434 L 37.068811,17.246167 C 37.068811,17.246167 37.088388,32 37.088388,32 L 22.160133,31.978069 C 22.160133,31.978069 26.997745,27.140456 26.997745,27.140456 C 18.528582,18.264221 13.291696,25.230495 11.500037,31.436501 z"
             style="fill:#404040;"/>
          </a>
         </g>
        </svg>
</svg>
