<?xml version="1.0" encoding="UTF-8" standalone="no"?>
<!DOCTYPE svg PUBLIC "-//W3C//DTD SVG 1.1//EN"
 "http://www.w3.org/Graphics/SVG/1.1/DTD/svg11.dtd">
<!-- Generated by graphviz version 2.32.0 (20130916.1925)
 -->
<!-- Title: color Pages: 1 -->
<svg width="1090pt" height="412pt"
 viewBox="0.00 0.00 1090.00 411.81" xmlns="http://www.w3.org/2000/svg" xmlns:xlink="http://www.w3.org/1999/xlink">
<g id="graph0" class="graph" transform="scale(1 1) rotate(0) translate(4 407.811)">
<title>color</title>
<polygon fill="white" stroke="white" points="-4,5 -4,-407.811 1087,-407.811 1087,5 -4,5"/>
<!-- Node1 -->
<g id="node1" class="node"><title>Node1</title>
<polygon fill="#bfbfbf" stroke="black" points="0.162598,-282.811 0.162598,-302.811 37.8374,-302.811 37.8374,-282.811 0.162598,-282.811"/>
<text text-anchor="middle" x="19" y="-288.811" font-family="Helvetica,sans-Serif" font-size="10.00">color</text>
</g>
<!-- Node2 -->
<g id="node2" class="node"><title>Node2</title>
<g id="a_node2"><a xlink:href="classcli__parser.html#a183aac4f38a81619dc8c0a2b3e857557" target="_top" xlink:title="cli_parser::name">
<polygon fill="white" stroke="black" points="76.0396,-327.811 76.0396,-347.811 165.96,-347.811 165.96,-327.811 76.0396,-327.811"/>
<text text-anchor="middle" x="121" y="-333.811" font-family="Helvetica,sans-Serif" font-size="10.00">cli_parser::name</text>
</a>
</g>
</g>
<!-- Node1&#45;&gt;Node2 -->
<g id="edge1" class="edge"><title>Node1&#45;&gt;Node2</title>
<path fill="none" stroke="midnightblue" d="M37.9518,-301.25C48.4357,-306.146 61.9357,-312.396 74,-317.811 78.2257,-319.707 82.6811,-321.679 87.0884,-323.613"/>
<polygon fill="midnightblue" stroke="midnightblue" points="85.9866,-326.951 96.5519,-327.742 88.7861,-320.535 85.9866,-326.951"/>
</g>
<!-- Node22 -->
<g id="node22" class="node"><title>Node22</title>
<g id="a_node22"><a xlink:href="classcli__parser.html#a733b08825a9e869f56b5e8b1c85ba5c5" target="_top" xlink:title="cli_parser::size">
<polygon fill="white" stroke="black" points="79.6553,-237.811 79.6553,-257.811 162.345,-257.811 162.345,-237.811 79.6553,-237.811"/>
<text text-anchor="middle" x="121" y="-243.811" font-family="Helvetica,sans-Serif" font-size="10.00">cli_parser::size</text>
</a>
</g>
</g>
<!-- Node1&#45;&gt;Node22 -->
<g id="edge32" class="edge"><title>Node1&#45;&gt;Node22</title>
<path fill="none" stroke="midnightblue" d="M37.8801,-283.886C48.3402,-278.744 61.8402,-272.244 74,-266.811 77.6239,-265.191 81.4285,-263.541 85.2321,-261.924"/>
<polygon fill="midnightblue" stroke="midnightblue" points="86.7114,-265.099 94.5818,-258.006 84.0061,-258.643 86.7114,-265.099"/>
</g>
<!-- Node23 -->
<g id="node23" class="node"><title>Node23</title>
<g id="a_node23"><a xlink:href="classcli__parser.html#a04a0d33d8cfd8978f5006abfad40387f" target="_top" xlink:title="cli_parser::switch\l_value">
<polygon fill="white" stroke="black" points="74.6553,-276.811 74.6553,-308.811 167.345,-308.811 167.345,-276.811 74.6553,-276.811"/>
<text text-anchor="start" x="82.6553" y="-294.811" font-family="Helvetica,sans-Serif" font-size="10.00">cli_parser::switch</text>
<text text-anchor="middle" x="121" y="-282.811" font-family="Helvetica,sans-Serif" font-size="10.00">_value</text>
</a>
</g>
</g>
<!-- Node1&#45;&gt;Node23 -->
<g id="edge33" class="edge"><title>Node1&#45;&gt;Node23</title>
<path fill="none" stroke="midnightblue" d="M37.878,-292.811C45.4665,-292.811 54.7669,-292.811 64.3478,-292.811"/>
<polygon fill="midnightblue" stroke="midnightblue" points="64.3736,-296.311 74.3735,-292.811 64.3735,-289.311 64.3736,-296.311"/>
</g>
<!-- Node3 -->
<g id="node3" class="node"><title>Node3</title>
<g id="a_node3"><a xlink:href="error__handler_8cpp.html#aac3be3c13a6d90b39f966b6e897c0744" target="_top" xlink:title="to_string">
<polygon fill="white" stroke="black" points="207.823,-324.811 207.823,-344.811 262.177,-344.811 262.177,-324.811 207.823,-324.811"/>
<text text-anchor="middle" x="235" y="-330.811" font-family="Helvetica,sans-Serif" font-size="10.00">to_string</text>
</a>
</g>
</g>
<!-- Node2&#45;&gt;Node3 -->
<g id="edge2" class="edge"><title>Node2&#45;&gt;Node3</title>
<path fill="none" stroke="midnightblue" d="M166.265,-336.625C176.703,-336.345 187.71,-336.05 197.746,-335.782"/>
<polygon fill="midnightblue" stroke="midnightblue" points="197.887,-339.279 207.79,-335.513 197.699,-332.282 197.887,-339.279"/>
</g>
<!-- Node3&#45;&gt;Node3 -->
<g id="edge31" class="edge"><title>Node3&#45;&gt;Node3</title>
<path fill="none" stroke="midnightblue" d="M217.153,-344.858C209.012,-353.582 214.961,-362.811 235,-362.811 247.524,-362.811 254.545,-359.206 256.062,-354.372"/>
<polygon fill="midnightblue" stroke="midnightblue" points="259.364,-353.212 252.847,-344.858 252.732,-355.452 259.364,-353.212"/>
</g>
<!-- Node4 -->
<g id="node4" class="node"><title>Node4</title>
<g id="a_node4"><a xlink:href="classerror__position.html#a3f7ed498a2a6aa5343334b17bbdf4bbf" target="_top" xlink:title="error_position::column">
<polygon fill="white" stroke="black" points="308.532,-383.811 308.532,-403.811 423.468,-403.811 423.468,-383.811 308.532,-383.811"/>
<text text-anchor="middle" x="366" y="-389.811" font-family="Helvetica,sans-Serif" font-size="10.00">error_position::column</text>
</a>
</g>
</g>
<!-- Node3&#45;&gt;Node4 -->
<g id="edge3" class="edge"><title>Node3&#45;&gt;Node4</title>
<path fill="none" stroke="midnightblue" d="M250.942,-344.97C263.988,-353.511 283.654,-365.606 302,-373.811 307.369,-376.212 313.113,-378.453 318.867,-380.502"/>
<polygon fill="midnightblue" stroke="midnightblue" points="317.901,-383.87 328.495,-383.764 320.147,-377.24 317.901,-383.87"/>
</g>
<!-- Node5 -->
<g id="node5" class="node"><title>Node5</title>
<g id="a_node5"><a xlink:href="classerror__position.html#ac4739e90b92106a85b0f8c76e9198daf" target="_top" xlink:title="error_position::filename">
<polygon fill="white" stroke="black" points="305.751,-344.811 305.751,-364.811 426.249,-364.811 426.249,-344.811 305.751,-344.811"/>
<text text-anchor="middle" x="366" y="-350.811" font-family="Helvetica,sans-Serif" font-size="10.00">error_position::filename</text>
</a>
</g>
</g>
<!-- Node3&#45;&gt;Node5 -->
<g id="edge4" class="edge"><title>Node3&#45;&gt;Node5</title>
<path fill="none" stroke="midnightblue" d="M262.416,-338.906C272.206,-340.424 283.82,-342.224 295.652,-344.059"/>
<polygon fill="midnightblue" stroke="midnightblue" points="295.189,-347.529 305.608,-345.602 296.262,-340.612 295.189,-347.529"/>
</g>
<!-- Node6 -->
<g id="node6" class="node"><title>Node6</title>
<g id="a_node6"><a xlink:href="file__system_8cpp.html#a6982b54d454c07cc3f770f67c5d0b5ef" target="_top" xlink:title="filespec_to_relative_path">
<polygon fill="white" stroke="black" points="302.685,-305.811 302.685,-325.811 429.315,-325.811 429.315,-305.811 302.685,-305.811"/>
<text text-anchor="middle" x="366" y="-311.811" font-family="Helvetica,sans-Serif" font-size="10.00">filespec_to_relative_path</text>
</a>
</g>
</g>
<!-- Node3&#45;&gt;Node6 -->
<g id="edge5" class="edge"><title>Node3&#45;&gt;Node6</title>
<path fill="none" stroke="midnightblue" d="M262.416,-330.92C271.39,-329.598 281.895,-328.051 292.697,-326.46"/>
<polygon fill="midnightblue" stroke="midnightblue" points="293.281,-329.912 302.665,-324.992 292.261,-322.986 293.281,-329.912"/>
</g>
<!-- Node21 -->
<g id="node21" class="node"><title>Node21</title>
<g id="a_node21"><a xlink:href="classerror__position.html#af47fc5beec407412df713d56814af6fe" target="_top" xlink:title="error_position::line">
<polygon fill="white" stroke="black" points="316.867,-266.811 316.867,-286.811 415.133,-286.811 415.133,-266.811 316.867,-266.811"/>
<text text-anchor="middle" x="366" y="-272.811" font-family="Helvetica,sans-Serif" font-size="10.00">error_position::line</text>
</a>
</g>
</g>
<!-- Node3&#45;&gt;Node21 -->
<g id="edge30" class="edge"><title>Node3&#45;&gt;Node21</title>
<path fill="none" stroke="midnightblue" d="M251.241,-324.773C264.31,-316.477 283.85,-304.805 302,-296.811 307.449,-294.41 313.278,-292.161 319.108,-290.101"/>
<polygon fill="midnightblue" stroke="midnightblue" points="320.496,-293.327 328.855,-286.818 318.261,-286.693 320.496,-293.327"/>
</g>
<!-- Node7 -->
<g id="node7" class="node"><title>Node7</title>
<g id="a_node7"><a xlink:href="file__system_8cpp.html#a62475ca973dfe0094c00d60286c7c286" target="_top" xlink:title="create_filespec">
<polygon fill="white" stroke="black" points="620.37,-364.811 620.37,-384.811 703.63,-384.811 703.63,-364.811 620.37,-364.811"/>
<text text-anchor="middle" x="662" y="-370.811" font-family="Helvetica,sans-Serif" font-size="10.00">create_filespec</text>
</a>
</g>
</g>
<!-- Node6&#45;&gt;Node7 -->
<g id="edge6" class="edge"><title>Node6&#45;&gt;Node7</title>
<path fill="none" stroke="midnightblue" d="M405.904,-325.815C424.1,-330.347 446.099,-335.616 466,-339.811 514.763,-350.088 570.792,-359.943 610.242,-366.562"/>
<polygon fill="midnightblue" stroke="midnightblue" points="609.712,-370.022 620.152,-368.215 610.864,-363.117 609.712,-370.022"/>
</g>
<!-- Node9 -->
<g id="node9" class="node"><title>Node9</title>
<g id="a_node9"><a xlink:href="file__system_8cpp.html#acf89fa1738d4f789e4cc5b9c3c3bec72" target="_top" xlink:title="filename_part">
<polygon fill="white" stroke="black" points="623.705,-325.811 623.705,-345.811 700.295,-345.811 700.295,-325.811 623.705,-325.811"/>
<text text-anchor="middle" x="662" y="-331.811" font-family="Helvetica,sans-Serif" font-size="10.00">filename_part</text>
</a>
</g>
</g>
<!-- Node6&#45;&gt;Node9 -->
<g id="edge8" class="edge"><title>Node6&#45;&gt;Node9</title>
<path fill="none" stroke="midnightblue" d="M429.35,-320.052C484.27,-323.788 563.102,-329.151 613.172,-332.557"/>
<polygon fill="midnightblue" stroke="midnightblue" points="613.186,-336.066 623.401,-333.253 613.661,-329.082 613.186,-336.066"/>
</g>
<!-- Node10 -->
<g id="node10" class="node"><title>Node10</title>
<g id="a_node10"><a xlink:href="file__system_8cpp.html#acb48f4675dcd897962719fcc704fa980" target="_top" xlink:title="folder_part">
<polygon fill="white" stroke="black" points="493.096,-286.811 493.096,-306.811 556.904,-306.811 556.904,-286.811 493.096,-286.811"/>
<text text-anchor="middle" x="525" y="-292.811" font-family="Helvetica,sans-Serif" font-size="10.00">folder_part</text>
</a>
</g>
</g>
<!-- Node6&#45;&gt;Node10 -->
<g id="edge10" class="edge"><title>Node6&#45;&gt;Node10</title>
<path fill="none" stroke="midnightblue" d="M429.502,-308.247C447.319,-306.09 466.285,-303.795 482.513,-301.831"/>
<polygon fill="midnightblue" stroke="midnightblue" points="483.236,-305.269 492.743,-300.593 482.395,-298.32 483.236,-305.269"/>
</g>
<!-- Node11 -->
<g id="node11" class="node"><title>Node11</title>
<g id="a_node11"><a xlink:href="file__system_8cpp.html#a154091f28159afef5c72b12cee64a9a0" target="_top" xlink:title="folder_to_relative_path">
<polygon fill="white" stroke="black" points="466.131,-164.811 466.131,-184.811 583.869,-184.811 583.869,-164.811 466.131,-164.811"/>
<text text-anchor="middle" x="525" y="-170.811" font-family="Helvetica,sans-Serif" font-size="10.00">folder_to_relative_path</text>
</a>
</g>
</g>
<!-- Node6&#45;&gt;Node11 -->
<g id="edge12" class="edge"><title>Node6&#45;&gt;Node11</title>
<path fill="none" stroke="midnightblue" d="M410.649,-305.772C417.459,-303.151 424.164,-299.88 430,-295.811 468.891,-268.694 499.192,-220.685 514.013,-194.019"/>
<polygon fill="midnightblue" stroke="midnightblue" points="517.249,-195.393 518.921,-184.931 511.09,-192.067 517.249,-195.393"/>
</g>
<!-- Node8 -->
<g id="node8" class="node"><title>Node8</title>
<g id="a_node8"><a xlink:href="file__system_8cpp.html#a99e06c76afffe1f1d77f01c905b1a5fd" target="_top" xlink:title="is_separator">
<polygon fill="white" stroke="black" points="1001.49,-286.811 1001.49,-306.811 1072.51,-306.811 1072.51,-286.811 1001.49,-286.811"/>
<text text-anchor="middle" x="1037" y="-292.811" font-family="Helvetica,sans-Serif" font-size="10.00">is_separator</text>
</a>
</g>
</g>
<!-- Node7&#45;&gt;Node8 -->
<g id="edge7" class="edge"><title>Node7&#45;&gt;Node8</title>
<path fill="none" stroke="midnightblue" d="M703.894,-371.317C761.092,-365.774 867.869,-353.023 956,-328.811 972.642,-324.238 990.533,-317.288 1005.17,-311.031"/>
<polygon fill="midnightblue" stroke="midnightblue" points="1006.96,-314.065 1014.72,-306.848 1004.16,-307.652 1006.96,-314.065"/>
</g>
<!-- Node9&#45;&gt;Node8 -->
<g id="edge9" class="edge"><title>Node9&#45;&gt;Node8</title>
<path fill="none" stroke="midnightblue" d="M700.577,-333.667C756.438,-330.241 864.617,-322.682 956,-310.811 967.572,-309.307 980.022,-307.313 991.574,-305.302"/>
<polygon fill="midnightblue" stroke="midnightblue" points="992.218,-308.742 1001.45,-303.543 990.99,-301.851 992.218,-308.742"/>
</g>
<!-- Node10&#45;&gt;Node8 -->
<g id="edge11" class="edge"><title>Node10&#45;&gt;Node8</title>
<path fill="none" stroke="midnightblue" d="M557.135,-296.811C644.027,-296.811 889.431,-296.811 991.06,-296.811"/>
<polygon fill="midnightblue" stroke="midnightblue" points="991.297,-300.311 1001.3,-296.811 991.297,-293.311 991.297,-300.311"/>
</g>
<!-- Node12 -->
<g id="node12" class="node"><title>Node12</title>
<g id="a_node12"><a xlink:href="file__system_8cpp.html#a0a5c33c34c3c47d4e15e955b7ac25681" target="_top" xlink:title="relative_path">
<polygon fill="white" stroke="black" points="625.37,-103.811 625.37,-123.811 698.63,-123.811 698.63,-103.811 625.37,-103.811"/>
<text text-anchor="middle" x="662" y="-109.811" font-family="Helvetica,sans-Serif" font-size="10.00">relative_path</text>
</a>
</g>
</g>
<!-- Node11&#45;&gt;Node12 -->
<g id="edge13" class="edge"><title>Node11&#45;&gt;Node12</title>
<path fill="none" stroke="midnightblue" d="M548.293,-164.738C570.375,-154.76 604.403,-139.384 629.294,-128.137"/>
<polygon fill="midnightblue" stroke="midnightblue" points="631.003,-131.206 638.674,-123.898 628.12,-124.827 631.003,-131.206"/>
</g>
<!-- Node13 -->
<g id="node13" class="node"><title>Node13</title>
<g id="a_node13"><a xlink:href="classfile__specification.html#a518bc2d13c74b0e00131c87fdd294f2b" target="_top" xlink:title="file_specification\l::image">
<polygon fill="white" stroke="black" points="740.313,-171.811 740.313,-203.811 829.687,-203.811 829.687,-171.811 740.313,-171.811"/>
<text text-anchor="start" x="748.313" y="-189.811" font-family="Helvetica,sans-Serif" font-size="10.00">file_specification</text>
<text text-anchor="middle" x="785" y="-177.811" font-family="Helvetica,sans-Serif" font-size="10.00">::image</text>
</a>
</g>
</g>
<!-- Node12&#45;&gt;Node13 -->
<g id="edge14" class="edge"><title>Node12&#45;&gt;Node13</title>
<path fill="none" stroke="midnightblue" d="M678.859,-123.85C694.38,-133.638 718.724,-148.895 740,-161.811 742.489,-163.321 745.062,-164.872 747.658,-166.427"/>
<polygon fill="midnightblue" stroke="midnightblue" points="746.096,-169.571 756.479,-171.683 749.68,-163.558 746.096,-169.571"/>
</g>
<!-- Node15 -->
<g id="node15" class="node"><title>Node15</title>
<g id="a_node15"><a xlink:href="classfile__specification.html#a18e9d7a9b9dd1214d09ab5e843ea7806" target="_top" xlink:title="file_specification\l::relative">
<polygon fill="white" stroke="black" points="992.313,-24.8106 992.313,-56.8106 1081.69,-56.8106 1081.69,-24.8106 992.313,-24.8106"/>
<text text-anchor="start" x="1000.31" y="-42.8106" font-family="Helvetica,sans-Serif" font-size="10.00">file_specification</text>
<text text-anchor="middle" x="1037" y="-30.8106" font-family="Helvetica,sans-Serif" font-size="10.00">::relative</text>
</a>
</g>
</g>
<!-- Node12&#45;&gt;Node15 -->
<g id="edge29" class="edge"><title>Node12&#45;&gt;Node15</title>
<path fill="none" stroke="midnightblue" d="M667.58,-103.761C677.437,-83.5218 702.822,-38.2961 740,-20.8106 818.036,15.8912 920.61,-3.96931 982.245,-22.1052"/>
<polygon fill="midnightblue" stroke="midnightblue" points="981.562,-25.5553 992.147,-25.108 983.593,-18.8565 981.562,-25.5553"/>
</g>
<!-- Node17 -->
<g id="node17" class="node"><title>Node17</title>
<g id="a_node17"><a xlink:href="classfile__specification.html#aefefc9da1b64f7ed66a436750a88ffa2" target="_top" xlink:title="file_specification\l::initialise_folder">
<polygon fill="white" stroke="black" points="866.313,-69.8106 866.313,-101.811 955.687,-101.811 955.687,-69.8106 866.313,-69.8106"/>
<text text-anchor="start" x="874.313" y="-87.8106" font-family="Helvetica,sans-Serif" font-size="10.00">file_specification</text>
<text text-anchor="middle" x="911" y="-75.8106" font-family="Helvetica,sans-Serif" font-size="10.00">::initialise_folder</text>
</a>
</g>
</g>
<!-- Node12&#45;&gt;Node17 -->
<g id="edge20" class="edge"><title>Node12&#45;&gt;Node17</title>
<path fill="none" stroke="midnightblue" d="M698.652,-109.769C739.85,-105.099 808.089,-97.3632 855.851,-91.9489"/>
<polygon fill="midnightblue" stroke="midnightblue" points="856.473,-95.4009 866.015,-90.7967 855.685,-88.4454 856.473,-95.4009"/>
</g>
<!-- Node19 -->
<g id="node19" class="node"><title>Node19</title>
<g id="a_node19"><a xlink:href="classfile__specification.html#a1c51930e39fad4d827a81b5b12a72752" target="_top" xlink:title="file_specification\l::make_absolute">
<polygon fill="white" stroke="black" points="740.311,-120.811 740.311,-152.811 829.689,-152.811 829.689,-120.811 740.311,-120.811"/>
<text text-anchor="start" x="748.311" y="-138.811" font-family="Helvetica,sans-Serif" font-size="10.00">file_specification</text>
<text text-anchor="middle" x="785" y="-126.811" font-family="Helvetica,sans-Serif" font-size="10.00">::make_absolute</text>
</a>
</g>
</g>
<!-- Node12&#45;&gt;Node19 -->
<g id="edge23" class="edge"><title>Node12&#45;&gt;Node19</title>
<path fill="none" stroke="midnightblue" d="M698.65,-120.587C708.476,-122.455 719.36,-124.524 729.975,-126.541"/>
<polygon fill="midnightblue" stroke="midnightblue" points="729.55,-130.023 740.027,-128.452 730.857,-123.146 729.55,-130.023"/>
</g>
<!-- Node20 -->
<g id="node20" class="node"><title>Node20</title>
<g id="a_node20"><a xlink:href="classfile__specification.html#a37f966146802536ffdb2f154e3df928f" target="_top" xlink:title="file_specification\l::make_relative">
<polygon fill="white" stroke="black" points="740.313,-30.8106 740.313,-62.8106 829.687,-62.8106 829.687,-30.8106 740.313,-30.8106"/>
<text text-anchor="start" x="748.313" y="-48.8106" font-family="Helvetica,sans-Serif" font-size="10.00">file_specification</text>
<text text-anchor="middle" x="785" y="-36.8106" font-family="Helvetica,sans-Serif" font-size="10.00">::make_relative</text>
</a>
</g>
</g>
<!-- Node12&#45;&gt;Node20 -->
<g id="edge26" class="edge"><title>Node12&#45;&gt;Node20</title>
<path fill="none" stroke="midnightblue" d="M681.115,-103.78C698.19,-94.3251 724.318,-79.8578 745.97,-67.8686"/>
<polygon fill="midnightblue" stroke="midnightblue" points="747.883,-70.8101 754.936,-62.904 744.492,-64.6863 747.883,-70.8101"/>
</g>
<!-- Node13&#45;&gt;Node8 -->
<g id="edge19" class="edge"><title>Node13&#45;&gt;Node8</title>
<path fill="none" stroke="midnightblue" d="M810.588,-203.829C826.098,-213.533 846.766,-225.745 866,-234.811 908.029,-254.62 958.237,-272.234 993.145,-283.578"/>
<polygon fill="midnightblue" stroke="midnightblue" points="992.422,-287.022 1003.01,-286.75 994.564,-280.358 992.422,-287.022"/>
</g>
<!-- Node14 -->
<g id="node14" class="node"><title>Node14</title>
<g id="a_node14"><a xlink:href="classfile__specification.html#a5b8f1026354ff32bfc183da3f38f5ce7" target="_top" xlink:title="file_specification\l::absolute">
<polygon fill="white" stroke="black" points="866.313,-120.811 866.313,-152.811 955.687,-152.811 955.687,-120.811 866.313,-120.811"/>
<text text-anchor="start" x="874.313" y="-138.811" font-family="Helvetica,sans-Serif" font-size="10.00">file_specification</text>
<text text-anchor="middle" x="911" y="-126.811" font-family="Helvetica,sans-Serif" font-size="10.00">::absolute</text>
</a>
</g>
</g>
<!-- Node13&#45;&gt;Node14 -->
<g id="edge15" class="edge"><title>Node13&#45;&gt;Node14</title>
<path fill="none" stroke="midnightblue" d="M825.234,-171.674C836.768,-166.93 849.521,-161.685 861.558,-156.734"/>
<polygon fill="midnightblue" stroke="midnightblue" points="863.104,-159.883 871.021,-152.842 860.441,-153.409 863.104,-159.883"/>
</g>
<!-- Node13&#45;&gt;Node15 -->
<g id="edge18" class="edge"><title>Node13&#45;&gt;Node15</title>
<path fill="none" stroke="midnightblue" d="M823.245,-203.847C860.713,-217.217 918.209,-229.844 956,-200.811 1005.24,-162.979 954.058,-114.967 992,-65.8106 992.564,-65.0803 993.155,-64.3679 993.771,-63.673"/>
<polygon fill="midnightblue" stroke="midnightblue" points="996.16,-66.2309 1001.16,-56.8919 991.429,-61.0724 996.16,-66.2309"/>
</g>
<!-- Node16 -->
<g id="node16" class="node"><title>Node16</title>
<g id="a_node16"><a xlink:href="string__utilities_8hpp.html#a657118c43fe44a8454311075655ac9d4" target="_top" xlink:title="vector_to_string">
<polygon fill="white" stroke="black" points="867.426,-171.811 867.426,-191.811 954.574,-191.811 954.574,-171.811 867.426,-171.811"/>
<text text-anchor="middle" x="911" y="-177.811" font-family="Helvetica,sans-Serif" font-size="10.00">vector_to_string</text>
</a>
</g>
</g>
<!-- Node13&#45;&gt;Node16 -->
<g id="edge17" class="edge"><title>Node13&#45;&gt;Node16</title>
<path fill="none" stroke="midnightblue" d="M829.718,-185.695C838.533,-185.269 847.889,-184.816 856.983,-184.376"/>
<polygon fill="midnightblue" stroke="midnightblue" points="857.275,-187.866 867.094,-183.887 856.937,-180.874 857.275,-187.866"/>
</g>
<!-- Node14&#45;&gt;Node15 -->
<g id="edge16" class="edge"><title>Node14&#45;&gt;Node15</title>
<path fill="none" stroke="midnightblue" d="M942.812,-120.563C947.427,-117.583 951.98,-114.3 956,-110.811 975.342,-94.0208 972.516,-82.4351 992,-65.8106 993.287,-64.7128 994.628,-63.6388 996.01,-62.5911"/>
<polygon fill="midnightblue" stroke="midnightblue" points="998.012,-65.4623 1004.25,-56.8976 994.032,-59.7036 998.012,-65.4623"/>
</g>
<!-- Node17&#45;&gt;Node8 -->
<g id="edge21" class="edge"><title>Node17&#45;&gt;Node8</title>
<path fill="none" stroke="midnightblue" d="M945.929,-101.964C949.606,-104.589 953.07,-107.537 956,-110.811 1000.83,-160.892 1023.32,-239.932 1031.84,-276.728"/>
<polygon fill="midnightblue" stroke="midnightblue" points="1028.47,-277.701 1034.04,-286.712 1035.3,-276.193 1028.47,-277.701"/>
</g>
<!-- Node18 -->
<g id="node18" class="node"><title>Node18</title>
<g id="a_node18"><a xlink:href="classfile__specification.html#ab6e2c3cc492528550d2c4021d3a1c225" target="_top" xlink:title="file_specification\l::path">
<polygon fill="white" stroke="black" points="992.313,-75.8106 992.313,-107.811 1081.69,-107.811 1081.69,-75.8106 992.313,-75.8106"/>
<text text-anchor="start" x="1000.31" y="-93.8106" font-family="Helvetica,sans-Serif" font-size="10.00">file_specification</text>
<text text-anchor="middle" x="1037" y="-81.8106" font-family="Helvetica,sans-Serif" font-size="10.00">::path</text>
</a>
</g>
</g>
<!-- Node17&#45;&gt;Node18 -->
<g id="edge22" class="edge"><title>Node17&#45;&gt;Node18</title>
<path fill="none" stroke="midnightblue" d="M955.718,-87.9259C964.238,-88.3382 973.263,-88.7749 982.068,-89.2009"/>
<polygon fill="midnightblue" stroke="midnightblue" points="982.102,-92.7066 992.259,-89.6941 982.44,-85.7148 982.102,-92.7066"/>
</g>
<!-- Node19&#45;&gt;Node14 -->
<g id="edge24" class="edge"><title>Node19&#45;&gt;Node14</title>
<path fill="none" stroke="midnightblue" d="M829.718,-136.811C838.238,-136.811 847.263,-136.811 856.068,-136.811"/>
<polygon fill="midnightblue" stroke="midnightblue" points="856.259,-140.311 866.259,-136.811 856.259,-133.311 856.259,-140.311"/>
</g>
<!-- Node19&#45;&gt;Node17 -->
<g id="edge25" class="edge"><title>Node19&#45;&gt;Node17</title>
<path fill="none" stroke="midnightblue" d="M825.234,-120.674C836.768,-115.93 849.521,-110.685 861.558,-105.734"/>
<polygon fill="midnightblue" stroke="midnightblue" points="863.104,-108.883 871.021,-101.842 860.441,-102.409 863.104,-108.883"/>
</g>
<!-- Node20&#45;&gt;Node15 -->
<g id="edge27" class="edge"><title>Node20&#45;&gt;Node15</title>
<path fill="none" stroke="midnightblue" d="M829.833,-45.7586C872.186,-44.7421 936.441,-43.2 981.945,-42.1079"/>
<polygon fill="midnightblue" stroke="midnightblue" points="982.304,-45.6004 992.218,-41.8613 982.136,-38.6024 982.304,-45.6004"/>
</g>
<!-- Node20&#45;&gt;Node17 -->
<g id="edge28" class="edge"><title>Node20&#45;&gt;Node17</title>
<path fill="none" stroke="midnightblue" d="M829.718,-60.5605C838.423,-63.2984 847.656,-66.2023 856.642,-69.0286"/>
<polygon fill="midnightblue" stroke="midnightblue" points="855.67,-72.3918 866.259,-72.0533 857.77,-65.7142 855.67,-72.3918"/>
</g>
<!-- Node23&#45;&gt;Node3 -->
<g id="edge34" class="edge"><title>Node23&#45;&gt;Node3</title>
<path fill="none" stroke="midnightblue" d="M164.982,-308.929C176.034,-313.073 187.802,-317.486 198.432,-321.472"/>
<polygon fill="midnightblue" stroke="midnightblue" points="197.228,-324.759 207.821,-324.993 199.686,-318.205 197.228,-324.759"/>
</g>
<!-- Node24 -->
<g id="node24" class="node"><title>Node24</title>
<g id="a_node24"><a xlink:href="string__utilities_8cpp.html#a981da2fc3da4b4974d8acb6d0593ed6a" target="_top" xlink:title="lowercase">
<polygon fill="white" stroke="black" points="204.49,-282.811 204.49,-302.811 265.51,-302.811 265.51,-282.811 204.49,-282.811"/>
<text text-anchor="middle" x="235" y="-288.811" font-family="Helvetica,sans-Serif" font-size="10.00">lowercase</text>
</a>
</g>
</g>
<!-- Node23&#45;&gt;Node24 -->
<g id="edge35" class="edge"><title>Node23&#45;&gt;Node24</title>
<path fill="none" stroke="midnightblue" d="M167.555,-292.811C176.338,-292.811 185.477,-292.811 194.065,-292.811"/>
<polygon fill="midnightblue" stroke="midnightblue" points="194.207,-296.311 204.207,-292.811 194.207,-289.311 194.207,-296.311"/>
</g>
</g>
</svg>
