<?xml version="1.0" encoding="UTF-8" standalone="no"?>
<!DOCTYPE svg PUBLIC "-//W3C//DTD SVG 1.1//EN"
 "http://www.w3.org/Graphics/SVG/1.1/DTD/svg11.dtd">
<!-- Generated by graphviz version 2.32.0 (20130916.1925)
 -->
<!-- Title: _printCommands Pages: 1 -->
<svg width="246pt" height="49pt"
 viewBox="0.00 0.00 246.00 49.00" xmlns="http://www.w3.org/2000/svg" xmlns:xlink="http://www.w3.org/1999/xlink">
<g id="graph0" class="graph" transform="scale(1 1) rotate(0) translate(4 45)">
<title>_printCommands</title>
<polygon fill="white" stroke="white" points="-4,5 -4,-45 243,-45 243,5 -4,5"/>
<!-- Node1 -->
<g id="node1" class="node"><title>Node1</title>
<polygon fill="#bfbfbf" stroke="black" points="-0.0712891,-1 -0.0712891,-21 92.0713,-21 92.0713,-1 -0.0712891,-1"/>
<text text-anchor="middle" x="46" y="-7" font-family="Helvetica,sans-Serif" font-size="10.00">_printCommands</text>
</g>
<!-- Node2 -->
<g id="node2" class="node"><title>Node2</title>
<g id="a_node2"><a xlink:href="visimatch_8cpp.html#add376e89f9e190dd86a8c2a0967a394f" target="_top" xlink:title="help">
<polygon fill="white" stroke="black" points="128.547,-21 128.547,-41 163.453,-41 163.453,-21 128.547,-21"/>
<text text-anchor="middle" x="146" y="-27" font-family="Helvetica,sans-Serif" font-size="10.00">help</text>
</a>
</g>
</g>
<!-- Node1&#45;&gt;Node2 -->
<g id="edge1" class="edge"><title>Node1&#45;&gt;Node2</title>
<path fill="none" stroke="midnightblue" d="M102.208,-22.267C111.693,-24.2027 120.863,-26.0741 128.265,-27.5846"/>
<polygon fill="midnightblue" stroke="midnightblue" points="102.769,-18.8093 92.2708,-20.2389 101.369,-25.6679 102.769,-18.8093"/>
</g>
<!-- Node3 -->
<g id="node3" class="node"><title>Node3</title>
<g id="a_node3"><a xlink:href="visimatch_8cpp.html#a3c04138a5bfe5d72780bb7e82a18e627" target="_top" xlink:title="main">
<polygon fill="white" stroke="black" points="200.163,-1 200.163,-21 237.837,-21 237.837,-1 200.163,-1"/>
<text text-anchor="middle" x="219" y="-7" font-family="Helvetica,sans-Serif" font-size="10.00">main</text>
</a>
</g>
</g>
<!-- Node1&#45;&gt;Node3 -->
<g id="edge3" class="edge"><title>Node1&#45;&gt;Node3</title>
<path fill="none" stroke="midnightblue" d="M102.565,-11C136.218,-11 176.952,-11 199.93,-11"/>
<polygon fill="midnightblue" stroke="midnightblue" points="102.376,-7.5001 92.3759,-11 102.376,-14.5001 102.376,-7.5001"/>
</g>
<!-- Node2&#45;&gt;Node3 -->
<g id="edge2" class="edge"><title>Node2&#45;&gt;Node3</title>
<path fill="none" stroke="midnightblue" d="M173.111,-23.6447C182.098,-21.1131 191.951,-18.3379 200.13,-16.0339"/>
<polygon fill="midnightblue" stroke="midnightblue" points="172.144,-20.281 163.467,-26.3613 174.042,-27.0188 172.144,-20.281"/>
</g>
</g>
</svg>
